<svg width="461" height="413" fill="none" xmlns="http://www.w3.org/2000/svg"><path d="M203.748 247.776l-68.734-39.119c-2.53-1.41-2.232-4.008.669-5.641l39.5-22.788c2.901-1.707 7.29-1.856 9.819-.371l68.733 39.118c2.53 1.41 2.232 4.008-.668 5.641l-39.5 22.788c-2.976 1.633-7.365 1.856-9.819.372z" fill="#F3F3F3"/><path d="M259.909 205.837V45.802l-63.75-16.627-11.753-6.83c-2.678-1.558-7.439-1.335-10.489.446l-10.935 6.31h-33.995l10.042 154.467c-.074 1.04.521 2.079 1.786 2.821l63.601 47.877c2.678 1.558 7.438 1.336 10.489-.446l42.4-24.42c1.785-.966 2.678-2.301 2.604-3.563z" fill="#7EC4F7"/><path d="M179.498 21.307c-2.009.074-4.017.52-5.654 1.484l-10.935 6.31h-33.995v160.48c-.074 1.039.521 2.079 1.786 2.82l73.718 41.939c1.264.742 3.049 1.114 4.909 1.039l.743-161.445-30.572-52.627z" fill="#D3E9F8"/><path d="M205.086 234.638c2.307.965 5.654.965 8.406-.075V72.004h-8.406v162.634z" fill="#7EC4F7"/><path d="M204.416 73.934l-73.718-41.939c-2.678-1.558-2.381-4.23.743-6.086l42.401-24.421c3.125-1.782 7.811-2.004 10.489-.446l73.717 41.939c2.679 1.559 2.381 4.231-.743 6.087l-42.401 24.42c-3.125 1.782-7.811 2.005-10.488.446z" fill="#D3E9F8"/><path d="M257.305 46.098L214.904 70.52c-3.125 1.782-7.811 2.004-10.488.446l-73.718-41.939c-.596-.371-1.042-.742-1.339-1.188-.893 1.485-.521 3.118 1.339 4.157l73.718 41.939c2.677 1.559 7.438 1.336 10.488-.446l42.401-24.42c2.454-1.41 3.124-3.34 2.082-4.9-.371.669-1.116 1.337-2.082 1.93z" fill="#F9FCFF"/><path d="M206.499 56.934L157.403 28.58c-1.264-.742-1.116-2.004.372-2.82l19.862-11.431c1.487-.817 3.645-.965 4.909-.223l49.096 28.355c1.264.742 1.115 2.004-.373 2.82l-19.861 11.432c-1.488.816-3.645.89-4.909.222z" fill="#7EC4F7"/><path d="M180.019 29.768l-2.827-1.633c-.149-.074-.149-.296.075-.37l2.752-1.56c.223-.148.52-.148.669 0l2.826 1.634c.15.074.15.297-.073.37l-2.753 1.56c-.223.148-.521.148-.669 0zm9.444 5.493l-2.827-1.633c-.148-.074-.148-.297.075-.37l2.752-1.56c.224-.148.521-.148.67 0l2.826 1.633c.149.075.149.297-.074.371l-2.752 1.56c-.149.073-.446.073-.67 0zm9.524 5.419l-2.826-1.633c-.149-.074-.149-.297.074-.371l2.752-1.559c.223-.148.521-.148.67 0l2.827 1.633c.148.075.148.297-.075.371l-2.752 1.56c-.149.148-.521.148-.67 0zm9.521 5.493l-2.827-1.633c-.148-.074-.148-.297.075-.371l2.752-1.56c.223-.148.52-.148.67 0l2.826 1.634c.149.074.149.297-.074.371l-2.752 1.559c-.224.074-.521.074-.67 0z" fill="#D3E9F8"/><path d="M157.403 28.507c.149 0 .223-.074.372-.149l19.862-11.43c1.487-.817 3.645-.966 4.909-.223l49.021 28.355c1.19-.817 1.19-1.93.075-2.598l-49.096-28.355c-1.264-.743-3.496-.668-4.909.222L157.775 25.76c-1.488.743-1.636 2.079-.372 2.747z" fill="#44A6E2"/><path d="M223.163 105.629l27.895-15.959c1.563-.89 2.827-3.34 2.827-5.418v-9.947c0-2.078-1.264-3.043-2.827-2.153l-27.895 15.96c-1.563.89-2.827 3.34-2.827 5.418v9.946c0 2.079 1.264 3.044 2.827 2.153z" fill="#203E79"/><path d="M252.469 71.856c.446.445.744 1.113.744 2.078v9.946c0 2.079-1.265 4.529-2.827 5.419l-27.895 15.959c-.521.297-.967.371-1.413.297.52.519 1.264.594 2.157.074l27.894-15.959c1.563-.89 2.827-3.34 2.827-5.418v-9.947c0-1.41-.595-2.301-1.487-2.45z" fill="#fff"/><path d="M231.567 94.792l2.529-1.485c.372-.222.595-.742.595-1.187v-2.746c0-.446-.297-.668-.595-.446l-2.529 1.485c-.372.222-.595.742-.595 1.187v2.747c0 .445.297.667.595.445z" fill="#3A6DAA"/><path d="M240.121 89.893l2.529-1.484c.372-.224.596-.743.596-1.188v-2.747c0-.445-.298-.668-.596-.445l-2.529 1.484c-.372.223-.595.743-.595 1.188v2.746c0 .372.298.594.595.446z" fill="#fff"/><path d="M223.163 177.556l27.895-15.959c1.563-.89 2.827-3.34 2.827-5.419v-9.946c0-2.079-1.264-3.043-2.827-2.153l-27.895 15.959c-1.563.891-2.827 3.34-2.827 5.419v9.946c0 2.079 1.264 3.044 2.827 2.153z" fill="#203E79"/><path d="M252.469 143.782c.446.446.744 1.113.744 2.078v9.947c0 2.078-1.265 4.528-2.827 5.419l-27.895 15.959c-.521.297-.967.371-1.413.297.52.519 1.264.593 2.157.074l27.894-15.96c1.563-.89 2.827-3.339 2.827-5.418v-9.946c0-1.41-.595-2.301-1.487-2.45z" fill="#fff"/><path d="M231.567 166.719l2.529-1.485c.372-.222.595-.742.595-1.188V161.3c0-.445-.297-.668-.595-.445l-2.529 1.484c-.372.223-.595.742-.595 1.188v2.746c0 .446.297.668.595.446z" fill="#3A6DAA"/><path d="M240.121 161.82l2.529-1.485c.372-.223.596-.743.596-1.187v-2.747c0-.445-.298-.668-.596-.445l-2.529 1.485c-.372.222-.595.741-.595 1.187v2.746c0 .446.298.594.595.446z" fill="#fff"/><path d="M223.163 213.482l27.895-15.959c1.563-.89 2.827-3.34 2.827-5.419v-9.946c0-2.079-1.264-3.043-2.827-2.153l-27.895 15.96c-1.563.89-2.827 3.339-2.827 5.418v9.946c0 2.153 1.264 3.118 2.827 2.153z" fill="#203E79"/><path d="M252.469 179.783c.446.445.744 1.113.744 2.078v9.947c0 2.078-1.265 4.528-2.827 5.419l-27.895 15.958c-.521.297-.967.372-1.413.297.52.52 1.264.594 2.157.075l27.894-15.96c1.563-.891 2.827-3.34 2.827-5.418v-9.947c0-1.484-.595-2.301-1.487-2.449z" fill="#fff"/><path d="M231.567 202.719l2.529-1.484c.372-.223.595-.742.595-1.188V197.3c0-.445-.297-.667-.595-.445l-2.529 1.485c-.372.222-.595.742-.595 1.188v2.746c0 .445.297.593.595.445z" fill="#3A6DAA"/><path d="M240.121 197.746l2.529-1.485c.372-.222.596-.742.596-1.187v-2.747c0-.445-.298-.667-.596-.445l-2.529 1.485c-.372.222-.595.741-.595 1.187v2.746c0 .446.298.668.595.446z" fill="#fff"/><path d="M223.163 141.555l27.895-15.958c1.563-.891 2.827-3.341 2.827-5.419v-9.947c0-2.078-1.264-3.043-2.827-2.152l-27.895 15.959c-1.563.891-2.827 3.34-2.827 5.419v9.946c0 2.152 1.264 3.043 2.827 2.152z" fill="#203E79"/><path d="M252.469 107.856c.446.446.744 1.114.744 2.078v9.947c0 2.078-1.265 4.528-2.827 5.419l-27.895 15.958c-.521.297-.967.372-1.413.297.52.52 1.264.594 2.157.075l27.894-15.959c1.563-.89 2.827-3.34 2.827-5.419v-9.946c0-1.485-.595-2.301-1.487-2.45z" fill="#fff"/><path d="M231.567 130.793l2.529-1.485c.372-.222.595-.742.595-1.188v-2.746c0-.445-.297-.668-.595-.445l-2.529 1.484c-.372.223-.595.742-.595 1.188v2.746c0 .371.297.594.595.446z" fill="#3A6DAA"/><path d="M240.121 125.819l2.529-1.484c.372-.223.596-.743.596-1.188V120.4c0-.445-.298-.667-.596-.445l-2.529 1.485c-.372.222-.595.742-.595 1.188v2.745c0 .446.298.669.595.446z" fill="#fff"/><path d="M199.059 95.386l-64.345-37.114c-1.414-.817-2.604-3.044-2.604-4.973V41.125c0-1.93 1.19-2.82 2.604-2.004l64.345 37.114c1.413.816 2.603 3.043 2.603 4.973v12.248c0 1.93-1.19 2.82-2.603 1.93z" fill="#4164C4"/><path d="M197.199 91.154l-60.7-34.96c-.744-.446-1.339-1.56-1.339-2.524v-9.205c0-.965.595-1.41 1.339-.965l60.7 34.962c.744.445 1.339 1.558 1.339 2.523v9.205c0 .89-.595 1.336-1.339.964z" fill="#5070E2"/><path d="M149.146 58.791l-9.076-5.195c-.744-.446-1.264-1.485-1.264-2.45 0-.965.595-1.41 1.264-.965l9.076 5.196c.743.445 1.264 1.485 1.264 2.45 0 .965-.521 1.41-1.264.965z" fill="#5B95FF"/><path d="M156.882 61.538c0 .965-.669 1.336-1.488.89-.818-.445-1.488-1.632-1.488-2.597 0-.965.67-1.337 1.488-.891.819.52 1.488 1.633 1.488 2.598zm5.209 3.043c0 .965-.67 1.336-1.488.891-.818-.445-1.488-1.633-1.488-2.598 0-.965.67-1.336 1.488-.89.818.445 1.488 1.632 1.488 2.597zm5.279 2.969c0 .966-.669 1.337-1.487.891-.819-.445-1.489-1.633-1.489-2.598 0-.965.67-1.336 1.489-.89.818.52 1.487 1.707 1.487 2.598z" fill="#03E59F"/><path d="M172.579 70.594c0 .965-.67 1.336-1.488.89-.818-.445-1.488-1.633-1.488-2.598 0-.965.67-1.336 1.488-.89.818.52 1.488 1.633 1.488 2.598zm22.017 15.439l-3.05-1.78c-.447-.298-.818-.966-.818-1.56v-3.266c0-.594.371-.89.818-.594l3.05 1.782c.445.297.818.965.818 1.558v3.192c.074.594-.298.891-.818.668z" fill="#203E79"/><path d="M199.059 116.986l-64.345-37.114c-1.414-.816-2.604-3.043-2.604-4.973V62.726c0-1.93 1.19-2.82 2.604-2.004l64.345 37.114c1.413.816 2.603 3.043 2.603 4.973v12.248c0 1.929-1.19 2.82-2.603 1.929z" fill="#4164C4"/><path d="M197.199 112.756l-60.7-34.962c-.744-.445-1.339-1.559-1.339-2.524v-9.204c0-.965.595-1.41 1.339-.965l60.7 34.961c.744.446 1.339 1.559 1.339 2.524v9.204c0 .891-.595 1.336-1.339.966z" fill="#5070E2"/><path d="M149.146 80.392l-9.076-5.196c-.744-.446-1.264-1.485-1.264-2.45 0-.965.595-1.41 1.264-.965l9.076 5.196c.743.445 1.264 1.485 1.264 2.45 0 .965-.521 1.41-1.264.965z" fill="#5B95FF"/><path d="M156.882 83.138c0 .966-.669 1.337-1.488.891-.818-.445-1.488-1.632-1.488-2.598 0-.965.67-1.336 1.488-.89.819.52 1.488 1.632 1.488 2.597z" fill="#03E59F"/><path d="M162.091 86.181c0 .965-.67 1.337-1.488.891-.818-.445-1.488-1.633-1.488-2.598 0-.964.67-1.336 1.488-.89.818.445 1.488 1.633 1.488 2.597z" fill="#203E79"/><path d="M166.926 90.12c.569-.33.565-1.4-.01-2.395-.575-.994-1.503-1.534-2.072-1.206-.57.328-.565 1.4.01 2.394.575.994 1.504 1.534 2.072 1.206z" fill="#03E59F"/><path d="M172.116 93.108c.57-.328.565-1.4-.011-2.394-.575-.994-1.503-1.534-2.072-1.206-.569.328-.565 1.4.011 2.394.575.994 1.503 1.534 2.072 1.206z" fill="#203E79"/><path d="M194.596 107.559l-3.05-1.782c-.447-.297-.818-.964-.818-1.558v-3.192c0-.594.371-.891.818-.594l3.05 1.781c.445.297.818.965.818 1.559v3.192c.074.594-.298.891-.818.594z" fill="#FFD22E"/><path d="M199.059 138.586l-64.345-37.114c-1.414-.816-2.604-3.042-2.604-4.973V84.252c0-1.93 1.19-2.821 2.604-2.004l64.345 37.113c1.413.817 2.603 3.044 2.603 4.974v12.247c0 2.004-1.19 2.821-2.603 2.004z" fill="#4164C4"/><path d="M197.199 134.281l-60.7-34.961c-.744-.445-1.339-1.56-1.339-2.524v-9.204c0-.965.595-1.41 1.339-.965l60.7 34.961c.744.446 1.339 1.559 1.339 2.524v9.204c0 .965-.595 1.41-1.339.965z" fill="#5070E2"/><path d="M149.146 101.992l-9.076-5.196c-.744-.445-1.264-1.485-1.264-2.45 0-.964.595-1.41 1.264-.964l9.076 5.196c.743.445 1.264 1.484 1.264 2.449 0 .965-.521 1.411-1.264.965z" fill="#5B95FF"/><path d="M156.882 104.739c0 .965-.669 1.335-1.488.89-.818-.446-1.488-1.633-1.488-2.598 0-.965.67-1.336 1.488-.89.819.519 1.488 1.632 1.488 2.598zm5.209 3.043c0 .965-.67 1.336-1.488.891-.818-.446-1.488-1.634-1.488-2.598 0-.965.67-1.336 1.488-.891.818.445 1.488 1.633 1.488 2.598z" fill="#FF65AB"/><path d="M167.37 110.752c0 .964-.669 1.335-1.487.89-.819-.446-1.489-1.633-1.489-2.598 0-.965.67-1.336 1.489-.891.818.52 1.487 1.633 1.487 2.599z" fill="#03E59F"/><path d="M172.579 113.794c0 .966-.67 1.336-1.488.891-.818-.446-1.488-1.633-1.488-2.598 0-.965.67-1.336 1.488-.891.818.52 1.488 1.633 1.488 2.598zm22.017 15.365l-3.05-1.782c-.447-.296-.818-.964-.818-1.558v-3.192c0-.593.371-.89.818-.594l3.05 1.782c.445.296.818.965.818 1.558v3.192c.074.594-.298.891-.818.594z" fill="#203E79"/><path d="M199.059 160.186l-64.345-37.114c-1.414-.816-2.604-3.042-2.604-4.973v-12.247c0-1.93 1.19-2.821 2.604-2.004l64.345 37.114c1.413.816 2.603 3.043 2.603 4.973v12.247c0 2.004-1.19 2.821-2.603 2.004z" fill="#4164C4"/><path d="M197.199 155.288l-60.7-34.961c-.744-.446-1.339-1.559-1.339-2.524v-9.204c0-.966.595-1.411 1.339-.966l60.7 34.962c.744.445 1.339 1.558 1.339 2.524v9.204c0 .891-.595 1.336-1.339.965z" fill="#5070E2"/><path d="M149.146 123.592l-9.076-5.196c-.744-.445-1.264-1.484-1.264-2.449 0-.965.595-1.411 1.264-.965l9.076 5.196c.743.446 1.264 1.484 1.264 2.45 0 .964-.521 1.335-1.264.964z" fill="#5B95FF"/><path d="M156.882 126.339c0 .965-.669 1.335-1.488.89-.818-.445-1.488-1.633-1.488-2.597 0-.966.67-1.337 1.488-.891.819.519 1.488 1.632 1.488 2.598zm5.209 2.969c0 .965-.67 1.336-1.488.891-.818-.446-1.488-1.633-1.488-2.598 0-.965.67-1.337 1.488-.891.818.519 1.488 1.707 1.488 2.598z" fill="#203E79"/><path d="M167.37 132.352c0 .964-.669 1.335-1.487.89-.819-.445-1.489-1.633-1.489-2.598 0-.965.67-1.336 1.489-.89.818.445 1.487 1.633 1.487 2.598z" fill="#03E59F"/><path d="M172.12 136.306c.569-.327.564-1.399-.011-2.393-.575-.994-1.503-1.535-2.073-1.207-.569.328-.564 1.4.012 2.394.574.995 1.502 1.534 2.072 1.206z" fill="#203E79"/><path d="M194.596 150.76l-3.05-1.781c-.447-.297-.818-.966-.818-1.559v-3.192c0-.594.371-.891.818-.594l3.05 1.782c.445.296.818.965.818 1.559v3.191c.074.594-.298.891-.818.594z" fill="#FFD22E"/><path d="M199.059 181.787l-64.345-37.114c-1.414-.817-2.604-3.043-2.604-4.973v-12.248c0-1.93 1.19-2.82 2.604-2.004l64.345 37.114c1.413.816 2.603 3.044 2.603 4.973v12.248c0 1.93-1.19 2.821-2.603 2.004z" fill="#4164C4"/><path d="M197.199 176.814l-60.7-34.962c-.744-.445-1.339-1.558-1.339-2.523v-9.205c0-.964.595-1.41 1.339-.964l60.7 34.961c.744.446 1.339 1.559 1.339 2.524v9.204c0 .965-.595 1.41-1.339.965z" fill="#5070E2"/><path d="M149.146 145.193l-9.076-5.197c-.744-.445-1.264-1.484-1.264-2.449 0-.965.595-1.41 1.264-.965l9.076 5.196c.743.446 1.264 1.485 1.264 2.45 0 .965-.521 1.335-1.264.965z" fill="#5B95FF"/><path d="M156.882 147.939c0 .965-.669 1.336-1.488.891-.818-.446-1.488-1.633-1.488-2.598 0-.966.67-1.337 1.488-.891.819.519 1.488 1.633 1.488 2.598z" fill="#203E79"/><path d="M162.091 150.908c0 .965-.67 1.336-1.488.891-.818-.445-1.488-1.633-1.488-2.598 0-.965.67-1.336 1.488-.891.818.52 1.488 1.707 1.488 2.598z" fill="#03E59F"/><path d="M167.37 153.952c0 .964-.669 1.336-1.487.89-.819-.445-1.489-1.633-1.489-2.598 0-.964.67-1.336 1.489-.891.818.52 1.487 1.634 1.487 2.599z" fill="#FF65AB"/><path d="M172.579 156.995c0 .965-.67 1.336-1.488.89-.818-.444-1.488-1.632-1.488-2.597 0-.966.67-1.336 1.488-.891.818.446 1.488 1.633 1.488 2.598z" fill="#03E59F"/><path d="M194.596 172.36l-3.05-1.781c-.447-.297-.818-.966-.818-1.559v-3.192c0-.594.371-.891.818-.594l3.05 1.782c.445.297.818.965.818 1.559v3.191c.074.594-.298.891-.818.594z" fill="#FFD22E"/><path d="M199.059 203.387l-64.345-37.114c-1.414-.816-2.604-3.043-2.604-4.973v-12.248c0-1.929 1.19-2.82 2.604-2.004l64.345 37.114c1.413.816 2.603 3.044 2.603 4.973v12.248c0 1.93-1.19 2.821-2.603 2.004z" fill="#4164C4"/><path d="M197.199 198.414l-60.7-34.961c-.744-.445-1.339-1.559-1.339-2.524v-9.205c0-.964.595-1.41 1.339-.964l60.7 34.961c.744.445 1.339 1.559 1.339 2.523v9.205c0 .965-.595 1.41-1.339.965z" fill="#5070E2"/><path d="M149.146 166.793l-9.076-5.196c-.744-.445-1.264-1.484-1.264-2.449 0-.966.595-1.41 1.264-.966l9.076 5.196c.743.446 1.264 1.485 1.264 2.45 0 .891-.521 1.336-1.264.965z" fill="#5B95FF"/><path d="M156.882 169.539c0 .965-.669 1.337-1.488.891-.818-.445-1.488-1.633-1.488-2.598 0-.964.67-1.336 1.488-.891.819.446 1.488 1.634 1.488 2.598zm5.209 2.969c0 .966-.67 1.337-1.488.891-.818-.445-1.488-1.632-1.488-2.598 0-.965.67-1.335 1.488-.891.818.52 1.488 1.708 1.488 2.598z" fill="#203E79"/><path d="M167.37 175.552c0 .964-.669 1.336-1.487.891-.819-.446-1.489-1.634-1.489-2.599 0-.964.67-1.336 1.489-.89.818.52 1.487 1.633 1.487 2.598z" fill="#03E59F"/><path d="M172.579 178.595c0 .965-.67 1.336-1.488.891-.818-.445-1.488-1.633-1.488-2.598 0-.965.67-1.336 1.488-.891.818.446 1.488 1.633 1.488 2.598zm22.017 15.366l-3.05-1.782c-.447-.297-.818-.965-.818-1.559v-3.192c0-.594.371-.891.818-.594l3.05 1.782c.445.297.818.965.818 1.559v3.192c.074.594-.298.89-.818.594z" fill="#203E79"/><path d="M199.059 224.988l-64.345-37.114c-1.414-.817-2.604-3.044-2.604-4.973v-12.174c0-1.93 1.19-2.82 2.604-2.004l64.345 37.114c1.413.816 2.603 3.043 2.603 4.973v12.247c0 1.856-1.19 2.747-2.603 1.931z" fill="#4164C4"/><path d="M197.199 220.014l-60.7-34.961c-.744-.445-1.339-1.559-1.339-2.524v-9.204c0-.965.595-1.411 1.339-.965l60.7 34.961c.744.445 1.339 1.559 1.339 2.524v9.204c0 .965-.595 1.41-1.339.965z" fill="#5070E2"/><path d="M149.146 188.393l-9.076-5.195c-.744-.446-1.264-1.485-1.264-2.45 0-.966.595-1.41 1.264-.966l9.076 5.197c.743.445 1.264 1.484 1.264 2.449 0 .891-.521 1.337-1.264.965z" fill="#5B95FF"/><path d="M190.728 211.032c0 1.782-1.265 2.525-2.826 1.634-1.563-.891-2.827-3.044-2.827-4.825 0-1.782 1.264-2.524 2.827-1.633 1.636.891 2.826 3.043 2.826 4.824z" fill="#fff"/><path d="M156.882 191.363c0 .964-.669 1.335-1.488.89-.818-.445-1.488-1.633-1.488-2.598 0-.965.67-1.336 1.488-.891.819.52 1.488 1.708 1.488 2.599z" fill="#203E79"/><path d="M162.091 194.405c0 .966-.67 1.337-1.488.891-.818-.445-1.488-1.632-1.488-2.598 0-.965.67-1.335 1.488-.89.818.519 1.488 1.632 1.488 2.597z" fill="#03E59F"/><path d="M166.916 198.343c.57-.328.565-1.4-.01-2.394-.576-.994-1.503-1.534-2.072-1.206-.569.328-.564 1.399.01 2.394.576.994 1.503 1.534 2.072 1.206z" fill="#203E79"/><path d="M295.02 303.001l-68.734-39.118c-2.529-1.41-2.231-4.009.669-5.641l39.5-22.788c2.901-1.707 7.29-1.856 9.819-.372l68.734 39.118c2.529 1.411 2.232 4.009-.67 5.642l-39.499 22.788c-2.901 1.633-7.29 1.781-9.819.371z" fill="#F3F3F3"/><path d="M351.181 260.988V100.953l-63.75-16.627-11.753-6.755c-2.678-1.559-7.439-1.336-10.489.446l-10.935 6.309H220.26l10.042 154.467c-.075 1.04.52 2.079 1.785 2.822l63.601 47.876c2.678 1.56 7.439 1.336 10.489-.445l42.401-24.421c1.859-1.039 2.677-2.375 2.603-3.637z" fill="#7EC4F7"/><path d="M270.77 76.532c-2.009.074-4.018.52-5.654 1.485l-10.935 6.309h-33.995v160.481c-.074 1.038.521 2.078 1.785 2.82l73.718 41.939c1.264.742 3.05 1.113 4.909 1.039l.745-161.445-30.573-52.628z" fill="#D3E9F8"/><path d="M296.358 289.863c2.307.964 5.654.965 8.406-.075V127.23h-8.406v162.633z" fill="#7EC4F7"/><path d="M295.688 129.086L221.97 87.147c-2.678-1.56-2.38-4.231.744-6.087l42.4-24.42c3.125-1.782 7.811-2.005 10.489-.446l73.718 41.939c2.678 1.558 2.38 4.23-.744 6.086l-42.401 24.421c-3.05 1.781-7.811 2.004-10.488.446z" fill="#D3E9F8"/><path d="M348.653 101.25l-42.401 24.42c-3.124 1.782-7.81 2.005-10.489.446l-73.717-41.939c-.595-.37-1.042-.742-1.34-1.187-.892 1.484-.52 3.118 1.34 4.156l73.717 41.94c2.679 1.558 7.439 1.335 10.489-.446l42.401-24.421c2.455-1.41 3.124-3.34 2.082-4.9-.445.743-1.115 1.337-2.082 1.931z" fill="#F9FCFF"/><path d="M297.771 112.087l-49.096-28.355c-1.264-.742-1.116-2.004.372-2.82l19.861-11.431c1.488-.817 3.645-.965 4.91-.223l49.095 28.355c1.265.742 1.116 2.004-.371 2.821l-19.862 11.431c-1.413.891-3.645.964-4.909.222z" fill="#7EC4F7"/><path d="M271.291 84.994l-2.827-1.633c-.148-.075-.148-.297.075-.37l2.752-1.56c.223-.149.521-.149.67 0l2.827 1.633c.148.074.148.297-.075.37l-2.752 1.56c-.149.074-.52.074-.67 0zm9.521 5.419l-2.827-1.633c-.149-.074-.149-.297.074-.371l2.753-1.559c.223-.148.521-.148.669 0l2.827 1.633c.149.074.149.297-.075.371l-2.752 1.559c-.223.148-.521.148-.669 0zm9.447 5.492l-2.826-1.632c-.149-.075-.149-.297.074-.372l2.752-1.559c.224-.148.521-.148.67 0l2.826 1.634c.149.073.149.297-.074.37l-2.752 1.56c-.149.074-.446.074-.67 0zm9.521 5.419l-2.826-1.633c-.149-.075-.149-.297.074-.371l2.752-1.56c.224-.148.521-.148.67 0l2.827 1.634c.148.074.148.297-.075.37l-2.752 1.56c-.149.074-.52.148-.67 0z" fill="#D3E9F8"/><path d="M248.749 83.73c.148 0 .223-.074.371-.148l19.862-11.431c1.487-.816 3.645-.965 4.909-.223l49.022 28.356c1.19-.818 1.19-1.93.074-2.599L273.891 69.33c-1.264-.742-3.496-.668-4.909.223L249.046 80.91c-1.413.816-1.562 2.078-.297 2.82z" fill="#44A6E2"/><path d="M314.508 160.78l27.895-15.958c1.562-.891 2.826-3.341 2.826-5.419v-9.946c0-2.078-1.264-3.044-2.826-2.153l-27.895 15.959c-1.562.89-2.827 3.34-2.827 5.419v9.946c0 2.079 1.265 3.043 2.827 2.152z" fill="#3056AA"/><path d="M343.744 127.007c.446.445.744 1.113.744 2.079v9.946c0 2.078-1.265 4.528-2.827 5.418l-27.895 15.96c-.521.296-.967.37-1.413.296.52.52 1.265.594 2.157.074l27.895-15.958c1.562-.891 2.827-3.341 2.827-5.419v-9.947c0-1.41-.595-2.301-1.488-2.449z" fill="#fff"/><path d="M322.914 150.017l2.53-1.484c.372-.223.595-.742.595-1.188v-2.746c0-.446-.298-.668-.595-.446l-2.53 1.485c-.371.222-.595.742-.595 1.188v2.746c-.073.371.224.594.595.445z" fill="#3A6DAA"/><path d="M331.469 145.044l2.529-1.484c.372-.223.595-.743.595-1.188v-2.747c0-.445-.298-.667-.595-.445l-2.529 1.485c-.373.222-.596.742-.596 1.187v2.746c-.074.446.223.669.596.446z" fill="#fff"/><path d="M314.508 232.707l27.895-15.959c1.562-.89 2.826-3.34 2.826-5.418v-9.947c0-2.078-1.264-3.043-2.826-2.152l-27.895 15.958c-1.562.891-2.827 3.341-2.827 5.42v9.946c0 2.152 1.265 3.117 2.827 2.152z" fill="#3056AA"/><path d="M343.744 199.008c.446.445.744 1.114.744 2.078v9.946c0 2.079-1.265 4.529-2.827 5.42l-27.895 15.884c-.521.297-.967.371-1.413.297.52.52 1.265.594 2.157.074l27.895-15.959c1.562-.89 2.827-3.34 2.827-5.419v-9.946c0-1.41-.595-2.227-1.488-2.375z" fill="#fff"/><path d="M322.914 221.944l2.53-1.485c.372-.222.595-.741.595-1.187v-2.746c0-.446-.298-.668-.595-.446l-2.53 1.485c-.371.222-.595.742-.595 1.187v2.747c-.073.371.224.594.595.445z" fill="#3A6DAA"/><path d="M331.469 216.971l2.529-1.485c.372-.222.595-.742.595-1.187v-2.746c0-.446-.298-.669-.595-.446l-2.529 1.484c-.373.223-.596.743-.596 1.188v2.747c-.074.445.223.667.596.445z" fill="#fff"/><path d="M314.508 268.708l27.895-15.959c1.562-.891 2.826-3.341 2.826-5.419v-9.947c0-2.078-1.264-3.043-2.826-2.152l-27.895 15.959c-1.562.891-2.827 3.34-2.827 5.418v9.947c0 2.078 1.265 3.043 2.827 2.153z" fill="#3056AA"/><path d="M343.744 234.934c.446.445.744 1.114.744 2.078v9.946c0 2.079-1.265 4.529-2.827 5.42l-27.895 15.958c-.521.297-.967.372-1.413.297.52.52 1.265.594 2.157.075l27.895-15.959c1.562-.891 2.827-3.341 2.827-5.419v-9.947c0-1.41-.595-2.301-1.488-2.449z" fill="#fff"/><path d="M322.914 257.87l2.53-1.484c.372-.223.595-.742.595-1.188v-2.746c0-.446-.298-.668-.595-.446l-2.53 1.485c-.371.223-.595.743-.595 1.188v2.746c-.073.445.224.668.595.445z" fill="#3A6DAA"/><path d="M331.469 252.971l2.529-1.484c.372-.223.595-.743.595-1.188v-2.747c0-.445-.298-.667-.595-.445l-2.529 1.485c-.373.222-.596.742-.596 1.188v2.746c-.074.445.223.593.596.445z" fill="#fff"/><path d="M314.508 196.781l27.895-15.959c1.562-.891 2.826-3.34 2.826-5.419v-9.946c0-2.079-1.264-3.043-2.826-2.152l-27.895 15.958c-1.562.891-2.827 3.341-2.827 5.419v9.946c0 2.078 1.265 3.044 2.827 2.153z" fill="#3056AA"/><path d="M343.744 163.008c.446.445.744 1.113.744 2.078v9.946c0 2.078-1.265 4.528-2.827 5.419l-27.895 15.958c-.521.297-.967.372-1.413.297.52.521 1.265.594 2.157.075l27.895-15.959c1.562-.89 2.827-3.34 2.827-5.419v-9.946c0-1.411-.595-2.301-1.488-2.449z" fill="#fff"/><path d="M322.914 185.944l2.53-1.485c.372-.223.595-.742.595-1.188v-2.746c0-.446-.298-.668-.595-.446l-2.53 1.485c-.371.223-.595.743-.595 1.188v2.747c-.073.445.224.667.595.445z" fill="#3A6DAA"/><path d="M331.469 181.045l2.529-1.485c.372-.222.595-.742.595-1.188v-2.745c0-.446-.298-.669-.595-.446l-2.529 1.484c-.373.223-.596.743-.596 1.188v2.747c-.074.445.223.593.596.445z" fill="#fff"/><path d="M290.335 150.611l-64.346-37.114c-1.413-.816-2.603-3.043-2.603-4.973V96.277c0-1.93 1.19-2.821 2.603-2.004l64.346 37.114c1.413.816 2.602 3.042 2.602 4.973v12.247c0 1.93-1.189 2.821-2.602 2.004z" fill="#4164C4"/><path d="M288.473 146.306l-60.626-34.961c-.743-.445-1.339-1.559-1.339-2.524v-9.204c0-.965.596-1.41 1.339-.965l60.701 34.961c.743.446 1.339 1.559 1.339 2.524v9.204c-.075.965-.67 1.41-1.414.965z" fill="#5070E2"/><path d="M240.494 114.017l-9.074-5.196c-.745-.445-1.266-1.485-1.266-2.449 0-.965.596-1.411 1.266-.965l9.074 5.196c.745.445 1.265 1.484 1.265 2.45 0 .89-.595 1.335-1.265.964z" fill="#5B95FF"/><path d="M248.154 116.764c0 .964-.669 1.335-1.488.89-.818-.446-1.487-1.633-1.487-2.597 0-.966.669-1.337 1.487-.891.819.445 1.488 1.632 1.488 2.598zm5.283 2.969c0 .965-.669 1.336-1.488.891-.818-.446-1.488-1.634-1.488-2.598 0-.965.67-1.337 1.488-.891.819.519 1.488 1.633 1.488 2.598zm5.208 3.043c0 .965-.668 1.336-1.487.89-.819-.444-1.488-1.632-1.488-2.597 0-.965.669-1.336 1.488-.891.819.52 1.487 1.633 1.487 2.598z" fill="#03E59F"/><path d="M263.851 125.745c0 .965-.67 1.336-1.488.891-.818-.446-1.488-1.633-1.488-2.598 0-.965.67-1.337 1.488-.891.818.519 1.488 1.707 1.488 2.598z" fill="#203E79"/><path d="M285.944 141.185l-3.05-1.781c-.447-.297-.818-.966-.818-1.56v-3.191c0-.594.371-.891.818-.594l3.05 1.781c.446.297.818.965.818 1.559v3.192c0 .594-.372.891-.818.594z" fill="#FFD22E"/><path d="M290.335 172.211l-64.346-37.113c-1.413-.817-2.603-3.043-2.603-4.974v-12.247c0-1.93 1.19-2.82 2.603-2.004l64.346 37.114c1.413.816 2.602 3.043 2.602 4.973v12.247c0 1.931-1.189 2.821-2.602 2.004z" fill="#4164C4"/><path d="M288.474 167.907l-60.699-34.962c-.745-.445-1.339-1.558-1.339-2.524v-9.203c0-.966.594-1.411 1.339-.966l60.699 34.961c.744.446 1.339 1.559 1.339 2.525v9.203c0 .966-.595 1.41-1.339.966z" fill="#5070E2"/><path d="M240.494 135.617l-9.074-5.196c-.745-.445-1.266-1.484-1.266-2.449 0-.965.596-1.411 1.266-.965l9.074 5.196c.745.445 1.265 1.485 1.265 2.45 0 .891-.595 1.335-1.265.964z" fill="#5B95FF"/><path d="M248.154 138.289c0 .966-.669 1.337-1.488.891-.818-.445-1.487-1.632-1.487-2.598 0-.965.669-1.335 1.487-.89.819.519 1.488 1.707 1.488 2.597z" fill="#03E59F"/><path d="M253.437 141.333c0 .965-.669 1.336-1.488.891-.818-.446-1.488-1.634-1.488-2.598 0-.965.67-1.337 1.488-.891.819.52 1.488 1.633 1.488 2.598z" fill="#203E79"/><path d="M258.645 144.376c0 .965-.668 1.337-1.487.891-.819-.445-1.488-1.633-1.488-2.598 0-.965.669-1.336 1.488-.891.819.52 1.487 1.634 1.487 2.598z" fill="#FF65AB"/><path d="M263.851 147.345c0 .965-.67 1.336-1.488.891-.818-.445-1.488-1.633-1.488-2.598 0-.965.67-1.336 1.488-.891.818.52 1.488 1.707 1.488 2.598zm22.093 15.439l-3.05-1.781c-.447-.297-.818-.965-.818-1.558v-3.192c0-.594.371-.891.818-.594l3.05 1.782c.446.297.818.964.818 1.558v3.191c0 .594-.372.818-.818.594z" fill="#203E79"/><path d="M290.335 193.812l-64.346-37.114c-1.413-.817-2.603-3.043-2.603-4.974v-12.247c0-1.93 1.19-2.82 2.603-2.004l64.346 37.114c1.413.816 2.602 3.044 2.602 4.973v12.248c0 1.93-1.189 2.821-2.602 2.004z" fill="#4164C4"/><path d="M288.474 189.507l-60.699-34.961c-.745-.446-1.339-1.559-1.339-2.525v-9.203c0-.966.594-1.41 1.339-.966l60.699 34.962c.744.445 1.339 1.558 1.339 2.524v9.203c0 .966-.595 1.412-1.339.966z" fill="#5070E2"/><path d="M240.494 157.217l-9.074-5.196c-.745-.444-1.266-1.484-1.266-2.448 0-.966.596-1.412 1.266-.966l9.074 5.196c.745.446 1.265 1.485 1.265 2.45 0 .891-.595 1.336-1.265.964z" fill="#5B95FF"/><path d="M247.711 160.882c.569-.329.564-1.4-.011-2.395-.575-.994-1.503-1.533-2.072-1.206-.569.328-.565 1.4.011 2.394.574.994 1.503 1.534 2.072 1.207z" fill="#FF65AB"/><path d="M252.964 163.834c.569-.328.565-1.4-.011-2.394-.575-.994-1.503-1.534-2.072-1.206-.569.327-.564 1.399.011 2.393.575.994 1.503 1.534 2.072 1.207z" fill="#203E79"/><path d="M258.645 165.976c0 .965-.668 1.337-1.487.891-.819-.445-1.488-1.633-1.488-2.598 0-.964.669-1.336 1.488-.891.819.446 1.487 1.634 1.487 2.598z" fill="#03E59F"/><path d="M263.851 168.945c0 .966-.67 1.337-1.488.891-.818-.445-1.488-1.633-1.488-2.598 0-.964.67-1.336 1.488-.891.818.52 1.488 1.708 1.488 2.598zm22.093 15.44l-3.05-1.782c-.447-.296-.818-.964-.818-1.558v-3.192c0-.594.371-.891.818-.594l3.05 1.782c.446.297.818.964.818 1.558v3.192c0 .594-.372.817-.818.594z" fill="#203E79"/><path d="M290.335 215.412l-64.346-37.114c-1.413-.816-2.603-3.043-2.603-4.973v-12.248c0-1.929 1.19-2.82 2.603-2.004l64.346 37.114c1.413.816 2.602 3.044 2.602 4.973v12.248c0 1.93-1.189 2.821-2.602 2.004z" fill="#4164C4"/><path d="M288.474 211.107l-60.699-34.961c-.745-.446-1.339-1.559-1.339-2.524v-9.204c0-.965.594-1.41 1.339-.965l60.699 34.962c.744.444 1.339 1.558 1.339 2.523v9.13c0 1.039-.595 1.485-1.339 1.039z" fill="#5070E2"/><path d="M240.494 178.744l-9.074-5.196c-.745-.446-1.266-1.485-1.266-2.45 0-.965.596-1.41 1.266-.965l9.074 5.196c.745.446 1.265 1.485 1.265 2.45 0 .965-.595 1.41-1.265.965z" fill="#5B95FF"/><path d="M248.154 181.49c0 .965-.669 1.336-1.488.891-.818-.445-1.487-1.633-1.487-2.598 0-.965.669-1.336 1.487-.891.819.519 1.488 1.707 1.488 2.598zm5.283 3.043c0 .966-.669 1.337-1.488.891-.818-.445-1.488-1.632-1.488-2.598 0-.965.67-1.336 1.488-.89.819.519 1.488 1.632 1.488 2.597z" fill="#203E79"/><path d="M258.645 187.577c0 .964-.668 1.336-1.487.89-.819-.445-1.488-1.633-1.488-2.598 0-.964.669-1.336 1.488-.891.819.446 1.487 1.634 1.487 2.599z" fill="#03E59F"/><path d="M263.851 190.546c0 .965-.67 1.336-1.488.891-.818-.446-1.488-1.633-1.488-2.599 0-.964.67-1.335 1.488-.89.818.52 1.488 1.633 1.488 2.598z" fill="#203E79"/><path d="M285.944 205.986l-3.05-1.782c-.447-.297-.818-.965-.818-1.559v-3.192c0-.594.371-.891.818-.594l3.05 1.782c.446.297.818.965.818 1.559v3.192c0 .594-.372.816-.818.594z" fill="#FFD22E"/><path d="M290.335 237.013l-64.346-37.114c-1.413-.817-2.603-3.044-2.603-4.973v-12.248c0-1.93 1.19-2.821 2.603-2.005l64.346 37.114c1.413.817 2.602 3.044 2.602 4.973v12.248c0 1.93-1.189 2.821-2.602 2.005z" fill="#4164C4"/><path d="M288.474 232.707l-60.699-34.961c-.745-.446-1.339-1.559-1.339-2.524v-9.204c0-.965.594-1.41 1.339-.965l60.699 34.962c.744.444 1.339 1.558 1.339 2.523v9.205c0 .89-.595 1.335-1.339.964z" fill="#5070E2"/><path d="M240.494 200.344l-9.074-5.196c-.745-.446-1.266-1.484-1.266-2.45 0-.965.596-1.41 1.266-.965l9.074 5.197c.745.445 1.265 1.484 1.265 2.449 0 .965-.595 1.41-1.265.965z" fill="#5B95FF"/><path d="M247.717 204.08c.569-.329.565-1.4-.011-2.394-.575-.994-1.503-1.534-2.072-1.207-.569.328-.564 1.4.011 2.394.575.994 1.503 1.534 2.072 1.207z" fill="#203E79"/><path d="M252.968 207.032c.57-.328.565-1.4-.011-2.394-.575-.994-1.503-1.534-2.072-1.206-.57.328-.565 1.4.011 2.394.575.994 1.503 1.533 2.072 1.206zm5.224 3.053c.57-.328.565-1.4-.01-2.394-.576-.994-1.503-1.534-2.072-1.206-.57.328-.565 1.4.01 2.394.576.994 1.503 1.534 2.072 1.206zm5.659 2.062c0 .964-.67 1.335-1.488.89-.818-.446-1.488-1.633-1.488-2.598 0-.965.67-1.336 1.488-.891.818.52 1.488 1.633 1.488 2.599z" fill="#03E59F"/><path d="M285.944 227.586l-3.05-1.782c-.447-.297-.818-.965-.818-1.559v-3.192c0-.594.371-.89.818-.594l3.05 1.782c.446.297.818.965.818 1.559v3.192c0 .594-.372.816-.818.594z" fill="#FFD22E"/><path d="M290.335 258.613l-64.346-37.114c-1.413-.817-2.603-3.043-2.603-4.973v-12.248c0-1.93 1.19-2.821 2.603-2.004l64.346 37.113c1.413.817 2.602 3.044 2.602 4.974v12.247c0 1.931-1.189 2.821-2.602 2.005z" fill="#4164C4"/><path d="M288.474 254.307l-60.699-34.961c-.745-.445-1.339-1.559-1.339-2.523v-9.205c0-.965.594-1.41 1.339-.965l60.699 34.962c.744.445 1.339 1.558 1.339 2.523v9.205c0 .891-.595 1.336-1.339.964z" fill="#5070E2"/><path d="M240.494 221.944l-9.074-5.195c-.745-.446-1.266-1.485-1.266-2.45 0-.965.596-1.411 1.266-.965l9.074 5.196c.745.445 1.265 1.485 1.265 2.449 0 .965-.595 1.41-1.265.965z" fill="#5B95FF"/><path d="M248.154 224.691c0 .964-.669 1.336-1.488.89-.818-.445-1.487-1.633-1.487-2.598 0-.964.669-1.336 1.487-.891.819.521 1.488 1.634 1.488 2.599zm5.283 3.043c0 .965-.669 1.336-1.488.891-.818-.445-1.488-1.633-1.488-2.598 0-.966.67-1.336 1.488-.891.819.519 1.488 1.633 1.488 2.598z" fill="#203E79"/><path d="M258.645 230.703c0 .965-.668 1.336-1.487.891-.819-.446-1.488-1.633-1.488-2.598 0-.965.669-1.337 1.488-.891.819.52 1.487 1.707 1.487 2.598z" fill="#03E59F"/><path d="M263.851 233.747c0 .964-.67 1.335-1.488.891-.818-.446-1.488-1.634-1.488-2.599 0-.965.67-1.336 1.488-.89.818.519 1.488 1.632 1.488 2.598zm22.093 15.439l-3.05-1.782c-.447-.297-.818-.965-.818-1.559v-3.191c0-.594.371-.891.818-.594l3.05 1.781c.446.297.818.966.818 1.559v3.192c0 .519-.372.816-.818.594z" fill="#203E79"/><path d="M290.335 280.139l-64.346-37.114c-1.413-.816-2.603-3.044-2.603-4.973v-12.248c0-1.93 1.19-2.821 2.603-2.004l64.346 37.114c1.413.816 2.602 3.043 2.602 4.973v12.248c0 2.004-1.189 2.895-2.602 2.004z" fill="#4164C4"/><path d="M288.474 275.907l-60.699-34.961c-.745-.445-1.339-1.559-1.339-2.523v-9.205c0-.965.594-1.41 1.339-.965l60.699 34.962c.744.445 1.339 1.559 1.339 2.523v9.205c0 .891-.595 1.336-1.339.964z" fill="#5070E2"/><path d="M240.494 243.544l-9.074-5.195c-.745-.446-1.266-1.485-1.266-2.45 0-.965.596-1.41 1.266-.965l9.074 5.196c.745.445 1.265 1.485 1.265 2.45 0 .964-.595 1.41-1.265.964z" fill="#5B95FF"/><path d="M249.865 247.479c0 1.781-1.265 2.523-2.826 1.632-1.563-.89-2.827-3.043-2.827-4.824 0-1.782 1.264-2.524 2.827-1.634 1.561.891 2.826 3.044 2.826 4.826z" fill="#fff"/><path d="M260.652 253.788c0 .965-.669 1.336-1.488.89-.818-.444-1.487-1.632-1.487-2.597 0-.966.669-1.336 1.487-.891.819.519 1.488 1.633 1.488 2.598z" fill="#203E79"/><path d="M265.934 256.832c0 .964-.67 1.335-1.488.89-.818-.446-1.488-1.633-1.488-2.598 0-.965.67-1.336 1.488-.891.818.52 1.488 1.633 1.488 2.599z" fill="#03E59F"/><path d="M270.693 260.78c.569-.328.565-1.4-.011-2.394-.574-.994-1.503-1.534-2.072-1.206-.569.328-.564 1.4.011 2.394.575.994 1.503 1.534 2.072 1.206z" fill="#203E79"/><path d="M285.944 270.786l-3.05-1.782c-.447-.297-.818-.964-.818-1.558v-3.192c0-.594.371-.891.818-.594l3.05 1.781c.446.297.818.966.818 1.559v3.192c0 .52-.372.816-.818.594z" fill="#FFD22E"/><path d="M208.804 335.81l-68.734-39.119c-2.529-1.41-2.232-4.008.67-5.64l39.5-22.788c2.901-1.708 7.289-1.856 9.819-.372l68.733 39.118c2.529 1.41 2.232 4.008-.669 5.642l-39.5 22.713c-2.901 1.707-7.29 1.856-9.819.446z" fill="#F3F3F3"/><path d="M264.966 293.796V133.762l-63.751-16.627-11.753-6.755c-2.677-1.559-7.438-1.337-10.488.445l-10.935 6.31h-33.995l10.042 154.467c-.075 1.04.521 2.079 1.786 2.822l63.601 47.876c2.677 1.559 7.438 1.336 10.488-.445l42.401-24.421c1.785-1.039 2.678-2.376 2.604-3.638z" fill="#7EC4F7"/><path d="M184.554 109.34c-2.008.075-4.017.52-5.653 1.485l-10.935 6.31h-33.995v160.48c-.075 1.039.52 2.079 1.785 2.821l73.718 41.938c1.264.743 3.05 1.114 4.909 1.04l.744-161.446-30.573-52.628z" fill="#D3E9F8"/><path d="M210.143 322.597c2.306.965 5.654.965 8.406-.074V159.964h-8.406v162.633z" fill="#7EC4F7"/><path d="M209.475 161.893l-73.717-41.938c-2.678-1.559-2.381-4.231.744-6.087l42.4-24.42c3.124-1.782 7.811-2.005 10.489-.446l73.718 41.939c2.677 1.559 2.38 4.231-.744 6.086l-42.401 24.422c-3.124 1.781-7.81 2.004-10.489.444z" fill="#D3E9F8"/><path d="M262.364 134.059l-42.4 24.42c-3.124 1.782-7.811 2.004-10.489.446l-73.718-41.939c-.595-.371-1.041-.742-1.339-1.188-.892 1.485-.52 3.119 1.339 4.157l73.718 41.939c2.678 1.559 7.439 1.336 10.489-.445l42.4-24.421c2.455-1.411 3.125-3.341 2.084-4.9-.373.669-1.116 1.337-2.084 1.931z" fill="#F9FCFF"/><path d="M211.558 144.894l-49.095-28.355c-1.265-.742-1.116-2.004.372-2.82l19.861-11.431c1.487-.817 3.645-.966 4.909-.223l49.096 28.355c1.264.742 1.116 2.004-.372 2.821l-19.861 11.431c-1.488.816-3.645.964-4.91.222z" fill="#7EC4F7"/><path d="M185.076 117.802l-2.827-1.632c-.149-.075-.149-.297.074-.372l2.753-1.559c.223-.148.52-.148.669 0l2.827 1.634c.149.073.149.297-.075.37l-2.752 1.559c-.223.075-.521.075-.669 0zm9.52 5.42l-2.827-1.633c-.148-.075-.148-.297.075-.371l2.752-1.56c.224-.148.521-.148.67 0l2.827 1.634c.148.074.148.297-.075.37l-2.752 1.56c-.223.074-.52.074-.67 0zm9.448 5.418l-2.827-1.633c-.148-.074-.148-.297.075-.371l2.752-1.559c.223-.148.521-.148.67 0l2.827 1.633c.148.074.148.297-.075.371l-2.752 1.559c-.149.149-.447.149-.67 0zm9.521 5.493l-2.827-1.633c-.149-.074-.149-.297.074-.371l2.753-1.559c.223-.149.52-.149.669 0l2.827 1.633c.149.074.149.297-.075.371l-2.752 1.559c-.223.074-.521.074-.669 0z" fill="#D3E9F8"/><path d="M162.46 116.467c.149 0 .223-.075.373-.149l19.861-11.431c1.487-.817 3.645-.965 4.909-.223l49.021 28.355c1.191-.816 1.191-1.929.075-2.598l-49.096-28.355c-1.264-.742-3.496-.668-4.909.223l-19.861 11.356c-1.414.891-1.637 2.153-.373 2.822z" fill="#44A6E2"/><path d="M228.295 193.589l27.895-15.958c1.562-.891 2.827-3.341 2.827-5.42v-9.946c0-2.079-1.265-3.043-2.827-2.152l-27.895 15.958c-1.562.891-2.827 3.341-2.827 5.419v9.947c-.074 2.078 1.19 3.043 2.827 2.152z" fill="#203E79"/><path d="M257.53 159.816c.446.445.743 1.113.743 2.078v9.947c0 2.078-1.265 4.527-2.826 5.418l-27.895 15.959c-.522.297-.968.371-1.414.297.521.52 1.264.593 2.157.074l27.895-15.958c1.563-.891 2.827-3.341 2.827-5.42v-9.946c0-1.41-.595-2.301-1.487-2.449z" fill="#fff"/><path d="M236.624 182.752l2.53-1.485c.372-.222.595-.742.595-1.188v-2.672c0-.445-.298-.667-.595-.445l-2.53 1.485c-.372.222-.595.742-.595 1.188v2.745c0 .372.298.594.595.372z" fill="#3A6DAA"/><path d="M245.181 177.853l2.53-1.485c.371-.222.595-.742.595-1.187v-2.747c0-.445-.298-.668-.595-.445l-2.53 1.485c-.372.222-.595.741-.595 1.187v2.746c0 .446.298.594.595.446z" fill="#fff"/><path d="M228.295 265.516l27.895-15.959c1.562-.891 2.827-3.341 2.827-5.419v-9.947c0-2.078-1.265-3.043-2.827-2.152l-27.895 15.959c-1.562.891-2.827 3.34-2.827 5.418v9.947c-.074 2.078 1.19 3.044 2.827 2.153z" fill="#203E79"/><path d="M257.53 231.742c.446.446.743 1.114.743 2.078v9.947c0 2.078-1.265 4.528-2.826 5.419l-27.895 15.958c-.522.297-.968.372-1.414.297.521.52 1.264.594 2.157.075l27.895-15.959c1.563-.891 2.827-3.34 2.827-5.419v-9.946c0-1.411-.595-2.301-1.487-2.45z" fill="#fff"/><path d="M236.624 254.678l2.53-1.484c.372-.223.595-.742.595-1.188v-2.746c0-.446-.298-.668-.595-.446l-2.53 1.485c-.372.222-.595.743-.595 1.188v2.747c0 .444.298.667.595.444z" fill="#3A6DAA"/><path d="M245.181 249.78l2.53-1.485c.371-.222.595-.742.595-1.188v-2.746c0-.445-.298-.668-.595-.445l-2.53 1.484c-.372.223-.595.742-.595 1.188v2.746c0 .446.298.668.595.446z" fill="#fff"/><path d="M228.295 301.516l27.895-15.958c1.562-.891 2.827-3.341 2.827-5.419v-9.947c0-2.078-1.265-3.043-2.827-2.152l-27.895 15.959c-1.562.89-2.827 3.34-2.827 5.418v9.946c-.074 2.079 1.19 3.044 2.827 2.153z" fill="#203E79"/><path d="M257.53 267.742c.446.446.743 1.114.743 2.079v9.946c0 2.079-1.265 4.529-2.826 5.419l-27.895 15.959c-.522.297-.968.371-1.414.297.521.519 1.264.594 2.157.074l27.895-15.959c1.563-.891 2.827-3.34 2.827-5.418v-9.947c0-1.41-.595-2.301-1.487-2.45z" fill="#fff"/><path d="M236.624 290.679l2.53-1.485c.372-.222.595-.742.595-1.187v-2.747c0-.445-.298-.667-.595-.445l-2.53 1.485c-.372.222-.595.741-.595 1.187v2.746c0 .446.298.669.595.446z" fill="#3A6DAA"/><path d="M245.181 285.706l2.53-1.485c.371-.222.595-.742.595-1.188v-2.746c0-.445-.298-.668-.595-.445l-2.53 1.484c-.372.223-.595.742-.595 1.188v2.746c0 .446.298.668.595.446z" fill="#fff"/><path d="M228.295 229.515l27.895-15.958c1.562-.891 2.827-3.341 2.827-5.42v-9.946c0-2.079-1.265-3.043-2.827-2.152l-27.895 15.959c-1.562.89-2.827 3.34-2.827 5.419v9.946c-.074 2.152 1.19 3.117 2.827 2.152z" fill="#203E79"/><path d="M257.53 195.816c.446.445.743 1.114.743 2.078v9.947c0 2.078-1.265 4.528-2.826 5.419l-27.895 15.958c-.522.297-.968.372-1.414.297.521.52 1.264.594 2.157.075l27.895-15.959c1.563-.891 2.827-3.341 2.827-5.419v-9.947c0-1.484-.595-2.301-1.487-2.449z" fill="#fff"/><path d="M236.624 218.752l2.53-1.484c.372-.223.595-.743.595-1.188v-2.747c0-.445-.298-.667-.595-.445l-2.53 1.485c-.372.222-.595.742-.595 1.188v2.745c0 .446.298.594.595.446z" fill="#3A6DAA"/><path d="M245.181 213.779l2.53-1.484c.371-.223.595-.742.595-1.188v-2.746c0-.446-.298-.668-.595-.446l-2.53 1.485c-.372.222-.595.742-.595 1.187v2.747c0 .445.298.668.595.445z" fill="#fff"/><path d="M390.309 356.593l-68.734-39.118c-2.529-1.41-2.232-4.008.67-5.641l39.499-22.788c2.901-1.708 7.29-1.856 9.819-.371l68.734 39.118c2.529 1.41 2.231 4.008-.669 5.642l-39.5 22.713c-2.901 1.707-7.29 1.856-9.819.445z" fill="#F3F3F3"/><path d="M446.47 314.58V154.546l-63.75-16.628-11.753-6.754c-2.677-1.559-7.438-1.337-10.489.445l-10.934 6.309h-33.995l10.042 154.468c-.075 1.039.52 2.079 1.786 2.821l63.601 47.877c2.677 1.558 7.438 1.336 10.488-.446l42.401-24.42c1.785-1.04 2.677-2.376 2.603-3.638z" fill="#7EC4F7"/><path d="M366.059 130.124c-2.008.075-4.016.52-5.653 1.485l-10.935 6.309h-33.995v160.48c-.074 1.04.521 2.079 1.785 2.822l73.718 41.938c1.265.743 3.05 1.113 4.91 1.039l.744-161.445-30.574-52.628z" fill="#D3E9F8"/><path d="M390.98 182.677l-73.718-41.938c-2.677-1.559-2.38-4.231.744-6.086l42.401-24.422c3.124-1.781 7.81-2.004 10.489-.445l73.717 41.938c2.678 1.56 2.381 4.232-.744 6.087l-42.4 24.421c-3.124 1.782-7.811 2.004-10.489.445z" fill="#D3E9F8"/><path d="M443.869 154.842l-42.401 24.421c-3.124 1.782-7.81 2.004-10.489.445l-73.717-41.938c-.595-.371-1.042-.743-1.339-1.188-.892 1.485-.521 3.117 1.339 4.157l73.717 41.938c2.679 1.559 7.439 1.337 10.489-.445l42.401-24.421c2.455-1.41 3.124-3.34 2.082-4.899-.371.669-1.115 1.337-2.082 1.93z" fill="#F9FCFF"/><path d="M393.063 165.678l-49.096-28.355c-1.264-.743-1.115-2.004.373-2.821l19.861-11.431c1.488-.817 3.645-.965 4.91-.223l49.095 28.355c1.265.743 1.116 2.004-.371 2.821l-19.862 11.431c-1.488.817-3.645.965-4.91.223z" fill="#7EC4F7"/><path d="M366.58 138.586l-2.827-1.632c-.148-.075-.148-.297.075-.372l2.752-1.559c.223-.148.52-.148.67 0l2.826 1.634c.149.074.149.297-.074.371l-2.752 1.558c-.223.075-.521.075-.67 0zm9.521 5.419l-2.826-1.633c-.149-.074-.149-.297.074-.371l2.752-1.559c.223-.149.521-.149.67 0l2.827 1.633c.148.074.148.297-.075.371l-2.752 1.559c-.223.074-.521.074-.67 0z" fill="#D3E9F8"/><path d="M343.965 137.251c.149 0 .223-.075.372-.149l19.861-11.431c1.488-.817 3.645-.965 4.91-.223l49.021 28.355c1.191-.816 1.191-1.93.075-2.598l-49.096-28.355c-1.265-.742-3.497-.668-4.91.223l-19.861 11.357c-1.414.891-1.637 2.152-.372 2.821z" fill="#44A6E2"/><path d="M385.624 204.204l-64.346-37.114c-1.413-.817-2.603-3.044-2.603-4.973v-12.248c0-1.93 1.19-2.821 2.603-2.004l64.346 37.114c1.413.817 2.603 3.043 2.603 4.973V202.2c0 1.929-1.19 2.82-2.603 2.004z" fill="#4164C4"/><path d="M383.764 199.898l-60.7-34.961c-.744-.445-1.339-1.559-1.339-2.523v-9.205c0-.965.595-1.41 1.339-.965l60.7 34.962c.743.445 1.338 1.558 1.338 2.523v9.205c0 .891-.595 1.335-1.338.964z" fill="#5070E2"/><path d="M335.711 167.535l-9.075-5.196c-.744-.446-1.265-1.484-1.265-2.45 0-.964.595-1.41 1.265-.964l9.075 5.196c.744.445 1.264 1.485 1.264 2.449.075.965-.52 1.411-1.264.965z" fill="#5B95FF"/><path d="M343.447 170.282c0 .964-.67 1.336-1.488.891-.818-.446-1.488-1.634-1.488-2.599 0-.964.67-1.336 1.488-.89.818.519 1.488 1.633 1.488 2.598z" fill="#203E79"/><path d="M348.653 173.325c0 .965-.669 1.336-1.488.89-.818-.445-1.488-1.632-1.488-2.598 0-.964.67-1.335 1.488-.89.819.519 1.488 1.633 1.488 2.598zm5.281 2.969c0 .965-.669 1.337-1.487.891-.819-.445-1.488-1.633-1.488-2.598 0-.965.669-1.336 1.488-.891.818.52 1.487 1.707 1.487 2.598z" fill="#03E59F"/><path d="M359.141 179.338c0 .964-.67 1.335-1.489.89-.818-.445-1.487-1.633-1.487-2.598 0-.965.669-1.336 1.487-.89.819.519 1.489 1.632 1.489 2.598zm22.092 15.439l-3.05-1.782c-.446-.297-.818-.964-.818-1.558v-3.192c0-.594.372-.891.818-.594l3.05 1.781c.446.297.819.965.819 1.559v3.192c0 .519-.373.816-.819.594z" fill="#203E79"/><path d="M385.624 225.804l-64.346-37.114c-1.413-.816-2.603-3.044-2.603-4.973v-12.248c0-1.93 1.19-2.821 2.603-2.004l64.346 37.114c1.413.817 2.603 3.043 2.603 4.974V223.8c0 1.93-1.19 2.82-2.603 2.004z" fill="#4164C4"/><path d="M383.764 221.499l-60.7-34.962c-.744-.445-1.339-1.559-1.339-2.523v-9.205c0-.964.595-1.41 1.339-.964l60.7 34.961c.743.445 1.338 1.559 1.338 2.523v9.13c0 .966-.595 1.411-1.338 1.04z" fill="#5070E2"/><path d="M335.711 189.135l-9.075-5.196c-.744-.445-1.265-1.484-1.265-2.449 0-.965.595-1.411 1.265-.965l9.075 5.196c.744.445 1.264 1.485 1.264 2.449.075.965-.52 1.411-1.264.965z" fill="#5B95FF"/><path d="M343.447 191.882c0 .965-.67 1.336-1.488.891-.818-.446-1.488-1.633-1.488-2.598 0-.965.67-1.337 1.488-.891.818.519 1.488 1.633 1.488 2.598z" fill="#FF65AB"/><path d="M348.653 194.925c0 .965-.669 1.336-1.488.891-.818-.445-1.488-1.633-1.488-2.598 0-.965.67-1.336 1.488-.891.819.52 1.488 1.634 1.488 2.598z" fill="#203E79"/><path d="M353.482 198.866c.568-.327.564-1.399-.012-2.393-.574-.994-1.502-1.534-2.072-1.206-.569.328-.564 1.4.011 2.394.575.994 1.503 1.533 2.073 1.205z" fill="#03E59F"/><path d="M358.668 201.855c.569-.327.565-1.399-.01-2.393-.576-.994-1.503-1.534-2.072-1.206-.57.328-.565 1.4.01 2.394.576.994 1.503 1.533 2.072 1.205z" fill="#203E79"/><path d="M381.233 216.377l-3.05-1.782c-.446-.297-.818-.964-.818-1.558v-3.192c0-.593.372-.89.818-.593l3.05 1.781c.446.297.819.964.819 1.558v3.192c0 .52-.373.817-.819.594z" fill="#FFD22E"/><path d="M385.624 247.33l-64.346-37.114c-1.413-.816-2.603-3.043-2.603-4.973v-12.248c0-1.929 1.19-2.82 2.603-2.004l64.346 37.114c1.413.816 2.603 3.044 2.603 4.973v12.248c0 2.004-1.19 2.895-2.603 2.004z" fill="#4164C4"/><path d="M383.764 243.099l-60.7-34.961c-.744-.445-1.339-1.559-1.339-2.524v-9.204c0-.965.595-1.411 1.339-.965l60.7 34.961c.743.446 1.338 1.559 1.338 2.524v9.204c0 .891-.595 1.336-1.338.965z" fill="#5070E2"/><path d="M335.711 210.735l-9.075-5.195c-.744-.445-1.265-1.485-1.265-2.449 0-.965.595-1.411 1.265-.965l9.075 5.195c.744.446 1.264 1.485 1.264 2.45.075.964-.52 1.41-1.264.964z" fill="#5B95FF"/><path d="M343.447 213.482c0 .965-.67 1.336-1.488.891-.818-.445-1.488-1.633-1.488-2.598 0-.965.67-1.336 1.488-.891.818.52 1.488 1.633 1.488 2.598z" fill="#03E59F"/><path d="M348.653 216.526c0 .964-.669 1.336-1.488.89-.818-.445-1.488-1.633-1.488-2.598 0-.964.67-1.336 1.488-.891.819.446 1.488 1.634 1.488 2.599z" fill="#203E79"/><path d="M353.934 219.495c0 .964-.669 1.336-1.487.89-.819-.445-1.488-1.633-1.488-2.598 0-.964.669-1.336 1.488-.891.818.521 1.487 1.708 1.487 2.599z" fill="#03E59F"/><path d="M359.141 222.538c0 .965-.67 1.336-1.489.891-.818-.446-1.487-1.633-1.487-2.598 0-.965.669-1.337 1.487-.891.819.52 1.489 1.633 1.489 2.598zm22.092 15.439l-3.05-1.781c-.446-.297-.818-.965-.818-1.559v-3.191c0-.594.372-.891.818-.594l3.05 1.781c.446.297.819.965.819 1.559v3.191c0 .52-.373.817-.819.594z" fill="#203E79"/><path d="M385.624 268.93l-64.346-37.114c-1.413-.816-2.603-3.043-2.603-4.973v-12.248c0-1.929 1.19-2.82 2.603-2.004l64.346 37.114c1.413.816 2.603 3.044 2.603 4.973v12.248c0 2.004-1.19 2.895-2.603 2.004z" fill="#4164C4"/><path d="M383.764 264.031l-60.7-34.961c-.744-.446-1.339-1.559-1.339-2.524v-9.204c0-.965.595-1.41 1.339-.965l60.7 34.962c.743.445 1.338 1.558 1.338 2.523v9.205c0 .89-.595 1.336-1.338.964z" fill="#5070E2"/><path d="M335.711 232.336l-9.075-5.196c-.744-.445-1.265-1.485-1.265-2.449 0-.965.595-1.411 1.265-.965l9.075 5.195c.744.446 1.264 1.485 1.264 2.45.075.965-.52 1.41-1.264.965z" fill="#5B95FF"/><path d="M343.447 235.082c0 .966-.67 1.337-1.488.891-.818-.445-1.488-1.633-1.488-2.598 0-.965.67-1.335 1.488-.891.818.52 1.488 1.634 1.488 2.598zm5.206 3.044c0 .964-.669 1.336-1.488.891-.818-.446-1.488-1.634-1.488-2.599 0-.964.67-1.336 1.488-.89.819.445 1.488 1.633 1.488 2.598z" fill="#203E79"/><path d="M353.934 241.095c0 .965-.669 1.336-1.487.891-.819-.446-1.488-1.633-1.488-2.598 0-.965.669-1.336 1.488-.891.818.52 1.487 1.633 1.487 2.598z" fill="#03E59F"/><path d="M358.675 245.053c.569-.327.564-1.399-.011-2.393-.575-.994-1.503-1.534-2.072-1.206-.569.328-.565 1.4.01 2.394.576.994 1.503 1.533 2.073 1.205zm22.558 14.451l-3.05-1.782c-.446-.297-.818-.965-.818-1.559v-3.192c0-.594.372-.89.818-.593l3.05 1.781c.446.297.819.965.819 1.559v3.192c0 .594-.373.891-.819.594z" fill="#203E79"/><path d="M385.624 290.531l-64.346-37.114c-1.413-.817-2.603-3.043-2.603-4.973v-12.248c0-1.93 1.19-2.821 2.603-2.004l64.346 37.113c1.413.817 2.603 3.044 2.603 4.974v12.247c0 2.005-1.19 2.821-2.603 2.005z" fill="#4164C4"/><path d="M383.764 285.631l-60.7-34.961c-.744-.445-1.339-1.559-1.339-2.523v-9.205c0-.965.595-1.41 1.339-.965l60.7 34.962c.743.445 1.338 1.558 1.338 2.523v9.205c0 .891-.595 1.336-1.338.964z" fill="#5070E2"/><path d="M335.711 253.936l-9.075-5.196c-.744-.445-1.265-1.485-1.265-2.449 0-.965.595-1.411 1.265-.965l9.075 5.196c.744.445 1.264 1.484 1.264 2.449.075.965-.52 1.411-1.264.965z" fill="#5B95FF"/><path d="M343.447 256.682c0 .966-.67 1.337-1.488.891-.818-.445-1.488-1.632-1.488-2.598 0-.965.67-1.335 1.488-.89.818.519 1.488 1.633 1.488 2.597z" fill="#203E79"/><path d="M348.653 259.726c0 .965-.669 1.336-1.488.891-.818-.446-1.488-1.633-1.488-2.598 0-.965.67-1.337 1.488-.891.819.445 1.488 1.633 1.488 2.598z" fill="#03E59F"/><path d="M353.934 262.696c0 .964-.669 1.335-1.487.89-.819-.446-1.488-1.633-1.488-2.598 0-.965.669-1.336 1.488-.89.818.519 1.487 1.632 1.487 2.598z" fill="#FF65AB"/><path d="M359.141 265.738c0 .966-.67 1.337-1.489.891-.818-.445-1.487-1.633-1.487-2.598 0-.965.669-1.336 1.487-.891.819.52 1.489 1.633 1.489 2.598z" fill="#03E59F"/><path d="M381.233 281.104l-3.05-1.782c-.446-.297-.818-.965-.818-1.559v-3.191c0-.594.372-.891.818-.594l3.05 1.781c.446.297.819.966.819 1.559v3.192c0 .594-.373.891-.819.594z" fill="#203E79"/><path d="M385.624 312.131l-64.346-37.114c-1.413-.817-2.603-3.043-2.603-4.973v-12.248c0-1.93 1.19-2.821 2.603-2.004l64.346 37.113c1.413.818 2.603 3.044 2.603 4.974v12.248c0 2.004-1.19 2.821-2.603 2.004z" fill="#4164C4"/><path d="M383.764 307.231l-60.7-34.96c-.744-.446-1.339-1.56-1.339-2.524v-9.204c0-.966.595-1.411 1.339-.966l60.7 34.962c.743.445 1.338 1.558 1.338 2.523v9.205c0 .891-.595 1.336-1.338.964z" fill="#5070E2"/><path d="M335.711 275.537l-9.075-5.196c-.744-.446-1.265-1.484-1.265-2.45 0-.965.595-1.41 1.265-.965l9.075 5.196c.744.446 1.264 1.485 1.264 2.45.075.965-.52 1.336-1.264.965z" fill="#5B95FF"/><path d="M343.447 278.283c0 .965-.67 1.336-1.488.89-.818-.444-1.488-1.632-1.488-2.597 0-.966.67-1.336 1.488-.891.818.519 1.488 1.633 1.488 2.598zm5.206 2.969c0 .965-.669 1.336-1.488.891-.818-.445-1.488-1.633-1.488-2.598 0-.965.67-1.336 1.488-.891.819.52 1.488 1.707 1.488 2.598z" fill="#203E79"/><path d="M353.934 284.296c0 .964-.669 1.335-1.487.89-.819-.445-1.488-1.633-1.488-2.598 0-.965.669-1.336 1.488-.89.818.519 1.487 1.632 1.487 2.598z" fill="#03E59F"/><path d="M359.141 287.339c0 .965-.67 1.336-1.489.89-.818-.445-1.487-1.632-1.487-2.598 0-.964.669-1.335 1.487-.89.819.52 1.489 1.633 1.489 2.598zm22.092 15.365l-3.05-1.782c-.446-.296-.818-.965-.818-1.559v-3.191c0-.594.372-.891.818-.594l3.05 1.781c.446.297.819.966.819 1.559v3.192c0 .594-.373.891-.819.594z" fill="#203E79"/><path d="M385.624 333.731l-64.346-37.113c-1.413-.817-2.603-3.044-2.603-4.974v-12.247c0-1.931 1.19-2.821 2.603-2.004l64.346 37.114c1.413.816 2.603 3.042 2.603 4.973v12.321c0 1.856-1.19 2.747-2.603 1.93z" fill="#4164C4"/><path d="M383.764 328.758l-60.7-34.962c-.744-.445-1.339-1.558-1.339-2.523v-9.204c0-.965.595-1.411 1.339-.965l60.7 34.961c.743.446 1.338 1.559 1.338 2.524v9.204c0 .965-.595 1.41-1.338.965z" fill="#5070E2"/><path d="M335.711 297.137l-9.075-5.196c-.744-.446-1.265-1.484-1.265-2.45 0-.965.595-1.41 1.265-.965l9.075 5.197c.744.445 1.264 1.484 1.264 2.449.075.965-.52 1.336-1.264.965z" fill="#5B95FF"/><path d="M377.365 319.776c0 1.781-1.264 2.524-2.826 1.634-1.562-.891-2.827-3.044-2.827-4.826 0-1.781 1.265-2.523 2.827-1.632 1.562.89 2.826 3.042 2.826 4.824z" fill="#fff"/><path d="M343.447 300.106c0 .965-.67 1.336-1.488.891-.818-.446-1.488-1.634-1.488-2.598 0-.965.67-1.337 1.488-.891.818.52 1.488 1.707 1.488 2.598z" fill="#203E79"/><path d="M348.653 303.149c0 .965-.669 1.337-1.488.891-.818-.445-1.488-1.633-1.488-2.598 0-.965.67-1.336 1.488-.891.819.52 1.488 1.634 1.488 2.598z" fill="#03E59F"/><path d="M353.472 307.09c.569-.328.564-1.399-.01-2.393-.576-.994-1.504-1.534-2.072-1.206-.57.328-.565 1.4.01 2.394.576.994 1.503 1.534 2.072 1.205z" fill="#203E79"/><path d="M204.118 183.42l-64.345-37.114c-1.413-.817-2.603-3.043-2.603-4.973v-12.248c0-1.93 1.19-2.821 2.603-2.004l64.345 37.114c1.413.817 2.604 3.043 2.604 4.973v12.248c0 1.93-1.191 2.82-2.604 2.004z" fill="#4164C4"/><path d="M202.259 179.114l-60.7-34.961c-.743-.445-1.339-1.559-1.339-2.523v-9.205c0-.965.596-1.41 1.339-.965l60.7 34.962c.744.445 1.339 1.559 1.339 2.523v9.205c0 .891-.595 1.336-1.339.964z" fill="#5070E2"/><path d="M154.206 146.751l-9.076-5.196c-.743-.445-1.264-1.484-1.264-2.449 0-.965.596-1.411 1.264-.965l9.076 5.196c.744.445 1.265 1.485 1.265 2.449.074.965-.521 1.411-1.265.965z" fill="#5B95FF"/><path d="M161.942 149.498c0 .965-.67 1.336-1.488.891-.818-.446-1.487-1.633-1.487-2.598 0-.965.669-1.337 1.487-.891.818.519 1.488 1.633 1.488 2.598zm5.206 3.044c0 .964-.67 1.335-1.488.89-.819-.445-1.488-1.633-1.488-2.598 0-.965.669-1.336 1.488-.891.818.52 1.488 1.633 1.488 2.599z" fill="#203E79"/><path d="M172.429 155.51c0 .965-.669 1.337-1.487.891-.818-.445-1.488-1.633-1.488-2.598 0-.965.67-1.336 1.488-.891.818.52 1.487 1.707 1.487 2.598z" fill="#03E59F"/><path d="M177.636 158.554c0 .965-.669 1.336-1.488.891-.819-.446-1.488-1.633-1.488-2.598 0-.966.669-1.337 1.488-.891.819.519 1.488 1.632 1.488 2.598zm22.092 15.439l-3.05-1.782c-.446-.297-.818-.964-.818-1.558v-3.192c0-.594.372-.89.818-.594l3.05 1.781c.446.297.819.965.819 1.559v3.192c0 .519-.373.816-.819.594z" fill="#203E79"/><path d="M204.118 205.02l-64.345-37.114c-1.413-.816-2.603-3.043-2.603-4.973v-12.247c0-1.93 1.19-2.821 2.603-2.004l64.345 37.114c1.413.816 2.604 3.042 2.604 4.973v12.247c0 1.93-1.191 2.821-2.604 2.004z" fill="#4164C4"/><path d="M202.259 200.715l-60.7-34.962c-.743-.444-1.339-1.558-1.339-2.523v-9.205c0-.964.596-1.41 1.339-.964l60.7 34.961c.744.445 1.339 1.559 1.339 2.523v9.131c0 .965-.595 1.41-1.339 1.039z" fill="#5070E2"/><path d="M154.206 168.351l-9.076-5.195c-.743-.445-1.264-1.485-1.264-2.45 0-.964.596-1.41 1.264-.964l9.076 5.195c.744.446 1.265 1.485 1.265 2.45.074.964-.521 1.41-1.265.964z" fill="#5B95FF"/><path d="M161.942 171.098c0 .965-.67 1.336-1.488.891-.818-.446-1.487-1.633-1.487-2.598 0-.965.669-1.337 1.487-.891.818.52 1.488 1.633 1.488 2.598z" fill="#FF65AB"/><path d="M167.148 174.141c0 .965-.67 1.337-1.488.891-.819-.445-1.488-1.633-1.488-2.598 0-.964.669-1.336 1.488-.891.818.52 1.488 1.634 1.488 2.598z" fill="#203E79"/><path d="M171.983 178.082c.569-.327.564-1.399-.011-2.393-.575-.994-1.502-1.534-2.072-1.206-.569.328-.564 1.4.01 2.394.576.994 1.504 1.533 2.073 1.205z" fill="#03E59F"/><path d="M177.169 181.072c.57-.328.565-1.4-.01-2.394-.576-.994-1.503-1.534-2.072-1.206-.569.328-.564 1.4.01 2.394.576.994 1.503 1.534 2.072 1.206zm22.559 14.521l-3.05-1.781c-.446-.297-.818-.965-.818-1.559v-3.191c0-.594.372-.891.818-.594l3.05 1.781c.446.297.819.965.819 1.559v3.191c0 .52-.373.817-.819.594z" fill="#203E79"/><path d="M204.118 226.546l-64.345-37.114c-1.413-.816-2.603-3.043-2.603-4.973v-12.248c0-1.929 1.19-2.82 2.603-2.004l64.345 37.114c1.413.817 2.604 3.044 2.604 4.974v12.247c0 2.004-1.191 2.895-2.604 2.004z" fill="#4164C4"/><path d="M202.259 222.315l-60.7-34.961c-.743-.445-1.339-1.559-1.339-2.524v-9.204c0-.965.596-1.411 1.339-.965l60.7 34.961c.744.446 1.339 1.559 1.339 2.524v9.204c0 .891-.595 1.337-1.339.965z" fill="#5070E2"/><path d="M154.206 189.952l-9.076-5.196c-.743-.445-1.264-1.485-1.264-2.449 0-.965.596-1.411 1.264-.965l9.076 5.195c.744.446 1.265 1.485 1.265 2.45.074.965-.521 1.41-1.265.965z" fill="#5B95FF"/><path d="M161.942 192.698c0 .966-.67 1.337-1.488.891-.818-.445-1.487-1.633-1.487-2.598 0-.965.669-1.335 1.487-.891.818.52 1.488 1.634 1.488 2.598z" fill="#03E59F"/><path d="M167.148 195.742c0 .965-.67 1.336-1.488.891-.819-.446-1.488-1.634-1.488-2.598 0-.965.669-1.337 1.488-.891.818.445 1.488 1.633 1.488 2.598z" fill="#203E79"/><path d="M172.429 198.711c0 .965-.669 1.336-1.487.891-.818-.446-1.488-1.634-1.488-2.598 0-.965.67-1.336 1.488-.891.818.52 1.487 1.708 1.487 2.598z" fill="#03E59F"/><path d="M177.636 201.754c0 .965-.669 1.337-1.488.891-.819-.445-1.488-1.633-1.488-2.598 0-.965.669-1.336 1.488-.891.819.52 1.488 1.634 1.488 2.598zm22.092 15.439l-3.05-1.781c-.446-.297-.818-.965-.818-1.558v-3.192c0-.594.372-.891.818-.594l3.05 1.781c.446.297.819.965.819 1.559v3.191c0 .521-.373.817-.819.594z" fill="#203E79"/><path d="M204.118 248.146l-64.345-37.114c-1.413-.816-2.603-3.042-2.603-4.973v-12.247c0-1.93 1.19-2.821 2.603-2.005l64.345 37.114c1.413.817 2.604 3.044 2.604 4.974v12.247c0 2.004-1.191 2.895-2.604 2.004z" fill="#4164C4"/><path d="M202.259 243.247l-60.7-34.961c-.743-.445-1.339-1.559-1.339-2.524v-9.204c0-.965.596-1.41 1.339-.965l60.7 34.962c.744.445 1.339 1.558 1.339 2.523v9.205c0 .89-.595 1.336-1.339.964z" fill="#5070E2"/><path d="M154.206 211.553l-9.076-5.196c-.743-.446-1.264-1.485-1.264-2.45 0-.965.596-1.41 1.264-.965l9.076 5.196c.744.445 1.265 1.484 1.265 2.449.074.966-.521 1.411-1.265.966z" fill="#5B95FF"/><path d="M161.942 214.299c0 .965-.67 1.336-1.488.89-.818-.445-1.487-1.632-1.487-2.598 0-.965.669-1.335 1.487-.89.818.519 1.488 1.633 1.488 2.598zm5.206 3.043c0 .965-.67 1.336-1.488.891-.819-.446-1.488-1.634-1.488-2.598 0-.965.669-1.337 1.488-.891.818.445 1.488 1.633 1.488 2.598z" fill="#203E79"/><path d="M172.429 220.311c0 .965-.669 1.336-1.487.891-.818-.446-1.488-1.633-1.488-2.598 0-.965.67-1.336 1.488-.891.818.52 1.487 1.633 1.487 2.598z" fill="#03E59F"/><path d="M177.173 224.269c.569-.327.564-1.399-.01-2.393-.576-.994-1.504-1.534-2.073-1.206-.569.328-.564 1.4.011 2.394.575.994 1.503 1.534 2.072 1.205z" fill="#203E79"/><path d="M199.728 238.72l-3.05-1.782c-.446-.296-.818-.965-.818-1.559v-3.191c0-.594.372-.891.818-.594l3.05 1.781c.446.297.819.966.819 1.559v3.192c0 .594-.373.891-.819.594z" fill="#FFD22E"/><path d="M204.118 269.747l-64.345-37.114c-1.413-.817-2.603-3.043-2.603-4.973v-12.248c0-1.93 1.19-2.821 2.603-2.004l64.345 37.114c1.413.817 2.604 3.043 2.604 4.973v12.247c0 2.005-1.191 2.822-2.604 2.005z" fill="#4164C4"/><path d="M202.259 264.848l-60.7-34.961c-.743-.446-1.339-1.559-1.339-2.524v-9.204c0-.966.596-1.411 1.339-.966l60.7 34.962c.744.445 1.339 1.558 1.339 2.524v9.204c0 .891-.595 1.336-1.339.965z" fill="#5070E2"/><path d="M154.206 233.153l-9.076-5.196c-.743-.446-1.264-1.485-1.264-2.45 0-.965.596-1.41 1.264-.965l9.076 5.196c.744.446 1.265 1.484 1.265 2.45.074.965-.521 1.41-1.265.965z" fill="#5B95FF"/><path d="M161.942 235.899c0 .965-.67 1.336-1.488.89-.818-.444-1.487-1.632-1.487-2.597 0-.966.669-1.336 1.487-.891.818.519 1.488 1.633 1.488 2.598z" fill="#203E79"/><path d="M167.148 238.942c0 .966-.67 1.336-1.488.891-.819-.445-1.488-1.633-1.488-2.598 0-.965.669-1.336 1.488-.89.818.444 1.488 1.632 1.488 2.597z" fill="#03E59F"/><path d="M172.429 241.912c0 .964-.669 1.335-1.487.89-.818-.445-1.488-1.633-1.488-2.598 0-.965.67-1.336 1.488-.89.818.519 1.487 1.632 1.487 2.598z" fill="#FF65AB"/><path d="M177.636 244.955c0 .965-.669 1.336-1.488.89-.819-.445-1.488-1.632-1.488-2.598 0-.964.669-1.335 1.488-.89.819.52 1.488 1.633 1.488 2.598z" fill="#03E59F"/><path d="M199.728 260.32l-3.05-1.781c-.446-.297-.818-.966-.818-1.56v-3.191c0-.594.372-.891.818-.594l3.05 1.781c.446.297.819.966.819 1.56v3.191c0 .594-.373.891-.819.594z" fill="#FFD22E"/><path d="M204.118 291.347l-64.345-37.114c-1.413-.817-2.603-3.043-2.603-4.973v-12.248c0-1.93 1.19-2.82 2.603-2.004l64.345 37.114c1.413.817 2.604 3.043 2.604 4.973v12.247c0 2.005-1.191 2.822-2.604 2.005z" fill="#4164C4"/><path d="M202.259 286.449l-60.7-34.962c-.743-.445-1.339-1.559-1.339-2.524v-9.204c0-.965.596-1.41 1.339-.965l60.7 34.961c.744.445 1.339 1.559 1.339 2.524v9.204c0 .891-.595 1.336-1.339.966z" fill="#5070E2"/><path d="M154.206 254.753l-9.076-5.196c-.743-.446-1.264-1.484-1.264-2.45 0-.965.596-1.41 1.264-.965l9.076 5.197c.744.445 1.265 1.484 1.265 2.449.074.965-.521 1.336-1.265.965z" fill="#5B95FF"/><path d="M161.942 257.499c0 .965-.67 1.337-1.488.891-.818-.445-1.487-1.633-1.487-2.598 0-.965.669-1.336 1.487-.891.818.519 1.488 1.634 1.488 2.598zm5.206 2.969c0 .965-.67 1.337-1.488.891-.819-.445-1.488-1.633-1.488-2.598 0-.965.669-1.336 1.488-.891.818.52 1.488 1.707 1.488 2.598z" fill="#203E79"/><path d="M172.429 263.512c0 .965-.669 1.336-1.487.891-.818-.446-1.488-1.634-1.488-2.598 0-.965.67-1.337 1.488-.891.818.519 1.487 1.633 1.487 2.598z" fill="#03E59F"/><path d="M177.636 266.555c0 .965-.669 1.336-1.488.891-.819-.446-1.488-1.633-1.488-2.599 0-.964.669-1.335 1.488-.89.819.52 1.488 1.633 1.488 2.598zm22.092 15.365l-3.05-1.781c-.446-.297-.818-.966-.818-1.559v-3.192c0-.594.372-.891.818-.594l3.05 1.782c.446.297.819.965.819 1.559v3.191c0 .594-.373.891-.819.594z" fill="#203E79"/><path d="M204.118 312.948l-64.345-37.114c-1.413-.817-2.603-3.044-2.603-4.974v-12.247c0-1.931 1.19-2.821 2.603-2.004l64.345 37.114c1.413.816 2.604 3.043 2.604 4.973v12.321c0 1.856-1.191 2.747-2.604 1.931z" fill="#4164C4"/><path d="M202.259 307.974l-60.7-34.962c-.743-.444-1.339-1.558-1.339-2.523v-9.204c0-.965.596-1.411 1.339-.965l60.7 34.961c.744.446 1.339 1.559 1.339 2.524v9.204c0 .965-.595 1.41-1.339.965z" fill="#5070E2"/><path d="M154.206 276.353l-9.076-5.196c-.743-.446-1.264-1.484-1.264-2.449 0-.966.596-1.411 1.264-.966l9.076 5.197c.744.445 1.265 1.484 1.265 2.449.074.965-.521 1.336-1.265.965z" fill="#5B95FF"/><path d="M195.861 298.993c0 1.781-1.265 2.523-2.827 1.633-1.562-.891-2.826-3.044-2.826-4.825 0-1.781 1.264-2.524 2.826-1.633s2.827 3.043 2.827 4.825z" fill="#fff"/><path d="M161.942 279.322c0 .966-.67 1.336-1.488.891-.818-.446-1.487-1.633-1.487-2.598 0-.965.669-1.336 1.487-.89.818.519 1.488 1.707 1.488 2.597z" fill="#203E79"/><path d="M167.148 282.365c0 .965-.67 1.337-1.488.891-.819-.445-1.488-1.633-1.488-2.598 0-.965.669-1.336 1.488-.891.818.52 1.488 1.634 1.488 2.598z" fill="#03E59F"/><path d="M171.971 286.307c.568-.328.564-1.399-.011-2.394-.575-.994-1.503-1.534-2.073-1.206-.569.328-.564 1.4.011 2.394.575.994 1.503 1.534 2.073 1.206z" fill="#203E79"/><path d="M300.078 387.992l-68.659-39.118c-2.53-1.41-2.232-4.008.67-5.642l39.499-22.788c2.901-1.707 7.29-1.855 9.819-.371l68.734 39.119c2.529 1.41 2.232 4.008-.669 5.64l-39.5 22.788c-2.976 1.634-7.365 1.856-9.894.372z" fill="#F3F3F3"/><path d="M356.241 345.979V186.018l-63.75-16.627-11.753-6.755c-2.678-1.559-7.439-1.336-10.489.445l-10.935 6.31h-33.995l10.043 154.467c-.075 1.04.521 2.079 1.785 2.822l63.601 47.876c2.678 1.559 7.439 1.336 10.489-.445l42.4-24.421c1.86-1.113 2.678-2.45 2.604-3.711z" fill="#7EC4F7"/><path d="M275.903 161.523c-2.009.074-4.017.519-5.654 1.485l-10.935 6.309H225.32v160.48c-.074 1.039.521 2.078 1.785 2.821l73.718 41.938c1.264.742 3.049 1.114 4.909 1.039l.744-161.445-30.573-52.627z" fill="#D3E9F8"/><path d="M301.418 374.853c2.306.966 5.654.966 8.406-.074V212.22h-8.406v162.633z" fill="#7EC4F7"/><path d="M300.748 214.076l-73.718-41.938c-2.678-1.559-2.381-4.232.744-6.087l42.401-24.421c3.124-1.782 7.81-2.004 10.488-.445l73.718 41.938c2.678 1.559 2.38 4.232-.744 6.087l-42.401 24.421c-3.05 1.855-7.736 2.004-10.488.445z" fill="#D3E9F8"/><path d="M353.71 186.24l-42.4 24.422c-3.125 1.781-7.811 2.004-10.489.445l-73.718-41.938c-.595-.372-1.041-.743-1.339-1.188-.893 1.485-.521 3.117 1.339 4.156l73.718 41.939c2.678 1.559 7.439 1.336 10.489-.445l42.4-24.421c2.455-1.41 3.124-3.34 2.083-4.899-.446.742-1.116 1.41-2.083 1.929z" fill="#F9FCFF"/><path d="M302.831 197.078l-49.095-28.355c-1.266-.742-1.116-2.004.371-2.821l19.862-11.431c1.487-.816 3.644-.965 4.909-.222l49.096 28.355c1.264.742 1.116 2.004-.372 2.82l-19.862 11.431c-1.413.891-3.645.966-4.909.223z" fill="#7EC4F7"/><path d="M276.348 169.985l-2.827-1.634c-.149-.073-.149-.297.075-.37l2.752-1.559c.223-.149.521-.149.669 0l2.827 1.632c.149.075.149.297-.074.372l-2.753 1.559c-.148.074-.446.074-.669 0zm9.524 5.493l-2.827-1.633c-.149-.075-.149-.297.075-.371l2.752-1.56c.223-.148.52-.148.669 0l2.826 1.634c.15.074.15.297-.073.37l-2.753 1.56c-.223.074-.521.074-.669 0zm9.52 5.418l-2.827-1.633c-.148-.074-.148-.297.075-.371l2.752-1.558c.223-.149.521-.149.67 0l2.827 1.632c.148.075.148.297-.075.372l-2.752 1.558c-.223.074-.52.074-.67 0zm9.448 5.419l-2.827-1.634c-.148-.073-.148-.296.075-.37l2.752-1.559c.223-.148.521-.148.67 0l2.826 1.633c.149.074.149.296-.074.371l-2.752 1.559c-.149.148-.447.148-.67 0z" fill="#D3E9F8"/><path d="M253.808 168.722c.149 0 .223-.075.372-.149l19.861-11.431c1.488-.817 3.645-.965 4.91-.223l49.021 28.355c1.191-.816 1.191-1.93.075-2.598l-49.096-28.355c-1.265-.742-3.497-.668-4.91.223l-19.861 11.431c-1.487.742-1.637 2.004-.372 2.747z" fill="#44A6E2"/><path d="M319.568 245.771l27.895-15.959c1.562-.891 2.827-3.34 2.827-5.418v-9.873c0-2.078-1.265-3.043-2.827-2.152l-27.895 15.959c-1.563.89-2.827 3.34-2.827 5.419v9.946c0 2.078 1.264 3.043 2.827 2.078z" fill="#3056AA"/><path d="M348.877 212.072c.446.445.744 1.113.744 2.079v9.946c0 2.078-1.264 4.527-2.827 5.418l-27.895 15.959c-.52.297-.967.371-1.413.297.52.52 1.264.594 2.157.074l27.895-15.958c1.562-.891 2.827-3.341 2.827-5.42v-9.946c-.074-1.484-.67-2.301-1.488-2.449z" fill="#fff"/><path d="M327.972 235.008l2.529-1.484c.372-.223.595-.743.595-1.188v-2.746c0-.446-.298-.669-.595-.446l-2.529 1.484c-.373.224-.596.743-.596 1.188v2.747c-.074.445.223.594.596.445z" fill="#3A6DAA"/><path d="M336.528 230.035l2.529-1.485c.372-.222.595-.742.595-1.187v-2.747c0-.445-.297-.668-.595-.445l-2.529 1.484c-.371.223-.595.743-.595 1.188v2.747c-.074.445.224.668.595.445z" fill="#fff"/><path d="M319.568 317.698l27.895-15.959c1.562-.891 2.827-3.34 2.827-5.418v-9.947c0-2.078-1.265-3.044-2.827-2.153l-27.895 15.959c-1.563.891-2.827 3.34-2.827 5.419v9.946c0 2.153 1.264 3.118 2.827 2.153z" fill="#3056AA"/><path d="M348.877 283.999c.446.445.744 1.113.744 2.078v9.947c0 2.078-1.264 4.527-2.827 5.418l-27.895 15.959c-.52.297-.967.371-1.413.297.52.52 1.264.594 2.157.074l27.895-15.959c1.562-.89 2.827-3.34 2.827-5.419v-9.946c-.074-1.411-.67-2.301-1.488-2.449z" fill="#fff"/><path d="M327.972 306.935l2.529-1.485c.372-.223.595-.742.595-1.187v-2.747c0-.445-.298-.668-.595-.445l-2.529 1.484c-.373.224-.596.743-.596 1.188v2.747c-.074.445.223.593.596.445z" fill="#3A6DAA"/><path d="M336.528 301.961l2.529-1.484c.372-.223.595-.742.595-1.188v-2.746c0-.446-.297-.668-.595-.446l-2.529 1.485c-.371.223-.595.743-.595 1.188v2.746c-.074.445.224.669.595.445z" fill="#fff"/><path d="M319.568 353.698l27.895-15.959c1.562-.89 2.827-3.34 2.827-5.419v-9.946c0-2.078-1.265-3.043-2.827-2.152l-27.895 15.958c-1.563.891-2.827 3.341-2.827 5.42v9.946c0 2.078 1.264 3.043 2.827 2.152z" fill="#3056AA"/><path d="M348.875 319.925c.447.445.745 1.113.745 2.078v9.947c0 2.078-1.265 4.527-2.827 5.418l-27.97 15.959c-.521.297-.967.371-1.413.297.521.52 1.264.594 2.157.074l27.895-15.959c1.563-.89 2.827-3.34 2.827-5.419v-9.946c0-1.41-.596-2.301-1.414-2.449z" fill="#fff"/><path d="M327.972 342.861l2.529-1.484c.372-.223.595-.743.595-1.188v-2.746c0-.446-.298-.669-.595-.446l-2.529 1.485c-.373.223-.596.742-.596 1.187v2.747c-.074.445.223.668.596.445z" fill="#3A6DAA"/><path d="M336.528 337.962l2.529-1.485c.372-.222.595-.742.595-1.187v-2.746c0-.446-.297-.669-.595-.446l-2.529 1.484c-.371.223-.595.743-.595 1.188v2.747c-.074.445.224.668.595.445z" fill="#fff"/><path d="M319.568 281.771l27.895-15.958c1.562-.891 2.827-3.341 2.827-5.419v-9.946c0-2.078-1.265-3.044-2.827-2.153l-27.895 15.959c-1.563.89-2.827 3.34-2.827 5.419v9.946c0 2.079 1.264 3.043 2.827 2.152z" fill="#3056AA"/><path d="M348.877 247.998c.446.446.744 1.113.744 2.079v9.946c0 2.079-1.264 4.527-2.827 5.418l-27.895 15.96c-.52.297-.967.371-1.413.297.52.519 1.264.594 2.157.074l27.895-15.959c1.562-.891 2.827-3.341 2.827-5.419v-9.946c-.074-1.411-.67-2.301-1.488-2.45z" fill="#fff"/><path d="M327.972 270.934l2.529-1.484c.372-.223.595-.742.595-1.188v-2.746c0-.446-.298-.669-.595-.446l-2.529 1.485c-.373.223-.596.742-.596 1.187v2.747c-.074.445.223.668.596.445z" fill="#3A6DAA"/><path d="M336.528 266.035l2.529-1.484c.372-.223.595-.742.595-1.188v-2.746c0-.446-.297-.668-.595-.446l-2.529 1.485c-.371.223-.595.743-.595 1.187v2.747c-.074.445.224.594.595.445z" fill="#fff"/><path d="M295.391 235.602l-64.345-37.114c-1.413-.816-2.604-3.043-2.604-4.973v-12.248c0-1.929 1.191-2.82 2.604-2.004l64.345 37.114c1.413.816 2.604 3.044 2.604 4.973v12.248c0 1.93-1.191 2.82-2.604 2.004z" fill="#4164C4"/><path d="M293.531 231.297l-60.7-34.961c-.744-.446-1.339-1.559-1.339-2.525v-9.203c0-.966.595-1.41 1.339-.966l60.7 34.962c.744.445 1.339 1.558 1.339 2.524v9.204c0 .965-.595 1.411-1.339.965z" fill="#5070E2"/><path d="M245.551 199.008l-9.075-5.196c-.744-.445-1.265-1.485-1.265-2.449 0-.966.595-1.411 1.265-.966l9.075 5.196c.744.446 1.265 1.485 1.265 2.45 0 .891-.596 1.336-1.265.965z" fill="#5B95FF"/><path d="M253.214 201.754c0 .965-.669 1.337-1.488.891-.818-.445-1.487-1.633-1.487-2.598 0-.965.669-1.336 1.487-.891.819.446 1.488 1.634 1.488 2.598zm5.282 2.969c0 .966-.67 1.337-1.488.891-.818-.445-1.487-1.632-1.487-2.598 0-.965.669-1.336 1.487-.891.818.52 1.488 1.708 1.488 2.598z" fill="#203E79"/><path d="M263.702 207.766c0 .965-.67 1.337-1.488.891-.819-.445-1.487-1.633-1.487-2.598 0-.964.668-1.336 1.487-.891.818.521 1.488 1.634 1.488 2.598z" fill="#FF65AB"/><path d="M268.984 210.81c0 .965-.67 1.336-1.488.891-.818-.445-1.488-1.633-1.488-2.598 0-.966.67-1.336 1.488-.891.818.445 1.488 1.633 1.488 2.598zm22.017 15.366l-3.049-1.782c-.447-.297-.819-.965-.819-1.559v-3.192c0-.594.372-.891.819-.594l3.049 1.782c.446.297.819.965.819 1.559v3.192c0 .593-.373.89-.819.594z" fill="#203E79"/><path d="M295.391 257.203l-64.345-37.114c-1.413-.817-2.604-3.044-2.604-4.973v-12.249c0-1.929 1.191-2.82 2.604-2.004l64.345 37.114c1.413.817 2.604 3.044 2.604 4.973v12.248c0 1.93-1.191 2.821-2.604 2.005z" fill="#4164C4"/><path d="M293.531 252.897l-60.7-34.961c-.744-.446-1.339-1.559-1.339-2.524v-9.204c0-.965.595-1.41 1.339-.965l60.7 34.962c.744.445 1.339 1.558 1.339 2.523v9.204c0 .965-.595 1.411-1.339.965z" fill="#5070E2"/><path d="M245.551 220.608l-9.075-5.196c-.744-.445-1.265-1.484-1.265-2.449 0-.965.595-1.41 1.265-.965l9.075 5.195c.744.446 1.265 1.485 1.265 2.45 0 .891-.596 1.336-1.265.965z" fill="#5B95FF"/><path d="M253.214 223.354c0 .965-.669 1.337-1.488.891-.818-.445-1.487-1.633-1.487-2.598 0-.965.669-1.335 1.487-.891.819.446 1.488 1.634 1.488 2.598z" fill="#03E59F"/><path d="M258.496 226.323c0 .966-.67 1.337-1.488.891-.818-.445-1.487-1.632-1.487-2.598 0-.965.669-1.336 1.487-.89.818.519 1.488 1.632 1.488 2.597z" fill="#203E79"/><path d="M263.702 229.367c0 .965-.67 1.336-1.488.891-.819-.446-1.487-1.634-1.487-2.598 0-.965.668-1.337 1.487-.891.818.52 1.488 1.633 1.488 2.598z" fill="#03E59F"/><path d="M268.984 232.336c0 .965-.67 1.336-1.488.891-.818-.446-1.488-1.633-1.488-2.599 0-.964.67-1.335 1.488-.89.818.52 1.488 1.708 1.488 2.598zm22.017 15.44l-3.049-1.782c-.447-.297-.819-.965-.819-1.559v-3.192c0-.594.372-.891.819-.594l3.049 1.782c.446.297.819.965.819 1.559v3.192c0 .594-.373.891-.819.594z" fill="#203E79"/><path d="M295.391 278.803l-64.345-37.114c-1.413-.817-2.604-3.044-2.604-4.973v-12.248c0-1.93 1.191-2.821 2.604-2.005l64.345 37.114c1.413.818 2.604 3.044 2.604 4.974v12.247c0 1.931-1.191 2.821-2.604 2.005z" fill="#4164C4"/><path d="M293.531 274.497l-60.7-34.961c-.744-.446-1.339-1.559-1.339-2.523v-9.205c0-.965.595-1.41 1.339-.965l60.7 34.962c.744.445 1.339 1.558 1.339 2.523v9.205c0 .964-.595 1.41-1.339.964z" fill="#5070E2"/><path d="M245.551 242.209l-9.075-5.196c-.744-.446-1.265-1.485-1.265-2.45 0-.965.595-1.41 1.265-.965l9.075 5.196c.744.445 1.265 1.484 1.265 2.449 0 .891-.596 1.336-1.265.966z" fill="#5B95FF"/><path d="M252.765 245.876c.569-.328.564-1.399-.011-2.393-.575-.994-1.503-1.535-2.072-1.207-.57.329-.565 1.4.011 2.394.574.994 1.503 1.534 2.072 1.206z" fill="#FF65AB"/><path d="M258.052 248.892c.57-.328.565-1.4-.01-2.394-.575-.994-1.504-1.533-2.073-1.205-.568.327-.564 1.399.011 2.393.575.994 1.503 1.535 2.072 1.206z" fill="#203E79"/><path d="M263.702 250.967c0 .966-.67 1.336-1.488.891-.819-.446-1.487-1.633-1.487-2.598 0-.965.668-1.336 1.487-.89.818.519 1.488 1.632 1.488 2.597z" fill="#03E59F"/><path d="M268.984 253.937c0 .964-.67 1.335-1.488.89-.818-.446-1.488-1.633-1.488-2.598 0-.965.67-1.336 1.488-.891.818.52 1.488 1.708 1.488 2.599zm22.017 15.439l-3.049-1.782c-.447-.297-.819-.965-.819-1.559v-3.192c0-.593.372-.89.819-.593l3.049 1.781c.446.297.819.965.819 1.559v3.192c0 .594-.373.891-.819.594z" fill="#203E79"/><path d="M295.391 300.403l-64.345-37.114c-1.413-.817-2.604-3.043-2.604-4.973v-12.248c0-1.93 1.191-2.821 2.604-2.004l64.345 37.113c1.413.818 2.604 3.044 2.604 4.974v12.248c0 1.93-1.191 2.82-2.604 2.004z" fill="#4164C4"/><path d="M293.531 296.097l-60.7-34.961c-.744-.445-1.339-1.559-1.339-2.523v-9.205c0-.965.595-1.41 1.339-.965l60.7 34.962c.744.445 1.339 1.558 1.339 2.523v9.205c0 .964-.595 1.41-1.339.964z" fill="#5070E2"/><path d="M245.551 263.809l-9.075-5.196c-.744-.446-1.265-1.485-1.265-2.45 0-.965.595-1.41 1.265-.965l9.075 5.196c.744.445 1.265 1.484 1.265 2.449 0 .891-.596 1.337-1.265.966z" fill="#5B95FF"/><path d="M253.214 266.481c0 .965-.669 1.336-1.488.891-.818-.446-1.487-1.634-1.487-2.598 0-.965.669-1.337 1.487-.891.819.52 1.488 1.707 1.488 2.598zm5.282 3.043c0 .965-.67 1.336-1.488.89-.818-.444-1.487-1.632-1.487-2.597 0-.966.669-1.336 1.487-.891.818.519 1.488 1.633 1.488 2.598z" fill="#203E79"/><path d="M263.702 272.568c0 .965-.67 1.335-1.488.89-.819-.445-1.487-1.633-1.487-2.597 0-.966.668-1.337 1.487-.891.818.445 1.488 1.632 1.488 2.598z" fill="#03E59F"/><path d="M268.984 275.537c0 .964-.67 1.335-1.488.891-.818-.446-1.488-1.634-1.488-2.599 0-.965.67-1.336 1.488-.89.818.519 1.488 1.707 1.488 2.598z" fill="#203E79"/><path d="M291.001 290.976l-3.049-1.782c-.447-.296-.819-.965-.819-1.558v-3.192c0-.594.372-.891.819-.594l3.049 1.781c.446.297.819.966.819 1.559v3.192c0 .594-.373.816-.819.594z" fill="#FFD22E"/><path d="M295.391 322.003l-64.345-37.113c-1.413-.817-2.604-3.044-2.604-4.974v-12.247c0-1.931 1.191-2.821 2.604-2.004l64.345 37.114c1.413.816 2.604 3.042 2.604 4.973v12.247c0 1.93-1.191 2.821-2.604 2.004z" fill="#4164C4"/><path d="M293.531 317.698l-60.7-34.961c-.744-.446-1.339-1.56-1.339-2.524v-9.205c0-.965.595-1.41 1.339-.965l60.7 34.962c.744.445 1.339 1.559 1.339 2.523v9.205c0 .965-.595 1.41-1.339.965z" fill="#5070E2"/><path d="M245.551 285.409l-9.075-5.196c-.744-.446-1.265-1.484-1.265-2.45 0-.965.595-1.41 1.265-.965l9.075 5.197c.744.445 1.265 1.484 1.265 2.449 0 .89-.596 1.336-1.265.965z" fill="#5B95FF"/><path d="M252.77 289.074c.57-.328.565-1.399-.01-2.393-.575-.994-1.503-1.534-2.072-1.206-.569.328-.564 1.399.01 2.393.576.994 1.503 1.534 2.072 1.206z" fill="#203E79"/><path d="M258.021 292.026c.569-.328.565-1.4-.011-2.394-.575-.994-1.503-1.533-2.072-1.206-.569.328-.565 1.4.011 2.394.575.994 1.503 1.534 2.072 1.206zm5.224 3.054c.57-.329.565-1.4-.01-2.395-.575-.994-1.502-1.533-2.072-1.205-.569.328-.564 1.399.01 2.393.576.994 1.503 1.535 2.072 1.207zm5.739 2.057c0 .965-.67 1.336-1.488.891-.818-.446-1.488-1.634-1.488-2.598 0-.965.67-1.337 1.488-.891.818.52 1.488 1.707 1.488 2.598z" fill="#03E59F"/><path d="M291.001 312.576l-3.049-1.781c-.447-.297-.819-.965-.819-1.559v-3.192c0-.593.372-.89.819-.594l3.049 1.781c.446.297.819.966.819 1.56v3.191c0 .594-.373.817-.819.594z" fill="#FFD22E"/><path d="M295.391 343.603l-64.345-37.113c-1.413-.817-2.604-3.044-2.604-4.974v-12.247c0-1.931 1.191-2.821 2.604-2.004l64.345 37.114c1.413.816 2.604 3.042 2.604 4.973v12.247c0 1.93-1.191 2.821-2.604 2.004z" fill="#4164C4"/><path d="M293.533 339.298l-60.625-34.961c-.745-.445-1.34-1.559-1.34-2.524v-9.204c0-.965.595-1.411 1.34-.965l60.699 34.961c.744.445 1.339 1.559 1.339 2.523v9.205c-.075.965-.669 1.41-1.413.965z" fill="#5070E2"/><path d="M245.551 306.934l-9.075-5.195c-.744-.445-1.265-1.485-1.265-2.45 0-.964.595-1.41 1.265-.964l9.075 5.195c.744.446 1.265 1.485 1.265 2.45 0 .964-.596 1.41-1.265.964z" fill="#5B95FF"/><path d="M253.214 309.681c0 .966-.669 1.337-1.488.891-.818-.445-1.487-1.633-1.487-2.598 0-.965.669-1.336 1.487-.891.819.52 1.488 1.708 1.488 2.598zm5.282 3.043c0 .965-.67 1.337-1.488.891-.818-.445-1.487-1.633-1.487-2.598 0-.964.669-1.336 1.487-.891.818.521 1.488 1.634 1.488 2.598z" fill="#203E79"/><path d="M263.702 315.768c0 .965-.67 1.336-1.488.891-.819-.445-1.487-1.633-1.487-2.598 0-.966.668-1.336 1.487-.891.818.445 1.488 1.633 1.488 2.598z" fill="#03E59F"/><path d="M268.984 318.737c0 .965-.67 1.336-1.488.891-.818-.446-1.488-1.633-1.488-2.598 0-.965.67-1.337 1.488-.891.818.52 1.488 1.633 1.488 2.598zm22.017 15.439l-3.049-1.781c-.447-.297-.819-.964-.819-1.558v-3.192c0-.594.372-.891.819-.594l3.049 1.781c.446.297.819.965.819 1.559v3.191c0 .594-.373.817-.819.594z" fill="#203E79"/><path d="M295.391 365.204l-64.345-37.114c-1.413-.817-2.604-3.044-2.604-4.974v-12.247c0-1.93 1.191-2.821 2.604-2.004l64.345 37.114c1.413.816 2.604 3.043 2.604 4.973V363.2c0 1.929-1.191 2.82-2.604 2.004z" fill="#4164C4"/><path d="M293.531 360.899l-60.7-34.962c-.744-.445-1.339-1.558-1.339-2.523v-9.204c0-.966.595-1.411 1.339-.965l60.7 34.96c.744.446 1.339 1.559 1.339 2.525v9.203c0 .891-.595 1.337-1.339.966z" fill="#5070E2"/><path d="M245.551 328.535l-9.075-5.196c-.744-.445-1.265-1.485-1.265-2.449 0-.965.595-1.411 1.265-.965l9.075 5.196c.744.445 1.265 1.484 1.265 2.449 0 .965-.596 1.411-1.265.965z" fill="#5B95FF"/><path d="M254.926 332.469c0 1.782-1.265 2.524-2.827 1.634-1.563-.891-2.827-3.044-2.827-4.825 0-1.782 1.264-2.524 2.827-1.633 1.562.891 2.827 3.043 2.827 4.824z" fill="#fff"/><path d="M265.712 338.778c0 .965-.67 1.337-1.488.891-.818-.445-1.488-1.633-1.488-2.598 0-.964.67-1.336 1.488-.891.818.52 1.488 1.708 1.488 2.598z" fill="#203E79"/><path d="M270.994 341.822c0 .965-.67 1.336-1.488.891-.818-.445-1.487-1.633-1.487-2.598 0-.965.669-1.336 1.487-.891.818.519 1.488 1.633 1.488 2.598z" fill="#03E59F"/><path d="M275.746 345.775c.57-.328.565-1.4-.01-2.394-.575-.994-1.502-1.534-2.072-1.206-.569.328-.564 1.4.01 2.394.576.994 1.503 1.534 2.072 1.206z" fill="#203E79"/><path d="M291.001 355.776l-3.049-1.781c-.447-.297-.819-.964-.819-1.558v-3.192c0-.594.372-.891.819-.594l3.049 1.782c.446.296.819.964.819 1.558v3.192c0 .52-.373.817-.819.593z" fill="#FFD22E"/><path d="M188.348 347.612c-.298 0-.669-.148-.819-.445-.223-.446-.073-1.04.373-1.263l12.72-7.348a4.675 4.675 0 002.306-4.008v-6.681c0-.519.446-.965.967-.965.521 0 .967.446.967.965v6.681c0 2.301-1.265 4.454-3.273 5.641l-12.72 7.349c-.224 0-.372.074-.521.074z" fill="#7EC4F7"/><path d="M191.53 349.233l-3.848-6.696-14.455 8.27 3.849 6.697 14.454-8.271z" fill="#7EC4F7"/><path d="M192.365 347.464c0-1.708-1.191-3.86-2.753-4.751-1.488-.891-2.752-.149-2.752 1.558 0 1.708 1.19 3.86 2.752 4.751 1.562.891 2.753.223 2.753-1.558zm-11.598 10.646l-6.216-10.818-22.715 12.997 6.216 10.817 22.715-12.996z" fill="#7EC4F7"/><path d="M175.627 349.468l4.909-2.822c2.008 1.485 3.645 4.232 3.869 6.682l-4.91 2.82c-2.009-1.41-3.645-4.231-3.868-6.68z" fill="#3981EA"/><path d="M182.101 355.332c0-2.822-1.934-6.236-4.389-7.646-2.454-1.41-4.463-.297-4.463 2.523 0 2.822 1.934 6.236 4.389 7.646 2.529 1.41 4.463.222 4.463-2.523z" fill="#7EC4F7"/><path d="M187.829 345.682c.744-.371.744-1.04 0-1.485-.744-.445-1.86-.445-2.529 0-.744.372-.744 1.039 0 1.485.669.445 1.785.445 2.529 0z" fill="#D3E9F8"/><path d="M231.642 343.529c-1.191 0-2.456-.297-3.572-.965l-49.244-28.429c-1.562-.891-2.454-2.45-2.454-4.231 0-1.782.892-3.34 2.38-4.305l13.613-8.24c.446-.297 1.041-.148 1.264.297.298.446.149 1.039-.298 1.262l-13.612 8.239c-.967.594-1.488 1.559-1.488 2.672 0 1.114.595 2.079 1.563 2.673l49.169 28.429c1.636.965 3.72.891 5.356-.074l16.96-10.318c.447-.297 1.042-.148 1.265.297.298.446.149 1.039-.298 1.262l-16.959 10.318a6.57 6.57 0 01-3.645 1.113z" fill="#7EC4F7"/><path opacity=".1" d="M54.747 279.248L26.63 263.066c-1.711-.964-1.488-2.746.52-3.859l27.152-15.663c2.008-1.113 4.984-1.261 6.77-.297l28.117 16.182c1.711.966 1.488 2.747-.52 3.86l-27.151 15.662c-2.009 1.188-5.059 1.337-6.77.297z" fill="#203E79"/><path d="M98.488 247.107v-12.099h-27.3l-9.447-5.418c-2.157-1.262-5.952-1.113-8.406.371l-8.778 5.047h-27.3v12.471c-.074.816.446 1.632 1.413 2.226l35.26 20.339c2.157 1.261 5.95 1.113 8.406-.371l34.07-19.596c1.487-.891 2.156-1.931 2.082-2.97z" fill="#5B95FF"/><path d="M57.873 228.699c-1.563.074-3.199.445-4.538 1.188l-8.778 5.047h-27.3v12.47c-.074.817.446 1.633 1.413 2.227l35.26 20.339c1.041.594 2.455.891 3.943.816v-42.087z" fill="#7EC4F7"/><path d="M20.381 234.934h-3.124v12.47c-.074.817.446 1.633 1.413 2.227l1.637.965v-15.662h.074z" fill="#7EC4F7"/><path d="M54.524 270.267c1.86.816 4.538.741 6.77-.075v-14.177h-6.77v14.252z" fill="#7BB1FF"/><path d="M53.93 257.573l-35.26-20.338c-2.158-1.262-1.86-3.414.595-4.898l34.07-19.597c2.528-1.41 6.248-1.559 8.405-.371L97 232.707c2.157 1.262 1.859 3.415-.596 4.9L62.41 257.203c-2.53 1.41-6.323 1.558-8.48.37z" fill="#D3E9F8"/><path d="M54.599 253.862l-29.532-16.998c-1.785-1.039-1.562-2.895.52-4.082l28.49-16.405c2.084-1.188 5.283-1.336 7.068-.297l29.531 16.998c1.786 1.039 1.563 2.895-.52 4.083l-28.49 16.404c-2.083 1.262-5.281 1.336-7.067.297z" fill="#3A81E8"/><path d="M85.545 250.299c0 .891-.67 2.004-1.413 2.45-.818.445-1.413.074-1.413-.817 0-.891.669-2.004 1.413-2.449.743-.446 1.413-.075 1.413.816zm4.537-2.598c0 .891-.67 2.004-1.413 2.45-.744.445-1.414.074-1.414-.817 0-.89.67-2.004 1.414-2.449.818-.519 1.413-.149 1.413.816zm4.613-2.672c0 .891-.67 2.004-1.414 2.45-.818.445-1.413.073-1.413-.817 0-.891.67-2.005 1.413-2.449.745-.446 1.414-.075 1.414.816z" fill="#fff"/><path d="M98.488 227.734v-12.099h-27.3l-9.447-5.419c-2.157-1.261-5.952-1.113-8.406.371l-8.778 5.048h-27.3v12.47c-.074.816.446 1.633 1.413 2.227l35.26 20.339c2.157 1.261 5.95 1.113 8.406-.372l34.07-19.596c1.487-.891 2.156-2.004 2.082-2.969z" fill="#5B95FF"/><path d="M57.873 209.325c-1.563.075-3.199.446-4.538 1.188l-8.778 5.048h-27.3v12.47c-.074.816.446 1.633 1.413 2.227l35.26 20.338c1.041.594 2.455.891 3.943.816v-42.087z" fill="#7EC4F7"/><path d="M20.381 215.561h-3.124v12.47c-.074.816.446 1.633 1.413 2.227l1.637.964v-15.661h.074z" fill="#7EC4F7"/><path d="M54.524 250.818c1.86.818 4.538.743 6.77-.073v-14.178h-6.77v14.251z" fill="#7BB1FF"/><path d="M53.93 238.126l-35.26-20.339c-2.158-1.261-1.86-3.414.595-4.899l34.07-19.596c2.528-1.41 6.248-1.558 8.405-.371L97 213.26c2.157 1.262 1.859 3.414-.596 4.899l-33.995 19.67c-2.53 1.41-6.323 1.559-8.48.297z" fill="#D3E9F8"/><path d="M54.599 234.488L25.067 217.49c-1.785-1.039-1.562-2.895.52-4.082l28.49-16.405c2.084-1.187 5.283-1.335 7.068-.297l29.531 16.999c1.786 1.039 1.563 2.894-.52 4.082l-28.49 16.405c-2.083 1.187-5.281 1.336-7.067.296z" fill="#3A81E8"/><path d="M85.545 230.925c0 .891-.67 2.005-1.413 2.45-.818.445-1.413.075-1.413-.816 0-.891.669-2.004 1.413-2.45.743-.445 1.413-.074 1.413.816zm4.537-2.671c0 .891-.67 2.004-1.413 2.449-.818.446-1.414.074-1.414-.816 0-.891.67-2.004 1.414-2.45.818-.445 1.413-.074 1.413.817zm4.613-2.599c0 .891-.67 2.005-1.414 2.45-.818.446-1.413.075-1.413-.816 0-.891.67-2.004 1.413-2.45.745-.445 1.414-.074 1.414.816z" fill="#fff"/><path d="M98.488 208.286v-12.099h-27.3l-9.447-5.418c-2.157-1.262-5.952-1.113-8.406.371l-8.778 5.047h-27.3v12.471c-.074.816.446 1.632 1.413 2.226l35.26 20.338c2.157 1.262 5.95 1.114 8.406-.37l34.07-19.596c1.487-.891 2.156-1.931 2.082-2.97z" fill="#5B95FF"/><path d="M57.873 189.878c-1.563.074-3.199.445-4.538 1.188l-8.778 5.047h-27.3v12.47c-.074.817.446 1.633 1.413 2.227l35.26 20.338c1.041.594 2.455.891 3.943.817v-42.087z" fill="#7EC4F7"/><path d="M20.381 196.113h-3.124v12.47c-.074.817.446 1.633 1.413 2.227l1.637.965v-15.662h.074z" fill="#7EC4F7"/><path d="M54.524 231.446c1.86.816 4.538.742 6.77-.075v-14.178h-6.77v14.253z" fill="#7BB1FF"/><path d="M53.93 218.752l-35.26-20.338c-2.158-1.262-1.86-3.415.595-4.899l34.07-19.597c2.528-1.41 6.248-1.558 8.405-.37L97 193.886c2.157 1.262 1.859 3.414-.596 4.899L62.41 218.381c-2.53 1.485-6.323 1.634-8.48.371z" fill="#D3E9F8"/><path d="M54.599 215.116l-29.532-16.999c-1.785-1.039-1.562-2.894.52-4.082l28.49-16.404c2.084-1.188 5.283-1.337 7.068-.297l29.531 16.998c1.786 1.039 1.563 2.895-.52 4.082l-28.49 16.405c-2.083 1.187-5.281 1.336-7.067.297z" fill="#3A81E8"/><path d="M85.545 211.552c0 .891-.67 2.005-1.413 2.45-.818.445-1.413.074-1.413-.817 0-.89.669-2.004 1.413-2.45.743-.519 1.413-.148 1.413.817zm4.537-2.672c0 .891-.67 2.004-1.413 2.449-.818.446-1.414.075-1.414-.816 0-.891.67-2.004 1.414-2.449.818-.446 1.413-.075 1.413.816zm4.613-2.598c0 .891-.67 2.004-1.414 2.449-.818.446-1.413.075-1.413-.816 0-.891.67-2.004 1.413-2.45.745-.445 1.414-.148 1.414.817z" fill="#fff"/><path d="M98.488 188.913v-12.1h-27.3l-9.447-5.418c-2.157-1.262-5.952-1.113-8.406.371l-8.778 5.047h-27.3v12.471c-.074.816.446 1.633 1.413 2.227l35.26 20.338c2.157 1.262 5.95 1.114 8.406-.371l34.07-19.596c1.487-.891 2.156-1.93 2.082-2.969z" fill="#5B95FF"/><path d="M57.873 170.504c-1.563.075-3.199.446-4.538 1.188l-8.778 5.048h-27.3v12.47c-.074.816.446 1.633 1.413 2.227l35.26 20.338c1.041.594 2.455.891 3.943.816v-42.087z" fill="#7EC4F7"/><path d="M20.381 176.74h-3.124v12.47c-.074.816.446 1.633 1.413 2.227l1.637.964V176.74h.074z" fill="#7EC4F7"/><path d="M54.524 212.072c1.86.816 4.538.742 6.77-.074v-14.177h-6.77v14.251z" fill="#7BB1FF"/><path d="M53.93 199.379l-35.26-20.338c-2.158-1.263-1.86-3.415.595-4.899l34.07-19.596c2.528-1.411 6.248-1.559 8.405-.372L97 174.512c2.157 1.263 1.859 3.415-.596 4.9L62.41 199.008c-2.53 1.41-6.323 1.558-8.48.371z" fill="#D3E9F8"/><path d="M54.599 195.668l-29.532-16.999c-1.785-1.038-1.562-2.894.52-4.082l28.49-16.405c2.084-1.187 5.283-1.335 7.068-.297l29.531 16.999c1.786 1.04 1.563 2.895-.52 4.082l-28.49 16.479c-2.083 1.188-5.281 1.336-7.067.223z" fill="#3A81E8"/><path d="M85.545 192.105c0 .89-.67 2.004-1.413 2.449-.818.445-1.413.075-1.413-.816 0-.891.669-2.005 1.413-2.45.743-.445 1.413-.074 1.413.817zm4.537-2.598c0 .89-.67 2.004-1.413 2.45-.818.444-1.414.073-1.414-.818 0-.89.67-2.004 1.414-2.449.744-.446 1.413-.074 1.413.817zm4.613-2.673c0 .891-.67 2.004-1.414 2.45-.818.445-1.413.075-1.413-.816 0-.891.67-2.005 1.413-2.45.745-.445 1.414-.074 1.414.816z" fill="#fff"/><path d="M98.488 169.539v-12.173h-27.3l-9.447-5.419c-2.157-1.261-5.952-1.113-8.406.371l-8.778 5.048h-27.3v12.47c-.074.817.446 1.634 1.413 2.227l35.26 20.338c2.157 1.263 5.95 1.114 8.406-.371l34.07-19.596c1.487-.816 2.156-1.93 2.082-2.895z" fill="#5B95FF"/><path d="M57.873 151.131c-1.563.074-3.199.446-4.538 1.187l-8.778 5.048h-27.3v12.47c-.074.816.446 1.634 1.413 2.227l35.26 20.338c1.041.594 2.455.891 3.943.817v-42.087z" fill="#7EC4F7"/><path d="M20.381 157.366h-3.124v12.47c-.074.817.446 1.634 1.413 2.227l1.637.965v-15.662h.074z" fill="#7EC4F7"/><path d="M54.524 192.698c1.86.817 4.538.743 6.77-.074v-14.177h-6.77v14.251z" fill="#7BB1FF"/><path d="M53.93 179.931l-35.26-20.338c-2.158-1.262-1.86-3.415.595-4.899l34.07-19.596c2.528-1.411 6.248-1.56 8.405-.372L97 155.065c2.157 1.261 1.859 3.414-.596 4.899L62.41 179.635c-2.53 1.41-6.323 1.558-8.48.296z" fill="#D3E9F8"/><path d="M54.599 176.294l-29.532-16.998c-1.785-1.039-1.562-2.895.52-4.083l28.49-16.404c2.084-1.187 5.283-1.336 7.068-.297l29.531 16.998c1.786 1.04 1.563 2.895-.52 4.083l-28.49 16.404c-2.083 1.188-5.281 1.337-7.067.297z" fill="#3A81E8"/><path d="M84.01 173.473l-14.106 8.132.297.513 14.107-8.131-.298-.514z" fill="#fff"/><path d="M85.546 172.731c0 .891-.67 2.005-1.413 2.45-.819.445-1.414.074-1.414-.817 0-.89.67-2.004 1.414-2.449.743-.445 1.413-.074 1.413.816zm4.536-2.598c0 .891-.67 2.004-1.413 2.45-.819.445-1.414.074-1.414-.816 0-.891.67-2.004 1.414-2.45.818-.52 1.413-.148 1.413.816zm4.613-2.672c0 .89-.67 2.004-1.414 2.449-.818.446-1.413.075-1.413-.816 0-.891.67-2.004 1.413-2.45.745-.445 1.414-.074 1.414.817z" fill="#fff"/><path d="M98.488 150.017v-12.099h-27.3L61.74 132.5c-2.157-1.262-5.952-1.113-8.406.371l-8.778 5.047h-27.3v12.471c-.074.816.446 1.632 1.413 2.226l35.26 20.339c2.157 1.261 5.95 1.113 8.406-.371l34.07-19.596c1.487-.891 2.156-2.004 2.082-2.97z" fill="#5B95FF"/><path d="M57.873 131.609c-1.563.074-3.199.445-4.538 1.188l-8.778 5.047h-27.3v12.47c-.074.817.446 1.633 1.413 2.227l35.26 20.339c1.041.594 2.455.891 3.943.816v-42.087z" fill="#7EC4F7"/><path d="M20.381 137.844h-3.124v12.47c-.074.817.446 1.633 1.413 2.227l1.637.965v-15.662h.074z" fill="#7EC4F7"/><path d="M54.524 173.102c1.86.816 4.538.743 6.77-.074v-14.177h-6.77v14.251z" fill="#7BB1FF"/><path d="M53.93 160.409l-35.26-20.338c-2.158-1.262-1.86-3.414.595-4.899l34.07-19.596c2.528-1.41 6.248-1.559 8.405-.372L97 135.543c2.157 1.262 1.859 3.415-.596 4.899l-33.995 19.67c-2.53 1.411-6.323 1.559-8.48.297z" fill="#D3E9F8"/><path d="M96.404 138.067L62.41 157.663c-2.53 1.41-6.249 1.559-8.406.371l-35.26-20.339c-.446-.296-.818-.593-1.116-.964-.744 1.188-.372 2.524 1.116 3.34l35.26 20.339c2.157 1.261 5.95 1.113 8.406-.372l34.07-19.596c1.932-1.113 2.528-2.672 1.71-3.934a5.3 5.3 0 01-1.786 1.559zm-10.858 15.142c0 .891-.67 2.004-1.414 2.45-.818.445-1.413.074-1.413-.816 0-.891.67-2.005 1.413-2.45.744-.446 1.414-.075 1.414.816zm-14.061 7.72c0 .891-.67 2.004-1.413 2.45-.82.445-1.414.074-1.414-.817 0-.891.67-2.004 1.414-2.449.818-.446 1.413-.149 1.413.816zm0 20.116c0 .89-.67 2.004-1.413 2.449-.82.446-1.414.074-1.414-.817 0-.89.67-2.004 1.414-2.449.818-.446 1.413-.074 1.413.817zm18.597-30.508c0 .891-.67 2.005-1.413 2.45-.818.445-1.414.074-1.414-.817 0-.89.67-2.004 1.414-2.45.818-.444 1.413-.074 1.413.817zm4.613-2.598c0 .891-.67 2.004-1.414 2.45-.818.445-1.413.074-1.413-.816 0-.891.67-2.005 1.413-2.45.745-.446 1.414-.075 1.414.816z" fill="#fff"/><path d="M56.013 147.865l-16.514-9.501c-1.041-.594-.893-1.634.298-2.301l15.919-9.205c1.19-.668 2.9-.742 3.942-.148l16.514 9.501c1.041.594.893 1.633-.298 2.301l-15.918 9.205c-1.116.668-2.902.741-3.943.148z" fill="#7EC4F7"/><path d="M57.651 139.923l-2.307-1.337c-.148-.074-.148-.222.075-.297l2.232-1.261a.637.637 0 01.52 0l2.306 1.336c.15.074.15.222-.074.297l-2.232 1.262c-.148 0-.446.073-.52 0z" fill="#D3E9F8"/><path d="M39.572 138.362c.148 0 .223-.075.297-.149l15.919-9.204c1.19-.668 2.901-.743 3.943-.149l16.439 9.502c.968-.668.968-1.559.075-2.079l-16.514-9.501c-1.042-.594-2.753-.52-3.943.149l-15.918 9.203c-1.191.594-1.34 1.634-.298 2.228z" fill="#44A6E2"/><path d="M52.592 163.305c0 .964-.67 1.335-1.488.89-.818-.446-1.487-1.633-1.487-2.597 0-.966.67-1.337 1.487-.891.819.519 1.488 1.632 1.488 2.598z" fill="#D3E9F8"/><path d="M47.906 160.632c0 .965-.67 1.336-1.488.891-.818-.446-1.487-1.634-1.487-2.598 0-.965.67-1.336 1.487-.891.819.52 1.488 1.633 1.488 2.598z" fill="#203E79"/><path d="M52.592 168.945c0 .966-.67 1.337-1.488.891-.818-.445-1.487-1.633-1.487-2.598 0-.964.67-1.336 1.487-.891.819.446 1.488 1.634 1.488 2.598zm-4.686-2.671c0 .964-.67 1.336-1.488.89-.818-.445-1.487-1.633-1.487-2.598 0-.964.67-1.336 1.487-.891.819.446 1.488 1.634 1.488 2.599zm4.686 16.33c0 .964-.67 1.336-1.488.891-.818-.446-1.487-1.634-1.487-2.599 0-.964.67-1.336 1.487-.89.819.445 1.488 1.633 1.488 2.598zm-4.686-2.672c0 .964-.67 1.335-1.488.89-.818-.446-1.487-1.633-1.487-2.598 0-.965.67-1.336 1.487-.89.819.445 1.488 1.632 1.488 2.598z" fill="#D3E9F8"/><path d="M52.592 188.171c0 .964-.67 1.336-1.488.89-.818-.445-1.487-1.633-1.487-2.598 0-.964.67-1.336 1.487-.891.819.52 1.488 1.634 1.488 2.599z" fill="#203E79"/><path d="M47.906 185.499c0 .965-.67 1.335-1.488.89-.818-.445-1.487-1.633-1.487-2.597 0-.966.67-1.337 1.487-.891.819.519 1.488 1.632 1.488 2.598zm4.686 16.404c0 .964-.67 1.336-1.488.891-.818-.446-1.487-1.634-1.487-2.598 0-.965.67-1.337 1.487-.891.819.445 1.488 1.633 1.488 2.598z" fill="#D3E9F8"/><path d="M47.906 199.231c0 .964-.67 1.335-1.488.89-.818-.445-1.487-1.633-1.487-2.597 0-.966.67-1.337 1.487-.891.819.445 1.488 1.632 1.488 2.598z" fill="#203E79"/><path d="M52.592 207.47c0 .964-.67 1.336-1.488.891-.818-.446-1.487-1.634-1.487-2.599 0-.964.67-1.336 1.487-.89.819.52 1.488 1.633 1.488 2.598z" fill="#D3E9F8"/><path d="M47.906 204.798c0 .964-.67 1.336-1.488.891-.818-.446-1.487-1.634-1.487-2.598 0-.965.67-1.337 1.487-.891.819.519 1.488 1.633 1.488 2.598zm4.686 16.552c0 .966-.67 1.336-1.488.891-.818-.445-1.487-1.633-1.487-2.598 0-.965.67-1.336 1.487-.891.819.445 1.488 1.633 1.488 2.598z" fill="#203E79"/><path d="M47.906 218.678c0 .965-.67 1.337-1.488.891-.818-.445-1.487-1.633-1.487-2.598 0-.965.67-1.336 1.487-.891.819.519 1.488 1.633 1.488 2.598zm4.686 8.239c0 .966-.67 1.337-1.488.891-.818-.445-1.487-1.632-1.487-2.598 0-.965.67-1.336 1.487-.89.819.519 1.488 1.707 1.488 2.597z" fill="#D3E9F8"/><path d="M47.906 224.32c0 .965-.67 1.335-1.488.89-.818-.446-1.487-1.633-1.487-2.598 0-.965.67-1.336 1.487-.89.819.445 1.488 1.632 1.488 2.598zm4.686 16.329c0 .966-.67 1.337-1.488.891-.818-.445-1.487-1.632-1.487-2.598 0-.965.67-1.336 1.487-.89.819.444 1.488 1.632 1.488 2.597z" fill="#203E79"/><path d="M47.906 237.977c0 .965-.67 1.337-1.488.891-.818-.445-1.487-1.633-1.487-2.598 0-.965.67-1.336 1.487-.891.819.446 1.488 1.633 1.488 2.598z" fill="#D3E9F8"/><path d="M52.592 246.217c0 .965-.67 1.336-1.488.89-.818-.444-1.487-1.632-1.487-2.597 0-.966.67-1.336 1.487-.891.819.519 1.488 1.633 1.488 2.598z" fill="#203E79"/><path d="M47.906 243.544c0 .966-.67 1.337-1.488.891-.818-.445-1.487-1.633-1.487-2.598 0-.965.67-1.336 1.487-.891.819.52 1.488 1.708 1.488 2.598zm4.686 16.627c0 .965-.67 1.337-1.488.891-.818-.445-1.487-1.633-1.487-2.598 0-.965.67-1.336 1.487-.891.819.446 1.488 1.634 1.488 2.598z" fill="#D3E9F8"/><path d="M47.906 257.499c0 .965-.67 1.337-1.488.891-.818-.445-1.487-1.633-1.487-2.598 0-.965.67-1.336 1.487-.891.819.446 1.488 1.634 1.488 2.598z" fill="#203E79"/><path d="M52.592 265.738c0 .966-.67 1.337-1.488.891-.818-.445-1.487-1.633-1.487-2.598 0-.965.67-1.336 1.487-.891.819.52 1.488 1.633 1.488 2.598zm-4.686-2.672c0 .965-.67 1.337-1.488.891-.818-.445-1.487-1.633-1.487-2.598 0-.965.67-1.336 1.487-.891.819.52 1.488 1.707 1.488 2.598z" fill="#D3E9F8"/><path d="M175.964 399.267l15.618-9.077-14.894-18.442-3.905 6.34 3.181 21.179z" fill="#983BE9"/><path d="M63.18 298.268l24.727-14.264s-.867 14.12-.867 14.264l-14.172 4.467-9.688-4.467z" fill="#721BD5"/><path d="M180.302 353.018a15.442 15.442 0 00-5.35-2.017c-2.458-13.111-11.713-26.943-22.558-33.282-3.326-1.873-6.363-2.882-9.255-3.17-1.446-15.849-12.581-33.858-26.029-41.639-7.085-4.034-13.448-4.466-18.075-2.017l-.29.144c-.144 0-.289.144-.289.144l-14.605 8.645 4.917 3.89c-4.338 1.873-7.086 6.772-7.086 13.976 0 13.255 9.4 29.392 20.968 36.019l77.797 55.327c8.676 5.042 15.762 1.008 15.762-9.077-.145-9.798-7.23-21.9-15.907-26.943z" fill="#983BE9"/><path d="M82.259 291.928l33.548-19.594c-6.507-3.314-12.436-3.602-16.774-1.297l-.29.144c-.144 0-.288.144-.288.144L83.85 279.97l4.916 3.89c-3.037 1.153-5.35 4.034-6.507 8.068z" fill="#721BD5"/><path d="M164.978 362.095a15.454 15.454 0 00-5.351-2.017c-2.458-13.111-11.713-26.943-22.558-33.282-3.326-1.873-6.363-2.882-9.255-3.17-1.446-15.849-12.58-33.859-26.029-41.639-14.46-8.356-26.173-1.585-26.173 15.128v1.729c-10.556-4.898-18.798.577-18.798 13.111 0 13.256 9.399 29.393 20.967 36.02l87.197 50.14c8.676 5.042 15.762 1.008 15.762-9.077-.145-9.942-7.086-22.044-15.762-26.943z" fill="#D4ECFF"/><path d="M75.754 298.844v-1.728c-5.784-2.306-10.845-1.297-14.027 2.305 3.326-2.882 8.243-3.17 14.027-.577z" fill="#fff"/><path d="M166.273 360.798a15.47 15.47 0 00-5.35-2.017c-2.458-13.111-11.568-26.943-22.558-33.282-3.326-1.873-6.363-2.882-9.255-3.17-1.446-15.848-12.581-33.858-26.029-41.639-8.965-5.186-16.919-4.466-21.69.721 4.771-4.034 12.146-4.178 20.389.432 13.448 7.78 24.582 25.79 26.028 41.639 2.893.288 5.929 1.152 9.255 3.17 10.846 6.339 20.1 20.171 22.558 33.282 1.736.288 3.471.864 5.351 2.017 8.676 5.043 15.762 17.145 15.762 27.087 0 3.602-.868 6.483-2.459 8.356 2.314-1.873 3.76-5.043 3.76-9.509-.144-9.941-7.085-22.044-15.762-27.087z" fill="#D4ECFF"/><path d="M73.883 302.734l6.508 3.026-.29-7.204v-1.441c0-6.483 1.88-11.094 5.495-13.111 3.47-2.017 8.532-1.441 14.172 1.873 12.002 6.916 22.413 23.773 23.859 38.325l.29 3.602 3.615.288c2.313.144 4.772 1.009 7.375 2.594 9.543 5.475 18.075 18.154 20.389 30.256l.578 3.026 3.037.432c1.157.144 2.458.721 3.904 1.441 7.375 4.178 13.448 14.84 13.448 23.341 0 3.169-.867 5.475-2.458 6.339-1.59.865-4.049.432-6.652-1.152l-87.196-50.14c-10.123-5.763-18.654-20.603-18.654-32.273 0-4.611 1.301-8.069 3.76-9.51 1.012-.576 2.168-.864 3.47-.864 1.446-.144 3.326.288 5.35 1.152z" fill="#721BD5"/><path d="M95.71 370.884c0 .72-.434 1.008-1.157.576-.578-.288-1.156-1.153-1.156-1.873s.433-1.009 1.156-.576c.723.288 1.157 1.152 1.157 1.873zm40.201 22.908c0 .721-.434 1.009-1.157.577-.578-.288-1.157-1.153-1.157-1.873 0-.721.434-1.009 1.157-.577.723.289 1.157 1.153 1.157 1.873z" fill="#D4ECFF"/><path d="M90.743 335.768v5.18l-12.22-7.054v-5.179l3.748 2.163v-11.03c-.141.163-.379.3-.713.411a5.924 5.924 0 01-1.161.183 6.177 6.177 0 01-1.294-.076 3.458 3.458 0 01-1.188-.411v-5.302c.476.274.96.411 1.452.411.51.011.977-.045 1.4-.167.439-.112.79-.244 1.055-.396.281-.142.431-.219.449-.229l5.12 2.956v16.605l3.352 1.935zm9.998 11.256a13.71 13.71 0 01-3.695-3.139 20.262 20.262 0 01-2.666-4.189 24.474 24.474 0 01-1.61-4.494c-.352-1.483-.527-2.834-.527-4.053 0-1.3.193-2.488.58-3.565.387-1.076.95-1.929 1.69-2.559.738-.65 1.627-.99 2.665-1.021 1.056-.041 2.244.32 3.563 1.082a13.289 13.289 0 013.696 3.169 20.344 20.344 0 012.639 4.204 22.555 22.555 0 011.61 4.494c.37 1.493.554 2.829.554 4.007 0 1.32-.193 2.519-.58 3.596-.387 1.076-.95 1.929-1.689 2.559-.739.63-1.637.965-2.693 1.005-1.038.031-2.217-.335-3.537-1.096zm-3.272-12.858c0 .67.061 1.376.184 2.117.123.742.308 1.468.555 2.179.264.7.607 1.345 1.029 1.934a4.944 4.944 0 001.504 1.356c.616.356 1.127.468 1.531.336.423-.122.757-.397 1.003-.823.264-.417.449-.919.555-1.508.123-.6.184-1.204.184-1.813 0-.671-.061-1.376-.184-2.118a11.512 11.512 0 00-.581-2.163 7.629 7.629 0 00-1.029-1.935 4.595 4.595 0 00-1.479-1.371c-.598-.345-1.108-.457-1.53-.335-.423.122-.766.391-1.03.807-.246.427-.43.94-.554 1.539a10.175 10.175 0 00-.158 1.798zm22.115 23.733a13.683 13.683 0 01-3.696-3.138 20.324 20.324 0 01-2.666-4.19 24.543 24.543 0 01-1.61-4.494c-.351-1.483-.527-2.834-.527-4.052 0-1.3.193-2.489.58-3.565.387-1.077.95-1.93 1.689-2.56.74-.65 1.628-.99 2.666-1.02 1.056-.041 2.244.319 3.564 1.081a13.316 13.316 0 013.695 3.169 20.308 20.308 0 012.639 4.205 22.51 22.51 0 011.61 4.494c.37 1.493.555 2.828.555 4.007 0 1.32-.194 2.518-.581 3.595-.387 1.077-.95 1.93-1.689 2.559-.739.63-1.637.965-2.693 1.006-1.038.03-2.217-.335-3.536-1.097zm-3.273-12.858c0 .67.061 1.376.184 2.118.124.741.308 1.467.555 2.178a8.37 8.37 0 001.029 1.935 4.932 4.932 0 001.505 1.356c.615.355 1.126.467 1.53.335.423-.122.757-.396 1.003-.823.264-.416.449-.919.555-1.508a8.988 8.988 0 00.184-1.813c0-.67-.061-1.376-.184-2.117a11.502 11.502 0 00-.581-2.164 7.629 7.629 0 00-1.029-1.935 4.625 4.625 0 00-1.478-1.371c-.599-.345-1.109-.457-1.531-.335-.423.122-.766.391-1.03.808-.246.426-.431.939-.554 1.538a10.136 10.136 0 00-.158 1.798zm18.261 8.895c-.88-.508-1.68-1.183-2.402-2.026a10.88 10.88 0 01-1.689-2.712c-.405-.965-.607-1.894-.607-2.788 0-.894.202-1.589.607-2.087.422-.488.985-.741 1.689-.762.722-.01 1.522.239 2.402.747a8.973 8.973 0 012.375 2.011 10.275 10.275 0 011.69 2.711c.422.975.633 1.91.633 2.804 0 .893-.211 1.584-.633 2.071-.405.498-.968.752-1.69.762-.703.021-1.495-.223-2.375-.731zm0-2.742c.229.132.44.162.633.091.194-.091.344-.259.449-.503.123-.254.185-.563.185-.929 0-.386-.062-.767-.185-1.142a3.594 3.594 0 00-.449-.991c-.193-.315-.404-.538-.633-.67-.229-.132-.44-.152-.633-.061-.194.071-.352.223-.476.457-.105.244-.158.559-.158.945 0 .365.053.741.158 1.127.124.376.282.721.476 1.036.193.294.404.508.633.64zm11.323 21.892c-.88-.508-1.68-1.183-2.402-2.026a10.88 10.88 0 01-1.689-2.712c-.405-.965-.607-1.894-.607-2.788 0-.894.202-1.59.607-2.087.422-.488.985-.742 1.689-.762.722-.01 1.522.239 2.402.747a8.974 8.974 0 012.376 2.011 10.265 10.265 0 011.689 2.711c.422.975.633 1.91.633 2.803 0 .894-.211 1.585-.633 2.072-.405.498-.968.752-1.689.762-.704.02-1.496-.223-2.376-.731zm0-2.742c.229.132.44.162.634.091.193-.091.343-.259.448-.503.124-.254.185-.563.185-.929 0-.386-.061-.767-.185-1.143a3.63 3.63 0 00-.448-.99c-.194-.315-.405-.538-.634-.67-.229-.132-.44-.153-.633-.061-.194.071-.352.223-.475.457-.106.244-.159.558-.159.944 0 .366.053.742.159 1.128.123.376.281.721.475 1.036.193.294.404.508.633.64zm-13.804-7.511l7.47-5.408 6.625-6.445 2.19 3.55-7.153 5.286-6.941 6.567-2.191-3.55z" fill="#FFD22E"/><path d="M94.948 285.077c0 14.595-13.489 23.941-26.226 16.614-12.678-7.326-24.083-26.71-24.083-41.304 0-14.595 14.647-22.268 27.326-14.999 12.678 7.326 22.983 25.094 22.983 39.689z" fill="#02CC8E"/><path d="M83.862 302.663c8.972-5.162 8.974-21.893.005-37.371-8.968-15.479-23.51-23.843-32.482-18.681-8.971 5.161-8.974 21.893-.005 37.371 8.968 15.478 23.512 23.842 32.482 18.681z" fill="#03E59F"/><path d="M62.82 281.904l-6.948-11.537c-1.505-2.481-1.505-5.193 0-5.942 1.39-.692 3.474.519 4.863 2.768l3.763 6.231c.463.75 1.1 1.096 1.563.922l10.768-5.422c1.39-.692 3.473.519 4.863 2.769 1.505 2.481 1.505 5.192 0 5.942l-14.068 7.038c-1.332.692-3.474-.519-4.805-2.769z" fill="#fff"/></svg>