<?xml version="1.0" encoding="UTF-8"?>
<svg width="46px" height="46px" viewBox="0 0 46 46" version="1.1" xmlns="http://www.w3.org/2000/svg" xmlns:xlink="http://www.w3.org/1999/xlink">
    <!-- Generator: Sketch 54.1 (76490) - https://sketchapp.com -->
    <title>arrow-page-right</title>
    <desc>Created with Sketch.</desc>
    <g id="Page-1" stroke="none" stroke-width="1" fill="none" fill-rule="evenodd">
        <g id="arrow-page-right" fill="#BEBEBE" fill-rule="nonzero">
            <path d="M23,45.5194 C35.4031,45.5194 45.5193,35.4419 45.5193,23 C45.5193,10.5581 35.4031,0.480621 23,0.480621 C10.5969,0.480621 0.480591,10.5969 0.480591,23 C0.480591,35.4031 10.5969,45.5194 23,45.5194 Z M23,3.65892 C33.6589,3.65892 42.3411,12.3411 42.3411,23 C42.3411,33.6589 33.6589,42.3411 23,42.3411 C12.3411,42.3411 3.65889,33.6589 3.65889,23 C3.65889,12.3411 12.3411,3.65892 23,3.65892 Z" id="Shape"></path>
            <path d="M17.8062,34.2403 C18.1163,34.5504 18.5039,34.7054 18.9302,34.7054 C19.3178,34.7054 19.7442,34.5504 20.0542,34.2403 L30.2868,24.0078 C30.5969,23.6977 30.7519,23.3101 30.7519,22.8837 C30.7519,22.4574 30.5969,22.0698 30.2868,21.7597 L20.0542,11.5271 C19.4341,10.907 18.4263,10.907 17.8062,11.5271 C17.186,12.1473 17.186,13.155 17.8062,13.7752 L26.9147,22.8837 L17.8062,31.9923 C17.186,32.6124 17.186,33.6202 17.8062,34.2403 Z" id="Path"></path>
        </g>
    </g>
</svg>