<svg width="366" height="241" fill="none" xmlns="http://www.w3.org/2000/svg"><g filter="url(#filter0_d_40_3608)"><mask id="mask0_40_3608" style="mask-type:alpha" maskUnits="userSpaceOnUse" x="39" y="1" width="288" height="223"><path fill-rule="evenodd" clip-rule="evenodd" d="M39.116 1.3h287.551v221.901H39.116V1.301z" fill="#fff"/></mask><g mask="url(#mask0_40_3608)"><path fill-rule="evenodd" clip-rule="evenodd" d="M326.667 214.655c0 4.729-3.621 8.546-8.073 8.546H47.185c-4.451 0-8.07-3.817-8.07-8.546V9.848c0-4.728 3.619-8.548 8.07-8.548h271.409c4.452 0 8.073 3.82 8.073 8.548v204.807z" fill="#fff"/></g><mask id="mask1_40_3608" style="mask-type:alpha" maskUnits="userSpaceOnUse" x="3" y="1" width="360" height="235"><path fill-rule="evenodd" clip-rule="evenodd" d="M3 236h359.778V1.3H3V236z" fill="#fff"/></mask><g mask="url(#mask1_40_3608)" fill-rule="evenodd" clip-rule="evenodd"><path d="M52 203.755h261.35V16H52v187.755z" fill="#191551"/><path d="M3 216.793C4.072 227.539 14.728 236 27.84 236h310.094c13.119 0 23.767-8.461 24.845-19.207H2.999z" fill="#EFEFEF"/><path d="M135.462 223.201h94.855v-6.409h-94.855v6.409z" fill="#CCC"/></g></g><path d="M237.341 174.338V177h-8.932v-2.662h3.124v-6.666c-.132.176-.345.359-.638.55a9.019 9.019 0 01-.924.506 6.55 6.55 0 01-1.056.396 3.406 3.406 0 01-.946.154v-2.75c.264 0 .587-.081.968-.242a9.352 9.352 0 001.122-.616c.367-.235.682-.462.946-.682.279-.235.455-.418.528-.55h3.014v9.9h2.794zm12.961-3.784c0 .968-.147 1.863-.44 2.684a6.473 6.473 0 01-1.188 2.112 5.4 5.4 0 01-1.804 1.386 5.22 5.22 0 01-2.244.484 5.273 5.273 0 01-2.266-.484 5.705 5.705 0 01-1.804-1.386 7.025 7.025 0 01-1.188-2.112c-.279-.821-.418-1.716-.418-2.684 0-.968.139-1.855.418-2.662.293-.821.689-1.525 1.188-2.112a5.576 5.576 0 011.804-1.408 5.09 5.09 0 012.266-.506c.807 0 1.555.169 2.244.506a5.285 5.285 0 011.804 1.408c.513.587.909 1.291 1.188 2.112.293.807.44 1.694.44 2.662zm-2.97 0c0-.587-.066-1.122-.198-1.606a3.928 3.928 0 00-.572-1.276 2.527 2.527 0 00-.858-.814 2.077 2.077 0 00-1.078-.286c-.411 0-.785.095-1.122.286a2.808 2.808 0 00-.858.814 4.23 4.23 0 00-.55 1.276 6.095 6.095 0 00-.198 1.606c0 .587.066 1.122.198 1.606s.315.902.55 1.254c.249.352.535.623.858.814.337.191.711.286 1.122.286.396 0 .755-.095 1.078-.286.337-.191.623-.462.858-.814.249-.352.44-.77.572-1.254a6.095 6.095 0 00.198-1.606zm16.484 0c0 .968-.147 1.863-.44 2.684a6.473 6.473 0 01-1.188 2.112 5.4 5.4 0 01-1.804 1.386 5.226 5.226 0 01-2.244.484 5.27 5.27 0 01-2.266-.484 5.693 5.693 0 01-1.804-1.386 7.025 7.025 0 01-1.188-2.112c-.279-.821-.418-1.716-.418-2.684 0-.968.139-1.855.418-2.662.293-.821.689-1.525 1.188-2.112a5.566 5.566 0 011.804-1.408 5.086 5.086 0 012.266-.506c.806 0 1.554.169 2.244.506a5.285 5.285 0 011.804 1.408c.513.587.909 1.291 1.188 2.112.293.807.44 1.694.44 2.662zm-2.97 0c0-.587-.066-1.122-.198-1.606a3.928 3.928 0 00-.572-1.276 2.527 2.527 0 00-.858-.814 2.077 2.077 0 00-1.078-.286c-.411 0-.785.095-1.122.286a2.808 2.808 0 00-.858.814 4.23 4.23 0 00-.55 1.276 6.095 6.095 0 00-.198 1.606c0 .587.066 1.122.198 1.606s.315.902.55 1.254c.249.352.535.623.858.814.337.191.711.286 1.122.286.396 0 .755-.095 1.078-.286.337-.191.623-.462.858-.814.249-.352.44-.77.572-1.254a6.095 6.095 0 00.198-1.606zm8.453-2.728a3.816 3.816 0 01-2.574-.968 3.64 3.64 0 01-.77-1.056 3.108 3.108 0 01-.286-1.32c0-.455.096-.887.286-1.298a3.28 3.28 0 01.77-1.056 3.816 3.816 0 012.574-.968c.499 0 .968.088 1.408.264a3.69 3.69 0 011.166.704c.323.293.58.645.77 1.056.191.411.286.843.286 1.298 0 .469-.095.909-.286 1.32-.19.396-.447.748-.77 1.056a3.69 3.69 0 01-1.166.704c-.44.176-.909.264-1.408.264zm0-1.474c.22 0 .418-.051.594-.154.191-.103.36-.235.506-.396.147-.176.257-.374.33-.594.088-.235.132-.477.132-.726 0-.513-.154-.946-.462-1.298-.308-.367-.674-.55-1.1-.55-.22 0-.425.051-.616.154a1.85 1.85 0 00-.484.418 1.886 1.886 0 00-.352.572c-.073.22-.11.455-.11.704 0 .513.154.953.462 1.32.308.367.675.55 1.1.55zm8.492 10.868a3.816 3.816 0 01-2.574-.968 3.357 3.357 0 01-.77-1.034 3.108 3.108 0 01-.286-1.32c0-.469.096-.902.286-1.298a3.28 3.28 0 01.77-1.056c.323-.308.704-.55 1.144-.726.44-.176.917-.264 1.43-.264.514 0 .99.088 1.43.264.44.176.822.418 1.144.726.338.293.594.645.77 1.056.191.396.286.829.286 1.298 0 .469-.095.909-.286 1.32a2.93 2.93 0 01-.77 1.034 3.813 3.813 0 01-2.574.968zm0-1.474c.22 0 .418-.051.594-.154.191-.103.36-.235.506-.396.147-.176.257-.374.33-.594a1.88 1.88 0 00.132-.704c0-.264-.044-.506-.132-.726a1.81 1.81 0 00-.352-.594 1.256 1.256 0 00-.484-.396 1.23 1.23 0 00-.594-.154c-.22 0-.425.051-.616.154a1.85 1.85 0 00-.484.418 1.828 1.828 0 00-.352.594c-.073.22-.11.455-.11.704 0 .513.154.953.462 1.32.308.352.675.528 1.1.528zm-10.89.22l6.204-7.238 5.72-7.524 1.342 1.188-6.006 7.106-5.918 7.656-1.342-1.188z" fill="#fff"/><path fill-rule="evenodd" clip-rule="evenodd" d="M204.083 164H84.673v.012C80.969 164.142 78 167.217 78 171c0 3.784 2.968 6.857 6.674 6.988V178h119.409c3.82 0 6.917-3.134 6.917-7s-3.097-7-6.917-7z" fill="#03E59F"/><path d="M266 58H95c-9.389 0-17 7.611-17 17v28c0 9.389 7.611 17 17 17h171c9.389 0 17-7.611 17-17V75c0-9.389-7.611-17-17-17z" fill="#fff"/><path d="M98.004 74.083l17.571-2.384.007 16.885-17.562.1-.016-14.6v-.001zm17.562 16.446l.014 16.899-17.563-2.405V90.416l17.549.113zm2.13-19.142L140.994 68v20.369l-23.298.184V71.387zM141 90.687l-.006 20.278-23.298-3.276-.032-17.04 23.336.039z" fill="#00ADEF"/><path d="M178.961 78.925l.129 2.97-2.067 3.876-3.229 6.329-.646 5.296 2.325 7.492 5.296 2.97h8.008l7.492-5.683 3.358-8.913-7.75-9.429-2.196-5.296-10.72.388z" fill="#ECEFF1"/><path d="M197.305 86.288c-2.067-2.97-3.746-4.78-4.65-8.525-.904-3.746.258-2.713-.517-5.942-.387-1.679-1.033-2.841-1.679-3.745-.775-.905-1.679-1.421-2.196-1.55-1.162-.646-3.875-1.68-7.233.129-3.487 1.808-3.1 5.683-2.454 13.562 0 .517-.129 1.163-.388 1.68-.516 1.162-1.42 2.195-2.195 3.1-.905 1.291-1.809 2.583-2.455 4.004-1.55 2.97-2.97 6.716-2.583 8.137.646-.13 8.783 12.27 8.783 12.529.517-.129 2.713-.129 4.65-.129 2.713-.13 4.263-.259 6.459.258 0-.388-.129-.775-.129-1.163 0-.775.129-1.42.258-2.325.129-.645.258-1.291.387-2.066-1.291 1.162-3.616 2.454-5.812 2.841-1.938.388-5.167-.258-6.717-2.195.129 0 .388 0 .517-.13.387-.129.775-.258.904-.516.388-.646.129-1.292-.129-1.679-.258-.388-2.196-1.809-3.1-2.583-.904-.775-1.421-1.163-1.938-1.68l-1.033-1.033c-.258-.258-.387-.516-.517-.646-.258-.645-.387-1.42-.258-2.454.129-1.42.646-2.583 1.292-3.875.258-.517.904-1.55.904-1.55s-2.196 5.425-1.033 7.104c0 0 .129-1.679.645-3.358.388-1.162 1.034-2.842 1.809-3.746.775-.904 2.712-4.262 2.841-6.329 0-.904.13-1.808.13-2.454-.517-.517 8.525-1.809 9.041-.388.129.517 1.938 5.167 2.971 7.621.517 1.163 1.163 2.196 1.55 3.488.388 1.42.646 3.358.646 5.295 0 .388 0 1.034-.129 1.68.258 0 5.296-5.425-.646-9.946 0 0 3.617 1.679 3.746 5.037.129 2.713-1.034 4.909-1.292 5.296.129 0 2.713 1.163 2.842 1.163.516 0 1.55-.388 1.55-.388.129-.387.517-1.42.517-1.808.904-2.971-1.292-7.75-3.359-10.721z" fill="#263238"/><path d="M180.902 77.762c.927 0 1.679-1.156 1.679-2.583 0-1.427-.752-2.583-1.679-2.583s-1.679 1.156-1.679 2.583c0 1.427.752 2.583 1.679 2.583zm5.809.258c1.213 0 2.196-1.33 2.196-2.97 0-1.64-.983-2.97-2.196-2.97-1.212 0-2.195 1.33-2.195 2.97 0 1.64.983 2.97 2.195 2.97z" fill="#ECEFF1"/><path d="M181.838 75.355c-.107-.849-.596-1.487-1.091-1.424-.496.063-.81.802-.703 1.651.107.85.596 1.487 1.091 1.425.496-.063.81-.802.703-1.652zm4.746 1.891c.714 0 1.292-.752 1.292-1.68 0-.927-.578-1.678-1.292-1.678-.713 0-1.291.751-1.291 1.679 0 .927.578 1.679 1.291 1.679z" fill="#212121"/><path d="M203.761 103.983c-.516-.258-1.42-.645-2.195-1.808-.388-.646-.259-2.454-.905-3.229-.387-.516-.904-.258-1.033-.258-1.162.258-3.875 2.066-5.683 0-.259-.258-.646-.646-1.292-.646s-.904.258-1.162.775c-.259.517-.259.904-.259 2.196 0 1.033 0 2.195-.129 3.1-.258 2.195-.646 3.487-.646 4.779 0 1.421.388 2.325.904 2.712.388.388 1.034.646 2.455.646 1.42 0 2.325-.517 3.229-1.421.646-.646 1.162-.904 2.971-2.196 1.42-.904 3.616-2.066 4.004-2.454.258-.258.646-.387.646-1.162 0-.646-.517-.904-.905-1.034zm-25.96.388c-1.292-2.067-1.421-2.454-2.325-3.746-.775-1.292-2.454-3.746-3.488-3.746-.775 0-1.162.387-1.679.904-.516.517-1.033 1.68-1.937 2.325-.775.646-2.971.517-3.488 1.292-.516.775.517 1.938.517 3.875 0 .775-.646 1.292-.775 1.808-.129.646-.258 1.034 0 1.55.517.775 1.162 1.034 5.554 1.938 2.325.517 4.521 1.808 5.942 1.937 1.421.13 3.875 0 3.875-3.487.129-2.067-1.034-2.583-2.196-4.65zm2.452-23.38c-.775-.516-1.421-1.033-1.421-1.808 0-.775.517-1.033 1.292-1.68.129-.128 1.55-1.42 2.971-1.42s3.1.904 3.746 1.163c1.162.258 2.325.516 2.195 1.42-.129 1.292-.258 1.55-1.55 2.196-.904.259-2.583 1.68-3.745 1.68-.517 0-1.292 0-1.809-.13-.387-.129-1.033-.775-1.679-1.42z" fill="#FFC107"/><path d="M179.995 79.958c.258.258.646.517 1.033.646.259.13.646.258.646.258h1.163c.645 0 1.55-.258 2.454-.775.904-.387 1.033-.645 1.679-.904.646-.387 1.292-.775 1.033-.904-.258-.13-.516 0-1.421.517-.775.516-1.42.775-2.195 1.162-.388.13-.905.388-1.292.388h-1.163c-.387 0-.645-.13-1.033-.259-.258-.129-.387-.258-.517-.258-.258-.13-.775-.646-1.033-.775 0 0-.258 0-.129.13l.775.774zm3.876-2.841c.129.258.387.258.517.388a.4.4 0 00.258.129c.129-.13 0-.388-.129-.388 0-.258-.646-.258-.646-.129zm-2.066.258c0 .129.259.258.259.129.129-.13.258-.258.387-.258.258-.13.129-.259-.258-.259-.259.13-.259.259-.388.388z" fill="#634703"/><path d="M194.332 100.238v.387c.259.517.904.646 1.421.646.775 0 1.55-.517 1.938-1.033 0-.13.129-.258.258-.388.258-.387.387-.645.517-.774 0 0-.13-.13-.13-.259-.129-.258-.516-.516-1.033-.646-.387-.129-1.033-.258-1.292-.258-1.162-.13-1.808.258-2.195.646 0 0 .129 0 .129.129.258.258.387.517.387.904.129.258 0 .388 0 .646z" fill="#455A64"/><path d="M259.77 88.31c-.022-3.771 1.658-6.613 5.05-8.708-1.897-2.765-4.767-4.285-8.551-4.578-3.583-.287-7.502 2.123-8.937 2.123-1.517 0-4.986-2.023-7.715-2.023C233.985 75.212 228 79.69 228 88.8c0 2.693.484 5.474 1.452 8.338 1.293 3.77 5.958 13.009 10.823 12.859 2.544-.061 4.344-1.835 7.655-1.835 3.212 0 4.876 1.835 7.714 1.835 4.909-.072 9.127-8.47 10.356-12.251-6.583-3.157-6.23-9.244-6.23-9.438zm-5.714-16.863c2.757-3.328 2.507-6.358 2.425-7.447-2.436.144-5.252 1.686-6.855 3.582-1.767 2.035-2.805 4.55-2.583 7.387 2.632.204 5.035-1.172 7.013-3.522z" fill="#FCCA2E"/><defs><filter id="filter0_d_40_3608" x="0" y=".301" width="365.778" height="240.699" filterUnits="userSpaceOnUse" color-interpolation-filters="sRGB"><feFlood flood-opacity="0" result="BackgroundImageFix"/><feColorMatrix in="SourceAlpha" values="0 0 0 0 0 0 0 0 0 0 0 0 0 0 0 0 0 0 127 0" result="hardAlpha"/><feOffset dy="2"/><feGaussianBlur stdDeviation="1.5"/><feColorMatrix values="0 0 0 0 0 0 0 0 0 0 0 0 0 0 0 0 0 0 0.15 0"/><feBlend in2="BackgroundImageFix" result="effect1_dropShadow_40_3608"/><feBlend in="SourceGraphic" in2="effect1_dropShadow_40_3608" result="shape"/></filter></defs></svg>