<svg width="366" height="241" viewBox="0 0 366 241" fill="none" xmlns="http://www.w3.org/2000/svg">
<g filter="url(#filter0_d_40_3608)">
<mask id="mask0_40_3608" style="mask-type:alpha" maskUnits="userSpaceOnUse" x="39" y="1" width="288" height="223">
<path fill-rule="evenodd" clip-rule="evenodd" d="M39.1156 1.30078H326.667V223.201H39.1156V1.30078Z" fill="white"/>
</mask>
<g mask="url(#mask0_40_3608)">
<path fill-rule="evenodd" clip-rule="evenodd" d="M326.667 214.655C326.667 219.384 323.046 223.201 318.594 223.201H47.1853C42.7336 223.201 39.1156 219.384 39.1156 214.655V9.84842C39.1156 5.11994 42.7336 1.2998 47.1853 1.2998H318.594C323.046 1.2998 326.667 5.11994 326.667 9.84842V214.655Z" fill="white"/>
</g>
<mask id="mask1_40_3608" style="mask-type:alpha" maskUnits="userSpaceOnUse" x="3" y="1" width="360" height="235">
<path fill-rule="evenodd" clip-rule="evenodd" d="M3 236H362.778V1.30078H3V236Z" fill="white"/>
</mask>
<g mask="url(#mask1_40_3608)">
<path fill-rule="evenodd" clip-rule="evenodd" d="M52 203.755H313.35V16H52V203.755Z" fill="#191551"/>
<path fill-rule="evenodd" clip-rule="evenodd" d="M2.99988 216.793C4.07239 227.539 14.7279 236 27.8399 236H337.934C351.053 236 361.701 227.539 362.779 216.793H2.99988Z" fill="#EFEFEF"/>
<path fill-rule="evenodd" clip-rule="evenodd" d="M135.462 223.201H230.317V216.792H135.462V223.201Z" fill="#CCCCCC"/>
</g>
</g>
<path d="M237.341 174.338V177H228.409V174.338H231.533V167.672C231.401 167.848 231.188 168.031 230.895 168.222C230.616 168.398 230.308 168.567 229.971 168.728C229.634 168.889 229.282 169.021 228.915 169.124C228.563 169.227 228.248 169.278 227.969 169.278V166.528C228.233 166.528 228.556 166.447 228.937 166.286C229.318 166.11 229.692 165.905 230.059 165.67C230.426 165.435 230.741 165.208 231.005 164.988C231.284 164.753 231.46 164.57 231.533 164.438H234.547V174.338H237.341ZM250.302 170.554C250.302 171.522 250.155 172.417 249.862 173.238C249.583 174.045 249.187 174.749 248.674 175.35C248.175 175.937 247.574 176.399 246.87 176.736C246.181 177.059 245.433 177.22 244.626 177.22C243.805 177.22 243.049 177.059 242.36 176.736C241.671 176.399 241.069 175.937 240.556 175.35C240.057 174.749 239.661 174.045 239.368 173.238C239.089 172.417 238.95 171.522 238.95 170.554C238.95 169.586 239.089 168.699 239.368 167.892C239.661 167.071 240.057 166.367 240.556 165.78C241.069 165.179 241.671 164.709 242.36 164.372C243.049 164.035 243.805 163.866 244.626 163.866C245.433 163.866 246.181 164.035 246.87 164.372C247.574 164.709 248.175 165.179 248.674 165.78C249.187 166.367 249.583 167.071 249.862 167.892C250.155 168.699 250.302 169.586 250.302 170.554ZM247.332 170.554C247.332 169.967 247.266 169.432 247.134 168.948C247.002 168.449 246.811 168.024 246.562 167.672C246.327 167.32 246.041 167.049 245.704 166.858C245.381 166.667 245.022 166.572 244.626 166.572C244.215 166.572 243.841 166.667 243.504 166.858C243.181 167.049 242.895 167.32 242.646 167.672C242.411 168.024 242.228 168.449 242.096 168.948C241.964 169.432 241.898 169.967 241.898 170.554C241.898 171.141 241.964 171.676 242.096 172.16C242.228 172.644 242.411 173.062 242.646 173.414C242.895 173.766 243.181 174.037 243.504 174.228C243.841 174.419 244.215 174.514 244.626 174.514C245.022 174.514 245.381 174.419 245.704 174.228C246.041 174.037 246.327 173.766 246.562 173.414C246.811 173.062 247.002 172.644 247.134 172.16C247.266 171.676 247.332 171.141 247.332 170.554ZM263.816 170.554C263.816 171.522 263.669 172.417 263.376 173.238C263.097 174.045 262.701 174.749 262.188 175.35C261.689 175.937 261.088 176.399 260.384 176.736C259.694 177.059 258.946 177.22 258.14 177.22C257.318 177.22 256.563 177.059 255.874 176.736C255.184 176.399 254.583 175.937 254.07 175.35C253.571 174.749 253.175 174.045 252.882 173.238C252.603 172.417 252.464 171.522 252.464 170.554C252.464 169.586 252.603 168.699 252.882 167.892C253.175 167.071 253.571 166.367 254.07 165.78C254.583 165.179 255.184 164.709 255.874 164.372C256.563 164.035 257.318 163.866 258.14 163.866C258.946 163.866 259.694 164.035 260.384 164.372C261.088 164.709 261.689 165.179 262.188 165.78C262.701 166.367 263.097 167.071 263.376 167.892C263.669 168.699 263.816 169.586 263.816 170.554ZM260.846 170.554C260.846 169.967 260.78 169.432 260.648 168.948C260.516 168.449 260.325 168.024 260.076 167.672C259.841 167.32 259.555 167.049 259.218 166.858C258.895 166.667 258.536 166.572 258.14 166.572C257.729 166.572 257.355 166.667 257.018 166.858C256.695 167.049 256.409 167.32 256.16 167.672C255.925 168.024 255.742 168.449 255.61 168.948C255.478 169.432 255.412 169.967 255.412 170.554C255.412 171.141 255.478 171.676 255.61 172.16C255.742 172.644 255.925 173.062 256.16 173.414C256.409 173.766 256.695 174.037 257.018 174.228C257.355 174.419 257.729 174.514 258.14 174.514C258.536 174.514 258.895 174.419 259.218 174.228C259.555 174.037 259.841 173.766 260.076 173.414C260.325 173.062 260.516 172.644 260.648 172.16C260.78 171.676 260.846 171.141 260.846 170.554ZM269.299 167.826C268.786 167.826 268.309 167.738 267.869 167.562C267.429 167.386 267.048 167.151 266.725 166.858C266.403 166.55 266.146 166.198 265.955 165.802C265.765 165.391 265.669 164.951 265.669 164.482C265.669 164.027 265.765 163.595 265.955 163.184C266.146 162.773 266.403 162.421 266.725 162.128C267.048 161.835 267.429 161.6 267.869 161.424C268.309 161.248 268.786 161.16 269.299 161.16C269.798 161.16 270.267 161.248 270.707 161.424C271.162 161.6 271.551 161.835 271.873 162.128C272.196 162.421 272.453 162.773 272.643 163.184C272.834 163.595 272.929 164.027 272.929 164.482C272.929 164.951 272.834 165.391 272.643 165.802C272.453 166.198 272.196 166.55 271.873 166.858C271.551 167.151 271.162 167.386 270.707 167.562C270.267 167.738 269.798 167.826 269.299 167.826ZM269.299 166.352C269.519 166.352 269.717 166.301 269.893 166.198C270.084 166.095 270.253 165.963 270.399 165.802C270.546 165.626 270.656 165.428 270.729 165.208C270.817 164.973 270.861 164.731 270.861 164.482C270.861 163.969 270.707 163.536 270.399 163.184C270.091 162.817 269.725 162.634 269.299 162.634C269.079 162.634 268.874 162.685 268.683 162.788C268.507 162.891 268.346 163.03 268.199 163.206C268.053 163.367 267.935 163.558 267.847 163.778C267.774 163.998 267.737 164.233 267.737 164.482C267.737 164.995 267.891 165.435 268.199 165.802C268.507 166.169 268.874 166.352 269.299 166.352ZM277.791 177.22C277.278 177.22 276.801 177.132 276.361 176.956C275.921 176.78 275.54 176.545 275.217 176.252C274.895 175.959 274.638 175.614 274.447 175.218C274.257 174.807 274.161 174.367 274.161 173.898C274.161 173.429 274.257 172.996 274.447 172.6C274.638 172.189 274.895 171.837 275.217 171.544C275.54 171.236 275.921 170.994 276.361 170.818C276.801 170.642 277.278 170.554 277.791 170.554C278.305 170.554 278.781 170.642 279.221 170.818C279.661 170.994 280.043 171.236 280.365 171.544C280.703 171.837 280.959 172.189 281.135 172.6C281.326 172.996 281.421 173.429 281.421 173.898C281.421 174.367 281.326 174.807 281.135 175.218C280.959 175.614 280.703 175.959 280.365 176.252C280.043 176.545 279.661 176.78 279.221 176.956C278.781 177.132 278.305 177.22 277.791 177.22ZM277.791 175.746C278.011 175.746 278.209 175.695 278.385 175.592C278.576 175.489 278.745 175.357 278.891 175.196C279.038 175.02 279.148 174.822 279.221 174.602C279.309 174.382 279.353 174.147 279.353 173.898C279.353 173.634 279.309 173.392 279.221 173.172C279.133 172.937 279.016 172.739 278.869 172.578C278.737 172.402 278.576 172.27 278.385 172.182C278.195 172.079 277.997 172.028 277.791 172.028C277.571 172.028 277.366 172.079 277.175 172.182C276.999 172.285 276.838 172.424 276.691 172.6C276.545 172.761 276.427 172.959 276.339 173.194C276.266 173.414 276.229 173.649 276.229 173.898C276.229 174.411 276.383 174.851 276.691 175.218C276.999 175.57 277.366 175.746 277.791 175.746ZM266.901 175.966L273.105 168.728L278.825 161.204L280.167 162.392L274.161 169.498L268.243 177.154L266.901 175.966Z" fill="white"/>
<path fill-rule="evenodd" clip-rule="evenodd" d="M204.083 164H84.6739V164.012C80.9676 164.142 78 167.217 78 171C78 174.784 80.9676 177.857 84.6739 177.988V178H204.083C207.903 178 211 174.866 211 171C211 167.134 207.903 164 204.083 164Z" fill="#03E59F"/>
<path d="M266 58H95C85.6112 58 78 65.6112 78 75V103C78 112.389 85.6112 120 95 120H266C275.389 120 283 112.389 283 103V75C283 65.6112 275.389 58 266 58Z" fill="white"/>
<path d="M98.0039 74.083L115.575 71.6993L115.582 88.5837L98.0198 88.6833L98.0039 74.0832V74.083ZM115.566 90.5289L115.58 107.428L98.0175 105.023L98.0165 90.4157L115.566 90.5289ZM117.696 71.3873L140.994 68V88.3689L117.696 88.553V71.3874V71.3873ZM141 90.6879L140.994 110.965L117.696 107.689L117.664 90.6499L141 90.6879Z" fill="#00ADEF"/>
<path d="M178.961 78.9246L179.09 81.8955L177.023 85.7705L173.794 92.0996L173.148 97.3955L175.473 104.888L180.769 107.858H188.777L196.269 102.175L199.627 93.2621L191.877 83.833L189.681 78.5371L178.961 78.9246Z" fill="#ECEFF1"/>
<path d="M197.305 86.288C195.238 83.3171 193.559 81.5088 192.655 77.763C191.751 74.0171 192.913 75.0505 192.138 71.8213C191.751 70.1421 191.105 68.9796 190.459 68.0755C189.684 67.1713 188.78 66.6546 188.263 66.5255C187.101 65.8796 184.388 64.8463 181.03 66.6546C177.543 68.463 177.93 72.338 178.576 80.2171C178.576 80.7338 178.447 81.3796 178.188 81.8963C177.672 83.0588 176.768 84.0921 175.993 84.9963C175.088 86.288 174.184 87.5796 173.538 89.0005C171.988 91.9713 170.568 95.7171 170.955 97.138C171.601 97.0088 179.738 109.408 179.738 109.667C180.255 109.538 182.451 109.538 184.388 109.538C187.101 109.408 188.651 109.279 190.847 109.796C190.847 109.408 190.718 109.021 190.718 108.633C190.718 107.858 190.847 107.213 190.976 106.308C191.105 105.663 191.234 105.017 191.363 104.242C190.072 105.404 187.747 106.696 185.551 107.083C183.613 107.471 180.384 106.825 178.834 104.888C178.963 104.888 179.222 104.888 179.351 104.758C179.738 104.629 180.126 104.5 180.255 104.242C180.643 103.596 180.384 102.95 180.126 102.563C179.868 102.175 177.93 100.754 177.026 99.9796C176.122 99.2046 175.605 98.8171 175.088 98.3005L174.055 97.2671C173.797 97.0088 173.668 96.7505 173.538 96.6213C173.28 95.9755 173.151 95.2005 173.28 94.1671C173.409 92.7463 173.926 91.5838 174.572 90.2921C174.83 89.7755 175.476 88.7421 175.476 88.7421C175.476 88.7421 173.28 94.1671 174.443 95.8463C174.443 95.8463 174.572 94.1671 175.088 92.488C175.476 91.3255 176.122 89.6463 176.897 88.7421C177.672 87.838 179.609 84.4796 179.738 82.413C179.738 81.5088 179.868 80.6046 179.868 79.9588C179.351 79.4421 188.393 78.1505 188.909 79.5713C189.038 80.088 190.847 84.738 191.88 87.1921C192.397 88.3546 193.043 89.388 193.43 90.6796C193.818 92.1005 194.076 94.038 194.076 95.9755C194.076 96.363 194.076 97.0088 193.947 97.6546C194.205 97.6546 199.243 92.2296 193.301 87.7088C193.301 87.7088 196.918 89.388 197.047 92.7463C197.176 95.4588 196.013 97.6546 195.755 98.0421C195.884 98.0421 198.468 99.2046 198.597 99.2046C199.113 99.2046 200.147 98.8171 200.147 98.8171C200.276 98.4296 200.664 97.3963 200.664 97.0088C201.568 94.038 199.372 89.2588 197.305 86.288Z" fill="#263238"/>
<path d="M180.902 77.7623C181.829 77.7623 182.581 76.6058 182.581 75.179C182.581 73.7523 181.829 72.5957 180.902 72.5957C179.975 72.5957 179.223 73.7523 179.223 75.179C179.223 76.6058 179.975 77.7623 180.902 77.7623Z" fill="#ECEFF1"/>
<path d="M186.711 78.0208C187.924 78.0208 188.907 76.6907 188.907 75.05C188.907 73.4092 187.924 72.0791 186.711 72.0791C185.499 72.0791 184.516 73.4092 184.516 75.05C184.516 76.6907 185.499 78.0208 186.711 78.0208Z" fill="#ECEFF1"/>
<path d="M181.838 75.3554C181.731 74.5061 181.242 73.8684 180.747 73.931C180.251 73.9936 179.937 74.7329 180.044 75.5822C180.151 76.4315 180.64 77.0692 181.135 77.0066C181.631 76.9439 181.945 76.2047 181.838 75.3554Z" fill="#212121"/>
<path d="M186.584 77.246C187.298 77.246 187.876 76.4942 187.876 75.5668C187.876 74.6395 187.298 73.8877 186.584 73.8877C185.871 73.8877 185.293 74.6395 185.293 75.5668C185.293 76.4942 185.871 77.246 186.584 77.246Z" fill="#212121"/>
<path d="M203.761 103.983C203.245 103.725 202.341 103.338 201.566 102.175C201.178 101.529 201.307 99.7212 200.661 98.9462C200.274 98.4295 199.757 98.6879 199.628 98.6879C198.466 98.9462 195.753 100.754 193.945 98.6879C193.686 98.4295 193.299 98.042 192.653 98.042C192.007 98.042 191.749 98.3004 191.491 98.817C191.232 99.3337 191.232 99.7212 191.232 101.013C191.232 102.046 191.232 103.208 191.103 104.113C190.845 106.308 190.457 107.6 190.457 108.892C190.457 110.313 190.845 111.217 191.361 111.604C191.749 111.992 192.395 112.25 193.816 112.25C195.236 112.25 196.141 111.733 197.045 110.829C197.691 110.183 198.207 109.925 200.016 108.633C201.436 107.729 203.632 106.567 204.02 106.179C204.278 105.921 204.666 105.792 204.666 105.017C204.666 104.371 204.149 104.113 203.761 103.983Z" fill="#FFC107"/>
<path d="M177.801 104.371C176.509 102.304 176.38 101.917 175.476 100.625C174.701 99.333 173.022 96.8789 171.988 96.8789C171.213 96.8789 170.826 97.2664 170.309 97.783C169.793 98.2997 169.276 99.4622 168.372 100.108C167.597 100.754 165.401 100.625 164.884 101.4C164.368 102.175 165.401 103.338 165.401 105.275C165.401 106.05 164.755 106.567 164.626 107.083C164.497 107.729 164.368 108.117 164.626 108.633C165.143 109.408 165.788 109.667 170.18 110.571C172.505 111.088 174.701 112.379 176.122 112.508C177.543 112.638 179.997 112.508 179.997 109.021C180.126 106.954 178.963 106.438 177.801 104.371Z" fill="#FFC107"/>
<path d="M180.253 80.9914C179.478 80.4747 178.832 79.958 178.832 79.183C178.832 78.408 179.349 78.1497 180.124 77.5039C180.253 77.3747 181.674 76.083 183.095 76.083C184.516 76.083 186.195 76.9872 186.841 77.2455C188.003 77.5039 189.166 77.7622 189.036 78.6664C188.907 79.958 188.778 80.2164 187.486 80.8622C186.582 81.1205 184.903 82.5414 183.741 82.5414C183.224 82.5414 182.449 82.5414 181.932 82.4122C181.545 82.283 180.899 81.6372 180.253 80.9914Z" fill="#FFC107"/>
<path d="M179.995 79.9581C180.253 80.2165 180.641 80.4748 181.028 80.604C181.287 80.7331 181.674 80.8623 181.674 80.8623H182.837C183.482 80.8623 184.387 80.604 185.291 80.0873C186.195 79.6998 186.324 79.4415 186.97 79.1831C187.616 78.7956 188.262 78.4081 188.003 78.279C187.745 78.1498 187.487 78.279 186.582 78.7956C185.807 79.3123 185.162 79.5706 184.387 79.9581C183.999 80.0873 183.482 80.3456 183.095 80.3456H181.932C181.545 80.3456 181.287 80.2165 180.899 80.0873C180.641 79.9581 180.512 79.829 180.382 79.829C180.124 79.6998 179.607 79.1831 179.349 79.054C179.349 79.054 179.091 79.054 179.22 79.1831L179.995 79.9581Z" fill="#634703"/>
<path d="M183.871 77.1171C184 77.3754 184.258 77.3754 184.388 77.5046C184.517 77.6338 184.646 77.6338 184.646 77.6338C184.775 77.5046 184.646 77.2463 184.517 77.2463C184.517 76.9879 183.871 76.9879 183.871 77.1171Z" fill="#634703"/>
<path d="M181.805 77.3749C181.805 77.504 182.064 77.6332 182.064 77.504C182.193 77.3749 182.322 77.2457 182.451 77.2457C182.709 77.1165 182.58 76.9873 182.193 76.9873C181.934 77.1165 181.934 77.2457 181.805 77.3749Z" fill="#634703"/>
<path d="M194.332 100.238V100.625C194.591 101.142 195.236 101.271 195.753 101.271C196.528 101.271 197.303 100.754 197.691 100.238C197.691 100.108 197.82 99.9797 197.949 99.8505C198.207 99.463 198.336 99.2047 198.466 99.0755C198.466 99.0755 198.336 98.9463 198.336 98.8172C198.207 98.5588 197.82 98.3005 197.303 98.1713C196.916 98.0422 196.27 97.913 196.011 97.913C194.849 97.7838 194.203 98.1713 193.816 98.5588C193.816 98.5588 193.945 98.5588 193.945 98.688C194.203 98.9463 194.332 99.2047 194.332 99.5922C194.461 99.8505 194.332 99.9797 194.332 100.238Z" fill="#455A64"/>
<path d="M259.77 88.3094C259.748 84.5388 261.428 81.6971 264.82 79.6018C262.923 76.8374 260.053 75.3171 256.269 75.0241C252.686 74.7366 248.767 77.147 247.332 77.147C245.815 77.147 242.346 75.1236 239.617 75.1236C233.985 75.212 228 79.6902 228 88.8014C228 91.4938 228.484 94.2747 229.452 97.1386C230.745 100.909 235.41 110.148 240.275 109.998C242.819 109.937 244.619 108.163 247.93 108.163C251.142 108.163 252.806 109.998 255.644 109.998C260.553 109.926 264.771 101.528 266 97.7467C259.417 94.5899 259.77 88.5029 259.77 88.3094ZM254.056 71.447C256.813 68.1188 256.563 65.0891 256.481 64C254.045 64.1437 251.229 65.6862 249.626 67.5825C247.859 69.6171 246.821 72.1326 247.043 74.9688C249.675 75.1733 252.078 73.7967 254.056 71.447Z" fill="#FCCA2E"/>
<defs>
<filter id="filter0_d_40_3608" x="0" y="0.300781" width="365.778" height="240.699" filterUnits="userSpaceOnUse" color-interpolation-filters="sRGB">
<feFlood flood-opacity="0" result="BackgroundImageFix"/>
<feColorMatrix in="SourceAlpha" type="matrix" values="0 0 0 0 0 0 0 0 0 0 0 0 0 0 0 0 0 0 127 0" result="hardAlpha"/>
<feOffset dy="2"/>
<feGaussianBlur stdDeviation="1.5"/>
<feColorMatrix type="matrix" values="0 0 0 0 0 0 0 0 0 0 0 0 0 0 0 0 0 0 0.15 0"/>
<feBlend mode="normal" in2="BackgroundImageFix" result="effect1_dropShadow_40_3608"/>
<feBlend mode="normal" in="SourceGraphic" in2="effect1_dropShadow_40_3608" result="shape"/>
</filter>
</defs>
</svg>
