<svg width="184" height="117" fill="none" xmlns="http://www.w3.org/2000/svg"><g filter="url(#filter0_d_40_3648)"><path fill-rule="evenodd" clip-rule="evenodd" d="M163.035 101.124a3.988 3.988 0 01-3.991 3.987H24.847a3.988 3.988 0 01-3.99-3.987V5.579a3.988 3.988 0 013.99-3.988h134.197a3.99 3.99 0 013.991 3.988v95.545z" fill="#fff"/><path fill-rule="evenodd" clip-rule="evenodd" d="M27.422 96.15h129.223V8.56H27.422v87.59z" fill="#191551"/><mask id="mask0_40_3648" style="mask-type:alpha" maskUnits="userSpaceOnUse" x="3" y="102" width="178" height="10"><path fill-rule="evenodd" clip-rule="evenodd" d="M3 102.122h177.89v8.96H3v-8.96z" fill="#fff"/></mask><g mask="url(#mask0_40_3648)"><path fill-rule="evenodd" clip-rule="evenodd" d="M3 102.122c.53 5.013 5.799 8.96 12.282 8.96h153.324c6.487 0 11.752-3.947 12.285-8.96H3z" fill="#EFEFEF"/></g><path fill-rule="evenodd" clip-rule="evenodd" d="M68.495 105.111h46.901v-2.99h-46.9v2.99z" fill="#CCC"/><path fill-rule="evenodd" clip-rule="evenodd" d="M88.363 39.714H66.816C60.29 39.714 55 45.014 55 51.552v15.32c0 5.184 3.332 9.58 7.963 11.181l.377 8.21 10.616-7.553h14.407c6.525 0 11.816-5.3 11.816-11.838v-15.32c0-6.538-5.29-11.838-11.816-11.838z" fill="#31C5FF"/><path fill-rule="evenodd" clip-rule="evenodd" d="M114.391 18H85.964c-8.61 0-15.589 6.992-15.589 15.618V53.83c0 8.626 6.98 15.618 15.589 15.618h19.007l14.005 9.965.498-10.831c6.11-2.114 10.506-7.913 10.506-14.752V33.618C129.98 24.992 123 18 114.391 18z" fill="#fff"/><path fill-rule="evenodd" clip-rule="evenodd" d="M79.223 42.255l11.467-5.917v1.709L81.026 42.9v.049l9.664 4.853v1.708l-11.467-5.917v-1.338zm18.312 8.246l6.895-17.951h1.681l-6.92 17.95h-1.656zm26.842-6.883l-11.467 5.893v-1.708l9.737-4.853v-.05l-9.737-4.853V36.34l11.467 5.893v1.386z" fill="#043299"/></g><defs><filter id="filter0_d_40_3648" x="0" y=".591" width="183.891" height="115.491" filterUnits="userSpaceOnUse" color-interpolation-filters="sRGB"><feFlood flood-opacity="0" result="BackgroundImageFix"/><feColorMatrix in="SourceAlpha" values="0 0 0 0 0 0 0 0 0 0 0 0 0 0 0 0 0 0 127 0" result="hardAlpha"/><feOffset dy="2"/><feGaussianBlur stdDeviation="1.5"/><feColorMatrix values="0 0 0 0 0 0 0 0 0 0 0 0 0 0 0 0 0 0 0.15 0"/><feBlend in2="BackgroundImageFix" result="effect1_dropShadow_40_3648"/><feBlend in="SourceGraphic" in2="effect1_dropShadow_40_3648" result="shape"/></filter></defs></svg>