<svg width="506" height="315" xmlns="http://www.w3.org/2000/svg" xmlns:xlink="http://www.w3.org/1999/xlink"><defs><path id="path-2" d="M.265.395H399.64v291.776H.265z"/><path id="path-4" d="M0 309h499.692V.395H0z"/><filter x="-2.1%" y="-3.4%" width="104.2%" height="106.8%" filterUnits="objectBoundingBox" id="filter-1"><feOffset dy="2" in="SourceAlpha" result="shadowOffsetOuter1"/><feGaussianBlur stdDeviation="1.5" in="shadowOffsetOuter1" result="shadowBlurOuter1"/><feColorMatrix values="0 0 0 0 0 0 0 0 0 0 0 0 0 0 0 0 0 0 0.15 0" in="shadowBlurOuter1" result="shadowMatrixOuter1"/><feMerge><feMergeNode in="shadowMatrixOuter1"/><feMergeNode in="SourceGraphic"/></feMerge></filter></defs><g id="HP" stroke="none" stroke-width="1" fill="none" fill-rule="evenodd"><g transform="translate(-416 -572)" id="Benefits"><g id="images/Fast&amp;Secure" transform="translate(419 573)"><g id="Fast-&amp;-secure" filter="url(#filter-1)"><g id="Group-15"><g id="Group-3" transform="translate(49.896)"><mask id="mask-3" fill="#fff"><use xlink:href="#path-2"/></mask><path d="M399.64 280.933c0 6.219-5.028 11.238-11.211 11.238H11.472c-6.182 0-11.207-5.02-11.207-11.238V11.635C.265 5.417 5.29.395 11.472.395H388.43c6.183 0 11.212 5.022 11.212 11.24v269.298z" id="Fill-1" fill="#FFF" mask="url(#mask-3)"/></g><mask id="mask-5" fill="#fff"><use xlink:href="#path-4"/></mask><path id="Fill-4" fill="#191551" mask="url(#mask-5)" d="M68.6 266.916h362.986V20.038H68.601z"/><path d="M0 283.745C1.49 297.875 16.289 309 34.5 309h430.686c18.221 0 33.01-11.125 34.507-25.255H0z" id="Fill-6" fill="#EFEFEF" mask="url(#mask-5)"/><path id="Fill-7" fill="#CCC" mask="url(#mask-5)" d="M183.975 292.17h131.743v-8.426H183.975z"/><path d="M305.98 78.034l-56.133-28.091-56.133 28.09c-8.318 86.875 56.133 101.961 56.133 101.961s64.45-15.086 56.133-101.96" id="Fill-8" fill="#EDB720" mask="url(#mask-5)"/><path d="M298.795 82.761l-48.948-24.495-48.95 24.495c-7.25 75.755 48.95 88.91 48.95 88.91s56.2-13.155 48.948-88.91" id="Fill-9" fill="#FCCA2E" mask="url(#mask-5)"/><path d="M249.507 171.67s-56.201-13.154-48.948-88.909l48.948-24.495V171.67z" id="Fill-10" fill="#FCCA2E" mask="url(#mask-5)"/><path d="M237.892 119.079a2.34 2.34 0 01-2.339-2.341V93.3c0-6.374 6.1-11.366 13.886-11.366h.73c7.668 0 13.45 4.886 13.45 11.366v22.88a2.34 2.34 0 11-4.677 0V93.3c0-3.81-3.772-6.684-8.774-6.684h-.73c-5.076 0-9.207 2.998-9.207 6.684v23.437a2.34 2.34 0 01-2.34 2.34" id="Fill-11" fill="#191551" mask="url(#mask-5)"/><path d="M268.215 134.36c0 2.926-2.449 5.462-5.894 5.462h-25.469c-3.444 0-6.395-2.536-6.395-5.461v-21.628c0-2.925 2.951-5.254 6.395-5.254h25.47c3.444 0 5.893 2.33 5.893 5.254v21.628z" id="Fill-12" fill="#191551" mask="url(#mask-5)"/><path d="M253.355 119.477a3.294 3.294 0 00-3.292-3.295h-.173a3.293 3.293 0 00-3.292 3.295v.174a3.292 3.292 0 003.292 3.294h.173a3.293 3.293 0 003.292-3.294v-.174z" id="Fill-13" fill="#FFF" mask="url(#mask-5)"/><path d="M251.536 130.228a1.56 1.56 0 11-3.119 0v-8.844a1.56 1.56 0 113.119 0v8.844z" id="Fill-14" fill="#FFF" mask="url(#mask-5)"/></g><text id="100%" font-family="Helvetica" font-size="35" font-weight="normal" fill="#FFF"><tspan x="307" y="229">100%</tspan></text><path d="M282.963 208H109.685v.018c-5.379.185-9.685 4.577-9.685 9.983 0 5.404 4.306 9.795 9.685 9.981V228h173.278c5.543 0 10.037-4.477 10.037-10s-4.494-10-10.037-10" id="Fill-16" fill="#03E59F"/></g></g></g></g></svg>