<svg width="180" height="87" fill="none" xmlns="http://www.w3.org/2000/svg"><mask id="mask0" maskUnits="userSpaceOnUse" x="0" y="0" width="180" height="87"><path d="M176.505 86.761H3.495C1.613 86.761 0 85.451 0 83.665V3.858C0 2.072 1.479.761 3.495.761h173.01c1.882 0 3.495 1.31 3.495 3.097v79.926c-.134 1.667-1.613 2.977-3.495 2.977z" fill="#E4F5FB"/></mask><g mask="url(#mask0)"><path d="M109.129 42.235s10.483.705 9.781 2.82c-.703 2.087-6.853 9.11-6.853 9.11l-9.927.853 6.999-12.783z" fill="#630DD3"/><path d="M103.77 43.44s13.031.059 14.583 2.292c0 0-9.927 10.667-10.337 10.784-.41.147-12.71 1.41-12.71 1.41l8.464-14.486z" fill="#191551"/><path d="M68.892 42.235s-10.483.705-9.78 2.82c.703 2.087 6.852 9.11 6.852 9.11l9.927.853-6.999-12.783z" fill="#630DD3"/><path d="M74.252 43.44s-13.032.059-14.584 2.292c0 0 9.928 10.667 10.337 10.784.41.147 12.71 1.41 12.71 1.41L74.252 43.44z" fill="#191551"/><path d="M89.01 42.5s-21.318-10.61-21.318-5.555c0 5.553 1.581 12.9 9.078 17.308 3.25 1.91 12.24 12.019 12.24 12.019s8.99-10.138 12.241-12.02c7.526-4.378 9.078-11.724 9.078-17.307 0-5.084-21.319 5.553-21.319 5.553z" fill="#F0F0F0"/><path d="M89.01 38.885H67.634c1.172 5.495 7.966 12.166 13.002 12.166 5.857 0 6.15-4.79 8.376-4.79 2.225 0 2.518 4.79 8.375 4.79 5.037 0 11.596-5.936 13.002-12.166H89.011z" fill="#191551"/><path d="M111.354 57.516s4.041-4.203 5.74-7.288c1.464-2.674 1.786-4.731 1.845-5.201-.117.411-1.142 1.968-9.927 4.231-10.338 2.674-17.6 6.171-19.972 14.722-2.372-8.55-9.635-12.048-19.972-14.722-8.785-2.263-9.81-3.82-9.927-4.231.059.5.38 2.527 1.845 5.2 1.669 3.086 5.74 7.289 5.74 7.289C57.295 55.282 51 104.285 51 104.285c7.555 9.403 38.01 8.34 38.01 8.34s30.456 1.063 38.011-8.34c-.029 0-6.296-49.003-15.667-46.77z" fill="#630DD3"/><path d="M59.082 46.672v-.117s-.029.03 0 .117z" fill="#18557F"/><path d="M109.685 30.98s-1.406-13.312-6.296-19.776c-3.456-4.555-6.56-1.264-14.379 2.791-7.819-4.055-10.923-7.346-14.407-2.791-4.89 6.464-6.267 19.776-6.267 19.776-5.183.558-10.191 2.674-10.191 2.674 5.3 8.258 28.64 9.668 28.64 9.668h4.451s23.339-1.41 28.64-9.668c0 0-5.037-2.116-10.191-2.674z" fill="#4607A8"/><path d="M89.01 27.337c-5.74 0-14.26-.853-21.377-3.644l.703 7.287s6.296 3.644 20.675 3.644c14.378 0 20.674-3.644 20.674-3.644l.703-7.287c-7.145 2.791-15.667 3.643-21.377 3.643z" fill="#1C175C"/><path opacity=".1" d="M89.01 84.991s30.456 27.315 38.011 17.912c0 0-6.296-47.65-15.638-45.387 0 0 4.042-4.203 5.74-7.288 1.464-2.674 1.786-4.731 1.845-5.201a.48.48 0 01-.059.146c.03-.029.03-.088.059-.117.586-1.763-6.823-2.557-9.107-2.762.175-.852.322-1.675.41-2.498 4.217-1.44 7.936-3.409 9.693-6.142 0 0-5.037-2.116-10.191-2.674 0 0-1.406-13.312-6.296-19.776-3.456-4.555-6.56-1.264-14.379 2.791v70.996h-.088z" fill="#000"/><circle cx="89.5" cy="69.5" r="1.6" fill="#C4C4C4" stroke="#FFD22E" stroke-width=".2"/><circle cx="89.5" cy="77.5" r="1.6" fill="#C4C4C4" stroke="#FFD22E" stroke-width=".2"/></g></svg>