<svg width="161" height="86" fill="none" xmlns="http://www.w3.org/2000/svg"><path d="M157.01 85.935H3.11c-1.675 0-3.11-1.264-3.11-2.989V5.928c0-1.724 1.315-2.989 3.11-2.989h153.9c1.675 0 3.11 1.265 3.11 2.989V83.06a3.09 3.09 0 01-3.11 2.874z" fill="#E4F5FB"/><mask id="mask0" maskUnits="userSpaceOnUse" x="0" y="0" width="161" height="86"><path d="M157.01 86H3.11C1.434 86 0 84.69 0 82.903V3.097C0 1.31 1.315 0 3.11 0h153.9c1.675 0 3.11 1.31 3.11 3.097v79.925C160 84.69 158.685 86 157.01 86z" fill="#E4F5FB"/></mask><g mask="url(#mask0)"><path d="M93.443 46.3l8.453.804c1.705.147 2.612 1.062 2.503 2.598-.181 2.123-2.793 2.818-3.047 5.526-.182 2.012.87 3.55 3.918 3.842 3.047.293 4.353-1.024 4.535-3.074.254-2.708-2.177-3.879-1.996-6 .146-1.538 1.234-2.27 2.903-2.087l8.453.805-1.669 18.15c-.399 4.318-4.172 7.502-8.453 7.1L91.048 72.28l.798-8.526c.145-1.72-.544-2.781-2.068-2.927-2.104-.183-3.265 2.268-5.95 2.012-1.995-.183-3.301-1.537-3.01-4.574.29-3.074 1.813-4.135 3.808-3.952 2.685.256 3.41 2.89 5.479 3.074 1.524.146 2.43-.805 2.576-2.525l.762-8.563z" fill="#FC3E54"/><path d="M127.412 75.52s-2.1-5.3-3.3-6.9c-.1-.2-.2-.3-.4-.4 0 0-3.5-3.3-6-5.5-.4-.4-.7-.6-1.1-.7-1.4-.1-3.8.2-6.7.3-1.2.1-1.8.7-1.9 1.6-.1.9.4 1.5 1.6 1.6 1.6.1 5.1-.3 5.9 0 .6.2 5.7 6.7 5.7 6.7l5.8 6.4c.7 1 2.9 1.8 3.7 1.3.7-.5-2.6-3.4-3.3-4.4z" fill="#FCBA8E"/><path d="M129.412 77.72s-12.3-13.9-13.6-12c.5.9 5.7 7.3 5 7.5-1.9.3-3.2.1-3.5 0-.6-.2-1-.2-1.3-.6-.2-.2-1.5-1.7-1.6-1.8-.1-.2-.6-1.1-1-1.6-1.2-1.6-2.6-1.6-3.4-1.1-.8.4-1 1.1-.3 2.1 0 0 2.5 4.3 3.7 5.7.2.3.4.5.7.8 1.8 1.6 4 3.8 4 3.8.3.2 1 .5 1.7.8 2.5 1.1 5.5 5.8 5.5 5.8.7.2 10.3 3.2 10.3 3.2l2.6-1.6s-1.3-2.7-1.6-3c-.9-1.3-2.8-4.4-3.7-5-1.2-.8-2.1-1.5-3.5-3z" fill="#FCBA8E"/><path d="M111.912 69.82c0-.2-.3-.5-.5-.6-.5-.4-.8-.3-1.3 0-.6.4-.4.8-.2 1.2.3.5.4.6.5.7.1 0 .3.1.9-.4.7-.6.6-.8.6-.9z" fill="#FBFCFC"/><path d="M124.812 90.42l9.7-8.5-5.5-6.1-9.7 8.5 5.5 6.1z" fill="#fff"/><path d="M150.212 99.42l-17.7-20-10.6 9.3 9.5 10.7h18.8zm-28.3-14.8c.1.3-.1.6-.4.7-.3.1-.6-.1-.7-.4-.1-.3.1-.6.4-.7.3-.1.6.1.7.4z" fill="#2C3E50"/><path d="M74.046 13.001l.064 8.653c.027 1.738.81 2.776 2.362 2.781 2.096.019 3.033-2.538 5.707-2.508 1.988.023 3.431 1.254 3.43 4.361.033 3.106-1.414 4.317-3.402 4.293-2.674-.03-3.653-2.613-5.713-2.633-1.554-.005-2.327.99-2.336 2.73l.064 8.653-8.455-.07c-1.698 0-2.721-.842-2.704-2.434-.015-2.145 2.496-3.07 2.483-5.806-.008-2.034-1.212-3.498-4.249-3.548-3.034-.014-4.217 1.407-4.208 3.44.012 2.737 2.526 3.736 2.54 5.88.02 1.59-.983 2.375-2.68 2.376l-8.456-.07-.118-18.417c-.036-4.4 3.411-7.882 7.711-7.85l17.96.17z" fill="#FFD22E"/><path d="M61.598 27.427c2.632.179 3.684 1.605 3.686 3.52.012 2.723-2.483 3.68-2.47 5.779.019 1.582.999 2.386 2.689 2.421l8.41.07.062 8.613c.028 1.73-.775 2.76-2.322 2.717-2.085-.018-3.022-2.591-5.682-2.62-1.977-.024-3.38 1.18-3.383 4.272.034 3.092 1.433 4.319 3.41 4.342 2.66.03 3.592-2.515 5.676-2.497 1.545.005 2.322 1.039 2.35 2.768l.063 8.613-17.897-.167c-4.279-.069-7.752-3.634-7.752-8.015l-.118-18.33 8.41.07c1.687-.001 2.684-.782 2.665-2.364-.015-2.135-2.514-3.129-2.527-5.853-.008-2.025 1.166-3.476 4.186-3.425.183.066.362.058.544.086z" fill="#07CE9A"/><path d="M92.473 13.073c4.074.262 7.326 3.726 7.354 7.96l.118 18.33-8.41-.07c-1.688 0-2.685.78-2.666 2.363.015 2.135 2.515 3.13 2.527 5.853.009 2.025-1.165 3.476-4.185 3.425-3.018-.014-4.218-1.507-4.226-3.532-.013-2.724 2.483-3.68 2.47-5.779-.019-1.582-.999-2.386-2.69-2.422l-8.409-.07-.063-8.613c-.027-1.729.776-2.759 2.323-2.716 2.084.018 3.022 2.59 5.682 2.62 1.977.023 3.38-1.18 3.382-4.273-.033-3.091-1.433-4.318-3.41-4.341-2.66-.03-3.591 2.515-5.675 2.497-1.545-.006-2.323-1.04-2.35-2.768l-.064-8.613 17.898.166c.106-.041.25-.01.394-.017z" fill="#31C5FF"/></g></svg>