<svg width="161" height="84" fill="none" xmlns="http://www.w3.org/2000/svg"><path d="M157.01 83.935H3.11c-1.675 0-3.11-1.264-3.11-2.989V3.928C0 2.204 1.315.939 3.11.939h153.9c1.675 0 3.11 1.265 3.11 2.989V81.06a3.09 3.09 0 01-3.11 2.874z" fill="#E4F5FB"/><path d="M71.282 22.394v37.23H49.377v5.16h49.195v-5.16H76.667V58.8h.051v-7.475h-.05V37.832h.05v-2.168h-.05v-13.27h-5.386z" fill="#FFD22E"/><path d="M78.086 58.8h-8.23c-.78 0-1.412.607-1.412 1.353v4.093c0 .746.633 1.353 1.412 1.353h8.23c.779 0 1.412-.607 1.412-1.353v-.53a2.27 2.27 0 00.051-.446v-2.134c0-.153-.022-.3-.05-.446v-.53c0-.753-.634-1.36-1.413-1.36z" fill="#FC3E54"/><path d="M100.828 37.832H47.121c-.619 0-1.121.481-1.121 1.074v11.345c0 .593.502 1.074 1.12 1.074h53.709c.619 0 1.121-.48 1.121-1.074v-2.266c.029-.188.051-.376.051-.565v-5.683a3.73 3.73 0 00-.051-.572v-2.259c0-.593-.502-1.074-1.121-1.074zm0-15.662H47.121c-.619 0-1.121.482-1.121 1.075V34.59c0 .592.502 1.074 1.12 1.074h53.709c.619 0 1.121-.482 1.121-1.074v-2.267c.029-.188.051-.376.051-.564v-5.683a3.72 3.72 0 00-.051-.572v-2.26c0-.592-.502-1.073-1.121-1.073z" fill="#1DAFF4"/><path d="M96.476 23.342h-2.59v11.415h2.59V23.342zm-4.17 0h-2.59v11.415h2.59V23.342zm4.17 15.662h-2.59v11.415h2.59V39.004zm-4.17 0h-2.59v11.415h2.59V39.004z" fill="#FCCA2E"/><path d="M49.348 26.024c0 .976.822 1.764 1.84 1.764 1.02 0 1.842-.788 1.842-1.764s-.822-1.764-1.841-1.764c-1.019.007-1.841.795-1.841 1.764z" fill="#630DD3"/><path d="M51.545 30.207c-1.295-.238-2.408.83-2.161 2.07.138.69.728 1.256 1.448 1.381 1.296.237 2.41-.83 2.162-2.07-.139-.684-.728-1.249-1.449-1.381z" fill="#FC3E54"/><path d="M49.348 41.56c0 .97.822 1.764 1.84 1.764 1.02 0 1.842-.788 1.842-1.764s-.822-1.764-1.841-1.764c-1.019.007-1.841.795-1.841 1.764z" fill="#630DD3"/><path d="M51.545 45.875c-1.295-.237-2.408.83-2.161 2.071.138.69.728 1.255 1.448 1.38 1.296.238 2.41-.83 2.162-2.07-.139-.69-.728-1.255-1.449-1.381z" fill="#FC3E54"/><path d="M116.156 35.856c6.656-6.428 6.656-16.85 0-23.278-6.656-6.428-17.448-6.428-24.104 0-6.656 6.428-6.656 16.85 0 23.278 6.656 6.427 17.448 6.427 24.104 0z" fill="#03E59F"/><path d="M100.525 30.47l-5.16-4.672a2.474 2.474 0 010-3.7 2.7 2.7 0 013.593 0l2.785 2.524c.321.29.828.29 1.156 0l7.999-7.242a2.7 2.7 0 013.592 0 2.474 2.474 0 010 3.7l-10.373 9.39a2.686 2.686 0 01-3.592 0z" fill="#fff"/><mask id="mask0" maskUnits="userSpaceOnUse" x="0" y="0" width="161" height="84"><path d="M157.01 83.935H3.11c-1.675 0-3.11-1.264-3.11-2.989V3.928C0 2.204 1.315.939 3.11.939h153.9c1.675 0 3.11 1.265 3.11 2.989V81.06a3.09 3.09 0 01-3.11 2.874z" fill="#E4F5FB"/></mask><g mask="url(#mask0)"><path d="M124.999 76.286c.761.735-2.475 4.042-3.427 3.307-4.76-4.593-15.992-15.066-15.992-15.066l3.427-3.307s11.232 10.656 15.992 15.066z" fill="#2C3E50"/><path d="M80.069 37.293c-7.616 7.806-7.425 20.18.19 27.796 7.615 7.615 20.181 7.425 27.605-.19 7.616-7.616 7.425-20.181-.19-27.606-7.615-7.806-19.99-7.615-27.605 0zm26.272 1.142c7.045 6.854 7.045 17.896.191 24.94-6.854 7.044-17.896 7.044-24.94.19-6.854-6.663-7.044-17.895-.19-24.94 6.853-6.853 18.086-7.044 24.939-.19z" fill="#465565"/><path d="M77.594 34.578c-8.948 8.82-8.758 22.967.38 31.419 9.139 8.635 23.798 8.451 32.556-.368 8.948-8.819 8.757-22.966-.381-31.602-9.138-8.268-23.607-8.084-32.555.551zm29.509 2.756c7.425 6.982 7.425 18.374.19 25.54-7.234 7.165-19.038 7.165-26.463.183-7.425-6.982-7.425-18.373-.19-25.539 7.234-6.982 19.038-7.165 26.463-.184z" fill="#2C3E50"/><path opacity=".12" d="M113.005 50.012c-.191-10.105-8.758-18.373-19.229-18.19-10.47.184-19.038 8.452-18.848 18.557.19 10.106 8.758 18.374 19.229 18.19 10.661 0 19.038-8.268 18.848-18.557z" fill="#fff"/><path d="M131.662 79.777c.381.367.381.735 0 1.102l-5.14 4.96c-.381.368-.762.368-1.142 0L110.911 72.06c-.381-.368-.381-.735 0-1.102l5.14-4.961c.381-.368.761-.368 1.142 0l14.469 13.78z" fill="#FC3E54"/><path d="M117.703 66.493l-6.248 6.182 22.213 20.913 6.248-6.182-22.213-20.913z" fill="#2C3E50"/></g></svg>