<svg width="161" height="92" fill="none" xmlns="http://www.w3.org/2000/svg"><path d="M157.01 91.761H3.11c-1.675 0-3.11-1.31-3.11-3.096V8.858c0-1.786 1.315-3.097 3.11-3.097h153.9c1.675 0 3.11 1.31 3.11 3.097v79.926c-.12 1.667-1.435 2.977-3.11 2.977z" fill="#E4F5FB"/><path fill-rule="evenodd" clip-rule="evenodd" d="M40.827 64.678h24.478c.53 0 1.01.432 1.01 1.01 0 .528-.433 1.01-1.01 1.01H40.827c-.53 0-1.01-.433-1.01-1.01 0-.53.48-1.01 1.01-1.01zm0 11.686h24.478c.53 0 1.01.433 1.01 1.01 0 .529-.433 1.01-1.01 1.01H40.827c-.53 0-1.01-.433-1.01-1.01 0-.53.48-1.01 1.01-1.01zm0-51.122h30.442c.529 0 1.01.433 1.01 1.01 0 .53-.433 1.01-1.01 1.01H40.827c-.53 0-1.01-.433-1.01-1.01s.48-1.01 1.01-1.01zm0 5.387h30.442c.529 0 1.01.432 1.01 1.01 0 .529-.433 1.01-1.01 1.01H40.827c-.53 0-1.01-.433-1.01-1.01 0-.578.48-1.01 1.01-1.01zm0 5.386h8.272c.529 0 1.01.433 1.01 1.01 0 .529-.433 1.01-1.01 1.01h-8.272c-.53 0-1.01-.433-1.01-1.01s.48-1.01 1.01-1.01zm0 45.014h8.272c.529 0 1.01.433 1.01 1.01 0 .529-.433 1.01-1.01 1.01h-8.272c-.53 0-1.01-.433-1.01-1.01 0-.578.48-1.01 1.01-1.01zM52.61 36.015h8.27c.53 0 1.01.433 1.01 1.01 0 .529-.432 1.01-1.01 1.01h-8.27c-.53 0-1.01-.433-1.01-1.01a.986.986 0 011.01-1.01zm0 45.014h8.27c.53 0 1.01.433 1.01 1.01 0 .529-.432 1.01-1.01 1.01h-8.27c-.53 0-1.01-.433-1.01-1.01a.986.986 0 011.01-1.01zM40.827 42.507h11.157c.529 0 1.01.433 1.01 1.01 0 .53-.433 1.01-1.01 1.01H40.827c-.53 0-1.01-.433-1.01-1.01s.48-1.01 1.01-1.01zm15.053 0h11.157c.529 0 1.01.433 1.01 1.01 0 .53-.433 1.01-1.01 1.01H55.879c-.529 0-1.01-.433-1.01-1.01a.986.986 0 011.01-1.01zm-15.053 4.858h13.465c.53 0 1.01.432 1.01 1.01 0 .529-.433 1.01-1.01 1.01H40.827c-.53 0-1.01-.433-1.01-1.01 0-.53.48-1.01 1.01-1.01zm17.697 0H71.99c.53 0 1.01.432 1.01 1.01 0 .529-.433 1.01-1.01 1.01H58.524c-.529 0-1.01-.433-1.01-1.01.049-.53.481-1.01 1.01-1.01zm-17.697 5.53h9.089c.529 0 1.01.433 1.01 1.01 0 .53-.433 1.01-1.01 1.01h-9.09c-.528 0-1.01-.433-1.01-1.01s.482-1.01 1.01-1.01zm12.984 0h9.09c.529 0 1.01.433 1.01 1.01 0 .53-.433 1.01-1.01 1.01h-9.09c-.529 0-1.01-.433-1.01-1.01s.481-1.01 1.01-1.01zm-12.984 6.348h13.465c.53 0 1.01.433 1.01 1.01 0 .53-.433 1.01-1.01 1.01H40.827c-.53 0-1.01-.433-1.01-1.01 0-.529.48-1.01 1.01-1.01zm0 11.687h13.465c.53 0 1.01.432 1.01 1.01 0 .528-.433 1.01-1.01 1.01H40.827c-.53 0-1.01-.434-1.01-1.01 0-.53.48-1.01 1.01-1.01zm17.697-11.687H71.99c.53 0 1.01.433 1.01 1.01 0 .53-.433 1.01-1.01 1.01H58.524c-.529 0-1.01-.433-1.01-1.01.049-.529.481-1.01 1.01-1.01zm0 11.687H71.99c.53 0 1.01.432 1.01 1.01 0 .528-.433 1.01-1.01 1.01H58.524c-.529 0-1.01-.434-1.01-1.01.049-.53.481-1.01 1.01-1.01z" fill="#D9EFF8"/><rect x="10" y="45.761" width="26" height="19" rx="3" fill="#48C4FF"/><rect x="10" y="24.762" width="26" height="19" rx="3" fill="#03E59F"/><rect x="10" y="66.761" width="26" height="19" rx="3" fill="#FC3E54"/><path d="M30.2 27.611H15.8c-.239 0-.468.1-.636.279a.977.977 0 00-.264.671v11.4c0 .252.095.494.264.672a.877.877 0 00.636.278h14.4c.239 0 .468-.1.636-.278a.977.977 0 00.264-.672v-11.4a.977.977 0 00-.264-.671.877.877 0 00-.636-.279zm-4.275 3.325c.298 0 .584.126.796.348.21.223.329.525.329.84 0 .315-.119.617-.33.84a1.096 1.096 0 01-.795.348 1.1 1.1 0 01-.796-.348 1.222 1.222 0 01-.329-.84c0-.315.119-.617.33-.84.21-.222.497-.348.795-.348zM17.6 38.063l2.983-7.239 3.392 5.797 2.908-1.524 1.517 2.966H17.6zm12.6 10.548H15.8c-.239 0-.468.1-.636.279a.977.977 0 00-.264.672v11.4c0 .251.095.493.264.671a.877.877 0 00.636.278h14.4c.239 0 .468-.1.636-.278a.977.977 0 00.264-.672v-11.4a.977.977 0 00-.264-.671.876.876 0 00-.636-.279zm-4.275 3.326c.298 0 .584.125.796.347.21.223.329.525.329.84 0 .315-.119.617-.33.84a1.096 1.096 0 01-.795.348 1.1 1.1 0 01-.796-.348 1.222 1.222 0 01-.329-.84c0-.315.119-.617.33-.84.21-.222.497-.347.795-.347zM17.6 59.062l2.983-7.239 3.392 5.797 2.908-1.524 1.517 2.966H17.6zm12.511 11.699H15.89a.906.906 0 00-.629.252.842.842 0 00-.26.606v10.285c0 .228.094.446.26.606a.906.906 0 00.629.251h14.22a.91.91 0 00.629-.25.842.842 0 00.26-.607V71.62a.842.842 0 00-.26-.606.906.906 0 00-.629-.252zm-4.222 3c.295 0 .577.113.786.314.208.201.325.474.325.758 0 .284-.117.557-.325.758-.209.2-.491.313-.786.313-.295 0-.577-.113-.786-.313a1.052 1.052 0 01-.325-.758c0-.284.117-.557.325-.758.209-.2.491-.314.786-.314zm-8.222 6.429l2.945-6.53 3.35 5.23 2.873-1.376 1.498 2.676H17.667z" fill="#fff"/><path fill-rule="evenodd" clip-rule="evenodd" d="M77.01 64.677h24.479c.529 0 1.009.433 1.009 1.01 0 .53-.432 1.01-1.009 1.01h-24.48A1.015 1.015 0 0176 65.687c0-.528.48-1.01 1.01-1.01zm0 11.687h24.479c.529 0 1.009.433 1.009 1.01 0 .529-.432 1.01-1.009 1.01h-24.48A1.016 1.016 0 0176 77.374c0-.53.48-1.01 1.01-1.01zm0-51.122h30.442c.529 0 1.01.433 1.01 1.01 0 .53-.433 1.01-1.01 1.01H77.01c-.53 0-1.01-.433-1.01-1.01s.48-1.01 1.01-1.01zm0 5.387h30.442c.529 0 1.01.432 1.01 1.01 0 .529-.433 1.01-1.01 1.01H77.01c-.53 0-1.01-.433-1.01-1.01 0-.578.48-1.01 1.01-1.01zm0 5.386h8.272c.529 0 1.01.433 1.01 1.01 0 .529-.433 1.01-1.01 1.01H77.01c-.53 0-1.01-.433-1.01-1.01s.48-1.01 1.01-1.01zm0 45.014h8.272c.529 0 1.01.433 1.01 1.01 0 .529-.433 1.01-1.01 1.01H77.01c-.53 0-1.01-.433-1.01-1.01 0-.578.48-1.01 1.01-1.01zm11.782-45.014h8.272c.53 0 1.01.433 1.01 1.01 0 .529-.433 1.01-1.01 1.01h-8.272c-.529 0-1.01-.433-1.01-1.01a.986.986 0 011.01-1.01zm0 45.014h8.272c.53 0 1.01.433 1.01 1.01 0 .529-.433 1.01-1.01 1.01h-8.272c-.529 0-1.01-.433-1.01-1.01a.986.986 0 011.01-1.01zM77.01 42.507h11.157c.53 0 1.01.433 1.01 1.01 0 .53-.433 1.01-1.01 1.01H77.01c-.53 0-1.01-.433-1.01-1.01s.48-1.01 1.01-1.01zm15.053 0h11.157c.529 0 1.01.433 1.01 1.01 0 .53-.433 1.01-1.01 1.01H92.063c-.53 0-1.01-.433-1.01-1.01a.986.986 0 011.01-1.01zM77.01 47.365h13.466c.529 0 1.01.432 1.01 1.01 0 .529-.433 1.01-1.01 1.01H77.01c-.53 0-1.01-.433-1.01-1.01 0-.53.48-1.01 1.01-1.01zm17.698 0h13.465c.529 0 1.01.432 1.01 1.01 0 .529-.433 1.01-1.01 1.01H94.708c-.53 0-1.01-.433-1.01-1.01.048-.53.48-1.01 1.01-1.01zm-17.698 5.53h9.09c.528 0 1.01.433 1.01 1.01 0 .529-.434 1.01-1.01 1.01h-9.09c-.53 0-1.01-.433-1.01-1.01s.48-1.01 1.01-1.01zm12.985 0h9.089c.529 0 1.01.433 1.01 1.01 0 .529-.433 1.01-1.01 1.01h-9.09c-.528 0-1.01-.433-1.01-1.01s.482-1.01 1.01-1.01zM77.01 59.243h13.466c.529 0 1.01.433 1.01 1.01 0 .53-.433 1.01-1.01 1.01H77.01c-.53 0-1.01-.433-1.01-1.01 0-.529.48-1.01 1.01-1.01zm0 11.687h13.466c.529 0 1.01.432 1.01 1.01 0 .528-.433 1.01-1.01 1.01H77.01c-.53 0-1.01-.434-1.01-1.01 0-.53.48-1.01 1.01-1.01zm17.698-11.687h13.465c.529 0 1.01.433 1.01 1.01 0 .53-.433 1.01-1.01 1.01H94.708c-.53 0-1.01-.433-1.01-1.01.048-.529.48-1.01 1.01-1.01zm0 11.687h13.465c.529 0 1.01.432 1.01 1.01 0 .528-.433 1.01-1.01 1.01H94.708c-.53 0-1.01-.434-1.01-1.01.048-.53.48-1.01 1.01-1.01z" fill="#D9EFF8"/><path d="M0 8.761a3 3 0 013-3h154a3 3 0 013 3v9H0v-9z" fill="#F6CD40"/><circle cx="12.685" cy="11.854" r="2.685" fill="#31C5FF"/><circle cx="20.729" cy="11.854" r="2.685" fill="#FC3E54"/><circle cx="28.729" cy="11.854" r="2.685" fill="#03E59F"/><g clip-path="url(#clip0)"><path d="M107.774 87.174c-2.867 0-5.154-2.35-5.154-5.21V15.598c0-2.9 2.325-5.21 5.154-5.21h39.452c2.868 0 5.154 2.35 5.154 5.21v66.325c0 2.9-2.325 5.21-5.154 5.21h-39.452v.04z" fill="#fff"/><path d="M147.226 10.976c2.519 0 4.573 2.076 4.573 4.623v66.325c0 2.547-2.054 4.623-4.573 4.623h-39.452c-2.519 0-4.573-2.076-4.573-4.623V15.6c0-2.547 2.054-4.623 4.573-4.623h39.452zm0-1.215h-39.452c-3.177 0-5.774 2.625-5.774 5.838v66.325c0 3.213 2.597 5.837 5.774 5.837h39.452c3.177 0 5.774-2.624 5.774-5.837V15.6c0-3.213-2.597-5.838-5.774-5.838z" fill="#D3E9F8"/><path d="M122.966 20.81c-.426.47-.93.704-1.473.704a2.09 2.09 0 01-.852-.195c-.272-.118-.465-.314-.659-.549-.194-.235-.349-.47-.426-.744a2.241 2.241 0 01-.155-.862c0-.314.038-.588.155-.901.116-.275.271-.549.426-.745.194-.235.426-.391.659-.509a2.09 2.09 0 01.852-.196c.233 0 .427.04.62.079.194.039.349.117.504.195.155.079.271.196.388.314.116.117.193.274.271.392l-.349.235c-.155-.275-.349-.51-.581-.627-.31-.118-.582-.196-.892-.196-.271 0-.465.04-.697.157-.194.117-.388.235-.504.43-.155.196-.232.392-.31.627a2.318 2.318 0 000 1.45c.078.235.194.43.349.627.155.157.349.313.542.43.194.118.427.157.698.157.271 0 .504-.078.736-.195.233-.118.465-.314.698-.588v-.784h-1.008v-.352h1.395v2.272h-.387v-.627zm2.713.704a1.8 1.8 0 01-.659-.117c-.194-.078-.388-.235-.543-.392a1.654 1.654 0 01-.349-.548 1.859 1.859 0 01-.116-.666c0-.236.039-.47.116-.666.078-.196.194-.392.349-.549a1.94 1.94 0 01.543-.392c.194-.078.426-.156.659-.156.232 0 .465.039.658.156a1.753 1.753 0 01.892.941c.077.195.116.43.116.666v.195h-2.868c0 .196.039.353.117.51a1.385 1.385 0 00.658.666c.155.078.31.078.465.078.117 0 .233 0 .31-.039.117-.04.194-.078.31-.118.078-.039.155-.117.233-.195a.84.84 0 00.155-.236l.388.118a.934.934 0 01-.233.353c-.078.117-.194.195-.31.274-.116.078-.271.117-.426.157-.155-.04-.31-.04-.465-.04zm1.24-1.92a1.09 1.09 0 00-.117-.509 1.4 1.4 0 00-.271-.391.8.8 0 00-.387-.235c-.155-.079-.31-.079-.465-.079-.155 0-.31.04-.465.079a3.388 3.388 0 00-.388.235 1.4 1.4 0 00-.271.391 1.088 1.088 0 00-.116.51h2.48zm2.519 1.92a1.8 1.8 0 01-.659-.117c-.194-.078-.388-.235-.543-.392a1.635 1.635 0 01-.348-.548 1.837 1.837 0 01-.117-.666c0-.236.039-.47.117-.666a1.64 1.64 0 01.348-.549 1.94 1.94 0 01.543-.392c.194-.078.426-.156.659-.156.232 0 .465.039.659.156a1.76 1.76 0 01.891.941c.077.195.116.43.116.666 0 .235-.039.47-.116.666a1.654 1.654 0 01-.349.548 1.95 1.95 0 01-.542.392 1.796 1.796 0 01-.659.117zm-1.202-1.723c0 .195.039.352.078.548.077.157.155.314.271.431.116.117.233.235.388.274.155.079.31.118.465.118.155 0 .31-.04.465-.118.155-.078.271-.157.387-.274.117-.117.194-.274.272-.43.077-.158.077-.354.077-.55 0-.195-.039-.352-.077-.509-.078-.156-.155-.313-.272-.43-.116-.118-.232-.236-.387-.275a1.023 1.023 0 00-.465-.117c-.155 0-.31.039-.465.117a1.39 1.39 0 00-.388.274c-.116.118-.194.275-.271.431-.078.118-.078.314-.078.51zm6.356-2.077c-.116-.156-.31-.274-.504-.352a2.23 2.23 0 00-.736-.118c-.426 0-.698.079-.891.235-.194.157-.272.353-.272.627 0 .157.039.235.078.353a.664.664 0 00.232.235c.117.078.233.117.388.156.155.04.349.079.581.157.233.04.465.118.659.157.194.078.349.156.504.235.155.078.232.196.31.352a1.1 1.1 0 01.116.51c0 .196-.039.392-.116.548a1.114 1.114 0 01-.349.392c-.155.117-.31.196-.504.235-.271.04-.465.078-.697.078a2.677 2.677 0 01-1.822-.666l.233-.352c.155.196.387.313.659.47.271.117.581.196.93.196.348 0 .658-.079.852-.196a.692.692 0 00.31-.588.8.8 0 00-.077-.352c-.039-.118-.155-.196-.272-.235-.116-.079-.271-.118-.426-.196-.155-.04-.387-.118-.581-.157-.233-.04-.465-.117-.62-.157-.194-.078-.349-.117-.465-.235-.117-.078-.194-.196-.272-.313-.077-.118-.077-.274-.077-.47 0-.196.039-.392.116-.549a1.23 1.23 0 01.853-.666c.194-.078.426-.078.659-.078.31 0 .581.04.813.157.233.078.466.235.659.391l-.271.196zm2.17 3.8c-.349 0-.62-.117-.814-.352-.193-.235-.271-.627-.271-1.097v-1.998h.426v1.92c0 .783.272 1.136.775 1.136.117 0 .272-.04.388-.079.116-.039.233-.117.349-.196.116-.078.194-.195.271-.274.078-.117.155-.235.194-.392v-2.154h.426v2.82c0 .118.039.196.155.196v.392h-.194c-.116 0-.193-.04-.271-.078-.077-.079-.116-.118-.116-.235v-.47a1.81 1.81 0 01-.581.626c-.155.196-.427.235-.737.235zm4.457-3.055c-.31 0-.543.078-.775.235a1.076 1.076 0 00-.465.627v2.115h-.427v-3.408h.427v.822c.116-.235.271-.43.465-.587a.944.944 0 01.62-.235h.194v.43h-.039zm.775 3.016v-2.664h-.465v-.352h.465v-.47c0-.431.077-.745.271-.98a.898.898 0 01.737-.352c.116 0 .271 0 .387.039.116.039.233.078.31.156l-.116.314c-.078-.04-.116-.079-.233-.118-.077-.039-.155-.039-.271-.039a.55.55 0 00-.465.235c-.116.157-.155.392-.155.705v.51h.93v.352h-.93v2.664h-.465z" fill="#020202"/><path d="M112.812 20.535l-.038.117a2.402 2.402 0 01-1.512-3.055c.426-1.254 1.822-1.92 3.062-1.489a2.348 2.348 0 011.627 2.233h-.116c-.194-1.136-1.279-1.88-2.403-1.724a2.118 2.118 0 00-1.705 2.43c.078.626.504 1.174 1.085 1.488z" fill="url(#paint0_linear)"/><path d="M115.641 16.108l.039-.117c1.821.861 2.597 3.016 1.744 4.818-.853 1.802-3.023 2.586-4.844 1.763-1.395-.627-2.209-2.076-2.093-3.604h.116c.078 1.763 1.628 3.134 3.411 3.056 1.782-.079 3.139-1.607 3.061-3.409a3.135 3.135 0 00-1.434-2.507z" fill="url(#paint1_linear)"/><path d="M112.774 32.366v2.547c0 .274-.078.548-.194.783-.117.235-.31.392-.543.51-.232.117-.542.156-.852.156-.504 0-.892-.117-1.163-.392a1.455 1.455 0 01-.426-1.057v-2.547h.814v2.39c0 .313.077.51.193.666.117.157.31.196.582.196.271 0 .465-.079.581-.196.116-.157.194-.353.194-.666v-2.39h.814zm3.642 3.957h-.814V34.56c0-.235-.038-.392-.116-.47-.077-.118-.194-.157-.349-.157-.232 0-.387.079-.503.235-.117.157-.155.392-.155.745v1.41h-.814v-3.017h.62l.116.392h.039a.615.615 0 01.387-.313 1.22 1.22 0 01.543-.118c.349 0 .62.079.775.274.194.196.271.47.271.823v1.959zm.775-3.8c0-.274.155-.392.427-.392.31 0 .426.118.426.392a.45.45 0 01-.116.313c-.078.079-.194.118-.349.118-.233 0-.388-.157-.388-.431zm.853 3.8h-.814v-3.017h.814v3.017zm2.132-.588c.155 0 .31-.039.503-.078v.627a2.042 2.042 0 01-.736.157c-.31 0-.543-.079-.698-.236-.155-.156-.232-.43-.232-.744v-1.45h-.388v-.352l.465-.274.233-.627h.504v.627h.852v.627h-.852v1.45c0 .117.038.195.116.273.039-.039.116 0 .233 0zm2.441.627c-.465 0-.853-.117-1.124-.392-.271-.274-.387-.626-.387-1.136 0-.509.116-.9.387-1.175.233-.274.581-.43 1.046-.43.427 0 .737.117.969.352.233.235.349.587.349 1.018v.392h-1.938c0 .235.078.43.194.548.116.118.31.196.543.196.194 0 .349 0 .504-.039.155-.039.31-.117.503-.196v.627a2.18 2.18 0 01-.465.157c-.155.078-.348.078-.581.078zm-.116-2.507c-.155 0-.31.04-.388.157-.116.117-.155.274-.155.47h1.124c0-.196-.039-.353-.155-.47-.116-.118-.233-.157-.426-.157zm2.945 2.507c-.349 0-.62-.117-.814-.43-.194-.275-.31-.667-.31-1.137 0-.51.116-.862.31-1.136.194-.274.465-.43.853-.43.387 0 .659.156.852.43h.039c-.039-.235-.077-.43-.077-.588v-.979h.813v4.192h-.62l-.155-.392h-.038c-.194.313-.465.47-.853.47zm.271-.627a.638.638 0 00.465-.196c.078-.117.155-.313.155-.626v-.079c0-.313-.038-.548-.155-.705-.116-.157-.271-.196-.465-.196-.193 0-.31.079-.426.235-.116.157-.155.392-.155.666s.039.51.155.666c.116.157.233.235.426.235zm6.007-.509c0 .353-.116.627-.387.823-.272.196-.621.313-1.047.313-.426 0-.775-.078-1.085-.235v-.783a4.6 4.6 0 00.659.235c.194.039.349.078.504.078a.7.7 0 00.426-.117c.077-.079.155-.157.155-.314a.3.3 0 00-.078-.196c-.038-.078-.116-.117-.193-.157-.078-.039-.233-.156-.504-.274a5.325 5.325 0 01-.543-.313c-.116-.118-.232-.235-.271-.353a1.059 1.059 0 01-.116-.47c0-.352.116-.627.349-.823.232-.196.542-.313.968-.313.194 0 .388.04.582.078.194.04.387.118.581.196l-.271.666c-.194-.078-.388-.157-.504-.196-.155-.039-.271-.039-.388-.039-.155 0-.271.04-.348.118a.357.357 0 00-.117.274c0 .078 0 .157.039.196.039.039.078.117.155.157.078.039.233.156.504.274.349.157.62.352.736.548a1 1 0 01.194.627zm1.899.509c.155 0 .31-.039.504-.078v.627a2.046 2.046 0 01-.736.157c-.311 0-.543-.079-.698-.236-.155-.156-.233-.43-.233-.744v-1.45h-.387v-.352l.465-.274.232-.627h.504v.627h.853v.627h-.853v1.45c0 .117.039.195.117.273.038-.039.116 0 .232 0zm2.984.588l-.155-.392h-.039c-.155.157-.271.314-.426.353a1.282 1.282 0 01-.581.117c-.272 0-.504-.078-.659-.235-.155-.156-.233-.391-.233-.705 0-.313.117-.548.349-.705.233-.157.543-.235 1.008-.235h.504v-.118c0-.313-.155-.47-.465-.47-.233 0-.504.079-.853.235l-.271-.548a2.272 2.272 0 011.124-.274c.387 0 .697.078.93.274.193.157.31.43.31.783v1.998l-.543-.078zm-.232-1.41h-.31c-.233 0-.427.039-.543.117-.116.078-.155.196-.155.353 0 .235.116.352.388.352.193 0 .348-.039.465-.156a.594.594 0 00.155-.431v-.235zm2.906.822c.155 0 .31-.039.504-.078v.627a2.046 2.046 0 01-.736.157c-.31 0-.543-.079-.698-.236-.155-.156-.233-.43-.233-.744v-1.45h-.387v-.352l.465-.274.233-.627h.503v.627h.853v.627h-.853v1.45c0 .117.039.195.117.273.038-.039.116 0 .232 0zm2.442.627c-.465 0-.853-.117-1.124-.392-.272-.274-.388-.626-.388-1.136 0-.509.116-.9.388-1.175.232-.274.581-.43 1.046-.43.426 0 .736.117.969.352.232.235.349.587.349 1.018v.392h-1.938c0 .235.078.43.194.548.116.118.31.196.542.196.194 0 .349 0 .504-.039.155-.039.31-.117.504-.196v.627a2.18 2.18 0 01-.465.157c-.116.078-.349.078-.581.078zm-.078-2.507c-.155 0-.31.04-.387.157-.117.117-.155.274-.155.47h1.123c0-.196-.038-.353-.155-.47a.578.578 0 00-.426-.157zm4.031 1.567c0 .313-.117.548-.311.705-.193.157-.542.235-.968.235-.233 0-.388 0-.543-.039a6.312 6.312 0 01-.426-.117v-.667c.155.079.31.118.504.196.193.04.348.079.503.079.31 0 .427-.079.427-.275 0-.078-.039-.117-.078-.156-.039-.04-.116-.079-.194-.157l-.387-.196c-.233-.078-.388-.196-.504-.274a.726.726 0 01-.232-.274 1.163 1.163 0 01-.078-.392c0-.274.116-.47.31-.627.194-.157.504-.235.891-.235.349 0 .698.078 1.047.235l-.233.588a1.868 1.868 0 00-.426-.157 1.36 1.36 0 00-.388-.078c-.232 0-.348.078-.348.196 0 .078.038.117.116.196.077.039.232.117.504.235.232.078.387.195.503.274a.73.73 0 01.233.274c.078.157.078.274.078.43zM153 27.273h-51v.157h51v-.157z" fill="#000"/><path d="M139.397 54.814h-23.911v1.097h23.911v-1.097z" fill="#CB001C"/><path d="M139.397 53.796h-23.911v1.057h23.911v-1.057z" fill="#fff"/><path d="M139.397 52.66h-23.911v1.097h23.911V52.66z" fill="#CB001C"/><path d="M139.397 51.64h-23.911v1.06h23.911v-1.06z" fill="#fff"/><path d="M139.397 50.466h-23.911v1.175h23.911v-1.175z" fill="#CB001C"/><path d="M139.397 49.369h-23.911v1.097h23.911v-1.097z" fill="#fff"/><path d="M139.397 48.35h-23.911v1.058h23.911V48.35z" fill="#CB001C"/><path d="M139.397 47.214h-23.911v1.097h23.911v-1.097z" fill="#fff"/><path d="M139.397 46.195h-23.911v1.058h23.911v-1.058z" fill="#CB001C"/><path d="M139.397 45.099h-23.911v1.096h23.911V45.1z" fill="#fff"/><path d="M139.397 44.002h-23.911v1.096h23.911v-1.096z" fill="#CB001C"/><path d="M139.397 42.865h-23.911v1.097h23.911v-1.097z" fill="#fff"/><path d="M139.397 41.847h-23.911v1.058h23.911v-1.058z" fill="#CB001C"/><path d="M126.415 41.847h-10.929v7.522h10.929v-7.522z" fill="#2A3560"/><path d="M116.455 42.63l.078.314h.31l-.233.196.078.235-.233-.118-.232.118.077-.235-.232-.196h.271l.116-.314zm0 1.293l.078.314h.31l-.233.195.078.275-.233-.157-.232.157.077-.275-.232-.195h.271l.116-.314zm0 1.293l.078.235h.31l-.233.196.078.313-.233-.196-.232.196.077-.313-.232-.196h.271l.116-.235zm0 1.214l.078.314h.31l-.233.196.078.274-.233-.157-.232.157.077-.274-.232-.196h.271l.116-.313zm0 1.333l.078.274h.31l-.233.156.078.314-.233-.157-.232.157.077-.314-.232-.156h.271l.116-.274zm.853-4.467l.116.314h.31l-.271.117.116.392-.271-.196-.194.196.078-.392-.233-.117h.271l.078-.314zm0 1.294l.116.313h.31l-.271.196.116.235-.271-.118-.194.117.078-.234-.233-.196h.271l.078-.314zm0 1.292l.116.313h.31l-.271.118.116.313-.271-.195-.194.195.078-.313-.233-.118h.271l.078-.313zm0 1.214l.116.314h.31l-.271.196.116.313-.271-.196-.194.196.078-.313-.233-.196h.271l.078-.313zm.891-4.466l.116.314h.31l-.271.196.078.235-.233-.118-.232.118.116-.235-.271-.196h.31l.077-.314zm0 1.293l.116.314h.31l-.271.195.078.275-.233-.157-.232.157.116-.275-.271-.195h.31l.077-.314zm0 1.293l.116.235h.31l-.271.196.078.313-.233-.196-.232.196.116-.313-.271-.196h.31l.077-.235zm0 1.214l.116.314h.31l-.271.196.078.274-.233-.157-.232.157.116-.274-.271-.196h.31l.077-.313zm0 1.333l.116.274h.31l-.271.156.078.314-.233-.157-.232.157.116-.314-.271-.156h.31l.077-.274zm.891-4.467l.078.314h.31l-.233.117.078.392-.233-.196-.271.196.116-.392-.232-.117h.31l.077-.314zm0 1.294l.078.313h.31l-.233.196.078.235-.233-.118-.271.117.116-.234-.232-.196h.31l.077-.314zm0 1.292l.078.313h.31l-.233.118.078.313-.233-.195-.271.195.116-.313-.232-.118h.31l.077-.313zm0 1.214l.078.314h.31l-.233.196.078.313-.233-.196-.271.196.116-.313-.232-.196h.31l.077-.313zm.892-4.466l.077.314h.31l-.271.196.116.235-.232-.118-.233.118.078-.235-.233-.196h.272l.116-.314zm0 1.293l.077.314h.31l-.271.195.116.275-.232-.157-.233.157.078-.275-.233-.195h.272l.116-.314zm0 1.293l.077.235h.31l-.271.196.116.313-.232-.196-.233.196.078-.313-.233-.196h.272l.116-.235zm0 1.214l.077.314h.31l-.271.196.116.274-.232-.157-.233.157.078-.274-.233-.196h.272l.116-.313zm0 1.333l.077.274h.31l-.271.156.116.314-.232-.157-.233.157.078-.314-.233-.156h.272l.116-.274zm.852-4.467l.117.314h.271l-.233.117.117.392-.272-.196-.232.196.077-.392-.193-.117h.271l.077-.314zm0 1.294l.117.313h.271l-.233.196.117.235-.272-.118-.232.117.077-.234-.193-.196h.271l.077-.314zm0 1.292l.117.313h.271l-.233.118.117.313-.272-.195-.232.195.077-.313-.193-.118h.271l.077-.313zm0 1.214l.117.314h.271l-.233.196.117.313-.272-.196-.232.196.077-.313-.193-.196h.271l.077-.313zm.892-4.466l.077.314h.31l-.232.196.077.235-.232-.118-.233.118.078-.235-.233-.196h.31l.078-.314zm0 1.293l.077.314h.31l-.232.195.077.275-.232-.157-.233.157.078-.275-.233-.195h.31l.078-.314zm0 1.293l.077.235h.31l-.232.196.077.313-.232-.196-.233.196.078-.313-.233-.196h.31l.078-.235zm0 1.214l.077.314h.31l-.232.196.077.274-.232-.157-.233.157.078-.274-.233-.196h.31l.078-.313zm0 1.333l.077.274h.31l-.232.156.077.314-.232-.157-.233.157.078-.314-.233-.156h.31l.078-.274zm.891-4.467l.078.314h.31l-.233.117.078.392-.233-.196-.271.196.116-.392-.233-.117h.272l.116-.314zm0 1.294l.078.313h.31l-.233.196.078.235-.233-.118-.271.117.116-.234-.233-.196h.272l.116-.314zm0 1.292l.078.313h.31l-.233.118.078.313-.233-.195-.271.195.116-.313-.233-.118h.272l.116-.313zm0 1.214l.078.314h.31l-.233.196.078.313-.233-.196-.271.196.116-.313-.233-.196h.272l.116-.313zm.853-4.466l.116.314h.31l-.271.196.077.235-.232-.118-.233.118.078-.235-.194-.196h.271l.078-.314zm0 1.293l.116.314h.31l-.271.195.077.275-.232-.157-.233.157.078-.275-.194-.195h.271l.078-.314zm0 1.293l.116.235h.31l-.271.196.077.313-.232-.196-.233.196.078-.313-.194-.196h.271l.078-.235zm0 1.214l.116.314h.31l-.271.196.077.274-.232-.157-.233.157.078-.274-.194-.196h.271l.078-.313zm0 1.333l.116.274h.31l-.271.156.077.314-.232-.157-.233.157.078-.314-.194-.156h.271l.078-.274zm.891-4.467l.077.314h.31l-.232.117.077.392-.232-.196-.233.196.078-.392-.233-.117h.31l.078-.314zm0 1.294l.077.313h.31l-.232.196.077.235-.232-.118-.233.117.078-.234-.233-.196h.31l.078-.314zm0 1.292l.077.313h.31l-.232.118.077.313-.232-.195-.233.195.078-.313-.233-.118h.31l.078-.313zm0 1.214l.077.314h.31l-.232.196.077.313-.232-.196-.233.196.078-.313-.233-.196h.31l.078-.313zm.891-4.466l.078.314h.349l-.31.196.077.235-.194-.118-.232.118.077-.235-.232-.196h.271l.116-.314zm0 1.293l.078.314h.349l-.31.195.077.275-.194-.157-.232.157.077-.275-.232-.195h.271l.116-.314zm0 1.293l.078.235h.349l-.31.196.077.313-.194-.196-.232.196.077-.313-.232-.196h.271l.116-.235zm0 1.214l.078.314h.349l-.31.196.077.274-.194-.157-.232.157.077-.274-.232-.196h.271l.116-.313zm0 1.333l.078.274h.349l-.31.156.077.314-.194-.157-.232.157.077-.314-.232-.156h.271l.116-.274z" fill="#fff"/><path d="M121.997 62.258v.822h-.465v-2.194h.62c.31 0 .504.04.659.157.155.118.194.275.194.51a.634.634 0 01-.117.352.48.48 0 01-.31.235c.31.51.543.823.62.94h-.504l-.503-.822h-.194zm0-.353h.155c.155 0 .271-.04.31-.078.077-.04.116-.118.116-.235 0-.118-.039-.196-.116-.235a.726.726 0 00-.31-.079h-.155v.627zm2.248 1.254c-.272 0-.465-.079-.62-.235-.155-.157-.233-.353-.233-.627s.078-.51.194-.666a.784.784 0 01.581-.235c.233 0 .426.078.543.196.116.117.193.313.193.548v.235h-1.085c0 .118.039.235.117.314.077.078.155.117.31.117.116 0 .193 0 .271-.039.077-.04.194-.04.271-.117v.352a.555.555 0 01-.271.078c0 .04-.116.079-.271.079zm-.039-1.41c-.078 0-.155.039-.233.078-.038.078-.077.157-.077.274h.62a.568.568 0 00-.078-.274c-.077-.079-.155-.079-.232-.079zm2.248.861a.485.485 0 01-.194.392c-.116.078-.31.118-.543.118-.116 0-.232 0-.31-.04a.544.544 0 01-.232-.078v-.392c.077.04.193.079.271.118.116.039.194.039.271.039.155 0 .233-.04.233-.157 0-.039 0-.078-.039-.078-.039-.04-.078-.04-.116-.078-.039-.04-.117-.079-.194-.118a.824.824 0 01-.271-.157c-.078-.039-.117-.117-.117-.156-.038-.079-.038-.118-.038-.235 0-.157.038-.275.155-.353.116-.078.271-.117.503-.117.194 0 .388.039.582.117l-.155.313c-.078-.039-.155-.078-.233-.078-.077-.04-.155-.04-.232-.04-.117 0-.194.04-.194.118 0 .04.039.079.077.118.039.04.155.078.272.117.116.04.232.118.271.157.078.04.116.118.116.157 0 .04.117.235.117.313zm.348-1.606c0-.157.078-.235.233-.235.155 0 .232.078.232.235 0 .078-.038.118-.077.157a.294.294 0 01-.194.078c-.116 0-.194-.078-.194-.235zm.465 2.116h-.465v-1.685h.465v1.685zm1.008.039a.55.55 0 01-.465-.235c-.116-.157-.155-.353-.155-.627s.039-.47.155-.627a.55.55 0 01.465-.235.55.55 0 01.465.235c-.039-.117-.039-.235-.039-.352v-.549h.465v2.311h-.348l-.078-.235c-.116.196-.271.314-.465.314zm.155-.392a.35.35 0 00.271-.117.785.785 0 00.078-.353v-.04a.846.846 0 00-.078-.391c-.038-.078-.155-.118-.271-.118-.116 0-.194.04-.233.118a.862.862 0 00-.077.392.8.8 0 00.077.352c.039.118.117.157.233.157zm1.977.392c-.272 0-.466-.079-.621-.235-.155-.157-.232-.353-.232-.627s.077-.51.194-.666c.116-.157.349-.235.581-.235.233 0 .426.078.543.196.116.117.193.313.193.548v.235h-1.085c0 .118.039.235.117.314.077.078.155.117.31.117.116 0 .193 0 .271-.039.077-.04.194-.04.271-.117v.352a.555.555 0 01-.271.078c-.039.04-.155.079-.271.079zm-.078-1.41a.544.544 0 00-.232.078.568.568 0 00-.078.274h.62c0-.117-.039-.196-.077-.274-.039-.079-.117-.079-.233-.079zm2.635 1.371h-.465v-.98c0-.117-.039-.196-.077-.274-.039-.078-.117-.078-.194-.078-.116 0-.233.039-.271.117a1.053 1.053 0 00-.078.431v.784h-.465v-1.685h.349l.077.196h.039a.469.469 0 01.194-.196.722.722 0 01.31-.078c.194 0 .349.039.426.156.116.118.155.275.155.47v1.137zm1.163-.353c.077 0 .155 0 .271-.04v.353a1.18 1.18 0 01-.426.079c-.194 0-.31-.04-.388-.157-.077-.078-.116-.235-.116-.43v-.824h-.233v-.195l.233-.157.116-.353h.272v.353h.465v.352h-.465v.823c0 .079 0 .118.038.157.117.039.194.039.233.039zm.581-1.763c0-.157.078-.235.233-.235.155 0 .232.078.232.235 0 .078-.039.118-.077.157a.296.296 0 01-.194.078c-.078 0-.194-.078-.194-.235zm.504 2.116h-.465v-1.685h.465v1.685zm1.511 0l-.077-.235c-.078.078-.155.156-.233.195-.077.04-.193.04-.31.04a.648.648 0 01-.387-.118.6.6 0 01-.155-.392c0-.196.077-.313.194-.392.116-.078.31-.117.542-.156h.271v-.078c0-.157-.077-.236-.271-.236-.116 0-.271.04-.465.118l-.155-.313a1.13 1.13 0 01.62-.157c.233 0 .388.039.504.157.116.078.194.235.194.43v1.097l-.272.04zm-.116-.784h-.194a.726.726 0 00-.31.078c-.077.04-.077.118-.077.196 0 .118.077.196.232.196.117 0 .194-.039.233-.078.077-.078.077-.157.077-.235v-.157h.039zm1.356.784h-.465v-2.312h.465v2.312zm1.279 0v-2.194h.465v2.194h-.465zm2.519-1.528c0 .235-.077.43-.232.548a.98.98 0 01-.62.196h-.194v.784h-.465v-2.194h.698c.271 0 .465.039.581.156a.634.634 0 01.232.51zm-1.046.352h.155a.596.596 0 00.31-.078c.078-.04.116-.157.116-.235 0-.118-.038-.196-.077-.235a.548.548 0 00-.271-.078h-.194v.626h-.039z" fill="#000"/><path d="M118.16 64.02h-4.689c-1.163 0-2.054-.94-2.054-2.076 0-1.175.93-2.076 2.054-2.076h4.689c1.163 0 2.054.94 2.054 2.076 0 1.136-.93 2.077-2.054 2.077z" fill="#7EC4F7"/><path d="M118.005 63.746c.985 0 1.783-.806 1.783-1.802 0-.995-.798-1.802-1.783-1.802-.984 0-1.782.807-1.782 1.802 0 .996.798 1.802 1.782 1.802z" fill="#fff"/><path d="M139.824 78.32h-24.648a2.445 2.445 0 01-2.441-2.468v-3.33a2.445 2.445 0 012.441-2.468h24.609a2.445 2.445 0 012.442 2.468v3.33c0 1.371-1.086 2.468-2.403 2.468z" fill="#7EC4F7"/><path d="M122.191 74.48a.653.653 0 01-.194.47c-.155.118-.349.157-.581.157-.233 0-.427-.039-.62-.117v-.43c.155.077.271.117.387.156.116.039.194.039.271.039.117 0 .194 0 .233-.04.039-.038.077-.078.077-.156 0-.04 0-.078-.038-.117-.039-.04-.078-.079-.117-.079-.038-.039-.155-.078-.271-.156-.116-.079-.232-.118-.31-.196-.077-.04-.116-.118-.155-.196a.568.568 0 01-.077-.275c0-.195.077-.352.193-.47.117-.117.31-.156.543-.156.116 0 .232 0 .31.039.116.039.194.078.31.117l-.155.353a1.851 1.851 0 01-.271-.118c-.078 0-.155-.039-.233-.039a.297.297 0 00-.194.079c-.038.039-.077.078-.077.156 0 .04 0 .079.039.118 0 .039.038.078.077.078.039.04.155.078.271.157.194.078.349.196.427.274.116.079.155.196.155.353zm1.705.588l-.116-.587-.155-.745-.31 1.332h-.504l-.465-1.684h.465l.194.744c.038.118.077.314.077.549 0-.079.039-.196.039-.353l.039-.117.193-.784h.504l.194.784v.078c0 .039 0 .078.039.117 0 .04 0 .079.038.157v.118c0-.079.039-.157.039-.314.039-.117.039-.196.039-.235l.194-.744h.426l-.465 1.684h-.465zm1.201-2.115c0-.157.078-.235.233-.235.155 0 .232.078.232.235 0 .078-.038.117-.077.156a.294.294 0 01-.194.079c-.077 0-.194-.079-.194-.235zm.504 2.115h-.465v-1.684h.465v1.684zm1.163-.313c.077 0 .155 0 .271-.04v.353a1.18 1.18 0 01-.426.079c-.194 0-.31-.04-.388-.157-.077-.078-.116-.235-.116-.43v-.824h-.233v-.196l.233-.156.116-.353h.271v.353h.466v.352h-.466v.823c0 .078 0 .118.039.157.117 0 .155.039.233.039zm1.279.353c-.504 0-.775-.275-.775-.862 0-.275.077-.51.193-.666.155-.157.349-.235.62-.235.194 0 .349.039.504.117l-.116.353c-.078-.04-.155-.04-.194-.079-.077 0-.116-.039-.194-.039-.232 0-.348.157-.348.51 0 .313.116.509.348.509.078 0 .155 0 .233-.04l.232-.117v.392a.544.544 0 01-.232.078c-.078.079-.155.079-.271.079zm2.402-.04h-.465v-.98c0-.234-.077-.352-.271-.352-.116 0-.233.04-.271.118a1.052 1.052 0 00-.078.43v.784h-.465v-2.311h.465v.862h.039a.55.55 0 01.465-.235c.194 0 .349.039.426.156.117.118.155.275.155.47v1.058zm1.279 0v-2.194h.465v2.194h-.465zm2.519-1.488c0 .235-.077.43-.232.548a.98.98 0 01-.62.196h-.194v.784h-.465v-2.194h.697c.272 0 .465.039.582.156.155.118.232.275.232.51zm-1.046.352h.155c.155 0 .232-.039.31-.078.077-.04.116-.157.116-.235 0-.118-.039-.196-.077-.235a.55.55 0 00-.272-.079h-.193v.627h-.039z" fill="#fff"/></g><defs><linearGradient id="paint0_linear" x1="113.543" y1="15.957" x2="113.543" y2="20.647" gradientUnits="userSpaceOnUse"><stop stop-color="#7A5FFF"/><stop offset="1" stop-color="#01FF89"/></linearGradient><linearGradient id="paint1_linear" x1="114.149" y1="15.995" x2="114.149" y2="22.891" gradientUnits="userSpaceOnUse"><stop stop-color="#7A5FFF"/><stop offset="1" stop-color="#01FF89"/></linearGradient><clipPath id="clip0"><path fill="#fff" d="M102 9.761h51v78h-51z"/></clipPath></defs></svg>