<svg width="180" height="86" fill="none" xmlns="http://www.w3.org/2000/svg"><path d="M176.505 86H3.495C1.613 86 0 84.69 0 82.903V3.097C0 1.31 1.479 0 3.495 0h173.01C178.387 0 180 1.31 180 3.097v79.925c-.134 1.668-1.613 2.978-3.495 2.978z" fill="#E4F5FB"/><path d="M86.311 13.313v52.293H56.583v7.248h66.765v-7.248H93.62V64.45h.069v-10.5h-.07V34.999h.07v-3.046h-.07v-18.64h-7.308z" fill="#fff"/><path d="M95.546 64.45H84.375a1.91 1.91 0 00-1.916 1.9v5.75c0 1.048.86 1.9 1.916 1.9h11.171a1.91 1.91 0 001.916-1.9v-.745c.04-.205.069-.411.069-.627v-2.997c0-.215-.03-.42-.07-.626v-.745c0-1.058-.859-1.91-1.915-1.91z" fill="#6A82B0"/><path d="M126.41 34.998H53.521c-.84 0-1.521.676-1.521 1.509v15.935c0 .833.681 1.509 1.521 1.509h72.889c.839 0 1.521-.676 1.521-1.509V49.26c.039-.264.069-.529.069-.793v-7.983c0-.274-.03-.538-.069-.803v-3.173c0-.833-.682-1.509-1.521-1.509zm0-21.998H53.521c-.84 0-1.521.676-1.521 1.508v15.936c0 .832.681 1.508 1.521 1.508h72.889c.839 0 1.521-.676 1.521-1.508v-3.183c.039-.265.069-.53.069-.794v-7.982c0-.274-.03-.539-.069-.803v-3.174c0-.832-.682-1.508-1.521-1.508z" fill="#1DAFF4"/><path d="M120.504 14.646h-3.516v16.033h3.516V14.645zm-5.66 0h-3.516v16.033h3.516V14.645zm5.66 21.998h-3.516v16.033h3.516V36.644zm-5.66 0h-3.516v16.033h3.516V36.644z" fill="#FCCA2E"/><path d="M56.543 18.412a2.485 2.485 0 002.499 2.478 2.485 2.485 0 002.499-2.478 2.485 2.485 0 00-2.499-2.478c-1.383.01-2.499 1.117-2.499 2.478z" fill="#630DD3"/><path d="M59.526 24.287c-1.758-.333-3.27 1.166-2.933 2.91a2.48 2.48 0 001.965 1.938c1.758.333 3.27-1.165 2.933-2.909-.187-.96-.987-1.753-1.965-1.939z" fill="#FC3E54"/><path d="M56.543 40.235a2.491 2.491 0 002.499 2.478 2.485 2.485 0 002.499-2.478 2.485 2.485 0 00-2.499-2.478c-1.383.01-2.499 1.116-2.499 2.478z" fill="#630DD3"/><path d="M59.526 46.295c-1.758-.333-3.27 1.166-2.933 2.91a2.48 2.48 0 001.965 1.939c1.758.333 3.27-1.166 2.933-2.91a2.48 2.48 0 00-1.965-1.939z" fill="#FC3E54"/></svg>