<svg width="161" height="92" viewBox="0 0 161 92" fill="none" xmlns="http://www.w3.org/2000/svg">
<path d="M157.01 91.7615H3.10912C1.43498 91.7615 0 90.4512 0 88.6645V8.85843C0 7.07172 1.3154 5.76147 3.10912 5.76147H157.01C158.685 5.76147 160.12 7.07172 160.12 8.85843V88.7836C160 90.4512 158.685 91.7615 157.01 91.7615Z" fill="#E4F5FB"/>
<path fill-rule="evenodd" clip-rule="evenodd" d="M40.8267 64.6776H65.3053C65.8343 64.6776 66.3152 65.1104 66.3152 65.6875C66.3152 66.2165 65.8824 66.6974 65.3053 66.6974H40.8267C40.2977 66.6974 39.8168 66.2646 39.8168 65.6875C39.8168 65.1585 40.2977 64.6776 40.8267 64.6776Z" fill="#D9EFF8"/>
<path fill-rule="evenodd" clip-rule="evenodd" d="M40.8267 76.3638H65.3053C65.8343 76.3638 66.3152 76.7967 66.3152 77.3738C66.3152 77.9028 65.8824 78.3837 65.3053 78.3837H40.8267C40.2977 78.3837 39.8168 77.9509 39.8168 77.3738C39.8168 76.8448 40.2977 76.3638 40.8267 76.3638Z" fill="#D9EFF8"/>
<path fill-rule="evenodd" clip-rule="evenodd" d="M40.8267 25.2425H71.2687C71.7977 25.2425 72.2786 25.6753 72.2786 26.2524C72.2786 26.7814 71.8458 27.2623 71.2687 27.2623H40.8267C40.2977 27.2623 39.8168 26.8295 39.8168 26.2524C39.8168 25.6753 40.2977 25.2425 40.8267 25.2425Z" fill="#D9EFF8"/>
<path fill-rule="evenodd" clip-rule="evenodd" d="M40.8267 30.6287H71.2687C71.7977 30.6287 72.2786 31.0615 72.2786 31.6386C72.2786 32.1676 71.8458 32.6485 71.2687 32.6485H40.8267C40.2977 32.6485 39.8168 32.2157 39.8168 31.6386C39.8168 31.0615 40.2977 30.6287 40.8267 30.6287Z" fill="#D9EFF8"/>
<path fill-rule="evenodd" clip-rule="evenodd" d="M40.8267 36.0149H49.0985C49.6275 36.0149 50.1084 36.4478 50.1084 37.0248C50.1084 37.5539 49.6756 38.0348 49.0985 38.0348H40.8267C40.2977 38.0348 39.8168 37.6019 39.8168 37.0248C39.8168 36.4478 40.2977 36.0149 40.8267 36.0149Z" fill="#D9EFF8"/>
<path fill-rule="evenodd" clip-rule="evenodd" d="M40.8267 81.0287H49.0985C49.6275 81.0287 50.1084 81.4615 50.1084 82.0386C50.1084 82.5676 49.6756 83.0486 49.0985 83.0486H40.8267C40.2977 83.0486 39.8168 82.6157 39.8168 82.0386C39.8168 81.4615 40.2977 81.0287 40.8267 81.0287Z" fill="#D9EFF8"/>
<path fill-rule="evenodd" clip-rule="evenodd" d="M52.6092 36.0149H60.8809C61.4099 36.0149 61.8908 36.4478 61.8908 37.0248C61.8908 37.5539 61.458 38.0348 60.8809 38.0348H52.6092C52.0802 38.0348 51.5992 37.6019 51.5992 37.0248C51.5992 36.4478 52.0321 36.0149 52.6092 36.0149Z" fill="#D9EFF8"/>
<path fill-rule="evenodd" clip-rule="evenodd" d="M52.6092 81.0287H60.8809C61.4099 81.0287 61.8908 81.4615 61.8908 82.0386C61.8908 82.5676 61.458 83.0486 60.8809 83.0486H52.6092C52.0802 83.0486 51.5992 82.6157 51.5992 82.0386C51.5992 81.4615 52.0321 81.0287 52.6092 81.0287Z" fill="#D9EFF8"/>
<path fill-rule="evenodd" clip-rule="evenodd" d="M40.8267 42.5073H51.9839C52.513 42.5073 52.9939 42.9401 52.9939 43.5172C52.9939 44.0462 52.561 44.5271 51.9839 44.5271H40.8267C40.2977 44.5271 39.8168 44.0943 39.8168 43.5172C39.8168 42.9401 40.2977 42.5073 40.8267 42.5073Z" fill="#D9EFF8"/>
<path fill-rule="evenodd" clip-rule="evenodd" d="M55.8794 42.5073H67.0367C67.5657 42.5073 68.0466 42.9401 68.0466 43.5172C68.0466 44.0462 67.6138 44.5271 67.0367 44.5271H55.8794C55.3504 44.5271 54.8695 44.0943 54.8695 43.5172C54.8695 42.9401 55.3023 42.5073 55.8794 42.5073Z" fill="#D9EFF8"/>
<path fill-rule="evenodd" clip-rule="evenodd" d="M40.8267 47.3646H54.2923C54.8213 47.3646 55.3023 47.7974 55.3023 48.3745C55.3023 48.9035 54.8694 49.3845 54.2923 49.3845H40.8267C40.2977 49.3845 39.8168 48.9516 39.8168 48.3745C39.8168 47.8455 40.2977 47.3646 40.8267 47.3646Z" fill="#D9EFF8"/>
<path fill-rule="evenodd" clip-rule="evenodd" d="M58.5244 47.3646H71.9901C72.5191 47.3646 73 47.7974 73 48.3745C73 48.9035 72.5672 49.3845 71.9901 49.3845H58.5244C57.9954 49.3845 57.5145 48.9516 57.5145 48.3745C57.5626 47.8455 57.9954 47.3646 58.5244 47.3646Z" fill="#D9EFF8"/>
<path fill-rule="evenodd" clip-rule="evenodd" d="M40.8267 52.8951H49.916C50.445 52.8951 50.9259 53.328 50.9259 53.9051C50.9259 54.4341 50.4931 54.915 49.916 54.915H40.8267C40.2977 54.915 39.8168 54.4822 39.8168 53.9051C39.8168 53.328 40.2977 52.8951 40.8267 52.8951Z" fill="#D9EFF8"/>
<path fill-rule="evenodd" clip-rule="evenodd" d="M53.8114 52.8951H62.9007C63.4298 52.8951 63.9107 53.328 63.9107 53.9051C63.9107 54.4341 63.4778 54.915 62.9007 54.915H53.8114C53.2824 54.915 52.8015 54.4822 52.8015 53.9051C52.8015 53.328 53.2824 52.8951 53.8114 52.8951Z" fill="#D9EFF8"/>
<path fill-rule="evenodd" clip-rule="evenodd" d="M40.8267 59.2432H54.2923C54.8213 59.2432 55.3023 59.676 55.3023 60.2531C55.3023 60.7821 54.8694 61.263 54.2923 61.263H40.8267C40.2977 61.263 39.8168 60.8302 39.8168 60.2531C39.8168 59.7241 40.2977 59.2432 40.8267 59.2432Z" fill="#D9EFF8"/>
<path fill-rule="evenodd" clip-rule="evenodd" d="M40.8267 70.9295H54.2923C54.8213 70.9295 55.3023 71.3623 55.3023 71.9394C55.3023 72.4684 54.8694 72.9493 54.2923 72.9493H40.8267C40.2977 72.9493 39.8168 72.5165 39.8168 71.9394C39.8168 71.4104 40.2977 70.9295 40.8267 70.9295Z" fill="#D9EFF8"/>
<path fill-rule="evenodd" clip-rule="evenodd" d="M58.5244 59.2432H71.9901C72.5191 59.2432 73 59.676 73 60.2531C73 60.7821 72.5672 61.263 71.9901 61.263H58.5244C57.9954 61.263 57.5145 60.8302 57.5145 60.2531C57.5626 59.7241 57.9954 59.2432 58.5244 59.2432Z" fill="#D9EFF8"/>
<path fill-rule="evenodd" clip-rule="evenodd" d="M58.5244 70.9295H71.9901C72.5191 70.9295 73 71.3623 73 71.9394C73 72.4684 72.5672 72.9493 71.9901 72.9493H58.5244C57.9954 72.9493 57.5145 72.5165 57.5145 71.9394C57.5626 71.4104 57.9954 70.9295 58.5244 70.9295Z" fill="#D9EFF8"/>
<rect x="10" y="45.7615" width="26" height="19" rx="3" fill="#48C4FF"/>
<rect x="10" y="24.7615" width="26" height="19" rx="3" fill="#03E59F"/>
<rect x="10" y="66.7615" width="26" height="19" rx="3" fill="#FC3E54"/>
<path d="M30.2 27.6115H15.8C15.5613 27.6115 15.3324 27.7116 15.1636 27.8897C14.9948 28.0679 14.9 28.3095 14.9 28.5615V39.9615C14.9 40.2134 14.9948 40.4551 15.1636 40.6332C15.3324 40.8114 15.5613 40.9115 15.8 40.9115H30.2C30.4387 40.9115 30.6676 40.8114 30.8364 40.6332C31.0052 40.4551 31.1 40.2134 31.1 39.9615V28.5615C31.1 28.3095 31.0052 28.0679 30.8364 27.8897C30.6676 27.7116 30.4387 27.6115 30.2 27.6115ZM25.925 30.9365C26.2234 30.9365 26.5095 31.0616 26.7205 31.2843C26.9315 31.507 27.05 31.809 27.05 32.124C27.05 32.4389 26.9315 32.741 26.7205 32.9637C26.5095 33.1864 26.2234 33.3115 25.925 33.3115C25.6267 33.3115 25.3405 33.1864 25.1295 32.9637C24.9185 32.741 24.8 32.4389 24.8 32.124C24.8 31.809 24.9185 31.507 25.1295 31.2843C25.3405 31.0616 25.6267 30.9365 25.925 30.9365ZM17.6 38.0615L20.5826 30.8234L23.9747 36.6203L26.8826 35.0956L28.4 38.0615H17.6Z" fill="white"/>
<path d="M30.2 48.6115H15.8C15.5613 48.6115 15.3324 48.7115 15.1636 48.8897C14.9948 49.0679 14.9 49.3095 14.9 49.5615V60.9615C14.9 61.2134 14.9948 61.455 15.1636 61.6332C15.3324 61.8114 15.5613 61.9115 15.8 61.9115H30.2C30.4387 61.9115 30.6676 61.8114 30.8364 61.6332C31.0052 61.455 31.1 61.2134 31.1 60.9615V49.5615C31.1 49.3095 31.0052 49.0679 30.8364 48.8897C30.6676 48.7115 30.4387 48.6115 30.2 48.6115ZM25.925 51.9365C26.2234 51.9365 26.5095 52.0616 26.7205 52.2843C26.9315 52.507 27.05 52.809 27.05 53.124C27.05 53.4389 26.9315 53.7409 26.7205 53.9636C26.5095 54.1863 26.2234 54.3115 25.925 54.3115C25.6267 54.3115 25.3405 54.1863 25.1295 53.9636C24.9185 53.7409 24.8 53.4389 24.8 53.124C24.8 52.809 24.9185 52.507 25.1295 52.2843C25.3405 52.0616 25.6267 51.9365 25.925 51.9365ZM17.6 59.0615L20.5826 51.8234L23.9747 57.6203L26.8826 56.0956L28.4 59.0615H17.6Z" fill="white"/>
<path d="M30.1111 70.7615H15.8889C15.6531 70.7615 15.427 70.8518 15.2603 71.0125C15.0937 71.1733 15 71.3913 15 71.6186V81.9043C15 82.1317 15.0937 82.3497 15.2603 82.5104C15.427 82.6712 15.6531 82.7615 15.8889 82.7615H30.1111C30.3469 82.7615 30.573 82.6712 30.7397 82.5104C30.9064 82.3497 31 82.1317 31 81.9043V71.6186C31 71.3913 30.9064 71.1733 30.7397 71.0125C30.573 70.8518 30.3469 70.7615 30.1111 70.7615ZM25.8889 73.7615C26.1836 73.7615 26.4662 73.8744 26.6746 74.0753C26.8829 74.2762 27 74.5487 27 74.8329C27 75.1171 26.8829 75.3896 26.6746 75.5905C26.4662 75.7914 26.1836 75.9043 25.8889 75.9043C25.5942 75.9043 25.3116 75.7914 25.1032 75.5905C24.8948 75.3896 24.7778 75.1171 24.7778 74.8329C24.7778 74.5487 24.8948 74.2762 25.1032 74.0753C25.3116 73.8744 25.5942 73.7615 25.8889 73.7615ZM17.6667 80.19L20.6124 73.6595L23.9627 78.8898L26.8347 77.514L28.3333 80.19H17.6667Z" fill="white"/>
<path fill-rule="evenodd" clip-rule="evenodd" d="M77.0099 64.6775H101.489C102.018 64.6775 102.498 65.1104 102.498 65.6875C102.498 66.2165 102.066 66.6974 101.489 66.6974H77.0099C76.4809 66.6974 76 66.2646 76 65.6875C76 65.1585 76.4809 64.6775 77.0099 64.6775Z" fill="#D9EFF8"/>
<path fill-rule="evenodd" clip-rule="evenodd" d="M77.0099 76.3638H101.489C102.018 76.3638 102.498 76.7966 102.498 77.3737C102.498 77.9027 102.066 78.3837 101.489 78.3837H77.0099C76.4809 78.3837 76 77.9508 76 77.3737C76 76.8447 76.4809 76.3638 77.0099 76.3638Z" fill="#D9EFF8"/>
<path fill-rule="evenodd" clip-rule="evenodd" d="M77.0099 25.2424H107.452C107.981 25.2424 108.462 25.6753 108.462 26.2524C108.462 26.7814 108.029 27.2623 107.452 27.2623H77.0099C76.4809 27.2623 76 26.8295 76 26.2524C76 25.6753 76.4809 25.2424 77.0099 25.2424Z" fill="#D9EFF8"/>
<path fill-rule="evenodd" clip-rule="evenodd" d="M77.0099 30.6287H107.452C107.981 30.6287 108.462 31.0615 108.462 31.6386C108.462 32.1676 108.029 32.6485 107.452 32.6485H77.0099C76.4809 32.6485 76 32.2157 76 31.6386C76 31.0615 76.4809 30.6287 77.0099 30.6287Z" fill="#D9EFF8"/>
<path fill-rule="evenodd" clip-rule="evenodd" d="M77.0099 36.0149H85.2817C85.8107 36.0149 86.2916 36.4477 86.2916 37.0248C86.2916 37.5538 85.8588 38.0347 85.2817 38.0347H77.0099C76.4809 38.0347 76 37.6019 76 37.0248C76 36.4477 76.4809 36.0149 77.0099 36.0149Z" fill="#D9EFF8"/>
<path fill-rule="evenodd" clip-rule="evenodd" d="M77.0099 81.0287H85.2817C85.8107 81.0287 86.2916 81.4615 86.2916 82.0386C86.2916 82.5676 85.8588 83.0485 85.2817 83.0485H77.0099C76.4809 83.0485 76 82.6157 76 82.0386C76 81.4615 76.4809 81.0287 77.0099 81.0287Z" fill="#D9EFF8"/>
<path fill-rule="evenodd" clip-rule="evenodd" d="M88.7924 36.0149H97.0641C97.5932 36.0149 98.0741 36.4477 98.0741 37.0248C98.0741 37.5538 97.6412 38.0347 97.0641 38.0347H88.7924C88.2634 38.0347 87.7825 37.6019 87.7825 37.0248C87.7825 36.4477 88.2153 36.0149 88.7924 36.0149Z" fill="#D9EFF8"/>
<path fill-rule="evenodd" clip-rule="evenodd" d="M88.7924 81.0287H97.0641C97.5932 81.0287 98.0741 81.4615 98.0741 82.0386C98.0741 82.5676 97.6412 83.0485 97.0641 83.0485H88.7924C88.2634 83.0485 87.7825 82.6157 87.7825 82.0386C87.7825 81.4615 88.2153 81.0287 88.7924 81.0287Z" fill="#D9EFF8"/>
<path fill-rule="evenodd" clip-rule="evenodd" d="M77.0099 42.5073H88.1672C88.6962 42.5073 89.1771 42.9401 89.1771 43.5172C89.1771 44.0462 88.7443 44.5271 88.1672 44.5271H77.0099C76.4809 44.5271 76 44.0943 76 43.5172C76 42.9401 76.4809 42.5073 77.0099 42.5073Z" fill="#D9EFF8"/>
<path fill-rule="evenodd" clip-rule="evenodd" d="M92.0627 42.5073H103.22C103.749 42.5073 104.23 42.9401 104.23 43.5172C104.23 44.0462 103.797 44.5271 103.22 44.5271H92.0627C91.5336 44.5271 91.0527 44.0943 91.0527 43.5172C91.0527 42.9401 91.4856 42.5073 92.0627 42.5073Z" fill="#D9EFF8"/>
<path fill-rule="evenodd" clip-rule="evenodd" d="M77.0099 47.3646H90.4756C91.0046 47.3646 91.4855 47.7974 91.4855 48.3745C91.4855 48.9035 91.0527 49.3844 90.4756 49.3844H77.0099C76.4809 49.3844 76 48.9516 76 48.3745C76 47.8455 76.4809 47.3646 77.0099 47.3646Z" fill="#D9EFF8"/>
<path fill-rule="evenodd" clip-rule="evenodd" d="M94.7077 47.3646H108.173C108.702 47.3646 109.183 47.7974 109.183 48.3745C109.183 48.9035 108.75 49.3844 108.173 49.3844H94.7077C94.1787 49.3844 93.6978 48.9516 93.6978 48.3745C93.7458 47.8455 94.1787 47.3646 94.7077 47.3646Z" fill="#D9EFF8"/>
<path fill-rule="evenodd" clip-rule="evenodd" d="M77.0099 52.8951H86.0992C86.6282 52.8951 87.1092 53.3279 87.1092 53.905C87.1092 54.434 86.6763 54.915 86.0992 54.915H77.0099C76.4809 54.915 76 54.4821 76 53.905C76 53.3279 76.4809 52.8951 77.0099 52.8951Z" fill="#D9EFF8"/>
<path fill-rule="evenodd" clip-rule="evenodd" d="M89.9947 52.8951H99.084C99.613 52.8951 100.094 53.3279 100.094 53.905C100.094 54.434 99.6611 54.915 99.084 54.915H89.9947C89.4657 54.915 88.9847 54.4821 88.9847 53.905C88.9847 53.3279 89.4657 52.8951 89.9947 52.8951Z" fill="#D9EFF8"/>
<path fill-rule="evenodd" clip-rule="evenodd" d="M77.0099 59.2432H90.4756C91.0046 59.2432 91.4855 59.676 91.4855 60.2531C91.4855 60.7821 91.0527 61.263 90.4756 61.263H77.0099C76.4809 61.263 76 60.8302 76 60.2531C76 59.7241 76.4809 59.2432 77.0099 59.2432Z" fill="#D9EFF8"/>
<path fill-rule="evenodd" clip-rule="evenodd" d="M77.0099 70.9294H90.4756C91.0046 70.9294 91.4855 71.3623 91.4855 71.9394C91.4855 72.4684 91.0527 72.9493 90.4756 72.9493H77.0099C76.4809 72.9493 76 72.5165 76 71.9394C76 71.4104 76.4809 70.9294 77.0099 70.9294Z" fill="#D9EFF8"/>
<path fill-rule="evenodd" clip-rule="evenodd" d="M94.7077 59.2432H108.173C108.702 59.2432 109.183 59.676 109.183 60.2531C109.183 60.7821 108.75 61.263 108.173 61.263H94.7077C94.1787 61.263 93.6978 60.8302 93.6978 60.2531C93.7458 59.7241 94.1787 59.2432 94.7077 59.2432Z" fill="#D9EFF8"/>
<path fill-rule="evenodd" clip-rule="evenodd" d="M94.7077 70.9294H108.173C108.702 70.9294 109.183 71.3623 109.183 71.9394C109.183 72.4684 108.75 72.9493 108.173 72.9493H94.7077C94.1787 72.9493 93.6978 72.5165 93.6978 71.9394C93.7458 71.4104 94.1787 70.9294 94.7077 70.9294Z" fill="#D9EFF8"/>
<path d="M0 8.76147C0 7.10462 1.34315 5.76147 3 5.76147H157C158.657 5.76147 160 7.10462 160 8.76147V17.7615H0V8.76147Z" fill="#F6CD40"/>
<circle cx="12.6846" cy="11.854" r="2.68456" fill="#31C5FF"/>
<circle cx="20.7286" cy="11.854" r="2.68456" fill="#FC3E54"/>
<circle cx="28.7286" cy="11.854" r="2.68456" fill="#03E59F"/>
<g clip-path="url(#clip0)">
<path d="M107.774 87.1738C104.907 87.1738 102.62 84.8232 102.62 81.9634V15.5987C102.62 12.6997 104.945 10.3883 107.774 10.3883H147.226C150.094 10.3883 152.38 12.7389 152.38 15.5987V81.9242C152.38 84.8232 150.055 87.1346 147.226 87.1346H107.774V87.1738Z" fill="white"/>
<path d="M147.226 10.9759C149.745 10.9759 151.799 13.0523 151.799 15.5987V81.9242C151.799 84.4707 149.745 86.547 147.226 86.547H107.774C105.255 86.547 103.201 84.4707 103.201 81.9242V15.5987C103.201 13.0523 105.255 10.9759 107.774 10.9759H147.226ZM147.226 9.76147H107.774C104.597 9.76147 102 12.3863 102 15.5987V81.9242C102 85.1367 104.597 87.7615 107.774 87.7615H147.226C150.403 87.7615 153 85.1367 153 81.9242V15.5987C153 12.3863 150.403 9.76147 147.226 9.76147Z" fill="#D3E9F8"/>
<path d="M122.966 20.8092C122.54 21.2793 122.036 21.5144 121.493 21.5144C121.183 21.5144 120.912 21.436 120.641 21.3185C120.369 21.201 120.176 21.0051 119.982 20.77C119.788 20.535 119.633 20.2999 119.556 20.0257C119.439 19.7514 119.401 19.438 119.401 19.1638C119.401 18.8504 119.439 18.5761 119.556 18.2627C119.672 17.9885 119.827 17.7143 119.982 17.5184C120.176 17.2833 120.408 17.1266 120.641 17.0091C120.912 16.8916 121.183 16.8132 121.493 16.8132C121.726 16.8132 121.92 16.8524 122.113 16.8916C122.307 16.9307 122.462 17.0091 122.617 17.0874C122.772 17.1658 122.888 17.2833 123.005 17.4009C123.121 17.5184 123.198 17.6751 123.276 17.7926L122.927 18.0277C122.772 17.7534 122.578 17.5184 122.346 17.4009C122.036 17.2833 121.764 17.205 121.454 17.205C121.183 17.205 120.989 17.2441 120.757 17.3617C120.563 17.4792 120.369 17.5967 120.253 17.7926C120.098 17.9885 120.021 18.1844 119.943 18.4194C119.866 18.6545 119.827 18.8896 119.827 19.1246C119.827 19.3988 119.866 19.6339 119.943 19.869C120.021 20.104 120.137 20.2999 120.292 20.4958C120.447 20.6525 120.641 20.8092 120.834 20.9267C121.028 21.0442 121.261 21.0834 121.532 21.0834C121.803 21.0834 122.036 21.0051 122.268 20.8875C122.501 20.77 122.733 20.5741 122.966 20.2999V19.5164H121.958V19.1638H123.353V21.436H122.966V20.8092ZM125.679 21.5144C125.446 21.5144 125.214 21.4752 125.02 21.3968C124.826 21.3185 124.632 21.1618 124.477 21.0051C124.322 20.8484 124.206 20.6525 124.128 20.4566C124.051 20.2607 124.012 20.0257 124.012 19.7906C124.012 19.5555 124.051 19.3205 124.128 19.1246C124.206 18.9287 124.322 18.7328 124.477 18.5761C124.632 18.4194 124.787 18.3019 125.02 18.1844C125.214 18.106 125.446 18.0277 125.679 18.0277C125.911 18.0277 126.144 18.0669 126.337 18.1844C126.531 18.2627 126.725 18.4194 126.88 18.5761C127.035 18.7328 127.151 18.9287 127.229 19.1246C127.306 19.3205 127.345 19.5555 127.345 19.7906C127.345 19.8298 127.345 19.869 127.345 19.9081C127.345 19.9473 127.345 19.9473 127.345 19.9865H124.477C124.477 20.1824 124.516 20.3391 124.594 20.4958C124.671 20.6525 124.749 20.77 124.865 20.8875C124.981 21.0051 125.097 21.0834 125.252 21.1618C125.407 21.2401 125.562 21.2401 125.717 21.2401C125.834 21.2401 125.95 21.2401 126.027 21.201C126.144 21.1618 126.221 21.1226 126.337 21.0834C126.415 21.0442 126.492 20.9659 126.57 20.8875C126.647 20.8092 126.686 20.7308 126.725 20.6525L127.113 20.77C127.074 20.8875 126.996 21.0051 126.88 21.1226C126.802 21.2401 126.686 21.3185 126.57 21.3968C126.454 21.4752 126.299 21.5144 126.144 21.5535C125.989 21.5144 125.834 21.5144 125.679 21.5144ZM126.919 19.5947C126.919 19.3988 126.88 19.2421 126.802 19.0854C126.725 18.9287 126.647 18.8112 126.531 18.6937C126.415 18.5761 126.299 18.4978 126.144 18.4586C125.989 18.3803 125.834 18.3803 125.679 18.3803C125.524 18.3803 125.369 18.4194 125.214 18.4586C125.059 18.537 124.942 18.6153 124.826 18.6937C124.71 18.8112 124.632 18.9287 124.555 19.0854C124.477 19.2421 124.439 19.3988 124.439 19.5947H126.919ZM129.438 21.5144C129.205 21.5144 128.973 21.4752 128.779 21.3968C128.585 21.3185 128.391 21.1618 128.236 21.0051C128.081 20.8484 127.965 20.6525 127.888 20.4566C127.81 20.2607 127.771 20.0257 127.771 19.7906C127.771 19.5555 127.81 19.3205 127.888 19.1246C127.965 18.9287 128.081 18.7328 128.236 18.5761C128.391 18.4194 128.546 18.3019 128.779 18.1844C128.973 18.106 129.205 18.0277 129.438 18.0277C129.67 18.0277 129.903 18.0669 130.097 18.1844C130.29 18.2627 130.484 18.4194 130.639 18.5761C130.794 18.7328 130.91 18.9287 130.988 19.1246C131.065 19.3205 131.104 19.5555 131.104 19.7906C131.104 20.0257 131.065 20.2607 130.988 20.4566C130.91 20.6525 130.794 20.8484 130.639 21.0051C130.484 21.1618 130.329 21.2793 130.097 21.3968C129.903 21.4752 129.67 21.5144 129.438 21.5144ZM128.236 19.7906C128.236 19.9865 128.275 20.1432 128.314 20.3391C128.391 20.4958 128.469 20.6525 128.585 20.77C128.701 20.8875 128.818 21.0051 128.973 21.0442C129.128 21.1226 129.283 21.1618 129.438 21.1618C129.593 21.1618 129.748 21.1226 129.903 21.0442C130.058 20.9659 130.174 20.8875 130.29 20.77C130.407 20.6525 130.484 20.4958 130.562 20.3391C130.639 20.1824 130.639 19.9865 130.639 19.7906C130.639 19.5947 130.6 19.438 130.562 19.2813C130.484 19.1246 130.407 18.9679 130.29 18.8504C130.174 18.7328 130.058 18.6153 129.903 18.5761C129.748 18.4978 129.593 18.4586 129.438 18.4586C129.283 18.4586 129.128 18.4978 128.973 18.5761C128.818 18.6545 128.701 18.7328 128.585 18.8504C128.469 18.9679 128.391 19.1246 128.314 19.2813C128.236 19.3988 128.236 19.5947 128.236 19.7906ZM134.592 17.7143C134.476 17.5576 134.282 17.44 134.088 17.3617C133.856 17.2833 133.623 17.2441 133.352 17.2441C132.926 17.2441 132.654 17.3225 132.461 17.4792C132.267 17.6359 132.189 17.8318 132.189 18.106C132.189 18.2627 132.228 18.3411 132.267 18.4586C132.306 18.537 132.383 18.6153 132.499 18.6937C132.616 18.772 132.732 18.8112 132.887 18.8504C133.042 18.8896 133.236 18.9287 133.468 19.0071C133.701 19.0463 133.933 19.1246 134.127 19.1638C134.321 19.2421 134.476 19.3205 134.631 19.3988C134.786 19.4772 134.863 19.5947 134.941 19.7514C135.018 19.9081 135.057 20.0648 135.057 20.2607C135.057 20.4566 135.018 20.6525 134.941 20.8092C134.863 20.9659 134.747 21.0834 134.592 21.201C134.437 21.3185 134.282 21.3968 134.088 21.436C133.817 21.4752 133.623 21.5144 133.391 21.5144C132.654 21.5144 132.073 21.2793 131.569 20.8484L131.802 20.4958C131.957 20.6917 132.189 20.8092 132.461 20.9659C132.732 21.0834 133.042 21.1618 133.391 21.1618C133.739 21.1618 134.049 21.0834 134.243 20.9659C134.437 20.8484 134.553 20.6133 134.553 20.3783C134.553 20.2215 134.514 20.104 134.476 20.0257C134.437 19.9081 134.321 19.8298 134.204 19.7906C134.088 19.7123 133.933 19.6731 133.778 19.5947C133.623 19.5555 133.391 19.4772 133.197 19.438C132.964 19.3988 132.732 19.3205 132.577 19.2813C132.383 19.203 132.228 19.1638 132.112 19.0463C131.995 18.9679 131.918 18.8504 131.84 18.7328C131.763 18.6153 131.763 18.4586 131.763 18.2627C131.763 18.0669 131.802 17.871 131.879 17.7143C131.957 17.5576 132.073 17.4009 132.228 17.2833C132.383 17.1658 132.538 17.0874 132.732 17.0483C132.926 16.9699 133.158 16.9699 133.391 16.9699C133.701 16.9699 133.972 17.0091 134.204 17.1266C134.437 17.205 134.67 17.3617 134.863 17.5184L134.592 17.7143ZM136.762 21.5144C136.413 21.5144 136.142 21.3968 135.948 21.1618C135.755 20.9267 135.677 20.535 135.677 20.0648V18.0669H136.103V19.9865C136.103 20.77 136.375 21.1226 136.878 21.1226C136.995 21.1226 137.15 21.0834 137.266 21.0442C137.382 21.0051 137.499 20.9267 137.615 20.8484C137.731 20.77 137.809 20.6525 137.886 20.5741C137.964 20.4566 138.041 20.3391 138.08 20.1824V18.0277H138.506V20.8484C138.506 20.9659 138.545 21.0442 138.661 21.0442V21.436C138.584 21.436 138.506 21.436 138.467 21.436C138.351 21.436 138.274 21.3968 138.196 21.3577C138.119 21.2793 138.08 21.2401 138.08 21.1226V20.6525C137.925 20.9267 137.731 21.1226 137.499 21.2793C137.344 21.4752 137.072 21.5144 136.762 21.5144ZM141.219 18.4586C140.909 18.4586 140.676 18.537 140.444 18.6937C140.211 18.8504 140.056 19.0463 139.979 19.3205V21.436H139.552V18.0277H139.979V18.8504C140.095 18.6153 140.25 18.4194 140.444 18.2627C140.638 18.106 140.831 18.0277 141.064 18.0277C141.103 18.0277 141.141 18.0277 141.18 18.0277C141.219 18.0277 141.258 18.0277 141.258 18.0277V18.4586H141.219ZM141.994 21.4752V18.8112H141.529V18.4586H141.994V17.9885C141.994 17.5576 142.071 17.2441 142.265 17.0091C142.459 16.774 142.692 16.6565 143.002 16.6565C143.118 16.6565 143.273 16.6565 143.389 16.6957C143.505 16.7349 143.622 16.774 143.699 16.8524L143.583 17.1658C143.505 17.1266 143.467 17.0874 143.35 17.0483C143.273 17.0091 143.195 17.0091 143.079 17.0091C142.885 17.0091 142.73 17.0874 142.614 17.2441C142.498 17.4009 142.459 17.6359 142.459 17.9493V18.4586H143.389V18.8112H142.459V21.4752H141.994Z" fill="#020202"/>
<path d="M112.812 20.535L112.774 20.6525C111.495 20.2215 110.836 18.8504 111.262 17.5967C111.688 16.3431 113.084 15.6771 114.324 16.108C115.293 16.4214 115.951 17.3225 115.951 18.3411H115.835C115.641 17.205 114.556 16.4606 113.432 16.6173C112.309 16.8132 111.533 17.9101 111.727 19.0463C111.805 19.6731 112.231 20.2215 112.812 20.535Z" fill="url(#paint0_linear)"/>
<path d="M115.641 16.108L115.68 15.9905C117.501 16.8524 118.277 19.0071 117.424 20.8092C116.571 22.6113 114.401 23.3948 112.58 22.5721C111.185 21.9453 110.371 20.4958 110.487 18.9679H110.603C110.681 20.7308 112.231 22.102 114.014 22.0237C115.796 21.9453 117.153 20.4174 117.075 18.6153C117.036 17.5967 116.494 16.6565 115.641 16.108Z" fill="url(#paint1_linear)"/>
<path d="M112.774 32.3662V34.9127C112.774 35.1869 112.696 35.4611 112.58 35.6962C112.463 35.9312 112.27 36.088 112.037 36.2055C111.805 36.323 111.495 36.3622 111.185 36.3622C110.681 36.3622 110.293 36.2447 110.022 35.9704C109.751 35.6962 109.596 35.3436 109.596 34.9127V32.3662H110.41V34.756C110.41 35.0694 110.487 35.2652 110.603 35.422C110.72 35.5787 110.913 35.6178 111.185 35.6178C111.456 35.6178 111.65 35.5395 111.766 35.422C111.882 35.2652 111.96 35.0694 111.96 34.756V32.3662H112.774Z" fill="black"/>
<path d="M116.416 36.323H115.602V34.5601C115.602 34.325 115.564 34.1683 115.486 34.09C115.409 33.9724 115.292 33.9332 115.137 33.9332C114.905 33.9332 114.75 34.0116 114.634 34.1683C114.517 34.325 114.479 34.5601 114.479 34.9127V36.323H113.665V33.3064H114.285L114.401 33.6982H114.44C114.517 33.5415 114.672 33.424 114.827 33.3848C114.982 33.3064 115.176 33.2673 115.37 33.2673C115.719 33.2673 115.99 33.3456 116.145 33.5415C116.339 33.7374 116.416 34.0116 116.416 34.3642V36.323Z" fill="black"/>
<path d="M117.191 32.5229C117.191 32.2487 117.346 32.1311 117.618 32.1311C117.928 32.1311 118.044 32.2487 118.044 32.5229C118.044 32.6404 118.005 32.758 117.928 32.8363C117.85 32.9147 117.734 32.9538 117.579 32.9538C117.346 32.9538 117.191 32.7971 117.191 32.5229ZM118.044 36.323H117.23V33.3064H118.044V36.323Z" fill="black"/>
<path d="M120.176 35.7354C120.331 35.7354 120.486 35.6962 120.679 35.657V36.2838C120.486 36.3622 120.214 36.4405 119.943 36.4405C119.633 36.4405 119.4 36.3622 119.245 36.2055C119.09 36.0488 119.013 35.7745 119.013 35.4611V34.0116H118.625V33.659L119.09 33.3848L119.323 32.758H119.827V33.3848H120.679V34.0116H119.827V35.4611C119.827 35.5787 119.865 35.657 119.943 35.7354C119.982 35.6962 120.059 35.7354 120.176 35.7354Z" fill="black"/>
<path d="M122.617 36.3622C122.152 36.3622 121.764 36.2446 121.493 35.9704C121.222 35.6962 121.106 35.3436 121.106 34.8343C121.106 34.325 121.222 33.9332 121.493 33.659C121.726 33.3848 122.074 33.2281 122.539 33.2281C122.966 33.2281 123.276 33.3456 123.508 33.5807C123.741 33.8157 123.857 34.1683 123.857 34.5992V34.991H121.919C121.919 35.2261 121.997 35.4219 122.113 35.5395C122.229 35.657 122.423 35.7354 122.656 35.7354C122.85 35.7354 123.005 35.7354 123.16 35.6962C123.315 35.657 123.47 35.5787 123.663 35.5003V36.1271C123.508 36.2055 123.353 36.2446 123.198 36.2838C123.043 36.3622 122.85 36.3622 122.617 36.3622ZM122.501 33.8549C122.346 33.8549 122.191 33.8941 122.113 34.0116C121.997 34.1291 121.958 34.2858 121.958 34.4817H123.082C123.082 34.2858 123.043 34.1291 122.927 34.0116C122.811 33.8941 122.694 33.8549 122.501 33.8549Z" fill="black"/>
<path d="M125.446 36.3622C125.097 36.3622 124.826 36.2447 124.632 35.9312C124.438 35.657 124.322 35.2652 124.322 34.7951C124.322 34.2858 124.438 33.9332 124.632 33.659C124.826 33.3848 125.097 33.2281 125.485 33.2281C125.872 33.2281 126.144 33.3848 126.337 33.659H126.376C126.337 33.424 126.299 33.2281 126.299 33.0714V32.092H127.112V36.2838H126.492L126.337 35.8921H126.299C126.105 36.2055 125.834 36.3622 125.446 36.3622ZM125.717 35.7354C125.911 35.7354 126.066 35.657 126.182 35.5395C126.26 35.4219 126.337 35.2261 126.337 34.9127V34.8343C126.337 34.5209 126.299 34.2858 126.182 34.1291C126.066 33.9724 125.911 33.9332 125.717 33.9332C125.524 33.9332 125.407 34.0116 125.291 34.1683C125.175 34.325 125.136 34.5601 125.136 34.8343C125.136 35.1085 125.175 35.3436 125.291 35.5003C125.407 35.657 125.524 35.7354 125.717 35.7354Z" fill="black"/>
<path d="M131.724 35.2261C131.724 35.5787 131.608 35.8529 131.337 36.0488C131.065 36.2446 130.716 36.3622 130.29 36.3622C129.864 36.3622 129.515 36.2838 129.205 36.1271V35.3436C129.476 35.4611 129.709 35.5395 129.864 35.5787C130.058 35.6178 130.213 35.657 130.368 35.657C130.561 35.657 130.678 35.6178 130.794 35.5395C130.871 35.4611 130.949 35.3828 130.949 35.2261C130.949 35.1477 130.91 35.0694 130.871 35.0302C130.833 34.9518 130.755 34.9127 130.678 34.8735C130.6 34.8343 130.445 34.7168 130.174 34.5992C129.941 34.4817 129.748 34.3642 129.631 34.2858C129.515 34.1683 129.399 34.0508 129.36 33.9332C129.283 33.7765 129.244 33.6198 129.244 33.4631C129.244 33.1105 129.36 32.8363 129.593 32.6404C129.825 32.4445 130.135 32.327 130.561 32.327C130.755 32.327 130.949 32.3662 131.143 32.4054C131.337 32.4445 131.53 32.5229 131.724 32.6013L131.453 33.2673C131.259 33.1889 131.065 33.1105 130.949 33.0714C130.794 33.0322 130.678 33.0322 130.561 33.0322C130.406 33.0322 130.29 33.0714 130.213 33.1497C130.135 33.2281 130.096 33.3064 130.096 33.424C130.096 33.5023 130.096 33.5807 130.135 33.6198C130.174 33.659 130.213 33.7374 130.29 33.7765C130.368 33.8157 130.523 33.9332 130.794 34.0508C131.143 34.2075 131.414 34.4034 131.53 34.5992C131.647 34.756 131.724 34.9518 131.724 35.2261Z" fill="black"/>
<path d="M133.623 35.7354C133.778 35.7354 133.933 35.6962 134.127 35.657V36.2838C133.933 36.3622 133.662 36.4405 133.391 36.4405C133.08 36.4405 132.848 36.3622 132.693 36.2055C132.538 36.0488 132.46 35.7745 132.46 35.4611V34.0116H132.073V33.659L132.538 33.3848L132.77 32.758H133.274V33.3848H134.127V34.0116H133.274V35.4611C133.274 35.5787 133.313 35.657 133.391 35.7354C133.429 35.6962 133.507 35.7354 133.623 35.7354Z" fill="black"/>
<path d="M136.607 36.323L136.452 35.9312H136.413C136.258 36.088 136.142 36.2447 135.987 36.2838C135.832 36.3622 135.638 36.4014 135.406 36.4014C135.134 36.4014 134.902 36.323 134.747 36.1663C134.592 36.0096 134.514 35.7745 134.514 35.4611C134.514 35.1477 134.631 34.9127 134.863 34.756C135.096 34.5992 135.406 34.5209 135.871 34.5209H136.375V34.4034C136.375 34.09 136.22 33.9333 135.91 33.9333C135.677 33.9333 135.406 34.0116 135.057 34.1683L134.786 33.6198C135.134 33.424 135.522 33.3456 135.91 33.3456C136.297 33.3456 136.607 33.424 136.84 33.6198C137.033 33.7765 137.15 34.0508 137.15 34.4034V36.4014L136.607 36.323ZM136.375 34.9127H136.065C135.832 34.9127 135.638 34.9518 135.522 35.0302C135.406 35.1085 135.367 35.2261 135.367 35.3828C135.367 35.6178 135.483 35.7354 135.755 35.7354C135.948 35.7354 136.103 35.6962 136.22 35.5787C136.336 35.4611 136.375 35.3044 136.375 35.1477V34.9127Z" fill="black"/>
<path d="M139.281 35.7354C139.436 35.7354 139.591 35.6962 139.785 35.657V36.2838C139.591 36.3622 139.32 36.4405 139.049 36.4405C138.739 36.4405 138.506 36.3622 138.351 36.2055C138.196 36.0488 138.118 35.7745 138.118 35.4611V34.0116H137.731V33.659L138.196 33.3848L138.429 32.758H138.932V33.3848H139.785V34.0116H138.932V35.4611C138.932 35.5787 138.971 35.657 139.049 35.7354C139.087 35.6962 139.165 35.7354 139.281 35.7354Z" fill="black"/>
<path d="M141.723 36.3622C141.258 36.3622 140.87 36.2446 140.599 35.9704C140.327 35.6962 140.211 35.3436 140.211 34.8343C140.211 34.325 140.327 33.9332 140.599 33.659C140.831 33.3848 141.18 33.2281 141.645 33.2281C142.071 33.2281 142.381 33.3456 142.614 33.5807C142.846 33.8157 142.963 34.1683 142.963 34.5992V34.991H141.025C141.025 35.2261 141.103 35.4219 141.219 35.5395C141.335 35.657 141.529 35.7354 141.761 35.7354C141.955 35.7354 142.11 35.7354 142.265 35.6962C142.42 35.657 142.575 35.5787 142.769 35.5003V36.1271C142.614 36.2055 142.459 36.2446 142.304 36.2838C142.188 36.3622 141.955 36.3622 141.723 36.3622ZM141.645 33.8549C141.49 33.8549 141.335 33.8941 141.258 34.0116C141.141 34.1291 141.103 34.2858 141.103 34.4817H142.226C142.226 34.2858 142.188 34.1291 142.071 34.0116C141.955 33.8941 141.8 33.8549 141.645 33.8549Z" fill="black"/>
<path d="M145.676 35.4219C145.676 35.7354 145.559 35.9704 145.365 36.1271C145.172 36.2838 144.823 36.3622 144.397 36.3622C144.164 36.3622 144.009 36.3622 143.854 36.323C143.699 36.2838 143.544 36.2446 143.428 36.2055V35.5395C143.583 35.6178 143.738 35.657 143.932 35.7354C144.125 35.7745 144.28 35.8137 144.435 35.8137C144.745 35.8137 144.862 35.7354 144.862 35.5395C144.862 35.4611 144.823 35.4219 144.784 35.3828C144.745 35.3436 144.668 35.3044 144.59 35.2261C144.513 35.1869 144.358 35.1085 144.203 35.0302C143.97 34.9518 143.815 34.8343 143.699 34.756C143.583 34.6776 143.505 34.5601 143.467 34.4817C143.428 34.3642 143.389 34.2467 143.389 34.09C143.389 33.8157 143.505 33.6198 143.699 33.4631C143.893 33.3064 144.203 33.2281 144.59 33.2281C144.939 33.2281 145.288 33.3064 145.637 33.4631L145.404 34.0508C145.249 33.9724 145.133 33.9332 144.978 33.8941C144.862 33.8549 144.707 33.8157 144.59 33.8157C144.358 33.8157 144.242 33.8941 144.242 34.0116C144.242 34.09 144.28 34.1291 144.358 34.2075C144.435 34.2467 144.59 34.325 144.862 34.4425C145.094 34.5209 145.249 34.6384 145.365 34.7168C145.482 34.7951 145.559 34.9127 145.598 34.991C145.676 35.1477 145.676 35.2652 145.676 35.4219Z" fill="black"/>
<path d="M153 27.2733H102V27.43H153V27.2733Z" fill="black"/>
<path d="M139.397 54.8142H115.486V55.9111H139.397V54.8142Z" fill="#CB001C"/>
<path d="M139.397 53.7956H115.486V54.8534H139.397V53.7956Z" fill="white"/>
<path d="M139.397 52.6595H115.486V53.7565H139.397V52.6595Z" fill="#CB001C"/>
<path d="M139.397 51.6409H115.486V52.6987H139.397V51.6409Z" fill="white"/>
<path d="M139.397 50.4656H115.486V51.6409H139.397V50.4656Z" fill="#CB001C"/>
<path d="M139.397 49.3687H115.486V50.4656H139.397V49.3687Z" fill="white"/>
<path d="M139.397 48.3501H115.486V49.4079H139.397V48.3501Z" fill="#CB001C"/>
<path d="M139.397 47.214H115.486V48.311H139.397V47.214Z" fill="white"/>
<path d="M139.397 46.1954H115.486V47.2532H139.397V46.1954Z" fill="#CB001C"/>
<path d="M139.397 45.0985H115.486V46.1954H139.397V45.0985Z" fill="white"/>
<path d="M139.397 44.0016H115.486V45.0985H139.397V44.0016Z" fill="#CB001C"/>
<path d="M139.397 42.8654H115.486V43.9624H139.397V42.8654Z" fill="white"/>
<path d="M139.397 41.8469H115.486V42.9046H139.397V41.8469Z" fill="#CB001C"/>
<path d="M126.415 41.8469H115.486V49.3687H126.415V41.8469Z" fill="#2A3560"/>
<path d="M116.455 42.6304L116.533 42.9438H116.843L116.61 43.1397L116.688 43.3747L116.455 43.2572L116.223 43.3747L116.3 43.1397L116.068 42.9438H116.339L116.455 42.6304Z" fill="white"/>
<path d="M116.455 43.9232L116.533 44.2366H116.843L116.61 44.4325L116.688 44.7067L116.455 44.55L116.223 44.7067L116.3 44.4325L116.068 44.2366H116.339L116.455 43.9232Z" fill="white"/>
<path d="M116.455 45.216L116.533 45.4511H116.843L116.61 45.647L116.688 45.9604L116.455 45.7645L116.223 45.9604L116.3 45.647L116.068 45.4511H116.339L116.455 45.216Z" fill="white"/>
<path d="M116.455 46.4305L116.533 46.7439H116.843L116.61 46.9398L116.688 47.214L116.455 47.0573L116.223 47.214L116.3 46.9398L116.068 46.7439H116.339L116.455 46.4305Z" fill="white"/>
<path d="M116.455 47.7625L116.533 48.0367H116.843L116.61 48.1934L116.688 48.5068L116.455 48.3501L116.223 48.5068L116.3 48.1934L116.068 48.0367H116.339L116.455 47.7625Z" fill="white"/>
<path d="M117.308 43.2964L117.424 43.6098H117.734L117.463 43.7273L117.579 44.1191L117.308 43.9232L117.114 44.1191L117.192 43.7273L116.959 43.6098H117.23L117.308 43.2964Z" fill="white"/>
<path d="M117.308 44.5892L117.424 44.9026H117.734L117.463 45.0985L117.579 45.3335L117.308 45.216L117.114 45.3335L117.192 45.0985L116.959 44.9026H117.23L117.308 44.5892Z" fill="white"/>
<path d="M117.308 45.882L117.424 46.1954H117.734L117.463 46.313L117.579 46.6264L117.308 46.4305L117.114 46.6264L117.192 46.313L116.959 46.1954H117.23L117.308 45.882Z" fill="white"/>
<path d="M117.308 47.0965L117.424 47.4099H117.734L117.463 47.6058L117.579 47.9192L117.308 47.7233L117.114 47.9192L117.192 47.6058L116.959 47.4099H117.23L117.308 47.0965Z" fill="white"/>
<path d="M118.199 42.6304L118.315 42.9438H118.625L118.354 43.1397L118.432 43.3747L118.199 43.2572L117.967 43.3747L118.083 43.1397L117.812 42.9438H118.122L118.199 42.6304Z" fill="white"/>
<path d="M118.199 43.9232L118.315 44.2366H118.625L118.354 44.4325L118.432 44.7067L118.199 44.55L117.967 44.7067L118.083 44.4325L117.812 44.2366H118.122L118.199 43.9232Z" fill="white"/>
<path d="M118.199 45.216L118.315 45.4511H118.625L118.354 45.647L118.432 45.9604L118.199 45.7645L117.967 45.9604L118.083 45.647L117.812 45.4511H118.122L118.199 45.216Z" fill="white"/>
<path d="M118.199 46.4305L118.315 46.7439H118.625L118.354 46.9398L118.432 47.214L118.199 47.0573L117.967 47.214L118.083 46.9398L117.812 46.7439H118.122L118.199 46.4305Z" fill="white"/>
<path d="M118.199 47.7625L118.315 48.0367H118.625L118.354 48.1934L118.432 48.5068L118.199 48.3501L117.967 48.5068L118.083 48.1934L117.812 48.0367H118.122L118.199 47.7625Z" fill="white"/>
<path d="M119.09 43.2964L119.168 43.6098H119.478L119.245 43.7273L119.323 44.1191L119.09 43.9232L118.819 44.1191L118.935 43.7273L118.703 43.6098H119.013L119.09 43.2964Z" fill="white"/>
<path d="M119.09 44.5892L119.168 44.9026H119.478L119.245 45.0985L119.323 45.3335L119.09 45.216L118.819 45.3335L118.935 45.0985L118.703 44.9026H119.013L119.09 44.5892Z" fill="white"/>
<path d="M119.09 45.882L119.168 46.1954H119.478L119.245 46.313L119.323 46.6264L119.09 46.4305L118.819 46.6264L118.935 46.313L118.703 46.1954H119.013L119.09 45.882Z" fill="white"/>
<path d="M119.09 47.0965L119.168 47.4099H119.478L119.245 47.6058L119.323 47.9192L119.09 47.7233L118.819 47.9192L118.935 47.6058L118.703 47.4099H119.013L119.09 47.0965Z" fill="white"/>
<path d="M119.982 42.6304L120.059 42.9438H120.369L120.098 43.1397L120.214 43.3747L119.982 43.2572L119.749 43.3747L119.827 43.1397L119.594 42.9438H119.866L119.982 42.6304Z" fill="white"/>
<path d="M119.982 43.9232L120.059 44.2366H120.369L120.098 44.4325L120.214 44.7067L119.982 44.55L119.749 44.7067L119.827 44.4325L119.594 44.2366H119.866L119.982 43.9232Z" fill="white"/>
<path d="M119.982 45.216L120.059 45.4511H120.369L120.098 45.647L120.214 45.9604L119.982 45.7645L119.749 45.9604L119.827 45.647L119.594 45.4511H119.866L119.982 45.216Z" fill="white"/>
<path d="M119.982 46.4305L120.059 46.7439H120.369L120.098 46.9398L120.214 47.214L119.982 47.0573L119.749 47.214L119.827 46.9398L119.594 46.7439H119.866L119.982 46.4305Z" fill="white"/>
<path d="M119.982 47.7625L120.059 48.0367H120.369L120.098 48.1934L120.214 48.5068L119.982 48.3501L119.749 48.5068L119.827 48.1934L119.594 48.0367H119.866L119.982 47.7625Z" fill="white"/>
<path d="M120.834 43.2964L120.951 43.6098H121.222L120.989 43.7273L121.106 44.1191L120.834 43.9232L120.602 44.1191L120.679 43.7273L120.486 43.6098H120.757L120.834 43.2964Z" fill="white"/>
<path d="M120.834 44.5892L120.951 44.9026H121.222L120.989 45.0985L121.106 45.3335L120.834 45.216L120.602 45.3335L120.679 45.0985L120.486 44.9026H120.757L120.834 44.5892Z" fill="white"/>
<path d="M120.834 45.882L120.951 46.1954H121.222L120.989 46.313L121.106 46.6264L120.834 46.4305L120.602 46.6264L120.679 46.313L120.486 46.1954H120.757L120.834 45.882Z" fill="white"/>
<path d="M120.834 47.0965L120.951 47.4099H121.222L120.989 47.6058L121.106 47.9192L120.834 47.7233L120.602 47.9192L120.679 47.6058L120.486 47.4099H120.757L120.834 47.0965Z" fill="white"/>
<path d="M121.726 42.6304L121.803 42.9438H122.113L121.881 43.1397L121.958 43.3747L121.726 43.2572L121.493 43.3747L121.571 43.1397L121.338 42.9438H121.648L121.726 42.6304Z" fill="white"/>
<path d="M121.726 43.9232L121.803 44.2366H122.113L121.881 44.4325L121.958 44.7067L121.726 44.55L121.493 44.7067L121.571 44.4325L121.338 44.2366H121.648L121.726 43.9232Z" fill="white"/>
<path d="M121.726 45.216L121.803 45.4511H122.113L121.881 45.647L121.958 45.9604L121.726 45.7645L121.493 45.9604L121.571 45.647L121.338 45.4511H121.648L121.726 45.216Z" fill="white"/>
<path d="M121.726 46.4305L121.803 46.7439H122.113L121.881 46.9398L121.958 47.214L121.726 47.0573L121.493 47.214L121.571 46.9398L121.338 46.7439H121.648L121.726 46.4305Z" fill="white"/>
<path d="M121.726 47.7625L121.803 48.0367H122.113L121.881 48.1934L121.958 48.5068L121.726 48.3501L121.493 48.5068L121.571 48.1934L121.338 48.0367H121.648L121.726 47.7625Z" fill="white"/>
<path d="M122.617 43.2964L122.695 43.6098H123.005L122.772 43.7273L122.85 44.1191L122.617 43.9232L122.346 44.1191L122.462 43.7273L122.229 43.6098H122.501L122.617 43.2964Z" fill="white"/>
<path d="M122.617 44.5892L122.695 44.9026H123.005L122.772 45.0985L122.85 45.3335L122.617 45.216L122.346 45.3335L122.462 45.0985L122.229 44.9026H122.501L122.617 44.5892Z" fill="white"/>
<path d="M122.617 45.882L122.695 46.1954H123.005L122.772 46.313L122.85 46.6264L122.617 46.4305L122.346 46.6264L122.462 46.313L122.229 46.1954H122.501L122.617 45.882Z" fill="white"/>
<path d="M122.617 47.0965L122.695 47.4099H123.005L122.772 47.6058L122.85 47.9192L122.617 47.7233L122.346 47.9192L122.462 47.6058L122.229 47.4099H122.501L122.617 47.0965Z" fill="white"/>
<path d="M123.47 42.6304L123.586 42.9438H123.896L123.625 43.1397L123.702 43.3747L123.47 43.2572L123.237 43.3747L123.315 43.1397L123.121 42.9438H123.392L123.47 42.6304Z" fill="white"/>
<path d="M123.47 43.9232L123.586 44.2366H123.896L123.625 44.4325L123.702 44.7067L123.47 44.55L123.237 44.7067L123.315 44.4325L123.121 44.2366H123.392L123.47 43.9232Z" fill="white"/>
<path d="M123.47 45.216L123.586 45.4511H123.896L123.625 45.647L123.702 45.9604L123.47 45.7645L123.237 45.9604L123.315 45.647L123.121 45.4511H123.392L123.47 45.216Z" fill="white"/>
<path d="M123.47 46.4305L123.586 46.7439H123.896L123.625 46.9398L123.702 47.214L123.47 47.0573L123.237 47.214L123.315 46.9398L123.121 46.7439H123.392L123.47 46.4305Z" fill="white"/>
<path d="M123.47 47.7625L123.586 48.0367H123.896L123.625 48.1934L123.702 48.5068L123.47 48.3501L123.237 48.5068L123.315 48.1934L123.121 48.0367H123.392L123.47 47.7625Z" fill="white"/>
<path d="M124.361 43.2964L124.438 43.6098H124.748L124.516 43.7273L124.593 44.1191L124.361 43.9232L124.128 44.1191L124.206 43.7273L123.973 43.6098H124.283L124.361 43.2964Z" fill="white"/>
<path d="M124.361 44.5892L124.438 44.9026H124.748L124.516 45.0985L124.593 45.3335L124.361 45.216L124.128 45.3335L124.206 45.0985L123.973 44.9026H124.283L124.361 44.5892Z" fill="white"/>
<path d="M124.361 45.882L124.438 46.1954H124.748L124.516 46.313L124.593 46.6264L124.361 46.4305L124.128 46.6264L124.206 46.313L123.973 46.1954H124.283L124.361 45.882Z" fill="white"/>
<path d="M124.361 47.0965L124.438 47.4099H124.748L124.516 47.6058L124.593 47.9192L124.361 47.7233L124.128 47.9192L124.206 47.6058L123.973 47.4099H124.283L124.361 47.0965Z" fill="white"/>
<path d="M125.252 42.6304L125.33 42.9438H125.679L125.369 43.1397L125.446 43.3747L125.252 43.2572L125.02 43.3747L125.097 43.1397L124.865 42.9438H125.136L125.252 42.6304Z" fill="white"/>
<path d="M125.252 43.9232L125.33 44.2366H125.679L125.369 44.4325L125.446 44.7067L125.252 44.55L125.02 44.7067L125.097 44.4325L124.865 44.2366H125.136L125.252 43.9232Z" fill="white"/>
<path d="M125.252 45.216L125.33 45.4511H125.679L125.369 45.647L125.446 45.9604L125.252 45.7645L125.02 45.9604L125.097 45.647L124.865 45.4511H125.136L125.252 45.216Z" fill="white"/>
<path d="M125.252 46.4305L125.33 46.7439H125.679L125.369 46.9398L125.446 47.214L125.252 47.0573L125.02 47.214L125.097 46.9398L124.865 46.7439H125.136L125.252 46.4305Z" fill="white"/>
<path d="M125.252 47.7625L125.33 48.0367H125.679L125.369 48.1934L125.446 48.5068L125.252 48.3501L125.02 48.5068L125.097 48.1934L124.865 48.0367H125.136L125.252 47.7625Z" fill="white"/>
<path d="M121.997 62.2577V63.0804H121.532V60.8865H122.152C122.462 60.8865 122.656 60.9257 122.811 61.0432C122.966 61.1608 123.005 61.3175 123.005 61.5525C123.005 61.6701 122.966 61.7876 122.888 61.9051C122.811 62.0227 122.733 62.101 122.578 62.1402C122.888 62.6495 123.121 62.9629 123.198 63.0804H122.694L122.191 62.2577H121.997ZM121.997 61.9051H122.152C122.307 61.9051 122.423 61.8659 122.462 61.8268C122.539 61.7876 122.578 61.7092 122.578 61.5917C122.578 61.4742 122.539 61.3958 122.462 61.3567C122.384 61.3175 122.268 61.2783 122.152 61.2783H121.997V61.9051Z" fill="black"/>
<path d="M124.245 63.1588C123.973 63.1588 123.78 63.0804 123.625 62.9237C123.47 62.767 123.392 62.5711 123.392 62.2969C123.392 62.0227 123.47 61.7876 123.586 61.6309C123.741 61.4742 123.935 61.3958 124.167 61.3958C124.4 61.3958 124.593 61.4742 124.71 61.5917C124.826 61.7092 124.903 61.9051 124.903 62.1402V62.3752H123.818C123.818 62.4928 123.857 62.6103 123.935 62.6887C124.012 62.767 124.09 62.8062 124.245 62.8062C124.361 62.8062 124.438 62.8062 124.516 62.767C124.593 62.7278 124.71 62.7278 124.787 62.6495V63.0021C124.71 63.0412 124.632 63.0804 124.516 63.0804C124.516 63.1196 124.4 63.1588 124.245 63.1588ZM124.206 61.7484C124.128 61.7484 124.051 61.7876 123.973 61.8268C123.935 61.9051 123.896 61.9835 123.896 62.101H124.516C124.516 61.9835 124.477 61.9051 124.438 61.8268C124.361 61.7484 124.283 61.7484 124.206 61.7484Z" fill="black"/>
<path d="M126.454 62.6103C126.454 62.767 126.376 62.9237 126.26 63.002C126.144 63.0804 125.95 63.1196 125.717 63.1196C125.601 63.1196 125.485 63.1196 125.407 63.0804C125.33 63.0804 125.252 63.0412 125.175 63.002V62.6103C125.252 62.6495 125.368 62.6886 125.446 62.7278C125.562 62.767 125.64 62.767 125.717 62.767C125.872 62.767 125.95 62.7278 125.95 62.6103C125.95 62.5711 125.95 62.5319 125.911 62.5319C125.872 62.4928 125.833 62.4928 125.795 62.4536C125.756 62.4144 125.678 62.3752 125.601 62.3361C125.485 62.2969 125.368 62.2185 125.33 62.1794C125.252 62.1402 125.213 62.0618 125.213 62.0226C125.175 61.9443 125.175 61.9051 125.175 61.7876C125.175 61.6309 125.213 61.5134 125.33 61.435C125.446 61.3566 125.601 61.3175 125.833 61.3175C126.027 61.3175 126.221 61.3566 126.415 61.435L126.26 61.7484C126.182 61.7092 126.105 61.6701 126.027 61.6701C125.95 61.6309 125.872 61.6309 125.795 61.6309C125.678 61.6309 125.601 61.6701 125.601 61.7484C125.601 61.7876 125.64 61.8268 125.678 61.8659C125.717 61.9051 125.833 61.9443 125.95 61.9835C126.066 62.0226 126.182 62.101 126.221 62.1402C126.299 62.1793 126.337 62.2577 126.337 62.2969C126.337 62.3361 126.454 62.5319 126.454 62.6103Z" fill="black"/>
<path d="M126.802 61.0041C126.802 60.8474 126.88 60.769 127.035 60.769C127.19 60.769 127.267 60.8474 127.267 61.0041C127.267 61.0824 127.229 61.1216 127.19 61.1608C127.151 61.2 127.074 61.2391 126.996 61.2391C126.88 61.2391 126.802 61.1608 126.802 61.0041ZM127.267 63.1196H126.802V61.435H127.267V63.1196Z" fill="black"/>
<path d="M128.275 63.1588C128.081 63.1588 127.926 63.0804 127.81 62.9237C127.694 62.767 127.655 62.5711 127.655 62.2969C127.655 62.0227 127.694 61.8268 127.81 61.6701C127.926 61.5134 128.081 61.435 128.275 61.435C128.469 61.435 128.624 61.5134 128.74 61.6701C128.701 61.5525 128.701 61.435 128.701 61.3175V60.769H129.166V63.0804H128.818L128.74 62.8454C128.624 63.0412 128.469 63.1588 128.275 63.1588ZM128.43 62.767C128.546 62.767 128.624 62.7278 128.701 62.6495C128.74 62.5711 128.779 62.4536 128.779 62.2969V62.2577C128.779 62.0618 128.74 61.9443 128.701 61.8659C128.663 61.7876 128.546 61.7484 128.43 61.7484C128.314 61.7484 128.236 61.7876 128.197 61.8659C128.159 61.9443 128.12 62.0618 128.12 62.2577C128.12 62.4144 128.159 62.5319 128.197 62.6103C128.236 62.7278 128.314 62.767 128.43 62.767Z" fill="black"/>
<path d="M130.407 63.1588C130.135 63.1588 129.941 63.0804 129.786 62.9237C129.631 62.767 129.554 62.5711 129.554 62.2969C129.554 62.0227 129.631 61.7876 129.748 61.6309C129.864 61.4742 130.097 61.3958 130.329 61.3958C130.562 61.3958 130.755 61.4742 130.872 61.5917C130.988 61.7092 131.065 61.9051 131.065 62.1402V62.3752H129.98C129.98 62.4928 130.019 62.6103 130.097 62.6887C130.174 62.767 130.252 62.8062 130.407 62.8062C130.523 62.8062 130.6 62.8062 130.678 62.767C130.755 62.7278 130.872 62.7278 130.949 62.6495V63.0021C130.872 63.0412 130.794 63.0804 130.678 63.0804C130.639 63.1196 130.523 63.1588 130.407 63.1588ZM130.329 61.7484C130.252 61.7484 130.174 61.7876 130.097 61.8268C130.058 61.9051 130.019 61.9835 130.019 62.101H130.639C130.639 61.9835 130.6 61.9051 130.562 61.8268C130.523 61.7484 130.445 61.7484 130.329 61.7484Z" fill="black"/>
<path d="M132.964 63.1196H132.499V62.1402C132.499 62.0227 132.46 61.9443 132.422 61.866C132.383 61.7876 132.305 61.7876 132.228 61.7876C132.112 61.7876 131.995 61.8268 131.957 61.9051C131.918 61.9835 131.879 62.1402 131.879 62.3361V63.1196H131.414V61.435H131.763L131.84 61.6309H131.879C131.918 61.5525 131.995 61.4742 132.073 61.435C132.15 61.3958 132.267 61.3567 132.383 61.3567C132.577 61.3567 132.732 61.3958 132.809 61.5134C132.925 61.6309 132.964 61.7876 132.964 61.9835V63.1196Z" fill="black"/>
<path d="M134.127 62.767C134.204 62.767 134.282 62.767 134.398 62.7278V63.0804C134.282 63.1196 134.166 63.1588 133.972 63.1588C133.778 63.1588 133.662 63.1196 133.584 63.0021C133.507 62.9237 133.468 62.767 133.468 62.5711V61.7484H133.235V61.5525L133.468 61.3958L133.584 61.0432H133.856V61.3958H134.321V61.7484H133.856V62.5711C133.856 62.6495 133.856 62.6886 133.894 62.7278C134.011 62.767 134.088 62.767 134.127 62.767Z" fill="black"/>
<path d="M134.708 61.0041C134.708 60.8474 134.786 60.769 134.941 60.769C135.096 60.769 135.173 60.8474 135.173 61.0041C135.173 61.0824 135.134 61.1216 135.096 61.1608C135.057 61.2 134.979 61.2391 134.902 61.2391C134.824 61.2391 134.708 61.1608 134.708 61.0041ZM135.212 63.1196H134.747V61.435H135.212V63.1196Z" fill="black"/>
<path d="M136.723 63.1196L136.646 62.8845C136.568 62.9629 136.491 63.0412 136.413 63.0804C136.336 63.1196 136.22 63.1196 136.103 63.1196C135.948 63.1196 135.832 63.0804 135.716 63.0021C135.638 62.9237 135.561 62.767 135.561 62.6103C135.561 62.4144 135.638 62.2969 135.755 62.2185C135.871 62.1402 136.065 62.101 136.297 62.0618H136.568V61.9835C136.568 61.8268 136.491 61.7484 136.297 61.7484C136.181 61.7484 136.026 61.7876 135.832 61.8659L135.677 61.5525C135.871 61.435 136.065 61.3958 136.297 61.3958C136.53 61.3958 136.685 61.435 136.801 61.5525C136.917 61.6309 136.995 61.7876 136.995 61.9835V63.0804L136.723 63.1196ZM136.607 62.3361H136.413C136.297 62.3361 136.181 62.3752 136.103 62.4144C136.026 62.4536 136.026 62.5319 136.026 62.6103C136.026 62.7278 136.103 62.8062 136.258 62.8062C136.375 62.8062 136.452 62.767 136.491 62.7278C136.568 62.6495 136.568 62.5711 136.568 62.4928V62.3361H136.607Z" fill="black"/>
<path d="M137.963 63.1196H137.498V60.8082H137.963V63.1196Z" fill="black"/>
<path d="M139.242 63.1196V60.9257H139.707V63.1196H139.242Z" fill="black"/>
<path d="M141.761 61.5917C141.761 61.8268 141.684 62.0226 141.529 62.1402C141.374 62.2577 141.18 62.3361 140.909 62.3361H140.715V63.1196H140.25V60.9257H140.948C141.219 60.9257 141.413 60.9649 141.529 61.0824C141.684 61.2 141.761 61.3958 141.761 61.5917ZM140.715 61.9443H140.87C141.025 61.9443 141.103 61.9051 141.18 61.8659C141.258 61.8268 141.296 61.7092 141.296 61.6309C141.296 61.5134 141.258 61.435 141.219 61.3958C141.141 61.3567 141.064 61.3175 140.948 61.3175H140.754V61.9443H140.715Z" fill="black"/>
<path d="M118.16 64.0206H113.471C112.308 64.0206 111.417 63.0804 111.417 61.9443C111.417 60.769 112.347 59.868 113.471 59.868H118.16C119.323 59.868 120.214 60.8082 120.214 61.9443C120.214 63.0804 119.284 64.0206 118.16 64.0206Z" fill="#7EC4F7"/>
<path d="M118.005 63.7464C118.99 63.7464 119.788 62.9396 119.788 61.9443C119.788 60.949 118.99 60.1422 118.005 60.1422C117.021 60.1422 116.223 60.949 116.223 61.9443C116.223 62.9396 117.021 63.7464 118.005 63.7464Z" fill="white"/>
<path d="M139.824 78.32H115.176C113.82 78.32 112.735 77.223 112.735 75.8519V72.5219C112.735 71.1507 113.82 70.0538 115.176 70.0538H139.785C141.141 70.0538 142.227 71.1507 142.227 72.5219V75.8519C142.227 77.223 141.141 78.32 139.824 78.32Z" fill="#7EC4F7"/>
<path d="M122.191 74.4807C122.191 74.6766 122.113 74.8333 121.997 74.9508C121.842 75.0683 121.648 75.1075 121.416 75.1075C121.183 75.1075 120.989 75.0683 120.796 74.99V74.5591C120.951 74.6374 121.067 74.6766 121.183 74.7158C121.299 74.7549 121.377 74.7549 121.454 74.7549C121.571 74.7549 121.648 74.7549 121.687 74.7158C121.726 74.6766 121.764 74.6374 121.764 74.5591C121.764 74.5199 121.764 74.4807 121.726 74.4415C121.687 74.4024 121.648 74.3632 121.609 74.3632C121.571 74.324 121.454 74.2848 121.338 74.2065C121.222 74.1281 121.106 74.0889 121.028 74.0106C120.951 73.9714 120.912 73.8931 120.873 73.8147C120.834 73.7364 120.796 73.658 120.796 73.5405C120.796 73.3446 120.873 73.1879 120.989 73.0704C121.106 72.9528 121.299 72.9137 121.532 72.9137C121.648 72.9137 121.764 72.9137 121.842 72.9528C121.958 72.992 122.036 73.0312 122.152 73.0704L121.997 73.4229C121.881 73.3838 121.803 73.3446 121.726 73.3054C121.648 73.3054 121.571 73.2662 121.493 73.2662C121.416 73.2662 121.338 73.3054 121.299 73.3446C121.261 73.3838 121.222 73.4229 121.222 73.5013C121.222 73.5405 121.222 73.5796 121.261 73.6188C121.261 73.658 121.299 73.6972 121.338 73.6972C121.377 73.7364 121.493 73.7755 121.609 73.8539C121.803 73.9322 121.958 74.0498 122.036 74.1281C122.152 74.2065 122.191 74.324 122.191 74.4807Z" fill="white"/>
<path d="M123.896 75.0684L123.78 74.4807L123.625 73.7364L123.315 75.0684H122.811L122.346 73.3838H122.811L123.005 74.1281C123.043 74.2457 123.082 74.4415 123.082 74.6766C123.082 74.5982 123.121 74.4807 123.121 74.324L123.16 74.2065L123.353 73.423H123.857L124.051 74.2065C124.051 74.2457 124.051 74.2457 124.051 74.2848C124.051 74.324 124.051 74.3632 124.09 74.4024C124.09 74.4415 124.09 74.4807 124.128 74.5591C124.128 74.5982 124.128 74.6374 124.128 74.6766C124.128 74.5982 124.167 74.5199 124.167 74.3632C124.206 74.2457 124.206 74.1673 124.206 74.1281L124.4 73.3838H124.826L124.361 75.0684H123.896Z" fill="white"/>
<path d="M125.097 72.9528C125.097 72.7961 125.175 72.7178 125.33 72.7178C125.485 72.7178 125.562 72.7961 125.562 72.9528C125.562 73.0312 125.524 73.0704 125.485 73.1095C125.446 73.1487 125.369 73.1879 125.291 73.1879C125.214 73.1879 125.097 73.1095 125.097 72.9528ZM125.601 75.0683H125.136V73.3838H125.601V75.0683Z" fill="white"/>
<path d="M126.764 74.7549C126.841 74.7549 126.919 74.7549 127.035 74.7158V75.0683C126.919 75.1075 126.803 75.1467 126.609 75.1467C126.415 75.1467 126.299 75.1075 126.221 74.99C126.144 74.9116 126.105 74.7549 126.105 74.5591V73.7364H125.872V73.5405L126.105 73.3838L126.221 73.0312H126.492V73.3838H126.958V73.7364H126.492V74.5591C126.492 74.6374 126.492 74.6766 126.531 74.7158C126.648 74.7158 126.686 74.7549 126.764 74.7549Z" fill="white"/>
<path d="M128.043 75.1075C127.539 75.1075 127.268 74.8333 127.268 74.2457C127.268 73.9714 127.345 73.7364 127.461 73.5797C127.616 73.4229 127.81 73.3446 128.081 73.3446C128.275 73.3446 128.43 73.3838 128.585 73.4621L128.469 73.8147C128.391 73.7755 128.314 73.7755 128.275 73.7364C128.198 73.7364 128.159 73.6972 128.081 73.6972C127.849 73.6972 127.733 73.8539 127.733 74.2065C127.733 74.5199 127.849 74.7158 128.081 74.7158C128.159 74.7158 128.236 74.7158 128.314 74.6766C128.391 74.6374 128.469 74.5982 128.546 74.5591V74.9508C128.469 74.99 128.391 75.0292 128.314 75.0292C128.236 75.1075 128.159 75.1075 128.043 75.1075Z" fill="white"/>
<path d="M130.445 75.0684H129.98V74.0889C129.98 73.8539 129.903 73.7364 129.709 73.7364C129.593 73.7364 129.476 73.7755 129.438 73.8539C129.399 73.9322 129.36 74.0889 129.36 74.2848V75.0684H128.895V72.757H129.36V73.2271C129.36 73.2662 129.36 73.3446 129.36 73.5013V73.6188H129.399C129.515 73.4621 129.67 73.3838 129.864 73.3838C130.058 73.3838 130.213 73.423 130.29 73.5405C130.407 73.658 130.445 73.8147 130.445 74.0106V75.0684Z" fill="white"/>
<path d="M131.724 75.0683V72.8745H132.189V75.0683H131.724Z" fill="white"/>
<path d="M134.243 73.5796C134.243 73.8147 134.166 74.0106 134.011 74.1281C133.856 74.2456 133.662 74.324 133.391 74.324H133.197V75.1075H132.732V72.9137H133.429C133.701 72.9137 133.894 72.9528 134.011 73.0704C134.166 73.1879 134.243 73.3446 134.243 73.5796ZM133.197 73.9322H133.352C133.507 73.9322 133.584 73.8931 133.662 73.8539C133.739 73.8147 133.778 73.6972 133.778 73.6188C133.778 73.5013 133.739 73.4229 133.701 73.3838C133.623 73.3446 133.546 73.3054 133.429 73.3054H133.236V73.9322H133.197Z" fill="white"/>
</g>
<defs>
<linearGradient id="paint0_linear" x1="113.543" y1="15.9569" x2="113.543" y2="20.6472" gradientUnits="userSpaceOnUse">
<stop stop-color="#7A5FFF"/>
<stop offset="1" stop-color="#01FF89"/>
</linearGradient>
<linearGradient id="paint1_linear" x1="114.149" y1="15.9946" x2="114.149" y2="22.8909" gradientUnits="userSpaceOnUse">
<stop stop-color="#7A5FFF"/>
<stop offset="1" stop-color="#01FF89"/>
</linearGradient>
<clipPath id="clip0">
<rect x="102" y="9.76147" width="51" height="78" fill="white"/>
</clipPath>
</defs>
</svg>
