<svg width="366" height="241" fill="none" xmlns="http://www.w3.org/2000/svg"><g clip-path="url(#clip0_304_1925)"><g filter="url(#filter0_d_304_1925)"><mask id="mask0_304_1925" style="mask-type:alpha" maskUnits="userSpaceOnUse" x="37" y="13" width="290" height="211"><path fill-rule="evenodd" clip-rule="evenodd" d="M37.316 13.748h289.149v209.863H37.316V13.748z" fill="#fff"/></mask><g mask="url(#mask0_304_1925)"><path fill-rule="evenodd" clip-rule="evenodd" d="M326.465 215.528c0 4.472-3.641 8.083-8.118 8.083H45.431c-4.477 0-8.115-3.611-8.115-8.083V21.832c0-4.472 3.638-8.084 8.115-8.084h272.916c4.477 0 8.118 3.612 8.118 8.084v193.696z" fill="#fff"/></g><mask id="mask1_304_1925" style="mask-type:alpha" maskUnits="userSpaceOnUse" x="1" y="13" width="362" height="223"><path fill-rule="evenodd" clip-rule="evenodd" d="M1 235.716h361.777V13.748H1v221.968z" fill="#fff"/></mask><g mask="url(#mask1_304_1925)"><path fill-rule="evenodd" clip-rule="evenodd" d="M50.667 205.446h262.801V27.876H50.667v177.57z" fill="#191551"/></g><mask id="mask2_304_1925" style="mask-type:alpha" maskUnits="userSpaceOnUse" x="1" y="217" width="362" height="19"><path fill-rule="evenodd" clip-rule="evenodd" d="M1 217.551h361.777v18.164H1v-18.164z" fill="#fff"/></mask><g mask="url(#mask2_304_1925)"><path fill-rule="evenodd" clip-rule="evenodd" d="M1 217.551c1.078 10.162 11.793 18.164 24.978 18.164h311.816c13.193 0 23.9-8.002 24.984-18.164H1z" fill="#EFEFEF"/></g><mask id="mask3_304_1925" style="mask-type:alpha" maskUnits="userSpaceOnUse" x="1" y="13" width="362" height="223"><path fill-rule="evenodd" clip-rule="evenodd" d="M1 235.716h361.777V13.748H1v221.968z" fill="#fff"/></mask><g mask="url(#mask3_304_1925)"><path fill-rule="evenodd" clip-rule="evenodd" d="M134.198 223.611h95.382v-6.061h-95.382v6.061z" fill="#CCC"/></g></g><g filter="url(#filter1_d_304_1925)" clip-path="url(#clip1_304_1925)"><mask id="mask4_304_1925" style="mask-type:alpha" maskUnits="userSpaceOnUse" x="32" y="8" width="288" height="223"><path fill-rule="evenodd" clip-rule="evenodd" d="M32.117 8.3H319.67v221.901H32.117V8.301z" fill="#fff"/></mask><mask id="mask5_304_1925" style="mask-type:alpha" maskUnits="userSpaceOnUse" x="-4" y="8" width="360" height="235"><path fill-rule="evenodd" clip-rule="evenodd" d="M-4 243h359.778V8.3H-4V243z" fill="#fff"/></mask><g mask="url(#mask5_304_1925)"><path d="M64 46a8 8 0 018-8h210a8 8 0 018 8v164.754H64V46z" fill="#2C267D"/><path fill-rule="evenodd" clip-rule="evenodd" d="M143.1 148H194c1.1 0 2.1.9 2.1 2.1 0 1.1-.9 2.1-2.1 2.1h-50.9c-1.1 0-2.1-.9-2.1-2.1 0-1.1 1-2.1 2.1-2.1zm0-82h63.3c1.1 0 2.1.9 2.1 2.1 0 1.1-.9 2.1-2.1 2.1h-63.3c-1.1 0-2.1-.9-2.1-2.1 0-1.2 1-2.1 2.1-2.1zm0 11.2h63.3c1.1 0 2.1.9 2.1 2.1 0 1.1-.9 2.1-2.1 2.1h-63.3c-1.1 0-2.1-.9-2.1-2.1 0-1.2 1-2.1 2.1-2.1zm0 11.2h17.2c1.1 0 2.1.9 2.1 2.1 0 1.1-.9 2.1-2.1 2.1h-17.2c-1.1 0-2.1-.9-2.1-2.1 0-1.2 1-2.1 2.1-2.1zm24.5 0h17.2c1.1 0 2.1.9 2.1 2.1 0 1.1-.9 2.1-2.1 2.1h-17.2c-1.1 0-2.1-.9-2.1-2.1 0-1.2.9-2.1 2.1-2.1zm-24.5 13.5h23.2c1.1 0 2.1.9 2.1 2.1 0 1.1-.9 2.1-2.1 2.1h-23.2c-1.1 0-2.1-.9-2.1-2.1 0-1.2 1-2.1 2.1-2.1zm31.301 0h23.2c1.1 0 2.1.9 2.1 2.1 0 1.1-.9 2.1-2.1 2.1h-23.2c-1.1 0-2.1-.9-2.1-2.1 0-1.2.9-2.1 2.1-2.1zM143.1 112h28c1.1 0 2.1.9 2.1 2.1 0 1.1-.9 2.1-2.1 2.1h-28c-1.1 0-2.1-.9-2.1-2.1 0-1.1 1-2.1 2.1-2.1zm36.801 0h28c1.1 0 2.1.9 2.1 2.1 0 1.1-.9 2.1-2.1 2.1h-28c-1.1 0-2.1-.9-2.1-2.1.1-1.1 1-2.1 2.1-2.1zM143.1 123.5H162c1.1 0 2.1.9 2.1 2.1 0 1.1-.9 2.1-2.1 2.1h-18.9c-1.1 0-2.1-.9-2.1-2.1 0-1.2 1-2.1 2.1-2.1zm27 0H189c1.1 0 2.1.9 2.1 2.1 0 1.1-.9 2.1-2.1 2.1h-18.9c-1.1 0-2.1-.9-2.1-2.1 0-1.2 1-2.1 2.1-2.1zm-27 13.2h28c1.1 0 2.1.9 2.1 2.1 0 1.1-.9 2.1-2.1 2.1h-28c-1.1 0-2.1-.9-2.1-2.1 0-1.1 1-2.1 2.1-2.1zm36.801 0h28c1.1 0 2.1.9 2.1 2.1 0 1.1-.9 2.1-2.1 2.1h-28c-1.1 0-2.1-.9-2.1-2.1.1-1.1 1-2.1 2.1-2.1zM206.1 148H257c1.1 0 2.1.9 2.1 2.1 0 1.1-.9 2.1-2.1 2.1h-50.9c-1.1 0-2.1-.9-2.1-2.1 0-1.1 1-2.1 2.1-2.1z" fill="#362F9C"/><path fill-rule="evenodd" clip-rule="evenodd" d="M206.1 66h63.3c1.1 0 2.1.9 2.1 2.1 0 1.1-.9 2.1-2.1 2.1h-63.3c-1.1 0-2.1-.9-2.1-2.1 0-1.2 1-2.1 2.1-2.1zm0 11.2h63.3c1.1 0 2.1.9 2.1 2.1 0 1.1-.9 2.1-2.1 2.1h-63.3c-1.1 0-2.1-.9-2.1-2.1 0-1.2 1-2.1 2.1-2.1zm0 11.2h17.2c1.1 0 2.1.9 2.1 2.1 0 1.1-.9 2.1-2.1 2.1h-17.2c-1.1 0-2.1-.9-2.1-2.1 0-1.2 1-2.1 2.1-2.1zm24.5 0h17.2c1.1 0 2.1.9 2.1 2.1 0 1.1-.9 2.1-2.1 2.1h-17.2c-1.1 0-2.1-.9-2.1-2.1 0-1.2.9-2.1 2.1-2.1zm-24.5 13.5h23.2c1.1 0 2.1.9 2.1 2.1 0 1.1-.9 2.1-2.1 2.1h-23.2c-1.1 0-2.1-.9-2.1-2.1 0-1.2 1-2.1 2.1-2.1zm31.301 0h23.2c1.1 0 2.1.9 2.1 2.1 0 1.1-.9 2.1-2.1 2.1h-23.2c-1.1 0-2.1-.9-2.1-2.1 0-1.2.9-2.1 2.1-2.1zM206.1 112h28c1.1 0 2.1.9 2.1 2.1 0 1.1-.9 2.1-2.1 2.1h-28c-1.1 0-2.1-.9-2.1-2.1 0-1.1 1-2.1 2.1-2.1zm36.801 0h28c1.1 0 2.1.9 2.1 2.1 0 1.1-.9 2.1-2.1 2.1h-28c-1.1 0-2.1-.9-2.1-2.1.1-1.1 1-2.1 2.1-2.1zM206.1 123.5H225c1.1 0 2.1.9 2.1 2.1 0 1.1-.9 2.1-2.1 2.1h-18.9c-1.1 0-2.1-.9-2.1-2.1 0-1.2 1-2.1 2.1-2.1zm27 0H252c1.1 0 2.1.9 2.1 2.1 0 1.1-.9 2.1-2.1 2.1h-18.9c-1.1 0-2.1-.9-2.1-2.1 0-1.2 1-2.1 2.1-2.1zm-27 13.2h28c1.1 0 2.1.9 2.1 2.1 0 1.1-.9 2.1-2.1 2.1h-28c-1.1 0-2.1-.9-2.1-2.1 0-1.1 1-2.1 2.1-2.1zm36.801 0h28c1.1 0 2.1.9 2.1 2.1 0 1.1-.9 2.1-2.1 2.1h-28c-1.1 0-2.1-.9-2.1-2.1.1-1.1 1-2.1 2.1-2.1z" fill="#362F9C"/><path d="M64 46a8 8 0 018-8h210a8 8 0 018 8v4.185H64V46z" fill="#F6CD40"/><path d="M257.685 46.777a2.684 2.684 0 10-.001-5.369 2.684 2.684 0 00.001 5.37z" fill="#31C5FF"/><path d="M265.728 46.777a2.684 2.684 0 10-.001-5.369 2.684 2.684 0 00.001 5.37z" fill="#FC3E54"/><path d="M273.728 46.777a2.684 2.684 0 10-.001-5.369 2.684 2.684 0 00.001 5.37z" fill="#03E59F"/><path d="M130 109H83a4 4 0 00-4 4v30a4 4 0 004 4h47a4 4 0 004-4v-30a4 4 0 00-4-4z" fill="#48C4FF"/><path d="M130 65H83a4 4 0 00-4 4v30a4 4 0 004 4h47a4 4 0 004-4V69a4 4 0 00-4-4z" fill="#03E59F"/><path d="M122.198 70.7h-30.4a1.9 1.9 0 00-1.9 1.9v22.8a1.9 1.9 0 001.9 1.9h30.4a1.898 1.898 0 001.9-1.9V72.6a1.898 1.898 0 00-1.9-1.9zm-9.025 6.65a2.373 2.373 0 011.679 4.054 2.373 2.373 0 01-4.054-1.68 2.373 2.373 0 012.375-2.374zM95.598 91.6l6.297-14.476 7.161 11.594 6.139-3.05 3.203 5.932h-22.8zm26.6 23.1h-30.4a1.9 1.9 0 00-1.9 1.9v22.8a1.898 1.898 0 001.9 1.9h30.4c.504 0 .987-.2 1.343-.557.357-.356.557-.839.557-1.343v-22.8a1.9 1.9 0 00-1.9-1.9zm-9.025 6.65c.63 0 1.234.25 1.679.696a2.371 2.371 0 010 3.358 2.371 2.371 0 01-3.358 0 2.371 2.371 0 010-3.358 2.371 2.371 0 011.679-.696zM95.598 135.6l6.297-14.476 7.161 11.594 6.139-3.05 3.203 5.932h-22.8z" fill="#fff"/></g></g><path d="M221.889 172.178v2.662h-8.932v-2.662h3.124v-6.666c-.132.176-.344.359-.638.55a8.812 8.812 0 01-.924.506 6.55 6.55 0 01-1.056.396 3.406 3.406 0 01-.946.154v-2.75c.264 0 .587-.081.968-.242a9.201 9.201 0 001.122-.616c.367-.235.682-.462.946-.682.279-.235.455-.418.528-.55h3.014v9.9h2.794zm12.961-3.784c0 .968-.146 1.863-.44 2.684a6.437 6.437 0 01-1.188 2.112 5.39 5.39 0 01-1.804 1.386 5.22 5.22 0 01-2.244.484 5.276 5.276 0 01-2.266-.484 5.716 5.716 0 01-1.804-1.386 7.069 7.069 0 01-1.188-2.112 8.322 8.322 0 01-.418-2.684c0-.968.14-1.855.418-2.662.294-.821.69-1.525 1.188-2.112a5.587 5.587 0 011.804-1.408 5.093 5.093 0 012.266-.506c.807 0 1.555.169 2.244.506a5.276 5.276 0 011.804 1.408c.514.587.91 1.291 1.188 2.112.294.807.44 1.694.44 2.662zm-2.97 0c0-.587-.066-1.122-.198-1.606a3.907 3.907 0 00-.572-1.276 2.51 2.51 0 00-.858-.814 2.074 2.074 0 00-1.078-.286c-.41 0-.784.095-1.122.286a2.83 2.83 0 00-.858.814 4.256 4.256 0 00-.55 1.276 6.095 6.095 0 00-.198 1.606c0 .587.066 1.122.198 1.606s.316.902.55 1.254c.25.352.536.623.858.814a2.24 2.24 0 001.122.286c.396 0 .756-.095 1.078-.286a2.51 2.51 0 00.858-.814c.25-.352.44-.77.572-1.254a6.095 6.095 0 00.198-1.606zm16.484 0c0 .968-.147 1.863-.44 2.684a6.473 6.473 0 01-1.188 2.112 5.4 5.4 0 01-1.804 1.386 5.22 5.22 0 01-2.244.484 5.273 5.273 0 01-2.266-.484 5.705 5.705 0 01-1.804-1.386 7.025 7.025 0 01-1.188-2.112c-.279-.821-.418-1.716-.418-2.684 0-.968.139-1.855.418-2.662.293-.821.689-1.525 1.188-2.112a5.576 5.576 0 011.804-1.408 5.09 5.09 0 012.266-.506c.807 0 1.555.169 2.244.506a5.285 5.285 0 011.804 1.408c.513.587.909 1.291 1.188 2.112.293.807.44 1.694.44 2.662zm-2.97 0c0-.587-.066-1.122-.198-1.606a3.928 3.928 0 00-.572-1.276 2.527 2.527 0 00-.858-.814 2.077 2.077 0 00-1.078-.286c-.411 0-.785.095-1.122.286a2.808 2.808 0 00-.858.814 4.23 4.23 0 00-.55 1.276 6.095 6.095 0 00-.198 1.606c0 .587.066 1.122.198 1.606s.315.902.55 1.254c.249.352.535.623.858.814.337.191.711.286 1.122.286.396 0 .755-.095 1.078-.286.337-.191.623-.462.858-.814.249-.352.44-.77.572-1.254a6.095 6.095 0 00.198-1.606zm8.454-2.728a3.813 3.813 0 01-2.574-.968 3.604 3.604 0 01-.77-1.056 3.093 3.093 0 01-.286-1.32c0-.455.095-.887.286-1.298a3.25 3.25 0 01.77-1.056 3.813 3.813 0 012.574-.968c.498 0 .968.088 1.408.264.454.176.843.411 1.166.704.322.293.579.645.77 1.056.19.411.286.843.286 1.298 0 .469-.096.909-.286 1.32a3.64 3.64 0 01-.77 1.056 3.712 3.712 0 01-1.166.704c-.44.176-.91.264-1.408.264zm0-1.474c.22 0 .418-.051.594-.154a1.92 1.92 0 00.506-.396c.146-.176.256-.374.33-.594.088-.235.132-.477.132-.726 0-.513-.154-.946-.462-1.298-.308-.367-.675-.55-1.1-.55-.22 0-.426.051-.616.154a1.834 1.834 0 00-.484.418 1.867 1.867 0 00-.352.572c-.074.22-.11.455-.11.704 0 .513.154.953.462 1.32.308.367.674.55 1.1.55zm8.492 10.868a3.813 3.813 0 01-2.574-.968 3.326 3.326 0 01-.77-1.034 3.093 3.093 0 01-.286-1.32c0-.469.095-.902.286-1.298a3.25 3.25 0 01.77-1.056c.322-.308.704-.55 1.144-.726.44-.176.916-.264 1.43-.264.513 0 .99.088 1.43.264.44.176.821.418 1.144.726.337.293.594.645.77 1.056.19.396.286.829.286 1.298 0 .469-.096.909-.286 1.32a2.942 2.942 0 01-.77 1.034 3.816 3.816 0 01-2.574.968zm0-1.474c.22 0 .418-.051.594-.154a1.92 1.92 0 00.506-.396c.146-.176.256-.374.33-.594a1.88 1.88 0 00.132-.704c0-.264-.044-.506-.132-.726a1.828 1.828 0 00-.352-.594 1.263 1.263 0 00-.484-.396 1.274 1.274 0 00-1.21 0 1.834 1.834 0 00-.484.418 1.81 1.81 0 00-.352.594c-.074.22-.11.455-.11.704 0 .513.154.953.462 1.32.308.352.674.528 1.1.528zm-10.89.22l6.204-7.238 5.72-7.524 1.342 1.188-6.006 7.106-5.918 7.656-1.342-1.188z" fill="#fff"/><path fill-rule="evenodd" clip-rule="evenodd" d="M188.683 162.84H84.807v.014c-3.224.146-5.806 3.605-5.806 7.861s2.582 7.714 5.806 7.861v.014h103.876c3.323 0 6.017-3.526 6.017-7.875s-2.694-7.875-6.017-7.875z" fill="#03E59F"/></g><defs><clipPath id="clip0_304_1925"><path fill="#fff" d="M0 0h366v241H0z"/></clipPath><clipPath id="clip1_304_1925"><path fill="#fff" transform="translate(51 27)" d="M0 0h260v167H0z"/></clipPath><filter id="filter0_d_304_1925" x="-2" y="12.748" width="367.777" height="227.967" filterUnits="userSpaceOnUse" color-interpolation-filters="sRGB"><feFlood flood-opacity="0" result="BackgroundImageFix"/><feColorMatrix in="SourceAlpha" values="0 0 0 0 0 0 0 0 0 0 0 0 0 0 0 0 0 0 127 0" result="hardAlpha"/><feOffset dy="2"/><feGaussianBlur stdDeviation="1.5"/><feColorMatrix values="0 0 0 0 0 0 0 0 0 0 0 0 0 0 0 0 0 0 0.15 0"/><feBlend in2="BackgroundImageFix" result="effect1_dropShadow_304_1925"/><feBlend in="SourceGraphic" in2="effect1_dropShadow_304_1925" result="shape"/></filter><filter id="filter1_d_304_1925" x="61" y="37" width="232" height="178.754" filterUnits="userSpaceOnUse" color-interpolation-filters="sRGB"><feFlood flood-opacity="0" result="BackgroundImageFix"/><feColorMatrix in="SourceAlpha" values="0 0 0 0 0 0 0 0 0 0 0 0 0 0 0 0 0 0 127 0" result="hardAlpha"/><feOffset dy="2"/><feGaussianBlur stdDeviation="1.5"/><feColorMatrix values="0 0 0 0 0 0 0 0 0 0 0 0 0 0 0 0 0 0 0.15 0"/><feBlend in2="BackgroundImageFix" result="effect1_dropShadow_304_1925"/><feBlend in="SourceGraphic" in2="effect1_dropShadow_304_1925" result="shape"/></filter></defs></svg>