<svg width="610" height="296" fill="none" xmlns="http://www.w3.org/2000/svg"><path d="M179.3 289.5l1-1.5c3.5-5.3 9.4-8.6 15.8-8.6h94.3c6.6 0 12.8 3.5 16.2 9.2l.6.9H179.3z" fill="#01013D"/><path opacity=".15" d="M222.7 295.6c122.994 0 222.7-3.134 222.7-7s-99.706-7-222.7-7c-122.994 0-222.7 3.134-222.7 7s99.706 7 222.7 7z" fill="url(#paint0_linear)"/><path fill-rule="evenodd" clip-rule="evenodd" d="M109.9 49h269.4c9.7 0 17.6 7.9 17.6 17.6v157H92.3v-157c0-9.7 7.9-17.6 17.6-17.6z" fill="#01013D"/><path d="M384.4 61.9H104.8v177.8h279.6V61.9z" fill="#3052E4"/><path d="M112.359 78.416a8 8 0 018-8h248.58a8 8 0 018 8v158.938h-264.58V78.416z" fill="#2C267D"/><path fill-rule="evenodd" clip-rule="evenodd" d="M220.1 174H271c1.1 0 2.1.9 2.1 2.1 0 1.1-.9 2.1-2.1 2.1h-50.9c-1.1 0-2.1-.9-2.1-2.1 0-1.1 1-2.1 2.1-2.1zm0-82h63.3c1.1 0 2.1.9 2.1 2.1 0 1.1-.9 2.1-2.1 2.1h-63.3c-1.1 0-2.1-.9-2.1-2.1 0-1.2 1-2.1 2.1-2.1zm0 11.2h63.3c1.1 0 2.1.9 2.1 2.1 0 1.1-.9 2.1-2.1 2.1h-63.3c-1.1 0-2.1-.9-2.1-2.1 0-1.2 1-2.1 2.1-2.1zm0 11.2h17.2c1.1 0 2.1.9 2.1 2.1 0 1.1-.9 2.1-2.1 2.1h-17.2c-1.1 0-2.1-.9-2.1-2.1 0-1.2 1-2.1 2.1-2.1zm24.5 0h17.2c1.1 0 2.1.9 2.1 2.1 0 1.1-.9 2.1-2.1 2.1h-17.2c-1.1 0-2.1-.9-2.1-2.1 0-1.2.9-2.1 2.1-2.1zm-24.5 13.5h23.2c1.1 0 2.1.9 2.1 2.1 0 1.1-.9 2.1-2.1 2.1h-23.2c-1.1 0-2.1-.9-2.1-2.1 0-1.2 1-2.1 2.1-2.1zm31.3 0h23.2c1.1 0 2.1.9 2.1 2.1 0 1.1-.9 2.1-2.1 2.1h-23.2c-1.1 0-2.1-.9-2.1-2.1 0-1.2.9-2.1 2.1-2.1zM220.1 138h28c1.1 0 2.1.9 2.1 2.1 0 1.1-.9 2.1-2.1 2.1h-28c-1.1 0-2.1-.9-2.1-2.1 0-1.1 1-2.1 2.1-2.1zm36.8 0h28c1.1 0 2.1.9 2.1 2.1 0 1.1-.9 2.1-2.1 2.1h-28c-1.1 0-2.1-.9-2.1-2.1.1-1.1 1-2.1 2.1-2.1zm-36.8 11.5H239c1.1 0 2.1.9 2.1 2.1 0 1.1-.9 2.1-2.1 2.1h-18.9c-1.1 0-2.1-.9-2.1-2.1 0-1.2 1-2.1 2.1-2.1zm0 13.2h28c1.1 0 2.1.9 2.1 2.1 0 1.1-.9 2.1-2.1 2.1h-28c-1.1 0-2.1-.9-2.1-2.1 0-1.1 1-2.1 2.1-2.1zm36.8 0h28c1.1 0 2.1.9 2.1 2.1 0 1.1-.9 2.1-2.1 2.1h-28c-1.1 0-2.1-.9-2.1-2.1.1-1.1 1-2.1 2.1-2.1zm41.2 11.3H349c1.1 0 2.1.9 2.1 2.1 0 1.1-.9 2.1-2.1 2.1h-50.9c-1.1 0-2.1-.9-2.1-2.1 0-1.1 1-2.1 2.1-2.1zm0-82h63.3c1.1 0 2.1.9 2.1 2.1 0 1.1-.9 2.1-2.1 2.1h-63.3c-1.1 0-2.1-.9-2.1-2.1 0-1.2 1-2.1 2.1-2.1zm0 11.2h63.3c1.1 0 2.1.9 2.1 2.1 0 1.1-.9 2.1-2.1 2.1h-63.3c-1.1 0-2.1-.9-2.1-2.1 0-1.2 1-2.1 2.1-2.1zm0 11.2h17.2c1.1 0 2.1.9 2.1 2.1 0 1.1-.9 2.1-2.1 2.1h-17.2c-1.1 0-2.1-.9-2.1-2.1 0-1.2 1-2.1 2.1-2.1zm24.5 0h17.2c1.1 0 2.1.9 2.1 2.1 0 1.1-.9 2.1-2.1 2.1h-17.2c-1.1 0-2.1-.9-2.1-2.1 0-1.2.9-2.1 2.1-2.1zm-24.5 13.5h23.2c1.1 0 2.1.9 2.1 2.1 0 1.1-.9 2.1-2.1 2.1h-23.2c-1.1 0-2.1-.9-2.1-2.1 0-1.2 1-2.1 2.1-2.1zm31.3 0h23.2c1.1 0 2.1.9 2.1 2.1 0 1.1-.9 2.1-2.1 2.1h-23.2c-1.1 0-2.1-.9-2.1-2.1 0-1.2.9-2.1 2.1-2.1zM298.1 138h28c1.1 0 2.1.9 2.1 2.1 0 1.1-.9 2.1-2.1 2.1h-28c-1.1 0-2.1-.9-2.1-2.1 0-1.1 1-2.1 2.1-2.1zm36.8 0h28c1.1 0 2.1.9 2.1 2.1 0 1.1-.9 2.1-2.1 2.1h-28c-1.1 0-2.1-.9-2.1-2.1.1-1.1 1-2.1 2.1-2.1zm-36.8 11.5H317c1.1 0 2.1.9 2.1 2.1 0 1.1-.9 2.1-2.1 2.1h-18.9c-1.1 0-2.1-.9-2.1-2.1 0-1.2 1-2.1 2.1-2.1zm0 13.2h28c1.1 0 2.1.9 2.1 2.1 0 1.1-.9 2.1-2.1 2.1h-28c-1.1 0-2.1-.9-2.1-2.1 0-1.1 1-2.1 2.1-2.1zm36.8 0h28c1.1 0 2.1.9 2.1 2.1 0 1.1-.9 2.1-2.1 2.1h-28c-1.1 0-2.1-.9-2.1-2.1.1-1.1 1-2.1 2.1-2.1z" fill="#2B348C"/><path d="M112.359 78.416a8 8 0 018-8h248.58a8 8 0 018 8V82.6h-264.58v-4.185z" fill="#F6CD40"/><circle cx="346.102" cy="76.508" r="2.685" fill="#31C5FF"/><circle cx="354.146" cy="76.508" r="2.685" fill="#FC3E54"/><circle cx="362.146" cy="76.508" r="2.685" fill="#03E59F"/><path fill-rule="evenodd" clip-rule="evenodd" d="M220.7 249.8c-1.2 22.4-4.5 27-27.2 39.7h100.6c-22.7-12.7-25.9-17.3-27.2-39.7l-23.1-1.8-23.1 1.8z" fill="#01013D"/><path fill-rule="evenodd" clip-rule="evenodd" d="M396.9 223.6v11.5c0 9.7-7.9 17.6-17.6 17.6H109.9c-9.7 0-17.6-7.9-17.6-17.6v-11.5h304.6z" fill="#E4F5FB"/><path d="M396.8 212.2H92.3v18.4h304.5v-18.4z" fill="#01013D"/><path fill-rule="evenodd" clip-rule="evenodd" d="M231.6 235.4c1.7 0 3.1 1.4 3.1 3.1 0 1.7-1.4 3.1-3.1 3.1-1.7 0-3.1-1.4-3.1-3.1 0-1.7 1.4-3.1 3.1-3.1z" fill="#FC3E54"/><path fill-rule="evenodd" clip-rule="evenodd" d="M243.2 235.4c1.7 0 3.1 1.4 3.1 3.1 0 1.7-1.4 3.1-3.1 3.1-1.7 0-3.1-1.4-3.1-3.1 0-1.7 1.4-3.1 3.1-3.1z" fill="#31C5FF"/><path fill-rule="evenodd" clip-rule="evenodd" d="M254.8 235.4c1.7 0 3.1 1.4 3.1 3.1 0 1.7-1.4 3.1-3.1 3.1-1.7 0-3.1-1.4-3.1-3.1-.1-1.7 1.3-3.1 3.1-3.1z" fill="#FFD22E"/><path fill-rule="evenodd" clip-rule="evenodd" d="M322.8 252.7v24.1c0 3.5 1.4 6.7 3.7 9 2.3 2.3 5.5 3.7 9 3.7h12v-3h-12c-2.7 0-5.1-1.1-6.9-2.9-1.8-1.8-2.9-4.2-2.9-6.9v-24.1h-2.9v.1z" fill="#01013D"/><path fill-rule="evenodd" clip-rule="evenodd" d="M336.6 252.7v24.1c0 3.5 1.4 6.7 3.7 9 2.3 2.3 5.5 3.7 9 3.7H407v-3h-57.7c-2.7 0-5.1-1.1-6.9-2.9-1.8-1.8-2.9-4.2-2.9-6.9v-24.1h-2.9v.1z" fill="#01013D"/><path d="M327.3 252.7h-6.2v8.3h6.2v-8.3zm14 0h-6.2v8.3h6.2v-8.3z" fill="#01013D"/><path fill-rule="evenodd" clip-rule="evenodd" d="M393.239 245.2h96.9c1.9 0 3.5 1.6 3.5 3.5V282c0 1.9-1.6 3.5-3.5 3.5h-96.9c-1.9 0-3.5-1.6-3.5-3.5v-33.3c0-1.9 1.6-3.5 3.5-3.5z" fill="#3462F4"/><path fill-rule="evenodd" clip-rule="evenodd" d="M400.439 249.7h20.1c3.9 0 7 3.1 7 7v2.9c0 3.9-3.1 7-7 7h-20.1c-3.9 0-7-3.1-7-7v-2.9c-.1-3.9 3.1-7 7-7zm37.2 0h45.5c3.9 0 7 3.1 7 7v2.9c0 3.9-3.1 7-7 7h-45.5c-3.9 0-7-3.1-7-7v-2.9c0-3.9 3.1-7 7-7z" fill="#01013D"/><path d="M469.639 256h-4.1v4.1h4.1V256z" fill="#FC3E54"/><path d="M476.039 256h-4.1v4.1h4.1V256zm6.4 0h-4.1v4.1h4.1V256z" fill="#FFD22E"/><path d="M412.339 285.5h-14.6v4h14.6v-4zm72.6 0h-14.6v4h14.6v-4z" fill="#092978"/><path fill-rule="evenodd" clip-rule="evenodd" d="M393.239 200.8h96.9c1.9 0 3.5 1.6 3.5 3.5v33.3c0 1.9-1.6 3.5-3.5 3.5h-96.9c-1.9 0-3.5-1.6-3.5-3.5v-33.3c0-1.9 1.6-3.5 3.5-3.5zm0-44.399h96.9c1.9 0 3.5 1.6 3.5 3.5v33.3c0 1.9-1.6 3.5-3.5 3.5h-96.9c-1.9 0-3.5-1.6-3.5-3.5v-33.3c0-1.9 1.6-3.5 3.5-3.5zm0-44.401h96.9c1.9 0 3.5 1.6 3.5 3.5v33.3c0 1.9-1.6 3.5-3.5 3.5h-96.9c-1.9 0-3.5-1.6-3.5-3.5v-33.3c0-1.9 1.6-3.5 3.5-3.5zm0-44.4h96.9c1.9 0 3.5 1.6 3.5 3.5v33.301c0 1.9-1.6 3.5-3.5 3.5h-96.9c-1.9 0-3.5-1.6-3.5-3.5v-33.3c0-1.9 1.6-3.5 3.5-3.5z" fill="#3462F4"/><path fill-rule="evenodd" clip-rule="evenodd" d="M400.439 205.3h20.1c3.9 0 7 3.1 7 7v2.9c0 3.9-3.1 7-7 7h-20.1c-3.9 0-7-3.1-7-7v-2.9c-.1-3.8 3.1-7 7-7zm0-44.399h20.1c3.9 0 7 3.1 7 7v2.9c0 3.9-3.1 7-7 7h-20.1c-3.9 0-7-3.1-7-7v-2.9c-.1-3.8 3.1-7 7-7zm0-44.401h20.1c3.9 0 7 3.1 7 7v2.9c0 3.9-3.1 7-7 7h-20.1c-3.9 0-7-3.1-7-7v-2.9c-.1-3.8 3.1-7 7-7zm0-44.4h20.1c3.9 0 7 3.1 7 7V82c0 3.9-3.1 7-7 7h-20.1c-3.9 0-7-3.1-7-7v-2.9c-.1-3.8 3.1-7 7-7zm37.2 133.2h45.5c3.9 0 7 3.1 7 7v2.9c0 3.9-3.1 7-7 7h-45.5c-3.9 0-7-3.1-7-7v-2.9c0-3.8 3.1-7 7-7zm0-44.399h45.5c3.9 0 7 3.1 7 7v2.9c0 3.9-3.1 7-7 7h-45.5c-3.9 0-7-3.1-7-7v-2.9c0-3.8 3.1-7 7-7zm0-44.401h45.5c3.9 0 7 3.1 7 7v2.9c0 3.9-3.1 7-7 7h-45.5c-3.9 0-7-3.1-7-7v-2.9c0-3.8 3.1-7 7-7zm0-44.4h45.5c3.9 0 7 3.1 7 7V82c0 3.9-3.1 7-7 7h-45.5c-3.9 0-7-3.1-7-7v-2.9c0-3.8 3.1-7 7-7z" fill="#01013D"/><path d="M469.639 211.6h-4.1v4.1h4.1v-4.1zm0-44.399h-4.1v4.1h4.1v-4.1zm0-44.401h-4.1v4.1h4.1v-4.1zm0-44.4h-4.1v4.1h4.1v-4.1z" fill="#FC3E54"/><path d="M476.039 211.6h-4.1v4.1h4.1v-4.1zm0-44.399h-4.1v4.1h4.1v-4.1zm0-44.401h-4.1v4.1h4.1v-4.1zm0-44.4h-4.1v4.1h4.1v-4.1zm6.4 133.2h-4.1v4.1h4.1v-4.1zm0-44.399h-4.1v4.1h4.1v-4.1zm0-44.401h-4.1v4.1h4.1v-4.1zm0-44.4h-4.1v4.1h4.1v-4.1z" fill="#FFD22E"/><path d="M412.339 241.2h-14.6v4h14.6v-4zm0-44.399h-14.6v4h14.6v-4zm0-44.401h-14.6v4h14.6v-4zm0-44.4h-14.6v4h14.6v-4zm72.6 133.2h-14.6v4h14.6v-4zm0-44.399h-14.6v4h14.6v-4zm0-44.401h-14.6v4h14.6v-4zm0-44.4h-14.6v4h14.6v-4z" fill="#092978"/><path d="M403.139 211.7h-4.1v4.1h4.1v-4.1zm0-44.399h-4.1v4.1h4.1v-4.1zm0-44.401h-4.1v4.1h4.1v-4.1zm0-44.4h-4.1v4.1h4.1v-4.1zm7.2 133.2h-4.1v4.1h4.1v-4.1zm0-44.399h-4.1v4.1h4.1v-4.1zm0-44.401h-4.1v4.1h4.1v-4.1zm0-44.4h-4.1v4.1h4.1v-4.1zm-7.2 177.6h-4.1v4.1h4.1v-4.1zm7.2 0h-4.1v4.1h4.1v-4.1z" fill="#03E59F"/><path fill-rule="evenodd" clip-rule="evenodd" d="M493.739 219.2h4.2c3.5 0 6.7 1.4 9 3.7 2.3 2.3 3.7 5.5 3.7 9v57.6H394.5v-3h113.139v-54.6c0-2.7-1.1-5.1-2.9-6.9-1.8-1.8-4.2-2.9-6.9-2.9h-4.2v-2.9h.1z" fill="#01013D"/><path fill-rule="evenodd" clip-rule="evenodd" d="M493.739 174.801h4.2c3.5 0 6.7 1.4 9 3.7 2.3 2.3 3.7 5.5 3.7 9v57.6h-1.5 8.64-10.14v-3h101.74-101.74v-54.6c0-2.7-1.1-5.1-2.9-6.9-1.8-1.8-4.2-2.9-6.9-2.9h-4.2v-2.9h.1z" fill="#01013D"/><path fill-rule="evenodd" clip-rule="evenodd" d="M493.739 130.4h4.2c3.5 0 6.7 1.4 9 3.7 2.3 2.3 3.7 5.5 3.7 9v57.6h-1.5 8.64-10.14v-3h101.74-101.74v-54.6c0-2.7-1.1-5.1-2.9-6.9-1.8-1.8-4.2-2.9-6.9-2.9h-4.2v-2.9h.1z" fill="#01013D"/><path fill-rule="evenodd" clip-rule="evenodd" d="M493.739 86h4.2c3.5 0 6.7 1.4 9 3.7 2.3 2.3 3.7 5.5 3.7 9v57.6h-1.5 8.64-10.14v-3h101.74-101.74V98.7c0-2.7-1.1-5.1-2.9-6.9-1.8-1.8-4.2-2.9-6.9-2.9h-4.2V86h.1zm0 177.3h4.2c3.5 0 6.7 1.4 9 3.7 2.3 2.3 3.7 5.5 3.7 9v12h-3v-12c0-2.7-1.1-5.1-2.9-6.9-1.8-1.8-4.2-2.9-6.9-2.9h-4.2v-2.9h.1zm0-47.2h1c.5 0 1 .4 1 1v7c0 .5-.4 1-1 1h-1v-9zm0-44.399h1c.5 0 1 .4 1 1v7c0 .5-.4 1-1 1h-1v-9zm0-44.401h1c.5 0 1 .4 1 1v7c0 .5-.4 1-1 1h-1v-9z" fill="#01013D"/><path fill-rule="evenodd" clip-rule="evenodd" d="M493.739 82.9h1c.5 0 1 .4 1 1v7c0 .5-.4 1-1 1h-1v-9zm0 177.4h1c.5 0 1 .4 1 1v7c0 .5-.4 1-1 1h-1v-9z" fill="#01013D"/><path fill-rule="evenodd" clip-rule="evenodd" d="M126.484 91A1.49 1.49 0 00125 92.487v51.026a1.49 1.49 0 001.484 1.487h76.907a1.49 1.49 0 001.484-1.487V92.487A1.49 1.49 0 00203.391 91h-76.907z" fill="#03E59F"/><path fill-rule="evenodd" clip-rule="evenodd" d="M162.907 105.344h29.936c1.364 0 2.469-1.133 2.469-2.532 0-1.398-1.105-2.531-2.469-2.531h-29.936c-1.364 0-2.469 1.133-2.469 2.531 0 1.399 1.105 2.532 2.469 2.532zm0 8.156h29.936c1.364 0 2.469-1.133 2.469-2.532 0-1.397-1.105-2.53-2.469-2.53h-29.936c-1.364 0-2.469 1.133-2.469 2.53 0 1.399 1.105 2.532 2.469 2.532zm0 8.719h29.936c1.364 0 2.469-1.07 2.469-2.392 0-1.319-1.105-2.389-2.469-2.389h-29.936c-1.364 0-2.469 1.07-2.469 2.389 0 1.322 1.105 2.392 2.469 2.392zm10.393 8.719h19.557c1.356 0 2.455-1.071 2.455-2.391 0-1.321-1.099-2.391-2.455-2.391H173.3c-1.356 0-2.456 1.07-2.456 2.391 0 1.32 1.1 2.391 2.456 2.391zm-20.543-9.844h-16.703a1.492 1.492 0 01-1.492-1.49v-17.832c0-.824.669-1.491 1.492-1.491h16.703c.825 0 1.493.667 1.493 1.491v17.832c0 .823-.668 1.49-1.493 1.49z" fill="#EFEFEF"/><path fill-rule="evenodd" clip-rule="evenodd" d="M140.352 110.928h1.761l-.881-2.332-.88 2.332zm.382-3.797h.997l2.41 6.147h-1.147l-.561-1.474h-2.41l-.561 1.474h-1.138l2.41-6.147zm5.257 5.191h.997c.272 0 .524-.052.756-.156.231-.104.428-.249.591-.433a2.01 2.01 0 00.383-.667c.092-.258.138-.546.138-.861 0-.31-.046-.596-.138-.858a1.995 1.995 0 00-.383-.67 1.73 1.73 0 00-.591-.434 1.827 1.827 0 00-.756-.156h-.997v4.235zm-1.156-5.191h2.215c.439 0 .842.076 1.21.228a2.8 2.8 0 01.947.634c.264.271.47.596.618.974.149.378.223.791.223 1.238 0 .446-.074.859-.223 1.237a2.885 2.885 0 01-.618.974c-.264.271-.58.483-.947.634a3.138 3.138 0 01-1.21.228h-2.215v-6.147z" fill="#03E59F"/><g clip-path="url(#clip0)"><path fill-rule="evenodd" clip-rule="evenodd" d="M224.499 174.098h14.814V204h-14.814v-29.902zm22.835-11.741h14.813V204h-14.813v-41.643zm22.835 9.717h14.813V204h-14.813v-31.926zm23.537-13.708h14.872V204h-14.872v-45.634zm24.123-14.112h14.872V204h-14.872v-59.746zm24.358-8.849H357V204h-14.813v-68.595z" fill="#8720B7"/><path d="M245.636 169.934L218 195.035l2.342 2.487 26.407-24.002 16.511 16.078 25.587-24.927 18.795 19.028 39.404-34.934-.351 7.172 5.094-4.511.527-9.543-9.661-.521-5.094 4.511 7.202.405-37.004 32.736-18.912-19.144-25.587 24.986-16.453-16.021-1.171 1.099z" fill="#FCCA2E"/></g><path opacity=".25" d="M418.639 108.661c18.176-18.188 18.176-47.677 0-65.865-18.176-18.187-47.645-18.187-65.821 0-18.176 18.188-18.176 47.677 0 65.865 18.176 18.187 47.645 18.187 65.821 0z" fill="#242424"/><path d="M415.731 98.796c18.176-18.188 18.176-47.676 0-65.864-18.176-18.188-47.645-18.188-65.821 0-18.176 18.188-18.176 47.676 0 65.864 18.176 18.188 47.645 18.188 65.821 0z" fill="#03E59F"/><path d="M373.047 83.558l-14.088-13.219a7.171 7.171 0 010-10.47 7.183 7.183 0 019.809 0l7.605 7.142c.878.823 2.26.823 3.157 0l21.842-20.491a7.183 7.183 0 019.809 0 7.171 7.171 0 010 10.47l-28.325 26.568a7.145 7.145 0 01-9.809 0z" fill="#fff"/><path fill-rule="evenodd" clip-rule="evenodd" d="M126.484 150a1.49 1.49 0 00-1.484 1.487v51.026a1.49 1.49 0 001.484 1.487h76.907a1.49 1.49 0 001.484-1.487v-51.026a1.49 1.49 0 00-1.484-1.487h-76.907z" fill="#1DAFF4"/><path fill-rule="evenodd" clip-rule="evenodd" d="M162.907 164.344h29.936c1.364 0 2.469-1.133 2.469-2.532 0-1.398-1.105-2.531-2.469-2.531h-29.936c-1.364 0-2.469 1.133-2.469 2.531 0 1.399 1.105 2.532 2.469 2.532zm0 8.156h29.936c1.364 0 2.469-1.133 2.469-2.532 0-1.397-1.105-2.53-2.469-2.53h-29.936c-1.364 0-2.469 1.133-2.469 2.53 0 1.399 1.105 2.532 2.469 2.532zm0 8.719h29.936c1.364 0 2.469-1.07 2.469-2.392 0-1.319-1.105-2.389-2.469-2.389h-29.936c-1.364 0-2.469 1.07-2.469 2.389 0 1.322 1.105 2.392 2.469 2.392zm10.393 8.719h19.557c1.356 0 2.455-1.071 2.455-2.391 0-1.321-1.099-2.391-2.455-2.391H173.3c-1.356 0-2.456 1.07-2.456 2.391 0 1.32 1.1 2.391 2.456 2.391zm-20.543-9.844h-16.703a1.492 1.492 0 01-1.492-1.49v-17.832c0-.824.669-1.491 1.492-1.491h16.703c.825 0 1.493.667 1.493 1.491v17.832c0 .823-.668 1.49-1.493 1.49z" fill="#EFEFEF"/><path fill-rule="evenodd" clip-rule="evenodd" d="M140.352 169.928h1.761l-.881-2.332-.88 2.332zm.382-3.797h.997l2.41 6.147h-1.147l-.561-1.474h-2.41l-.561 1.474h-1.138l2.41-6.147zm5.257 5.191h.997c.272 0 .524-.052.756-.156.231-.104.428-.249.591-.433a2.01 2.01 0 00.383-.667c.092-.258.138-.546.138-.861 0-.31-.046-.596-.138-.858a2.005 2.005 0 00-.383-.67 1.73 1.73 0 00-.591-.434 1.827 1.827 0 00-.756-.156h-.997v4.235zm-1.156-5.191h2.215c.439 0 .842.076 1.21.228a2.8 2.8 0 01.947.634c.264.271.47.596.618.974.149.378.223.791.223 1.238 0 .446-.074.859-.223 1.237a2.885 2.885 0 01-.618.974c-.264.271-.58.483-.947.634a3.138 3.138 0 01-1.21.228h-2.215v-6.147z" fill="#1DAFF4"/><defs><linearGradient id="paint0_linear" x1="0" y1="288.599" x2="480.888" y2="288.599" gradientUnits="userSpaceOnUse"><stop stop-color="#060E49"/><stop offset="1" stop-color="#332782"/></linearGradient><clipPath id="clip0"><path fill="#fff" d="M218 135h139v69H218z"/></clipPath></defs></svg>