<svg width="511" height="342" viewBox="0 0 511 342" fill="none" xmlns="http://www.w3.org/2000/svg">
<path d="M179.3 308.9L180.3 307.4C183.8 302.1 189.7 298.8 196.1 298.8H290.4C297 298.8 303.2 302.3 306.6 308L307.2 308.9H179.3Z" fill="#01013D"/>
<path opacity="0.15" d="M222.7 315C345.694 315 445.4 311.866 445.4 308C445.4 304.134 345.694 301 222.7 301C99.7062 301 0 304.134 0 308C0 311.866 99.7062 315 222.7 315Z" fill="url(#paint0_linear)"/>
<path fill-rule="evenodd" clip-rule="evenodd" d="M109.9 68.3999H379.3C389 68.3999 396.9 76.2999 396.9 85.9999V243H92.3V85.9999C92.3 76.2999 100.2 68.3999 109.9 68.3999Z" fill="#01013D"/>
<path d="M384.4 81.2998H104.8V259.1H384.4V81.2998Z" fill="#3052E4"/>
<path opacity="0.7" d="M371 99H205V223H371V99Z" fill="#181548" stroke="#31C5FF" stroke-miterlimit="10"/>
<path d="M225.344 162.234C225.705 162.234 225.946 161.989 225.946 161.622C225.946 161.255 225.705 161.011 225.344 161.011H218C218 161.255 218 161.378 218 161.622C218 161.867 218 162.111 218 162.356H225.344V162.234Z" fill="white"/>
<path d="M231.002 148.664C230.761 149.03 230.882 149.397 231.243 149.519C231.363 149.642 231.484 149.642 231.604 149.642C231.845 149.642 232.085 149.519 232.206 149.275C235.697 143.407 241.476 139.25 248.097 137.905C251.107 137.294 253.394 134.604 253.394 131.548V117.367C252.913 117.245 252.551 117.245 252.07 117.122V131.426C252.07 133.871 250.264 136.071 247.856 136.56C240.753 138.028 234.734 142.306 231.002 148.664Z" fill="white"/>
<path d="M230.159 151.72C229.798 151.598 229.437 151.72 229.316 152.087C228.113 155.143 227.511 158.322 227.511 161.622C227.511 167.491 229.437 172.992 232.928 177.515C233.048 177.637 233.289 177.76 233.41 177.76C233.53 177.76 233.65 177.76 233.771 177.637C234.012 177.393 234.132 177.026 233.891 176.659C230.641 172.381 228.835 167.124 228.835 161.622C228.835 158.566 229.437 155.51 230.52 152.576C230.641 152.209 230.52 151.842 230.159 151.72Z" fill="white"/>
<path d="M248.458 185.339C244.245 184.606 240.272 182.65 236.901 179.716C236.66 179.471 236.179 179.471 235.938 179.838C235.697 180.082 235.697 180.571 236.058 180.816C239.549 183.872 243.763 185.95 248.217 186.684C250.384 187.051 251.949 189.007 251.949 191.207V205.755C252.431 205.755 252.792 205.633 253.274 205.511V191.207C253.274 188.273 251.227 185.828 248.458 185.339Z" fill="white"/>
<path d="M251.468 139.006C251.107 139.128 251.107 139.617 251.227 139.861C251.348 140.106 251.588 140.228 251.829 140.228C251.949 140.228 252.07 140.228 252.19 140.106C254.598 138.761 256.283 136.194 256.645 133.382C256.645 133.015 256.404 132.648 256.043 132.648C255.682 132.648 255.32 132.893 255.32 133.26C254.959 135.583 253.515 137.783 251.468 139.006Z" fill="white"/>
<path d="M256.043 130.325C256.404 130.325 256.645 130.081 256.645 129.714V118.345C256.163 118.222 255.802 118.1 255.32 117.856V129.592C255.441 130.081 255.682 130.325 256.043 130.325Z" fill="white"/>
<path d="M249.06 181.916C248.217 181.794 247.375 181.55 246.532 181.305C246.171 181.183 245.81 181.427 245.689 181.794C245.569 182.161 245.81 182.528 246.171 182.65C247.014 182.894 247.977 183.139 248.94 183.261C252.672 183.872 255.441 187.173 255.441 191.085V205.022C255.922 204.9 256.283 204.778 256.765 204.533V191.085C256.765 186.562 253.515 182.65 249.06 181.916Z" fill="white"/>
<path d="M240.513 179.838C241.235 180.327 241.957 180.694 242.68 181.183C242.8 181.183 242.92 181.305 243.041 181.305C243.282 181.305 243.522 181.183 243.643 180.938C243.763 180.571 243.643 180.205 243.402 180.082C242.68 179.716 242.078 179.349 241.355 178.86C235.697 174.948 232.326 168.591 232.326 161.745C232.326 154.287 236.299 147.319 242.8 143.651C244.485 142.673 246.171 142.062 247.977 141.573C248.338 141.451 248.579 141.084 248.458 140.717C248.338 140.35 247.977 140.106 247.736 140.228C245.81 140.717 244.004 141.451 242.198 142.429C235.336 146.341 231.122 153.676 231.122 161.622C231.002 168.957 234.493 175.681 240.513 179.838Z" fill="white"/>
<path d="M249.662 178.738C247.254 178.371 245.208 177.515 243.161 176.048C238.466 172.747 235.577 167.368 235.577 161.622C235.577 155.387 238.948 149.519 244.365 146.463C246.05 145.485 247.856 144.874 249.783 144.507C255.682 143.529 260.016 138.272 260.016 132.037V119.812C259.534 119.567 259.173 119.323 258.691 119.201V132.159C258.691 137.661 254.839 142.429 249.542 143.284C247.495 143.651 245.689 144.262 243.763 145.363C237.984 148.664 234.252 154.898 234.252 161.745C234.252 167.98 237.262 173.725 242.439 177.271C244.606 178.738 247.014 179.716 249.542 180.205C254.839 181.061 258.812 185.828 258.812 191.33V203.8C259.293 203.555 259.654 203.433 260.136 203.188V191.085C260.016 184.973 255.682 179.716 249.662 178.738Z" fill="#FFD22E"/>
<path d="M239.188 156.243C238.827 156.121 238.466 156.365 238.346 156.61C237.864 158.199 237.503 159.911 237.503 161.622C237.503 166.757 240.031 171.525 244.245 174.337C246.05 175.559 247.977 176.415 250.023 176.659C253.274 177.148 256.163 178.86 258.33 181.305C258.451 181.427 258.691 181.55 258.812 181.55C258.932 181.55 259.173 181.55 259.293 181.427C259.534 181.183 259.534 180.816 259.293 180.449C256.885 177.76 253.755 175.926 250.264 175.437C248.338 175.07 246.652 174.459 244.967 173.236C241.115 170.547 238.827 166.268 238.827 161.622C238.827 160.033 239.068 158.566 239.55 157.099C239.67 156.732 239.429 156.365 239.188 156.243Z" fill="white"/>
<path d="M260.979 184.239C260.618 184.361 260.497 184.728 260.618 185.095C261.46 186.929 261.821 189.007 261.821 191.085V201.966C262.303 201.721 262.664 201.354 263.146 201.11V191.085C263.146 188.762 262.664 186.562 261.821 184.606C261.701 184.239 261.34 184.117 260.979 184.239Z" fill="white"/>
<path d="M260.617 139.617C260.979 139.739 261.34 139.617 261.46 139.372C262.544 137.172 263.146 134.604 263.146 132.037V121.89C262.664 121.523 262.303 121.279 261.821 121.034V132.159C261.821 134.482 261.34 136.805 260.256 138.883C260.136 139.128 260.377 139.495 260.617 139.617Z" fill="white"/>
<path d="M245.93 149.275C247.375 148.419 248.699 147.93 250.264 147.685C254.116 147.074 257.608 144.996 260.015 141.817C260.256 141.573 260.136 141.084 259.895 140.839C259.654 140.595 259.173 140.717 258.932 140.962C256.765 143.773 253.515 145.729 250.023 146.341C248.338 146.585 246.893 147.196 245.328 148.052C243.161 149.275 241.355 150.986 240.031 153.065C239.79 153.431 239.911 153.798 240.272 154.043C240.392 154.165 240.513 154.165 240.633 154.165C240.874 154.165 240.994 154.043 241.235 153.92C242.318 151.964 244.004 150.375 245.93 149.275Z" fill="#FC3E54"/>
<path d="M250.746 172.136C249.301 171.892 247.977 171.403 246.773 170.547C243.884 168.591 242.078 165.168 242.078 161.622C242.078 157.71 244.124 154.165 247.495 152.209C248.579 151.598 249.662 151.231 250.746 150.986C259.895 149.519 266.517 141.451 266.517 132.037V124.457C266.035 124.091 265.674 123.724 265.192 123.357V132.037C265.192 140.839 259.052 148.297 250.505 149.642C249.301 149.886 248.097 150.253 246.893 150.986C243.161 153.187 240.753 157.221 240.753 161.5C240.753 165.534 242.68 169.202 246.051 171.525C247.495 172.503 248.94 173.114 250.505 173.359C259.052 174.826 265.192 182.161 265.192 190.963V199.521C265.674 199.154 266.035 198.787 266.517 198.42V191.085C266.517 181.672 259.895 173.725 250.746 172.136Z" fill="white"/>
<path d="M260.979 148.419C260.738 148.663 260.618 149.03 260.858 149.397C261.099 149.641 261.46 149.764 261.821 149.519C266.878 145.118 269.767 138.761 269.767 132.037V128.003C269.285 127.514 268.924 127.025 268.443 126.536V132.037C268.443 138.394 265.674 144.385 260.979 148.419Z" fill="white"/>
<path d="M251.227 168.957C250.264 168.835 249.421 168.468 248.579 167.857C246.532 166.512 245.328 164.19 245.328 161.622C245.328 158.933 246.773 156.488 249.06 155.143C249.783 154.776 250.505 154.409 251.227 154.287C253.755 153.92 256.163 153.065 258.33 151.842C258.691 151.72 258.812 151.231 258.571 150.986C258.451 150.619 257.969 150.497 257.728 150.742C255.682 151.842 253.394 152.698 251.107 153.065C250.264 153.187 249.421 153.554 248.458 154.043C245.689 155.632 244.004 158.566 244.004 161.744C244.004 164.679 245.449 167.368 247.856 169.08C248.94 169.813 249.903 170.18 251.107 170.424C261.219 172.136 268.563 180.938 268.563 191.33V196.464C269.045 195.975 269.406 195.486 269.887 194.997V191.085C269.767 180.082 261.942 170.669 251.227 168.957Z" fill="#FC3E54"/>
<path d="M251.829 165.657C251.348 165.534 250.986 165.412 250.384 165.045C249.301 164.312 248.579 162.967 248.579 161.622C248.579 160.155 249.421 158.688 250.746 157.955C251.107 157.71 251.468 157.588 251.829 157.588C263.868 155.51 272.656 145.118 273.017 132.648C272.656 131.915 272.175 131.304 271.693 130.692V132.159C271.693 144.262 263.266 154.409 251.588 156.365C251.107 156.488 250.625 156.61 250.023 156.977C248.338 157.955 247.254 159.789 247.254 161.745C247.254 163.578 248.097 165.29 249.662 166.268C250.264 166.757 250.866 167.001 251.588 167.124C263.266 169.08 271.693 179.227 271.693 191.33V192.552C272.175 191.941 272.536 191.207 273.017 190.596C272.656 178.004 263.868 167.613 251.829 165.657Z" fill="white"/>
<path d="M252.19 159.544C252.07 159.544 251.95 159.544 251.588 159.788C250.866 160.155 250.505 160.889 250.505 161.622C250.505 162.356 250.866 162.967 251.468 163.456C251.709 163.701 251.95 163.701 252.07 163.701C258.691 164.801 264.59 168.346 268.804 173.481C269.045 173.725 269.406 173.848 269.767 173.603C270.008 173.358 270.128 172.992 269.887 172.625C265.553 167.124 259.293 163.456 252.431 162.356C252.431 162.356 252.311 162.356 252.311 162.233C252.07 162.111 251.95 161.744 251.95 161.5C251.95 161.255 252.07 160.889 252.431 160.766H252.551C264.47 158.81 273.619 149.519 275.907 137.905C275.546 137.172 275.305 136.438 274.944 135.827C273.138 147.808 264.109 157.466 252.19 159.544Z" fill="white"/>
<path d="M271.332 175.926C270.971 176.17 270.971 176.537 271.091 176.782C272.897 179.96 274.101 183.506 274.583 187.173C274.944 186.44 275.184 185.828 275.546 185.095C274.944 181.916 273.74 178.982 272.175 176.17C272.054 175.926 271.693 175.804 271.332 175.926Z" fill="white"/>
<path d="M259.052 161.011C258.691 161.133 258.571 161.5 258.691 161.867C258.812 162.234 259.173 162.356 259.534 162.234C268.202 158.81 274.583 151.72 277.592 143.284C277.351 142.551 277.111 141.817 276.87 141.206C274.342 150.008 267.841 157.466 259.052 161.011Z" fill="white"/>
<path d="M264.229 163.456C263.868 163.212 263.507 163.334 263.386 163.701C263.146 164.067 263.266 164.434 263.627 164.556C270.128 168.591 274.823 174.826 276.87 182.038C277.111 181.305 277.351 180.694 277.592 179.96C275.184 173.114 270.61 167.246 264.229 163.456Z" fill="white"/>
<path d="M275.064 153.431C275.305 153.676 275.786 153.554 276.027 153.309C277.111 151.842 278.074 150.13 278.916 148.541C278.796 147.808 278.676 147.074 278.435 146.463C277.472 148.663 276.268 150.619 274.944 152.576C274.703 152.82 274.823 153.187 275.064 153.431Z" fill="white"/>
<path d="M267.48 161.622C270.008 159.911 272.295 157.832 274.221 155.387C274.462 155.143 274.462 154.654 274.101 154.409C273.86 154.165 273.379 154.165 273.138 154.532C270.971 157.099 268.563 159.177 265.794 161.011C265.553 161.133 265.553 161.378 265.553 161.622C265.553 161.867 265.674 162.111 265.794 162.234C271.332 165.901 275.546 170.914 278.194 176.782C278.315 176.048 278.555 175.437 278.676 174.703C276.268 169.446 272.415 164.923 267.48 161.622Z" fill="white"/>
<path d="M272.897 161.622C275.546 159.299 277.833 156.61 279.759 153.798C279.639 153.065 279.639 152.453 279.518 151.72C277.472 155.265 274.703 158.444 271.573 161.133C271.452 161.255 271.332 161.5 271.332 161.622C271.332 161.867 271.452 161.989 271.573 162.111C274.703 164.801 277.472 167.979 279.518 171.525C279.639 170.791 279.759 170.18 279.759 169.446C277.833 166.512 275.546 163.945 272.897 161.622Z" fill="white"/>
<path d="M280 158.81C280 158.077 280 157.466 279.88 156.732C278.796 158.199 277.472 159.666 276.148 161.011C276.027 161.133 275.907 161.256 275.907 161.5C275.907 161.622 276.027 161.867 276.148 161.989C277.472 163.334 278.676 164.801 279.88 166.268C279.88 165.657 280 164.923 280 164.19C279.278 163.212 278.435 162.356 277.592 161.5C278.435 160.767 279.278 159.788 280 158.81Z" fill="white"/>
<path d="M245.93 188.396C236.299 185.951 228.835 178.371 226.307 168.591C225.705 166.146 223.538 164.434 221.01 164.434H218C218 164.923 218 165.29 218 165.779H220.889C222.816 165.779 224.501 167.124 224.983 168.957C227.631 179.227 235.456 187.173 245.569 189.74C247.254 190.229 248.458 191.696 248.458 193.53V206C248.579 206 248.699 206 248.819 206C249.06 206 249.301 206 249.662 206V193.53C249.903 191.085 248.217 189.007 245.93 188.396Z" fill="#FFD22E"/>
<path d="M245.208 191.574C234.493 188.762 226.066 180.327 223.177 169.446C222.936 168.468 221.973 167.735 221.01 167.735H218.241C218.241 168.224 218.361 168.591 218.361 169.08H221.01C221.491 169.08 221.852 169.324 221.973 169.813C224.862 181.183 233.65 189.985 244.967 192.919C245.208 193.041 245.448 193.286 245.448 193.53V193.897C245.448 194.264 245.689 194.508 246.05 194.508C246.412 194.508 246.652 194.264 246.652 193.897V193.53C246.652 192.552 246.05 191.819 245.208 191.574Z" fill="white"/>
<path d="M245.93 196.464C245.569 196.464 245.328 196.709 245.328 197.076V205.633C245.81 205.756 246.171 205.756 246.652 205.756V196.953C246.652 196.709 246.291 196.464 245.93 196.464Z" fill="white"/>
<path d="M227.511 185.461C227.751 185.217 227.751 184.85 227.511 184.483C224.26 180.816 221.732 176.293 220.287 171.525C220.167 171.28 219.926 171.036 219.685 171.036H218.482C218.482 171.525 218.602 171.891 218.722 172.38H219.204C220.649 177.148 223.177 181.672 226.548 185.461C226.788 185.706 227.27 185.706 227.511 185.461Z" fill="white"/>
<path d="M242.92 194.386C238.225 192.919 234.012 190.596 230.4 187.295C230.159 187.051 229.678 187.051 229.437 187.295C229.196 187.54 229.196 188.029 229.437 188.273C233.169 191.574 237.383 194.019 242.078 195.486V204.9C242.559 205.022 242.92 205.144 243.402 205.267V194.997C243.402 194.753 243.161 194.508 242.92 194.386Z" fill="white"/>
<path d="M239.67 196.709C231.604 193.652 224.862 187.907 220.649 180.327C221.251 182.283 221.973 183.994 222.695 185.706C226.909 191.085 232.447 195.242 238.827 197.809V203.555C239.309 203.799 239.67 203.922 240.151 204.166V197.442C240.151 197.076 239.911 196.831 239.67 196.709Z" fill="white"/>
<path d="M236.419 199.032C232.808 197.442 229.557 195.364 226.668 192.797C227.751 194.386 228.955 195.731 230.159 197.075C231.845 198.176 233.65 199.276 235.577 200.132V201.721C236.058 201.966 236.419 202.332 236.901 202.577V199.765C236.781 199.398 236.66 199.154 236.419 199.032Z" fill="white"/>
<path d="M226.307 154.654C228.835 144.874 236.299 137.294 245.93 134.849C248.217 134.238 249.782 132.159 249.782 129.714V117C249.542 117 249.301 117 248.94 117C248.819 117 248.699 117 248.579 117V129.714C248.579 131.548 247.375 133.137 245.689 133.504C235.577 136.071 227.751 144.018 225.103 154.287C224.621 156.121 222.936 157.466 221.01 157.466H218.12C218.12 157.955 218.12 158.321 218.12 158.81H221.13C223.538 158.81 225.705 157.099 226.307 154.654Z" fill="white"/>
<path d="M229.557 140.35C229.678 140.472 229.798 140.472 230.039 140.472C230.159 140.472 230.4 140.35 230.52 140.228C234.493 135.949 239.55 132.893 245.208 131.426C246.051 131.181 246.652 130.448 246.652 129.592V126.169C246.652 125.802 246.412 125.558 246.051 125.558C245.689 125.558 245.449 125.802 245.449 126.169V129.714C245.449 129.959 245.208 130.203 244.967 130.325C239.068 131.793 233.771 134.971 229.678 139.494C229.317 139.739 229.317 140.106 229.557 140.35Z" fill="#03E59F"/>
<path d="M223.177 153.798C224.14 150.008 225.825 146.463 228.113 143.406C228.353 143.162 228.233 142.673 227.992 142.428C227.751 142.184 227.27 142.306 227.029 142.551C224.621 145.852 222.936 149.519 221.973 153.431C221.852 153.92 221.491 154.165 221.01 154.165H218.361C218.361 154.654 218.241 155.02 218.241 155.509H221.01C221.973 155.509 222.936 154.776 223.177 153.798Z" fill="#03E59F"/>
<path d="M245.93 124.213C246.291 124.213 246.532 123.968 246.532 123.602V117.122C246.05 117.122 245.689 117.245 245.208 117.245V123.479C245.328 123.968 245.569 124.213 245.93 124.213Z" fill="#03E59F"/>
<path d="M220.408 151.72C223.658 140.717 232.085 132.159 242.92 128.859C243.161 128.736 243.402 128.492 243.402 128.247V117.734C242.92 117.856 242.559 117.978 242.078 118.1V127.636C231.243 131.181 222.695 139.739 219.324 150.742H218.722C218.602 151.231 218.602 151.598 218.602 152.087H219.806C220.047 152.209 220.287 151.964 220.408 151.72Z" fill="white"/>
<path d="M239.67 126.413C239.911 126.291 240.151 126.047 240.151 125.802V118.834C239.67 119.078 239.188 119.2 238.827 119.445V125.313C232.326 127.88 226.668 132.159 222.454 137.661C221.732 139.372 221.01 141.084 220.528 143.04C224.742 135.46 231.484 129.47 239.67 126.413Z" fill="white"/>
<path d="M236.781 123.601V120.545C236.299 120.79 235.938 121.034 235.456 121.401V123.112C233.41 124.09 231.483 125.191 229.557 126.413C228.353 127.758 227.27 129.103 226.186 130.692C229.196 128.003 232.567 125.802 236.299 124.213C236.66 124.09 236.781 123.846 236.781 123.601Z" fill="white"/>
<path fill-rule="evenodd" clip-rule="evenodd" d="M294.1 199.4H345C346.1 199.4 347.1 200.3 347.1 201.5C347.1 202.6 346.2 203.6 345 203.6H294.1C293 203.6 292 202.7 292 201.5C292 200.4 293 199.4 294.1 199.4Z" fill="#2B348C"/>
<path fill-rule="evenodd" clip-rule="evenodd" d="M294.1 117.4H357.4C358.5 117.4 359.5 118.3 359.5 119.5C359.5 120.6 358.6 121.6 357.4 121.6H294.1C293 121.6 292 120.7 292 119.5C292 118.3 293 117.4 294.1 117.4Z" fill="#2B348C"/>
<path fill-rule="evenodd" clip-rule="evenodd" d="M294.1 128.6H357.4C358.5 128.6 359.5 129.5 359.5 130.7C359.5 131.8 358.6 132.8 357.4 132.8H294.1C293 132.8 292 131.9 292 130.7C292 129.5 293 128.6 294.1 128.6Z" fill="#2B348C"/>
<path fill-rule="evenodd" clip-rule="evenodd" d="M294.1 139.8H311.3C312.4 139.8 313.4 140.7 313.4 141.9C313.4 143 312.5 144 311.3 144H294.1C293 144 292 143.1 292 141.9C292 140.7 293 139.8 294.1 139.8Z" fill="#2B348C"/>
<path fill-rule="evenodd" clip-rule="evenodd" d="M318.6 139.8H335.8C336.9 139.8 337.9 140.7 337.9 141.9C337.9 143 337 144 335.8 144H318.6C317.5 144 316.5 143.1 316.5 141.9C316.5 140.7 317.4 139.8 318.6 139.8Z" fill="#2B348C"/>
<path fill-rule="evenodd" clip-rule="evenodd" d="M294.1 153.3H317.3C318.4 153.3 319.4 154.2 319.4 155.4C319.4 156.5 318.5 157.5 317.3 157.5H294.1C293 157.5 292 156.6 292 155.4C292 154.2 293 153.3 294.1 153.3Z" fill="#2B348C"/>
<path fill-rule="evenodd" clip-rule="evenodd" d="M325.4 153.3H348.6C349.7 153.3 350.7 154.2 350.7 155.4C350.7 156.5 349.8 157.5 348.6 157.5H325.4C324.3 157.5 323.3 156.6 323.3 155.4C323.3 154.2 324.2 153.3 325.4 153.3Z" fill="#2B348C"/>
<path fill-rule="evenodd" clip-rule="evenodd" d="M294.1 163.4H322.1C323.2 163.4 324.2 164.3 324.2 165.5C324.2 166.6 323.3 167.6 322.1 167.6H294.1C293 167.6 292 166.7 292 165.5C292 164.4 293 163.4 294.1 163.4Z" fill="#2B348C"/>
<path fill-rule="evenodd" clip-rule="evenodd" d="M330.9 163.4H358.9C360 163.4 361 164.3 361 165.5C361 166.6 360.1 167.6 358.9 167.6H330.9C329.8 167.6 328.8 166.7 328.8 165.5C328.9 164.4 329.8 163.4 330.9 163.4Z" fill="#2B348C"/>
<path fill-rule="evenodd" clip-rule="evenodd" d="M294.1 174.9H313C314.1 174.9 315.1 175.8 315.1 177C315.1 178.1 314.2 179.1 313 179.1H294.1C293 179.1 292 178.2 292 177C292 175.8 293 174.9 294.1 174.9Z" fill="#2B348C"/>
<path fill-rule="evenodd" clip-rule="evenodd" d="M294.1 188.1H322.1C323.2 188.1 324.2 189 324.2 190.2C324.2 191.3 323.3 192.3 322.1 192.3H294.1C293 192.3 292 191.4 292 190.2C292 189.1 293 188.1 294.1 188.1Z" fill="#2B348C"/>
<path fill-rule="evenodd" clip-rule="evenodd" d="M330.9 188.1H358.9C360 188.1 361 189 361 190.2C361 191.3 360.1 192.3 358.9 192.3H330.9C329.8 192.3 328.8 191.4 328.8 190.2C328.9 189.1 329.8 188.1 330.9 188.1Z" fill="#2B348C"/>
<path fill-rule="evenodd" clip-rule="evenodd" d="M220.7 269.2C219.5 291.6 216.2 296.2 193.5 308.9H243.8H294.1C271.4 296.2 268.2 291.6 266.9 269.2L243.8 267.4L220.7 269.2Z" fill="#01013D"/>
<path fill-rule="evenodd" clip-rule="evenodd" d="M396.9 243V254.5C396.9 264.2 389 272.1 379.3 272.1H109.9C100.2 272.1 92.3 264.2 92.3 254.5V243H396.9Z" fill="#E4F5FB"/>
<path d="M396.8 231.6H92.3V250H396.8V231.6Z" fill="#01013D"/>
<path fill-rule="evenodd" clip-rule="evenodd" d="M231.6 254.8C233.3 254.8 234.7 256.2 234.7 257.9C234.7 259.6 233.3 261 231.6 261C229.9 261 228.5 259.6 228.5 257.9C228.5 256.2 229.9 254.8 231.6 254.8Z" fill="#FC3E54"/>
<path fill-rule="evenodd" clip-rule="evenodd" d="M243.2 254.8C244.9 254.8 246.3 256.2 246.3 257.9C246.3 259.6 244.9 261 243.2 261C241.5 261 240.1 259.6 240.1 257.9C240.1 256.2 241.5 254.8 243.2 254.8Z" fill="#31C5FF"/>
<path fill-rule="evenodd" clip-rule="evenodd" d="M254.8 254.8C256.5 254.8 257.9 256.2 257.9 257.9C257.9 259.6 256.5 261 254.8 261C253.1 261 251.7 259.6 251.7 257.9C251.6 256.2 253 254.8 254.8 254.8Z" fill="#FFD22E"/>
<path opacity="0.7" d="M200.6 99.3999H120.5V223.2H200.6V99.3999Z" fill="#181548" stroke="#31C5FF" stroke-miterlimit="10"/>
<path fill-rule="evenodd" clip-rule="evenodd" d="M126.4 199.4H177.3C178.4 199.4 179.4 200.3 179.4 201.5C179.4 202.6 178.5 203.6 177.3 203.6H126.4C125.3 203.6 124.3 202.7 124.3 201.5C124.3 200.4 125.3 199.4 126.4 199.4Z" fill="#31C5FF"/>
<path fill-rule="evenodd" clip-rule="evenodd" d="M126.4 105.7H145.3C146.4 105.7 147.4 106.6 147.4 107.8C147.4 108.9 146.5 109.9 145.3 109.9H126.4C125.3 109.9 124.3 109 124.3 107.8C124.3 106.6 125.3 105.7 126.4 105.7Z" fill="#FFD22E"/>
<path fill-rule="evenodd" clip-rule="evenodd" d="M126.4 117.4H189.7C190.8 117.4 191.8 118.3 191.8 119.5C191.8 120.6 190.9 121.6 189.7 121.6H126.4C125.3 121.6 124.3 120.7 124.3 119.5C124.3 118.3 125.3 117.4 126.4 117.4Z" fill="#31C5FF"/>
<path fill-rule="evenodd" clip-rule="evenodd" d="M126.4 128.6H189.7C190.8 128.6 191.8 129.5 191.8 130.7C191.8 131.8 190.9 132.8 189.7 132.8H126.4C125.3 132.8 124.3 131.9 124.3 130.7C124.3 129.5 125.3 128.6 126.4 128.6Z" fill="#31C5FF"/>
<path fill-rule="evenodd" clip-rule="evenodd" d="M126.4 139.8H143.6C144.7 139.8 145.7 140.7 145.7 141.9C145.7 143 144.8 144 143.6 144H126.4C125.3 144 124.3 143.1 124.3 141.9C124.3 140.7 125.3 139.8 126.4 139.8Z" fill="#FFD22E"/>
<path fill-rule="evenodd" clip-rule="evenodd" d="M150.9 139.8H168.1C169.2 139.8 170.2 140.7 170.2 141.9C170.2 143 169.3 144 168.1 144H150.9C149.8 144 148.8 143.1 148.8 141.9C148.8 140.7 149.7 139.8 150.9 139.8Z" fill="#FFD22E"/>
<path fill-rule="evenodd" clip-rule="evenodd" d="M126.4 153.3H149.6C150.7 153.3 151.7 154.2 151.7 155.4C151.7 156.5 150.8 157.5 149.6 157.5H126.4C125.3 157.5 124.3 156.6 124.3 155.4C124.3 154.2 125.3 153.3 126.4 153.3Z" fill="#FC3E54"/>
<path fill-rule="evenodd" clip-rule="evenodd" d="M157.7 153.3H180.9C182 153.3 183 154.2 183 155.4C183 156.5 182.1 157.5 180.9 157.5H157.7C156.6 157.5 155.6 156.6 155.6 155.4C155.6 154.2 156.5 153.3 157.7 153.3Z" fill="#FC3E54"/>
<path fill-rule="evenodd" clip-rule="evenodd" d="M126.4 163.4H154.4C155.5 163.4 156.5 164.3 156.5 165.5C156.5 166.6 155.6 167.6 154.4 167.6H126.4C125.3 167.6 124.3 166.7 124.3 165.5C124.3 164.4 125.3 163.4 126.4 163.4Z" fill="#31C5FF"/>
<path fill-rule="evenodd" clip-rule="evenodd" d="M163.2 163.4H191.2C192.3 163.4 193.3 164.3 193.3 165.5C193.3 166.6 192.4 167.6 191.2 167.6H163.2C162.1 167.6 161.1 166.7 161.1 165.5C161.2 164.4 162.1 163.4 163.2 163.4Z" fill="#31C5FF"/>
<path fill-rule="evenodd" clip-rule="evenodd" d="M126.4 174.9H145.3C146.4 174.9 147.4 175.8 147.4 177C147.4 178.1 146.5 179.1 145.3 179.1H126.4C125.3 179.1 124.3 178.2 124.3 177C124.3 175.8 125.3 174.9 126.4 174.9Z" fill="#FFD22E"/>
<path fill-rule="evenodd" clip-rule="evenodd" d="M126.4 188.1H154.4C155.5 188.1 156.5 189 156.5 190.2C156.5 191.3 155.6 192.3 154.4 192.3H126.4C125.3 192.3 124.3 191.4 124.3 190.2C124.3 189.1 125.3 188.1 126.4 188.1Z" fill="#03E59F"/>
<path fill-rule="evenodd" clip-rule="evenodd" d="M163.2 188.1H191.2C192.3 188.1 193.3 189 193.3 190.2C193.3 191.3 192.4 192.3 191.2 192.3H163.2C162.1 192.3 161.1 191.4 161.1 190.2C161.2 189.1 162.1 188.1 163.2 188.1Z" fill="#03E59F"/>
<path d="M31.4 104.5C30.7 103.8 29.8001 103.4 28.7001 103.4C27.7001 103.4 26.7 103.8 26 104.5C25.3 105.2 24.9 106.1 24.9 107.2C24.9 108.2 25.3 109.2 26 109.9C26.7 110.6 27.6001 111 28.7001 111C29.7001 111 30.7 110.6 31.4 109.9C32.1 109.2 32.5 108.3 32.5 107.2C32.5 106.1 32 105.2 31.4 104.5ZM28.7001 101.3C30.3001 101.3 31.8001 102 32.9001 103C34.0001 104.1 34.6 105.5 34.6 107.2C34.6 108.8 33.9001 110.3 32.9001 111.4C31.8001 112.5 30.4001 113.1 28.7001 113.1C27.1001 113.1 25.6 112.4 24.5 111.4C23.4 110.3 22.8 108.9 22.8 107.2C22.8 105.6 23.5 104.1 24.5 103C25.6 101.9 27.1001 101.3 28.7001 101.3Z" fill="#630DD3"/>
<path fill-rule="evenodd" clip-rule="evenodd" d="M489.614 120.739L432.186 92L374.758 120.739C366.249 209.618 432.186 225.052 432.186 225.052C432.186 225.052 498.123 209.618 489.614 120.739Z" fill="#EDB720"/>
<path fill-rule="evenodd" clip-rule="evenodd" d="M482.263 125.576L432.186 100.515L382.108 125.576C374.689 203.078 432.186 216.536 432.186 216.536C432.186 216.536 489.683 203.078 482.263 125.576Z" fill="#FCCA2E"/>
<path fill-rule="evenodd" clip-rule="evenodd" d="M419.955 162.731C418.633 162.731 417.562 161.659 417.562 160.336V136.358C417.562 129.837 423.803 124.73 431.768 124.73H432.515C440.36 124.73 446.276 129.729 446.276 136.358V159.766C446.276 161.089 445.206 162.161 443.884 162.161C442.563 162.161 441.491 161.089 441.491 159.766V136.358C441.491 132.46 437.632 129.52 432.515 129.52H431.768C426.574 129.52 422.348 132.588 422.348 136.358V160.336C422.348 161.659 421.277 162.731 419.955 162.731Z" fill="#191551"/>
<path fill-rule="evenodd" clip-rule="evenodd" d="M450.978 178.365C450.978 181.358 448.473 183.952 444.948 183.952H418.892C415.369 183.952 412.349 181.358 412.349 178.365V156.239C412.349 153.246 415.369 150.863 418.892 150.863H444.948C448.473 150.863 450.978 153.246 450.978 156.239V178.365Z" fill="#191551"/>
<path fill-rule="evenodd" clip-rule="evenodd" d="M435.775 163.138C435.775 161.277 434.267 159.767 432.407 159.767H432.231C430.37 159.767 428.863 161.277 428.863 163.138V163.316C428.863 165.178 430.37 166.686 432.231 166.686H432.407C434.267 166.686 435.775 165.178 435.775 163.316V163.138Z" fill="white"/>
<path fill-rule="evenodd" clip-rule="evenodd" d="M433.914 174.137C433.914 175.02 433.2 175.734 432.319 175.734C431.437 175.734 430.724 175.02 430.724 174.137V165.09C430.724 164.208 431.437 163.493 432.319 163.493C433.2 163.493 433.914 164.208 433.914 165.09V174.137Z" fill="white"/>
<path fill-rule="evenodd" clip-rule="evenodd" d="M322.8 272.1V296.2C322.8 299.7 324.2 302.9 326.5 305.2C328.8 307.5 332 308.9 335.5 308.9H347.5V305.9H335.5C332.8 305.9 330.4 304.8 328.6 303C326.8 301.2 325.7 298.8 325.7 296.1V272H322.8V272.1Z" fill="#01013D"/>
<path fill-rule="evenodd" clip-rule="evenodd" d="M336.6 272.1V296.2C336.6 299.7 338 302.9 340.3 305.2C342.6 307.5 345.8 308.9 349.3 308.9H406V305.9H349.3C346.6 305.9 344.2 304.8 342.4 303C340.6 301.2 339.5 298.8 339.5 296.1V272H336.6V272.1Z" fill="#01013D"/>
<path d="M327.3 272.1H321.1V280.4H327.3V272.1Z" fill="#01013D"/>
<path d="M341.3 272.1H335.1V280.4H341.3V272.1Z" fill="#01013D"/>
<path d="M197.2 89.8998H142.6C142.1 89.8998 141.6 90.0998 141.2 90.4998C140.8 90.8998 140.6 91.3998 140.6 91.8998C140.6 92.3998 140.8 92.8999 141.2 93.2999C141.6 93.6999 142.1 93.8998 142.6 93.8998H197.2C197.7 93.8998 198.2 93.6999 198.6 93.2999C199 92.8999 199.2 92.3998 199.2 91.8998C199.2 91.3998 199 90.8998 198.6 90.4998C198.3 90.0998 197.8 89.8998 197.2 89.8998ZM142.6 89.0999H197.2C198 89.0999 198.6 89.3998 199.1 89.8998C199.6 90.3998 199.9 91.0999 199.9 91.7999C199.9 92.5999 199.6 93.1998 199.1 93.6998C198.6 94.1998 197.9 94.4998 197.2 94.4998H142.6C141.8 94.4998 141.2 94.1998 140.7 93.6998C140.2 93.1998 139.9 92.4999 139.9 91.7999C139.9 90.9999 140.2 90.3998 140.7 89.8998C141.2 89.3998 141.9 89.0999 142.6 89.0999Z" fill="#8DABFF"/>
<path d="M136.2 88.8999H130.7V94.7999H136.2V88.8999Z" fill="#FC3E54"/>
<path d="M126.5 88.8999H121V94.7999H126.5V88.8999Z" fill="#03E59F"/>
<path fill-rule="evenodd" clip-rule="evenodd" d="M393.239 264.6H490.139C492.039 264.6 493.639 266.2 493.639 268.1V301.4C493.639 303.3 492.039 304.9 490.139 304.9H393.239C391.339 304.9 389.739 303.3 389.739 301.4V268.1C389.739 266.2 391.339 264.6 393.239 264.6Z" fill="#3462F4"/>
<path fill-rule="evenodd" clip-rule="evenodd" d="M400.439 269.1H420.539C424.439 269.1 427.539 272.2 427.539 276.1V279C427.539 282.9 424.439 286 420.539 286H400.439C396.539 286 393.439 282.9 393.439 279V276.1C393.339 272.2 396.539 269.1 400.439 269.1Z" fill="#01013D"/>
<path fill-rule="evenodd" clip-rule="evenodd" d="M437.639 269.1H483.139C487.039 269.1 490.139 272.2 490.139 276.1V279C490.139 282.9 487.039 286 483.139 286H437.639C433.739 286 430.639 282.9 430.639 279V276.1C430.639 272.2 433.739 269.1 437.639 269.1Z" fill="#01013D"/>
<path d="M469.639 275.4H465.539V279.5H469.639V275.4Z" fill="#FC3E54"/>
<path d="M476.039 275.4H471.939V279.5H476.039V275.4Z" fill="#FFD22E"/>
<path d="M482.439 275.4H478.339V279.5H482.439V275.4Z" fill="#FFD22E"/>
<path d="M412.339 304.9H397.739V308.9H412.339V304.9Z" fill="#092978"/>
<path d="M484.939 304.9H470.339V308.9H484.939V304.9Z" fill="#092978"/>
<path fill-rule="evenodd" clip-rule="evenodd" d="M393.239 220.2H490.139C492.039 220.2 493.639 221.8 493.639 223.7V257C493.639 258.9 492.039 260.5 490.139 260.5H393.239C391.339 260.5 389.739 258.9 389.739 257V223.7C389.739 221.8 391.339 220.2 393.239 220.2Z" fill="#3462F4"/>
<path fill-rule="evenodd" clip-rule="evenodd" d="M400.439 224.7H420.539C424.439 224.7 427.539 227.8 427.539 231.7V234.6C427.539 238.5 424.439 241.6 420.539 241.6H400.439C396.539 241.6 393.439 238.5 393.439 234.6V231.7C393.339 227.9 396.539 224.7 400.439 224.7Z" fill="#01013D"/>
<path fill-rule="evenodd" clip-rule="evenodd" d="M437.639 224.7H483.139C487.039 224.7 490.139 227.8 490.139 231.7V234.6C490.139 238.5 487.039 241.6 483.139 241.6H437.639C433.739 241.6 430.639 238.5 430.639 234.6V231.7C430.639 227.9 433.739 224.7 437.639 224.7Z" fill="#01013D"/>
<path d="M469.639 231H465.539V235.1H469.639V231Z" fill="#FC3E54"/>
<path d="M476.039 231H471.939V235.1H476.039V231Z" fill="#FFD22E"/>
<path d="M482.439 231H478.339V235.1H482.439V231Z" fill="#FFD22E"/>
<path d="M412.339 260.6H397.739V264.6H412.339V260.6Z" fill="#092978"/>
<path d="M484.939 260.6H470.339V264.6H484.939V260.6Z" fill="#092978"/>
<path d="M403.139 231.1H399.039V235.2H403.139V231.1Z" fill="#03E59F"/>
<path d="M410.339 231.1H406.239V235.2H410.339V231.1Z" fill="#03E59F"/>
<path d="M403.139 275.5H399.039V279.6H403.139V275.5Z" fill="#03E59F"/>
<path d="M410.339 275.5H406.239V279.6H410.339V275.5Z" fill="#03E59F"/>
<path fill-rule="evenodd" clip-rule="evenodd" d="M493.739 238.6H497.939C501.439 238.6 504.639 240 506.939 242.3C509.239 244.6 510.639 247.8 510.639 251.3V307.4V308.9H509.139H404.639H395.139V307.4V305.9H406.139H496.239H507.639V251.3C507.639 248.6 506.539 246.2 504.739 244.4C502.939 242.6 500.539 241.5 497.839 241.5H493.639V238.6H493.739Z" fill="#01013D"/>
<path fill-rule="evenodd" clip-rule="evenodd" d="M347.123 296.452C346.785 302.789 346.4 309.126 346.062 315.462C345.725 321.799 345.34 328.136 345.002 334.472C343.701 334.472 342.4 334.472 341.051 334.472C339.75 334.472 338.449 334.472 337.1 334.472C336.763 328.136 336.377 321.799 336.04 315.462C335.703 309.126 335.317 302.789 334.98 296.452C337.004 296.452 339.027 296.452 341.051 296.452C343.075 296.452 345.099 296.452 347.123 296.452Z" fill="#FFC6A8"/>
<path fill-rule="evenodd" clip-rule="evenodd" d="M336.763 328.469C336.763 328.469 336.859 330.232 337.1 332.138C339.509 334.472 342.256 334.663 345.099 332.852C346.544 339.189 342.352 340.571 332.522 337.093C320.379 332.043 321.584 326.563 336.763 328.469Z" fill="#1B0E5C"/>
<path fill-rule="evenodd" clip-rule="evenodd" d="M345.099 197.257C347.219 192.254 354.254 193.207 356.374 199.21C358.928 206.643 360.47 214.552 360.952 222.842C361.385 231.084 356.663 236.468 345.051 234.277C347.604 232.943 348.134 229.036 346.544 222.461C347.363 221.651 346.882 216.601 345.099 207.31C344.569 203.832 344.135 199.544 345.099 197.257Z" fill="#6250BA"/>
<path fill-rule="evenodd" clip-rule="evenodd" d="M332.33 296.452C331.944 303.313 331.607 310.126 331.221 316.987C330.836 323.848 330.499 330.661 330.113 337.521C328.812 337.521 327.511 337.521 326.258 337.521C324.957 337.521 323.656 337.521 322.403 337.521C322.018 330.661 321.681 323.848 321.295 316.987C320.91 310.126 320.572 303.313 320.187 296.452C322.211 296.452 324.234 296.452 326.258 296.452C328.282 296.452 330.306 296.452 332.33 296.452Z" fill="#FFC6A8"/>
<path fill-rule="evenodd" clip-rule="evenodd" d="M348.375 230.227C351.556 235.229 352.905 241.042 352.423 247.665C351.17 278.49 350.544 293.879 350.544 293.879C350.206 303.456 318.163 302.884 317.44 295.404C316.332 263.578 315.754 235.468 320.524 229.941C320.524 229.941 329.583 231.084 348.375 230.227Z" fill="#1B0E5C"/>
<path fill-rule="evenodd" clip-rule="evenodd" d="M351.218 218.316C350.785 231.99 347.508 235.134 333.245 235.801C325.343 236.182 319.03 235.134 319.705 223.509C318.645 203.308 329.197 201.545 351.218 218.316Z" fill="#453497"/>
<path fill-rule="evenodd" clip-rule="evenodd" d="M290.408 198.543C293.203 199.735 297.25 201.64 299.178 206.5C299.178 206.5 303.466 210.597 312.043 218.84C312.284 225.653 310.116 228.321 305.538 226.796C296.817 215.267 293.637 210.359 293.637 210.359C291.179 209.502 287.854 204.88 292.384 203.213C291.902 202.26 290.601 201.069 289.3 200.068C287.421 198.686 288.143 197.638 290.408 198.543Z" fill="#FFC6A8"/>
<path fill-rule="evenodd" clip-rule="evenodd" d="M328.137 188.872C322.982 188.586 319.849 184.441 320.91 171.291C328.571 176.389 330.98 182.249 328.137 188.872Z" fill="#FFC6A8"/>
<path fill-rule="evenodd" clip-rule="evenodd" d="M311.224 218.03C312.381 217.696 314.453 213.075 317.536 204.213C318.741 200.973 320.524 196.971 322.5 195.447C326.884 192.016 332.763 195.923 331.655 202.069C330.209 209.645 327.655 217.172 323.945 224.653C320.235 232.037 313.248 234.658 303.948 227.654C306.887 227.606 309.297 224.414 311.224 218.03Z" fill="#6250BA"/>
<path fill-rule="evenodd" clip-rule="evenodd" d="M323.56 163.477C334.257 157.379 348.375 162.525 346.978 179.105C346.496 184.441 346.544 187.204 348.954 189.729C365.867 207.072 354.977 224.7 336.811 219.078C328.668 216.458 323.849 208.978 326.596 194.589C327.559 188.967 327.8 183.821 324.09 179.486C317.922 172.482 318.115 166.479 323.56 163.477Z" fill="#140A47"/>
<path fill-rule="evenodd" clip-rule="evenodd" d="M322.066 330.947C322.066 330.947 322.162 332.567 322.259 334.806C324.62 337.283 327.415 337.474 330.258 335.52C331.703 342.238 327.511 343.715 317.729 339.999C305.635 334.663 306.936 328.898 322.066 330.947Z" fill="#1B0E5C"/>
<path fill-rule="evenodd" clip-rule="evenodd" d="M493.739 282.7H497.939C501.439 282.7 504.639 284.1 506.939 286.4C509.239 288.7 510.639 291.9 510.639 295.4V307.4H507.639V295.4C507.639 292.7 506.539 290.3 504.739 288.5C502.939 286.7 500.539 285.6 497.839 285.6H493.639V282.7H493.739Z" fill="#01013D"/>
<path fill-rule="evenodd" clip-rule="evenodd" d="M493.739 235.5H494.739C495.239 235.5 495.739 235.9 495.739 236.5V243.5C495.739 244 495.339 244.5 494.739 244.5H493.739V235.5Z" fill="#01013D"/>
<path fill-rule="evenodd" clip-rule="evenodd" d="M493.739 279.7H494.739C495.239 279.7 495.739 280.1 495.739 280.7V287.7C495.739 288.2 495.339 288.7 494.739 288.7H493.739V279.7Z" fill="#01013D"/>
<rect x="150.374" y="46.4144" width="12.0211" height="12.0211" rx="2" transform="rotate(-58.7167 150.374 46.4144)" stroke="#1DAFF4" stroke-width="2"/>
<rect x="158.305" y="41.0765" width="11.3534" height="12.0211" rx="2" transform="rotate(-58.7167 158.305 41.0765)" fill="#B12DE8" stroke="#B12DE8" stroke-width="2"/>
<circle cx="65.5" cy="38.5" r="5.5" fill="#1DAFF4"/>
<circle cx="63" cy="23" r="3" fill="#B12DE8"/>
<circle cx="73" cy="167" r="3" fill="#B12DE8"/>
<defs>
<linearGradient id="paint0_linear" x1="0" y1="307.999" x2="480.888" y2="307.999" gradientUnits="userSpaceOnUse">
<stop stop-color="#060E49"/>
<stop offset="1" stop-color="#332782"/>
</linearGradient>
</defs>
</svg>
