<?xml version="1.0" encoding="UTF-8"?>
<svg width="511px" height="363px" viewBox="0 0 511 363" version="1.1" xmlns="http://www.w3.org/2000/svg" xmlns:xlink="http://www.w3.org/1999/xlink">
    <!-- Generator: Sketch 54.1 (76490) - https://sketchapp.com -->
    <title>Craigslist posting</title>
    <desc>Created with Sketch.</desc>
    <defs>
        <linearGradient x1="0%" y1="49.9928571%" x2="107.96767%" y2="49.9928571%" id="linearGradient-1">
            <stop stop-color="#060E49" offset="0%"></stop>
            <stop stop-color="#332782" offset="100%"></stop>
        </linearGradient>
        <radialGradient cx="-626.54791%" cy="10.1974574%" fx="-626.54791%" fy="10.1974574%" r="742.050565%" gradientTransform="translate(-6.265479,0.101975),scale(0.793433,1.000000),translate(6.265479,-0.101975)" id="radialGradient-2">
            <stop stop-color="#01C8EF" offset="0%"></stop>
            <stop stop-color="#03BEE9" offset="8.94054%"></stop>
            <stop stop-color="#08A5D7" offset="23.88%"></stop>
            <stop stop-color="#107BBB" offset="42.88%"></stop>
            <stop stop-color="#1177B8" offset="44.57%"></stop>
            <stop stop-color="#112564" offset="100%"></stop>
        </radialGradient>
    </defs>
    <g id="Page-1" stroke="none" stroke-width="1" fill="none" fill-rule="evenodd">
        <g id="Craigslist-posting">
            <g id="header_splash_use_cases_craigslist1">
                <path d="M179.3,288.9 L180.3,287.4 C183.8,282.1 189.7,278.8 196.1,278.8 L290.4,278.8 C297,278.8 303.2,282.3 306.6,288 L307.2,288.9 L179.3,288.9 Z" id="Path" fill="#01013D" fill-rule="nonzero"></path>
                <path d="M222.7,295 C345.694,295 445.4,291.866 445.4,288 C445.4,284.134 345.694,281 222.7,281 C99.7062,281 0,284.134 0,288 C0,291.866 99.7062,295 222.7,295 Z" id="Path" fill="url(#linearGradient-1)" fill-rule="nonzero" opacity="0.15"></path>
                <path d="M109.9,48.4 L379.3,48.4 C389,48.4 396.9,56.3 396.9,66 L396.9,223 L92.3,223 L92.3,66 C92.3,56.3 100.2,48.4 109.9,48.4 Z" id="Path" fill="#01013D" fill-rule="nonzero"></path>
                <polygon id="Path" fill="#3052E4" fill-rule="nonzero" points="384.4 61.3 104.8 61.3 104.8 239.1 384.4 239.1"></polygon>
                <path d="M112.359,77.816 C112.359,73.397 115.941,69.816 120.359,69.816 L368.939,69.816 C373.358,69.816 376.939,73.397 376.939,77.816 L376.939,236.754 L112.359,236.754 L112.359,77.816 Z" id="Path" fill="#2C267D" fill-rule="nonzero"></path>
                <path d="M129.9,184.9 L180.8,184.9 C181.9,184.9 182.9,185.8 182.9,187 C182.9,188.1 182,189.1 180.8,189.1 L129.9,189.1 C128.8,189.1 127.8,188.2 127.8,187 C127.8,185.9 128.8,184.9 129.9,184.9 Z" id="Path" fill="#362F9C" fill-rule="nonzero"></path>
                <path d="M129.9,91 L180.8,91 C181.9,91 182.9,91.9 182.9,93.1 C182.9,94.2 182,95.2 180.8,95.2 L129.9,95.2 C128.8,95.2 127.8,94.3 127.8,93.1 C127.8,92 128.8,91 129.9,91 Z" id="Path" fill="#362F9C" fill-rule="nonzero"></path>
                <path d="M129.9,102.9 L193.2,102.9 C194.3,102.9 195.3,103.8 195.3,105 C195.3,106.1 194.4,107.1 193.2,107.1 L129.9,107.1 C128.8,107.1 127.8,106.2 127.8,105 C127.8,103.8 128.8,102.9 129.9,102.9 Z" id="Path" fill="#362F9C" fill-rule="nonzero"></path>
                <path d="M129.9,114.1 L193.2,114.1 C194.3,114.1 195.3,115 195.3,116.2 C195.3,117.3 194.4,118.3 193.2,118.3 L129.9,118.3 C128.8,118.3 127.8,117.4 127.8,116.2 C127.8,115 128.8,114.1 129.9,114.1 Z" id="Path" fill="#362F9C" fill-rule="nonzero"></path>
                <path d="M129.9,125.3 L147.1,125.3 C148.2,125.3 149.2,126.2 149.2,127.4 C149.2,128.5 148.3,129.5 147.1,129.5 L129.9,129.5 C128.8,129.5 127.8,128.6 127.8,127.4 C127.8,126.2 128.8,125.3 129.9,125.3 Z" id="Path" fill="#362F9C" fill-rule="nonzero"></path>
                <path d="M154.4,125.3 L171.6,125.3 C172.7,125.3 173.7,126.2 173.7,127.4 C173.7,128.5 172.8,129.5 171.6,129.5 L154.4,129.5 C153.3,129.5 152.3,128.6 152.3,127.4 C152.3,126.2 153.2,125.3 154.4,125.3 Z" id="Path" fill="#362F9C" fill-rule="nonzero"></path>
                <path d="M129.9,138.8 L153.1,138.8 C154.2,138.8 155.2,139.7 155.2,140.9 C155.2,142 154.3,143 153.1,143 L129.9,143 C128.8,143 127.8,142.1 127.8,140.9 C127.8,139.7 128.8,138.8 129.9,138.8 Z" id="Path" fill="#362F9C" fill-rule="nonzero"></path>
                <path d="M161.2,138.8 L184.4,138.8 C185.5,138.8 186.5,139.7 186.5,140.9 C186.5,142 185.6,143 184.4,143 L161.2,143 C160.1,143 159.1,142.1 159.1,140.9 C159.1,139.7 160,138.8 161.2,138.8 Z" id="Path" fill="#362F9C" fill-rule="nonzero"></path>
                <path d="M129.9,148.9 L157.9,148.9 C159,148.9 160,149.8 160,151 C160,152.1 159.1,153.1 157.9,153.1 L129.9,153.1 C128.8,153.1 127.8,152.2 127.8,151 C127.8,149.9 128.8,148.9 129.9,148.9 Z" id="Path" fill="#362F9C" fill-rule="nonzero"></path>
                <path d="M166.7,148.9 L194.7,148.9 C195.8,148.9 196.8,149.8 196.8,151 C196.8,152.1 195.9,153.1 194.7,153.1 L166.7,153.1 C165.6,153.1 164.6,152.2 164.6,151 C164.7,149.9 165.6,148.9 166.7,148.9 Z" id="Path" fill="#362F9C" fill-rule="nonzero"></path>
                <path d="M129.9,160.4 L148.8,160.4 C149.9,160.4 150.9,161.3 150.9,162.5 C150.9,163.6 150,164.6 148.8,164.6 L129.9,164.6 C128.8,164.6 127.8,163.7 127.8,162.5 C127.8,161.3 128.8,160.4 129.9,160.4 Z" id="Path" fill="#362F9C" fill-rule="nonzero"></path>
                <path d="M156.9,160.4 L175.8,160.4 C176.9,160.4 177.9,161.3 177.9,162.5 C177.9,163.6 177,164.6 175.8,164.6 L156.9,164.6 C155.8,164.6 154.8,163.7 154.8,162.5 C154.8,161.3 155.8,160.4 156.9,160.4 Z" id="Path" fill="#362F9C" fill-rule="nonzero"></path>
                <path d="M129.9,173.6 L157.9,173.6 C159,173.6 160,174.5 160,175.7 C160,176.8 159.1,177.8 157.9,177.8 L129.9,177.8 C128.8,177.8 127.8,176.9 127.8,175.7 C127.8,174.6 128.8,173.6 129.9,173.6 Z" id="Path" fill="#362F9C" fill-rule="nonzero"></path>
                <path d="M129.9,197.9 L157.9,197.9 C159,197.9 160,198.8 160,200 C160,201.1 159.1,202.1 157.9,202.1 L129.9,202.1 C128.8,202.1 127.8,201.2 127.8,200 C127.8,198.9 128.8,197.9 129.9,197.9 Z" id="Path" fill="#362F9C" fill-rule="nonzero"></path>
                <path d="M166.7,173.6 L194.7,173.6 C195.8,173.6 196.8,174.5 196.8,175.7 C196.8,176.8 195.9,177.8 194.7,177.8 L166.7,177.8 C165.6,177.8 164.6,176.9 164.6,175.7 C164.7,174.6 165.6,173.6 166.7,173.6 Z" id="Path" fill="#362F9C" fill-rule="nonzero"></path>
                <path d="M166.7,197.9 L194.7,197.9 C195.8,197.9 196.8,198.8 196.8,200 C196.8,201.1 195.9,202.1 194.7,202.1 L166.7,202.1 C165.6,202.1 164.6,201.2 164.6,200 C164.7,198.9 165.6,197.9 166.7,197.9 Z" id="Path" fill="#362F9C" fill-rule="nonzero"></path>
                <path d="M191,184.9 L241.9,184.9 C243,184.9 244,185.8 244,187 C244,188.1 243.1,189.1 241.9,189.1 L191,189.1 C189.9,189.1 188.9,188.2 188.9,187 C188.9,185.9 189.9,184.9 191,184.9 Z" id="Path" fill="#362F9C" fill-rule="nonzero"></path>
                <path d="M191,91 L241.9,91 C243,91 244,91.9 244,93.1 C244,94.2 243.1,95.2 241.9,95.2 L191,95.2 C189.9,95.2 188.9,94.3 188.9,93.1 C188.9,92 189.9,91 191,91 Z" id="Path" fill="#362F9C" fill-rule="nonzero"></path>
                <path d="M191,102.9 L254.3,102.9 C255.4,102.9 256.4,103.8 256.4,105 C256.4,106.1 255.5,107.1 254.3,107.1 L191,107.1 C189.9,107.1 188.9,106.2 188.9,105 C188.9,103.8 189.9,102.9 191,102.9 Z" id="Path" fill="#362F9C" fill-rule="nonzero"></path>
                <path d="M191,114.1 L254.3,114.1 C255.4,114.1 256.4,115 256.4,116.2 C256.4,117.3 255.5,118.3 254.3,118.3 L191,118.3 C189.9,118.3 188.9,117.4 188.9,116.2 C188.9,115 189.9,114.1 191,114.1 Z" id="Path" fill="#362F9C" fill-rule="nonzero"></path>
                <path d="M191,125.3 L208.2,125.3 C209.3,125.3 210.3,126.2 210.3,127.4 C210.3,128.5 209.4,129.5 208.2,129.5 L191,129.5 C189.9,129.5 188.9,128.6 188.9,127.4 C188.9,126.2 189.9,125.3 191,125.3 Z" id="Path" fill="#362F9C" fill-rule="nonzero"></path>
                <path d="M215.5,125.3 L232.7,125.3 C233.8,125.3 234.8,126.2 234.8,127.4 C234.8,128.5 233.9,129.5 232.7,129.5 L215.5,129.5 C214.4,129.5 213.4,128.6 213.4,127.4 C213.4,126.2 214.3,125.3 215.5,125.3 Z" id="Path" fill="#362F9C" fill-rule="nonzero"></path>
                <path d="M191,138.8 L214.2,138.8 C215.3,138.8 216.3,139.7 216.3,140.9 C216.3,142 215.4,143 214.2,143 L191,143 C189.9,143 188.9,142.1 188.9,140.9 C188.9,139.7 189.9,138.8 191,138.8 Z" id="Path" fill="#362F9C" fill-rule="nonzero"></path>
                <path d="M222.3,138.8 L245.5,138.8 C246.6,138.8 247.6,139.7 247.6,140.9 C247.6,142 246.7,143 245.5,143 L222.3,143 C221.2,143 220.2,142.1 220.2,140.9 C220.2,139.7 221.1,138.8 222.3,138.8 Z" id="Path" fill="#362F9C" fill-rule="nonzero"></path>
                <path d="M191,148.9 L219,148.9 C220.1,148.9 221.1,149.8 221.1,151 C221.1,152.1 220.2,153.1 219,153.1 L191,153.1 C189.9,153.1 188.9,152.2 188.9,151 C188.9,149.9 189.9,148.9 191,148.9 Z" id="Path" fill="#362F9C" fill-rule="nonzero"></path>
                <path d="M227.8,148.9 L255.8,148.9 C256.9,148.9 257.9,149.8 257.9,151 C257.9,152.1 257,153.1 255.8,153.1 L227.8,153.1 C226.7,153.1 225.7,152.2 225.7,151 C225.8,149.9 226.7,148.9 227.8,148.9 Z" id="Path" fill="#362F9C" fill-rule="nonzero"></path>
                <path d="M191,160.4 L209.9,160.4 C211,160.4 212,161.3 212,162.5 C212,163.6 211.1,164.6 209.9,164.6 L191,164.6 C189.9,164.6 188.9,163.7 188.9,162.5 C188.9,161.3 189.9,160.4 191,160.4 Z" id="Path" fill="#362F9C" fill-rule="nonzero"></path>
                <path d="M218,160.4 L236.9,160.4 C238,160.4 239,161.3 239,162.5 C239,163.6 238.1,164.6 236.9,164.6 L218,164.6 C216.9,164.6 215.9,163.7 215.9,162.5 C215.9,161.3 216.9,160.4 218,160.4 Z" id="Path" fill="#362F9C" fill-rule="nonzero"></path>
                <path d="M191,173.6 L219,173.6 C220.1,173.6 221.1,174.5 221.1,175.7 C221.1,176.8 220.2,177.8 219,177.8 L191,177.8 C189.9,177.8 188.9,176.9 188.9,175.7 C188.9,174.6 189.9,173.6 191,173.6 Z" id="Path" fill="#362F9C" fill-rule="nonzero"></path>
                <path d="M191,197.9 L219,197.9 C220.1,197.9 221.1,198.8 221.1,200 C221.1,201.1 220.2,202.1 219,202.1 L191,202.1 C189.9,202.1 188.9,201.2 188.9,200 C188.9,198.9 189.9,197.9 191,197.9 Z" id="Path" fill="#362F9C" fill-rule="nonzero"></path>
                <path d="M227.8,173.6 L255.8,173.6 C256.9,173.6 257.9,174.5 257.9,175.7 C257.9,176.8 257,177.8 255.8,177.8 L227.8,177.8 C226.7,177.8 225.7,176.9 225.7,175.7 C225.8,174.6 226.7,173.6 227.8,173.6 Z" id="Path" fill="#362F9C" fill-rule="nonzero"></path>
                <path d="M227.8,197.9 L255.8,197.9 C256.9,197.9 257.9,198.8 257.9,200 C257.9,201.1 257,202.1 255.8,202.1 L227.8,202.1 C226.7,202.1 225.7,201.2 225.7,200 C225.8,198.9 226.7,197.9 227.8,197.9 Z" id="Path" fill="#362F9C" fill-rule="nonzero"></path>
                <path d="M236,184.9 L286.9,184.9 C288,184.9 289,185.8 289,187 C289,188.1 288.1,189.1 286.9,189.1 L236,189.1 C234.9,189.1 233.9,188.2 233.9,187 C233.9,185.9 234.9,184.9 236,184.9 Z" id="Path" fill="#362F9C" fill-rule="nonzero"></path>
                <path d="M236,91 L286.9,91 C288,91 289,91.9 289,93.1 C289,94.2 288.1,95.2 286.9,95.2 L236,95.2 C234.9,95.2 233.9,94.3 233.9,93.1 C233.9,92 234.9,91 236,91 Z" id="Path" fill="#362F9C" fill-rule="nonzero"></path>
                <path d="M236,102.9 L299.3,102.9 C300.4,102.9 301.4,103.8 301.4,105 C301.4,106.1 300.5,107.1 299.3,107.1 L236,107.1 C234.9,107.1 233.9,106.2 233.9,105 C233.9,103.8 234.9,102.9 236,102.9 Z" id="Path" fill="#362F9C" fill-rule="nonzero"></path>
                <path d="M236,114.1 L299.3,114.1 C300.4,114.1 301.4,115 301.4,116.2 C301.4,117.3 300.5,118.3 299.3,118.3 L236,118.3 C234.9,118.3 233.9,117.4 233.9,116.2 C233.9,115 234.9,114.1 236,114.1 Z" id="Path" fill="#362F9C" fill-rule="nonzero"></path>
                <path d="M236,125.3 L253.2,125.3 C254.3,125.3 255.3,126.2 255.3,127.4 C255.3,128.5 254.4,129.5 253.2,129.5 L236,129.5 C234.9,129.5 233.9,128.6 233.9,127.4 C233.9,126.2 234.9,125.3 236,125.3 Z" id="Path" fill="#362F9C" fill-rule="nonzero"></path>
                <path d="M260.5,125.3 L277.7,125.3 C278.8,125.3 279.8,126.2 279.8,127.4 C279.8,128.5 278.9,129.5 277.7,129.5 L260.5,129.5 C259.4,129.5 258.4,128.6 258.4,127.4 C258.4,126.2 259.3,125.3 260.5,125.3 Z" id="Path" fill="#362F9C" fill-rule="nonzero"></path>
                <path d="M236,138.8 L259.2,138.8 C260.3,138.8 261.3,139.7 261.3,140.9 C261.3,142 260.4,143 259.2,143 L236,143 C234.9,143 233.9,142.1 233.9,140.9 C233.9,139.7 234.9,138.8 236,138.8 Z" id="Path" fill="#362F9C" fill-rule="nonzero"></path>
                <path d="M267.3,138.8 L290.5,138.8 C291.6,138.8 292.6,139.7 292.6,140.9 C292.6,142 291.7,143 290.5,143 L267.3,143 C266.2,143 265.2,142.1 265.2,140.9 C265.2,139.7 266.1,138.8 267.3,138.8 Z" id="Path" fill="#362F9C" fill-rule="nonzero"></path>
                <path d="M236,148.9 L264,148.9 C265.1,148.9 266.1,149.8 266.1,151 C266.1,152.1 265.2,153.1 264,153.1 L236,153.1 C234.9,153.1 233.9,152.2 233.9,151 C233.9,149.9 234.9,148.9 236,148.9 Z" id="Path" fill="#362F9C" fill-rule="nonzero"></path>
                <path d="M272.8,148.9 L300.8,148.9 C301.9,148.9 302.9,149.8 302.9,151 C302.9,152.1 302,153.1 300.8,153.1 L272.8,153.1 C271.7,153.1 270.7,152.2 270.7,151 C270.8,149.9 271.7,148.9 272.8,148.9 Z" id="Path" fill="#362F9C" fill-rule="nonzero"></path>
                <path d="M236,160.4 L254.9,160.4 C256,160.4 257,161.3 257,162.5 C257,163.6 256.1,164.6 254.9,164.6 L236,164.6 C234.9,164.6 233.9,163.7 233.9,162.5 C233.9,161.3 234.9,160.4 236,160.4 Z" id="Path" fill="#362F9C" fill-rule="nonzero"></path>
                <path d="M263,160.4 L281.9,160.4 C283,160.4 284,161.3 284,162.5 C284,163.6 283.1,164.6 281.9,164.6 L263,164.6 C261.9,164.6 260.9,163.7 260.9,162.5 C260.9,161.3 261.9,160.4 263,160.4 Z" id="Path" fill="#362F9C" fill-rule="nonzero"></path>
                <path d="M236,173.6 L264,173.6 C265.1,173.6 266.1,174.5 266.1,175.7 C266.1,176.8 265.2,177.8 264,177.8 L236,177.8 C234.9,177.8 233.9,176.9 233.9,175.7 C233.9,174.6 234.9,173.6 236,173.6 Z" id="Path" fill="#362F9C" fill-rule="nonzero"></path>
                <path d="M236,197.9 L264,197.9 C265.1,197.9 266.1,198.8 266.1,200 C266.1,201.1 265.2,202.1 264,202.1 L236,202.1 C234.9,202.1 233.9,201.2 233.9,200 C233.9,198.9 234.9,197.9 236,197.9 Z" id="Path" fill="#362F9C" fill-rule="nonzero"></path>
                <path d="M272.8,173.6 L300.8,173.6 C301.9,173.6 302.9,174.5 302.9,175.7 C302.9,176.8 302,177.8 300.8,177.8 L272.8,177.8 C271.7,177.8 270.7,176.9 270.7,175.7 C270.8,174.6 271.7,173.6 272.8,173.6 Z" id="Path" fill="#362F9C" fill-rule="nonzero"></path>
                <path d="M272.8,197.9 L300.8,197.9 C301.9,197.9 302.9,198.8 302.9,200 C302.9,201.1 302,202.1 300.8,202.1 L272.8,202.1 C271.7,202.1 270.7,201.2 270.7,200 C270.8,198.9 271.7,197.9 272.8,197.9 Z" id="Path" fill="#362F9C" fill-rule="nonzero"></path>
                <path d="M112.359,77.816 C112.359,73.397 115.941,69.816 120.359,69.816 L368.939,69.816 C373.358,69.816 376.939,73.397 376.939,77.816 L376.939,82 L112.359,82 L112.359,77.816 Z" id="Path" fill="#F6CD40" fill-rule="nonzero"></path>
                <circle id="Oval" fill="#31C5FF" fill-rule="nonzero" cx="346.102" cy="75.908" r="2.68456"></circle>
                <circle id="Oval" fill="#FC3E54" fill-rule="nonzero" cx="354.146" cy="75.908" r="2.68456"></circle>
                <circle id="Oval" fill="#03E59F" fill-rule="nonzero" cx="362.146" cy="75.908" r="2.68456"></circle>
                <rect id="Rectangle" fill="#48C4FF" fill-rule="nonzero" x="307.146" y="129.797" width="55" height="33.5064" rx="4"></rect>
                <rect id="Rectangle" fill="#03E59F" fill-rule="nonzero" x="307.146" y="91" width="55" height="33.5064" rx="4"></rect>
                <rect id="Rectangle" fill="#FC3E54" fill-rule="nonzero" x="307.146" y="168.594" width="55" height="33.5064" rx="4"></rect>
                <path d="M347.809,96.236 L321.483,96.236 C321.047,96.236 320.628,96.409 320.32,96.718 C320.011,97.026 319.838,97.445 319.838,97.881 L319.838,117.625 C319.838,118.062 320.011,118.48 320.32,118.789 C320.628,119.097 321.047,119.271 321.483,119.271 L347.809,119.271 C348.245,119.271 348.664,119.097 348.972,118.789 C349.281,118.48 349.454,118.062 349.454,117.625 L349.454,97.881 C349.454,97.445 349.281,97.026 348.972,96.718 C348.664,96.409 348.245,96.236 347.809,96.236 Z M339.993,101.994 C340.539,101.994 341.062,102.211 341.448,102.597 C341.833,102.982 342.05,103.506 342.05,104.051 C342.05,104.597 341.833,105.12 341.448,105.505 C341.062,105.891 340.539,106.108 339.993,106.108 C339.448,106.108 338.925,105.891 338.539,105.505 C338.153,105.12 337.937,104.597 337.937,104.051 C337.937,103.506 338.153,102.982 338.539,102.597 C338.925,102.211 339.448,101.994 339.993,101.994 Z M324.774,114.335 L330.227,101.799 L336.428,111.839 L341.744,109.198 L344.518,114.335 L324.774,114.335 Z" id="Shape" fill="#FFFFFF" fill-rule="nonzero"></path>
                <path d="M347.809,135.032 L321.483,135.032 C321.047,135.032 320.628,135.206 320.32,135.514 C320.011,135.823 319.838,136.241 319.838,136.678 L319.838,156.422 C319.838,156.859 320.011,157.277 320.32,157.586 C320.628,157.894 321.047,158.068 321.483,158.068 L347.809,158.068 C348.245,158.068 348.664,157.894 348.972,157.586 C349.281,157.277 349.454,156.859 349.454,156.422 L349.454,136.678 C349.454,136.241 349.281,135.823 348.972,135.514 C348.664,135.206 348.245,135.032 347.809,135.032 Z M339.993,140.791 C340.539,140.791 341.062,141.008 341.448,141.394 C341.833,141.779 342.05,142.302 342.05,142.848 C342.05,143.393 341.833,143.917 341.448,144.302 C341.062,144.688 340.539,144.905 339.993,144.905 C339.448,144.905 338.925,144.688 338.539,144.302 C338.153,143.917 337.937,143.393 337.937,142.848 C337.937,142.302 338.153,141.779 338.539,141.394 C338.925,141.008 339.448,140.791 339.993,140.791 Z M324.774,153.131 L330.227,140.595 L336.428,150.635 L341.744,147.995 L344.518,153.131 L324.774,153.131 Z" id="Shape" fill="#FFFFFF" fill-rule="nonzero"></path>
                <path d="M347.809,173.829 L321.483,173.829 C321.047,173.829 320.628,174.003 320.32,174.311 C320.011,174.62 319.838,175.038 319.838,175.475 L319.838,195.219 C319.838,195.655 320.011,196.074 320.32,196.382 C320.628,196.691 321.047,196.864 321.483,196.864 L347.809,196.864 C348.245,196.864 348.664,196.691 348.972,196.382 C349.281,196.074 349.454,195.655 349.454,195.219 L349.454,175.475 C349.454,175.038 349.281,174.62 348.972,174.311 C348.664,174.003 348.245,173.829 347.809,173.829 Z M339.994,179.588 C340.539,179.588 341.062,179.805 341.448,180.19 C341.834,180.576 342.05,181.099 342.05,181.645 C342.05,182.19 341.834,182.713 341.448,183.099 C341.062,183.485 340.539,183.702 339.994,183.702 C339.448,183.702 338.925,183.485 338.539,183.099 C338.153,182.713 337.937,182.19 337.937,181.645 C337.937,181.099 338.153,180.576 338.539,180.19 C338.925,179.805 339.448,179.588 339.994,179.588 Z M324.774,191.928 L330.227,179.392 L336.428,189.432 L341.744,186.791 L344.518,191.928 L324.774,191.928 Z" id="Shape" fill="#FFFFFF" fill-rule="nonzero"></path>
                <path d="M220.7,249.2 C219.5,271.6 216.2,276.2 193.5,288.9 L243.8,288.9 L294.1,288.9 C271.4,276.2 268.2,271.6 266.9,249.2 L243.8,247.4 L220.7,249.2 Z" id="Path" fill="#01013D" fill-rule="nonzero"></path>
                <path d="M396.9,223 L396.9,234.5 C396.9,244.2 389,252.1 379.3,252.1 L109.9,252.1 C100.2,252.1 92.3,244.2 92.3,234.5 L92.3,223 L396.9,223 Z" id="Path" fill="#E4F5FB" fill-rule="nonzero"></path>
                <polygon id="Path" fill="#01013D" fill-rule="nonzero" points="396.8 211.6 92.3 211.6 92.3 230 396.8 230"></polygon>
                <path d="M231.6,234.8 C233.3,234.8 234.7,236.2 234.7,237.9 C234.7,239.6 233.3,241 231.6,241 C229.9,241 228.5,239.6 228.5,237.9 C228.5,236.2 229.9,234.8 231.6,234.8 Z" id="Path" fill="#FC3E54" fill-rule="nonzero"></path>
                <path d="M243.2,234.8 C244.9,234.8 246.3,236.2 246.3,237.9 C246.3,239.6 244.9,241 243.2,241 C241.5,241 240.1,239.6 240.1,237.9 C240.1,236.2 241.5,234.8 243.2,234.8 Z" id="Path" fill="#31C5FF" fill-rule="nonzero"></path>
                <path d="M254.8,234.8 C256.5,234.8 257.9,236.2 257.9,237.9 C257.9,239.6 256.5,241 254.8,241 C253.1,241 251.7,239.6 251.7,237.9 C251.6,236.2 253,234.8 254.8,234.8 Z" id="Path" fill="#FFD22E" fill-rule="nonzero"></path>
                <path d="M31.4,84.5 C30.7,83.8 29.8,83.4 28.7,83.4 C27.7,83.4 26.7,83.8 26,84.5 C25.3,85.2 24.9,86.1 24.9,87.2 C24.9,88.2 25.3,89.2 26,89.9 C26.7,90.6 27.6,91 28.7,91 C29.7,91 30.7,90.6 31.4,89.9 C32.1,89.2 32.5,88.3 32.5,87.2 C32.5,86.1 32,85.2 31.4,84.5 Z M28.7,81.3 C30.3,81.3 31.8,82 32.9,83 C34,84.1 34.6,85.5 34.6,87.2 C34.6,88.8 33.9,90.3 32.9,91.4 C31.8,92.5 30.4,93.1 28.7,93.1 C27.1,93.1 25.6,92.4 24.5,91.4 C23.4,90.3 22.8,88.9 22.8,87.2 C22.8,85.6 23.5,84.1 24.5,83 C25.6,81.9 27.1,81.3 28.7,81.3 Z" id="Shape" fill="#630DD3" fill-rule="nonzero"></path>
                <path d="M322.8,252.1 L322.8,276.2 C322.8,279.7 324.2,282.9 326.5,285.2 C328.8,287.5 332,288.9 335.5,288.9 L347.5,288.9 L347.5,285.9 L335.5,285.9 C332.8,285.9 330.4,284.8 328.6,283 C326.8,281.2 325.7,278.8 325.7,276.1 L325.7,252 L322.8,252 L322.8,252.1 Z" id="Path" fill="#01013D" fill-rule="nonzero"></path>
                <path d="M336.6,252.1 L336.6,276.2 C336.6,279.7 338,282.9 340.3,285.2 C342.6,287.5 345.8,288.9 349.3,288.9 L407,288.9 L407,285.9 L349.3,285.9 C346.6,285.9 344.2,284.8 342.4,283 C340.6,281.2 339.5,278.8 339.5,276.1 L339.5,252 L336.6,252 L336.6,252.1 Z" id="Path" fill="#01013D" fill-rule="nonzero"></path>
                <polygon id="Path" fill="#01013D" fill-rule="nonzero" points="327.3 252.1 321.1 252.1 321.1 260.4 327.3 260.4"></polygon>
                <polygon id="Path" fill="#01013D" fill-rule="nonzero" points="341.3 252.1 335.1 252.1 335.1 260.4 341.3 260.4"></polygon>
                <path d="M393.239,244.6 L490.139,244.6 C492.039,244.6 493.639,246.2 493.639,248.1 L493.639,281.4 C493.639,283.3 492.039,284.9 490.139,284.9 L393.239,284.9 C391.339,284.9 389.739,283.3 389.739,281.4 L389.739,248.1 C389.739,246.2 391.339,244.6 393.239,244.6 Z" id="Path" fill="#3462F4" fill-rule="nonzero"></path>
                <path d="M400.439,249.1 L420.539,249.1 C424.439,249.1 427.539,252.2 427.539,256.1 L427.539,259 C427.539,262.9 424.439,266 420.539,266 L400.439,266 C396.539,266 393.439,262.9 393.439,259 L393.439,256.1 C393.339,252.2 396.539,249.1 400.439,249.1 Z" id="Path" fill="#01013D" fill-rule="nonzero"></path>
                <path d="M437.639,249.1 L483.139,249.1 C487.039,249.1 490.139,252.2 490.139,256.1 L490.139,259 C490.139,262.9 487.039,266 483.139,266 L437.639,266 C433.739,266 430.639,262.9 430.639,259 L430.639,256.1 C430.639,252.2 433.739,249.1 437.639,249.1 Z" id="Path" fill="#01013D" fill-rule="nonzero"></path>
                <polygon id="Path" fill="#FC3E54" fill-rule="nonzero" points="469.639 255.4 465.539 255.4 465.539 259.5 469.639 259.5"></polygon>
                <polygon id="Path" fill="#FFD22E" fill-rule="nonzero" points="476.039 255.4 471.939 255.4 471.939 259.5 476.039 259.5"></polygon>
                <polygon id="Path" fill="#FFD22E" fill-rule="nonzero" points="482.439 255.4 478.339 255.4 478.339 259.5 482.439 259.5"></polygon>
                <polygon id="Path" fill="#092978" fill-rule="nonzero" points="412.339 284.9 397.739 284.9 397.739 288.9 412.339 288.9"></polygon>
                <polygon id="Path" fill="#092978" fill-rule="nonzero" points="484.939 284.9 470.339 284.9 470.339 288.9 484.939 288.9"></polygon>
                <path d="M393.239,200.2 L490.139,200.2 C492.039,200.2 493.639,201.8 493.639,203.7 L493.639,237 C493.639,238.9 492.039,240.5 490.139,240.5 L393.239,240.5 C391.339,240.5 389.739,238.9 389.739,237 L389.739,203.7 C389.739,201.8 391.339,200.2 393.239,200.2 Z" id="Path" fill="#3462F4" fill-rule="nonzero"></path>
                <path d="M393.239,155.801 L490.139,155.801 C492.039,155.801 493.639,157.401 493.639,159.301 L493.639,192.601 C493.639,194.501 492.039,196.101 490.139,196.101 L393.239,196.101 C391.339,196.101 389.739,194.501 389.739,192.601 L389.739,159.301 C389.739,157.401 391.339,155.801 393.239,155.801 Z" id="Path" fill="#3462F4" fill-rule="nonzero"></path>
                <path d="M393.239,111.4 L490.139,111.4 C492.039,111.4 493.639,113 493.639,114.9 L493.639,148.2 C493.639,150.1 492.039,151.7 490.139,151.7 L393.239,151.7 C391.339,151.7 389.739,150.1 389.739,148.2 L389.739,114.9 C389.739,113 391.339,111.4 393.239,111.4 Z" id="Path" fill="#3462F4" fill-rule="nonzero"></path>
                <path d="M393.239,67 L490.139,67 C492.039,67 493.639,68.6 493.639,70.5 L493.639,103.8 C493.639,105.7 492.039,107.3 490.139,107.3 L393.239,107.3 C391.339,107.3 389.739,105.7 389.739,103.8 L389.739,70.5 C389.739,68.6 391.339,67 393.239,67 Z" id="Path" fill="#3462F4" fill-rule="nonzero"></path>
                <path d="M400.439,204.7 L420.539,204.7 C424.439,204.7 427.539,207.8 427.539,211.7 L427.539,214.6 C427.539,218.5 424.439,221.6 420.539,221.6 L400.439,221.6 C396.539,221.6 393.439,218.5 393.439,214.6 L393.439,211.7 C393.339,207.9 396.539,204.7 400.439,204.7 Z" id="Path" fill="#01013D" fill-rule="nonzero"></path>
                <path d="M400.439,160.301 L420.539,160.301 C424.439,160.301 427.539,163.401 427.539,167.301 L427.539,170.201 C427.539,174.101 424.439,177.201 420.539,177.201 L400.439,177.201 C396.539,177.201 393.439,174.101 393.439,170.201 L393.439,167.301 C393.339,163.501 396.539,160.301 400.439,160.301 Z" id="Path" fill="#01013D" fill-rule="nonzero"></path>
                <path d="M400.439,115.9 L420.539,115.9 C424.439,115.9 427.539,119 427.539,122.9 L427.539,125.8 C427.539,129.7 424.439,132.8 420.539,132.8 L400.439,132.8 C396.539,132.8 393.439,129.7 393.439,125.8 L393.439,122.9 C393.339,119.1 396.539,115.9 400.439,115.9 Z" id="Path" fill="#01013D" fill-rule="nonzero"></path>
                <path d="M400.439,71.5 L420.539,71.5 C424.439,71.5 427.539,74.6 427.539,78.5 L427.539,81.4 C427.539,85.3 424.439,88.4 420.539,88.4 L400.439,88.4 C396.539,88.4 393.439,85.3 393.439,81.4 L393.439,78.5 C393.339,74.7 396.539,71.5 400.439,71.5 Z" id="Path" fill="#01013D" fill-rule="nonzero"></path>
                <path d="M437.639,204.7 L483.139,204.7 C487.039,204.7 490.139,207.8 490.139,211.7 L490.139,214.6 C490.139,218.5 487.039,221.6 483.139,221.6 L437.639,221.6 C433.739,221.6 430.639,218.5 430.639,214.6 L430.639,211.7 C430.639,207.9 433.739,204.7 437.639,204.7 Z" id="Path" fill="#01013D" fill-rule="nonzero"></path>
                <path d="M437.639,160.301 L483.139,160.301 C487.039,160.301 490.139,163.401 490.139,167.301 L490.139,170.201 C490.139,174.101 487.039,177.201 483.139,177.201 L437.639,177.201 C433.739,177.201 430.639,174.101 430.639,170.201 L430.639,167.301 C430.639,163.501 433.739,160.301 437.639,160.301 Z" id="Path" fill="#01013D" fill-rule="nonzero"></path>
                <path d="M437.639,115.9 L483.139,115.9 C487.039,115.9 490.139,119 490.139,122.9 L490.139,125.8 C490.139,129.7 487.039,132.8 483.139,132.8 L437.639,132.8 C433.739,132.8 430.639,129.7 430.639,125.8 L430.639,122.9 C430.639,119.1 433.739,115.9 437.639,115.9 Z" id="Path" fill="#01013D" fill-rule="nonzero"></path>
                <path d="M437.639,71.5 L483.139,71.5 C487.039,71.5 490.139,74.6 490.139,78.5 L490.139,81.4 C490.139,85.3 487.039,88.4 483.139,88.4 L437.639,88.4 C433.739,88.4 430.639,85.3 430.639,81.4 L430.639,78.5 C430.639,74.7 433.739,71.5 437.639,71.5 Z" id="Path" fill="#01013D" fill-rule="nonzero"></path>
                <polygon id="Path" fill="#FC3E54" fill-rule="nonzero" points="469.639 211 465.539 211 465.539 215.1 469.639 215.1"></polygon>
                <polygon id="Path" fill="#FC3E54" fill-rule="nonzero" points="469.639 166.601 465.539 166.601 465.539 170.701 469.639 170.701"></polygon>
                <polygon id="Path" fill="#FC3E54" fill-rule="nonzero" points="469.639 122.2 465.539 122.2 465.539 126.3 469.639 126.3"></polygon>
                <polygon id="Path" fill="#FC3E54" fill-rule="nonzero" points="469.639 77.801 465.539 77.801 465.539 81.901 469.639 81.901"></polygon>
                <polygon id="Path" fill="#FFD22E" fill-rule="nonzero" points="476.039 211 471.939 211 471.939 215.1 476.039 215.1"></polygon>
                <polygon id="Path" fill="#FFD22E" fill-rule="nonzero" points="476.039 166.601 471.939 166.601 471.939 170.701 476.039 170.701"></polygon>
                <polygon id="Path" fill="#FFD22E" fill-rule="nonzero" points="476.039 122.2 471.939 122.2 471.939 126.3 476.039 126.3"></polygon>
                <polygon id="Path" fill="#FFD22E" fill-rule="nonzero" points="476.039 77.801 471.939 77.801 471.939 81.901 476.039 81.901"></polygon>
                <polygon id="Path" fill="#FFD22E" fill-rule="nonzero" points="482.439 211 478.339 211 478.339 215.1 482.439 215.1"></polygon>
                <polygon id="Path" fill="#FFD22E" fill-rule="nonzero" points="482.439 166.601 478.339 166.601 478.339 170.701 482.439 170.701"></polygon>
                <polygon id="Path" fill="#FFD22E" fill-rule="nonzero" points="482.439 122.2 478.339 122.2 478.339 126.3 482.439 126.3"></polygon>
                <polygon id="Path" fill="#FFD22E" fill-rule="nonzero" points="482.439 77.801 478.339 77.801 478.339 81.901 482.439 81.901"></polygon>
                <polygon id="Path" fill="#092978" fill-rule="nonzero" points="412.339 240.6 397.739 240.6 397.739 244.6 412.339 244.6"></polygon>
                <polygon id="Path" fill="#092978" fill-rule="nonzero" points="412.339 196.201 397.739 196.201 397.739 200.201 412.339 200.201"></polygon>
                <polygon id="Path" fill="#092978" fill-rule="nonzero" points="412.339 151.8 397.739 151.8 397.739 155.8 412.339 155.8"></polygon>
                <polygon id="Path" fill="#092978" fill-rule="nonzero" points="412.339 107.4 397.739 107.4 397.739 111.4 412.339 111.4"></polygon>
                <polygon id="Path" fill="#092978" fill-rule="nonzero" points="484.939 240.6 470.339 240.6 470.339 244.6 484.939 244.6"></polygon>
                <polygon id="Path" fill="#092978" fill-rule="nonzero" points="484.939 196.201 470.339 196.201 470.339 200.201 484.939 200.201"></polygon>
                <polygon id="Path" fill="#092978" fill-rule="nonzero" points="484.939 151.8 470.339 151.8 470.339 155.8 484.939 155.8"></polygon>
                <polygon id="Path" fill="#092978" fill-rule="nonzero" points="484.939 107.4 470.339 107.4 470.339 111.4 484.939 111.4"></polygon>
                <polygon id="Path" fill="#03E59F" fill-rule="nonzero" points="403.139 211.1 399.039 211.1 399.039 215.2 403.139 215.2"></polygon>
                <polygon id="Path" fill="#03E59F" fill-rule="nonzero" points="403.139 166.701 399.039 166.701 399.039 170.801 403.139 170.801"></polygon>
                <polygon id="Path" fill="#03E59F" fill-rule="nonzero" points="403.139 122.3 399.039 122.3 399.039 126.4 403.139 126.4"></polygon>
                <polygon id="Path" fill="#03E59F" fill-rule="nonzero" points="403.139 77.9 399.039 77.9 399.039 82 403.139 82"></polygon>
                <polygon id="Path" fill="#03E59F" fill-rule="nonzero" points="410.339 211.1 406.239 211.1 406.239 215.2 410.339 215.2"></polygon>
                <polygon id="Path" fill="#03E59F" fill-rule="nonzero" points="410.339 166.701 406.239 166.701 406.239 170.801 410.339 170.801"></polygon>
                <polygon id="Path" fill="#03E59F" fill-rule="nonzero" points="410.339 122.3 406.239 122.3 406.239 126.4 410.339 126.4"></polygon>
                <polygon id="Path" fill="#03E59F" fill-rule="nonzero" points="410.339 77.9 406.239 77.9 406.239 82 410.339 82"></polygon>
                <polygon id="Path" fill="#03E59F" fill-rule="nonzero" points="403.139 255.5 399.039 255.5 399.039 259.6 403.139 259.6"></polygon>
                <polygon id="Path" fill="#03E59F" fill-rule="nonzero" points="410.339 255.5 406.239 255.5 406.239 259.6 410.339 259.6"></polygon>
                <path d="M493.739,218.6 L497.939,218.6 C501.439,218.6 504.639,220 506.939,222.3 C509.239,224.6 510.639,227.8 510.639,231.3 L510.639,287.4 L510.639,288.9 L509.139,288.9 L404.639,288.9 L394.5,288.9 L394.5,287.4 L394.5,285.9 L406.139,285.9 L496.239,285.9 L507.639,285.9 L507.639,231.3 C507.639,228.6 506.539,226.2 504.739,224.4 C502.939,222.6 500.539,221.5 497.839,221.5 L493.639,221.5 L493.639,218.6 L493.739,218.6 Z" id="Path" fill="#01013D" fill-rule="nonzero"></path>
                <path d="M493.739,174.201 L497.939,174.201 C501.439,174.201 504.639,175.601 506.939,177.901 C509.239,180.201 510.639,183.401 510.639,186.901 L510.639,243.001 L510.639,244.501 L509.139,244.501 L517.779,244.501 L507.639,244.501 L507.639,243.001 L507.639,241.501 L519.279,241.501 L609.379,241.501 L507.639,241.501 L507.639,186.901 C507.639,184.201 506.539,181.801 504.739,180.001 C502.939,178.201 500.539,177.101 497.839,177.101 L493.639,177.101 L493.639,174.201 L493.739,174.201 Z" id="Path" fill="#01013D" fill-rule="nonzero"></path>
                <path d="M493.739,129.8 L497.939,129.8 C501.439,129.8 504.639,131.2 506.939,133.5 C509.239,135.8 510.639,139 510.639,142.5 L510.639,198.6 L510.639,200.1 L509.139,200.1 L517.779,200.1 L507.639,200.1 L507.639,198.6 L507.639,197.1 L519.279,197.1 L609.379,197.1 L507.639,197.1 L507.639,142.5 C507.639,139.8 506.539,137.4 504.739,135.6 C502.939,133.8 500.539,132.7 497.839,132.7 L493.639,132.7 L493.639,129.8 L493.739,129.8 Z" id="Path" fill="#01013D" fill-rule="nonzero"></path>
                <path d="M493.739,85.4 L497.939,85.4 C501.439,85.4 504.639,86.8 506.939,89.1 C509.239,91.4 510.639,94.6 510.639,98.1 L510.639,154.2 L510.639,155.7 L509.139,155.7 L517.779,155.7 L507.639,155.7 L507.639,154.2 L507.639,152.7 L519.279,152.7 L609.379,152.7 L507.639,152.7 L507.639,98.1 C507.639,95.4 506.539,93 504.739,91.2 C502.939,89.4 500.539,88.3 497.839,88.3 L493.639,88.3 L493.639,85.4 L493.739,85.4 Z" id="Path" fill="#01013D" fill-rule="nonzero"></path>
                <path d="M493.739,262.7 L497.939,262.7 C501.439,262.7 504.639,264.1 506.939,266.4 C509.239,268.7 510.639,271.9 510.639,275.4 L510.639,287.4 L507.639,287.4 L507.639,275.4 C507.639,272.7 506.539,270.3 504.739,268.5 C502.939,266.7 500.539,265.6 497.839,265.6 L493.639,265.6 L493.639,262.7 L493.739,262.7 Z" id="Path" fill="#01013D" fill-rule="nonzero"></path>
                <path d="M493.739,215.5 L494.739,215.5 C495.239,215.5 495.739,215.9 495.739,216.5 L495.739,223.5 C495.739,224 495.339,224.5 494.739,224.5 L493.739,224.5 L493.739,215.5 Z" id="Path" fill="#01013D" fill-rule="nonzero"></path>
                <path d="M493.739,171.101 L494.739,171.101 C495.239,171.101 495.739,171.501 495.739,172.101 L495.739,179.101 C495.739,179.601 495.339,180.101 494.739,180.101 L493.739,180.101 L493.739,171.101 Z" id="Path" fill="#01013D" fill-rule="nonzero"></path>
                <path d="M493.739,126.7 L494.739,126.7 C495.239,126.7 495.739,127.1 495.739,127.7 L495.739,134.7 C495.739,135.2 495.339,135.7 494.739,135.7 L493.739,135.7 L493.739,126.7 Z" id="Path" fill="#01013D" fill-rule="nonzero"></path>
                <path d="M493.739,82.301 L494.739,82.301 C495.239,82.301 495.739,82.701 495.739,83.301 L495.739,90.301 C495.739,90.801 495.339,91.301 494.739,91.301 L493.739,91.301 L493.739,82.301 Z" id="Path" fill="#01013D" fill-rule="nonzero"></path>
                <path d="M493.739,259.7 L494.739,259.7 C495.239,259.7 495.739,260.1 495.739,260.7 L495.739,267.7 C495.739,268.2 495.339,268.7 494.739,268.7 L493.739,268.7 L493.739,259.7 Z" id="Path" fill="#01013D" fill-rule="nonzero"></path>
                <rect id="Rectangle" stroke="#1DAFF4" stroke-width="2" transform="translate(158.631776, 24.398821) rotate(-58.716700) translate(-158.631776, -24.398821) " x="152.621226" y="18.3882711" width="12.0211" height="12.0211" rx="2"></rect>
                <rect id="Rectangle" stroke="#B12DE8" stroke-width="2" fill="#B12DE8" fill-rule="nonzero" transform="translate(166.389418, 19.346233) rotate(-58.716700) translate(-166.389418, -19.346233) " x="160.712718" y="13.3356828" width="11.3534" height="12.0211" rx="2"></rect>
                <circle id="Oval" fill="#1DAFF4" fill-rule="nonzero" cx="65.5" cy="18.5" r="5.5"></circle>
                <circle id="Oval" fill="#B12DE8" fill-rule="nonzero" cx="63" cy="3" r="3"></circle>
                <circle id="Oval" fill="#B12DE8" fill-rule="nonzero" cx="73" cy="147" r="3"></circle>
                <path d="M176.521,169.452 C176.296,169.789 176.072,170.125 175.96,170.462 C175.286,171.585 174.5,172.484 173.714,173.382 C172.815,174.281 171.917,175.067 171.018,175.74 C167.425,178.323 163.157,179.446 159.452,178.436 C158.553,178.211 157.767,177.874 156.981,177.425 C156.195,176.976 155.521,176.414 154.847,175.853 C150.468,171.585 149.906,163.5 153.949,156.537 C156.869,151.371 161.585,148.002 166.302,147.329 C168.885,146.879 171.355,147.329 173.601,148.564 C175.847,149.799 177.419,151.821 178.318,154.179 C178.655,154.965 178.879,155.639 178.992,156.537 C179.216,157.66 179.329,158.783 179.329,160.019 C179.329,162.377 178.767,164.847 177.756,167.206 C177.307,167.992 176.97,168.778 176.521,169.452 Z" id="Path" fill="#F8C44A" fill-rule="nonzero"></path>
                <path d="M179.216,152.831 C178.992,153.281 178.655,153.73 178.206,154.179 C177.307,151.821 175.623,149.799 173.489,148.564 C171.243,147.329 168.772,146.879 166.19,147.329 C166.302,146.767 166.526,146.318 166.863,145.869 C168.099,143.735 170.345,142.387 172.591,142.275 C173.601,142.163 174.724,142.387 175.735,142.837 C175.96,142.949 176.296,143.061 176.521,143.286 C176.746,143.398 176.97,143.623 177.195,143.735 C178.093,144.409 178.767,145.195 179.329,146.206 C180.452,148.115 180.452,150.698 179.216,152.831 Z" id="Path" fill="#E8A200" fill-rule="nonzero"></path>
                <path d="M180.676,143.848 L179.441,146.093 C178.992,145.195 178.206,144.297 177.307,143.623 L178.093,142.388 C178.542,141.714 179.441,141.377 180.115,141.826 C180.452,142.051 180.676,142.388 180.788,142.725 C180.901,143.061 180.901,143.511 180.676,143.848 Z" id="Path" fill="#49444F" fill-rule="nonzero"></path>
                <path d="M176.521,141.489 L175.735,142.724 C174.724,142.275 173.601,142.163 172.591,142.163 L173.826,139.917 C174.275,139.131 175.174,138.906 175.847,139.355 C176.184,139.58 176.409,139.917 176.521,140.254 C176.746,140.703 176.746,141.152 176.521,141.489 Z" id="Path" fill="#49444F" fill-rule="nonzero"></path>
                <path d="M193.815,149.575 L188.762,158.334 C188.425,158.783 187.976,159.12 187.414,159.232 L179.216,159.906 C179.216,158.671 179.104,157.548 178.879,156.425 L186.179,155.863 L190.783,147.89 C191.232,147.104 192.355,146.767 193.141,147.216 C194.04,147.666 194.264,148.789 193.815,149.575 Z" id="Path" fill="#B12DE8" fill-rule="nonzero"></path>
                <path d="M176.184,180.457 L171.131,189.217 C170.681,190.003 169.558,190.34 168.772,189.89 C167.986,189.441 167.649,188.318 168.099,187.532 L172.703,179.559 L170.906,175.853 C171.917,175.179 172.815,174.393 173.601,173.495 L176.184,178.885 C176.521,179.334 176.521,180.008 176.184,180.457 Z" id="Path" fill="#B12DE8" fill-rule="nonzero"></path>
                <path d="M191.794,167.655 L185.617,171.361 C185.28,171.585 184.831,171.585 184.494,171.585 L176.072,170.462 C176.296,170.125 176.521,169.789 176.746,169.452 C177.195,168.666 177.532,167.992 177.869,167.206 L184.494,168.104 L190.222,164.735 C191.008,164.286 192.131,164.51 192.58,165.297 C192.805,166.083 192.58,167.206 191.794,167.655 Z" id="Path" fill="#B12DE8" fill-rule="nonzero"></path>
                <path d="M162.259,131.607 L157.206,140.366 C156.869,140.815 156.869,141.489 157.206,141.938 L160.799,149.35 C161.81,148.676 162.933,148.227 163.944,147.89 L160.799,141.265 L165.403,133.291 C165.853,132.505 165.628,131.382 164.73,130.933 C163.831,130.484 162.708,130.708 162.259,131.607 Z" id="Path" fill="#B12DE8" fill-rule="nonzero"></path>
                <path d="M144.628,162.377 L139.575,171.136 C139.125,171.922 139.35,173.045 140.248,173.495 C141.034,173.944 142.157,173.719 142.607,172.821 L147.211,164.847 L151.366,164.511 C151.478,163.388 151.703,162.152 152.04,160.917 L146.088,161.366 C145.414,161.591 144.853,161.928 144.628,162.377 Z" id="Path" fill="#B12DE8" fill-rule="nonzero"></path>
                <path d="M147.772,142.5 L147.772,149.687 C147.772,150.136 147.885,150.473 148.109,150.81 L153.387,157.548 C153.612,157.211 153.724,156.874 153.949,156.537 C154.398,155.751 154.847,155.077 155.296,154.404 L151.141,149.126 L151.141,142.5 C151.141,141.489 150.355,140.703 149.457,140.703 C148.558,140.815 147.772,141.602 147.772,142.5 Z" id="Path" fill="#B12DE8" fill-rule="nonzero"></path>
                <path d="M269.121,112.563 C269.247,112.802 269.373,113.041 269.535,113.215 C269.978,113.967 270.254,114.714 270.53,115.461 C270.771,116.274 270.945,117.051 271.054,117.792 C271.423,120.721 270.721,123.58 268.948,125.43 C268.53,125.885 268.082,126.238 267.568,126.556 C267.055,126.874 266.511,127.09 265.967,127.306 C262.07,128.513 257.153,126.266 254.36,121.678 C252.263,118.32 251.791,114.483 252.899,111.504 C253.459,109.847 254.509,108.542 255.949,107.619 C257.389,106.696 259.074,106.419 260.743,106.644 C261.311,106.697 261.777,106.78 262.34,107 C263.069,107.227 263.763,107.519 264.487,107.912 C265.869,108.664 267.138,109.78 268.199,111.124 C268.516,111.638 268.87,112.085 269.121,112.563 Z" id="Path" fill="#F8C44A" fill-rule="nonzero"></path>
                <path d="M260.239,105.688 C260.431,105.963 260.587,106.303 260.707,106.71 C259.038,106.485 257.317,106.828 255.913,107.685 C254.474,108.608 253.423,109.913 252.863,111.57 C252.57,111.325 252.378,111.05 252.222,110.709 C251.366,109.306 251.291,107.56 251.941,106.208 C252.197,105.58 252.687,104.993 253.272,104.544 C253.41,104.448 253.583,104.286 253.786,104.226 C253.923,104.13 254.127,104.07 254.264,103.974 C254.945,103.663 255.62,103.518 256.392,103.511 C257.868,103.461 259.382,104.284 260.239,105.688 Z" id="Path" fill="#E8A200" fill-rule="nonzero"></path>
                <path d="M255.439,101.97 L256.362,103.409 C255.692,103.386 254.915,103.561 254.234,103.873 L253.76,103.018 C253.509,102.541 253.597,101.907 254.075,101.655 C254.314,101.529 254.583,101.505 254.817,101.546 C255.05,101.588 255.313,101.731 255.439,101.97 Z" id="Path" fill="#49444F" fill-rule="nonzero"></path>
                <path d="M252.733,103.654 L253.206,104.508 C252.621,104.957 252.197,105.58 251.875,106.172 L250.953,104.732 C250.635,104.219 250.79,103.621 251.268,103.369 C251.507,103.243 251.776,103.219 252.009,103.26 C252.344,103.272 252.607,103.415 252.733,103.654 Z" id="Path" fill="#49444F" fill-rule="nonzero"></path>
                <path d="M262.982,96.094 L266.506,101.847 C266.662,102.188 266.716,102.558 266.603,102.923 L264.386,107.942 C263.662,107.549 262.968,107.257 262.238,107.031 L264.235,102.574 L261.029,97.335 C260.711,96.821 260.871,96.055 261.385,95.738 C261.935,95.354 262.664,95.581 262.982,96.094 Z" id="Path" fill="#B12DE8" fill-rule="nonzero"></path>
                <path d="M275.464,116.268 L278.988,122.021 C279.305,122.534 279.145,123.3 278.631,123.617 C278.117,123.935 277.352,123.775 277.034,123.261 L273.828,118.022 L271.084,117.894 C271.011,117.087 270.837,116.31 270.56,115.563 L274.543,115.767 C274.913,115.712 275.308,115.927 275.464,116.268 Z" id="Path" fill="#B12DE8" fill-rule="nonzero"></path>
                <path d="M272.935,103.04 L273.139,107.841 C273.163,108.11 273.02,108.373 272.912,108.57 L269.57,113.149 C269.445,112.91 269.319,112.671 269.193,112.432 C268.875,111.918 268.588,111.506 268.234,111.058 L270.872,107.461 L270.722,103.031 C270.71,102.427 271.199,101.841 271.803,101.828 C272.335,101.947 272.922,102.436 272.935,103.04 Z" id="Path" fill="#B12DE8" fill-rule="nonzero"></path>
                <path d="M242.397,108.864 L245.92,114.616 C246.076,114.957 246.471,115.172 246.842,115.117 L252.331,115.373 C252.258,114.566 252.352,113.764 252.477,113.065 L247.592,112.797 L244.386,107.558 C244.068,107.044 243.339,106.818 242.789,107.201 C242.24,107.584 242.013,108.314 242.397,108.864 Z" id="Path" fill="#B12DE8" fill-rule="nonzero"></path>
                <path d="M254.813,129.001 L258.336,134.754 C258.654,135.268 259.384,135.494 259.933,135.111 C260.447,134.793 260.673,134.063 260.29,133.514 L257.084,128.275 L258.21,125.732 C257.588,125.309 256.935,124.783 256.319,124.192 L254.686,127.824 C254.603,128.29 254.621,128.727 254.813,129.001 Z" id="Path" fill="#B12DE8" fill-rule="nonzero"></path>
                <path d="M244.165,120.825 L248.377,123.115 C248.641,123.258 248.874,123.3 249.143,123.275 L254.774,122.329 C254.648,122.09 254.486,121.917 254.36,121.678 C254.043,121.164 253.791,120.686 253.539,120.208 L249.122,120.962 L245.239,118.85 C244.646,118.528 243.935,118.739 243.649,119.265 C243.428,119.828 243.639,120.539 244.165,120.825 Z" id="Path" fill="#B12DE8" fill-rule="nonzero"></path>
            </g>
            <g id="header_splash_use_cases_craigslist2" transform="translate(363.000000, 179.000000)" fill-rule="nonzero">
                <path d="M47.787,167.026 C47.011,166.578 46.234,166.242 45.458,165.906 L41.02,163.889 L41.353,164.673 C37.913,164.001 34.252,164.001 30.813,164.561 L31.034,163.665 L25.82,166.018 C25.154,166.354 24.489,166.578 23.823,167.026 C17.166,170.835 17.166,177.108 23.823,180.917 C30.48,184.726 41.131,184.726 47.787,180.917 C54.444,177.108 54.444,170.835 47.787,167.026 Z" id="Path" fill="#983BE9"></path>
                <path d="M41.463,170.611 C38.357,172.403 33.364,172.403 30.258,170.611 C27.151,168.818 27.151,165.906 30.258,164.113 C33.364,162.321 38.357,162.321 41.463,164.113 C44.57,165.906 44.57,168.818 41.463,170.611 Z" id="Path" fill="#8A2AE3"></path>
                <path d="M35.916,168.594 C34.474,168.594 33.253,167.362 33.253,165.906 L33.253,131.513 L38.69,131.513 L38.69,165.906 C38.579,167.474 37.358,168.594 35.916,168.594 Z" id="Path" fill="#8A2AE3"></path>
                <path d="M37.802,132.745 C36.693,133.417 35.029,133.417 33.919,132.745 C32.81,132.073 32.81,131.065 33.919,130.505 C35.029,129.832 36.693,129.832 37.802,130.505 C38.801,131.177 38.801,132.185 37.802,132.745 Z" id="Path" fill="#983BE9"></path>
                <path d="M35.916,132.745 C34.696,132.745 33.697,131.737 33.697,130.505 L33.697,98.2400004 L38.024,98.2400004 L38.024,130.505 C38.024,131.737 37.137,132.745 35.916,132.745 Z" id="Path" fill="#8A2AE3"></path>
                <path d="M67.314,115.157 L67.314,113.925 L69.089,113.701 L71.086,112.244 C71.419,112.02 71.974,112.02 72.418,112.244 L73.86,113.14 L75.302,112.916 L75.302,114.149 C75.302,114.261 75.191,114.485 74.969,114.485 L70.31,116.613 C69.977,116.725 69.422,116.725 69.089,116.613 L67.536,115.717 C67.425,115.381 67.314,115.269 67.314,115.157 Z" id="Path" fill="#B45EF4"></path>
                <path d="M67.425,113.477 L70.975,110.788 C71.308,110.564 71.863,110.564 72.307,110.788 L74.969,112.356 C75.302,112.58 75.302,112.916 74.858,113.141 L70.199,115.269 C69.866,115.381 69.311,115.381 68.978,115.269 L67.425,114.373 C67.203,114.037 67.203,113.701 67.425,113.477 Z" id="Path" fill="#8A2AE3"></path>
                <path d="M61.434,119.638 C61.989,119.638 62.432,119.526 62.876,119.302 L68.424,116.053 C68.756,115.829 68.867,115.493 68.645,115.157 C68.424,114.821 68.091,114.709 67.758,114.933 L62.211,118.182 C61.767,118.406 61.101,118.406 60.657,118.182 L51.449,112.805 C51.116,112.581 50.783,112.693 50.561,113.029 C50.339,113.365 50.45,113.701 50.783,113.925 L59.992,119.302 C60.435,119.526 60.99,119.638 61.434,119.638 Z" id="Path" fill="#B45EF4"></path>
                <polygon id="Path" fill="url(#radialGradient-2)" points="8.29 107.763 17.166 102.61 12.174 100.369 7.847 103.394"></polygon>
                <path d="M65.317,100.033 C64.873,99.8090004 64.319,99.4730004 63.875,99.1370004 L44.903,85.1330004 C41.464,82.5560004 37.913,81.9960004 35.25,83.3410004 C35.14,83.3410004 35.14,83.4530004 35.029,83.4530004 L8.845,98.8010004 L11.175,99.5850004 L20.384,103.73 L32.81,112.692 L42.684,117.957 L43.128,118.069 C45.458,116.165 48.009,114.484 49.452,111.572 C51.893,107.315 58.66,106.082 62.654,102.497 C63.098,102.722 63.431,102.946 63.875,103.17 C64.651,102.385 64.873,101.265 65.317,100.033 Z" id="Path" fill="#8A2AE3"></path>
                <path d="M73.638,93.7600004 C73.194,93.7600004 72.861,93.8720004 72.529,94.0960004 L46.9,109.107 L47.787,113.028 L48.786,112.58 C47.344,114.933 45.125,116.389 43.017,118.182 L45.901,118.854 L70.975,104.178 C71.086,104.178 71.197,104.066 71.308,104.066 C71.641,103.842 71.974,103.73 72.307,103.394 C74.193,101.938 75.302,99.3610004 75.302,96.1120004 L75.302,95.7760004 C75.413,94.5440004 74.637,93.7600004 73.638,93.7600004 Z" id="Path" fill="#721BD5"></path>
                <path d="M38.579,82.5570004 C40.132,82.6690004 41.907,83.1170004 43.571,84.2370004 C41.907,83.2290004 40.132,82.6690004 38.579,82.5570004 Z" id="Path" fill="#EAEAEA"></path>
                <path d="M50.228,110.228 L50.228,109.891 C50.228,108.883 49.452,108.099 48.453,108.099 C47.455,108.099 46.678,108.883 46.678,109.891 L46.678,110.228 C46.678,112.58 45.901,114.373 44.681,115.045 C43.239,115.829 41.02,115.269 38.69,113.588 L19.718,99.5850004 C16.833,97.4560004 13.838,96.6720004 11.286,97.3440004 L26.929,88.1580004 L8.845,98.8010004 L11.175,99.5850004 L20.384,103.73 L32.81,112.692 L42.684,117.957 L43.128,118.07 C45.458,116.165 48.009,114.485 49.452,111.572 C49.563,111.124 49.895,110.788 50.228,110.228 C50.228,110.34 50.228,110.34 50.228,110.228 Z" id="Path" fill="#B45EF4"></path>
                <path d="M42.684,119.526 C40.576,119.526 38.357,118.63 36.138,117.061 L17.055,103.058 C14.725,101.377 12.506,100.817 11.064,101.601 C9.733,102.274 9.067,104.066 9.067,106.419 C9.067,107.427 8.29,108.211 7.292,108.211 C6.293,108.211 5.517,107.427 5.517,106.419 C5.517,102.61 6.959,99.8090004 9.511,98.4650004 C12.285,97.1200004 15.724,97.6800004 19.163,100.257 L38.135,114.149 C40.465,115.829 42.684,116.389 44.126,115.605 C45.458,114.933 46.123,113.14 46.123,110.788 L46.123,110.452 C46.123,109.443 46.9,108.659 47.898,108.659 C48.897,108.659 49.674,109.443 49.674,110.452 L49.674,110.788 C49.674,114.597 48.231,117.397 45.679,118.742 C44.792,119.302 43.682,119.526 42.684,119.526 Z" id="Path" fill="#983BE9"></path>
                <path d="M27.706,150.894 C27.706,150.894 24.156,149.101 21.937,151.79 C19.718,154.479 16.611,160.864 16.5,165.233 C16.39,169.603 19.829,169.266 21.937,168.258 C24.045,167.25 30.036,158.4 30.369,156.607 C30.702,154.927 29.925,152.574 29.37,152.126 C28.927,151.566 27.706,150.894 27.706,150.894 Z" id="Path" fill="#5C5C5C"></path>
                <path d="M28.483,149.998 L28.594,153.695 C28.594,154.479 28.261,155.263 27.595,155.599 C26.929,155.935 26.042,156.271 24.821,156.047 C22.159,155.599 21.937,154.815 21.715,151.118 C21.604,147.421 28.483,149.998 28.483,149.998 Z" id="Path" fill="#E8A200"></path>
                <path d="M14.725,143.724 C14.725,143.724 11.175,141.932 8.956,144.62 C6.737,147.309 3.631,153.695 3.52,158.064 C3.409,162.433 6.848,162.097 8.956,161.089 C11.064,160.08 17.055,151.23 17.388,149.438 C17.721,147.757 16.944,145.405 16.39,144.957 C15.835,144.396 14.725,143.724 14.725,143.724 Z" id="Path" fill="#5C5C5C"></path>
                <path d="M15.502,142.828 L15.613,146.525 C15.613,147.309 15.28,148.093 14.614,148.429 C13.949,148.765 13.061,149.102 11.841,148.877 C9.178,148.429 8.956,147.645 8.734,143.948 C8.512,140.251 15.502,142.828 15.502,142.828 Z" id="Path" fill="#E8A200"></path>
                <path d="M47.344,74.2670004 C46.234,56.9020004 28.705,76.8430004 28.705,76.8430004 L16.722,88.7180004 L5.85,100.705 C3.742,103.058 2.743,106.195 3.187,109.331 L7.514,142.94 C7.736,144.62 9.178,145.853 10.842,145.853 C11.286,145.853 11.841,145.853 12.506,145.741 C16.39,145.181 16.168,141.372 16.168,141.372 L15.391,109.892 L38.135,96.1120004 C38.024,96.1120004 48.342,91.6310004 47.344,74.2670004 Z" id="Path" fill="#FCCA2E"></path>
                <path d="M60.324,80.8760004 C59.215,63.5120004 41.685,83.4530004 41.685,83.4530004 L29.703,95.3280004 L18.941,107.315 C16.833,109.668 15.835,112.804 16.279,115.941 L20.606,149.55 C20.827,151.23 22.27,152.462 23.934,152.462 C24.378,152.462 24.932,152.462 25.598,152.35 C29.481,151.79 29.259,147.981 29.259,147.981 L28.483,116.501 L51.227,102.722 C51.005,102.722 61.434,98.2410004 60.324,80.8760004 Z" id="Path" fill="#FCCA2E"></path>
                <path d="M50.006,25.1980004 C63.32,30.8000004 63.098,38.7540004 63.098,38.7540004 C63.098,38.7540004 60.546,67.8810004 61.434,87.2620004 C61.767,95.4400004 18.719,96.0000004 25.154,74.3790004 C32.699,48.8360004 29.925,28.1110004 33.475,24.9740004 C36.804,21.8370004 46.567,23.7420004 50.006,25.1980004 Z" id="Path" fill="#B12DE8"></path>
                <path d="M54.293,32.3350004 C54.996,29.5790004 52.583,26.5690004 48.904,25.6120004 C45.225,24.6560004 41.673,26.1140004 40.97,28.8710004 C40.267,31.6270004 42.679,34.6370004 46.358,35.5930004 C50.037,36.5500004 53.59,35.0910004 54.293,32.3350004 Z" id="Path" fill="#FFC2B0"></path>
                <path d="M48.675,36.4010004 C47.898,36.4010004 47.011,36.2890004 46.234,36.0650004 C44.348,35.6170004 42.684,34.4970004 41.574,33.1520004 C40.465,31.6960004 40.021,30.1270004 40.354,28.5590004 C40.798,26.9910004 41.907,25.8700004 43.571,25.0860004 C45.236,24.4140004 47.122,24.3020004 49.008,24.8620004 C50.894,25.3100004 52.558,26.4300004 53.668,27.7750004 C54.777,29.2310004 55.221,30.8000004 54.888,32.3680004 C54.444,33.9360004 53.335,35.0570004 51.671,35.8410004 C50.783,36.1770004 49.674,36.4010004 48.675,36.4010004 Z M46.567,25.9820004 C45.679,25.9820004 44.792,26.0940004 44.015,26.4300004 C42.684,26.9910004 41.796,27.8870004 41.574,29.0070004 C41.242,30.1270004 41.574,31.3600004 42.462,32.4800004 C43.35,33.6000004 44.792,34.4960004 46.456,34.9450004 C48.12,35.3930004 49.785,35.2810004 51.116,34.7210004 C52.447,34.1600004 53.335,33.2640004 53.557,32.1440004 C53.89,31.0240004 53.557,29.7910004 52.669,28.6710004 C51.782,27.5510004 50.339,26.6550004 48.675,26.2060004 C48.009,26.0940004 47.344,25.9820004 46.567,25.9820004 Z" id="Shape" fill="#FFFFFF"></path>
                <path d="M44.681,24.6380004 C44.681,24.6380004 44.792,25.1980004 44.57,29.4550004 C44.459,30.8000004 49.119,32.0320004 50.339,30.8000004 C51.56,29.5670004 51.005,28.3350004 51.338,23.7420004 C51.56,19.2610004 44.681,24.6380004 44.681,24.6380004 Z" id="Path" fill="#FFC2B0"></path>
                <path d="M51.338,23.7420004 C51.338,23.7420004 50.228,27.9990004 44.57,29.5670004 L44.681,25.7580004 L51.338,23.7420004 Z" id="Path" fill="#EA9C92"></path>
                <path d="M54.888,13.0990004 C56.33,18.5880004 53.002,24.3020004 47.566,25.6460004 C42.129,27.1030004 36.471,23.7420004 35.14,18.2520004 C33.697,12.7630004 37.026,7.04900037 42.462,5.70500037 C47.898,4.36100037 53.446,7.49800037 54.888,13.0990004 Z" id="Path" fill="#FFC2B0"></path>
                <path d="M47.344,16.0120004 C47.344,16.0120004 41.685,18.4760004 37.802,18.4760004 C33.919,18.4760004 34.807,15.2280004 34.807,15.2280004 L46.345,13.5470004 L47.344,16.0120004 Z" id="Path" fill="#EA9C92"></path>
                <path d="M36.582,16.6840004 C36.582,16.6840004 41.464,14.5560004 45.79,15.4520004 C46.789,15.6760004 47.787,16.2360004 48.342,17.0200004 C48.564,17.2440004 48.786,17.5800004 49.119,17.5800004 C49.895,17.8040004 51.116,14.5560004 52.669,14.4430004 C54.111,14.3310004 55.11,15.4520004 53.89,17.3560004 C52.669,19.3730004 53.113,21.5010004 53.668,21.8370004 C54.222,22.1730004 60.214,17.5800004 54.888,7.05000037 C49.674,-3.48099963 36.36,2.23200037 34.252,4.36100037 C34.252,4.36100037 32.033,6.26500037 30.258,4.58500037 C30.369,4.69700037 28.372,19.7090004 36.582,16.6840004 Z" id="Path" fill="#5C5C5C"></path>
                <path d="M55.554,60.0390004 L55.554,67.8810004 C55.554,68.7770004 55.221,69.6730004 54.555,70.2340004 L38.468,85.0210004 L40.243,87.8220004 L61.323,72.3620004 C62.322,71.6900004 62.987,70.5700004 63.098,69.3370004 L64.54,55.6700004 L55.554,60.0390004 Z" id="Path" fill="#FFC2B0"></path>
                <path d="M61.878,34.8330004 C61.878,34.8330004 66.759,42.2270004 68.535,61.6080004 C68.535,61.6080004 60.214,64.2960004 55.554,62.7280004 C50.894,61.2710004 61.878,34.8330004 61.878,34.8330004 Z" id="Path" fill="#983BE9"></path>
                <path d="M54.666,44.1310004 C54.666,44.1310004 52.78,54.4380004 52.669,59.2550004 C52.669,60.5990004 53.446,61.8320004 54.666,62.2800004 L54.666,44.1310004 Z" id="Path" fill="#6614CF"></path>
                <path d="M50.561,95.2160004 L47.011,94.7680004 L24.156,81.4360004 C23.379,80.9880004 22.159,81.1000004 21.271,81.5480004 L5.073,90.9590004 L2.965,90.6230004 L2.965,92.8630004 C2.965,93.1990004 3.076,93.4230004 3.409,93.6470004 L29.259,108.771 C30.036,109.219 31.256,109.107 32.144,108.659 L49.785,98.3530004 C50.228,98.1290004 50.45,97.6800004 50.45,97.3440004 L50.45,95.2160004 L50.561,95.2160004 Z" id="Path" fill="#173D7A"></path>
                <path d="M33.364,86.8140004 L31.7,85.9170004 L13.949,85.9170004 L5.184,91.0710004 L3.076,90.7350004 L3.076,92.8630004 C3.076,93.1990004 3.187,93.4230004 3.52,93.6470004 L29.37,108.771 C29.703,108.995 30.258,109.107 30.813,108.995 L33.364,86.8140004 Z" id="Path" fill="#396CAA"></path>
                <path d="M3.964,90.8470004 L2.965,90.7350004 L2.965,92.8630004 C2.965,93.1990004 3.076,93.4230004 3.409,93.6470004 L3.853,93.8710004 L3.853,90.8470004 L3.964,90.8470004 Z" id="Path" fill="#5793CE"></path>
                <path d="M29.592,108.771 C30.258,108.995 31.256,108.995 32.033,108.659 L32.033,104.962 L29.592,104.962 L29.592,108.771 Z" id="Path" fill="#274F89"></path>
                <path d="M29.371,106.531 L3.52,91.4070004 C2.743,90.9590004 2.854,90.2870004 3.742,89.7260004 L21.382,79.4200004 C22.27,78.9720004 23.49,78.8600004 24.267,79.3080004 L50.118,94.4320004 C50.894,94.8800004 50.783,95.5520004 49.896,96.1120004 L32.255,106.419 C31.368,106.867 30.036,106.979 29.371,106.531 Z" id="Path" fill="#FFFFFF"></path>
                <path d="M28.927,104.29 L7.403,91.7430004 C6.848,91.4070004 6.848,90.7350004 7.625,90.3990004 L17.055,85.0210004 C17.721,84.5730004 18.83,84.5730004 19.385,84.9090004 L40.909,97.4560004 C41.464,97.7930004 41.464,98.4650004 40.687,98.8010004 L31.256,104.178 C30.591,104.514 29.481,104.626 28.927,104.29 Z" id="Path" fill="#D4ECFF"></path>
                <path d="M22.27,78.9720004 L22.048,80.7640004 C21.826,82.3330004 21.826,83.9010004 22.159,85.3570004 L22.492,86.9260004 C22.714,87.8220004 23.379,88.4940004 24.267,88.7180004 C24.932,88.8300004 25.598,88.3820004 25.709,87.5980004 L26.153,83.7890004 C26.153,83.7890004 27.151,85.1330004 27.595,85.1330004 C28.039,85.1330004 27.04,81.3240004 26.042,79.0840004 C24.932,76.9550004 22.27,78.9720004 22.27,78.9720004 Z" id="Path" fill="#FFC2B0"></path>
                <path d="M31.035,50.4040004 L28.261,56.0060004 C27.595,57.3500004 27.262,58.8070004 27.151,60.2630004 L25.931,79.0840004 L22.27,78.9720004 L20.606,57.6860004 C20.606,57.0140004 20.606,56.3420004 20.716,55.6700004 L22.603,44.9150004 L31.035,50.4040004 Z" id="Path" fill="#FFC2B0"></path>
                <path d="M28.483,107.987 L26.264,105.074 L3.52,91.7430004 C2.743,91.2950004 2.188,90.1750004 2.188,89.1660004 L2.188,70.3460004 L0.857,68.6650004 L2.077,67.9930004 C2.299,67.8810004 2.632,67.8810004 2.965,67.9930004 L28.816,83.1170004 C29.592,83.5650004 30.147,84.6850004 30.147,85.6930004 L30.147,106.195 C30.147,106.755 29.925,107.091 29.703,107.315 L28.483,107.987 Z" id="Path" fill="#173D7A"></path>
                <path d="M12.728,97.1200004 L11.064,96.2240004 L2.188,80.6520004 L2.188,70.4580004 L0.857,68.7770004 L2.077,68.1050004 C2.299,67.9930004 2.632,67.9930004 2.965,68.1050004 L28.816,83.2290004 C29.148,83.4530004 29.592,83.9010004 29.814,84.3490004 L12.728,97.1200004 Z" id="Path" fill="#396CAA"></path>
                <path d="M1.412,69.4490004 L0.857,68.6650004 L2.077,67.9930004 C2.299,67.8810004 2.632,67.8810004 2.965,67.9930004 L3.409,68.2170004 L1.412,69.4490004 Z" id="Path" fill="#5793CE"></path>
                <path d="M29.037,83.2290004 C29.592,83.6770004 30.036,84.5730004 30.147,85.4690004 L27.595,86.9260004 L26.375,84.7970004 L29.037,83.2290004 Z" id="Path" fill="#274F89"></path>
                <path d="M27.595,83.7890004 L1.745,68.6650004 C1.079,68.2170004 0.413,68.6650004 0.413,69.6730004 L0.413,90.1750004 C0.413,91.1830004 0.968,92.3030004 1.745,92.7510004 L27.595,107.875 C28.372,108.323 28.927,107.875 28.927,106.867 L28.927,86.3660004 C28.927,85.3570004 28.372,84.2370004 27.595,83.7890004 Z" id="Path" fill="#FFFFFF"></path>
                <path d="M40.354,87.8220004 L39.91,88.7180004 C39.466,89.7260004 38.69,90.5110004 37.802,91.1830004 L35.25,92.7510004 C34.474,93.1990004 33.475,93.3110004 32.588,92.8630004 L32.477,92.8630004 C31.7,92.3030004 31.589,91.1830004 32.255,90.5110004 L34.918,87.7100004 C34.918,87.7100004 33.364,88.8300004 33.032,88.3820004 C32.699,88.0460004 34.474,86.3660004 35.805,86.2540004 C37.137,86.2540004 38.468,85.1330004 38.468,85.1330004 L40.354,87.8220004 Z" id="Path" fill="#FFC2B0"></path>
                <path d="M33.475,24.9740004 C33.475,24.9740004 23.601,35.7290004 19.718,45.6990004 C19.718,45.6990004 23.046,51.8610004 31.367,54.2140004 C39.688,56.5660004 33.475,24.9740004 33.475,24.9740004 Z" id="Path" fill="#983BE9"></path>
                <path d="M29.481,53.5410004 L31.035,37.9690004 L27.262,52.5330004 C27.928,52.8690004 28.705,53.2050004 29.481,53.5410004 Z" id="Path" fill="#6614CF"></path>
                <path d="M40.909,22.7340004 L38.246,21.9490004 C38.246,21.9490004 39.466,23.9660004 41.353,24.4140004 C43.239,24.9740004 43.461,23.4060004 43.461,23.4060004 L40.909,22.7340004 Z" id="Path" fill="#FFFFFF"></path>
            </g>
        </g>
    </g>
</svg>