<svg width="416" height="303" xmlns="http://www.w3.org/2000/svg"><defs><radialGradient cx="-626.512%" cy="10.201%" fx="-626.512%" fy="10.201%" r="748.157%" gradientTransform="matrix(.78691 0 0 1 -1.335 0)" id="radialGradient-2"><stop stop-color="#01C8EF" offset="0%"/><stop stop-color="#03BEE9" offset="8.941%"/><stop stop-color="#08A5D7" offset="23.88%"/><stop stop-color="#107BBB" offset="42.88%"/><stop stop-color="#1177B8" offset="44.57%"/><stop stop-color="#112564" offset="100%"/></radialGradient><linearGradient x1="100%" y1="100%" x2="100%" y2="0%" id="linearGradient-1"><stop stop-color="#0079AA" offset="0%"/><stop stop-color="#0297DD" offset="100%"/></linearGradient></defs><g id="Page-1" stroke="none" stroke-width="1" fill="none" fill-rule="evenodd"><g id="Buy-Proxies-For-Ad-Verification"><g id="header_splash_buy_proxies_for_ad_verification1"><path d="M375.391 252.464c4.596-4.928 9.573-10.553 14.406-16.805.763-.976 1.522-1.975 2.277-2.996a156.42 156.42 0 005.949-8.585c9.945-15.412 17.625-33.656 17.267-53.903a59.806 59.806 0 00-.05-1.589c.004-.055 0-.108-.002-.162a72.119 72.119 0 00-.412-5.332.152.152 0 00-.005-.06c-1.325-11.826-5.368-22.875-11.034-32.994a15.939 15.939 0 00-.272-.492 107.837 107.837 0 00-3.549-5.835 52.206 52.206 0 00-.912-1.395c-.314-.477-.636-.951-.958-1.425-4.371-6.345-9.303-12.265-14.471-17.72a180.828 180.828 0 00-5.078-5.132 192.768 192.768 0 00-7.453-6.876 220.995 220.995 0 00-10.59-8.692c-12.129-9.348-30.722-22.307-52.064-26.809-25.836-5.45-54.191 2.799-73.851 20.441A78.025 78.025 0 00223.454 88.4a87.485 87.485 0 00-2.758 4.032c-2.132 3.252-4.123 6.622-6.069 9.914-.004.016-.011.025-.022.043-5.296 8.99-10.756 18.261-18.855 24.693a40.587 40.587 0 01-9.989 5.834c-5.274 2.162-11.248 3.396-17.976 3.71-.779.038-1.577.063-2.377.074-6.37.103-13.386-.574-21.096-2.034-4.353-.824-8.779-1.819-13.061-2.781-10.262-2.308-20.83-4.677-31.461-4.916a67.095 67.095 0 00-6.214.108c-20.034 1.247-37.331 11.247-50.456 22.132a143.753 143.753 0 00-15.243 14.721C15.168 178.152-2.018 203.11.193 232.348c1.084 14.44 6.81 28.896 17.373 43.753a149.169 149.169 0 007.384 9.519l1.595.106a149.595 149.595 0 01-7.862-10.05c-10.56-14.763-16.27-29.107-17.35-43.409-2.145-28.394 14.322-52.763 26.834-66.921a139.864 139.864 0 014.144-4.502 146.12 146.12 0 018.259-7.941 135.294 135.294 0 014.992-4.199c6.228-4.987 13.329-9.706 21.173-13.365 8.216-3.837 17.244-6.512 26.914-7.118a71.518 71.518 0 017.706-.054c9.991.426 19.953 2.665 29.648 4.843 4.288.961 8.725 1.961 13.094 2.79 6.416 1.209 12.361 1.89 17.861 2.03 1.25.035 2.48.044 3.685.012 9.705-.165 17.944-2.137 24.862-5.907a40.588 40.588 0 003.638-2.235 38.39 38.39 0 002.701-2.025c7.933-6.451 13.325-15.492 18.525-24.308.073-.131.155-.256.229-.387 1.869-3.175 3.786-6.422 5.819-9.555.961-1.48 1.95-2.935 2.971-4.344 3.155-4.353 6.779-8.346 10.767-11.952 19.398-17.519 47.475-25.734 73.054-20.337 21.108 4.45 39.556 17.307 51.595 26.589A219.692 219.692 0 01370 91.737a194.219 194.219 0 016.796 6.2 180.915 180.915 0 015.691 5.702c4.982 5.229 9.754 10.897 13.998 16.959a104.656 104.656 0 012.694 4.01c.301.447.59.913.876 1.372.866 1.39 1.703 2.793 2.505 4.211.087.16.172.313.258.465 5.55 9.934 9.517 20.758 10.843 32.329l.003.016c.2 1.751.34 3.522.415 5.307l.011.167c.039.897.062 1.796.06 2.685.101 19.411-7.279 36.975-16.846 51.9a152.575 152.575 0 01-5.489 8.01c-.872 1.2-1.756 2.379-2.646 3.529-4.896 6.357-9.953 12.084-14.618 17.081a575.245 575.245 0 00-2.657 2.874c-9.894 10.824-12.098 15.015-12.533 26.802l1.166-.134c.444-11.162 2.603-15.324 11.894-25.533a283.196 283.196 0 012.97-3.225z" id="Path" fill="#DAEBFE"/><path d="M358.037 257.168c2.415-3.304 5.574-6.923 9.696-11.343.081-.095.169-.191.252-.277 6.038-6.47 11.308-12.735 15.835-18.854a150.77 150.77 0 006.007-8.681c.526-.819 1.035-1.643 1.538-2.465 4.668-7.648 8.124-15.076 10.409-22.377 1.433-4.585 2.412-9.122 2.933-13.633.051-.428.102-.856.138-1.28.023-.222.048-.443.064-.663.261-2.928.323-5.846.21-8.759a63.965 63.965 0 00-.539-6.101c-.017-.158-.042-.315-.068-.48a.222.222 0 00-.007-.068c-.962-6.77-2.951-13.276-5.687-19.478a12.364 12.364 0 00-.23-.517 5.541 5.541 0 00-.157-.346c-.129-.29-.258-.58-.394-.862a37.999 37.999 0 00-.417-.864 89.098 89.098 0 00-3.294-6.251c-3.343-5.808-7.284-11.307-11.57-16.448a152.313 152.313 0 00-8.869-9.743 178.891 178.891 0 00-7.242-6.903 215.494 215.494 0 00-4.089-3.591 214.642 214.642 0 00-8.238-6.675c-18.27-14.091-33.066-21.776-47.963-24.92-7.601-1.606-15.533-1.9-23.571-.867-17.31 2.223-33.665 10.498-45.285 22.656a67.567 67.567 0 00-5.847 6.986c-2.921 4.026-5.53 8.444-8.304 13.15-.014.011-.017.027-.024.036-1.847 3.132-3.711 6.299-5.704 9.399-.006.009-.02.019-.023.036-2.474 3.841-5.138 7.582-8.205 11.05-2.6 2.933-5.486 5.669-8.79 8.097-.449.333-.907.659-1.373.979a50.985 50.985 0 01-9.105 4.955c-4.838 2.035-10.138 3.43-15.838 4.159-5.354.688-11.047.813-17.19.366-4.614-.33-9.488-.985-14.659-1.957-2.258-.43-4.515-.899-6.759-1.378-2.237-.481-4.463-.98-6.648-1.471-8.384-1.885-16.445-3.698-24.361-4.397-3.515-.317-7-.409-10.468-.194-1.234.076-2.505.2-3.762.359-7.986 1.023-15.497 3.64-22.363 7.136-4.618 2.352-8.953 5.094-12.945 8.012-4.622 3.373-8.796 6.978-12.443 10.481a138.695 138.695 0 00-3.913 3.898 130.634 130.634 0 00-8.296 9.479c-10.534 13.27-21.85 32.968-20.185 55.024 1.023 13.542 6.887 27.321 17.82 41.761 3.278 4.337 7.026 8.741 11.234 13.208.563.036 1.127.071 1.69.105-4.356-4.565-8.234-9.053-11.616-13.483-11.049-14.439-16.963-28.2-17.987-41.673-1.607-21.286 9.115-40.382 19.347-53.467a130.817 130.817 0 018.823-10.151c1.061-1.1 2.179-2.234 3.358-3.367 3.632-3.531 7.8-7.173 12.422-10.585 4.1-3.025 8.555-5.861 13.32-8.283 6.733-3.399 14.073-5.949 21.877-6.95a53.187 53.187 0 013.694-.353c3.512-.223 7.053-.12 10.634.214 7.735.722 15.657 2.493 23.888 4.348 1.36.306 2.737.617 4.119.919a300.66 300.66 0 009.304 1.934c4.361.823 8.512 1.418 12.479 1.789 7.114.664 13.638.599 19.729-.179 7.549-.972 14.402-3.075 20.441-6.284a49.15 49.15 0 005.01-3.028 49.682 49.682 0 002.733-2.017c3.243-2.539 6.071-5.372 8.622-8.386 5.148-6.07 9.165-12.872 13.099-19.548 2.752-4.664 5.347-9.078 8.245-13.068a65.988 65.988 0 015.201-6.297c11.48-12.276 27.83-20.651 45.147-22.875 7.911-1.015 15.717-.734 23.189.845 14.727 3.11 29.37 10.725 47.502 24.706a220.32 220.32 0 018.106 6.563 190.08 190.08 0 013.976 3.491 170.005 170.005 0 017.138 6.778 152.988 152.988 0 017.95 8.612 124.777 124.777 0 015.579 6.999c.458.609.901 1.227 1.345 1.847a104.476 104.476 0 015.742 8.951 92.108 92.108 0 013.512 6.74c.148.309.291.627.425.94.278.599.539 1.194.795 1.798.24.568.479 1.129.704 1.693l.344.887c1.672 4.329 2.962 8.792 3.77 13.392.031.148.061.29.076.441.291 1.639.509 3.294.66 4.963.106 1.114.183 2.241.23 3.367a66.872 66.872 0 01-.362 10.189c-.674 6.058-2.18 12.164-4.541 18.385-2.122 5.622-4.948 11.343-8.498 17.192a52.534 52.534 0 01-1.009 1.622 146.931 146.931 0 01-6.461 9.471c-4.537 6.152-9.836 12.461-15.917 18.986-.013.01-.024.028-.038.038-3.319 3.561-6.032 6.608-8.254 9.385-6.112 7.652-8.45 13.272-9.301 22.025-.184 1.923-.296 4.008-.362 6.294.383-.041.771-.08 1.153-.122.081-2.661.23-5.048.489-7.225.833-6.971 2.778-11.954 7.168-17.952z" id="Path" fill="#DAEBFE"/><path d="M360.584 238.624c.93-.996 1.843-1.996 2.736-2.976 5.287-5.851 9.881-11.497 13.813-16.984 2.611-3.629 4.925-7.19 6.952-10.692.221-.386.444-.764.651-1.146a83.239 83.239 0 001.611-2.967c3.331-6.383 5.683-12.579 7.096-18.642a41.664 41.664 0 00.48-2.239c.905-4.638 1.262-9.201 1.077-13.729-.187-4.581-.947-9.061-2.177-13.419a65.145 65.145 0 00-1.666-5.127c-.121-.323-.241-.645-.371-.974a77.208 77.208 0 00-4.149-8.902c-4.98-9.186-11.736-17.627-19.028-25.108a172.36 172.36 0 00-2.71-2.701 154.975 154.975 0 00-4.623-4.346 99.08 99.08 0 00-1.326-1.193 204.523 204.523 0 00-3.656-3.171 214.219 214.219 0 00-7.155-5.77c-17.002-13.11-30.537-20.213-43.876-23.029-6.489-1.372-13.284-1.615-20.195-.729-17.587 2.256-33.994 11.67-43.97 25.212-.086.11-.17.22-.248.329-2.657 3.663-5.151 7.894-7.8 12.382-2.333 3.958-4.773 8.109-7.548 12.213-2.665 3.958-5.632 7.877-9.092 11.543-.151.162-.303.325-.455.48-2.941 3.072-6.23 5.953-9.989 8.538a55.295 55.295 0 01-2.73 1.769c-7.762 4.732-16.707 7.769-26.664 9.044-6.008.77-12.353.913-19.163.418-5.012-.356-10.284-1.067-15.856-2.111l-.458-.091c-4.539-.863-8.965-1.858-13.247-2.82-5.43-1.221-10.698-2.405-15.811-3.242a91.97 91.97 0 00-4.218-.62c-4.129-.523-8.128-.748-11.983-.508a46.645 46.645 0 00-3.11.301c-6.331.814-12.376 2.834-17.992 5.578a63.716 63.716 0 00-3.131 1.62 84.816 84.816 0 00-9.066 5.751c-6 4.329-11.235 9.157-15.469 13.554-.305.318-.61.636-.926.973-3.616 3.836-7.917 8.889-11.91 14.829-7.53 11.174-14 25.521-12.838 40.897.947 12.576 7.005 25.682 18.422 39.774 3.373 4.163 7.212 8.409 11.534 12.755a262.563 262.563 0 004.16 4.101l1.777.1a267.823 267.823 0 01-4.862-4.748c-.046-.037-.086-.083-.125-.121-4.272-4.294-8.077-8.485-11.416-12.593-11.38-13.985-17.407-26.949-18.341-39.351-1.108-14.629 4.862-28.356 12.015-39.229 3.928-5.995 8.222-11.116 11.889-15.048.499-.536.98-1.045 1.45-1.536a117.004 117.004 0 013.475-3.475l.02-.02c.32-.314.65-.629.987-.938 3.109-2.929 6.601-5.906 10.413-8.686a85.782 85.782 0 019.053-5.81 73.18 73.18 0 014.412-2.256 64.211 64.211 0 013.888-1.66c4.072-1.59 8.33-2.763 12.722-3.323a42.985 42.985 0 013.036-.286c3.9-.25 7.964-.007 12.16.541.618.08 1.237.161 1.859.257l.002.008c5.666.831 11.582 2.159 17.676 3.528 3.87.877 7.859 1.769 11.952 2.57.596.124 1.192.241 1.795.356 4.207.792 8.252 1.394 12.146 1.787 8.353.872 16.025.834 23.229-.09 11.212-1.435 21.175-5.075 29.623-10.822.088-.057.176-.122.265-.178 4.3-2.952 7.99-6.286 11.243-9.825a.33.33 0 00.055-.065c3.506-3.815 6.506-7.872 9.201-11.951 2.519-3.805 4.771-7.631 6.934-11.299 2.504-4.25 4.878-8.278 7.369-11.768.118-.178.246-.344.366-.515 9.773-13.469 26.018-22.85 43.433-25.079 6.782-.874 13.455-.63 19.813.708 13.161 2.784 26.551 9.816 43.415 22.815a208.26 208.26 0 017.063 5.705 163.935 163.935 0 013.901 3.382c.499.437.993.884 1.48 1.34.444.395.883.799 1.314 1.205a152.745 152.745 0 016.054 5.936c7.118 7.353 13.678 15.626 18.507 24.604a74.201 74.201 0 014.106 8.918c.13.329.251.66.374.989a64.732 64.732 0 011.632 5.15c1.115 4.103 1.806 8.319 1.982 12.618.187 4.581-.186 9.209-1.149 13.905-.065.353-.146.71-.22 1.065-.115.526-.246 1.055-.376 1.584-1.322 5.35-3.386 10.798-6.228 16.407a101.888 101.888 0 01-2.655 4.913c-2.007 3.482-4.302 7.024-6.886 10.633l.001.007c-3.636 5.085-7.854 10.314-12.667 15.72a242.604 242.604 0 01-3.928 4.311c-12.985 13.923-17.96 21.88-19.764 33.843-.535 3.511-.79 7.367-.895 11.82l1.151-.113c.105-4.101.341-7.692.815-10.97 1.718-12.037 6.579-19.909 19.533-33.795z" id="Path" fill="#DAEBFE"/><path d="M239.804 121.756c.677-1.136 1.333-2.261 1.98-3.352.527-.889 1.048-1.77 1.565-2.633 1.924-3.249 3.778-6.274 5.625-8.811 8.163-11.251 21.822-19.093 36.53-20.98 5.654-.727 11.182-.531 16.436.579 11.595 2.45 23.722 8.901 39.313 20.926 3.11 2.395 6.32 5.015 9.523 7.823a168.615 168.615 0 015.06 4.627c.643.617 1.288 1.233 1.92 1.868.968.951 1.923 1.921 2.867 2.9.71.749 1.412 1.501 2.109 2.261.038.031.069.071.099.104 6.013 6.592 11.39 13.85 15.18 21.567a62.486 62.486 0 012.448 5.629c.095.236.184.48.272.717a53.528 53.528 0 011.604 5.239c.779 3.108 1.262 6.277 1.391 9.487.178 4.461-.297 9.009-1.448 13.689-.004.016-.007.041-.019.058-.15.619-.315 1.24-.495 1.864-.138.493-.284.986-.436 1.481l.569 1.938c.305-.882.587-1.76.832-2.629.232-.782.444-1.552.64-2.326.017-.066.027-.13.046-.188 1.165-4.761 1.645-9.395 1.458-13.938a48.416 48.416 0 00-1.381-9.551 54.453 54.453 0 00-1.537-5.099c-.109-.302-.218-.612-.334-.912a65.374 65.374 0 00-2.72-6.269c-3.894-7.811-9.355-15.137-15.455-21.781-.341-.378-.688-.755-1.036-1.13a153.848 153.848 0 00-4.829-4.898l-.868-.841a167.592 167.592 0 00-5.842-5.315 194.261 194.261 0 00-8.91-7.286c-15.745-12.133-28.01-18.656-39.79-21.137-5.374-1.139-11.034-1.338-16.816-.593-15.017 1.927-28.963 9.944-37.314 21.443-1.659 2.289-3.318 4.95-5.036 7.816a517.157 517.157 0 00-2.228 3.759c-.806 1.364-1.636 2.772-2.505 4.21-2.239 3.747-4.7 7.686-7.527 11.607l1.651-.341c2.771-3.933 5.187-7.862 7.408-11.582z" id="Path" fill="#DAEBFE"/><path d="M377.546 196.28a92.744 92.744 0 01-2.145 4.159c.297.241.602.487.905.726a78.71 78.71 0 001.982-3.794c1.441-2.932 2.647-5.809 3.608-8.634l-.568-1.938c-.967 3.097-2.223 6.254-3.782 9.481z" id="Path" fill="#DAEBFE"/><path d="M340.034 247.704c3.251-4.86 7.536-9.986 13.144-15.997 6.637-7.118 12.195-13.86 16.701-20.307 2.452-3.497 4.59-6.905 6.428-10.236-.304-.239-.609-.485-.906-.724-1.818 3.31-3.937 6.7-6.378 10.178-4.485 6.436-10.043 13.177-16.686 20.305-5.583 5.982-9.868 11.101-13.148 15.943-3.985 5.868-6.481 11.32-8.018 17.425-1.463 5.824-2.053 12.255-2.223 20.169l1.151-.104c.169-7.464.714-13.584 2.052-19.131 1.476-6.169 3.923-11.643 7.883-17.521zM58.478 275.519c-3.795-3.806-7.175-7.512-10.154-11.108-10.402-12.579-15.889-23.924-16.682-34.439-.855-11.305 3.636-22.253 9.345-31.329 4.3-6.853 9.297-12.636 13.202-16.688 2.837-2.942 6.159-6.108 9.875-9.124 3.873-3.156 8.179-6.155 12.78-8.581a66.327 66.327 0 012.19-1.101c3.787-1.809 7.76-3.208 11.856-3.97a33.913 33.913 0 014.649-.589 43.492 43.492 0 014.492-.031l.009.006c2.911.117 5.991.494 9.202 1.021 4.811.799 9.9 1.935 15.137 3.117.476.102.955.212 1.433.322.258.055.525.116.792.177 3.811.851 7.747 1.707 11.859 2.489 7.355 1.385 14.257 2.217 20.813 2.494 6.196.258 12.076.026 17.731-.702 3.052-.39 6.037-.93 8.927-1.619a77.7 77.7 0 0010.76-3.334l-.235-1.142a77.732 77.732 0 01-10.755 3.357 85.536 85.536 0 01-8.847 1.602c-4.03.516-8.174.784-12.481.784-7.983.027-16.48-.831-25.698-2.567a345.263 345.263 0 01-10.12-2.105c-.251-.057-.493-.108-.735-.165-1.078-.242-2.145-.477-3.197-.716-5.406-1.217-10.666-2.395-15.631-3.193-2.924-.478-5.741-.816-8.432-.956l-.015.003a43.518 43.518 0 00-5.085.007c-.8.049-1.626.127-2.452.236a43.03 43.03 0 00-2.355.37c-4.079.773-8.032 2.146-11.812 3.923a57.46 57.46 0 00-2.296 1.138 67.987 67.987 0 00-4.158 2.373 61.9 61.9 0 00-1.585.999 87.163 87.163 0 00-7.003 5.086c-3.938 3.17-7.459 6.5-10.44 9.597-4.026 4.176-9.196 10.173-13.611 17.29-5.684 9.162-10.12 20.184-9.257 31.603.82 10.757 6.39 22.324 16.956 35.094 3 3.63 6.4 7.355 10.216 11.187.66.66 1.322 1.327 1.99 1.985a294.303 294.303 0 0010.706 9.966c.609.03 1.216.062 1.825.09a292.023 292.023 0 01-11.506-10.67 409.905 409.905 0 01-2.203-2.187z" id="Path" fill="#DAEBFE"/><path d="M64.277 0C61.372 0 59 2.38 59 5.287v181.426c0 2.905 2.372 5.287 5.277 5.287h273.446c2.902 0 5.277-2.382 5.277-5.287V5.287C343 2.38 340.625 0 337.723 0H64.277z" id="Path" fill="url(#linearGradient-1)"/><path d="M193.782 51h106.439c4.848 0 8.779-4.028 8.779-9.003 0-4.969-3.931-8.997-8.779-8.997H193.782c-4.851 0-8.782 4.028-8.782 8.997 0 4.975 3.931 9.003 8.782 9.003zm0 29h106.439c4.848 0 8.779-4.029 8.779-9.001 0-4.97-3.931-8.999-8.779-8.999H193.782c-4.851 0-8.782 4.029-8.782 8.999 0 4.972 3.931 9.001 8.782 9.001zm0 31h106.439c4.848 0 8.779-3.805 8.779-8.503 0-4.692-3.931-8.497-8.779-8.497H193.782c-4.851 0-8.782 3.805-8.782 8.497 0 4.698 3.931 8.503 8.782 8.503zm36.951 31h69.537c4.821 0 8.73-3.805 8.73-8.5s-3.909-8.5-8.73-8.5h-69.537c-4.822 0-8.733 3.805-8.733 8.5s3.911 8.5 8.733 8.5zm-73.04-35H98.304A5.3 5.3 0 0193 101.704V38.299A5.302 5.302 0 0198.304 33h59.389A5.303 5.303 0 01163 38.299v63.405a5.3 5.3 0 01-5.307 5.296z" id="Path" fill="#EFEFEF"/><path d="M113.584 70.856h6.263l-3.131-8.292-3.132 8.292zm1.36-13.502h3.543l8.571 21.857h-4.08l-1.993-5.242h-8.571l-1.992 5.242h-4.049l8.571-21.858zm18.692 18.459h3.542c.97 0 1.866-.186 2.689-.556a6.133 6.133 0 002.103-1.54c.58-.657 1.033-1.447 1.36-2.37.327-.92.49-1.941.49-3.064 0-1.1-.163-2.118-.49-3.05-.327-.931-.78-1.726-1.36-2.382a6.174 6.174 0 00-2.103-1.544 6.511 6.511 0 00-2.689-.553h-3.542v15.059zm-4.111-18.459h7.875c1.56 0 2.994.27 4.301.81a9.93 9.93 0 013.368 2.256c.939.964 1.671 2.118 2.199 3.463.527 1.345.79 2.812.79 4.4 0 1.588-.263 3.055-.79 4.4-.528 1.345-1.26 2.5-2.199 3.463a9.931 9.931 0 01-3.368 2.256c-1.307.54-2.741.81-4.301.81h-7.875V57.354z" id="Shape" fill="#0398DE"/><g id="Group" transform="translate(289 67)" fill-rule="nonzero"><path d="M82.363 90.363c18.176-18.187 18.176-47.676 0-65.864-18.176-18.188-47.645-18.188-65.821 0-18.176 18.188-18.176 47.677 0 65.864 18.176 18.188 47.645 18.188 65.821 0z" id="Path" fill="#242424" opacity=".25"/><path d="M79.455 80.499c18.176-18.188 18.176-47.676 0-65.864-18.176-18.188-47.645-18.188-65.821 0-18.175 18.188-18.175 47.676 0 65.864 18.176 18.188 47.645 18.188 65.821 0z" id="Path" fill="#03E59F"/><path d="M36.771 65.261L22.683 52.042a7.17 7.17 0 010-10.47 7.183 7.183 0 019.809 0l7.605 7.142c.878.823 2.26.823 3.157 0l21.842-20.491a7.183 7.183 0 019.809 0 7.171 7.171 0 010 10.47L46.58 65.261a7.147 7.147 0 01-9.809 0z" id="Path" fill="#FFF"/></g></g><g id="header_splash_buy_proxies_for_ad_verification2" transform="translate(260 113)" fill-rule="nonzero"><path d="M49.27 172.269c-.809-.462-1.616-.809-2.424-1.156l-4.615-2.08.346.809c-3.577-.693-7.385-.693-10.962-.115l.231-.925-5.423 2.427c-.692.347-1.384.578-2.077 1.04-6.923 3.929-6.923 10.401 0 14.33 6.923 3.929 18 3.929 24.923 0 6.923-3.929 6.923-10.401 0-14.33z" id="Path" fill="#983BE9"/><path d="M42.692 175.967c-3.23 1.849-8.423 1.849-11.654 0-3.23-1.849-3.23-4.854 0-6.703 3.231-1.849 8.424-1.849 11.654 0 3.231 1.849 3.231 4.854 0 6.703z" id="Path" fill="#8A2AE3"/><path d="M36.923 173.887c-1.5 0-2.77-1.272-2.77-2.774v-35.479h5.655v35.479c-.116 1.618-1.385 2.774-2.885 2.774z" id="Path" fill="#8A2AE3"/><path d="M38.885 136.906c-1.154.693-2.885.693-4.039 0-1.154-.694-1.154-1.734 0-2.312 1.154-.693 2.885-.693 4.039 0 1.038.694 1.038 1.734 0 2.312z" id="Path" fill="#983BE9"/><path d="M36.923 136.906a2.316 2.316 0 01-2.308-2.312v-33.283h4.5v33.283c0 1.272-.923 2.312-2.192 2.312z" id="Path" fill="#8A2AE3"/><path d="M69.577 118.762v-1.271l1.846-.231 2.077-1.503c.346-.231.923-.231 1.385 0l1.5.925 1.5-.231v1.271c0 .116-.116.347-.347.347l-4.846 2.195c-.346.116-.923.116-1.269 0l-1.615-.924c-.116-.347-.231-.462-.231-.578z" id="Path" fill="#B45EF4"/><path d="M69.692 117.028l3.693-2.773c.346-.231.923-.231 1.384 0l2.77 1.618c.346.231.346.578-.116.809l-4.846 2.196c-.346.115-.923.115-1.27 0l-1.615-.925c-.23-.347-.23-.693 0-.925z" id="Path" fill="#8A2AE3"/><path d="M63.462 123.385c.576 0 1.038-.116 1.5-.347l5.769-3.352c.346-.231.461-.577.23-.924-.23-.347-.576-.462-.922-.231l-5.77 3.351c-.461.231-1.154.231-1.615 0l-9.577-5.547c-.346-.231-.692-.115-.923.231-.23.347-.116.694.23.925l9.578 5.547a3.551 3.551 0 001.5.347z" id="Path" fill="#B45EF4"/><path id="Path" fill="url(#radialGradient-2)" d="M8.192 111.134l9.231-5.316-5.192-2.311-4.5 3.12z"/><path d="M67.5 103.16a10.578 10.578 0 01-1.5-.924L46.27 87.79c-3.578-2.658-7.27-3.236-10.04-1.85-.115 0-.115.116-.23.116L8.77 101.89l2.422.809 9.577 4.276 12.923 9.245 10.27 5.432.461.115c2.423-1.964 5.077-3.698 6.577-6.703 2.538-4.391 9.577-5.662 13.73-9.36.462.231.808.462 1.27.693.808-.809 1.038-1.965 1.5-3.236z" id="Path" fill="#8A2AE3"/><path d="M76.154 96.689c-.462 0-.808.115-1.154.346l-26.654 15.486.923 4.045 1.039-.462c-1.5 2.427-3.808 3.929-6 5.778l3 .694 26.077-15.14c.115 0 .23-.115.346-.115.346-.231.692-.347 1.038-.694 1.962-1.502 3.116-4.16 3.116-7.511v-.347c.115-1.271-.693-2.08-1.731-2.08z" id="Path" fill="#721BD5"/><path d="M39.692 85.132c1.616.116 3.462.578 5.193 1.734-1.731-1.04-3.577-1.618-5.193-1.734z" id="Path" fill="#EAEAEA"/><path d="M51.808 113.677v-.347c0-1.04-.808-1.849-1.846-1.849a1.824 1.824 0 00-1.847 1.849v.347c0 2.427-.807 4.276-2.077 4.969-1.5.809-3.807.231-6.23-1.502l-19.731-14.446c-3-2.196-6.116-3.005-8.77-2.311l16.27-9.477-18.808 10.98 2.423.809 9.577 4.276 12.923 9.245 10.27 5.432.461.116c2.423-1.965 5.077-3.699 6.577-6.703.115-.463.462-.809.808-1.387 0 .115 0 .115 0 0z" id="Path" fill="#B45EF4"/><path d="M43.962 123.269c-2.193 0-4.5-.925-6.808-2.543l-19.846-14.445c-2.423-1.734-4.731-2.312-6.231-1.503-1.385.694-2.077 2.543-2.077 4.97 0 1.04-.808 1.849-1.846 1.849a1.824 1.824 0 01-1.846-1.849c0-3.93 1.5-6.819 4.154-8.206 2.884-1.386 6.461-.809 10.038 1.849l19.73 14.331c2.424 1.733 4.732 2.311 6.232 1.502 1.384-.693 2.076-2.542 2.076-4.969v-.347c0-1.04.808-1.849 1.847-1.849 1.038 0 1.846.809 1.846 1.849v.347c0 3.929-1.5 6.818-4.154 8.205-.923.578-2.077.809-3.115.809z" id="Path" fill="#983BE9"/><path d="M28.385 155.627s-3.693-1.849-6 .925c-2.308 2.774-5.539 9.361-5.654 13.868-.116 4.507 3.461 4.16 5.654 3.12 2.192-1.04 8.423-10.17 8.769-12.019.346-1.733-.462-4.16-1.039-4.622-.461-.578-1.73-1.272-1.73-1.272z" id="Path" fill="#5C5C5C"/><path d="M29.192 154.703l.116 3.813c0 .809-.346 1.618-1.039 1.965-.692.347-1.615.693-2.884.462-2.77-.462-3-1.271-3.231-5.085-.116-3.813 7.038-1.155 7.038-1.155z" id="Path" fill="#E8A200"/><path d="M14.885 148.231s-3.693-1.849-6 .925c-2.308 2.773-5.539 9.361-5.654 13.868-.116 4.507 3.461 4.16 5.654 3.12 2.192-1.04 8.423-10.17 8.769-12.019.346-1.733-.462-4.16-1.039-4.623-.576-.577-1.73-1.271-1.73-1.271z" id="Path" fill="#5C5C5C"/><path d="M15.692 147.307l.116 3.813c0 .809-.347 1.618-1.039 1.965s-1.615.693-2.884.462c-2.77-.462-3-1.271-3.231-5.085-.23-3.813 7.038-1.155 7.038-1.155z" id="Path" fill="#E8A200"/><path d="M48.808 76.58c-1.154-17.913-19.385 2.658-19.385 2.658l-12.461 12.25-11.308 12.366c-2.192 2.427-3.23 5.663-2.77 8.898l4.5 34.67c.231 1.734 1.731 3.005 3.462 3.005.462 0 1.039 0 1.73-.116 4.04-.577 3.809-4.507 3.809-4.507l-.808-32.474L39.23 99.116c-.116 0 10.615-4.623 9.577-22.536z" id="Path" fill="#FCCA2E"/><path d="M62.308 83.399c-1.154-17.913-19.385 2.658-19.385 2.658l-12.462 12.25-11.192 12.365c-2.192 2.427-3.23 5.663-2.769 8.899l4.5 34.67c.23 1.733 1.73 3.004 3.462 3.004.461 0 1.038 0 1.73-.115 4.039-.578 3.808-4.507 3.808-4.507l-.808-32.474 23.654-14.215c-.23 0 10.616-4.623 9.462-22.535z" id="Path" fill="#FCCA2E"/><path d="M51.577 25.962c13.846 5.778 13.615 13.984 13.615 13.984s-2.654 30.047-1.73 50.04c.346 8.436-44.424 9.014-37.731-13.29 7.846-26.35 4.961-47.73 8.654-50.965 3.461-3.236 13.615-1.271 17.192.231z" id="Path" fill="#B12DE8"/><path d="M56.035 33.325c.73-2.844-1.778-5.949-5.604-6.935-3.827-.987-7.521.517-8.252 3.36-.731 2.844 1.778 5.949 5.604 6.936 3.826.987 7.52-.518 8.252-3.361z" id="Path" fill="#FFC2B0"/><path d="M50.192 37.519c-.807 0-1.73-.116-2.538-.347-1.962-.462-3.693-1.618-4.846-3.005-1.154-1.502-1.616-3.12-1.27-4.738.462-1.618 1.616-2.773 3.347-3.582 1.73-.694 3.692-.81 5.653-.231 1.962.462 3.693 1.617 4.847 3.004 1.154 1.503 1.615 3.12 1.269 4.738-.462 1.618-1.616 2.774-3.346 3.583a9.313 9.313 0 01-3.116.578zM48 26.77c-.923 0-1.846.116-2.654.462-1.384.578-2.308 1.503-2.538 2.659-.346 1.155 0 2.426.923 3.582.923 1.156 2.423 2.08 4.154 2.543 1.73.462 3.461.346 4.846-.232 1.384-.577 2.307-1.502 2.538-2.658.346-1.155 0-2.427-.923-3.582-.923-1.156-2.423-2.08-4.154-2.543-.692-.115-1.384-.23-2.192-.23z" id="Shape" fill="#FFF"/><path d="M46.038 25.384s.116.578-.115 4.97c-.115 1.387 4.73 2.658 6 1.387 1.27-1.272.692-2.543 1.038-7.281.231-4.623-6.922.924-6.922.924z" id="Path" fill="#FFC2B0"/><path d="M52.962 24.46s-1.154 4.392-7.039 6.01l.115-3.93 6.924-2.08z" id="Path" fill="#EA9C92"/><path d="M56.654 13.481c1.5 5.663-1.962 11.557-7.616 12.944-5.653 1.502-11.538-1.965-12.923-7.628-1.5-5.663 1.962-11.556 7.616-12.943 5.654-1.387 11.423 1.849 12.923 7.627z" id="Path" fill="#FFC2B0"/><path d="M48.808 16.486s-5.885 2.542-9.923 2.542c-4.039 0-3.116-3.351-3.116-3.351l12-1.734 1.039 2.543z" id="Path" fill="#EA9C92"/><path d="M37.615 17.18s5.077-2.197 9.577-1.272c1.039.231 2.077.809 2.654 1.618.23.231.462.578.808.578.807.23 2.077-3.12 3.692-3.236 1.5-.116 2.539 1.04 1.27 3.005-1.27 2.08-.808 4.276-.231 4.622.577.347 6.807-4.391 1.269-15.254-5.423-10.864-19.27-4.97-21.462-2.774 0 0-2.307 1.965-4.154.231.116.116-1.961 15.601 6.577 12.481z" id="Path" fill="#5C5C5C"/><path d="M57.346 61.903v8.09c0 .925-.346 1.849-1.038 2.427L39.577 87.674l1.846 2.89 21.923-15.948a4.229 4.229 0 001.846-3.12l1.5-14.1-9.346 4.507z" id="Path" fill="#FFC2B0"/><path d="M63.923 35.901s5.077 7.627 6.923 27.62c0 0-8.654 2.774-13.5 1.156-4.846-1.502 6.577-28.776 6.577-28.776z" id="Path" fill="#983BE9"/><path d="M56.423 45.493s-1.962 10.632-2.077 15.602c0 1.386.808 2.658 2.077 3.12V45.493z" id="Path" fill="#6614CF"/><path d="M52.154 98.191l-3.693-.462-23.769-13.753c-.807-.462-2.077-.346-3 .116L4.846 93.799l-2.192-.346v2.311c0 .347.115.578.461.81L30 112.174c.808.462 2.077.346 3-.116l18.346-10.632c.462-.231.693-.694.693-1.04V98.19h.115z" id="Path" fill="#173D7A"/><path d="M34.27 89.523l-1.732-.924h-18.46l-9.115 5.316-2.193-.347v2.196c0 .347.116.578.462.809l26.884 15.601c.347.231.924.347 1.5.231l2.654-22.882z" id="Path" fill="#396CAA"/><path d="M3.692 93.684l-1.038-.116v2.196c0 .347.115.578.461.81l.462.23v-3.12h.115z" id="Path" fill="#5793CE"/><path d="M30.346 112.175c.692.231 1.73.231 2.539-.116v-3.814h-2.539v3.93z" id="Path" fill="#274F89"/><path d="M30.117 109.863L3.232 94.262c-.808-.463-.692-1.156.23-1.734L21.81 81.896c.923-.462 2.192-.578 3-.115l26.885 15.601c.807.462.692 1.156-.231 1.733l-18.346 10.633c-.923.462-2.308.577-3 .115z" id="Path" fill="#FFF"/><path d="M29.654 107.552L7.269 94.608c-.577-.346-.577-1.04.231-1.386l9.808-5.547c.692-.463 1.846-.463 2.423-.116l22.384 12.943c.577.347.577 1.04-.23 1.387l-9.808 5.547c-.692.347-1.846.463-2.423.116z" id="Path" fill="#D4ECFF"/><path d="M22.73 81.434l-.23 1.849c-.23 1.618-.23 3.236.115 4.738l.347 1.618c.23.925.923 1.618 1.846 1.85.692.115 1.384-.348 1.5-1.157l.461-3.929s1.039 1.387 1.5 1.387c.462 0-.577-3.93-1.615-6.24-1.154-2.196-3.923-.116-3.923-.116z" id="Path" fill="#FFC2B0"/><path d="M31.846 51.965l-2.884 5.778c-.693 1.387-1.039 2.89-1.154 4.392l-1.27 19.415-3.807-.116L21 59.477c0-.694 0-1.387.115-2.08l1.962-11.095 8.77 5.663z" id="Path" fill="#FFC2B0"/><path d="M29.192 111.365l-2.307-3.004L3.23 94.608c-.808-.462-1.385-1.618-1.385-2.658V72.535L.462 70.802l1.269-.694c.23-.115.577-.115.923 0L29.538 85.71c.808.462 1.385 1.618 1.385 2.658v21.148c0 .578-.23.925-.461 1.156l-1.27.693z" id="Path" fill="#173D7A"/><path d="M12.808 100.156l-1.731-.925-9.23-16.063V72.65L.461 70.918l1.269-.694c.23-.115.577-.115.923 0l26.884 15.602c.347.23.808.693 1.039 1.155l-17.77 13.175z" id="Path" fill="#396CAA"/><path d="M1.038 71.61l-.576-.808 1.269-.694c.23-.115.577-.115.923 0l.461.231-2.077 1.272z" id="Path" fill="#5793CE"/><path d="M29.77 85.825c.576.463 1.038 1.387 1.153 2.312l-2.654 1.502L27 87.443l2.77-1.618z" id="Path" fill="#274F89"/><path d="M28.27 86.403L1.384 70.802C.692 70.34 0 70.802 0 71.842v21.149c0 1.04.577 2.195 1.385 2.658l26.884 15.601c.808.462 1.385 0 1.385-1.04V89.061c0-1.04-.577-2.195-1.385-2.658z" id="Path" fill="#FFF"/><path d="M41.538 90.564l-.461.924c-.462 1.04-1.27 1.85-2.192 2.543l-2.654 1.617c-.808.463-1.846.578-2.77.116h-.115c-.807-.578-.923-1.733-.23-2.427l2.769-2.889s-1.616 1.156-1.962.694c-.346-.347 1.5-2.08 2.885-2.196 1.384 0 2.769-1.156 2.769-1.156l1.962 2.774z" id="Path" fill="#FFC2B0"/><path d="M34.385 25.731s-10.27 11.094-14.308 21.38c0 0 3.461 6.356 12.115 8.783 8.654 2.427 2.193-30.163 2.193-30.163z" id="Path" fill="#983BE9"/><path d="M30.23 55.2l1.616-16.063-3.923 15.023c.692.347 1.5.694 2.308 1.04z" id="Path" fill="#6614CF"/><path d="M42.115 23.42l-2.769-.81s1.27 2.081 3.23 2.543c1.962.578 2.193-1.04 2.193-1.04l-2.654-.693z" id="Path" fill="#FFF"/></g></g></g></svg>