<svg width="427" height="362" xmlns="http://www.w3.org/2000/svg"><g id="Page-1" stroke="none" stroke-width="1" fill="none" fill-rule="evenodd"><g id="Mobile-VPN-Change-Your-Mobile-Phone-Ip"><g id="header_splash_phone_protect1"><path d="M386.971 259.482c4.596-4.928 9.573-10.553 14.406-16.805.763-.977 1.522-1.976 2.276-2.996a155.88 155.88 0 005.95-8.585c9.945-15.412 17.625-33.657 17.267-53.903a55.722 55.722 0 00-.051-1.589c.005-.055.001-.108-.001-.162a72.119 72.119 0 00-.412-5.332.17.17 0 00-.005-.06c-1.325-11.826-5.369-22.875-11.034-32.994a15.939 15.939 0 00-.272-.492 107.837 107.837 0 00-3.549-5.835 52.206 52.206 0 00-.912-1.395c-.314-.477-.636-.951-.958-1.426-4.371-6.345-9.304-12.264-14.471-17.719a191.796 191.796 0 00-12.531-12.008 220.995 220.995 0 00-10.59-8.693c-12.129-9.347-30.722-22.306-52.064-26.808-25.837-5.451-54.192 2.798-73.851 20.441a78.025 78.025 0 00-11.135 12.297 87.485 87.485 0 00-2.758 4.031c-2.133 3.253-4.123 6.623-6.069 9.915a.152.152 0 01-.023.043c-5.295 8.99-10.755 18.261-18.854 24.693a40.587 40.587 0 01-9.989 5.833c-5.274 2.162-11.248 3.397-17.976 3.711-.779.038-1.577.063-2.377.074-6.37.103-13.386-.574-21.096-2.034-4.353-.825-8.78-1.819-13.061-2.781-10.263-2.308-20.83-4.678-31.461-4.916a66.739 66.739 0 00-6.214.108c-20.034 1.246-37.332 11.247-50.457 22.132a143.453 143.453 0 00-15.243 14.721c-12.707 14.221-29.893 39.18-27.682 68.417 1.084 14.441 6.81 28.897 17.373 43.753a149.536 149.536 0 007.384 9.52c.531.036 1.064.07 1.595.105a149.33 149.33 0 01-7.862-10.049c-10.56-14.764-16.27-29.107-17.35-43.41-2.145-28.393 14.322-52.763 26.834-66.92a141.024 141.024 0 014.144-4.503 146.466 146.466 0 018.258-7.94 135.381 135.381 0 014.993-4.199c6.228-4.987 13.329-9.706 21.173-13.365 8.216-3.837 17.244-6.512 26.914-7.118a71.256 71.256 0 017.706-.054c9.991.426 19.953 2.665 29.648 4.843 4.288.96 8.725 1.961 13.094 2.79 6.416 1.209 12.361 1.89 17.861 2.03 1.25.035 2.48.044 3.684.011 9.706-.165 17.945-2.137 24.863-5.906a41.055 41.055 0 003.638-2.235 38.623 38.623 0 002.701-2.025c7.933-6.451 13.325-15.493 18.525-24.309.073-.13.155-.255.229-.386 1.869-3.176 3.786-6.422 5.818-9.555a104.06 104.06 0 012.972-4.345c3.155-4.352 6.779-8.346 10.767-11.95 19.398-17.52 47.475-25.735 73.054-20.338 21.107 4.45 39.556 17.307 51.594 26.588a219.177 219.177 0 0110.196 8.357 194.425 194.425 0 016.796 6.2 182.172 182.172 0 015.691 5.701c4.982 5.23 9.754 10.898 13.998 16.96a105.41 105.41 0 012.694 4.009c.301.448.589.914.876 1.372.866 1.39 1.703 2.794 2.504 4.212l.258.465c5.551 9.934 9.518 20.758 10.844 32.329a74.33 74.33 0 01.418 5.322l.011.168c.039.896.061 1.795.06 2.684.101 19.412-7.279 36.975-16.846 51.901a153.61 153.61 0 01-5.489 8.01c-.872 1.2-1.757 2.379-2.646 3.529-4.896 6.357-9.953 12.084-14.618 17.08a621.117 621.117 0 00-2.657 2.875c-9.894 10.824-12.099 15.015-12.533 26.801l1.165-.133c.445-11.162 2.604-15.324 11.895-25.533a274.268 274.268 0 012.97-3.225z" id="Path" fill="#DAEBFE"/><path d="M369.617 264.186c2.415-3.304 5.574-6.923 9.696-11.344.081-.094.169-.19.252-.276 6.038-6.47 11.308-12.735 15.835-18.854a151.274 151.274 0 006.007-8.681c.526-.819 1.035-1.643 1.538-2.465 4.668-7.648 8.124-15.076 10.409-22.377 1.433-4.585 2.412-9.122 2.933-13.633.051-.428.102-.856.138-1.28.023-.222.048-.443.064-.663.261-2.928.323-5.846.21-8.759a64.292 64.292 0 00-.607-6.581.222.222 0 00-.007-.068c-.962-6.77-2.951-13.276-5.687-19.478a12.364 12.364 0 00-.23-.517 5.541 5.541 0 00-.157-.346c-.129-.29-.258-.58-.394-.862a37.999 37.999 0 00-.417-.864 89.098 89.098 0 00-3.294-6.251c-3.343-5.808-7.285-11.307-11.57-16.448a152.313 152.313 0 00-8.869-9.743 178.891 178.891 0 00-7.242-6.903 211.991 211.991 0 00-4.089-3.591 213.995 213.995 0 00-8.238-6.675c-18.27-14.092-33.066-21.776-47.963-24.92-7.601-1.606-15.534-1.9-23.571-.867-17.31 2.223-33.666 10.498-45.285 22.656a67.56 67.56 0 00-5.847 6.986c-2.921 4.026-5.53 8.444-8.304 13.15-.014.011-.017.027-.024.036-1.847 3.132-3.711 6.299-5.704 9.399-.006.009-.02.019-.023.036-2.474 3.84-5.138 7.582-8.205 11.05-2.6 2.933-5.486 5.669-8.79 8.097-.449.333-.907.659-1.373.979a50.985 50.985 0 01-9.105 4.955c-4.838 2.035-10.138 3.43-15.838 4.159-5.354.688-11.047.812-17.19.366-4.614-.33-9.488-.985-14.659-1.957-2.258-.43-4.515-.899-6.759-1.378-2.237-.481-4.463-.98-6.648-1.471-8.384-1.885-16.445-3.698-24.362-4.397-3.514-.317-6.999-.409-10.467-.194-1.234.076-2.506.2-3.762.359-7.986 1.023-15.497 3.64-22.363 7.136-4.618 2.352-8.954 5.094-12.945 8.012-4.622 3.373-8.796 6.978-12.443 10.481a138.695 138.695 0 00-3.913 3.898 130.634 130.634 0 00-8.296 9.479c-10.534 13.27-21.85 32.968-20.185 55.023 1.023 13.543 6.887 27.321 17.82 41.762 3.277 4.337 7.026 8.741 11.234 13.208.563.036 1.127.071 1.69.105-4.356-4.565-8.234-9.053-11.617-13.484-11.048-14.438-16.962-28.199-17.986-41.672-1.607-21.287 9.115-40.383 19.347-53.467a130.63 130.63 0 018.822-10.151c1.062-1.1 2.18-2.234 3.359-3.367 3.632-3.531 7.8-7.173 12.422-10.585 4.1-3.025 8.555-5.861 13.32-8.283 6.733-3.399 14.073-5.949 21.877-6.95a53.222 53.222 0 013.694-.353c3.512-.224 7.053-.12 10.633.214 7.736.722 15.658 2.493 23.889 4.348 1.36.306 2.736.617 4.118.919 3.066.681 6.181 1.343 9.305 1.934 4.361.823 8.512 1.418 12.479 1.789 7.114.664 13.638.599 19.729-.179 7.549-.972 14.402-3.075 20.44-6.284a49.056 49.056 0 005.011-3.028 49.682 49.682 0 002.733-2.017c3.243-2.539 6.071-5.372 8.622-8.386 5.148-6.07 9.165-12.872 13.099-19.548 2.752-4.664 5.346-9.078 8.244-13.068a66.103 66.103 0 015.202-6.297c11.48-12.276 27.83-20.651 45.147-22.875 7.911-1.015 15.717-.734 23.189.845 14.727 3.11 29.37 10.725 47.502 24.706a220.841 220.841 0 018.106 6.563 186.372 186.372 0 013.976 3.491 170.005 170.005 0 017.138 6.778 153.364 153.364 0 017.95 8.612 125.234 125.234 0 015.579 6.999c.458.609.901 1.227 1.345 1.847a104.476 104.476 0 015.742 8.951 92.108 92.108 0 013.512 6.74c.148.309.291.627.425.939.278.6.539 1.195.795 1.799.24.568.479 1.129.704 1.693l.344.887c1.672 4.329 2.962 8.792 3.77 13.392.031.148.061.289.076.441.291 1.639.509 3.294.66 4.963.106 1.114.183 2.241.23 3.367a66.872 66.872 0 01-.362 10.189c-.674 6.058-2.18 12.164-4.541 18.384-2.122 5.623-4.948 11.344-8.498 17.193a51.33 51.33 0 01-1.009 1.621 146.38 146.38 0 01-6.461 9.471c-4.537 6.153-9.836 12.462-15.917 18.987-.013.01-.025.028-.038.038-3.319 3.561-6.032 6.608-8.254 9.385-6.112 7.652-8.45 13.272-9.301 22.025-.184 1.923-.296 4.008-.362 6.294.383-.041.771-.08 1.153-.122.081-2.661.23-5.048.489-7.225.833-6.971 2.778-11.954 7.168-17.952z" id="Path" fill="#DAEBFE"/><path d="M372.164 245.641c.93-.995 1.843-1.995 2.736-2.975 5.286-5.851 9.881-11.497 13.813-16.985 2.61-3.628 4.925-7.189 6.952-10.691.221-.386.444-.764.651-1.146a82.411 82.411 0 001.611-2.968c3.331-6.382 5.683-12.578 7.096-18.642.104-.43.201-.86.29-1.288.067-.315.132-.637.19-.95.905-4.638 1.262-9.201 1.077-13.729-.188-4.582-.947-9.061-2.177-13.419a64.884 64.884 0 00-2.037-6.101 77.216 77.216 0 00-4.15-8.902c-4.979-9.186-11.735-17.627-19.027-25.108-.9-.919-1.802-1.815-2.71-2.701a154.975 154.975 0 00-4.623-4.346 197.736 197.736 0 00-4.983-4.364 212.327 212.327 0 00-7.154-5.77c-17.002-13.11-30.537-20.213-43.876-23.03-6.489-1.371-13.284-1.614-20.195-.728-17.587 2.256-33.994 11.67-43.97 25.211-.086.111-.17.221-.249.33-2.657 3.663-5.15 7.894-7.799 12.382-2.333 3.958-4.773 8.109-7.548 12.213-2.665 3.958-5.632 7.877-9.092 11.543a23.3 23.3 0 01-.456.48c-2.94 3.072-6.229 5.953-9.988 8.538a55.295 55.295 0 01-2.73 1.769c-7.763 4.732-16.707 7.768-26.664 9.044-6.008.769-12.353.913-19.163.418-5.013-.356-10.284-1.067-15.856-2.112l-.458-.091c-4.539-.863-8.966-1.857-13.247-2.819-5.43-1.221-10.699-2.405-15.811-3.242a91.97 91.97 0 00-4.218-.62c-4.129-.523-8.128-.748-11.983-.509a47.247 47.247 0 00-3.11.302c-6.331.814-12.376 2.834-17.993 5.578a64.626 64.626 0 00-3.13 1.619 84.983 84.983 0 00-9.066 5.752c-6 4.328-11.235 9.157-15.469 13.554-.305.318-.61.636-.926.972-3.617 3.837-7.917 8.89-11.91 14.83-7.53 11.174-14 25.521-12.839 40.897.948 12.576 7.006 25.681 18.422 39.774 3.374 4.163 7.212 8.409 11.535 12.755.04.046.09.097.136.141a262.504 262.504 0 004.024 3.959c.593.034 1.184.068 1.777.1a264.794 264.794 0 01-4.862-4.747c-.046-.037-.086-.083-.125-.121-4.273-4.294-8.077-8.485-11.416-12.593-11.38-13.986-17.407-26.949-18.341-39.351-1.108-14.629 4.862-28.356 12.015-39.229 3.928-5.995 8.222-11.116 11.889-15.048.499-.536.98-1.045 1.45-1.536a117.009 117.009 0 013.475-3.476l.02-.019c.32-.314.65-.629.987-.938 3.109-2.929 6.601-5.906 10.413-8.687a85.934 85.934 0 019.053-5.809c1.44-.8 2.913-1.553 4.412-2.256a62.964 62.964 0 013.888-1.66c4.072-1.591 8.33-2.763 12.722-3.323a42.96 42.96 0 013.036-.286c3.901-.25 7.964-.007 12.159.541.619.08 1.238.161 1.86.257l.002.008c5.666.83 11.582 2.159 17.675 3.528 3.871.877 7.86 1.769 11.953 2.57.596.123 1.192.24 1.795.356 4.207.792 8.252 1.393 12.146 1.787 8.353.872 16.025.833 23.228-.09 11.213-1.435 21.176-5.076 29.624-10.822.088-.057.175-.122.264-.179 4.301-2.951 7.99-6.285 11.244-9.824.018-.019.038-.038.055-.065 3.506-3.815 6.506-7.872 9.201-11.952 2.519-3.804 4.771-7.63 6.934-11.298 2.504-4.25 4.878-8.279 7.369-11.768.118-.178.246-.344.365-.515 9.774-13.47 26.019-22.85 43.434-25.079 6.782-.874 13.454-.63 19.812.708 13.162 2.784 26.552 9.816 43.415 22.815a207.67 207.67 0 017.064 5.705 163.874 163.874 0 013.901 3.381c.499.438.992.885 1.48 1.341.444.395.883.799 1.313 1.204a152.373 152.373 0 016.055 5.936c7.118 7.354 13.678 15.627 18.507 24.605a74.123 74.123 0 014.105 8.918c.131.329.252.659.375.989a64.602 64.602 0 011.632 5.15c1.115 4.103 1.806 8.318 1.982 12.617.187 4.581-.186 9.21-1.149 13.905-.066.354-.147.71-.22 1.066-.115.525-.246 1.055-.376 1.584-1.322 5.349-3.386 10.798-6.229 16.407a100.136 100.136 0 01-1.862 3.514c-.26.463-.525.935-.792 1.399-2.007 3.482-4.302 7.023-6.886 10.632l.001.008c-3.636 5.085-7.854 10.314-12.667 15.72a238.93 238.93 0 01-3.929 4.311c-12.984 13.923-17.959 21.88-19.763 33.843-.535 3.511-.79 7.367-.895 11.82l1.151-.113c.104-4.102.341-7.692.815-10.97 1.718-12.038 6.579-19.909 19.533-33.796z" id="Path" fill="#DAEBFE"/><path d="M251.384 128.774c.677-1.136 1.333-2.261 1.98-3.352.527-.889 1.048-1.77 1.565-2.633 1.924-3.249 3.778-6.274 5.625-8.811 8.163-11.251 21.822-19.093 36.53-20.98 5.654-.727 11.182-.531 16.436.579 11.595 2.45 23.722 8.901 39.313 20.926 3.11 2.395 6.32 5.015 9.523 7.823a168.615 168.615 0 015.06 4.627c.643.617 1.288 1.233 1.92 1.868.968.951 1.923 1.921 2.867 2.9.71.749 1.412 1.501 2.109 2.261.038.031.069.071.099.104 6.013 6.592 11.39 13.85 15.18 21.567a62.486 62.486 0 012.448 5.629c.095.235.184.48.272.717a53.528 53.528 0 011.604 5.239c.779 3.108 1.262 6.276 1.391 9.487.178 4.461-.297 9.009-1.448 13.689-.004.016-.007.041-.019.058-.15.619-.316 1.24-.495 1.864-.138.492-.284.986-.436 1.481l.569 1.938c.305-.882.587-1.76.831-2.629.233-.782.445-1.552.641-2.326.017-.066.027-.13.046-.188 1.165-4.761 1.645-9.395 1.458-13.938a48.416 48.416 0 00-1.381-9.551 54.453 54.453 0 00-1.537-5.099c-.109-.302-.218-.612-.334-.912a65.374 65.374 0 00-2.72-6.269c-3.894-7.811-9.355-15.137-15.455-21.781-.341-.378-.688-.755-1.036-1.13a153.848 153.848 0 00-4.829-4.898l-.868-.841a167.592 167.592 0 00-5.842-5.315 194.261 194.261 0 00-8.91-7.286c-15.745-12.133-28.01-18.656-39.79-21.137-5.374-1.139-11.035-1.338-16.816-.593-15.017 1.927-28.963 9.944-37.314 21.443-1.659 2.289-3.318 4.95-5.036 7.816a517.157 517.157 0 00-2.228 3.759c-.806 1.364-1.636 2.772-2.505 4.21-2.239 3.747-4.7 7.686-7.527 11.607l1.651-.341c2.771-3.933 5.187-7.862 7.408-11.582z" id="Path" fill="#DAEBFE"/><path d="M389.126 203.298a93.836 93.836 0 01-2.145 4.159c.296.241.602.486.905.725a78.684 78.684 0 001.982-3.793c1.441-2.933 2.647-5.809 3.608-8.634l-.568-1.938c-.967 3.097-2.224 6.254-3.782 9.481zm-148.869-57.955c-.426-.082-.858-.155-1.284-.237a88.079 88.079 0 01-4.147 4.819l1.91-.394a85.548 85.548 0 003.521-4.188z" id="Path" fill="#DAEBFE"/><path d="M243.976 140.356l-1.65.341a113.355 113.355 0 01-3.352 4.409c.426.082.857.154 1.283.236a113.157 113.157 0 003.719-4.986zm-27.627 25.454a69.428 69.428 0 006.575-4.009c5.369-3.689 9.893-7.876 13.812-12.27l-1.91.394c-3.618 3.907-7.745 7.626-12.552 10.929a70.299 70.299 0 01-10.301 5.859 64.858 64.858 0 01-3.934 1.693l.235 1.141a72.943 72.943 0 008.075-3.737zm135.265 88.911c3.251-4.859 7.536-9.985 13.143-15.996 6.638-7.118 12.196-13.86 16.702-20.307 2.451-3.497 4.59-6.905 6.428-10.236-.304-.239-.609-.485-.906-.724-1.818 3.31-3.937 6.699-6.378 10.178-4.486 6.436-10.043 13.177-16.686 20.305-5.583 5.982-9.869 11.101-13.148 15.943-3.985 5.868-6.481 11.32-8.018 17.425-1.463 5.824-2.053 12.255-2.223 20.169l1.151-.104c.169-7.464.714-13.584 2.052-19.131 1.476-6.17 3.923-11.643 7.883-17.522zM70.058 282.537c-3.795-3.806-7.175-7.513-10.154-11.108-10.402-12.579-15.889-23.925-16.682-34.439-.855-11.305 3.635-22.253 9.345-31.329 4.3-6.853 9.297-12.637 13.202-16.688 2.836-2.942 6.159-6.109 9.875-9.124 3.873-3.157 8.179-6.155 12.78-8.581a64.328 64.328 0 012.19-1.101c3.787-1.81 7.759-3.209 11.856-3.97a33.964 33.964 0 014.648-.589 43.757 43.757 0 014.492-.032l.01.007c2.911.117 5.991.493 9.202 1.02 4.811.8 9.9 1.936 15.137 3.117.476.103.955.213 1.433.323.258.055.525.116.792.177 3.811.851 7.746 1.707 11.859 2.489 7.355 1.385 14.257 2.217 20.813 2.493 6.196.259 12.076.026 17.731-.701a85.23 85.23 0 008.927-1.619 77.878 77.878 0 0010.76-3.334l-.235-1.142a77.774 77.774 0 01-10.755 3.357 85.585 85.585 0 01-8.847 1.602 98.015 98.015 0 01-12.481.784c-7.983.026-16.48-.831-25.698-2.567a341.968 341.968 0 01-10.12-2.106c-.251-.056-.493-.107-.735-.165-1.078-.241-2.145-.476-3.197-.715-5.407-1.217-10.666-2.395-15.631-3.193-2.924-.478-5.741-.816-8.432-.956l-.016.003a43.498 43.498 0 00-5.084.007 35.29 35.29 0 00-2.452.236c-.79.101-1.575.225-2.355.37-4.079.773-8.032 2.146-11.812 3.922-.774.362-1.537.743-2.296 1.139a67.987 67.987 0 00-4.158 2.373 61.9 61.9 0 00-1.585.999 86.917 86.917 0 00-7.003 5.086c-3.938 3.17-7.459 6.5-10.44 9.597-4.026 4.176-9.196 10.172-13.611 17.289-5.684 9.163-10.12 20.185-9.257 31.604.819 10.757 6.39 22.324 16.955 35.094 3.002 3.63 6.401 7.355 10.217 11.187.66.66 1.322 1.327 1.99 1.985a294.22 294.22 0 0010.706 9.966c.609.03 1.216.061 1.825.09a291.95 291.95 0 01-11.507-10.67c-.737-.729-1.473-1.456-2.202-2.187z" id="Path" fill="#DAEBFE"/><path d="M247.333 37.973h-42.442a2.994 2.994 0 01-2.991-2.997 2.994 2.994 0 012.991-2.997h42.442a2.995 2.995 0 012.992 2.997 2.995 2.995 0 01-2.992 2.997zm-21.221-21.636a3.462 3.462 0 013.459 3.466 3.462 3.462 0 01-3.459 3.466 3.462 3.462 0 01-3.459-3.466 3.462 3.462 0 013.459-3.466zm111.163-4.356a29.27 29.27 0 00-6.992-7.006C325.825 1.83 320.485 0 314.747 0H137.478c-15.606 0-28.256 13.532-28.256 30.226v266.267c3.495.132 6.998.254 10.506.37V60.077h212.768v232.109c3.546-.301 7.05-.613 10.507-.933V30.226c0-6.854-2.133-13.174-5.728-18.245z" id="Shape" fill="#01013D"/><path d="M247.333 31.979h-42.442a2.994 2.994 0 00-2.991 2.997 2.994 2.994 0 002.991 2.997h42.442a2.995 2.995 0 002.992-2.997 2.995 2.995 0 00-2.992-2.997zm-21.221-8.711a3.462 3.462 0 003.459-3.465 3.462 3.462 0 00-3.459-3.466 3.462 3.462 0 00-3.459 3.466 3.462 3.462 0 003.459 3.465z" id="Path" fill="#181548"/><path d="M119 60v236.852c9.201.301 18.444.548 27.734.729 72.108 1.41 129.973 2.757 186.266-1.155V60H119z" id="Path" fill="#3052E4"/><path d="M292.26 117.974l-6.259-4.184c4.98-19.659-5.048-30.02-20.528-36.097 6.495 4.948 11.576 18.165 8.48 28.061l-6.292-4.185c-1.245-.83-2.861.2-2.659 1.628l3.096 21.584c.135.997 1.111 1.628 2.086 1.395l21.47-5.213c1.481-.299 1.817-2.192.606-2.989z" id="Path" fill="#FFD22E" fill-rule="nonzero"/><path d="M271.194 93.6c-1.178-7.007-4.779-13.715-9.019-16.936 0 0-15.917-4.217-28.435 8.734 0 0 19.652-7.206 37.454 8.202zM159.74 157.026l6.259 4.184c-4.98 19.659 5.048 30.019 20.528 36.096-6.495-4.947-11.576-18.164-8.48-28.06l6.259 4.184c1.245.831 2.86-.199 2.658-1.627l-3.096-21.585c-.134-.996-1.11-1.627-2.086-1.394l-21.47 5.18c-1.447.332-1.783 2.225-.572 3.022z" id="Path" fill="#31C5FF" fill-rule="nonzero"/><path d="M180.806 181.4c1.178 7.007 4.779 13.715 9.019 16.936 0 0 15.917 4.217 28.435-8.734 0 0-19.652 7.206-37.454-8.202z" id="Path" fill="#FFD22E" fill-rule="nonzero"/><path d="M197 82c13.183 0 24 10.648 24 24 0 13.183-10.648 24-24 24-13.183 0-24-10.648-24-24 .169-13.183 10.817-24 24-24z" id="Path" fill="#31C5FF"/><path d="M263 144c13.183 0 24 10.648 24 24 0 13.183-10.648 24-24 24-13.183 0-24-10.648-24-24 .169-13.183 10.817-24 24-24z" id="Path" fill="#FFD22E"/><path d="M188.866 114V96.96h3.312V114h-3.312zm6.867 0V96.96h7.224c.784 0 1.504.168 2.16.504.672.32 1.248.752 1.728 1.296.48.528.856 1.136 1.128 1.824.272.672.408 1.352.408 2.04 0 .72-.128 1.424-.384 2.112a5.865 5.865 0 01-1.08 1.8 5.306 5.306 0 01-1.68 1.272 4.86 4.86 0 01-2.16.48h-4.032V114h-3.312zm3.312-8.616h3.84c.608 0 1.112-.248 1.512-.744.416-.496.624-1.168.624-2.016a3.22 3.22 0 00-.192-1.152 2.802 2.802 0 00-.504-.888 1.87 1.87 0 00-.744-.528 1.952 1.952 0 00-.84-.192h-3.696v5.52zM253.866 176v-17.04h3.312V176h-3.312zm6.867 0v-17.04h7.224c.784 0 1.504.168 2.16.504.672.32 1.248.752 1.728 1.296.48.528.856 1.136 1.128 1.824.272.672.408 1.352.408 2.04 0 .72-.128 1.424-.384 2.112a5.865 5.865 0 01-1.08 1.8 5.306 5.306 0 01-1.68 1.272 4.86 4.86 0 01-2.16.48h-4.032V176h-3.312zm3.312-8.616h3.84c.608 0 1.112-.248 1.512-.744.416-.496.624-1.168.624-2.016a3.22 3.22 0 00-.192-1.152 2.802 2.802 0 00-.504-.888 1.87 1.87 0 00-.744-.528 1.952 1.952 0 00-.84-.192h-3.696v5.52z" id="Shape" fill="#FFF" fill-rule="nonzero"/><path id="Path" stroke="#31C5FF" fill="#181548" fill-rule="nonzero" opacity=".7" d="M310 212H142v68h168z"/><path d="M147.9 265h50.9c1.1 0 2.1.9 2.1 2.1 0 1.1-.9 2.1-2.1 2.1h-50.9c-1.1 0-2.1-.9-2.1-2.1 0-1.1 1-2.1 2.1-2.1zm80.2 0H279c1.1 0 2.1.9 2.1 2.1 0 1.1-.9 2.1-2.1 2.1h-50.9c-1.1 0-2.1-.9-2.1-2.1 0-1.1 1-2.1 2.1-2.1z" id="Path" fill="#31C5FF"/><path d="M147.9 218.9h23.2c1.1 0 2.1.9 2.1 2.1 0 1.1-.9 2.1-2.1 2.1h-23.2c-1.1 0-2.1-.9-2.1-2.1 0-1.2 1-2.1 2.1-2.1zm80.2 0h23.2c1.1 0 2.1.9 2.1 2.1 0 1.1-.9 2.1-2.1 2.1h-23.2c-1.1 0-2.1-.9-2.1-2.1 0-1.2 1-2.1 2.1-2.1zm-48.9 0h23.2c1.1 0 2.1.9 2.1 2.1 0 1.1-.9 2.1-2.1 2.1h-23.2c-1.1 0-2.1-.9-2.1-2.1 0-1.2.9-2.1 2.1-2.1zm80.2 0h23.2c1.1 0 2.1.9 2.1 2.1 0 1.1-.9 2.1-2.1 2.1h-23.2c-1.1 0-2.1-.9-2.1-2.1 0-1.2.9-2.1 2.1-2.1z" id="Path" fill="#FC3E54"/><path d="M147.9 229h28c1.1 0 2.1.9 2.1 2.1 0 1.1-.9 2.1-2.1 2.1h-28c-1.1 0-2.1-.9-2.1-2.1 0-1.1 1-2.1 2.1-2.1zm80.2 0h28c1.1 0 2.1.9 2.1 2.1 0 1.1-.9 2.1-2.1 2.1h-28c-1.1 0-2.1-.9-2.1-2.1 0-1.1 1-2.1 2.1-2.1zm-43.4 0h28c1.1 0 2.1.9 2.1 2.1 0 1.1-.9 2.1-2.1 2.1h-28c-1.1 0-2.1-.9-2.1-2.1.1-1.1 1-2.1 2.1-2.1zm80.2 0h28c1.1 0 2.1.9 2.1 2.1 0 1.1-.9 2.1-2.1 2.1h-28c-1.1 0-2.1-.9-2.1-2.1.1-1.1 1-2.1 2.1-2.1z" id="Path" fill="#31C5FF"/><path d="M147.9 240.5h18.9c1.1 0 2.1.9 2.1 2.1 0 1.1-.9 2.1-2.1 2.1h-18.9c-1.1 0-2.1-.9-2.1-2.1 0-1.2 1-2.1 2.1-2.1zm27.2 0H194c1.1 0 2.1.9 2.1 2.1 0 1.1-.9 2.1-2.1 2.1h-18.9c-1.1 0-2.1-.9-2.1-2.1 0-1.2 1-2.1 2.1-2.1zm53 0H247c1.1 0 2.1.9 2.1 2.1 0 1.1-.9 2.1-2.1 2.1h-18.9c-1.1 0-2.1-.9-2.1-2.1 0-1.2 1-2.1 2.1-2.1zm27 0H274c1.1 0 2.1.9 2.1 2.1 0 1.1-.9 2.1-2.1 2.1h-18.9c-1.1 0-2.1-.9-2.1-2.1 0-1.2 1-2.1 2.1-2.1z" id="Path" fill="#FFD22E"/><path d="M147.9 253.7h28c1.1 0 2.1.9 2.1 2.1 0 1.1-.9 2.1-2.1 2.1h-28c-1.1 0-2.1-.9-2.1-2.1 0-1.1 1-2.1 2.1-2.1zm80.2 0h28c1.1 0 2.1.9 2.1 2.1 0 1.1-.9 2.1-2.1 2.1h-28c-1.1 0-2.1-.9-2.1-2.1 0-1.1 1-2.1 2.1-2.1zm-43.4 0h28c1.1 0 2.1.9 2.1 2.1 0 1.1-.9 2.1-2.1 2.1h-28c-1.1 0-2.1-.9-2.1-2.1.1-1.1 1-2.1 2.1-2.1zm80.2 0h28c1.1 0 2.1.9 2.1 2.1 0 1.1-.9 2.1-2.1 2.1h-28c-1.1 0-2.1-.9-2.1-2.1.1-1.1 1-2.1 2.1-2.1z" id="Path" fill="#03E59F"/><path d="M386.6 63.955a4.564 4.564 0 00-4.56-4.569 4.564 4.564 0 00-4.56 4.569 4.565 4.565 0 004.56 4.57 4.565 4.565 0 004.56-4.57z" id="Path" fill="#2743BC"/><path d="M9.12 181.522a4.564 4.564 0 00-4.56-4.568A4.564 4.564 0 000 181.522a4.564 4.564 0 004.56 4.569 4.564 4.564 0 004.56-4.569z" id="Path" fill="#6582FF"/><path d="M75.187 81.962a3.868 3.868 0 00-3.864-3.871 3.868 3.868 0 00-3.864 3.87 3.868 3.868 0 003.864 3.873 3.869 3.869 0 003.864-3.873zm14.395 145.139a2.69 2.69 0 00-2.687-2.692 2.69 2.69 0 00-2.688 2.692 2.69 2.69 0 002.688 2.692 2.69 2.69 0 002.687-2.692z" id="Path" fill="#2743BC"/><path d="M369.477 29.762a2.92 2.92 0 00-2.918-2.925 2.92 2.92 0 00-2.919 2.925 2.92 2.92 0 002.919 2.924 2.92 2.92 0 002.918-2.924z" id="Path" fill="#6582FF"/><path d="M425.614 121.739L368.186 93l-57.428 28.739c-8.509 88.879 57.428 104.313 57.428 104.313s65.937-15.434 57.428-104.313z" id="Path" fill="#EDB720"/><path d="M418.263 126.576l-50.077-25.061-50.078 25.061c-7.419 77.502 50.078 90.96 50.078 90.96s57.497-13.458 50.077-90.96z" id="Path" fill="#FCCA2E"/><path d="M355.955 163.731a2.393 2.393 0 01-2.392-2.395v-23.978c0-6.52 6.24-11.627 14.206-11.627h.746c7.845 0 13.762 4.998 13.762 11.627v23.409a2.393 2.393 0 11-4.786 0v-23.409c0-3.898-3.858-6.838-8.976-6.838h-.746c-5.195 0-9.421 3.068-9.421 6.838v23.978a2.394 2.394 0 01-2.393 2.395z" id="Path" fill="#191551"/><path d="M386.978 179.365c0 2.993-2.505 5.587-6.03 5.587h-26.056c-3.523 0-6.543-2.594-6.543-5.587v-22.126c0-2.993 3.02-5.376 6.543-5.376h26.056c3.525 0 6.03 2.383 6.03 5.376v22.126z" id="Path" fill="#191551"/><path d="M371.775 164.138a3.37 3.37 0 00-3.368-3.371h-.176a3.369 3.369 0 00-3.368 3.371v.178a3.367 3.367 0 003.368 3.37h.176a3.369 3.369 0 003.368-3.37v-.178z" id="Path" fill="#FFF"/><path d="M369.914 175.137a1.595 1.595 0 11-3.19 0v-9.047a1.595 1.595 0 113.19 0v9.047z" id="Path" fill="#FFF"/></g><g id="header_splash_phone_protect2" transform="translate(269 236)"><path d="M22.04 64.6c1.4 0 2.5 1.1 2.5 2.5s-1.1 2.5-2.5 2.5-2.5-1.1-2.5-2.5 1.1-2.5 2.5-2.5z" id="Path" fill="#03E59F"/><path d="M34.24 44.4h96.899c1.9 0 3.5 1.6 3.5 3.5v33.3c0 1.9-1.6 3.5-3.5 3.5h-96.9c-1.9 0-3.5-1.6-3.5-3.5V47.9c0-1.9 1.6-3.5 3.5-3.5z" id="Path" fill="#3462F4"/><path d="M41.44 48.9h20.1c3.9 0 7 3.1 7 7v2.9c0 3.9-3.1 7-7 7h-20.1c-3.9 0-7-3.1-7-7v-2.9c-.1-3.9 3.1-7 7-7zm37.2 0h45.499c3.9 0 7 3.1 7 7v2.9c0 3.9-3.1 7-7 7h-45.5c-3.9 0-7-3.1-7-7v-2.9c0-3.9 3.1-7 7-7z" id="Path" fill="#01013D"/><path id="Path" fill="#FC3E54" fill-rule="nonzero" d="M110.639 55.2h-4.1v4.1h4.1z"/><path id="Path" fill="#FFD22E" fill-rule="nonzero" d="M117.039 55.2h-4.1v4.1h4.1zm6.4 0h-4.1v4.1h4.1z"/><path id="Path" fill="#092978" fill-rule="nonzero" d="M53.34 84.7h-14.6v4h14.6zm72.599 0h-14.6v4h14.6z"/><path d="M34.24 0h96.899c1.9 0 3.5 1.6 3.5 3.5v33.3c0 1.9-1.6 3.5-3.5 3.5h-96.9c-1.9 0-3.5-1.6-3.5-3.5V3.5c0-1.9 1.6-3.5 3.5-3.5z" id="Path" fill="#3462F4"/><path d="M41.44 4.5h20.1c3.9 0 7 3.1 7 7v2.9c0 3.9-3.1 7-7 7h-20.1c-3.9 0-7-3.1-7-7v-2.9c-.1-3.8 3.1-7 7-7zm37.2 0h45.499c3.9 0 7 3.1 7 7v2.9c0 3.9-3.1 7-7 7h-45.5c-3.9 0-7-3.1-7-7v-2.9c0-3.8 3.1-7 7-7z" id="Path" fill="#01013D"/><path id="Path" fill="#FC3E54" fill-rule="nonzero" d="M110.639 10.8h-4.1v4.1h4.1z"/><path id="Path" fill="#FFD22E" fill-rule="nonzero" d="M117.039 10.8h-4.1v4.1h4.1zm6.4 0h-4.1v4.1h4.1z"/><path id="Path" fill="#092978" fill-rule="nonzero" d="M53.34 40.4h-14.6v4h14.6zm72.599 0h-14.6v4h14.6z"/><path id="Path" fill="#03E59F" fill-rule="nonzero" d="M44.14 10.9h-4.1V15h4.1zm7.2 0h-4.1V15h4.1zm-7.2 44.4h-4.1v4.1h4.1zm7.2 0h-4.1v4.1h4.1z"/><path d="M134.739 18.4h4.2c3.5 0 6.7 1.4 9 3.7 2.3 2.3 3.7 5.5 3.7 9v57.6h-107.5v-3h104.5V31.1c0-2.7-1.1-5.1-2.9-6.9-1.8-1.8-4.2-2.9-6.9-2.9h-4.2v-2.9h.1z" id="Path" fill="#01013D"/><path id="Path" fill="#A5DBFD" fill-rule="nonzero" d="M24.314 73.521H5.985v18.33h18.33z"/><path d="M33.054 114.587l-14.617 4.409s-1.624 1.933-2.088 3.712c-.387 1.701-1.16 2.475-2.243 2.552-2.01.155-2.861-12.683-3.094-14.771l16.705-4.718 5.337 8.816z" id="Path" fill="#F9C4C7"/><path d="M40.71 37.404h24.593c3.094 0 10.673 5.8 11.988 13.38 2.475 12.22 1.392 39.055-7.27 48.645l-9.822-.154-30.007-7.425V41.117c2.862-2.243 6.496-3.713 10.518-3.713z" id="Path" fill="#FE5E31"/><path d="M65.303 37.482c12.142 1.16 13.303 16.473 13.148 25.985H65.304V37.482z" id="Path" fill="#FE5E31"/><path d="M66.463 63.622l11.91-.077c0 7.192-12.142 23.897-25.676 23.897h-17.4s3.712-4.718 8.584-5.104c4.872-.387 5.027.31 5.027.31 6.264-1.857 14.23-8.044 17.555-19.026z" id="Path" fill="#F9C4C7"/><path d="M10.548 87.365h52.049c.618 0 1.16.077 1.701.154 13.998 0 14.308 8.662 15.313 18.561H10.549c-5.105 0-9.358-4.176-9.358-9.358 0-5.181 4.253-9.357 9.357-9.357z" id="Path" fill="#44475C"/><path d="M8.228 88.293c2.088-.464 4.409-1.238 6.883-.928 7.734 1.005 53.595 14.849 53.595 14.849l-8.12 9.357c-9.435-.618-47.33 2.785-54.6-2.165-7.502-5.104-9.204-18.484 2.242-21.113z" id="Path" fill="#4D5068"/><path d="M38.08 25.108c-2.551 4.563 1.857 10.982 7.27 10.518v1.47l-2.939 4.253 2.94 4.33 3.016 1.083 7.347-1.856V31.682c.232-.078.309.386.85.077.542-.31 1.78-2.784 1.547-4.099-.232-1.237-1.856-2.01-1.856-2.01 1.547-3.79 2.707-4.332-1.237-6.42-3.945-2.088-11.91-1.933-11.91-1.933l-3.635 1.237c-.078 3.48.386 3.403-1.392 6.574z" id="Path" fill="#F9C4C7"/><path d="M44.577 35.626h.773c2.398-.078 4.409-.542 6.574-1.392 0 0-.773 2.552-3.635 3.866-2.63 1.238-4.408 1.238-4.64 1.238l1.624-2.32v-1.47l-.696.078z" id="Path" fill="#F08B90"/><path d="M40.4 19.617c3.017.541 5.492.077 7.348.31 1.083.154 2.01.695 2.707 1.237 1.779 1.392 3.093 4.872 3.48 7.192 0 0 2.01-.85 2.707-.464.696.387.232 1.47.154 1.856-.077.387-1.005.85-1.314 1.16-.542.464.077 1.16 1.237 1.237 5.568.233 13.611-18.251-6.96-24.206C47.439 5.464 48.599 5 47.36 5c-15.39.232-12.064 13.92-6.96 14.617z" id="Path" fill="#15378B"/><path d="M30.424 40.962c-6.65 5.955-10.595 14.23-12.915 22.815 4.408-.31 8.971-.232 13.302-.387l-.387-22.428z" id="Path" fill="#FE5E31"/><path d="M48.444 54.187c.464 0 .773.387.773.773a.775.775 0 01-.773.774.775.775 0 01-.774-.774c0-.386.31-.773.774-.773zm0-4.64c.464 0 .773.386.773.773a.775.775 0 01-.773.773.775.775 0 01-.774-.773c0-.464.31-.773.774-.773zM45.35 37.095c-2.784 4.795.232 8.12 3.017 9.667 3.866-2.474 7.347-4.95 7.347-9.667 0 0 1.314 0 2.165 2.088 1.392 3.403-.928 11.137-.928 11.137s-2.707-3.48-4.95-3.635c-2.242-.155-3.712.464-3.712.464-2.861-2.088-4.795.619-6.728 2.63-.619-5.105-.541-8.74 3.248-12.684h.541z" id="Shape" fill="#FFF"/><path d="M42.489 57.435H4.825c-1.469 0-2.938 1.237-2.63 2.63l5.647 24.902c.309 1.392 1.16 2.63 2.629 2.63h37.663c1.47 0 2.94-1.238 2.63-2.63l-5.646-24.902c-.309-1.392-1.16-2.63-2.63-2.63z" id="Path" fill="#DFF2FC"/><path d="M40.787 57.435H3.124c-1.47 0-2.939 1.237-2.63 2.63L6.14 84.966c.31 1.392 1.16 2.63 2.63 2.63h37.663c1.47 0 2.939-1.238 2.63-2.63l-5.646-24.902c-.31-1.392-1.16-2.63-2.63-2.63z" id="Path" fill="#87B6E1"/><path d="M24.005 70.041c-1.16.387-1.701 1.779-1.237 3.17.464 1.393 1.701 2.166 2.861 1.78 1.16-.387 1.702-1.78 1.238-3.171-.464-1.315-1.702-2.166-2.862-1.779z" id="Path" fill="#FFF"/><path d="M68.629 85.122H49.527v2.475h20.34v-1.238c0-.696-.542-1.237-1.238-1.237z" id="Path" fill="#DFF2FC"/><path d="M68.861 87.906c-7.734.387-47.795 15.545-47.795 15.545l4.254 14.462c5.878-.696 47.717-6.264 50.888-8.043 13.534-7.811 3.944-22.97-7.347-21.964z" id="Path" fill="#4D5068"/><path d="M134.739 62.5h4.2c3.5 0 6.7 1.4 9 3.7 2.3 2.3 3.7 5.5 3.7 9v12h-3v-12c0-2.7-1.1-5.1-2.9-6.9-1.8-1.8-4.2-2.9-6.9-2.9h-4.2v-2.9h.1zm0-47.2h1c.5 0 1 .4 1 1v7c0 .5-.4 1-1 1h-1v-9z" id="Path" fill="#01013D"/><path d="M134.739 59.5h1c.5 0 1 .4 1 1v7c0 .5-.4 1-1 1h-1v-9z" id="Path" fill="#01013D"/></g></g></g></svg>