<svg width="541" height="424" xmlns="http://www.w3.org/2000/svg"><defs><linearGradient x1="100.086%" y1="49.995%" x2=".086%" y2="49.995%" id="linearGradient-1"><stop stop-color="#D7D9D9" offset="0%"/><stop stop-color="#C6C7C9" offset="100%"/></linearGradient><linearGradient x1="5118.589%" y1="50.005%" x2="5218.675%" y2="50.005%" id="linearGradient-2"><stop stop-color="#D7D9D9" offset="0%"/><stop stop-color="#C6C7C9" offset="100%"/></linearGradient><linearGradient x1="6332.874%" y1="50.005%" x2="6432.874%" y2="50.005%" id="linearGradient-3"><stop stop-color="#D7D9D9" offset="0%"/><stop stop-color="#C6C7C9" offset="100%"/></linearGradient><linearGradient x1="-16.446%" y1="73.426%" x2="128.424%" y2="22.382%" id="linearGradient-4"><stop stop-color="#BFC0C2" offset="0%"/><stop stop-color="#D4D4D6" offset="100%"/></linearGradient><linearGradient x1="7.626%" y1="83.087%" x2="109.624%" y2="3.431%" id="linearGradient-5"><stop stop-color="#C6C7C9" offset="0%"/><stop stop-color="#D7D8D9" offset="42%"/><stop stop-color="#E0E1E2" offset="77%"/></linearGradient><linearGradient x1="89.578%" y1="45.146%" x2="1.26%" y2="55.961%" id="linearGradient-6"><stop stop-color="#8278B8" offset="0%"/><stop stop-color="#865BA6" offset="100%"/></linearGradient><linearGradient x1="86.916%" y1="30.839%" x2="33.674%" y2="58.473%" id="linearGradient-7"><stop stop-color="#D5DDF1" offset="0%"/><stop stop-color="#FFF" offset="100%"/></linearGradient><linearGradient x1="2765.904%" y1="89.565%" x2="2590.488%" y2="8.482%" id="linearGradient-8"><stop stop-color="#8278B8" offset="0%"/><stop stop-color="#865BA6" offset="100%"/></linearGradient><linearGradient x1="234.783%" y1="24.626%" x2="-199.517%" y2="84.345%" id="linearGradient-9"><stop stop-color="#60A3D8" offset="0%"/><stop stop-color="#5FA0D6" offset="4%"/><stop stop-color="#4B72B8" offset="67%"/><stop stop-color="#4460AC" offset="99%"/></linearGradient><linearGradient x1="32211.594%" y1="21.057%" x2="32645.894%" y2="80.815%" id="linearGradient-10"><stop stop-color="#60A3D8" offset="0%"/><stop stop-color="#5FA0D6" offset="4%"/><stop stop-color="#4B72B8" offset="67%"/><stop stop-color="#4460AC" offset="99%"/></linearGradient><linearGradient x1="32185.507%" y1="17.356%" x2="32619.807%" y2="77.075%" id="linearGradient-11"><stop stop-color="#60A3D8" offset="0%"/><stop stop-color="#5FA0D6" offset="4%"/><stop stop-color="#4B72B8" offset="67%"/><stop stop-color="#4460AC" offset="99%"/></linearGradient></defs><g id="Use-Cases" stroke="none" stroke-width="1" fill="none" fill-rule="evenodd"><g id="Use-Cases_" transform="translate(-800 -106)"><g id="Header"><g id="images/UseCases" transform="translate(800 106)"><g id="AllUseCases" fill-rule="nonzero"><g id="Group" opacity=".35" transform="translate(372 51)" fill="#FFF"><path d="M25.36 43.36H4.83a3.46 3.46 0 110-6.91h20.53a3.46 3.46 0 110 6.91zm-.01-35.75H4.79a3.46 3.46 0 110-6.91h20.56a3.46 3.46 0 010 6.91z" id="Path"/><path d="M60.52 16.61H1.75a1.73 1.73 0 010-3.46h58.77a1.73 1.73 0 010 3.46zM43.06 25H1.75a1.74 1.74 0 010-3.47h41.31a1.74 1.74 0 010 3.47z" id="Path" opacity=".45"/><path d="M25.36 79.11H4.83a3.46 3.46 0 110-6.91h20.53a3.46 3.46 0 110 6.91z" id="Path"/><path d="M60.52 52.36H1.75a1.73 1.73 0 010-3.46h58.77a1.73 1.73 0 110 3.46zm-17.46 8.36H1.75a1.73 1.73 0 010-3.46h41.31a1.73 1.73 0 110 3.46zm17.46 27.4H1.75a1.74 1.74 0 010-3.47h58.77a1.74 1.74 0 010 3.47zm-17.46 8.35H1.75a1.73 1.73 0 010-3.46h41.31a1.73 1.73 0 010 3.46z" id="Path" opacity=".45"/></g><rect id="Rectangle" fill="#FFF" opacity=".25" x="102.31" y="173.67" width="12.53" height="62.24" rx="1.44"/><rect id="Rectangle" fill="#FFF" opacity=".25" x="173.56" y="146.42" width="14.36" height="89.49" rx="1.85"/><rect id="Rectangle" fill="#FFF" opacity=".25" x="124.99" y="185.06" width="14.36" height="50.86" rx="1.39"/><rect id="Rectangle" fill="#FFF" opacity=".25" x="149.28" y="161.99" width="14.37" height="73.92" rx="1.68"/><rect id="Rectangle" fill="#FFF" opacity=".25" x="269.99" y="104.69" width="14.37" height="131.23" rx="2.24"/><rect id="Rectangle" fill="#FFF" opacity=".25" x="197.13" y="171.04" width="14.36" height="64.87" rx="1.58"/><rect id="Rectangle" fill="#FFF" opacity=".25" x="221.42" y="136.65" width="14.36" height="99.26" rx="1.95"/><rect id="Rectangle" fill="#FFF" opacity=".25" x="245.7" y="146.42" width="14.37" height="89.49" rx="1.85"/><path d="M346.16 50.27h9a2.67 2.67 0 012.67 2.67v180.31a2.67 2.67 0 01-2.67 2.67h-9a2.66 2.66 0 01-2.66-2.66V52.93a2.67 2.67 0 012.66-2.66z" id="Path" fill="#FFF" opacity=".25"/><rect id="Rectangle" fill="#FFF" opacity=".25" x="294.93" y="118.06" width="14.37" height="117.85" rx="2.12"/><rect id="Rectangle" fill="#FFF" opacity=".25" x="319.22" y="77.48" width="14.37" height="158.43" rx="2.46"/><path d="M329.63 42l14.28-16 11.71 10.29L362.87 0l-35 11.85 11.72 10.3-14.66 16.38a16.56 16.56 0 00-1.86 2.54l-16.52 27.59a11.29 11.29 0 01-7 5.18 11.66 11.66 0 01-8.3-1 18.07 18.07 0 00-13.07-1.56 17.21 17.21 0 00-10.71 8l-11 18.86a11.56 11.56 0 01-14.24 4.8l-1.59-.64a18 18 0 00-21.23 6L212 118.87a11.42 11.42 0 01-8.62 4.79 11.71 11.71 0 01-9.08-3.51l-2.93-3.06a17.92 17.92 0 00-22.59-2.58l-12.89 8.26a17.41 17.41 0 00-2.59 2l-15.3 14.6a11.63 11.63 0 01-13.78 1.63l-14.71-8.49a3.19 3.19 0 00-4.17.85 2.6 2.6 0 00.93 3.78l14.73 8.47a18 18 0 009 2.41 17.8 17.8 0 0012.29-4.86l15.35-14.57a11.09 11.09 0 011.7-1.33l12.9-8.27a11.56 11.56 0 0114.56 1.71l2.93 3.06a17.82 17.82 0 0014.07 5.37 17.51 17.51 0 0013.26-7.3l7.45-10.56a11.65 11.65 0 0113.71-4l1.59.64a17.81 17.81 0 0022-7.25l11-18.86a11.38 11.38 0 017-5.28 11.58 11.58 0 018.35 1 18.25 18.25 0 0013 1.59 17.25 17.25 0 0010.7-7.85l16.51-27.59a11.08 11.08 0 011.26-1.67z" id="Path" fill="#FFF" opacity=".25"/><rect id="Rectangle" fill="#FFF" opacity=".6" x="100.59" y="130.03" width="134.77" height="117.94" rx="8.14"/><path id="Rectangle" fill="#FFF" d="M104.85 140.56h126.26V243.8H104.85z"/><rect id="Rectangle" fill="#FFF" opacity=".6" x="151.7" y="37.31" width="108.94" height="81.16" rx="9.82"/><rect id="Rectangle" fill="#FFF" x="155.92" y="48.69" width="100.5" height="65.83" rx="3.12"/><rect id="Rectangle" fill="#F7FCFE" x="155.92" y="48.69" width="100.5" height="65.83" rx="3.12"/><g id="Green" transform="translate(0 3)"><rect id="Rectangle" fill="#FFF" opacity=".15" x="0" y=".16" width="121.27" height="93.29" rx="11.1"/><rect id="Rectangle" fill="#FFF" opacity=".15" x="11.23" y="10.63" width="121.27" height="93.29" rx="11.1"/><rect id="Rectangle" fill="#FFF" opacity=".6" x="24.11" y="22.78" width="121.27" height="93.29" rx="11.1"/><rect id="Rectangle" fill="#FFF" x="27.68" y="33.4" width="113.89" height="79.38" rx="3.64"/><path d="M48 95.84h-9.1a1.5 1.5 0 010-3H48a1.5 1.5 0 010 3z" id="Path" fill="#03E59F"/><path d="M58.61 99.57h-21a.74.74 0 010-1.48h21a.74.74 0 010 1.48zm-9.71 3.48H37.56a.76.76 0 01-.75-.75.75.75 0 01.75-.74H48.9c.41 0 .745.33.75.74a.76.76 0 01-.75.75z" id="Path" fill="#E2E2E2"/><path d="M77.67 95.84h-9.09a1.5 1.5 0 010-3h9.09a1.5 1.5 0 010 3z" id="Path" fill="#03E59F"/><path d="M88.29 99.57H67.23a.74.74 0 010-1.48h21.06a.74.74 0 010 1.48zm-9.71 3.48H67.23a.75.75 0 01-.74-.75.74.74 0 01.74-.74h11.35c.41 0 .745.33.75.74a.76.76 0 01-.75.75z" id="Path" fill="#E2E2E2"/><path d="M107.35 95.84h-9.09a1.5 1.5 0 010-3h9.09a1.5 1.5 0 010 3z" id="Path" fill="#03E59F"/><path d="M118 99.57H97a.74.74 0 010-1.48h21a.74.74 0 110 1.48zm-9.74 3.48H96.91a.75.75 0 01-.74-.75.74.74 0 01.74-.74h11.35c.41 0 .745.33.75.74a.76.76 0 01-.75.75z" id="Path" fill="#E2E2E2"/><rect id="Rectangle" fill="#E2E2E2" x="51.24" y="53.06" width="8.01" height="30.09" rx="2.18"/><rect id="Rectangle" fill="#E2E2E2" x="64.77" y="53.06" width="8.01" height="30.09" rx="2.18"/><rect id="Rectangle" fill="#E2E2E2" x="78.31" y="53.06" width="8.01" height="30.09" rx="2.18"/><rect id="Rectangle" fill="#03E59F" x="78.31" y="60.89" width="8.01" height="22.26" rx=".69"/><rect id="Rectangle" fill="#E2E2E2" x="37.7" y="53.06" width="8.01" height="30.09" rx="2.18"/><rect id="Rectangle" fill="#03E59F" x="37.7" y="72.35" width="8.01" height="10.8" rx=".48"/><rect id="Rectangle" fill="#03E59F" x="51.24" y="66.62" width="8.01" height="16.53" rx=".59"/><rect id="Rectangle" fill="#03E59F" x="64.77" y="70.84" width="8.01" height="12.31" rx=".51"/><path d="M41.55 68.94a.73.73 0 01-.35-.09.8.8 0 01-.38-1.07c0-.1 4.76-9.51 14.85-5.84 2.22.82 4.06 1.62 5.68 2.32 3.24 1.41 5.38 2.35 7.35 1.88 2.13-.51 3.35-2.5 4.65-4.61 1.86-3 4-6.44 9.1-6a.8.8 0 01.73.88.82.82 0 01-.87.73c-4.14-.38-5.81 2.32-7.58 5.19-1.42 2.3-2.88 4.68-5.66 5.34-2.5.59-5-.48-8.37-2-1.59-.69-3.41-1.48-5.59-2.28-8.7-3.17-12.67 4.69-12.84 5a.8.8 0 01-.72.55zm76.35 15.6c-8.373 0-15.16-6.787-15.16-15.16 0-8.373 6.787-15.16 15.16-15.16v6.58a8.58 8.58 0 100 17.16 8.33 8.33 0 002-.23l1.52 6.4a15.37 15.37 0 01-3.52.41z" id="Path" fill="#03E59F"/><path d="M121.28 83.6L120 78.27a9.15 9.15 0 005.85-13.35l4.77-2.69a14.61 14.61 0 01-9.36 21.37h.02z" id="Path" fill="#E2E2E2"/><path d="M126.18 64.74a9.5 9.5 0 00-8.28-4.86v-4.75a14.26 14.26 0 0112.42 7.28l-4.14 2.33z" id="Path" fill="#E2E2E2"/></g><rect id="Rectangle" fill="#FFF" opacity=".6" x="241.41" y="157.19" width="127.95" height="89.4" rx="11.68"/><path d="M362.41 242.94H249.3a3.91 3.91 0 01-3.72-4.07v-63.54a3.91 3.91 0 013.72-4.07h113.11a3.91 3.91 0 013.72 4.07v63.54a3.9 3.9 0 01-3.72 4.07z" id="Path" fill="#F7FCFE"/><g id="Man_Computer" transform="translate(309 233)"><path id="Rectangle" fill="url(#linearGradient-1)" d="M161.6 44.818h10.449v89.303H161.6z"/><path id="Rectangle" fill="url(#linearGradient-2)" d="M79.815 90.33h10.449v89.303H79.815z"/><path id="Rectangle" fill="url(#linearGradient-3)" d="M16.375 61.873h10.449v89.303H16.375z"/><path d="M3.597 82.93l58.611 33.947a16.26 16.26 0 0016.303 0L184.368 55.58a6.53 6.53 0 003.247-5.647 6.53 6.53 0 00-3.247-5.648l-58.602-33.992a16.233 16.233 0 00-16.312 0L3.597 71.653a6.53 6.53 0 00-3.232 5.638 6.53 6.53 0 003.232 5.639z" id="Path" fill="url(#linearGradient-4)"/><path d="M3.597 78.855l58.611 33.947a16.215 16.215 0 0016.303 0l105.857-61.296a6.52 6.52 0 003.249-5.642 6.52 6.52 0 00-3.249-5.643L125.766 6.22a16.26 16.26 0 00-16.312 0L3.597 67.606A6.53 6.53 0 00.388 73.23a6.53 6.53 0 003.209 5.625z" id="Path" fill="url(#linearGradient-5)"/><path d="M135.666 66.235v-2.064l-2.104.199-23.73-13.657-46.167 26.808-1.708-1.036-.9.522v2.028l25.359 14.711c.87.504 1.943.504 2.814 0l45.968-26.663a.902.902 0 00.468-.848zm-25.835-17.559L61.057 76.99V48.56a3.543 3.543 0 011.718-2.704l45.375-25.952c.899-.532 1.681-.207 1.681.721v28.052z" id="Path" fill="#3B50A2"/><path id="Path" fill="#FFF" d="M107.871 48.009L63.063 73.988V47.54l44.808-25.645z"/><path id="Path" fill="url(#linearGradient-6)" opacity=".08" d="M63.072 47.54v26.448l28.1-16.289 16.708-9.69V21.895l-9.99 5.706z"/><path id="Path" fill="url(#linearGradient-7)" d="M63.072 47.54v26.448l28.1-16.289 6.718-30.098z"/><path id="Path" fill="url(#linearGradient-8)" opacity=".08" d="M63.072 47.54v3.164l44.808-25.978v-2.83z"/><path d="M61.057 76.99l25.359 14.72c.87.503 1.943.503 2.814 0l45.968-26.664a.902.902 0 000-1.632l-25.367-14.738L61.057 76.99z" id="Path" fill="#5775D2"/><path id="Path" fill="#8CD4F5" d="M68.197 76.034l-2.239 1.289 1.682.964 2.239-1.289-1.682-.964m3.13-1.812l-2.24 1.289 1.682.964 2.24-1.289-1.682-.964m3.129-1.812l-2.24 1.298 1.682.965 2.23-1.298-1.672-.965m3.129-1.812l-2.239 1.298 1.682.965 2.23-1.298-1.673-.965m3.129-1.812l-2.239 1.299 1.682.964 2.239-1.298-1.682-.965m3.13-1.811l-2.24 1.298 1.682.964 2.24-1.298-1.682-.964m3.12-1.803l-2.23 1.289 1.682.964 2.23-1.289-1.682-.964m3.129-1.812l-2.23 1.289 1.682.965 2.23-1.29-1.682-.964m3.13-1.812l-2.23 1.29 1.681.964 2.23-1.29-1.681-.964m3.129-1.812l-2.24 1.298 1.682.965 2.24-1.298-1.682-.965m3.129-1.811l-2.239 1.298 1.682.964 2.239-1.298-1.682-.964m3.129-1.812l-2.239 1.298 1.682.964 2.24-1.298-1.682-.964m3.129-1.813l-2.23 1.299 1.672.964 2.24-1.298-1.682-.964m4.72-2.731l-3.83 2.217 1.682.965 3.821-2.209-1.672-.973m2.365 1.36l-2.24 1.299 1.682.964 2.24-1.298-1.682-.964m-3.13 1.812l-2.239 1.298 1.682.964 2.239-1.298-1.682-.964m-3.138 1.811l-2.23 1.298 1.682.965 2.23-1.298-1.682-.965m-3.12 1.812l-2.23 1.29 1.672.964 2.24-1.29-1.682-.964m-3.129 1.812l-2.24 1.289 1.682.965 2.24-1.29-1.682-.964M97.18 61.99l-2.24 1.289 1.682.964 2.239-1.289-1.682-.964m-3.12 1.803L91.81 65.09l1.681.964 2.24-1.298-1.673-.964m-3.138 1.813l-2.23 1.298 1.682.964 2.23-1.298-1.681-.964m-3.13 1.811l-2.23 1.298 1.682.965 2.23-1.298-1.682-.965m-3.129 1.812l-2.23 1.298 1.681.965 2.23-1.298-1.681-.965m-3.12 1.812l-2.24 1.289 1.682.965 2.24-1.29-1.682-.964m-3.13 1.812l-2.239 1.289 1.682.964 2.239-1.289-1.682-.964m-3.129 1.812l-2.239 1.289 1.682.964 2.23-1.289-1.673-.964m34.512-17.244l-2.23 1.289 1.682.964 2.23-1.289-1.682-.964m-3.138 1.812l-2.239 1.298 1.682.964 2.239-1.289-1.682-.973m-3.147 1.829l-2.24 1.29 1.682.964 2.24-1.29-1.682-.964m-3.148 1.821l-2.239 1.29 1.682.964 2.239-1.29-1.682-.964m-3.147 1.812l-2.239 1.298 1.682.965 2.239-1.29-1.682-.973m-3.147 1.83l-2.23 1.289 1.681.964 2.23-1.289-1.681-.964m-3.148 1.821l-2.23 1.289 1.673.964 2.24-1.289-1.682-.964m-3.148 1.821l-2.23 1.289 1.673.964 2.239-1.289-1.682-.964m-3.138 1.82l-2.239 1.29 1.682.964 2.239-1.289-1.682-.965m-3.147 1.821l-2.24 1.29 1.682.964 2.24-1.29-1.682-.964m-3.148 1.821l-2.239 1.29 1.682.964 2.23-1.29-1.673-.964m-6.186.838l-3.822 2.218 1.673.964 3.83-2.217-1.681-.965m47.776-19.452l-2.23 1.298 1.672.965 2.24-1.298-1.682-.965m-3.229 1.875l-2.239 1.289 1.682.965 2.239-1.29-1.682-.964m-3.228 1.866l-2.239 1.289 1.682.964 2.239-1.289-1.682-.964m-3.228 1.865l-2.23 1.29 1.681.973 2.23-1.298-1.681-.964m-3.228 1.866L89.14 74.835l1.682.964 17.876-10.348-1.681-.964M88.151 75.412l-2.24 1.289 1.682.973 2.23-1.298-1.672-.964m-3.228 1.866l-2.24 1.298 1.682.964 2.24-1.298-1.682-.964m-3.228 1.866l-2.23 1.298 1.672.964 2.24-1.298-1.682-.964m-3.229 1.875l-3.03 1.748 1.682.965 3.03-1.749-1.682-.964m-3.273-3.57l-4.496 2.596 1.682.965 4.496-2.596-1.682-.965m40.016-23.157l-4.73 2.731 1.681.965 4.73-2.732-1.681-.964m-7.922 7.31l-2.24 1.298 1.682.965 2.23-1.298-1.672-.965m3.129-1.812l-2.24 1.298 1.682.965 2.23-1.298-1.672-.965m-6.268 3.624l-2.23 1.298 1.682.965 2.23-1.298-1.682-.965m-3.12 1.812l-2.24 1.289 1.682.964 2.24-1.289-1.682-.964m-3.129 1.812l-2.24 1.289 1.682.964 2.24-1.289-1.682-.964M94.77 68.85l-2.24 1.289 1.682.964 2.239-1.289-1.682-.964m-3.129 1.802L89.4 71.95l1.682.965 2.24-1.29-1.682-.973m-3.13 1.812l-2.23 1.298 1.673.965 2.24-1.298-1.682-.965m-3.13 1.812l-2.239 1.298 1.682.965 2.239-1.298-1.682-.965M79.132 77.9l-6.07 3.506 1.682.965 6.07-3.507-1.682-.964m38.442-22.256l-6.277 3.633 1.682.964 6.276-3.633-1.681-.964m-10.818 11.962l-13.084 7.562c-.395.226-.476.55-.18.722l6.439 3.695c.408.155.865.115 1.24-.108l13.085-7.563c.395-.225.476-.54.18-.712l-6.44-3.696a1.4 1.4 0 00-1.24.1z"/><path id="Path" fill="#FFF" d="M82.513 54.445l2.428-2.262 2.365.955 1.546-2.398 1.457-.955 1.412-2.759 2.985-.576 3.04.306 1.7-3.732 4.405 2.2.27-.55-4.972-2.48-1.772 3.913-2.698-.27h-.045l-3.318.649-1.474 2.875-1.466.992-1.313 2.028-2.257-.91-2.5 2.334-1.807-.19-.063.614z"/><path id="Path" fill="#FFF" d="M80.732 55.365l-2.266-1.65 2.554-1.145zm-.836 6.057l24.936-14.387V30.882h-.324v15.964L79.734 61.134z"/><path d="M70.68 52.597l2.814-1.604a.902.902 0 00.45-.694c0-.235-.199-.316-.45-.172l-2.815 1.605a.947.947 0 00-.459.703c0 .234.207.306.46.162z" id="Path" fill="url(#linearGradient-9)"/><g id="Group" opacity=".5" transform="translate(65.643 50.479)" fill="#FFF"><path d="M.387 5.868l7.877-4.507a.45.45 0 00.225-.342c0-.127-.1-.163-.225-.09L.387 5.434a.442.442 0 00-.234.352c0 .117.099.153.234.081z" id="Path"/></g><g id="Group" opacity=".5" transform="translate(68.341 52.282)" fill="#FFF"><path d="M.683 3.362L5.566.568a.45.45 0 00.225-.343c0-.117-.099-.162-.225-.08L.683 2.93a.469.469 0 00-.233.351c0 .117.108.153.233.081z" id="Path"/></g><path d="M70.68 57.744l2.814-1.604a.902.902 0 00.45-.694c0-.244-.199-.316-.45-.172l-2.815 1.605a.902.902 0 00-.459.694c0 .243.207.315.46.171z" id="Path" fill="url(#linearGradient-10)"/><g id="Group" opacity=".5" transform="translate(65.643 55.887)" fill="#FFF"><path d="M.387 5.607L8.264 1.1a.469.469 0 00.225-.352c0-.117-.1-.153-.225-.081L.387 5.174a.442.442 0 00-.234.343c0 .117.099.162.234.09z" id="Path"/></g><g id="Group" opacity=".5" transform="translate(68.341 56.789)" fill="#FFF"><path d="M.683 4.002l4.883-2.794a.45.45 0 00.225-.343c0-.126-.099-.162-.225-.09L.683 3.57a.469.469 0 00-.233.342c0 .117.108.162.233.09z" id="Path"/></g><path d="M70.68 62.891l2.814-1.613a.902.902 0 00.45-.694c0-.235-.199-.307-.45-.163l-2.815 1.605a.902.902 0 00-.459.694c0 .234.207.315.46.171z" id="Path" fill="url(#linearGradient-11)"/><g id="Group" opacity=".5" transform="translate(65.643 61.296)" fill="#FFF"><path d="M.387 5.336L8.264.83a.45.45 0 00.225-.342c0-.117-.1-.162-.225-.09L.387 4.904a.442.442 0 00-.234.351c0 .153.099.153.234.081z" id="Path"/></g><g id="Group" opacity=".5" transform="translate(68.341 62.197)" fill="#FFF"><path d="M.683 3.732L5.566.946a.469.469 0 00.225-.351c0-.117-.099-.153-.225-.081L.683 3.299a.478.478 0 00-.233.352c0 .117.108.153.233.08z" id="Path"/></g><path d="M198.108 29.63a23.266 23.266 0 00.459 10.681c.126 1.803-3.741 2.66-5.701 2.704-5.495.199-8.31-3.335-8.993-4.786-.044-.108 1.223-4.435 1.637-5.778.414-1.343-.63-.748-.44-2.777.35-3.948 13.596-3.795 13.596-3.795l-.558 3.75z" id="Path" fill="#FAB27F"/><path d="M181.643 12.268c-1.492 2.704-3.444 8.023-3.183 10.34.26 2.316.827 5.065.288 6.31-.54 1.243-1.367 2.748-.9 3.479.468.73 7.194 3.425 10.216 2.307 3.021-1.118 6.007-3.75 7.787-5.075 1.78-1.325 3.597-6.607 3.894-7.436 1.591-4.273 1.798-7.942-.558-9.42-2.122-1.28-16.078-3.182-17.544-.505z" id="Path" fill="#FAB27F"/><path d="M201.426 20.246l-3.767 2.938s2.266-7.662-1.151-7.373c-3.417.288-1.088-4.507 1.672-3.345 2.76 1.163 3.597.631 4.11 2.398.512 1.767-.864 5.382-.864 5.382z" id="Path" fill="#E6352C"/><path d="M176.077 9.104v-.288c.03-.292.093-.58.189-.857C178.064 1.55 184.8.685 184.8.685s-1.133 1.902-.072 2.885c1.06.982 14.261-.776 18.344 3.885 1.852 2.09 2.455 4.903 2.4 8.626 0 .559 0 1.136-.071 1.749 0 .252 0 .496-.045.757a1.22 1.22 0 010 .171c0 .199 0 .406-.063.613v.154a22.766 22.766 0 01-.396 2.325c-.728 3.236-1.798 8.69-4.02 11.295a2.705 2.705 0 01-.395.595 4.49 4.49 0 01-2.994 1.018 8.478 8.478 0 01-2.167-.153 11.774 11.774 0 01-1.457-.342c-5.611-1.938-5.395-2.83-5.395-4.237 0-1.406.53-4.273.593-6.373.063-2.1-1.42-2.091-1.42-2.091a1.285 1.285 0 00-1.422.793 20.968 20.968 0 00-.98 3.155l-.899-.992s1.133-3.75.153-5.57c-.81-1.515-2.302-.992-4.865-2.002-3.156-1.261-3.74-5.038-3.65-7.337.062-.108.08-.306.098-.505z" id="Path" fill="#7B3B1E"/><path d="M185.141 23.545c-.44 1.875-.188 3.299 1.124 3.605.531.127.9-.901 1.547-1.415.9-.73 2.23-1.145 2.49-2.262.45-1.866-.458-2.56-1.977-2.759-1.34-.162-2.734.92-3.184 2.83z" id="Path" fill="#FAB27F"/><path d="M138.265 86.436l8.74 60.656c.333 1.803 3.4 2.993 5.234 2.659 1.681-.316 3.74-1.884 3.66-3.552l-1.709-61.476a7.345 7.345 0 00-2.39-5.088 7.31 7.31 0 00-5.28-1.898c-4.038.19-8.552 3.678-8.363 7.726.018.326.054.65.108.973z" id="Path" fill="#3D3D3C"/><path d="M156.726 145.848s.566 5.048-.108 7.788c-.405 1.659-5.108.838-7.284-.946-2.176-1.785-6.708-3.606-8.336-4.084-3.947-1.253-6.078-4.507-5.854-6.048.28-1.875 2.986-3.462 5.693-2.759 2.31.595 4.388 1.857 5.026 1.623.342-.126.9-1.145 1.916-.532 2.257 1.415 1.402 4.056 5.952 4.922.432.081 2.734-.784 2.995.036z" id="Path" fill="#0D0D0D"/><path d="M119.966 100.174l7.625 69.192c.252 1.857 3.696 3.055 5.54 2.803 1.69-.225 3.398-1.713 3.398-3.38l-.584-69.634a7.346 7.346 0 00-2.147-5.192 7.31 7.31 0 00-5.182-2.146c-4.046 0-8.722 3.336-8.722 7.392.002.323.026.645.072.965z" id="Path" fill="#3D3D3C"/><path d="M137.527 169.834s.9 6.707.378 7.329c-.521.622-5.845 1.109-8.345.243-2.5-.865-7.643-1.063-9.603-1.1-4.802-.108-7.311-3.849-7.338-5.336 0-2.019 1.843-3.182 5.045-3.407 3.2-.226 6.186.739 6.969.306.404-.242.72-.609.899-1.045a1.274 1.274 0 011.798.468c1.484 3.345 4.604 3.182 7.527 3.128.566-.009 1.996-2.055 2.67-.586z" id="Path" fill="#0D0D0D"/><path d="M167.382 177.307a5.2 5.2 0 003.681-1.529 5.226 5.226 0 001.525-3.69V116.2a5.222 5.222 0 00-2.536-4.7 5.196 5.196 0 00-5.331 0 5.222 5.222 0 00-2.537 4.7v55.887a5.217 5.217 0 001.52 3.69 5.191 5.191 0 003.678 1.529z" id="Path" fill="#3C57AB"/><path d="M141.853 188.692a2.56 2.56 0 001.24-.316l51.059-28.024a2.59 2.59 0 00.792-3.38 2.578 2.578 0 00-3.274-1.127l-51.058 28.024a2.59 2.59 0 001.24 4.859v-.036z" id="Path" fill="#254094"/><path d="M195.32 182.869a2.583 2.583 0 002.568-2.223 2.587 2.587 0 00-1.848-2.852l-55.869-16.37a2.577 2.577 0 00-2.507.613 2.591 2.591 0 001.06 4.354l55.868 16.37c.237.07.482.107.729.108z" id="Path" fill="#254094"/><ellipse id="Oval" fill="#163081" cx="191.373" cy="161.235" rx="4.379" ry="4.39"/><ellipse id="Oval" fill="#163081" transform="rotate(-22.5 146.238 186.1)" cx="146.238" cy="186.101" rx="4.381" ry="4.388"/><ellipse id="Oval" fill="#163081" cx="191.661" cy="181.237" rx="4.379" ry="4.39"/><ellipse id="Oval" fill="#163081" cx="141.853" cy="166.607" rx="4.379" ry="4.39"/><path d="M180.996 98.479l-10.287 35.975a8.755 8.755 0 01-5.073 5.723 8.722 8.722 0 01-7.624-.459l-4.316-2.443-18.794-10.816a8.161 8.161 0 01-4.073-7.067 8.161 8.161 0 014.073-7.067l30.573-17.794a8.166 8.166 0 018.147 0l3.193 1.803 2.77 1.532c.45.247.923.453 1.411.613z" id="Path" fill="#81B5E2"/><path d="M187.461 106.267l-58.027-15.053a7.585 7.585 0 00-9.22 4.696 7.614 7.614 0 004.014 9.555l29.009 14.089s17.319 15.369 35.07 12.53c4.343-.704 11.555 2.803 13.101-.388 3.256-6.752-4.685-21.201-11.41-24.464a14.797 14.797 0 00-2.537-.965z" id="Path" fill="#3D3D3C"/><path d="M177.786 88.581l-29.414-12.16a7.581 7.581 0 00-9.644 3.594 7.618 7.618 0 002.792 9.928l38.45 28.42c16.96 10.385 27.58-10.816 21.888-15.548-.72-.586-4.029-7.536-24.072-14.234z" id="Path" fill="#3D3D3C"/><path d="M207.118 74.646l.45 1.802-7.796 34.254 4.685 1.37 12.32-34.425.34-.955-.269-1.37-.782-4.003-4.496-22.922c-2.06-5.508-11.591-3.083-10.593 2.397l6.141 23.852z" id="Path" fill="#EC9F09"/><path d="M200.15 109.16s-2.024 2.885-2.752 3.318c-.729.432-4.496 2.262-4.577 2.479-.081.216.656.901 1.223.901a27.98 27.98 0 003.336-.766s-2.014 5.156-2.545 5.589l-1.24 1.072a1.083 1.083 0 00.386 1.803c2.068.613 5.476 1.172 7.454-.973 2.986-3.255 4.308-9.42 3.903-10.817-.405-1.398-2.563-3.858-5.189-2.605z" id="Path" fill="#FDCEA2"/><path d="M170.655 46.18c6.717-11.845 31.392-9.51 36.562-6.04a11.834 11.834 0 014.1 12.142s-3.38 17.027-4.261 29.223c-.162 2.227-2.195 29.233-2.491 29.846-2.302 4.741-45.474 1.911-40.843-8.392 9.433-36.462-.297-44.025 6.933-56.78z" id="Path" fill="#FFB82E"/><path d="M231.487 66.497L197.39 87.085l-5.782 3.461a9.183 9.183 0 00-4.146 5.472l-10.997 40.347s-2.275 8.167-2.401 8.473a6.919 6.919 0 01-3.156 3.804 8.336 8.336 0 01-7.194.902c-.297-.1-1.286-.56-1.42-.64l-27.4-15.766a6.926 6.926 0 01-3.471-6.021l-.522-7.617a7.528 7.528 0 003.777 5.904l18.965 11.259 4.037 2.28a8.147 8.147 0 007.115.449 8.178 8.178 0 004.755-5.326l10.09-36.227.242-.856 2.068-7.212a9.236 9.236 0 014.253-5.462l34.495-20.066c4.424-2.56 8.093-3.605 10.305 0 .388.684.557 1.47.485 2.254z" id="Path" fill="#3C57AB"/><path d="M231.487 66.506a3.966 3.966 0 01-.143.901l-15.152 53.201a5.271 5.271 0 01-2.428 3.155l-42.866 24.906a7.587 7.587 0 001.798-1.613 8.453 8.453 0 001.664-3.164l13.056-47.856a9.246 9.246 0 014.155-5.48l5.79-3.462 34.126-20.588z" id="Path" fill="#6582DB"/><path d="M119.74 65.505c11.286.289 21.312 1.803 32.454-.324 7.14-5.94 13.29-12.512 19.9-19.047 2.517 2.867 5.287 5.589 7.607 8.581-5.152 4.86-16.797 15.324-20.943 18.236l-1.448.964c-.045 0-.17.163-.404.361.099 0 .117 0 0 0l-.126.108h-.971l-1.619.117c-6.61.451-25.88-1.424-34.944-3.903-.315-1.65.405-3.398.495-5.093z" id="Path" fill="#EC9F09"/><path d="M120.397 65.424c1.151.983 2.653 4.192.306 6.166 0 0-1.349.252-2.572.559l-4.334-.514s-5.81-.325-6.466 0l-1.555.721a1.13 1.13 0 01-1.15-.115 1.137 1.137 0 01-.45-1.066c.314-2.262 1.276-5.769 4.199-6.733 4.406-1.443 10.88-.01 12.022.982z" id="Path" fill="#F6CF9F"/></g><path d="M180.56 83.17a1.29 1.29 0 11-2.58 0 1.29 1.29 0 012.58 0zm5.62 0a1.29 1.29 0 11-2.58 0 1.29 1.29 0 012.58 0zm5.62 0a1.29 1.29 0 11-2.58 0 1.29 1.29 0 012.58 0zm33.65 0a1.3 1.3 0 11-1.3-1.29 1.29 1.29 0 011.3 1.29zm5.62 0a1.3 1.3 0 11-1.3-1.29 1.29 1.29 0 011.3 1.29zm5.62 0a1.3 1.3 0 11-1.29-1.29c.712 0 1.29.578 1.29 1.29z" id="Path" fill="#E2E2E2"/><path id="Rectangle" fill="#5F84F3" d="M163.07 59.38h43.67v18.58h-43.67z"/><path id="Rectangle" fill="#E2E2E2" d="M210.32 59.81h18.13v7.72h-18.13zm20.83 0h18.13v7.72h-18.13zm-20.83 10.44h18.13v7.72h-18.13zm20.83 0h18.13v7.72h-18.13zm-67.52 17.88h85.64v2.27h-85.64z"/><path id="Rectangle" fill="#5F84F3" d="M163.63 92.21h29.66v2.27h-29.66z"/><path id="Rectangle" fill="#E2E2E2" d="M199.54 92.21h49.38v2.27h-49.38zm-35.91 4.08h85.64v2.27h-85.64zm0 4.08h61.57v2.27h-61.57z"/><path id="Rectangle" fill="#5F84F3" d="M231.93 100.37h16.99v2.27h-16.99z"/><path id="Rectangle" fill="#E2E2E2" d="M163.63 104.45h85.64v2.27h-85.64z"/><path id="Rectangle" fill="#EF4357" d="M158.51 159.06h33.18v3.29h-33.18z"/><path id="Rectangle" fill="#E2E2E2" d="M158.51 164.97h63.86v3.29h-63.86zm-33.62 23.76h76.46v1.36h-76.46zm0 4.38h63.86v1.36h-63.86z"/><path id="Rectangle" fill="#DD1281" d="M112.96 174.36h109.41v6.43H112.96z"/><path id="Path" fill="#E2E2E2" d="M137.63 149.72l7.44 9.34 7.44 9.34h-29.77l7.45-9.34z"/><path id="Path" fill="#DD1281" d="M123.73 154.87l5.39 6.77 5.39 6.76h-21.56l5.39-6.76z"/><circle id="Oval" fill="#DD1281" cx="117.36" cy="191.6" r="4.4"/><path id="Rectangle" fill="#E2E2E2" d="M124.89 201.69h76.46v1.36h-76.46zm0 4.38h63.86v1.36h-63.86z"/><circle id="Oval" fill="#EF4357" cx="117.36" cy="204.56" r="4.4"/><path id="Rectangle" fill="#E2E2E2" d="M124.89 214.65h76.46v1.36h-76.46zm0 4.38h63.86v1.36h-63.86z"/><circle id="Oval" fill="#DD1281" cx="117.36" cy="217.52" r="4.4"/><path id="Rectangle" fill="#E2E2E2" d="M124.89 227.61h76.46v1.36h-76.46zm0 4.38h63.86v1.36h-63.86z"/><path d="M121.76 230.48a4.4 4.4 0 11-8.8 0 4.4 4.4 0 018.8 0z" id="Path" fill="#DD1281"/><path id="Rectangle" fill="#E2E2E2" d="M209.87 188.43h12.5v6.04h-12.5z"/><path id="Rectangle" fill="#EF4357" d="M209.87 201.54h12.5v6.04h-12.5z"/><path id="Rectangle" fill="#DD1281" d="M209.87 214.65h12.5v6.04h-12.5z"/><path id="Rectangle" fill="#E2E2E2" d="M209.87 227.76h12.5v6.04h-12.5zm45.87-46.47h9.85v47.63h-9.85zm15.11 0h9.85v47.63h-9.85zm15.11 0h9.85v47.63h-9.85zm15.1 0h9.85v47.63h-9.85zm15.11 0h9.85v47.63h-9.85z"/><path d="M326 228.92v-41.23h-9.85v40.68a2.51 2.51 0 01-.07.55H326z" id="Path" fill="#059ADB"/><path id="Path" fill="#03E59F" d="M341.13 181.29h-9.85v47.59h9.86z"/><path id="Path" fill="#6582FF" d="M310.92 228.92v-31.33h-9.86v31.33z"/><path id="Path" fill="#03E59F" d="M295.81 228.92V206H286v22.95z"/><path id="Path" fill="#059ADB" d="M280.71 228.92v-19.6h-9.86v19.57z"/><path id="Rectangle" fill="#6582FF" d="M255.74 215.06h9.85v13.85h-9.85z"/><path id="Rectangle" fill="#E2E2E2" d="M255.69 230.89h9.95v3.32h-9.95z"/><path d="M270.8 230.89h9.96" id="Path" fill="#E6E7E7"/><path id="Rectangle" fill="#E2E2E2" d="M285.91 230.89h9.95v3.32h-9.95zm15.11 0h9.95v3.32h-9.95zm15.1 0h9.95v3.32h-9.95zm15.11 0h9.95v3.32h-9.95zm-60.32 0h9.95v3.32h-9.95zm75.25-48.65h14.73v1.97h-14.73zm0 5h14.73v1.97h-14.73zm0 5h14.73v1.97h-14.73z"/></g></g></g></g></g></svg>