<svg width="416" height="345" xmlns="http://www.w3.org/2000/svg" xmlns:xlink="http://www.w3.org/1999/xlink"><defs><linearGradient x1="50.014%" y1="-.032%" x2="50.014%" y2="99.951%" id="linearGradient-1"><stop stop-color="#7A5FFF" offset="0%"/><stop stop-color="#01FF89" offset="100%"/></linearGradient><linearGradient x1="50.001%" y1=".057%" x2="50.001%" y2="100.02%" id="linearGradient-2"><stop stop-color="#7A5FFF" offset="0%"/><stop stop-color="#01FF89" offset="100%"/></linearGradient><linearGradient x1="-6.013%" y1="50.271%" x2="64.448%" y2="50.271%" id="linearGradient-5"><stop stop-color="#01C8EF" offset="0%"/><stop stop-color="#04B1DD" offset="12.97%"/><stop stop-color="#0E6BA7" offset="54.66%"/><stop stop-color="#154085" offset="84.76%"/><stop stop-color="#172F78" offset="100%"/></linearGradient><linearGradient x1="-6.013%" y1="50.246%" x2="64.448%" y2="50.246%" id="linearGradient-7"><stop stop-color="#01C8EF" offset="0%"/><stop stop-color="#04B1DD" offset="12.97%"/><stop stop-color="#0E6BA7" offset="54.66%"/><stop stop-color="#154085" offset="84.76%"/><stop stop-color="#172F78" offset="100%"/></linearGradient><linearGradient x1="-6.013%" y1="50.122%" x2="64.448%" y2="50.122%" id="linearGradient-9"><stop stop-color="#01C8EF" offset="0%"/><stop stop-color="#04B1DD" offset="12.97%"/><stop stop-color="#0E6BA7" offset="54.66%"/><stop stop-color="#154085" offset="84.76%"/><stop stop-color="#172F78" offset="100%"/></linearGradient><linearGradient x1="-6.042%" y1="50.038%" x2="64.419%" y2="50.038%" id="linearGradient-11"><stop stop-color="#01C8EF" offset="0%"/><stop stop-color="#04B1DD" offset="12.97%"/><stop stop-color="#0E6BA7" offset="54.66%"/><stop stop-color="#154085" offset="84.76%"/><stop stop-color="#172F78" offset="100%"/></linearGradient><linearGradient x1="-6.042%" y1="50.31%" x2="64.419%" y2="50.31%" id="linearGradient-13"><stop stop-color="#01C8EF" offset="0%"/><stop stop-color="#04B1DD" offset="12.97%"/><stop stop-color="#0E6BA7" offset="54.66%"/><stop stop-color="#154085" offset="84.76%"/><stop stop-color="#172F78" offset="100%"/></linearGradient><linearGradient x1="-6.042%" y1="50.285%" x2="64.419%" y2="50.285%" id="linearGradient-15"><stop stop-color="#01C8EF" offset="0%"/><stop stop-color="#04B1DD" offset="12.97%"/><stop stop-color="#0E6BA7" offset="54.66%"/><stop stop-color="#154085" offset="84.76%"/><stop stop-color="#172F78" offset="100%"/></linearGradient><linearGradient x1="-6.021%" y1="50.26%" x2="64.441%" y2="50.26%" id="linearGradient-18"><stop stop-color="#01C8EF" offset="0%"/><stop stop-color="#04B1DD" offset="12.97%"/><stop stop-color="#0E6BA7" offset="54.66%"/><stop stop-color="#154085" offset="84.76%"/><stop stop-color="#172F78" offset="100%"/></linearGradient><linearGradient x1="-6.021%" y1="50.237%" x2="64.441%" y2="50.237%" id="linearGradient-20"><stop stop-color="#01C8EF" offset="0%"/><stop stop-color="#04B1DD" offset="12.97%"/><stop stop-color="#0E6BA7" offset="54.66%"/><stop stop-color="#154085" offset="84.76%"/><stop stop-color="#172F78" offset="100%"/></linearGradient><linearGradient x1="-6.021%" y1="50.211%" x2="64.441%" y2="50.211%" id="linearGradient-22"><stop stop-color="#01C8EF" offset="0%"/><stop stop-color="#04B1DD" offset="12.97%"/><stop stop-color="#0E6BA7" offset="54.66%"/><stop stop-color="#154085" offset="84.76%"/><stop stop-color="#172F78" offset="100%"/></linearGradient><linearGradient x1="-6.05%" y1="50.326%" x2="64.412%" y2="50.326%" id="linearGradient-24"><stop stop-color="#01C8EF" offset="0%"/><stop stop-color="#04B1DD" offset="12.97%"/><stop stop-color="#0E6BA7" offset="54.66%"/><stop stop-color="#154085" offset="84.76%"/><stop stop-color="#172F78" offset="100%"/></linearGradient><linearGradient x1="-6.05%" y1="50.302%" x2="64.412%" y2="50.302%" id="linearGradient-26"><stop stop-color="#01C8EF" offset="0%"/><stop stop-color="#04B1DD" offset="12.97%"/><stop stop-color="#0E6BA7" offset="54.66%"/><stop stop-color="#154085" offset="84.76%"/><stop stop-color="#172F78" offset="100%"/></linearGradient><linearGradient x1="-6.05%" y1="50.278%" x2="64.412%" y2="50.278%" id="linearGradient-28"><stop stop-color="#01C8EF" offset="0%"/><stop stop-color="#04B1DD" offset="12.97%"/><stop stop-color="#0E6BA7" offset="54.66%"/><stop stop-color="#154085" offset="84.76%"/><stop stop-color="#172F78" offset="100%"/></linearGradient><radialGradient cx="-18.548%" cy="-6.54%" fx="-18.548%" fy="-6.54%" r="272.649%" gradientTransform="matrix(.57747 0 0 1 -.078 0)" id="radialGradient-6"><stop stop-color="#01C8EF" offset="0%"/><stop stop-color="#03BAE4" offset="13.96%"/><stop stop-color="#0895C8" offset="40.33%"/><stop stop-color="#115A9A" offset="76%"/><stop stop-color="#172F78" offset="100%"/></radialGradient><radialGradient cx="-18.548%" cy="-6.354%" fx="-18.548%" fy="-6.354%" r="272.113%" gradientTransform="matrix(.5786 0 0 1 -.078 0)" id="radialGradient-8"><stop stop-color="#01C8EF" offset="0%"/><stop stop-color="#03BAE4" offset="13.96%"/><stop stop-color="#0895C8" offset="40.33%"/><stop stop-color="#115A9A" offset="76%"/><stop stop-color="#172F78" offset="100%"/></radialGradient><radialGradient cx="-18.548%" cy="-6.382%" fx="-18.548%" fy="-6.382%" r="272.115%" gradientTransform="matrix(.5786 0 0 1 -.078 0)" id="radialGradient-10"><stop stop-color="#01C8EF" offset="0%"/><stop stop-color="#03BAE4" offset="13.96%"/><stop stop-color="#0895C8" offset="40.33%"/><stop stop-color="#115A9A" offset="76%"/><stop stop-color="#172F78" offset="100%"/></radialGradient><radialGradient cx="-18.462%" cy="-6.476%" fx="-18.462%" fy="-6.476%" r="272.649%" gradientTransform="matrix(.57747 0 0 1 -.078 0)" id="radialGradient-12"><stop stop-color="#01C8EF" offset="0%"/><stop stop-color="#03BAE4" offset="13.96%"/><stop stop-color="#0895C8" offset="40.33%"/><stop stop-color="#115A9A" offset="76%"/><stop stop-color="#172F78" offset="100%"/></radialGradient><radialGradient cx="-18.462%" cy="-6.501%" fx="-18.462%" fy="-6.501%" r="272.649%" gradientTransform="matrix(.57747 0 0 1 -.078 0)" id="radialGradient-14"><stop stop-color="#01C8EF" offset="0%"/><stop stop-color="#03BAE4" offset="13.96%"/><stop stop-color="#0895C8" offset="40.33%"/><stop stop-color="#115A9A" offset="76%"/><stop stop-color="#172F78" offset="100%"/></radialGradient><radialGradient cx="-18.462%" cy="-6.525%" fx="-18.462%" fy="-6.525%" r="272.647%" gradientTransform="matrix(.57747 0 0 1 -.078 0)" id="radialGradient-16"><stop stop-color="#01C8EF" offset="0%"/><stop stop-color="#03BAE4" offset="13.96%"/><stop stop-color="#0895C8" offset="40.33%"/><stop stop-color="#115A9A" offset="76%"/><stop stop-color="#172F78" offset="100%"/></radialGradient><radialGradient cx="-4.569%" cy="9.827%" fx="-4.569%" fy="9.827%" r="187.454%" gradientTransform="matrix(.57747 0 0 1 -.02 0)" id="radialGradient-17"><stop stop-color="#2743BC" offset="0%"/><stop stop-color="#B6246E" offset="100%"/></radialGradient><radialGradient cx="-18.439%" cy="-6.548%" fx="-18.439%" fy="-6.548%" r="272.649%" gradientTransform="matrix(.57747 0 0 1 -.078 0)" id="radialGradient-19"><stop stop-color="#01C8EF" offset="0%"/><stop stop-color="#03BAE4" offset="13.96%"/><stop stop-color="#0895C8" offset="40.33%"/><stop stop-color="#115A9A" offset="76%"/><stop stop-color="#172F78" offset="100%"/></radialGradient><radialGradient cx="-18.439%" cy="-6.377%" fx="-18.439%" fy="-6.377%" r="272.649%" gradientTransform="matrix(.57747 0 0 1 -.078 0)" id="radialGradient-21"><stop stop-color="#01C8EF" offset="0%"/><stop stop-color="#03BAE4" offset="13.96%"/><stop stop-color="#0895C8" offset="40.33%"/><stop stop-color="#115A9A" offset="76%"/><stop stop-color="#172F78" offset="100%"/></radialGradient><radialGradient cx="-18.439%" cy="-6.403%" fx="-18.439%" fy="-6.403%" r="272.649%" gradientTransform="matrix(.57747 0 0 1 -.078 0)" id="radialGradient-23"><stop stop-color="#01C8EF" offset="0%"/><stop stop-color="#03BAE4" offset="13.96%"/><stop stop-color="#0895C8" offset="40.33%"/><stop stop-color="#115A9A" offset="76%"/><stop stop-color="#172F78" offset="100%"/></radialGradient><radialGradient cx="-18.469%" cy="-6.484%" fx="-18.469%" fy="-6.484%" r="272.649%" gradientTransform="matrix(.57746 0 0 1 -.078 0)" id="radialGradient-25"><stop stop-color="#01C8EF" offset="0%"/><stop stop-color="#03BAE4" offset="13.96%"/><stop stop-color="#0895C8" offset="40.33%"/><stop stop-color="#115A9A" offset="76%"/><stop stop-color="#172F78" offset="100%"/></radialGradient><radialGradient cx="-18.469%" cy="-6.509%" fx="-18.469%" fy="-6.509%" r="272.649%" gradientTransform="matrix(.57746 0 0 1 -.078 0)" id="radialGradient-27"><stop stop-color="#01C8EF" offset="0%"/><stop stop-color="#03BAE4" offset="13.96%"/><stop stop-color="#0895C8" offset="40.33%"/><stop stop-color="#115A9A" offset="76%"/><stop stop-color="#172F78" offset="100%"/></radialGradient><radialGradient cx="-18.469%" cy="-6.534%" fx="-18.469%" fy="-6.534%" r="272.647%" gradientTransform="matrix(.57746 0 0 1 -.078 0)" id="radialGradient-29"><stop stop-color="#01C8EF" offset="0%"/><stop stop-color="#03BAE4" offset="13.96%"/><stop stop-color="#0895C8" offset="40.33%"/><stop stop-color="#115A9A" offset="76%"/><stop stop-color="#172F78" offset="100%"/></radialGradient><rect id="path-3" x="0" y="0" width="187" height="156" rx="4"/><path id="path-30" d="M.099.463h110.803v100.158H.1z"/></defs><g id="Page-1" stroke="none" stroke-width="1" fill="none" fill-rule="evenodd"><g id="Group"><g id="header_splash_buy_instagram_proxies1"><path d="M375.971 260.383c4.596-4.927 9.573-10.552 14.406-16.805.763-.976 1.522-1.975 2.277-2.996a156.775 156.775 0 005.949-8.584c9.945-15.413 17.625-33.657 17.267-53.904a55.84 55.84 0 00-.051-1.589c.005-.055.001-.108-.001-.162a72.05 72.05 0 00-.412-5.331.155.155 0 00-.005-.061c-1.325-11.826-5.369-22.875-11.034-32.994a17.197 17.197 0 00-.272-.492 108.227 108.227 0 00-3.549-5.835 52.206 52.206 0 00-.912-1.395c-.314-.477-.636-.95-.958-1.425-4.371-6.345-9.304-12.265-14.471-17.72a181.221 181.221 0 00-5.078-5.132 192.924 192.924 0 00-7.453-6.876 220.934 220.934 0 00-10.59-8.692c-12.129-9.348-30.722-22.307-52.064-26.809-25.836-5.45-54.191 2.799-73.851 20.441a78.02 78.02 0 00-11.135 12.297 87.485 87.485 0 00-2.758 4.032c-2.132 3.252-4.123 6.622-6.069 9.914-.004.016-.011.025-.022.043-5.296 8.99-10.756 18.261-18.855 24.694a40.587 40.587 0 01-9.989 5.833c-5.274 2.162-11.248 3.396-17.976 3.71-.779.038-1.577.064-2.377.074-6.37.103-13.386-.573-21.096-2.034-4.353-.824-8.78-1.819-13.061-2.781-10.262-2.308-20.83-4.677-31.461-4.916a67.095 67.095 0 00-6.214.108c-20.034 1.247-37.331 11.248-50.457 22.132a143.72 143.72 0 00-15.243 14.721C15.75 186.071-1.437 211.03.774 240.267c1.084 14.44 6.81 28.896 17.373 43.753a149.463 149.463 0 007.384 9.52l1.595.105a149.581 149.581 0 01-7.862-10.049c-10.56-14.764-16.27-29.108-17.35-43.41-2.145-28.393 14.322-52.763 26.834-66.92a139.954 139.954 0 014.144-4.503 145.767 145.767 0 018.258-7.94 133.429 133.429 0 014.993-4.199c6.228-4.988 13.329-9.706 21.173-13.366 8.216-3.837 17.244-6.511 26.914-7.118a71.52 71.52 0 017.706-.054c9.991.426 19.953 2.665 29.648 4.843 4.288.961 8.725 1.962 13.094 2.79 6.416 1.209 12.361 1.89 17.861 2.03 1.25.035 2.48.044 3.685.012 9.705-.165 17.944-2.137 24.862-5.906a41.055 41.055 0 003.638-2.235 38.715 38.715 0 002.701-2.026c7.933-6.451 13.325-15.492 18.525-24.308.073-.131.155-.256.229-.387 1.869-3.175 3.786-6.422 5.818-9.554A103.74 103.74 0 01224.969 97c3.155-4.353 6.779-8.346 10.767-11.951 19.398-17.52 47.475-25.735 73.054-20.338 21.108 4.45 39.556 17.307 51.594 26.589a219.177 219.177 0 0110.196 8.356 193.911 193.911 0 016.796 6.2 182.212 182.212 0 015.691 5.702c4.982 5.23 9.754 10.897 13.998 16.959a104.656 104.656 0 012.694 4.01c.301.448.59.913.876 1.372a114.057 114.057 0 012.763 4.676c5.55 9.934 9.517 20.758 10.843 32.329a74.239 74.239 0 01.418 5.323l.011.167c.039.897.061 1.796.06 2.685.101 19.411-7.279 36.975-16.846 51.901a152.965 152.965 0 01-5.489 8.009c-.872 1.2-1.757 2.38-2.646 3.529-4.896 6.358-9.953 12.085-14.618 17.081a533.07 533.07 0 00-2.657 2.875c-9.894 10.824-12.533 21.058-12.967 32.844l1.165-.133c.444-11.162 3.038-21.368 12.329-31.576a266.301 266.301 0 012.97-3.226z" id="Path" fill="#DAEBFE" fill-rule="nonzero"/><path d="M358.617 265.087c2.415-3.304 5.574-6.923 9.696-11.343.081-.095.169-.19.252-.277 6.038-6.47 11.308-12.735 15.835-18.853a151.468 151.468 0 006.007-8.681c.526-.82 1.035-1.644 1.538-2.466 4.668-7.648 8.124-15.075 10.409-22.377 1.433-4.585 2.412-9.121 2.933-13.633.051-.428.102-.856.138-1.28.023-.222.048-.443.064-.662.261-2.929.323-5.847.21-8.76a63.916 63.916 0 00-.539-6.1c-.017-.159-.042-.316-.068-.481a.222.222 0 00-.007-.068c-.962-6.77-2.951-13.275-5.687-19.478a12.975 12.975 0 00-.23-.517c-.049-.122-.103-.233-.157-.346-.129-.29-.258-.58-.394-.862a40.16 40.16 0 00-.417-.864 89.298 89.298 0 00-3.294-6.25c-3.343-5.808-7.284-11.307-11.57-16.449-2.833-3.41-5.817-6.656-8.869-9.743a178.891 178.891 0 00-7.242-6.903 215.468 215.468 0 00-4.089-3.591 215.323 215.323 0 00-8.238-6.675c-18.27-14.091-33.066-21.776-47.963-24.92-7.601-1.606-15.533-1.9-23.571-.867-17.31 2.223-33.665 10.498-45.285 22.656a67.566 67.566 0 00-5.847 6.986c-2.921 4.026-5.53 8.444-8.304 13.15-.014.011-.017.027-.024.036-1.847 3.133-3.711 6.299-5.704 9.399-.006.009-.02.019-.023.036-2.474 3.841-5.138 7.582-8.205 11.05-2.6 2.933-5.486 5.669-8.79 8.098a48.24 48.24 0 01-1.373.978 51.053 51.053 0 01-9.105 4.956c-4.838 2.034-10.138 3.429-15.838 4.158-5.354.688-11.047.813-17.19.366-4.614-.33-9.488-.985-14.659-1.957-2.258-.43-4.515-.899-6.759-1.378-2.237-.48-4.463-.979-6.648-1.47-8.384-1.886-16.445-3.699-24.361-4.398-3.515-.317-7-.409-10.468-.194-1.234.076-2.506.2-3.762.359-7.986 1.023-15.497 3.64-22.363 7.136-4.618 2.352-8.954 5.095-12.945 8.013-4.622 3.372-8.796 6.977-12.443 10.48A138.837 138.837 0 0039.355 175a130.208 130.208 0 00-8.296 9.479c-10.534 13.27-21.85 32.967-20.185 55.023 1.023 13.542 6.887 27.321 17.82 41.761 3.277 4.337 7.026 8.741 11.234 13.209l1.69.104c-4.356-4.565-8.234-9.053-11.617-13.483-11.048-14.439-16.962-28.2-17.986-41.672-1.607-21.287 9.115-40.383 19.347-53.468a130.818 130.818 0 018.822-10.151c1.062-1.1 2.18-2.234 3.359-3.366 3.632-3.532 7.8-7.174 12.422-10.586 4.1-3.025 8.555-5.861 13.32-8.282 6.733-3.399 14.073-5.95 21.877-6.951a53.19 53.19 0 013.694-.353c3.512-.223 7.053-.12 10.634.215 7.735.721 15.657 2.492 23.888 4.347 1.36.306 2.737.617 4.119.919a300.66 300.66 0 009.304 1.934c4.361.823 8.512 1.418 12.479 1.789 7.114.664 13.638.6 19.729-.179 7.549-.972 14.402-3.075 20.441-6.283a50.204 50.204 0 007.743-5.045c3.243-2.54 6.071-5.372 8.622-8.387 5.148-6.07 9.165-12.872 13.099-19.548 2.752-4.664 5.347-9.078 8.245-13.068a66.002 66.002 0 015.201-6.297c11.48-12.276 27.83-20.651 45.147-22.875 7.911-1.015 15.717-.734 23.189.846 14.727 3.108 29.37 10.724 47.502 24.705a220.623 220.623 0 018.106 6.563 189.211 189.211 0 013.976 3.491 170.005 170.005 0 017.138 6.778 152.988 152.988 0 017.95 8.612 124.8 124.8 0 015.579 7c.458.608.901 1.227 1.345 1.846a104.492 104.492 0 015.742 8.952 91.884 91.884 0 013.512 6.739c.148.309.291.627.425.94.278.599.539 1.194.795 1.798.24.568.479 1.13.704 1.694l.344.886c1.672 4.33 2.962 8.793 3.77 13.393.031.147.061.289.076.44.291 1.64.509 3.295.66 4.963.106 1.114.183 2.241.23 3.367.135 3.388.023 6.78-.362 10.189-.674 6.058-2.18 12.164-4.541 18.385-2.122 5.622-4.948 11.344-8.498 17.192a51.363 51.363 0 01-1.009 1.622 146.931 146.931 0 01-6.461 9.471c-4.537 6.152-9.836 12.462-15.917 18.986-.013.011-.024.029-.038.039-3.319 3.56-6.032 6.607-8.254 9.384-6.112 7.652-8.45 13.273-9.301 22.026-.184 1.922-.296 4.007-.362 6.293l1.153-.121c.081-2.662.23-5.049.489-7.226.833-6.971 2.778-11.954 7.168-17.952z" id="Path" fill="#DAEBFE" fill-rule="nonzero"/><path d="M361.164 246.543c.93-.996 1.843-1.996 2.736-2.976 5.287-5.851 9.881-11.497 13.813-16.984 2.611-3.629 4.925-7.19 6.952-10.692.221-.385.444-.764.651-1.146a83.239 83.239 0 001.611-2.967c3.331-6.383 5.683-12.578 7.096-18.642a42.272 42.272 0 00.48-2.239c.905-4.638 1.262-9.201 1.077-13.728-.187-4.582-.947-9.061-2.177-13.42a65.563 65.563 0 00-1.666-5.127c-.121-.322-.241-.645-.371-.974a77.124 77.124 0 00-4.15-8.901c-4.979-9.187-11.735-17.628-19.027-25.109a172.36 172.36 0 00-2.71-2.701 157.275 157.275 0 00-4.623-4.345c-.438-.404-.882-.8-1.326-1.194a200.468 200.468 0 00-3.656-3.17 212.1 212.1 0 00-7.155-5.77c-17.002-13.11-30.537-20.213-43.876-23.03-6.489-1.372-13.284-1.615-20.195-.728-17.587 2.255-33.994 11.67-43.97 25.211-.086.11-.17.22-.248.329-2.657 3.663-5.151 7.894-7.8 12.382-2.333 3.959-4.773 8.109-7.548 12.213-2.665 3.958-5.632 7.878-9.092 11.543-.151.162-.303.326-.455.48-2.941 3.072-6.23 5.954-9.989 8.538a55.295 55.295 0 01-2.73 1.769c-7.763 4.732-16.707 7.769-26.664 9.044-6.008.77-12.353.913-19.163.418-5.012-.355-10.284-1.067-15.856-2.111a61.82 61.82 0 00-.458-.091c-4.539-.863-8.966-1.858-13.247-2.82-5.43-1.221-10.699-2.404-15.811-3.241a90.628 90.628 0 00-4.218-.621c-4.129-.523-8.128-.748-11.983-.508a47.313 47.313 0 00-3.11.302c-6.331.813-12.376 2.833-17.993 5.577a64.69 64.69 0 00-3.13 1.62 84.816 84.816 0 00-9.066 5.751c-6 4.329-11.235 9.157-15.469 13.555-.305.318-.61.636-.926.972-3.617 3.837-7.917 8.89-11.91 14.829-7.53 11.175-14 25.521-12.839 40.897.948 12.577 7.006 25.682 18.422 39.774 3.374 4.163 7.213 8.409 11.535 12.755.04.046.09.097.136.141a262.57 262.57 0 004.024 3.96l1.777.1a268.15 268.15 0 01-4.862-4.748c-.046-.037-.086-.083-.125-.121-4.273-4.294-8.077-8.485-11.416-12.593-11.38-13.985-17.407-26.949-18.341-39.35-1.108-14.63 4.862-28.357 12.015-39.229 3.928-5.996 8.222-11.116 11.889-15.049a118.335 118.335 0 014.926-5.011l.02-.02c.32-.314.648-.629.986-.938 3.109-2.929 6.601-5.906 10.413-8.686a85.941 85.941 0 019.053-5.81c1.44-.8 2.914-1.552 4.413-2.256a64.236 64.236 0 013.887-1.66c4.072-1.59 8.33-2.763 12.722-3.323a43.586 43.586 0 013.036-.286c3.9-.25 7.964-.006 12.16.541.618.081 1.237.162 1.859.257l.002.008c5.666.831 11.582 2.16 17.675 3.528 3.871.878 7.86 1.769 11.953 2.57.596.124 1.192.241 1.795.356 4.207.792 8.252 1.394 12.146 1.788 8.353.872 16.025.833 23.228-.091 11.213-1.435 21.176-5.075 29.624-10.822.088-.057.176-.121.265-.178 4.3-2.952 7.989-6.286 11.243-9.824a.37.37 0 00.055-.066c3.506-3.814 6.506-7.872 9.201-11.951 2.519-3.805 4.771-7.631 6.934-11.299 2.504-4.25 4.878-8.278 7.369-11.767.118-.179.246-.344.365-.516 9.774-13.469 26.019-22.85 43.434-25.078 6.782-.875 13.454-.63 19.812.708 13.162 2.783 26.552 9.816 43.416 22.815a207.365 207.365 0 017.063 5.704 166.253 166.253 0 013.901 3.382c.499.438.993.884 1.48 1.34.444.395.883.799 1.314 1.205.915.847 1.819 1.711 2.725 2.59 1.12 1.09 2.229 2.205 3.329 3.346 7.118 7.354 13.678 15.626 18.507 24.605a74.117 74.117 0 014.106 8.917c.13.329.251.66.374.99a64.58 64.58 0 011.632 5.149c1.115 4.104 1.806 8.319 1.982 12.618.187 4.581-.186 9.209-1.149 13.905-.066.353-.146.71-.22 1.066-.115.525-.246 1.054-.376 1.583-1.322 5.35-3.386 10.798-6.229 16.407a100.136 100.136 0 01-2.654 4.914c-2.007 3.481-4.302 7.023-6.886 10.632l.001.007c-3.636 5.085-7.854 10.314-12.667 15.72a242.604 242.604 0 01-3.928 4.311c-12.985 13.923-17.96 21.881-19.764 33.843-.535 3.511-.79 7.367-.895 11.82l1.151-.113c.105-4.101.341-7.691.815-10.97 1.718-12.037 6.579-19.909 19.533-33.795z" id="Path" fill="#DAEBFE" fill-rule="nonzero"/><path d="M240.384 129.675c.677-1.136 1.333-2.261 1.98-3.352.527-.889 1.048-1.77 1.565-2.633 1.924-3.249 3.778-6.274 5.625-8.811 8.164-11.251 21.822-19.093 36.53-20.98 5.654-.727 11.182-.531 16.436.579 11.596 2.45 23.722 8.901 39.313 20.926a194.66 194.66 0 019.523 7.824 165.98 165.98 0 015.06 4.627c.643.616 1.288 1.232 1.92 1.867.968.951 1.923 1.921 2.867 2.9.71.75 1.412 1.501 2.109 2.261.038.031.069.071.099.104 6.013 6.593 11.39 13.85 15.18 21.567a62.504 62.504 0 012.448 5.63c.095.235.184.479.272.716a53.528 53.528 0 011.604 5.239c.779 3.108 1.262 6.277 1.391 9.487.178 4.461-.297 9.009-1.448 13.689-.004.017-.007.041-.019.058-.15.619-.315 1.241-.495 1.864-.138.493-.283.986-.436 1.481l.569 1.938c.305-.882.587-1.76.832-2.629.232-.782.444-1.552.64-2.326.017-.066.027-.13.046-.187 1.165-4.762 1.645-9.396 1.458-13.939a48.416 48.416 0 00-1.381-9.551 54.544 54.544 0 00-1.537-5.099c-.109-.302-.218-.612-.334-.912a65.374 65.374 0 00-2.72-6.269c-3.894-7.811-9.355-15.137-15.455-21.781-.341-.378-.688-.754-1.036-1.13-.72-.763-1.439-1.519-2.17-2.257a157.52 157.52 0 00-2.659-2.641l-.868-.841a167.592 167.592 0 00-5.842-5.315 193.563 193.563 0 00-8.91-7.285c-15.745-12.133-28.01-18.657-39.79-21.138-5.374-1.138-11.034-1.337-16.816-.593-15.017 1.927-28.963 9.944-37.314 21.443-1.659 2.289-3.318 4.951-5.036 7.816a517.157 517.157 0 00-2.228 3.759c-.806 1.365-1.636 2.772-2.505 4.21-2.239 3.747-4.7 7.686-7.527 11.607l1.651-.341c2.771-3.933 5.187-7.862 7.408-11.582z" id="Path" fill="#DAEBFE" fill-rule="nonzero"/><path d="M378.126 204.199a93.313 93.313 0 01-2.145 4.16c.297.24.602.486.905.725a78.71 78.71 0 001.982-3.794c1.441-2.932 2.647-5.809 3.608-8.634l-.568-1.938c-.967 3.097-2.224 6.254-3.782 9.481zm-148.869-57.955c-.426-.082-.858-.155-1.284-.237a88.472 88.472 0 01-4.147 4.82l1.91-.395a84.615 84.615 0 003.521-4.188z" id="Path" fill="#DAEBFE" fill-rule="nonzero"/><path d="M232.976 141.258l-1.65.34a112.6 112.6 0 01-3.352 4.409c.426.082.857.155 1.283.237a113.753 113.753 0 003.719-4.986zm-27.627 25.453a69.42 69.42 0 006.575-4.008c5.369-3.689 9.893-7.877 13.812-12.27l-1.91.394c-3.618 3.907-7.745 7.626-12.552 10.928a70.158 70.158 0 01-10.3 5.859 63.91 63.91 0 01-3.935 1.693l.235 1.142a72.949 72.949 0 008.075-3.738zm135.265 88.912c3.251-4.86 7.536-9.986 13.143-15.996 6.638-7.119 12.196-13.86 16.702-20.308 2.451-3.496 4.59-6.905 6.428-10.236a87.037 87.037 0 01-.906-.724c-1.818 3.311-3.937 6.7-6.378 10.178-4.486 6.436-10.043 13.177-16.686 20.305-5.583 5.982-9.869 11.102-13.148 15.943-3.985 5.868-6.481 11.32-8.018 17.426-1.463 5.823-2.053 12.254-2.223 20.169.383-.036.768-.07 1.151-.105.169-7.464.714-13.583 2.052-19.131 1.476-6.169 3.923-11.643 7.883-17.521zM59.058 283.438c-3.795-3.806-7.175-7.512-10.154-11.108-10.402-12.579-15.889-23.924-16.682-34.438-.855-11.306 3.636-22.254 9.345-31.33 4.3-6.853 9.297-12.636 13.202-16.687 2.837-2.943 6.159-6.109 9.875-9.125 3.873-3.156 8.179-6.154 12.78-8.58a62.617 62.617 0 012.19-1.101c3.787-1.81 7.76-3.209 11.856-3.971a33.982 33.982 0 014.648-.589 43.475 43.475 0 014.492-.031l.01.006c2.911.117 5.991.494 9.202 1.021 4.811.799 9.9 1.935 15.137 3.117.476.103.955.212 1.433.322.258.055.525.117.792.177 3.811.851 7.747 1.707 11.859 2.489 7.355 1.386 14.257 2.217 20.813 2.494 6.196.258 12.076.026 17.731-.702 3.052-.39 6.037-.93 8.927-1.619a77.7 77.7 0 0010.76-3.334l-.235-1.142a77.596 77.596 0 01-10.755 3.357 85.318 85.318 0 01-8.847 1.602 98.012 98.012 0 01-12.481.785c-7.983.026-16.48-.832-25.698-2.568a345.263 345.263 0 01-10.12-2.105c-.251-.057-.493-.108-.735-.165-1.078-.242-2.145-.477-3.197-.715-5.407-1.218-10.666-2.396-15.631-3.194-2.924-.478-5.741-.815-8.432-.956l-.015.004a43.305 43.305 0 00-5.085.006c-.8.05-1.626.127-2.452.236a43.03 43.03 0 00-2.355.37c-4.079.773-8.032 2.146-11.812 3.923-.774.361-1.537.742-2.296 1.138a68.047 68.047 0 00-4.158 2.373 64.8 64.8 0 00-1.585.999 87.428 87.428 0 00-7.003 5.086c-3.938 3.17-7.459 6.501-10.44 9.597-4.026 4.176-9.196 10.173-13.611 17.29-5.684 9.163-10.12 20.184-9.257 31.604.82 10.756 6.39 22.323 16.955 35.093 3.002 3.63 6.401 7.355 10.217 11.187.66.66 1.322 1.327 1.99 1.985a295.218 295.218 0 0010.706 9.967c.609.029 1.216.061 1.825.09a293.48 293.48 0 01-11.506-10.67 414.049 414.049 0 01-2.203-2.188z" id="Path" fill="#DAEBFE" fill-rule="nonzero"/><path d="M236.333 38.874h-42.442a2.995 2.995 0 01-2.991-2.997 2.994 2.994 0 012.991-2.997h42.442a2.995 2.995 0 012.992 2.997 2.995 2.995 0 01-2.992 2.997zM215.112 17.24a3.462 3.462 0 013.459 3.465 3.462 3.462 0 01-3.459 3.466 3.462 3.462 0 01-3.459-3.466 3.462 3.462 0 013.459-3.465zm111.163-4.357a29.27 29.27 0 00-6.992-7.006c-4.458-3.145-9.798-4.975-15.536-4.975H126.478c-15.606 0-28.256 13.533-28.256 30.226v266.268c3.496.131 6.998.254 10.506.369V60.978h212.768v232.11c3.546-.302 7.05-.614 10.507-.934V31.127c0-6.853-2.133-13.174-5.728-18.245z" id="Shape" fill="#2A2A93" fill-rule="nonzero"/><path d="M236.333 32.88h-42.442a2.995 2.995 0 00-2.991 2.997 2.995 2.995 0 002.991 2.997h42.442a2.995 2.995 0 002.992-2.997 2.995 2.995 0 00-2.992-2.997zm-21.221-8.71a3.462 3.462 0 003.459-3.466 3.462 3.462 0 00-3.459-3.466 3.463 3.463 0 00-3.459 3.466 3.462 3.462 0 003.459 3.466zM108.728 60.979v236.785c9.148.301 18.338.547 27.575.728 71.692 1.41 133.172-.975 185.193-5.405V60.979H108.728z" id="Path" fill="#181548" fill-rule="nonzero"/><path d="M158.722 87.44c-.99 1.09-2.13 1.635-3.42 1.635a4.34 4.34 0 01-1.995-.465c-.6-.31-1.125-.72-1.575-1.23a5.913 5.913 0 01-1.035-1.725 5.514 5.514 0 01-.375-1.995c0-.71.12-1.39.36-2.04.25-.65.595-1.22 1.035-1.71.44-.5.96-.895 1.56-1.185.6-.3 1.255-.45 1.965-.45.52 0 .995.06 1.425.18.43.11.81.27 1.14.48.34.2.63.445.87.735.25.28.46.59.63.93l-.81.54c-.35-.66-.805-1.145-1.365-1.455-.56-.31-1.195-.465-1.905-.465-.59 0-1.125.125-1.605.375-.47.25-.875.585-1.215 1.005-.33.41-.585.885-.765 1.425-.18.53-.27 1.08-.27 1.65 0 .6.1 1.17.3 1.71.21.54.495 1.015.855 1.425.36.4.78.72 1.26.96.49.24 1.02.36 1.59.36.61 0 1.19-.14 1.74-.42.56-.29 1.095-.745 1.605-1.365v-1.77h-2.37v-.81h3.255V89h-.885v-1.56zm6.207 1.71c-.57 0-1.095-.105-1.575-.315-.47-.22-.88-.515-1.23-.885a4.316 4.316 0 01-.825-1.305 4.318 4.318 0 01-.285-1.575c0-.55.095-1.065.285-1.545.2-.49.47-.915.81-1.275.35-.37.765-.66 1.245-.87.48-.22 1-.33 1.56-.33.57 0 1.09.11 1.56.33.48.21.89.5 1.23.87a4.119 4.119 0 011.08 2.805v.24c0 .08-.005.135-.015.165h-6.69c.03.42.125.81.285 1.17.17.35.385.655.645.915s.555.465.885.615a2.809 2.809 0 001.83.105c.25-.07.48-.165.69-.285.21-.12.4-.265.57-.435.17-.18.3-.375.39-.585l.885.24c-.12.29-.29.555-.51.795-.22.23-.475.435-.765.615-.29.17-.61.3-.96.39-.35.1-.715.15-1.095.15zm2.88-4.47c-.03-.42-.13-.8-.3-1.14-.16-.35-.37-.65-.63-.9a2.68 2.68 0 00-.885-.585c-.33-.14-.685-.21-1.065-.21a2.853 2.853 0 00-1.98.795c-.25.25-.455.55-.615.9-.15.35-.24.73-.27 1.14h5.745zm5.879 4.47c-.57 0-1.09-.105-1.56-.315-.47-.22-.88-.515-1.23-.885a4.05 4.05 0 01-.795-1.29 4.236 4.236 0 01-.285-1.545c0-.55.095-1.07.285-1.56.2-.49.47-.92.81-1.29.35-.37.76-.665 1.23-.885.47-.22.985-.33 1.545-.33.56 0 1.075.11 1.545.33.48.22.89.515 1.23.885.35.37.62.8.81 1.29.2.49.3 1.01.3 1.56 0 .54-.095 1.055-.285 1.545-.19.49-.46.92-.81 1.29-.34.37-.75.665-1.23.885-.47.21-.99.315-1.56.315zm-2.835-4.02c0 .44.075.85.225 1.23.15.37.35.7.6.99.26.28.56.5.9.66.35.16.72.24 1.11.24.39 0 .755-.08 1.095-.24.35-.17.655-.395.915-.675a3.312 3.312 0 00.84-2.235c0-.43-.075-.835-.225-1.215a3.086 3.086 0 00-.615-1.005 2.756 2.756 0 00-.915-.675 2.415 2.415 0 00-1.095-.255c-.39 0-.755.085-1.095.255-.34.16-.64.385-.9.675-.26.29-.465.63-.615 1.02-.15.38-.225.79-.225 1.23zm14.788-4.785c-.3-.34-.7-.615-1.2-.825-.5-.21-1.07-.315-1.71-.315-.94 0-1.625.18-2.055.54-.43.35-.645.83-.645 1.44 0 .32.055.585.165.795.12.2.3.375.54.525.24.15.545.28.915.39.38.11.825.22 1.335.33.57.12 1.08.255 1.53.405.46.15.85.34 1.17.57.32.22.565.49.735.81.17.32.255.72.255 1.2 0 .49-.095.915-.285 1.275-.19.36-.455.66-.795.9s-.745.42-1.215.54a6.78 6.78 0 01-1.545.165c-1.65 0-3.075-.515-4.275-1.545l.525-.855c.19.2.415.39.675.57.27.18.565.34.885.48.33.13.68.235 1.05.315.37.07.76.105 1.17.105.85 0 1.51-.15 1.98-.45.48-.31.72-.775.72-1.395 0-.33-.07-.605-.21-.825-.13-.23-.33-.425-.6-.585a4.098 4.098 0 00-1.005-.435c-.4-.12-.865-.24-1.395-.36-.56-.13-1.05-.265-1.47-.405a3.919 3.919 0 01-1.065-.525c-.29-.21-.51-.46-.66-.75-.14-.3-.21-.665-.21-1.095 0-.49.09-.925.27-1.305.19-.39.455-.71.795-.96.34-.26.74-.455 1.2-.585.46-.14.97-.21 1.53-.21.71 0 1.34.11 1.89.33.56.21 1.065.51 1.515.9l-.51.84zm5.121 8.805c-.85 0-1.485-.28-1.905-.84-.41-.57-.615-1.415-.615-2.535v-4.59h1.02v4.41c0 1.77.605 2.655 1.815 2.655.3 0 .595-.05.885-.15.29-.1.555-.245.795-.435.25-.19.47-.415.66-.675.2-.26.36-.555.48-.885v-4.92h1.02v6.495c0 .28.12.42.36.42v.9c-.12.02-.22.03-.3.03h-.15a.815.815 0 01-.585-.255c-.15-.16-.225-.375-.225-.645v-.9a3.701 3.701 0 01-3.255 1.92zm10.361-7.065c-.69.02-1.29.21-1.8.57s-.87.855-1.08 1.485V89h-1.02v-7.815h.96v1.875c.29-.6.68-1.07 1.17-1.41.49-.34 1.015-.51 1.575-.51.08 0 .145.005.195.015v.93zM202.857 89v-7.005h-1.08v-.81h1.08v-.21c0-.96.205-1.71.615-2.25.41-.55.97-.825 1.68-.825.31 0 .61.045.9.135.29.09.54.21.75.36l-.315.735a1.513 1.513 0 00-.525-.255c-.2-.06-.405-.09-.615-.09-.48 0-.845.185-1.095.555-.25.37-.375.905-.375 1.605v.24h2.16v.81h-2.16V89h-1.02z" id="Shape" fill="#FFF" fill-rule="nonzero"/><g id="Group" transform="translate(120 74)" fill-rule="nonzero"><path d="M7.908 13.84l-.13.363c-3.825-1.32-5.867-5.464-4.54-9.283C4.565 1.1 8.728-.906 12.553.4a7.294 7.294 0 014.944 6.772h-.404c-.585-3.444-3.864-5.749-7.324-5.166a6.309 6.309 0 00-5.178 7.302c.325 1.942 1.561 3.612 3.317 4.531z" id="Path" fill="url(#linearGradient-1)"/><path d="M16.521.414l.13-.297c5.503 2.563 7.884 9.075 5.321 14.552-2.563 5.476-9.12 7.859-14.623 5.295A10.941 10.941 0 011.039 9.09l.351.039c.286 5.386 4.905 9.503 10.317 9.218 5.412-.285 9.55-4.881 9.263-10.267A9.766 9.766 0 0016.521.414z" id="Path" fill="url(#linearGradient-2)"/></g><rect id="Rectangle" fill="#1D1A55" fill-rule="nonzero" x="121" y="107" width="187" height="156" rx="4"/><g id="Clipped" transform="translate(121 107)"><g id="Group-Clipped"><mask id="mask-4" fill="#fff"><use xlink:href="#path-3"/></mask><g id="Group" mask="url(#mask-4)"><g fill-rule="nonzero" transform="translate(-9 17)"><path d="M88.875 69.005a.993.993 0 01-1.007 1.003.993.993 0 01-1.008-1.003.992.992 0 011.008-1.002.992.992 0 011.007 1.002z" id="Path" fill="#172F78" opacity=".4"/><path d="M29.629 31.78c0 .814-.629 1.441-1.448 1.441a1.422 1.422 0 01-1.448-1.441c0-.815.63-1.442 1.448-1.442.819 0 1.448.627 1.448 1.442z" id="Path" fill="#172F78" opacity=".6"/><path d="M28.748 31.78a.63.63 0 01-.63.626c-.378 0-.629-.25-.629-.626a.629.629 0 011.259 0z" id="Path" fill="#172F78" opacity=".8"/><path d="M103.356 54.341a3.941 3.941 0 01-3.966 3.948 3.941 3.941 0 01-3.967-3.948 3.941 3.941 0 013.967-3.949c2.203.063 3.966 1.818 3.966 3.949z" id="Path" fill="#172F78" opacity=".4"/><path d="M99.39 55.97c.904 0 1.637-.73 1.637-1.629 0-.9-.733-1.63-1.637-1.63s-1.637.73-1.637 1.63c0 .899.733 1.629 1.637 1.629z" id="Path" fill="#172F78" opacity=".8"/><path id="Path" fill="#172F78" d="M108.078 82.793l-8.877-28.64 73.034 10.215-.063.313-72.531-10.09 8.752 28.076zm79.582 9.337h-.315v6.643h.315z"/><path id="Path" fill="#03A7D3" d="M187.66 100.277h-.315v2.131h.315zM24.907 87.18h-.315v6.643h.315z"/><path id="Path" fill="#172F78" d="M24.907 95.264h-.315v1.88h.315zm0 3.509h-.315v1.881h.315zm45.584-93.69h-.315v6.642h.315z"/><path id="Path" fill="#03A7D3" d="M70.491 13.229h-.315v1.881h.315zm0 3.447h-.315v1.88h.315zm0 3.51h-.315v5.39h.315z"/><path id="Path" fill="#172F78" d="M146.421 127.977h-.315v6.705h.315zm46.024-66.116h-.315v2.131h.315z"/><path id="Path" fill="#03A7D3" d="M192.445 53.714h-.315v6.643h.315z"/><path id="Path" fill="#172F78" d="M192.445 45.065h-.315v6.706h.315zm0-9.964h-.314v6.705h.314z"/><path d="M35.736 29.21a3.706 3.706 0 003.715-3.697 3.707 3.707 0 00-3.715-3.698 3.706 3.706 0 00-3.714 3.698 3.706 3.706 0 003.714 3.697z" id="Path" fill="#03A7D3" opacity=".4"/><path d="M35.736 27.33a1.822 1.822 0 001.826-1.817 1.822 1.822 0 00-1.826-1.818 1.821 1.821 0 00-1.825 1.818c0 1.003.817 1.817 1.825 1.817z" id="Path" fill="#03A7D3" opacity=".8"/><path d="M62.998 133.554a2.52 2.52 0 01-2.518 2.507 2.52 2.52 0 01-2.518-2.507 2.52 2.52 0 012.518-2.506 2.48 2.48 0 012.518 2.506z" id="Path" fill="#03A7D3" opacity=".4"/><path d="M60.543 134.745c.661 0 1.196-.533 1.196-1.191 0-.657-.535-1.19-1.196-1.19-.661 0-1.196.533-1.196 1.19 0 .658.535 1.191 1.196 1.191z" id="Path" fill="#03A7D3" opacity=".8"/><path d="M151.836 106.356a2.575 2.575 0 002.581-2.569 2.576 2.576 0 00-2.581-2.57 2.576 2.576 0 00-2.582 2.57 2.575 2.575 0 002.582 2.569z" id="Path" fill="#03A7D3" opacity=".4"/><path d="M151.836 105.04c.695 0 1.259-.561 1.259-1.253 0-.693-.564-1.254-1.259-1.254-.696 0-1.259.561-1.259 1.254 0 .692.563 1.253 1.259 1.253z" id="Path" fill="#03A7D3" opacity=".8"/><path d="M85.853 48.575c0 1.128-.881 2.005-2.015 2.005a1.984 1.984 0 01-2.014-2.005c0-1.128.881-2.005 2.014-2.005 1.134 0 2.015.877 2.015 2.005z" id="Path" fill="#03A7D3" opacity=".4"/><path d="M83.838 49.578c.557 0 1.008-.449 1.008-1.003 0-.554-.451-1.003-1.008-1.003-.556 0-1.007.449-1.007 1.003 0 .554.451 1.003 1.007 1.003z" id="Path" fill="#03A7D3" opacity=".8"/><path d="M159.643 130.547c.591 0 1.07-.477 1.07-1.066 0-.588-.479-1.065-1.07-1.065-.591 0-1.07.477-1.07 1.065 0 .589.479 1.066 1.07 1.066zm-7.744-60.915a.63.63 0 01-1.259 0c0-.314.251-.627.629-.627.378.063.63.313.63.627zm-83.108 48.882a.63.63 0 01-1.259 0 .63.63 0 01.629-.627c.315 0 .63.314.63.627z" id="Path" fill="#03A7D3" opacity=".4"/><path d="M105.886 102.699c-1.41 0-2.749-.28-3.806-.912L76.352 86.983c-1.057-.631-1.621-1.473-1.621-2.315 0-.912.564-1.754 1.621-2.315l25.587-14.804c2.114-1.193 5.568-1.193 7.683 0l25.727 14.804c1.057.631 1.621 1.473 1.621 2.315 0 .912-.564 1.754-1.621 2.315l-25.586 14.804c-1.058.562-2.467.912-3.877.912zm-.141-35.641c-1.269 0-2.608.281-3.595.842L76.634 82.704c-.916.491-1.41 1.192-1.41 1.894s.494 1.403 1.41 1.894l25.728 14.804c1.973 1.123 5.215 1.123 7.189 0l25.587-14.804c.916-.491 1.409-1.192 1.409-1.894s-.493-1.403-1.409-1.894L109.41 67.9c-1.057-.561-2.326-.842-3.665-.842z" id="Shape" fill="#03A7D3"/><path d="M136.829 76.53V64.252l-15.577 2.034-11.63-6.735c-2.044-1.193-5.357-1.193-7.401 0l-1.833 1.123-25.305 3.367V76.53c0 .772.564 1.473 1.551 2.034l25.728 14.804c2.044 1.193 5.356 1.193 7.401 0l25.586-14.804c.987-.561 1.48-1.333 1.551-2.034h-.071z" id="Path" fill="url(#linearGradient-5)"/><path d="M135.349 62.077l-25.728-14.804c-2.044-1.193-5.357-1.193-7.401 0L76.634 62.077c-2.044 1.193-2.044 3.087 0 4.28l25.727 14.803c2.044 1.193 5.357 1.193 7.401 0l25.587-14.803c2.044-1.193 2.044-3.158 0-4.28z" id="Path" fill="url(#radialGradient-6)"/><path d="M135.349 65.585l-25.587 14.804c-2.044 1.192-5.357 1.192-7.401 0L76.634 65.585c-.846-.491-1.339-1.123-1.48-1.754-.212.912.282 1.824 1.48 2.526l25.727 14.803c2.044 1.193 5.357 1.193 7.401 0l25.587-14.803c1.198-.702 1.692-1.614 1.48-2.526-.141.631-.634 1.263-1.48 1.754zm-22.133 18.803l-1.268.702v-1.403l1.268-.702zm2.538-1.474l-1.198.702v-1.403l1.198-.702zm2.537-1.473l-1.198.702v-1.404l1.198-.701zm-2.114 4.07l-1.198.701v-1.403l1.198-.701zm2.255-1.334l-1.198.702v-1.403l1.198-.702zm8.036-7.436l-1.198.701v-1.403l1.198-.701zm6.978-4l-1.198.702V72.04l1.198-.702zm-12.617 7.227l-1.198.702v-1.404l1.198-.701z" id="Path" fill="#FFF"/><path d="M104.476 74.846l-17.269-9.893c-.705-.421-.634-1.122.211-1.543l16.917-9.682c.846-.491 2.044-.491 2.749-.141l17.269 9.963c.705.421.635 1.123-.211 1.544l-16.917 9.682c-.775.421-2.044.491-2.749.07z" id="Path" fill="#06033E" opacity=".4"/><path d="M97.709 85.651l-14.308-8.209c-.353-.21-.635-.701-.635-1.193v-1.052c0-.421.282-.631.635-.491l14.308 8.209c.353.21.635.701.635 1.192v1.053c0 .491-.282.701-.635.491z" id="Path" fill="#FFF"/><path d="M136.829 53.517V41.239l-15.577 2.034-11.63-6.735c-2.044-1.193-5.357-1.193-7.401 0l-1.833 1.123-25.305 3.367v12.489c0 .772.564 1.473 1.551 2.035l25.728 14.803c2.044 1.193 5.356 1.193 7.401 0l25.586-14.803c.987-.562 1.48-1.334 1.551-2.035h-.071z" id="Path" fill="url(#linearGradient-7)"/><path d="M135.349 38.994L109.621 24.19c-2.044-1.193-5.357-1.193-7.401 0L76.634 39.064c-2.044 1.193-2.044 3.087 0 4.28l25.727 14.804c2.044 1.192 5.357 1.192 7.401 0l25.587-14.804c2.044-1.263 2.044-3.157 0-4.35z" id="Path" fill="url(#radialGradient-8)"/><path d="M123.085 39.906l-15.014-8.63c-1.198-.701-3.101-.701-4.3 0l-14.872 8.63c-1.199.702-1.199 1.824 0 2.456l15.013 8.629c1.199.702 3.102.702 4.3 0l14.873-8.559c1.198-.702 1.198-1.824 0-2.526z" id="Path" fill="#06033E" opacity=".4"/><path d="M135.349 42.572l-25.587 14.804c-2.044 1.192-5.357 1.192-7.401 0L76.634 42.572c-.846-.491-1.339-1.123-1.48-1.754-.212.912.282 1.824 1.48 2.526l25.727 14.803c2.044 1.193 5.357 1.193 7.401 0l25.587-14.803c1.198-.702 1.692-1.614 1.48-2.526-.141.631-.634 1.263-1.48 1.754zm-22.133 18.803l-1.268.702v-1.403l1.268-.702zm2.538-1.473l-1.198.701V59.2l1.198-.701zm2.537-1.474l-1.198.702v-1.403l1.198-.702zm-2.114 4.07l-1.198.701v-1.403l1.198-.702zm2.255-1.334l-1.198.702v-1.403l1.198-.702zm8.036-7.436l-1.198.702v-1.404l1.198-.701zm6.978-3.999l-1.198.701v-1.403l1.198-.702zm-12.617 7.226l-1.198.702v-1.403l1.198-.702z" id="Path" fill="#FFF"/><path d="M136.829 30.505V18.227l-15.577 2.034-11.63-6.735c-2.044-1.193-5.357-1.193-7.401 0l-1.833 1.122-25.305 3.368v12.559c0 .772.564 1.473 1.551 2.034l25.728 14.804c2.044 1.193 5.356 1.193 7.401 0l25.586-14.804c.987-.561 1.48-1.333 1.551-2.034v-.07h-.071z" id="Path" fill="url(#linearGradient-9)"/><path d="M135.349 15.982L109.621 1.178c-2.044-1.193-5.357-1.193-7.401 0L76.634 16.052c-2.044 1.192-2.044 3.087 0 4.279l25.727 14.804c2.044 1.193 5.357 1.193 7.401 0l25.587-14.804c2.044-1.262 2.044-3.157 0-4.349z" id="Path" fill="url(#radialGradient-10)"/><path d="M135.349 19.489l-25.587 14.804c-2.044 1.193-5.357 1.193-7.401 0L76.634 19.559c-.846-.491-1.339-1.122-1.48-1.754-.212.913.282 1.825 1.48 2.526l25.727 14.804c2.044 1.193 5.357 1.193 7.401 0l25.587-14.804c1.198-.701 1.692-1.613 1.48-2.526-.141.632-.634 1.193-1.48 1.684zm-22.133 18.874l-1.268.701v-1.403l1.268-.702zm2.538-1.474l-1.198.702v-1.404l1.198-.701zm2.537-1.473l-1.198.701v-1.403l1.198-.702zm-2.114 3.999l-1.198.702v-1.333l1.198-.702zm2.255-1.263l-1.198.702v-1.403l1.198-.702zm8.036-7.437l-1.198.702v-1.403l1.198-.702zm6.978-3.999l-1.198.702v-1.404l1.198-.701zm-12.617 7.226l-1.198.702v-1.403l1.198-.702z" id="Path" fill="#FFF"/><path d="M60.422 128.869c-1.41 0-2.749-.28-3.806-.912l-25.728-14.804c-1.057-.631-1.621-1.473-1.621-2.315 0-.912.564-1.754 1.621-2.315l25.587-14.804c2.115-1.193 5.568-1.193 7.683 0l25.727 14.804c1.058.631 1.622 1.473 1.622 2.315 0 .912-.564 1.754-1.622 2.315l-25.586 14.804c-1.128.632-2.467.912-3.877.912zm-.141-35.641c-1.269 0-2.608.281-3.595.842L31.1 108.874c-.916.491-1.41 1.192-1.41 1.894s.494 1.403 1.41 1.894l25.727 14.804c1.974 1.123 5.216 1.123 7.19 0l25.587-14.804c.916-.491 1.409-1.192 1.409-1.894s-.493-1.403-1.409-1.894L63.876 94.07a8.226 8.226 0 00-3.595-.842z" id="Shape" fill="#03A7D3"/><path d="M91.365 102.77V90.492l-15.577 2.034-11.631-6.735c-2.044-1.193-5.356-1.193-7.401 0l-1.832 1.122-25.305 3.368v12.559c0 .772.564 1.473 1.551 2.034l25.727 14.804c2.044 1.193 5.357 1.193 7.401 0l25.587-14.804c.987-.561 1.48-1.333 1.551-2.034v-.07h-.071z" id="Path" fill="url(#linearGradient-11)"/><path d="M89.815 88.247L64.087 73.443c-2.044-1.193-5.357-1.193-7.401 0L31.1 88.247c-2.044 1.192-2.044 3.087 0 4.279l25.727 14.804c2.044 1.193 5.357 1.193 7.401 0l25.587-14.804c2.044-1.192 2.044-3.087 0-4.279z" id="Path" fill="url(#radialGradient-12)"/><path d="M89.815 91.754l-25.587 14.804c-2.044 1.193-5.357 1.193-7.401 0L31.1 91.754c-.846-.491-1.339-1.122-1.48-1.754-.212.912.282 1.824 1.48 2.526l25.727 14.804c2.044 1.193 5.357 1.193 7.401 0l25.587-14.804c1.198-.702 1.692-1.614 1.48-2.526-.141.632-.634 1.263-1.48 1.754zm-22.133 18.804l-1.198.701v-1.403l1.198-.701zm2.608-1.474l-1.268.702v-1.403l1.268-.632zm2.538-1.403l-1.269.702v-1.404l1.269-.701zm-2.115 3.999l-1.198.702v-1.404l1.198-.701zm2.256-1.263l-1.198.702v-1.403l1.198-.702zm8.035-7.436l-1.269.701v-1.403l1.269-.702zm6.978-4.07l-1.198.702v-1.404l1.198-.701zm-12.617 7.297l-1.198.701v-1.403l1.198-.702z" id="Path" fill="#FFF"/><path d="M59.012 101.086l-17.269-9.963c-.705-.421-.634-1.123.212-1.544l16.916-9.682c.846-.491 2.045-.491 2.749-.14l17.27 9.963c.704.421.634 1.122-.212 1.543l-16.917 9.682c-.775.492-2.044.492-2.749.141z" id="Path" fill="#06033E" opacity=".4"/><path d="M52.246 111.82l-14.309-8.208c-.352-.211-.634-.702-.634-1.193v-1.053c0-.421.282-.631.634-.491l14.309 8.209c.352.211.634.702.634 1.193v1.052c-.07.491-.352.702-.634.491z" id="Path" fill="#FFF"/><path d="M91.365 79.687V67.409l-15.577 2.034-11.631-6.735c-2.044-1.193-5.356-1.193-7.401 0l-1.832 1.123-25.305 3.367v12.489c0 .772.564 1.473 1.551 2.034l25.727 14.804c2.044 1.193 5.357 1.193 7.401 0l25.587-14.804c.987-.561 1.48-1.333 1.551-2.034h-.071z" id="Path" fill="url(#linearGradient-13)"/><path d="M89.815 65.234L64.087 50.43c-2.044-1.193-5.357-1.193-7.401 0L31.1 65.234c-2.044 1.192-2.044 3.087 0 4.28l25.727 14.803c2.044 1.193 5.357 1.193 7.401 0l25.587-14.803c2.044-1.193 2.044-3.088 0-4.28z" id="Path" fill="url(#radialGradient-14)"/><path d="M77.55 66.146l-15.013-8.63c-1.198-.701-3.102-.701-4.3 0l-14.872 8.63c-1.199.702-1.199 1.824 0 2.456l15.013 8.629c1.198.702 3.101.702 4.3 0l14.872-8.629c1.199-.702 1.199-1.824 0-2.456z" id="Path" fill="#06033E" opacity=".4"/><path d="M89.815 68.742L64.228 83.546c-2.044 1.192-5.357 1.192-7.401 0L31.1 68.742c-.846-.491-1.339-1.123-1.48-1.754-.212.912.282 1.824 1.48 2.526l25.727 14.803c2.044 1.193 5.357 1.193 7.401 0l25.587-14.803c1.198-.702 1.692-1.614 1.48-2.526-.141.631-.634 1.263-1.48 1.754zM67.682 87.545l-1.198.701v-1.403l1.198-.701zm2.608-1.474l-1.269.702V85.37l1.269-.702zm2.538-1.473l-1.269.702v-1.334l1.269-.701zm-2.115 4.069l-1.198.702v-1.403l1.198-.702zm2.256-1.263l-1.199.702v-1.403l1.199-.702zm8.035-7.436l-1.269.701v-1.403l1.269-.702zm6.978-4.07l-1.198.702v-1.404l1.198-.701zm-12.617 7.297l-1.198.702v-1.403l1.198-.702z" id="Path" fill="#FFF"/><path d="M91.365 56.675V44.397l-15.577 2.034-11.631-6.735c-2.044-1.193-5.356-1.193-7.401 0l-1.832 1.123-25.305 3.367v12.489c0 .772.564 1.473 1.551 2.034l25.727 14.804c2.044 1.193 5.357 1.193 7.401 0l25.587-14.804c.987-.561 1.48-1.333 1.551-2.034h-.071z" id="Path" fill="url(#linearGradient-15)"/><path d="M89.815 42.221L64.087 27.417c-2.044-1.192-5.357-1.192-7.401 0L31.1 42.221c-2.044 1.193-2.044 3.087 0 4.28l25.727 14.804c2.044 1.193 5.357 1.193 7.401 0l25.587-14.804c2.044-1.193 2.044-3.157 0-4.28z" id="Path" fill="url(#radialGradient-16)"/><path d="M89.815 42.221L64.087 27.417c-2.044-1.192-5.357-1.192-7.401 0L31.1 42.221c-2.044 1.193-2.044 3.087 0 4.28l25.727 14.804c2.044 1.193 5.357 1.193 7.401 0l25.587-14.804c2.044-1.193 2.044-3.157 0-4.28z" id="Path" fill="url(#radialGradient-17)"/><path d="M60.493 56.464c-.917 0-1.903-.211-2.608-.632L40.827 46.01c-.775-.421-1.198-1.052-1.198-1.684 0-.631.423-1.263 1.198-1.684l16.917-9.822c1.48-.842 3.806-.842 5.216 0l17.057 9.822c.776.421 1.199 1.053 1.199 1.684 0 .632-.423 1.263-1.199 1.684l-16.916 9.822c-.705.421-1.622.632-2.608.632zm-.071-23.574c-.846 0-1.691.211-2.255.561L41.25 43.274c-.564.28-.846.701-.846 1.122 0 .421.282.842.846 1.123l17.058 9.822c1.268.702 3.312.702 4.581 0l16.917-9.822c.564-.281.846-.702.846-1.123 0-.421-.282-.842-.846-1.122l-17.058-9.823c-.634-.421-1.48-.561-2.326-.561z" id="Shape" fill="#FFF"/><path d="M89.815 45.729L64.228 60.533c-2.044 1.193-5.357 1.193-7.401 0L31.1 45.729c-.846-.491-1.339-1.122-1.48-1.754-.212.912.282 1.825 1.48 2.526l25.727 14.804c2.044 1.193 5.357 1.193 7.401 0l25.587-14.804c1.198-.701 1.692-1.614 1.48-2.526-.141.632-.634 1.263-1.48 1.754zM67.682 64.532l-1.198.702v-1.403l1.198-.702zm2.608-1.473l-1.268.702v-1.404l1.268-.701zm2.538-1.473l-1.269.701v-1.403l1.269-.702zm-2.115 4.069l-1.198.702v-1.404l1.198-.701zm2.256-1.333l-1.199.701V63.62l1.199-.631zm8.035-7.437l-1.269.702v-1.404l1.269-.631zm6.978-3.999l-1.198.701v-1.403l1.198-.701zm-12.617 7.226l-1.198.702v-1.333l1.198-.702z" id="Path" fill="#FFF"/><path d="M151.208 128.8c-1.409 0-2.748-.281-3.806-.912l-25.727-14.804c-1.058-.632-1.621-1.474-1.621-2.315 0-.913.563-1.754 1.621-2.316l25.586-14.804c2.115-1.192 5.569-1.192 7.683 0l25.728 14.804c1.057.632 1.621 1.474 1.621 2.316 0 .912-.564 1.754-1.621 2.315l-25.587 14.804c-1.057.631-2.467.912-3.877.912zm-.14-35.572c-1.269 0-2.608.281-3.595.842l-25.587 14.804c-.916.491-1.41 1.193-1.41 1.895 0 .701.494 1.403 1.41 1.894l25.728 14.804c1.973 1.122 5.216 1.122 7.189 0l25.587-14.804c.916-.491 1.41-1.193 1.41-1.894 0-.702-.494-1.404-1.41-1.895L154.662 94.07c-.987-.561-2.255-.842-3.594-.842z" id="Shape" fill="#03A7D3"/><path d="M182.152 102.699V90.421l-15.578 2.035-11.63-6.735c-2.044-1.193-5.357-1.193-7.401 0l-1.833 1.122-25.304 3.368v12.488c0 .772.563 1.474 1.55 2.035l25.728 14.804c2.044 1.193 5.357 1.193 7.401 0l25.586-14.804c.987-.561 1.481-1.333 1.551-2.035h-.07z" id="Path" fill="url(#linearGradient-18)"/><path d="M180.601 88.247l-25.727-14.804c-2.044-1.193-5.357-1.193-7.401 0l-25.587 14.804c-2.044 1.192-2.044 3.087 0 4.279l25.728 14.804c2.044 1.193 5.357 1.193 7.401 0l25.586-14.804c2.044-1.192 2.044-3.157 0-4.279z" id="Path" fill="url(#radialGradient-19)"/><path d="M180.601 91.755l-25.586 14.804c-2.044 1.192-5.357 1.192-7.401 0l-25.728-14.804c-.846-.491-1.339-1.123-1.48-1.754-.212.912.282 1.824 1.48 2.525l25.728 14.804c2.044 1.193 5.357 1.193 7.401 0l25.586-14.804c1.198-.701 1.692-1.613 1.48-2.525-.07.631-.563 1.263-1.48 1.754zm-22.062 18.803l-1.269.702v-1.404l1.269-.701zm2.538-1.474l-1.269.702v-1.403l1.269-.702zm2.537-1.473l-1.198.702v-1.404l1.198-.701zm-2.114 4.069l-1.199.702v-1.403l1.199-.702zm2.255-1.333l-1.198.702v-1.404l1.198-.701zm8.036-7.437l-1.269.702v-1.403l1.269-.702zm6.978-3.999l-1.199.702v-1.404l1.199-.701zm-12.617 7.227l-1.199.701v-1.403l1.199-.702z" id="Path" fill="#FFF"/><path d="M149.799 101.016l-17.269-9.963c-.705-.421-.635-1.122.211-1.543l16.917-9.682c.846-.492 2.044-.492 2.749-.141l17.269 9.963c.705.421.634 1.123-.212 1.543l-16.916 9.683c-.776.491-2.044.561-2.749.14z" id="Path" fill="#06033E" opacity=".4"/><path d="M143.032 111.821l-14.309-8.209c-.352-.21-.634-.702-.634-1.193v-1.052c0-.421.282-.632.634-.491l14.309 8.209c.352.21.634.701.634 1.192v1.053c0 .491-.282.631-.634.491z" id="Path" fill="#FFF"/><path d="M182.152 79.687V67.409l-15.578 2.034-11.63-6.735c-2.044-1.193-5.357-1.193-7.401 0l-1.833 1.123-25.304 3.367v12.489c0 .772.563 1.473 1.55 2.034l25.728 14.804c2.044 1.193 5.357 1.193 7.401 0l25.586-14.804c.987-.561 1.481-1.333 1.551-2.034h-.07z" id="Path" fill="url(#linearGradient-20)"/><path d="M180.601 65.164L154.874 50.36c-2.044-1.193-5.357-1.193-7.401 0l-25.587 14.804c-2.044 1.192-2.044 3.087 0 4.279l25.728 14.804c2.044 1.193 5.357 1.193 7.401 0l25.586-14.804c2.044-1.192 2.044-3.087 0-4.279z" id="Path" fill="url(#radialGradient-21)"/><path d="M168.407 66.076l-15.013-8.63c-1.199-.701-3.102-.701-4.3 0l-14.873 8.63c-1.198.702-1.198 1.824 0 2.456l15.014 8.629c1.198.702 3.101.702 4.3 0l14.872-8.629c1.198-.632 1.198-1.754 0-2.456z" id="Path" fill="#06033E" opacity=".4"/><path d="M180.601 68.742l-25.586 14.804c-2.044 1.192-5.357 1.192-7.401 0l-25.728-14.804c-.846-.491-1.339-1.123-1.48-1.754-.212.912.282 1.824 1.48 2.526l25.728 14.803c2.044 1.193 5.357 1.193 7.401 0l25.586-14.803c1.198-.702 1.692-1.614 1.48-2.526-.07.631-.563 1.263-1.48 1.754zm-22.062 18.803l-1.269.701v-1.403l1.269-.701zm2.538-1.474l-1.269.702V85.37l1.269-.702zm2.537-1.473l-1.198.702v-1.404l1.198-.701zm-2.114 4.069l-1.199.702v-1.403l1.199-.702zm2.255-1.333l-1.198.702v-1.403l1.198-.702zm8.035-7.436l-1.268.701v-1.403l1.268-.702zm6.979-4l-1.199.702v-1.404l1.199-.701zm-12.617 7.227l-1.199.701v-1.403l1.199-.701z" id="Path" fill="#FFF"/><path d="M182.152 56.675V44.397l-15.578 2.035-11.63-6.736c-2.044-1.192-5.357-1.192-7.401 0l-1.833 1.123-25.304 3.368v12.488c0 .772.563 1.473 1.55 2.035l25.728 14.804c2.044 1.192 5.357 1.192 7.401 0l25.586-14.804c.987-.562 1.481-1.333 1.551-2.035h-.07z" id="Path" fill="url(#linearGradient-22)"/><path d="M180.601 42.151l-25.727-14.803c-2.044-1.193-5.357-1.193-7.401 0l-25.587 14.803c-2.044 1.193-2.044 3.088 0 4.28l25.728 14.804c2.044 1.193 5.357 1.193 7.401 0l25.586-14.804c2.044-1.192 2.044-3.087 0-4.28z" id="Path" fill="url(#radialGradient-23)"/><path d="M180.601 45.659l-25.586 14.804c-2.044 1.193-5.357 1.193-7.401 0l-25.728-14.804c-.846-.491-1.339-1.122-1.48-1.754-.212.912.282 1.824 1.48 2.526l25.728 14.804c2.044 1.193 5.357 1.193 7.401 0l25.586-14.804c1.198-.702 1.692-1.614 1.48-2.526-.07.702-.563 1.263-1.48 1.754zm-22.062 18.874l-1.269.701v-1.403l1.269-.702zm2.538-1.474l-1.269.702v-1.403l1.269-.702zm2.537-1.473l-1.198.701v-1.403l1.198-.701zm-2.114 3.999l-1.199.702v-1.404l1.199-.631zm2.255-1.263l-1.198.702v-1.403l1.198-.702zm8.036-7.437l-1.269.702v-1.403l1.269-.702zm6.978-3.999l-1.199.702v-1.403l1.199-.702zm-12.617 7.226l-1.199.702v-1.403l1.199-.702z" id="Path" fill="#FFF"/><path d="M105.745 155.039c-1.41 0-2.749-.281-3.806-.912l-25.728-14.804c-1.057-.631-1.621-1.473-1.621-2.315 0-.912.564-1.754 1.621-2.315l25.587-14.804c2.114-1.193 5.568-1.193 7.683 0l25.727 14.804c1.057.631 1.621 1.473 1.621 2.315 0 .912-.564 1.754-1.621 2.315l-25.586 14.804c-1.128.631-2.467.912-3.877.912zm-.141-35.641c-1.269 0-2.608.28-3.595.841l-25.586 14.804c-.917.491-1.41 1.193-1.41 1.895 0 .701.493 1.403 1.41 1.894l25.727 14.804c1.974 1.122 5.216 1.122 7.19 0l25.586-14.804c.916-.491 1.41-1.193 1.41-1.894 0-.702-.494-1.404-1.41-1.895l-25.727-14.733c-.987-.632-2.326-.912-3.595-.912z" id="Shape" fill="#03A7D3"/><path d="M128.653 135.324l-20.159-11.576c-1.621-.913-4.229-.913-5.78 0l-20.018 11.576c-1.621.912-1.621 2.385 0 3.368l20.159 11.576c1.621.912 4.229.912 5.78 0l20.018-11.576c1.621-.983 1.621-2.456 0-3.368z" id="Path" fill="#03A7D3" opacity=".2"/><path d="M136.688 128.869v-12.278l-15.578 2.035-11.63-6.736c-2.044-1.192-5.357-1.192-7.401 0l-1.833 1.123-25.304 3.368v12.488c0 .772.564 1.474 1.551 2.035l25.727 14.804c2.044 1.192 5.357 1.192 7.401 0l25.587-14.804c.986-.561 1.48-1.333 1.55-2.035h-.07z" id="Path" fill="url(#linearGradient-24)"/><path d="M135.138 114.417L109.41 99.613c-2.044-1.193-5.357-1.193-7.401 0l-25.586 14.804c-2.045 1.192-2.045 3.087 0 4.279L102.15 133.5c2.044 1.193 5.357 1.193 7.401 0l25.587-14.804c2.044-1.192 2.044-3.087 0-4.279z" id="Path" fill="url(#radialGradient-25)"/><path d="M135.138 117.924l-25.587 14.804c-2.044 1.192-5.357 1.192-7.401 0l-25.727-14.804c-.846-.491-1.34-1.123-1.481-1.754-.211.912.282 1.824 1.481 2.526L102.15 133.5c2.044 1.192 5.357 1.192 7.401 0l25.587-14.804c1.198-.702 1.691-1.614 1.48-2.526-.141.631-.635 1.263-1.48 1.754zm-22.133 18.803l-1.198.702v-1.403l1.198-.702zm2.537-1.473l-1.198.701v-1.403l1.198-.701zm2.608-1.403l-1.268.701v-1.403l1.268-.701zm-2.114 3.999l-1.198.702v-1.404l1.198-.701zm2.255-1.263l-1.198.702v-1.404l1.198-.701zm7.965-7.437l-1.198.702v-1.404l1.198-.701zm7.049-4.069l-1.198.701v-1.403l1.198-.702zm-12.617 7.296l-1.269.702v-1.403l1.269-.702z" id="Path" fill="#FFF"/><path d="M104.335 127.256l-17.269-9.963c-.705-.421-.634-1.123.211-1.544l16.917-9.682c.846-.491 2.044-.491 2.749-.14l17.269 9.963c.705.421.635 1.122-.211 1.543l-16.917 9.682c-.775.491-2.044.491-2.749.141z" id="Path" fill="#06033E" opacity=".4"/><path d="M97.568 137.99l-14.308-8.209c-.353-.21-.635-.701-.635-1.192v-1.053c0-.421.282-.631.635-.491l14.308 8.209c.353.21.635.702.635 1.193v1.052c-.071.491-.353.702-.635.491z" id="Path" fill="#FFF"/><path d="M136.688 105.857V93.579l-15.578 2.034-11.63-6.735c-2.044-1.193-5.357-1.193-7.401 0l-1.833 1.123-25.304 3.367v12.489c0 .771.564 1.473 1.551 2.034l25.727 14.804c2.044 1.193 5.357 1.193 7.401 0l25.587-14.804c.986-.561 1.48-1.333 1.55-2.034h-.07z" id="Path" fill="url(#linearGradient-26)"/><path d="M135.138 91.404L109.41 76.6c-2.044-1.193-5.357-1.193-7.401 0L76.423 91.404c-2.045 1.192-2.045 3.087 0 4.279l25.727 14.804c2.044 1.193 5.357 1.193 7.401 0l25.587-14.804c2.044-1.192 2.044-3.087 0-4.279z" id="Path" fill="url(#radialGradient-27)"/><path d="M122.873 92.316l-15.014-8.63c-1.198-.701-3.101-.701-4.299 0l-14.873 8.63c-1.198.701-1.198 1.824 0 2.455l15.014 8.63c1.198.702 3.101.702 4.299 0l14.873-8.63c1.198-.701 1.198-1.824 0-2.455z" id="Path" fill="#06033E" opacity=".4"/><path d="M135.138 94.912l-25.587 14.804c-2.044 1.192-5.357 1.192-7.401 0L76.423 94.912c-.846-.491-1.34-1.123-1.481-1.754-.211.912.282 1.824 1.481 2.525l25.727 14.804c2.044 1.193 5.357 1.193 7.401 0l25.587-14.804c1.198-.701 1.691-1.613 1.48-2.525-.141.631-.635 1.263-1.48 1.754zm-22.133 18.803l-1.198.702v-1.404l1.198-.701zm2.537-1.473l-1.198.701v-1.403l1.198-.702zm2.608-1.474l-1.268.702v-1.403l1.268-.702zm-2.114 4.07l-1.198.701v-1.403l1.198-.702zm2.255-1.264l-1.198.702v-1.403l1.198-.702zm7.965-7.436l-1.198.701v-1.403l1.198-.702zm7.049-4.07l-1.198.702v-1.403l1.198-.702zm-12.617 7.297l-1.269.702v-1.403l1.269-.702z" id="Path" fill="#FFF"/><path d="M136.688 82.844V70.566l-15.578 2.035-11.63-6.736c-2.044-1.192-5.357-1.192-7.401 0l-1.833 1.123-25.304 3.368v12.488c0 .772.564 1.474 1.551 2.035l25.727 14.804c2.044 1.192 5.357 1.192 7.401 0l25.587-14.804c.986-.561 1.48-1.333 1.55-2.035h-.07z" id="Path" fill="url(#linearGradient-28)"/><path d="M135.138 68.391L109.41 53.587c-2.044-1.192-5.357-1.192-7.401 0L76.423 68.391c-2.045 1.193-2.045 3.087 0 4.28l25.727 14.804c2.044 1.193 5.357 1.193 7.401 0l25.587-14.874c2.044-1.123 2.044-3.087 0-4.21z" id="Path" fill="url(#radialGradient-29)"/><path d="M135.138 71.899l-25.587 14.804c-2.044 1.193-5.357 1.193-7.401 0L76.423 71.899c-.846-.491-1.34-1.122-1.481-1.754-.211.912.282 1.824 1.481 2.526l25.727 14.804c2.044 1.192 5.357 1.192 7.401 0l25.587-14.874c1.198-.702 1.691-1.614 1.48-2.526-.141.702-.635 1.333-1.48 1.824zm-22.133 18.803l-1.198.702v-1.403l1.198-.702zm2.537-1.473l-1.198.701v-1.403l1.198-.701zm2.608-1.474l-1.268.702v-1.403l1.268-.702zm-2.114 4.07l-1.198.701v-1.403l1.198-.702zm2.255-1.333l-1.198.701V89.79l1.198-.701zm7.965-7.437l-1.198.701v-1.403l1.198-.702zm7.049-3.999l-1.198.701v-1.403l1.198-.701zm-12.617 7.226l-1.269.702v-1.403l1.269-.632z" id="Path" fill="#FFF"/><path id="Path" fill="#03A7D3" d="M160.703 115.938l-.22.38 39.529 22.717.221-.38zm56.108 13.48l-12.655-7.269c-1.133-.69-2.707-1.128-4.281-1.254l-13.537-1.065c-1.7-.125-3.274-.564-4.47-1.253l-12.655-7.207.189-.376 12.655 7.269c1.133.69 2.707 1.128 4.281 1.254l13.537 1.065c1.7.125 3.274.564 4.47 1.253l12.655 7.27-.189.313zm-33.558 19.302l-12.655-7.269c-1.259-.69-2.015-1.63-2.267-2.632l-1.825-7.771c-.189-.878-.945-1.755-2.078-2.382l-12.655-7.269.189-.376 12.655 7.269c1.259.69 2.014 1.63 2.266 2.632l1.826 7.771c.189.878.945 1.755 2.078 2.382l12.655 7.269-.189.376zm8.374-4.825l-13.474-7.708c-.692-.376-1.259-.877-1.637-1.379l-5.414-6.956a6.172 6.172 0 00-1.511-1.253l-13.474-7.709.189-.376 13.474 7.708c.692.377 1.259.878 1.637 1.379l5.414 6.957c.378.438.882.877 1.511 1.253l13.474 7.708-.189.376zm16.81-9.651l-13.473-7.708a7.708 7.708 0 00-2.204-.878l-12.088-3.133a11.293 11.293 0 01-2.33-.94l-13.473-7.708.188-.377 13.474 7.709c.63.376 1.385.689 2.204.877l12.088 3.134c.882.25 1.637.564 2.33.94l13.473 7.708-.189.376zM41.908 110.762L.279 134.646l.22.38 41.629-23.884zm5.8 3.381L1.891 140.43l.247.426 45.817-26.287zm5.847 3.337l-41.7 23.926.225.387 41.7-23.925zm5.87 3.377l-40.857 23.442.22.38 40.857-23.442z"/></g></g></g></g><circle id="Oval" fill="#2C2279" fill-rule="nonzero" cx="127.5" cy="276.5" r="6.5"/><circle id="Oval" fill="#0059C2" fill-rule="nonzero" cx="134.5" cy="276.5" r="6.5"/><circle id="Oval" fill="#2743BC" fill-rule="nonzero" cx="141.5" cy="276.5" r="6.5"/><rect id="Rectangle" fill="#2E237C" fill-rule="nonzero" x="151" y="272" width="80" height="3" rx="1.5"/><rect id="Rectangle" fill="#2E237C" fill-rule="nonzero" x="151" y="277" width="68" height="3" rx="1.5"/><circle id="Oval" fill="#2E237C" fill-rule="nonzero" transform="rotate(90 300.5 91.5)" cx="300.5" cy="91.5" r="2.5"/><circle id="Oval" fill="#2E237C" fill-rule="nonzero" transform="rotate(90 300.5 83.5)" cx="300.5" cy="83.5" r="2.5"/><circle id="Oval" fill="#2E237C" fill-rule="nonzero" transform="rotate(90 300.5 76.5)" cx="300.5" cy="76.5" r="2.5"/></g><g id="pricing-person" transform="translate(250 160)"><path d="M101.066 179c-.331-4.022-.668-10.592.325-13.395 1.238-3.486-.178-7.503-.68-8.739-.105-.25-.167-.385-.167-.385l-.25-4.613L98 115.282s.355-.021.944-.075c2.159-.195 7.481-.797 10.431-2.207v52.984s2.661 4.158 2.625 7.85a98.408 98.408 0 01-8.37 4.098L101.066 179z" id="Fill-45" fill="#FFC4BD" fill-rule="nonzero"/><path d="M100.403 178.651a100.242 100.242 0 01-22.625 5.952 40.445 40.445 0 01-5.237.393c-10.573.14-22.606-3.38-34.496-8.955-.093-6.893-.044-13.302.168-19.141.1-2.766.236-5.397.41-7.9 0 0 20.91 5.565 60.997 2.718.901-.06 1.814-.13 2.74-.2.037-.005.068-.005.105-.01l.025 1.292v.032l.075 3.422.435 21.337-2.597 1.06z" id="Fill-47" fill="#002652" fill-rule="nonzero"/><path d="M79.226 44c.112 6.343-2.25 12.72 5.774 19.753 0 0-14.921 2.806-25 0 2.09-7.065 3.045-12.293 1.594-18.406L79.226 44z" id="Fill-49" fill="#FFC4BD" fill-rule="nonzero"/><path d="M62.314 54.547s2.186.376 5.685-.547c0 0 .206 4.184-6.999 7l1.314-6.453z" id="Fill-51" fill="#FFA69C" fill-rule="nonzero"/><path d="M21 59.292L11.187 23.28 3.142 23 3 65.781c.768 2.95 3.004 6.387 6.054 7.898l1.388.321S9.512 70.604 21 59.292" id="Fill-53" fill="#FFC4BD" fill-rule="nonzero"/><g id="Group-57" transform="translate(5 59)"><g id="Fill-55-Clipped"><mask id="mask-31" fill="#fff"><use xlink:href="#path-30"/></mask><path d="M30.968 28.29L28.81 97.853s35.171 6.227 69.211 0l-4.52-39.556s6.232.733 17.401-4.58l-2.754-28.49c-1.035-5.293-4.118-11.228-9.692-14.093l-18.84-8.06s-12.601 2.467-24.945 0L30.927 4.75 15.38.463S1.41 2.93.1 14.701L30.968 28.29z" id="Fill-55" fill="#0059C2" fill-rule="nonzero" mask="url(#mask-31)"/></g></g><path d="M13.282 21.247l6.566-9.604c.302-.442.141-1.01-.363-1.284-.438-.237-1.008-.182-1.374.133l-4.572 3.944L9.725.787C9.579.271 9-.066 8.389.011c-.66.082-1.112.613-1.007 1.178l1.647 8.84-.384.048-.79-3.193c-.194-.781-1.088-1.28-1.998-1.115-.887.162-1.465.898-1.309 1.666l.115.56-.044-.16c-.18-.658-.943-1.07-1.711-.923-.76.147-1.246.787-1.095 1.443l.33 1.434-.251-.938c-.099-.37-.525-.6-.955-.519-.424.08-1.015.193-.929.828l1.226 7.873c.104.664 2.88 6.396 2.88 6.396l7.972.571 1.196-2.753z" id="Fill-58" fill="#FFC4BD" fill-rule="nonzero"/><path d="M4.798 11a.214.214 0 00.043-.004.193.193 0 00.154-.23L4.4 8.15a.204.204 0 00-.241-.147.193.193 0 00-.154.23l.596 2.614a.2.2 0 00.197.152" id="Fill-60" fill="#FFA69C" fill-rule="nonzero"/><path d="M1.774 14a.216.216 0 00.224-.245l-.55-3.573c-.019-.117-.133-.193-.256-.18a.216.216 0 00-.19.242l.55 3.573a.223.223 0 00.222.183" id="Fill-62" fill="#FFA69C" fill-rule="nonzero"/><path id="Fill-64" fill="#FFF" fill-rule="nonzero" d="M72.532 185l.487-.031-.52-7.058L80 168.264l-.396-.264L72 177.78z"/><path d="M9.023 75l.503-.03C8.855 66.139 23.85 60.467 24 60.41l-.196-.41c-.155.057-15.477 5.851-14.781 15" id="Fill-66" fill="#FFF" fill-rule="nonzero"/><path d="M99.723 114c10.074 0 16.212-4.646 16.277-4.695l-.357-.305c-.067.051-6.753 5.096-17.61 4.535l-.033.42c.585.03 1.161.045 1.723.045" id="Fill-68" fill="#FFF" fill-rule="nonzero"/><path id="Fill-70" fill="#FFF" fill-rule="nonzero" d="M98.326 117l.674-.015L97.674 90l-.674.015z"/><path d="M85 61.39L82.452 57S65.714 59.616 58 58.803v2.715s12.944 3.419 27-.129" id="Fill-72" fill="#004589" fill-rule="nonzero"/><path d="M49.308 37.66c1.498-2.4 3.717-5.704 3.717-5.704s.515-4.091.436-4.929c-.129-1.362 2.054-9.514 6.613-12.027 0 0-2.058 2.662-2.833 8.36 2.345-4.509 6.282-7.468 10.746-7.468C75.174 15.892 81 23.559 81 33.018c0 9.458-5.826 17.126-13.013 17.126-1.766 0-3.45-.466-4.986-1.305.035.591.043 1.129.012 1.558l4.221 2.545-4.812 1.057s-12.25.286-11.44-9.934c-.111-1.025-.123-2.143-.077-3.251l-.145-.04c-1.519-.407-2.206-1.907-1.452-3.115" id="Fill-74" fill="#FFC4BD" fill-rule="nonzero"/><path d="M54 34c0 .552.224 1 .5 1s.5-.448.5-1-.224-1-.5-1-.5.448-.5 1" id="Fill-76" fill="#493F93" fill-rule="nonzero"/><path d="M57 32.227s-1.922-2.25-3-2.227v1.113L57 33v-.773z" id="Fill-78" fill="#493F93" fill-rule="nonzero"/><path d="M50.92 45c1.798 0 2.945-.682 3-.714.103-.063.108-.168.008-.234a.373.373 0 00-.368-.007c-.013.008-1.327.783-3.26.593-.142-.015-.275.048-.297.139-.021.09.076.175.218.188.243.024.476.035.7.035" id="Fill-80" fill="#FF7E70" fill-rule="nonzero"/><path d="M79.245 49.725s15.326-11.509 16.588-19.088c1.262-7.579-5.05-9.82-5.05-9.82s-2.313-9.316-13.042-8.796c-10.728.52-15.147 1.116-20.722.365-5.574-.751-4.334 8.944-2.313 10.977 0 0 8.139 3.584 6.541 9.074l-1.808 4.005 3.156.94s1.893-4.975 4.628-2.668c2.735 2.306.47 6.236-4.393 5.631 0 0-.172 11.567 16.415 9.38" id="Fill-82" fill="#452312" fill-rule="nonzero"/></g></g></g></svg>