<svg width="602" height="431" fill="none" xmlns="http://www.w3.org/2000/svg"><path d="M179.3 348.9l1-1.5c3.5-5.3 9.4-8.6 15.8-8.6h94.3c6.6 0 12.8 3.5 16.2 9.2l.6.9H179.3z" fill="#01013D"/><path opacity=".15" d="M222.7 355c122.994 0 222.7-3.134 222.7-7s-99.706-7-222.7-7C99.706 341 0 344.134 0 348s99.706 7 222.7 7z" fill="url(#paint0_linear)"/><path fill-rule="evenodd" clip-rule="evenodd" d="M109.9 108.4h269.4c9.7 0 17.6 7.9 17.6 17.6v157H92.3V126c0-9.7 7.9-17.6 17.6-17.6z" fill="#01013D"/><path d="M384.4 121.3H104.8v177.8h279.6V121.3z" fill="#3052E4"/><path opacity=".7" d="M374 139H208v124h166V139z" fill="#181548" stroke="#31C5FF" stroke-miterlimit="10"/><path fill-rule="evenodd" clip-rule="evenodd" d="M220.1 239.4H271c1.1 0 2.1.9 2.1 2.1 0 1.1-.9 2.1-2.1 2.1h-50.9c-1.1 0-2.1-.9-2.1-2.1 0-1.1 1-2.1 2.1-2.1zm0-82h63.3c1.1 0 2.1.9 2.1 2.1 0 1.1-.9 2.1-2.1 2.1h-63.3c-1.1 0-2.1-.9-2.1-2.1 0-1.2 1-2.1 2.1-2.1zm0 11.2h63.3c1.1 0 2.1.9 2.1 2.1 0 1.1-.9 2.1-2.1 2.1h-63.3c-1.1 0-2.1-.9-2.1-2.1 0-1.2 1-2.1 2.1-2.1zm0 11.2h17.2c1.1 0 2.1.9 2.1 2.1 0 1.1-.9 2.1-2.1 2.1h-17.2c-1.1 0-2.1-.9-2.1-2.1 0-1.2 1-2.1 2.1-2.1zm24.5 0h17.2c1.1 0 2.1.9 2.1 2.1 0 1.1-.9 2.1-2.1 2.1h-17.2c-1.1 0-2.1-.9-2.1-2.1 0-1.2.9-2.1 2.1-2.1zm-24.5 13.5h23.2c1.1 0 2.1.9 2.1 2.1 0 1.1-.9 2.1-2.1 2.1h-23.2c-1.1 0-2.1-.9-2.1-2.1 0-1.2 1-2.1 2.1-2.1zm31.3 0h23.2c1.1 0 2.1.9 2.1 2.1 0 1.1-.9 2.1-2.1 2.1h-23.2c-1.1 0-2.1-.9-2.1-2.1 0-1.2.9-2.1 2.1-2.1zm-31.3 10.1h28c1.1 0 2.1.9 2.1 2.1 0 1.1-.9 2.1-2.1 2.1h-28c-1.1 0-2.1-.9-2.1-2.1 0-1.1 1-2.1 2.1-2.1zm36.8 0h28c1.1 0 2.1.9 2.1 2.1 0 1.1-.9 2.1-2.1 2.1h-28c-1.1 0-2.1-.9-2.1-2.1.1-1.1 1-2.1 2.1-2.1zm-36.8 11.5H239c1.1 0 2.1.9 2.1 2.1 0 1.1-.9 2.1-2.1 2.1h-18.9c-1.1 0-2.1-.9-2.1-2.1 0-1.2 1-2.1 2.1-2.1zm0 13.2h28c1.1 0 2.1.9 2.1 2.1 0 1.1-.9 2.1-2.1 2.1h-28c-1.1 0-2.1-.9-2.1-2.1 0-1.1 1-2.1 2.1-2.1zm36.8 0h28c1.1 0 2.1.9 2.1 2.1 0 1.1-.9 2.1-2.1 2.1h-28c-1.1 0-2.1-.9-2.1-2.1.1-1.1 1-2.1 2.1-2.1zm40.2 11.3H348c1.1 0 2.1.9 2.1 2.1 0 1.1-.9 2.1-2.1 2.1h-50.9c-1.1 0-2.1-.9-2.1-2.1 0-1.1 1-2.1 2.1-2.1zm0-82h63.3c1.1 0 2.1.9 2.1 2.1 0 1.1-.9 2.1-2.1 2.1h-63.3c-1.1 0-2.1-.9-2.1-2.1 0-1.2 1-2.1 2.1-2.1zm0 11.2h63.3c1.1 0 2.1.9 2.1 2.1 0 1.1-.9 2.1-2.1 2.1h-63.3c-1.1 0-2.1-.9-2.1-2.1 0-1.2 1-2.1 2.1-2.1zm0 11.2h17.2c1.1 0 2.1.9 2.1 2.1 0 1.1-.9 2.1-2.1 2.1h-17.2c-1.1 0-2.1-.9-2.1-2.1 0-1.2 1-2.1 2.1-2.1zm24.5 0h17.2c1.1 0 2.1.9 2.1 2.1 0 1.1-.9 2.1-2.1 2.1h-17.2c-1.1 0-2.1-.9-2.1-2.1 0-1.2.9-2.1 2.1-2.1zm-24.5 13.5h23.2c1.1 0 2.1.9 2.1 2.1 0 1.1-.9 2.1-2.1 2.1h-23.2c-1.1 0-2.1-.9-2.1-2.1 0-1.2 1-2.1 2.1-2.1zm31.3 0h23.2c1.1 0 2.1.9 2.1 2.1 0 1.1-.9 2.1-2.1 2.1h-23.2c-1.1 0-2.1-.9-2.1-2.1 0-1.2.9-2.1 2.1-2.1zm-31.3 10.1h28c1.1 0 2.1.9 2.1 2.1 0 1.1-.9 2.1-2.1 2.1h-28c-1.1 0-2.1-.9-2.1-2.1 0-1.1 1-2.1 2.1-2.1zm36.8 0h28c1.1 0 2.1.9 2.1 2.1 0 1.1-.9 2.1-2.1 2.1h-28c-1.1 0-2.1-.9-2.1-2.1.1-1.1 1-2.1 2.1-2.1zm-36.8 11.5H316c1.1 0 2.1.9 2.1 2.1 0 1.1-.9 2.1-2.1 2.1h-18.9c-1.1 0-2.1-.9-2.1-2.1 0-1.2 1-2.1 2.1-2.1zm0 13.2h28c1.1 0 2.1.9 2.1 2.1 0 1.1-.9 2.1-2.1 2.1h-28c-1.1 0-2.1-.9-2.1-2.1 0-1.1 1-2.1 2.1-2.1zm36.8 0h28c1.1 0 2.1.9 2.1 2.1 0 1.1-.9 2.1-2.1 2.1h-28c-1.1 0-2.1-.9-2.1-2.1.1-1.1 1-2.1 2.1-2.1z" fill="#2B348C"/><path d="M330.047 184.826h-66.005v80.77h66.005v-80.77z" fill="#952034"/><path d="M330.078 184.826H297.06v80.77h33.018v-80.77z" fill="#952034"/><path d="M332.296 192.399h-70.503v86.247h70.503v-86.247z" fill="#FC3E54"/><path d="M332.296 192.399H297.06v86.247h35.236v-86.247z" fill="#BC2A44"/><path d="M332.296 192.399l-13.12-4.256v4.256h13.12z" fill="#A7233A"/><path d="M319.176 188.143l10.871-3.317v6.854l-10.871-3.537z" fill="#FC3E54"/><path d="M261.793 192.399l13.12-4.256v4.256h-13.12z" fill="#A7233A"/><path d="M274.913 188.143l-10.871-3.317v6.854l10.871-3.537z" fill="#FC3E54"/><path d="M311.492 199.628v18.839c0 8.012-6.466 14.489-14.463 14.489-7.997 0-14.463-6.477-14.463-14.489v-18.839" stroke="#A2112A" stroke-width="3" stroke-miterlimit="10" stroke-linecap="round" stroke-linejoin="round"/><path d="M368.344 212.803h-48.918v59.835h48.918v-59.835z" fill="#008EC6"/><path d="M368.344 212.803h-24.459v59.835h24.459v-59.835z" fill="#008EC6"/><path d="M370 218.436h-52.229v63.903H370v-63.903z" fill="#1DAFF4"/><path d="M370 218.436h-26.115v63.903H370v-63.903z" fill="#48C4FF"/><path d="M370 218.436l-9.715-3.16v3.16H370z" fill="#80C8EA"/><path d="M360.285 215.275l8.059-2.472v5.101l-8.059-2.629z" fill="#BAE2F4"/><path d="M317.771 218.436l9.715-3.16v3.16h-9.715z" fill="#80C8EA"/><path d="M327.486 215.275l-8.06-2.472v5.101l8.06-2.629z" fill="#BAE2F4"/><path d="M354.6 223.787v13.958c0 5.914-4.779 10.733-10.715 10.733-5.903 0-10.714-4.819-10.714-10.733v-13.958" stroke="#E0E0E0" stroke-width="3" stroke-miterlimit="10" stroke-linecap="round" stroke-linejoin="round"/><path d="M281.973 228.669h-67.599v49.351h67.599v-49.351z" fill="#DEA02D"/><path d="M281.973 228.669h-47.45v49.351h47.45v-49.351z" fill="#DEA02D"/><path d="M283.347 233.301H213V286h70.347v-52.699z" fill="#EDB720"/><path d="M283.347 233.301h-35.174V286h35.174v-52.699z" fill="#FCCA2E"/><path d="M283.347 233.301l-8.028-2.598v2.598h8.028z" fill="#E9B74C"/><path d="M275.319 230.703l6.654-2.034v4.194l-6.654-2.16z" fill="#ECC870"/><path d="M213 233.301l7.997-2.598v2.598H213z" fill="#E9B74C"/><path d="M220.997 230.703l-6.623-2.034v4.194l6.623-2.16z" fill="#ECC870"/><path d="M261 238v14.128c0 6.014-5.809 10.872-13 10.872s-13-4.858-13-10.872V238" stroke="#AA5000" stroke-width="3" stroke-miterlimit="10" stroke-linecap="round" stroke-linejoin="round"/><path fill-rule="evenodd" clip-rule="evenodd" d="M220.7 309.2c-1.2 22.4-4.5 27-27.2 39.7h100.6c-22.7-12.7-25.9-17.3-27.2-39.7l-23.1-1.8-23.1 1.8z" fill="#01013D"/><path fill-rule="evenodd" clip-rule="evenodd" d="M396.9 283v11.5c0 9.7-7.9 17.6-17.6 17.6H109.9c-9.7 0-17.6-7.9-17.6-17.6V283h304.6z" fill="#E4F5FB"/><path d="M396.8 271.6H92.3V290h304.5v-18.4z" fill="#01013D"/><path fill-rule="evenodd" clip-rule="evenodd" d="M231.6 294.8c1.7 0 3.1 1.4 3.1 3.1 0 1.7-1.4 3.1-3.1 3.1-1.7 0-3.1-1.4-3.1-3.1 0-1.7 1.4-3.1 3.1-3.1z" fill="#FC3E54"/><path fill-rule="evenodd" clip-rule="evenodd" d="M243.2 294.8c1.7 0 3.1 1.4 3.1 3.1 0 1.7-1.4 3.1-3.1 3.1-1.7 0-3.1-1.4-3.1-3.1 0-1.7 1.4-3.1 3.1-3.1z" fill="#31C5FF"/><path fill-rule="evenodd" clip-rule="evenodd" d="M254.8 294.8c1.7 0 3.1 1.4 3.1 3.1 0 1.7-1.4 3.1-3.1 3.1-1.7 0-3.1-1.4-3.1-3.1-.1-1.7 1.3-3.1 3.1-3.1z" fill="#FFD22E"/><path opacity=".7" d="M200.6 139.4h-80.1v123.8h80.1V139.4z" fill="#181548" stroke="#31C5FF" stroke-miterlimit="10"/><path fill-rule="evenodd" clip-rule="evenodd" d="M126.4 239.4h50.9c1.1 0 2.1.9 2.1 2.1 0 1.1-.9 2.1-2.1 2.1h-50.9c-1.1 0-2.1-.9-2.1-2.1 0-1.1 1-2.1 2.1-2.1zm0-82h63.3c1.1 0 2.1.9 2.1 2.1 0 1.1-.9 2.1-2.1 2.1h-63.3c-1.1 0-2.1-.9-2.1-2.1 0-1.2 1-2.1 2.1-2.1z" fill="#31C5FF"/><g clip-path="url(#clip0)"><path d="M130.791 140.799c0 8.896 7.344 16.113 16.396 16.113s16.395-7.217 16.395-16.113v-10.045h-32.791v10.045zm65.552.029c0 8.896 7.344 16.113 16.396 16.113s16.395-7.217 16.395-16.113v-10.045h-32.791v10.045zm65.553.029c0 8.896 7.343 16.113 16.395 16.113s16.396-7.217 16.396-16.113v-10.045h-32.791v10.045zm65.552-10.015v10.045c0 8.896 7.343 16.113 16.395 16.113s16.396-7.217 16.396-16.113v-10.045h-32.791z" fill="#E0E0E0"/><path d="M130.791 130.753h32.761l3.927-11.724-31.203-.029-5.485 11.753zm65.552.03h32.791l.78-11.724-31.233-.03-2.338 11.754zm64.773-11.724l.78 11.753h32.791l-2.368-11.724-31.203-.029zm93.638.029h-31.203l3.897 11.754h32.791l-5.485-11.754z" fill="#EEE"/><path d="M98 140.769c0 8.896 7.344 16.113 16.396 16.113s16.395-7.217 16.395-16.113v-10.045H98v10.045zm65.552.03c0 8.896 7.344 16.113 16.396 16.113s16.395-7.217 16.395-16.113v-10.045h-32.791v10.045zm65.552.029c0 8.896 7.344 16.113 16.396 16.113s16.396-7.217 16.396-16.113v-10.045h-32.792v10.045zm65.583.029c0 8.896 7.343 16.113 16.395 16.113s16.396-7.217 16.396-16.113v-10.045h-32.791v10.045zm65.552-10.015v10.045c0 8.896 7.343 16.113 16.395 16.113s16.396-7.217 16.396-16.113v-10.045h-32.791z" fill="#630DD3"/><path d="M98 130.724l32.791.029L136.276 119h-31.232L98 130.724zm65.552.029l32.791.03 2.338-11.754h-31.202l-3.927 11.724zm66.362-11.694l-.78 11.724 32.762.029-.78-11.753h-31.202zm62.405.029l2.368 11.724 32.761.03-3.897-11.754h-31.232zm93.667.03l-31.232-.03 5.485 11.754H393l-7.014-11.724z" fill="#4607A8"/></g><path fill-rule="evenodd" clip-rule="evenodd" d="M126.4 168.6h63.3c1.1 0 2.1.9 2.1 2.1 0 1.1-.9 2.1-2.1 2.1h-63.3c-1.1 0-2.1-.9-2.1-2.1 0-1.2 1-2.1 2.1-2.1z" fill="#31C5FF"/><path fill-rule="evenodd" clip-rule="evenodd" d="M126.4 179.8h17.2c1.1 0 2.1.9 2.1 2.1 0 1.1-.9 2.1-2.1 2.1h-17.2c-1.1 0-2.1-.9-2.1-2.1 0-1.2 1-2.1 2.1-2.1zm24.5 0h17.2c1.1 0 2.1.9 2.1 2.1 0 1.1-.9 2.1-2.1 2.1h-17.2c-1.1 0-2.1-.9-2.1-2.1 0-1.2.9-2.1 2.1-2.1z" fill="#FFD22E"/><path fill-rule="evenodd" clip-rule="evenodd" d="M126.4 193.3h23.2c1.1 0 2.1.9 2.1 2.1 0 1.1-.9 2.1-2.1 2.1h-23.2c-1.1 0-2.1-.9-2.1-2.1 0-1.2 1-2.1 2.1-2.1zm31.3 0h23.2c1.1 0 2.1.9 2.1 2.1 0 1.1-.9 2.1-2.1 2.1h-23.2c-1.1 0-2.1-.9-2.1-2.1 0-1.2.9-2.1 2.1-2.1z" fill="#FC3E54"/><path fill-rule="evenodd" clip-rule="evenodd" d="M126.4 203.4h28c1.1 0 2.1.9 2.1 2.1 0 1.1-.9 2.1-2.1 2.1h-28c-1.1 0-2.1-.9-2.1-2.1 0-1.1 1-2.1 2.1-2.1zm36.8 0h28c1.1 0 2.1.9 2.1 2.1 0 1.1-.9 2.1-2.1 2.1h-28c-1.1 0-2.1-.9-2.1-2.1.1-1.1 1-2.1 2.1-2.1z" fill="#31C5FF"/><path fill-rule="evenodd" clip-rule="evenodd" d="M126.4 214.9h18.9c1.1 0 2.1.9 2.1 2.1 0 1.1-.9 2.1-2.1 2.1h-18.9c-1.1 0-2.1-.9-2.1-2.1 0-1.2 1-2.1 2.1-2.1z" fill="#FFD22E"/><path fill-rule="evenodd" clip-rule="evenodd" d="M126.4 228.1h28c1.1 0 2.1.9 2.1 2.1 0 1.1-.9 2.1-2.1 2.1h-28c-1.1 0-2.1-.9-2.1-2.1 0-1.1 1-2.1 2.1-2.1zm36.8 0h28c1.1 0 2.1.9 2.1 2.1 0 1.1-.9 2.1-2.1 2.1h-28c-1.1 0-2.1-.9-2.1-2.1.1-1.1 1-2.1 2.1-2.1z" fill="#03E59F"/><path d="M31.4 144.5c-.7-.7-1.6-1.1-2.7-1.1-1 0-2 .4-2.7 1.1-.7.7-1.1 1.6-1.1 2.7 0 1 .4 2 1.1 2.7.7.7 1.6 1.1 2.7 1.1 1 0 2-.4 2.7-1.1.7-.7 1.1-1.6 1.1-2.7s-.5-2-1.1-2.7zm-2.7-3.2c1.6 0 3.1.7 4.2 1.7 1.1 1.1 1.7 2.5 1.7 4.2 0 1.6-.7 3.1-1.7 4.2-1.1 1.1-2.5 1.7-4.2 1.7-1.6 0-3.1-.7-4.2-1.7-1.1-1.1-1.7-2.5-1.7-4.2 0-1.6.7-3.1 1.7-4.2 1.1-1.1 2.6-1.7 4.2-1.7z" fill="#630DD3"/><path fill-rule="evenodd" clip-rule="evenodd" d="M481.336 173.122L431 147.809l-50.336 25.313C373.206 251.406 431 265 431 265s57.794-13.594 50.336-91.878z" fill="#EDB720"/><path fill-rule="evenodd" clip-rule="evenodd" d="M474.91 177.436L431 155.404l-43.91 22.032c-6.505 68.136 43.91 79.968 43.91 79.968s50.416-11.832 43.91-79.968z" fill="#FCCA2E"/><path fill-rule="evenodd" clip-rule="evenodd" d="M420.149 209.66c-1.199 0-2.17-.919-2.17-2.052v-20.541c0-5.586 5.66-9.961 12.884-9.961h.677c7.116 0 12.481 4.282 12.481 9.961v20.053c0 1.134-.971 2.052-2.17 2.052-1.198 0-2.17-.918-2.17-2.052v-20.053c0-3.339-3.499-5.857-8.141-5.857h-.677c-4.711 0-8.544 2.628-8.544 5.857v20.541c0 1.133-.971 2.052-2.17 2.052z" fill="#191551"/><path fill-rule="evenodd" clip-rule="evenodd" d="M447.277 224.245c0 2.65-2.182 4.947-5.251 4.947h-22.69c-3.069 0-5.698-2.297-5.698-4.947v-19.592c0-2.649 2.629-4.759 5.698-4.759h22.69c3.069 0 5.251 2.11 5.251 4.759v19.592z" fill="#191551"/><path fill-rule="evenodd" clip-rule="evenodd" d="M434.255 210.662a3.172 3.172 0 00-3.172-3.172h-.166a3.171 3.171 0 00-3.172 3.172v.167a3.17 3.17 0 003.172 3.171h.166a3.171 3.171 0 003.172-3.171v-.167z" fill="#fff"/><path fill-rule="evenodd" clip-rule="evenodd" d="M433.17 220.181c0 .782-.728 1.415-1.627 1.415-.9 0-1.628-.633-1.628-1.415v-8.021c0-.782.728-1.415 1.628-1.415.899 0 1.627.633 1.627 1.415v8.021z" fill="#fff"/><path fill-rule="evenodd" clip-rule="evenodd" d="M322.8 312.1v24.1c0 3.5 1.4 6.7 3.7 9 2.3 2.3 5.5 3.7 9 3.7h12v-3h-12c-2.7 0-5.1-1.1-6.9-2.9-1.8-1.8-2.9-4.2-2.9-6.9V312h-2.9v.1z" fill="#01013D"/><path fill-rule="evenodd" clip-rule="evenodd" d="M336.6 312.1v24.1c0 3.5 1.4 6.7 3.7 9 2.3 2.3 5.5 3.7 9 3.7H384v-3h-34.7c-2.7 0-5.1-1.1-6.9-2.9-1.8-1.8-2.9-4.2-2.9-6.9V312h-2.9v.1z" fill="#01013D"/><path d="M327.3 312.1h-6.2v8.3h6.2v-8.3zm14 0h-6.2v8.3h6.2v-8.3z" fill="#01013D"/><path fill-rule="evenodd" clip-rule="evenodd" d="M381.039 324.8c1.4 0 2.5 1.1 2.5 2.5s-1.1 2.5-2.5 2.5-2.5-1.1-2.5-2.5 1.1-2.5 2.5-2.5z" fill="#03E59F"/><path fill-rule="evenodd" clip-rule="evenodd" d="M393.239 304.6h96.9c1.9 0 3.5 1.6 3.5 3.5v33.3c0 1.9-1.6 3.5-3.5 3.5h-96.9c-1.9 0-3.5-1.6-3.5-3.5v-33.3c0-1.9 1.6-3.5 3.5-3.5z" fill="#3462F4"/><path fill-rule="evenodd" clip-rule="evenodd" d="M400.439 309.1h20.1c3.9 0 7 3.1 7 7v2.9c0 3.9-3.1 7-7 7h-20.1c-3.9 0-7-3.1-7-7v-2.9c-.1-3.9 3.1-7 7-7zm37.2 0h45.5c3.9 0 7 3.1 7 7v2.9c0 3.9-3.1 7-7 7h-45.5c-3.9 0-7-3.1-7-7v-2.9c0-3.9 3.1-7 7-7z" fill="#01013D"/><path d="M469.639 315.4h-4.1v4.1h4.1v-4.1z" fill="#FC3E54"/><path d="M476.039 315.4h-4.1v4.1h4.1v-4.1zm6.4 0h-4.1v4.1h4.1v-4.1z" fill="#FFD22E"/><path d="M412.339 344.9h-14.6v4h14.6v-4zm72.6 0h-14.6v4h14.6v-4z" fill="#092978"/><path fill-rule="evenodd" clip-rule="evenodd" d="M393.239 260.2h96.9c1.9 0 3.5 1.6 3.5 3.5V297c0 1.9-1.6 3.5-3.5 3.5h-96.9c-1.9 0-3.5-1.6-3.5-3.5v-33.3c0-1.9 1.6-3.5 3.5-3.5z" fill="#3462F4"/><path fill-rule="evenodd" clip-rule="evenodd" d="M400.439 264.7h20.1c3.9 0 7 3.1 7 7v2.9c0 3.9-3.1 7-7 7h-20.1c-3.9 0-7-3.1-7-7v-2.9c-.1-3.8 3.1-7 7-7zm37.2 0h45.5c3.9 0 7 3.1 7 7v2.9c0 3.9-3.1 7-7 7h-45.5c-3.9 0-7-3.1-7-7v-2.9c0-3.8 3.1-7 7-7z" fill="#01013D"/><path d="M469.639 271h-4.1v4.1h4.1V271z" fill="#FC3E54"/><path d="M476.039 271h-4.1v4.1h4.1V271zm6.4 0h-4.1v4.1h4.1V271z" fill="#FFD22E"/><path d="M412.339 300.6h-14.6v4h14.6v-4zm72.6 0h-14.6v4h14.6v-4z" fill="#092978"/><path d="M403.139 271.1h-4.1v4.1h4.1v-4.1zm7.2 0h-4.1v4.1h4.1v-4.1zm-7.2 44.4h-4.1v4.1h4.1v-4.1zm7.2 0h-4.1v4.1h4.1v-4.1z" fill="#03E59F"/><path fill-rule="evenodd" clip-rule="evenodd" d="M493.739 278.6h4.2c3.5 0 6.7 1.4 9 3.7 2.3 2.3 3.7 5.5 3.7 9v57.6h-107.5v-3h104.5v-54.6c0-2.7-1.1-5.1-2.9-6.9-1.8-1.8-4.2-2.9-6.9-2.9h-4.2v-2.9h.1z" fill="#01013D"/><path fill-rule="evenodd" clip-rule="evenodd" d="M493.739 322.7h4.2c3.5 0 6.7 1.4 9 3.7 2.3 2.3 3.7 5.5 3.7 9v12h-3v-12c0-2.7-1.1-5.1-2.9-6.9-1.8-1.8-4.2-2.9-6.9-2.9h-4.2v-2.9h.1zm0-47.2h1c.5 0 1 .4 1 1v7c0 .5-.4 1-1 1h-1v-9z" fill="#01013D"/><path fill-rule="evenodd" clip-rule="evenodd" d="M493.739 319.7h1c.5 0 1 .4 1 1v7c0 .5-.4 1-1 1h-1v-9z" fill="#01013D"/><rect x="150.374" y="86.414" width="12.021" height="12.021" rx="2" transform="rotate(-58.717 150.374 86.414)" stroke="#1DAFF4" stroke-width="2"/><rect x="158.305" y="81.076" width="11.353" height="12.021" rx="2" transform="rotate(-58.717 158.305 81.076)" fill="#B12DE8" stroke="#B12DE8" stroke-width="2"/><circle cx="65.5" cy="78.5" r="5.5" fill="#1DAFF4"/><circle cx="63" cy="63" r="3" fill="#B12DE8"/><circle cx="73" cy="207" r="3" fill="#B12DE8"/><path fill-rule="evenodd" clip-rule="evenodd" d="M400.123 335.452c-.338 6.337-.723 12.674-1.061 19.01-.337 6.337-.722 12.674-1.06 19.01H390.1c-.337-6.336-.723-12.673-1.06-19.01-.337-6.336-.723-12.673-1.06-19.01h12.143z" fill="#FFC6A8"/><path fill-rule="evenodd" clip-rule="evenodd" d="M389.763 367.469s.096 1.763.337 3.669c2.409 2.334 5.156 2.525 7.999.714 1.445 6.337-2.747 7.719-12.577 4.241-12.142-5.05-10.938-10.53 4.241-8.624z" fill="#1B0E5C"/><path fill-rule="evenodd" clip-rule="evenodd" d="M398.099 236.257c2.12-5.003 9.155-4.05 11.275 1.953 2.554 7.433 4.096 15.342 4.578 23.632.433 8.242-4.289 13.626-15.901 11.435 2.553-1.334 3.083-5.241 1.493-11.816.819-.81.338-5.86-1.445-15.151-.53-3.478-.964-7.766 0-10.053z" fill="#6250BA"/><path fill-rule="evenodd" clip-rule="evenodd" d="M385.33 335.452c-.386 6.861-.723 13.674-1.109 20.535-.385 6.861-.722 13.674-1.108 20.534h-7.71c-.385-6.86-.722-13.673-1.108-20.534-.385-6.861-.723-13.674-1.108-20.535h12.143z" fill="#FFC6A8"/><path fill-rule="evenodd" clip-rule="evenodd" d="M401.375 269.227c3.181 5.002 4.53 10.815 4.048 17.438l-1.879 46.214c-.338 9.577-32.381 9.005-33.104 1.525-1.108-31.826-1.686-59.936 3.084-65.463 0 0 9.059 1.143 27.851.286z" fill="#1B0E5C"/><path fill-rule="evenodd" clip-rule="evenodd" d="M404.218 257.316c-.433 13.674-3.71 16.818-17.973 17.485-7.902.381-14.215-.667-13.54-12.292-1.06-20.201 9.493-21.964 31.513-5.193z" fill="#453497"/><path fill-rule="evenodd" clip-rule="evenodd" d="M343.408 237.543c2.795 1.192 6.842 3.097 8.77 7.957 0 0 4.288 4.097 12.865 12.34.241 6.813-1.927 9.481-6.505 7.956-8.721-11.529-11.901-16.437-11.901-16.437-2.458-.857-5.783-5.479-1.253-7.146-.482-.953-1.783-2.144-3.084-3.145-1.879-1.382-1.157-2.43 1.108-1.525zm37.729-9.671c-5.155-.286-8.288-4.431-7.227-17.581 7.661 5.098 10.07 10.958 7.227 17.581z" fill="#FFC6A8"/><path fill-rule="evenodd" clip-rule="evenodd" d="M364.224 257.03c1.157-.334 3.229-4.955 6.313-13.817 1.204-3.24 2.987-7.242 4.963-8.766 4.385-3.431 10.263.476 9.155 6.622-1.446 7.576-3.999 15.103-7.71 22.584-3.71 7.384-10.697 10.005-19.997 3.001 2.94-.048 5.349-3.24 7.276-9.624z" fill="#6250BA"/><path fill-rule="evenodd" clip-rule="evenodd" d="M376.56 202.477c10.697-6.098 24.815-.952 23.418 15.628-.482 5.336-.434 8.099 1.976 10.624 16.913 17.343 6.023 34.971-12.143 29.349-8.144-2.62-12.962-10.1-10.216-24.489.964-5.622 1.205-10.768-2.505-15.103-6.168-7.004-5.975-13.007-.53-16.009z" fill="#140A47"/><path fill-rule="evenodd" clip-rule="evenodd" d="M375.066 369.947s.096 1.62.193 3.859c2.361 2.477 5.156 2.668 7.999.714 1.445 6.718-2.747 8.195-12.529 4.479-12.094-5.336-10.793-11.101 4.337-9.052z" fill="#1B0E5C"/><defs><linearGradient id="paint0_linear" x1="0" y1="347.999" x2="480.888" y2="347.999" gradientUnits="userSpaceOnUse"><stop stop-color="#060E49"/><stop offset="1" stop-color="#332782"/></linearGradient><clipPath id="clip0"><path fill="#fff" d="M98 119h295v38H98z"/></clipPath></defs></svg>