<svg width="427" height="345" xmlns="http://www.w3.org/2000/svg" xmlns:xlink="http://www.w3.org/1999/xlink"><defs><path d="M5.476.017c-2.761 0-5 2.243-5 5.01V80.86a5.006 5.006 0 005 5.01h56.127a5.006 5.006 0 005.001-5.01V5.028c0-2.768-2.24-5.01-5-5.01H5.475z" id="path-1"/><path d="M5.476.017c-2.762 0-5 2.243-5 5.01V80.86a5.005 5.005 0 005 5.01h56.127c2.762 0 5-2.243 5-5.01V5.028a5.005 5.005 0 00-5-5.01H5.476z" id="path-3"/><path d="M5.476.016c-2.762 0-5 2.244-5 5.01V80.86a5.005 5.005 0 005 5.01h56.127c2.762 0 5-2.243 5-5.01V5.027a5.006 5.006 0 00-5-5.01H5.476z" id="path-5"/><path id="path-7" d="M.099.463h110.803v100.158H.1z"/></defs><g id="Page-1" stroke="none" stroke-width="1" fill="none" fill-rule="evenodd"><g id="Group"><g id="pricing-phone"><g id="Group-31" transform="translate(10.79 .52)" fill-rule="nonzero"><path d="M376.182 259.863c4.595-4.928 9.572-10.553 14.405-16.805a143.15 143.15 0 002.277-2.997 156.652 156.652 0 005.95-8.584c9.944-15.412 17.624-33.657 17.266-53.903a58.14 58.14 0 00-.05-1.59c.004-.055 0-.108-.002-.162a71.406 71.406 0 00-.412-5.331.168.168 0 00-.005-.06c-1.325-11.826-5.368-22.876-11.034-32.994a17.7 17.7 0 00-.272-.492 108.397 108.397 0 00-3.549-5.835 53.87 53.87 0 00-.912-1.396c-.314-.476-.636-.95-.958-1.425-4.37-6.345-9.303-12.265-14.47-17.72a180.082 180.082 0 00-5.08-5.132 192.462 192.462 0 00-7.452-6.875 221.255 221.255 0 00-10.59-8.693c-12.129-9.347-30.721-22.307-52.064-26.808-25.836-5.451-54.191 2.798-73.85 20.44A77.97 77.97 0 00224.243 95.8a87.154 87.154 0 00-2.758 4.031c-2.132 3.252-4.123 6.623-6.069 9.914-.004.017-.01.026-.022.044-5.295 8.99-10.756 18.26-18.855 24.693a40.596 40.596 0 01-9.989 5.833c-5.274 2.162-11.248 3.396-17.976 3.71-.78.039-1.577.064-2.377.075-6.37.102-13.386-.574-21.096-2.035-4.353-.824-8.78-1.818-13.061-2.78-10.262-2.309-20.83-4.678-31.46-4.917a67.134 67.134 0 00-6.215.108c-20.034 1.247-37.331 11.248-50.456 22.132a143.647 143.647 0 00-15.243 14.721C15.958 185.55-1.228 210.509.983 239.747c1.084 14.44 6.81 28.897 17.373 43.753a149.333 149.333 0 007.384 9.52l1.595.105a149.543 149.543 0 01-7.862-10.05c-10.56-14.763-16.27-29.107-17.35-43.409-2.145-28.393 14.323-52.763 26.834-66.92a140.225 140.225 0 014.144-4.503 146.008 146.008 0 018.259-7.94 134.23 134.23 0 014.993-4.2c6.227-4.986 13.328-9.705 21.172-13.365 8.217-3.836 17.244-6.511 26.914-7.117a71.403 71.403 0 017.706-.055c9.991.427 19.953 2.665 29.648 4.844 4.289.96 8.725 1.96 13.094 2.79 6.416 1.209 12.36 1.89 17.86 2.03 1.25.034 2.48.043 3.686.011 9.705-.165 17.944-2.137 24.862-5.906a40.864 40.864 0 003.638-2.235 38.81 38.81 0 002.701-2.025c7.933-6.452 13.325-15.493 18.525-24.309.073-.13.155-.256.23-.386 1.869-3.176 3.786-6.423 5.818-9.555.96-1.48 1.95-2.936 2.971-4.345 3.155-4.352 6.78-8.346 10.767-11.951C255.344 67.008 283.422 58.793 309 64.19c21.108 4.45 39.556 17.307 51.595 26.59a219.373 219.373 0 0110.195 8.356 194.161 194.161 0 016.796 6.2 180.813 180.813 0 015.69 5.701c4.983 5.23 9.755 10.897 13.999 16.96a104.958 104.958 0 012.694 4.01c.301.447.59.913.876 1.371.866 1.39 1.703 2.794 2.505 4.212.087.16.172.312.258.465 5.55 9.934 9.517 20.758 10.844 32.329l.002.015c.2 1.751.34 3.522.415 5.307l.011.168c.04.896.062 1.795.06 2.684.101 19.412-7.279 36.975-16.846 51.9a153.512 153.512 0 01-5.488 8.01c-.873 1.2-1.757 2.38-2.647 3.53-4.896 6.357-9.952 12.084-14.618 17.08a654.92 654.92 0 00-2.657 2.875c-9.894 10.824-12.098 15.015-12.533 26.801.39-.044.778-.09 1.166-.133.444-11.162 2.603-15.324 11.894-25.533a272.833 272.833 0 012.97-3.225" id="Fill-1" fill="#DAEBFE"/><path d="M358.827 264.566c2.415-3.303 5.574-6.922 9.696-11.343.081-.094.17-.19.252-.276 6.038-6.47 11.308-12.735 15.835-18.854a151.47 151.47 0 006.007-8.68c.526-.82 1.035-1.644 1.538-2.467 4.668-7.647 8.124-15.075 10.41-22.377 1.432-4.584 2.41-9.121 2.932-13.633.05-.428.102-.856.138-1.28.023-.221.048-.442.064-.662.262-2.929.324-5.847.21-8.76a64.129 64.129 0 00-.54-6.1 9.764 9.764 0 00-.067-.48.22.22 0 00-.007-.069c-.962-6.77-2.95-13.275-5.687-19.478-.076-.178-.15-.347-.23-.517-.049-.121-.103-.233-.157-.346-.13-.29-.258-.58-.394-.862a44.668 44.668 0 00-.417-.864 89.234 89.234 0 00-3.294-6.25c-3.342-5.808-7.284-11.307-11.57-16.448a152.626 152.626 0 00-8.869-9.743 178.738 178.738 0 00-7.242-6.904 214.51 214.51 0 00-4.09-3.59 213.589 213.589 0 00-8.236-6.675c-18.27-14.092-33.067-21.776-47.963-24.92-7.602-1.607-15.534-1.9-23.572-.867-17.31 2.222-33.665 10.498-45.285 22.655a67.496 67.496 0 00-5.847 6.987c-2.92 4.026-5.53 8.443-8.304 13.15-.014.01-.017.027-.024.036-1.846 3.132-3.711 6.299-5.704 9.399-.006.009-.02.019-.023.036-2.474 3.84-5.138 7.581-8.205 11.05-2.6 2.932-5.486 5.668-8.79 8.097-.449.332-.907.659-1.373.978a51.021 51.021 0 01-9.105 4.956c-4.838 2.034-10.138 3.43-15.838 4.159-5.353.688-11.047.812-17.19.365-4.614-.33-9.488-.984-14.659-1.956-2.258-.43-4.515-.9-6.759-1.379-2.237-.48-4.463-.979-6.648-1.47-8.384-1.886-16.445-3.698-24.361-4.397-3.515-.317-7-.41-10.467-.195-1.235.077-2.506.2-3.763.36-7.986 1.022-15.497 3.64-22.363 7.136-4.618 2.352-8.953 5.094-12.945 8.012-4.622 3.373-8.796 6.977-12.443 10.48a138.416 138.416 0 00-3.912 3.899 130.415 130.415 0 00-8.297 9.479c-10.534 13.27-21.85 32.968-20.185 55.023 1.023 13.542 6.887 27.321 17.82 41.761 3.278 4.337 7.026 8.742 11.234 13.21l1.69.104c-4.356-4.565-8.234-9.053-11.616-13.484-11.048-14.438-16.963-28.2-17.987-41.672-1.607-21.287 9.115-40.383 19.347-53.467a130.708 130.708 0 018.823-10.151c1.061-1.1 2.18-2.235 3.358-3.367 3.633-3.531 7.8-7.174 12.422-10.585 4.1-3.025 8.555-5.861 13.32-8.283 6.733-3.399 14.073-5.95 21.877-6.95a53.01 53.01 0 013.694-.353c3.512-.224 7.053-.12 10.634.214 7.735.722 15.657 2.493 23.889 4.348 1.359.306 2.736.617 4.118.919 3.065.68 6.18 1.343 9.304 1.934 4.361.822 8.513 1.418 12.479 1.789 7.114.664 13.638.599 19.73-.18 7.548-.971 14.4-3.074 20.44-6.283a49.12 49.12 0 005.01-3.028 49.94 49.94 0 002.733-2.017c3.243-2.54 6.071-5.372 8.622-8.386 5.148-6.07 9.165-12.872 13.1-19.549 2.752-4.663 5.346-9.078 8.244-13.068a66.079 66.079 0 015.201-6.297c11.48-12.275 27.83-20.65 45.147-22.874 7.91-1.015 15.717-.734 23.19.845 14.726 3.109 29.37 10.725 47.501 24.706a219.508 219.508 0 018.106 6.563 189.796 189.796 0 013.976 3.49 169.612 169.612 0 017.139 6.779 153.402 153.402 0 017.949 8.611 125.088 125.088 0 015.58 7c.457.608.9 1.227 1.344 1.847a104.562 104.562 0 015.742 8.951 92.137 92.137 0 013.512 6.74c.148.309.291.627.425.94.278.598.54 1.194.795 1.797.24.569.48 1.13.704 1.694l.344.886c1.672 4.33 2.962 8.793 3.77 13.393.031.148.06.29.076.44a58.52 58.52 0 01.66 4.963 63.3 63.3 0 01.23 3.368 66.748 66.748 0 01-.362 10.189c-.674 6.057-2.18 12.164-4.541 18.384-2.122 5.623-4.948 11.344-8.498 17.193a52.628 52.628 0 01-1.009 1.621 146.484 146.484 0 01-6.461 9.471c-4.536 6.152-9.836 12.462-15.917 18.986-.013.011-.024.029-.038.039-3.319 3.56-6.032 6.608-8.254 9.384-6.112 7.652-8.45 13.273-9.301 22.026-.183 1.923-.296 4.007-.361 6.294.383-.04.77-.08 1.152-.122.081-2.661.23-5.049.49-7.225.832-6.971 2.777-11.955 7.167-17.953" id="Fill-3" fill="#DAEBFE"/><path d="M361.374 246.022c.93-.995 1.843-1.995 2.736-2.976 5.287-5.85 9.881-11.497 13.813-16.984 2.61-3.629 4.925-7.19 6.952-10.692.221-.385.444-.763.65-1.145a82.39 82.39 0 001.612-2.968c3.331-6.383 5.683-12.578 7.096-18.642.105-.43.202-.86.29-1.288.067-.315.132-.637.19-.95.905-4.638 1.262-9.201 1.078-13.73-.188-4.581-.948-9.06-2.178-13.419a64.855 64.855 0 00-1.666-5.127 57.52 57.52 0 00-.37-.973 77.206 77.206 0 00-4.15-8.902c-4.98-9.186-11.736-17.628-19.028-25.108-.9-.92-1.801-1.815-2.71-2.701a154.294 154.294 0 00-4.623-4.346c-.438-.404-.882-.8-1.326-1.194a199.784 199.784 0 00-3.656-3.17 212.43 212.43 0 00-7.155-5.77c-17.002-13.11-30.537-20.213-43.876-23.03-6.489-1.371-13.284-1.615-20.194-.728-17.588 2.256-33.995 11.67-43.971 25.211-.086.11-.17.22-.248.33-2.657 3.663-5.15 7.893-7.8 12.381-2.333 3.959-4.773 8.11-7.548 12.214-2.665 3.957-5.632 7.877-9.091 11.543-.152.162-.304.325-.456.48-2.94 3.072-6.23 5.953-9.99 8.537a55.18 55.18 0 01-2.729 1.77c-7.762 4.731-16.707 7.768-26.664 9.044-6.008.77-12.353.912-19.163.418-5.012-.356-10.284-1.068-15.856-2.112l-.458-.09c-4.539-.864-8.965-1.859-13.247-2.82-5.43-1.221-10.698-2.405-15.811-3.242a91.68 91.68 0 00-4.218-.62c-4.129-.523-8.128-.748-11.983-.509a47.134 47.134 0 00-3.11.302c-6.331.813-12.375 2.833-17.992 5.577a64.608 64.608 0 00-3.131 1.62 84.958 84.958 0 00-9.066 5.751c-6 4.33-11.235 9.158-15.469 13.555-.305.318-.61.636-.926.972-3.616 3.837-7.917 8.89-11.91 14.83-7.53 11.174-14 25.52-12.838 40.897.947 12.576 7.005 25.681 18.422 39.774 3.373 4.163 7.212 8.408 11.534 12.754.04.046.09.098.137.142a265.369 265.369 0 004.023 3.96c.593.032 1.185.067 1.777.1a266.523 266.523 0 01-4.862-4.749c-.045-.036-.086-.082-.125-.12-4.272-4.295-8.077-8.486-11.416-12.594-11.38-13.985-17.407-26.949-18.341-39.35-1.108-14.63 4.862-28.356 12.015-39.229 3.929-5.995 8.222-11.116 11.889-15.048.499-.536.98-1.045 1.45-1.536a117.312 117.312 0 013.475-3.476l.02-.02c.32-.313.65-.629.988-.938 3.108-2.928 6.6-5.906 10.412-8.686a85.94 85.94 0 019.053-5.81c1.44-.8 2.914-1.552 4.413-2.255a63.793 63.793 0 013.888-1.66c4.071-1.59 8.33-2.764 12.72-3.323a43.063 43.063 0 013.037-.287c3.9-.25 7.964-.006 12.16.542.618.08 1.237.161 1.86.256v.009c5.667.83 11.583 2.159 17.677 3.527 3.87.878 7.86 1.77 11.952 2.57.596.124 1.192.241 1.795.356 4.207.792 8.252 1.394 12.146 1.788 8.353.872 16.025.833 23.229-.09 11.212-1.435 21.175-5.076 29.623-10.823.088-.056.176-.121.265-.178 4.3-2.951 7.99-6.285 11.243-9.824a.375.375 0 00.056-.066c3.505-3.814 6.505-7.872 9.2-11.95 2.52-3.805 4.772-7.631 6.934-11.3 2.504-4.25 4.878-8.278 7.37-11.767.117-.178.245-.344.365-.515 9.773-13.47 26.018-22.85 43.434-25.08 6.781-.874 13.454-.629 19.812.709 13.161 2.784 26.55 9.816 43.415 22.815a207.694 207.694 0 017.063 5.704 165.779 165.779 0 013.901 3.382c.499.438.993.885 1.48 1.34.444.395.883.8 1.314 1.205a150.2 150.2 0 016.054 5.936c7.118 7.354 13.678 15.627 18.507 24.605a74.133 74.133 0 014.106 8.918c.13.329.251.66.374.989a64.381 64.381 0 011.632 5.15c1.116 4.103 1.806 8.318 1.982 12.617.187 4.581-.186 9.21-1.149 13.905-.065.353-.146.71-.22 1.066a62.897 62.897 0 01-.376 1.584c-1.322 5.35-3.386 10.798-6.228 16.406a101.313 101.313 0 01-2.655 4.914c-2.007 3.482-4.302 7.023-6.885 10.632v.007c-3.636 5.086-7.854 10.314-12.667 15.72a242.204 242.204 0 01-3.928 4.311c-12.985 13.924-17.96 21.881-19.764 33.844-.535 3.51-.79 7.366-.895 11.82l1.151-.113c.105-4.102.341-7.692.815-10.97 1.718-12.038 6.58-19.91 19.533-33.796" id="Fill-5" fill="#DAEBFE"/><path d="M240.595 129.155c.676-1.136 1.332-2.261 1.98-3.352.526-.89 1.047-1.77 1.564-2.634 1.924-3.248 3.778-6.273 5.625-8.81 8.164-11.251 21.822-19.094 36.53-20.98 5.654-.727 11.182-.532 16.436.578 11.596 2.45 23.723 8.902 39.313 20.927a194.16 194.16 0 019.523 7.823 166.412 166.412 0 015.06 4.627c.643.616 1.288 1.232 1.92 1.868.968.95 1.924 1.92 2.867 2.9.71.749 1.412 1.5 2.11 2.26.037.031.068.072.098.104 6.013 6.593 11.39 13.85 15.18 21.567a62.341 62.341 0 012.448 5.63c.095.235.185.48.272.716a53.219 53.219 0 011.604 5.24 46.629 46.629 0 011.39 9.487c.179 4.46-.296 9.009-1.447 13.689-.004.016-.007.04-.019.057a45.06 45.06 0 01-.495 1.864 56.32 56.32 0 01-.436 1.481l.569 1.938c.305-.882.587-1.76.832-2.629.233-.782.444-1.552.64-2.326.017-.065.027-.13.046-.187 1.165-4.761 1.645-9.395 1.458-13.938a48.432 48.432 0 00-1.381-9.552 54.647 54.647 0 00-1.537-5.099c-.108-.301-.218-.611-.334-.911a65.258 65.258 0 00-2.72-6.27c-3.893-7.81-9.355-15.136-15.455-21.78-.34-.378-.688-.755-1.036-1.13a153.14 153.14 0 00-4.83-4.898l-.867-.841a168.213 168.213 0 00-5.842-5.316c-3-2.61-6.001-5.043-8.91-7.285-15.745-12.133-28.01-18.656-39.79-21.137-5.374-1.139-11.034-1.338-16.816-.593-15.017 1.927-28.963 9.944-37.314 21.443-1.66 2.289-3.318 4.95-5.035 7.816a497.127 497.127 0 00-2.229 3.758c-.806 1.365-1.636 2.772-2.505 4.21-2.239 3.748-4.7 7.686-7.526 11.608l1.65-.342c2.772-3.933 5.188-7.862 7.409-11.581" id="Fill-7" fill="#DAEBFE"/><path d="M378.336 203.678a93.744 93.744 0 01-2.145 4.16c.297.24.602.486.905.725a79.414 79.414 0 001.982-3.794c1.442-2.932 2.647-5.809 3.608-8.634l-.568-1.937c-.967 3.097-2.223 6.253-3.782 9.48" id="Fill-9" fill="#DAEBFE"/><path d="M229.467 145.723c-.426-.082-.858-.155-1.284-.237a88.53 88.53 0 01-4.147 4.82l1.91-.394a84.968 84.968 0 003.521-4.189" id="Fill-11" fill="#DAEBFE"/><path d="M233.187 140.737l-1.651.34a111.738 111.738 0 01-3.352 4.41c.426.081.858.154 1.283.236a114.046 114.046 0 003.72-4.986" id="Fill-13" fill="#DAEBFE"/><path d="M205.559 166.19a69.532 69.532 0 006.576-4.008c5.368-3.689 9.892-7.876 13.812-12.27l-1.911.394c-3.618 3.907-7.745 7.626-12.552 10.928a70.263 70.263 0 01-10.3 5.86 65.16 65.16 0 01-3.935 1.693l.236 1.141a72.85 72.85 0 008.074-3.738" id="Fill-15" fill="#DAEBFE"/><path d="M340.824 255.102c3.251-4.86 7.536-9.985 13.144-15.996 6.637-7.119 12.195-13.86 16.701-20.308 2.452-3.496 4.59-6.905 6.428-10.235a86.237 86.237 0 01-.906-.725c-1.818 3.311-3.937 6.7-6.378 10.178-4.485 6.436-10.043 13.178-16.686 20.305-5.583 5.982-9.868 11.102-13.148 15.943-3.985 5.869-6.48 11.32-8.017 17.426-1.464 5.823-2.054 12.255-2.224 20.169l1.15-.105c.17-7.463.715-13.583 2.053-19.13 1.476-6.17 3.923-11.644 7.883-17.522" id="Fill-17" fill="#DAEBFE"/><path d="M59.268 282.918c-3.795-3.807-7.175-7.513-10.154-11.108-10.402-12.58-15.889-23.925-16.682-34.44-.855-11.304 3.636-22.253 9.345-31.328 4.3-6.853 9.298-12.637 13.202-16.688 2.837-2.942 6.159-6.109 9.875-9.124 3.873-3.157 8.179-6.155 12.78-8.581a64.563 64.563 0 012.19-1.101c3.788-1.81 7.76-3.209 11.856-3.97a34.12 34.12 0 014.649-.59 43.466 43.466 0 014.492-.03l.01.005c2.91.118 5.99.494 9.202 1.021 4.81.8 9.9 1.935 15.136 3.117.477.103.955.213 1.433.323.258.055.525.116.792.176 3.811.852 7.747 1.707 11.86 2.49 7.355 1.385 14.256 2.216 20.812 2.493 6.196.259 12.076.026 17.73-.702 3.053-.39 6.038-.93 8.929-1.619a77.736 77.736 0 0010.759-3.334l-.235-1.141a77.77 77.77 0 01-10.755 3.357 85.348 85.348 0 01-8.846 1.601 98.028 98.028 0 01-12.482.785c-7.982.026-16.48-.832-25.698-2.568a343.737 343.737 0 01-10.12-2.105c-.25-.057-.492-.107-.735-.165-1.077-.241-2.145-.476-3.197-.715-5.406-1.217-10.666-2.396-15.63-3.194-2.925-.477-5.742-.815-8.433-.956l-.015.004a43.472 43.472 0 00-5.085.006c-.8.05-1.626.127-2.452.236-.79.102-1.575.226-2.355.37-4.079.774-8.032 2.147-11.811 3.923a57.24 57.24 0 00-2.297 1.139 67.745 67.745 0 00-4.158 2.373 62.47 62.47 0 00-1.585.999 87.147 87.147 0 00-7.002 5.085c-3.939 3.17-7.46 6.501-10.441 9.597-4.026 4.177-9.196 10.173-13.611 17.29-5.684 9.163-10.12 20.184-9.257 31.604.82 10.756 6.39 22.324 16.956 35.094 3.001 3.63 6.4 7.354 10.216 11.187.66.66 1.322 1.327 1.99 1.984a294.208 294.208 0 0010.706 9.967l1.825.09a293.01 293.01 0 01-11.506-10.67 455.586 455.586 0 01-2.203-2.187" id="Fill-19" fill="#DAEBFE"/><path d="M236.544 38.354H194.1a2.995 2.995 0 01-2.991-2.997 2.994 2.994 0 012.991-2.998h42.443a2.994 2.994 0 012.991 2.998 2.995 2.995 0 01-2.991 2.997m-21.222-21.636c1.91 0 3.46 1.552 3.46 3.466a3.463 3.463 0 01-3.46 3.466 3.462 3.462 0 01-3.459-3.466 3.462 3.462 0 013.46-3.466m111.163-4.356a29.271 29.271 0 00-6.993-7.007C315.035 2.21 309.696.381 303.957.381h-177.27c-15.605 0-28.255 13.532-28.255 30.225v266.268c3.496.132 6.998.254 10.506.37V60.458h212.769v232.11c3.545-.303 7.049-.614 10.506-.934V30.606c0-6.853-2.133-13.173-5.727-18.244" id="Fill-21" fill="#2A2A93"/><path d="M236.544 32.36H194.1a2.995 2.995 0 00-2.991 2.997 2.995 2.995 0 002.991 2.997h42.443a2.995 2.995 0 002.991-2.997 2.995 2.995 0 00-2.991-2.998" id="Fill-23" fill="#181548"/><path d="M215.322 23.65a3.463 3.463 0 003.46-3.466 3.463 3.463 0 00-3.46-3.466 3.463 3.463 0 00-3.459 3.466 3.462 3.462 0 003.46 3.465" id="Fill-25" fill="#181548"/><path d="M108.938 60.458v236.785c9.148.3 18.338.548 27.575.729 71.693 1.41 133.172-.976 185.194-5.405V60.458H108.938z" id="Fill-27" fill="#181548"/><path d="M138.552 228.208h56.127c2.761 0 5-2.243 5-5.01v-75.832a5.005 5.005 0 00-5-5.01h-56.127a5.006 5.006 0 00-5.001 5.01v75.832a5.006 5.006 0 005 5.01" id="Fill-29" fill="#FFF"/></g><g id="Group-34" transform="translate(143.866 142.86)"><g id="Fill-32-Clipped"><mask id="mask-2" fill="#fff"><use xlink:href="#path-1"/></mask><path id="Fill-32" fill="#DD1281" fill-rule="nonzero" mask="url(#mask-2)" d="M-12.452 12.947H79.38V-6.282h-91.832z"/></g></g><path d="M194.3 201.703h56.127c2.761 0 5-2.243 5-5.01V120.86a5.005 5.005 0 00-5-5.01H194.3a5.006 5.006 0 00-5.001 5.01v75.832a5.006 5.006 0 005 5.01" id="Fill-35" fill="#FFF" fill-rule="nonzero"/><g id="Group-39" transform="translate(188.824 115.833)"><g id="Clip-38"><g id="path-3-link" fill="#000" fill-rule="nonzero"><path d="M5.476.017c-2.762 0-5 2.243-5 5.01V80.86a5.005 5.005 0 005 5.01h56.127c2.762 0 5-2.243 5-5.01V5.028a5.005 5.005 0 00-5-5.01H5.476z" id="path-3"/></g><g id="path-3-link" fill="#FFF"><path d="M5.476.017c-2.762 0-5 2.243-5 5.01V80.86a5.005 5.005 0 005 5.01h56.127c2.762 0 5-2.243 5-5.01V5.028a5.005 5.005 0 00-5-5.01H5.476z" id="path-3"/></g></g><g id="Fill-37-Clipped"><mask id="mask-4" fill="#fff"><use xlink:href="#path-3"/></mask><path id="Fill-37" fill="#FFD22E" fill-rule="nonzero" mask="url(#mask-4)" d="M-12.452 12.947H79.38V-6.282h-91.832z"/></g></g><path d="M242.854 174.676h56.128c2.761 0 5-2.243 5-5.01V93.834a5.005 5.005 0 00-5-5.01h-56.128a5.006 5.006 0 00-5 5.01v75.832a5.006 5.006 0 005 5.01" id="Fill-40" fill="#FFF" fill-rule="nonzero"/><g id="Group-44" transform="translate(237.378 88.807)"><g id="Clip-43"><g id="path-6-link" fill="#000" fill-rule="nonzero"><path d="M5.476.016c-2.762 0-5 2.244-5 5.01V80.86a5.005 5.005 0 005 5.01h56.127c2.762 0 5-2.243 5-5.01V5.027a5.006 5.006 0 00-5-5.01H5.476z" id="path-6"/></g><g id="path-6-link" fill="#FFF"><path d="M5.476.016c-2.762 0-5 2.244-5 5.01V80.86a5.005 5.005 0 005 5.01h56.127c2.762 0 5-2.243 5-5.01V5.027a5.006 5.006 0 00-5-5.01H5.476z" id="path-6"/></g></g><g id="Fill-42-Clipped"><mask id="mask-6" fill="#fff"><use xlink:href="#path-5"/></mask><path id="Fill-42" fill="#03E59F" fill-rule="nonzero" mask="url(#mask-6)" d="M-12.452 12.947H79.38V-6.282h-91.832z"/></g></g><path d="M386.6 64.856a4.564 4.564 0 00-4.56-4.568 4.564 4.564 0 00-4.56 4.568 4.565 4.565 0 004.56 4.57 4.565 4.565 0 004.56-4.57" id="Fill-84" fill="#2743BC" fill-rule="nonzero"/><path d="M9.12 182.424a4.564 4.564 0 00-4.56-4.569A4.564 4.564 0 000 182.424a4.564 4.564 0 004.56 4.569 4.565 4.565 0 004.56-4.57" id="Fill-86" fill="#6582FF" fill-rule="nonzero"/><path d="M75.187 82.863a3.868 3.868 0 00-3.864-3.871 3.868 3.868 0 00-3.864 3.87 3.868 3.868 0 003.864 3.873 3.869 3.869 0 003.864-3.872" id="Fill-88" fill="#2743BC" fill-rule="nonzero"/><path d="M89.582 228.002a2.69 2.69 0 00-2.687-2.692 2.69 2.69 0 00-2.687 2.692 2.69 2.69 0 002.687 2.692 2.69 2.69 0 002.687-2.692" id="Fill-90" fill="#2743BC" fill-rule="nonzero"/><path d="M369.477 30.663a2.921 2.921 0 00-2.918-2.924 2.921 2.921 0 00-2.919 2.924 2.921 2.921 0 002.919 2.924 2.921 2.921 0 002.918-2.924" id="Fill-92" fill="#6582FF" fill-rule="nonzero"/></g><g id="pricing-person" transform="translate(261 160)"><path d="M101.066 179c-.331-4.022-.668-10.592.325-13.395 1.238-3.486-.178-7.503-.68-8.739-.105-.25-.167-.385-.167-.385l-.25-4.613L98 115.282s.355-.021.944-.075c2.159-.195 7.481-.797 10.431-2.207v52.984s2.661 4.158 2.625 7.85a98.408 98.408 0 01-8.37 4.098L101.066 179z" id="Fill-45" fill="#FFC4BD" fill-rule="nonzero"/><path d="M100.403 178.651a100.242 100.242 0 01-22.625 5.952 40.445 40.445 0 01-5.237.393c-10.573.14-22.606-3.38-34.496-8.955-.093-6.893-.044-13.302.168-19.141.1-2.766.236-5.397.41-7.9 0 0 20.91 5.565 60.997 2.718.901-.06 1.814-.13 2.74-.2.037-.005.068-.005.105-.01l.025 1.292v.032l.075 3.422.435 21.337-2.597 1.06z" id="Fill-47" fill="#002652" fill-rule="nonzero"/><path d="M79.226 44c.112 6.343-2.25 12.72 5.774 19.753 0 0-14.921 2.806-25 0 2.09-7.065 3.045-12.293 1.594-18.406L79.226 44z" id="Fill-49" fill="#FFC4BD" fill-rule="nonzero"/><path d="M62.314 54.547s2.186.376 5.685-.547c0 0 .206 4.184-6.999 7l1.314-6.453z" id="Fill-51" fill="#FFA69C" fill-rule="nonzero"/><path d="M21 59.292L11.187 23.28 3.142 23 3 65.781c.768 2.95 3.004 6.387 6.054 7.898l1.388.321S9.512 70.604 21 59.292" id="Fill-53" fill="#FFC4BD" fill-rule="nonzero"/><g id="Group-57" transform="translate(5 59)"><g id="Fill-55-Clipped"><mask id="mask-8" fill="#fff"><use xlink:href="#path-7"/></mask><path d="M30.968 28.29L28.81 97.853s35.171 6.227 69.211 0l-4.52-39.556s6.232.733 17.401-4.58l-2.754-28.49c-1.035-5.293-4.118-11.228-9.692-14.093l-18.84-8.06s-12.601 2.467-24.945 0L30.927 4.75 15.38.463S1.41 2.93.1 14.701L30.968 28.29z" id="Fill-55" fill="#0059C2" fill-rule="nonzero" mask="url(#mask-8)"/></g></g><path d="M13.282 21.247l6.566-9.604c.302-.442.141-1.01-.363-1.284-.438-.237-1.008-.182-1.374.133l-4.572 3.944L9.725.787C9.579.271 9-.066 8.389.011c-.66.082-1.112.613-1.007 1.178l1.647 8.84-.384.048-.79-3.193c-.194-.781-1.088-1.28-1.998-1.115-.887.162-1.465.898-1.309 1.666l.115.56-.044-.16c-.18-.658-.943-1.07-1.711-.923-.76.147-1.246.787-1.095 1.443l.33 1.434-.251-.938c-.099-.37-.525-.6-.955-.519-.424.08-1.015.193-.929.828l1.226 7.873c.104.664 2.88 6.396 2.88 6.396l7.972.571 1.196-2.753z" id="Fill-58" fill="#FFC4BD" fill-rule="nonzero"/><path d="M4.798 11a.214.214 0 00.043-.004.193.193 0 00.154-.23L4.4 8.15a.204.204 0 00-.241-.147.193.193 0 00-.154.23l.596 2.614a.2.2 0 00.197.152" id="Fill-60" fill="#FFA69C" fill-rule="nonzero"/><path d="M1.774 14a.216.216 0 00.224-.245l-.55-3.573c-.019-.117-.133-.193-.256-.18a.216.216 0 00-.19.242l.55 3.573a.223.223 0 00.222.183" id="Fill-62" fill="#FFA69C" fill-rule="nonzero"/><path id="Fill-64" fill="#FFF" fill-rule="nonzero" d="M72.532 185l.487-.031-.52-7.058L80 168.264l-.396-.264L72 177.78z"/><path d="M9.023 75l.503-.03C8.855 66.139 23.85 60.467 24 60.41l-.196-.41c-.155.057-15.477 5.851-14.781 15" id="Fill-66" fill="#FFF" fill-rule="nonzero"/><path d="M99.723 114c10.074 0 16.212-4.646 16.277-4.695l-.357-.305c-.067.051-6.753 5.096-17.61 4.535l-.033.42c.585.03 1.161.045 1.723.045" id="Fill-68" fill="#FFF" fill-rule="nonzero"/><path id="Fill-70" fill="#FFF" fill-rule="nonzero" d="M98.326 117l.674-.015L97.674 90l-.674.015z"/><path d="M85 61.39L82.452 57S65.714 59.616 58 58.803v2.715s12.944 3.419 27-.129" id="Fill-72" fill="#004589" fill-rule="nonzero"/><path d="M49.308 37.66c1.498-2.4 3.717-5.704 3.717-5.704s.515-4.091.436-4.929c-.129-1.362 2.054-9.514 6.613-12.027 0 0-2.058 2.662-2.833 8.36 2.345-4.509 6.282-7.468 10.746-7.468C75.174 15.892 81 23.559 81 33.018c0 9.458-5.826 17.126-13.013 17.126-1.766 0-3.45-.466-4.986-1.305.035.591.043 1.129.012 1.558l4.221 2.545-4.812 1.057s-12.25.286-11.44-9.934c-.111-1.025-.123-2.143-.077-3.251l-.145-.04c-1.519-.407-2.206-1.907-1.452-3.115" id="Fill-74" fill="#FFC4BD" fill-rule="nonzero"/><path d="M54 34c0 .552.224 1 .5 1s.5-.448.5-1-.224-1-.5-1-.5.448-.5 1" id="Fill-76" fill="#493F93" fill-rule="nonzero"/><path d="M57 32.227s-1.922-2.25-3-2.227v1.113L57 33v-.773z" id="Fill-78" fill="#493F93" fill-rule="nonzero"/><path d="M50.92 45c1.798 0 2.945-.682 3-.714.103-.063.108-.168.008-.234a.373.373 0 00-.368-.007c-.013.008-1.327.783-3.26.593-.142-.015-.275.048-.297.139-.021.09.076.175.218.188.243.024.476.035.7.035" id="Fill-80" fill="#FF7E70" fill-rule="nonzero"/><path d="M79.245 49.725s15.326-11.509 16.588-19.088c1.262-7.579-5.05-9.82-5.05-9.82s-2.313-9.316-13.042-8.796c-10.728.52-15.147 1.116-20.722.365-5.574-.751-4.334 8.944-2.313 10.977 0 0 8.139 3.584 6.541 9.074l-1.808 4.005 3.156.94s1.893-4.975 4.628-2.668c2.735 2.306.47 6.236-4.393 5.631 0 0-.172 11.567 16.415 9.38" id="Fill-82" fill="#452312" fill-rule="nonzero"/></g></g></g></svg>