<svg width="511" height="363" xmlns="http://www.w3.org/2000/svg"><defs><radialGradient cx="-626.548%" cy="10.197%" fx="-626.548%" fy="10.197%" r="742.051%" gradientTransform="matrix(.79343 0 0 1 -1.294 0)" id="radialGradient-2"><stop stop-color="#01C8EF" offset="0%"/><stop stop-color="#03BEE9" offset="8.941%"/><stop stop-color="#08A5D7" offset="23.88%"/><stop stop-color="#107BBB" offset="42.88%"/><stop stop-color="#1177B8" offset="44.57%"/><stop stop-color="#112564" offset="100%"/></radialGradient><linearGradient x1="0%" y1="49.993%" x2="107.968%" y2="49.993%" id="linearGradient-1"><stop stop-color="#060E49" offset="0%"/><stop stop-color="#332782" offset="100%"/></linearGradient></defs><g id="Page-1" stroke="none" stroke-width="1" fill="none" fill-rule="evenodd"><g id="Craigslist-posting"><g id="header_splash_use_cases_craigslist1"><path d="M179.3 288.9l1-1.5c3.5-5.3 9.4-8.6 15.8-8.6h94.3c6.6 0 12.8 3.5 16.2 9.2l.6.9H179.3z" id="Path" fill="#01013D" fill-rule="nonzero"/><path d="M222.7 295c122.994 0 222.7-3.134 222.7-7s-99.706-7-222.7-7C99.706 281 0 284.134 0 288s99.706 7 222.7 7z" id="Path" fill="url(#linearGradient-1)" fill-rule="nonzero" opacity=".15"/><path d="M109.9 48.4h269.4c9.7 0 17.6 7.9 17.6 17.6v157H92.3V66c0-9.7 7.9-17.6 17.6-17.6z" id="Path" fill="#01013D" fill-rule="nonzero"/><path id="Path" fill="#3052E4" fill-rule="nonzero" d="M384.4 61.3H104.8v177.8h279.6z"/><path d="M112.359 77.816a8 8 0 018-8h248.58a8 8 0 018 8v158.938h-264.58V77.816z" id="Path" fill="#2C267D" fill-rule="nonzero"/><path d="M129.9 184.9h50.9c1.1 0 2.1.9 2.1 2.1 0 1.1-.9 2.1-2.1 2.1h-50.9c-1.1 0-2.1-.9-2.1-2.1 0-1.1 1-2.1 2.1-2.1zm0-93.9h50.9c1.1 0 2.1.9 2.1 2.1 0 1.1-.9 2.1-2.1 2.1h-50.9c-1.1 0-2.1-.9-2.1-2.1 0-1.1 1-2.1 2.1-2.1zm0 11.9h63.3c1.1 0 2.1.9 2.1 2.1 0 1.1-.9 2.1-2.1 2.1h-63.3c-1.1 0-2.1-.9-2.1-2.1 0-1.2 1-2.1 2.1-2.1zm0 11.2h63.3c1.1 0 2.1.9 2.1 2.1 0 1.1-.9 2.1-2.1 2.1h-63.3c-1.1 0-2.1-.9-2.1-2.1 0-1.2 1-2.1 2.1-2.1zm0 11.2h17.2c1.1 0 2.1.9 2.1 2.1 0 1.1-.9 2.1-2.1 2.1h-17.2c-1.1 0-2.1-.9-2.1-2.1 0-1.2 1-2.1 2.1-2.1zm24.5 0h17.2c1.1 0 2.1.9 2.1 2.1 0 1.1-.9 2.1-2.1 2.1h-17.2c-1.1 0-2.1-.9-2.1-2.1 0-1.2.9-2.1 2.1-2.1zm-24.5 13.5h23.2c1.1 0 2.1.9 2.1 2.1 0 1.1-.9 2.1-2.1 2.1h-23.2c-1.1 0-2.1-.9-2.1-2.1 0-1.2 1-2.1 2.1-2.1zm31.3 0h23.2c1.1 0 2.1.9 2.1 2.1 0 1.1-.9 2.1-2.1 2.1h-23.2c-1.1 0-2.1-.9-2.1-2.1 0-1.2.9-2.1 2.1-2.1zm-31.3 10.1h28c1.1 0 2.1.9 2.1 2.1 0 1.1-.9 2.1-2.1 2.1h-28c-1.1 0-2.1-.9-2.1-2.1 0-1.1 1-2.1 2.1-2.1zm36.8 0h28c1.1 0 2.1.9 2.1 2.1 0 1.1-.9 2.1-2.1 2.1h-28c-1.1 0-2.1-.9-2.1-2.1.1-1.1 1-2.1 2.1-2.1zm-36.8 11.5h18.9c1.1 0 2.1.9 2.1 2.1 0 1.1-.9 2.1-2.1 2.1h-18.9c-1.1 0-2.1-.9-2.1-2.1 0-1.2 1-2.1 2.1-2.1zm27 0h18.9c1.1 0 2.1.9 2.1 2.1 0 1.1-.9 2.1-2.1 2.1h-18.9c-1.1 0-2.1-.9-2.1-2.1 0-1.2 1-2.1 2.1-2.1zm-27 13.2h28c1.1 0 2.1.9 2.1 2.1 0 1.1-.9 2.1-2.1 2.1h-28c-1.1 0-2.1-.9-2.1-2.1 0-1.1 1-2.1 2.1-2.1zm0 24.3h28c1.1 0 2.1.9 2.1 2.1 0 1.1-.9 2.1-2.1 2.1h-28c-1.1 0-2.1-.9-2.1-2.1 0-1.1 1-2.1 2.1-2.1zm36.8-24.3h28c1.1 0 2.1.9 2.1 2.1 0 1.1-.9 2.1-2.1 2.1h-28c-1.1 0-2.1-.9-2.1-2.1.1-1.1 1-2.1 2.1-2.1zm0 24.3h28c1.1 0 2.1.9 2.1 2.1 0 1.1-.9 2.1-2.1 2.1h-28c-1.1 0-2.1-.9-2.1-2.1.1-1.1 1-2.1 2.1-2.1zm24.3-13h50.9c1.1 0 2.1.9 2.1 2.1 0 1.1-.9 2.1-2.1 2.1H191c-1.1 0-2.1-.9-2.1-2.1 0-1.1 1-2.1 2.1-2.1zm0-93.9h50.9c1.1 0 2.1.9 2.1 2.1 0 1.1-.9 2.1-2.1 2.1H191c-1.1 0-2.1-.9-2.1-2.1 0-1.1 1-2.1 2.1-2.1z" id="Path" fill="#362F9C" fill-rule="nonzero"/><path d="M191 102.9h63.3c1.1 0 2.1.9 2.1 2.1 0 1.1-.9 2.1-2.1 2.1H191c-1.1 0-2.1-.9-2.1-2.1 0-1.2 1-2.1 2.1-2.1zm0 11.2h63.3c1.1 0 2.1.9 2.1 2.1 0 1.1-.9 2.1-2.1 2.1H191c-1.1 0-2.1-.9-2.1-2.1 0-1.2 1-2.1 2.1-2.1zm0 11.2h17.2c1.1 0 2.1.9 2.1 2.1 0 1.1-.9 2.1-2.1 2.1H191c-1.1 0-2.1-.9-2.1-2.1 0-1.2 1-2.1 2.1-2.1zm24.5 0h17.2c1.1 0 2.1.9 2.1 2.1 0 1.1-.9 2.1-2.1 2.1h-17.2c-1.1 0-2.1-.9-2.1-2.1 0-1.2.9-2.1 2.1-2.1zM191 138.8h23.2c1.1 0 2.1.9 2.1 2.1 0 1.1-.9 2.1-2.1 2.1H191c-1.1 0-2.1-.9-2.1-2.1 0-1.2 1-2.1 2.1-2.1zm31.3 0h23.2c1.1 0 2.1.9 2.1 2.1 0 1.1-.9 2.1-2.1 2.1h-23.2c-1.1 0-2.1-.9-2.1-2.1 0-1.2.9-2.1 2.1-2.1zM191 148.9h28c1.1 0 2.1.9 2.1 2.1 0 1.1-.9 2.1-2.1 2.1h-28c-1.1 0-2.1-.9-2.1-2.1 0-1.1 1-2.1 2.1-2.1zm36.8 0h28c1.1 0 2.1.9 2.1 2.1 0 1.1-.9 2.1-2.1 2.1h-28c-1.1 0-2.1-.9-2.1-2.1.1-1.1 1-2.1 2.1-2.1zM191 160.4h18.9c1.1 0 2.1.9 2.1 2.1 0 1.1-.9 2.1-2.1 2.1H191c-1.1 0-2.1-.9-2.1-2.1 0-1.2 1-2.1 2.1-2.1zm27 0h18.9c1.1 0 2.1.9 2.1 2.1 0 1.1-.9 2.1-2.1 2.1H218c-1.1 0-2.1-.9-2.1-2.1 0-1.2 1-2.1 2.1-2.1zm-27 13.2h28c1.1 0 2.1.9 2.1 2.1 0 1.1-.9 2.1-2.1 2.1h-28c-1.1 0-2.1-.9-2.1-2.1 0-1.1 1-2.1 2.1-2.1zm0 24.3h28c1.1 0 2.1.9 2.1 2.1 0 1.1-.9 2.1-2.1 2.1h-28c-1.1 0-2.1-.9-2.1-2.1 0-1.1 1-2.1 2.1-2.1zm36.8-24.3h28c1.1 0 2.1.9 2.1 2.1 0 1.1-.9 2.1-2.1 2.1h-28c-1.1 0-2.1-.9-2.1-2.1.1-1.1 1-2.1 2.1-2.1zm0 24.3h28c1.1 0 2.1.9 2.1 2.1 0 1.1-.9 2.1-2.1 2.1h-28c-1.1 0-2.1-.9-2.1-2.1.1-1.1 1-2.1 2.1-2.1zm8.2-13h50.9c1.1 0 2.1.9 2.1 2.1 0 1.1-.9 2.1-2.1 2.1H236c-1.1 0-2.1-.9-2.1-2.1 0-1.1 1-2.1 2.1-2.1zm0-93.9h50.9c1.1 0 2.1.9 2.1 2.1 0 1.1-.9 2.1-2.1 2.1H236c-1.1 0-2.1-.9-2.1-2.1 0-1.1 1-2.1 2.1-2.1z" id="Path" fill="#362F9C" fill-rule="nonzero"/><path d="M236 102.9h63.3c1.1 0 2.1.9 2.1 2.1 0 1.1-.9 2.1-2.1 2.1H236c-1.1 0-2.1-.9-2.1-2.1 0-1.2 1-2.1 2.1-2.1zm0 11.2h63.3c1.1 0 2.1.9 2.1 2.1 0 1.1-.9 2.1-2.1 2.1H236c-1.1 0-2.1-.9-2.1-2.1 0-1.2 1-2.1 2.1-2.1zm0 11.2h17.2c1.1 0 2.1.9 2.1 2.1 0 1.1-.9 2.1-2.1 2.1H236c-1.1 0-2.1-.9-2.1-2.1 0-1.2 1-2.1 2.1-2.1zm24.5 0h17.2c1.1 0 2.1.9 2.1 2.1 0 1.1-.9 2.1-2.1 2.1h-17.2c-1.1 0-2.1-.9-2.1-2.1 0-1.2.9-2.1 2.1-2.1zM236 138.8h23.2c1.1 0 2.1.9 2.1 2.1 0 1.1-.9 2.1-2.1 2.1H236c-1.1 0-2.1-.9-2.1-2.1 0-1.2 1-2.1 2.1-2.1zm31.3 0h23.2c1.1 0 2.1.9 2.1 2.1 0 1.1-.9 2.1-2.1 2.1h-23.2c-1.1 0-2.1-.9-2.1-2.1 0-1.2.9-2.1 2.1-2.1zM236 148.9h28c1.1 0 2.1.9 2.1 2.1 0 1.1-.9 2.1-2.1 2.1h-28c-1.1 0-2.1-.9-2.1-2.1 0-1.1 1-2.1 2.1-2.1zm36.8 0h28c1.1 0 2.1.9 2.1 2.1 0 1.1-.9 2.1-2.1 2.1h-28c-1.1 0-2.1-.9-2.1-2.1.1-1.1 1-2.1 2.1-2.1zM236 160.4h18.9c1.1 0 2.1.9 2.1 2.1 0 1.1-.9 2.1-2.1 2.1H236c-1.1 0-2.1-.9-2.1-2.1 0-1.2 1-2.1 2.1-2.1zm27 0h18.9c1.1 0 2.1.9 2.1 2.1 0 1.1-.9 2.1-2.1 2.1H263c-1.1 0-2.1-.9-2.1-2.1 0-1.2 1-2.1 2.1-2.1zm-27 13.2h28c1.1 0 2.1.9 2.1 2.1 0 1.1-.9 2.1-2.1 2.1h-28c-1.1 0-2.1-.9-2.1-2.1 0-1.1 1-2.1 2.1-2.1zm0 24.3h28c1.1 0 2.1.9 2.1 2.1 0 1.1-.9 2.1-2.1 2.1h-28c-1.1 0-2.1-.9-2.1-2.1 0-1.1 1-2.1 2.1-2.1zm36.8-24.3h28c1.1 0 2.1.9 2.1 2.1 0 1.1-.9 2.1-2.1 2.1h-28c-1.1 0-2.1-.9-2.1-2.1.1-1.1 1-2.1 2.1-2.1zm0 24.3h28c1.1 0 2.1.9 2.1 2.1 0 1.1-.9 2.1-2.1 2.1h-28c-1.1 0-2.1-.9-2.1-2.1.1-1.1 1-2.1 2.1-2.1z" id="Path" fill="#362F9C" fill-rule="nonzero"/><path d="M112.359 77.816a8 8 0 018-8h248.58a8 8 0 018 8V82h-264.58v-4.184z" id="Path" fill="#F6CD40" fill-rule="nonzero"/><circle id="Oval" fill="#31C5FF" fill-rule="nonzero" cx="346.102" cy="75.908" r="2.685"/><circle id="Oval" fill="#FC3E54" fill-rule="nonzero" cx="354.146" cy="75.908" r="2.685"/><circle id="Oval" fill="#03E59F" fill-rule="nonzero" cx="362.146" cy="75.908" r="2.685"/><rect id="Rectangle" fill="#48C4FF" fill-rule="nonzero" x="307.146" y="129.797" width="55" height="33.506" rx="4"/><rect id="Rectangle" fill="#03E59F" fill-rule="nonzero" x="307.146" y="91" width="55" height="33.506" rx="4"/><rect id="Rectangle" fill="#FC3E54" fill-rule="nonzero" x="307.146" y="168.594" width="55" height="33.506" rx="4"/><path d="M347.809 96.236h-26.326a1.642 1.642 0 00-1.645 1.645v19.744a1.645 1.645 0 001.645 1.646h26.326a1.646 1.646 0 001.645-1.646V97.881a1.642 1.642 0 00-1.645-1.645zm-7.816 5.758a2.057 2.057 0 110 4.114 2.057 2.057 0 010-4.114zm-15.219 12.341l5.453-12.536 6.201 10.04 5.316-2.641 2.774 5.137h-19.744zm23.035 20.697h-26.326a1.646 1.646 0 00-1.645 1.646v19.744a1.645 1.645 0 001.645 1.646h26.326a1.646 1.646 0 001.645-1.646v-19.744a1.645 1.645 0 00-1.645-1.646zm-7.816 5.759a2.057 2.057 0 110 4.114 2.057 2.057 0 010-4.114zm-15.219 12.34l5.453-12.536 6.201 10.04 5.316-2.64 2.774 5.136h-19.744zm23.035 20.698h-26.326a1.646 1.646 0 00-1.645 1.646v19.744a1.642 1.642 0 001.645 1.645h26.326a1.642 1.642 0 001.645-1.645v-19.744a1.645 1.645 0 00-1.645-1.646zm-7.815 5.759a2.056 2.056 0 110 4.111 2.056 2.056 0 010-4.111zm-15.22 12.34l5.453-12.536 6.201 10.04 5.316-2.641 2.774 5.137h-19.744z" id="Shape" fill="#FFF" fill-rule="nonzero"/><path d="M220.7 249.2c-1.2 22.4-4.5 27-27.2 39.7h100.6c-22.7-12.7-25.9-17.3-27.2-39.7l-23.1-1.8-23.1 1.8z" id="Path" fill="#01013D" fill-rule="nonzero"/><path d="M396.9 223v11.5c0 9.7-7.9 17.6-17.6 17.6H109.9c-9.7 0-17.6-7.9-17.6-17.6V223h304.6z" id="Path" fill="#E4F5FB" fill-rule="nonzero"/><path id="Path" fill="#01013D" fill-rule="nonzero" d="M396.8 211.6H92.3V230h304.5z"/><path d="M231.6 234.8c1.7 0 3.1 1.4 3.1 3.1 0 1.7-1.4 3.1-3.1 3.1-1.7 0-3.1-1.4-3.1-3.1 0-1.7 1.4-3.1 3.1-3.1z" id="Path" fill="#FC3E54" fill-rule="nonzero"/><path d="M243.2 234.8c1.7 0 3.1 1.4 3.1 3.1 0 1.7-1.4 3.1-3.1 3.1-1.7 0-3.1-1.4-3.1-3.1 0-1.7 1.4-3.1 3.1-3.1z" id="Path" fill="#31C5FF" fill-rule="nonzero"/><path d="M254.8 234.8c1.7 0 3.1 1.4 3.1 3.1 0 1.7-1.4 3.1-3.1 3.1-1.7 0-3.1-1.4-3.1-3.1-.1-1.7 1.3-3.1 3.1-3.1z" id="Path" fill="#FFD22E" fill-rule="nonzero"/><path d="M31.4 84.5c-.7-.7-1.6-1.1-2.7-1.1-1 0-2 .4-2.7 1.1-.7.7-1.1 1.6-1.1 2.7 0 1 .4 2 1.1 2.7.7.7 1.6 1.1 2.7 1.1 1 0 2-.4 2.7-1.1.7-.7 1.1-1.6 1.1-2.7s-.5-2-1.1-2.7zm-2.7-3.2c1.6 0 3.1.7 4.2 1.7 1.1 1.1 1.7 2.5 1.7 4.2 0 1.6-.7 3.1-1.7 4.2-1.1 1.1-2.5 1.7-4.2 1.7-1.6 0-3.1-.7-4.2-1.7-1.1-1.1-1.7-2.5-1.7-4.2 0-1.6.7-3.1 1.7-4.2 1.1-1.1 2.6-1.7 4.2-1.7z" id="Shape" fill="#630DD3" fill-rule="nonzero"/><path d="M322.8 252.1v24.1c0 3.5 1.4 6.7 3.7 9 2.3 2.3 5.5 3.7 9 3.7h12v-3h-12c-2.7 0-5.1-1.1-6.9-2.9-1.8-1.8-2.9-4.2-2.9-6.9V252h-2.9v.1z" id="Path" fill="#01013D" fill-rule="nonzero"/><path d="M336.6 252.1v24.1c0 3.5 1.4 6.7 3.7 9 2.3 2.3 5.5 3.7 9 3.7H407v-3h-57.7c-2.7 0-5.1-1.1-6.9-2.9-1.8-1.8-2.9-4.2-2.9-6.9V252h-2.9v.1zm-9.3 0h-6.2v8.3h6.2z" id="Path" fill="#01013D" fill-rule="nonzero"/><path id="Path" fill="#01013D" fill-rule="nonzero" d="M341.3 252.1h-6.2v8.3h6.2z"/><path d="M393.239 244.6h96.9c1.9 0 3.5 1.6 3.5 3.5v33.3c0 1.9-1.6 3.5-3.5 3.5h-96.9c-1.9 0-3.5-1.6-3.5-3.5v-33.3c0-1.9 1.6-3.5 3.5-3.5z" id="Path" fill="#3462F4" fill-rule="nonzero"/><path d="M400.439 249.1h20.1c3.9 0 7 3.1 7 7v2.9c0 3.9-3.1 7-7 7h-20.1c-3.9 0-7-3.1-7-7v-2.9c-.1-3.9 3.1-7 7-7zm37.2 0h45.5c3.9 0 7 3.1 7 7v2.9c0 3.9-3.1 7-7 7h-45.5c-3.9 0-7-3.1-7-7v-2.9c0-3.9 3.1-7 7-7z" id="Path" fill="#01013D" fill-rule="nonzero"/><path id="Path" fill="#FC3E54" fill-rule="nonzero" d="M469.639 255.4h-4.1v4.1h4.1z"/><path id="Path" fill="#FFD22E" fill-rule="nonzero" d="M476.039 255.4h-4.1v4.1h4.1zm6.4 0h-4.1v4.1h4.1z"/><path id="Path" fill="#092978" fill-rule="nonzero" d="M412.339 284.9h-14.6v4h14.6zm72.6 0h-14.6v4h14.6z"/><path d="M393.239 200.2h96.9c1.9 0 3.5 1.6 3.5 3.5V237c0 1.9-1.6 3.5-3.5 3.5h-96.9c-1.9 0-3.5-1.6-3.5-3.5v-33.3c0-1.9 1.6-3.5 3.5-3.5zm0-44.399h96.9c1.9 0 3.5 1.6 3.5 3.5v33.3c0 1.9-1.6 3.5-3.5 3.5h-96.9c-1.9 0-3.5-1.6-3.5-3.5v-33.3c0-1.9 1.6-3.5 3.5-3.5zm0-44.401h96.9c1.9 0 3.5 1.6 3.5 3.5v33.3c0 1.9-1.6 3.5-3.5 3.5h-96.9c-1.9 0-3.5-1.6-3.5-3.5v-33.3c0-1.9 1.6-3.5 3.5-3.5zm0-44.4h96.9c1.9 0 3.5 1.6 3.5 3.5v33.3c0 1.9-1.6 3.5-3.5 3.5h-96.9c-1.9 0-3.5-1.6-3.5-3.5V70.5c0-1.9 1.6-3.5 3.5-3.5z" id="Path" fill="#3462F4" fill-rule="nonzero"/><path d="M400.439 204.7h20.1c3.9 0 7 3.1 7 7v2.9c0 3.9-3.1 7-7 7h-20.1c-3.9 0-7-3.1-7-7v-2.9c-.1-3.8 3.1-7 7-7zm0-44.399h20.1c3.9 0 7 3.1 7 7v2.9c0 3.9-3.1 7-7 7h-20.1c-3.9 0-7-3.1-7-7v-2.9c-.1-3.8 3.1-7 7-7zm0-44.401h20.1c3.9 0 7 3.1 7 7v2.9c0 3.9-3.1 7-7 7h-20.1c-3.9 0-7-3.1-7-7v-2.9c-.1-3.8 3.1-7 7-7zm0-44.4h20.1c3.9 0 7 3.1 7 7v2.9c0 3.9-3.1 7-7 7h-20.1c-3.9 0-7-3.1-7-7v-2.9c-.1-3.8 3.1-7 7-7zm37.2 133.2h45.5c3.9 0 7 3.1 7 7v2.9c0 3.9-3.1 7-7 7h-45.5c-3.9 0-7-3.1-7-7v-2.9c0-3.8 3.1-7 7-7zm0-44.399h45.5c3.9 0 7 3.1 7 7v2.9c0 3.9-3.1 7-7 7h-45.5c-3.9 0-7-3.1-7-7v-2.9c0-3.8 3.1-7 7-7zm0-44.401h45.5c3.9 0 7 3.1 7 7v2.9c0 3.9-3.1 7-7 7h-45.5c-3.9 0-7-3.1-7-7v-2.9c0-3.8 3.1-7 7-7zm0-44.4h45.5c3.9 0 7 3.1 7 7v2.9c0 3.9-3.1 7-7 7h-45.5c-3.9 0-7-3.1-7-7v-2.9c0-3.8 3.1-7 7-7z" id="Path" fill="#01013D" fill-rule="nonzero"/><path id="Path" fill="#FC3E54" fill-rule="nonzero" d="M469.639 211h-4.1v4.1h4.1zm0-44.399h-4.1v4.1h4.1zm0-44.401h-4.1v4.1h4.1zm0-44.399h-4.1v4.1h4.1z"/><path id="Path" fill="#FFD22E" fill-rule="nonzero" d="M476.039 211h-4.1v4.1h4.1zm0-44.399h-4.1v4.1h4.1zm0-44.401h-4.1v4.1h4.1zm0-44.399h-4.1v4.1h4.1zm6.4 133.199h-4.1v4.1h4.1zm0-44.399h-4.1v4.1h4.1zm0-44.401h-4.1v4.1h4.1zm0-44.399h-4.1v4.1h4.1z"/><path id="Path" fill="#092978" fill-rule="nonzero" d="M412.339 240.6h-14.6v4h14.6zm0-44.399h-14.6v4h14.6zm0-44.401h-14.6v4h14.6zm0-44.4h-14.6v4h14.6zm72.6 133.2h-14.6v4h14.6zm0-44.399h-14.6v4h14.6zm0-44.401h-14.6v4h14.6zm0-44.4h-14.6v4h14.6z"/><path id="Path" fill="#03E59F" fill-rule="nonzero" d="M403.139 211.1h-4.1v4.1h4.1zm0-44.399h-4.1v4.1h4.1zm0-44.401h-4.1v4.1h4.1zm0-44.4h-4.1V82h4.1zm7.2 133.2h-4.1v4.1h4.1zm0-44.399h-4.1v4.1h4.1zm0-44.401h-4.1v4.1h4.1zm0-44.4h-4.1V82h4.1zm-7.2 177.6h-4.1v4.1h4.1zm7.2 0h-4.1v4.1h4.1z"/><path d="M493.739 218.6h4.2c3.5 0 6.7 1.4 9 3.7 2.3 2.3 3.7 5.5 3.7 9v57.6H394.5v-3h113.139v-54.6c0-2.7-1.1-5.1-2.9-6.9-1.8-1.8-4.2-2.9-6.9-2.9h-4.2v-2.9h.1z" id="Path" fill="#01013D" fill-rule="nonzero"/><path d="M493.739 174.201h4.2c3.5 0 6.7 1.4 9 3.7 2.3 2.3 3.7 5.5 3.7 9v57.6h-1.5 8.64-10.14v-3h101.74-101.74v-54.6c0-2.7-1.1-5.1-2.9-6.9-1.8-1.8-4.2-2.9-6.9-2.9h-4.2v-2.9h.1z" id="Path" fill="#01013D" fill-rule="nonzero"/><path d="M493.739 129.8h4.2c3.5 0 6.7 1.4 9 3.7 2.3 2.3 3.7 5.5 3.7 9v57.6h-1.5 8.64-10.14v-3h101.74-101.74v-54.6c0-2.7-1.1-5.1-2.9-6.9-1.8-1.8-4.2-2.9-6.9-2.9h-4.2v-2.9h.1z" id="Path" fill="#01013D" fill-rule="nonzero"/><path d="M493.739 85.4h4.2c3.5 0 6.7 1.4 9 3.7 2.3 2.3 3.7 5.5 3.7 9v57.6h-1.5 8.64-10.14v-3h101.74-101.74V98.1c0-2.7-1.1-5.1-2.9-6.9-1.8-1.8-4.2-2.9-6.9-2.9h-4.2v-2.9h.1zm0 177.3h4.2c3.5 0 6.7 1.4 9 3.7 2.3 2.3 3.7 5.5 3.7 9v12h-3v-12c0-2.7-1.1-5.1-2.9-6.9-1.8-1.8-4.2-2.9-6.9-2.9h-4.2v-2.9h.1zm0-47.2h1c.5 0 1 .4 1 1v7c0 .5-.4 1-1 1h-1v-9zm0-44.399h1c.5 0 1 .4 1 1v7c0 .5-.4 1-1 1h-1v-9zm0-44.401h1c.5 0 1 .4 1 1v7c0 .5-.4 1-1 1h-1v-9z" id="Path" fill="#01013D" fill-rule="nonzero"/><path d="M493.739 82.301h1c.5 0 1 .4 1 1v7c0 .5-.4 1-1 1h-1v-9zm0 177.399h1c.5 0 1 .4 1 1v7c0 .5-.4 1-1 1h-1v-9z" id="Path" fill="#01013D" fill-rule="nonzero"/><rect id="Rectangle" stroke="#1DAFF4" stroke-width="2" transform="rotate(-58.717 158.632 24.399)" x="152.621" y="18.388" width="12.021" height="12.021" rx="2"/><rect id="Rectangle" stroke="#B12DE8" stroke-width="2" fill="#B12DE8" fill-rule="nonzero" transform="rotate(-58.717 166.39 19.346)" x="160.713" y="13.336" width="11.353" height="12.021" rx="2"/><circle id="Oval" fill="#1DAFF4" fill-rule="nonzero" cx="65.5" cy="18.5" r="5.5"/><circle id="Oval" fill="#B12DE8" fill-rule="nonzero" cx="63" cy="3" r="3"/><circle id="Oval" fill="#B12DE8" fill-rule="nonzero" cx="73" cy="147" r="3"/><path d="M176.521 169.452c-.225.337-.449.673-.561 1.01-.674 1.123-1.46 2.022-2.246 2.92a25.145 25.145 0 01-2.696 2.358c-3.593 2.583-7.861 3.706-11.566 2.696a9.546 9.546 0 01-2.471-1.011c-.786-.449-1.46-1.011-2.134-1.572-4.379-4.268-4.941-12.353-.898-19.316 2.92-5.166 7.636-8.535 12.353-9.208 2.583-.45 5.053 0 7.299 1.235 2.246 1.235 3.818 3.257 4.717 5.615.337.786.561 1.46.674 2.358.224 1.123.337 2.246.337 3.482 0 2.358-.562 4.828-1.573 7.187-.449.786-.786 1.572-1.235 2.246z" id="Path" fill="#F8C44A" fill-rule="nonzero"/><path d="M179.216 152.831c-.224.45-.561.899-1.01 1.348-.899-2.358-2.583-4.38-4.717-5.615-2.246-1.235-4.717-1.685-7.299-1.235.112-.562.336-1.011.673-1.46 1.236-2.134 3.482-3.482 5.728-3.594 1.01-.112 2.133.112 3.144.562.225.112.561.224.786.449.225.112.449.337.674.449.898.674 1.572 1.46 2.134 2.471 1.123 1.909 1.123 4.492-.113 6.625z" id="Path" fill="#E8A200" fill-rule="nonzero"/><path d="M180.676 143.848l-1.235 2.245c-.449-.898-1.235-1.796-2.134-2.47l.786-1.235c.449-.674 1.348-1.011 2.022-.562.337.225.561.562.673.899.113.336.113.786-.112 1.123zm-4.155-2.359l-.786 1.235c-1.011-.449-2.134-.561-3.144-.561l1.235-2.246c.449-.786 1.348-1.011 2.021-.562.337.225.562.562.674.899.225.449.225.898 0 1.235z" id="Path" fill="#49444F" fill-rule="nonzero"/><path d="M193.815 149.575l-5.053 8.759c-.337.449-.786.786-1.348.898l-8.198.674c0-1.235-.112-2.358-.337-3.481l7.3-.562 4.604-7.973c.449-.786 1.572-1.123 2.358-.674.899.45 1.123 1.573.674 2.359zm-17.631 30.882l-5.053 8.76c-.45.786-1.573 1.123-2.359.673-.786-.449-1.123-1.572-.673-2.358l4.604-7.973-1.797-3.706a13.554 13.554 0 002.695-2.358l2.583 5.39a1.349 1.349 0 010 1.572zm15.61-12.802l-6.177 3.706c-.337.224-.786.224-1.123.224l-8.422-1.123.674-1.01c.449-.786.786-1.46 1.123-2.246l6.625.898 5.728-3.369c.786-.449 1.909-.225 2.358.562.225.786 0 1.909-.786 2.358zm-29.535-36.048l-5.053 8.759a1.349 1.349 0 000 1.572l3.593 7.412c1.011-.674 2.134-1.123 3.145-1.46l-3.145-6.625 4.604-7.974c.45-.786.225-1.909-.673-2.358-.899-.449-2.022-.225-2.471.674zm-17.631 30.77l-5.053 8.759c-.45.786-.225 1.909.673 2.359.786.449 1.909.224 2.359-.674l4.604-7.974 4.155-.336c.112-1.123.337-2.359.674-3.594l-5.952.449c-.674.225-1.235.562-1.46 1.011zm3.144-19.877v7.187c0 .449.113.786.337 1.123l5.278 6.738c.225-.337.337-.674.562-1.011.449-.786.898-1.46 1.347-2.133l-4.155-5.278V142.5c0-1.011-.786-1.797-1.684-1.797-.899.112-1.685.899-1.685 1.797z" id="Path" fill="#B12DE8" fill-rule="nonzero"/><path d="M269.121 112.563c.126.239.252.478.414.652.443.752.719 1.499.995 2.246.241.813.415 1.59.524 2.331.369 2.929-.333 5.788-2.106 7.638a6.37 6.37 0 01-1.38 1.126c-.513.318-1.057.534-1.601.75-3.897 1.207-8.814-1.04-11.607-5.628-2.097-3.358-2.569-7.195-1.461-10.174.56-1.657 1.61-2.962 3.05-3.885 1.44-.923 3.125-1.2 4.794-.975.568.053 1.034.136 1.597.356.729.227 1.423.519 2.147.912 1.382.752 2.651 1.868 3.712 3.212.317.514.671.961.922 1.439z" id="Path" fill="#F8C44A" fill-rule="nonzero"/><path d="M260.239 105.688c.192.275.348.615.468 1.022-1.669-.225-3.39.118-4.794.975-1.439.923-2.49 2.228-3.05 3.885a2.328 2.328 0 01-.641-.861c-.856-1.403-.931-3.149-.281-4.501.256-.628.746-1.215 1.331-1.664.138-.096.311-.258.514-.318.137-.096.341-.156.478-.252a5.056 5.056 0 012.128-.463c1.476-.05 2.99.773 3.847 2.177z" id="Path" fill="#E8A200" fill-rule="nonzero"/><path d="M255.439 101.97l.923 1.439c-.67-.023-1.447.152-2.128.464l-.474-.855c-.251-.477-.163-1.111.315-1.363a1.17 1.17 0 01.742-.109c.233.042.496.185.622.424zm-2.706 1.684l.473.854c-.585.449-1.009 1.072-1.331 1.664l-.922-1.44c-.318-.513-.163-1.111.315-1.363.239-.126.508-.15.741-.109.335.012.598.155.724.394z" id="Path" fill="#49444F" fill-rule="nonzero"/><path d="M262.982 96.094l3.524 5.753c.156.341.21.711.097 1.076l-2.217 5.019a11.65 11.65 0 00-2.148-.911l1.997-4.457-3.206-5.239c-.318-.514-.158-1.28.356-1.597.55-.384 1.279-.157 1.597.356zm12.482 20.174l3.524 5.753c.317.513.157 1.279-.357 1.596-.514.318-1.279.158-1.597-.356l-3.206-5.239-2.744-.128a9.007 9.007 0 00-.524-2.331l3.983.204c.37-.055.765.16.921.501zm-2.529-13.228l.204 4.801c.024.269-.119.532-.227.729l-3.342 4.579-.377-.717a13.916 13.916 0 00-.959-1.374l2.638-3.597-.15-4.43c-.012-.604.477-1.19 1.081-1.203.532.119 1.119.608 1.132 1.212zm-30.538 5.824l3.523 5.752a.899.899 0 00.922.501l5.489.256c-.073-.807.021-1.609.146-2.308l-4.885-.268-3.206-5.239c-.318-.514-1.047-.74-1.597-.357-.549.383-.776 1.113-.392 1.663zm12.416 20.137l3.523 5.753c.318.514 1.048.74 1.597.357.514-.318.74-1.048.357-1.597l-3.206-5.239 1.126-2.543a14.8 14.8 0 01-1.891-1.54l-1.633 3.632c-.083.466-.065.903.127 1.177zm-10.648-8.176l4.212 2.29c.264.143.497.185.766.16l5.631-.946c-.126-.239-.288-.412-.414-.651a24.098 24.098 0 01-.821-1.47l-4.417.754-3.883-2.112c-.593-.322-1.304-.111-1.59.415-.221.563-.01 1.274.516 1.56z" id="Path" fill="#B12DE8" fill-rule="nonzero"/></g><g id="header_splash_use_cases_craigslist2" transform="translate(363 179)" fill-rule="nonzero"><path d="M47.787 167.026c-.776-.448-1.553-.784-2.329-1.12l-4.438-2.017.333.784c-3.44-.672-7.101-.672-10.54-.112l.221-.896-5.214 2.353c-.666.336-1.331.56-1.997 1.008-6.657 3.809-6.657 10.082 0 13.891 6.657 3.809 17.308 3.809 23.964 0 6.657-3.809 6.657-10.082 0-13.891z" id="Path" fill="#983BE9"/><path d="M41.463 170.611c-3.106 1.792-8.099 1.792-11.205 0-3.107-1.793-3.107-4.705 0-6.498 3.106-1.792 8.099-1.792 11.205 0 3.107 1.793 3.107 4.705 0 6.498z" id="Path" fill="#8A2AE3"/><path d="M35.916 168.594c-1.442 0-2.663-1.232-2.663-2.688v-34.393h5.437v34.393c-.111 1.568-1.332 2.688-2.774 2.688z" id="Path" fill="#8A2AE3"/><path d="M37.802 132.745c-1.109.672-2.773.672-3.883 0-1.109-.672-1.109-1.68 0-2.24 1.11-.673 2.774-.673 3.883 0 .999.672.999 1.68 0 2.24z" id="Path" fill="#983BE9"/><path d="M35.916 132.745c-1.22 0-2.219-1.008-2.219-2.24V98.24h4.327v32.265c0 1.232-.887 2.24-2.108 2.24z" id="Path" fill="#8A2AE3"/><path d="M67.314 115.157v-1.232l1.775-.224 1.997-1.457c.333-.224.888-.224 1.332 0l1.442.896 1.442-.224v1.233c0 .112-.111.336-.333.336l-4.659 2.128c-.333.112-.888.112-1.221 0l-1.553-.896c-.111-.336-.222-.448-.222-.56z" id="Path" fill="#B45EF4"/><path d="M67.425 113.477l3.55-2.689c.333-.224.888-.224 1.332 0l2.662 1.568c.333.224.333.56-.111.785l-4.659 2.128c-.333.112-.888.112-1.221 0l-1.553-.896c-.222-.336-.222-.672 0-.896z" id="Path" fill="#8A2AE3"/><path d="M61.434 119.638c.555 0 .998-.112 1.442-.336l5.548-3.249c.332-.224.443-.56.221-.896-.221-.336-.554-.448-.887-.224l-5.547 3.249c-.444.224-1.11.224-1.554 0l-9.208-5.377c-.333-.224-.666-.112-.888.224-.222.336-.111.672.222.896l9.209 5.377c.443.224.998.336 1.442.336z" id="Path" fill="#B45EF4"/><path id="Path" fill="url(#radialGradient-2)" d="M8.29 107.763l8.876-5.153-4.992-2.241-4.327 3.025z"/><path d="M65.317 100.033a10.11 10.11 0 01-1.442-.896L44.903 85.133c-3.439-2.577-6.99-3.137-9.653-1.792-.11 0-.11.112-.221.112L8.845 98.801l2.33.784 9.209 4.145 12.426 8.962 9.874 5.265.444.112c2.33-1.904 4.881-3.585 6.324-6.497 2.441-4.257 9.208-5.49 13.202-9.075.444.225.777.449 1.221.673.776-.785.998-1.905 1.442-3.137z" id="Path" fill="#8A2AE3"/><path d="M73.638 93.76c-.444 0-.777.112-1.109.336L46.9 109.107l.887 3.921.999-.448c-1.442 2.353-3.661 3.809-5.769 5.602l2.884.672 25.074-14.676c.111 0 .222-.112.333-.112.333-.224.666-.336.999-.672 1.886-1.456 2.995-4.033 2.995-7.282v-.336c.111-1.232-.665-2.016-1.664-2.016z" id="Path" fill="#721BD5"/><path d="M38.579 82.557c1.553.112 3.328.56 4.992 1.68-1.664-1.008-3.439-1.568-4.992-1.68z" id="Path" fill="#EAEAEA"/><path d="M50.228 110.228v-.337c0-1.008-.776-1.792-1.775-1.792-.998 0-1.775.784-1.775 1.792v.337c0 2.352-.777 4.145-1.997 4.817-1.442.784-3.661.224-5.991-1.457L19.718 99.585c-2.885-2.129-5.88-2.913-8.432-2.241l15.643-9.186L8.845 98.801l2.33.784 9.209 4.145 12.426 8.962 9.874 5.265.444.113c2.33-1.905 4.881-3.585 6.324-6.498.111-.448.443-.784.776-1.344 0 .112 0 .112 0 0z" id="Path" fill="#B45EF4"/><path d="M42.684 119.526c-2.108 0-4.327-.896-6.546-2.465l-19.083-14.003c-2.33-1.681-4.549-2.241-5.991-1.457-1.331.673-1.997 2.465-1.997 4.818 0 1.008-.777 1.792-1.775 1.792-.999 0-1.775-.784-1.775-1.792 0-3.809 1.442-6.61 3.994-7.954 2.774-1.345 6.213-.785 9.652 1.792l18.972 13.892c2.33 1.68 4.549 2.24 5.991 1.456 1.332-.672 1.997-2.465 1.997-4.817v-.336c0-1.009.777-1.793 1.775-1.793.999 0 1.776.784 1.776 1.793v.336c0 3.809-1.443 6.609-3.995 7.954-.887.56-1.997.784-2.995.784z" id="Path" fill="#983BE9"/><path d="M27.706 150.894s-3.55-1.793-5.769.896c-2.219 2.689-5.326 9.074-5.437 13.443-.11 4.37 3.329 4.033 5.437 3.025 2.108-1.008 8.099-9.858 8.432-11.651.333-1.68-.444-4.033-.999-4.481-.443-.56-1.664-1.232-1.664-1.232z" id="Path" fill="#5C5C5C"/><path d="M28.483 149.998l.111 3.697c0 .784-.333 1.568-.999 1.904-.666.336-1.553.672-2.774.448-2.662-.448-2.884-1.232-3.106-4.929-.111-3.697 6.768-1.12 6.768-1.12z" id="Path" fill="#E8A200"/><path d="M14.725 143.724s-3.55-1.792-5.769.896c-2.219 2.689-5.325 9.075-5.436 13.444-.111 4.369 3.328 4.033 5.436 3.025 2.108-1.009 8.099-9.859 8.432-11.651.333-1.681-.444-4.033-.998-4.481-.555-.561-1.665-1.233-1.665-1.233z" id="Path" fill="#5C5C5C"/><path d="M15.502 142.828l.111 3.697c0 .784-.333 1.568-.999 1.904-.665.336-1.553.673-2.773.448-2.663-.448-2.885-1.232-3.107-4.929-.222-3.697 6.768-1.12 6.768-1.12z" id="Path" fill="#E8A200"/><path d="M47.344 74.267c-1.11-17.365-18.639 2.576-18.639 2.576L16.722 88.718 5.85 100.705c-2.108 2.353-3.107 5.49-2.663 8.626l4.327 33.609a3.36 3.36 0 003.328 2.913c.444 0 .999 0 1.664-.112 3.884-.56 3.662-4.369 3.662-4.369l-.777-31.48 22.744-13.78c-.111 0 10.207-4.481 9.209-21.845z" id="Path" fill="#FCCA2E"/><path d="M60.324 80.876c-1.109-17.364-18.639 2.577-18.639 2.577L29.703 95.328l-10.762 11.987c-2.108 2.353-3.106 5.489-2.662 8.626l4.327 33.609a3.359 3.359 0 003.328 2.912c.444 0 .998 0 1.664-.112 3.883-.56 3.661-4.369 3.661-4.369l-.776-31.48 22.744-13.779c-.222 0 10.207-4.481 9.097-21.846z" id="Path" fill="#FCCA2E"/><path d="M50.006 25.198C63.32 30.8 63.098 38.754 63.098 38.754s-2.552 29.127-1.664 48.508c.333 8.178-42.715 8.738-36.28-12.883 7.545-25.543 4.771-46.268 8.321-49.405 3.329-3.137 13.092-1.232 16.531.224z" id="Path" fill="#B12DE8"/><path d="M54.293 32.335c.703-2.756-1.71-5.766-5.389-6.723-3.679-.956-7.231.502-7.934 3.259-.703 2.756 1.709 5.766 5.388 6.722 3.679.957 7.232-.502 7.935-3.258z" id="Path" fill="#FFC2B0"/><path d="M48.675 36.401a9.16 9.16 0 01-2.441-.336c-1.886-.448-3.55-1.568-4.66-2.913-1.109-1.456-1.553-3.025-1.22-4.593.444-1.568 1.553-2.689 3.217-3.473 1.665-.672 3.551-.784 5.437-.224 1.886.448 3.55 1.568 4.66 2.913 1.109 1.456 1.553 3.025 1.22 4.593-.444 1.568-1.553 2.689-3.217 3.473a8.895 8.895 0 01-2.996.56zm-2.108-10.419c-.888 0-1.775.112-2.552.448-1.331.561-2.219 1.457-2.441 2.577-.332 1.12 0 2.353.888 3.473.888 1.12 2.33 2.016 3.994 2.465 1.664.448 3.329.336 4.66-.224 1.331-.561 2.219-1.457 2.441-2.577.333-1.12 0-2.353-.888-3.473-.887-1.12-2.33-2.016-3.994-2.465-.666-.112-1.331-.224-2.108-.224z" id="Shape" fill="#FFF"/><path d="M44.681 24.638s.111.56-.111 4.817c-.111 1.345 4.549 2.577 5.769 1.345 1.221-1.233.666-2.465.999-7.058.222-4.481-6.657.896-6.657.896z" id="Path" fill="#FFC2B0"/><path d="M51.338 23.742s-1.11 4.257-6.768 5.825l.111-3.809 6.657-2.016z" id="Path" fill="#EA9C92"/><path d="M54.888 13.099c1.442 5.489-1.886 11.203-7.322 12.547-5.437 1.457-11.095-1.904-12.426-7.394-1.443-5.489 1.886-11.203 7.322-12.547 5.436-1.344 10.984 1.793 12.426 7.394z" id="Path" fill="#FFC2B0"/><path d="M47.344 16.012s-5.659 2.464-9.542 2.464-2.995-3.248-2.995-3.248l11.538-1.681.999 2.465z" id="Path" fill="#EA9C92"/><path d="M36.582 16.684s4.882-2.128 9.208-1.232c.999.224 1.997.784 2.552 1.568.222.224.444.56.777.56.776.224 1.997-3.024 3.55-3.137 1.442-.112 2.441 1.009 1.221 2.913-1.221 2.017-.777 4.145-.222 4.481.554.336 6.546-4.257 1.22-14.787C49.674-3.481 36.36 2.232 34.252 4.361c0 0-2.219 1.904-3.994.224.111.112-1.886 15.124 6.324 12.099z" id="Path" fill="#5C5C5C"/><path d="M55.554 60.039v7.842c0 .896-.333 1.792-.999 2.353L38.468 85.021l1.775 2.801 21.08-15.46a4.103 4.103 0 001.775-3.025L64.54 55.67l-8.986 4.369z" id="Path" fill="#FFC2B0"/><path d="M61.878 34.833s4.881 7.394 6.657 26.775c0 0-8.321 2.688-12.981 1.12-4.66-1.457 6.324-27.895 6.324-27.895z" id="Path" fill="#983BE9"/><path d="M54.666 44.131s-1.886 10.307-1.997 15.124c0 1.344.777 2.577 1.997 3.025V44.131z" id="Path" fill="#6614CF"/><path d="M50.561 95.216l-3.55-.448-22.855-13.332c-.777-.448-1.997-.336-2.885.112L5.073 90.959l-2.108-.336v2.24c0 .336.111.56.444.784l25.85 15.124c.777.448 1.997.336 2.885-.112l17.641-10.306c.443-.224.665-.673.665-1.009v-2.128h.111z" id="Path" fill="#173D7A"/><path d="M33.364 86.814l-1.664-.897H13.949l-8.765 5.154-2.108-.336v2.128c0 .336.111.56.444.784l25.85 15.124c.333.224.888.336 1.443.224l2.551-22.181z" id="Path" fill="#396CAA"/><path d="M3.964 90.847l-.999-.112v2.128c0 .336.111.56.444.784l.444.224v-3.024h.111z" id="Path" fill="#5793CE"/><path d="M29.592 108.771c.666.224 1.664.224 2.441-.112v-3.697h-2.441v3.809z" id="Path" fill="#274F89"/><path d="M29.371 106.531L3.52 91.407c-.777-.448-.666-1.12.222-1.681l17.64-10.306c.888-.448 2.108-.56 2.885-.112l25.851 15.124c.776.448.665 1.12-.222 1.68l-17.641 10.307c-.887.448-2.219.56-2.884.112z" id="Path" fill="#FFF"/><path d="M28.927 104.29L7.403 91.743c-.555-.336-.555-1.008.222-1.344l9.43-5.378c.666-.448 1.775-.448 2.33-.112l21.524 12.547c.555.337.555 1.009-.222 1.345l-9.431 5.377c-.665.336-1.775.448-2.329.112z" id="Path" fill="#D4ECFF"/><path d="M22.27 78.972l-.222 1.792c-.222 1.569-.222 3.137.111 4.593l.333 1.569a2.419 2.419 0 001.775 1.792c.665.112 1.331-.336 1.442-1.12l.444-3.809s.998 1.344 1.442 1.344c.444 0-.555-3.809-1.553-6.049-1.11-2.129-3.772-.112-3.772-.112z" id="Path" fill="#FFC2B0"/><path d="M31.035 50.404l-2.774 5.602c-.666 1.344-.999 2.801-1.11 4.257l-1.22 18.821-3.661-.112-1.664-21.286c0-.672 0-1.344.11-2.016l1.887-10.755 8.432 5.489z" id="Path" fill="#FFC2B0"/><path d="M28.483 107.987l-2.219-2.913L3.52 91.743c-.777-.448-1.332-1.568-1.332-2.577v-18.82L.857 68.665l1.22-.672c.222-.112.555-.112.888 0l25.851 15.124c.776.448 1.331 1.568 1.331 2.576v20.502c0 .56-.222.896-.444 1.12l-1.22.672z" id="Path" fill="#173D7A"/><path d="M12.728 97.12l-1.664-.896-8.876-15.572V70.458L.857 68.777l1.22-.672c.222-.112.555-.112.888 0l25.851 15.124c.332.224.776.672.998 1.12L12.728 97.12z" id="Path" fill="#396CAA"/><path d="M1.412 69.449l-.555-.784 1.22-.672c.222-.112.555-.112.888 0l.444.224-1.997 1.232z" id="Path" fill="#5793CE"/><path d="M29.037 83.229c.555.448.999 1.344 1.11 2.24l-2.552 1.457-1.22-2.129 2.662-1.568z" id="Path" fill="#274F89"/><path d="M27.595 83.789L1.745 68.665c-.666-.448-1.332 0-1.332 1.008v20.502c0 1.008.555 2.128 1.332 2.576l25.85 15.124c.777.448 1.332 0 1.332-1.008V86.366c0-1.009-.555-2.129-1.332-2.577z" id="Path" fill="#FFF"/><path d="M40.354 87.822l-.444.896c-.444 1.008-1.22 1.793-2.108 2.465l-2.552 1.568c-.776.448-1.775.56-2.662.112h-.111c-.777-.56-.888-1.68-.222-2.352l2.663-2.801s-1.554 1.12-1.886.672c-.333-.336 1.442-2.016 2.773-2.128 1.332 0 2.663-1.121 2.663-1.121l1.886 2.689z" id="Path" fill="#FFC2B0"/><path d="M33.475 24.974s-9.874 10.755-13.757 20.725c0 0 3.328 6.162 11.649 8.515 8.321 2.352 2.108-29.24 2.108-29.24z" id="Path" fill="#983BE9"/><path d="M29.481 53.541l1.554-15.572-3.773 14.564c.666.336 1.443.672 2.219 1.008z" id="Path" fill="#6614CF"/><path d="M40.909 22.734l-2.663-.785s1.22 2.017 3.107 2.465c1.886.56 2.108-1.008 2.108-1.008l-2.552-.672z" id="Path" fill="#FFF"/></g></g></g></svg>