<svg width="478" height="380" xmlns="http://www.w3.org/2000/svg" xmlns:xlink="http://www.w3.org/1999/xlink"><defs><path d="M.71 6.789c0 3.481 89.55 6.303 200.016 6.303s200.017-2.822 200.017-6.303c0-3.48-89.55-6.302-200.017-6.302C90.26.487.71 3.308.71 6.789" id="path-1"/><path id="path-3" d="M0 400.279h477.901V.535H0z"/></defs><g id="Products" stroke="none" stroke-width="1" fill="none" fill-rule="evenodd"><g id="Products_" transform="translate(-832 -101)"><g id="Header"><g id="images/Products_Header" transform="translate(832 101)"><g id="Group-114"><g id="Group-3" transform="translate(47.512 336.997)"><mask id="mask-2" fill="#fff"><use xlink:href="#path-1"/></mask><path d="M200.726 13.092c110.466 0 200.017-2.822 200.017-6.303 0-3.48-89.55-6.302-200.017-6.302C90.26.487.71 3.308.71 6.789c0 3.481 89.55 6.303 200.017 6.303z" id="Fill-1" fill="#E3E3E3" mask="url(#mask-2)"/></g><g id="Group-113" transform="translate(0 .186)"><path d="M153.969 22.25h-21.547c-6.527 0-11.816 5.3-11.816 11.837v15.32c0 5.185 3.331 9.58 7.962 11.182l.378 8.21 10.616-7.553h14.407c6.525 0 11.816-5.3 11.816-11.839v-15.32c0-6.538-5.29-11.838-11.816-11.838" id="Fill-4" fill="#31C5FF"/><path d="M179.998.535h-28.427c-8.61 0-15.588 6.993-15.588 15.619v20.211c0 8.626 6.979 15.618 15.588 15.618h19.007l14.006 9.965.498-10.831c6.11-2.114 10.505-7.913 10.505-14.752V16.154c0-8.626-6.98-15.619-15.589-15.619" id="Fill-6" fill="#FFF"/><path id="Fill-8" fill="#043299" d="M144.827 24.79l11.467-5.917v1.709l-9.664 4.853v.049l9.664 4.853v1.709l-11.467-5.918z"/><path id="Fill-10" fill="#043299" d="M163.143 33.036l6.895-17.951h1.68l-6.919 17.95z"/><path id="Fill-12" fill="#043299" d="M189.985 26.153l-11.467 5.893v-1.709l9.736-4.853v-.05l-9.736-4.852v-1.709l11.467 5.894z"/><path d="M404.806 87.193V278.24a6.942 6.942 0 01-6.946 6.948H108.727a6.94 6.94 0 01-6.936-6.948V87.193c0-.13 0-.26.011-.392.261-5.13 4.359-9.246 9.48-9.507.13-.011.26-.011.39-.011h283.241c.13 0 .262 0 .392.01 5.13.262 9.229 4.368 9.49 9.508.01.131.01.262.01.392" id="Fill-14" fill="#01013D"/><path d="M263.2 270.94c2.85-3.974 1.945-9.511-2.023-12.367a8.834 8.834 0 00-12.344 2.025c-2.851 3.975-1.945 9.512 2.022 12.368a8.834 8.834 0 0012.344-2.026" id="Fill-16" fill="#043299"/><path d="M198.932 343.6l.89-1.37a16.923 16.923 0 0114.195-7.72h84.668a16.924 16.924 0 0114.517 8.236l.512.854H198.932z" id="Fill-18" fill="#01013D"/><path d="M101.788 87.19v159.156h303.013V87.191c0-5.47-4.426-9.903-9.885-9.903H111.673c-5.46 0-9.885 4.434-9.885 9.903" id="Fill-20" fill="#01013D"/><path d="M111.768 92.921v139.155a5.403 5.403 0 005.397 5.408h274.3a5.403 5.403 0 005.397-5.408V92.92a5.403 5.403 0 00-5.397-5.408h-274.3a5.403 5.403 0 00-5.397 5.408" id="Fill-22" fill="#3052E4"/><path id="Fill-24" fill="#01013D" d="M280.63 334.511h-49.228l6.695-49.319h35.838z"/><path d="M396.863 110.612H111.768V90.734a3.218 3.218 0 013.214-3.221h278.666a3.218 3.218 0 013.215 3.22v19.88z" id="Fill-26" fill="#3462F4"/><path d="M357.809 99.063a3.294 3.294 0 00-3.292-3.298 3.294 3.294 0 00-3.29 3.298 3.294 3.294 0 003.29 3.297 3.294 3.294 0 003.292-3.297" id="Fill-28" fill="#FC3E54"/><path d="M370.272 99.063a3.294 3.294 0 00-3.291-3.298 3.294 3.294 0 00-3.291 3.298 3.294 3.294 0 003.291 3.297 3.294 3.294 0 003.291-3.297" id="Fill-30" fill="#03E59F"/><path d="M382.736 99.063a3.294 3.294 0 00-3.291-3.298 3.294 3.294 0 00-3.291 3.298 3.294 3.294 0 003.291 3.297 3.294 3.294 0 003.291-3.297" id="Fill-32" fill="#FFD22E"/><mask id="mask-4" fill="#fff"><use xlink:href="#path-3"/></mask><path id="Fill-34" fill="#FC3E54" mask="url(#mask-4)" d="M131.356 133.17h15.836v-5.809h-15.836z"/><path id="Fill-36" fill="#FFD22E" mask="url(#mask-4)" d="M155.942 133.17h28.572v-5.809h-28.572z"/><path id="Fill-37" fill="#FFF" mask="url(#mask-4)" d="M142.234 145.513h59.345v-5.808h-59.345z"/><path id="Fill-38" fill="#8DABFF" mask="url(#mask-4)" d="M210.33 145.513h15.836v-5.808h-15.837z"/><path id="Fill-39" fill="#FFF" mask="url(#mask-4)" d="M142.234 157.856h59.345v-5.81h-59.345z"/><path id="Fill-40" fill="#8DABFF" mask="url(#mask-4)" d="M210.33 157.856h15.836v-5.81h-15.837z"/><path id="Fill-41" fill="#FFF" mask="url(#mask-4)" d="M142.234 170.199h59.345v-5.81h-59.345z"/><path id="Fill-42" fill="#8DABFF" mask="url(#mask-4)" d="M210.33 170.199h15.836v-5.81h-15.837z"/><path id="Fill-43" fill="#FC3E54" mask="url(#mask-4)" d="M131.356 182.542h15.836v-5.81h-15.836z"/><path id="Fill-44" fill="#FFD22E" mask="url(#mask-4)" d="M155.942 182.542h28.572v-5.81h-28.572z"/><path id="Fill-45" fill="#31C5FF" mask="url(#mask-4)" d="M142.234 194.885h29.673v-5.81h-29.673z"/><path id="Fill-46" fill="#FFF" mask="url(#mask-4)" d="M180.657 194.885h45.509v-5.81h-45.51z"/><path id="Fill-47" fill="#31C5FF" mask="url(#mask-4)" d="M142.234 207.227h29.673v-5.809h-29.673z"/><path id="Fill-48" fill="#FFF" mask="url(#mask-4)" d="M180.657 207.227h45.509v-5.809h-45.51z"/><path id="Fill-49" fill="#31C5FF" mask="url(#mask-4)" d="M142.234 219.57h29.673v-5.808h-29.673z"/><path id="Fill-50" fill="#FFF" mask="url(#mask-4)" d="M180.657 219.57h45.509v-5.808h-45.51z"/><path id="Fill-51" fill="#FFD22E" mask="url(#mask-4)" d="M280.423 133.17h15.837v-5.809h-15.837z"/><path id="Fill-52" fill="#03E59F" mask="url(#mask-4)" d="M305.01 133.17h28.571v-5.809H305.01z"/><path id="Fill-53" fill="#FFF" mask="url(#mask-4)" d="M291.3 145.513h13.71v-5.808H291.3z"/><path id="Fill-54" fill="#31C5FF" mask="url(#mask-4)" d="M313.76 145.513h61.473v-5.808h-61.474z"/><path id="Fill-55" fill="#FFF" mask="url(#mask-4)" d="M291.3 157.856h13.71v-5.81H291.3z"/><path id="Fill-56" fill="#FC3E54" mask="url(#mask-4)" d="M313.76 157.856h61.473v-5.81h-61.474z"/><path id="Fill-57" fill="#FFF" mask="url(#mask-4)" d="M291.3 170.199h13.71v-5.81H291.3z"/><path id="Fill-58" fill="#31C5FF" mask="url(#mask-4)" d="M313.76 170.199h61.473v-5.81h-61.474z"/><path id="Fill-59" fill="#FFD22E" mask="url(#mask-4)" d="M280.423 182.542h15.837v-5.81h-15.837z"/><path id="Fill-60" fill="#03E59F" mask="url(#mask-4)" d="M305.01 182.542h28.571v-5.81H305.01z"/><path id="Fill-61" fill="#31C5FF" mask="url(#mask-4)" d="M291.3 194.885h48.821v-5.81h-48.82z"/><path id="Fill-62" fill="#FFF" mask="url(#mask-4)" d="M348.87 194.885h26.363v-5.81H348.87z"/><path id="Fill-63" fill="#03E59F" mask="url(#mask-4)" d="M291.3 207.227h48.821v-5.809h-48.82z"/><path id="Fill-64" fill="#FFF" mask="url(#mask-4)" d="M348.87 207.227h26.363v-5.809H348.87z"/><path id="Fill-65" fill="#31C5FF" mask="url(#mask-4)" d="M291.3 219.57h48.821v-5.808h-48.82z"/><path id="Fill-66" fill="#FFF" mask="url(#mask-4)" d="M348.87 219.57h26.363v-5.808H348.87z"/><g id="Group-69" mask="url(#mask-4)"><g transform="translate(252.678 124.05)"><path d="M.617.044v104.864" id="Fill-67" stroke="none" fill="#181548" fill-rule="evenodd"/><path d="M.617.044v104.864" id="Stroke-68" stroke="#202D45" stroke-width=".72" fill="none"/></g></g><path d="M61.164 246.47H2.657A2.658 2.658 0 010 243.809v-70.356a2.658 2.658 0 012.657-2.66h58.507a2.659 2.659 0 012.656 2.66v70.356c0 1.47-1.19 2.661-2.656 2.661" id="Fill-70" fill="#043299" mask="url(#mask-4)"/><path id="Fill-71" fill="#FC3E54" mask="url(#mask-4)" d="M13.973 183.116h5.992v-2.475h-5.992z"/><path id="Fill-72" fill="#FFD22E" mask="url(#mask-4)" d="M23.275 183.116h10.812v-2.475H23.275z"/><path id="Fill-73" fill="#FFF" mask="url(#mask-4)" d="M18.088 188.374h22.456V185.9H18.088z"/><path id="Fill-74" fill="#31C5FF" mask="url(#mask-4)" d="M43.855 188.374h5.992v-1.605h-5.992z"/><path id="Fill-75" fill="#FFF" mask="url(#mask-4)" d="M18.088 193.632h22.456v-2.475H18.088z"/><path id="Fill-76" fill="#31C5FF" mask="url(#mask-4)" d="M43.855 193.632h5.992v-1.605h-5.992z"/><path id="Fill-77" fill="#FFF" mask="url(#mask-4)" d="M18.088 198.89h22.456v-2.474H18.088z"/><path id="Fill-78" fill="#31C5FF" mask="url(#mask-4)" d="M43.855 198.89h5.992v-2.474h-5.992z"/><path id="Fill-79" fill="#FC3E54" mask="url(#mask-4)" d="M13.973 204.149h5.992v-2.475h-5.992z"/><path id="Fill-80" fill="#FFD22E" mask="url(#mask-4)" d="M23.275 204.149h10.812v-2.475H23.275z"/><path id="Fill-81" fill="#31C5FF" mask="url(#mask-4)" d="M18.088 209.406h11.228v-2.474H18.088z"/><path id="Fill-82" fill="#FFF" mask="url(#mask-4)" d="M32.627 209.406h17.22v-2.474h-17.22z"/><path id="Fill-83" fill="#31C5FF" mask="url(#mask-4)" d="M18.088 214.665h11.228v-2.475H18.088z"/><path id="Fill-84" fill="#FFF" mask="url(#mask-4)" d="M32.627 214.665h17.22v-2.475h-17.22z"/><path id="Fill-85" fill="#31C5FF" mask="url(#mask-4)" d="M18.088 219.923h11.228v-2.474H18.088z"/><path id="Fill-86" fill="#FFF" mask="url(#mask-4)" d="M32.627 219.923h17.22v-2.474h-17.22z"/><path id="Fill-87" fill="#FFF" mask="url(#mask-4)" d="M18.088 227.58h22.456v-2.474H18.088z"/><path id="Fill-88" fill="#31C5FF" mask="url(#mask-4)" d="M43.855 227.58h5.992v-1.604h-5.992z"/><path id="Fill-89" fill="#FFF" mask="url(#mask-4)" d="M18.088 232.839h22.456v-2.475H18.088z"/><path id="Fill-90" fill="#31C5FF" mask="url(#mask-4)" d="M43.855 232.839h5.992v-1.604h-5.992z"/><path id="Fill-91" fill="#FFF" mask="url(#mask-4)" d="M18.088 238.097h22.456v-2.475H18.088z"/><path id="Fill-92" fill="#31C5FF" mask="url(#mask-4)" d="M43.855 238.097h5.992v-2.475h-5.992z"/><path d="M370.934 363.322c-32.866 0-25.935 3.165-29.358 15.957h68.13c1.526 0 2.561-1.686 1.746-2.977-4.355-6.902-22.948-12.98-40.518-12.98" id="Fill-93" fill="#6E98FF" mask="url(#mask-4)"/><path d="M352.02 364.743c-10.49 0-14.504 5.376-15.15 12.383-.106 1.159.836 2.153 1.998 2.153h39.7c0-8.028-15.007-14.536-26.548-14.536" id="Fill-94" fill="#3462F4" mask="url(#mask-4)"/><path d="M368.352 363.555a29.018 29.018 0 00-6.956-1.443c-1.013-.086-1.004 1.497.002 1.583 2.24.19 4.41.662 6.536 1.387.965.33 1.377-1.2.418-1.527" id="Fill-95" fill="#C0D7FF" mask="url(#mask-4)"/><path d="M448.283 184.314c-7.782 0-14.09-6.32-14.09-14.116 0-7.795 6.308-14.115 14.09-14.115 7.781 0 14.09 6.32 14.09 14.115 0 7.796-6.309 14.116-14.09 14.116zm23.455-9.334v-9.563l-5.791-.983c-.3-.925-.67-1.818-1.105-2.672l3.4-4.799-6.748-6.762-4.79 3.407a18.418 18.418 0 00-2.667-1.106l-.982-5.802h-9.545l-.982 5.802c-.922.3-1.814.67-2.667 1.106l-4.79-3.407-6.749 6.762 3.401 4.799a18.633 18.633 0 00-1.105 2.672l-5.79.983v9.563l5.79.984a18.59 18.59 0 001.105 2.671l-3.4 4.8 6.748 6.76 4.79-3.406c.853.435 1.745.805 2.667 1.107l.982 5.801h9.545l.982-5.801a18.503 18.503 0 002.667-1.107l4.79 3.407 6.749-6.762-3.401-4.799a18.59 18.59 0 001.105-2.671l5.79-.984z" id="Fill-96" fill="#FFF" mask="url(#mask-4)"/><path d="M465.956 145.47c-3.963 0-7.176-3.22-7.176-7.19s3.213-7.189 7.176-7.189 7.176 3.22 7.176 7.19-3.213 7.189-7.176 7.189zm11.945-4.754v-4.87l-2.949-.502a9.48 9.48 0 00-.563-1.36l1.732-2.444-3.437-3.444-2.44 1.735a9.4 9.4 0 00-1.358-.563l-.5-2.955h-4.86l-.5 2.955a9.4 9.4 0 00-1.36.563l-2.438-1.735-3.438 3.444 1.732 2.444a9.48 9.48 0 00-.562 1.36l-2.95.502v4.87l2.95.5c.153.472.341.926.562 1.361l-1.732 2.444 3.438 3.444 2.439-1.735c.435.222.888.41 1.358.564l.5 2.954h4.862l.5-2.954c.47-.154.924-.342 1.359-.564l2.439 1.735 3.437-3.444-1.732-2.444c.221-.435.41-.89.563-1.36l2.949-.501z" id="Fill-97" fill="#FFD22E" mask="url(#mask-4)"/><path d="M443.847 160.335l5.365 5.375a3.671 3.671 0 010 5.185 3.656 3.656 0 01-5.176 0l-5.448-5.46c-2 4.07-1.32 9.126 2.06 12.51 3.073 3.08 7.525 3.917 11.362 2.538l14.225 14.252c1.792 1.796 4.736 1.978 6.58.238a4.644 4.644 0 00.103-6.658l-14.363-14.389c1.376-3.843.54-8.304-2.533-11.383-3.294-3.3-8.17-4.027-12.175-2.208" id="Fill-98" fill="#6582FF" mask="url(#mask-4)"/><path d="M468.089 190.263a1.613 1.613 0 01-2.283 0l-9.151-9.168a1.621 1.621 0 010-2.287 1.612 1.612 0 012.283 0l9.15 9.167a1.62 1.62 0 010 2.288" id="Fill-99" fill="#A9C4FF" mask="url(#mask-4)"/><path d="M367.965 269.461l-3.13-17.208h24.795l3.13 17.208h-24.795zm28.155-23.11l-1.62-8.865-1.783-9.79h-7.566l1.783 9.79 1.315 7.187h-24.806l-1.305-7.187-1.782-9.79h-7.577l1.783 9.79 1.315 7.187.304 1.678 1.077 5.902 3.13 17.208 1.392 7.58 1.478 8.146h7.566l-1.479-8.146h24.796l1.489 8.146h7.566l-7.076-38.836z" id="Fill-100" fill="#16168B" mask="url(#mask-4)"/><path id="Fill-101" fill="#6BC5FC" mask="url(#mask-4)" d="M412.094 343.6h7.572l-21.123-115.91h-7.571z"/><path id="Fill-102" fill="#6BC5FC" mask="url(#mask-4)" d="M379.725 343.6h7.572l-21.123-115.91h-7.571z"/><path id="Fill-103" fill="#6BC5FC" mask="url(#mask-4)" d="M416.437 326.62l-1.382-7.585h-39.807l1.383 7.586z"/><path id="Fill-104" fill="#6BC5FC" mask="url(#mask-4)" d="M411.92 301.832l-1.383-7.586h-39.805l1.382 7.586z"/><path id="Fill-105" fill="#6BC5FC" mask="url(#mask-4)" d="M407.402 277.043l-1.382-7.585h-39.806l1.383 7.585z"/><path id="Fill-106" fill="#6BC5FC" mask="url(#mask-4)" d="M402.885 252.255l-1.382-7.586h-39.806l1.382 7.586z"/><path d="M123.39 219.57v-15.506h-2.175v15.506c0 4.348-3.53 7.885-7.87 7.885H68.004v2.179h45.341c5.538 0 10.044-4.515 10.044-10.064" id="Fill-107" fill="#03E59F" mask="url(#mask-4)"/><path d="M63.837 231.63a3.087 3.087 0 000-6.172 3.087 3.087 0 000 6.172m0 2.178c-2.897 0-5.255-2.361-5.255-5.264 0-2.902 2.358-5.264 5.255-5.264 2.896 0 5.254 2.362 5.254 5.264 0 2.903-2.358 5.264-5.254 5.264" id="Fill-108" fill="#03E59F" mask="url(#mask-4)"/><path d="M122.302 202.654a3.087 3.087 0 000-6.172 3.086 3.086 0 000 6.172m0 2.178c-2.896 0-5.254-2.362-5.254-5.264 0-2.903 2.358-5.264 5.254-5.264 2.897 0 5.254 2.361 5.254 5.264 0 2.902-2.357 5.264-5.254 5.264" id="Fill-109" fill="#03E59F" mask="url(#mask-4)"/><path d="M243.234 94.747h-2.174V33.471c0-4.348-3.53-7.885-7.87-7.885h-21.41v-2.178h21.411c5.538 0 10.044 4.514 10.044 10.063v61.276z" id="Fill-110" fill="#03E59F" mask="url(#mask-4)"/><path d="M207.612 21.411a3.086 3.086 0 000 6.172 3.087 3.087 0 000-6.172m0 8.35c-2.897 0-5.254-2.361-5.254-5.263 0-2.903 2.357-5.265 5.254-5.265 2.896 0 5.254 2.362 5.254 5.265 0 2.902-2.358 5.263-5.254 5.263" id="Fill-111" fill="#03E59F" mask="url(#mask-4)"/><path d="M242.147 96.158a3.087 3.087 0 000 6.171 3.086 3.086 0 000-6.171m0 8.35c-2.897 0-5.254-2.362-5.254-5.264 0-2.903 2.357-5.264 5.254-5.264 2.897 0 5.254 2.36 5.254 5.264 0 2.902-2.357 5.263-5.254 5.263" id="Fill-112" fill="#03E59F" mask="url(#mask-4)"/></g></g></g></g></g></g></svg>