<?xml version="1.0" encoding="UTF-8"?>
<svg width="427px" height="362px" viewBox="0 0 427 362" version="1.1" xmlns="http://www.w3.org/2000/svg" xmlns:xlink="http://www.w3.org/1999/xlink">
    <!-- Generator: Sketch 54.1 (76490) - https://sketchapp.com -->
    <title>Mobile VPN Change Your Mobile Phone Ip</title>
    <desc>Created with Sketch.</desc>
    <g id="Page-1" stroke="none" stroke-width="1" fill="none" fill-rule="evenodd">
        <g id="Mobile-VPN-Change-Your-Mobile-Phone-Ip">
            <g id="header_splash_phone_protect1">
                <path d="M386.971,259.482 C391.567,254.554 396.544,248.929 401.377,242.677 C402.14,241.7 402.899,240.701 403.653,239.681 C405.695,236.926 407.698,234.063 409.603,231.096 C419.548,215.684 427.228,197.439 426.87,177.193 C426.86,176.661 426.844,176.132 426.819,175.604 C426.824,175.549 426.82,175.496 426.818,175.442 C426.748,173.648 426.606,171.87 426.406,170.11 C426.408,170.087 426.406,170.071 426.401,170.05 C425.076,158.224 421.032,147.175 415.367,137.056 C415.278,136.889 415.191,136.73 415.095,136.564 C413.978,134.585 412.788,132.636 411.546,130.729 C411.249,130.257 410.945,129.795 410.634,129.334 C410.32,128.857 409.998,128.383 409.676,127.908 C405.305,121.563 400.372,115.644 395.205,110.189 C393.529,108.426 391.833,106.713 390.126,105.057 C387.663,102.653 385.161,100.364 382.674,98.181 C379.105,95.055 375.544,92.1587 372.084,89.4884 C359.955,80.1409 341.362,67.1817 320.02,62.68 C294.183,57.2288 265.828,65.4782 246.169,83.121 C242.038,86.8173 238.293,90.9281 235.034,95.418 C234.085,96.727 233.158,98.0774 232.276,99.4495 C230.143,102.702 228.153,106.072 226.207,109.364 C226.202,109.38 226.196,109.389 226.184,109.407 C220.889,118.397 215.429,127.668 207.33,134.1 C206.602,134.683 205.852,135.24 205.073,135.771 C202.688,137.414 200.111,138.804 197.341,139.933 C192.067,142.095 186.093,143.33 179.365,143.644 C178.586,143.682 177.788,143.707 176.988,143.718 C170.618,143.821 163.602,143.144 155.892,141.684 C151.539,140.859 147.112,139.865 142.831,138.903 C132.568,136.595 122.001,134.225 111.37,133.987 C109.296,133.928 107.227,133.961 105.156,134.095 C85.1216,135.341 67.8245,145.342 54.6995,156.227 C53.7383,157.027 52.7986,157.824 51.8842,158.631 C48.6472,161.463 45.7007,164.32 43.0616,167.059 C41.9179,168.246 40.7112,169.545 39.456,170.948 C26.7491,185.169 9.56255,210.128 11.7736,239.365 C12.858,253.806 18.5838,268.262 29.1471,283.118 C31.3879,286.271 33.8489,289.444 36.531,292.638 C37.0624,292.674 37.5948,292.708 38.1262,292.743 C35.2569,289.37 32.635,286.02 30.2639,282.694 C19.7042,267.93 13.9936,253.587 12.9146,239.284 C10.7692,210.891 27.2364,186.521 39.7482,172.364 C41.1923,170.721 42.5887,169.22 43.8916,167.861 C46.3768,165.278 49.1355,162.599 52.1503,159.921 C53.7437,158.518 55.4062,157.109 57.1434,155.722 C63.371,150.735 70.4716,146.016 78.3159,142.357 C86.5324,138.52 95.56,135.845 105.23,135.239 C107.798,135.079 110.366,135.067 112.936,135.185 C122.927,135.611 132.889,137.85 142.584,140.028 C146.872,140.988 151.309,141.989 155.678,142.818 C162.094,144.027 168.039,144.708 173.539,144.848 C174.789,144.883 176.019,144.892 177.223,144.859 C186.929,144.694 195.168,142.722 202.086,138.953 C203.342,138.268 204.554,137.524 205.724,136.718 C206.657,136.078 207.56,135.405 208.425,134.693 C216.358,128.242 221.75,119.2 226.95,110.384 C227.023,110.254 227.105,110.129 227.179,109.998 C229.048,106.822 230.965,103.576 232.997,100.443 C233.959,98.963 234.948,97.5072 235.969,96.0982 C239.124,91.746 242.748,87.7524 246.736,84.1471 C266.134,66.6277 294.211,58.4125 319.79,63.8097 C340.897,68.2592 359.346,81.1166 371.384,90.3983 C374.716,92.9712 378.145,95.7559 381.58,98.7549 C383.847,100.729 386.126,102.8 388.376,104.955 C390.291,106.793 392.195,108.693 394.067,110.656 C399.049,115.886 403.821,121.554 408.065,127.616 C408.992,128.931 409.892,130.267 410.759,131.625 C411.06,132.073 411.348,132.539 411.635,132.997 C412.501,134.387 413.338,135.791 414.139,137.209 C414.227,137.368 414.312,137.522 414.397,137.674 C419.948,147.608 423.915,158.432 425.241,170.003 C425.243,170.011 425.244,170.018 425.244,170.018 C425.444,171.77 425.584,173.541 425.659,175.325 C425.662,175.379 425.667,175.44 425.67,175.493 C425.709,176.389 425.731,177.288 425.73,178.177 C425.831,197.589 418.451,215.152 408.884,230.078 C407.121,232.838 405.28,235.512 403.395,238.088 C402.523,239.288 401.638,240.467 400.749,241.617 C395.853,247.974 390.796,253.701 386.131,258.697 C385.189,259.711 384.305,260.666 383.474,261.572 C373.58,272.396 371.375,276.587 370.941,288.373 C371.33,288.329 371.719,288.284 372.106,288.24 C372.551,277.078 374.71,272.916 384.001,262.707 C384.918,261.691 385.909,260.621 386.971,259.482 Z" id="Path" fill="#DAEBFE"></path>
                <path d="M369.617,264.186 C372.032,260.882 375.191,257.263 379.313,252.842 C379.394,252.748 379.482,252.652 379.565,252.566 C385.603,246.096 390.873,239.831 395.4,233.712 C397.569,230.792 399.574,227.897 401.407,225.031 C401.933,224.212 402.442,223.388 402.945,222.566 C407.613,214.918 411.069,207.49 413.354,200.189 C414.787,195.604 415.766,191.067 416.287,186.556 C416.338,186.128 416.389,185.7 416.425,185.276 C416.448,185.054 416.473,184.833 416.489,184.613 C416.75,181.685 416.812,178.767 416.699,175.854 C416.615,173.801 416.436,171.768 416.16,169.753 C416.142,169.595 416.118,169.438 416.092,169.273 C416.094,169.25 416.09,169.227 416.085,169.205 C415.123,162.435 413.134,155.929 410.398,149.727 C410.322,149.548 410.249,149.379 410.168,149.21 C410.119,149.088 410.065,148.976 410.011,148.864 C409.882,148.574 409.753,148.284 409.617,148.002 C409.481,147.713 409.344,147.425 409.2,147.138 C408.191,145.012 407.083,142.931 405.906,140.887 C402.563,135.079 398.621,129.58 394.336,124.439 C391.503,121.029 388.519,117.782 385.467,114.696 C383.08,112.292 380.661,109.986 378.225,107.793 C376.859,106.56 375.494,105.366 374.136,104.202 C371.355,101.832 368.596,99.6044 365.898,97.527 C347.628,83.4354 332.832,75.7509 317.935,72.6068 C310.334,71.0006 302.401,70.7069 294.364,71.7402 C277.054,73.9627 260.698,82.2382 249.079,94.3955 C246.964,96.6018 245.013,98.936 243.232,101.382 C240.311,105.408 237.702,109.826 234.928,114.532 C234.914,114.543 234.911,114.559 234.904,114.568 C233.057,117.7 231.193,120.867 229.2,123.967 C229.194,123.976 229.18,123.986 229.177,124.003 C226.703,127.843 224.039,131.585 220.972,135.053 C218.372,137.986 215.486,140.722 212.182,143.15 C211.733,143.483 211.275,143.809 210.809,144.129 C207.989,146.064 204.95,147.719 201.704,149.084 C196.866,151.119 191.566,152.514 185.866,153.243 C180.512,153.931 174.819,154.055 168.676,153.609 C164.062,153.279 159.188,152.624 154.017,151.652 C151.759,151.222 149.502,150.753 147.258,150.274 C145.021,149.793 142.795,149.294 140.61,148.803 C132.226,146.918 124.165,145.105 116.248,144.406 C112.734,144.089 109.249,143.997 105.781,144.212 C104.547,144.288 103.275,144.412 102.019,144.571 C94.0329,145.594 86.5223,148.211 79.6563,151.707 C75.0382,154.059 70.7024,156.801 66.7111,159.719 C62.0885,163.092 57.9146,166.697 54.2676,170.2 C52.8883,171.521 51.5827,172.825 50.3554,174.098 C47.8431,176.704 44.9802,179.891 42.0588,183.577 C31.5252,196.847 20.2083,216.545 21.8736,238.6 C22.8968,252.143 28.7611,265.921 39.6931,280.362 C42.9715,284.699 46.7201,289.103 50.9281,293.57 C51.491,293.606 52.0548,293.641 52.6176,293.675 C48.2621,289.11 44.384,284.622 41.0014,280.191 C29.9534,265.753 24.0388,251.992 23.0146,238.519 C21.4078,217.232 32.1303,198.136 42.3618,185.052 C45.4648,181.081 48.5265,177.659 51.1844,174.901 C52.2463,173.801 53.3639,172.667 54.5427,171.534 C58.1754,168.003 62.3421,164.361 66.9646,160.949 C71.0648,157.924 75.5201,155.088 80.2857,152.666 C87.0177,149.267 94.3575,146.717 102.162,145.716 C103.395,145.554 104.637,145.437 105.856,145.363 C109.368,145.139 112.909,145.243 116.489,145.577 C124.225,146.299 132.147,148.07 140.378,149.925 C141.738,150.231 143.114,150.542 144.496,150.844 C147.562,151.525 150.677,152.187 153.801,152.778 C158.162,153.601 162.313,154.196 166.28,154.567 C173.394,155.231 179.918,155.166 186.009,154.388 C193.558,153.416 200.411,151.313 206.449,148.104 C208.19,147.189 209.857,146.18 211.46,145.076 C212.406,144.425 213.311,143.759 214.193,143.059 C217.436,140.52 220.264,137.687 222.815,134.673 C227.963,128.603 231.98,121.801 235.914,115.125 C238.666,110.461 241.26,106.047 244.158,102.057 C245.751,99.8576 247.495,97.7594 249.36,95.7595 C260.84,83.4841 277.19,75.1086 294.507,72.8852 C302.418,71.8699 310.224,72.151 317.696,73.7302 C332.423,76.8392 347.066,84.4552 365.198,98.436 C367.851,100.485 370.571,102.674 373.304,104.999 C374.626,106.132 375.961,107.293 377.28,108.49 C379.684,110.643 382.073,112.909 384.418,115.268 C387.145,118.011 389.813,120.883 392.368,123.88 C394.3,126.138 396.169,128.472 397.947,130.879 C398.405,131.488 398.848,132.106 399.292,132.726 C401.354,135.615 403.281,138.601 405.034,141.677 C406.299,143.881 407.472,146.127 408.546,148.417 C408.694,148.726 408.837,149.044 408.971,149.356 C409.249,149.956 409.51,150.551 409.766,151.155 C410.006,151.723 410.245,152.284 410.47,152.848 C410.584,153.142 410.7,153.442 410.814,153.735 C412.486,158.064 413.776,162.527 414.584,167.127 C414.615,167.275 414.645,167.416 414.66,167.568 C414.951,169.207 415.169,170.862 415.32,172.531 C415.426,173.645 415.503,174.772 415.55,175.898 C415.685,179.286 415.573,182.677 415.188,186.087 C414.514,192.145 413.008,198.251 410.647,204.471 C408.525,210.094 405.699,215.815 402.149,221.664 C401.828,222.202 401.492,222.742 401.14,223.285 C399.196,226.399 397.044,229.556 394.679,232.756 C390.142,238.909 384.843,245.218 378.762,251.743 C378.749,251.753 378.737,251.771 378.724,251.781 C375.405,255.342 372.692,258.389 370.47,261.166 C364.358,268.818 362.02,274.438 361.169,283.191 C360.985,285.114 360.873,287.199 360.807,289.485 C361.19,289.444 361.578,289.405 361.96,289.363 C362.041,286.702 362.19,284.315 362.449,282.138 C363.282,275.167 365.227,270.184 369.617,264.186 Z" id="Path" fill="#DAEBFE"></path>
                <path d="M372.164,245.641 C373.094,244.646 374.007,243.646 374.9,242.666 C380.186,236.815 384.781,231.169 388.713,225.681 C391.323,222.053 393.638,218.492 395.665,214.99 C395.886,214.604 396.109,214.226 396.316,213.844 C396.882,212.846 397.42,211.862 397.927,210.876 C401.258,204.494 403.61,198.298 405.023,192.234 C405.127,191.804 405.224,191.374 405.313,190.946 C405.38,190.631 405.445,190.309 405.503,189.996 C406.408,185.358 406.765,180.795 406.58,176.267 C406.392,171.685 405.633,167.206 404.403,162.848 C403.923,161.123 403.363,159.415 402.736,157.721 C402.616,157.398 402.495,157.076 402.366,156.747 C401.185,153.715 399.794,150.742 398.216,147.845 C393.237,138.659 386.481,130.218 379.189,122.737 C378.289,121.818 377.387,120.922 376.479,120.036 C375.328,118.906 374.159,117.803 372.996,116.73 C372.615,116.376 372.234,116.03 371.856,115.69 C371.418,115.287 370.974,114.891 370.529,114.497 C369.31,113.411 368.09,112.358 366.873,111.326 C364.463,109.289 362.06,107.367 359.719,105.556 C342.717,92.4465 329.182,85.3431 315.843,82.5269 C309.354,81.1549 302.559,80.9117 295.648,81.7981 C278.061,84.0539 261.654,93.4681 251.678,107.009 C251.592,107.12 251.508,107.23 251.429,107.339 C248.772,111.002 246.279,115.233 243.63,119.721 C241.297,123.679 238.857,127.83 236.082,131.934 C233.417,135.892 230.45,139.811 226.99,143.477 C226.839,143.639 226.687,143.802 226.534,143.957 C223.594,147.029 220.305,149.91 216.546,152.495 C215.655,153.111 214.741,153.702 213.816,154.264 C206.053,158.996 197.109,162.032 187.152,163.308 C181.144,164.077 174.799,164.221 167.989,163.726 C162.976,163.37 157.705,162.659 152.133,161.614 C151.981,161.584 151.828,161.554 151.675,161.523 C147.136,160.66 142.709,159.666 138.428,158.704 C132.998,157.483 127.729,156.299 122.617,155.462 C121.194,155.223 119.792,155.01 118.399,154.842 C114.27,154.319 110.271,154.094 106.416,154.333 C105.387,154.399 104.343,154.499 103.306,154.635 C96.9745,155.449 90.9304,157.469 85.3133,160.213 C84.2532,160.725 83.2075,161.266 82.1825,161.832 C78.9976,163.572 75.9711,165.518 73.1171,167.584 C67.1161,171.912 61.8821,176.741 57.648,181.138 C57.3432,181.456 57.0384,181.774 56.7219,182.11 C53.1054,185.947 48.8048,191 44.8116,196.94 C37.2811,208.114 30.8126,222.461 31.9734,237.837 C32.9211,250.413 38.9787,263.518 50.3954,277.611 C53.769,281.774 57.6075,286.02 61.9298,290.366 C61.9702,290.412 62.0197,290.463 62.0665,290.507 C63.3909,291.839 64.7325,293.158 66.0902,294.466 C66.6827,294.5 67.2744,294.534 67.8669,294.566 C66.2251,292.998 64.5976,291.42 63.0052,289.819 C62.9593,289.782 62.9189,289.736 62.8802,289.698 C58.6074,285.404 54.803,281.213 51.4636,277.105 C40.0847,263.119 34.0567,250.156 33.1225,237.754 C32.0147,223.125 37.9852,209.398 45.138,198.525 C49.0664,192.53 53.3599,187.409 57.0267,183.477 C57.5257,182.941 58.0077,182.432 58.477,181.941 C59.5704,180.803 60.7276,179.637 61.9523,178.465 L61.972,178.446 C62.2921,178.132 62.6212,177.817 62.9593,177.508 C66.0677,174.579 69.5601,171.602 73.3716,168.821 C76.2156,166.742 79.2449,164.773 82.4252,163.012 C83.8657,162.212 85.3385,161.459 86.8374,160.756 C88.1124,160.16 89.4108,159.606 90.7254,159.096 C94.7968,157.505 99.0552,156.333 103.447,155.773 C104.462,155.641 105.484,155.545 106.483,155.487 C110.384,155.237 114.447,155.48 118.642,156.028 C119.261,156.108 119.88,156.189 120.502,156.285 L120.504,156.293 C126.17,157.123 132.086,158.452 138.179,159.821 C142.05,160.698 146.039,161.59 150.132,162.391 C150.728,162.514 151.324,162.631 151.927,162.747 C156.134,163.539 160.179,164.14 164.073,164.534 C172.426,165.406 180.098,165.367 187.301,164.444 C198.514,163.009 208.477,159.368 216.925,153.622 C217.013,153.565 217.1,153.5 217.189,153.443 C221.49,150.492 225.179,147.158 228.433,143.619 C228.451,143.6 228.471,143.581 228.488,143.554 C231.994,139.739 234.994,135.682 237.689,131.602 C240.208,127.798 242.46,123.972 244.623,120.304 C247.127,116.054 249.501,112.025 251.992,108.536 C252.11,108.358 252.238,108.192 252.357,108.021 C262.131,94.5519 278.376,85.171 295.791,82.9422 C302.573,82.0675 309.245,82.3125 315.603,83.6503 C328.765,86.4341 342.155,93.4663 359.018,106.465 C361.332,108.252 363.7,110.158 366.082,112.17 C367.381,113.261 368.686,114.39 369.983,115.551 C370.482,115.989 370.975,116.436 371.463,116.892 C371.907,117.287 372.346,117.691 372.776,118.096 C373.692,118.943 374.595,119.807 375.502,120.686 C376.622,121.777 377.731,122.892 378.831,124.032 C385.949,131.386 392.509,139.659 397.338,148.637 C398.907,151.534 400.284,154.511 401.443,157.555 C401.574,157.884 401.695,158.214 401.818,158.544 C402.43,160.241 402.984,161.959 403.45,163.694 C404.565,167.797 405.256,172.012 405.432,176.311 C405.619,180.892 405.246,185.521 404.283,190.216 C404.217,190.57 404.136,190.926 404.063,191.282 C403.948,191.807 403.817,192.337 403.687,192.866 C402.365,198.215 400.301,203.664 397.458,209.273 C396.872,210.437 396.249,211.609 395.596,212.787 C395.336,213.25 395.071,213.722 394.804,214.186 C392.797,217.668 390.502,221.209 387.918,224.818 L387.919,224.826 C384.283,229.911 380.065,235.14 375.252,240.546 C373.986,241.974 372.676,243.404 371.323,244.857 C358.339,258.78 353.364,266.737 351.56,278.7 C351.025,282.211 350.77,286.067 350.665,290.52 C351.048,290.482 351.434,290.445 351.816,290.407 C351.92,286.305 352.157,282.715 352.631,279.437 C354.349,267.399 359.21,259.528 372.164,245.641 Z" id="Path" fill="#DAEBFE"></path>
                <path d="M251.384,128.774 C252.061,127.638 252.717,126.513 253.364,125.422 C253.891,124.533 254.412,123.652 254.929,122.789 C256.853,119.54 258.707,116.515 260.554,113.978 C268.717,102.727 282.376,94.8847 297.084,92.9982 C302.738,92.2712 308.266,92.4667 313.52,93.5766 C325.115,96.027 337.242,102.478 352.833,114.503 C355.943,116.898 359.153,119.518 362.356,122.326 C364.052,123.816 365.744,125.359 367.416,126.953 C368.059,127.57 368.704,128.186 369.336,128.821 C370.304,129.772 371.259,130.742 372.203,131.721 C372.913,132.47 373.615,133.222 374.312,133.982 C374.35,134.013 374.381,134.053 374.411,134.086 C380.424,140.678 385.801,147.936 389.591,155.653 C390.505,157.504 391.323,159.382 392.039,161.282 C392.134,161.517 392.223,161.762 392.311,161.999 C392.936,163.724 393.474,165.475 393.915,167.238 C394.694,170.346 395.177,173.514 395.306,176.725 C395.484,181.186 395.009,185.734 393.858,190.414 C393.854,190.43 393.851,190.455 393.839,190.472 C393.689,191.091 393.523,191.712 393.344,192.336 C393.206,192.828 393.06,193.322 392.908,193.817 L393.477,195.755 C393.782,194.873 394.064,193.995 394.308,193.126 C394.541,192.344 394.753,191.574 394.949,190.8 C394.966,190.734 394.976,190.67 394.995,190.612 C396.16,185.851 396.64,181.217 396.453,176.674 C396.319,173.441 395.841,170.256 395.072,167.123 C394.65,165.41 394.13,163.709 393.535,162.024 C393.426,161.722 393.317,161.412 393.201,161.112 C392.417,158.994 391.5,156.904 390.481,154.843 C386.587,147.032 381.126,139.706 375.026,133.062 C374.685,132.684 374.338,132.307 373.99,131.932 C373.27,131.169 372.551,130.413 371.82,129.675 C370.941,128.783 370.056,127.899 369.161,127.034 L368.293,126.193 C366.363,124.351 364.406,122.575 362.451,120.878 C359.452,118.267 356.449,115.835 353.541,113.592 C337.796,101.459 325.531,94.936 313.751,92.455 C308.377,91.3163 302.716,91.1172 296.935,91.8622 C281.918,93.7892 267.972,101.806 259.621,113.305 C257.962,115.594 256.303,118.255 254.585,121.121 C253.856,122.337 253.112,123.596 252.357,124.88 C251.551,126.244 250.721,127.652 249.852,129.09 C247.613,132.837 245.152,136.776 242.325,140.697 L243.976,140.356 C246.747,136.423 249.163,132.494 251.384,128.774 Z" id="Path" fill="#DAEBFE"></path>
                <path d="M389.126,203.298 C388.46,204.671 387.75,206.054 386.981,207.457 C387.277,207.698 387.583,207.943 387.886,208.182 C388.597,206.907 389.255,205.644 389.868,204.389 C391.309,201.456 392.515,198.58 393.476,195.755 L392.908,193.817 C391.941,196.914 390.684,200.071 389.126,203.298 Z" id="Path" fill="#DAEBFE"></path>
                <path d="M240.257,145.343 C239.831,145.261 239.399,145.188 238.973,145.106 C237.673,146.734 236.29,148.341 234.826,149.925 L236.736,149.531 C237.973,148.155 239.143,146.754 240.257,145.343 Z" id="Path" fill="#DAEBFE"></path>
                <path d="M243.976,140.356 L242.326,140.697 C241.262,142.168 240.146,143.642 238.974,145.106 C239.4,145.188 239.831,145.26 240.257,145.342 C241.568,143.688 242.799,142.021 243.976,140.356 Z" id="Path" fill="#DAEBFE"></path>
                <path d="M216.349,165.81 C218.621,164.591 220.809,163.258 222.924,161.801 C228.293,158.112 232.817,153.925 236.736,149.531 L234.826,149.925 C231.208,153.832 227.081,157.551 222.274,160.854 C219.029,163.085 215.588,165.039 211.973,166.713 C210.686,167.318 209.374,167.883 208.039,168.406 L208.274,169.547 C211.066,168.454 213.758,167.209 216.349,165.81 Z" id="Path" fill="#DAEBFE"></path>
                <path d="M351.614,254.721 C354.865,249.862 359.15,244.736 364.757,238.725 C371.395,231.607 376.953,224.865 381.459,218.418 C383.91,214.921 386.049,211.513 387.887,208.182 C387.583,207.943 387.278,207.697 386.981,207.458 C385.163,210.768 383.044,214.157 380.603,217.636 C376.117,224.072 370.56,230.813 363.917,237.941 C358.334,243.923 354.048,249.042 350.769,253.884 C346.784,259.752 344.288,265.204 342.751,271.309 C341.288,277.133 340.698,283.564 340.528,291.478 C340.911,291.443 341.296,291.409 341.679,291.374 C341.848,283.91 342.393,277.79 343.731,272.243 C345.207,266.073 347.654,260.6 351.614,254.721 Z" id="Path" fill="#DAEBFE"></path>
                <path d="M70.0576,282.537 C66.2631,278.731 62.8832,275.024 59.9043,271.429 C49.5019,258.85 44.0152,247.504 43.2221,236.99 C42.367,225.685 46.8574,214.737 52.5671,205.661 C56.8669,198.808 61.8644,193.024 65.7686,188.973 C68.6054,186.031 71.9278,182.864 75.644,179.849 C79.5167,176.692 83.8228,173.694 88.4247,171.268 C89.1485,170.887 89.8768,170.52 90.6142,170.167 C94.4014,168.357 98.373,166.958 102.47,166.197 C103.226,166.048 103.98,165.924 104.74,165.829 C105.537,165.726 106.34,165.653 107.118,165.608 C108.558,165.52 110.061,165.511 111.61,165.576 L111.62,165.583 C114.531,165.7 117.611,166.076 120.822,166.603 C125.633,167.403 130.722,168.539 135.959,169.72 C136.435,169.823 136.914,169.933 137.392,170.043 C137.65,170.098 137.917,170.159 138.184,170.22 C141.995,171.071 145.93,171.927 150.043,172.709 C157.398,174.094 164.3,174.926 170.856,175.202 C177.052,175.461 182.932,175.228 188.587,174.501 C191.639,174.11 194.624,173.571 197.514,172.882 C201.24,172.011 204.833,170.9 208.274,169.548 L208.039,168.406 C204.599,169.766 201.008,170.885 197.284,171.763 C194.414,172.44 191.468,172.979 188.437,173.365 C184.406,173.881 180.263,174.149 175.956,174.149 C167.973,174.175 159.476,173.318 150.258,171.582 C146.772,170.919 143.406,170.2 140.138,169.476 C139.887,169.42 139.645,169.369 139.403,169.311 C138.325,169.07 137.258,168.835 136.206,168.596 C130.799,167.379 125.54,166.201 120.575,165.403 C117.651,164.925 114.834,164.587 112.143,164.447 L112.127,164.45 C110.371,164.357 108.673,164.352 107.043,164.457 C106.242,164.506 105.417,164.584 104.591,164.693 C103.801,164.794 103.016,164.918 102.236,165.063 C98.1572,165.836 94.2036,167.209 90.4244,168.985 C89.6502,169.347 88.8869,169.728 88.128,170.124 C86.7127,170.865 85.3253,171.661 83.9703,172.497 C83.4353,172.824 82.9021,173.158 82.385,173.496 C79.9285,175.093 77.588,176.812 75.3824,178.582 C71.4441,181.752 67.923,185.082 64.9413,188.179 C60.9158,192.355 55.7456,198.351 51.3308,205.468 C45.6472,214.631 41.2107,225.653 42.0739,237.072 C42.893,247.829 48.4633,259.396 59.0294,272.166 C62.0308,275.796 65.4305,279.521 69.2456,283.353 C69.9065,284.013 70.5683,284.68 71.2364,285.338 C74.6882,288.725 78.2696,292.043 81.9418,295.304 C82.5505,295.334 83.1583,295.365 83.767,295.394 C79.8116,291.91 75.9641,288.358 72.2605,284.724 C71.5232,283.995 70.7868,283.268 70.0576,282.537 Z" id="Path" fill="#DAEBFE"></path>
                <path d="M247.333,37.973 L204.891,37.973 C203.239,37.973 201.9,36.6307 201.9,34.9758 C201.9,33.32 203.239,31.9786 204.891,31.9786 L247.333,31.9786 C248.985,31.9786 250.325,33.32 250.325,34.9758 C250.325,36.6307 248.985,37.973 247.333,37.973 Z M226.112,16.3375 C228.022,16.3375 229.571,17.8888 229.571,19.8032 C229.571,21.7175 228.022,23.2689 226.112,23.2689 C224.202,23.2689 222.653,21.7175 222.653,19.8032 C222.653,17.8888 224.202,16.3375 226.112,16.3375 Z M337.275,11.9808 C335.337,9.24394 332.969,6.87012 330.283,4.97467 C325.825,1.82969 320.485,0 314.747,0 L137.478,0 C121.872,0 109.222,13.5321 109.222,30.2255 L109.222,296.493 C112.717,296.625 116.22,296.747 119.728,296.863 L119.728,60.0771 L332.496,60.0771 L332.496,292.186 C336.042,291.885 339.546,291.573 343.003,291.253 L343.003,30.2255 C343.003,23.3725 340.87,17.0519 337.275,11.9808 Z" id="Shape" fill="#01013D"></path>
                <path d="M247.333,31.9785 L204.891,31.9785 C203.239,31.9785 201.9,33.3208 201.9,34.9757 C201.9,36.6307 203.239,37.973 204.891,37.973 L247.333,37.973 C248.985,37.973 250.325,36.6307 250.325,34.9757 C250.325,33.3208 248.985,31.9785 247.333,31.9785 Z" id="Path" fill="#181548"></path>
                <path d="M226.112,23.2685 C228.023,23.2685 229.571,21.7172 229.571,19.8028 C229.571,17.8894 228.023,16.3372 226.112,16.3372 C224.201,16.3372 222.653,17.8894 222.653,19.8028 C222.653,21.7172 224.201,23.2685 226.112,23.2685 Z" id="Path" fill="#181548"></path>
                <path d="M119,60 L119,296.852 C128.201,297.153 137.444,297.4 146.734,297.581 C218.842,298.991 276.707,300.338 333,296.426 L333,60 L119,60 Z" id="Path" fill="#3052E4"></path>
                <path d="M292.26,117.974 L286.001,113.79 C290.981,94.131 280.953,83.7703 265.473,77.6934 C271.968,82.6413 277.049,95.8578 273.953,105.754 L267.661,101.569 C266.416,100.739 264.8,101.769 265.002,103.197 L268.098,124.781 C268.233,125.778 269.209,126.409 270.184,126.176 L291.654,120.963 C293.135,120.664 293.471,118.771 292.26,117.974 Z" id="Path" fill="#FFD22E" fill-rule="nonzero"></path>
                <path d="M271.194,93.5998 C270.016,86.5931 266.415,79.8852 262.175,76.6641 C262.175,76.6641 246.258,72.4468 233.74,85.3976 C233.74,85.3976 253.392,78.1916 271.194,93.5998 Z" id="Path" fill="#31C5FF" fill-rule="nonzero"></path>
                <path d="M159.74,157.026 L165.999,161.21 C161.019,180.869 171.047,191.229 186.527,197.306 C180.032,192.359 174.951,179.142 178.047,169.246 L184.306,173.43 C185.551,174.261 187.166,173.231 186.964,171.803 L183.868,150.218 C183.734,149.222 182.758,148.591 181.782,148.824 L160.312,154.004 C158.865,154.336 158.529,156.229 159.74,157.026 Z" id="Path" fill="#31C5FF" fill-rule="nonzero"></path>
                <path d="M180.806,181.4 C181.984,188.407 185.585,195.115 189.825,198.336 C189.825,198.336 205.742,202.553 218.26,189.602 C218.26,189.602 198.608,196.808 180.806,181.4 Z" id="Path" fill="#FFD22E" fill-rule="nonzero"></path>
                <path d="M197,82 C210.183,82 221,92.6479 221,106 C221,119.183 210.352,130 197,130 C183.817,130 173,119.352 173,106 C173.169,92.8169 183.817,82 197,82 Z" id="Path" fill="#31C5FF"></path>
                <path d="M263,144 C276.183,144 287,154.648 287,168 C287,181.183 276.352,192 263,192 C249.817,192 239,181.352 239,168 C239.169,154.817 249.817,144 263,144 Z" id="Path" fill="#FFD22E"></path>
                <path d="M188.866,114 L188.866,96.96 L192.178,96.96 L192.178,114 L188.866,114 Z M195.733,114 L195.733,96.96 L202.957,96.96 C203.741,96.96 204.461,97.128 205.117,97.464 C205.789,97.784 206.365,98.216 206.845,98.76 C207.325,99.288 207.701,99.896 207.973,100.584 C208.245,101.256 208.381,101.936 208.381,102.624 C208.381,103.344 208.253,104.048 207.997,104.736 C207.741,105.408 207.381,106.008 206.917,106.536 C206.453,107.064 205.893,107.488 205.237,107.808 C204.581,108.128 203.861,108.288 203.077,108.288 L199.045,108.288 L199.045,114 L195.733,114 Z M199.045,105.384 L202.885,105.384 C203.493,105.384 203.997,105.136 204.397,104.64 C204.813,104.144 205.021,103.472 205.021,102.624 C205.021,102.192 204.957,101.808 204.829,101.472 C204.701,101.12 204.533,100.824 204.325,100.584 C204.117,100.344 203.869,100.168 203.581,100.056 C203.309,99.928 203.029,99.864 202.741,99.864 L199.045,99.864 L199.045,105.384 Z" id="Shape" fill="#FFFFFF" fill-rule="nonzero"></path>
                <path d="M253.866,176 L253.866,158.96 L257.178,158.96 L257.178,176 L253.866,176 Z M260.733,176 L260.733,158.96 L267.957,158.96 C268.741,158.96 269.461,159.128 270.117,159.464 C270.789,159.784 271.365,160.216 271.845,160.76 C272.325,161.288 272.701,161.896 272.973,162.584 C273.245,163.256 273.381,163.936 273.381,164.624 C273.381,165.344 273.253,166.048 272.997,166.736 C272.741,167.408 272.381,168.008 271.917,168.536 C271.453,169.064 270.893,169.488 270.237,169.808 C269.581,170.128 268.861,170.288 268.077,170.288 L264.045,170.288 L264.045,176 L260.733,176 Z M264.045,167.384 L267.885,167.384 C268.493,167.384 268.997,167.136 269.397,166.64 C269.813,166.144 270.021,165.472 270.021,164.624 C270.021,164.192 269.957,163.808 269.829,163.472 C269.701,163.12 269.533,162.824 269.325,162.584 C269.117,162.344 268.869,162.168 268.581,162.056 C268.309,161.928 268.029,161.864 267.741,161.864 L264.045,161.864 L264.045,167.384 Z" id="Shape" fill="#FFFFFF" fill-rule="nonzero"></path>
                <polygon id="Path" stroke="#31C5FF" fill="#181548" fill-rule="nonzero" opacity="0.7" points="310 212 142 212 142 280 310 280"></polygon>
                <path d="M147.9,265 L198.8,265 C199.9,265 200.9,265.9 200.9,267.1 C200.9,268.2 200,269.2 198.8,269.2 L147.9,269.2 C146.8,269.2 145.8,268.3 145.8,267.1 C145.8,266 146.8,265 147.9,265 Z" id="Path" fill="#31C5FF"></path>
                <path d="M228.1,265 L279,265 C280.1,265 281.1,265.9 281.1,267.1 C281.1,268.2 280.2,269.2 279,269.2 L228.1,269.2 C227,269.2 226,268.3 226,267.1 C226,266 227,265 228.1,265 Z" id="Path" fill="#31C5FF"></path>
                <path d="M147.9,218.9 L171.1,218.9 C172.2,218.9 173.2,219.8 173.2,221 C173.2,222.1 172.3,223.1 171.1,223.1 L147.9,223.1 C146.8,223.1 145.8,222.2 145.8,221 C145.8,219.8 146.8,218.9 147.9,218.9 Z" id="Path" fill="#FC3E54"></path>
                <path d="M228.1,218.9 L251.3,218.9 C252.4,218.9 253.4,219.8 253.4,221 C253.4,222.1 252.5,223.1 251.3,223.1 L228.1,223.1 C227,223.1 226,222.2 226,221 C226,219.8 227,218.9 228.1,218.9 Z" id="Path" fill="#FC3E54"></path>
                <path d="M179.2,218.9 L202.4,218.9 C203.5,218.9 204.5,219.8 204.5,221 C204.5,222.1 203.6,223.1 202.4,223.1 L179.2,223.1 C178.1,223.1 177.1,222.2 177.1,221 C177.1,219.8 178,218.9 179.2,218.9 Z" id="Path" fill="#FC3E54"></path>
                <path d="M259.4,218.9 L282.6,218.9 C283.7,218.9 284.7,219.8 284.7,221 C284.7,222.1 283.8,223.1 282.6,223.1 L259.4,223.1 C258.3,223.1 257.3,222.2 257.3,221 C257.3,219.8 258.2,218.9 259.4,218.9 Z" id="Path" fill="#FC3E54"></path>
                <path d="M147.9,229 L175.9,229 C177,229 178,229.9 178,231.1 C178,232.2 177.1,233.2 175.9,233.2 L147.9,233.2 C146.8,233.2 145.8,232.3 145.8,231.1 C145.8,230 146.8,229 147.9,229 Z" id="Path" fill="#31C5FF"></path>
                <path d="M228.1,229 L256.1,229 C257.2,229 258.2,229.9 258.2,231.1 C258.2,232.2 257.3,233.2 256.1,233.2 L228.1,233.2 C227,233.2 226,232.3 226,231.1 C226,230 227,229 228.1,229 Z" id="Path" fill="#31C5FF"></path>
                <path d="M184.7,229 L212.7,229 C213.8,229 214.8,229.9 214.8,231.1 C214.8,232.2 213.9,233.2 212.7,233.2 L184.7,233.2 C183.6,233.2 182.6,232.3 182.6,231.1 C182.7,230 183.6,229 184.7,229 Z" id="Path" fill="#31C5FF"></path>
                <path d="M264.9,229 L292.9,229 C294,229 295,229.9 295,231.1 C295,232.2 294.1,233.2 292.9,233.2 L264.9,233.2 C263.8,233.2 262.8,232.3 262.8,231.1 C262.9,230 263.8,229 264.9,229 Z" id="Path" fill="#31C5FF"></path>
                <path d="M147.9,240.5 L166.8,240.5 C167.9,240.5 168.9,241.4 168.9,242.6 C168.9,243.7 168,244.7 166.8,244.7 L147.9,244.7 C146.8,244.7 145.8,243.8 145.8,242.6 C145.8,241.4 146.8,240.5 147.9,240.5 Z" id="Path" fill="#FFD22E"></path>
                <path d="M175.1,240.5 L194,240.5 C195.1,240.5 196.1,241.4 196.1,242.6 C196.1,243.7 195.2,244.7 194,244.7 L175.1,244.7 C174,244.7 173,243.8 173,242.6 C173,241.4 174,240.5 175.1,240.5 Z" id="Path" fill="#FFD22E"></path>
                <path d="M228.1,240.5 L247,240.5 C248.1,240.5 249.1,241.4 249.1,242.6 C249.1,243.7 248.2,244.7 247,244.7 L228.1,244.7 C227,244.7 226,243.8 226,242.6 C226,241.4 227,240.5 228.1,240.5 Z" id="Path" fill="#FFD22E"></path>
                <path d="M255.1,240.5 L274,240.5 C275.1,240.5 276.1,241.4 276.1,242.6 C276.1,243.7 275.2,244.7 274,244.7 L255.1,244.7 C254,244.7 253,243.8 253,242.6 C253,241.4 254,240.5 255.1,240.5 Z" id="Path" fill="#FFD22E"></path>
                <path d="M147.9,253.7 L175.9,253.7 C177,253.7 178,254.6 178,255.8 C178,256.9 177.1,257.9 175.9,257.9 L147.9,257.9 C146.8,257.9 145.8,257 145.8,255.8 C145.8,254.7 146.8,253.7 147.9,253.7 Z" id="Path" fill="#03E59F"></path>
                <path d="M228.1,253.7 L256.1,253.7 C257.2,253.7 258.2,254.6 258.2,255.8 C258.2,256.9 257.3,257.9 256.1,257.9 L228.1,257.9 C227,257.9 226,257 226,255.8 C226,254.7 227,253.7 228.1,253.7 Z" id="Path" fill="#03E59F"></path>
                <path d="M184.7,253.7 L212.7,253.7 C213.8,253.7 214.8,254.6 214.8,255.8 C214.8,256.9 213.9,257.9 212.7,257.9 L184.7,257.9 C183.6,257.9 182.6,257 182.6,255.8 C182.7,254.7 183.6,253.7 184.7,253.7 Z" id="Path" fill="#03E59F"></path>
                <path d="M264.9,253.7 L292.9,253.7 C294,253.7 295,254.6 295,255.8 C295,256.9 294.1,257.9 292.9,257.9 L264.9,257.9 C263.8,257.9 262.8,257 262.8,255.8 C262.9,254.7 263.8,253.7 264.9,253.7 Z" id="Path" fill="#03E59F"></path>
                <path d="M386.6,63.9548 C386.6,61.4315 384.558,59.3865 382.04,59.3865 C379.522,59.3865 377.48,61.4315 377.48,63.9548 C377.48,66.4782 379.522,68.5241 382.04,68.5241 C384.558,68.5241 386.6,66.4782 386.6,63.9548 Z" id="Path" fill="#2743BC"></path>
                <path d="M9.12018,181.522 C9.12018,178.999 7.07818,176.954 4.55964,176.954 C2.04109,176.954 0,178.999 0,181.522 C0,184.046 2.04109,186.091 4.55964,186.091 C7.07818,186.091 9.12018,184.046 9.12018,181.522 Z" id="Path" fill="#6582FF"></path>
                <path d="M75.1873,81.9615 C75.1873,79.8237 73.4573,78.0905 71.3227,78.0905 C69.189,78.0905 67.459,79.8237 67.459,81.9615 C67.459,84.0993 69.189,85.8335 71.3227,85.8335 C73.4573,85.8335 75.1873,84.0993 75.1873,81.9615 Z" id="Path" fill="#2743BC"></path>
                <path d="M89.5817,227.101 C89.5817,225.615 88.3787,224.409 86.895,224.409 C85.4105,224.409 84.2075,225.615 84.2075,227.101 C84.2075,228.587 85.4105,229.793 86.895,229.793 C88.3787,229.793 89.5817,228.587 89.5817,227.101 Z" id="Path" fill="#2743BC"></path>
                <path d="M369.477,29.7617 C369.477,28.1464 368.171,26.8374 366.559,26.8374 C364.946,26.8374 363.64,28.1464 363.64,29.7617 C363.64,31.3769 364.946,32.6859 366.559,32.6859 C368.171,32.6859 369.477,31.3769 369.477,29.7617 Z" id="Path" fill="#6582FF"></path>
                <path d="M425.614,121.739 L368.186,93 L310.758,121.739 C302.249,210.618 368.186,226.052 368.186,226.052 C368.186,226.052 434.123,210.618 425.614,121.739 Z" id="Path" fill="#EDB720"></path>
                <path d="M418.263,126.576 L368.186,101.515 L318.108,126.576 C310.689,204.078 368.186,217.536 368.186,217.536 C368.186,217.536 425.683,204.078 418.263,126.576 Z" id="Path" fill="#FCCA2E"></path>
                <path d="M355.955,163.731 C354.633,163.731 353.563,162.659 353.563,161.336 L353.563,137.358 C353.563,130.838 359.803,125.731 367.769,125.731 L368.515,125.731 C376.36,125.731 382.277,130.729 382.277,137.358 L382.277,160.767 C382.277,162.09 381.206,163.161 379.884,163.161 C378.563,163.161 377.491,162.09 377.491,160.767 L377.491,137.358 C377.491,133.46 373.633,130.52 368.515,130.52 L367.769,130.52 C362.574,130.52 358.348,133.588 358.348,137.358 L358.348,161.336 C358.348,162.659 357.277,163.731 355.955,163.731 Z" id="Path" fill="#191551"></path>
                <path d="M386.978,179.365 C386.978,182.358 384.473,184.952 380.948,184.952 L354.892,184.952 C351.369,184.952 348.349,182.358 348.349,179.365 L348.349,157.239 C348.349,154.246 351.369,151.863 354.892,151.863 L380.948,151.863 C384.473,151.863 386.978,154.246 386.978,157.239 L386.978,179.365 Z" id="Path" fill="#191551"></path>
                <path d="M371.775,164.138 C371.775,162.277 370.267,160.767 368.407,160.767 L368.231,160.767 C366.369,160.767 364.863,162.277 364.863,164.138 L364.863,164.316 C364.863,166.178 366.369,167.686 368.231,167.686 L368.407,167.686 C370.267,167.686 371.775,166.178 371.775,164.316 L371.775,164.138 Z" id="Path" fill="#FFFFFF"></path>
                <path d="M369.914,175.137 C369.914,176.02 369.2,176.734 368.319,176.734 C367.437,176.734 366.724,176.02 366.724,175.137 L366.724,166.09 C366.724,165.208 367.437,164.493 368.319,164.493 C369.2,164.493 369.914,165.208 369.914,166.09 L369.914,175.137 Z" id="Path" fill="#FFFFFF"></path>
            </g>
            <g id="header_splash_phone_protect2" transform="translate(269.000000, 236.000000)">
                <path d="M22.0393,64.5999 C23.4393,64.5999 24.5393,65.6999 24.5393,67.0999 C24.5393,68.4999 23.4393,69.5999 22.0393,69.5999 C20.6393,69.5999 19.5393,68.4999 19.5393,67.0999 C19.5393,65.6999 20.6393,64.5999 22.0393,64.5999 Z" id="Path" fill="#03E59F"></path>
                <path d="M34.2393,44.3999 L131.139,44.3999 C133.039,44.3999 134.639,45.9999 134.639,47.8999 L134.639,81.1999 C134.639,83.0999 133.039,84.6999 131.139,84.6999 L34.2393,84.6999 C32.3393,84.6999 30.7393,83.0999 30.7393,81.1999 L30.7393,47.8999 C30.7393,45.9999 32.3393,44.3999 34.2393,44.3999 Z" id="Path" fill="#3462F4"></path>
                <path d="M41.4393,48.8999 L61.5393,48.8999 C65.4393,48.8999 68.5393,51.9999 68.5393,55.8999 L68.5393,58.7999 C68.5393,62.6999 65.4393,65.7999 61.5393,65.7999 L41.4393,65.7999 C37.5393,65.7999 34.4393,62.6999 34.4393,58.7999 L34.4393,55.8999 C34.3393,51.9999 37.5393,48.8999 41.4393,48.8999 Z" id="Path" fill="#01013D"></path>
                <path d="M78.6394,48.8999 L124.139,48.8999 C128.039,48.8999 131.139,51.9999 131.139,55.8999 L131.139,58.7999 C131.139,62.6999 128.039,65.7999 124.139,65.7999 L78.6394,65.7999 C74.7394,65.7999 71.6394,62.6999 71.6394,58.7999 L71.6394,55.8999 C71.6394,51.9999 74.7394,48.8999 78.6394,48.8999 Z" id="Path" fill="#01013D"></path>
                <polygon id="Path" fill="#FC3E54" fill-rule="nonzero" points="110.639 55.2 106.539 55.2 106.539 59.3 110.639 59.3"></polygon>
                <polygon id="Path" fill="#FFD22E" fill-rule="nonzero" points="117.039 55.2 112.939 55.2 112.939 59.3 117.039 59.3"></polygon>
                <polygon id="Path" fill="#FFD22E" fill-rule="nonzero" points="123.439 55.2 119.339 55.2 119.339 59.3 123.439 59.3"></polygon>
                <polygon id="Path" fill="#092978" fill-rule="nonzero" points="53.3393 84.7 38.7393 84.7 38.7393 88.7 53.3393 88.7"></polygon>
                <polygon id="Path" fill="#092978" fill-rule="nonzero" points="125.939 84.7 111.339 84.7 111.339 88.7 125.939 88.7"></polygon>
                <path d="M34.2393,0 L131.139,0 C133.039,0 134.639,1.6 134.639,3.5 L134.639,36.8 C134.639,38.7 133.039,40.3 131.139,40.3 L34.2393,40.3 C32.3393,40.3 30.7393,38.7 30.7393,36.8 L30.7393,3.5 C30.7393,1.6 32.3393,0 34.2393,0 Z" id="Path" fill="#3462F4"></path>
                <path d="M41.4393,4.5 L61.5393,4.5 C65.4393,4.5 68.5393,7.6 68.5393,11.5 L68.5393,14.4 C68.5393,18.3 65.4393,21.4 61.5393,21.4 L41.4393,21.4 C37.5393,21.4 34.4393,18.3 34.4393,14.4 L34.4393,11.5 C34.3393,7.7 37.5393,4.5 41.4393,4.5 Z" id="Path" fill="#01013D"></path>
                <path d="M78.6394,4.5 L124.139,4.5 C128.039,4.5 131.139,7.6 131.139,11.5 L131.139,14.4 C131.139,18.3 128.039,21.4 124.139,21.4 L78.6394,21.4 C74.7394,21.4 71.6394,18.3 71.6394,14.4 L71.6394,11.5 C71.6394,7.7 74.7394,4.5 78.6394,4.5 Z" id="Path" fill="#01013D"></path>
                <polygon id="Path" fill="#FC3E54" fill-rule="nonzero" points="110.639 10.8 106.539 10.8 106.539 14.9001 110.639 14.9001"></polygon>
                <polygon id="Path" fill="#FFD22E" fill-rule="nonzero" points="117.039 10.8 112.939 10.8 112.939 14.9001 117.039 14.9001"></polygon>
                <polygon id="Path" fill="#FFD22E" fill-rule="nonzero" points="123.439 10.8 119.339 10.8 119.339 14.9001 123.439 14.9001"></polygon>
                <polygon id="Path" fill="#092978" fill-rule="nonzero" points="53.3393 40.3999 38.7393 40.3999 38.7393 44.3999 53.3393 44.3999"></polygon>
                <polygon id="Path" fill="#092978" fill-rule="nonzero" points="125.939 40.3999 111.339 40.3999 111.339 44.3999 125.939 44.3999"></polygon>
                <polygon id="Path" fill="#03E59F" fill-rule="nonzero" points="44.1393 10.8999 40.0393 10.8999 40.0393 14.9999 44.1393 14.9999"></polygon>
                <polygon id="Path" fill="#03E59F" fill-rule="nonzero" points="51.3393 10.8999 47.2393 10.8999 47.2393 14.9999 51.3393 14.9999"></polygon>
                <polygon id="Path" fill="#03E59F" fill-rule="nonzero" points="44.1393 55.3 40.0393 55.3 40.0393 59.4001 44.1393 59.4001"></polygon>
                <polygon id="Path" fill="#03E59F" fill-rule="nonzero" points="51.3393 55.3 47.2393 55.3 47.2393 59.4001 51.3393 59.4001"></polygon>
                <path d="M134.739,18.3999 L138.939,18.3999 C142.439,18.3999 145.639,19.7999 147.939,22.0999 C150.239,24.3999 151.639,27.5999 151.639,31.0999 L151.639,87.1999 L151.639,88.6999 L150.139,88.6999 L45.6394,88.6999 L44.1394,88.6999 L44.1394,87.1999 L44.1394,85.6999 L47.1394,85.6999 L137.239,85.6999 L148.639,85.6999 L148.639,31.0999 C148.639,28.3999 147.539,25.9999 145.739,24.1999 C143.939,22.3999 141.539,21.2999 138.839,21.2999 L134.639,21.2999 L134.639,18.3999 L134.739,18.3999 Z" id="Path" fill="#01013D"></path>
                <polygon id="Path" fill="#A5DBFD" fill-rule="nonzero" points="24.3145 73.5212 5.98547 73.5212 5.98547 91.8503 24.3145 91.8503"></polygon>
                <path d="M33.0537,114.587 L18.4369,118.996 C18.4369,118.996 16.8128,120.929 16.3487,122.708 C15.9621,124.409 15.1887,125.183 14.106,125.26 C12.0952,125.415 11.2445,112.577 11.0125,110.489 L27.7174,105.771 L33.0537,114.587 Z" id="Path" fill="#F9C4C7"></path>
                <path d="M40.71,37.4044 L65.3034,37.4044 C68.3969,37.4044 75.976,43.2048 77.2908,50.7839 C79.7656,63.0032 78.6829,89.8394 70.0211,99.4293 L60.1992,99.2746 L30.1921,91.8502 L30.1921,65.8647 L30.1921,41.1166 C33.0536,38.8738 36.6885,37.4044 40.71,37.4044 Z" id="Path" fill="#FE5E31"></path>
                <path d="M65.3035,37.4818 C77.4455,38.6419 78.6056,53.9547 78.4509,63.4673 L65.3035,63.4673 L65.3035,37.4818 Z" id="Path" fill="#FE5E31"></path>
                <path d="M66.4635,63.622 L78.3735,63.5447 C78.3735,70.7371 66.2315,87.442 52.6974,87.442 L35.2964,87.442 C35.2964,87.442 39.0086,82.7244 43.8809,82.3377 C48.7532,81.951 48.9078,82.6471 48.9078,82.6471 C55.1722,80.791 63.138,74.604 66.4635,63.622 Z" id="Path" fill="#F9C4C7"></path>
                <path d="M10.5484,87.3646 L62.5967,87.3646 C63.2154,87.3646 63.7567,87.442 64.2981,87.5193 C78.2962,87.5193 78.6056,96.1811 79.611,106.08 L61.282,106.08 L48.5986,106.08 L10.5484,106.08 C5.44411,106.08 1.19055,101.904 1.19055,96.7225 C1.19055,91.5409 5.44411,87.3646 10.5484,87.3646 Z" id="Path" fill="#44475C"></path>
                <path d="M8.22825,88.2928 C10.3164,87.8288 12.6365,87.0554 15.1113,87.3647 C22.8451,88.3701 68.7063,102.214 68.7063,102.214 L60.5859,111.571 C51.1507,110.953 13.2552,114.356 5.98546,109.406 C-1.5163,104.302 -3.21773,90.9223 8.22825,88.2928 Z" id="Path" fill="#4D5068"></path>
                <path d="M38.0806,25.1079 C35.5285,29.6708 39.9367,36.0898 45.3503,35.6258 L45.3503,37.0952 L42.4115,41.3488 L45.3503,45.6797 L48.3665,46.7624 L55.7136,44.9063 L55.7136,31.6816 C55.9456,31.6042 56.0229,32.0683 56.5643,31.7589 C57.1057,31.4496 58.3431,28.9748 58.1111,27.66 C57.879,26.4226 56.255,25.6493 56.255,25.6493 C57.8017,21.8597 58.9618,21.3183 55.0176,19.2302 C51.0733,17.1421 43.1075,17.2968 43.1075,17.2968 L39.4727,18.5342 C39.3954,22.0144 39.8594,21.937 38.0806,25.1079 Z" id="Path" fill="#F9C4C7"></path>
                <path d="M44.577,35.6257 C44.809,35.6257 45.1183,35.6257 45.3503,35.6257 C47.7478,35.5484 49.7586,35.0844 51.924,34.2336 C51.924,34.2336 51.1507,36.7858 48.2892,38.1005 C45.6597,39.3379 43.8809,39.3379 43.6489,39.3379 L45.273,37.0178 L45.273,35.5484 L44.577,35.6257 Z" id="Path" fill="#F08B90"></path>
                <path d="M40.4008,19.6168 C43.417,20.1582 45.8918,19.6942 47.7479,19.9262 C48.8306,20.0809 49.7586,20.6222 50.4547,21.1636 C52.2335,22.5557 53.5482,26.0359 53.9349,28.356 C53.9349,28.356 55.9457,27.5053 56.6417,27.892 C57.3377,28.2787 56.8737,29.3614 56.7964,29.7481 C56.7191,30.1348 55.791,30.5988 55.4816,30.9081 C54.9403,31.3722 55.559,32.0682 56.719,32.1455 C62.2874,32.3776 70.3305,13.8939 49.7587,7.93885 C47.4385,5.46404 48.5986,5 47.3612,5 C31.971,5.23201 35.2965,18.9208 40.4008,19.6168 Z" id="Path" fill="#15378B"></path>
                <path d="M30.4242,40.962 C23.7732,46.917 19.8289,55.1922 17.5088,63.7767 C21.917,63.4673 26.48,63.5446 30.8109,63.39 L30.4242,40.962 Z" id="Path" fill="#FE5E31"></path>
                <path d="M48.4439,54.1869 C48.9079,54.1869 49.2172,54.5735 49.2172,54.9602 C49.2172,55.4243 48.8306,55.7336 48.4439,55.7336 C47.9798,55.7336 47.6705,55.3469 47.6705,54.9602 C47.6705,54.5735 47.9798,54.1869 48.4439,54.1869 Z M48.4439,49.5466 C48.9079,49.5466 49.2172,49.9333 49.2172,50.32 C49.2172,50.784 48.8306,51.0933 48.4439,51.0933 C47.9798,51.0933 47.6705,50.7067 47.6705,50.32 C47.6705,49.8559 47.9798,49.5466 48.4439,49.5466 Z M45.3504,37.0952 C42.5662,41.8902 45.5824,45.2157 48.3665,46.7624 C52.2334,44.2876 55.7136,41.8128 55.7136,37.0952 C55.7136,37.0952 57.0284,37.0952 57.8791,39.1833 C59.2712,42.5862 56.951,50.32 56.951,50.32 C56.951,50.32 54.2442,46.8398 52.0014,46.6851 C49.7586,46.5304 48.2892,47.1491 48.2892,47.1491 C45.4277,45.061 43.4943,47.7678 41.5608,49.7786 C40.9421,44.6743 41.0195,41.0394 44.809,37.0952 L45.3504,37.0952 Z" id="Shape" fill="#FFFFFF"></path>
                <path d="M42.4889,57.4351 L4.82538,57.4351 C3.35596,57.4351 1.88655,58.6725 2.1959,60.0645 L7.84154,84.9673 C8.15089,86.3593 9.00163,87.5968 10.471,87.5968 L48.1345,87.5968 C49.6039,87.5968 51.0733,86.3593 50.764,84.9673 L45.1183,60.0645 C44.809,58.6725 43.9583,57.4351 42.4889,57.4351 Z" id="Path" fill="#DFF2FC"></path>
                <path d="M40.7874,57.4351 L3.12398,57.4351 C1.65457,57.4351 0.185133,58.6725 0.494484,60.0645 L6.14015,84.9673 C6.4495,86.3593 7.30021,87.5968 8.76963,87.5968 L46.4331,87.5968 C47.9025,87.5968 49.3719,86.3593 49.0626,84.9673 L43.4169,60.0645 C43.1076,58.6725 42.2569,57.4351 40.7874,57.4351 Z" id="Path" fill="#87B6E1"></path>
                <path d="M24.0052,70.0411 C22.8451,70.4278 22.3037,71.8199 22.7678,73.2119 C23.2318,74.604 24.4692,75.3774 25.6293,74.9907 C26.7893,74.604 27.3307,73.2119 26.8667,71.8198 C26.4026,70.5051 25.1652,69.6544 24.0052,70.0411 Z" id="Path" fill="#FFFFFF"></path>
                <path d="M68.629,85.1219 L49.5266,85.1219 L49.5266,87.5968 L69.8664,87.5968 L69.8664,86.3594 C69.8664,85.6633 69.3251,85.1219 68.629,85.1219 Z" id="Path" fill="#DFF2FC"></path>
                <path d="M68.861,87.906 C61.1272,88.2927 21.0663,103.451 21.0663,103.451 L25.3199,117.913 C31.1975,117.217 73.0372,111.649 76.2081,109.87 C89.7422,102.059 80.1523,86.9006 68.861,87.906 Z" id="Path" fill="#4D5068"></path>
                <path d="M134.739,62.5 L138.939,62.5 C142.439,62.5 145.639,63.9 147.939,66.2 C150.239,68.5 151.639,71.7 151.639,75.2 L151.639,87.2 L148.639,87.2 L148.639,75.2 C148.639,72.5 147.539,70.1 145.739,68.3 C143.939,66.5 141.539,65.4 138.839,65.4 L134.639,65.4 L134.639,62.5 L134.739,62.5 Z" id="Path" fill="#01013D"></path>
                <path d="M134.739,15.3 L135.739,15.3 C136.239,15.3 136.739,15.7 136.739,16.3 L136.739,23.3 C136.739,23.8 136.339,24.3 135.739,24.3 L134.739,24.3 L134.739,15.3 Z" id="Path" fill="#01013D"></path>
                <path d="M134.739,59.5 L135.739,59.5 C136.239,59.5 136.739,59.9 136.739,60.5 L136.739,67.5 C136.739,68 136.339,68.5 135.739,68.5 L134.739,68.5 L134.739,59.5 Z" id="Path" fill="#01013D"></path>
            </g>
        </g>
    </g>
</svg>