<svg width="511" height="343" viewBox="0 0 511 343" fill="none" xmlns="http://www.w3.org/2000/svg">
<path d="M179.3 308.9L180.3 307.4C183.8 302.1 189.7 298.8 196.1 298.8H290.4C297 298.8 303.2 302.3 306.6 308L307.2 308.9H179.3Z" fill="#01013D"/>
<path opacity="0.15" d="M222.7 315C345.694 315 445.4 311.866 445.4 308C445.4 304.134 345.694 301 222.7 301C99.7062 301 0 304.134 0 308C0 311.866 99.7062 315 222.7 315Z" fill="url(#paint0_linear)"/>
<path fill-rule="evenodd" clip-rule="evenodd" d="M109.9 68.3999H379.3C389 68.3999 396.9 76.2999 396.9 85.9999V243H92.3V85.9999C92.3 76.2999 100.2 68.3999 109.9 68.3999Z" fill="#01013D"/>
<path d="M384.4 81.2998H104.8V259.1H384.4V81.2998Z" fill="#3052E4"/>
<path opacity="0.7" d="M371 99H205V223H371V99Z" fill="#181548" stroke="#31C5FF" stroke-miterlimit="10"/>
<path opacity="0.7" d="M371 99H205V223H371V99Z" fill="#181548" stroke="#31C5FF" stroke-miterlimit="10"/>
<path d="M351.821 162.981H289.656V219.917H351.821V162.981Z" fill="#BCB6AC"/>
<path d="M289.656 162.981V218.697H292.315V166.153H351.861V162.981H289.656Z" fill="#A59D90"/>
<path d="M311.782 177.581H299.594V219.999H311.782H323.969V177.581H311.782Z" fill="#4D5068"/>
<path d="M262.541 122.19H346.749L357.505 162.981H284.462L262.541 122.19Z" fill="#FE5E31"/>
<path d="M347.935 126.664H264.913L265.445 127.64H348.181L347.935 126.664Z" fill="#E8562D"/>
<path d="M268.553 133.374H349.694L349.448 132.398H268.021L268.553 133.374Z" fill="#E8562D"/>
<path d="M271.621 139.108H351.207L350.962 138.092H271.089L271.621 139.108Z" fill="#E8562D"/>
<path d="M274.688 144.843H352.72L352.475 143.826H274.156L274.688 144.843Z" fill="#E8562D"/>
<path d="M277.796 150.577H354.233L353.947 149.56H277.264L277.796 150.577Z" fill="#E8562D"/>
<path d="M280.863 156.271H355.747L355.46 155.295H280.332L280.863 156.271Z" fill="#E8562D"/>
<path d="M263.523 122.19L329.818 162.981H289.656L263.523 122.19Z" fill="#EA572E"/>
<path d="M359.959 160.947H289.656V164.973H359.959V160.947Z" fill="#8A8275"/>
<path d="M290.929 164.995H292.32V160.969H290.929V164.995Z" fill="#756C5C"/>
<path d="M312.968 176.727H298.736V221.178H302.784V219.999H299.594V177.581H311.782H323.969V219.999H323.11V221.178H327.159V176.727H312.968Z" fill="#A59D90"/>
<path d="M323.969 177.581H311.782H299.594V219.999H302.784V180.753H312.968H323.111V219.999H323.969V177.581Z" fill="#092E38"/>
<path d="M311.782 175.588H297.55V219.999H301.639V179.614H311.782H321.965V219.999H326.014V175.588H311.782Z" fill="#E5E5E5"/>
<path d="M355.215 218.697H289.084V222.52H355.215V218.697Z" fill="#8A8275"/>
<path d="M295.668 218.697H291.169V222.52H295.668V218.697Z" fill="#756C5C"/>
<path d="M294.482 218.697H219.026V222.52H294.482V218.697Z" fill="#AEA9A0"/>
<path d="M256.775 118.326L222.339 152.57V218.697H256.775H291.17V152.57L256.775 118.326Z" fill="#DEDBD6"/>
<path d="M256.775 118.326L222.339 152.57V157.735L257.92 122.353L291.17 155.416V152.57L256.775 118.326Z" fill="#C5C0B7"/>
<path d="M274.402 174.653H239.148V200.681H274.402V174.653Z" fill="#1DAFF4"/>
<path d="M239.148 174.653V177.256L251.458 200.681H262.091L248.432 174.653H239.148Z" fill="#29BAFF"/>
<path d="M274.402 200.681V198.444L261.846 174.653H255.711L269.412 200.681H274.402Z" fill="#29BAFF"/>
<path d="M274.402 200.681H241.479V176.93H274.402V174.653H239.148V200.681H274.402Z" fill="#669491"/>
<path d="M251.254 174.653H249.495V200.681H251.254V174.653Z" fill="#669491"/>
<path d="M266.386 174.653H264.627V200.681H266.386V174.653Z" fill="#669491"/>
<path d="M274.402 174.653V176.93V200.681H239.148V202.958H276.692V174.653H274.402Z" fill="#C5C0B7"/>
<path d="M274.402 183.071H239.148V184.82H274.402V183.071Z" fill="#669491"/>
<path d="M275.547 201.82H237.962V173.473H275.547V201.82ZM240.293 199.502H273.216V175.792H240.293V199.502Z" fill="white"/>
<path d="M250.068 174.653H248.309V200.681H250.068V174.653Z" fill="white"/>
<path d="M265.2 174.653H263.441V200.681H265.2V174.653Z" fill="white"/>
<path d="M274.402 181.932H239.148V183.681H274.402V181.932Z" fill="white"/>
<path d="M346.749 180.103H331.004V206.131H346.749V180.103Z" fill="#1DAFF4"/>
<path d="M331.004 194.337L337.179 206.131H344.541L331.004 180.387V194.337Z" fill="#29BAFF"/>
<path d="M340.083 180.103H335.871L346.708 200.722V192.669L340.083 180.103Z" fill="#29BAFF"/>
<path d="M346.708 180.103V182.421V206.131H333.294H331.004V180.103V208.408H349.039V180.103H346.708Z" fill="#A59D90"/>
<path d="M333.294 206.131V182.421H346.708V180.103H331.004V206.131H333.294Z" fill="#669491"/>
<path d="M347.853 207.269H329.818V178.923H347.853V207.269ZM332.149 204.951H345.563V181.241H332.149V204.951Z" fill="#E5E5E5"/>
<path d="M262.307 155.761C265.949 152.14 265.949 146.269 262.307 142.647C258.666 139.026 252.762 139.026 249.121 142.647C245.479 146.269 245.479 152.14 249.121 155.761C252.762 159.382 258.666 159.382 262.307 155.761Z" fill="#1DAFF4"/>
<path d="M246.796 146.469L252.889 158.06C253.789 158.345 254.73 158.507 255.711 158.507C256.816 158.507 257.838 158.304 258.82 157.979L250.272 141.711C248.636 142.85 247.409 144.517 246.796 146.469Z" fill="#29BAFF"/>
<path d="M264.014 153.423L256.938 140.003C256.529 139.962 256.12 139.921 255.711 139.921C254.975 139.921 254.28 140.003 253.585 140.165L261.969 156.067C262.787 155.335 263.482 154.44 264.014 153.423Z" fill="#29BAFF"/>
<path d="M265.036 149.479H246.387V151.228H265.036V149.479Z" fill="#669491"/>
<path d="M257.756 139.921H255.998V158.466H257.756V139.921Z" fill="#669491"/>
<path d="M255.711 159.646C249.945 159.646 245.242 154.928 245.242 149.194C245.242 143.46 249.945 138.783 255.711 138.783C261.478 138.783 266.222 143.46 266.222 149.235C266.222 155.01 261.519 159.646 255.711 159.646ZM255.711 141.06C251.213 141.06 247.532 144.72 247.532 149.194C247.532 153.668 251.213 157.328 255.711 157.328C260.21 157.328 263.891 153.668 263.891 149.194C263.891 144.72 260.21 141.06 255.711 141.06Z" fill="white"/>
<path d="M256.898 142.24C258.861 142.24 260.66 142.931 262.051 144.07C260.537 142.24 258.288 141.101 255.711 141.101C251.213 141.101 247.532 144.761 247.532 149.235C247.532 151.756 248.718 154.034 250.517 155.538C249.372 154.156 248.677 152.366 248.677 150.414C248.718 145.859 252.399 142.24 256.898 142.24Z" fill="#1997D2"/>
<path d="M263.686 142.443C265.241 144.273 266.222 146.632 266.222 149.194C266.222 154.928 261.519 159.646 255.711 159.646C253.094 159.646 250.722 158.71 248.922 157.124C250.845 159.361 253.707 160.785 256.897 160.785C262.664 160.785 267.408 156.108 267.408 150.333C267.367 147.16 265.936 144.354 263.686 142.443Z" fill="#C5C0B7"/>
<path d="M265.036 148.34H246.387V150.089H265.036V148.34Z" fill="white"/>
<path d="M256.611 139.921H254.853V158.466H256.611V139.921Z" fill="white"/>
<path d="M294.646 158.873L256.775 121.214L218.863 158.873L216 156.026L256.775 115.479L297.509 156.026L294.646 158.873Z" fill="#AEA9A0"/>
<path fill-rule="evenodd" clip-rule="evenodd" d="M220.7 269.2C219.5 291.6 216.2 296.2 193.5 308.9H243.8H294.1C271.4 296.2 268.2 291.6 266.9 269.2L243.8 267.4L220.7 269.2Z" fill="#01013D"/>
<path fill-rule="evenodd" clip-rule="evenodd" d="M396.9 243V254.5C396.9 264.2 389 272.1 379.3 272.1H109.9C100.2 272.1 92.3 264.2 92.3 254.5V243H396.9Z" fill="#E4F5FB"/>
<path d="M396.8 231.6H92.3V250H396.8V231.6Z" fill="#01013D"/>
<path fill-rule="evenodd" clip-rule="evenodd" d="M231.6 254.8C233.3 254.8 234.7 256.2 234.7 257.9C234.7 259.6 233.3 261 231.6 261C229.9 261 228.5 259.6 228.5 257.9C228.5 256.2 229.9 254.8 231.6 254.8Z" fill="#FC3E54"/>
<path fill-rule="evenodd" clip-rule="evenodd" d="M243.2 254.8C244.9 254.8 246.3 256.2 246.3 257.9C246.3 259.6 244.9 261 243.2 261C241.5 261 240.1 259.6 240.1 257.9C240.1 256.2 241.5 254.8 243.2 254.8Z" fill="#31C5FF"/>
<path fill-rule="evenodd" clip-rule="evenodd" d="M254.8 254.8C256.5 254.8 257.9 256.2 257.9 257.9C257.9 259.6 256.5 261 254.8 261C253.1 261 251.7 259.6 251.7 257.9C251.6 256.2 253 254.8 254.8 254.8Z" fill="#FFD22E"/>
<path opacity="0.7" d="M200.6 99.3999H120.5V223.2H200.6V99.3999Z" fill="#181548" stroke="#31C5FF" stroke-miterlimit="10"/>
<path fill-rule="evenodd" clip-rule="evenodd" d="M126.4 199.4H177.3C178.4 199.4 179.4 200.3 179.4 201.5C179.4 202.6 178.5 203.6 177.3 203.6H126.4C125.3 203.6 124.3 202.7 124.3 201.5C124.3 200.4 125.3 199.4 126.4 199.4Z" fill="#31C5FF"/>
<path fill-rule="evenodd" clip-rule="evenodd" d="M126.4 105.7H145.3C146.4 105.7 147.4 106.6 147.4 107.8C147.4 108.9 146.5 109.9 145.3 109.9H126.4C125.3 109.9 124.3 109 124.3 107.8C124.3 106.6 125.3 105.7 126.4 105.7Z" fill="#FFD22E"/>
<path fill-rule="evenodd" clip-rule="evenodd" d="M126.4 117.4H189.7C190.8 117.4 191.8 118.3 191.8 119.5C191.8 120.6 190.9 121.6 189.7 121.6H126.4C125.3 121.6 124.3 120.7 124.3 119.5C124.3 118.3 125.3 117.4 126.4 117.4Z" fill="#31C5FF"/>
<path fill-rule="evenodd" clip-rule="evenodd" d="M126.4 128.6H189.7C190.8 128.6 191.8 129.5 191.8 130.7C191.8 131.8 190.9 132.8 189.7 132.8H126.4C125.3 132.8 124.3 131.9 124.3 130.7C124.3 129.5 125.3 128.6 126.4 128.6Z" fill="#31C5FF"/>
<path fill-rule="evenodd" clip-rule="evenodd" d="M126.4 139.8H143.6C144.7 139.8 145.7 140.7 145.7 141.9C145.7 143 144.8 144 143.6 144H126.4C125.3 144 124.3 143.1 124.3 141.9C124.3 140.7 125.3 139.8 126.4 139.8Z" fill="#FFD22E"/>
<path fill-rule="evenodd" clip-rule="evenodd" d="M150.9 139.8H168.1C169.2 139.8 170.2 140.7 170.2 141.9C170.2 143 169.3 144 168.1 144H150.9C149.8 144 148.8 143.1 148.8 141.9C148.8 140.7 149.7 139.8 150.9 139.8Z" fill="#FFD22E"/>
<path fill-rule="evenodd" clip-rule="evenodd" d="M126.4 153.3H149.6C150.7 153.3 151.7 154.2 151.7 155.4C151.7 156.5 150.8 157.5 149.6 157.5H126.4C125.3 157.5 124.3 156.6 124.3 155.4C124.3 154.2 125.3 153.3 126.4 153.3Z" fill="#FC3E54"/>
<path fill-rule="evenodd" clip-rule="evenodd" d="M157.7 153.3H180.9C182 153.3 183 154.2 183 155.4C183 156.5 182.1 157.5 180.9 157.5H157.7C156.6 157.5 155.6 156.6 155.6 155.4C155.6 154.2 156.5 153.3 157.7 153.3Z" fill="#FC3E54"/>
<path fill-rule="evenodd" clip-rule="evenodd" d="M126.4 163.4H154.4C155.5 163.4 156.5 164.3 156.5 165.5C156.5 166.6 155.6 167.6 154.4 167.6H126.4C125.3 167.6 124.3 166.7 124.3 165.5C124.3 164.4 125.3 163.4 126.4 163.4Z" fill="#31C5FF"/>
<path fill-rule="evenodd" clip-rule="evenodd" d="M163.2 163.4H191.2C192.3 163.4 193.3 164.3 193.3 165.5C193.3 166.6 192.4 167.6 191.2 167.6H163.2C162.1 167.6 161.1 166.7 161.1 165.5C161.2 164.4 162.1 163.4 163.2 163.4Z" fill="#31C5FF"/>
<path fill-rule="evenodd" clip-rule="evenodd" d="M126.4 174.9H145.3C146.4 174.9 147.4 175.8 147.4 177C147.4 178.1 146.5 179.1 145.3 179.1H126.4C125.3 179.1 124.3 178.2 124.3 177C124.3 175.8 125.3 174.9 126.4 174.9Z" fill="#FFD22E"/>
<path fill-rule="evenodd" clip-rule="evenodd" d="M126.4 188.1H154.4C155.5 188.1 156.5 189 156.5 190.2C156.5 191.3 155.6 192.3 154.4 192.3H126.4C125.3 192.3 124.3 191.4 124.3 190.2C124.3 189.1 125.3 188.1 126.4 188.1Z" fill="#03E59F"/>
<path fill-rule="evenodd" clip-rule="evenodd" d="M163.2 188.1H191.2C192.3 188.1 193.3 189 193.3 190.2C193.3 191.3 192.4 192.3 191.2 192.3H163.2C162.1 192.3 161.1 191.4 161.1 190.2C161.2 189.1 162.1 188.1 163.2 188.1Z" fill="#03E59F"/>
<path d="M31.4 104.5C30.7 103.8 29.8001 103.4 28.7001 103.4C27.7001 103.4 26.7 103.8 26 104.5C25.3 105.2 24.9 106.1 24.9 107.2C24.9 108.2 25.3 109.2 26 109.9C26.7 110.6 27.6001 111 28.7001 111C29.7001 111 30.7 110.6 31.4 109.9C32.1 109.2 32.5 108.3 32.5 107.2C32.5 106.1 32 105.2 31.4 104.5ZM28.7001 101.3C30.3001 101.3 31.8001 102 32.9001 103C34.0001 104.1 34.6 105.5 34.6 107.2C34.6 108.8 33.9001 110.3 32.9001 111.4C31.8001 112.5 30.4001 113.1 28.7001 113.1C27.1001 113.1 25.6 112.4 24.5 111.4C23.4 110.3 22.8 108.9 22.8 107.2C22.8 105.6 23.5 104.1 24.5 103C25.6 101.9 27.1001 101.3 28.7001 101.3Z" fill="#630DD3"/>
<path fill-rule="evenodd" clip-rule="evenodd" d="M489.614 120.739L432.186 92L374.758 120.739C366.249 209.618 432.186 225.052 432.186 225.052C432.186 225.052 498.123 209.618 489.614 120.739Z" fill="#EDB720"/>
<path fill-rule="evenodd" clip-rule="evenodd" d="M482.263 125.576L432.186 100.515L382.108 125.576C374.689 203.078 432.186 216.536 432.186 216.536C432.186 216.536 489.683 203.078 482.263 125.576Z" fill="#FCCA2E"/>
<path fill-rule="evenodd" clip-rule="evenodd" d="M419.955 162.731C418.633 162.731 417.562 161.659 417.562 160.336V136.358C417.562 129.837 423.803 124.73 431.768 124.73H432.515C440.36 124.73 446.276 129.729 446.276 136.358V159.766C446.276 161.089 445.206 162.161 443.884 162.161C442.563 162.161 441.491 161.089 441.491 159.766V136.358C441.491 132.46 437.632 129.52 432.515 129.52H431.768C426.574 129.52 422.348 132.588 422.348 136.358V160.336C422.348 161.659 421.277 162.731 419.955 162.731Z" fill="#191551"/>
<path fill-rule="evenodd" clip-rule="evenodd" d="M450.978 178.365C450.978 181.358 448.472 183.952 444.948 183.952H418.892C415.368 183.952 412.349 181.358 412.349 178.365V156.239C412.349 153.246 415.368 150.863 418.892 150.863H444.948C448.472 150.863 450.978 153.246 450.978 156.239V178.365Z" fill="#191551"/>
<path fill-rule="evenodd" clip-rule="evenodd" d="M435.775 163.138C435.775 161.277 434.267 159.767 432.407 159.767H432.231C430.37 159.767 428.863 161.277 428.863 163.138V163.316C428.863 165.178 430.37 166.686 432.231 166.686H432.407C434.267 166.686 435.775 165.178 435.775 163.316V163.138Z" fill="white"/>
<path fill-rule="evenodd" clip-rule="evenodd" d="M433.914 174.137C433.914 175.02 433.2 175.734 432.319 175.734C431.437 175.734 430.724 175.02 430.724 174.137V165.09C430.724 164.208 431.437 163.493 432.319 163.493C433.2 163.493 433.914 164.208 433.914 165.09V174.137Z" fill="white"/>
<path fill-rule="evenodd" clip-rule="evenodd" d="M322.8 272.1V296.2C322.8 299.7 324.2 302.9 326.5 305.2C328.8 307.5 332 308.9 335.5 308.9H347.5V305.9H335.5C332.8 305.9 330.4 304.8 328.6 303C326.8 301.2 325.7 298.8 325.7 296.1V272H322.8V272.1Z" fill="#01013D"/>
<path fill-rule="evenodd" clip-rule="evenodd" d="M336.6 272.1V296.2C336.6 299.7 338 302.9 340.3 305.2C342.6 307.5 345.8 308.9 349.3 308.9H406V305.9H349.3C346.6 305.9 344.2 304.8 342.4 303C340.6 301.2 339.5 298.8 339.5 296.1V272H336.6V272.1Z" fill="#01013D"/>
<path d="M327.3 272.1H321.1V280.4H327.3V272.1Z" fill="#01013D"/>
<path d="M341.3 272.1H335.1V280.4H341.3V272.1Z" fill="#01013D"/>
<path d="M197.2 89.8998H142.6C142.1 89.8998 141.6 90.0998 141.2 90.4998C140.8 90.8998 140.6 91.3998 140.6 91.8998C140.6 92.3998 140.8 92.8999 141.2 93.2999C141.6 93.6999 142.1 93.8998 142.6 93.8998H197.2C197.7 93.8998 198.2 93.6999 198.6 93.2999C199 92.8999 199.2 92.3998 199.2 91.8998C199.2 91.3998 199 90.8998 198.6 90.4998C198.3 90.0998 197.8 89.8998 197.2 89.8998ZM142.6 89.0999H197.2C198 89.0999 198.6 89.3998 199.1 89.8998C199.6 90.3998 199.9 91.0999 199.9 91.7999C199.9 92.5999 199.6 93.1998 199.1 93.6998C198.6 94.1998 197.9 94.4998 197.2 94.4998H142.6C141.8 94.4998 141.2 94.1998 140.7 93.6998C140.2 93.1998 139.9 92.4999 139.9 91.7999C139.9 90.9999 140.2 90.3998 140.7 89.8998C141.2 89.3998 141.9 89.0999 142.6 89.0999Z" fill="#8DABFF"/>
<path d="M136.2 88.8999H130.7V94.7999H136.2V88.8999Z" fill="#FC3E54"/>
<path d="M126.5 88.8999H121V94.7999H126.5V88.8999Z" fill="#03E59F"/>
<path fill-rule="evenodd" clip-rule="evenodd" d="M393.239 264.6H490.139C492.039 264.6 493.639 266.2 493.639 268.1V301.4C493.639 303.3 492.039 304.9 490.139 304.9H393.239C391.339 304.9 389.739 303.3 389.739 301.4V268.1C389.739 266.2 391.339 264.6 393.239 264.6Z" fill="#3462F4"/>
<path fill-rule="evenodd" clip-rule="evenodd" d="M400.439 269.1H420.539C424.439 269.1 427.539 272.2 427.539 276.1V279C427.539 282.9 424.439 286 420.539 286H400.439C396.539 286 393.439 282.9 393.439 279V276.1C393.339 272.2 396.539 269.1 400.439 269.1Z" fill="#01013D"/>
<path fill-rule="evenodd" clip-rule="evenodd" d="M437.639 269.1H483.139C487.039 269.1 490.139 272.2 490.139 276.1V279C490.139 282.9 487.039 286 483.139 286H437.639C433.739 286 430.639 282.9 430.639 279V276.1C430.639 272.2 433.739 269.1 437.639 269.1Z" fill="#01013D"/>
<path d="M469.639 275.4H465.539V279.5H469.639V275.4Z" fill="#FC3E54"/>
<path d="M476.039 275.4H471.939V279.5H476.039V275.4Z" fill="#FFD22E"/>
<path d="M482.439 275.4H478.339V279.5H482.439V275.4Z" fill="#FFD22E"/>
<path d="M412.339 304.9H397.739V308.9H412.339V304.9Z" fill="#092978"/>
<path d="M484.939 304.9H470.339V308.9H484.939V304.9Z" fill="#092978"/>
<path fill-rule="evenodd" clip-rule="evenodd" d="M393.239 220.2H490.139C492.039 220.2 493.639 221.8 493.639 223.7V257C493.639 258.9 492.039 260.5 490.139 260.5H393.239C391.339 260.5 389.739 258.9 389.739 257V223.7C389.739 221.8 391.339 220.2 393.239 220.2Z" fill="#3462F4"/>
<path fill-rule="evenodd" clip-rule="evenodd" d="M400.439 224.7H420.539C424.439 224.7 427.539 227.8 427.539 231.7V234.6C427.539 238.5 424.439 241.6 420.539 241.6H400.439C396.539 241.6 393.439 238.5 393.439 234.6V231.7C393.339 227.9 396.539 224.7 400.439 224.7Z" fill="#01013D"/>
<path fill-rule="evenodd" clip-rule="evenodd" d="M437.639 224.7H483.139C487.039 224.7 490.139 227.8 490.139 231.7V234.6C490.139 238.5 487.039 241.6 483.139 241.6H437.639C433.739 241.6 430.639 238.5 430.639 234.6V231.7C430.639 227.9 433.739 224.7 437.639 224.7Z" fill="#01013D"/>
<path d="M469.639 231H465.539V235.1H469.639V231Z" fill="#FC3E54"/>
<path d="M476.039 231H471.939V235.1H476.039V231Z" fill="#FFD22E"/>
<path d="M482.439 231H478.339V235.1H482.439V231Z" fill="#FFD22E"/>
<path d="M412.339 260.6H397.739V264.6H412.339V260.6Z" fill="#092978"/>
<path d="M484.939 260.6H470.339V264.6H484.939V260.6Z" fill="#092978"/>
<path d="M403.139 231.1H399.039V235.2H403.139V231.1Z" fill="#03E59F"/>
<path d="M410.339 231.1H406.239V235.2H410.339V231.1Z" fill="#03E59F"/>
<path d="M403.139 275.5H399.039V279.6H403.139V275.5Z" fill="#03E59F"/>
<path d="M410.339 275.5H406.239V279.6H410.339V275.5Z" fill="#03E59F"/>
<path fill-rule="evenodd" clip-rule="evenodd" d="M493.739 238.6H497.939C501.439 238.6 504.639 240 506.939 242.3C509.239 244.6 510.639 247.8 510.639 251.3V307.4V308.9H509.139H404.639H395.139V307.4V305.9H406.139H496.239H507.639V251.3C507.639 248.6 506.539 246.2 504.739 244.4C502.939 242.6 500.539 241.5 497.839 241.5H493.639V238.6H493.739Z" fill="#01013D"/>
<path fill-rule="evenodd" clip-rule="evenodd" d="M493.739 282.7H497.939C501.439 282.7 504.639 284.1 506.939 286.4C509.239 288.7 510.639 291.9 510.639 295.4V307.4H507.639V295.4C507.639 292.7 506.539 290.3 504.739 288.5C502.939 286.7 500.539 285.6 497.839 285.6H493.639V282.7H493.739Z" fill="#01013D"/>
<path fill-rule="evenodd" clip-rule="evenodd" d="M493.739 235.5H494.739C495.239 235.5 495.739 235.9 495.739 236.5V243.5C495.739 244 495.339 244.5 494.739 244.5H493.739V235.5Z" fill="#01013D"/>
<path fill-rule="evenodd" clip-rule="evenodd" d="M493.739 279.7H494.739C495.239 279.7 495.739 280.1 495.739 280.7V287.7C495.739 288.2 495.339 288.7 494.739 288.7H493.739V279.7Z" fill="#01013D"/>
<path fill-rule="evenodd" clip-rule="evenodd" d="M334 107C347.183 107 358 117.648 358 131C358 144.183 347.352 155 334 155C320.817 155 310 144.352 310 131C310.169 117.817 320.817 107 334 107Z" fill="#31C5FF"/>
<path d="M325.866 139V121.96H329.178V139H325.866ZM332.733 139V121.96H339.957C340.741 121.96 341.461 122.128 342.117 122.464C342.789 122.784 343.365 123.216 343.845 123.76C344.325 124.288 344.701 124.896 344.973 125.584C345.245 126.256 345.381 126.936 345.381 127.624C345.381 128.344 345.253 129.048 344.997 129.736C344.741 130.408 344.381 131.008 343.917 131.536C343.453 132.064 342.893 132.488 342.237 132.808C341.581 133.128 340.861 133.288 340.077 133.288H336.045V139H332.733ZM336.045 130.384H339.885C340.493 130.384 340.997 130.136 341.397 129.64C341.813 129.144 342.021 128.472 342.021 127.624C342.021 127.192 341.957 126.808 341.829 126.472C341.701 126.12 341.533 125.824 341.325 125.584C341.117 125.344 340.869 125.168 340.581 125.056C340.309 124.928 340.029 124.864 339.741 124.864H336.045V130.384Z" fill="white"/>
<rect x="150.374" y="46.4144" width="12.0211" height="12.0211" rx="2" transform="rotate(-58.7167 150.374 46.4144)" stroke="#1DAFF4" stroke-width="2"/>
<rect x="158.305" y="41.0765" width="11.3534" height="12.0211" rx="2" transform="rotate(-58.7167 158.305 41.0765)" fill="#B12DE8" stroke="#B12DE8" stroke-width="2"/>
<circle cx="65.5" cy="38.5" r="5.5" fill="#1DAFF4"/>
<circle cx="63" cy="23" r="3" fill="#B12DE8"/>
<circle cx="73" cy="167" r="3" fill="#B12DE8"/>
<path d="M343.525 290.521H361.854V308.85H343.525V290.521Z" fill="#A5DBFD"/>
<path fill-rule="evenodd" clip-rule="evenodd" d="M334.786 331.587L349.402 335.996C349.402 335.996 351.027 337.929 351.491 339.708C351.877 341.409 352.651 342.183 353.733 342.26C355.744 342.415 356.595 329.577 356.827 327.489L340.122 322.771L334.786 331.587Z" fill="#F9C4C7"/>
<path fill-rule="evenodd" clip-rule="evenodd" d="M327.129 254.404H302.536C299.442 254.404 291.863 260.205 290.549 267.784C288.074 280.003 289.156 306.839 297.818 316.429L307.64 316.274L337.647 308.85V282.865V258.117C334.786 255.874 331.151 254.404 327.129 254.404Z" fill="#FE5E31"/>
<path fill-rule="evenodd" clip-rule="evenodd" d="M302.536 254.482C290.394 255.642 289.234 270.955 289.388 280.467H302.536V254.482Z" fill="#FE5E31"/>
<path fill-rule="evenodd" clip-rule="evenodd" d="M301.376 280.622L289.466 280.545C289.466 287.737 301.608 304.442 315.142 304.442H332.543C332.543 304.442 328.831 299.724 323.958 299.338C319.086 298.951 318.932 299.647 318.932 299.647C312.667 297.791 304.701 291.604 301.376 280.622Z" fill="#F9C4C7"/>
<path fill-rule="evenodd" clip-rule="evenodd" d="M357.291 304.365H305.243C304.624 304.365 304.083 304.442 303.541 304.519C289.543 304.519 289.234 313.181 288.229 323.08H306.558H319.241H357.291C362.395 323.08 366.649 318.904 366.649 313.723C366.649 308.541 362.395 304.365 357.291 304.365Z" fill="#44475C"/>
<path fill-rule="evenodd" clip-rule="evenodd" d="M359.611 305.293C357.523 304.829 355.203 304.055 352.728 304.365C344.994 305.37 299.133 319.214 299.133 319.214L307.253 328.571C316.689 327.953 354.584 331.356 361.854 326.406C369.356 321.302 371.057 307.922 359.611 305.293Z" fill="#4D5068"/>
<path fill-rule="evenodd" clip-rule="evenodd" d="M329.759 242.108C332.311 246.671 327.903 253.09 322.489 252.626V254.095L325.428 258.349L322.489 262.68L319.473 263.762L312.126 261.906V248.682C311.894 248.604 311.816 249.068 311.275 248.759C310.734 248.45 309.496 245.975 309.728 244.66C309.96 243.423 311.584 242.649 311.584 242.649C310.038 238.86 308.878 238.318 312.822 236.23C316.766 234.142 324.732 234.297 324.732 234.297L328.367 235.534C328.444 239.014 327.98 238.937 329.759 242.108Z" fill="#F9C4C7"/>
<path fill-rule="evenodd" clip-rule="evenodd" d="M323.262 252.626C323.03 252.626 322.721 252.626 322.489 252.626C320.092 252.548 318.081 252.084 315.915 251.234C315.915 251.234 316.689 253.786 319.55 255.101C322.18 256.338 323.958 256.338 324.19 256.338L322.566 254.018V252.548L323.262 252.626Z" fill="#F08B90"/>
<path fill-rule="evenodd" clip-rule="evenodd" d="M327.439 236.617C324.422 237.158 321.948 236.694 320.091 236.926C319.009 237.081 318.081 237.622 317.385 238.164C315.606 239.556 314.291 243.036 313.904 245.356C313.904 245.356 311.894 244.505 311.198 244.892C310.502 245.279 310.966 246.361 311.043 246.748C311.12 247.135 312.048 247.599 312.358 247.908C312.899 248.372 312.28 249.068 311.12 249.146C305.552 249.378 297.509 230.894 318.081 224.939C320.401 222.464 319.241 222 320.478 222C335.868 222.232 332.543 235.921 327.439 236.617Z" fill="#15378B"/>
<path fill-rule="evenodd" clip-rule="evenodd" d="M337.415 257.962C344.066 263.917 348.01 272.192 350.331 280.777C345.922 280.467 341.359 280.545 337.028 280.39L337.415 257.962Z" fill="#FE5E31"/>
<path fill-rule="evenodd" clip-rule="evenodd" d="M319.395 271.187C318.931 271.187 318.622 271.574 318.622 271.96C318.622 272.424 319.009 272.734 319.395 272.734C319.86 272.734 320.169 272.347 320.169 271.96C320.169 271.574 319.86 271.187 319.395 271.187ZM319.395 266.547C318.931 266.547 318.622 266.933 318.622 267.32C318.622 267.784 319.009 268.093 319.395 268.093C319.86 268.093 320.169 267.707 320.169 267.32C320.169 266.856 319.86 266.547 319.395 266.547ZM322.489 254.095C325.273 258.89 322.257 262.216 319.473 263.762C315.606 261.288 312.126 258.813 312.126 254.095C312.126 254.095 310.811 254.095 309.96 256.183C308.568 259.586 310.888 267.32 310.888 267.32C310.888 267.32 313.595 263.84 315.838 263.685C318.081 263.53 319.55 264.149 319.55 264.149C322.412 262.061 324.345 264.768 326.279 266.779C326.897 261.674 326.82 258.039 323.03 254.095H322.489Z" fill="white"/>
<path fill-rule="evenodd" clip-rule="evenodd" d="M325.351 274.435H363.014C364.483 274.435 365.953 275.672 365.643 277.065L359.998 301.967C359.688 303.359 358.838 304.597 357.368 304.597H319.705C318.235 304.597 316.766 303.359 317.075 301.967L322.721 277.065C323.03 275.672 323.881 274.435 325.351 274.435Z" fill="#DFF2FC"/>
<path fill-rule="evenodd" clip-rule="evenodd" d="M327.052 274.435H364.715C366.185 274.435 367.654 275.672 367.345 277.065L361.699 301.967C361.39 303.359 360.539 304.597 359.07 304.597H321.406C319.937 304.597 318.467 303.359 318.777 301.967L324.422 277.065C324.732 275.672 325.583 274.435 327.052 274.435Z" fill="#87B6E1"/>
<path fill-rule="evenodd" clip-rule="evenodd" d="M343.834 287.041C344.994 287.428 345.536 288.82 345.072 290.212C344.608 291.604 343.37 292.377 342.21 291.991C341.05 291.604 340.509 290.212 340.973 288.82C341.437 287.505 342.674 286.654 343.834 287.041Z" fill="white"/>
<path fill-rule="evenodd" clip-rule="evenodd" d="M299.21 302.122H318.313V304.597H297.973V303.359C297.973 302.663 298.514 302.122 299.21 302.122Z" fill="#DFF2FC"/>
<path fill-rule="evenodd" clip-rule="evenodd" d="M298.978 304.906C306.712 305.293 346.773 320.451 346.773 320.451L342.519 334.913C336.642 334.217 294.802 328.649 291.631 326.87C278.097 319.059 287.687 303.901 298.978 304.906Z" fill="#4D5068"/>
<defs>
<linearGradient id="paint0_linear" x1="0" y1="307.999" x2="480.888" y2="307.999" gradientUnits="userSpaceOnUse">
<stop stop-color="#060E49"/>
<stop offset="1" stop-color="#332782"/>
</linearGradient>
</defs>
</svg>
