<?xml version="1.0" encoding="UTF-8"?>
<svg fill="none" viewBox="0 0 506 550" xmlns="http://www.w3.org/2000/svg">
<g clip-path="url(#m)">
<path d="m421.43 302.04 37.943-21.892c2.354-1.315 2.072-3.664-0.659-5.261l-36.625-21.14c-2.731-1.503-6.779-1.691-9.039-0.376l-37.943 21.986c-2.354 1.315-2.072 3.664 0.659 5.261l36.625 21.046c2.636 1.597 6.685 1.691 9.039 0.376z" fill="#203E79" opacity=".1"/>
<path d="m362.49 258.72v-16.348h36.719l12.711-7.329c2.919-1.691 8.003-1.503 11.392 0.47l11.864 6.859h36.813v16.817c0.094 1.128-0.565 2.255-1.977 3.007l-47.453 27.341c-2.919 1.691-8.003 1.503-11.392-0.47l-45.853-26.401c-1.977-1.128-2.918-2.631-2.824-3.946z" fill="#5B95FF"/>
<path d="m417.19 233.92c2.166 0.094 4.331 0.564 6.12 1.597l11.864 6.859h36.813v16.818c0.094 1.127-0.565 2.255-1.977 3.006l-47.453 27.341c-1.412 0.845-3.295 1.127-5.272 1.127v-56.748h-0.095z" fill="#7EC4F7"/>
<path d="m467.75 242.28h4.143v16.818c0.094 1.127-0.565 2.254-1.977 3.006l-2.166 1.315v-21.139z" fill="#7EC4F7"/>
<path d="m421.71 289.92c-2.542 1.034-6.12 1.034-9.133-0.094v-19.166h9.133v19.26z" fill="#7BB1FF"/>
<path d="m422.47 272.72 47.453-27.341c2.919-1.691 2.542-4.604-0.847-6.577l-45.758-26.401c-3.39-1.973-8.474-2.161-11.393-0.47l-47.453 27.435c-2.919 1.691-2.542 4.604 0.848 6.577l45.852 26.401c3.295 1.879 8.379 2.067 11.298 0.376z" fill="#D3E9F8"/>
<path d="m421.62 267.84 39.826-22.925c2.448-1.409 2.166-3.852-0.659-5.449l-38.414-22.173c-2.825-1.598-7.062-1.786-9.509-0.376l-39.827 22.925c-2.448 1.409-2.166 3.852 0.659 5.449l38.414 22.173c2.825 1.597 7.062 1.785 9.51 0.376z" fill="#3A81E8"/>
<path d="m380 263.05c0 1.221 0.847 2.724 1.883 3.288 1.035 0.564 1.883 0.094 1.883-1.127 0-1.222-0.848-2.725-1.883-3.289-1.036-0.563-1.883-0.094-1.883 1.128z" fill="#fff"/>
<path d="m373.79 259.48c0 1.222 0.848 2.725 1.883 3.289 1.036 0.564 1.883 0.094 1.883-1.128 0-1.221-0.847-2.724-1.883-3.288-1.035-0.564-1.883-0.094-1.883 1.127z" fill="#fff"/>
<path d="m367.67 255.9c0 1.222 0.847 2.725 1.883 3.289 1.035 0.563 1.883 0.094 1.883-1.128 0-1.221-0.848-2.725-1.883-3.288-1.036-0.564-1.883-0.094-1.883 1.127z" fill="#fff"/>
<path d="m362.49 232.6v-16.348h36.719l12.711-7.329c2.919-1.691 8.003-1.503 11.392 0.47l11.864 6.859h36.813v16.817c0.094 1.128-0.565 2.255-1.977 3.007l-47.453 27.341c-2.919 1.691-8.003 1.503-11.392-0.47l-45.853-26.401c-1.977-1.128-2.918-2.631-2.824-3.946z" fill="#5B95FF"/>
<path d="m417.19 207.8c2.166 0.094 4.331 0.564 6.12 1.597l11.864 6.859h36.813v16.817c0.094 1.128-0.565 2.255-1.977 3.007l-47.453 27.341c-1.412 0.845-3.295 1.127-5.272 1.127v-56.748h-0.095z" fill="#7EC4F7"/>
<path d="m467.75 216.16h4.143v16.817c0.094 1.128-0.565 2.255-1.977 3.007l-2.166 1.315v-21.139z" fill="#7EC4F7"/>
<path d="m421.71 263.7c-2.542 1.034-6.12 1.034-9.133-0.094v-19.072h9.133v19.166z" fill="#7BB1FF"/>
<path d="m422.47 246.6 47.453-27.341c2.919-1.691 2.542-4.604-0.847-6.577l-45.853-26.401c-3.389-1.973-8.473-2.161-11.392-0.47l-47.359 27.341c-2.919 1.691-2.542 4.604 0.848 6.577l45.852 26.401c3.295 1.973 8.379 2.161 11.298 0.47z" fill="#D3E9F8"/>
<path d="m421.62 241.72 39.826-22.925c2.448-1.409 2.166-3.852-0.659-5.449l-38.414-22.174c-2.825-1.597-7.062-1.785-9.509-0.375l-39.827 22.924c-2.448 1.41-2.166 3.853 0.659 5.45l38.414 22.173c2.825 1.597 7.062 1.785 9.51 0.376z" fill="#3A81E8"/>
<path d="m380 236.93c0 1.221 0.847 2.724 1.883 3.288 1.035 0.564 1.883 0.094 1.883-1.127 0-1.222-0.848-2.725-1.883-3.289-1.036-0.564-1.883-0.094-1.883 1.128z" fill="#fff"/>
<path d="m373.79 233.36c0 1.222 0.848 2.725 1.883 3.289 1.036 0.563 1.883 0.094 1.883-1.128 0-1.221-0.847-2.724-1.883-3.288-1.035-0.564-1.883-0.094-1.883 1.127z" fill="#fff"/>
<path d="m367.67 229.79c0 1.221 0.847 2.725 1.883 3.288 1.035 0.564 1.883 0.094 1.883-1.127s-0.848-2.725-1.883-3.288c-1.036-0.564-1.883-0.094-1.883 1.127z" fill="#fff"/>
<path d="m362.49 206.48v-16.348h36.719l12.711-7.328c2.919-1.691 8.003-1.503 11.392 0.47l11.864 6.858h36.813v16.818c0.094 1.128-0.565 2.255-1.977 3.007l-47.453 27.34c-2.919 1.692-8.003 1.504-11.392-0.469l-45.853-26.495c-1.977-1.034-2.918-2.537-2.824-3.853z" fill="#5B95FF"/>
<path d="m417.19 181.68c2.166 0.094 4.331 0.563 6.12 1.597l11.864 6.859h36.813v16.817c0.094 1.128-0.565 2.255-1.977 3.007l-47.453 27.341c-1.412 0.845-3.295 1.127-5.272 1.127v-56.748h-0.095z" fill="#7EC4F7"/>
<path d="m467.75 190.04h4.143v16.818c0.094 1.128-0.565 2.255-1.977 3.007l-2.166 1.315v-21.14z" fill="#7EC4F7"/>
<path d="m421.71 237.58c-2.542 1.034-6.12 1.034-9.133-0.094v-19.073h9.133v19.167z" fill="#7BB1FF"/>
<path d="m422.47 220.48 47.453-27.341c2.919-1.691 2.542-4.604-0.847-6.577l-45.853-26.401c-3.389-1.973-8.473-2.161-11.392-0.47l-47.359 27.341c-2.919 1.691-2.542 4.604 0.848 6.577l45.852 26.401c3.295 1.973 8.379 2.161 11.298 0.47z" fill="#D3E9F8"/>
<path d="m421.62 215.6 39.826-22.925c2.448-1.409 2.166-3.852-0.659-5.449l-38.414-22.174c-2.825-1.597-7.062-1.785-9.509-0.375l-39.827 22.924c-2.448 1.41-2.166 3.852 0.659 5.45l38.414 22.173c2.825 1.597 7.062 1.785 9.51 0.376z" fill="#3A81E8"/>
<path d="m380 210.81c0 1.221 0.847 2.724 1.883 3.288 1.035 0.564 1.883 0.094 1.883-1.127 0-1.222-0.848-2.725-1.883-3.289-1.036-0.658-1.883-0.094-1.883 1.128z" fill="#fff"/>
<path d="m373.79 207.24c0 1.222 0.848 2.725 1.883 3.289 1.036 0.563 1.883 0.094 1.883-1.128 0-1.221-0.847-2.725-1.883-3.288-1.035-0.564-1.883-0.094-1.883 1.127z" fill="#fff"/>
<path d="m367.67 203.67c0 1.221 0.847 2.725 1.883 3.288 1.035 0.564 1.883 0.094 1.883-1.127 0-1.222-0.848-2.725-1.883-3.289-1.036-0.563-1.883-0.094-1.883 1.128z" fill="#fff"/>
<path d="m362.49 180.37v-16.348h36.719l12.711-7.329c2.919-1.691 8.003-1.503 11.392 0.47l11.864 6.859h36.813v16.818c0.094 1.127-0.565 2.254-1.977 3.006l-47.453 27.341c-2.919 1.691-8.003 1.503-11.392-0.47l-45.853-26.495c-1.977-1.128-2.918-2.537-2.824-3.852z" fill="#5B95FF"/>
<path d="m417.19 155.56c2.166 0.094 4.331 0.564 6.12 1.597l11.864 6.859h36.813v16.818c0.094 1.127-0.565 2.255-1.977 3.006l-47.453 27.341c-1.412 0.846-3.295 1.127-5.272 1.127v-56.748h-0.095z" fill="#7EC4F7"/>
<path d="m467.75 163.92h4.143v16.818c0.094 1.127-0.565 2.255-1.977 3.006l-2.166 1.316v-21.14z" fill="#7EC4F7"/>
<path d="m421.71 211.46c-2.542 1.034-6.12 1.034-9.133-0.093v-19.073h9.133v19.166z" fill="#7BB1FF"/>
<path d="m422.47 194.36 47.453-27.341c2.919-1.691 2.542-4.604-0.847-6.577l-45.853-26.401c-3.389-1.973-8.473-2.161-11.392-0.469l-47.359 27.34c-2.919 1.691-2.542 4.604 0.848 6.577l45.852 26.401c3.295 1.973 8.379 2.161 11.298 0.47z" fill="#D3E9F8"/>
<path d="m421.62 189.48 39.826-22.925c2.448-1.409 2.166-3.852-0.659-5.449l-38.414-22.173c-2.825-1.598-7.062-1.785-9.509-0.376l-39.827 22.925c-2.448 1.409-2.166 3.852 0.659 5.449l38.414 22.173c2.825 1.597 7.062 1.785 9.51 0.376z" fill="#3A81E8"/>
<path d="m380 184.69c0 1.221 0.847 2.725 1.883 3.288 1.035 0.564 1.883 0.094 1.883-1.127 0-1.222-0.848-2.725-1.883-3.289-1.036-0.657-1.883-0.093-1.883 1.128z" fill="#fff"/>
<path d="m373.79 181.12c0 1.221 0.848 2.724 1.883 3.288 1.036 0.564 1.883 0.094 1.883-1.127 0-1.222-0.847-2.725-1.883-3.289-1.035-0.564-1.883-0.094-1.883 1.128z" fill="#fff"/>
<path d="m367.67 177.55c0 1.222 0.847 2.725 1.883 3.289 1.035 0.563 1.883 0.094 1.883-1.128 0-1.221-0.848-2.724-1.883-3.288-1.036-0.564-1.883-0.094-1.883 1.127z" fill="#fff"/>
<path d="m362.49 154.25v-16.348h36.719l12.711-7.329c2.919-1.691 8.003-1.503 11.392 0.47l11.864 6.859h36.813v16.817c0.094 1.128-0.565 2.255-1.977 3.007l-47.453 27.341c-2.919 1.691-8.003 1.503-11.392-0.47l-45.853-26.495c-1.977-1.128-2.918-2.537-2.824-3.852z" fill="#5B95FF"/>
<path d="m417.19 129.44c2.166 0.094 4.331 0.564 6.12 1.597l11.864 6.859h36.813v16.818c0.094 1.127-0.565 2.254-1.977 3.006l-47.453 27.341c-1.412 0.845-3.295 1.127-5.272 1.127v-56.748h-0.095z" fill="#7EC4F7"/>
<path d="m467.75 137.8h4.143v16.818c0.094 1.127-0.565 2.254-1.977 3.006l-2.166 1.315v-21.139z" fill="#7EC4F7"/>
<path d="m421.71 185.34c-2.542 1.034-6.12 1.034-9.133-0.094v-19.072h9.133v19.166z" fill="#7BB1FF"/>
<path d="m422.47 168.25 47.453-27.341c2.919-1.691 2.542-4.604-0.847-6.577l-45.758-26.401c-3.39-1.973-8.474-2.161-11.393-0.47l-47.453 27.341c-2.919 1.691-2.542 4.604 0.848 6.577l45.852 26.401c3.295 1.973 8.379 2.161 11.298 0.47z" fill="#D3E9F8"/>
<path d="m421.62 163.36 39.826-22.925c2.448-1.409 2.166-3.852-0.659-5.449l-38.508-22.173c-2.825-1.598-7.062-1.786-9.51-0.376l-39.732 22.925c-2.448 1.409-2.166 3.852 0.659 5.449l38.414 22.173c2.825 1.597 7.062 1.785 9.51 0.376z" fill="#3A81E8"/>
<path d="m381.89 159.55-0.377 0.651 19.077 10.997 0.377-0.651-19.077-10.997z" fill="#fff"/>
<path d="m380 158.57c0 1.221 0.847 2.724 1.883 3.288 1.035 0.564 1.883 0.094 1.883-1.127 0-1.222-0.848-2.725-1.883-3.289-1.036-0.657-1.883-0.094-1.883 1.128z" fill="#fff"/>
<path d="m373.79 155c0 1.222 0.848 2.725 1.883 3.289 1.036 0.564 1.883 0.094 1.883-1.128 0-1.221-0.847-2.724-1.883-3.288-1.035-0.658-1.883-0.094-1.883 1.127z" fill="#fff"/>
<path d="m367.67 151.43c0 1.221 0.847 2.725 1.883 3.288 1.035 0.564 1.883 0.094 1.883-1.127s-0.848-2.725-1.883-3.288c-1.036-0.564-1.883-0.094-1.883 1.127z" fill="#fff"/>
<path d="m362.49 127.94v-16.349h36.719l12.711-7.328c2.919-1.691 8.003-1.503 11.392 0.47l11.864 6.858h36.813v16.818c0.094 1.128-0.565 2.255-1.977 3.007l-47.453 27.34c-2.919 1.692-8.003 1.504-11.392-0.469l-45.853-26.495c-1.977-1.128-2.918-2.537-2.824-3.852z" fill="#5B95FF"/>
<path d="m417.19 103.14c2.166 0.094 4.331 0.563 6.12 1.597l11.864 6.859h36.813v16.817c0.094 1.128-0.565 2.255-1.977 3.007l-47.453 27.341c-1.412 0.845-3.295 1.127-5.272 1.127v-56.748h-0.095z" fill="#7EC4F7"/>
<path d="m467.75 111.5h4.143v16.817c0.094 1.128-0.565 2.255-1.977 3.007l-2.166 1.315v-21.139z" fill="#7EC4F7"/>
<path d="m421.71 159.04c-2.542 1.034-6.12 1.034-9.133-0.094v-19.072h9.133v19.166z" fill="#7BB1FF"/>
<path d="m422.47 141.94 47.453-27.341c2.919-1.691 2.542-4.604-0.847-6.577l-45.758-26.401c-3.39-1.973-8.474-2.1609-11.393-0.4697l-47.453 27.341c-2.919 1.691-2.542 4.604 0.848 6.577l45.852 26.401c3.295 1.973 8.379 2.161 11.298 0.47z" fill="#D3E9F8"/>
<path d="m365.32 111.87 45.852 26.401c3.39 1.973 8.474 2.161 11.393 0.47l47.453-27.341c0.659-0.375 1.13-0.845 1.412-1.315 1.036 1.597 0.565 3.382-1.412 4.51l-47.547 27.34c-2.919 1.692-8.003 1.504-11.393-0.469l-45.758-26.401c-2.636-1.504-3.389-3.571-2.259-5.262 0.376 0.752 1.129 1.409 2.259 2.067z" fill="#fff"/>
<path d="m380 132.26c0 1.221 0.847 2.724 1.883 3.288 1.035 0.564 1.883 0.094 1.883-1.127 0-1.222-0.848-2.725-1.883-3.289-1.036-0.657-1.883-0.094-1.883 1.128z" fill="#fff"/>
<path d="m398.83 142.6c0 1.221 0.847 2.724 1.883 3.288s1.883 0.094 1.883-1.128c0-1.221-0.847-2.724-1.883-3.288s-1.883-0.094-1.883 1.128z" fill="#fff"/>
<path d="m398.83 169.66c0 1.222 0.847 2.725 1.883 3.289 1.036 0.563 1.883 0.093 1.883-1.128s-0.847-2.725-1.883-3.288c-1.036-0.564-1.883-0.094-1.883 1.127z" fill="#fff"/>
<path d="m373.79 128.69c0 1.222 0.848 2.725 1.883 3.289 1.036 0.563 1.883 0.094 1.883-1.128 0-1.221-0.847-2.724-1.883-3.288-1.035-0.658-1.883-0.094-1.883 1.127z" fill="#fff"/>
<path d="m367.67 125.12c0 1.221 0.847 2.725 1.883 3.288 1.035 0.564 1.883 0.094 1.883-1.127s-0.848-2.725-1.883-3.288c-1.036-0.564-1.883-0.094-1.883 1.127z" fill="#fff"/>
<path d="m419.64 125.03 22.22-12.778c1.318-0.752 1.224-2.161-0.377-3.1l-21.373-12.402c-1.6-0.9396-3.954-1.0336-5.366-0.188l-22.22 12.777c-1.318 0.752-1.224 2.161 0.376 3.101l21.467 12.402c1.601 0.845 3.955 0.939 5.273 0.188z" fill="#7EC4F7"/>
<path d="m417.57 114.32 3.107-1.785c0.188-0.094 0.188-0.282-0.095-0.47l-3.012-1.691c-0.189-0.094-0.565-0.094-0.754 0l-3.107 1.785c-0.188 0.094-0.188 0.282 0.094 0.47l3.013 1.691c0.189 0.094 0.565 0.094 0.754 0z" fill="#D3E9F8"/>
<path d="m441.86 112.16c-0.189 0-0.283-0.094-0.377-0.188l-21.373-12.308c-1.6-0.9395-3.954-1.0335-5.366-0.1879l-22.126 12.684c-1.224-0.94-1.318-2.161-0.094-2.819l22.22-12.778c1.318-0.7516 3.766-0.6576 5.366 0.188l21.467 12.402c1.507 0.846 1.695 2.255 0.283 3.007z" fill="#44A6E2"/>
<path d="m424.35 145.79c0 1.315 0.942 1.785 1.977 1.127 1.13-0.657 1.978-2.161 1.978-3.476s-0.942-1.785-1.978-1.127c-1.129 0.657-1.977 2.255-1.977 3.476z" fill="#D3E9F8"/>
<path d="m430.56 142.22c0 1.315 0.942 1.785 1.978 1.127 1.13-0.658 1.977-2.161 1.977-3.476 0-1.316-0.942-1.785-1.977-1.128-1.036 0.658-1.978 2.255-1.978 3.477z" fill="#203E79"/>
<path d="m424.35 153.4c0 1.316 0.942 1.785 1.977 1.128 1.13-0.658 1.978-2.161 1.978-3.477 0-1.315-0.942-1.785-1.978-1.127-1.129 0.564-1.977 2.161-1.977 3.476z" fill="#D3E9F8"/>
<path d="m430.56 149.83c0 1.315 0.942 1.785 1.978 1.127 1.13-0.657 1.977-2.16 1.977-3.476 0-1.315-0.942-1.785-1.977-1.127-1.036 0.563-1.978 2.161-1.978 3.476z" fill="#D3E9F8"/>
<path d="m424.35 171.82c0 1.315 0.942 1.785 1.977 1.127 1.13-0.657 1.978-2.161 1.978-3.476s-0.942-1.785-1.978-1.127c-1.129 0.563-1.977 2.161-1.977 3.476z" fill="#D3E9F8"/>
<path d="m430.56 168.15c0 1.315 0.942 1.785 1.978 1.127 1.13-0.657 1.977-2.161 1.977-3.476s-0.942-1.785-1.977-1.127c-1.036 0.657-1.978 2.254-1.978 3.476z" fill="#D3E9F8"/>
<path d="m424.35 179.33c0 1.316 0.942 1.786 1.977 1.128 1.13-0.658 1.978-2.161 1.978-3.476 0-1.316-0.942-1.786-1.978-1.128-1.129 0.658-1.977 2.161-1.977 3.476z" fill="#203E79"/>
<path d="m430.56 175.76c0 1.316 0.942 1.785 1.978 1.128 1.13-0.658 1.977-2.161 1.977-3.477 0-1.315-0.942-1.785-1.977-1.127-1.036 0.564-1.978 2.161-1.978 3.476z" fill="#D3E9F8"/>
<path d="m424.35 197.75c0 1.315 0.942 1.785 1.977 1.127 1.13-0.658 1.978-2.161 1.978-3.476 0-1.316-0.942-1.785-1.978-1.128-1.129 0.658-1.977 2.255-1.977 3.477z" fill="#D3E9F8"/>
<path d="m430.56 194.18c0 1.316 0.942 1.785 1.978 1.128 1.13-0.658 1.977-2.161 1.977-3.477 0-1.315-0.942-1.785-1.977-1.127-1.036 0.658-1.978 2.161-1.978 3.476z" fill="#203E79"/>
<path d="m424.35 205.36c0 1.315 0.942 1.785 1.977 1.127 1.13-0.657 2.072-2.255 2.072-3.476 0-1.315-0.942-1.785-1.977-1.127-1.224 0.563-2.072 2.161-2.072 3.476z" fill="#D3E9F8"/>
<path d="m430.56 201.69c0 1.315 0.942 1.785 1.978 1.127 1.13-0.657 1.977-2.161 1.977-3.476s-0.942-1.785-1.977-1.127c-1.036 0.657-1.978 2.254-1.978 3.476z" fill="#203E79"/>
<path d="m424.35 223.96c0 1.315 0.942 1.785 1.977 1.127 1.13-0.657 1.978-2.161 1.978-3.476s-0.942-1.785-1.978-1.127c-1.129 0.657-1.977 2.254-1.977 3.476z" fill="#203E79"/>
<path d="m430.56 220.39c0 1.315 0.942 1.785 1.978 1.127 1.13-0.658 1.977-2.161 1.977-3.476 0-1.316-0.942-1.785-1.977-1.128-1.036 0.658-1.978 2.255-1.978 3.477z" fill="#D3E9F8"/>
<path d="m424.35 231.57c0 1.316 0.942 1.785 1.977 1.128 1.13-0.658 1.978-2.161 1.978-3.477 0-1.315-0.942-1.785-1.978-1.127-1.129 0.564-1.977 2.161-1.977 3.476z" fill="#D3E9F8"/>
<path d="m430.56 228c0 1.315 0.942 1.785 1.978 1.127 1.13-0.657 1.977-2.161 1.977-3.476s-0.942-1.785-1.977-1.127c-1.036 0.563-1.978 2.161-1.978 3.476z" fill="#203E79"/>
<path d="m424.35 249.99c0 1.316 0.942 1.785 1.977 1.128 1.13-0.658 1.978-2.161 1.978-3.477 0-1.315-0.942-1.785-1.978-1.127-1.129 0.658-1.977 2.161-1.977 3.476z" fill="#203E79"/>
<path d="m430.56 246.42c0 1.315 0.942 1.785 1.978 1.127 1.13-0.657 1.977-2.161 1.977-3.476s-0.942-1.785-1.977-1.127c-1.036 0.563-1.978 2.161-1.978 3.476z" fill="#D3E9F8"/>
<path d="m424.35 257.5c0 1.316 0.942 1.786 1.977 1.128 1.13-0.658 1.978-2.161 1.978-3.476 0-1.316-0.942-1.786-1.978-1.128-1.129 0.658-1.977 2.255-1.977 3.476z" fill="#203E79"/>
<path d="m430.56 253.93c0 1.315 0.942 1.785 1.978 1.128 1.13-0.658 1.977-2.161 1.977-3.477 0-1.315-0.942-1.785-1.977-1.127-1.036 0.657-1.978 2.161-1.978 3.476z" fill="#D3E9F8"/>
<path d="m424.35 276.29c0 1.316 0.942 1.786 1.977 1.128 1.13-0.658 1.978-2.161 1.978-3.476 0-1.316-0.942-1.786-1.978-1.128-1.129 0.658-1.977 2.161-1.977 3.476z" fill="#D3E9F8"/>
<path d="m430.56 272.72c0 1.315 0.942 1.785 1.978 1.128 1.13-0.658 1.977-2.161 1.977-3.477 0-1.315-0.942-1.785-1.977-1.127-1.036 0.657-1.978 2.161-1.978 3.476z" fill="#203E79"/>
<path d="m424.35 283.81c0 1.315 0.942 1.785 1.977 1.127 1.13-0.658 1.978-2.161 1.978-3.476 0-1.316-0.942-1.785-1.978-1.128-1.129 0.658-1.977 2.255-1.977 3.477z" fill="#D3E9F8"/>
<path d="m430.56 280.24c0 1.316 0.942 1.785 1.978 1.128 1.13-0.658 1.977-2.161 1.977-3.477 0-1.315-0.942-1.785-1.977-1.127-1.036 0.658-1.978 2.161-1.978 3.476z" fill="#D3E9F8"/>
<path d="m275.94 431.05-80.594-45.85c-2.919-1.691-2.542-4.698 0.847-6.671l46.417-26.683c3.39-1.973 8.568-2.161 11.487-0.47l80.595 45.85c2.918 1.691 2.542 4.698-0.848 6.671l-46.417 26.683c-3.39 1.973-8.568 2.161-11.487 0.47z" fill="#F3F3F3"/>
<path d="m341.85 381.72v-187.82l-74.851-19.542-13.747-7.892c-3.201-1.785-8.662-1.598-12.334 0.469l-12.898 7.423h-39.921l11.863 181.33c-0.094 1.221 0.565 2.442 2.166 3.288l74.663 56.279c3.201 1.785 8.662 1.597 12.334-0.47l49.806-28.656c1.977-1.316 3.013-2.913 2.919-4.416z" fill="#7EC4F7"/>
<path d="m247.51 165.25c-2.354 0.094-4.708 0.658-6.591 1.691l-12.899 7.423h-39.921v188.38c-0.094 1.221 0.565 2.443 2.166 3.288l86.526 49.232c1.507 0.846 3.578 1.316 5.743 1.222l0.848-189.51-35.872-61.728z" fill="#D3E9F8"/>
<path d="m277.54 415.54c2.73 1.127 6.685 1.127 9.886-0.094v-190.82h-9.886v190.92z" fill="#7EC4F7"/>
<path d="m276.7 226.88-86.527-49.232c-3.201-1.785-2.73-4.979 0.848-7.14l49.806-28.656c3.672-2.067 9.133-2.349 12.334-0.47l86.527 49.232c3.201 1.785 2.73 4.979-0.848 7.14l-49.806 28.656c-3.578 2.067-9.133 2.349-12.334 0.47z" fill="#D3E9F8"/>
<path d="m338.84 194.19-49.807 28.656c-3.672 2.067-9.133 2.349-12.334 0.47l-86.526-49.232c-0.659-0.376-1.224-0.846-1.601-1.41-1.129 1.786-0.564 3.665 1.601 4.886l86.526 49.232c3.201 1.785 8.662 1.597 12.334-0.47l49.807-28.656c2.825-1.597 3.672-3.946 2.448-5.731-0.471 0.846-1.318 1.597-2.448 2.255z" fill="#F9FCFF"/>
<path d="m279.14 206.96-57.621-33.354c-1.507-0.845-1.319-2.349 0.376-3.288l23.256-13.436c1.695-0.939 4.331-1.127 5.743-0.282l57.716 33.354c1.506 0.846 1.318 2.349-0.377 3.289l-23.256 13.435c-1.694 1.034-4.331 1.128-5.837 0.282z" fill="#7EC4F7"/>
<path d="m248.07 175.11-3.295-1.879c-0.189-0.094-0.189-0.282 0.094-0.47l3.201-1.879c0.282-0.094 0.565-0.188 0.753 0l3.296 1.879c0.188 0.094 0.188 0.282-0.095 0.47l-3.201 1.879c-0.188 0.094-0.565 0.188-0.753 0z" fill="#D3E9F8"/>
<path d="m259.28 181.5-3.295-1.879c-0.189-0.094-0.189-0.282 0.094-0.47l3.201-1.879c0.283-0.094 0.565-0.188 0.753 0l3.296 1.879c0.188 0.094 0.188 0.282-0.094 0.47l-3.202 1.879c-0.188 0.188-0.565 0.188-0.753 0z" fill="#D3E9F8"/>
<path d="m270.39 187.89-3.295-1.879c-0.188-0.094-0.188-0.282 0.094-0.47l3.201-1.879c0.283-0.094 0.565-0.188 0.754 0l3.295 1.879c0.188 0.094 0.188 0.282-0.094 0.47l-3.201 1.879c-0.189 0.188-0.565 0.188-0.754 0z" fill="#D3E9F8"/>
<path d="m281.5 194.38-3.295-1.879c-0.189-0.094-0.189-0.282 0.094-0.47l3.201-1.879c0.282-0.094 0.565-0.188 0.753 0l3.296 1.879c0.188 0.094 0.188 0.282-0.095 0.47l-3.201 1.879c-0.188 0.094-0.471 0.094-0.753 0z" fill="#D3E9F8"/>
<path d="m221.62 173.61c0.189 0 0.283-0.094 0.377-0.188l23.256-13.435c1.695-0.94 4.331-1.128 5.743-0.282l57.527 33.26c1.318-0.94 1.413-2.255 0.094-3.101l-57.527-33.166c-1.506-0.845-4.048-0.751-5.743 0.282l-23.256 13.435c-1.789 0.846-1.977 2.349-0.471 3.195z" fill="#44A6E2"/>
<path d="m298.82 264.09 32.765-18.697c1.883-1.033 3.295-3.946 3.295-6.389v-11.65c0-2.443-1.506-3.57-3.295-2.537l-32.765 18.697c-1.883 1.034-3.296 3.946-3.296 6.389v11.65c-0.094 2.537 1.413 3.665 3.296 2.537z" fill="#203E79"/>
<path d="m333.19 224.53c0.471 0.47 0.848 1.316 0.848 2.443v11.65c0 2.443-1.507 5.262-3.296 6.389l-32.765 18.697c-0.565 0.376-1.13 0.47-1.6 0.376 0.565 0.564 1.506 0.658 2.542 0.094l32.765-18.697c1.883-1.034 3.295-3.946 3.295-6.389v-11.744c-0.094-1.691-0.753-2.631-1.789-2.819z" fill="#fff"/>
<path d="m308.61 251.41 3.013-1.692c0.376-0.187 0.753-0.845 0.753-1.409v-3.194c0-0.564-0.283-0.752-0.753-0.564l-3.013 1.691c-0.377 0.188-0.754 0.846-0.754 1.41v3.194c0.095 0.564 0.377 0.846 0.754 0.564z" fill="#3A6DAA"/>
<path d="m318.69 245.67 3.013-1.691c0.376-0.188 0.753-0.846 0.753-1.409v-3.195c0-0.563-0.283-0.751-0.753-0.563l-3.013 1.691c-0.377 0.188-0.753 0.845-0.753 1.409v3.195c0 0.563 0.376 0.751 0.753 0.563z" fill="#fff"/>
<path d="m298.82 348.55 32.765-18.697c1.883-1.033 3.295-3.946 3.295-6.389v-11.65c0-2.443-1.506-3.57-3.295-2.537l-32.765 18.697c-1.883 1.034-3.296 3.946-3.296 6.389v11.65c-0.094 2.443 1.413 3.571 3.296 2.537z" fill="#203E79"/>
<path d="m333.19 308.9c0.471 0.47 0.848 1.316 0.848 2.443v11.65c0 2.443-1.507 5.262-3.296 6.389l-32.765 18.697c-0.565 0.376-1.13 0.47-1.6 0.376 0.565 0.564 1.506 0.658 2.542 0.094l32.765-18.697c1.883-1.033 3.295-3.946 3.295-6.389v-11.65c-0.094-1.691-0.753-2.725-1.789-2.913z" fill="#fff"/>
<path d="m308.61 335.87 3.013-1.691c0.376-0.188 0.753-0.846 0.753-1.409v-3.195c0-0.564-0.283-0.752-0.753-0.564l-3.013 1.692c-0.377 0.187-0.754 0.845-0.754 1.409v3.194c0.095 0.564 0.377 0.752 0.754 0.564z" fill="#3A6DAA"/>
<path d="m318.69 330.04 3.013-1.691c0.376-0.188 0.753-0.846 0.753-1.41v-3.194c0-0.564-0.283-0.752-0.753-0.564l-3.013 1.691c-0.377 0.188-0.753 0.846-0.753 1.41v3.194c0 0.564 0.376 0.846 0.753 0.564z" fill="#fff"/>
<path d="m298.82 390.74 32.765-18.697c1.883-1.034 3.295-3.946 3.295-6.389v-11.651c0-2.442-1.506-3.57-3.295-2.536l-32.765 18.697c-1.883 1.033-3.296 3.946-3.296 6.388v11.651c-0.094 2.537 1.413 3.664 3.296 2.537z" fill="#203E79"/>
<path d="m333.19 351.18c0.471 0.469 0.848 1.315 0.848 2.442v11.651c0 2.443-1.507 5.261-3.296 6.389l-32.765 18.696c-0.565 0.376-1.13 0.47-1.6 0.376 0.565 0.564 1.506 0.658 2.542 0.094l32.765-18.697c1.883-1.033 3.295-3.946 3.295-6.389v-11.65c-0.094-1.691-0.753-2.725-1.789-2.912z" fill="#fff"/>
<path d="m308.61 378.06 3.013-1.691c0.376-0.188 0.753-0.846 0.753-1.409v-3.195c0-0.564-0.283-0.751-0.753-0.564l-3.013 1.692c-0.377 0.188-0.754 0.845-0.754 1.409v3.194c0.095 0.564 0.377 0.846 0.754 0.564z" fill="#3A6DAA"/>
<path d="m318.69 372.32 3.013-1.692c0.376-0.187 0.753-0.845 0.753-1.409v-3.194c0-0.564-0.283-0.752-0.753-0.564l-3.013 1.691c-0.377 0.188-0.753 0.846-0.753 1.409v3.195c0 0.564 0.376 0.752 0.753 0.564z" fill="#fff"/>
<path d="m298.82 306.37 32.765-18.696c1.883-1.034 3.295-3.947 3.295-6.389v-11.651c0-2.442-1.506-3.57-3.295-2.536l-32.765 18.696c-1.883 1.034-3.296 3.947-3.296 6.389v11.651c-0.094 2.442 1.413 3.57 3.296 2.536z" fill="#203E79"/>
<path d="m333.19 266.72c0.471 0.469 0.848 1.315 0.848 2.443v11.65c0 2.443-1.507 5.261-3.296 6.389l-32.765 18.697c-0.565 0.375-1.13 0.469-1.6 0.375 0.565 0.564 1.506 0.658 2.542 0.094l32.765-18.696c1.883-1.034 3.295-3.947 3.295-6.389v-11.651c-0.094-1.691-0.753-2.724-1.789-2.912z" fill="#fff"/>
<path d="m308.61 293.68 3.013-1.691c0.376-0.188 0.753-0.845 0.753-1.409v-3.194c0-0.564-0.283-0.752-0.753-0.564l-3.013 1.691c-0.377 0.188-0.754 0.846-0.754 1.409v3.195c0.095 0.47 0.377 0.751 0.754 0.563z" fill="#3A6DAA"/>
<path d="m318.69 287.86 3.013-1.691c0.376-0.188 0.753-0.845 0.753-1.409v-3.195c0-0.563-0.283-0.751-0.753-0.563l-3.013 1.691c-0.377 0.188-0.753 0.845-0.753 1.409v3.195c0 0.563 0.376 0.845 0.753 0.563z" fill="#fff"/>
<path d="m270.39 252.16-75.511-43.501c-1.694-0.939-3.107-3.57-3.107-5.825v-14.375c0-2.255 1.413-3.288 3.107-2.349l75.511 43.501c1.694 0.94 3.107 3.57 3.107 5.825v14.375c0 2.255-1.413 3.289-3.107 2.349z" fill="#4164C4"/>
<path d="m268.22 247.08-71.179-41.058c-0.848-0.469-1.507-1.785-1.507-3.006v-10.711c0-1.127 0.659-1.691 1.507-1.127l71.179 41.058c0.847 0.469 1.507 1.785 1.507 3.006v10.805c0.094 1.033-0.565 1.597-1.507 1.033z" fill="#5070E2"/>
<path d="m211.92 209.22-10.639-6.107c-0.848-0.47-1.507-1.785-1.507-2.913 0-1.127 0.659-1.597 1.507-1.127l10.639 6.107c0.847 0.47 1.506 1.785 1.506 2.913 0 1.033-0.659 1.597-1.506 1.127z" fill="#5B95FF"/>
<path d="m220.96 212.41c0 1.128-0.753 1.598-1.695 1.034-0.941-0.564-1.789-1.879-1.789-3.007 0-1.127 0.753-1.597 1.789-1.033 0.942 0.564 1.695 1.879 1.695 3.006z" fill="#03E59F"/>
<path d="m227.08 215.89c0 1.128-0.754 1.598-1.789 1.034-0.942-0.564-1.695-1.879-1.695-3.007 0-1.127 0.753-1.597 1.695-1.033 1.035 0.564 1.789 1.973 1.789 3.006z" fill="#03E59F"/>
<path d="m233.2 219.46c0 1.127-0.753 1.597-1.695 1.033-0.941-0.563-1.694-1.879-1.694-3.006 0-1.128 0.753-1.598 1.694-1.034 0.942 0.564 1.695 1.879 1.695 3.007z" fill="#03E59F"/>
<path d="m239.41 223.03c0 1.127-0.754 1.597-1.695 1.034-0.942-0.564-1.695-1.88-1.695-3.007s0.753-1.597 1.695-1.033c0.847 0.563 1.695 1.879 1.695 3.006z" fill="#203E79"/>
<path d="m265.3 241.07-3.577-2.067c-0.565-0.281-0.942-1.127-0.942-1.879v-3.758c0-0.751 0.471-1.033 0.942-0.751l3.577 2.067c0.565 0.281 0.942 1.127 0.942 1.879v3.758c0 0.751-0.471 1.127-0.942 0.751z" fill="#203E79"/>
<path d="m270.39 277.52-75.511-43.501c-1.694-0.94-3.107-3.57-3.107-5.825v-14.375c0-2.255 1.413-3.289 3.107-2.349l75.511 43.501c1.694 0.939 3.107 3.57 3.107 5.825v14.375c0 2.255-1.413 3.288-3.107 2.349z" fill="#4164C4"/>
<path d="m268.22 272.45-71.179-41.058c-0.848-0.47-1.507-1.785-1.507-3.006v-10.711c0-1.128 0.659-1.691 1.507-1.128l71.179 41.058c0.847 0.47 1.507 1.785 1.507 3.007v10.805c0.094 1.033-0.565 1.503-1.507 1.033z" fill="#5070E2"/>
<path d="m211.92 234.49-10.639-6.107c-0.848-0.469-1.507-1.785-1.507-2.912 0-1.128 0.659-1.597 1.507-1.128l10.639 6.107c0.847 0.47 1.506 1.786 1.506 2.913s-0.659 1.691-1.506 1.127z" fill="#5B95FF"/>
<path d="m220.96 237.78c0 1.127-0.753 1.597-1.695 1.034-0.941-0.564-1.789-1.88-1.789-3.007s0.753-1.597 1.789-1.034c0.942 0.47 1.695 1.88 1.695 3.007z" fill="#03E59F"/>
<path d="m227.08 241.26c0 1.127-0.754 1.597-1.789 1.033-0.942-0.564-1.695-1.879-1.695-3.006 0-1.128 0.753-1.598 1.695-1.034 1.035 0.564 1.789 1.879 1.789 3.007z" fill="#203E79"/>
<path d="m232.71 245.91c0.675-0.39 0.675-1.652-1e-3 -2.821-0.676-1.168-1.772-1.8-2.447-1.41-0.676 0.389-0.676 1.651 0 2.82 0.676 1.168 1.772 1.8 2.448 1.411z" fill="#03E59F"/>
<path d="m238.85 249.49c0.675-0.389 0.675-1.652-1e-3 -2.82-0.676-1.169-1.772-1.8-2.447-1.411-0.676 0.389-0.675 1.652 1e-3 2.82s1.771 1.8 2.447 1.411z" fill="#203E79"/>
<path d="m265.3 266.44-3.577-2.067c-0.565-0.282-0.942-1.127-0.942-1.879v-3.758c0-0.752 0.471-1.034 0.942-0.752l3.577 2.067c0.565 0.282 0.942 1.128 0.942 1.879v3.758c0 0.752-0.471 1.034-0.942 0.752z" fill="#FFD22E"/>
<path d="m270.39 302.89-75.511-43.5c-1.694-0.94-3.107-3.571-3.107-5.826v-14.375c0-2.254 1.413-3.288 3.107-2.348l75.511 43.5c1.694 0.94 3.107 3.571 3.107 5.826v14.375c0 2.254-1.413 3.288-3.107 2.348z" fill="#4164C4"/>
<path d="m268.22 297.82-71.179-41.058c-0.848-0.47-1.507-1.785-1.507-3.007v-10.804c0-1.128 0.659-1.691 1.507-1.128l71.179 41.058c0.847 0.47 1.507 1.785 1.507 3.007v10.805c0.094 1.127-0.565 1.597-1.507 1.127z" fill="#5070E2"/>
<path d="m211.92 259.86-10.639-6.107c-0.848-0.47-1.507-1.785-1.507-2.913 0-1.127 0.659-1.597 1.507-1.127l10.639 6.107c0.847 0.47 1.506 1.785 1.506 2.913 0 1.127-0.659 1.597-1.506 1.127z" fill="#5B95FF"/>
<path d="m220.96 263.06c0 1.127-0.753 1.597-1.695 1.033-0.941-0.563-1.789-1.879-1.789-3.006 0-1.128 0.753-1.597 1.789-1.034 0.942 0.564 1.695 1.973 1.695 3.007z" fill="#FF65AB"/>
<path d="m227.08 266.63c0 1.127-0.754 1.597-1.789 1.033-0.942-0.563-1.695-1.879-1.695-3.006 0-1.128 0.753-1.597 1.695-1.034 1.035 0.564 1.789 1.879 1.789 3.007z" fill="#FF65AB"/>
<path d="m233.2 270.2c0 1.128-0.753 1.597-1.695 1.034-0.941-0.564-1.694-1.879-1.694-3.007 0-1.127 0.753-1.597 1.694-1.033 0.942 0.563 1.695 1.879 1.695 3.006z" fill="#03E59F"/>
<path d="m239.41 273.67c0 1.127-0.754 1.597-1.695 1.033-0.942-0.564-1.695-1.879-1.695-3.006 0-1.128 0.753-1.598 1.695-1.034 0.847 0.564 1.695 1.973 1.695 3.007z" fill="#203E79"/>
<path d="m265.3 291.81-3.577-2.067c-0.565-0.282-0.942-1.128-0.942-1.879v-3.758c0-0.752 0.471-1.034 0.942-0.752l3.577 2.067c0.565 0.282 0.942 1.127 0.942 1.879v3.758c0 0.752-0.471 1.034-0.942 0.752z" fill="#203E79"/>
<path d="m270.39 328.17-75.511-43.501c-1.694-0.94-3.107-3.57-3.107-5.825v-14.375c0-2.255 1.413-3.289 3.107-2.349l75.511 43.501c1.694 0.939 3.107 3.57 3.107 5.825v14.375c0 2.349-1.413 3.382-3.107 2.349z" fill="#4164C4"/>
<path d="m268.22 322.44-71.179-41.058c-0.848-0.47-1.507-1.785-1.507-3.007v-10.805c0-1.127 0.659-1.691 1.507-1.127l71.179 41.058c0.847 0.47 1.507 1.785 1.507 3.007v10.804c0.094 1.034-0.565 1.597-1.507 1.128z" fill="#5070E2"/>
<path d="m211.92 285.23-10.639-6.107c-0.848-0.47-1.507-1.785-1.507-2.913 0-1.127 0.659-1.597 1.507-1.127l10.639 6.107c0.847 0.47 1.506 1.785 1.506 2.912 0 1.128-0.659 1.598-1.506 1.128z" fill="#5B95FF"/>
<path d="m220.96 288.42c0 1.128-0.753 1.597-1.695 1.034-0.941-0.564-1.789-1.879-1.789-3.007 0-1.127 0.753-1.597 1.789-1.033 0.942 0.563 1.695 1.879 1.695 3.006z" fill="#203E79"/>
<path d="m227.08 291.99c0 1.128-0.754 1.598-1.789 1.034-0.942-0.564-1.695-1.879-1.695-3.007 0-1.127 0.753-1.597 1.695-1.033 1.035 0.564 1.789 1.879 1.789 3.006z" fill="#203E79"/>
<path d="m233.2 295.56c0 1.127-0.753 1.597-1.695 1.033-0.941-0.563-1.694-1.879-1.694-3.006 0-1.128 0.753-1.597 1.694-1.034 0.942 0.47 1.695 1.879 1.695 3.007z" fill="#03E59F"/>
<path d="m238.86 300.22c0.676-0.389 0.675-1.652-1e-3 -2.82-0.676-1.169-1.771-1.8-2.447-1.411-0.675 0.389-0.675 1.652 1e-3 2.82s1.772 1.8 2.447 1.411z" fill="#203E79"/>
<path d="m265.3 317.17-3.577-2.067c-0.565-0.281-0.942-1.127-0.942-1.879v-3.758c0-0.751 0.471-1.033 0.942-0.751l3.577 2.067c0.565 0.281 0.942 1.127 0.942 1.879v3.758c0 0.751-0.471 1.033-0.942 0.751z" fill="#FFD22E"/>
<path d="m270.39 353.53-75.511-43.501c-1.694-0.94-3.107-3.571-3.107-5.825v-14.375c0-2.255 1.413-3.289 3.107-2.349l75.511 43.501c1.694 0.939 3.107 3.57 3.107 5.825v14.375c0 2.349-1.413 3.382-3.107 2.349z" fill="#4164C4"/>
<path d="m268.22 347.71-71.179-41.058c-0.848-0.47-1.507-1.785-1.507-3.006v-10.805c0-1.128 0.659-1.691 1.507-1.128l71.179 41.058c0.847 0.47 1.507 1.786 1.507 3.007v10.805c0.094 1.127-0.565 1.691-1.507 1.127z" fill="#5070E2"/>
<path d="m211.92 310.6-10.639-6.107c-0.848-0.469-1.507-1.785-1.507-2.912 0-1.128 0.659-1.597 1.507-1.128l10.639 6.107c0.847 0.47 1.506 1.786 1.506 2.913 0 1.034-0.659 1.597-1.506 1.127z" fill="#5B95FF"/>
<path d="m220.96 313.79c0 1.127-0.753 1.597-1.695 1.033-0.941-0.563-1.789-1.879-1.789-3.006 0-1.128 0.753-1.597 1.789-1.034 0.942 0.564 1.695 1.879 1.695 3.007z" fill="#203E79"/>
<path d="m227.08 317.36c0 1.128-0.754 1.597-1.789 1.034-0.942-0.564-1.695-1.879-1.695-3.007 0-1.127 0.753-1.597 1.695-1.033 1.035 0.563 1.789 1.879 1.789 3.006z" fill="#03E59F"/>
<path d="m233.2 320.84c0 1.127-0.753 1.597-1.695 1.033-0.941-0.564-1.694-1.879-1.694-3.006 0-1.128 0.753-1.598 1.694-1.034 0.942 0.564 1.695 1.973 1.695 3.007z" fill="#FF65AB"/>
<path d="m239.41 324.41c0 1.127-0.754 1.597-1.695 1.033-0.942-0.564-1.695-1.879-1.695-3.007 0-1.127 0.753-1.597 1.695-1.033 0.847 0.564 1.695 1.879 1.695 3.007z" fill="#03E59F"/>
<path d="m265.3 342.54-3.577-2.067c-0.565-0.282-0.942-1.128-0.942-1.879v-3.759c0-0.751 0.471-1.033 0.942-0.751l3.577 2.067c0.565 0.282 0.942 1.127 0.942 1.879v3.758c0 0.658-0.471 1.034-0.942 0.752z" fill="#FFD22E"/>
<path d="m270.39 378.9-75.511-43.501c-1.694-0.939-3.107-3.57-3.107-5.825v-14.375c0-2.255 1.413-3.288 3.107-2.349l75.511 43.501c1.694 0.94 3.107 3.57 3.107 5.825v14.375c0 2.255-1.413 3.289-3.107 2.349z" fill="#4164C4"/>
<path d="m268.22 373.08-71.179-41.058c-0.848-0.47-1.507-1.785-1.507-3.007v-10.804c0-1.128 0.659-1.692 1.507-1.128l71.179 41.058c0.847 0.47 1.507 1.785 1.507 3.007v10.804c0.094 1.128-0.565 1.598-1.507 1.128z" fill="#5070E2"/>
<path d="m211.92 335.96-10.639-6.107c-0.848-0.47-1.507-1.785-1.507-2.912 0-1.128 0.659-1.598 1.507-1.128l10.639 6.107c0.847 0.47 1.506 1.785 1.506 2.913 0 1.033-0.659 1.597-1.506 1.127z" fill="#5B95FF"/>
<path d="m220.96 339.16c0 1.127-0.753 1.597-1.695 1.033-0.941-0.564-1.789-1.879-1.789-3.007 0-1.127 0.753-1.597 1.789-1.033 0.942 0.564 1.695 1.879 1.695 3.007z" fill="#203E79"/>
<path d="m227.08 342.64c0 1.127-0.754 1.597-1.789 1.033-0.942-0.564-1.695-1.879-1.695-3.006 0-1.128 0.753-1.598 1.695-1.034 1.035 0.564 1.789 1.973 1.789 3.007z" fill="#203E79"/>
<path d="m233.2 346.2c0 1.127-0.753 1.597-1.695 1.033-0.941-0.563-1.694-1.879-1.694-3.006 0-1.128 0.753-1.597 1.694-1.034 0.942 0.564 1.695 1.879 1.695 3.007z" fill="#03E59F"/>
<path d="m239.41 349.78c0 1.128-0.754 1.597-1.695 1.034-0.942-0.564-1.695-1.879-1.695-3.007 0-1.127 0.753-1.597 1.695-1.033 0.941 0.563 1.695 1.879 1.695 3.006z" fill="#203E79"/>
<path d="m265.3 367.82-3.577-2.067c-0.565-0.282-0.942-1.128-0.942-1.879v-3.759c0-0.751 0.471-1.033 0.942-0.751l3.577 2.067c0.565 0.282 0.942 1.127 0.942 1.879v3.758c0 0.752-0.471 1.127-0.942 0.752z" fill="#203E79"/>
<path d="m270.39 404.27-75.511-43.501c-1.694-0.939-3.107-3.57-3.107-5.825v-14.375c0-2.255 1.413-3.289 3.107-2.349l75.511 43.501c1.694 0.939 3.107 3.57 3.107 5.825v14.375c0 2.255-1.413 3.288-3.107 2.349z" fill="#4164C4"/>
<path d="m268.22 398.44-71.179-41.058c-0.848-0.469-1.507-1.785-1.507-3.006v-10.805c0-1.127 0.659-1.691 1.507-1.127l71.179 41.058c0.847 0.47 1.507 1.785 1.507 3.006v10.805c0.094 1.127-0.565 1.597-1.507 1.127z" fill="#5070E2"/>
<path d="m211.92 361.24-10.639-6.107c-0.848-0.47-1.507-1.785-1.507-2.913 0-1.127 0.659-1.597 1.507-1.127l10.639 6.107c0.847 0.47 1.506 1.785 1.506 2.913 0 1.127-0.659 1.691-1.506 1.127z" fill="#5B95FF"/>
<path d="m260.69 387.92c0 2.067-1.506 2.912-3.295 1.879-1.789-1.034-3.296-3.57-3.296-5.731 0-2.067 1.507-2.913 3.296-1.879 1.883 1.033 3.295 3.57 3.295 5.731z" fill="#fff"/>
<path d="m220.96 364.81c0 1.127-0.753 1.597-1.695 1.033-0.941-0.563-1.789-1.879-1.789-3.006 0-1.128 0.753-1.597 1.789-1.034 0.942 0.564 1.695 1.879 1.695 3.007z" fill="#203E79"/>
<path d="m227.08 368.38c0 1.128-0.754 1.597-1.789 1.034-0.942-0.564-1.695-1.879-1.695-3.007 0-1.127 0.753-1.597 1.695-1.033 1.035 0.469 1.789 1.879 1.789 3.006z" fill="#03E59F"/>
<path d="m232.74 373.02c0.675-0.389 0.675-1.652-1e-3 -2.82-0.676-1.169-1.772-1.8-2.447-1.411-0.676 0.389-0.675 1.652 1e-3 2.82 0.676 1.169 1.771 1.8 2.447 1.411z" fill="#203E79"/>
<mask id="j" x="94" y="123" width="78" height="98" style="mask-type:alpha" maskUnits="userSpaceOnUse">
<path d="m170.07 124.07-74.017 42.719c-0.6138 0.355-1.1169 1.222-1.1169 1.932v51.223c0 0.707 0.5031 0.997 1.1169 0.642l74.017-42.722c0.614-0.349 1.114-1.219 1.114-1.929v-51.22c0-0.506-0.253-0.796-0.619-0.796-0.148 0-0.316 0.049-0.495 0.151z" fill="#fff"/>
</mask>
<g mask="url(#j)">
<path d="m170.07 124.07-74.016 42.719c-0.6139 0.355-1.1169 1.222-1.1169 1.932v51.223c0 0.707 0.503 0.997 1.1169 0.642l74.016-42.722c0.614-0.349 1.114-1.219 1.114-1.929v-51.22c0-0.506-0.253-0.796-0.619-0.796-0.148 0-0.316 0.049-0.495 0.151z" clip-rule="evenodd" fill="url(#f)" fill-rule="evenodd"/>
</g>
<path d="m97.522 167.71c-0.6073 0.351-1.1022 1.208-1.1022 1.907v49.525l72.426-41.758c0.604-0.348 1.099-1.205 1.099-1.904v-49.527l-72.423 41.757z" clip-rule="evenodd" fill="#FAFBFD" fill-rule="evenodd"/>
<mask id="i" x="104" y="162" width="22" height="50" style="mask-type:alpha" maskUnits="userSpaceOnUse">
<path d="m105.01 175.02c-0.41 0.244-0.743 0.848-0.743 1.338v34.805l20.726-12.698c0.407-0.247 0.743-0.848 0.743-1.338v-34.804l-20.726 12.697z" fill="#fff"/>
</mask>
<g mask="url(#i)">
<path d="m105.01 175.02c-0.411 0.244-0.744 0.848-0.744 1.338v34.805l20.727-12.698c0.407-0.247 0.743-0.848 0.743-1.338v-34.804l-20.726 12.697z" clip-rule="evenodd" fill="url(#e)" fill-rule="evenodd"/>
</g>
<path d="m128.15 161.13 41.294-23.647-3e-3 3.379-41.291 23.647v-3.379z" clip-rule="evenodd" fill="#E4E9F4" fill-rule="evenodd"/>
<path d="m128.15 169.2 41.294-23.647-3e-3 3.379-41.291 23.647v-3.379z" clip-rule="evenodd" fill="#E4E9F4" fill-rule="evenodd"/>
<path d="m128.15 177.26 41.294-23.647-3e-3 3.379-41.291 23.647v-3.379z" clip-rule="evenodd" fill="#E4E9F4" fill-rule="evenodd"/>
<path d="m128.15 185.32 23.217-13.209v3.376l-23.217 13.212v-3.379z" clip-rule="evenodd" fill="#E4E9F4" fill-rule="evenodd"/>
<mask id="h" x="93" y="10" width="118" height="149" style="mask-type:alpha" maskUnits="userSpaceOnUse">
<path d="m208.3 10.232-113.59 65.653c-0.9391 0.542-1.7089 1.8773-1.7089 2.9641v78.717c0 1.087 0.7698 1.53 1.7089 0.988l113.59-65.65c0.939-0.5448 1.711-1.8773 1.711-2.9669v-78.718c0-0.7735-0.392-1.2195-0.953-1.2195-0.228 0-0.488 0.0734-0.758 0.2315z" fill="#fff"/>
</mask>
<g mask="url(#h)">
<path d="m208.3 10.232-113.59 65.653c-0.9391 0.542-1.7089 1.8773-1.7089 2.9641v78.717c0 1.087 0.7698 1.53 1.7089 0.988l113.59-65.65c0.939-0.5448 1.711-1.8773 1.711-2.9669v-78.718c0-0.7735-0.392-1.2195-0.953-1.2195-0.228 0-0.488 0.0734-0.758 0.2315z" clip-rule="evenodd" fill="url(#d)" fill-rule="evenodd"/>
</g>
<path d="m98.124 78.225c-0.9363 0.5436-1.7038 1.8829-1.7038 2.9731v77.243l112-65.127c0.936-0.5465 1.704-1.883 1.704-2.9731v-77.24l-112 65.124z" clip-rule="evenodd" fill="#FAFBFD" fill-rule="evenodd"/>
<mask id="g" x="100" y="66" width="106" height="83" style="mask-type:alpha" maskUnits="userSpaceOnUse">
<path d="m176.4 79.222h-13.762l-6.637 4.1641-11.363 17.133h-7.044l-4.838-8.628-13.286 26.827-6.567-4.909-12.568 18.179v16.488l105.33-61.225v-16.904l-10.523 0.4849-9.963-4.589-8.775 12.98z" fill="#fff"/>
</mask>
<g mask="url(#g)">
<path d="m176.4 79.222h-13.761l-6.638 4.1641-11.363 17.133h-7.044l-4.838-8.628-13.286 26.827-6.567-4.909-12.568 18.179v16.488l105.33-61.225v-16.904l-10.523 0.4849-9.963-4.589-8.775 12.98z" clip-rule="evenodd" fill="url(#c)" fill-rule="evenodd"/>
</g>
<path d="m220.45 163.95c1.645 1.2 3.296 2.107 4.93 2.796l0.365 0.209 0.029-0.042c13.419 5.375 25.63-4.706 25.63-4.706 2.588-2.316 3.499-8.26 3.276-12.406 0.263-0.941 0.537-2.071 0.874-3.463 0.794-3.308 1.165-7.441 1.228-11.938l-53.676 30.649v0.909l10.414-5.943 6.93 3.935z" clip-rule="evenodd" fill="#231F20" fill-rule="evenodd"/>
<path d="m245.69 154.59-24.836-14.101v15.086l-13.99 7.986v-25.55c0-4.485 2.348-8.499 6.275-10.742 3.928-2.243 8.618-2.24 12.545 0l27.001 15.338-6.995 11.983z" clip-rule="evenodd" fill="#4D5068" fill-rule="evenodd"/>
<path d="m229.5 164.17-24.833-14.101v14.694l-13.99 7.988v-25.16c0-4.485 2.345-8.499 6.273-10.742 3.927-2.243 8.62-2.24 12.545 0l27 15.341-6.995 11.98z" clip-rule="evenodd" fill="#4D5068" fill-rule="evenodd"/>
<path d="m192.56 147.59c0-4.486 2.345-8.503 6.273-10.743 1.679-0.96 3.496-1.483 5.333-1.621-2.462-0.186-4.962 0.336-7.213 1.621-3.927 2.24-6.272 6.257-6.272 10.743v25.16l1.879-1.074v-24.086z" clip-rule="evenodd" fill="#717386" fill-rule="evenodd"/>
<path d="m224.21 161.16c15.327 11.175 30.954-1.743 30.954-1.743 3.336-2.982 3.893-11.999 2.819-15.422l-4.233-4.232-21.914 12.053-7.626 9.344z" clip-rule="evenodd" fill="#4D5068" fill-rule="evenodd"/>
<path d="m186.33 114.03 30.414-17.367c0.411-0.2345 0.922 0.0593 0.922 0.5282l8.549 23.038c0 0.475-0.254 0.912-0.671 1.147l-30.411 17.366c-0.411 0.235-0.703-0.062-0.926-0.528l-8.546-23.038c0-0.475 0.252-0.913 0.669-1.147z" clip-rule="evenodd" fill="#3A3C4E" fill-rule="evenodd"/>
<path d="m186.72 114.29 30.414-17.366c0.411-0.2345 0.768 0.1271 0.925 0.5282l8.546 23.038c0 0.475-0.254 0.913-0.668 1.147l-30.414 17.366c-0.411 0.235-0.688-0.079-0.926-0.528l-8.546-23.038c0-0.475 0.255-0.913 0.669-1.147z" clip-rule="evenodd" fill="#4D5068" fill-rule="evenodd"/>
<path d="m187.71 115.41 29.512-16.505 7.803 21.491-29.397 16.722-7.918-21.708z" clip-rule="evenodd" fill="#E0E3FD" fill-rule="evenodd"/>
<path d="m227.96 122.37 19.477 10.16s0.106 1.503-0.308 1.74l-29.84 17.039c-0.763 0.432-1.703 0.435-2.465 6e-3l-19.166-10.836c-0.791-0.486-0.312-1.746-0.312-1.746l30.152-16.361c0.76-0.432 1.696-0.435 2.462-2e-3z" clip-rule="evenodd" fill="#3A3C4E" fill-rule="evenodd"/>
<path d="m227.96 121.2 19.166 10.833c0.414 0.237 0.417 0.831 3e-3 1.068l-29.84 17.039c-0.763 0.435-1.703 0.435-2.465 5e-3l-19.166-10.835c-0.417-0.235-0.417-0.828-3e-3 -1.065l29.843-17.039c0.76-0.435 1.696-0.438 2.462-6e-3z" clip-rule="evenodd" fill="#F9F9F9" fill-rule="evenodd"/>
<path d="m229.66 135.23 5.053 2.856c0.109 0.062 0.109 0.218 0 0.28l-7.866 4.491c-0.2 0.116-0.448 0.116-0.648 3e-3l-5.05-2.859c-0.112-0.059-0.112-0.217-3e-3 -0.279l7.866-4.492c0.2-0.113 0.449-0.115 0.648 0z" clip-rule="evenodd" fill="#717386" fill-rule="evenodd"/>
<path d="m225.85 122.86-1.651 0.943c-0.066 0.037-0.066 0.13 0 0.17l0.82 0.466c0.065 0.036 0.145 0.036 0.211 0l1.651-0.944c0.066-0.039 0.066-0.133 0-0.169l-0.82-0.466c-0.066-0.037-0.146-0.037-0.211 0z" clip-rule="evenodd" fill="#4D5068" fill-rule="evenodd"/>
<path d="m223.43 124.28-1.651 0.941c-0.065 0.039-0.065 0.132 0 0.172l0.82 0.466c0.066 0.037 0.148 0.037 0.214-3e-3l1.651-0.941c0.066-0.039 0.066-0.132-3e-3 -0.169l-0.819-0.466c-0.066-0.037-0.146-0.037-0.212 0z" clip-rule="evenodd" fill="#4D5068" fill-rule="evenodd"/>
<path d="m221 125.63-1.651 0.944c-0.066 0.036-0.066 0.129 0 0.169l0.82 0.466c0.065 0.037 0.148 0.037 0.211 0l1.651-0.943c0.066-0.04 0.066-0.133 0-0.17l-0.82-0.466c-0.066-0.037-0.145-0.037-0.211 0z" clip-rule="evenodd" fill="#4D5068" fill-rule="evenodd"/>
<path d="m218.5 127.02-1.651 0.941c-0.066 0.039-0.066 0.133 0 0.172l0.819 0.466c0.066 0.037 0.146 0.037 0.215-3e-3l1.651-0.94c0.065-0.04 0.065-0.133 0-0.17l-0.82-0.466c-0.069-0.039-0.149-0.039-0.214 0z" clip-rule="evenodd" fill="#4D5068" fill-rule="evenodd"/>
<path d="m216.09 128.35-1.651 0.944c-0.066 0.036-0.066 0.13 0 0.169l0.82 0.466c0.065 0.037 0.148 0.037 0.214 0l1.651-0.943c0.065-0.04 0.065-0.133 0-0.17l-0.823-0.466c-0.066-0.036-0.146-0.036-0.211 0z" clip-rule="evenodd" fill="#4D5068" fill-rule="evenodd"/>
<path d="m213.76 129.77-1.651 0.944c-0.069 0.036-0.069 0.13 0 0.169l0.82 0.466c0.065 0.037 0.145 0.037 0.211 0l1.654-0.943c0.063-0.037 0.063-0.13-3e-3 -0.17l-0.82-0.466c-0.066-0.037-0.146-0.037-0.211 0z" clip-rule="evenodd" fill="#4D5068" fill-rule="evenodd"/>
<path d="m211.31 131.11-1.651 0.944c-0.065 0.036-0.065 0.129 0 0.169l0.82 0.466c0.066 0.037 0.146 0.037 0.214 0l1.649-0.943c0.065-0.037 0.065-0.13 0-0.17l-0.82-0.466c-0.066-0.037-0.146-0.037-0.212 0z" clip-rule="evenodd" fill="#4D5068" fill-rule="evenodd"/>
<path d="m208.9 132.53-1.651 0.944c-0.065 0.036-0.065 0.129 0 0.169l0.82 0.466c0.066 0.037 0.146 0.037 0.214 0l1.651-0.943c0.066-0.04 0.066-0.133 0-0.17l-0.819-0.466c-0.069-0.037-0.149-0.037-0.215 0z" clip-rule="evenodd" fill="#4D5068" fill-rule="evenodd"/>
<path d="m206.53 133.91-1.651 0.944c-0.066 0.037-0.066 0.13 0 0.169l0.819 0.466c0.066 0.037 0.146 0.037 0.215 0l1.648-0.943c0.068-0.04 0.068-0.133 0-0.17l-0.82-0.466c-0.066-0.036-0.146-0.036-0.211 0z" clip-rule="evenodd" fill="#4D5068" fill-rule="evenodd"/>
<path d="m204.03 135.33-1.651 0.94c-0.066 0.04-0.066 0.133 0 0.173l0.82 0.466c0.065 0.036 0.145 0.036 0.214-3e-3l1.648-0.941c0.066-0.039 0.066-0.133 0-0.169l-0.82-0.466c-0.065-0.037-0.145-0.037-0.211 0z" clip-rule="evenodd" fill="#4D5068" fill-rule="evenodd"/>
<path d="m201.61 136.68-1.651 0.943c-0.065 0.037-0.065 0.13 0 0.17l0.82 0.466c0.066 0.037 0.146 0.037 0.214 0l1.651-0.944c0.066-0.039 0.066-0.132 0-0.169l-0.822-0.466c-0.066-0.037-0.146-0.037-0.212 0z" clip-rule="evenodd" fill="#4D5068" fill-rule="evenodd"/>
<path d="m229.2 124.63-1.12-0.647c-0.142-0.084-0.322-0.084-0.471-3e-3l-1.091 0.625c-0.151 0.087-0.157 0.305-6e-3 0.395l1.086 0.661c0.148 0.088 0.331 0.091 0.48 6e-3l1.122-0.639c0.154-0.087 0.154-0.307 0-0.398z" clip-rule="evenodd" fill="#4D5068" fill-rule="evenodd"/>
<path d="m226.7 126.06-1.12-0.646c-0.143-0.085-0.323-0.085-0.471-3e-3l-1.092 0.624c-0.154 0.088-0.157 0.305-5e-3 0.395l1.085 0.659c0.149 0.09 0.332 0.093 0.48 8e-3l1.123-0.638c0.154-0.091 0.154-0.311 0-0.399z" clip-rule="evenodd" fill="#4D5068" fill-rule="evenodd"/>
<path d="m224.27 127.41-1.12-0.647c-0.142-0.084-0.322-0.084-0.468 0l-1.094 0.622c-0.151 0.087-0.154 0.305-6e-3 0.395l1.088 0.661c0.146 0.088 0.329 0.091 0.477 6e-3l1.123-0.639c0.154-0.087 0.154-0.307 0-0.398z" clip-rule="evenodd" fill="#4D5068" fill-rule="evenodd"/>
<path d="m221.68 128.8-1.12-0.647c-0.142-0.084-0.322-0.084-0.468 0l-1.094 0.622c-0.151 0.087-0.154 0.305-3e-3 0.395l1.086 0.661c0.145 0.088 0.328 0.091 0.477 6e-3l1.122-0.638c0.154-0.088 0.154-0.308 0-0.399z" clip-rule="evenodd" fill="#4D5068" fill-rule="evenodd"/>
<path d="m219.4 130.13-1.12-0.647c-0.143-0.085-0.323-0.085-0.471-3e-3l-1.091 0.624c-0.152 0.088-0.155 0.305-6e-3 0.396l1.085 0.658c0.149 0.09 0.332 0.093 0.48 8e-3l1.123-0.638c0.154-0.087 0.154-0.308 0-0.398z" clip-rule="evenodd" fill="#4D5068" fill-rule="evenodd"/>
<path d="m217.08 131.54-1.119-0.647c-0.143-0.085-0.323-0.085-0.469-3e-3l-1.091 0.624c-0.154 0.088-0.157 0.305-5e-3 0.396l1.085 0.661c0.146 0.087 0.328 0.09 0.477 5e-3l1.122-0.638c0.155-0.088 0.155-0.308 0-0.398z" clip-rule="evenodd" fill="#4D5068" fill-rule="evenodd"/>
<path d="m214.61 132.88-1.12-0.647c-0.143-0.084-0.323-0.084-0.469 0l-1.094 0.622c-0.151 0.087-0.154 0.305-2e-3 0.395l1.085 0.661c0.146 0.088 0.328 0.091 0.477 6e-3l1.123-0.638c0.154-0.088 0.154-0.308 0-0.399z" clip-rule="evenodd" fill="#4D5068" fill-rule="evenodd"/>
<path d="m212.19 134.24-1.12-0.647c-0.143-0.085-0.323-0.085-0.471-3e-3l-1.091 0.625c-0.154 0.087-0.157 0.305-6e-3 0.395l1.085 0.658c0.149 0.091 0.332 0.093 0.48 9e-3l1.123-0.639c0.154-0.087 0.154-0.308 0-0.398z" clip-rule="evenodd" fill="#4D5068" fill-rule="evenodd"/>
<path d="m209.81 135.69-1.12-0.647c-0.145-0.085-0.325-0.085-0.471-3e-3l-1.091 0.624c-0.154 0.088-0.157 0.305-6e-3 0.396l1.086 0.658c0.145 0.09 0.331 0.093 0.48 9e-3l1.122-0.639c0.152-0.087 0.154-0.311 0-0.398z" clip-rule="evenodd" fill="#4D5068" fill-rule="evenodd"/>
<path d="m207.22 137.2-1.12-0.647c-0.145-0.085-0.325-0.085-0.471-3e-3l-1.091 0.624c-0.154 0.085-0.157 0.305-6e-3 0.396l1.086 0.658c0.145 0.09 0.331 0.09 0.48 8e-3l1.119-0.638c0.154-0.091 0.157-0.311 3e-3 -0.398z" clip-rule="evenodd" fill="#4D5068" fill-rule="evenodd"/>
<path d="m204.87 138.46-1.12-0.646c-0.143-0.085-0.323-0.085-0.468-3e-3l-1.091 0.624c-0.155 0.088-0.158 0.305-6e-3 0.395l1.085 0.659c0.146 0.09 0.329 0.093 0.477 8e-3l1.123-0.638c0.154-0.088 0.154-0.308 0-0.399z" clip-rule="evenodd" fill="#4D5068" fill-rule="evenodd"/>
<path d="m231.7 125.97-1.119-0.647c-0.143-0.085-0.323-0.085-0.469-3e-3l-1.094 0.625c-0.151 0.087-0.154 0.305-5e-3 0.395l1.088 0.661c0.146 0.088 0.328 0.09 0.477 6e-3l1.122-0.639c0.155-0.087 0.155-0.308 0-0.398z" clip-rule="evenodd" fill="#4D5068" fill-rule="evenodd"/>
<path d="m229.19 127.4-1.12-0.646c-0.143-0.085-0.323-0.085-0.469 0l-1.094 0.621c-0.151 0.088-0.157 0.305-5e-3 0.395l1.088 0.661c0.146 0.088 0.329 0.091 0.477 6e-3l1.123-0.638c0.154-0.088 0.154-0.308 0-0.399z" clip-rule="evenodd" fill="#4D5068" fill-rule="evenodd"/>
<path d="m226.76 128.75-1.12-0.647c-0.145-0.085-0.325-0.085-0.471-3e-3l-1.091 0.624c-0.154 0.088-0.157 0.306-6e-3 0.396l1.086 0.658c0.145 0.09 0.331 0.093 0.479 9e-3l1.12-0.639c0.157-0.087 0.157-0.308 3e-3 -0.398z" clip-rule="evenodd" fill="#4D5068" fill-rule="evenodd"/>
<path d="m224.17 130.14-1.12-0.647c-0.142-0.085-0.322-0.085-0.468 0l-1.091 0.622c-0.154 0.087-0.157 0.305-6e-3 0.395l1.085 0.661c0.146 0.088 0.329 0.09 0.477 6e-3l1.123-0.639c0.154-0.087 0.154-0.308 0-0.398z" clip-rule="evenodd" fill="#4D5068" fill-rule="evenodd"/>
<path d="m221.89 131.47-1.119-0.647c-0.143-0.085-0.323-0.085-0.469-3e-3l-1.094 0.624c-0.151 0.088-0.154 0.305-5e-3 0.396l1.088 0.658c0.146 0.09 0.328 0.09 0.477 8e-3l1.122-0.638c0.155-0.09 0.155-0.311 0-0.398z" clip-rule="evenodd" fill="#4D5068" fill-rule="evenodd"/>
<path d="m219.58 132.88-1.119-0.647c-0.143-0.085-0.323-0.085-0.472-3e-3l-1.091 0.624c-0.154 0.088-0.157 0.305-6e-3 0.396l1.086 0.658c0.148 0.09 0.331 0.093 0.48 8e-3l1.122-0.638c0.154-0.088 0.154-0.308 0-0.398z" clip-rule="evenodd" fill="#4D5068" fill-rule="evenodd"/>
<path d="m217.1 134.22-1.12-0.647c-0.145-0.085-0.325-0.085-0.471 0l-1.091 0.622c-0.154 0.087-0.157 0.305-6e-3 0.395l1.086 0.661c0.145 0.088 0.331 0.09 0.479 6e-3l1.12-0.639c0.154-0.087 0.157-0.308 3e-3 -0.398z" clip-rule="evenodd" fill="#4D5068" fill-rule="evenodd"/>
<path d="m214.68 135.58-1.119-0.647c-0.143-0.084-0.323-0.084-0.472-2e-3l-1.091 0.624c-0.151 0.087-0.154 0.305-5e-3 0.395l1.088 0.659c0.146 0.09 0.328 0.09 0.477 8e-3l1.122-0.638c0.155-0.091 0.155-0.311 0-0.399z" clip-rule="evenodd" fill="#4D5068" fill-rule="evenodd"/>
<path d="m212.3 137.03-1.12-0.647c-0.146-0.085-0.326-0.085-0.471-3e-3l-1.091 0.624c-0.155 0.088-0.157 0.305-6e-3 0.396l1.085 0.658c0.149 0.09 0.332 0.093 0.48 8e-3l1.12-0.638c0.157-0.09 0.157-0.311 3e-3 -0.398z" clip-rule="evenodd" fill="#4D5068" fill-rule="evenodd"/>
<path d="m209.71 138.54-1.12-0.647c-0.142-0.085-0.322-0.085-0.468 0l-1.091 0.621c-0.154 0.088-0.157 0.305-6e-3 0.396l1.086 0.661c0.145 0.087 0.328 0.09 0.477 5e-3l1.122-0.638c0.154-0.088 0.154-0.308 0-0.398z" clip-rule="evenodd" fill="#4D5068" fill-rule="evenodd"/>
<path d="m207.36 139.8-1.12-0.647c-0.146-0.084-0.323-0.084-0.471-2e-3l-1.091 0.624c-0.155 0.087-0.158 0.305-6e-3 0.395l1.085 0.658c0.149 0.091 0.332 0.094 0.48 9e-3l1.12-0.639c0.157-0.09 0.157-0.307 3e-3 -0.398z" clip-rule="evenodd" fill="#4D5068" fill-rule="evenodd"/>
<path d="m234.19 127.31-1.12-0.647c-0.143-0.084-0.323-0.084-0.468-2e-3l-1.094 0.624c-0.152 0.087-0.155 0.305-3e-3 0.395l1.085 0.661c0.146 0.088 0.329 0.091 0.477 6e-3l1.123-0.638c0.154-0.091 0.154-0.308 0-0.399z" clip-rule="evenodd" fill="#4D5068" fill-rule="evenodd"/>
<path d="m231.68 128.74-1.12-0.647c-0.142-0.084-0.322-0.084-0.468 0l-1.091 0.622c-0.154 0.087-0.157 0.305-9e-3 0.395l1.088 0.661c0.146 0.088 0.329 0.091 0.477 6e-3l1.123-0.638c0.154-0.088 0.154-0.308 0-0.399z" clip-rule="evenodd" fill="#4D5068" fill-rule="evenodd"/>
<path d="m229.25 130.09-1.12-0.647c-0.145-0.085-0.325-0.085-0.471-3e-3l-1.091 0.624c-0.154 0.088-0.157 0.305-6e-3 0.396l1.086 0.658c0.148 0.09 0.331 0.093 0.48 8e-3l1.122-0.638c0.154-0.088 0.154-0.311 0-0.398z" clip-rule="evenodd" fill="#4D5068" fill-rule="evenodd"/>
<path d="m226.67 131.48-1.119-0.647c-0.146-0.085-0.323-0.085-0.472-3e-3l-1.091 0.624c-0.154 0.088-0.157 0.305-6e-3 0.396l1.086 0.661c0.148 0.087 0.331 0.09 0.48 5e-3l1.122-0.638c0.154-0.088 0.154-0.308 0-0.398z" clip-rule="evenodd" fill="#4D5068" fill-rule="evenodd"/>
<path d="m224.39 132.81-1.12-0.647c-0.143-0.085-0.323-0.085-0.468-3e-3l-1.091 0.625c-0.155 0.084-0.158 0.305-6e-3 0.395l1.085 0.658c0.146 0.091 0.329 0.093 0.477 9e-3l1.123-0.639c0.154-0.09 0.154-0.31 0-0.398z" clip-rule="evenodd" fill="#4D5068" fill-rule="evenodd"/>
<path d="m222.07 134.22-1.119-0.647c-0.143-0.085-0.323-0.085-0.472-3e-3l-1.091 0.625c-0.154 0.087-0.157 0.305-5e-3 0.395l1.085 0.658c0.149 0.091 0.331 0.091 0.48 9e-3l1.122-0.639c0.155-0.09 0.155-0.31 0-0.398z" clip-rule="evenodd" fill="#4D5068" fill-rule="evenodd"/>
<path d="m219.6 135.57-1.12-0.647c-0.142-0.085-0.322-0.085-0.468-3e-3l-1.091 0.624c-0.154 0.088-0.157 0.305-6e-3 0.396l1.085 0.661c0.146 0.087 0.329 0.09 0.478 5e-3l1.122-0.638c0.154-0.088 0.154-0.308 0-0.398z" clip-rule="evenodd" fill="#4D5068" fill-rule="evenodd"/>
<path d="m217.18 136.92-1.12-0.647c-0.143-0.084-0.323-0.084-0.468-3e-3l-1.094 0.625c-0.152 0.084-0.155 0.305-6e-3 0.395l1.085 0.658c0.149 0.091 0.332 0.091 0.48 9e-3l1.123-0.639c0.154-0.09 0.154-0.31 0-0.398z" clip-rule="evenodd" fill="#4D5068" fill-rule="evenodd"/>
<path d="m214.79 138.37-1.12-0.647c-0.143-0.085-0.322-0.085-0.471 0l-1.091 0.621c-0.154 0.088-0.157 0.305-6e-3 0.396l1.086 0.661c0.148 0.087 0.331 0.09 0.479 5e-3l1.123-0.638c0.154-0.088 0.154-0.308 0-0.398z" clip-rule="evenodd" fill="#4D5068" fill-rule="evenodd"/>
<path d="m212.2 139.88-1.12-0.647c-0.143-0.084-0.323-0.084-0.471-2e-3l-1.091 0.624c-0.152 0.087-0.157 0.305-6e-3 0.395l1.085 0.661c0.149 0.088 0.332 0.091 0.48 6e-3l1.123-0.638c0.154-0.088 0.154-0.308 0-0.399z" clip-rule="evenodd" fill="#4D5068" fill-rule="evenodd"/>
<path d="m209.85 141.14-1.12-0.647c-0.143-0.085-0.323-0.085-0.471-3e-3l-1.091 0.624c-0.154 0.088-0.157 0.305-6e-3 0.396l1.085 0.658c0.149 0.09 0.332 0.093 0.48 8e-3l1.123-0.638c0.154-0.088 0.154-0.311 0-0.398z" clip-rule="evenodd" fill="#4D5068" fill-rule="evenodd"/>
<path d="m236.68 128.65-1.12-0.647c-0.146-0.084-0.323-0.084-0.471-3e-3l-1.091 0.625c-0.155 0.084-0.158 0.305-6e-3 0.395l1.085 0.658c0.149 0.091 0.332 0.091 0.48 9e-3l1.12-0.639c0.157-0.09 0.157-0.31 3e-3 -0.398z" clip-rule="evenodd" fill="#4D5068" fill-rule="evenodd"/>
<path d="m234.18 130.08-1.119-0.647c-0.146-0.085-0.326-0.085-0.471 0l-1.092 0.622c-0.154 0.087-0.157 0.305-5e-3 0.395l1.085 0.661c0.146 0.088 0.331 0.09 0.48 6e-3l1.12-0.639c0.154-0.087 0.157-0.308 2e-3 -0.398z" clip-rule="evenodd" fill="#4D5068" fill-rule="evenodd"/>
<path d="m231.75 131.43-1.12-0.647c-0.146-0.085-0.323-0.085-0.471-3e-3l-1.092 0.625c-0.151 0.087-0.157 0.305-5e-3 0.395l1.085 0.658c0.149 0.091 0.332 0.091 0.48 9e-3l1.123-0.639c0.154-0.09 0.154-0.31 0-0.398z" clip-rule="evenodd" fill="#4D5068" fill-rule="evenodd"/>
<path d="m229.16 132.82-1.119-0.647c-0.143-0.084-0.323-0.084-0.472 0l-1.091 0.622c-0.151 0.087-0.157 0.305-6e-3 0.395l1.086 0.661c0.148 0.088 0.331 0.091 0.48 6e-3l1.122-0.638c0.154-0.088 0.154-0.308 0-0.399z" clip-rule="evenodd" fill="#4D5068" fill-rule="evenodd"/>
<path d="m226.67 134.29-1.12-0.647c-0.145-0.085-0.323-0.085-0.471-3e-3l-5.687 3.249c-0.154 0.087-0.157 0.305-6e-3 0.395l1.089 0.661c0.145 0.088 0.328 0.09 0.477 6e-3l5.718-3.263c0.154-0.088 0.154-0.308 0-0.398z" clip-rule="evenodd" fill="#4D5068" fill-rule="evenodd"/>
<path d="m219.67 138.26-1.12-0.647c-0.143-0.085-0.322-0.085-0.468 0l-1.091 0.621c-0.155 0.088-0.157 0.305-6e-3 0.396l1.085 0.661c0.146 0.087 0.329 0.09 0.477 5e-3l1.123-0.638c0.154-0.088 0.154-0.308 0-0.398z" clip-rule="evenodd" fill="#4D5068" fill-rule="evenodd"/>
<path d="m217.29 139.71-1.12-0.647c-0.142-0.085-0.322-0.085-0.468-3e-3l-1.094 0.624c-0.151 0.085-0.154 0.305-6e-3 0.396l1.086 0.658c0.148 0.09 0.331 0.09 0.48 8e-3l1.122-0.638c0.154-0.09 0.154-0.311 0-0.398z" clip-rule="evenodd" fill="#4D5068" fill-rule="evenodd"/>
<path d="m214.69 141.22-1.119-0.647c-0.143-0.085-0.323-0.085-0.472-3e-3l-1.091 0.625c-0.154 0.087-0.154 0.305-6e-3 0.395l1.086 0.658c0.148 0.091 0.331 0.093 0.48 9e-3l1.122-0.639c0.155-0.087 0.155-0.308 0-0.398z" clip-rule="evenodd" fill="#4D5068" fill-rule="evenodd"/>
<path d="m212.35 142.48-1.119-0.647c-0.143-0.085-0.323-0.085-0.472 0l-1.091 0.622c-0.151 0.087-0.157 0.305-6e-3 0.395l1.086 0.661c0.148 0.088 0.331 0.09 0.48 6e-3l1.122-0.639c0.154-0.087 0.154-0.308 0-0.398z" clip-rule="evenodd" fill="#4D5068" fill-rule="evenodd"/>
<path d="m226.05 116.68c-0.314-5.053 1.965-14.561 3.716-17.954 2.179-4.2257 5.864-7.8837 9.911-10.192l3.993-2.2796c5.125-2.9292 7.393 2.3982 11.531 6.5816 16.204 16.386 4.996 43.87 4.316 58.604-0.337 7.333-17.635 9.059-22.722 9.064-7.226 6e-3 -17.54-4.997-16.458-7.861 8.658-22.874 6.581-21.948 5.713-35.964z" clip-rule="evenodd" fill="#1DAFF4" fill-rule="evenodd"/>
<path d="m255.2 92.842c-3.625-3.6637-5.816-8.2058-9.749-7.3076 2.842 0.6469 4.867 4.271 7.869 7.3076 16.207 16.386 4.996 43.87 4.316 58.604-0.314 6.839-15.373 8.799-21.528 9.036 0.229 9e-3 0.463 0.028 0.686 0.028 5.087-5e-3 22.385-1.731 22.722-9.064 0.679-14.734 11.888-42.218-4.316-58.604z" clip-rule="evenodd" fill="#1DAFF4" fill-rule="evenodd"/>
<path d="m241.76 93.404h-0.803c-1.685 0-3.05-1.3502-3.05-3.0168v-8.3668c0-1.6666 1.365-3.0168 3.05-3.0168h0.803c1.685 0 3.051 1.3502 3.051 3.0168v8.3668c0 1.6666-1.366 3.0168-3.051 3.0168z" clip-rule="evenodd" fill="#FFCEBD" fill-rule="evenodd"/>
<path d="m247.16 85.293-2.473 0.7768c-7.909 2.4801-16.355-1.8474-18.866-9.669l-3.919-12.214 21.28-6.6776 7.043 21.94c0.786 2.4491-0.585 5.0676-3.065 5.8444z" clip-rule="evenodd" fill="#FFCEBD" fill-rule="evenodd"/>
<path d="m249.47 60.229c-0.714-2.1524-1.994-4.802-4.582-5.0082-1.768-0.1441-3.524 0.8728-4.447 2.3699-1.417-1.675-3.979-1.723-6.17-1.4406-4.033 0.5198-8.526 1.5028-11.813 3.9179-2.408 1.7683-5.519 4.0422-4.802 7.4629 0.38 1.8191 1.911 3.1609 3.613 3.8077 0.834 0.3164 1.657 0.274 2.431 0.6893 0.817 0.4406 1.288 1.3276 2.191 1.6722 1.174 0.4491 2.613-0.1412 3.705 0.4802 1.153 0.6525 1.253 2.2117 1.456 3.5111 0.326 2.1044 0.977 3.7964 2.337 5.5082 0.891 1.1186 1.956 2.1468 3.273 2.7343 1.077 0.4802 2.268 0.6384 3.439 0.7938 0.277 0.0367 0.56 0.0678 0.84 0.096 3.405 0.3107 6.975-0.2231 9.231-3.0563 1.414-1.7768 2.083-4.0337 2.345-6.2765 0.686-5.85-1.193-11.666-3.047-17.262z" clip-rule="evenodd" fill="#4D5068" fill-rule="evenodd"/>
<path d="m222.46 60.068c3.288-2.4152 7.781-3.3982 11.814-3.9179 0.823-0.1045 1.691-0.1271 2.539-0.0706-0.308 0.0226-0.623 0.031-0.922 0.0706-4.034 0.5197-8.527 1.5027-11.817 3.9179-2.405 1.7682-5.516 4.0421-4.802 7.4657 0.383 1.8191 1.914 3.158 3.617 3.8049 0.834 0.3163 1.653 0.274 2.427 0.6892 0.82 0.4407 1.292 1.3276 2.194 1.6722 1.174 0.4492 2.614-0.1412 3.705 0.4802 1.154 0.6554 1.254 2.2118 1.456 3.5112 0.326 2.1044 0.974 3.7992 2.337 5.5082 0.891 1.1185 1.957 2.1467 3.27 2.7343 1.08 0.4802 2.271 0.6384 3.442 0.7937 0.277 0.0367 0.557 0.0678 0.84 0.0932 0.306 0.0283 0.614 0.0424 0.92 0.0565-0.84 0.0481-1.694 0.0226-2.537-0.0565-0.28-0.0254-0.562-0.0565-0.839-0.0932-1.171-0.1553-2.363-0.3135-3.439-0.7937-1.317-0.5876-2.383-1.6158-3.274-2.7343-1.359-1.709-2.008-3.4038-2.336-5.5082-0.203-1.2994-0.303-2.8558-1.454-3.5112-1.094-0.6214-2.534-0.031-3.708-0.4802-0.902-0.3446-1.373-1.2315-2.19-1.6722-0.774-0.4152-1.597-0.3729-2.431-0.6892-1.702-0.6469-3.233-1.9858-3.613-3.8049-0.717-3.4236 2.393-5.6975 4.801-7.4657z" clip-rule="evenodd" fill="#717386" fill-rule="evenodd"/>
<path d="m241.49 124.16-2.368-16.87c-0.331-2.364-2.539-4.019-4.933-3.686-2.391 0.328-4.062 2.511-3.727 4.876l2.365 16.869c0.471 3.341-0.626 6.643-3.008 9.061-1.191 1.207-2.614 2.102-4.162 2.644-0.651 2.458-1.611 5.429-2.976 9.246 5.039-0.17 9.809-2.212 13.396-5.853 4.282-4.342 6.256-10.279 5.413-16.287z" clip-rule="evenodd" fill="#0086AF" fill-rule="evenodd"/>
<path d="m222.01 143.55c-0.717 0-1.437-0.037-2.159-0.116l-5.353-0.356c-2.411-0.158-4.233-2.22-4.07-4.601 0.16-2.384 2.279-4.167 4.653-4.025l5.649 0.381c3.388 0.373 6.704-0.791 9.086-3.206 2.383-2.415 3.479-5.717 3.011-9.059l-2.368-16.869c-0.331-2.364 1.34-4.551 3.73-4.876 2.394-0.333 4.602 1.322 4.933 3.687l2.365 16.866c0.846 6.008-1.128 11.946-5.41 16.29-3.75 3.802-8.78 5.884-14.067 5.884z" clip-rule="evenodd" fill="#FFCEBD" fill-rule="evenodd"/>
<path d="m241.84 122.24-2.565-18.282c-0.36-2.562-2.753-4.3583-5.347-3.9967-2.59 0.3527-4.401 2.7207-4.041 5.2847l2.565 18.285 9.388-1.291z" clip-rule="evenodd" fill="#0086AF" fill-rule="evenodd"/>
<path d="m215 136.28h-8.289c-0.462 0-0.837-0.37-0.837-0.825v-0.217c0-0.455 0.375-0.825 0.837-0.825h8.289c0.463 0 0.834 0.37 0.834 0.825v0.217c0 0.455-0.371 0.825-0.834 0.825z" clip-rule="evenodd" fill="#FFCEBD" fill-rule="evenodd"/>
<path d="m219.74 137.27-7.212-4.042c-0.403-0.226-0.543-0.729-0.317-1.124l0.108-0.189c0.226-0.399 0.737-0.537 1.137-0.311l7.215 4.039c0.403 0.226 0.543 0.732 0.314 1.127l-0.108 0.19c-0.229 0.395-0.734 0.534-1.137 0.31z" clip-rule="evenodd" fill="#FFCEBD" fill-rule="evenodd"/>
<path d="m213.54 138.95h-8.292c-0.46 0-0.834-0.37-0.834-0.825v-0.217c0-0.455 0.374-0.825 0.834-0.825h8.292c0.46 0 0.834 0.37 0.834 0.825v0.217c0 0.455-0.374 0.825-0.834 0.825z" clip-rule="evenodd" fill="#FFCEBD" fill-rule="evenodd"/>
<path d="m215.07 140.6-8.252 0.813c-0.457 0.043-0.865-0.285-0.911-0.74l-0.023-0.217c-0.046-0.452 0.289-0.856 0.746-0.904l8.252-0.811c0.459-0.045 0.868 0.285 0.914 0.74l0.022 0.215c0.046 0.455-0.288 0.859-0.748 0.904z" clip-rule="evenodd" fill="#FFCEBD" fill-rule="evenodd"/>
<path d="m216.11 142.84-8.252 0.813c-0.46 0.046-0.868-0.285-0.911-0.743l-0.023-0.214c-0.045-0.452 0.289-0.856 0.749-0.901l8.249-0.814c0.46-0.045 0.868 0.285 0.914 0.74l0.023 0.218c0.042 0.452-0.292 0.856-0.749 0.901z" clip-rule="evenodd" fill="#FFCEBD" fill-rule="evenodd"/>
<g clip-path="url(#l)">
<path d="m142.16 73.661c-0.531 0.3065-1.024 0.4592-1.48 0.458-0.457-0.0099-0.853-0.147-1.189-0.4111-0.337-0.2642-0.599-0.6244-0.786-1.0808-0.179-0.4606-0.269-0.9906-0.269-1.5901 0-0.6348 0.09-1.2861 0.269-1.954 0.187-0.681 0.445-1.3368 0.774-1.9676s0.718-1.2035 1.167-1.7182 0.938-0.9253 1.469-1.2319c0.785-0.4533 1.425-0.6329 1.918-0.5387 0.494 0.0942 0.868 0.372 1.122 0.8335l-0.606 0.8258c-0.254-0.4351-0.594-0.6662-1.02-0.6934-0.427-0.0273-0.901 0.1102-1.425 0.4124-0.441 0.2548-0.841 0.5959-1.2 1.0236-0.352 0.4233-0.654 0.8935-0.909 1.4105-0.254 0.5171-0.448 1.0481-0.583 1.5931-0.127 0.5406-0.191 1.0622-0.191 1.5648 0 0.5289 0.075 0.9883 0.225 1.378 0.149 0.3809 0.362 0.6767 0.639 0.8872 0.277 0.2017 0.595 0.3048 0.954 0.3092 0.366-0.0088 0.759-0.1341 1.177-0.3759 0.486-0.2806 0.946-0.6871 1.38-1.2197 0.434-0.5413 0.849-1.2261 1.245-2.0544v0.9786c-0.755 1.5116-1.649 2.5653-2.681 3.1611zm2.558-5.4438-1.773 1.0231v-0.7141l2.434-1.4052v4.6153l-0.661 0.382v-3.9011z" fill="#191551"/>
<path d="m149.36 69.57c-0.419 0.2417-0.807 0.3736-1.166 0.3957-0.359 0.0133-0.67-0.0676-0.931-0.2427-0.262-0.1839-0.468-0.4487-0.617-0.7944-0.142-0.3499-0.213-0.7718-0.213-1.2655 0-0.6436 0.123-1.3055 0.37-1.9857 0.254-0.6846 0.602-1.313 1.043-1.8851 0.441-0.5809 0.942-1.0332 1.503-1.357 0.576-0.3324 1.077-0.4586 1.503-0.3785 0.434 0.0758 0.774 0.3114 1.021 0.7067 0.246 0.3865 0.37 0.8971 0.37 1.5319v0.2116c0 0.0617-4e-3 0.1124-0.011 0.1519l-5.003 2.8883c0.037 0.4721 0.153 0.846 0.348 1.1217 0.202 0.2625 0.46 0.4177 0.774 0.4656 0.321 0.0348 0.669-0.0558 1.043-0.2716 0.381-0.2202 0.74-0.5421 1.077-0.9656 0.344-0.4278 0.583-0.8657 0.717-1.3137l0.662-0.1704c-0.119 0.3952-0.303 0.7963-0.549 1.2033-0.247 0.407-0.539 0.7825-0.875 1.1267-0.329 0.331-0.684 0.6066-1.066 0.8268zm-2.153-2.6579 4.318-2.4932c-0.03-0.4852-0.146-0.8591-0.348-1.1217-0.194-0.2668-0.452-0.4132-0.774-0.4392-0.314-0.039-0.661 0.0515-1.043 0.2717-0.381 0.2202-0.729 0.5311-1.043 0.9329-0.314 0.3929-0.572 0.8416-0.774 1.346-0.194 0.4914-0.307 0.9926-0.336 1.5035z" fill="#191551"/>
<path d="m155.91 65.789c-0.419 0.2418-0.808 0.3737-1.167 0.3958-0.351 0.0089-0.658-0.0741-0.92-0.2492-0.254-0.1883-0.452-0.4529-0.594-0.7941-0.142-0.35-0.213-0.763-0.213-1.2391 0-0.4937 0.071-0.9931 0.213-1.4983 0.142-0.5141 0.344-1.0097 0.606-1.487 0.261-0.4862 0.568-0.9232 0.919-1.3113 0.359-0.4012 0.748-0.7226 1.167-0.9644s0.804-0.3671 1.155-0.3761c0.352-0.0178 0.658 0.0653 0.92 0.2492 0.262 0.1751 0.463 0.4377 0.606 0.7876 0.142 0.3412 0.213 0.7586 0.213 1.2523 0 0.4761-0.071 0.9711-0.213 1.4852-0.143 0.5052-0.344 1.0008-0.606 1.487-0.254 0.4729-0.561 0.91-0.92 1.3112-0.351 0.3881-0.74 0.7051-1.166 0.9512zm-2.12-2.3202c0 0.5114 0.093 0.9247 0.28 1.2399 0.195 0.3021 0.453 0.4838 0.774 0.545 0.322 0.0524 0.677-0.0336 1.066-0.2581 0.388-0.2245 0.744-0.553 1.065-0.9855 0.322-0.4325 0.58-0.9165 0.774-1.4519 0.195-0.5443 0.292-1.0676 0.292-1.5702 0-0.5113-0.097-0.9224-0.292-1.2334-0.194-0.3109-0.452-0.497-0.774-0.5582-0.321-0.0612-0.677 0.0204-1.065 0.2449-0.389 0.2245-0.744 0.5574-1.066 0.9987-0.314 0.437-0.568 0.9232-0.763 1.4587-0.194 0.5266-0.291 1.05-0.291 1.5701z" fill="#191551"/>
<path d="m164.84 52.872c-0.112-0.0851-0.243-0.1418-0.392-0.1701-0.15-0.0371-0.318-0.0457-0.505-0.0259-0.187 0.0197-0.389 0.0658-0.606 0.1381-0.209 0.0679-0.433 0.171-0.673 0.3092-0.695 0.4015-1.207 0.8559-1.536 1.3632-0.322 0.4942-0.483 1.0102-0.483 1.548 0 0.3703 0.075 0.6181 0.225 0.7433 0.157 0.121 0.4 0.1526 0.729 0.0948 0.329-0.0577 0.748-0.1628 1.256-0.3153 0.568-0.187 1.058-0.3023 1.469-0.3458 0.412-0.0435 0.73 0.0375 0.954 0.243 0.224 0.1967 0.336 0.5772 0.336 1.1414 0 0.432-0.071 0.8477-0.213 1.2471s-0.34 0.7783-0.594 1.1367-0.557 0.6919-0.909 1.0006c-0.351 0.2999-0.736 0.5707-1.155 0.8125-0.411 0.2374-0.808 0.4178-1.189 0.541-0.374 0.11-0.729 0.1652-1.066 0.1655-0.336-0.0085-0.65-0.0828-0.942-0.223l0.393-0.9804c0.142 0.0943 0.31 0.1646 0.505 0.2111 0.201 0.0333 0.422 0.0426 0.661 0.0278 0.247-0.019 0.509-0.0731 0.786-0.1623 0.284-0.1024 0.575-0.2399 0.874-0.4126 0.636-0.3669 1.13-0.7885 1.481-1.2647 0.359-0.4806 0.538-0.9897 0.538-1.5275 0-0.3879-0.089-0.6447-0.269-0.7703-0.179-0.1344-0.448-0.173-0.807-0.1156-0.359 0.0573-0.801 0.1666-1.324 0.3277-0.553 0.1696-1.021 0.2719-1.402 0.307-0.381 0.035-0.669-0.0412-0.864-0.2287-0.187-0.2007-0.28-0.5522-0.28-1.0548 0-0.5818 0.12-1.1402 0.359-1.6751 0.247-0.548 0.583-1.0464 1.009-1.4953 0.427-0.4577 0.916-0.8462 1.47-1.1657 0.351-0.2029 0.676-0.3466 0.976-0.4312 0.306-0.0976 0.586-0.1405 0.841-0.1286 0.261 0.0076 0.504 0.0656 0.729 0.1742l-0.382 0.9607z" fill="#191551"/>
<path d="m166.78 56.537v-4.0467l0.762-0.4403v3.8879c0 0.7847 0.113 1.3062 0.337 1.5646 0.232 0.2541 0.572 0.2516 1.021-0.0074 0.299-0.1727 0.587-0.4139 0.863-0.7235 0.284-0.3227 0.535-0.6878 0.752-1.0951 0.217-0.4161 0.381-0.8461 0.493-1.29v-4.3376l0.763-0.4403v5.8055c0 0.1234 0.022 0.203 0.067 0.2388 0.045 0.027 0.112 0.019 0.202-0.024v0.7141c-0.09 0.0607-0.161 0.1061-0.213 0.1363-0.052 0.039-0.101 0.0715-0.146 0.0974-0.149 0.0687-0.28 0.0737-0.392 0.0151-0.105-0.063-0.161-0.1805-0.169-0.3525l-0.022-0.9128c-0.254 0.6758-0.602 1.2909-1.043 1.8454-0.434 0.5501-0.905 0.972-1.413 1.2656-0.614 0.354-1.077 0.3704-1.391 0.0492s-0.471-0.9711-0.471-1.9497z" fill="#191551"/>
<path d="m176.42 47.722c-0.509 0.3112-0.957 0.7378-1.346 1.2797-0.382 0.5375-0.651 1.1294-0.808 1.7754v4.2847l-0.762 0.4404v-6.8899l0.717-0.4145v1.6531c0.202-0.6015 0.468-1.147 0.797-1.6368 0.336-0.494 0.691-0.8666 1.065-1.1177 0.075-0.052 0.139-0.0931 0.191-0.1233 0.06-0.0345 0.108-0.0582 0.146-0.071v0.8199z" fill="#191551"/>
<path d="m177.71 53.07v-6.1758l-0.807 0.4662v-0.7141l0.807-0.4662v-0.1852c0-0.5642 0.068-1.088 0.202-1.5712 0.142-0.4876 0.34-0.9106 0.595-1.2689 0.261-0.3716 0.568-0.6588 0.919-0.8617 0.232-0.1338 0.457-0.2236 0.673-0.2695 0.217-0.0459 0.404-0.048 0.561-0.0064l-0.235 0.784c-0.098-0.0409-0.225-0.0424-0.382-0.0047-0.157 0.0378-0.314 0.102-0.471 0.1927-0.351 0.2029-0.624 0.5236-0.819 0.962-0.187 0.4341-0.28 0.9598-0.28 1.5769v0.2116l1.615-0.9325v0.7141l-1.615 0.9325v6.1758l-0.763 0.4404z" fill="#191551"/>
<g clip-path="url(#k)">
<path d="m126.96 80.472-0.074 0.2856c-2.194 0.3831-3.366-1.7126-2.604-4.7075 0.761-2.995 3.149-5.7163 5.342-6.108 1.672-0.2981 2.806 0.8576 2.836 2.8934l-0.231 0.1336c-0.336-2.1105-2.217-2.5667-4.201-1.0309-1.985 1.5358-3.314 4.4944-2.97 6.6005 0.186 1.1917 0.895 1.8999 1.902 1.9333z" fill="url(#b)"/>
<path d="m131.9 68.637 0.075-0.2423c3.157-0.1072 4.522 3.4617 3.052 7.9748-1.47 4.513-5.231 8.2784-8.387 8.3856-2.403 0.0878-3.851-1.987-3.62-5.1872l0.202-0.0903c0.164 3.5089 2.813 4.7342 5.917 2.7513 3.105-1.9828 5.478-6.4281 5.313-9.937-0.097-2.0317-1.044-3.3817-2.552-3.6549z" fill="url(#a)"/>
</g>
</g>
<path d="m200.41 401.94c-0.264 0-0.594-0.131-0.726-0.395-0.198-0.395-0.066-0.922 0.33-1.12l11.284-6.521c1.255-0.725 2.047-2.108 2.047-3.556v-5.929c0-0.461 0.395-0.856 0.857-0.856s0.858 0.395 0.858 0.856v5.929c0 2.042-1.122 3.952-2.903 5.005l-11.285 6.521c-0.198 0-0.33 0.066-0.462 0.066z" fill="#7EC4F7"/>
<path d="m203.23 403.38-3.414-5.942-12.823 7.338 3.414 5.943 12.823-7.339z" fill="#7EC4F7"/>
<path d="m203.97 401.81c0-1.515-1.057-3.425-2.443-4.216-1.32-0.791-2.441-0.132-2.441 1.383s1.056 3.425 2.441 4.216c1.386 0.79 2.443 0.197 2.443-1.383z" fill="#7EC4F7"/>
<path d="m193.68 411.26-5.514-9.599-20.151 11.532 5.514 9.599 20.151-11.532z" fill="#7EC4F7"/>
<path d="m189.12 403.59 4.355-2.503c1.782 1.317 3.234 3.754 3.432 5.928l-4.356 2.503c-1.782-1.252-3.233-3.755-3.431-5.928z" fill="#3981EA"/>
<path d="m194.87 408.79c0-2.503-1.716-5.533-3.894-6.784-2.177-1.252-3.959-0.264-3.959 2.239 0 2.504 1.715 5.533 3.893 6.785 2.244 1.251 3.96 0.197 3.96-2.24z" fill="#7EC4F7"/>
<path d="m199.95 400.23c0.66-0.329 0.66-0.922 0-1.317s-1.65-0.395-2.244 0c-0.66 0.329-0.66 0.922 0 1.317 0.594 0.396 1.584 0.396 2.244 0z" fill="#D3E9F8"/>
<path d="m168.07 540.59-170.32-97.352c-4.0254-2.305-3.4975-6.323 1.1218-9.024l82.092-45.448c4.6196-2.635 11.614-2.964 15.64-0.659l170.32 97.352c4.025 2.305 3.497 6.323-1.122 9.024l-82.093 45.449c-4.619 2.7-11.613 2.963-15.639 0.658z" fill="#F3F3F3"/>
<path d="m238.82 398.32c-1.056 0-2.178-0.263-3.168-0.856l-43.686-25.227c-1.386-0.791-2.177-2.174-2.177-3.754 0-1.582 0.791-2.965 2.111-3.821l12.077-7.311c0.396-0.264 0.923-0.132 1.121 0.263 0.265 0.395 0.132 0.922-0.264 1.12l-12.076 7.311c-0.858 0.527-1.32 1.383-1.32 2.371s0.528 1.845 1.386 2.372l43.62 25.227c1.451 0.856 3.3 0.79 4.751-0.066l15.046-9.155c0.396-0.264 0.924-0.132 1.122 0.263 0.264 0.396 0.132 0.922-0.264 1.12l-15.046 9.156c-0.99 0.658-2.111 0.987-3.233 0.987z" fill="#7EC4F7"/>
<path d="m81.888 341.28-24.944-14.359c-1.5179-0.856-1.3199-2.437 0.4619-3.425l24.086-13.898c1.782-0.988 4.4215-1.12 6.0056-0.264l24.944 14.359c1.518 0.857 1.32 2.438-0.461 3.426l-24.087 13.898c-1.782 1.054-4.4878 1.186-6.0056 0.263z" fill="#203E79" opacity=".1"/>
<path d="m120.69 312.75v-10.736h-24.219l-8.3801-4.808c-1.9138-1.12-5.2798-0.988-7.4571 0.329l-7.7869 4.479h-24.219v11.066c-0.0659 0.724 0.3959 1.449 1.2538 1.976l31.28 18.047c1.9138 1.12 5.2791 0.988 7.4571-0.329l30.224-17.389c1.319-0.79 1.913-1.712 1.847-2.635z" fill="#5B95FF"/>
<path d="m84.661 296.42c-1.386 0.066-2.8375 0.396-4.0255 1.055l-7.7869 4.478h-24.219v11.066c-0.0659 0.725 0.3959 1.449 1.2538 1.976l31.28 18.048c0.9238 0.527 2.1781 0.79 3.4978 0.724v-37.347z" fill="#7EC4F7"/>
<path d="m51.401 301.95h-2.7716v11.066c-0.0659 0.725 0.3959 1.449 1.2538 1.976l1.4518 0.856v-13.898h0.066z" fill="#7EC4F7"/>
<path d="m81.69 333.31c1.6496 0.724 4.0256 0.658 6.0056-0.067v-12.58h-6.0056v12.647z" fill="#7BB1FF"/>
<path d="m81.162 322.04-31.28-18.048c-1.9137-1.119-1.6497-3.03 0.5279-4.346l30.224-17.39c2.2435-1.251 5.5433-1.383 7.4571-0.329l31.28 18.048c1.913 1.119 1.649 3.029-0.528 4.347l-30.158 17.389c-2.2436 1.251-5.6089 1.383-7.5226 0.329z" fill="#D3E9F8"/>
<path d="m81.756 318.75-26.198-15.084c-1.5838-0.922-1.3858-2.569 0.4619-3.622l25.274-14.557c1.8482-1.054 4.6858-1.186 6.2691-0.264l26.198 15.084c1.584 0.922 1.386 2.569-0.461 3.623l-25.275 14.556c-1.8475 1.12-4.6851 1.186-6.2691 0.264z" fill="#3A81E8"/>
<path d="m109.21 315.59c0 0.79-0.594 1.778-1.254 2.173-0.725 0.396-1.253 0.067-1.253-0.724 0-0.79 0.593-1.778 1.253-2.174 0.66-0.395 1.254-0.066 1.254 0.725z" fill="#fff"/>
<path d="m113.23 313.28c0 0.79-0.594 1.778-1.253 2.173-0.66 0.396-1.254 0.067-1.254-0.724s0.594-1.778 1.254-2.174c0.726-0.46 1.253-0.131 1.253 0.725z" fill="#fff"/>
<path d="m117.33 310.91c0 0.791-0.594 1.779-1.255 2.174-0.725 0.395-1.253 0.066-1.253-0.725 0-0.79 0.594-1.778 1.253-2.173 0.661-0.395 1.255-0.066 1.255 0.724z" fill="#fff"/>
<path d="m120.69 295.56v-10.737h-24.219l-8.3801-4.808c-1.9138-1.12-5.2798-0.988-7.4571 0.329l-7.7869 4.479h-24.219v11.066c-0.0659 0.724 0.3959 1.449 1.2538 1.976l31.28 18.048c1.9138 1.119 5.2791 0.987 7.4571-0.33l30.224-17.389c1.319-0.791 1.913-1.778 1.847-2.634z" fill="#5B95FF"/>
<path d="m84.661 279.23c-1.386 0.066-2.8375 0.395-4.0255 1.054l-7.7869 4.479h-24.219v11.066c-0.0659 0.724 0.3959 1.449 1.2538 1.976l31.28 18.047c0.9238 0.527 2.1781 0.791 3.4978 0.725v-37.347z" fill="#7EC4F7"/>
<path d="m51.401 284.76h-2.7716v11.066c-0.0659 0.724 0.3959 1.449 1.2538 1.976l1.4518 0.856v-13.898h0.066z" fill="#7EC4F7"/>
<path d="m81.69 316.05c1.6496 0.725 4.0256 0.658 6.0056-0.066v-12.581h-6.0056v12.647z" fill="#7BB1FF"/>
<path d="m81.162 304.78-31.28-18.048c-1.9137-1.12-1.6497-3.03 0.5279-4.348l30.224-17.388c2.2435-1.252 5.5433-1.384 7.4571-0.329l31.28 18.047c1.913 1.12 1.649 3.03-0.528 4.348l-30.158 17.454c-2.2436 1.251-5.6089 1.383-7.5226 0.264z" fill="#D3E9F8"/>
<path d="m81.756 301.56-26.198-15.084c-1.5838-0.922-1.3858-2.569 0.4619-3.622l25.274-14.557c1.8482-1.054 4.6858-1.185 6.2691-0.264l26.198 15.084c1.584 0.922 1.386 2.569-0.461 3.623l-25.275 14.557c-1.8475 1.053-4.6851 1.185-6.2691 0.263z" fill="#3A81E8"/>
<path d="m109.21 298.4c0 0.791-0.594 1.779-1.254 2.174-0.725 0.395-1.253 0.066-1.253-0.724 0-0.791 0.593-1.779 1.253-2.174s1.254-0.066 1.254 0.724z" fill="#fff"/>
<path d="m113.23 296.02c0 0.791-0.594 1.779-1.253 2.174-0.726 0.395-1.254 0.065-1.254-0.724 0-0.791 0.594-1.779 1.254-2.174 0.726-0.395 1.253-0.066 1.253 0.724z" fill="#fff"/>
<path d="m117.33 293.72c0 0.791-0.594 1.778-1.255 2.174-0.725 0.395-1.253 0.066-1.253-0.725 0-0.79 0.594-1.778 1.253-2.173 0.661-0.396 1.255-0.067 1.255 0.724z" fill="#fff"/>
<path d="m120.69 278.31v-10.736h-24.219l-8.3801-4.808c-1.9138-1.12-5.2798-0.988-7.4571 0.329l-7.7869 4.479h-24.219v11.066c-0.0659 0.724 0.3959 1.448 1.2538 1.975l31.28 18.048c1.9138 1.12 5.2791 0.988 7.4571-0.329l30.224-17.389c1.319-0.79 1.913-1.713 1.847-2.635z" fill="#5B95FF"/>
<path d="m84.661 261.97c-1.386 0.066-2.8375 0.395-4.0255 1.054l-7.7869 4.479h-24.219v11.065c-0.0659 0.725 0.3959 1.449 1.2538 1.976l31.28 18.048c0.9238 0.527 2.1781 0.791 3.4978 0.724v-37.346z" fill="#7EC4F7"/>
<path d="m51.401 267.5h-2.7716v11.066c-0.0659 0.725 0.3959 1.45 1.2538 1.977l1.4518 0.856v-13.899h0.066z" fill="#7EC4F7"/>
<path d="m81.69 298.86c1.6496 0.724 4.0256 0.659 6.0056-0.066v-12.581h-6.0056v12.647z" fill="#7BB1FF"/>
<path d="m81.162 287.59-31.28-18.048c-1.9137-1.119-1.6497-3.029 0.5279-4.346l30.224-17.39c2.2435-1.251 5.5433-1.383 7.4571-0.329l31.28 18.048c1.913 1.119 1.649 3.03-0.528 4.347l-30.158 17.389c-2.2436 1.318-5.6089 1.449-7.5226 0.329z" fill="#D3E9F8"/>
<path d="m81.756 284.37-26.198-15.084c-1.5838-0.922-1.3858-2.569 0.4619-3.623l25.274-14.556c1.8482-1.054 4.6858-1.186 6.2691-0.264l26.198 15.084c1.584 0.922 1.386 2.569-0.461 3.622l-25.275 14.557c-1.8475 1.054-4.6851 1.186-6.2691 0.264z" fill="#3A81E8"/>
<path d="m109.21 281.2c0 0.79-0.594 1.779-1.254 2.174-0.725 0.394-1.253 0.065-1.253-0.725s0.593-1.779 1.253-2.174c0.66-0.461 1.254-0.132 1.254 0.725z" fill="#fff"/>
<path d="m113.23 278.83c0 0.79-0.594 1.778-1.253 2.174-0.726 0.395-1.254 0.066-1.254-0.725 0-0.79 0.594-1.778 1.254-2.174 0.726-0.395 1.253-0.066 1.253 0.725z" fill="#fff"/>
<path d="m117.33 276.53c0 0.791-0.594 1.778-1.255 2.174-0.725 0.395-1.253 0.066-1.253-0.725 0-0.79 0.594-1.778 1.253-2.173 0.661-0.396 1.255-0.132 1.255 0.724z" fill="#fff"/>
<path d="m120.69 261.12v-10.737h-24.219l-8.3801-4.808c-1.9138-1.12-5.2798-0.988-7.4571 0.329l-7.7869 4.479h-24.219v11.066c-0.0659 0.724 0.3959 1.449 1.2538 1.976l31.28 18.048c1.9138 1.119 5.2791 0.988 7.4571-0.33l30.224-17.389c1.319-0.79 1.913-1.713 1.847-2.634z" fill="#5B95FF"/>
<path d="m84.661 244.78c-1.386 0.067-2.8375 0.396-4.0255 1.054l-7.7869 4.48h-24.219v11.065c-0.0659 0.725 0.3959 1.449 1.2538 1.976l31.28 18.048c0.9238 0.527 2.1781 0.79 3.4978 0.724v-37.347z" fill="#7EC4F7"/>
<path d="m51.401 250.31h-2.7716v11.066c-0.0659 0.725 0.3959 1.449 1.2538 1.976l1.4518 0.856v-13.898h0.066z" fill="#7EC4F7"/>
<path d="m81.69 281.66c1.6496 0.725 4.0256 0.659 6.0056-0.065v-12.581h-6.0056v12.646z" fill="#7BB1FF"/>
<path d="m81.162 270.4-31.28-18.047c-1.9137-1.121-1.6497-3.03 0.5279-4.348l30.224-17.389c2.2435-1.251 5.5433-1.383 7.4571-0.329l31.28 18.047c1.913 1.121 1.649 3.03-0.528 4.348l-30.158 17.389c-2.2436 1.251-5.6089 1.383-7.5226 0.329z" fill="#D3E9F8"/>
<path d="m81.756 267.11-26.198-15.084c-1.5838-0.922-1.3858-2.569 0.4619-3.623l25.274-14.557c1.8482-1.053 4.6858-1.185 6.2691-0.263l26.198 15.084c1.584 0.922 1.386 2.569-0.461 3.622l-25.275 14.623c-1.8475 1.054-4.6851 1.186-6.2691 0.198z" fill="#3A81E8"/>
<path d="m109.21 263.95c0 0.79-0.594 1.779-1.254 2.173-0.725 0.395-1.253 0.066-1.253-0.724 0-0.791 0.593-1.779 1.253-2.174s1.254-0.065 1.254 0.725z" fill="#fff"/>
<path d="m113.23 261.64c0 0.79-0.594 1.778-1.253 2.174-0.726 0.394-1.254 0.065-1.254-0.725 0-0.791 0.594-1.779 1.254-2.174 0.659-0.395 1.253-0.066 1.253 0.725z" fill="#fff"/>
<path d="m117.33 259.27c0 0.791-0.594 1.779-1.255 2.174-0.725 0.395-1.253 0.066-1.253-0.724 0-0.791 0.594-1.779 1.253-2.174 0.661-0.395 1.255-0.066 1.255 0.724z" fill="#fff"/>
<path d="m120.69 243.92v-10.802h-24.219l-8.3801-4.808c-1.9138-1.12-5.2798-0.988-7.4571 0.329l-7.7869 4.479h-24.219v11.066c-0.0659 0.724 0.3959 1.449 1.2538 1.976l31.28 18.047c1.9138 1.121 5.2791 0.989 7.4571-0.329l30.224-17.389c1.319-0.724 1.913-1.712 1.847-2.569z" fill="#5B95FF"/>
<path d="m84.661 227.59c-1.386 0.066-2.8375 0.396-4.0255 1.054l-7.7869 4.479h-24.219v11.066c-0.0659 0.724 0.3959 1.449 1.2538 1.975l31.28 18.048c0.9238 0.527 2.1781 0.791 3.4978 0.725v-37.347z" fill="#7EC4F7"/>
<path d="m51.401 233.12h-2.7716v11.066c-0.0659 0.724 0.3959 1.449 1.2538 1.976l1.4518 0.856v-13.898h0.066z" fill="#7EC4F7"/>
<path d="m81.69 264.47c1.6496 0.725 4.0256 0.659 6.0056-0.066v-12.58h-6.0056v12.646z" fill="#7BB1FF"/>
<path d="m81.162 253.14-31.28-18.048c-1.9137-1.12-1.6497-3.03 0.5279-4.347l30.224-17.389c2.2435-1.252 5.5433-1.384 7.4571-0.33l31.28 18.048c1.913 1.12 1.649 3.03-0.528 4.347l-30.158 17.456c-2.2436 1.251-5.6089 1.383-7.5226 0.263z" fill="#D3E9F8"/>
<path d="m81.756 249.92-26.198-15.083c-1.5838-0.923-1.3858-2.569 0.4619-3.623l25.274-14.557c1.8482-1.054 4.6858-1.186 6.2691-0.263l26.198 15.083c1.584 0.922 1.386 2.569-0.461 3.623l-25.275 14.557c-1.8475 1.054-4.6851 1.185-6.2691 0.263z" fill="#3A81E8"/>
<path d="m107.85 247.41-12.513 7.216 0.2635 0.456 12.515-7.215-0.265-0.457z" fill="#fff"/>
<path d="m109.21 246.76c0 0.79-0.594 1.778-1.254 2.173-0.726 0.396-1.254 0.066-1.254-0.725 0-0.79 0.594-1.778 1.254-2.173s1.254-0.066 1.254 0.725z" fill="#fff"/>
<path d="m113.23 244.45c0 0.791-0.594 1.779-1.253 2.174-0.727 0.395-1.254 0.066-1.254-0.724 0-0.791 0.594-1.779 1.254-2.174 0.726-0.461 1.253-0.132 1.253 0.724z" fill="#fff"/>
<path d="m117.33 242.08c0 0.79-0.594 1.779-1.255 2.173-0.725 0.396-1.253 0.067-1.253-0.724 0-0.79 0.594-1.778 1.253-2.174 0.661-0.395 1.255-0.065 1.255 0.725z" fill="#fff"/>
<path d="m120.69 226.6v-10.736h-24.219l-8.3801-4.808c-1.9138-1.12-5.2798-0.988-7.4571 0.329l-7.7869 4.479h-24.219v11.066c-0.0659 0.724 0.3959 1.448 1.2538 1.975l31.28 18.048c1.9138 1.12 5.2791 0.988 7.4571-0.329l30.224-17.389c1.319-0.79 1.913-1.778 1.847-2.635z" fill="#5B95FF"/>
<path d="m84.661 210.26c-1.386 0.066-2.8375 0.395-4.0255 1.054l-7.7869 4.479h-24.219v11.065c-0.0659 0.725 0.3959 1.45 1.2538 1.977l31.28 18.048c0.9238 0.527 2.1781 0.79 3.4978 0.724v-37.347z" fill="#7EC4F7"/>
<path d="m51.401 215.8h-2.7716v11.066c-0.0659 0.725 0.3959 1.449 1.2538 1.976l1.4518 0.856v-13.898h0.066z" fill="#7EC4F7"/>
<path d="m81.69 247.08c1.6496 0.724 4.0256 0.658 6.0056-0.066v-12.581h-6.0056v12.647z" fill="#7BB1FF"/>
<path d="m81.162 235.82-31.28-18.048c-1.9137-1.12-1.6497-3.03 0.5279-4.347l30.224-17.389c2.2435-1.252 5.5433-1.383 7.4571-0.33l31.28 18.048c1.913 1.12 1.649 3.03-0.528 4.347l-30.158 17.455c-2.2436 1.252-5.6089 1.383-7.5226 0.264z" fill="#D3E9F8"/>
<path d="m118.84 216-30.158 17.389c-2.2442 1.252-5.5433 1.383-7.4571 0.329l-31.28-18.047c-0.396-0.263-0.7259-0.527-0.9898-0.856-0.66 1.054-0.33 2.24 0.9898 2.964l31.28 18.048c1.9138 1.119 5.2791 0.987 7.4571-0.33l30.224-17.389c1.715-0.988 2.244-2.371 1.518-3.491-0.396 0.527-0.858 0.988-1.584 1.383z" fill="#fff"/>
<path d="m109.21 229.43c0 0.791-0.594 1.779-1.255 2.174-0.725 0.395-1.253 0.066-1.253-0.724 0-0.791 0.594-1.779 1.253-2.174 0.661-0.395 1.255-0.066 1.255 0.724z" fill="#fff"/>
<path d="m96.736 236.28c0 0.791-0.594 1.779-1.2536 2.174-0.7264 0.395-1.2542 0.066-1.2542-0.724 0-0.791 0.594-1.779 1.2542-2.174 0.7258-0.395 1.2536-0.132 1.2536 0.724z" fill="#fff"/>
<path d="m96.736 254.13c0 0.79-0.594 1.778-1.2536 2.173-0.7264 0.396-1.2542 0.066-1.2542-0.725 0-0.789 0.594-1.778 1.2542-2.173 0.7258-0.396 1.2536-0.066 1.2536 0.725z" fill="#fff"/>
<path d="m113.23 227.06c0 0.79-0.594 1.778-1.253 2.173-0.726 0.396-1.254 0.066-1.254-0.725 0-0.79 0.594-1.778 1.254-2.173 0.726-0.395 1.253-0.066 1.253 0.725z" fill="#fff"/>
<path d="m117.33 224.76c0 0.791-0.594 1.779-1.255 2.174-0.725 0.395-1.253 0.065-1.253-0.724 0-0.791 0.594-1.78 1.253-2.174 0.661-0.395 1.255-0.066 1.255 0.724z" fill="#fff"/>
<path d="m83.011 224.69-14.65-8.432c-0.9238-0.527-0.792-1.449 0.2642-2.042l14.122-8.167c1.0556-0.593 2.5733-0.659 3.4971-0.132l14.65 8.431c0.924 0.527 0.792 1.449-0.264 2.042l-14.122 8.168c-0.99 0.592-2.574 0.658-3.4977 0.132z" fill="#7EC4F7"/>
<path d="m84.464 217.64-2.0463-1.186c-0.1317-0.065-0.1317-0.197 0.0663-0.263l1.98-1.12c0.1318-0.065 0.3298-0.065 0.4615 0l2.0456 1.186c0.1324 0.065 0.1324 0.197-0.0656 0.263l-1.98 1.12c-0.1317 0-0.396 0.066-0.4615 0z" fill="#D3E9F8"/>
<path d="m68.425 216.26c0.1317 0 0.198-0.066 0.2642-0.132l14.122-8.167c1.0563-0.593 2.574-0.659 3.4978-0.132l14.584 8.431c0.858-0.592 0.858-1.383 0.066-1.844l-14.65-8.431c-0.9238-0.527-2.4415-0.462-3.4978 0.132l-14.122 8.167c-1.0562 0.527-1.188 1.449-0.2642 1.976z" fill="#44A6E2"/>
<path d="m79.976 238.39c0 0.856-0.594 1.185-1.3198 0.79-0.7257-0.396-1.3197-1.449-1.3197-2.305 0-0.857 0.594-1.186 1.3197-0.791 0.7258 0.461 1.3198 1.449 1.3198 2.306z" fill="#D3E9F8"/>
<path d="m75.819 236.02c0 0.857-0.594 1.186-1.3198 0.79-0.7258-0.395-1.3198-1.449-1.3198-2.305s0.594-1.185 1.3198-0.791c0.7258 0.462 1.3198 1.45 1.3198 2.306z" fill="#203E79"/>
<path d="m79.976 243.4c0 0.857-0.594 1.186-1.3198 0.791-0.7257-0.396-1.3197-1.45-1.3197-2.306s0.594-1.186 1.3197-0.79c0.7258 0.395 1.3198 1.449 1.3198 2.305z" fill="#D3E9F8"/>
<path d="m75.819 241.02c0 0.856-0.594 1.186-1.3198 0.791-0.7258-0.396-1.3198-1.45-1.3198-2.306s0.594-1.186 1.3198-0.79c0.7258 0.395 1.3198 1.449 1.3198 2.305z" fill="#D3E9F8"/>
<path d="m79.976 255.52c0 0.856-0.594 1.186-1.3198 0.791-0.7257-0.395-1.3197-1.45-1.3197-2.306s0.594-1.185 1.3197-0.79c0.7258 0.395 1.3198 1.449 1.3198 2.305z" fill="#D3E9F8"/>
<path d="m75.819 253.14c0 0.856-0.594 1.185-1.3198 0.79-0.7258-0.396-1.3198-1.449-1.3198-2.306 0-0.856 0.594-1.185 1.3198-0.79 0.7258 0.396 1.3198 1.449 1.3198 2.306z" fill="#D3E9F8"/>
<path d="m79.976 260.46c0 0.856-0.594 1.186-1.3198 0.791-0.7257-0.395-1.3197-1.45-1.3197-2.306s0.594-1.186 1.3197-0.79c0.7258 0.461 1.3198 1.449 1.3198 2.305z" fill="#203E79"/>
<path d="m75.819 258.08c0 0.856-0.594 1.185-1.3198 0.79-0.7258-0.394-1.3198-1.449-1.3198-2.305s0.594-1.185 1.3198-0.79c0.7258 0.461 1.3198 1.448 1.3198 2.305z" fill="#D3E9F8"/>
<path d="m79.976 272.64c0 0.856-0.594 1.186-1.3198 0.791-0.7257-0.395-1.3197-1.45-1.3197-2.306s0.594-1.185 1.3197-0.79c0.7258 0.395 1.3198 1.449 1.3198 2.305z" fill="#D3E9F8"/>
<path d="m75.819 270.27c0 0.856-0.594 1.185-1.3198 0.79-0.7258-0.394-1.3198-1.449-1.3198-2.305s0.594-1.185 1.3198-0.79 1.3198 1.448 1.3198 2.305z" fill="#203E79"/>
<path d="m79.976 277.58c0 0.856-0.594 1.186-1.3198 0.791-0.7257-0.395-1.3197-1.45-1.3197-2.306s0.594-1.186 1.3197-0.79c0.7258 0.461 1.3198 1.449 1.3198 2.305z" fill="#D3E9F8"/>
<path d="m75.819 275.21c0 0.856-0.594 1.185-1.3198 0.79s-1.3198-1.449-1.3198-2.305 0.594-1.186 1.3198-0.791c0.7258 0.461 1.3198 1.45 1.3198 2.306z" fill="#203E79"/>
<path d="m79.976 289.9c0 0.857-0.594 1.186-1.3198 0.791-0.7257-0.395-1.3197-1.45-1.3197-2.306s0.594-1.185 1.3197-0.79c0.7258 0.395 1.3198 1.449 1.3198 2.305z" fill="#203E79"/>
<path d="m75.819 287.53c0 0.856-0.594 1.185-1.3198 0.79s-1.3198-1.449-1.3198-2.305c0-0.857 0.594-1.186 1.3198-0.791 0.7258 0.461 1.3198 1.45 1.3198 2.306z" fill="#D3E9F8"/>
<path d="m79.976 294.84c0 0.857-0.594 1.186-1.3198 0.791-0.7257-0.395-1.3197-1.449-1.3197-2.305 0-0.857 0.594-1.186 1.3197-0.79 0.7258 0.461 1.3198 1.515 1.3198 2.304z" fill="#D3E9F8"/>
<path d="m75.819 292.53c0 0.856-0.594 1.185-1.3198 0.79s-1.3198-1.449-1.3198-2.306c0-0.856 0.594-1.185 1.3198-0.789 0.7258 0.395 1.3198 1.448 1.3198 2.305z" fill="#203E79"/>
<path d="m79.976 307.02c0 0.857-0.594 1.186-1.3198 0.791-0.7257-0.396-1.3197-1.449-1.3197-2.306 0-0.856 0.594-1.185 1.3197-0.79 0.7258 0.395 1.3198 1.449 1.3198 2.305z" fill="#203E79"/>
<path d="m75.819 304.65c0 0.856-0.594 1.186-1.3198 0.791-0.7258-0.396-1.3198-1.45-1.3198-2.306s0.594-1.186 1.3198-0.79c0.7258 0.395 1.3198 1.449 1.3198 2.305z" fill="#D3E9F8"/>
<path d="m79.976 311.96c0 0.856-0.594 1.185-1.3198 0.789-0.7257-0.394-1.3197-1.448-1.3197-2.304 0-0.857 0.594-1.186 1.3197-0.791 0.7258 0.461 1.3198 1.449 1.3198 2.306z" fill="#203E79"/>
<path d="m75.819 309.59c0 0.856-0.594 1.185-1.3198 0.79s-1.3198-1.449-1.3198-2.305 0.594-1.185 1.3198-0.791c0.7258 0.462 1.3198 1.516 1.3198 2.306z" fill="#D3E9F8"/>
<path d="m79.976 324.35c0 0.856-0.594 1.186-1.3198 0.791-0.7257-0.395-1.3197-1.449-1.3197-2.306 0-0.856 0.594-1.185 1.3197-0.79 0.7258 0.395 1.3198 1.449 1.3198 2.305z" fill="#D3E9F8"/>
<path d="m75.819 321.98c0 0.856-0.594 1.186-1.3198 0.791s-1.3198-1.449-1.3198-2.306c0-0.856 0.594-1.185 1.3198-0.79s1.3198 1.449 1.3198 2.305z" fill="#203E79"/>
<path d="m79.976 329.29c0 0.857-0.594 1.186-1.3198 0.791-0.7257-0.395-1.3197-1.45-1.3197-2.306s0.594-1.185 1.3197-0.79c0.7258 0.461 1.3198 1.449 1.3198 2.305z" fill="#D3E9F8"/>
<path d="m75.819 326.92c0 0.856-0.594 1.186-1.3198 0.791-0.7258-0.396-1.3198-1.45-1.3198-2.306s0.594-1.186 1.3198-0.79c0.7258 0.461 1.3198 1.515 1.3198 2.305z" fill="#D3E9F8"/>
<path d="m185.3 528.27 80.575-46.567c2.639-1.515 3.894-3.624 3.761-5.731v-11.658l-4.487 5.269c-0.264-0.198-0.594-0.396-0.924-0.593l-164.71-94.651c-6.5334-3.755-16.432-4.15-22.107-0.857l-79.453 45.844c-1.5838-1.778-4.9493-5.467-4.9493-5.467l0.06599 11.395c-0.13198 2.569 1.7158 5.335 5.4112 7.443l164.78 94.717c6.533 3.754 16.432 4.15 22.04 0.856z" fill="#58B4ED"/>
<path d="m228.85 499.69-4.62 2.701c-0.594 0.33-1.122 0-1.122-0.856 0-0.791 0.528-1.779 1.122-2.108l4.62-2.7c0.594-0.33 1.122 0 1.122 0.856 0 0.79-0.462 1.778-1.122 2.107z" fill="#173D7A"/>
<path d="m99.509 374.34c-6.5334-3.755-16.432-4.15-22.107-0.857l-79.453 45.844c-1.5838-1.778-4.9493-5.467-4.9493-5.467l0.06599 11.395c-0.13198 2.569 1.7158 5.335 5.4112 7.443l164.78 94.717c3.431 1.977 7.721 2.965 11.878 3.096l-0.132-112.76-75.493-43.406z" fill="#7EC4F7"/>
<path d="m-3.1729 408.26 80.574-46.569c5.6751-3.293 15.574-2.898 22.107 0.856l164.71 94.718c6.533 3.754 7.259 9.484 1.584 12.712l-80.575 46.569c-5.675 3.293-15.574 2.898-22.107-0.857l-164.71-94.717c-6.5331-3.755-7.259-9.419-1.5838-12.712z" fill="#D4ECFF"/>
<path d="m185.36 517.8 80.574-46.569c2.903-1.712 4.157-4.018 3.695-6.389-0.132 1.91-1.385 3.755-3.761 5.138l-80.575 46.568c-5.675 3.294-15.573 2.898-22.107-0.856l-164.78-94.717c-3.1675-1.845-4.9493-4.084-5.3452-6.324-0.19797 2.635 1.6498 5.401 5.4112 7.575l164.78 94.651c6.533 3.754 16.432 4.15 22.107 0.923z" fill="#fff"/>
<path d="m3.0318 410.11 77.407-44.724c4.2235-2.438 11.548-2.108 16.432 0.658l162.47 93.334c4.883 2.767 5.411 7.048 1.188 9.485l-77.473 44.658c-4.224 2.437-11.548 2.108-16.431-0.659l-162.4-93.267c-4.8833-2.833-5.4112-7.048-1.1878-9.485z" fill="#5070E2"/>
<path d="m174.34 483.62 54.64-31.485-3.497-1.976-54.641 31.484 3.498 1.977z" fill="#D4ECFF"/>
<path d="m212.35 474.46 27.65-15.94-3.497-1.976-27.65 15.874 3.497 2.042z" fill="#D4ECFF"/>
<path d="m198.96 482.16 8.908-5.137-3.431-2.042-8.974 5.204 3.497 1.975z" fill="#FF65AB"/>
<path d="m185.36 490 8.974-5.203-3.497-1.976-8.975 5.137 3.498 2.042z" fill="#fff"/>
<path d="m212.02 468.27 22.436-12.911-3.431-2.042-22.502 12.976 3.497 1.977z" fill="#fff"/>
<path d="m184.64 484.08 22.436-12.976-3.497-1.976-22.437 12.91 3.498 2.042z" fill="#D4ECFF"/>
<path d="m185.89 459.57c1.122 0.659 2.969 0.659 4.091 0s1.122-1.712 0-2.371-2.969-0.659-4.091 0-1.122 1.712 0 2.371z" fill="#fff"/>
<path d="m179.82 463.06c1.122 0.659 2.97 0.659 4.092 0 1.122-0.658 1.122-1.712 0-2.371s-2.97-0.659-4.092 0c-1.121 0.724-1.121 1.713 0 2.371z" fill="#fff"/>
<path d="m173.75 466.56c1.122 0.659 2.97 0.659 4.091 0 1.122-0.659 1.122-1.713 0-2.371-1.121-0.659-2.969-0.659-4.091 0-1.122 0.724-1.122 1.778 0 2.371z" fill="#fff"/>
<path d="m167.68 470.11c1.122 0.658 2.969 0.658 4.092 0 1.121-0.659 1.121-1.713 0-2.371-1.123-0.659-2.97-0.659-4.092 0-1.122 0.658-1.122 1.712 0 2.371z" fill="#FF65AB"/>
<path d="m161.61 473.6c1.121 0.659 2.969 0.659 4.091 0 1.121-0.658 1.121-1.712 0-2.371-1.122-0.658-2.97-0.658-4.091 0-1.122 0.659-1.122 1.713 0 2.371z" fill="#fff"/>
<path d="m95.683 378.23c0.7258 0.395 1.8476 0.395 2.5078 0 0.7258-0.396 0.7258-1.054 0-1.45-0.7265-0.394-1.8483-0.394-2.5078 0-0.6602 0.396-0.6602 1.054 0 1.45z" fill="#D4ECFF"/>
<path d="m91.921 380.4c0.7265 0.395 1.8482 0.395 2.5078 0 0.7257-0.396 0.7257-1.055 0-1.45-0.7258-0.394-1.8476-0.394-2.5078 0-0.7258 0.395-0.7258 1.054 0 1.45z" fill="#FF65AB"/>
<path d="m88.158 382.57c0.7258 0.395 1.8483 0.395 2.5078 0 0.7258-0.395 0.7258-1.054 0-1.449-0.7258-0.396-1.8475-0.396-2.5078 0-0.7258 0.395-0.7258 1.054 0 1.449z" fill="#fff"/>
<path d="m158.04 498.7c4.619 2.635 12.076 2.635 16.63 0 4.619-2.634 4.619-6.916 0-9.616-4.62-2.635-12.076-2.635-16.63 0-4.619 2.7-4.619 6.982 0 9.616z" fill="#fff"/>
<path d="m25.402 422.03c3.4975 2.042 9.2387 2.042 12.736 0s3.4975-5.335 0-7.311c-3.4975-2.041-9.2387-2.041-12.736 0-3.4975 2.042-3.4975 5.336 0 7.311z" fill="#fff"/>
<path d="m55.823 403.92 18.412-10.67-3.5641-2.042-18.411 10.67 3.5635 2.042z" fill="#FF65AB"/>
<path d="m43.021 411.29 9.1728-5.335-3.5636-2.042-9.1726 5.335 3.5634 2.042z" fill="#fff"/>
<path d="m57.868 409.25 28.244-16.664-3.5633-2.042-28.244 16.664 3.5635 2.042z" fill="#fff"/>
<path d="m48.695 414.52 5.6092-3.228-3.5635-2.042-5.6752 3.228 3.6295 2.042z" fill="#D4ECFF"/>
<g clip-rule="evenodd" fill="#fff" fill-rule="evenodd" opacity=".2">
<path d="m150.91 418.87c10.295 5.928 11.483 6.653 15.442 9.09 3.63 2.239 5.147 3.754 6.005 4.808 1.188 1.383 1.782 2.569 1.914 4.018 0.198 1.449-0.132 2.569-0.99 3.886-0.66 0.988-1.782 2.371-4.883 4.348-3.366 2.173-4.356 2.766-13.331 7.969-8.974 5.138-10.096 5.731-13.791 7.707-3.432 1.778-5.873 2.437-7.589 2.832-2.244 0.527-4.224 0.659-6.731 0.527-2.508-0.132-4.554-0.395-6.929-1.12-1.848-0.527-4.422-1.383-8.315-3.491-4.223-2.239-5.478-2.964-15.838-8.892-10.295-5.928-11.483-6.653-15.442-9.089-3.6295-2.24-5.1473-3.755-6.0048-4.809-1.188-1.383-1.782-2.568-1.9138-4.018-0.198-1.448 0.1318-2.569 0.9893-3.886 0.6603-0.988 1.782-2.371 4.8838-4.347 3.3653-2.174 4.3553-2.766 13.33-7.97 8.974-5.138 10.096-5.73 13.792-7.707 3.431-1.778 5.873-2.437 7.589-2.832 2.243-0.527 4.223-0.658 6.731-0.527 2.507 0.132 4.553 0.396 6.929 1.12 1.847 0.527 4.421 1.383 8.314 3.491 4.29 2.24 5.543 2.964 15.838 8.892zm6.071-3.491c-10.492-6.06-11.878-6.785-16.101-9.09-4.29-2.305-7.655-3.557-10.954-4.478-3.432-0.988-6.732-1.582-10.691-1.713-4.026-0.132-7.193 0.131-10.426 0.856-3.102 0.659-6.204 1.713-9.9654 3.688-3.7613 1.977-4.9493 2.569-14.056 7.839-9.1067 5.269-10.228 5.928-13.594 8.102-3.366 2.173-5.1473 3.952-6.3354 5.73-1.2538 1.844-1.7817 3.689-1.5177 5.994 0.2639 2.306 1.3197 4.215 2.9693 6.191 1.6503 1.911 3.8938 3.821 7.7869 6.324 3.9593 2.437 5.2136 3.227 15.706 9.287 10.492 6.059 11.878 6.785 16.102 9.089 4.289 2.306 7.655 3.557 10.954 4.479 3.431 0.988 6.731 1.582 10.691 1.713 4.025 0.132 7.192-0.131 10.426-0.856 3.102-0.659 6.204-1.713 9.965-3.688 3.761-1.977 4.949-2.569 14.056-7.839 9.106-5.269 10.228-5.928 13.594-8.102 3.366-2.173 5.147-3.952 6.335-5.73 1.188-1.844 1.782-3.689 1.518-5.994-0.265-2.306-1.32-4.215-2.97-6.191-1.65-1.911-3.893-3.821-7.787-6.324-3.96-2.437-5.213-3.227-15.706-9.287z" opacity=".2"/>
<path d="m141.61 424.2c-11.614-6.652-29.167-7.377-39.198-1.58-10.097 5.796-8.8429 15.939 2.772 22.592 11.614 6.653 29.167 7.377 39.197 1.581 10.097-5.797 8.843-15.874-2.771-22.593zm-30.026 17.323c-7.522-4.347-8.314-10.934-1.782-14.688 6.534-3.754 17.95-3.293 25.473 1.054s8.315 10.934 1.782 14.689c-6.599 3.754-17.95 3.293-25.473-1.055z" opacity=".2"/>
<path d="m169.06 439.22c-2.376 1.383-6.467 1.186-9.173-0.396-2.706-1.58-2.97-3.952-0.66-5.269 2.376-1.383 6.467-1.185 9.173 0.396 2.771 1.515 3.035 3.886 0.66 5.269z" opacity=".2"/>
</g>
<path d="m162.2 419.06c0-1.186-0.792-2.371-2.376-3.228l-9.173-5.269c-3.167-1.845-8.248-1.845-11.415 0l-52.595 30.299c-1.5833 0.922-2.3753 2.042-2.3753 3.227v0.066 5.27c0 1.383 4.7513 2.042 9.1067 1.91l2.3753 1.383c3.168 1.845 8.2486 1.845 11.417 0l45.797-26.413c4.356 0.132 9.107-0.527 9.107-1.91 0.132-0.988 0.132-4.281 0.132-5.335v0z" clip-rule="evenodd" fill="#FF4656" fill-rule="evenodd"/>
<path d="m159.82 427.69c3.167-1.844 3.167-4.742 0-6.586l-9.173-5.27c-3.168-1.844-8.249-1.844-11.416 0l-52.595 30.299c-3.1673 1.844-3.1673 4.743 0 6.587l9.1729 5.27c3.1673 1.844 8.249 1.844 11.416 0l52.595-30.3z" clip-rule="evenodd" fill="#FF4656" fill-rule="evenodd"/>
<path d="m159.82 422.42c3.167-1.844 3.167-4.742 0-6.587l-9.173-5.269c-3.168-1.845-8.249-1.845-11.416 0l-52.595 30.299c-3.1673 1.844-3.1673 4.742 0 6.586l9.1729 5.27c3.1673 1.845 8.249 1.845 11.416 0l52.595-30.299z" clip-rule="evenodd" fill="#FF6673" fill-rule="evenodd"/>
<path d="m139.24 438.89v5.927c0 0.33-0.132 0.659-0.396 0.923-0.263 0.263-0.593 0.395-0.924 0.395h-11.284l12.604-7.245z" clip-rule="evenodd" fill="#FF4656" fill-rule="evenodd"/>
<path d="m139.24 433.62v5.929c0 0.329-0.132 0.658-0.396 0.921-0.263 0.264-0.593 0.396-0.924 0.396h-11.284l12.604-7.246z" clip-rule="evenodd" fill="#FF6673" fill-rule="evenodd"/>
<path d="m116.6 439.42c1.254-0.725 1.386-1.515 0.264-2.174-0.594-0.329-1.32-0.461-2.244-0.263 0.132-0.33 0.067-0.725-0.462-0.988-0.989-0.593-2.177-0.527-3.233 0.132-1.122 0.658-1.188 1.317-0.198 1.844 0.528 0.329 1.188 0.329 1.715 0.263-0.329 0.527-0.131 0.988 0.463 1.318 1.121 0.658 2.441 0.592 3.695-0.132zm-4.883-2.832c0.527-0.33 1.121-0.33 1.517-0.067 0.463 0.264 0.396 0.594-0.131 0.923-0.528 0.329-1.122 0.329-1.584 0.066-0.396-0.264-0.33-0.593 0.198-0.922zm2.243 1.317c0.66-0.395 1.386-0.461 2.046-0.066 0.594 0.329 0.462 0.791-0.132 1.186-0.66 0.395-1.385 0.461-2.046 0.065-0.659-0.395-0.594-0.79 0.132-1.185z" fill="#fff"/>
<path d="m119.18 435.73c0.528-0.329 0.726-0.658 0.726-0.988 1.056 0.593 1.188 1.186 0.396 1.647-0.396 0.198-0.792 0.263-1.122 0.329-0.198 0-0.264 0.066-0.33 0.066-0.198 0.132-0.198 0.33 0 0.461 0.066 0.066 0.198 0.132 0.462 0.132 0.462 0 1.188-0.132 1.848-0.527 1.32-0.791 1.253-1.713-0.858-2.964-1.584-0.923-3.3-1.252-4.752-0.396-1.188 0.659-1.451 1.45-0.066 2.24 1.122 0.725 2.574 0.593 3.696 0zm-2.838-1.778c0.66-0.395 1.584-0.33 2.508 0.197 0.198 0.33 0.066 0.725-0.462 1.054-0.594 0.329-1.386 0.396-2.112 0-0.726-0.461-0.594-0.856 0.066-1.251z" fill="#fff"/>
<path d="m108.09 446.33c2.97-8.893-8.4464-8.366-8.05-4.677-6.402-0.263-7.3913 6.389 8.05 4.677z" clip-rule="evenodd" fill="#fff" fill-rule="evenodd"/>
<path d="m126.1 425.39c1.254-0.724 3.299-0.724 4.553 0s1.254 1.91 0 2.634c-1.254 0.726-3.299 0.726-4.553 0-1.254-0.724-1.254-1.91 0-2.634z" clip-rule="evenodd" fill="#fff" fill-rule="evenodd"/>
<path d="m137.92 427.56c-1.187-0.658-2.903-0.724-3.959-0.131l-4.355 2.502c-0.99 0.594-0.858 1.582 0.264 2.24l1.32 0.791 7.985-4.611-1.255-0.791z" clip-rule="evenodd" fill="#fff" fill-rule="evenodd"/>
<path d="m140.69 421.76c-0.396 0.264-0.594 0.461-0.726 0.658l-0.858-0.724 2.046-1.186c0.198-0.131 0.198-0.329 0-0.461-0.198-0.131-0.594-0.131-0.792 0l-2.375 1.384c-0.198 0.131-0.198 0.329-0.067 0.395l1.716 1.449s0.066 0.066 0.133 0.066c0.263 0.132 0.659 0.132 0.857 0s0.198-0.198 0.198-0.329c0.066-0.264 0.198-0.462 0.66-0.791 0.594-0.329 1.452-0.395 2.178 0.066 0.792 0.461 0.66 0.922 0.066 1.252-0.594 0.329-1.122 0.395-1.914 0.263-0.264-0.066-0.462 0-0.594 0.066-0.198 0.132-0.198 0.329 0 0.461 0.066 0.066 0.132 0.066 0.264 0.066 0.792 0.132 2.046 0.065 3.036-0.461 1.187-0.659 1.385-1.449 0-2.24-1.321-0.724-2.706-0.592-3.828 0.066z" fill="#fff"/>
<path d="m145.57 419.06c-0.528 0.263-0.726 0.658-0.726 0.987-1.056-0.592-1.188-1.185-0.396-1.646 0.396-0.197 0.792-0.264 1.122-0.329 0.198 0 0.264-0.066 0.33-0.066 0.197-0.132 0.197-0.33 0-0.461-0.066-0.067-0.198-0.067-0.462-0.132-0.462 0-1.188 0.132-1.848 0.527-1.319 0.79-1.254 1.712 0.858 2.964 1.584 0.922 3.3 1.252 4.751 0.395 1.188-0.659 1.452-1.449 0.066-2.239-1.188-0.725-2.574-0.659-3.695 0zm2.837 1.778c-0.659 0.395-1.583 0.329-2.507-0.198-0.198-0.329-0.066-0.724 0.462-1.053 0.594-0.33 1.386-0.396 2.111 0 0.726 0.395 0.594 0.856-0.066 1.251z" fill="#fff"/>
<path d="m377.9 446.64c14.618-7.874 38.561-8.24 53.47-0.801 14.909 7.438 15.142 19.859 0.505 27.733-14.619 7.874-38.291 8.24-53.471 0.958-16.693-7.996-15.122-19.999-0.504-27.89z" fill="#A8C4E5" opacity=".4"/>
<path d="m352.07 449.97c14.424-7.769 48.895-12.874 63.61-5.522 3.877 1.934 11.691 4.947 11.691 4.947s-0.233 7.195-0.582 10.017c-0.543 4.477-4.071 8.902-10.605 12.421-14.424 7.769-37.805 8.135-52.792 0.941-8.647-4.146-11.865-8.902-11.342-14.059v-8.745h0.02z" fill="#DEA03C"/>
<path d="m363.42 436.07c14.425-7.77 38.058-8.136 52.773-0.784 14.715 7.334 14.948 19.598 0.504 27.367-14.424 7.77-37.805 8.136-52.792 0.941-16.46-7.909-14.909-19.755-0.485-27.524z" fill="#F2D03D"/>
<path d="m372.39 446.7c-2.986-1.638-6.98-2.195-8.899-1.254-1.919 0.94-1.047 3.031 1.958 4.668 2.986 1.638 6.98 2.195 8.899 1.255 1.9-0.941 1.027-3.031-1.958-4.669z" fill="#16358A"/>
<path d="m398.63 439.29c0.607-1.501-1.741-3.645-5.244-4.787-3.502-1.142-6.833-0.851-7.44 0.65-0.606 1.501 1.742 3.644 5.244 4.787 3.503 1.142 6.834 0.851 7.44-0.65z" fill="#16358A"/>
<path d="m405.7 443.34-31.213 13.797c-0.756 0.331-0.66 0.976 0.194 1.307 4.575 1.864 18.263 6.41 30.748 0.348 12.447-6.045 5.642-12.909 2.714-15.225-0.581-0.436-1.725-0.54-2.443-0.227z" fill="#16358A"/>
<path d="m412.33 452.48s-9.694-0.628-15.452 1.985c-5.719 2.596-5.7 7.387-5.7 7.387 0.291 0.157 18.515 0.017 21.152-9.372z" fill="#FF80AE"/>
<path d="m467.95 342.98c-15.781-8.361-41.605-8.745-57.697-0.853-16.092 7.891-16.344 21.079-0.562 29.441 15.781 8.361 41.334 8.745 57.716 1.01 18.011-8.501 16.325-21.236 0.543-29.598z" fill="#A8C4E5" opacity=".4"/>
<path d="m452.94 343.69c-14.986-7.944-39.511-8.31-54.808-0.802-15.277 7.491-15.51 20.017-0.524 27.96 14.987 7.944 39.26 8.31 54.809 0.958 17.119-8.065 15.51-20.172 0.523-28.116z" fill="#4C73DB"/>
<path d="m386.6 356.01-0.562-8.763h78.17l0.524 10.034-21.074 11.01-57.058-12.281z" fill="#4C73DB"/>
<path d="m452.42 333.2c-14.987-7.943-39.512-8.309-54.809-0.801-15.277 7.491-15.51 20.016-0.523 27.96 14.986 7.944 39.26 8.31 54.808 0.958 17.119-8.066 15.51-20.173 0.524-28.117z" fill="#85A6FF"/>
<path d="m426.75 356.65-10.528-5.365c-2.404-1.22-2.093-3.38 0.679-4.791l6.824-3.484c2.773-1.411 6.999-1.568 9.384-0.348l10.527 5.365c2.404 1.22 2.094 3.38-0.678 4.791l-6.825 3.484c-2.753 1.411-6.979 1.568-9.383 0.348z" fill="#fff"/>
<path d="m421.15 348.64-0.698-0.366c-1.939-0.993-1.687-2.718 0.543-3.85l10.837-5.522c2.23-1.132 5.623-1.254 7.561-0.279l0.698 0.366c1.939 0.993 1.687 2.718-0.542 3.85l-10.838 5.522c-2.23 1.132-5.622 1.254-7.561 0.279z" fill="#fff"/>
<path d="m407.75 346.95-4.963-2.526c-0.931-0.47-0.814-1.306 0.271-1.864l12.622-6.445c1.085-0.558 2.714-0.61 3.644-0.14l4.964 2.526c0.93 0.471 0.814 1.307-0.272 1.864l-12.621 6.446c-1.086 0.557-2.714 0.627-3.645 0.139z" fill="#fff"/>
</g>
<defs>
<linearGradient id="f" x1="94.943" x2="171.19" y1="172.33" y2="172.33" gradientUnits="userSpaceOnUse">
<stop stop-color="#D3DAED" offset="0"/>
<stop stop-color="#B1B8F9" offset="1"/>
</linearGradient>
<linearGradient id="e" x1="116.45" x2="104.34" y1="200.22" y2="178.39" gradientUnits="userSpaceOnUse">
<stop stop-color="#04BF80" offset="0"/>
<stop stop-color="#02E49E" offset="1"/>
</linearGradient>
<linearGradient id="d" x1="93" x2="210.01" y1="84.393" y2="84.393" gradientUnits="userSpaceOnUse">
<stop stop-color="#D3DAED" offset="0"/>
<stop stop-color="#B1B8F9" offset="1"/>
</linearGradient>
<linearGradient id="c" x1="156.74" x2="145.29" y1="112.63" y2="92.438" gradientUnits="userSpaceOnUse">
<stop stop-color="#04BF80" offset="0"/>
<stop stop-color="#02E49E" offset="1"/>
</linearGradient>
<linearGradient id="b" x1="128.26" x2="132.37" y1="70.462" y2="77.587" gradientUnits="userSpaceOnUse">
<stop stop-color="#7A5FFF" offset="0"/>
<stop stop-color="#01FF89" offset="1"/>
</linearGradient>
<linearGradient id="a" x1="129.31" x2="135.36" y1="69.943" y2="80.417" gradientUnits="userSpaceOnUse">
<stop stop-color="#7A5FFF" offset="0"/>
<stop stop-color="#01FF89" offset="1"/>
</linearGradient>
<clipPath id="m">
<rect width="506" height="550" fill="#fff"/>
</clipPath>
<clipPath id="l">
<rect transform="matrix(.86602 -.5 2.203e-8 1 123 72.26)" width="78.52" height="15.704" fill="#fff"/>
</clipPath>
<clipPath id="k">
<rect transform="matrix(.86602 -.5 2.203e-8 1 123 73.5)" width="14.571" height="14.051" fill="#fff"/>
</clipPath>
</defs>
</svg>
