<svg width="184" height="116" viewBox="0 0 184 116" fill="none" xmlns="http://www.w3.org/2000/svg">
<g filter="url(#filter0_d_40_3669)">
<mask id="mask0_40_3669" style="mask-type:alpha" maskUnits="userSpaceOnUse" x="20" y="1" width="144" height="104">
<path fill-rule="evenodd" clip-rule="evenodd" d="M20.8571 1.36914H163.035V104.889H20.8571V1.36914Z" fill="white"/>
</mask>
<g mask="url(#mask0_40_3669)">
<path fill-rule="evenodd" clip-rule="evenodd" d="M163.035 100.902C163.035 103.108 161.245 104.889 159.044 104.889H24.8472C22.646 104.889 20.8571 103.108 20.8571 100.902V5.35683C20.8571 3.15092 22.646 1.36914 24.8472 1.36914H159.044C161.245 1.36914 163.035 3.15092 163.035 5.35683V100.902Z" fill="white"/>
</g>
<mask id="mask1_40_3669" style="mask-type:alpha" maskUnits="userSpaceOnUse" x="3" y="1" width="178" height="110">
<path fill-rule="evenodd" clip-rule="evenodd" d="M3 110.86H180.89V1.36914H3V110.86Z" fill="white"/>
</mask>
<g mask="url(#mask1_40_3669)">
<path fill-rule="evenodd" clip-rule="evenodd" d="M27.4219 95.9282H156.645V8.33789H27.4219V95.9282Z" fill="#191551"/>
<path fill-rule="evenodd" clip-rule="evenodd" d="M36.5362 24.2942H147.464V15.2354H36.5362V24.2942Z" fill="#03E59F"/>
<path fill-rule="evenodd" clip-rule="evenodd" d="M72.723 87.7058H39.0451C38.3717 87.7058 37.8261 84.8095 37.8261 81.2352C37.8261 77.661 38.3717 74.7646 39.0451 74.7646H72.723C73.3964 74.7646 73.942 77.661 73.942 81.2352C73.942 84.8095 73.3964 87.7058 72.723 87.7058Z" fill="#FCCA2E"/>
<path d="M50.8708 78.74V83H49.8868V81.254H48.1888V83H47.2048V78.74H48.1888V80.39H49.8868V78.74H50.8708ZM54.9332 79.604H53.6372V83H52.6532V79.604H51.3512V78.74H54.9332V79.604ZM58.7738 83V80.462L57.8558 82.31H57.3158L56.3978 80.462V83H55.4138V78.74H56.4818L57.5858 80.966L58.6958 78.74H59.7578V83H58.7738ZM60.5759 83V78.74H61.5599V82.136H63.6239V83H60.5759Z" fill="white"/>
<path fill-rule="evenodd" clip-rule="evenodd" d="M115.288 87.7058H81.6103C80.9369 87.7058 80.3913 84.8095 80.3913 81.2352C80.3913 77.661 80.9369 74.7646 81.6103 74.7646H115.288C115.962 74.7646 116.507 77.661 116.507 81.2352C116.507 84.8095 115.962 87.7058 115.288 87.7058Z" fill="#1DAFF4"/>
<path fill-rule="evenodd" clip-rule="evenodd" d="M145.39 87.7058H123.74C123.307 87.7058 122.957 84.8095 122.957 81.2352C122.957 77.661 123.307 74.7646 123.74 74.7646H145.39C145.823 74.7646 146.174 77.661 146.174 81.2352C146.174 84.8095 145.823 87.7058 145.39 87.7058Z" fill="#FC3E54"/>
<path d="M90.9178 81.998C90.9578 82.026 91.0418 82.066 91.1698 82.118C91.3018 82.166 91.4558 82.19 91.6318 82.19C91.7718 82.19 91.8858 82.166 91.9738 82.118C92.0658 82.07 92.1338 81.998 92.1778 81.902C92.2258 81.802 92.2578 81.674 92.2738 81.518C92.2898 81.358 92.2978 81.166 92.2978 80.942V78.74H93.2818V80.906C93.2818 81.226 93.2638 81.518 93.2278 81.782C93.1918 82.046 93.1178 82.276 93.0058 82.472C92.8978 82.664 92.7338 82.812 92.5138 82.916C92.2938 83.016 91.9998 83.066 91.6318 83.066C91.4438 83.066 91.2738 83.044 91.1218 83C90.9698 82.956 90.8298 82.89 90.7018 82.802L90.9178 81.998ZM95.0192 78.74H96.0812L97.5452 83H96.5372L96.2072 82.046H94.8812L94.5572 83H93.5492L95.0192 78.74ZM96.0452 81.368L95.5472 79.73L95.0372 81.368H96.0452ZM98.237 78.74L99.239 81.848L100.229 78.74H101.267L99.719 83H98.753L97.193 78.74H98.237ZM102.39 78.74H103.452L104.916 83H103.908L103.578 82.046H102.252L101.928 83H100.92L102.39 78.74ZM103.416 81.368L102.918 79.73L102.408 81.368H103.416Z" fill="white"/>
<path d="M128.992 83V78.74H130.81C131.014 78.74 131.2 78.782 131.368 78.866C131.54 78.946 131.688 79.056 131.812 79.196C131.936 79.332 132.032 79.486 132.1 79.658C132.168 79.83 132.202 80.006 132.202 80.186C132.202 80.43 132.144 80.662 132.028 80.882C131.916 81.102 131.758 81.282 131.554 81.422C131.354 81.558 131.116 81.626 130.84 81.626H129.976V83H128.992ZM129.976 80.768H130.78C130.856 80.768 130.926 80.746 130.99 80.702C131.054 80.658 131.106 80.592 131.146 80.504C131.186 80.416 131.206 80.308 131.206 80.18C131.206 80.048 131.182 79.94 131.134 79.856C131.09 79.768 131.032 79.704 130.96 79.664C130.892 79.624 130.82 79.604 130.744 79.604H129.976V80.768ZM136.396 78.74V83H135.412V81.254H133.714V83H132.73V78.74H133.714V80.39H135.412V78.74H136.396ZM137.213 83V78.74H139.031C139.235 78.74 139.421 78.782 139.589 78.866C139.761 78.946 139.909 79.056 140.033 79.196C140.157 79.332 140.253 79.486 140.321 79.658C140.389 79.83 140.423 80.006 140.423 80.186C140.423 80.43 140.365 80.662 140.249 80.882C140.137 81.102 139.979 81.282 139.775 81.422C139.575 81.558 139.337 81.626 139.061 81.626H138.197V83H137.213ZM138.197 80.768H139.001C139.077 80.768 139.147 80.746 139.211 80.702C139.275 80.658 139.327 80.592 139.367 80.504C139.407 80.416 139.427 80.308 139.427 80.18C139.427 80.048 139.403 79.94 139.355 79.856C139.311 79.768 139.253 79.704 139.181 79.664C139.113 79.624 139.041 79.604 138.965 79.604H138.197V80.768Z" fill="white"/>
</g>
<mask id="mask2_40_3669" style="mask-type:alpha" maskUnits="userSpaceOnUse" x="3" y="101" width="178" height="10">
<path fill-rule="evenodd" clip-rule="evenodd" d="M3 101.899H180.89V110.86H3V101.899Z" fill="white"/>
</mask>
<g mask="url(#mask2_40_3669)">
<path fill-rule="evenodd" clip-rule="evenodd" d="M2.99994 101.899C3.53024 106.913 8.79882 110.86 15.2819 110.86H168.606C175.093 110.86 180.358 106.913 180.891 101.899H2.99994Z" fill="#EFEFEF"/>
</g>
<path fill-rule="evenodd" clip-rule="evenodd" d="M68.4951 104.889H115.396V101.899H68.4951V104.889Z" fill="#CCCCCC"/>
</g>
<path d="M37.8242 33H73.9402V35H37.8242V33Z" fill="#5C5C5C"/>
<path d="M80.3906 33H116.507V35H80.3906V33Z" fill="#5C5C5C"/>
<path d="M122.957 33H146.174V35H122.957V33Z" fill="#5C5C5C"/>
<path d="M37.8242 38H73.9402V40H37.8242V38Z" fill="#5C5C5C"/>
<path d="M80.3906 38H116.507V40H80.3906V38Z" fill="#5C5C5C"/>
<path d="M122.957 38H146.174V40H122.957V38Z" fill="#FCCA2E"/>
<path d="M37.8242 43H73.9402V45H37.8242V43Z" fill="#FCCA2E"/>
<path d="M80.3906 43H116.507V45H80.3906V43Z" fill="#5C5C5C"/>
<path d="M122.957 43H146.174V45H122.957V43Z" fill="#FCCA2E"/>
<path d="M37.8242 48H73.9402V50H37.8242V48Z" fill="#FCCA2E"/>
<path d="M80.3906 48H116.507V50H80.3906V48Z" fill="#5C5C5C"/>
<path d="M122.957 48H146.174V50H122.957V48Z" fill="#5C5C5C"/>
<path d="M37.8242 53H73.9402V55H37.8242V53Z" fill="#5C5C5C"/>
<path d="M80.3906 53H116.507V55H80.3906V53Z" fill="#FCCA2E"/>
<path d="M122.957 53H146.174V55H122.957V53Z" fill="#5C5C5C"/>
<path d="M37.8242 58H73.9402V60H37.8242V58Z" fill="#5C5C5C"/>
<path d="M80.3906 58H116.507V60H80.3906V58Z" fill="#FCCA2E"/>
<path d="M122.957 58H146.174V60H122.957V58Z" fill="#5C5C5C"/>
<path d="M37.8242 63H73.9402V65H37.8242V63Z" fill="#5C5C5C"/>
<path d="M80.3913 52H116.507V54H80.3913V52Z" fill="#5C5C5C"/>
<path d="M122.957 52H146.174V54H122.957V52Z" fill="#5C5C5C"/>
<defs>
<filter id="filter0_d_40_3669" x="0" y="0.369141" width="183.89" height="115.49" filterUnits="userSpaceOnUse" color-interpolation-filters="sRGB">
<feFlood flood-opacity="0" result="BackgroundImageFix"/>
<feColorMatrix in="SourceAlpha" type="matrix" values="0 0 0 0 0 0 0 0 0 0 0 0 0 0 0 0 0 0 127 0" result="hardAlpha"/>
<feOffset dy="2"/>
<feGaussianBlur stdDeviation="1.5"/>
<feColorMatrix type="matrix" values="0 0 0 0 0 0 0 0 0 0 0 0 0 0 0 0 0 0 0.15 0"/>
<feBlend mode="normal" in2="BackgroundImageFix" result="effect1_dropShadow_40_3669"/>
<feBlend mode="normal" in="SourceGraphic" in2="effect1_dropShadow_40_3669" result="shape"/>
</filter>
</defs>
</svg>
