<?xml version="1.0" encoding="UTF-8"?>
<svg width="807px" height="633px" viewBox="0 0 807 633" version="1.1" xmlns="http://www.w3.org/2000/svg" xmlns:xlink="http://www.w3.org/1999/xlink">
    <!-- Generator: Sketch 54.1 (76490) - https://sketchapp.com -->
    <title>images/Lines_BG_Left</title>
    <desc>Created with Sketch.</desc>
    <defs>
        <polygon id="path-1" points="0 0 989 0 989 633 0 633"></polygon>
    </defs>
    <g id="HP" stroke="none" stroke-width="1" fill="none" fill-rule="evenodd">
        <g transform="translate(0.000000, -740.000000)" id="Benefits">
            <g transform="translate(-182.000000, 740.000000)">
                <g id="images/Lines_BG_Left">
                    <g id="Lines_BG">
                        <mask id="mask-2" fill="white">
                            <use xlink:href="#path-1"></use>
                        </mask>
                        <g id="Clip-2"></g>
                        <path d="M670.015579,581.730954 C670.48927,581.734464 670.89208,581.91173 671.225738,582.257487 C671.56804,582.594468 671.74092,583.005163 671.744377,583.486063 L671.744377,588.751391 C671.74092,589.230536 671.56804,589.641231 671.225738,589.979967 C670.89208,590.325724 670.48927,590.501235 670.015579,590.5065 C669.543617,590.501235 669.139078,590.325724 668.807149,589.979967 C668.463118,589.641231 668.290239,589.230536 668.286781,588.751391 L668.286781,583.486063 C668.290239,583.005163 668.463118,582.594468 668.807149,582.257487 C669.139078,581.91173 669.543617,581.734464 670.015579,581.730954 L670.015579,581.730954 Z M472.802924,612.268099 C472.671535,612.747244 472.398385,613.112307 471.981745,613.365043 L467.488598,615.997706 C467.075415,616.241667 466.643216,616.299585 466.191999,616.174972 C465.720037,616.043339 465.360447,615.766032 465.1115,615.33954 C464.869469,614.925335 464.812418,614.486557 464.936892,614.023208 C465.068281,613.547574 465.341431,613.182511 465.7598,612.926265 L470.252946,610.293601 C470.6644,610.053151 471.0966,609.993478 471.549545,610.119846 C472.021507,610.249724 472.381097,610.527031 472.630044,610.951767 C472.870347,611.369483 472.927397,611.808261 472.802924,612.268099 L472.802924,612.268099 Z M457.980208,617.930082 C458.450441,618.05996 458.810031,618.337267 459.060707,618.763758 C459.299281,619.179719 459.356331,619.618497 459.231858,620.08009 C459.100469,620.55748 458.827319,620.922543 458.412407,621.177034 L453.915803,623.809698 C453.506078,624.051903 453.073879,624.109821 452.619205,623.985208 C452.148972,623.853575 451.789381,623.576268 451.538706,623.151532 C451.298403,622.735571 451.241352,622.296793 451.365826,621.8352 C451.497215,621.35781 451.770365,620.990992 452.187005,620.738256 L456.683609,618.105593 C457.093334,617.861632 457.525534,617.803714 457.980208,617.930082 L457.980208,617.930082 Z M886.893314,501.127562 C887.309955,501.382053 887.583105,501.747116 887.716222,502.224506 C887.838967,502.686099 887.781916,503.124877 887.541614,503.540838 C887.292667,503.963819 886.933077,504.242881 886.461115,504.374515 C886.008169,504.499127 885.57597,504.441209 885.164516,504.199004 L880.671369,501.56634 C880.253,501.311849 879.97985,500.946786 879.848461,500.469396 C879.723988,500.007803 879.781038,499.569025 880.02307,499.153065 C880.272017,498.728328 880.631607,498.451021 881.103569,498.319388 C881.554785,498.19302 881.986985,498.252694 882.400168,498.494899 L886.893314,501.127562 Z M750.925064,445.885499 L754.337712,443.911002 L756.02329,444.874557 L750.925064,445.885499 Z M606.611905,611.480055 C606.736378,611.941649 606.679328,612.380426 606.440754,612.796387 C606.190078,613.219368 605.830488,613.498431 605.360255,613.630064 C604.905581,613.754677 604.473382,613.696758 604.063656,613.454553 L599.567052,610.821889 C599.150412,610.567398 598.877262,610.202336 598.745873,609.724946 C598.6214,609.263352 598.67845,608.824575 598.918753,608.408614 C599.169429,607.983878 599.529019,607.70657 599.999252,607.574937 C600.453926,607.448569 600.886125,607.508243 601.29585,607.750448 L605.792455,610.383112 C606.207366,610.637603 606.480516,611.002665 606.611905,611.480055 L606.611905,611.480055 Z M613.483878,615.472929 C613.936823,615.346561 614.369022,615.406235 614.780476,615.64844 L619.275352,618.281103 C619.693721,618.535594 619.965142,618.900657 620.096531,619.378047 C620.221004,619.83964 620.163954,620.278418 619.923651,620.694379 C619.674704,621.11736 619.313385,621.396422 618.843152,621.528056 C618.390207,621.652668 617.958008,621.59475 617.546554,621.352545 L613.051678,618.719881 C612.635038,618.46539 612.361888,618.100327 612.230499,617.622937 C612.106026,617.161344 612.164805,616.722566 612.403379,616.306606 C612.652326,615.881869 613.013645,615.604562 613.483878,615.472929 L613.483878,615.472929 Z M587.811224,599.852457 L592.3061,602.48512 C592.724469,602.739611 592.99589,603.104674 593.127279,603.582064 C593.251752,604.043657 593.194702,604.482435 592.954399,604.898396 C592.705452,605.321377 592.344133,605.600439 591.8739,605.732072 C591.420955,605.856685 590.988755,605.798767 590.577302,605.556562 L586.082426,602.923898 C585.665786,602.669407 585.392636,602.304344 585.262976,601.826954 C585.136774,601.365361 585.195553,600.926583 585.434127,600.510623 C585.684803,600.085886 586.044393,599.808579 586.514626,599.676946 C586.967571,599.550578 587.39977,599.610251 587.811224,599.852457 L587.811224,599.852457 Z M573.03,591.778954 C573.484674,591.652586 573.916873,591.71226 574.326598,591.954465 L578.821474,594.587129 C579.238114,594.84162 579.512993,595.206682 579.644382,595.684072 C579.767126,596.145666 579.710076,596.584443 579.469773,597.000404 C579.220826,597.423385 578.859507,597.702448 578.389274,597.834081 C577.936329,597.958694 577.504129,597.900775 577.092676,597.65857 L572.5978,595.025906 C572.18116,594.771415 571.90801,594.406353 571.776621,593.928963 C571.652148,593.467369 571.709198,593.028592 571.949501,592.612631 C572.198448,592.187895 572.559767,591.910587 573.03,591.778954 L573.03,591.778954 Z M668.286781,599.282046 C668.290239,598.801146 668.463118,598.390451 668.807149,598.05347 C669.139078,597.707713 669.543617,597.530447 670.015579,597.526937 C670.48927,597.530447 670.89208,597.707713 671.225738,598.05347 C671.56804,598.390451 671.74092,598.801146 671.744377,599.282046 L671.744377,604.547374 C671.74092,605.026519 671.56804,605.437214 671.225738,605.77595 C670.89208,606.121707 670.48927,606.297218 670.015579,606.302483 C669.543617,606.297218 669.139078,606.121707 668.807149,605.77595 C668.463118,605.437214 668.290239,605.026519 668.286781,604.547374 L668.286781,599.282046 Z M852.879209,484.673413 C852.754736,484.21182 852.813515,483.773042 853.052089,483.357082 C853.302765,482.932345 853.662355,482.655038 854.132588,482.523405 C854.587262,482.397037 855.019462,482.45671 855.429187,482.698916 L859.925791,485.331579 C860.342431,485.58607 860.615581,485.951133 860.745241,486.428523 C860.869715,486.890116 860.812664,487.328894 860.57409,487.744855 C860.323415,488.167836 859.962096,488.446898 859.493591,488.578531 C859.038917,488.703144 858.606718,488.645226 858.196993,488.403021 L853.700389,485.770357 C853.283748,485.515866 853.010598,485.150803 852.879209,484.673413 L852.879209,484.673413 Z M868.915542,490.596907 L873.408688,493.229571 C873.825329,493.484062 874.098479,493.849124 874.229867,494.326514 C874.354341,494.788108 874.29729,495.226885 874.056987,495.642846 C873.808041,496.065827 873.448451,496.34489 872.976489,496.476523 C872.525272,496.601136 872.093073,496.543217 871.67989,496.301012 L867.186743,493.668348 C866.770103,493.413857 866.495224,493.048795 866.363835,492.571405 C866.239362,492.109811 866.298141,491.671034 866.538444,491.255073 C866.787391,490.830337 867.146981,490.553029 867.618943,490.421396 C868.071888,490.295028 868.504088,490.354702 868.915542,490.596907 L868.915542,490.596907 Z M970.136677,383.535244 L974.629823,386.167908 C975.046464,386.422399 975.319614,386.787462 975.452731,387.264851 C975.575476,387.726445 975.518425,388.165222 975.278123,388.581183 C975.029176,389.004165 974.669586,389.283227 974.197624,389.41486 C973.744678,389.539473 973.312479,389.481554 972.901025,389.239349 L968.407878,386.606685 C967.989509,386.352194 967.716359,385.987132 967.583242,385.509742 C967.460497,385.048148 967.517547,384.609371 967.759579,384.19341 C968.008526,383.768674 968.368116,383.491366 968.840078,383.359733 C969.291294,383.233365 969.723494,383.293039 970.136677,383.535244 L970.136677,383.535244 Z M954.274953,376.295419 C954.5239,375.870682 954.88349,375.593375 955.355452,375.461742 C955.806668,375.335374 956.238868,375.395048 956.652051,375.637253 L961.145197,378.269916 C961.561838,378.524407 961.834988,378.88947 961.964648,379.36686 C962.09085,379.828453 962.033799,380.267231 961.793496,380.683192 C961.54455,381.106173 961.18496,381.385235 960.712998,381.516869 C960.261781,381.641481 959.829582,381.583563 959.416399,381.341358 L954.923252,378.708694 C954.506612,378.454203 954.231733,378.08914 954.100344,377.61175 C953.975871,377.150157 954.03465,376.711379 954.274953,376.295419 L954.274953,376.295419 Z M32.3483605,541.933852 C32.7598145,541.691647 33.1920141,541.631973 33.6449592,541.758341 C34.1151923,541.889974 34.4765111,542.167282 34.7254581,542.592018 C34.965761,543.007979 35.0228114,543.446756 34.8983379,543.90835 C34.768678,544.38574 34.4955279,544.750802 34.0771587,545.005293 L29.5822834,547.637957 C29.1725582,547.880162 28.7403587,547.938081 28.2856847,547.813468 C27.8154516,547.681835 27.4541328,547.402772 27.2051859,546.979791 C26.9648829,546.56383 26.9078326,546.125053 27.032306,545.663459 C27.1636947,545.186069 27.4368448,544.821007 27.8534852,544.566516 L32.3483605,541.933852 Z M21.2425609,550.49001 C21.481135,550.90597 21.5381853,551.344748 21.4137119,551.806341 C21.284052,552.283731 21.0091731,552.648794 20.5942615,552.903285 L16.0976574,555.535949 C15.6879322,555.778154 15.2557327,555.836072 14.8010587,555.711459 C14.3308256,555.579826 13.9712356,555.300764 13.7205599,554.877783 C13.4802569,554.461822 13.4249354,554.023044 13.54768,553.561451 C13.6790687,553.084061 13.9522188,552.718998 14.3688592,552.464507 L18.8654633,549.831844 C19.2751885,549.589638 19.707388,549.529965 20.162062,549.656333 C20.6322951,549.787966 20.9918851,550.065273 21.2425609,550.49001 L21.2425609,550.49001 Z M129.0314,599.896334 C129.162789,599.418945 129.435939,599.052127 129.852579,598.799391 L134.347455,596.166727 C134.758909,595.922767 135.191108,595.864848 135.644053,595.991216 C136.114287,596.121094 136.475605,596.398402 136.724552,596.824893 C136.964855,597.240854 137.021906,597.679631 136.897432,598.141225 C136.767772,598.618615 136.494622,598.983677 136.076253,599.238168 L131.581378,601.870832 C131.171652,602.113037 130.739453,602.170956 130.284779,602.046343 C129.814546,601.91471 129.453227,601.637403 129.20428,601.212666 C128.963977,600.796705 128.906927,600.357928 129.0314,599.896334 L129.0314,599.896334 Z M120.864558,604.064719 C121.274283,603.820759 121.706482,603.76284 122.161156,603.889208 C122.631389,604.019086 122.990979,604.296393 123.241655,604.722885 C123.480229,605.138846 123.53728,605.577623 123.412806,606.039217 C123.281417,606.516606 123.008267,606.881669 122.593356,607.13616 L118.096752,609.768824 C117.687026,610.011029 117.254827,610.068947 116.800153,609.944335 C116.32992,609.812701 115.97033,609.535394 115.719654,609.110658 C115.479351,608.694697 115.422301,608.25592 115.546774,607.794326 C115.678163,607.316936 115.951313,606.950118 116.367953,606.697383 L120.864558,604.064719 Z M0.064782821,561.459442 C0.194442687,560.982052 0.467592803,560.61699 0.884233171,560.362499 L5.37910851,557.729835 C5.79056248,557.48763 6.22276203,557.427956 6.67570716,557.554324 C7.14766907,557.685957 7.5072591,557.963265 7.75620604,558.388001 C7.99650899,558.803962 8.05355933,559.242739 7.92908586,559.704333 C7.799426,560.181723 7.52627588,560.546785 7.10790672,560.801276 L2.61303138,563.43394 C2.2015774,563.676145 1.76937785,563.734064 1.31643272,563.609451 C0.846199611,563.477818 0.486609583,563.198755 0.235933843,562.775774 C-0.00264030905,562.359813 -0.0614194481,561.921036 0.064782821,561.459442 L0.064782821,561.459442 Z M29.2382526,404.507044 L33.7313991,407.139708 C34.1480395,407.395954 34.4229184,407.761017 34.5525782,408.236651 C34.6770517,408.7 34.6200014,409.138778 34.3796984,409.552983 C34.1307515,409.979475 33.7711615,410.256782 33.2991995,410.388415 C32.8462544,410.513028 32.4140549,410.455109 32.0026009,410.211149 L27.5094544,407.578485 C27.0910852,407.32575 26.8179351,406.960687 26.6865464,406.481542 C26.5638017,406.021704 26.6208521,405.582926 26.861155,405.16521 C27.110102,404.742229 27.4714208,404.463167 27.9416539,404.333289 C28.3928702,404.206921 28.8250698,404.266594 29.2382526,404.507044 L29.2382526,404.507044 Z M68.3938031,428.027263 C68.8484771,427.900895 69.2806766,427.960569 69.6904018,428.201019 L74.1870059,430.833683 C74.6019175,431.089929 74.8750676,431.454991 75.0064563,431.930626 C75.1309298,432.393975 75.0738794,432.832752 74.8353053,433.246958 C74.5846295,433.673449 74.2250395,433.950757 73.7548064,434.08239 C73.3001325,434.207003 72.8679329,434.149084 72.4582077,433.905124 L67.9616036,431.27246 C67.5449632,431.019724 67.2718131,430.654662 67.1404244,430.175517 C67.015951,429.715678 67.0730013,429.276901 67.3133043,428.859185 C67.56398,428.436204 67.92357,428.157141 68.3938031,428.027263 L68.3938031,428.027263 Z M56.2057758,420.303027 L60.7006511,422.935691 C61.1190203,423.191937 61.3921704,423.557 61.5218303,424.032634 C61.6463037,424.495983 61.5892534,424.934761 61.3489505,425.348966 C61.1000035,425.775458 60.7404135,426.052765 60.2684516,426.184398 C59.8155064,426.309011 59.3833069,426.251093 58.9718529,426.007132 L54.4769776,423.374469 C54.0603372,423.121733 53.7871871,422.75667 53.6575272,422.277525 C53.531325,421.817687 53.5901041,421.378909 53.8286783,420.961193 C54.079354,420.538212 54.438944,420.25915 54.9091771,420.129272 C55.3621223,420.002904 55.7943218,420.062577 56.2057758,420.303027 L56.2057758,420.303027 Z M47.2160251,415.0377 C47.6326655,415.293946 47.9075444,415.659008 48.0389331,416.134643 C48.1616777,416.597992 48.1046274,417.036769 47.8643244,417.450975 C47.6153775,417.877466 47.2540587,418.154774 46.7838256,418.286407 C46.3308804,418.41102 45.8986809,418.353101 45.4872269,418.109141 L40.9923516,415.476477 C40.5757112,415.223741 40.3025611,414.858679 40.1711724,414.379534 C40.046699,413.919695 40.1037493,413.480918 40.3440522,413.063202 C40.5929992,412.64022 40.954318,412.361158 41.4245511,412.23128 C41.879225,412.104912 42.3114246,412.164586 42.7211498,412.405036 L47.2160251,415.0377 Z M306.278165,619.246414 C306.68789,619.002453 307.12009,618.944535 307.574764,619.069147 C308.044997,619.202536 308.404587,619.479843 308.655263,619.904579 C308.893837,620.318785 308.950887,620.757563 308.826414,621.220911 C308.695025,621.696546 308.421875,622.063364 308.006963,622.317855 L303.510359,624.950519 C303.100634,625.194479 302.668435,625.252397 302.213761,625.126029 C301.743528,624.994396 301.383937,624.717089 301.133262,624.292353 C300.892959,623.876392 300.835908,623.437614 300.960382,622.976021 C301.091771,622.498631 301.364921,622.133568 301.781561,621.879077 L306.278165,619.246414 Z M292.70537,627.05665 C293.116824,626.814445 293.549024,626.754771 294.001969,626.881139 C294.472202,627.012772 294.833521,627.290079 295.082468,627.714816 C295.322771,628.130776 295.379821,628.569554 295.257077,629.031147 C295.125688,629.508537 294.850809,629.8736 294.434169,630.128091 L289.939293,632.760755 C289.529568,633.00296 289.097369,633.060878 288.642695,632.936266 C288.172462,632.804632 287.811143,632.52557 287.562196,632.102589 C287.321893,631.686628 287.264843,631.24785 287.389316,630.786257 C287.520705,630.308867 287.793855,629.943804 288.210495,629.689313 L292.70537,627.05665 Z M143.338934,590.9874 L147.832081,588.354736 C148.243535,588.114286 148.675734,588.054612 149.128679,588.18098 C149.600641,588.310858 149.960231,588.588166 150.209178,589.012902 C150.449481,589.430618 150.506532,589.869395 150.382058,590.329234 C150.252398,590.808379 149.977519,591.173441 149.560879,591.426177 L145.067732,594.058841 C144.65455,594.302801 144.22235,594.36072 143.771134,594.236107 C143.299172,594.104474 142.939582,593.827167 142.690635,593.400675 C142.448603,592.986469 142.391553,592.547692 142.516026,592.084343 C142.647415,591.608709 142.920565,591.243646 143.338934,590.9874 L143.338934,590.9874 Z M253.288771,598.974902 C252.877317,599.217107 252.445118,599.275026 251.992173,599.150413 C251.52194,599.01878 251.16235,598.739717 250.911674,598.316736 C250.6731,597.900775 250.614321,597.461998 250.740523,597.000404 C250.870183,596.523014 251.143333,596.157952 251.559973,595.903461 L256.054849,593.270797 C256.466302,593.028592 256.898502,592.968918 257.351447,593.095286 C257.823409,593.226919 258.182999,593.504226 258.431946,593.928963 C258.672249,594.344924 258.729299,594.783701 258.604826,595.245295 C258.475166,595.722685 258.202016,596.087747 257.783647,596.342238 L253.288771,598.974902 Z M242.483783,601.079278 C242.895237,600.838828 243.327436,600.779154 243.780381,600.905522 C244.252343,601.0354 244.611933,601.312707 244.86088,601.737444 C245.101183,602.15516 245.158233,602.593937 245.03376,603.053776 C244.902371,603.532921 244.629221,603.897983 244.212581,604.150719 L239.719434,606.783383 C239.306251,607.027343 238.874052,607.085262 238.422836,606.960649 C237.950874,606.829016 237.591284,606.551708 237.342337,606.125217 C237.100305,605.711011 237.043255,605.272234 237.167728,604.808885 C237.299117,604.33325 237.572267,603.968188 237.990636,603.711942 L242.483783,601.079278 Z M507.508548,588.532002 C507.845663,588.754901 508.191423,588.97429 508.547555,589.190168 L505.26111,589.848334 L507.508548,588.532002 Z M697.850959,394.943454 L701.393267,392.879446 L716.65164,401.78838 L713.194043,403.848878 L697.850959,394.943454 Z M851.2818,233.297894 C850.868617,233.540099 850.436418,233.598018 849.985201,233.473405 C849.513239,233.341772 849.153649,233.064465 848.904702,232.639728 C848.662671,232.223767 848.60562,231.78499 848.730094,231.323396 C848.861482,230.846007 849.134633,230.479189 849.553002,230.226453 L854.046148,227.593789 C854.457602,227.349829 854.889802,227.29191 855.342747,227.418278 C855.814709,227.548156 856.174299,227.825464 856.423246,228.251955 C856.663549,228.667916 856.720599,229.106693 856.597854,229.568287 C856.464737,230.045677 856.191587,230.41074 855.774946,230.66523 L851.2818,233.297894 Z M869.907872,220.353964 C870.148175,220.769925 870.205225,221.208702 870.08248,221.670296 C869.949363,222.147685 869.676213,222.512748 869.259572,222.767239 L864.764697,225.399903 C864.353243,225.642108 863.921044,225.700026 863.468098,225.575414 C862.996137,225.44378 862.636547,225.166473 862.3876,224.741737 C862.147297,224.325776 862.090246,223.886999 862.216449,223.425405 C862.346108,222.948015 862.619259,222.581197 863.035899,222.328462 L867.530774,219.695798 C867.942228,219.451837 868.374428,219.393919 868.827373,219.520287 C869.297606,219.650165 869.657196,219.927472 869.907872,220.353964 L869.907872,220.353964 Z M876.952724,217.677422 C876.482491,217.545789 876.121173,217.268482 875.872226,216.843745 C875.631923,216.427784 875.574872,215.989007 875.701075,215.527413 C875.830734,215.050024 876.103885,214.683206 876.520525,214.43047 L881.017129,211.797806 C881.426854,211.553846 881.859054,211.495927 882.313728,211.622295 C882.782232,211.752173 883.143551,212.029481 883.394227,212.455972 C883.631072,212.871933 883.69158,213.31071 883.565378,213.772304 C883.433989,214.249694 883.160839,214.614756 882.745927,214.869247 L878.249323,217.501911 C877.839598,217.744116 877.407398,217.802035 876.952724,217.677422 L876.952724,217.677422 Z M897.050004,205.874312 C896.918615,206.351702 896.647194,206.716765 896.230553,206.971256 L891.73222,209.60392 C891.324224,209.846125 890.892024,209.904043 890.435622,209.779431 C889.967117,209.647797 889.607527,209.37049 889.355123,208.945754 C889.118277,208.529793 889.059498,208.091015 889.183972,207.629422 C889.31536,207.152032 889.588511,206.785214 890.003422,206.532478 L894.501755,203.899815 C894.91148,203.655854 895.34368,203.597936 895.798354,203.724304 C896.266858,203.854182 896.628177,204.131489 896.878853,204.557981 C897.117427,204.973941 897.174477,205.412719 897.050004,205.874312 L897.050004,205.874312 Z M809.183835,103.946344 C808.77411,104.188549 808.34191,104.248223 807.887236,104.121855 C807.417003,103.990222 807.057413,103.712915 806.806737,103.288178 C806.568163,102.872217 806.509384,102.43344 806.633857,101.971846 C806.765246,101.494456 807.038396,101.127639 807.455037,100.874903 L811.951641,98.2422391 C812.361366,97.9982789 812.793565,97.9403603 813.248239,98.0667281 C813.716744,98.1983613 814.078063,98.4756686 814.328738,98.900405 C814.567312,99.3163659 814.624363,99.7551432 814.499889,100.216737 C814.370229,100.694127 814.097079,101.059189 813.680439,101.31368 L809.183835,103.946344 Z M799.763613,105.96472 C800.232118,106.096353 800.593436,106.37366 800.844112,106.798397 C801.080958,107.214357 801.141466,107.653135 801.015263,108.114728 C800.883875,108.592118 800.610724,108.957181 800.195813,109.211672 L795.699209,111.844336 C795.289484,112.086541 794.857284,112.146214 794.40261,112.019847 C793.932377,111.888213 793.571058,111.610906 793.322111,111.18617 C793.081808,110.770209 793.024758,110.331431 793.15096,109.869838 C793.28062,109.392448 793.55377,109.02563 793.970411,108.772894 L798.467015,106.140231 C798.87674,105.89627 799.308939,105.838352 799.763613,105.96472 L799.763613,105.96472 Z M786.277259,113.862711 C786.747492,113.994344 787.107082,114.271652 787.357757,114.696388 C787.59806,115.112349 787.655111,115.551126 787.532366,116.01272 C787.399249,116.49011 787.126098,116.855172 786.709458,117.109663 L782.214583,119.742327 C781.803129,119.984532 781.370929,120.044206 780.917984,119.917838 C780.446022,119.786205 780.086432,119.508898 779.837485,119.084161 C779.597182,118.6682 779.540132,118.229423 779.666334,117.767829 C779.795994,117.29044 780.069144,116.923622 780.485785,116.670886 L784.98066,114.038222 C785.392114,113.794262 785.824313,113.736343 786.277259,113.862711 L786.277259,113.862711 Z M767.002887,124.568877 L771.496034,121.936214 C771.907488,121.692253 772.339687,121.634335 772.792633,121.760703 C773.264594,121.892336 773.624184,122.169643 773.873131,122.59438 C774.113434,123.01034 774.170485,123.449118 774.04774,123.910712 C773.914623,124.388101 773.641472,124.753164 773.224832,125.007655 L768.731686,127.640319 C768.318503,127.882524 767.886303,127.942197 767.435087,127.81583 C766.963125,127.684196 766.603535,127.406889 766.354588,126.982153 C766.112556,126.566192 766.055506,126.127414 766.179979,125.665821 C766.311368,125.188431 766.584518,124.821613 767.002887,124.568877 L767.002887,124.568877 Z M130.241559,467.385588 L113.645096,457.732487 L117.145913,455.670233 L133.742375,465.323334 L130.241559,467.385588 Z M93.7206969,506.30338 L97.2215132,508.367388 L48.6872324,536.579014 C48.4711326,536.703627 48.2550328,536.777341 48.0389331,536.798402 C47.919646,536.91775 47.7899861,537.019546 47.6482247,537.107302 L43.1533493,539.739965 C42.7436242,539.982171 42.3114246,540.040089 41.8567507,539.915476 C41.3865176,539.783843 41.0251987,539.504781 40.7762518,539.0818 C40.5359488,538.665839 40.4788985,538.227061 40.603372,537.765468 C40.7347606,537.288078 41.0079108,536.923015 41.4245511,536.668524 L45.9194265,534.03586 C46.1303398,533.911248 46.3464396,533.839288 46.5677258,533.816472 C46.6783689,533.697124 46.8080287,533.593573 46.9584342,533.507573 L93.7206969,506.30338 Z M171.084417,352.206544 L167.5836,354.267043 L149.906639,343.955776 C149.635217,343.796061 149.419118,343.576672 149.258339,343.29761 C149.107934,343.027323 149.037053,342.73422 149.042239,342.420055 L149.042239,240.362209 L152.499836,238.343833 L152.499836,341.368745 L171.084417,352.206544 Z M168.923419,378.445427 L171.775936,380.112781 C171.763834,380.165434 171.750004,380.223353 171.732716,380.288292 C171.603056,380.751641 171.329906,381.100908 170.911537,381.341358 L80.106411,434.124513 L106.557024,449.481718 L101.154529,448.430408 L102.883327,451.456216 L75.7411955,435.660233 C75.3712327,435.447865 75.111913,435.142476 74.9632363,434.740556 C74.8180173,434.331615 74.8180173,433.92092 74.9632363,433.511979 C75.111913,433.110059 75.3712327,432.802915 75.7411955,432.588792 L168.923419,378.445427 Z M163.348045,486.647911 L165.076843,485.638724 L166.805641,488.666287 L163.348045,486.647911 Z M169.744598,486.339012 L165.381111,485.461457 L166.805641,484.629536 L169.744598,486.339012 Z M177.30809,494.765291 L180.765687,492.746916 L215.211991,512.755161 L211.754394,514.773537 L177.30809,494.765291 Z M216.812858,438.689552 L213.355262,436.671176 L245.595619,417.84763 C246.007073,417.603669 246.439273,417.545751 246.892218,417.670364 C247.362451,417.803752 247.72377,418.081059 247.972717,418.505796 C248.21302,418.921756 248.27007,419.360534 248.147326,419.822127 C248.015937,420.297762 247.742787,420.662825 247.324418,420.919071 L216.812858,438.689552 Z M215.81707,354.181042 L212.359474,352.162667 L237.774536,337.374116 L241.232133,339.394247 L215.81707,354.181042 Z M197.535029,563.563818 L152.672716,589.671068 C152.262991,589.915028 151.830791,589.972947 151.376117,589.848334 C150.905884,589.716701 150.546294,589.439393 150.295618,589.012902 C150.055315,588.598696 149.998265,588.159919 150.122738,587.69657 C150.252398,587.220935 150.527277,586.855873 150.943918,586.599627 L194.034213,561.50332 L197.535029,563.563818 Z M377.158892,543.337939 L362.896306,535.001171 L311.549271,564.969661 L311.549271,565.057416 L274.552989,586.64526 L274.552989,586.599627 L264.26664,592.612631 L264.26664,588.488124 L301.262922,566.900281 L301.262922,566.944159 L304.806958,564.88015 L304.720518,564.838027 L301.219702,566.900281 L274.079299,551.058665 L277.578386,548.998167 L304.720518,564.838027 L385.541834,517.71159 C385.571224,517.697549 385.598885,517.681753 385.628274,517.669467 C385.671494,517.637875 385.714714,517.608038 385.757934,517.581711 L385.974034,517.492201 C386.409691,517.278078 386.855721,517.249996 387.315581,517.406201 C387.76334,517.558895 388.095269,517.851998 388.307911,518.283755 C388.520554,518.726043 388.548214,519.177106 388.39608,519.643965 C388.243946,520.100293 387.956965,520.435519 387.531681,520.653153 L366.395394,532.938917 L380.657979,541.275686 L377.158892,543.337939 Z M391.853676,551.894097 L387.747781,549.480822 L393.150275,550.577765 L391.421477,547.548446 L395.352764,549.831844 L391.853676,551.894097 Z M351.527729,592.788142 L355.028546,594.850395 L321.489861,614.419863 L321.446641,614.461986 L316.994985,617.052527 C316.58526,617.296487 316.153061,617.354406 315.698387,617.228038 C315.228154,617.096405 314.866835,616.819097 314.617888,616.394361 C314.379314,615.9784 314.320534,615.539623 314.445008,615.078029 C314.576397,614.600639 314.849547,614.235577 315.266187,613.981086 L319.717842,611.390545 L319.761062,611.348422 L351.527729,592.788142 Z M494.71717,595.991216 L498.216257,598.05347 L480.971495,608.099715 C480.56177,608.343675 480.12957,608.401594 479.674897,608.276981 C479.204663,608.145348 478.843345,607.86804 478.594398,607.441549 C478.354095,607.027343 478.297044,606.588566 478.421518,606.125217 C478.552907,605.649582 478.826057,605.28452 479.242697,605.028274 L481.102884,603.93133 L424.916942,571.200298 L428.41603,569.138045 L484.601971,601.91471 L494.71717,595.991216 Z M508.979755,591.778954 L509.972085,590.023845 C510.314387,590.218662 510.660147,590.408214 511.009364,590.594255 L508.979755,591.778954 Z M577.135895,552.02573 C576.56885,551.657157 575.977601,551.290339 575.363877,550.928787 C574.796831,550.598826 574.221142,550.275886 573.635079,549.961722 L623.165148,521.09193 L626.665964,523.154183 L577.135895,552.02573 Z M697.11622,516.395258 L700.615307,514.334759 L734.155721,533.86035 C734.280195,533.94635 734.396024,534.048146 734.501481,534.165739 L734.845512,534.43076 L734.501481,534.123616 L774.651091,557.420936 L771.150274,559.484944 L732.772683,537.195057 C732.644752,537.107302 732.530651,537.00726 732.426923,536.887913 L732.079435,536.624647 L732.426923,536.931791 L697.11622,516.395258 Z M668.546101,531.313686 L670.103748,532.236874 L671.528278,531.403197 C671.670039,531.650667 671.742649,531.927974 671.744377,532.236874 L671.744377,564.618639 C671.74092,565.097784 671.56804,565.508479 671.225738,565.847215 C671.106451,565.971828 670.976791,566.073624 670.838487,566.154359 C670.976791,566.235094 671.106451,566.336891 671.225738,566.461503 C671.56804,566.798484 671.74092,567.20918 671.744377,567.69008 L671.744377,572.955408 C671.74092,573.434552 671.56804,573.845248 671.225738,574.183984 C670.89208,574.529741 670.48927,574.705252 670.015579,574.710517 C669.543617,574.705252 669.139078,574.529741 668.807149,574.183984 C668.463118,573.845248 668.290239,573.434552 668.286781,572.955408 L668.286781,567.69008 C668.290239,567.20918 668.463118,566.798484 668.807149,566.461503 C668.926436,566.336891 669.054367,566.235094 669.1944,566.154359 C669.054367,566.073624 668.926436,565.971828 668.807149,565.847215 C668.463118,565.508479 668.290239,565.097784 668.286781,564.618639 L668.286781,532.236874 C668.290239,531.898137 668.376678,531.590993 668.546101,531.313686 L668.546101,531.313686 Z M637.600613,516.748035 L639.113311,514.115371 L640.62601,514.992925 L637.600613,516.748035 Z M633.537937,515.036803 L637.126922,512.930672 L638.897211,513.981982 L633.537937,515.036803 Z M699.709417,479.757352 L696.206872,477.696854 L740.291226,452.07226 L743.748823,454.08888 L699.709417,479.757352 Z M638.378572,480.943806 L594.339166,455.275334 L597.881474,453.211325 L641.922608,478.879798 L638.378572,480.943806 Z M832.73871,473.52847 L836.239527,471.466216 L841.944561,474.800924 L841.98951,474.844802 L846.441165,477.433588 C846.856077,477.688079 847.129227,478.053141 847.260615,478.530531 C847.386818,478.992125 847.32631,479.430902 847.089464,479.846863 C846.838789,480.269844 846.47747,480.548907 846.008965,480.68054 C845.554291,480.805153 845.122092,480.747234 844.712367,480.505029 L840.345422,477.916243 L840.260711,477.872365 L840.215763,477.872365 L832.73871,473.52847 Z M757.795308,445.929377 L754.59876,447.772242 L756.197899,444.964067 L757.795308,445.929377 Z M868.611273,377.260729 L872.06887,379.277349 L835.245468,400.691437 L835.115808,400.82307 L790.858574,426.665298 L787.357757,424.6048 L830.752321,399.287349 L760.604605,358.349427 L764.062202,356.331051 L834.251409,397.267219 L868.611273,377.260729 Z M876.823065,376.514807 L880.23917,370.45968 L882.313728,369.231104 C883.541174,369.908576 884.808384,370.536905 886.113626,371.117846 L876.823065,376.514807 Z M951.681756,332.900343 C950.704985,332.143891 949.652147,331.397969 948.526699,330.662579 L955.094403,326.843461 C955.505857,326.603011 955.938057,326.545092 956.391002,326.669705 C956.862964,326.801338 957.222554,327.078646 957.471501,327.501627 C957.711804,327.919343 957.768854,328.35812 957.642652,328.817959 C957.512992,329.297104 957.239842,329.662166 956.823202,329.914902 L951.681756,332.900343 Z M945.802113,369.274982 L947.6623,370.371925 C948.07894,370.626416 948.350362,370.991478 948.48175,371.468868 C948.606224,371.930462 948.549173,372.369239 948.310599,372.7852 C948.059924,373.208181 947.698605,373.487244 947.2301,373.618877 C946.775426,373.74349 946.343227,373.685571 945.933502,373.443366 L941.998757,371.159969 C943.300542,370.577273 944.567751,369.948944 945.802113,369.274982 L945.802113,369.274982 Z M887.239074,326.757461 L827.595536,292.006298 L831.009912,289.944045 L891.431409,325.177862 C890.003422,325.657007 888.606553,326.181785 887.239074,326.757461 L887.239074,326.757461 Z M841.382701,238.914244 L837.883614,236.85199 L846.266556,231.981562 C846.67801,231.737602 847.11021,231.679683 847.563155,231.806051 C848.035117,231.935929 848.394707,232.213237 848.643654,232.639728 C848.883957,233.055689 848.941007,233.494466 848.818262,233.95606 C848.685145,234.43345 848.411995,234.798513 847.995355,235.053003 L841.382701,238.914244 Z M767.174038,256.77248 L740.422615,241.195886 L743.880211,239.17751 L767.087598,252.735729 L767.174038,256.77248 Z M740.593766,144.05059 L737.094678,141.988337 L763.716442,126.323987 C764.127896,126.081782 764.560095,126.023863 765.013041,126.148476 C765.483274,126.278354 765.844593,126.555661 766.093539,126.982153 C766.333842,127.398114 766.390893,127.836891 766.268148,128.298485 C766.138488,128.774119 765.863609,129.139182 765.44524,129.395428 L740.593766,144.05059 Z M710.816946,219.915186 L707.3144,221.933562 L656.963153,192.577605 C656.842137,192.524952 656.726307,192.467033 656.617393,192.403849 L656.489462,192.316094 C656.437598,192.284502 656.394378,192.25642 656.359802,192.228338 L609.334762,164.760879 C609.063341,164.597654 608.847241,164.378265 608.686463,164.102713 C608.536057,163.830671 608.465177,163.539323 608.470363,163.225158 L608.470363,2.01837561 L611.927959,0 L611.927959,162.21597 L657.481792,188.805875 L670.490999,181.169395 L673.993544,183.233403 L660.982608,190.868129 L710.816946,219.915186 Z M988.11272,394.0659 C988.53109,394.32039 988.80424,394.685453 988.937357,395.162843 C989.060102,395.624437 989.003051,396.063214 988.76102,396.479175 C988.512073,396.902156 988.152483,397.181218 987.680521,397.312852 C987.229305,397.437464 986.797105,397.379546 986.383922,397.137341 L981.890776,394.504677 C981.474135,394.250186 981.200985,393.885123 981.071325,393.407734 C980.945123,392.94614 981.002173,392.507363 981.242476,392.091402 C981.491423,391.666665 981.851013,391.389358 982.322975,391.257725 C982.77592,391.131357 983.20812,391.191031 983.619574,391.433236 L988.11272,394.0659 Z" id="Fill-1" fill="#E9E9E9" mask="url(#mask-2)"></path>
                    </g>
                </g>
            </g>
        </g>
    </g>
</svg>