<svg width="262" height="24" viewBox="0 0 262 24" fill="none" xmlns="http://www.w3.org/2000/svg">
<path fill-rule="evenodd" clip-rule="evenodd" d="M9.32381 0.712891C12.3937 0.721135 14.9488 2.42233 16.1151 5.08031C16.43 5.79783 16.635 6.5687 16.724 7.36952C16.7908 7.97079 16.8013 8.36757 16.7625 8.92825C16.5749 11.6463 15.1566 14.0232 12.9248 15.7135C12.9105 15.7243 12.9121 15.745 12.9278 15.7537C12.9921 15.7895 13.0563 15.8252 13.12 15.8614C14.6891 16.7483 15.9599 17.674 16.9357 18.7281C17.0031 18.8009 17.0689 18.8743 17.1332 18.9479C17.1437 18.9601 17.163 18.96 17.1734 18.9479C17.2368 18.8735 17.3018 18.7996 17.3685 18.7263C18.3341 17.6635 19.5957 16.7269 21.156 15.8261C21.7359 15.4915 22.3333 15.1748 23.0175 14.8332C23.1218 14.7812 23.2473 14.8522 23.248 14.9633L23.2648 18.4135C23.2652 18.4751 23.2248 18.5306 23.1637 18.5523C20.7581 19.4074 19.0435 21.5784 18.9529 23.134C18.9484 23.212 18.8797 23.2728 18.7969 23.2731L15.5739 23.2872C15.4791 23.2875 15.3997 23.2186 15.3934 23.1293C15.2857 21.6172 13.8901 20.144 11.3199 18.6912C10.8125 18.4044 10.2798 18.1276 9.66178 17.8256C9.65756 17.8235 9.6532 17.8212 9.64898 17.8191C8.70567 17.3308 7.30281 16.8144 5.52408 15.5234C3.44091 13.8682 2.11254 11.5916 1.90767 8.99326C1.86364 8.43286 1.8699 8.03609 1.93078 7.43418C2.01193 6.63259 2.20961 5.85995 2.51722 5.13969C3.65719 2.47151 6.19563 0.748319 9.26509 0.713328L9.27986 0.71294L9.32381 0.712891ZM4.57963 17.3179C5.31612 17.8711 6.23843 18.3896 7.34669 18.8737C7.51216 18.9459 7.52686 19.148 7.37334 19.2383C5.21181 20.5093 4.03999 21.7745 3.94263 23.078C3.93438 23.1884 3.83001 23.274 3.7045 23.2747L0.592756 23.2872C0.457375 23.2877 0.347547 23.19 0.351675 23.071C0.403136 21.5571 1.10252 20.1744 2.31632 18.9283C2.87367 18.3563 3.52718 17.8224 4.27762 17.3115C4.36711 17.2504 4.49346 17.2531 4.57963 17.3179ZM9.3108 4.01254C7.68628 4.03004 6.38843 4.91115 5.76408 6.37237C5.5832 6.79602 5.46487 7.25884 5.41541 7.74745C5.37284 8.16886 5.36944 8.37957 5.39844 8.7486C5.5735 10.9689 7.03938 12.8577 9.3423 13.9766C9.34406 13.9771 9.34596 13.9781 9.34765 13.9791C9.35531 13.9827 9.36432 13.9828 9.37198 13.979C9.37374 13.978 9.37564 13.9771 9.37733 13.9763C11.6691 12.8375 13.1163 10.9361 13.2695 8.71444C13.2951 8.34491 13.2897 8.13406 13.2427 7.71322C13.1886 7.22517 13.0657 6.7633 12.8804 6.34125C12.2416 4.88562 10.9355 4.0157 9.3108 4.01254Z" fill="#005FF9"/>
<path d="M33.025 16.5183C33.025 16.6413 32.9828 16.7503 32.9003 16.8382C32.8144 16.9295 32.6987 16.9753 32.5627 16.9753H31.4075C31.281 16.9753 31.1693 16.9298 31.0803 16.8419C30.9913 16.7539 30.9453 16.6435 30.9453 16.5183V7.87428C30.9453 7.74326 30.9867 7.62976 31.07 7.54117C31.1558 7.44983 31.2716 7.40402 31.4075 7.40402H32.4955C32.7179 7.40402 32.897 7.51618 33.0216 7.729L35.4908 12.2567L37.9619 7.72533C38.0844 7.51618 38.2635 7.40402 38.4859 7.40402H39.5605C39.695 7.40402 39.8114 7.44877 39.9012 7.5375C39.9909 7.62616 40.0361 7.74122 40.0361 7.87428V16.5183C40.0361 16.6528 39.9899 16.7672 39.8974 16.852C39.8078 16.9343 39.6929 16.9753 39.5605 16.9753H38.4053C38.2788 16.9753 38.1671 16.9298 38.0781 16.8419C37.9891 16.7539 37.9431 16.6435 37.9431 16.5183V11.3683L36.3412 14.376C36.2197 14.6161 36.0247 14.7446 35.7728 14.7446H35.2087C34.9679 14.7446 34.7718 14.6191 34.6282 14.3786L33.025 11.3683V16.5183ZM45.5285 17.1081C44.2779 17.1081 43.2994 16.7918 42.5997 16.1554C41.8964 15.5157 41.5471 14.5536 41.5471 13.2784V7.87428C41.5471 7.74326 41.5886 7.62976 41.6718 7.54117C41.7577 7.44983 41.8734 7.40402 42.0094 7.40402H43.2452C43.3797 7.40402 43.4961 7.44877 43.5858 7.5375C43.6755 7.62616 43.7208 7.74122 43.7208 7.87428V13.2784C43.7208 13.9454 43.878 14.4385 44.1866 14.764C44.4941 15.0882 44.9337 15.2514 45.515 15.2514C46.0964 15.2514 46.536 15.0882 46.8434 14.764C47.1521 14.4385 47.3092 13.9454 47.3092 13.2784V7.87428C47.3092 7.74122 47.3545 7.62616 47.4443 7.5375C47.534 7.44877 47.6504 7.40402 47.785 7.40402H49.0206C49.1566 7.40402 49.2724 7.44983 49.3582 7.54117C49.4414 7.62976 49.4829 7.74326 49.4829 7.87428V13.2784C49.4829 14.5535 49.1361 15.5154 48.4374 16.1551C47.7422 16.7916 46.7702 17.1081 45.5285 17.1081ZM57.2988 15.1053C57.4334 15.1053 57.5498 15.1501 57.6396 15.2387C57.7286 15.3268 57.7746 15.4372 57.7746 15.5623V16.5183C57.7746 16.6435 57.7286 16.7539 57.6396 16.8419C57.5498 16.9305 57.4334 16.9753 57.2988 16.9753H51.4562C51.3297 16.9753 51.2179 16.9298 51.129 16.8419C51.0399 16.7539 50.9939 16.6435 50.9939 16.5183V7.861C50.9939 7.7266 51.0403 7.61211 51.1327 7.52726C51.2216 7.44566 51.3318 7.40402 51.4562 7.40402H52.7187C52.8527 7.40402 52.9669 7.44595 53.0528 7.53079C53.1386 7.61571 53.181 7.72858 53.181 7.861V15.1053H57.2988ZM61.3115 16.5183C61.3115 16.6413 61.2694 16.7503 61.1868 16.8382C61.101 16.9295 60.9852 16.9753 60.8492 16.9753H59.5867C59.4601 16.9753 59.3484 16.9298 59.2594 16.8419C59.1704 16.7539 59.1244 16.6435 59.1244 16.5183V9.34039H56.7795C56.653 9.34039 56.5413 9.29493 56.4522 9.20691C56.3625 9.11825 56.3173 9.00319 56.3173 8.87013V7.87428C56.3173 7.74326 56.3587 7.62976 56.442 7.54117C56.5278 7.44983 56.6436 7.40402 56.7795 7.40402H63.643C63.7775 7.40402 63.894 7.44877 63.9837 7.5375C64.0734 7.62616 64.1187 7.74122 64.1187 7.87428V8.87013C64.1187 9.00319 64.0734 9.11825 63.9837 9.20691C63.894 9.29564 63.7775 9.34039 63.643 9.34039H61.3115V16.5183ZM65.9935 16.9753C65.8669 16.9753 65.7552 16.9298 65.6662 16.8419C65.5772 16.7539 65.5312 16.6435 65.5312 16.5183V7.861C65.5312 7.7266 65.5776 7.61211 65.67 7.52726C65.7589 7.44566 65.8691 7.40402 65.9935 7.40402H67.2829C67.4168 7.40402 67.531 7.44595 67.6169 7.53079C67.7027 7.61571 67.7452 7.72858 67.7452 7.861V16.5183C67.7452 16.6413 67.703 16.7503 67.6204 16.8382C67.5346 16.9295 67.4188 16.9753 67.2829 16.9753H65.9935ZM75.6414 15.1053C75.7764 15.1053 75.8924 15.1501 75.9824 15.2387C76.0717 15.3268 76.1174 15.4372 76.1174 15.5623V16.5183C76.1174 16.6435 76.0717 16.7539 75.9824 16.8419C75.8924 16.9305 75.7764 16.9753 75.6414 16.9753H69.799C69.6725 16.9753 69.5608 16.9298 69.4718 16.8419C69.3828 16.7539 69.3368 16.6435 69.3368 16.5183V7.861C69.3368 7.7266 69.3831 7.61211 69.4755 7.52726C69.5644 7.44566 69.6746 7.40402 69.799 7.40402H71.0613C71.1956 7.40402 71.3095 7.44595 71.3953 7.53079C71.4818 7.61571 71.524 7.72858 71.524 7.861V15.1053H75.6414ZM80.9458 17.1081C79.6863 17.1081 78.6997 16.792 77.9908 16.156C77.2799 15.5177 76.9072 14.5747 76.8706 13.3363C76.8615 13.0778 76.8572 12.7001 76.8572 12.203C76.8572 11.6969 76.8615 11.3149 76.8706 11.0569C76.9079 9.84418 77.289 8.90557 78.0176 8.25002C78.744 7.59665 79.7222 7.27124 80.9458 7.27124C82.161 7.27124 83.1363 7.59665 83.867 8.24973C84.6005 8.90529 84.9844 9.84404 85.021 11.0563C85.0393 11.5711 85.0477 11.9531 85.0477 12.203C85.0477 12.4439 85.0393 12.8215 85.021 13.3356C84.9844 14.5748 84.6096 15.518 83.8937 16.1563C83.1806 16.792 82.1961 17.1081 80.9458 17.1081ZM80.9458 15.2912C81.5098 15.2912 81.9479 15.1278 82.2693 14.8018C82.5913 14.4755 82.7678 13.9634 82.7939 13.2606C82.8114 12.731 82.8206 12.3735 82.8206 12.1897C82.8206 11.9881 82.8114 11.6308 82.7939 11.1192C82.7686 10.4252 82.5871 9.91576 82.2566 9.58477C81.9261 9.25357 81.4915 9.08811 80.9458 9.08811C80.391 9.08811 79.9521 9.25371 79.6216 9.58477C79.2918 9.91533 79.1153 10.4241 79.0977 11.1189C79.0893 11.3738 79.0844 11.7308 79.0844 12.1897C79.0844 12.6397 79.0893 12.9968 79.0977 13.2619C79.1153 13.9555 79.2897 14.4646 79.6153 14.7952C79.9416 15.1257 80.3818 15.2912 80.9458 15.2912ZM90.5807 13.138C90.4541 13.138 90.3423 13.0924 90.2537 13.0045C90.1644 12.9165 90.1187 12.8061 90.1187 12.681V11.9507C90.1187 11.8255 90.1644 11.7151 90.2537 11.6271C90.3423 11.5391 90.4541 11.4937 90.5807 11.4937H93.8043C93.9386 11.4937 94.0553 11.5384 94.1446 11.6271C94.234 11.7151 94.2797 11.8255 94.2797 11.9507V13.3581C94.2797 14.1171 94.1081 14.7813 93.7628 15.3482C93.4175 15.9158 92.9267 16.3523 92.2937 16.656C91.6651 16.9578 90.9323 17.1081 90.0969 17.1081C88.8283 17.1081 87.8339 16.7827 87.1208 16.1284C86.407 15.4735 86.028 14.5624 85.9816 13.4027C85.9725 13.144 85.9682 12.7311 85.9682 12.1631C85.9682 11.5951 85.9725 11.1822 85.9816 10.9238C86.0189 9.79018 86.4007 8.89357 87.1293 8.24303C87.855 7.59418 88.8465 7.27124 90.0969 7.27124C90.9407 7.27124 91.6707 7.4146 92.286 7.70282C92.9013 7.99096 93.3697 8.35032 93.689 8.78183C94.0089 9.21425 94.1798 9.64477 94.1995 10.0785C94.1995 10.1942 94.158 10.2959 94.0778 10.3754C93.9963 10.4558 93.8894 10.4956 93.7642 10.4956H92.3535C92.2354 10.4956 92.1376 10.4699 92.0645 10.4122C92.0005 10.3612 91.9478 10.286 91.9007 10.1805C91.7846 9.87842 91.5821 9.62084 91.2895 9.40604C91.0026 9.19533 90.6067 9.08811 90.0969 9.08811C89.5041 9.08811 89.0484 9.24235 88.7228 9.54806C88.3993 9.85166 88.2256 10.3326 88.2087 10.9994C88.2003 11.2542 88.1953 11.6423 88.1953 12.1631C88.1953 12.6751 88.2003 13.0632 88.2087 13.3281C88.2263 14.0117 88.4014 14.5062 88.7298 14.8187C89.0603 15.1329 89.5181 15.2912 90.1102 15.2912C90.7143 15.2912 91.1911 15.1339 91.549 14.8213C91.9014 14.5135 92.0793 14.047 92.0793 13.4112V13.138H90.5807ZM95.9442 16.9753C95.8176 16.9753 95.7058 16.9298 95.6172 16.8419C95.5279 16.7539 95.4822 16.6435 95.4822 16.5183V7.861C95.4822 7.7266 95.5286 7.61211 95.6207 7.52726C95.7093 7.44566 95.8197 7.40402 95.9442 7.40402H97.2339C97.3675 7.40402 97.4821 7.44595 97.5679 7.53079C97.6537 7.61571 97.6959 7.72858 97.6959 7.861V16.5183C97.6959 16.6413 97.6537 16.7503 97.5715 16.8382C97.4857 16.9295 97.3696 16.9753 97.2339 16.9753H95.9442ZM101.367 16.5183C101.367 16.6413 101.325 16.7503 101.242 16.8382C101.157 16.9295 101.041 16.9753 100.905 16.9753H99.75C99.6235 16.9753 99.5117 16.9298 99.4224 16.8419C99.3337 16.7539 99.2873 16.6435 99.2873 16.5183V7.87428C99.2873 7.74326 99.3288 7.62976 99.4125 7.54117C99.4983 7.44983 99.6136 7.40402 99.75 7.40402H100.798C101.018 7.40402 101.193 7.50566 101.305 7.69315L104.889 13.1934V7.87428C104.889 7.74326 104.93 7.62976 105.013 7.54117C105.099 7.44983 105.215 7.40402 105.351 7.40402H106.506C106.64 7.40402 106.757 7.44877 106.846 7.5375C106.936 7.62616 106.981 7.74122 106.981 7.87428V16.505C106.981 16.6381 106.936 16.7531 106.846 16.8419C106.758 16.9298 106.646 16.9753 106.519 16.9753H105.458C105.23 16.9753 105.05 16.8743 104.938 16.6872L101.367 11.3111V16.5183Z" fill="white"/>
<path d="M192.876 16.6127C191.467 18.1713 189.851 18.9505 188.029 18.9505C187.005 18.9505 186.058 18.7269 185.19 18.2795C184.336 17.8321 183.589 17.2404 182.948 16.5044C182.322 15.7684 181.831 14.9386 181.475 14.015C181.119 13.077 180.941 12.1173 180.941 11.136C180.941 10.1113 181.112 9.13 181.454 8.19196C181.81 7.25392 182.294 6.43133 182.906 5.72419C183.532 5.00262 184.272 4.43258 185.126 4.01407C185.994 3.58113 186.934 3.36466 187.944 3.36466C188.684 3.36466 189.353 3.45125 189.951 3.62443C190.563 3.78317 191.104 4.01407 191.573 4.31713C192.057 4.60576 192.477 4.95933 192.833 5.37784C193.189 5.78192 193.488 6.22929 193.73 6.71996L192.577 7.49925C192.079 6.54678 191.431 5.84686 190.634 5.39949C189.837 4.95211 188.933 4.72843 187.923 4.72843C187.083 4.72843 186.321 4.90882 185.638 5.2696C184.969 5.63039 184.393 6.11384 183.909 6.71996C183.439 7.31164 183.076 7.99713 182.82 8.77643C182.564 9.54129 182.436 10.335 182.436 11.1576C182.436 12.0235 182.578 12.8461 182.863 13.6254C183.162 14.4047 183.567 15.0902 184.08 15.6818C184.592 16.2591 185.19 16.7209 185.873 17.0673C186.571 17.4136 187.325 17.5868 188.136 17.5868C189.004 17.5868 189.83 17.3847 190.613 16.9807C191.396 16.5622 192.15 15.9127 192.876 15.0324V12.4564H189.524V11.2875H194.157V18.8423H192.876V16.6127Z" fill="white"/>
<path d="M201.814 19.0588C201.003 19.0588 200.256 18.9073 199.573 18.6042C198.89 18.2867 198.299 17.861 197.801 17.327C197.303 16.7786 196.911 16.1509 196.626 15.4437C196.356 14.7366 196.221 13.9789 196.221 13.1708C196.221 12.3771 196.356 11.6338 196.626 10.9411C196.911 10.234 197.303 9.62066 197.801 9.10113C198.299 8.56717 198.882 8.14866 199.551 7.8456C200.235 7.52811 200.982 7.36937 201.793 7.36937C202.604 7.36937 203.344 7.52811 204.013 7.8456C204.697 8.14866 205.28 8.56717 205.764 9.10113C206.248 9.63509 206.625 10.2484 206.896 10.9411C207.166 11.6338 207.301 12.3698 207.301 13.1491C207.301 13.2646 207.294 13.38 207.28 13.4955C207.28 13.6109 207.273 13.6903 207.259 13.7336H197.758C197.801 14.3397 197.936 14.9025 198.164 15.4221C198.406 15.9272 198.705 16.3673 199.06 16.7425C199.43 17.1178 199.85 17.4136 200.32 17.6301C200.804 17.8321 201.316 17.9331 201.857 17.9331C202.227 17.9331 202.59 17.8826 202.946 17.7816C203.302 17.6806 203.629 17.5435 203.928 17.3703C204.227 17.1971 204.49 16.9879 204.718 16.7425C204.96 16.4828 205.145 16.2014 205.273 15.8983L206.533 16.2447C206.362 16.6632 206.12 17.0456 205.807 17.392C205.494 17.7239 205.131 18.0197 204.718 18.2795C204.305 18.5248 203.85 18.7124 203.352 18.8423C202.853 18.9866 202.341 19.0588 201.814 19.0588ZM205.914 12.608C205.871 12.0018 205.729 11.4534 205.487 10.9628C205.259 10.4577 204.96 10.0247 204.59 9.66396C204.234 9.30317 203.814 9.02176 203.33 8.81972C202.846 8.61768 202.334 8.51666 201.793 8.51666C201.252 8.51666 200.74 8.61768 200.256 8.81972C199.772 9.02176 199.345 9.30317 198.975 9.66396C198.619 10.0247 198.327 10.4577 198.1 10.9628C197.886 11.4679 197.758 12.0163 197.715 12.608H205.914Z" fill="white"/>
<path d="M214.281 19.0588C213.469 19.0588 212.722 18.9073 212.039 18.6042C211.37 18.2867 210.787 17.861 210.288 17.327C209.804 16.7931 209.427 16.1725 209.157 15.4654C208.886 14.7582 208.751 14.015 208.751 13.2357C208.751 12.442 208.886 11.6916 209.157 10.9844C209.441 10.2773 209.826 9.65674 210.31 9.12278C210.808 8.58882 211.391 8.16309 212.06 7.8456C212.744 7.52811 213.484 7.36937 214.281 7.36937C215.078 7.36937 215.811 7.52811 216.48 7.8456C217.163 8.16309 217.746 8.58882 218.23 9.12278C218.729 9.65674 219.113 10.2773 219.383 10.9844C219.668 11.6916 219.81 12.442 219.81 13.2357C219.81 14.015 219.668 14.7582 219.383 15.4654C219.113 16.1725 218.729 16.7931 218.23 17.327C217.746 17.861 217.163 18.2867 216.48 18.6042C215.811 18.9073 215.078 19.0588 214.281 19.0588ZM210.246 13.2574C210.246 13.8923 210.345 14.484 210.545 15.0324C210.758 15.5664 211.043 16.0426 211.399 16.4611C211.769 16.8652 212.196 17.1827 212.679 17.4136C213.178 17.6445 213.704 17.76 214.259 17.76C214.814 17.76 215.334 17.6445 215.818 17.4136C216.316 17.1683 216.75 16.8436 217.12 16.4395C217.49 16.021 217.782 15.5375 217.996 14.9891C218.209 14.4407 218.316 13.8491 218.316 13.2141C218.316 12.5935 218.209 12.0091 217.996 11.4607C217.782 10.8978 217.49 10.4144 217.12 10.0103C216.75 9.5918 216.323 9.26709 215.839 9.03619C215.355 8.79086 214.836 8.66819 214.281 8.66819C213.726 8.66819 213.199 8.79086 212.701 9.03619C212.217 9.26709 211.79 9.5918 211.42 10.0103C211.064 10.4288 210.779 10.9195 210.566 11.4823C210.352 12.0307 210.246 12.6224 210.246 13.2574Z" fill="white"/>
<path d="M231.273 6.35196C230.846 5.86129 230.27 5.46443 229.544 5.16137C228.832 4.85831 228.028 4.70678 227.131 4.70678C225.779 4.70678 224.797 4.96654 224.185 5.48607C223.573 5.99117 223.267 6.68388 223.267 7.56419C223.267 8.026 223.345 8.40843 223.502 8.71149C223.673 9.00011 223.929 9.25266 224.27 9.46913C224.626 9.6856 225.068 9.87321 225.594 10.032C226.135 10.1907 226.768 10.3494 227.494 10.5082C228.306 10.6814 229.031 10.8762 229.672 11.0927C230.312 11.2947 230.86 11.5617 231.316 11.8936C231.771 12.2111 232.12 12.608 232.362 13.0842C232.604 13.546 232.725 14.1233 232.725 14.816C232.725 15.5231 232.59 16.1364 232.319 16.656C232.049 17.1755 231.672 17.6084 231.188 17.9548C230.704 18.3011 230.127 18.5609 229.458 18.7341C228.789 18.8928 228.064 18.9722 227.281 18.9722C224.904 18.9722 222.876 18.229 221.196 16.7425L221.922 15.5087C222.477 16.1003 223.224 16.6054 224.164 17.024C225.103 17.428 226.149 17.6301 227.302 17.6301C228.512 17.6301 229.458 17.4136 230.142 16.9807C230.825 16.5333 231.166 15.8622 231.166 14.9675C231.166 14.4913 231.067 14.0944 230.867 13.7769C230.682 13.445 230.398 13.1636 230.013 12.9327C229.629 12.6873 229.145 12.4781 228.562 12.3049C227.992 12.1317 227.331 11.9585 226.576 11.7854C225.779 11.5978 225.082 11.4029 224.484 11.2009C223.886 10.9989 223.381 10.7463 222.968 10.4433C222.57 10.1402 222.264 9.77941 222.05 9.3609C221.851 8.92796 221.751 8.40121 221.751 7.78066C221.751 7.07353 221.879 6.44576 222.136 5.89737C222.406 5.33454 222.776 4.87274 223.246 4.51196C223.73 4.13674 224.299 3.85533 224.954 3.66772C225.623 3.46568 226.356 3.36466 227.153 3.36466C228.149 3.36466 229.039 3.52341 229.821 3.8409C230.618 4.14396 231.337 4.5769 231.978 5.13972L231.273 6.35196Z" fill="white"/>
<path d="M238.475 19.0588C237.308 19.0588 236.426 18.6547 235.828 17.8465C235.23 17.024 234.931 15.8045 234.931 14.1882V7.56419H236.383V13.9284C236.383 16.4828 237.244 17.76 238.966 17.76C239.393 17.76 239.813 17.6878 240.226 17.5435C240.639 17.3992 241.016 17.1899 241.358 16.9157C241.713 16.6415 242.027 16.3168 242.297 15.9416C242.582 15.5664 242.809 15.1407 242.98 14.6644V7.56419H244.432V16.9374C244.432 17.3414 244.61 17.5435 244.966 17.5435V18.8423C244.681 18.8856 244.482 18.9073 244.368 18.9073C244.041 18.9073 243.756 18.8062 243.514 18.6042C243.286 18.4022 243.172 18.1496 243.172 17.8465V16.288C242.674 17.1683 242.012 17.8538 241.187 18.3444C240.361 18.8207 239.457 19.0588 238.475 19.0588Z" fill="white"/>
<path d="M253.265 8.86302C252.283 8.89188 251.429 9.16607 250.703 9.6856C249.977 10.2051 249.465 10.9195 249.166 11.8287V18.8423H247.714V7.56419H249.081V10.2701C249.465 9.47635 249.97 8.81972 250.597 8.30019C251.223 7.76623 251.899 7.49925 252.625 7.49925C252.753 7.49925 252.874 7.49925 252.988 7.49925C253.102 7.49925 253.194 7.50647 253.265 7.5209V8.86302Z" fill="white"/>
<path d="M255.797 18.8423V10.0536H254.26V8.88466H255.797V7.26113C255.797 5.87572 256.089 4.79337 256.672 4.01407C257.256 3.22035 258.06 2.82349 259.085 2.82349C259.512 2.82349 259.932 2.88843 260.345 3.01831C260.757 3.14819 261.113 3.32137 261.412 3.53784L260.964 4.59854C260.764 4.4398 260.515 4.31713 260.216 4.23055C259.932 4.14396 259.647 4.10066 259.362 4.10066C258.679 4.10066 258.153 4.36764 257.783 4.9016C257.427 5.43556 257.249 6.20764 257.249 7.21784V8.88466H260.323V10.0536H257.249V18.8423H255.797Z" fill="white"/>
<path d="M159.492 15.8388L159.355 16.2352C155.304 14.7911 153.141 10.2604 154.546 6.08372C155.951 1.90703 160.36 -0.287509 164.411 1.14248C167.497 2.23267 169.591 5.19175 169.647 8.54727H169.219C168.599 4.78116 165.127 2.26098 161.463 2.89811C157.798 3.53523 155.345 7.11728 155.979 10.8834C156.323 13.0071 157.632 14.8336 159.492 15.8388Z" fill="url(#paint0_linear_963_38076)"/>
<path d="M168.931 1.02797L169.073 0.705811C175.074 3.47916 177.671 10.5246 174.876 16.4495C172.081 22.3743 164.929 24.9516 158.928 22.1782C154.359 20.0772 151.606 15.3709 152.046 10.4125L152.429 10.4545C152.741 16.2814 157.778 20.7355 163.681 20.4274C169.583 20.1192 174.095 15.1468 173.783 9.32C173.599 5.94436 171.797 2.87687 168.931 1.02797Z" fill="url(#paint1_linear_963_38076)"/>
<circle cx="130" cy="12" r="9" fill="#8B4CDE"/>
<path d="M126 12H134" stroke="white" stroke-width="1.5" stroke-linecap="round" stroke-linejoin="round"/>
<path d="M130 16V8" stroke="white" stroke-width="1.5" stroke-linecap="round" stroke-linejoin="round"/>
<defs>
<linearGradient id="paint0_linear_963_38076" x1="161.885" y1="0.700783" x2="161.885" y2="16.2275" gradientUnits="userSpaceOnUse">
<stop stop-color="#7A5FFF"/>
<stop offset="0.609375" stop-color="#927FF1"/>
<stop offset="1" stop-color="#01FF89"/>
</linearGradient>
<linearGradient id="paint1_linear_963_38076" x1="164" y1="0.718771" x2="164" y2="23.2986" gradientUnits="userSpaceOnUse">
<stop stop-color="#7A5FFF"/>
<stop offset="1" stop-color="#01FF89"/>
</linearGradient>
</defs>
</svg>
