<svg width="511" height="318" xmlns="http://www.w3.org/2000/svg" xmlns:xlink="http://www.w3.org/1999/xlink"><defs><path id="path-2" d="M.267.4h403.37v294.56H.267z"/><path id="path-4" d="M0 311.95h504.69V.4H0z"/><path id="path-6" d="M.794.273h143.53v129.345H.794z"/><path id="path-8" d="M.955.424H173.18V158.39H.955z"/><path id="path-10" d="M.794 249.506H367.41V.273H.794z"/><path id="path-12" d="M0 .762h504.69v25.496H0z"/><path id="path-14" d="M0 311.95h504.69V.4H0z"/><filter x="-2.1%" y="-3.4%" width="104.2%" height="107%" filterUnits="objectBoundingBox" id="filter-1"><feOffset dy="2" in="SourceAlpha" result="shadowOffsetOuter1"/><feGaussianBlur stdDeviation="1.5" in="shadowOffsetOuter1" result="shadowBlurOuter1"/><feColorMatrix values="0 0 0 0 0 0 0 0 0 0 0 0 0 0 0 0 0 0 0.15 0" in="shadowBlurOuter1" result="shadowMatrixOuter1"/><feMerge><feMergeNode in="shadowMatrixOuter1"/><feMergeNode in="SourceGraphic"/></feMerge></filter></defs><g id="HP" stroke="none" stroke-width="1" fill="none" fill-rule="evenodd"><g transform="translate(-735 -1006)" id="Benefits"><g id="images/Premium-Support" transform="translate(738 1006)"><g id="Group-31" filter="url(#filter-1)"><g id="Group-6" transform="translate(0 .651)"><g id="Group-3" transform="translate(50.395)"><mask id="mask-3" fill="#fff"><use xlink:href="#path-2"/></mask><path d="M403.637 283.615c0 6.277-5.08 11.345-11.324 11.345H11.587c-6.245 0-11.32-5.068-11.32-11.345V11.745C.267 5.468 5.342.398 11.587.398h380.726c6.245 0 11.324 5.07 11.324 11.347v271.87z" id="Fill-1" fill="#FFF" mask="url(#mask-3)"/></g><mask id="mask-5" fill="#fff"><use xlink:href="#path-4"/></mask><path id="Fill-4" fill="#191551" mask="url(#mask-5)" d="M69.287 269.464h366.615V20.229H69.287z"/></g><g id="Group-12" transform="translate(68.243 20.608)"><g id="Group-9"><mask id="mask-7" fill="#fff"><use xlink:href="#path-6"/></mask><path d="M122.128-6.287H2.538c-12.259 0-22.196 9.941-22.196 22.205v69.643c0 12.263 9.937 22.205 22.196 22.205h48.465c3.802 12.524 15.366 21.7 29.143 21.85 2.69.028 5.3-.29 7.794-.912-6.938-4.75-11.815-12.266-13.089-20.938h47.277c12.259 0 22.196-9.942 22.196-22.205V15.918c0-12.264-9.937-22.205-22.196-22.205" id="Fill-7" fill="#1DAFF4" mask="url(#mask-7)"/></g><path d="M52.967 79.605c0-1.94.612-3.51 1.84-4.71 1.226-1.199 2.781-1.797 4.664-1.797 1.939 0 3.523.598 4.75 1.798 1.228 1.198 1.841 2.769 1.841 4.709 0 1.942-.613 3.524-1.84 4.751-1.228 1.227-2.812 1.841-4.751 1.841-1.883 0-3.438-.614-4.665-1.84-1.227-1.228-1.84-2.81-1.84-4.752zm1.284-15.157c0-1.883.27-3.552.813-5.008a18.062 18.062 0 012.054-3.982 27.91 27.91 0 012.696-3.339 52.057 52.057 0 002.695-3.083 17.033 17.033 0 002.055-3.211c.542-1.113.814-2.354.814-3.725 0-2.111-.715-3.852-2.14-5.223-1.427-1.37-3.31-2.055-5.65-2.055-3.88 0-7.93 1.799-12.153 5.395v-10.19c4.564-3.196 9.415-4.795 14.55-4.795 2.51 0 4.807.386 6.89 1.156 2.082.771 3.865 1.841 5.35 3.211a14.52 14.52 0 013.466 4.881c.827 1.884 1.24 3.939 1.24 6.165 0 3.082-.627 5.737-1.882 7.963a39.357 39.357 0 01-4.194 6.08 130.145 130.145 0 00-4.194 5.223c-1.256 1.656-1.883 3.454-1.883 5.394v1.97H54.251v-2.827z" id="Fill-10" fill="#FFF"/></g><g id="Group-17" transform="translate(130.187 189.712)"><path d="M.389 8.61v24.717a7.879 7.879 0 007.877 7.881h17.202c1.349 4.445 5.454 7.702 10.343 7.755.955.01 1.882-.103 2.767-.324a10.935 10.935 0 01-4.646-7.43h16.78a7.88 7.88 0 007.877-7.882V8.61A7.88 7.88 0 0050.71.73H8.266A7.879 7.879 0 00.39 8.61" id="Fill-13" fill="#03E59F"/><path d="M12.87 19.93a3.484 3.484 0 116.968-.001 3.484 3.484 0 01-6.969.001m12.576 0a3.484 3.484 0 116.967 0 3.484 3.484 0 11-6.967 0m12.576 0a3.483 3.483 0 116.967 0 3.484 3.484 0 11-6.967 0" id="Fill-15" fill="#FFF"/></g><g id="Group-24" transform="translate(68.243 20.608)"><g id="Group-20" transform="translate(194.23 48.315)"><mask id="mask-9" fill="#fff"><use xlink:href="#path-8"/></mask><path d="M165.76.424H26.753C12.505.424.955 11.978.955 26.234v80.949c0 14.254 11.55 25.81 25.8 25.81h54.95c-1.479 10.08-7.148 18.817-15.213 24.337a35.854 35.854 0 009.06 1.059c16.013-.172 29.455-10.839 33.874-25.396h56.333c14.249 0 25.8-11.556 25.8-25.81v-80.95c0-14.255-11.551-25.81-25.8-25.81" id="Fill-18" fill="#FC3E54" mask="url(#mask-9)"/></g><mask id="mask-11" fill="#fff"><use xlink:href="#path-10"/></mask><path id="Fill-21" fill="#FFF" mask="url(#mask-11)" d="M236.524 147.026h107.928V81.343H236.524z"/><path id="Fill-23" fill="#EFEFEF" mask="url(#mask-11)" d="M344.451 81.344l-53.963 34.66-53.965-34.66z"/></g><g id="Group-30" transform="translate(0 .651)"><g id="Group-27" transform="translate(0 285.691)"><mask id="mask-13" fill="#fff"><use xlink:href="#path-12"/></mask><path d="M0 .762c1.504 14.265 16.452 25.496 34.845 25.496h434.993c18.403 0 33.34-11.231 34.852-25.496H0z" id="Fill-25" fill="#EFEFEF" mask="url(#mask-13)"/></g><mask id="mask-15" fill="#fff"><use xlink:href="#path-14"/></mask><path id="Fill-28" fill="#CCC" mask="url(#mask-15)" d="M185.815 294.96h133.06v-8.507h-133.06z"/></g></g></g></g></g></svg>