<svg width="366" height="241" viewBox="0 0 366 241" fill="none" xmlns="http://www.w3.org/2000/svg">
<g filter="url(#filter0_d)">
<mask id="mask0" mask-type="alpha" maskUnits="userSpaceOnUse" x="39" y="1" width="288" height="223">
<path fill-rule="evenodd" clip-rule="evenodd" d="M39.1156 1.30066H326.667V223.201H39.1156V1.30066Z" fill="white"/>
</mask>
<g mask="url(#mask0)">
<path fill-rule="evenodd" clip-rule="evenodd" d="M326.667 214.655C326.667 219.384 323.046 223.201 318.594 223.201H47.1853C42.7336 223.201 39.1156 219.384 39.1156 214.655V9.84855C39.1156 5.12006 42.7336 1.29993 47.1853 1.29993H318.594C323.046 1.29993 326.667 5.12006 326.667 9.84855V214.655Z" fill="white"/>
</g>
<mask id="mask1" mask-type="alpha" maskUnits="userSpaceOnUse" x="3" y="1" width="360" height="235">
<path fill-rule="evenodd" clip-rule="evenodd" d="M3 236H362.778V1.30066H3V236Z" fill="white"/>
</mask>
<g mask="url(#mask1)">
<path fill-rule="evenodd" clip-rule="evenodd" d="M52 203.755H313.35V15.9999H52V203.755Z" fill="#191551"/>
<mask id="mask2" mask-type="alpha" maskUnits="userSpaceOnUse" x="52" y="15" width="262" height="189">
<path fill-rule="evenodd" clip-rule="evenodd" d="M52 203.755H313.35V15.9999H52V203.755Z" fill="#191551"/>
</mask>
<g mask="url(#mask2)">
<path opacity="0.4" d="M161.977 118.196C161.977 118.921 161.411 119.484 160.683 119.484C159.955 119.484 159.389 118.921 159.389 118.196C159.389 117.472 159.955 116.909 160.683 116.909C161.411 116.909 161.977 117.472 161.977 118.196Z" fill="#172F78"/>
<path opacity="0.6" d="M85.886 70.3865C85.886 71.4328 85.0774 72.2377 84.0262 72.2377C82.975 72.2377 82.1664 71.4328 82.1664 70.3865C82.1664 69.3402 82.975 68.5353 84.0262 68.5353C85.0774 68.5353 85.886 69.3402 85.886 70.3865Z" fill="#172F78"/>
<path opacity="0.8" d="M84.7538 70.3869C84.7538 70.7893 84.4304 71.1918 83.9452 71.1918C83.46 71.1918 83.1366 70.8698 83.1366 70.3869C83.1366 69.9845 83.46 69.582 83.9452 69.582C84.4304 69.582 84.7538 69.9845 84.7538 70.3869Z" fill="#172F78"/>
<path opacity="0.4" d="M180.575 99.3621C180.575 102.179 178.311 104.433 175.48 104.433C172.65 104.433 170.386 102.179 170.386 99.3621C170.386 96.545 172.65 94.2914 175.48 94.2914C178.311 94.3719 180.575 96.6255 180.575 99.3621Z" fill="#172F78"/>
<path opacity="0.8" d="M175.48 101.455C176.642 101.455 177.583 100.518 177.583 99.3621C177.583 98.2063 176.642 97.2694 175.48 97.2694C174.319 97.2694 173.378 98.2063 173.378 99.3621C173.378 100.518 174.319 101.455 175.48 101.455Z" fill="#172F78"/>
<path d="M186.639 135.903L175.238 99.1206L269.037 112.24L268.956 112.643L175.804 99.684L187.044 135.742L186.639 135.903Z" fill="#172F78"/>
<path d="M288.848 147.896H288.444V156.428H288.848V147.896Z" fill="#172F78"/>
<path d="M288.848 158.359H288.444V161.096H288.848V158.359Z" fill="#03A7D3"/>
<path d="M79.8213 141.538H79.417V150.07H79.8213V141.538Z" fill="#03A7D3"/>
<path d="M79.8213 151.921H79.417V154.336H79.8213V151.921Z" fill="#172F78"/>
<path d="M79.8213 156.428H79.417V158.842H79.8213V156.428Z" fill="#172F78"/>
<path d="M138.365 36.0989H137.961V44.6306H138.365V36.0989Z" fill="#172F78"/>
<path d="M138.365 46.5621H137.961V48.9768H138.365V46.5621Z" fill="#03A7D3"/>
<path d="M138.365 50.9889H137.961V53.4035H138.365V50.9889Z" fill="#03A7D3"/>
<path d="M138.365 55.4966H137.961V62.4185H138.365V55.4966Z" fill="#03A7D3"/>
<path d="M235.884 193.934H235.48V202.547H235.884V193.934Z" fill="#172F78"/>
<path d="M294.994 109.021H294.589V111.757H294.994V109.021Z" fill="#172F78"/>
<path d="M294.994 98.557H294.589V107.089H294.994V98.557Z" fill="#03A7D3"/>
<path d="M294.994 87.4498H294.589V96.062H294.994V87.4498Z" fill="#172F78"/>
<path d="M294.994 74.6522H294.589V83.2644H294.994V74.6522Z" fill="#172F78"/>
<path opacity="0.4" d="M93.7296 67.0865C96.3644 67.0865 98.5004 64.9604 98.5004 62.3378C98.5004 59.7151 96.3644 57.589 93.7296 57.589C91.0947 57.589 88.9587 59.7151 88.9587 62.3378C88.9587 64.9604 91.0947 67.0865 93.7296 67.0865Z" fill="#03A7D3"/>
<path opacity="0.8" d="M93.7295 64.6721C95.0246 64.6721 96.0745 63.627 96.0745 62.3379C96.0745 61.0488 95.0246 60.0038 93.7295 60.0038C92.4344 60.0038 91.3845 61.0488 91.3845 62.3379C91.3845 63.627 92.4344 64.6721 93.7295 64.6721Z" fill="#03A7D3"/>
<path opacity="0.4" d="M128.742 201.098C128.742 202.869 127.287 204.317 125.508 204.317C123.729 204.317 122.274 202.869 122.274 201.098C122.274 199.327 123.729 197.878 125.508 197.878C127.368 197.878 128.742 199.327 128.742 201.098Z" fill="#03A7D3"/>
<path opacity="0.8" d="M125.589 202.627C126.437 202.627 127.125 201.942 127.125 201.098C127.125 200.253 126.437 199.568 125.589 199.568C124.74 199.568 124.052 200.253 124.052 201.098C124.052 201.942 124.74 202.627 125.589 202.627Z" fill="#03A7D3"/>
<path opacity="0.4" d="M242.838 166.167C244.669 166.167 246.153 164.689 246.153 162.867C246.153 161.044 244.669 159.567 242.838 159.567C241.007 159.567 239.523 161.044 239.523 162.867C239.523 164.689 241.007 166.167 242.838 166.167Z" fill="#03A7D3"/>
<path opacity="0.8" d="M242.838 164.476C243.731 164.476 244.455 163.755 244.455 162.866C244.455 161.977 243.731 161.257 242.838 161.257C241.945 161.257 241.221 161.977 241.221 162.866C241.221 163.755 241.945 164.476 242.838 164.476Z" fill="#03A7D3"/>
<path opacity="0.4" d="M158.095 91.9574C158.095 93.4062 156.963 94.533 155.508 94.533C154.052 94.533 152.92 93.4062 152.92 91.9574C152.92 90.5087 154.052 89.3818 155.508 89.3818C156.963 89.3818 158.095 90.5087 158.095 91.9574Z" fill="#03A7D3"/>
<path opacity="0.8" d="M155.508 93.245C156.222 93.245 156.801 92.6685 156.801 91.9572C156.801 91.246 156.222 90.6694 155.508 90.6694C154.793 90.6694 154.214 91.246 154.214 91.9572C154.214 92.6685 154.793 93.245 155.508 93.245Z" fill="#03A7D3"/>
<path opacity="0.4" d="M252.865 197.235C253.624 197.235 254.239 196.622 254.239 195.867C254.239 195.111 253.624 194.498 252.865 194.498C252.106 194.498 251.49 195.111 251.49 195.867C251.49 196.622 252.106 197.235 252.865 197.235Z" fill="#03A7D3"/>
<path opacity="0.4" d="M242.919 119.001C242.919 119.403 242.596 119.806 242.11 119.806C241.706 119.806 241.302 119.484 241.302 119.001C241.302 118.598 241.625 118.196 242.11 118.196C242.596 118.276 242.919 118.598 242.919 119.001Z" fill="#03A7D3"/>
<path opacity="0.4" d="M136.182 181.781C136.182 182.184 135.858 182.586 135.373 182.586C134.969 182.586 134.565 182.264 134.565 181.781C134.565 181.379 134.888 180.976 135.373 180.976C135.778 180.976 136.182 181.379 136.182 181.781Z" fill="#03A7D3"/>
<path d="M183.81 158.212C182.183 158.212 180.637 157.888 179.417 157.16L149.722 140.073C148.501 139.344 147.85 138.372 147.85 137.4C147.85 136.348 148.501 135.376 149.722 134.728L179.254 117.641C181.695 116.265 185.681 116.265 188.122 117.641L217.817 134.728C219.037 135.457 219.688 136.429 219.688 137.4C219.688 138.453 219.037 139.425 217.817 140.073L188.284 157.16C187.064 157.807 185.437 158.212 183.81 158.212ZM183.647 117.075C182.183 117.075 180.637 117.398 179.498 118.046L150.047 135.133C148.989 135.7 148.42 136.51 148.42 137.319C148.42 138.129 148.989 138.939 150.047 139.506L179.742 156.593C182.02 157.888 185.762 157.888 188.04 156.593L217.573 139.506C218.63 138.939 219.2 138.129 219.2 137.319C219.2 136.51 218.63 135.7 217.573 135.133L187.878 118.046C186.657 117.398 185.193 117.075 183.647 117.075Z" fill="#03A7D3"/>
<path d="M219.525 128.007V113.835L201.545 116.184L188.122 108.41C185.762 107.033 181.939 107.033 179.579 108.41L177.464 109.705L148.257 113.593V127.926V128.007C148.257 128.898 148.908 129.707 150.047 130.355L179.742 147.442C182.101 148.819 185.925 148.819 188.284 147.442L217.817 130.355C218.956 129.707 219.525 128.817 219.606 128.007H219.525Z" fill="url(#paint0_linear)"/>
<path d="M217.815 111.325L188.12 94.2384C185.761 92.8618 181.937 92.8618 179.578 94.2384L150.046 111.325C147.687 112.702 147.687 114.888 150.046 116.265L179.741 133.352C182.1 134.728 185.924 134.728 188.283 133.352L217.815 116.265C220.175 114.888 220.175 112.621 217.815 111.325Z" fill="url(#paint1_radial)"/>
<path d="M217.816 115.374L188.284 132.461C185.925 133.838 182.101 133.838 179.742 132.461L150.047 115.374C149.071 114.807 148.501 114.079 148.338 113.35C148.094 114.402 148.664 115.455 150.047 116.265L179.742 133.352C182.101 134.728 185.925 134.728 188.284 133.352L217.816 116.265C219.199 115.455 219.769 114.402 219.525 113.35C219.362 114.079 218.793 114.807 217.816 115.374Z" fill="white"/>
<path d="M192.271 137.077L190.807 137.887V136.268L192.271 135.458V137.077Z" fill="white"/>
<path d="M195.2 135.376L193.817 136.186V134.566L195.2 133.756V135.376Z" fill="white"/>
<path d="M198.129 133.676L196.745 134.486V132.866L198.129 132.056V133.676Z" fill="white"/>
<path d="M195.688 138.373L194.305 139.183V137.563L195.688 136.753V138.373Z" fill="white"/>
<path d="M198.291 136.834L196.908 137.644V136.024L198.291 135.214V136.834Z" fill="white"/>
<path d="M207.566 128.251L206.183 129.06V127.441L207.566 126.631V128.251Z" fill="white"/>
<path d="M215.62 123.634L214.237 124.444V122.825L215.62 122.015V123.634Z" fill="white"/>
<path d="M201.058 131.975L199.675 132.785V131.165L201.058 130.356V131.975Z" fill="white"/>
<path opacity="0.4" d="M182.183 126.063L162.25 114.645C161.437 114.159 161.518 113.35 162.494 112.864L182.02 101.689C182.996 101.122 184.379 101.122 185.193 101.527L205.125 113.026C205.939 113.512 205.857 114.321 204.881 114.807L185.355 125.982C184.461 126.468 182.996 126.549 182.183 126.063Z" fill="#06033E"/>
<path d="M174.372 138.535L157.857 129.06C157.45 128.817 157.125 128.25 157.125 127.683V126.469C157.125 125.983 157.45 125.74 157.857 125.902L174.372 135.376C174.779 135.619 175.105 136.186 175.105 136.753V137.968C175.105 138.535 174.779 138.778 174.372 138.535Z" fill="white"/>
<path d="M219.525 101.445V87.2738L201.545 89.6222L188.122 81.8482C185.762 80.4715 181.939 80.4715 179.579 81.8482L177.464 83.1438L148.257 87.0309V101.364V101.445C148.257 102.336 148.908 103.146 150.047 103.794L179.742 120.88C182.101 122.257 185.925 122.257 188.284 120.88L217.817 103.794C218.956 103.146 219.525 102.255 219.606 101.445H219.525Z" fill="url(#paint2_linear)"/>
<path d="M217.815 84.6828L188.12 67.5961C185.761 66.2194 181.937 66.2194 179.578 67.5961L150.046 84.7638C147.687 86.1404 147.687 88.3269 150.046 89.7036L179.741 106.79C182.1 108.167 185.924 108.167 188.283 106.79L217.815 89.7036C220.175 88.2459 220.175 86.0595 217.815 84.6828Z" fill="url(#paint3_radial)"/>
<path opacity="0.4" d="M203.661 85.7357L186.332 75.7752C184.949 74.9654 182.752 74.9654 181.369 75.7752L164.203 85.7357C162.82 86.5455 162.82 87.8412 164.203 88.57L181.532 98.5305C182.915 99.3403 185.111 99.3403 186.495 98.5305L203.661 88.651C205.044 87.8412 205.044 86.5455 203.661 85.7357Z" fill="#06033E"/>
<path d="M217.816 88.8126L188.284 105.899C185.925 107.276 182.101 107.276 179.742 105.899L150.047 88.8126C149.071 88.2457 148.501 87.5169 148.338 86.7881C148.094 87.8408 148.664 88.8936 150.047 89.7034L179.742 106.79C182.101 108.167 185.925 108.167 188.284 106.79L217.816 89.7034C219.199 88.8936 219.769 87.8408 219.525 86.7881C219.362 87.5169 218.793 88.2457 217.816 88.8126Z" fill="white"/>
<path d="M192.271 110.515L190.807 111.325V109.705L192.271 108.896V110.515Z" fill="white"/>
<path d="M195.2 108.815L193.817 109.624V108.005L195.2 107.195V108.815Z" fill="white"/>
<path d="M198.129 107.114L196.745 107.924V106.304L198.129 105.495V107.114Z" fill="white"/>
<path d="M195.688 111.811L194.305 112.621V111.001L195.688 110.191V111.811Z" fill="white"/>
<path d="M198.292 110.272L196.909 111.082V109.462L198.292 108.653V110.272Z" fill="white"/>
<path d="M207.566 101.689L206.183 102.498V100.879L207.566 100.069V101.689Z" fill="white"/>
<path d="M215.62 97.0727L214.237 97.8825V96.2629L215.62 95.4531V97.0727Z" fill="white"/>
<path d="M201.058 105.414L199.675 106.223V104.604L201.058 103.794V105.414Z" fill="white"/>
<path d="M219.525 74.8842V60.7128L201.545 63.0612L188.122 55.2871C185.762 53.9105 181.939 53.9105 179.579 55.2871L177.464 56.5828L148.257 60.4698V74.8842V74.9652C148.257 75.856 148.908 76.6658 150.047 77.3136L179.742 94.4004C182.101 95.777 185.925 95.777 188.284 94.4004L217.817 77.3136C218.956 76.6658 219.525 75.775 219.606 74.9652V74.8842H219.525Z" fill="url(#paint4_linear)"/>
<path d="M217.815 58.1215L188.12 41.0348C185.761 39.6582 181.937 39.6582 179.578 41.0348L150.046 58.2025C147.687 59.5792 147.687 61.7656 150.046 63.1423L179.741 80.229C182.1 81.6057 185.924 81.6057 188.283 80.229L217.815 63.1423C220.175 61.6846 220.175 59.4982 217.815 58.1215Z" fill="url(#paint5_radial)"/>
<path d="M185.496 71.2733L202.537 61.4469C203.548 60.8688 203.476 59.785 202.248 59.0625L185.785 49.5251C184.558 48.8025 182.752 48.7303 181.669 49.3806L164.7 59.207C163.69 59.785 163.762 60.8688 164.989 61.5914L181.453 71.1288C182.68 71.7791 184.485 71.8513 185.496 71.2733Z" fill="url(#paint6_radial)"/>
<path d="M183.908 63.0365L186.291 61.6636C186.435 61.5914 186.435 61.4469 186.218 61.3024L183.908 60.0018C183.763 59.9296 183.474 59.9296 183.33 60.0018L180.947 61.3746C180.803 61.4469 180.803 61.5914 181.019 61.7359L183.33 63.0365C183.474 63.1087 183.763 63.1087 183.908 63.0365Z" fill="white"/>
<path d="M202.538 61.3749C202.393 61.3749 202.321 61.3026 202.249 61.2304L185.785 51.7652C184.558 51.0427 182.753 50.9704 181.67 51.6207L164.773 61.3749C163.834 60.6523 163.762 59.713 164.701 59.2073L181.742 49.3808C182.753 48.8028 184.63 48.8751 185.858 49.5253L202.321 59.0628C203.476 59.713 203.621 60.7968 202.538 61.3749Z" fill="#FCCA2E"/>
<path d="M217.816 62.1702L188.284 79.2569C185.925 80.6336 182.101 80.6336 179.742 79.2569L150.047 62.2512C149.071 61.6843 148.501 60.9555 148.338 60.2267C148.094 61.2794 148.664 62.3322 150.047 63.142L179.742 80.2287C182.101 81.6053 185.925 81.6053 188.284 80.2287L217.816 63.142C219.199 62.3322 219.769 61.2794 219.525 60.2267C219.362 60.9555 218.793 61.6033 217.816 62.1702Z" fill="white"/>
<path d="M192.271 83.9541L190.807 84.7639V83.1443L192.271 82.3345V83.9541Z" fill="white"/>
<path d="M195.2 82.2531L193.817 83.063V81.4433L195.2 80.6335V82.2531Z" fill="white"/>
<path d="M198.129 80.5527L196.745 81.3625V79.7429L198.129 78.9331V80.5527Z" fill="white"/>
<path d="M195.688 85.1685L194.305 85.9783V84.4397L195.688 83.6299V85.1685Z" fill="white"/>
<path d="M198.291 83.7112L196.908 84.521V82.9014L198.291 82.0916V83.7112Z" fill="white"/>
<path d="M207.566 75.1272L206.183 75.937V74.3174L207.566 73.5076V75.1272Z" fill="white"/>
<path d="M215.62 70.5112L214.237 71.321V69.7014L215.62 68.8916V70.5112Z" fill="white"/>
<path d="M201.058 78.8518L199.675 79.6616V78.042L201.058 77.2322V78.8518Z" fill="white"/>
<path d="M131.335 188.418C129.708 188.418 128.162 188.094 126.942 187.365L97.247 170.278C96.0267 169.55 95.3759 168.578 95.3759 167.606C95.3759 166.553 96.0267 165.582 97.247 164.934L126.779 147.847C129.22 146.47 133.206 146.47 135.647 147.847L165.342 164.934C166.562 165.663 167.213 166.634 167.213 167.606C167.213 168.659 166.562 169.631 165.342 170.278L135.81 187.365C134.508 188.094 132.962 188.418 131.335 188.418ZM131.173 147.28C129.708 147.28 128.162 147.604 127.023 148.252L97.4911 165.339C96.4335 165.906 95.864 166.715 95.864 167.525C95.864 168.335 96.4335 169.145 97.4911 169.712L127.186 186.798C129.464 188.094 133.206 188.094 135.484 186.798L165.017 169.712C166.074 169.145 166.644 168.335 166.644 167.525C166.644 166.715 166.074 165.906 165.017 165.339L135.322 148.252C134.183 147.685 132.718 147.28 131.173 147.28Z" fill="#03A7D3"/>
<path d="M167.05 158.293V144.122L149.07 146.47L135.647 138.696C133.287 137.32 129.464 137.32 127.104 138.696L124.989 139.992L95.7821 143.879V158.293V158.374C95.7821 159.265 96.433 160.075 97.5719 160.723L127.267 177.81C129.626 179.186 133.45 179.186 135.809 177.81L165.341 160.723C166.48 160.075 167.05 159.184 167.131 158.374V158.293H167.05Z" fill="url(#paint7_linear)"/>
<path d="M165.261 141.531L135.566 124.444C133.206 123.068 129.383 123.068 127.023 124.444L97.4912 141.531C95.1318 142.908 95.1318 145.094 97.4912 146.471L127.186 163.557C129.545 164.934 133.369 164.934 135.729 163.557L165.261 146.471C167.62 145.094 167.62 142.908 165.261 141.531Z" fill="url(#paint8_radial)"/>
<path d="M165.261 145.579L135.729 162.666C133.369 164.043 129.545 164.043 127.186 162.666L97.4912 145.579C96.5149 145.012 95.9454 144.284 95.7827 143.555C95.5386 144.608 96.1081 145.66 97.4912 146.47L127.186 163.557C129.545 164.933 133.369 164.933 135.729 163.557L165.261 146.47C166.644 145.66 167.213 144.608 166.969 143.555C166.807 144.284 166.237 145.012 165.261 145.579Z" fill="white"/>
<path d="M139.715 167.283L138.332 168.092V166.473L139.715 165.663V167.283Z" fill="white"/>
<path d="M142.725 165.582L141.261 166.392V164.772L142.725 164.043V165.582Z" fill="white"/>
<path d="M145.654 163.962L144.189 164.772V163.153L145.654 162.343V163.962Z" fill="white"/>
<path d="M143.213 168.578L141.83 169.388V167.769L143.213 166.959V168.578Z" fill="white"/>
<path d="M145.817 167.121L144.434 167.93V166.311L145.817 165.501V167.121Z" fill="white"/>
<path d="M155.091 158.537L153.627 159.347V157.727L155.091 156.917V158.537Z" fill="white"/>
<path d="M163.146 153.84L161.763 154.65V153.03L163.146 152.22V153.84Z" fill="white"/>
<path d="M148.583 162.262L147.2 163.071V161.452L148.583 160.642V162.262Z" fill="white"/>
<path opacity="0.4" d="M129.708 156.35L109.776 144.851C108.962 144.365 109.044 143.555 110.02 143.07L129.545 131.894C130.522 131.327 131.905 131.327 132.718 131.732L152.651 143.232C153.464 143.717 153.383 144.527 152.406 145.013L132.881 156.188C131.986 156.755 130.522 156.755 129.708 156.35Z" fill="#06033E"/>
<path d="M121.898 168.74L105.383 159.265C104.976 159.022 104.65 158.456 104.65 157.889V156.674C104.65 156.188 104.976 155.945 105.383 156.107L121.898 165.582C122.305 165.825 122.63 166.392 122.63 166.958V168.173C122.549 168.74 122.223 168.983 121.898 168.74Z" fill="#FCCA2E"/>
<path d="M167.05 131.651V117.48L149.07 119.828L135.647 112.054C133.287 110.678 129.464 110.678 127.104 112.054L124.989 113.35L95.7821 117.237V131.57V131.651C95.7821 132.542 96.433 133.352 97.5719 134L127.267 151.086C129.626 152.463 133.45 152.463 135.809 151.086L165.341 134C166.48 133.352 167.05 132.461 167.131 131.651H167.05Z" fill="url(#paint9_linear)"/>
<path d="M165.261 114.969L135.566 97.8826C133.206 96.5059 129.383 96.5059 127.023 97.8826L97.4912 114.969C95.1318 116.346 95.1318 118.532 97.4912 119.909L127.186 136.996C129.545 138.372 133.369 138.372 135.729 136.996L165.261 119.909C167.62 118.532 167.62 116.346 165.261 114.969Z" fill="url(#paint10_radial)"/>
<path opacity="0.4" d="M151.105 116.022L133.776 106.062C132.393 105.252 130.196 105.252 128.813 106.062L111.647 116.022C110.264 116.832 110.264 118.128 111.647 118.857L128.976 128.817C130.359 129.627 132.556 129.627 133.939 128.817L151.105 118.857C152.488 118.047 152.488 116.751 151.105 116.022Z" fill="#06033E"/>
<path d="M165.261 119.018L135.729 136.105C133.369 137.482 129.545 137.482 127.186 136.105L97.4912 119.018C96.5149 118.452 95.9454 117.723 95.7827 116.994C95.5386 118.047 96.1081 119.099 97.4912 119.909L127.186 136.996C129.545 138.373 133.369 138.373 135.729 136.996L165.261 119.909C166.644 119.099 167.213 118.047 166.969 116.994C166.807 117.723 166.237 118.452 165.261 119.018Z" fill="white"/>
<path d="M139.715 140.721L138.332 141.531V139.911L139.715 139.102V140.721Z" fill="white"/>
<path d="M142.725 139.021L141.261 139.831V138.211L142.725 137.401V139.021Z" fill="white"/>
<path d="M145.654 137.32L144.19 138.13V136.591L145.654 135.781V137.32Z" fill="white"/>
<path d="M143.213 142.017L141.83 142.827V141.207L143.213 140.397V142.017Z" fill="white"/>
<path d="M145.817 140.559L144.434 141.369V139.749L145.817 138.939V140.559Z" fill="white"/>
<path d="M155.091 131.975L153.627 132.785V131.166L155.091 130.356V131.975Z" fill="white"/>
<path d="M163.146 127.279L161.763 128.088V126.469L163.146 125.659V127.279Z" fill="white"/>
<path d="M148.583 135.701L147.2 136.51V134.891L148.583 134.081V135.701Z" fill="white"/>
<path d="M167.05 105.09V90.9188L149.07 93.2672L135.647 85.4932C133.287 84.1165 129.464 84.1165 127.104 85.4932L124.989 86.7889L95.7822 90.6759V105.009V105.09C95.7822 105.981 96.4331 106.791 97.5721 107.439L127.267 124.525C129.626 125.902 133.45 125.902 135.809 124.525L165.342 107.439C166.481 106.791 167.05 105.9 167.131 105.09H167.05Z" fill="url(#paint11_linear)"/>
<path d="M165.261 88.408L135.566 71.3213C133.206 69.9447 129.383 69.9447 127.023 71.3213L97.4912 88.408C95.1318 89.7847 95.1318 91.9712 97.4912 93.3478L127.186 110.435C129.545 111.811 133.369 111.811 135.729 110.435L165.261 93.3478C167.62 91.9712 167.62 89.7037 165.261 88.408Z" fill="url(#paint12_radial)"/>
<path d="M165.261 88.408L135.566 71.3213C133.206 69.9447 129.383 69.9447 127.023 71.3213L97.4912 88.408C95.1318 89.7847 95.1318 91.9712 97.4912 93.3478L127.186 110.435C129.545 111.811 133.369 111.811 135.729 110.435L165.261 93.3478C167.62 91.9712 167.62 89.7037 165.261 88.408Z" fill="url(#paint13_radial)"/>
<g clip-path="url(#clip0)">
<path opacity="0.5" d="M129.044 87.2171C127.203 86.2256 124.222 86.2256 122.381 87.2171C120.54 88.2086 120.54 89.8175 122.381 90.8183C124.222 91.8098 127.203 91.8098 129.044 90.8183C130.885 89.8268 130.885 88.218 129.044 87.2171ZM125.602 89.0505C125.132 89.303 124.362 89.303 123.891 89.0505C123.421 88.7979 123.421 88.377 123.891 88.1244C124.362 87.8719 125.132 87.8719 125.602 88.1244C126.073 88.3864 126.073 88.7979 125.602 89.0505Z" fill="#2C2C2C"/>
<path opacity="0.5" d="M130.045 90.0233C129.794 90.2478 129.494 90.4723 129.134 90.6594C128.774 90.8558 128.374 91.0148 127.943 91.1551L128.844 91.6415L130.205 91.707L130.875 92.0718L130.605 92.2121L131.115 92.4833L131.665 92.184L132.556 92.6611L131.665 93.1475L132.326 93.5029L132.966 93.849L133.756 93.4187L134.927 94.0548L134.477 94.298L135.227 94.7095L135.677 94.4663L136.028 94.6534L135.667 95.3175L136.808 95.9349H141L130.045 90.0233Z" fill="#2C2C2C"/>
<path d="M130.425 88.667V87.4791L130.045 87.6755C129.814 87.3855 129.484 87.1143 129.044 86.8711C127.203 85.8796 124.222 85.8796 122.381 86.8711C121.87 87.1517 121.5 87.4697 121.27 87.8158L121 87.4791V88.667C121 89.3217 121.46 89.9672 122.381 90.4723C124.222 91.4638 127.203 91.4638 129.044 90.4723C129.964 89.9765 130.425 89.3217 130.425 88.667ZM125.582 87.8906C125.112 88.1432 124.342 88.1432 123.871 87.8906C123.401 87.6381 123.401 87.2172 123.871 86.9646C124.342 86.7121 125.112 86.7121 125.582 86.9646C126.053 87.2172 126.053 87.6381 125.582 87.8906Z" fill="#E8A200"/>
<path d="M125.322 89.6117L123.281 88.6763L121.48 87.5538C121.4 87.638 121.34 87.7222 121.28 87.8157L121 87.479V88.6669C121 89.3217 121.46 89.9671 122.381 90.4722C123.201 90.9118 124.252 91.155 125.322 91.2111V89.6117Z" fill="#FDD762"/>
<path d="M129.044 85.682C127.203 84.6812 124.222 84.6812 122.381 85.682C120.54 86.6829 120.54 88.2824 122.381 89.2832C124.222 90.2747 127.203 90.2747 129.044 89.2832C130.885 88.2824 130.885 86.6735 129.044 85.682ZM125.602 87.5154C125.132 87.7679 124.362 87.7679 123.891 87.5154C123.421 87.2628 123.421 86.8419 123.891 86.5893C124.362 86.3368 125.132 86.3368 125.602 86.5893C126.073 86.8419 126.073 87.2535 125.602 87.5154Z" fill="#FDD762"/>
<path d="M126.523 86.3098H123.961C123.731 86.3566 123.501 86.4221 123.281 86.4969V88.5267H126.523V86.3098ZM125.582 87.8906C125.112 88.1431 124.342 88.1431 123.871 87.8906C123.401 87.638 123.401 87.2171 123.871 86.9646C124.342 86.712 125.112 86.712 125.582 86.9646C126.053 87.2171 126.053 87.638 125.582 87.8906Z" fill="#E8A200"/>
<path d="M128.654 85.8888C127.033 85.0096 124.402 85.0096 122.781 85.8888C121.16 86.7681 121.16 88.1805 122.781 89.0597C124.402 89.939 127.033 89.939 128.654 89.0597C130.275 88.1898 130.275 86.7681 128.654 85.8888ZM125.602 87.5164C125.132 87.7689 124.362 87.7689 123.891 87.5164C123.421 87.2638 123.421 86.8429 123.891 86.5903C124.362 86.3378 125.132 86.3378 125.602 86.5903C126.073 86.8429 126.073 87.2545 125.602 87.5164Z" fill="#F2B42A"/>
<path d="M122.771 86.2256C124.392 85.3463 127.023 85.3463 128.644 86.2256C129.374 86.6184 129.774 87.1329 129.844 87.6474C129.924 87.0207 129.524 86.3752 128.644 85.8982C127.023 85.019 124.392 85.019 122.771 85.8982C121.88 86.3752 121.48 87.0207 121.57 87.6474C121.64 87.1235 122.041 86.6184 122.771 86.2256Z" fill="#E8A200"/>
<path d="M130.045 89.6678C129.794 89.8923 129.494 90.1168 129.134 90.3039C128.774 90.5003 128.374 90.6593 127.943 90.7996L128.844 91.286L130.205 91.3515L130.875 91.7163L130.605 91.8566L131.105 92.1372L131.655 91.8379L132.546 92.315L131.655 92.8014L132.316 93.1568L132.956 93.5029L133.746 93.0726L134.917 93.7087L134.467 93.9519L135.217 94.3634L135.667 94.1202L136.018 94.3073L135.657 94.9714L136.798 95.5888H140.99L130.045 89.6678Z" fill="#F2B42A"/>
<path d="M130.045 88.8073C129.794 89.0317 129.494 89.2562 129.134 89.4433C128.774 89.6397 128.374 89.7987 127.943 89.9391L128.844 90.4254L130.205 90.4909L130.875 90.8557L130.605 90.996L131.115 91.2673L131.665 90.968L132.556 91.445L131.665 91.9314L132.326 92.2868L132.966 92.6329L133.756 92.2027L134.927 92.8387L134.477 93.0819L135.227 93.4935L135.677 93.2503L136.028 93.4374L135.667 94.1015L136.808 94.7188H141L130.045 88.8073Z" fill="#FDD762"/>
<path d="M141 94.7189H136.808V95.5794H141V94.7189Z" fill="#E8A200"/>
<path d="M135.217 94.354V93.4934L135.667 93.2502V94.1108L135.217 94.354Z" fill="#E8A200"/>
<path d="M134.467 93.0819V93.9425L135.217 94.354V93.4935L134.467 93.0819Z" fill="#EEAD00"/>
<path d="M133.736 92.212V93.0726L132.946 93.4935V92.633L133.736 92.212Z" fill="#E8A200"/>
<path d="M131.655 91.9408V92.8013L132.946 93.4935V92.633L131.655 91.9408Z" fill="#EEAD00"/>
<path d="M135.667 94.1108V94.962L136.808 95.5794V94.7188L135.667 94.1108Z" fill="#EEAD00"/>
<path d="M131.105 91.2766V92.1371L130.605 91.8565V90.996L131.105 91.2766Z" fill="#EEAD00"/>
<path d="M128.844 90.4254V91.286L130.205 91.3514V90.4909L128.844 90.4254Z" fill="#E8A200"/>
<path d="M138.139 94.1108L130.115 89.7707L130.565 89.5369L139.029 94.1108H138.139Z" fill="#E8A200"/>
<path d="M130.565 89.7426L138.649 94.1108H139.029L130.565 89.5369L130.115 89.7707L130.305 89.883L130.565 89.7426Z" fill="#F2B42A"/>
<path d="M128.844 91.286V90.4255L127.943 89.9391V90.7996L128.844 91.286Z" fill="#E8A200"/>
<path d="M131.655 90.9773V91.8378L131.105 92.1372V91.2766L131.655 90.9773Z" fill="#E8A200"/>
<path d="M128.654 85.8889C127.743 85.4025 126.513 85.1873 125.322 85.2434V85.5708C126.513 85.5054 127.743 85.7298 128.654 86.2162C129.384 86.6091 129.784 87.1236 129.854 87.638C129.944 87.0207 129.544 86.3753 128.654 85.8889Z" fill="#FDD762"/>
</g>
<path d="M131.417 104.847C130.359 104.847 129.22 104.604 128.406 104.118L108.718 92.7809C107.823 92.295 107.335 91.5662 107.335 90.8374C107.335 90.1086 107.823 89.3797 108.718 88.8939L128.244 77.5567C129.952 76.5849 132.637 76.5849 134.264 77.5567L153.952 88.8939C154.847 89.3797 155.335 90.1086 155.335 90.8374C155.335 91.5662 154.847 92.295 153.952 92.7809L134.427 104.118C133.613 104.604 132.556 104.847 131.417 104.847ZM131.335 77.6377C130.359 77.6377 129.383 77.8806 128.732 78.2855L109.206 89.6227C108.556 89.9466 108.23 90.4325 108.23 90.9184C108.23 91.4042 108.556 91.8901 109.206 92.214L128.895 103.551C130.359 104.361 132.718 104.361 134.183 103.551L153.708 92.214C154.359 91.8901 154.684 91.4042 154.684 90.9184C154.684 90.4325 154.359 89.9466 153.708 89.6227L134.02 78.2855C133.288 77.7996 132.312 77.6377 131.335 77.6377Z" fill="white"/>
<path d="M165.261 92.4571L135.729 109.544C133.369 110.92 129.545 110.92 127.186 109.544L97.4912 92.4571C96.5149 91.8903 95.9454 91.1614 95.7827 90.4326C95.5386 91.4854 96.1081 92.5381 97.4912 93.3479L127.186 110.435C129.545 111.811 133.369 111.811 135.729 110.435L165.261 93.3479C166.644 92.5381 167.213 91.4854 166.969 90.4326C166.807 91.1614 166.237 91.8903 165.261 92.4571Z" fill="white"/>
<path d="M139.715 114.16L138.332 114.97V113.35L139.715 112.54V114.16Z" fill="white"/>
<path d="M142.725 112.459L141.261 113.269V111.649L142.725 110.839V112.459Z" fill="white"/>
<path d="M145.654 110.759L144.19 111.568V109.949L145.654 109.139V110.759Z" fill="white"/>
<path d="M143.213 115.455L141.83 116.265V114.645L143.213 113.836V115.455Z" fill="white"/>
<path d="M145.817 113.917L144.434 114.726V113.107L145.817 112.378V113.917Z" fill="white"/>
<path d="M155.091 105.333L153.627 106.143V104.523L155.091 103.795V105.333Z" fill="white"/>
<path d="M163.146 100.717L161.763 101.527V99.9075L163.146 99.0977V100.717Z" fill="white"/>
<path d="M148.583 109.058L147.2 109.868V108.329L148.583 107.519V109.058Z" fill="white"/>
<path d="M236.122 188.338C234.495 188.338 232.949 188.014 231.729 187.285L202.034 170.198C200.814 169.47 200.163 168.498 200.163 167.526C200.163 166.473 200.814 165.502 202.034 164.854L231.566 147.767C234.007 146.39 237.993 146.39 240.434 147.767L270.129 164.854C271.349 165.583 272 166.554 272 167.526C272 168.579 271.349 169.551 270.129 170.198L240.597 187.285C239.376 188.014 237.749 188.338 236.122 188.338ZM235.959 147.281C234.495 147.281 232.949 147.605 231.81 148.253L202.278 165.34C201.22 165.906 200.651 166.716 200.651 167.526C200.651 168.336 201.22 169.146 202.278 169.712L231.973 186.799C234.251 188.095 237.993 188.095 240.271 186.799L269.803 169.712C270.861 169.146 271.431 168.336 271.431 167.526C271.431 166.716 270.861 165.906 269.803 165.34L240.109 148.253C238.97 147.605 237.505 147.281 235.959 147.281Z" fill="#03A7D3"/>
<path d="M271.837 158.213V144.042L253.857 146.39L240.433 138.616C238.074 137.239 234.25 137.239 231.891 138.616L229.776 139.912L200.569 143.799V158.132V158.213C200.569 159.104 201.22 159.914 202.359 160.562L232.054 177.648C234.413 179.025 238.237 179.025 240.596 177.648L270.128 160.562C271.267 159.914 271.837 159.023 271.918 158.213H271.837Z" fill="url(#paint14_linear)"/>
<path d="M270.047 141.531L240.353 124.445C237.993 123.068 234.169 123.068 231.81 124.445L202.278 141.531C199.919 142.908 199.919 145.094 202.278 146.471L231.973 163.558C234.332 164.935 238.156 164.935 240.515 163.558L270.047 146.471C272.407 145.094 272.407 142.827 270.047 141.531Z" fill="url(#paint15_radial)"/>
<path d="M270.047 145.58L240.515 162.667C238.156 164.044 234.332 164.044 231.973 162.667L202.278 145.58C201.301 145.013 200.732 144.284 200.569 143.556C200.325 144.608 200.895 145.661 202.278 146.471L231.973 163.558C234.332 164.934 238.156 164.934 240.515 163.558L270.047 146.471C271.43 145.661 272 144.608 271.756 143.556C271.674 144.284 271.105 145.013 270.047 145.58Z" fill="white"/>
<path d="M244.583 167.283L243.119 168.093V166.473L244.583 165.664V167.283Z" fill="white"/>
<path d="M247.512 165.582L246.047 166.392V164.773L247.512 163.963V165.582Z" fill="white"/>
<path d="M250.441 163.882L249.057 164.692V163.072L250.441 162.262V163.882Z" fill="white"/>
<path d="M248 168.579L246.617 169.389V167.769L248 166.959V168.579Z" fill="white"/>
<path d="M250.603 167.04L249.22 167.85V166.23L250.603 165.42V167.04Z" fill="white"/>
<path d="M259.878 158.456L258.414 159.266V157.647L259.878 156.837V158.456Z" fill="white"/>
<path d="M267.932 153.84L266.549 154.65V153.03L267.932 152.221V153.84Z" fill="white"/>
<path d="M253.369 162.181L251.986 162.991V161.372L253.369 160.562V162.181Z" fill="white"/>
<path opacity="0.4" d="M234.495 156.27L214.563 144.771C213.749 144.285 213.831 143.475 214.807 142.989L234.332 131.814C235.309 131.247 236.692 131.247 237.505 131.652L257.437 143.151C258.251 143.637 258.17 144.447 257.193 144.933L237.668 156.108C236.773 156.675 235.309 156.756 234.495 156.27Z" fill="#06033E"/>
<path d="M226.685 168.741L210.169 159.266C209.763 159.023 209.437 158.456 209.437 157.89V156.675C209.437 156.189 209.763 155.946 210.169 156.108L226.685 165.583C227.092 165.826 227.417 166.392 227.417 166.959V168.174C227.417 168.741 227.092 168.903 226.685 168.741Z" fill="#FCCA2E"/>
<path d="M271.837 131.652V117.48L253.857 119.829L240.433 112.054C238.074 110.678 234.25 110.678 231.891 112.054L229.776 113.35L200.569 117.237V131.571V131.652C200.569 132.542 201.22 133.352 202.359 134L232.054 151.087C234.413 152.463 238.237 152.463 240.596 151.087L270.128 134C271.267 133.352 271.837 132.461 271.918 131.652H271.837Z" fill="url(#paint16_linear)"/>
<path d="M270.047 114.889L240.353 97.802C237.993 96.4254 234.169 96.4254 231.81 97.802L202.278 114.889C199.919 116.265 199.919 118.452 202.278 119.829L231.973 136.915C234.332 138.292 238.156 138.292 240.515 136.915L270.047 119.829C272.407 118.452 272.407 116.265 270.047 114.889Z" fill="url(#paint17_radial)"/>
<path opacity="0.4" d="M255.973 115.942L238.644 105.981C237.261 105.172 235.064 105.172 233.681 105.981L216.515 115.942C215.132 116.752 215.132 118.047 216.515 118.776L233.844 128.737C235.227 129.546 237.424 129.546 238.807 128.737L255.973 118.776C257.356 118.047 257.356 116.752 255.973 115.942Z" fill="#06033E"/>
<path d="M270.047 119.019L240.515 136.105C238.156 137.482 234.332 137.482 231.973 136.105L202.278 119.019C201.301 118.452 200.732 117.723 200.569 116.994C200.325 118.047 200.895 119.1 202.278 119.909L231.973 136.996C234.332 138.373 238.156 138.373 240.515 136.996L270.047 119.909C271.43 119.1 272 118.047 271.756 116.994C271.674 117.723 271.105 118.452 270.047 119.019Z" fill="white"/>
<path d="M244.583 140.722L243.119 141.531V139.912L244.583 139.102V140.722Z" fill="white"/>
<path d="M247.512 139.021L246.047 139.831V138.211L247.512 137.401V139.021Z" fill="white"/>
<path d="M250.441 137.32L249.057 138.13V136.51L250.441 135.701V137.32Z" fill="white"/>
<path d="M248 142.017L246.617 142.827V141.207L248 140.397V142.017Z" fill="white"/>
<path d="M250.603 140.478L249.22 141.288V139.669L250.603 138.859V140.478Z" fill="white"/>
<path d="M259.878 131.895L258.414 132.705V131.085L259.878 130.275V131.895Z" fill="white"/>
<path d="M267.932 127.279L266.549 128.089V126.469L267.932 125.659V127.279Z" fill="white"/>
<path d="M253.37 135.62L251.987 136.43V134.81L253.37 134V135.62Z" fill="white"/>
<path d="M271.837 105.091V90.9194L253.857 93.2679L240.433 85.4938C238.074 84.1171 234.25 84.1171 231.891 85.4938L229.776 86.7895L200.569 90.6765V105.01V105.091C200.569 105.982 201.22 106.791 202.359 107.439L232.054 124.526C234.413 125.903 238.237 125.903 240.596 124.526L270.128 107.439C271.267 106.791 271.837 105.901 271.918 105.091H271.837Z" fill="url(#paint18_linear)"/>
<path d="M270.047 88.3276L240.353 71.2409C237.993 69.8642 234.169 69.8642 231.81 71.2409L202.278 88.3276C199.919 89.7043 199.919 91.8907 202.278 93.2674L231.973 110.354C234.332 111.731 238.156 111.731 240.515 110.354L270.047 93.2674C272.407 91.8907 272.407 89.7043 270.047 88.3276Z" fill="url(#paint19_radial)"/>
<path d="M270.047 92.3764L240.515 109.463C238.156 110.84 234.332 110.84 231.973 109.463L202.278 92.3764C201.301 91.8096 200.732 91.0807 200.569 90.3519C200.325 91.4047 200.895 92.4574 202.278 93.2672L231.973 110.354C234.332 111.731 238.156 111.731 240.515 110.354L270.047 93.2672C271.43 92.4574 272 91.4047 271.756 90.3519C271.674 91.1617 271.105 91.8096 270.047 92.3764Z" fill="white"/>
<path d="M244.583 114.16L243.119 114.97V113.35L244.583 112.541V114.16Z" fill="white"/>
<path d="M247.512 112.46L246.047 113.269V111.65L247.512 110.84V112.46Z" fill="white"/>
<path d="M250.441 110.759L249.057 111.569V109.949L250.441 109.14V110.759Z" fill="white"/>
<path d="M248 115.375L246.617 116.185V114.565L248 113.836V115.375Z" fill="white"/>
<path d="M250.603 113.918L249.22 114.727V113.108L250.603 112.298V113.918Z" fill="white"/>
<path d="M259.878 105.333L258.414 106.143V104.523L259.878 103.714V105.333Z" fill="white"/>
<path d="M267.932 100.718L266.549 101.528V99.9079L267.932 99.0981V100.718Z" fill="white"/>
<path d="M253.369 109.058L251.986 109.868V108.249L253.369 107.439V109.058Z" fill="white"/>
<path d="M183.647 218.623C182.02 218.623 180.474 218.3 179.254 217.571L149.559 200.484C148.339 199.755 147.688 198.783 147.688 197.812C147.688 196.759 148.339 195.787 149.559 195.139L179.091 178.053C181.532 176.676 185.518 176.676 187.959 178.053L217.654 195.139C218.874 195.868 219.525 196.84 219.525 197.812C219.525 198.864 218.874 199.836 217.654 200.484L188.122 217.571C186.82 218.3 185.274 218.623 183.647 218.623ZM183.485 177.486C182.02 177.486 180.474 177.81 179.335 178.458L149.803 195.544C148.745 196.111 148.176 196.921 148.176 197.731C148.176 198.541 148.745 199.35 149.803 199.917L179.498 217.004C181.776 218.3 185.518 218.3 187.796 217.004L217.329 199.917C218.386 199.35 218.956 198.541 218.956 197.731C218.956 196.921 218.386 196.111 217.329 195.544L187.634 178.539C186.495 177.81 184.949 177.486 183.485 177.486Z" fill="#03A7D3"/>
<path opacity="0.2" d="M210.088 195.868L186.82 182.506C184.949 181.454 181.939 181.454 180.149 182.506L157.044 195.868C155.172 196.921 155.172 198.621 157.044 199.755L180.311 213.117C182.183 214.169 185.193 214.169 186.983 213.117L210.088 199.755C211.959 198.621 211.959 196.921 210.088 195.868Z" fill="#03A7D3"/>
<path d="M219.362 188.418V174.246L201.382 176.595L187.958 168.821C185.599 167.444 181.775 167.444 179.416 168.821L177.301 170.117L148.094 174.004V188.337V188.418C148.094 189.309 148.745 190.118 149.884 190.766L179.579 207.853C181.938 209.23 185.762 209.23 188.121 207.853L217.653 190.766C218.792 190.118 219.362 189.228 219.443 188.418H219.362Z" fill="url(#paint20_linear)"/>
<path d="M217.573 171.737L187.878 154.65C185.518 153.273 181.695 153.273 179.335 154.65L149.803 171.737C147.444 173.113 147.444 175.3 149.803 176.676L179.498 193.763C181.857 195.14 185.681 195.14 188.04 193.763L217.573 176.676C219.932 175.3 219.932 173.113 217.573 171.737Z" fill="url(#paint21_radial)"/>
<path d="M217.573 175.785L188.04 192.872C185.681 194.248 181.857 194.248 179.498 192.872L149.803 175.785C148.827 175.218 148.257 174.489 148.095 173.76C147.851 174.813 148.42 175.866 149.803 176.676L179.498 193.762C181.857 195.139 185.681 195.139 188.04 193.762L217.573 176.676C218.956 175.866 219.525 174.813 219.281 173.76C219.118 174.489 218.549 175.218 217.573 175.785Z" fill="white"/>
<path d="M192.027 197.488L190.644 198.298V196.678L192.027 195.868V197.488Z" fill="white"/>
<path d="M194.956 195.787L193.573 196.597V194.977L194.956 194.167V195.787Z" fill="white"/>
<path d="M197.966 194.168L196.501 194.977V193.358L197.966 192.548V194.168Z" fill="white"/>
<path d="M195.525 198.783L194.142 199.593V197.974L195.525 197.164V198.783Z" fill="white"/>
<path d="M198.129 197.326L196.745 198.136V196.516L198.129 195.706V197.326Z" fill="white"/>
<path d="M207.322 188.742L205.939 189.552V187.932L207.322 187.123V188.742Z" fill="white"/>
<path d="M215.457 184.045L214.074 184.855V183.235L215.457 182.426V184.045Z" fill="white"/>
<path d="M200.895 192.467L199.43 193.277V191.657L200.895 190.847V192.467Z" fill="white"/>
<path opacity="0.4" d="M182.02 186.556L162.088 175.057C161.274 174.571 161.356 173.761 162.332 173.275L181.857 162.1C182.834 161.533 184.217 161.533 185.03 161.938L204.963 173.437C205.776 173.923 205.695 174.733 204.718 175.219L185.193 186.394C184.298 186.961 182.834 186.961 182.02 186.556Z" fill="#06033E"/>
<path d="M174.21 198.945L157.694 189.471C157.288 189.228 156.962 188.661 156.962 188.094V186.88C156.962 186.394 157.288 186.151 157.694 186.313L174.21 195.787C174.617 196.03 174.942 196.597 174.942 197.164V198.379C174.861 198.945 174.535 199.188 174.21 198.945Z" fill="#FCCA2E"/>
<path d="M219.362 161.857V147.685L201.382 150.034L187.958 142.26C185.599 140.883 181.775 140.883 179.416 142.26L177.301 143.555L148.094 147.442V161.776V161.857C148.094 162.748 148.745 163.557 149.884 164.205L179.579 181.292C181.938 182.669 185.762 182.669 188.121 181.292L217.653 164.205C218.792 163.557 219.362 162.667 219.443 161.857H219.362Z" fill="url(#paint22_linear)"/>
<path d="M217.573 145.175L187.878 128.088C185.518 126.712 181.695 126.712 179.335 128.088L149.803 145.175C147.444 146.552 147.444 148.738 149.803 150.115L179.498 167.202C181.857 168.578 185.681 168.578 188.04 167.202L217.573 150.115C219.932 148.738 219.932 146.552 217.573 145.175Z" fill="url(#paint23_radial)"/>
<path opacity="0.4" d="M203.417 146.228L186.088 136.268C184.705 135.458 182.508 135.458 181.125 136.268L163.959 146.228C162.576 147.038 162.576 148.333 163.959 149.062L181.288 159.023C182.671 159.833 184.867 159.833 186.25 159.023L203.417 149.062C204.8 148.253 204.8 146.957 203.417 146.228Z" fill="#06033E"/>
<path d="M217.573 149.224L188.04 166.311C185.681 167.687 181.857 167.687 179.498 166.311L149.803 149.224C148.827 148.657 148.257 147.928 148.095 147.2C147.851 148.252 148.42 149.305 149.803 150.115L179.498 167.202C181.857 168.578 185.681 168.578 188.04 167.202L217.573 150.115C218.956 149.305 219.525 148.252 219.281 147.2C219.118 147.928 218.549 148.657 217.573 149.224Z" fill="white"/>
<path d="M192.027 170.927L190.644 171.737V170.117L192.027 169.307V170.927Z" fill="white"/>
<path d="M194.956 169.227L193.573 170.036V168.417L194.956 167.607V169.227Z" fill="white"/>
<path d="M197.966 167.525L196.501 168.335V166.716L197.966 165.906V167.525Z" fill="white"/>
<path d="M195.525 172.223L194.142 173.032V171.413L195.525 170.603V172.223Z" fill="white"/>
<path d="M198.129 170.765L196.745 171.574V169.955L198.129 169.145V170.765Z" fill="white"/>
<path d="M207.322 162.181L205.939 162.991V161.371L207.322 160.562V162.181Z" fill="white"/>
<path d="M215.457 157.484L214.074 158.294V156.674L215.457 155.865V157.484Z" fill="white"/>
<path d="M200.895 165.906L199.43 166.716V165.097L200.895 164.287V165.906Z" fill="white"/>
<path d="M219.362 135.296V121.124L201.382 123.473L187.958 115.699C185.599 114.322 181.775 114.322 179.416 115.699L177.301 116.994L148.094 120.881V135.215V135.296C148.094 136.186 148.745 136.996 149.884 137.644L179.579 154.731C181.938 156.107 185.762 156.107 188.121 154.731L217.653 137.644C218.792 136.996 219.362 136.105 219.443 135.296H219.362Z" fill="url(#paint24_linear)"/>
<path d="M217.573 118.614L187.878 101.527C185.518 100.15 181.695 100.15 179.335 101.527L149.803 118.614C147.444 119.99 147.444 122.177 149.803 123.553L179.498 140.64C181.857 142.017 185.681 142.017 188.04 140.64L217.573 123.472C219.932 122.177 219.932 119.909 217.573 118.614Z" fill="url(#paint25_radial)"/>
<path d="M217.573 122.662L188.04 139.749C185.681 141.126 181.857 141.126 179.498 139.749L149.803 122.662C148.827 122.096 148.257 121.367 148.095 120.638C147.851 121.691 148.42 122.743 149.803 123.553L179.498 140.64C181.857 142.017 185.681 142.017 188.04 140.64L217.573 123.472C218.956 122.662 219.525 121.61 219.281 120.557C219.118 121.367 218.549 122.096 217.573 122.662Z" fill="white"/>
<path d="M192.027 144.365L190.644 145.175V143.555L192.027 142.745V144.365Z" fill="white"/>
<path d="M194.956 142.665L193.573 143.474V141.855L194.956 141.045V142.665Z" fill="white"/>
<path d="M197.966 140.964L196.501 141.774V140.154L197.966 139.344V140.964Z" fill="white"/>
<path d="M195.525 145.661L194.142 146.471V144.851L195.525 144.041V145.661Z" fill="white"/>
<path d="M198.128 144.122L196.745 144.932V143.312L198.128 142.503V144.122Z" fill="white"/>
<path d="M207.322 135.538L205.939 136.348V134.728L207.322 133.919V135.538Z" fill="white"/>
<path d="M215.457 130.923L214.074 131.732V130.113L215.457 129.303V130.923Z" fill="white"/>
<path d="M200.895 139.264L199.43 140.073V138.454L200.895 137.725V139.264Z" fill="white"/>
<path d="M254.227 178.472L253.944 178.96L304.712 208.137L304.995 207.649L254.227 178.472Z" fill="#03A7D3"/>
<path d="M326.287 195.786L310.034 186.449C308.579 185.564 306.557 185.001 304.536 184.84L287.15 183.471C284.967 183.31 282.946 182.747 281.409 181.862L265.156 172.606L265.399 172.123L281.652 181.459C283.107 182.345 285.129 182.908 287.15 183.069L304.536 184.437C306.719 184.598 308.74 185.162 310.277 186.047L326.53 195.384L326.287 195.786Z" fill="#03A7D3"/>
<path d="M283.188 220.576L266.935 211.239C265.318 210.354 264.347 209.147 264.024 207.859L261.679 197.878C261.436 196.752 260.466 195.625 259.01 194.82L242.757 185.483L243 185L259.253 194.337C260.87 195.222 261.84 196.43 262.164 197.717L264.509 207.698C264.752 208.825 265.722 209.951 267.177 210.756L283.431 220.093L283.188 220.576Z" fill="#03A7D3"/>
<path d="M293.943 214.379L276.638 204.479C275.749 203.996 275.021 203.352 274.536 202.708L267.582 193.774C267.097 193.211 266.45 192.647 265.641 192.164L248.337 182.264L248.579 181.781L265.884 191.681C266.773 192.164 267.501 192.808 267.986 193.452L274.94 202.386C275.425 202.95 276.072 203.513 276.881 203.996L294.185 213.896L293.943 214.379Z" fill="#03A7D3"/>
<path d="M315.532 201.984L298.228 192.084C297.42 191.601 296.449 191.198 295.398 190.957L279.873 186.932C278.741 186.611 277.77 186.208 276.881 185.725L259.576 175.825L259.819 175.342L277.123 185.242C277.932 185.725 278.902 186.128 279.953 186.369L295.479 190.393C296.611 190.715 297.581 191.118 298.471 191.601L315.775 201.501L315.532 201.984Z" fill="#03A7D3"/>
<path d="M101.656 171.825L48.1912 202.5L48.4738 202.988L101.939 172.313L101.656 171.825Z" fill="#03A7D3"/>
<path d="M109.105 176.167L50.2607 209.928L50.5777 210.476L109.422 176.714L109.105 176.167Z" fill="#03A7D3"/>
<path d="M116.615 180.453L63.0583 211.181L63.3469 211.679L116.903 180.952L116.615 180.453Z" fill="#03A7D3"/>
<path d="M124.153 184.79L71.6797 214.897L71.9624 215.385L124.436 185.279L124.153 184.79Z" fill="#03A7D3"/>
</g>
<path fill-rule="evenodd" clip-rule="evenodd" d="M2.99988 216.793C4.07239 227.539 14.7279 236 27.8399 236H337.934C351.053 236 361.701 227.539 362.779 216.793H2.99988Z" fill="#EFEFEF"/>
<path fill-rule="evenodd" clip-rule="evenodd" d="M135.462 223.201H230.317V216.792H135.462V223.201Z" fill="#CCCCCC"/>
</g>
</g>
<defs>
<filter id="filter0_d" x="0" y="0" width="366" height="241" filterUnits="userSpaceOnUse" color-interpolation-filters="sRGB">
<feFlood flood-opacity="0" result="BackgroundImageFix"/>
<feColorMatrix in="SourceAlpha" type="matrix" values="0 0 0 0 0 0 0 0 0 0 0 0 0 0 0 0 0 0 127 0"/>
<feOffset dy="2"/>
<feGaussianBlur stdDeviation="1.5"/>
<feColorMatrix type="matrix" values="0 0 0 0 0 0 0 0 0 0 0 0 0 0 0 0 0 0 0.15 0"/>
<feBlend mode="normal" in2="BackgroundImageFix" result="effect1_dropShadow"/>
<feBlend mode="normal" in="SourceGraphic" in2="effect1_dropShadow" result="shape"/>
</filter>
<linearGradient id="paint0_linear" x1="143.967" y1="128.037" x2="194.241" y2="128.037" gradientUnits="userSpaceOnUse">
<stop stop-color="#01C8EF"/>
<stop offset="0.1297" stop-color="#04B1DD"/>
<stop offset="0.5466" stop-color="#0E6BA7"/>
<stop offset="0.8476" stop-color="#154085"/>
<stop offset="1" stop-color="#172F78"/>
</linearGradient>
<radialGradient id="paint1_radial" cx="0" cy="0" r="1" gradientUnits="userSpaceOnUse" gradientTransform="translate(135.051 90.5125) scale(112.272 111.753)">
<stop stop-color="#01C8EF"/>
<stop offset="0.1396" stop-color="#03BAE4"/>
<stop offset="0.4033" stop-color="#0895C8"/>
<stop offset="0.76" stop-color="#115A9A"/>
<stop offset="1" stop-color="#172F78"/>
</radialGradient>
<linearGradient id="paint2_linear" x1="143.967" y1="101.465" x2="194.241" y2="101.465" gradientUnits="userSpaceOnUse">
<stop stop-color="#01C8EF"/>
<stop offset="0.1297" stop-color="#04B1DD"/>
<stop offset="0.5466" stop-color="#0E6BA7"/>
<stop offset="0.8476" stop-color="#154085"/>
<stop offset="1" stop-color="#172F78"/>
</linearGradient>
<radialGradient id="paint3_radial" cx="0" cy="0" r="1" gradientUnits="userSpaceOnUse" gradientTransform="translate(135.051 63.9411) scale(112.272 111.753)">
<stop stop-color="#01C8EF"/>
<stop offset="0.1396" stop-color="#03BAE4"/>
<stop offset="0.4033" stop-color="#0895C8"/>
<stop offset="0.76" stop-color="#115A9A"/>
<stop offset="1" stop-color="#172F78"/>
</radialGradient>
<linearGradient id="paint4_linear" x1="143.967" y1="74.8938" x2="194.241" y2="74.8938" gradientUnits="userSpaceOnUse">
<stop stop-color="#01C8EF"/>
<stop offset="0.1297" stop-color="#04B1DD"/>
<stop offset="0.5466" stop-color="#0E6BA7"/>
<stop offset="0.8476" stop-color="#154085"/>
<stop offset="1" stop-color="#172F78"/>
</linearGradient>
<radialGradient id="paint5_radial" cx="0" cy="0" r="1" gradientUnits="userSpaceOnUse" gradientTransform="translate(135.051 37.3697) scale(112.272 111.753)">
<stop stop-color="#01C8EF"/>
<stop offset="0.1396" stop-color="#03BAE4"/>
<stop offset="0.4033" stop-color="#0895C8"/>
<stop offset="0.76" stop-color="#115A9A"/>
<stop offset="1" stop-color="#172F78"/>
</radialGradient>
<radialGradient id="paint6_radial" cx="0" cy="0" r="1" gradientUnits="userSpaceOnUse" gradientTransform="translate(162.207 51.1687) scale(42.4745 42.4124)">
<stop stop-color="#2743BC"/>
<stop offset="1" stop-color="#B6246E"/>
</radialGradient>
<linearGradient id="paint7_linear" x1="91.4708" y1="158.269" x2="141.745" y2="158.269" gradientUnits="userSpaceOnUse">
<stop stop-color="#01C8EF"/>
<stop offset="0.1297" stop-color="#04B1DD"/>
<stop offset="0.5466" stop-color="#0E6BA7"/>
<stop offset="0.8476" stop-color="#154085"/>
<stop offset="1" stop-color="#172F78"/>
</linearGradient>
<radialGradient id="paint8_radial" cx="0" cy="0" r="1" gradientUnits="userSpaceOnUse" gradientTransform="translate(82.5567 120.745) scale(112.272 111.753)">
<stop stop-color="#01C8EF"/>
<stop offset="0.1396" stop-color="#03BAE4"/>
<stop offset="0.4033" stop-color="#0895C8"/>
<stop offset="0.76" stop-color="#115A9A"/>
<stop offset="1" stop-color="#172F78"/>
</radialGradient>
<linearGradient id="paint9_linear" x1="91.4708" y1="131.697" x2="141.745" y2="131.697" gradientUnits="userSpaceOnUse">
<stop stop-color="#01C8EF"/>
<stop offset="0.1297" stop-color="#04B1DD"/>
<stop offset="0.5466" stop-color="#0E6BA7"/>
<stop offset="0.8476" stop-color="#154085"/>
<stop offset="1" stop-color="#172F78"/>
</linearGradient>
<radialGradient id="paint10_radial" cx="0" cy="0" r="1" gradientUnits="userSpaceOnUse" gradientTransform="translate(82.5567 94.1731) scale(112.272 111.753)">
<stop stop-color="#01C8EF"/>
<stop offset="0.1396" stop-color="#03BAE4"/>
<stop offset="0.4033" stop-color="#0895C8"/>
<stop offset="0.76" stop-color="#115A9A"/>
<stop offset="1" stop-color="#172F78"/>
</radialGradient>
<linearGradient id="paint11_linear" x1="91.4709" y1="105.126" x2="141.745" y2="105.126" gradientUnits="userSpaceOnUse">
<stop stop-color="#01C8EF"/>
<stop offset="0.1297" stop-color="#04B1DD"/>
<stop offset="0.5466" stop-color="#0E6BA7"/>
<stop offset="0.8476" stop-color="#154085"/>
<stop offset="1" stop-color="#172F78"/>
</linearGradient>
<radialGradient id="paint12_radial" cx="0" cy="0" r="1" gradientUnits="userSpaceOnUse" gradientTransform="translate(82.5567 67.6018) scale(112.272 111.753)">
<stop stop-color="#01C8EF"/>
<stop offset="0.1396" stop-color="#03BAE4"/>
<stop offset="0.4033" stop-color="#0895C8"/>
<stop offset="0.76" stop-color="#115A9A"/>
<stop offset="1" stop-color="#172F78"/>
</radialGradient>
<radialGradient id="paint13_radial" cx="0" cy="0" r="1" gradientUnits="userSpaceOnUse" gradientTransform="translate(92.4638 74.3358) scale(77.1908 76.8338)">
<stop stop-color="#2743BC"/>
<stop offset="1" stop-color="#B6246E"/>
</radialGradient>
<linearGradient id="paint14_linear" x1="196.273" y1="158.239" x2="246.547" y2="158.239" gradientUnits="userSpaceOnUse">
<stop stop-color="#01C8EF"/>
<stop offset="0.1297" stop-color="#04B1DD"/>
<stop offset="0.5466" stop-color="#0E6BA7"/>
<stop offset="0.8476" stop-color="#154085"/>
<stop offset="1" stop-color="#172F78"/>
</linearGradient>
<radialGradient id="paint15_radial" cx="0" cy="0" r="1" gradientUnits="userSpaceOnUse" gradientTransform="translate(187.359 120.715) scale(112.272 111.753)">
<stop stop-color="#01C8EF"/>
<stop offset="0.1396" stop-color="#03BAE4"/>
<stop offset="0.4033" stop-color="#0895C8"/>
<stop offset="0.76" stop-color="#115A9A"/>
<stop offset="1" stop-color="#172F78"/>
</radialGradient>
<linearGradient id="paint16_linear" x1="196.273" y1="131.668" x2="246.547" y2="131.668" gradientUnits="userSpaceOnUse">
<stop stop-color="#01C8EF"/>
<stop offset="0.1297" stop-color="#04B1DD"/>
<stop offset="0.5466" stop-color="#0E6BA7"/>
<stop offset="0.8476" stop-color="#154085"/>
<stop offset="1" stop-color="#172F78"/>
</linearGradient>
<radialGradient id="paint17_radial" cx="0" cy="0" r="1" gradientUnits="userSpaceOnUse" gradientTransform="translate(187.359 94.1438) scale(112.272 111.753)">
<stop stop-color="#01C8EF"/>
<stop offset="0.1396" stop-color="#03BAE4"/>
<stop offset="0.4033" stop-color="#0895C8"/>
<stop offset="0.76" stop-color="#115A9A"/>
<stop offset="1" stop-color="#172F78"/>
</radialGradient>
<linearGradient id="paint18_linear" x1="196.273" y1="105.097" x2="246.547" y2="105.097" gradientUnits="userSpaceOnUse">
<stop stop-color="#01C8EF"/>
<stop offset="0.1297" stop-color="#04B1DD"/>
<stop offset="0.5466" stop-color="#0E6BA7"/>
<stop offset="0.8476" stop-color="#154085"/>
<stop offset="1" stop-color="#172F78"/>
</linearGradient>
<radialGradient id="paint19_radial" cx="0" cy="0" r="1" gradientUnits="userSpaceOnUse" gradientTransform="translate(187.359 67.5725) scale(112.272 111.753)">
<stop stop-color="#01C8EF"/>
<stop offset="0.1396" stop-color="#03BAE4"/>
<stop offset="0.4033" stop-color="#0895C8"/>
<stop offset="0.76" stop-color="#115A9A"/>
<stop offset="1" stop-color="#172F78"/>
</radialGradient>
<linearGradient id="paint20_linear" x1="143.777" y1="188.471" x2="194.051" y2="188.471" gradientUnits="userSpaceOnUse">
<stop stop-color="#01C8EF"/>
<stop offset="0.1297" stop-color="#04B1DD"/>
<stop offset="0.5466" stop-color="#0E6BA7"/>
<stop offset="0.8476" stop-color="#154085"/>
<stop offset="1" stop-color="#172F78"/>
</linearGradient>
<radialGradient id="paint21_radial" cx="0" cy="0" r="1" gradientUnits="userSpaceOnUse" gradientTransform="translate(134.863 150.947) scale(112.272 111.753)">
<stop stop-color="#01C8EF"/>
<stop offset="0.1396" stop-color="#03BAE4"/>
<stop offset="0.4033" stop-color="#0895C8"/>
<stop offset="0.76" stop-color="#115A9A"/>
<stop offset="1" stop-color="#172F78"/>
</radialGradient>
<linearGradient id="paint22_linear" x1="143.777" y1="161.9" x2="194.051" y2="161.9" gradientUnits="userSpaceOnUse">
<stop stop-color="#01C8EF"/>
<stop offset="0.1297" stop-color="#04B1DD"/>
<stop offset="0.5466" stop-color="#0E6BA7"/>
<stop offset="0.8476" stop-color="#154085"/>
<stop offset="1" stop-color="#172F78"/>
</linearGradient>
<radialGradient id="paint23_radial" cx="0" cy="0" r="1" gradientUnits="userSpaceOnUse" gradientTransform="translate(134.863 124.376) scale(112.272 111.753)">
<stop stop-color="#01C8EF"/>
<stop offset="0.1396" stop-color="#03BAE4"/>
<stop offset="0.4033" stop-color="#0895C8"/>
<stop offset="0.76" stop-color="#115A9A"/>
<stop offset="1" stop-color="#172F78"/>
</radialGradient>
<linearGradient id="paint24_linear" x1="143.777" y1="135.328" x2="194.051" y2="135.328" gradientUnits="userSpaceOnUse">
<stop stop-color="#01C8EF"/>
<stop offset="0.1297" stop-color="#04B1DD"/>
<stop offset="0.5466" stop-color="#0E6BA7"/>
<stop offset="0.8476" stop-color="#154085"/>
<stop offset="1" stop-color="#172F78"/>
</linearGradient>
<radialGradient id="paint25_radial" cx="0" cy="0" r="1" gradientUnits="userSpaceOnUse" gradientTransform="translate(134.863 97.804) scale(112.272 111.753)">
<stop stop-color="#01C8EF"/>
<stop offset="0.1396" stop-color="#03BAE4"/>
<stop offset="0.4033" stop-color="#0895C8"/>
<stop offset="0.76" stop-color="#115A9A"/>
<stop offset="1" stop-color="#172F78"/>
</radialGradient>
<clipPath id="clip0">
<rect x="121" y="84.9348" width="20" height="11" fill="white"/>
</clipPath>
</defs>
</svg>
