<svg width="161" height="86" viewBox="0 0 161 86" fill="none" xmlns="http://www.w3.org/2000/svg">
<rect width="161" height="86" rx="5" fill="#E4F5FB"/>
<path d="M79.2821 24.231V62.8075H57.377V68.1544H106.572V62.8075H84.6674V61.9549H84.7183V54.2093H84.6674V40.2281H84.7183V37.981H84.6674V24.231H79.2821Z" fill="white"/>
<path d="M86.0865 61.9551H85.1113H84.711H82.0184H77.8557C77.077 61.9551 76.4438 62.5837 76.4438 63.3568V67.5981C76.4438 68.3713 77.077 68.9999 77.8557 68.9999H82.0184H85.1113H86.0865C86.8652 68.9999 87.4983 68.3713 87.4983 67.5981V67.049C87.5274 66.8973 87.5492 66.7455 87.5492 66.5866V64.3756C87.5492 64.2166 87.5274 64.0649 87.4983 63.9132V63.364C87.4983 62.5837 86.8652 61.9551 86.0865 61.9551Z" fill="#6A82B0"/>
<path d="M108.828 40.2285H105.925H84.7181H82.0255H55.1207C54.5021 40.2285 54 40.7271 54 41.3412V53.0971C54 53.7112 54.5021 54.2098 55.1207 54.2098H82.0255H84.7181H105.925H108.828C109.447 54.2098 109.949 53.7112 109.949 53.0971V50.7488C109.978 50.5537 110 50.3586 110 50.1635V44.2748C110 44.0725 109.978 43.8774 109.949 43.6823V41.3412C109.949 40.7271 109.447 40.2285 108.828 40.2285Z" fill="#1DAFF4"/>
<path d="M108.828 24H105.925H82.0619H82.0255H55.1207C54.5021 24 54 24.4986 54 25.1127V36.8685C54 37.4827 54.5021 37.9812 55.1207 37.9812H82.0255H84.7181H105.925H108.828C109.447 37.9812 109.949 37.4827 109.949 36.8685V34.5202C109.978 34.3251 110 34.1301 110 33.935V28.0462C110 27.8439 109.978 27.6488 109.949 27.4538V25.1127C109.949 24.4986 109.447 24 108.828 24Z" fill="#1DAFF4"/>
<path d="M104.477 25.2139H101.886V37.0419H104.477V25.2139Z" fill="#FCCA2E"/>
<path d="M100.307 25.2139H97.7158V37.0419H100.307V25.2139Z" fill="#FCCA2E"/>
<path d="M104.477 41.4424H101.886V53.2704H104.477V41.4424Z" fill="#FCCA2E"/>
<path d="M100.307 41.4424H97.7158V53.2704H100.307V41.4424Z" fill="#FCCA2E"/>
<path d="M57.3477 27.9926C57.3477 29.0042 58.17 29.8206 59.1889 29.8206C60.2077 29.8206 61.0301 29.0042 61.0301 27.9926C61.0301 26.981 60.2077 26.1646 59.1889 26.1646C58.17 26.1718 57.3477 26.9883 57.3477 27.9926Z" fill="#630DD3"/>
<path d="M59.5452 32.3264C58.2498 32.0808 57.1364 33.1863 57.3838 34.4724C57.5221 35.1877 58.1116 35.773 58.832 35.903C60.1274 36.1487 61.2409 35.0432 60.9934 33.7571C60.8552 33.049 60.2657 32.4637 59.5452 32.3264Z" fill="#FC3E54"/>
<path d="M57.3477 44.0912C57.3477 45.0956 58.17 45.9193 59.1889 45.9193C60.2077 45.9193 61.0301 45.1028 61.0301 44.0912C61.0301 43.0797 60.2077 42.2632 59.1889 42.2632C58.17 42.2704 57.3477 43.0869 57.3477 44.0912Z" fill="#630DD3"/>
<path d="M59.5452 48.5623C58.2498 48.3166 57.1364 49.4221 57.3838 50.7082C57.5221 51.4235 58.1116 52.0088 58.832 52.1388C60.1274 52.3845 61.2409 51.279 60.9934 49.9929C60.8552 49.2776 60.2657 48.6923 59.5452 48.5623Z" fill="#FC3E54"/>
<circle cx="113.5" cy="25.5" r="14.5" fill="#07CE9A"/>
<rect x="105" y="26.0513" width="3.85315" height="7.14642" transform="rotate(-45 105 26.0513)" fill="white"/>
<rect x="118.82" y="20" width="3.85315" height="14.0535" transform="rotate(45 118.82 20)" fill="white"/>
</svg>
