<svg width="161" height="86" viewBox="0 0 161 86" fill="none" xmlns="http://www.w3.org/2000/svg">
<rect width="161" height="86" rx="5" fill="#E4F5FB"/>
<path fill-rule="evenodd" clip-rule="evenodd" d="M107.642 25.6079L80.5 12L53.3582 25.6079C49.3367 67.692 80.5 75 80.5 75C80.5 75 111.663 67.692 107.642 25.6079Z" fill="#EDB720"/>
<path fill-rule="evenodd" clip-rule="evenodd" d="M103.694 27.8802L80.5002 16L57.3061 27.8802C53.8699 64.6202 80.5002 71 80.5002 71C80.5002 71 107.13 64.6202 103.694 27.8802Z" fill="#FCCA2E"/>
<path fill-rule="evenodd" clip-rule="evenodd" d="M75.0834 46C74.4849 46 74 45.4922 74 44.8656V33.5079C74 30.419 76.8256 28 80.4316 28H80.7698C84.3216 28 87 30.3679 87 33.5079V44.5956C87 45.2222 86.5156 45.73 85.917 45.73C85.319 45.73 84.8336 45.2222 84.8336 44.5956V33.5079C84.8336 31.6615 83.0865 30.2689 80.7698 30.2689H80.4316C78.0801 30.2689 76.1668 31.7221 76.1668 33.5079V44.8656C76.1668 45.4922 75.6819 46 75.0834 46Z" fill="#191551"/>
<path fill-rule="evenodd" clip-rule="evenodd" d="M89 53.2984C89 54.7457 87.8323 56 86.1902 56H74.0488C72.4068 56 71 54.7457 71 53.2984V42.5995C71 41.1523 72.4068 40 74.0488 40H86.1902C87.8323 40 89 41.1523 89 42.5995V53.2984Z" fill="#191551"/>
<path fill-rule="evenodd" clip-rule="evenodd" d="M82 45.9488C82 44.873 81.3455 44 80.5382 44H80.4618C79.6541 44 79 44.873 79 45.9488V46.0517C79 47.1282 79.6541 48 80.4618 48H80.5382C81.3455 48 82 47.1282 82 46.0517V45.9488Z" fill="white"/>
<path fill-rule="evenodd" clip-rule="evenodd" d="M81 51.2172C81 51.65 80.7762 52 80.5 52C80.2235 52 80 51.65 80 51.2172V46.7828C80 46.3505 80.2235 46 80.5 46C80.7762 46 81 46.3505 81 46.7828V51.2172Z" fill="white"/>
</svg>
