<svg width="161" height="86" viewBox="0 0 161 86" fill="none" xmlns="http://www.w3.org/2000/svg">
<path d="M157.01 86H3.10912C1.43498 86 0 84.6898 0 82.903V3.09695C0 1.31025 1.3154 0 3.10912 0H157.01C158.685 0 160.12 1.31025 160.12 3.09695V83.0222C160 84.6898 158.685 86 157.01 86Z" fill="#E4F5FB"/>
<path d="M30.58 47.2901C30.58 48.0026 30.0024 48.5801 29.29 48.5801C28.5776 48.5801 28 48.0026 28 47.2901C28 46.5777 28.5776 46.0001 29.29 46.0001C30.0024 46.0001 30.58 46.5777 30.58 47.2901Z" fill="#E2E2E2"/>
<path d="M36.2 47.2901C36.2 47.8119 35.8857 48.2823 35.4037 48.4819C34.9217 48.6816 34.3668 48.5712 33.9979 48.2023C33.6289 47.8334 33.5186 47.2785 33.7182 46.7965C33.9179 46.3144 34.3883 46.0001 34.91 46.0001C35.6225 46.0001 36.2 46.5777 36.2 47.2901Z" fill="#E2E2E2"/>
<path d="M41.82 47.2901C41.82 48.0026 41.2424 48.5801 40.53 48.5801C39.8175 48.5801 39.24 48.0026 39.24 47.2901C39.24 46.5777 39.8175 46.0001 40.53 46.0001C41.2424 46.0001 41.82 46.5777 41.82 47.2901Z" fill="#E2E2E2"/>
<path d="M79.6 47.29C79.6041 47.8167 79.2899 48.2938 78.8045 48.4982C78.319 48.7026 77.7582 48.5938 77.3844 48.2228C77.0105 47.8518 76.8974 47.2919 77.098 46.8049C77.2986 46.3179 77.7733 46.0001 78.3 46C78.6439 45.9974 78.9746 46.1321 79.2186 46.3743C79.4627 46.6165 79.6 46.9462 79.6 47.29Z" fill="#E2E2E2"/>
<path d="M85.22 47.29C85.224 47.8167 84.9099 48.2938 84.4245 48.4982C83.939 48.7026 83.3782 48.5938 83.0044 48.2228C82.6305 47.8518 82.5174 47.2919 82.718 46.8049C82.9186 46.3179 83.3933 46.0001 83.92 46C84.2639 45.9974 84.5945 46.1321 84.8386 46.3743C85.0827 46.6165 85.22 46.9462 85.22 47.29Z" fill="#E2E2E2"/>
<path d="M90.84 47.29C90.844 47.8176 90.5288 48.2954 90.0421 48.4991C89.5554 48.7029 88.9939 48.5923 88.6208 48.2192C88.2477 47.8462 88.1371 47.2846 88.3409 46.7979C88.5447 46.3112 89.0224 45.996 89.55 46C90.2624 46 90.84 46.5776 90.84 47.29Z" fill="#E2E2E2"/>
<rect x="12" y="10" width="46" height="32" rx="4" fill="#31C5FF"/>
<rect x="63" y="10" width="41" height="13" rx="4" fill="#FFD22E"/>
<rect x="109" y="10" width="39" height="13" rx="4" fill="#31C5FF"/>
<rect x="63" y="29" width="41" height="13" rx="4" fill="#FFD22E"/>
<rect x="109" y="29" width="39" height="13" rx="4" fill="#31C5FF"/>
<rect x="109" y="52" width="39" height="23" rx="4" fill="#07CE9A"/>
<path d="M12 53.3851C12 52.7583 12.5082 52.2501 13.135 52.2501H102.865C103.492 52.2501 104 52.7583 104 53.3851C104 54.012 103.492 54.5201 102.865 54.5201H13.135C12.5082 54.5201 12 54.012 12 53.3851Z" fill="#FFD22E"/>
<path d="M12 66.135C12 65.5082 12.5082 65 13.135 65L102.865 65C103.492 65 104 65.5082 104 66.135C104 66.7618 103.492 67.27 102.865 67.27L13.135 67.27C12.5082 67.27 12 66.7619 12 66.135Z" fill="#FFD22E"/>
<path d="M12 57.4651C12 56.8382 12.5082 56.3301 13.135 56.3301H43.865C44.4918 56.3301 45 56.8382 45 57.4651C45 58.0919 44.4918 58.6001 43.865 58.6001H13.135C12.5082 58.6001 12 58.0919 12 57.4651Z" fill="#07CE9A"/>
<path d="M12 70.2148C12 69.588 12.5082 69.0798 13.135 69.0798L43.865 69.08C44.4918 69.08 45 69.5881 45 70.215C45 70.8418 44.4918 71.35 43.865 71.35L13.135 71.3498C12.5082 71.3498 12 70.8417 12 70.2148Z" fill="#07CE9A"/>
<path d="M47.91 57.4651C47.91 56.8382 48.4181 56.3301 49.045 56.3301H102.865C103.492 56.3301 104 56.8382 104 57.4651C104 58.0919 103.492 58.6001 102.865 58.6001H49.045C48.4181 58.6001 47.91 58.0919 47.91 57.4651Z" fill="#FFD22E"/>
<path d="M47.91 70.215C47.91 69.5881 48.4181 69.08 49.045 69.08L102.865 69.08C103.492 69.08 104 69.5881 104 70.215C104 70.8418 103.492 71.35 102.865 71.35H49.045C48.4181 71.35 47.91 70.8418 47.91 70.215Z" fill="#FFD22E"/>
<path d="M12 61.5452C12 60.9183 12.5082 60.4102 13.135 60.4102H102.865C103.492 60.4102 104 60.9183 104 61.5452C104 62.172 103.492 62.6802 102.865 62.6802H13.135C12.5082 62.6802 12 62.172 12 61.5452Z" fill="#FFD22E"/>
<path d="M12 74.295C12 73.6682 12.5082 73.16 13.135 73.16L102.865 73.16C103.492 73.16 104 73.6682 104 74.295C104 74.9219 103.492 75.43 102.865 75.43H13.135C12.5082 75.43 12 74.9219 12 74.295Z" fill="#FFD22E"/>
</svg>
