<svg width="161" height="86" viewBox="0 0 161 86" fill="none" xmlns="http://www.w3.org/2000/svg">
<path d="M157.01 86H3.10912C1.43498 86 0 84.6898 0 82.903V3.09695C0 1.31025 1.3154 0 3.10912 0H157.01C158.685 0 160.12 1.31025 160.12 3.09695V83.0222C160 84.6898 158.685 86 157.01 86Z" fill="#E4F5FB"/>
<path fill-rule="evenodd" clip-rule="evenodd" d="M16.7273 12H32.2727C33.1775 12 34 12.8571 34 14C34 15.0476 33.2597 16 32.2727 16H16.7273C15.8225 16 15 15.1429 15 14C15 12.8571 15.8225 12 16.7273 12Z" fill="#FFD22E"/>
<path fill-rule="evenodd" clip-rule="evenodd" d="M87.7273 12H103.273C104.177 12 105 12.8571 105 14C105 15.0476 104.26 16 103.273 16H87.7273C86.8225 16 86 15.1429 86 14C86 12.8571 86.8225 12 87.7273 12Z" fill="#FFD22E"/>
<path fill-rule="evenodd" clip-rule="evenodd" d="M16.7733 24H70.2267C71.1556 24 72 24.8571 72 26C72 27.0476 71.24 28 70.2267 28H16.7733C15.8444 28 15 27.1429 15 26C15 24.8571 15.8444 24 16.7733 24Z" fill="#31C5FF"/>
<path fill-rule="evenodd" clip-rule="evenodd" d="M87.7733 24H141.227C142.156 24 143 24.8571 143 26C143 27.0476 142.24 28 141.227 28H87.7733C86.8444 28 86 27.1429 86 26C86 24.8571 86.8444 24 87.7733 24Z" fill="#31C5FF"/>
<path fill-rule="evenodd" clip-rule="evenodd" d="M16.7733 35H70.2267C71.1556 35 72 35.8571 72 37C72 38.0476 71.24 39 70.2267 39H16.7733C15.8444 39 15 38.1429 15 37C15 35.8571 15.8444 35 16.7733 35Z" fill="#31C5FF"/>
<path fill-rule="evenodd" clip-rule="evenodd" d="M87.7733 46H141.227C142.156 46 143 46.8571 143 48C143 49.0476 142.24 50 141.227 50H87.7733C86.8444 50 86 49.1429 86 48C86 46.8571 86.8444 46 87.7733 46Z" fill="#31C5FF"/>
<path fill-rule="evenodd" clip-rule="evenodd" d="M16.7664 46H31.2337C32.1589 46 33 46.8571 33 48C33 49.0476 32.243 50 31.2337 50H16.7664C15.8411 50 15 49.1429 15 48C15 46.8571 15.8411 46 16.7664 46Z" fill="#FFD22E"/>
<path fill-rule="evenodd" clip-rule="evenodd" d="M87.7664 35H102.234C103.159 35 104 35.8571 104 37C104 38.0476 103.243 39 102.234 39H87.7664C86.8411 39 86 38.1429 86 37C86 35.8571 86.8411 35 87.7664 35Z" fill="#FFD22E"/>
<path fill-rule="evenodd" clip-rule="evenodd" d="M37.7663 46H52.2337C53.1589 46 54 46.8571 54 48C54 49.0476 53.243 50 52.2337 50H37.7663C36.8411 50 36 49.1429 36 48C36 46.8571 36.757 46 37.7663 46Z" fill="#FFD22E"/>
<path fill-rule="evenodd" clip-rule="evenodd" d="M108.766 35H123.234C124.159 35 125 35.8571 125 37C125 38.0476 124.243 39 123.234 39H108.766C107.841 39 107 38.1429 107 37C107 35.8571 107.757 35 108.766 35Z" fill="#FFD22E"/>
<path fill-rule="evenodd" clip-rule="evenodd" d="M16.7628 60H36.2372C37.1606 60 38 60.8571 38 62C38 63.0476 37.2445 64 36.2372 64H16.7628C15.8394 64 15 63.1429 15 62C15 60.8571 15.8394 60 16.7628 60Z" fill="#FC3E54"/>
<path fill-rule="evenodd" clip-rule="evenodd" d="M87.7628 70H107.237C108.161 70 109 70.8571 109 72C109 73.0476 108.245 74 107.237 74H87.7628C86.8394 74 86 73.1429 86 72C86 70.8571 86.8394 70 87.7628 70Z" fill="#FC3E54"/>
<path fill-rule="evenodd" clip-rule="evenodd" d="M42.7628 60H62.2372C63.1606 60 64 60.8571 64 62C64 63.0476 63.2445 64 62.2372 64H42.7628C41.8394 64 41 63.1429 41 62C41 60.8571 41.7555 60 42.7628 60Z" fill="#FC3E54"/>
<path fill-rule="evenodd" clip-rule="evenodd" d="M113.763 70H133.237C134.161 70 135 70.8571 135 72C135 73.0476 134.245 74 133.237 74H113.763C112.839 74 112 73.1429 112 72C112 70.8571 112.755 70 113.763 70Z" fill="#FC3E54"/>
<path fill-rule="evenodd" clip-rule="evenodd" d="M16.7609 70H40.2391C41.1615 70 42 70.8571 42 72C42 73.0476 41.2453 74 40.2391 74H16.7609C15.8385 74 15 73.1429 15 72C15 70.9524 15.8385 70 16.7609 70Z" fill="#31C5FF"/>
<path fill-rule="evenodd" clip-rule="evenodd" d="M87.7609 60H111.239C112.161 60 113 60.8571 113 62C113 63.0476 112.245 64 111.239 64H87.7609C86.8385 64 86 63.1429 86 62C86 60.9524 86.8385 60 87.7609 60Z" fill="#31C5FF"/>
<path fill-rule="evenodd" clip-rule="evenodd" d="M47.7609 70H71.2391C72.1615 70 73 70.8571 73 72C73 73.0476 72.2453 74 71.2391 74H47.7609C46.8385 74 46 73.1429 46 72C46.0839 70.9524 46.8385 70 47.7609 70Z" fill="#31C5FF"/>
<path fill-rule="evenodd" clip-rule="evenodd" d="M118.761 60H142.239C143.161 60 144 60.8571 144 62C144 63.0476 143.245 64 142.239 64H118.761C117.839 64 117 63.1429 117 62C117.084 60.9524 117.839 60 118.761 60Z" fill="#31C5FF"/>
</svg>
