<svg width="161" height="94" viewBox="0 0 161 94" fill="none" xmlns="http://www.w3.org/2000/svg">
<path d="M157.01 94H3.10912C1.43498 94 0 92.6898 0 90.903V11.097C0 9.31025 1.3154 8 3.10912 8H157.01C158.685 8 160.12 9.31025 160.12 11.097V91.0222C160 92.6898 158.685 94 157.01 94Z" fill="#E4F5FB"/>
<g clip-path="url(#clip0)">
<path d="M66.1 42.5H8V80H66.1V42.5Z" fill="#F0F2F2"/>
<path d="M41.4 30C47.8 30 51.9 34.4 51.9 40.6C51.9 46 48.2 48.8 45.1 48.8C43.4 48.8 42 48 41.7 46.5H41.6C40.8 47.7 39.2 48.5 38 48.5C35.6 48.5 34.1 46.8 34.1 44C34.1 40.4 36.7 36.7 40.1 36.7C41.1 36.7 41.9 37.1 42.4 38.2H42.5L42.9 37H45.6L44.2 43.5C43.8 45.2 44.2 46.1 45.6 46.1C47.4 46.1 49.1 44 49.1 40.7C49.1 36.4 46.8 32.6 41 32.6C35.9 32.6 30.9 36.9 30.9 43.6C30.9 49.5 34.9 52.3 39.6 52.3C41.1 52.3 42.9 51.8 44.1 51.1L45.1 53.5C43.3 54.5 41.4 54.9 39.3 54.9C33.3 54.9 28 51.3 28 43.7C28 35.5 34.1 30 41.4 30ZM39 45.7C39.6 45.7 40.2 45.3 41 44.4L41.7 40.4C41.4 39.8 40.9 39.5 40.3 39.5C38.5 39.5 37.4 41.9 37.4 43.7C37.5 45.1 38 45.7 39 45.7Z" fill="#323C3E"/>
<path d="M66.2 42.5L37 62.8L66.2 80.1V42.5Z" fill="white"/>
<path d="M8 42.5L37.1 62.8L8 80.1V42.5Z" fill="white"/>
</g>
<path d="M139.008 58.9839C149.761 48.2317 149.761 30.799 139.008 20.0468C128.256 9.29467 110.823 9.29467 100.071 20.0468C89.3191 30.799 89.3191 48.2317 100.071 58.9839C110.823 69.7361 128.256 69.7361 139.008 58.9839Z" fill="white"/>
<path d="M135.143 55.1182C143.76 46.501 143.76 32.5298 135.143 23.9126C126.525 15.2954 112.554 15.2954 103.937 23.9126C95.3198 32.5298 95.3198 46.501 103.937 55.1182C112.554 63.7353 126.525 63.7353 135.143 55.1182Z" fill="#FC3E54"/>
<path d="M119.533 56.1317C128.7 56.1317 136.132 48.7001 136.132 39.5329C136.132 30.3656 128.7 22.9341 119.533 22.9341C110.366 22.9341 102.934 30.3656 102.934 39.5329C102.934 48.7001 110.366 56.1317 119.533 56.1317Z" fill="white"/>
<path d="M127.411 47.3866C131.758 43.0395 131.758 35.9913 127.411 31.6441C123.064 27.297 116.016 27.297 111.669 31.6441C107.321 35.9913 107.321 43.0395 111.669 47.3866C116.016 51.7338 123.064 51.7338 127.411 47.3866Z" fill="#FC3E54"/>
<path d="M123.545 43.5209C125.758 41.3087 125.758 37.7221 123.545 35.5099C121.333 33.2977 117.747 33.2977 115.534 35.5099C113.322 37.7221 113.322 41.3087 115.534 43.5209C117.747 45.733 121.333 45.733 123.545 43.5209Z" fill="white"/>
<path d="M132.087 25.8022L119.656 38.2334L120.807 39.3845L133.238 26.9533L132.087 25.8022Z" fill="#323C3E"/>
<path d="M120.327 34.7097L117 42.0001L124.29 38.6026L121.388 37.6117L120.327 34.7097Z" fill="#323C3E"/>
<path d="M137.096 18L132 23.0962V27.0599H135.964L141.06 21.9637H137.096V18Z" fill="#323C3E"/>
<path d="M109.884 66.8771C108.288 67.3326 106.625 66.4867 106.093 64.925L92.1256 19.7668C91.66 18.2051 92.5247 16.5784 94.121 16.1229H94.1875C95.7838 15.6674 97.4466 16.5133 97.9121 18.075L111.88 63.2332C112.345 64.7949 111.414 66.4216 109.884 66.8771Z" fill="#323C3E"/>
<path d="M108.534 61.7089C107.046 62.1725 105.496 61.3115 105 59.722L106.488 64.888C106.922 66.4775 108.472 67.3385 109.961 66.8749H110.023C111.511 66.4113 112.317 64.7555 111.883 63.166L110.395 58C110.829 59.5895 110.023 61.2453 108.534 61.7089Z" fill="#242C2D"/>
<path d="M56.8316 67.5717L49.2928 68.8779C48.383 69.0085 47.4731 68.486 47.2132 67.5717L42.0791 50.657C41.8191 49.7427 42.209 48.8284 43.1189 48.4365L50.0727 45.3018L56.8316 67.5717Z" fill="#323C3E"/>
<path d="M46.8232 46.6733V46.7387L53.2572 68.0943C53.2572 68.0943 53.2572 68.1596 53.3221 68.1596L56.7666 67.5718L50.0727 45.2366L46.8232 46.6733Z" fill="#242C2D"/>
<path d="M92 19L87.2464 26.1666C82.6972 31.4566 76.7182 35.375 69.9594 37.3996L51.0476 43.1467C49.8778 43.4732 49.2279 44.7141 49.5528 45.8896L55.9867 67.2453C56.3117 68.4208 57.5465 69.0739 58.7163 68.7473L77.6931 63.0003C84.3869 60.9757 91.5357 60.8451 98.2946 62.739L106.158 64.8942L92 19Z" fill="white"/>
<path d="M76.1983 57.9714L57.2865 63.7184C56.1167 64.045 54.882 63.3919 54.557 62.2164L56.0518 67.1798C56.3767 68.3553 57.6115 69.0084 58.7813 68.6818L77.6931 63.0001C84.387 60.9755 91.5357 60.8449 98.2946 62.7388L106.158 64.894L104.664 59.9306L96.7998 57.7754C90.041 55.8815 82.8922 55.9468 76.1983 57.9714Z" fill="#F4F5F5"/>
<path d="M66.5799 38.4446L51.0476 43.1467C49.8778 43.4733 49.2279 44.7141 49.5528 45.8897L55.9867 67.2453C56.3117 68.4209 57.5465 69.0739 58.7163 68.7474L74.2486 64.0452L66.5799 38.4446Z" fill="#FCCA2E"/>
<path d="M75.4835 83.6375L71.0643 85.009C70.1544 85.2702 69.1146 84.9437 68.5947 84.0947L58.7814 68.7473L67.3599 66.135L75.9385 82.5926C76.1334 82.9844 75.9385 83.5069 75.4835 83.6375Z" fill="#323C3E"/>
<path d="M60.5361 71.4902L68.7897 68.9432L67.3599 66.135L58.7814 68.7473L60.5361 71.4902Z" fill="#242C2D"/>
<path d="M57.2865 63.7839C56.1167 64.1105 54.882 63.4574 54.557 62.2819L56.0518 67.2453C56.3767 68.4208 57.6115 69.0739 58.7813 68.7473L74.3137 64.0452L72.8189 59.0818L57.2865 63.7839Z" fill="#EDB720"/>
<defs>
<clipPath id="clip0">
<rect x="8" y="30" width="58.2" height="50.1" fill="white"/>
</clipPath>
</defs>
</svg>
