<svg width="161" height="86" viewBox="0 0 161 86" fill="none" xmlns="http://www.w3.org/2000/svg">
<rect width="161" height="86" rx="5" fill="#E4F5FB"/>
<path d="M47.8215 66.5247C47.8446 66.5247 47.8676 66.5273 47.8902 66.5323C49.1545 66.8146 50.4408 66.9863 51.7345 67.0456C51.7972 67.0486 51.8575 67.0703 51.9078 67.1079C51.9581 67.1456 51.9961 67.1976 52.0169 67.2571L54.0231 73L59.126 72.3003L59.7048 66.1944C59.7107 66.133 59.7342 66.0746 59.7724 66.0265C59.8107 65.9784 59.8621 65.9425 59.9203 65.9233C61.1611 65.5156 62.3651 65.0024 63.5193 64.3892C63.5753 64.3594 63.6389 64.3472 63.7018 64.3543C63.7647 64.3614 63.8241 64.3874 63.8721 64.429L68.3827 68.3333L72.4909 65.0849L70.0418 59.5177C70.0174 59.4621 70.0094 59.4006 70.0187 59.3405C70.0281 59.2804 70.0544 59.2242 70.0945 59.1788C70.9737 58.1834 71.7708 57.1176 72.4778 55.9919C72.5111 55.9387 72.5594 55.8967 72.6166 55.8712C72.6738 55.8458 72.7372 55.8381 72.7987 55.8491L78.6217 56.8836L80.6291 51.9496L75.8197 48.4257C75.7702 48.3895 75.7323 48.3396 75.7106 48.2821C75.6888 48.2246 75.6842 48.1619 75.6973 48.1018C75.9804 46.7897 76.1567 45.4565 76.2244 44.1155C76.2276 44.0541 76.2485 43.9949 76.2845 43.9451C76.3205 43.8954 76.3702 43.8573 76.4274 43.8355L82 41.7127L81.3617 36.4207L75.4756 35.8711C75.4133 35.8652 75.3541 35.8409 75.3056 35.801C75.2571 35.7612 75.2215 35.7077 75.2033 35.6474C74.8208 34.3713 74.3341 33.1292 73.7482 31.9339C73.7213 31.8793 73.7106 31.8181 73.7174 31.7576C73.7241 31.6971 73.7481 31.6399 73.7863 31.5927L77.6069 26.8817L74.4995 22.6572L69.114 25.2274C69.0569 25.2547 68.9929 25.264 68.9304 25.2542C68.8679 25.2443 68.8098 25.2158 68.7636 25.1722C67.8133 24.2745 66.7897 23.4587 65.7037 22.7333C65.6527 22.6993 65.6127 22.651 65.5885 22.5945C65.5643 22.5379 65.557 22.4754 65.5676 22.4148L66.6157 16.3707L61.8786 14.3397L58.4377 19.3387C58.4021 19.3907 58.3519 19.4307 58.2935 19.4536C58.2351 19.4766 58.1712 19.4814 58.1101 19.4675C56.8456 19.1854 55.5593 19.0137 54.2655 18.9544C54.2028 18.9515 54.1424 18.9298 54.0921 18.8921C54.0417 18.8545 54.0037 18.8025 53.9829 18.7429L51.9769 13L46.874 13.6997L46.295 19.8056C46.2892 19.867 46.2657 19.9254 46.2274 19.9735C46.1891 20.0217 46.1377 20.0575 46.0795 20.0767C44.8388 20.4844 43.6349 20.9976 42.4807 21.6107C42.4248 21.6405 42.3612 21.6527 42.2982 21.6456C42.2353 21.6385 42.1759 21.6125 42.1279 21.5709L37.6173 17.6666L33.5091 20.9151L35.958 26.4825C35.9824 26.5381 35.9904 26.5996 35.9811 26.6597C35.9717 26.7198 35.9454 26.776 35.9053 26.8214C35.0262 27.8167 34.2292 28.8824 33.5222 30.0081C33.489 30.0614 33.4407 30.1035 33.3835 30.1289C33.3263 30.1544 33.2628 30.162 33.2013 30.1509L27.3784 29.1164L25.3709 34.0504L30.1804 37.5742C30.2298 37.6104 30.2677 37.6603 30.2894 37.7179C30.3111 37.7754 30.3157 37.8381 30.3025 37.8982C30.0194 39.2103 29.8432 40.5435 29.7756 41.8845C29.7724 41.9459 29.7516 42.0051 29.7155 42.0549C29.6795 42.1046 29.6298 42.1427 29.5726 42.1645L24 44.2872L24.6383 49.5792L30.5244 50.1289C30.5867 50.1348 30.6459 50.1591 30.6944 50.199C30.7429 50.2389 30.7785 50.2924 30.7967 50.3527C31.1791 51.6287 31.6658 52.8708 32.2518 54.0661C32.2787 54.1206 32.2894 54.1818 32.2826 54.2423C32.2759 54.3028 32.2519 54.3601 32.2137 54.4072L28.3931 59.1182L31.5006 63.3428L36.886 60.7726C36.9431 60.7453 37.0071 60.7359 37.0697 60.7458C37.1322 60.7557 37.1903 60.7843 37.2364 60.8279C38.1867 61.7256 39.2102 62.5414 40.2961 63.2669C40.3471 63.3009 40.3871 63.3492 40.4113 63.4058C40.4355 63.4623 40.4428 63.5248 40.4323 63.5855L39.3843 69.6293L44.1214 71.6603L47.5625 66.6612C47.5915 66.6191 47.6302 66.5847 47.6753 66.5609C47.7204 66.5371 47.7706 66.5247 47.8215 66.5247Z" fill="#721BD5"/>
<circle cx="53" cy="43" r="12" fill="#E4F5FB"/>
<circle cx="114" cy="45" r="22" fill="#FFD22E"/>
<path d="M56.5761 37H108V51.0968H79.5L75.7826 56L72.0652 51.0968L68.3478 56L64.6304 51.0968H56.5761L51 44.3548L56.5761 37Z" fill="#FFD22E"/>
<circle cx="121.5" cy="44.5" r="5.5" fill="#E4F5FB"/>
</svg>
