<svg width="360" height="235" viewBox="0 0 360 235" fill="none" xmlns="http://www.w3.org/2000/svg">
<mask id="mask0" mask-type="alpha" maskUnits="userSpaceOnUse" x="36" y="0" width="288" height="223">
<path fill-rule="evenodd" clip-rule="evenodd" d="M36.1156 0.300781H323.667V222.201H36.1156V0.300781Z" fill="white"/>
</mask>
<g mask="url(#mask0)">
<path fill-rule="evenodd" clip-rule="evenodd" d="M323.667 213.655C323.667 218.384 320.046 222.201 315.594 222.201H44.1853C39.7336 222.201 36.1156 218.384 36.1156 213.655V8.84867C36.1156 4.12018 39.7336 0.300049 44.1853 0.300049H315.594C320.046 0.300049 323.667 4.12018 323.667 8.84867V213.655Z" fill="white"/>
</g>
<mask id="mask1" mask-type="alpha" maskUnits="userSpaceOnUse" x="0" y="0" width="360" height="236">
<path fill-rule="evenodd" clip-rule="evenodd" d="M0 235H359.778V0.300781H0V235Z" fill="white"/>
</mask>
<g mask="url(#mask1)">
<path fill-rule="evenodd" clip-rule="evenodd" d="M49 202.994H310.35V15.2395H49V202.994Z" fill="#191551"/>
<path d="M237.34 174.338V177H228.408V174.338H231.532V167.672C231.4 167.848 231.187 168.031 230.894 168.222C230.615 168.398 230.307 168.567 229.97 168.728C229.633 168.889 229.281 169.021 228.914 169.124C228.562 169.227 228.247 169.278 227.968 169.278V166.528C228.232 166.528 228.555 166.447 228.936 166.286C229.317 166.11 229.691 165.905 230.058 165.67C230.425 165.435 230.74 165.208 231.004 164.988C231.283 164.753 231.459 164.57 231.532 164.438H234.546V174.338H237.34ZM250.301 170.554C250.301 171.522 250.154 172.417 249.861 173.238C249.582 174.045 249.186 174.749 248.673 175.35C248.174 175.937 247.573 176.399 246.869 176.736C246.18 177.059 245.432 177.22 244.625 177.22C243.804 177.22 243.048 177.059 242.359 176.736C241.67 176.399 241.068 175.937 240.555 175.35C240.056 174.749 239.66 174.045 239.367 173.238C239.088 172.417 238.949 171.522 238.949 170.554C238.949 169.586 239.088 168.699 239.367 167.892C239.66 167.071 240.056 166.367 240.555 165.78C241.068 165.179 241.67 164.709 242.359 164.372C243.048 164.035 243.804 163.866 244.625 163.866C245.432 163.866 246.18 164.035 246.869 164.372C247.573 164.709 248.174 165.179 248.673 165.78C249.186 166.367 249.582 167.071 249.861 167.892C250.154 168.699 250.301 169.586 250.301 170.554ZM247.331 170.554C247.331 169.967 247.265 169.432 247.133 168.948C247.001 168.449 246.81 168.024 246.561 167.672C246.326 167.32 246.04 167.049 245.703 166.858C245.38 166.667 245.021 166.572 244.625 166.572C244.214 166.572 243.84 166.667 243.503 166.858C243.18 167.049 242.894 167.32 242.645 167.672C242.41 168.024 242.227 168.449 242.095 168.948C241.963 169.432 241.897 169.967 241.897 170.554C241.897 171.141 241.963 171.676 242.095 172.16C242.227 172.644 242.41 173.062 242.645 173.414C242.894 173.766 243.18 174.037 243.503 174.228C243.84 174.419 244.214 174.514 244.625 174.514C245.021 174.514 245.38 174.419 245.703 174.228C246.04 174.037 246.326 173.766 246.561 173.414C246.81 173.062 247.001 172.644 247.133 172.16C247.265 171.676 247.331 171.141 247.331 170.554ZM263.815 170.554C263.815 171.522 263.668 172.417 263.375 173.238C263.096 174.045 262.7 174.749 262.187 175.35C261.688 175.937 261.087 176.399 260.383 176.736C259.693 177.059 258.945 177.22 258.139 177.22C257.317 177.22 256.562 177.059 255.873 176.736C255.183 176.399 254.582 175.937 254.069 175.35C253.57 174.749 253.174 174.045 252.881 173.238C252.602 172.417 252.463 171.522 252.463 170.554C252.463 169.586 252.602 168.699 252.881 167.892C253.174 167.071 253.57 166.367 254.069 165.78C254.582 165.179 255.183 164.709 255.873 164.372C256.562 164.035 257.317 163.866 258.139 163.866C258.945 163.866 259.693 164.035 260.383 164.372C261.087 164.709 261.688 165.179 262.187 165.78C262.7 166.367 263.096 167.071 263.375 167.892C263.668 168.699 263.815 169.586 263.815 170.554ZM260.845 170.554C260.845 169.967 260.779 169.432 260.647 168.948C260.515 168.449 260.324 168.024 260.075 167.672C259.84 167.32 259.554 167.049 259.217 166.858C258.894 166.667 258.535 166.572 258.139 166.572C257.728 166.572 257.354 166.667 257.017 166.858C256.694 167.049 256.408 167.32 256.159 167.672C255.924 168.024 255.741 168.449 255.609 168.948C255.477 169.432 255.411 169.967 255.411 170.554C255.411 171.141 255.477 171.676 255.609 172.16C255.741 172.644 255.924 173.062 256.159 173.414C256.408 173.766 256.694 174.037 257.017 174.228C257.354 174.419 257.728 174.514 258.139 174.514C258.535 174.514 258.894 174.419 259.217 174.228C259.554 174.037 259.84 173.766 260.075 173.414C260.324 173.062 260.515 172.644 260.647 172.16C260.779 171.676 260.845 171.141 260.845 170.554ZM269.298 167.826C268.785 167.826 268.308 167.738 267.868 167.562C267.428 167.386 267.047 167.151 266.724 166.858C266.402 166.55 266.145 166.198 265.954 165.802C265.764 165.391 265.668 164.951 265.668 164.482C265.668 164.027 265.764 163.595 265.954 163.184C266.145 162.773 266.402 162.421 266.724 162.128C267.047 161.835 267.428 161.6 267.868 161.424C268.308 161.248 268.785 161.16 269.298 161.16C269.797 161.16 270.266 161.248 270.706 161.424C271.161 161.6 271.55 161.835 271.872 162.128C272.195 162.421 272.452 162.773 272.642 163.184C272.833 163.595 272.928 164.027 272.928 164.482C272.928 164.951 272.833 165.391 272.642 165.802C272.452 166.198 272.195 166.55 271.872 166.858C271.55 167.151 271.161 167.386 270.706 167.562C270.266 167.738 269.797 167.826 269.298 167.826ZM269.298 166.352C269.518 166.352 269.716 166.301 269.892 166.198C270.083 166.095 270.252 165.963 270.398 165.802C270.545 165.626 270.655 165.428 270.728 165.208C270.816 164.973 270.86 164.731 270.86 164.482C270.86 163.969 270.706 163.536 270.398 163.184C270.09 162.817 269.724 162.634 269.298 162.634C269.078 162.634 268.873 162.685 268.682 162.788C268.506 162.891 268.345 163.03 268.198 163.206C268.052 163.367 267.934 163.558 267.846 163.778C267.773 163.998 267.736 164.233 267.736 164.482C267.736 164.995 267.89 165.435 268.198 165.802C268.506 166.169 268.873 166.352 269.298 166.352ZM277.79 177.22C277.277 177.22 276.8 177.132 276.36 176.956C275.92 176.78 275.539 176.545 275.216 176.252C274.894 175.959 274.637 175.614 274.446 175.218C274.256 174.807 274.16 174.367 274.16 173.898C274.16 173.429 274.256 172.996 274.446 172.6C274.637 172.189 274.894 171.837 275.216 171.544C275.539 171.236 275.92 170.994 276.36 170.818C276.8 170.642 277.277 170.554 277.79 170.554C278.304 170.554 278.78 170.642 279.22 170.818C279.66 170.994 280.042 171.236 280.364 171.544C280.702 171.837 280.958 172.189 281.134 172.6C281.325 172.996 281.42 173.429 281.42 173.898C281.42 174.367 281.325 174.807 281.134 175.218C280.958 175.614 280.702 175.959 280.364 176.252C280.042 176.545 279.66 176.78 279.22 176.956C278.78 177.132 278.304 177.22 277.79 177.22ZM277.79 175.746C278.01 175.746 278.208 175.695 278.384 175.592C278.575 175.489 278.744 175.357 278.89 175.196C279.037 175.02 279.147 174.822 279.22 174.602C279.308 174.382 279.352 174.147 279.352 173.898C279.352 173.634 279.308 173.392 279.22 173.172C279.132 172.937 279.015 172.739 278.868 172.578C278.736 172.402 278.575 172.27 278.384 172.182C278.194 172.079 277.996 172.028 277.79 172.028C277.57 172.028 277.365 172.079 277.174 172.182C276.998 172.285 276.837 172.424 276.69 172.6C276.544 172.761 276.426 172.959 276.338 173.194C276.265 173.414 276.228 173.649 276.228 173.898C276.228 174.411 276.382 174.851 276.69 175.218C276.998 175.57 277.365 175.746 277.79 175.746ZM266.9 175.966L273.104 168.728L278.824 161.204L280.166 162.392L274.16 169.498L268.242 177.154L266.9 175.966Z" fill="white"/>
<path fill-rule="evenodd" clip-rule="evenodd" d="M204.083 164H84.6739V164.012C80.9676 164.142 78 167.217 78 171C78 174.784 80.9676 177.857 84.6739 177.988V178H204.083C207.903 178 211 174.866 211 171C211 167.134 207.903 164 204.083 164Z" fill="#03E59F"/>
</g>
<g clip-path="url(#clip0)">
<path fill-rule="evenodd" clip-rule="evenodd" d="M123 95.4412C132.166 71.7999 155.234 55.0001 182.198 55.0001C209.162 55.0001 232.23 71.7999 241.397 95.4412L211.836 106.768C207.252 94.9091 195.718 86.5472 182.198 86.5472C168.678 86.5472 157.144 94.9091 152.561 106.768L123 95.4412Z" fill="#FCCA2E"/>
<path fill-rule="evenodd" clip-rule="evenodd" d="M240.5 72.0001L185.636 125.62C184.261 126.38 182.427 125.772 181.664 124.328C180.9 122.883 181.434 121.059 182.886 120.375L240.5 72.0001Z" fill="white"/>
</g>
<path fill-rule="evenodd" clip-rule="evenodd" d="M-0.00012207 215.793C1.07239 226.539 11.7279 235 24.8399 235H334.934C348.053 235 358.701 226.539 359.779 215.793H-0.00012207Z" fill="#EFEFEF"/>
<path fill-rule="evenodd" clip-rule="evenodd" d="M132.462 222.201H227.317V215.793H132.462V222.201Z" fill="#CCCCCC"/>
<defs>
<clipPath id="clip0">
<rect x="123" y="55.0001" width="131" height="71" fill="white"/>
</clipPath>
</defs>
</svg>
