<svg width="160" height="86" viewBox="0 0 160 86" fill="none" xmlns="http://www.w3.org/2000/svg">
<g clip-path="url(#clip0)">
<path d="M157.01 86H3.10912C1.43498 86 0 84.6898 0 82.903V3.09695C0 1.31025 1.3154 0 3.10912 0H157.01C158.685 0 160.12 1.31025 160.12 3.09695V83.0222C160 84.6898 158.685 86 157.01 86Z" fill="#E4F5FB"/>
<path d="M66.4873 24.5374L95.5456 41.2133C96.861 41.928 96.861 43.8338 95.5456 44.6676L66.4873 61.3435C65.1719 62.0582 63.4978 61.1053 63.4978 59.6759V26.3241C63.4978 24.7757 65.1719 23.8228 66.4873 24.5374Z" fill="#FCCA2E"/>
<path d="M160 77.543H0V79.0915H160V77.543Z" fill="#323C3E"/>
<path d="M21.5247 77.543H0V79.0915H21.5247V77.543Z" fill="#FCCA2E"/>
<path d="M24.6338 78.3767C24.6338 80.0443 23.3184 81.4737 21.5246 81.4737C19.8505 81.4737 18.4155 80.1635 18.4155 78.3767C18.4155 76.7092 19.7309 75.2798 21.5246 75.2798C23.1988 75.2798 24.6338 76.59 24.6338 78.3767Z" fill="#FCCA2E"/>
<path d="M23.3184 78.3768C23.3184 79.3297 22.4813 80.1635 21.5247 80.1635C20.568 80.1635 19.731 79.3297 19.731 78.3768C19.731 77.4239 20.568 76.5901 21.5247 76.5901C22.4813 76.5901 23.3184 77.4239 23.3184 78.3768Z" fill="white"/>
</g>
<defs>
<clipPath id="clip0">
<rect width="160" height="86" fill="white"/>
</clipPath>
</defs>
</svg>
