<svg width="360" height="235" viewBox="0 0 360 235" fill="none" xmlns="http://www.w3.org/2000/svg">
<mask id="mask0" mask-type="alpha" maskUnits="userSpaceOnUse" x="36" y="0" width="288" height="223">
<path fill-rule="evenodd" clip-rule="evenodd" d="M36.1156 0.300781H323.667V222.201H36.1156V0.300781Z" fill="white"/>
</mask>
<g mask="url(#mask0)">
<path fill-rule="evenodd" clip-rule="evenodd" d="M323.667 213.655C323.667 218.384 320.046 222.201 315.594 222.201H44.1853C39.7336 222.201 36.1156 218.384 36.1156 213.655V8.84867C36.1156 4.12018 39.7336 0.300049 44.1853 0.300049H315.594C320.046 0.300049 323.667 4.12018 323.667 8.84867V213.655Z" fill="white"/>
</g>
<mask id="mask1" mask-type="alpha" maskUnits="userSpaceOnUse" x="0" y="0" width="360" height="236">
<path fill-rule="evenodd" clip-rule="evenodd" d="M0 235H359.778V0.300781H0V235Z" fill="white"/>
</mask>
<g mask="url(#mask1)">
<path fill-rule="evenodd" clip-rule="evenodd" d="M49 202.994H310.35V15.2396H49V202.994Z" fill="#191551"/>
<path d="M237.34 174.338V177H228.408V174.338H231.532V167.672C231.4 167.848 231.187 168.031 230.894 168.222C230.615 168.398 230.307 168.567 229.97 168.728C229.633 168.889 229.281 169.021 228.914 169.124C228.562 169.227 228.247 169.278 227.968 169.278V166.528C228.232 166.528 228.555 166.447 228.936 166.286C229.317 166.11 229.691 165.905 230.058 165.67C230.425 165.435 230.74 165.208 231.004 164.988C231.283 164.753 231.459 164.57 231.532 164.438H234.546V174.338H237.34ZM250.301 170.554C250.301 171.522 250.154 172.417 249.861 173.238C249.582 174.045 249.186 174.749 248.673 175.35C248.174 175.937 247.573 176.399 246.869 176.736C246.18 177.059 245.432 177.22 244.625 177.22C243.804 177.22 243.048 177.059 242.359 176.736C241.67 176.399 241.068 175.937 240.555 175.35C240.056 174.749 239.66 174.045 239.367 173.238C239.088 172.417 238.949 171.522 238.949 170.554C238.949 169.586 239.088 168.699 239.367 167.892C239.66 167.071 240.056 166.367 240.555 165.78C241.068 165.179 241.67 164.709 242.359 164.372C243.048 164.035 243.804 163.866 244.625 163.866C245.432 163.866 246.18 164.035 246.869 164.372C247.573 164.709 248.174 165.179 248.673 165.78C249.186 166.367 249.582 167.071 249.861 167.892C250.154 168.699 250.301 169.586 250.301 170.554ZM247.331 170.554C247.331 169.967 247.265 169.432 247.133 168.948C247.001 168.449 246.81 168.024 246.561 167.672C246.326 167.32 246.04 167.049 245.703 166.858C245.38 166.667 245.021 166.572 244.625 166.572C244.214 166.572 243.84 166.667 243.503 166.858C243.18 167.049 242.894 167.32 242.645 167.672C242.41 168.024 242.227 168.449 242.095 168.948C241.963 169.432 241.897 169.967 241.897 170.554C241.897 171.141 241.963 171.676 242.095 172.16C242.227 172.644 242.41 173.062 242.645 173.414C242.894 173.766 243.18 174.037 243.503 174.228C243.84 174.419 244.214 174.514 244.625 174.514C245.021 174.514 245.38 174.419 245.703 174.228C246.04 174.037 246.326 173.766 246.561 173.414C246.81 173.062 247.001 172.644 247.133 172.16C247.265 171.676 247.331 171.141 247.331 170.554ZM263.815 170.554C263.815 171.522 263.668 172.417 263.375 173.238C263.096 174.045 262.7 174.749 262.187 175.35C261.688 175.937 261.087 176.399 260.383 176.736C259.693 177.059 258.945 177.22 258.139 177.22C257.317 177.22 256.562 177.059 255.873 176.736C255.183 176.399 254.582 175.937 254.069 175.35C253.57 174.749 253.174 174.045 252.881 173.238C252.602 172.417 252.463 171.522 252.463 170.554C252.463 169.586 252.602 168.699 252.881 167.892C253.174 167.071 253.57 166.367 254.069 165.78C254.582 165.179 255.183 164.709 255.873 164.372C256.562 164.035 257.317 163.866 258.139 163.866C258.945 163.866 259.693 164.035 260.383 164.372C261.087 164.709 261.688 165.179 262.187 165.78C262.7 166.367 263.096 167.071 263.375 167.892C263.668 168.699 263.815 169.586 263.815 170.554ZM260.845 170.554C260.845 169.967 260.779 169.432 260.647 168.948C260.515 168.449 260.324 168.024 260.075 167.672C259.84 167.32 259.554 167.049 259.217 166.858C258.894 166.667 258.535 166.572 258.139 166.572C257.728 166.572 257.354 166.667 257.017 166.858C256.694 167.049 256.408 167.32 256.159 167.672C255.924 168.024 255.741 168.449 255.609 168.948C255.477 169.432 255.411 169.967 255.411 170.554C255.411 171.141 255.477 171.676 255.609 172.16C255.741 172.644 255.924 173.062 256.159 173.414C256.408 173.766 256.694 174.037 257.017 174.228C257.354 174.419 257.728 174.514 258.139 174.514C258.535 174.514 258.894 174.419 259.217 174.228C259.554 174.037 259.84 173.766 260.075 173.414C260.324 173.062 260.515 172.644 260.647 172.16C260.779 171.676 260.845 171.141 260.845 170.554ZM269.298 167.826C268.785 167.826 268.308 167.738 267.868 167.562C267.428 167.386 267.047 167.151 266.724 166.858C266.402 166.55 266.145 166.198 265.954 165.802C265.764 165.391 265.668 164.951 265.668 164.482C265.668 164.027 265.764 163.595 265.954 163.184C266.145 162.773 266.402 162.421 266.724 162.128C267.047 161.835 267.428 161.6 267.868 161.424C268.308 161.248 268.785 161.16 269.298 161.16C269.797 161.16 270.266 161.248 270.706 161.424C271.161 161.6 271.55 161.835 271.872 162.128C272.195 162.421 272.452 162.773 272.642 163.184C272.833 163.595 272.928 164.027 272.928 164.482C272.928 164.951 272.833 165.391 272.642 165.802C272.452 166.198 272.195 166.55 271.872 166.858C271.55 167.151 271.161 167.386 270.706 167.562C270.266 167.738 269.797 167.826 269.298 167.826ZM269.298 166.352C269.518 166.352 269.716 166.301 269.892 166.198C270.083 166.095 270.252 165.963 270.398 165.802C270.545 165.626 270.655 165.428 270.728 165.208C270.816 164.973 270.86 164.731 270.86 164.482C270.86 163.969 270.706 163.536 270.398 163.184C270.09 162.817 269.724 162.634 269.298 162.634C269.078 162.634 268.873 162.685 268.682 162.788C268.506 162.891 268.345 163.03 268.198 163.206C268.052 163.367 267.934 163.558 267.846 163.778C267.773 163.998 267.736 164.233 267.736 164.482C267.736 164.995 267.89 165.435 268.198 165.802C268.506 166.169 268.873 166.352 269.298 166.352ZM277.79 177.22C277.277 177.22 276.8 177.132 276.36 176.956C275.92 176.78 275.539 176.545 275.216 176.252C274.894 175.959 274.637 175.614 274.446 175.218C274.256 174.807 274.16 174.367 274.16 173.898C274.16 173.429 274.256 172.996 274.446 172.6C274.637 172.189 274.894 171.837 275.216 171.544C275.539 171.236 275.92 170.994 276.36 170.818C276.8 170.642 277.277 170.554 277.79 170.554C278.304 170.554 278.78 170.642 279.22 170.818C279.66 170.994 280.042 171.236 280.364 171.544C280.702 171.837 280.958 172.189 281.134 172.6C281.325 172.996 281.42 173.429 281.42 173.898C281.42 174.367 281.325 174.807 281.134 175.218C280.958 175.614 280.702 175.959 280.364 176.252C280.042 176.545 279.66 176.78 279.22 176.956C278.78 177.132 278.304 177.22 277.79 177.22ZM277.79 175.746C278.01 175.746 278.208 175.695 278.384 175.592C278.575 175.489 278.744 175.357 278.89 175.196C279.037 175.02 279.147 174.822 279.22 174.602C279.308 174.382 279.352 174.147 279.352 173.898C279.352 173.634 279.308 173.392 279.22 173.172C279.132 172.937 279.015 172.739 278.868 172.578C278.736 172.402 278.575 172.27 278.384 172.182C278.194 172.079 277.996 172.028 277.79 172.028C277.57 172.028 277.365 172.079 277.174 172.182C276.998 172.285 276.837 172.424 276.69 172.6C276.544 172.761 276.426 172.959 276.338 173.194C276.265 173.414 276.228 173.649 276.228 173.898C276.228 174.411 276.382 174.851 276.69 175.218C276.998 175.57 277.365 175.746 277.79 175.746ZM266.9 175.966L273.104 168.728L278.824 161.204L280.166 162.392L274.16 169.498L268.242 177.154L266.9 175.966Z" fill="white"/>
<path fill-rule="evenodd" clip-rule="evenodd" d="M204.083 164H84.6739V164.012C80.9676 164.142 78 167.217 78 171C78 174.784 80.9676 177.857 84.6739 177.988V178H204.083C207.903 178 211 174.866 211 171C211 167.134 207.903 164 204.083 164Z" fill="#03E59F"/>
<path fill-rule="evenodd" clip-rule="evenodd" d="M-0.00012207 215.793C1.07239 226.539 11.7279 235 24.8399 235H334.934C348.053 235 358.701 226.539 359.779 215.793H-0.00012207Z" fill="#EFEFEF"/>
<path fill-rule="evenodd" clip-rule="evenodd" d="M132.462 222.201H227.317V215.793H132.462V222.201Z" fill="#CCCCCC"/>
</g>
<rect x="78" y="58.0001" width="205" height="62" rx="17" fill="white"/>
<g clip-path="url(#clip0)">
<path d="M98.0026 74.0831L115.574 71.6994L115.581 88.5838L98.0185 88.6834L98.0026 74.0833V74.0831ZM115.565 90.529L115.579 107.428L98.0162 105.023L98.0152 90.4158L115.565 90.529H115.565ZM117.695 71.3874L140.993 68.0001V88.369L117.695 88.5531V71.3875V71.3874ZM140.999 90.688L140.993 110.965L117.695 107.689L117.663 90.65L140.999 90.688Z" fill="#00ADEF"/>
</g>
<path d="M178.963 78.925L179.092 81.8959L177.025 85.7709L173.796 92.1L173.15 97.3959L175.475 104.888L180.771 107.858H188.779L196.271 102.175L199.629 93.2625L191.879 83.8334L189.683 78.5375L178.963 78.925Z" fill="#ECEFF1"/>
<path d="M197.304 86.2876C195.237 83.3167 193.558 81.5084 192.654 77.7626C191.75 74.0167 192.912 75.0501 192.137 71.8209C191.75 70.1417 191.104 68.9792 190.458 68.0751C189.683 67.1709 188.779 66.6542 188.262 66.5251C187.1 65.8792 184.387 64.8459 181.029 66.6542C177.542 68.4626 177.929 72.3376 178.575 80.2167C178.575 80.7334 178.446 81.3792 178.187 81.8959C177.671 83.0584 176.767 84.0917 175.992 84.9959C175.087 86.2876 174.183 87.5792 173.537 89.0001C171.987 91.9709 170.567 95.7167 170.954 97.1376C171.6 97.0084 179.737 109.408 179.737 109.667C180.254 109.538 182.45 109.538 184.387 109.538C187.1 109.408 188.65 109.279 190.846 109.796C190.846 109.408 190.717 109.021 190.717 108.633C190.717 107.858 190.846 107.213 190.975 106.308C191.104 105.663 191.233 105.017 191.362 104.242C190.071 105.404 187.746 106.696 185.55 107.083C183.612 107.471 180.383 106.825 178.833 104.888C178.962 104.888 179.221 104.888 179.35 104.758C179.737 104.629 180.125 104.5 180.254 104.242C180.642 103.596 180.383 102.95 180.125 102.563C179.867 102.175 177.929 100.754 177.025 99.9792C176.121 99.2042 175.604 98.8167 175.087 98.3001L174.054 97.2667C173.796 97.0084 173.667 96.7501 173.537 96.6209C173.279 95.9751 173.15 95.2001 173.279 94.1667C173.408 92.7459 173.925 91.5834 174.571 90.2917C174.829 89.7751 175.475 88.7417 175.475 88.7417C175.475 88.7417 173.279 94.1667 174.442 95.8459C174.442 95.8459 174.571 94.1667 175.087 92.4876C175.475 91.3251 176.121 89.6459 176.896 88.7417C177.671 87.8376 179.608 84.4792 179.737 82.4126C179.737 81.5084 179.867 80.6042 179.867 79.9584C179.35 79.4417 188.392 78.1501 188.908 79.5709C189.037 80.0876 190.846 84.7376 191.879 87.1917C192.396 88.3542 193.042 89.3876 193.429 90.6792C193.817 92.1001 194.075 94.0376 194.075 95.9751C194.075 96.3626 194.075 97.0084 193.946 97.6542C194.204 97.6542 199.242 92.2292 193.3 87.7084C193.3 87.7084 196.917 89.3876 197.046 92.7459C197.175 95.4584 196.012 97.6542 195.754 98.0417C195.883 98.0417 198.467 99.2042 198.596 99.2042C199.112 99.2042 200.146 98.8167 200.146 98.8167C200.275 98.4292 200.663 97.3959 200.663 97.0084C201.567 94.0376 199.371 89.2584 197.304 86.2876Z" fill="#263238"/>
<path d="M180.9 77.7625C181.827 77.7625 182.579 76.606 182.579 75.1792C182.579 73.7525 181.827 72.5959 180.9 72.5959C179.973 72.5959 179.221 73.7525 179.221 75.1792C179.221 76.606 179.973 77.7625 180.9 77.7625Z" fill="#ECEFF1"/>
<path d="M186.712 78.0209C187.925 78.0209 188.908 76.6908 188.908 75.0501C188.908 73.4093 187.925 72.0792 186.712 72.0792C185.5 72.0792 184.517 73.4093 184.517 75.0501C184.517 76.6908 185.5 78.0209 186.712 78.0209Z" fill="#ECEFF1"/>
<path d="M181.839 75.3557C181.732 74.5064 181.243 73.8687 180.748 73.9313C180.252 73.9939 179.938 74.7332 180.045 75.5825C180.152 76.4318 180.641 77.0695 181.136 77.0069C181.632 76.9442 181.946 76.205 181.839 75.3557Z" fill="#212121"/>
<path d="M186.583 77.2459C187.297 77.2459 187.875 76.4941 187.875 75.5667C187.875 74.6394 187.297 73.8876 186.583 73.8876C185.87 73.8876 185.292 74.6394 185.292 75.5667C185.292 76.4941 185.87 77.2459 186.583 77.2459Z" fill="#212121"/>
<path d="M203.762 103.983C203.246 103.725 202.342 103.338 201.567 102.175C201.179 101.529 201.308 99.7209 200.662 98.9459C200.275 98.4292 199.758 98.6876 199.629 98.6876C198.467 98.9459 195.754 100.754 193.946 98.6876C193.687 98.4292 193.3 98.0417 192.654 98.0417C192.008 98.0417 191.75 98.3001 191.492 98.8167C191.233 99.3334 191.233 99.7209 191.233 101.013C191.233 102.046 191.233 103.208 191.104 104.113C190.846 106.308 190.458 107.6 190.458 108.892C190.458 110.313 190.846 111.217 191.362 111.604C191.75 111.992 192.396 112.25 193.817 112.25C195.237 112.25 196.142 111.733 197.046 110.829C197.692 110.183 198.208 109.925 200.017 108.633C201.437 107.729 203.633 106.567 204.021 106.179C204.279 105.921 204.667 105.792 204.667 105.017C204.667 104.371 204.15 104.113 203.762 103.983Z" fill="#FFC107"/>
<path d="M177.8 104.371C176.508 102.304 176.379 101.917 175.475 100.625C174.7 99.3334 173.021 96.8793 171.987 96.8793C171.212 96.8793 170.825 97.2668 170.308 97.7834C169.792 98.3001 169.275 99.4626 168.371 100.108C167.596 100.754 165.4 100.625 164.883 101.4C164.367 102.175 165.4 103.338 165.4 105.275C165.4 106.05 164.754 106.567 164.625 107.083C164.496 107.729 164.367 108.117 164.625 108.633C165.142 109.408 165.787 109.667 170.179 110.571C172.504 111.088 174.7 112.379 176.121 112.508C177.542 112.638 179.996 112.508 179.996 109.021C180.125 106.954 178.962 106.438 177.8 104.371Z" fill="#FFC107"/>
<path d="M180.254 80.9918C179.479 80.4751 178.833 79.9584 178.833 79.1834C178.833 78.4084 179.35 78.1501 180.125 77.5043C180.254 77.3751 181.675 76.0834 183.096 76.0834C184.517 76.0834 186.196 76.9876 186.842 77.2459C188.004 77.5043 189.167 77.7626 189.037 78.6668C188.908 79.9584 188.779 80.2168 187.487 80.8626C186.583 81.1209 184.904 82.5418 183.742 82.5418C183.225 82.5418 182.45 82.5418 181.933 82.4126C181.546 82.2834 180.9 81.6376 180.254 80.9918Z" fill="#FFC107"/>
<path d="M179.996 79.9584C180.254 80.2168 180.642 80.4751 181.029 80.6043C181.288 80.7334 181.675 80.8626 181.675 80.8626H182.838C183.483 80.8626 184.388 80.6043 185.292 80.0876C186.196 79.7001 186.325 79.4418 186.971 79.1834C187.617 78.7959 188.263 78.4084 188.004 78.2793C187.746 78.1501 187.488 78.2793 186.583 78.7959C185.808 79.3126 185.163 79.5709 184.388 79.9584C184 80.0876 183.483 80.3459 183.096 80.3459H181.933C181.546 80.3459 181.288 80.2168 180.9 80.0876C180.642 79.9584 180.513 79.8293 180.383 79.8293C180.125 79.7001 179.608 79.1834 179.35 79.0543C179.35 79.0543 179.092 79.0543 179.221 79.1834L179.996 79.9584Z" fill="#634703"/>
<path d="M183.871 77.1167C184 77.375 184.258 77.375 184.388 77.5042C184.517 77.6334 184.646 77.6334 184.646 77.6334C184.775 77.5042 184.646 77.2459 184.517 77.2459C184.517 76.9875 183.871 76.9875 183.871 77.1167Z" fill="#634703"/>
<path d="M181.804 77.3751C181.804 77.5042 182.063 77.6334 182.063 77.5042C182.192 77.3751 182.321 77.2459 182.45 77.2459C182.708 77.1167 182.579 76.9875 182.192 76.9875C181.933 77.1167 181.933 77.2459 181.804 77.3751Z" fill="#634703"/>
<path d="M194.333 100.238V100.625C194.592 101.142 195.237 101.271 195.754 101.271C196.529 101.271 197.304 100.754 197.692 100.238C197.692 100.108 197.821 99.9793 197.95 99.8501C198.208 99.4626 198.337 99.2043 198.467 99.0751C198.467 99.0751 198.337 98.9459 198.337 98.8168C198.208 98.5584 197.821 98.3001 197.304 98.1709C196.917 98.0418 196.271 97.9126 196.012 97.9126C194.85 97.7834 194.204 98.1709 193.817 98.5584C193.817 98.5584 193.946 98.5584 193.946 98.6876C194.204 98.9459 194.333 99.2043 194.333 99.5918C194.462 99.8501 194.333 99.9793 194.333 100.238Z" fill="#455A64"/>
<path d="M259.77 88.3095C259.748 84.5389 261.428 81.6972 264.82 79.6019C262.923 76.8375 260.053 75.3172 256.269 75.0242C252.686 74.7367 248.767 77.1471 247.332 77.1471C245.815 77.1471 242.346 75.1237 239.617 75.1237C233.985 75.2121 228 79.6903 228 88.8015C228 91.4939 228.484 94.2748 229.452 97.1387C230.745 100.909 235.41 110.148 240.275 109.998C242.819 109.937 244.619 108.163 247.93 108.163C251.142 108.163 252.806 109.998 255.644 109.998C260.553 109.926 264.771 101.528 266 97.7468C259.417 94.59 259.77 88.503 259.77 88.3095ZM254.056 71.4471C256.813 68.1189 256.563 65.0892 256.481 64.0001C254.045 64.1438 251.229 65.6863 249.626 67.5826C247.859 69.6172 246.821 72.1327 247.043 74.9689C249.675 75.1734 252.078 73.7968 254.056 71.4471Z" fill="#FCCA2E"/>
<defs>
<clipPath id="clip0">
<rect x="98" y="68.0001" width="43" height="43" fill="white"/>
</clipPath>
</defs>
</svg>
