<svg width="161" height="86" viewBox="0 0 161 86" fill="none" xmlns="http://www.w3.org/2000/svg">
<rect width="161" height="86" rx="5" fill="#E4F5FB"/>
<circle cx="101.5" cy="43.5" r="28.5" fill="#31C5FF"/>
<circle cx="101.5" cy="43.5" r="22.5" fill="white"/>
<mask id="mask0_304_1805" style="mask-type:alpha" maskUnits="userSpaceOnUse" x="79" y="20" width="46" height="46">
<circle cx="101.716" cy="43.2854" r="22.4622" fill="white"/>
</mask>
<g mask="url(#mask0_304_1805)">
<path d="M100.052 19.9912H104.212V26.6467H100.052V19.9912Z" fill="#C0DDE7"/>
<path d="M100.052 59.924H104.212V66.5794H100.052V59.924Z" fill="#C0DDE7"/>
<path d="M125.426 41.2055V45.3652H118.771V41.2055H125.426Z" fill="#C0DDE7"/>
<path d="M85.4934 41.2055V45.3652H78.8379L78.8379 41.2055H85.4934Z" fill="#C0DDE7"/>
</g>
<rect x="101" y="31" width="2" height="15" fill="#191551"/>
<rect x="116" y="43" width="3" height="15" transform="rotate(90 116 43)" fill="#191551"/>
<circle cx="102" cy="44" r="3" fill="#191551"/>
<circle cx="59.5" cy="43.5" r="26.5" fill="#FFD22E" stroke="#EDB720" stroke-width="4"/>
<path d="M58.0975 54.1974L60.2996 54.233V60H58.0975V54.1974ZM58.3502 53.7346V33.0874L60.0469 32.8026V53.8058L58.3502 53.7346ZM58.0975 27H60.2996V32.4822L58.0975 32.767V27ZM66.1119 36.6828C65.8953 36.4218 65.5463 36.1489 65.065 35.8641C64.6077 35.5556 64.0662 35.2708 63.4404 35.0097C62.8387 34.7487 62.1769 34.5351 61.4549 34.3689C60.7329 34.2028 59.9868 34.1197 59.2166 34.1197C57.5319 34.1197 56.2804 34.4283 55.4621 35.0453C54.6438 35.6624 54.2347 36.5167 54.2347 37.6084C54.2347 38.4153 54.4633 39.0561 54.9206 39.5307C55.3779 39.9817 56.0758 40.3614 57.0144 40.6699C57.9531 40.9784 59.1324 41.3107 60.5523 41.6667C62.2852 42.0701 63.7894 42.5566 65.065 43.1262C66.3406 43.6721 67.3153 44.4078 67.9892 45.3333C68.6631 46.2589 69 47.4811 69 49C69 50.2816 68.7593 51.3851 68.278 52.3107C67.7966 53.2362 67.1227 53.9957 66.2563 54.589C65.3899 55.1586 64.3911 55.5858 63.2599 55.8706C62.1288 56.1316 60.9134 56.2621 59.6137 56.2621C58.3141 56.2621 57.0385 56.1316 55.787 55.8706C54.5355 55.6095 53.3321 55.2298 52.1769 54.7314C51.0457 54.2093 49.9868 53.5804 49 52.8447L50.8773 49.4272C51.1901 49.7357 51.6354 50.0798 52.213 50.4595C52.7906 50.8155 53.4765 51.1597 54.2708 51.4919C55.065 51.8242 55.9194 52.109 56.8339 52.3463C57.7726 52.5599 58.7232 52.6667 59.6859 52.6667C61.2744 52.6667 62.5018 52.3937 63.3682 51.8479C64.2347 51.2783 64.6679 50.4714 64.6679 49.4272C64.6679 48.5728 64.3791 47.8964 63.8014 47.3981C63.2479 46.8759 62.4416 46.4369 61.3827 46.0809C60.3478 45.7249 59.0963 45.3689 57.6282 45.0129C55.9434 44.562 54.5355 44.0755 53.4043 43.5534C52.2732 43.0076 51.4188 42.3193 50.8412 41.4887C50.2876 40.6343 50.0108 39.5545 50.0108 38.2492C50.0108 36.5879 50.42 35.1877 51.2383 34.0485C52.0566 32.8857 53.1637 32.0194 54.5596 31.4498C55.9795 30.8565 57.556 30.5599 59.2888 30.5599C60.4681 30.5599 61.5752 30.6904 62.6101 30.9515C63.645 31.1888 64.6077 31.521 65.4982 31.9482C66.4128 32.3754 67.231 32.8619 67.9531 33.4078L66.1119 36.6828Z" fill="#EDB720"/>
</svg>
