<svg width="332" height="261" viewBox="0 0 332 261" fill="none" xmlns="http://www.w3.org/2000/svg">
<g clip-path="url(#clip0)">
<g filter="url(#filter0_d)">
<path d="M176.4 114.941C176.4 111.621 179.1 108.905 182.4 108.905H321.5C324.8 108.905 327.5 111.621 327.5 114.941V261H331.9V111.118C331.9 100.053 322.9 91 311.9 91H192C181 91 172 100.053 172 111.118V261H176.4V114.941ZM276 97.2367C277.5 97.2367 278.7 98.4438 278.7 99.9527C278.7 101.462 277.5 102.669 276 102.669C274.5 102.669 273.3 101.462 273.3 99.9527C273.3 98.4438 274.5 97.2367 276 97.2367ZM236.9 97.2367H267.1C268.6 97.2367 269.8 98.4438 269.8 99.9527C269.8 101.462 268.6 102.669 267.1 102.669H236.9C235.4 102.669 234.2 101.462 234.2 99.9527C234.2 98.4438 235.4 97.2367 236.9 97.2367ZM228 97.2367C229.5 97.2367 230.7 98.4438 230.7 99.9527C230.7 101.462 229.5 102.669 228 102.669C226.5 102.669 225.3 101.462 225.3 99.9527C225.3 98.4438 226.5 97.2367 228 97.2367Z" fill="white"/>
</g>
<path d="M321.815 108.905H182.615C179.315 108.905 176.615 111.621 176.615 114.941V261H327.715V114.941C327.815 111.621 325.115 108.905 321.815 108.905Z" fill="#191551"/>
<path d="M236.9 102.669H267.1C268.6 102.669 269.8 101.462 269.8 99.9527C269.8 98.4438 268.6 97.2367 267.1 97.2367H236.9C235.4 97.2367 234.2 98.4438 234.2 99.9527C234.2 101.462 235.4 102.669 236.9 102.669Z" fill="#CCCCCC"/>
<path d="M228 102.669C229.5 102.669 230.7 101.462 230.7 99.9527C230.7 98.4438 229.5 97.2367 228 97.2367C226.5 97.2367 225.3 98.4438 225.3 99.9527C225.3 101.462 226.5 102.669 228 102.669Z" fill="#CCCCCC"/>
<path d="M276 102.669C277.5 102.669 278.7 101.462 278.7 99.9527C278.7 98.4438 277.5 97.2367 276 97.2367C274.5 97.2367 273.3 98.4438 273.3 99.9527C273.3 101.462 274.5 102.669 276 102.669Z" fill="#CCCCCC"/>
<path d="M239.153 173.055L238.816 174C228.904 170.559 223.611 159.765 227.05 149.813C230.488 139.862 241.277 134.633 251.189 138.04C258.741 140.638 263.865 147.688 264 155.683H262.955C261.438 146.71 252.942 140.705 243.974 142.223C235.006 143.741 229.005 152.276 230.556 161.249C231.399 166.309 234.601 170.66 239.153 173.055Z" fill="url(#paint0_linear)"/>
<path d="M261.916 137.77L262.259 137C276.763 143.63 283.038 160.473 276.283 174.637C269.528 188.801 252.246 194.963 237.742 188.333C226.7 183.31 220.048 172.059 221.111 160.205L222.037 160.306C222.791 174.235 234.964 184.884 249.229 184.147C263.493 183.41 274.397 171.523 273.643 157.593C273.197 149.523 268.842 142.19 261.916 137.77Z" fill="url(#paint1_linear)"/>
<path d="M224.172 218.4C223.038 219.533 221.718 220.1 220.212 220.1C219.278 220.1 218.398 219.913 217.572 219.54C216.758 219.167 216.045 218.653 215.432 218C214.832 217.347 214.352 216.58 213.992 215.7C213.645 214.807 213.472 213.847 213.472 212.82C213.472 211.847 213.645 210.933 213.992 210.08C214.352 209.213 214.838 208.46 215.452 207.82C216.078 207.167 216.812 206.653 217.652 206.28C218.492 205.893 219.405 205.7 220.392 205.7C221.725 205.7 222.865 205.98 223.812 206.54C224.772 207.1 225.492 207.853 225.972 208.8L223.912 210.32C223.552 209.613 223.045 209.073 222.392 208.7C221.752 208.327 221.052 208.14 220.292 208.14C219.692 208.14 219.138 208.267 218.632 208.52C218.138 208.773 217.712 209.12 217.352 209.56C217.005 210 216.732 210.507 216.532 211.08C216.345 211.653 216.252 212.26 216.252 212.9C216.252 213.567 216.358 214.193 216.572 214.78C216.785 215.353 217.078 215.853 217.452 216.28C217.825 216.707 218.265 217.047 218.772 217.3C219.292 217.54 219.852 217.66 220.452 217.66C221.825 217.66 223.065 217.013 224.172 215.72V214.72H221.312V212.7H226.452V220H224.172V218.4ZM233.404 220.2C232.564 220.2 231.804 220.06 231.124 219.78C230.444 219.487 229.864 219.093 229.384 218.6C228.904 218.107 228.53 217.533 228.264 216.88C228.01 216.227 227.884 215.54 227.884 214.82C227.884 214.073 228.01 213.373 228.264 212.72C228.517 212.053 228.884 211.473 229.364 210.98C229.844 210.473 230.424 210.073 231.104 209.78C231.797 209.487 232.57 209.34 233.424 209.34C234.277 209.34 235.037 209.487 235.704 209.78C236.384 210.073 236.957 210.467 237.424 210.96C237.904 211.453 238.264 212.027 238.504 212.68C238.757 213.333 238.884 214.013 238.884 214.72C238.884 214.893 238.877 215.06 238.864 215.22C238.864 215.38 238.85 215.513 238.824 215.62H230.724C230.764 216.033 230.864 216.4 231.024 216.72C231.184 217.04 231.39 217.313 231.644 217.54C231.897 217.767 232.184 217.94 232.504 218.06C232.824 218.18 233.157 218.24 233.504 218.24C234.037 218.24 234.537 218.113 235.004 217.86C235.484 217.593 235.81 217.247 235.984 216.82L238.284 217.46C237.897 218.26 237.277 218.92 236.424 219.44C235.584 219.947 234.577 220.2 233.404 220.2ZM236.124 213.88C236.057 213.093 235.764 212.467 235.244 212C234.737 211.52 234.117 211.28 233.384 211.28C233.024 211.28 232.684 211.347 232.364 211.48C232.057 211.6 231.784 211.773 231.544 212C231.304 212.227 231.104 212.5 230.944 212.82C230.797 213.14 230.71 213.493 230.684 213.88H236.124ZM245.356 220.2C244.503 220.2 243.736 220.053 243.056 219.76C242.376 219.467 241.796 219.073 241.316 218.58C240.85 218.073 240.49 217.493 240.236 216.84C239.983 216.187 239.856 215.5 239.856 214.78C239.856 214.047 239.983 213.353 240.236 212.7C240.49 212.047 240.85 211.473 241.316 210.98C241.796 210.473 242.376 210.073 243.056 209.78C243.736 209.487 244.503 209.34 245.356 209.34C246.21 209.34 246.97 209.487 247.636 209.78C248.316 210.073 248.89 210.473 249.356 210.98C249.836 211.473 250.203 212.047 250.456 212.7C250.71 213.353 250.836 214.047 250.836 214.78C250.836 215.5 250.71 216.187 250.456 216.84C250.203 217.493 249.843 218.073 249.376 218.58C248.91 219.073 248.336 219.467 247.656 219.76C246.976 220.053 246.21 220.2 245.356 220.2ZM242.616 214.78C242.616 215.247 242.683 215.673 242.816 216.06C242.963 216.433 243.156 216.76 243.396 217.04C243.65 217.32 243.943 217.54 244.276 217.7C244.61 217.847 244.97 217.92 245.356 217.92C245.743 217.92 246.103 217.847 246.436 217.7C246.77 217.54 247.056 217.32 247.296 217.04C247.55 216.76 247.743 216.427 247.876 216.04C248.023 215.653 248.096 215.227 248.096 214.76C248.096 214.307 248.023 213.887 247.876 213.5C247.743 213.113 247.55 212.78 247.296 212.5C247.056 212.22 246.77 212.007 246.436 211.86C246.103 211.7 245.743 211.62 245.356 211.62C244.97 211.62 244.61 211.7 244.276 211.86C243.943 212.02 243.65 212.24 243.396 212.52C243.156 212.8 242.963 213.133 242.816 213.52C242.683 213.907 242.616 214.327 242.616 214.78ZM261.268 209.52C261.174 209.427 261.001 209.3 260.748 209.14C260.508 208.98 260.208 208.827 259.848 208.68C259.501 208.52 259.121 208.387 258.708 208.28C258.294 208.173 257.874 208.12 257.448 208.12C256.688 208.12 256.121 208.26 255.748 208.54C255.374 208.82 255.188 209.213 255.188 209.72C255.188 210.013 255.254 210.26 255.388 210.46C255.534 210.647 255.741 210.813 256.008 210.96C256.274 211.107 256.608 211.24 257.008 211.36C257.421 211.48 257.894 211.607 258.428 211.74C259.121 211.927 259.748 212.127 260.308 212.34C260.881 212.553 261.361 212.82 261.748 213.14C262.148 213.46 262.454 213.847 262.668 214.3C262.881 214.74 262.988 215.287 262.988 215.94C262.988 216.7 262.841 217.353 262.548 217.9C262.268 218.433 261.881 218.867 261.388 219.2C260.908 219.533 260.348 219.78 259.708 219.94C259.081 220.087 258.421 220.16 257.728 220.16C256.661 220.16 255.608 220 254.568 219.68C253.528 219.36 252.594 218.907 251.768 218.32L252.988 215.94C253.108 216.06 253.321 216.22 253.628 216.42C253.948 216.607 254.321 216.8 254.748 217C255.174 217.187 255.648 217.347 256.168 217.48C256.688 217.613 257.221 217.68 257.768 217.68C259.288 217.68 260.048 217.193 260.048 216.22C260.048 215.913 259.961 215.653 259.788 215.44C259.614 215.227 259.368 215.04 259.048 214.88C258.728 214.72 258.341 214.573 257.888 214.44C257.434 214.307 256.928 214.16 256.368 214C255.688 213.813 255.094 213.613 254.588 213.4C254.094 213.173 253.681 212.913 253.348 212.62C253.014 212.313 252.761 211.967 252.588 211.58C252.428 211.18 252.348 210.707 252.348 210.16C252.348 209.44 252.481 208.8 252.748 208.24C253.014 207.68 253.381 207.213 253.848 206.84C254.328 206.467 254.881 206.187 255.508 206C256.134 205.8 256.808 205.7 257.528 205.7C258.528 205.7 259.448 205.86 260.288 206.18C261.128 206.487 261.861 206.853 262.488 207.28L261.268 209.52ZM268.013 220.2C266.933 220.2 266.113 219.853 265.553 219.16C264.993 218.467 264.713 217.44 264.713 216.08V209.52H267.393V215.5C267.393 217.113 267.973 217.92 269.133 217.92C269.653 217.92 270.153 217.767 270.633 217.46C271.127 217.14 271.527 216.66 271.833 216.02V209.52H274.513V216.92C274.513 217.2 274.56 217.4 274.653 217.52C274.76 217.64 274.927 217.707 275.153 217.72V220C274.887 220.053 274.66 220.087 274.473 220.1C274.3 220.113 274.14 220.12 273.993 220.12C273.513 220.12 273.12 220.013 272.813 219.8C272.52 219.573 272.347 219.267 272.293 218.88L272.233 218.04C271.767 218.76 271.167 219.3 270.433 219.66C269.7 220.02 268.893 220.2 268.013 220.2ZM283.417 211.84C282.603 211.853 281.877 212.013 281.237 212.32C280.597 212.613 280.137 213.06 279.857 213.66V220H277.177V209.52H279.637V211.76C279.823 211.4 280.043 211.08 280.297 210.8C280.55 210.507 280.823 210.253 281.117 210.04C281.41 209.827 281.703 209.667 281.997 209.56C282.303 209.44 282.597 209.38 282.877 209.38C283.023 209.38 283.13 209.38 283.197 209.38C283.277 209.38 283.35 209.387 283.417 209.4V211.84ZM285.551 220V212.12H284.171V210.08H285.551V209.44C285.551 208.133 285.864 207.1 286.491 206.34C287.118 205.58 287.971 205.2 289.051 205.2C289.904 205.2 290.764 205.407 291.631 205.82L291.091 207.84C290.891 207.733 290.651 207.647 290.371 207.58C290.104 207.5 289.858 207.46 289.631 207.46C288.698 207.46 288.231 208.087 288.231 209.34V210.08H290.791V212.12H288.231V220H285.551Z" fill="white"/>
</g>
<g clip-path="url(#clip1)">
<g filter="url(#filter1_d)">
<path d="M6.765 36.7562C6.765 31.6598 10.9163 27.4899 15.99 27.4899H229.856C234.93 27.4899 239.081 31.6598 239.081 36.7562V261H245.846V30.8876C245.846 13.8994 232.009 0 215.096 0H30.75C13.8375 0 0 13.8994 0 30.8876V261H6.765V36.7562ZM159.9 9.57515C162.206 9.57515 164.051 11.4284 164.051 13.745C164.051 16.0615 162.206 17.9148 159.9 17.9148C157.594 17.9148 155.749 16.0615 155.749 13.745C155.749 11.4284 157.594 9.57515 159.9 9.57515ZM99.7838 9.57515H146.216C148.523 9.57515 150.368 11.4284 150.368 13.745C150.368 16.0615 148.523 17.9148 146.216 17.9148H99.7838C97.4775 17.9148 95.6325 16.0615 95.6325 13.745C95.6325 11.4284 97.4775 9.57515 99.7838 9.57515ZM86.1 9.57515C88.4063 9.57515 90.2513 11.4284 90.2513 13.745C90.2513 16.0615 88.4063 17.9148 86.1 17.9148C83.7938 17.9148 81.9488 16.0615 81.9488 13.745C81.9488 11.4284 83.7938 9.57515 86.1 9.57515Z" fill="white"/>
</g>
<path d="M230.341 27.4899H16.3212C11.2474 27.4899 7.09615 31.6598 7.09615 36.7562V261H239.412V36.7562C239.566 31.6598 235.415 27.4899 230.341 27.4899Z" fill="#191551"/>
<path d="M99.7837 17.9148H146.216C148.522 17.9148 150.367 16.0615 150.367 13.745C150.367 11.4284 148.522 9.57513 146.216 9.57513H99.7837C97.4775 9.57513 95.6325 11.4284 95.6325 13.745C95.6325 16.0615 97.4775 17.9148 99.7837 17.9148Z" fill="#CCCCCC"/>
<path d="M86.1 17.9148C88.4063 17.9148 90.2513 16.0615 90.2513 13.745C90.2513 11.4284 88.4063 9.57513 86.1 9.57513C83.7938 9.57513 81.9488 11.4284 81.9488 13.745C81.9488 16.0615 83.7938 17.9148 86.1 17.9148Z" fill="#CCCCCC"/>
<path d="M159.9 17.9148C162.206 17.9148 164.051 16.0615 164.051 13.745C164.051 11.4284 162.206 9.57513 159.9 9.57513C157.594 9.57513 155.749 11.4284 155.749 13.745C155.749 16.0615 157.594 17.9148 159.9 17.9148Z" fill="#CCCCCC"/>
<path d="M167.6 216.338V219H158.668V216.338H161.792V209.672C161.66 209.848 161.448 210.031 161.154 210.222C160.876 210.398 160.568 210.567 160.23 210.728C159.893 210.889 159.541 211.021 159.174 211.124C158.822 211.227 158.507 211.278 158.228 211.278V208.528C158.492 208.528 158.815 208.447 159.196 208.286C159.578 208.11 159.952 207.905 160.318 207.67C160.685 207.435 161 207.208 161.264 206.988C161.543 206.753 161.719 206.57 161.792 206.438H164.806V216.338H167.6ZM180.561 212.554C180.561 213.522 180.415 214.417 180.121 215.238C179.843 216.045 179.447 216.749 178.933 217.35C178.435 217.937 177.833 218.399 177.129 218.736C176.44 219.059 175.692 219.22 174.885 219.22C174.064 219.22 173.309 219.059 172.619 218.736C171.93 218.399 171.329 217.937 170.815 217.35C170.317 216.749 169.921 216.045 169.627 215.238C169.349 214.417 169.209 213.522 169.209 212.554C169.209 211.586 169.349 210.699 169.627 209.892C169.921 209.071 170.317 208.367 170.815 207.78C171.329 207.179 171.93 206.709 172.619 206.372C173.309 206.035 174.064 205.866 174.885 205.866C175.692 205.866 176.44 206.035 177.129 206.372C177.833 206.709 178.435 207.179 178.933 207.78C179.447 208.367 179.843 209.071 180.121 209.892C180.415 210.699 180.561 211.586 180.561 212.554ZM177.591 212.554C177.591 211.967 177.525 211.432 177.393 210.948C177.261 210.449 177.071 210.024 176.821 209.672C176.587 209.32 176.301 209.049 175.963 208.858C175.641 208.667 175.281 208.572 174.885 208.572C174.475 208.572 174.101 208.667 173.763 208.858C173.441 209.049 173.155 209.32 172.905 209.672C172.671 210.024 172.487 210.449 172.355 210.948C172.223 211.432 172.157 211.967 172.157 212.554C172.157 213.141 172.223 213.676 172.355 214.16C172.487 214.644 172.671 215.062 172.905 215.414C173.155 215.766 173.441 216.037 173.763 216.228C174.101 216.419 174.475 216.514 174.885 216.514C175.281 216.514 175.641 216.419 175.963 216.228C176.301 216.037 176.587 215.766 176.821 215.414C177.071 215.062 177.261 214.644 177.393 214.16C177.525 213.676 177.591 213.141 177.591 212.554ZM194.075 212.554C194.075 213.522 193.928 214.417 193.635 215.238C193.356 216.045 192.96 216.749 192.447 217.35C191.948 217.937 191.347 218.399 190.643 218.736C189.954 219.059 189.206 219.22 188.399 219.22C187.578 219.22 186.822 219.059 186.133 218.736C185.444 218.399 184.842 217.937 184.329 217.35C183.83 216.749 183.434 216.045 183.141 215.238C182.862 214.417 182.723 213.522 182.723 212.554C182.723 211.586 182.862 210.699 183.141 209.892C183.434 209.071 183.83 208.367 184.329 207.78C184.842 207.179 185.444 206.709 186.133 206.372C186.822 206.035 187.578 205.866 188.399 205.866C189.206 205.866 189.954 206.035 190.643 206.372C191.347 206.709 191.948 207.179 192.447 207.78C192.96 208.367 193.356 209.071 193.635 209.892C193.928 210.699 194.075 211.586 194.075 212.554ZM191.105 212.554C191.105 211.967 191.039 211.432 190.907 210.948C190.775 210.449 190.584 210.024 190.335 209.672C190.1 209.32 189.814 209.049 189.477 208.858C189.154 208.667 188.795 208.572 188.399 208.572C187.988 208.572 187.614 208.667 187.277 208.858C186.954 209.049 186.668 209.32 186.419 209.672C186.184 210.024 186.001 210.449 185.869 210.948C185.737 211.432 185.671 211.967 185.671 212.554C185.671 213.141 185.737 213.676 185.869 214.16C186.001 214.644 186.184 215.062 186.419 215.414C186.668 215.766 186.954 216.037 187.277 216.228C187.614 216.419 187.988 216.514 188.399 216.514C188.795 216.514 189.154 216.419 189.477 216.228C189.814 216.037 190.1 215.766 190.335 215.414C190.584 215.062 190.775 214.644 190.907 214.16C191.039 213.676 191.105 213.141 191.105 212.554ZM199.559 209.826C199.045 209.826 198.569 209.738 198.129 209.562C197.689 209.386 197.307 209.151 196.985 208.858C196.662 208.55 196.405 208.198 196.215 207.802C196.024 207.391 195.929 206.951 195.929 206.482C195.929 206.027 196.024 205.595 196.215 205.184C196.405 204.773 196.662 204.421 196.985 204.128C197.307 203.835 197.689 203.6 198.129 203.424C198.569 203.248 199.045 203.16 199.559 203.16C200.057 203.16 200.527 203.248 200.967 203.424C201.421 203.6 201.81 203.835 202.133 204.128C202.455 204.421 202.712 204.773 202.903 205.184C203.093 205.595 203.189 206.027 203.189 206.482C203.189 206.951 203.093 207.391 202.903 207.802C202.712 208.198 202.455 208.55 202.133 208.858C201.81 209.151 201.421 209.386 200.967 209.562C200.527 209.738 200.057 209.826 199.559 209.826ZM199.559 208.352C199.779 208.352 199.977 208.301 200.153 208.198C200.343 208.095 200.512 207.963 200.659 207.802C200.805 207.626 200.915 207.428 200.989 207.208C201.077 206.973 201.121 206.731 201.121 206.482C201.121 205.969 200.967 205.536 200.659 205.184C200.351 204.817 199.984 204.634 199.559 204.634C199.339 204.634 199.133 204.685 198.943 204.788C198.767 204.891 198.605 205.03 198.459 205.206C198.312 205.367 198.195 205.558 198.107 205.778C198.033 205.998 197.997 206.233 197.997 206.482C197.997 206.995 198.151 207.435 198.459 207.802C198.767 208.169 199.133 208.352 199.559 208.352ZM208.051 219.22C207.537 219.22 207.061 219.132 206.621 218.956C206.181 218.78 205.799 218.545 205.477 218.252C205.154 217.959 204.897 217.614 204.707 217.218C204.516 216.807 204.421 216.367 204.421 215.898C204.421 215.429 204.516 214.996 204.707 214.6C204.897 214.189 205.154 213.837 205.477 213.544C205.799 213.236 206.181 212.994 206.621 212.818C207.061 212.642 207.537 212.554 208.051 212.554C208.564 212.554 209.041 212.642 209.481 212.818C209.921 212.994 210.302 213.236 210.625 213.544C210.962 213.837 211.219 214.189 211.395 214.6C211.585 214.996 211.681 215.429 211.681 215.898C211.681 216.367 211.585 216.807 211.395 217.218C211.219 217.614 210.962 217.959 210.625 218.252C210.302 218.545 209.921 218.78 209.481 218.956C209.041 219.132 208.564 219.22 208.051 219.22ZM208.051 217.746C208.271 217.746 208.469 217.695 208.645 217.592C208.835 217.489 209.004 217.357 209.151 217.196C209.297 217.02 209.407 216.822 209.481 216.602C209.569 216.382 209.613 216.147 209.613 215.898C209.613 215.634 209.569 215.392 209.481 215.172C209.393 214.937 209.275 214.739 209.129 214.578C208.997 214.402 208.835 214.27 208.645 214.182C208.454 214.079 208.256 214.028 208.051 214.028C207.831 214.028 207.625 214.079 207.435 214.182C207.259 214.285 207.097 214.424 206.951 214.6C206.804 214.761 206.687 214.959 206.599 215.194C206.525 215.414 206.489 215.649 206.489 215.898C206.489 216.411 206.643 216.851 206.951 217.218C207.259 217.57 207.625 217.746 208.051 217.746ZM197.161 217.966L203.365 210.728L209.085 203.204L210.427 204.392L204.421 211.498L198.503 219.154L197.161 217.966Z" fill="white"/>
<path fill-rule="evenodd" clip-rule="evenodd" d="M134.394 207H30.5181V207.014C27.2939 207.16 24.7123 210.619 24.7123 214.875C24.7123 219.131 27.2939 222.589 30.5181 222.736V222.75H134.394C137.717 222.75 140.411 219.224 140.411 214.875C140.411 210.526 137.717 207 134.394 207Z" fill="#03E59F"/>
<path fill-rule="evenodd" clip-rule="evenodd" d="M33.6986 133.274C47.7868 96.7963 83.2421 70.875 124.685 70.875C166.128 70.875 201.583 96.7963 215.671 133.274L170.237 150.75C163.193 132.453 145.465 119.551 124.685 119.551C103.905 119.551 86.1772 132.453 79.1331 150.75L33.6986 133.274Z" fill="#FCCA2E"/>
<path fill-rule="evenodd" clip-rule="evenodd" d="M214.548 96.75L130.202 179.492C128.088 180.665 125.27 179.727 124.096 177.498C122.921 175.269 123.743 172.454 125.975 171.398L214.548 96.75Z" fill="white"/>
</g>
<defs>
<filter id="filter0_d" x="168" y="91" width="167.9" height="178" filterUnits="userSpaceOnUse" color-interpolation-filters="sRGB">
<feFlood flood-opacity="0" result="BackgroundImageFix"/>
<feColorMatrix in="SourceAlpha" type="matrix" values="0 0 0 0 0 0 0 0 0 0 0 0 0 0 0 0 0 0 127 0"/>
<feOffset dy="4"/>
<feGaussianBlur stdDeviation="2"/>
<feColorMatrix type="matrix" values="0 0 0 0 0 0 0 0 0 0 0 0 0 0 0 0 0 0 0.25 0"/>
<feBlend mode="normal" in2="BackgroundImageFix" result="effect1_dropShadow"/>
<feBlend mode="normal" in="SourceGraphic" in2="effect1_dropShadow" result="shape"/>
</filter>
<filter id="filter1_d" x="-4" y="0" width="253.846" height="269" filterUnits="userSpaceOnUse" color-interpolation-filters="sRGB">
<feFlood flood-opacity="0" result="BackgroundImageFix"/>
<feColorMatrix in="SourceAlpha" type="matrix" values="0 0 0 0 0 0 0 0 0 0 0 0 0 0 0 0 0 0 127 0"/>
<feOffset dy="4"/>
<feGaussianBlur stdDeviation="2"/>
<feColorMatrix type="matrix" values="0 0 0 0 0 0 0 0 0 0 0 0 0 0 0 0 0 0 0.25 0"/>
<feBlend mode="normal" in2="BackgroundImageFix" result="effect1_dropShadow"/>
<feBlend mode="normal" in="SourceGraphic" in2="effect1_dropShadow" result="shape"/>
</filter>
<linearGradient id="paint0_linear" x1="245.007" y1="136.988" x2="245.007" y2="173.982" gradientUnits="userSpaceOnUse">
<stop stop-color="#7A5FFF"/>
<stop offset="1" stop-color="#01FF89"/>
</linearGradient>
<linearGradient id="paint1_linear" x1="249.999" y1="137.031" x2="249.999" y2="191.011" gradientUnits="userSpaceOnUse">
<stop stop-color="#7A5FFF"/>
<stop offset="1" stop-color="#01FF89"/>
</linearGradient>
<clipPath id="clip0">
<rect x="172" y="91" width="160" height="170" fill="white"/>
</clipPath>
<clipPath id="clip1">
<rect width="246" height="261" fill="white"/>
</clipPath>
</defs>
</svg>
