<?xml version="1.0" encoding="UTF-8"?>
<svg width="258px" height="576px" viewBox="0 0 258 576" version="1.1" xmlns="http://www.w3.org/2000/svg" xmlns:xlink="http://www.w3.org/1999/xlink">
    <!-- Generator: Sketch 54.1 (76490) - https://sketchapp.com -->
    <title>images/Product_DataCenter</title>
    <desc>Created with Sketch.</desc>
    <defs>
        <polygon id="path-1" points="0.436074226 0.239198617 98.2214809 0.239198617 98.2214809 134.573258 0.436074226 134.573258"></polygon>
        <path d="M0.0103034648,1.45230584 L0.126451613,12.3014702 C0.178905615,16.752786 3.41232019,22.2434769 7.31639665,24.5132072 L7.31639665,24.5132072 L14.3377395,28.5899074 C19.028626,31.1644722 23.6558184,33.849218 28.2755173,36.5486546 L28.2755173,36.5486546 C41.3103369,44.158495 54.3414098,51.7756808 67.3762294,59.3891938 L67.3762294,59.3891938 L90.1225329,72.5962334 C91.0929319,73.1618296 92.0221171,73.4740094 92.8688746,73.5584816 L92.8688746,73.5584816 C93.1835986,73.5694997 93.4983226,73.565827 93.8167933,73.4813548 L93.8167933,73.4813548 C95.7126308,72.9818672 96.563135,70.8553722 97.0277276,68.9822938 L97.0277276,68.9822938 C97.1026619,68.6737867 97.1513692,68.3579343 97.2225568,68.0457545 L97.2225568,68.0457545 L97.2225568,21.4869001 C96.904086,20.6421784 96.5069343,19.8341838 95.8849797,19.1584064 L95.8849797,19.1584064 C94.0078757,17.1163836 90.8568889,16.6242414 88.1030538,17.1641288 L88.1030538,17.1641288 C85.3529654,17.7113615 82.8726404,19.1106613 80.3810753,20.3667257 L80.3810753,20.3667257 C76.7992162,22.1736955 73.0112879,23.7419396 69.0060502,24.1092099 L69.0060502,24.1092099 C64.993319,24.4764802 60.7108244,23.5068867 57.7883871,20.7927592 L57.7883871,20.7927592 C54.8134958,18.027214 53.2960765,13.5942616 49.496908,12.0664172 L49.496908,12.0664172 C46.124865,10.7111898 42.359417,12.2133253 38.8787192,13.2820818 L38.8787192,13.2820818 C31.2091947,15.6326117 21.8723823,15.4453038 16.2598041,9.8113776 L16.2598041,9.8113776 C12.9776822,6.51329041 10.9357228,1.44863313 6.37597133,0.328458753 L6.37597133,0.328458753 C6.09871446,0.262350101 5.81771087,0.21093226 5.540454,0.174205231 L5.540454,0.174205231 C5.2557037,0.141150905 4.97095341,0.126460094 4.68994982,0.126460094 L4.68994982,0.126460094 C3.06762246,0.126460094 1.44904182,0.647983903 0.0103034648,1.45230584" id="path-3"></path>
        <linearGradient x1="-0.00343868034%" y1="49.9998441%" x2="99.9988295%" y2="49.9998441%" id="linearGradient-5">
            <stop stop-color="#008EC6" offset="0%"></stop>
            <stop stop-color="#1CAFF4" offset="100%"></stop>
        </linearGradient>
        <path d="M0.171412186,1.91766185 C1.26170609,1.76204274 2.54682915,2.04734444 3.92936679,2.84767128 L3.92936679,2.84767128 L87.6309677,51.4490006 C91.5425376,53.7240038 94.7459785,59.2521873 94.7459785,63.7392049 L94.7459785,63.7392049 L94.7459785,131.211204 C94.7459785,132.578429 94.4462413,133.693699 93.925448,134.519962 L93.925448,134.519962 C95.8999665,134.22725 97.2225568,132.463567 97.2225568,129.580908 L97.2225568,129.580908 L97.2225568,62.1089095 C97.2225568,57.6218919 94.0191159,52.0900031 90.107546,49.8187052 L90.107546,49.8187052 L6.40594504,1.21737586 C5.25945042,0.554142049 4.18039665,0.239198617 3.22873118,0.239198617 L3.22873118,0.239198617 C1.92112784,0.239198617 0.849567503,0.828328096 0.171412186,1.91766185" id="path-6"></path>
        <linearGradient x1="0.000764390225%" y1="50.0002492%" x2="99.9988349%" y2="50.0002492%" id="linearGradient-8">
            <stop stop-color="#D3DAED" offset="0%"></stop>
            <stop stop-color="#B1B8F9" offset="100%"></stop>
        </linearGradient>
        <path d="M0.171412186,2.1831907 C1.26170609,2.0229907 2.54682915,2.30986047 3.92936679,3.11831163 L3.92936679,3.11831163 L87.6309677,51.9830372 C91.5425376,54.2705442 94.7459785,59.8328372 94.7459785,64.3445163 L94.7459785,64.3445163 L94.7459785,86.2434837 C94.7459785,87.6182233 94.4462413,88.7433488 93.925448,89.5741535 L93.925448,89.5741535 C95.8999665,89.2798326 97.2225568,87.5027302 97.2225568,84.6042279 L97.2225568,84.6042279 L97.2225568,62.7015349 C97.2225568,58.1898558 94.0191159,52.6275628 90.107546,50.3437814 L90.107546,50.3437814 L6.40594504,1.47533023 C5.25945042,0.808451163 4.18039665,0.491776744 3.22873118,0.491776744 L3.22873118,0.491776744 C1.92112784,0.491776744 0.849567503,1.08786977 0.171412186,2.1831907" id="path-9"></path>
        <linearGradient x1="0.000764390225%" y1="50.0004211%" x2="99.9988349%" y2="50.0004211%" id="linearGradient-11">
            <stop stop-color="#D3DAED" offset="0%"></stop>
            <stop stop-color="#B1B8F9" offset="100%"></stop>
        </linearGradient>
        <path d="M14.1684656,56.1781453 L24.1213122,61.9057978 L24.1213122,6.60906504 L14.1684656,0.877698171 L14.1684656,56.1781453 Z M0.285883598,48.0844004 L10.242455,53.9160569 L10.242455,17.2323374 L0.285883598,11.5009705 L0.285883598,48.0844004 Z M28.0473228,64.1678862 L38.0038942,69.899253 L38.0038942,30.7528659 L28.0473228,25.021499 L28.0473228,64.1678862 Z M41.9299048,72.1613415 L51.8864762,77.8927083 L51.8864762,51.9994106 L41.9299048,46.2717581 L41.9299048,72.1613415 Z M55.8124868,80.1510823 L65.7653333,85.8824492 L65.7653333,65.5236535 L55.8124868,59.7885722 L55.8124868,80.1510823 Z" id="path-12"></path>
        <linearGradient x1="100.003984%" y1="50.001099%" x2="-0.002843734%" y2="50.001099%" id="linearGradient-14">
            <stop stop-color="#008EC6" offset="0%"></stop>
            <stop stop-color="#1CAFF4" offset="100%"></stop>
        </linearGradient>
        <path d="M24.2380205,2.00398507 C17.1126598,4.2961194 8.18378462,6.96656716 6.90136752,15.6084328 L6.90136752,15.6084328 C6.57983932,17.8004254 6.81267009,20.0257985 6.82006154,22.2400448 L6.82006154,22.2400448 C6.84593162,27.3398582 5.66329915,32.4433806 3.3978188,37.0128134 L3.3978188,37.0128134 C0.160362393,43.5405746 -1.39553846,47.7020224 2.03779145,54.4782836 L2.03779145,54.4782836 C4.0667453,58.4913731 5.3639453,64.7372537 9.51055043,67.2 L9.51055043,67.2 C13.7828103,69.7369254 22.8188615,71.3132313 26.906335,68.2051269 L26.906335,68.2051269 C32.5977538,63.8730672 35.4730291,53.3841418 34.9519316,46.6486791 L34.9519316,46.6486791 C34.3864855,39.3754179 30.7646735,32.0391045 32.959935,25.0848134 L32.959935,25.0848134 C34.338441,20.734209 40.1702974,15.845806 43.4668855,12.7933358 L43.4668855,12.7933358 C46.3975966,10.0746716 47.8832786,7.3856791 44.9266974,3.87329851 L44.9266974,3.87329851 C42.6464342,1.16576119 38.8139658,0.249649254 34.8373641,0.249649254 L34.8373641,0.249649254 C31.0196786,0.249649254 27.0726427,1.09158209 24.2380205,2.00398507" id="path-15"></path>
        <linearGradient x1="0.00178706698%" y1="49.9989388%" x2="99.9983358%" y2="49.9989388%" id="linearGradient-17">
            <stop stop-color="#FF5621" offset="0%"></stop>
            <stop stop-color="#FDC45D" offset="100%"></stop>
        </linearGradient>
    </defs>
    <g id="HP" stroke="none" stroke-width="1" fill="none" fill-rule="evenodd">
        <g id="Product_Sections" transform="translate(-987.000000, -537.000000)">
            <g id="Procuct_Data-Center" transform="translate(94.000000, 137.000000)">
                <g id="images/Product_DataCenter" transform="translate(893.000000, 400.000000)">
                    <g id="Group-91">
                        <g id="Group-3" transform="translate(159.000000, 0.000000)">
                            <mask id="mask-2" fill="white">
                                <use xlink:href="#path-1"></use>
                            </mask>
                            <g id="Clip-2"></g>
                            <path d="M98.2214809,129.579426 C98.2214809,134.066444 95.0272681,135.867179 91.1253106,133.58106 L8.36411915,85.0686562 C4.4621617,82.7825374 1.23050213,77.239533 1.18182128,72.7525154 L0.436629787,5.2471697 C0.387948936,0.756446889 3.54471489,-1.05540415 7.45790638,1.21589378 L91.1103319,49.8172231 C95.0235234,52.0885211 98.2214809,57.624115 98.2214809,62.1111326 L98.2214809,129.579426 Z" id="Fill-1" fill="#FAFBFD" mask="url(#mask-2)"></path>
                        </g>
                        <g id="Group-6" transform="translate(160.000000, 61.000000)">
                            <mask id="mask-4" fill="white">
                                <use xlink:href="#path-3"></use>
                            </mask>
                            <g id="Clip-5"></g>
                            <path d="M0.0103034648,1.45230584 L0.126451613,12.3014702 C0.178905615,16.752786 3.41232019,22.2434769 7.31639665,24.5132072 L7.31639665,24.5132072 L14.3377395,28.5899074 C19.028626,31.1644722 23.6558184,33.849218 28.2755173,36.5486546 L28.2755173,36.5486546 C41.3103369,44.158495 54.3414098,51.7756808 67.3762294,59.3891938 L67.3762294,59.3891938 L90.1225329,72.5962334 C91.0929319,73.1618296 92.0221171,73.4740094 92.8688746,73.5584816 L92.8688746,73.5584816 C93.1835986,73.5694997 93.4983226,73.565827 93.8167933,73.4813548 L93.8167933,73.4813548 C95.7126308,72.9818672 96.563135,70.8553722 97.0277276,68.9822938 L97.0277276,68.9822938 C97.1026619,68.6737867 97.1513692,68.3579343 97.2225568,68.0457545 L97.2225568,68.0457545 L97.2225568,21.4869001 C96.904086,20.6421784 96.5069343,19.8341838 95.8849797,19.1584064 L95.8849797,19.1584064 C94.0078757,17.1163836 90.8568889,16.6242414 88.1030538,17.1641288 L88.1030538,17.1641288 C85.3529654,17.7113615 82.8726404,19.1106613 80.3810753,20.3667257 L80.3810753,20.3667257 C76.7992162,22.1736955 73.0112879,23.7419396 69.0060502,24.1092099 L69.0060502,24.1092099 C64.993319,24.4764802 60.7108244,23.5068867 57.7883871,20.7927592 L57.7883871,20.7927592 C54.8134958,18.027214 53.2960765,13.5942616 49.496908,12.0664172 L49.496908,12.0664172 C46.124865,10.7111898 42.359417,12.2133253 38.8787192,13.2820818 L38.8787192,13.2820818 C31.2091947,15.6326117 21.8723823,15.4453038 16.2598041,9.8113776 L16.2598041,9.8113776 C12.9776822,6.51329041 10.9357228,1.44863313 6.37597133,0.328458753 L6.37597133,0.328458753 C6.09871446,0.262350101 5.81771087,0.21093226 5.540454,0.174205231 L5.540454,0.174205231 C5.2557037,0.141150905 4.97095341,0.126460094 4.68994982,0.126460094 L4.68994982,0.126460094 C3.06762246,0.126460094 1.44904182,0.647983903 0.0103034648,1.45230584" id="Fill-4" fill="url(#linearGradient-5)" mask="url(#mask-4)"></path>
                        </g>
                        <g id="Group-9" transform="translate(160.000000, 0.000000)">
                            <mask id="mask-7" fill="white">
                                <use xlink:href="#path-6"></use>
                            </mask>
                            <g id="Clip-8"></g>
                            <path d="M0.171412186,1.91766185 C1.26170609,1.76204274 2.54682915,2.04734444 3.92936679,2.84767128 L3.92936679,2.84767128 L87.6309677,51.4490006 C91.5425376,53.7240038 94.7459785,59.2521873 94.7459785,63.7392049 L94.7459785,63.7392049 L94.7459785,131.211204 C94.7459785,132.578429 94.4462413,133.693699 93.925448,134.519962 L93.925448,134.519962 C95.8999665,134.22725 97.2225568,132.463567 97.2225568,129.580908 L97.2225568,129.580908 L97.2225568,62.1089095 C97.2225568,57.6218919 94.0191159,52.0900031 90.107546,49.8187052 L90.107546,49.8187052 L6.40594504,1.21737586 C5.25945042,0.554142049 4.18039665,0.239198617 3.22873118,0.239198617 L3.22873118,0.239198617 C1.92112784,0.239198617 0.849567503,0.828328096 0.171412186,1.91766185" id="Fill-7" fill="url(#linearGradient-8)" mask="url(#mask-7)"></path>
                        </g>
                        <path d="M258,172.9863 C258,177.491169 254.798777,179.299069 250.888257,177.003855 L167.945443,128.302161 C164.034923,126.003226 160.796171,120.438169 160.747384,115.933299 L160.000557,94.0264647 C159.951769,89.5215952 163.115463,87.7025356 167.037242,89.98659 L250.873245,138.777563 C254.795025,141.057898 258,146.611795 258,151.120385 L258,172.9863 Z" id="Fill-10" fill="#FAFBFD"></path>
                        <g id="Group-14" transform="translate(160.000000, 88.000000)">
                            <mask id="mask-10" fill="white">
                                <use xlink:href="#path-9"></use>
                            </mask>
                            <g id="Clip-13"></g>
                            <path d="M0.171412186,2.1831907 C1.26170609,2.0229907 2.54682915,2.30986047 3.92936679,3.11831163 L3.92936679,3.11831163 L87.6309677,51.9830372 C91.5425376,54.2705442 94.7459785,59.8328372 94.7459785,64.3445163 L94.7459785,64.3445163 L94.7459785,86.2434837 C94.7459785,87.6182233 94.4462413,88.7433488 93.925448,89.5741535 L93.925448,89.5741535 C95.8999665,89.2798326 97.2225568,87.5027302 97.2225568,84.6042279 L97.2225568,84.6042279 L97.2225568,62.7015349 C97.2225568,58.1898558 94.0191159,52.6275628 90.107546,50.3437814 L90.107546,50.3437814 L6.40594504,1.47533023 C5.25945042,0.808451163 4.18039665,0.491776744 3.22873118,0.491776744 L3.22873118,0.491776744 C1.92112784,0.491776744 0.849567503,1.08786977 0.171412186,2.1831907" id="Fill-12" fill="url(#linearGradient-11)" mask="url(#mask-10)"></path>
                        </g>
                        <g id="Group-39" transform="translate(0.000000, 104.000000)">
                            <polygon id="Fill-15" fill="#E4E9F4" points="249.666708 47.1000252 249.666708 50.2739465 168.144556 3.3935685 168.144556 0.0970015748"></polygon>
                            <polygon id="Fill-17" fill="#E4E9F4" points="249.666708 55.950211 249.666708 59.1241323 168.144556 12.2437543 168.144556 8.9471874"></polygon>
                            <polygon id="Fill-19" fill="#E4E9F4" points="249.666708 64.8007685 249.666708 67.9746898 168.144556 21.0943118 168.144556 17.7977449"></polygon>
                            <polygon id="Fill-21" fill="#F0F1FE" points="221.240427 162.408882 109.247054 97.856378 0.0011168438 162.408882 109.247054 226.961386"></polygon>
                            <polygon id="Fill-23" fill="#D1D4FC" points="221.240427 162.408882 221.240427 410.944756 109.247054 472 109.247054 226.961386"></polygon>
                            <polygon id="Fill-25" fill="#E0E3FD" points="0.000372281265 162.408882 0.000372281265 407.447496 109.24631 472 109.24631 226.961386"></polygon>
                            <polygon id="Fill-27" fill="#C1C6FB" points="95.8009994 243.996498 95.8009994 425.35971 9.72212525 375.747679 9.72212525 194.384466"></polygon>
                            <polygon id="Fill-29" fill="#F0F1FE" points="83.5708153 304.558929 83.5708153 310.39389 19.9442242 273.722835 19.9442242 267.887874"></polygon>
                            <polygon id="Fill-31" fill="#F0F1FE" points="83.5708153 319.477846 83.5708153 325.316523 19.9442242 288.641751 19.9442242 282.806791"></polygon>
                            <polygon id="Fill-33" fill="#F0F1FE" points="83.5708153 334.396391 83.5708153 340.235068 19.9442242 303.564013 19.9442242 297.725335"></polygon>
                            <polygon id="Fill-35" fill="#F0F1FE" points="83.5708153 349.315307 83.5708153 355.153984 19.9442242 318.482929 19.9442242 312.644252"></polygon>
                            <polygon id="Fill-37" fill="#F0F1FE" points="51.7578921 345.900183 51.7578921 351.735143 19.9464579 333.401474 19.9464579 327.562797"></polygon>
                        </g>
                        <g id="Group-42" transform="translate(20.000000, 318.000000)">
                            <mask id="mask-13" fill="white">
                                <use xlink:href="#path-12"></use>
                            </mask>
                            <g id="Clip-41"></g>
                            <path d="M14.1684656,56.1781453 L24.1213122,61.9057978 L24.1213122,6.60906504 L14.1684656,0.877698171 L14.1684656,56.1781453 Z M0.285883598,48.0844004 L10.242455,53.9160569 L10.242455,17.2323374 L0.285883598,11.5009705 L0.285883598,48.0844004 Z M28.0473228,64.1678862 L38.0038942,69.899253 L38.0038942,30.7528659 L28.0473228,25.021499 L28.0473228,64.1678862 Z M41.9299048,72.1613415 L51.8864762,77.8927083 L51.8864762,51.9994106 L41.9299048,46.2717581 L41.9299048,72.1613415 Z M55.8124868,80.1510823 L65.7653333,85.8824492 L65.7653333,65.5236535 L55.8124868,59.7885722 L55.8124868,80.1510823 Z" id="Fill-40" fill="url(#linearGradient-14)" mask="url(#mask-13)"></path>
                        </g>
                        <g id="Group-85" transform="translate(115.000000, 113.000000)">
                            <path d="M32.6833958,62.3142342 L5.99452083,56.3850604 C2.99447917,55.7208736 1.0958125,52.7320327 1.75960417,49.7133407 C2.42339583,46.6983801 5.3678125,44.7953728 8.39010417,45.4520969 L29.6833542,50.1834955 L62.0237292,22.5189933 C64.3711042,20.5189699 67.8754792,20.8062867 69.8631458,23.1570604 C71.8545208,25.5152969 71.5689792,29.0451889 69.2290208,31.0489436 L32.6833958,62.3142342 Z" id="Fill-43" fill="#FFCEBD"></path>
                            <path d="M51.3719125,132.525502 C49.2989542,134.062833 47.2259958,135.223295 45.1752875,136.103902 L44.7117458,136.372562 L44.6783708,136.316591 C27.7980375,143.193537 12.4381208,130.294133 12.4381208,130.294133 C9.1859125,127.331411 8.0400375,119.726845 8.32187083,114.417081 C7.98812083,113.215575 7.64324583,111.771528 7.22049583,109.984194 C6.22295417,105.756533 5.75570417,100.465426 5.67412083,94.7116274 L73.1880375,133.932235 L73.1880375,135.096427 L60.0902042,127.48813 L51.3719125,132.525502 Z" id="Fill-45" fill="#231F20"></path>
                            <path d="M24.0173917,123.303006 L55.2526833,105.258019 L55.2526833,124.560484 L72.848725,134.784484 L72.848725,102.08634 C72.848725,96.3474674 69.9006,91.2056164 64.9611,88.3361799 C60.0178917,85.4667434 54.1179333,85.4704747 49.1821417,88.3399112 L15.2175167,107.970738 L24.0173917,123.303006 Z" id="Fill-47" fill="#FE5E31"></path>
                            <path d="M39.9843625,132.807968 L71.2196542,114.762981 L71.2196542,133.565439 L88.8156958,143.789439 L88.8156958,111.591302 C88.8156958,105.852429 85.8675708,100.714309 80.9280708,97.844873 C75.9848625,94.9717051 70.0849042,94.9754365 65.1454042,97.844873 L31.1844875,117.475699 L39.9843625,132.807968 Z" id="Fill-49" fill="#FE5E31"></path>
                            <path d="M86.452375,111.593168 C86.452375,105.850564 83.50425,100.712444 78.56475,97.8430073 C76.451,96.6191124 74.1666667,95.9474628 71.856375,95.7683562 C74.9528333,95.5295474 78.0975,96.2011971 80.9269583,97.8430073 C85.8664583,100.712444 88.8145833,105.850564 88.8145833,111.593168 L88.8145833,143.787574 L86.452375,142.418155 L86.452375,111.593168 Z" id="Fill-51" fill="#717386"></path>
                            <path d="M46.6460125,128.958296 C27.3663875,143.260702 7.71222083,126.730658 7.71222083,126.730658 C3.51809583,122.909718 2.81722083,111.37227 4.1707625,106.991622 L9.49222083,101.577379 L37.0562625,116.999201 L46.6460125,128.958296 Z" id="Fill-53" fill="#4D5068"></path>
                            <path d="M42.8360708,66.0348 C43.2291542,59.5683066 41.8533625,53.4040555 39.6543208,49.0644526 C36.9101542,43.657673 32.2747375,38.9747825 27.1906125,36.0195241 L22.1658208,33.1015796 C15.7207375,29.3552672 11.0853208,34.8739883 7.66252917,41.5270511 C-4.6157625,65.3780759 6.94682083,98.5724934 0.2347375,120.923501 C0.2347375,120.923501 23.5898208,132.028108 29.9866958,132.031839 C39.0758208,132.043034 53.2194042,129.610169 51.8547375,125.949679 C40.9670708,96.6732175 41.7458208,83.9715766 42.8360708,66.0348" id="Fill-55" fill="#4D5068"></path>
                            <path d="M24.7000958,42.2472088 L25.4603042,42.2472088 C27.6482208,42.2472088 29.4208042,40.4598745 29.4208042,38.2620876 L29.4208042,27.8030102 C29.4208042,25.601492 27.6482208,23.8178891 25.4603042,23.8178891 L24.7000958,23.8178891 C22.5121792,23.8178891 20.7395958,25.601492 20.7395958,27.8030102 L20.7395958,38.2620876 C20.7395958,40.4636058 22.5121792,42.2472088 24.7000958,42.2472088" id="Fill-57" fill="#FFCEBD"></path>
                            <path d="M64.1571333,24.2279685 L71.4662583,17.1383334 C71.940925,16.6831042 71.9557583,15.9219013 71.495925,15.4480152 C71.0435083,14.9741291 70.2907167,14.9592035 69.8197583,15.4181641 L62.5106333,22.5077991 C62.0359667,22.9667597 62.0248417,23.7204999 62.4772583,24.1981174 C62.9333833,24.6720035 63.686175,24.6869291 64.1571333,24.2279685" id="Fill-59" fill="#FFCEBD"></path>
                            <path d="M62.7991417,29.4825074 L70.1082667,22.3928724 C70.579225,21.9376432 70.5940583,21.1764403 70.1379333,20.7025542 C69.6818083,20.228668 68.932725,20.2137425 68.4580583,20.6727031 L61.1489333,27.7623381 C60.677975,28.2212987 60.6631417,28.9750388 61.1192667,29.4526564 C61.5716833,29.9265425 62.3281833,29.941468 62.7991417,29.4825074" id="Fill-61" fill="#FFCEBD"></path>
                            <path d="M64.1571333,31.5541734 L71.4662583,24.4645384 C71.940925,24.0055778 71.9557583,23.2481063 71.495925,22.7742201 C71.0435083,22.300334 70.2907167,22.2854085 69.8197583,22.7443691 L62.5106333,29.8340041 C62.0359667,30.2892333 62.0248417,31.0467048 62.4772583,31.5205909 C62.9333833,31.9982085 63.686175,32.013134 64.1571333,31.5541734" id="Fill-63" fill="#FFCEBD"></path>
                            <path d="M65.0319292,34.2232345 L72.3410542,27.1335994 C72.8157208,26.6746388 72.8305542,25.9171673 72.3707208,25.4432812 C71.9183042,24.969395 71.1655125,24.9544695 70.6945542,25.4134301 L63.3854292,32.5030651 C62.9144708,32.9582943 62.8996375,33.7157658 63.3520542,34.189652 C63.8081792,34.6672695 64.5609708,34.682195 65.0319292,34.2232345" id="Fill-65" fill="#FFCEBD"></path>
                            <path d="M62.1457333,30.6396105 L61.6933167,20.4342674 C61.66365,19.773812 61.1074,19.262612 60.451025,19.2924631 C59.7983583,19.3223142 59.2903167,19.8820222 59.3199833,20.5387463 L59.7724,30.7440893 C59.8020667,31.4045448 60.3583167,31.9157448 61.0109833,31.8858937 C61.6673583,31.859774 62.1754,31.300066 62.1457333,30.6396105" id="Fill-67" fill="#FFCEBD"></path>
                            <path d="M49.1064917,124.878771 L57.843325,130.084055 C58.4069917,130.41988 59.1375333,130.233311 59.467575,129.662409 C59.8050333,129.095238 59.6159083,128.363886 59.0522417,128.02433 L50.3191167,122.822777 C49.7517417,122.48322 49.0249083,122.673521 48.6911583,123.240692 C48.3537,123.807863 48.542825,124.542946 49.1064917,124.878771" id="Fill-69" fill="#FFCEBD"></path>
                            <path d="M52.7807083,133.383721 L60.197375,140.361414 C60.67575,140.812912 61.4285417,140.786792 61.8735417,140.305444 C62.32225,139.824095 62.2962917,139.066623 61.8179167,138.615125 L54.4049583,131.637432 C53.9265833,131.185934 53.1737917,131.212054 52.7250833,131.693403 C52.276375,132.174752 52.3023333,132.932223 52.7807083,133.383721" id="Fill-71" fill="#FFCEBD"></path>
                            <path d="M50.4066333,134.347538 L55.7318,143.045401 C56.0729667,143.60884 56.8072167,143.784215 57.3634667,143.437196 C57.923425,143.090178 58.0977167,142.355094 57.7528417,141.791655 L52.427675,133.093792 C52.0865083,132.534084 51.3559667,132.358709 50.7960083,132.701996 C50.23605,133.049015 50.0617583,133.784099 50.4066333,134.347538" id="Fill-73" fill="#FFCEBD"></path>
                            <path d="M47.2070833,132.044526 L49.606375,141.973747 C49.7584167,142.615545 50.4036667,143.007341 51.0415,142.850622 C51.6793333,142.693904 52.0687083,142.048374 51.9129583,141.406576 L49.517375,131.481087 C49.361625,130.839288 48.7200833,130.447493 48.08225,130.600479 C47.4407083,130.757198 47.0513333,131.402728 47.2070833,132.044526" id="Fill-75" fill="#FFCEBD"></path>
                            <path d="M41.4146667,103.949795 C38.0215417,95.32656 36.768125,85.8973454 37.7842083,76.6808199 L37.6544167,56.3746126 C37.9733333,53.4902505 38.036375,51.2402242 35.1698333,50.9230564 C32.3329583,50.6394709 30.05975,51.411868 29.7408333,54.2999615 L27.4045833,75.5240899 C26.199375,86.4383965 27.6864167,97.6064374 31.70625,107.815512 L40.8769583,131.13668 C45.2268333,130.442642 49.10575,129.375465 50.8931667,128.032166 L41.4146667,103.949795 Z" id="Fill-77" fill="#231F20"></path>
                            <path d="M51.3756208,137.780041 C49.4250375,137.780041 47.5560375,136.67555 46.6586208,134.783737 L34.1541208,108.395369 C29.4556625,98.4810745 27.2195375,87.4399007 27.6830792,76.465892 L28.5842042,55.1335533 C28.7065792,52.2305343 31.1763292,50.0178219 34.0243292,50.1073752 C36.9057042,50.2305109 39.1418292,52.6820321 39.0194542,55.5775883 L38.1183292,76.9136584 C37.7252458,86.178692 39.6164958,95.4996964 43.5807042,103.872928 L56.0889125,130.265028 C57.3237875,132.884461 56.2261208,136.018826 53.6191625,137.268841 C52.8923292,137.61586 52.1321208,137.780041 51.3756208,137.780041" id="Fill-79" fill="#FFCEBD"></path>
                            <path d="M32.8484167,87.9641606 C32.77425,87.9641606 32.7000833,87.9641606 32.629625,87.9604292 C29.336625,87.8410248 26.7630417,85.0574102 26.8817083,81.7439387 L27.8384583,55.1391504 C27.957125,51.8256788 30.7457917,49.2062453 34.0165417,49.3555007 C37.31325,49.4786365 39.883125,52.2622511 39.7644583,55.5719912 L38.8077083,82.1767796 C38.69275,85.4156234 36.045,87.9641606 32.8484167,87.9641606" id="Fill-81" fill="#4D5068"></path>
                            <path d="M21.6707583,30.7761793 L14.6397583,30.7761793 L14.6397583,0.656424526 L40.5610083,0.656424526 L40.5610083,11.7684946 C40.5610083,22.2648858 32.1023,30.7761793 21.6707583,30.7761793" id="Fill-83" fill="#FFCEBD"></path>
                        </g>
                        <g id="Group-88" transform="translate(112.000000, 105.000000)">
                            <mask id="mask-16" fill="white">
                                <use xlink:href="#path-15"></use>
                            </mask>
                            <g id="Clip-87"></g>
                            <path d="M24.2380205,2.00398507 C17.1126598,4.2961194 8.18378462,6.96656716 6.90136752,15.6084328 L6.90136752,15.6084328 C6.57983932,17.8004254 6.81267009,20.0257985 6.82006154,22.2400448 L6.82006154,22.2400448 C6.84593162,27.3398582 5.66329915,32.4433806 3.3978188,37.0128134 L3.3978188,37.0128134 C0.160362393,43.5405746 -1.39553846,47.7020224 2.03779145,54.4782836 L2.03779145,54.4782836 C4.0667453,58.4913731 5.3639453,64.7372537 9.51055043,67.2 L9.51055043,67.2 C13.7828103,69.7369254 22.8188615,71.3132313 26.906335,68.2051269 L26.906335,68.2051269 C32.5977538,63.8730672 35.4730291,53.3841418 34.9519316,46.6486791 L34.9519316,46.6486791 C34.3864855,39.3754179 30.7646735,32.0391045 32.959935,25.0848134 L32.959935,25.0848134 C34.338441,20.734209 40.1702974,15.845806 43.4668855,12.7933358 L43.4668855,12.7933358 C46.3975966,10.0746716 47.8832786,7.3856791 44.9266974,3.87329851 L44.9266974,3.87329851 C42.6464342,1.16576119 38.8139658,0.249649254 34.8373641,0.249649254 L34.8373641,0.249649254 C31.0196786,0.249649254 27.0726427,1.09158209 24.2380205,2.00398507" id="Fill-86" fill="url(#linearGradient-17)" mask="url(#mask-16)"></path>
                        </g>
                        <path d="M157.389291,108.613432 C154.772904,105.485442 150.098145,104.765892 145.515773,105.060423 C148.945161,105.272933 152.149127,106.227361 154.144676,108.613432 C157.101045,112.147799 155.61547,114.847042 152.688664,117.579839 C149.388617,120.651905 143.557178,125.561992 142.182467,129.938941 C139.983667,136.925655 143.605219,144.303833 144.16693,151.614904 C144.68799,158.38538 141.820311,168.928831 136.125605,173.28341 C134.824803,174.278849 132.995549,174.756063 131,174.916377 C134.215052,175.195995 137.382062,174.80453 139.373916,173.28341 C145.064927,168.928831 147.9363,158.38538 147.41524,151.614904 C146.849835,144.303833 143.228282,136.925655 145.427082,129.938941 C146.805489,125.561992 152.633232,120.651905 155.933279,117.579839 C158.860085,114.847042 160.34566,112.147799 157.389291,108.613432" id="Fill-89" fill="#FEDC9E"></path>
                    </g>
                </g>
            </g>
        </g>
    </g>
</svg>