<svg width="161" height="86" viewBox="0 0 161 86" fill="none" xmlns="http://www.w3.org/2000/svg">
<path d="M157.01 86H3.10912C1.43498 86 0 84.6898 0 82.903V3.09695C0 1.31025 1.3154 0 3.10912 0H157.01C158.685 0 160.12 1.31025 160.12 3.09695V83.0222C160 84.6898 158.685 86 157.01 86Z" fill="#E4F5FB"/>
<path d="M25.8316 59.5718L18.2928 60.878C17.383 61.0086 16.4731 60.4862 16.2132 59.5718L11.0791 42.6571C10.8191 41.7428 11.209 40.8285 12.1189 40.4367L19.0727 37.3019L25.8316 59.5718Z" fill="#323C3E"/>
<path d="M15.8232 38.6735V38.7388L22.2571 60.0944C22.2571 60.0944 22.2571 60.1597 22.3221 60.1597L25.7665 59.572L19.0727 37.2367L15.8232 38.6735Z" fill="#242C2D"/>
<path d="M61 11L56.2465 18.1666C51.6973 23.4566 45.7183 27.375 38.9594 29.3996L20.0476 35.1467C18.8778 35.4732 18.2279 36.7141 18.5529 37.8896L24.9868 59.2453C25.3117 60.4208 26.5465 61.0739 27.7163 60.7473L46.6931 55.0003C53.387 52.9757 60.5358 52.8451 67.2946 54.739L75.1583 56.8942L61 11Z" fill="white"/>
<path d="M45.1984 49.9712L26.2866 55.7183C25.1168 56.0449 23.882 55.3918 23.5571 54.2162L25.0518 59.1796C25.3767 60.3552 26.6115 61.0083 27.7813 60.6817L46.6931 54.9999C53.387 52.9754 60.5358 52.8448 67.2946 54.7387L75.1583 56.8939L73.6636 51.9305L65.7999 49.7753C59.041 47.8814 51.8922 47.9467 45.1984 49.9712Z" fill="#F4F5F5"/>
<path d="M35.58 30.4445L20.0476 35.1466C18.8778 35.4732 18.2279 36.714 18.5529 37.8895L24.9868 59.2452C25.3117 60.4207 26.5465 61.0738 27.7163 60.7473L43.2487 56.0451L35.58 30.4445Z" fill="#FCCA2E"/>
<path d="M44.4835 75.6375L40.0642 77.009C39.1544 77.2702 38.1146 76.9437 37.5946 76.0947L27.7813 60.7473L36.3599 58.135L44.9384 74.5926C45.1334 74.9844 44.9384 75.5069 44.4835 75.6375Z" fill="#323C3E"/>
<path d="M29.536 63.4902L37.7896 60.9432L36.3599 58.135L27.7813 60.7473L29.536 63.4902Z" fill="#242C2D"/>
<path d="M26.2866 55.7839C25.1168 56.1105 23.882 55.4574 23.5571 54.2819L25.0518 59.2453C25.3767 60.4208 26.6115 61.0739 27.7813 60.7473L43.3137 56.0452L41.819 51.0818L26.2866 55.7839Z" fill="#EDB720"/>
<path d="M78.8843 58.8771C77.288 59.3326 75.6252 58.4867 75.0931 56.925L61.1256 11.7668C60.66 10.2051 61.5247 8.57839 63.121 8.12291H63.1875C64.7838 7.66742 66.4466 8.51332 66.9121 10.075L80.8796 55.2332C81.3452 56.7949 80.414 58.4216 78.8843 58.8771Z" fill="#323C3E"/>
<path d="M100.927 9C90.4905 9 82 17.4969 82 27.941C82 33.0492 84.0216 37.7023 87.3066 41.091L86.22 44.3026L84.7038 48.8039L88.6964 46.2498L91.5771 44.4037C94.3315 45.9716 97.5154 46.882 100.927 46.882C111.388 46.882 119.854 38.3851 119.854 27.941C119.879 17.4969 111.388 9 100.927 9Z" fill="#FFD22E"/>
<path d="M108.457 35.654C109.064 36.0839 109.746 36.4885 110.479 36.8678C111.211 37.2724 111.692 37.5759 111.944 37.8035C112.172 38.0311 112.298 38.3598 112.298 38.7898C112.298 39.0932 112.146 39.3967 111.868 39.7001C111.59 40.0036 111.237 40.1553 110.858 40.1553C110.529 40.1553 110.15 40.0542 109.67 39.8519C109.215 39.6496 108.659 39.3461 108.053 38.9415C107.421 38.5369 106.739 38.0817 106.006 37.5506C104.616 38.2587 102.923 38.6127 100.927 38.6127C99.3095 38.6127 97.8439 38.3598 96.5552 37.8288C95.2664 37.2977 94.1799 36.5644 93.2954 35.5781C92.411 34.5919 91.754 33.4286 91.3244 32.0883C90.8696 30.748 90.6674 29.2813 90.6674 27.6882C90.6674 26.0697 90.8948 24.603 91.3497 23.2627C91.8045 21.9224 92.4868 20.7844 93.346 19.8235C94.2304 18.8878 95.2917 18.1544 96.5552 17.6487C97.8186 17.1429 99.2337 16.89 100.851 16.89C103.024 16.89 104.894 17.3199 106.436 18.205C108.002 19.0901 109.165 20.3292 109.973 21.973C110.782 23.5914 111.161 25.5134 111.161 27.6882C111.161 31.0768 110.251 33.7068 108.457 35.654ZM105.122 33.3528C105.703 32.67 106.158 31.886 106.436 30.9504C106.713 30.0147 106.865 28.9526 106.865 27.7387C106.865 26.1961 106.612 24.8811 106.132 23.7432C105.627 22.6305 104.919 21.7707 104.01 21.189C103.1 20.6074 102.039 20.3292 100.851 20.3292C99.9918 20.3292 99.2085 20.481 98.5009 20.8097C97.7934 21.1385 97.1616 21.5937 96.631 22.2006C96.1003 22.8075 95.696 23.5914 95.3928 24.5271C95.0896 25.4881 94.9379 26.5502 94.9379 27.7134C94.9379 30.1158 95.4939 31.9872 96.631 33.2769C97.7428 34.5666 99.1832 35.2241 100.902 35.2241C101.609 35.2241 102.342 35.0724 103.075 34.7689C102.62 34.4401 102.064 34.1114 101.407 33.7574C100.725 33.4286 100.27 33.1757 100.017 32.9734C99.7644 32.7964 99.638 32.5435 99.638 32.1895C99.638 31.9113 99.7644 31.6584 99.9918 31.4308C100.219 31.2032 100.497 31.1021 100.775 31.1021C101.634 31.1779 103.1 31.886 105.122 33.3528Z" fill="white"/>
<path d="M131.073 26.1708C141.535 26.1708 150 34.6677 150 45.1118C150 50.22 147.978 54.8731 144.693 58.2617L145.78 61.4734L147.296 65.9747L143.304 63.4206L140.423 61.5745C137.669 63.1424 134.485 64.0528 131.073 64.0528C120.612 64.0528 112.146 55.5559 112.146 45.1118C112.146 34.6424 120.612 26.1708 131.073 26.1708Z" fill="#08F2A4"/>
<path d="M136.203 53.1282L135.217 50.5235H126.803L125.817 53.1788C125.438 54.2156 125.11 54.9237 124.832 55.2777C124.554 55.6317 124.124 55.834 123.492 55.834C122.962 55.834 122.507 55.6317 122.103 55.2524C121.698 54.8731 121.496 54.4179 121.496 53.9374C121.496 53.6592 121.547 53.3558 121.648 53.0523C121.749 52.7489 121.9 52.3443 122.103 51.7879L127.384 38.3345C127.535 37.9552 127.712 37.4747 127.94 36.9436C128.142 36.4126 128.369 35.9574 128.622 35.6033C128.849 35.2493 129.178 34.9459 129.557 34.7435C129.936 34.5159 130.441 34.4148 130.997 34.4148C131.579 34.4148 132.059 34.5159 132.463 34.7435C132.842 34.9711 133.171 35.2493 133.398 35.6033C133.625 35.9574 133.828 36.3367 134.004 36.716C134.181 37.1207 134.383 37.6517 134.636 38.3092L140.044 51.6615C140.473 52.673 140.676 53.4064 140.676 53.8868C140.676 54.3673 140.473 54.7972 140.069 55.2018C139.665 55.6065 139.185 55.8088 138.629 55.8088C138.3 55.8088 138.022 55.7582 137.77 55.6317C137.542 55.5053 137.34 55.3536 137.188 55.1513C137.037 54.949 136.86 54.6455 136.683 54.2156C136.481 53.811 136.329 53.4569 136.203 53.1282ZM127.889 47.3877H134.08L130.947 38.8403L127.889 47.3877Z" fill="white"/>
</svg>
