<svg width="332" height="261" viewBox="0 0 332 261" fill="none" xmlns="http://www.w3.org/2000/svg">
<g clip-path="url(#clip0)">
<g filter="url(#filter0_d)">
<path d="M4.4 112.941C4.4 109.621 7.1 106.905 10.4 106.905H149.5C152.8 106.905 155.5 109.621 155.5 112.941V259H159.9V109.118C159.9 98.0533 150.9 89 139.9 89H20C9 89 0 98.0533 0 109.118V259H4.4V112.941ZM104 95.2367C105.5 95.2367 106.7 96.4438 106.7 97.9527C106.7 99.4615 105.5 100.669 104 100.669C102.5 100.669 101.3 99.4615 101.3 97.9527C101.3 96.4438 102.5 95.2367 104 95.2367ZM64.9 95.2367H95.1C96.6 95.2367 97.8 96.4438 97.8 97.9527C97.8 99.4615 96.6 100.669 95.1 100.669H64.9C63.4 100.669 62.2 99.4615 62.2 97.9527C62.2 96.4438 63.4 95.2367 64.9 95.2367ZM56 95.2367C57.5 95.2367 58.7 96.4438 58.7 97.9527C58.7 99.4615 57.5 100.669 56 100.669C54.5 100.669 53.3 99.4615 53.3 97.9527C53.3 96.4438 54.5 95.2367 56 95.2367Z" fill="white"/>
</g>
<path d="M149.815 106.905H10.6154C7.31539 106.905 4.61539 109.621 4.61539 112.941V259H155.715V112.941C155.815 109.621 153.115 106.905 149.815 106.905Z" fill="#191551"/>
<path d="M64.9 100.669H95.1C96.6 100.669 97.8 99.4615 97.8 97.9527C97.8 96.4438 96.6 95.2367 95.1 95.2367H64.9C63.4 95.2367 62.2 96.4438 62.2 97.9527C62.2 99.4615 63.4 100.669 64.9 100.669Z" fill="#CCCCCC"/>
<path d="M56 100.669C57.5 100.669 58.7 99.4615 58.7 97.9527C58.7 96.4438 57.5 95.2367 56 95.2367C54.5 95.2367 53.3 96.4438 53.3 97.9527C53.3 99.4615 54.5 100.669 56 100.669Z" fill="#CCCCCC"/>
<path d="M104 100.669C105.5 100.669 106.7 99.4615 106.7 97.9527C106.7 96.4438 105.5 95.2367 104 95.2367C102.5 95.2367 101.3 96.4438 101.3 97.9527C101.3 99.4615 102.5 100.669 104 100.669Z" fill="#CCCCCC"/>
<path d="M67.1528 171.055L66.8157 172C56.9038 168.559 51.6107 157.765 55.0495 147.813C58.4884 137.862 69.2768 132.633 79.1887 136.04C86.7406 138.638 91.8651 145.688 92 153.683H90.9549C89.4377 144.71 80.9418 138.705 71.9739 140.223C63.006 141.741 57.0049 150.276 58.5558 159.249C59.3986 164.309 62.6014 168.66 67.1528 171.055Z" fill="url(#paint0_linear)"/>
<path d="M89.9158 135.77L90.2587 135C104.763 141.63 111.038 158.473 104.283 172.637C97.5282 186.801 80.2461 192.963 65.7415 186.333C54.7002 181.31 48.048 170.059 49.111 158.205L50.0368 158.306C50.7912 172.235 62.964 182.884 77.2286 182.147C91.4932 181.41 102.397 169.523 101.643 155.593C101.197 147.523 96.8424 140.19 89.9158 135.77Z" fill="url(#paint1_linear)"/>
<path d="M52.1716 216.4C51.0383 217.533 49.7183 218.1 48.2116 218.1C47.2783 218.1 46.3983 217.913 45.5716 217.54C44.7583 217.167 44.045 216.653 43.4316 216C42.8316 215.347 42.3516 214.58 41.9916 213.7C41.645 212.807 41.4716 211.847 41.4716 210.82C41.4716 209.847 41.645 208.933 41.9916 208.08C42.3516 207.213 42.8383 206.46 43.4516 205.82C44.0783 205.167 44.8116 204.653 45.6516 204.28C46.4916 203.893 47.405 203.7 48.3916 203.7C49.725 203.7 50.865 203.98 51.8116 204.54C52.7716 205.1 53.4916 205.853 53.9716 206.8L51.9116 208.32C51.5516 207.613 51.045 207.073 50.3916 206.7C49.7516 206.327 49.0516 206.14 48.2916 206.14C47.6916 206.14 47.1383 206.267 46.6316 206.52C46.1383 206.773 45.7116 207.12 45.3516 207.56C45.005 208 44.7316 208.507 44.5316 209.08C44.345 209.653 44.2516 210.26 44.2516 210.9C44.2516 211.567 44.3583 212.193 44.5716 212.78C44.785 213.353 45.0783 213.853 45.4516 214.28C45.825 214.707 46.265 215.047 46.7716 215.3C47.2916 215.54 47.8516 215.66 48.4516 215.66C49.825 215.66 51.065 215.013 52.1716 213.72V212.72H49.3116V210.7H54.4516V218H52.1716V216.4ZM61.4038 218.2C60.5638 218.2 59.8038 218.06 59.1238 217.78C58.4438 217.487 57.8638 217.093 57.3838 216.6C56.9038 216.107 56.5305 215.533 56.2638 214.88C56.0105 214.227 55.8838 213.54 55.8838 212.82C55.8838 212.073 56.0105 211.373 56.2638 210.72C56.5172 210.053 56.8838 209.473 57.3638 208.98C57.8438 208.473 58.4238 208.073 59.1038 207.78C59.7972 207.487 60.5705 207.34 61.4238 207.34C62.2772 207.34 63.0372 207.487 63.7038 207.78C64.3838 208.073 64.9572 208.467 65.4238 208.96C65.9038 209.453 66.2638 210.027 66.5038 210.68C66.7572 211.333 66.8838 212.013 66.8838 212.72C66.8838 212.893 66.8772 213.06 66.8638 213.22C66.8638 213.38 66.8505 213.513 66.8238 213.62H58.7238C58.7638 214.033 58.8638 214.4 59.0238 214.72C59.1838 215.04 59.3905 215.313 59.6438 215.54C59.8972 215.767 60.1838 215.94 60.5038 216.06C60.8238 216.18 61.1572 216.24 61.5038 216.24C62.0372 216.24 62.5372 216.113 63.0038 215.86C63.4838 215.593 63.8105 215.247 63.9838 214.82L66.2838 215.46C65.8972 216.26 65.2772 216.92 64.4238 217.44C63.5838 217.947 62.5772 218.2 61.4038 218.2ZM64.1238 211.88C64.0572 211.093 63.7638 210.467 63.2438 210C62.7372 209.52 62.1172 209.28 61.3838 209.28C61.0238 209.28 60.6838 209.347 60.3638 209.48C60.0572 209.6 59.7838 209.773 59.5438 210C59.3038 210.227 59.1038 210.5 58.9438 210.82C58.7972 211.14 58.7105 211.493 58.6838 211.88H64.1238ZM73.3565 218.2C72.5032 218.2 71.7365 218.053 71.0565 217.76C70.3765 217.467 69.7965 217.073 69.3165 216.58C68.8498 216.073 68.4898 215.493 68.2365 214.84C67.9832 214.187 67.8565 213.5 67.8565 212.78C67.8565 212.047 67.9832 211.353 68.2365 210.7C68.4898 210.047 68.8498 209.473 69.3165 208.98C69.7965 208.473 70.3765 208.073 71.0565 207.78C71.7365 207.487 72.5032 207.34 73.3565 207.34C74.2098 207.34 74.9698 207.487 75.6365 207.78C76.3165 208.073 76.8898 208.473 77.3565 208.98C77.8365 209.473 78.2032 210.047 78.4565 210.7C78.7098 211.353 78.8365 212.047 78.8365 212.78C78.8365 213.5 78.7098 214.187 78.4565 214.84C78.2032 215.493 77.8432 216.073 77.3765 216.58C76.9098 217.073 76.3365 217.467 75.6565 217.76C74.9765 218.053 74.2098 218.2 73.3565 218.2ZM70.6165 212.78C70.6165 213.247 70.6832 213.673 70.8165 214.06C70.9632 214.433 71.1565 214.76 71.3965 215.04C71.6498 215.32 71.9432 215.54 72.2765 215.7C72.6098 215.847 72.9698 215.92 73.3565 215.92C73.7432 215.92 74.1032 215.847 74.4365 215.7C74.7698 215.54 75.0565 215.32 75.2965 215.04C75.5498 214.76 75.7432 214.427 75.8765 214.04C76.0232 213.653 76.0965 213.227 76.0965 212.76C76.0965 212.307 76.0232 211.887 75.8765 211.5C75.7432 211.113 75.5498 210.78 75.2965 210.5C75.0565 210.22 74.7698 210.007 74.4365 209.86C74.1032 209.7 73.7432 209.62 73.3565 209.62C72.9698 209.62 72.6098 209.7 72.2765 209.86C71.9432 210.02 71.6498 210.24 71.3965 210.52C71.1565 210.8 70.9632 211.133 70.8165 211.52C70.6832 211.907 70.6165 212.327 70.6165 212.78ZM89.2677 207.52C89.1744 207.427 89.0011 207.3 88.7477 207.14C88.5077 206.98 88.2077 206.827 87.8477 206.68C87.5011 206.52 87.1211 206.387 86.7077 206.28C86.2944 206.173 85.8744 206.12 85.4477 206.12C84.6877 206.12 84.1211 206.26 83.7477 206.54C83.3744 206.82 83.1877 207.213 83.1877 207.72C83.1877 208.013 83.2544 208.26 83.3877 208.46C83.5344 208.647 83.7411 208.813 84.0077 208.96C84.2744 209.107 84.6077 209.24 85.0077 209.36C85.4211 209.48 85.8944 209.607 86.4277 209.74C87.1211 209.927 87.7477 210.127 88.3077 210.34C88.8811 210.553 89.3611 210.82 89.7477 211.14C90.1477 211.46 90.4544 211.847 90.6677 212.3C90.8811 212.74 90.9877 213.287 90.9877 213.94C90.9877 214.7 90.8411 215.353 90.5477 215.9C90.2677 216.433 89.8811 216.867 89.3877 217.2C88.9077 217.533 88.3477 217.78 87.7077 217.94C87.0811 218.087 86.4211 218.16 85.7277 218.16C84.6611 218.16 83.6077 218 82.5677 217.68C81.5277 217.36 80.5944 216.907 79.7677 216.32L80.9877 213.94C81.1077 214.06 81.3211 214.22 81.6277 214.42C81.9477 214.607 82.3211 214.8 82.7477 215C83.1744 215.187 83.6477 215.347 84.1677 215.48C84.6877 215.613 85.2211 215.68 85.7677 215.68C87.2877 215.68 88.0477 215.193 88.0477 214.22C88.0477 213.913 87.9611 213.653 87.7877 213.44C87.6144 213.227 87.3677 213.04 87.0477 212.88C86.7277 212.72 86.3411 212.573 85.8877 212.44C85.4344 212.307 84.9277 212.16 84.3677 212C83.6877 211.813 83.0944 211.613 82.5877 211.4C82.0944 211.173 81.6811 210.913 81.3477 210.62C81.0144 210.313 80.7611 209.967 80.5877 209.58C80.4277 209.18 80.3477 208.707 80.3477 208.16C80.3477 207.44 80.4811 206.8 80.7477 206.24C81.0144 205.68 81.3811 205.213 81.8477 204.84C82.3277 204.467 82.8811 204.187 83.5077 204C84.1344 203.8 84.8077 203.7 85.5277 203.7C86.5277 203.7 87.4477 203.86 88.2877 204.18C89.1277 204.487 89.8611 204.853 90.4877 205.28L89.2677 207.52ZM96.0134 218.2C94.9334 218.2 94.1134 217.853 93.5534 217.16C92.9934 216.467 92.7134 215.44 92.7134 214.08V207.52H95.3934V213.5C95.3934 215.113 95.9734 215.92 97.1334 215.92C97.6534 215.92 98.1534 215.767 98.6334 215.46C99.1267 215.14 99.5267 214.66 99.8334 214.02V207.52H102.513V214.92C102.513 215.2 102.56 215.4 102.653 215.52C102.76 215.64 102.927 215.707 103.153 215.72V218C102.887 218.053 102.66 218.087 102.473 218.1C102.3 218.113 102.14 218.12 101.993 218.12C101.513 218.12 101.12 218.013 100.813 217.8C100.52 217.573 100.347 217.267 100.293 216.88L100.233 216.04C99.7667 216.76 99.1667 217.3 98.4334 217.66C97.7 218.02 96.8934 218.2 96.0134 218.2ZM111.417 209.84C110.603 209.853 109.877 210.013 109.237 210.32C108.597 210.613 108.137 211.06 107.857 211.66V218H105.177V207.52H107.637V209.76C107.823 209.4 108.043 209.08 108.297 208.8C108.55 208.507 108.823 208.253 109.117 208.04C109.41 207.827 109.703 207.667 109.997 207.56C110.303 207.44 110.597 207.38 110.877 207.38C111.023 207.38 111.13 207.38 111.197 207.38C111.277 207.38 111.35 207.387 111.417 207.4V209.84ZM113.551 218V210.12H112.171V208.08H113.551V207.44C113.551 206.133 113.864 205.1 114.491 204.34C115.118 203.58 115.971 203.2 117.051 203.2C117.904 203.2 118.764 203.407 119.631 203.82L119.091 205.84C118.891 205.733 118.651 205.647 118.371 205.58C118.104 205.5 117.858 205.46 117.631 205.46C116.698 205.46 116.231 206.087 116.231 207.34V208.08H118.791V210.12H116.231V218H113.551Z" fill="white"/>
</g>
<g clip-path="url(#clip1)">
<g filter="url(#filter1_d)">
<path d="M92.765 36.7562C92.765 31.6598 96.9163 27.4899 101.99 27.4899H315.856C320.93 27.4899 325.081 31.6598 325.081 36.7562V261H331.846V30.8876C331.846 13.8994 318.009 0 301.096 0H116.75C99.8375 0 86 13.8994 86 30.8876V261H92.765V36.7562ZM245.9 9.57515C248.206 9.57515 250.051 11.4284 250.051 13.745C250.051 16.0615 248.206 17.9148 245.9 17.9148C243.594 17.9148 241.749 16.0615 241.749 13.745C241.749 11.4284 243.594 9.57515 245.9 9.57515ZM185.784 9.57515H232.216C234.523 9.57515 236.368 11.4284 236.368 13.745C236.368 16.0615 234.523 17.9148 232.216 17.9148H185.784C183.478 17.9148 181.633 16.0615 181.633 13.745C181.633 11.4284 183.478 9.57515 185.784 9.57515ZM172.1 9.57515C174.406 9.57515 176.251 11.4284 176.251 13.745C176.251 16.0615 174.406 17.9148 172.1 17.9148C169.794 17.9148 167.949 16.0615 167.949 13.745C167.949 11.4284 169.794 9.57515 172.1 9.57515Z" fill="white"/>
</g>
<path d="M316.341 27.4899H102.321C97.2474 27.4899 93.0962 31.6598 93.0962 36.7562V261H325.412V36.7562C325.566 31.6598 321.415 27.4899 316.341 27.4899Z" fill="#191551"/>
<path d="M185.784 17.9148H232.216C234.522 17.9148 236.367 16.0615 236.367 13.745C236.367 11.4284 234.522 9.57513 232.216 9.57513H185.784C183.478 9.57513 181.633 11.4284 181.633 13.745C181.633 16.0615 183.478 17.9148 185.784 17.9148Z" fill="#CCCCCC"/>
<path d="M172.1 17.9148C174.406 17.9148 176.251 16.0615 176.251 13.745C176.251 11.4284 174.406 9.57513 172.1 9.57513C169.794 9.57513 167.949 11.4284 167.949 13.745C167.949 16.0615 169.794 17.9148 172.1 17.9148Z" fill="#CCCCCC"/>
<path d="M245.9 17.9148C248.206 17.9148 250.051 16.0615 250.051 13.745C250.051 11.4284 248.206 9.57513 245.9 9.57513C243.594 9.57513 241.749 11.4284 241.749 13.745C241.749 16.0615 243.594 17.9148 245.9 17.9148Z" fill="#CCCCCC"/>
<path fill-rule="evenodd" clip-rule="evenodd" d="M275.207 96.2033L208.819 62.8773L142.43 96.2033C132.594 199.268 208.819 217.166 208.819 217.166C208.819 217.166 285.043 199.268 275.207 96.2033Z" fill="#EDB720"/>
<path fill-rule="evenodd" clip-rule="evenodd" d="M266.709 101.812L208.819 72.7515L150.927 101.812C142.351 191.685 208.819 207.291 208.819 207.291C208.819 207.291 275.287 191.685 266.709 101.812Z" fill="#FCCA2E"/>
<path fill-rule="evenodd" clip-rule="evenodd" d="M208.416 207.291C208.416 207.291 141.948 191.685 150.526 101.812L208.416 72.7515V207.291Z" fill="#FCCA2E"/>
<path fill-rule="evenodd" clip-rule="evenodd" d="M194.68 144.898C193.152 144.898 191.914 143.655 191.914 142.121V114.316C191.914 106.754 199.128 100.832 208.336 100.832H209.199C218.268 100.832 225.108 106.628 225.108 114.316V141.46C225.108 142.994 223.87 144.237 222.342 144.237C220.815 144.237 219.575 142.994 219.575 141.46V114.316C219.575 109.796 215.115 106.386 209.199 106.386H208.336C202.332 106.386 197.446 109.944 197.446 114.316V142.121C197.446 143.655 196.208 144.898 194.68 144.898Z" fill="#191551"/>
<path fill-rule="evenodd" clip-rule="evenodd" d="M230.543 163.028C230.543 166.499 227.646 169.507 223.572 169.507H193.45C189.377 169.507 185.887 166.499 185.887 163.028V137.369C185.887 133.899 189.377 131.136 193.45 131.136H223.572C227.646 131.136 230.543 133.899 230.543 137.369V163.028Z" fill="#191551"/>
<path fill-rule="evenodd" clip-rule="evenodd" d="M212.968 145.37C212.968 143.212 211.225 141.461 209.074 141.461H208.87C206.719 141.461 204.977 143.212 204.977 145.37V145.576C204.977 147.735 206.719 149.484 208.87 149.484H209.074C211.225 149.484 212.968 147.735 212.968 145.576V145.37Z" fill="white"/>
<path fill-rule="evenodd" clip-rule="evenodd" d="M210.816 158.125C210.816 159.148 209.991 159.976 208.972 159.976C207.953 159.976 207.128 159.148 207.128 158.125V147.633C207.128 146.61 207.953 145.782 208.972 145.782C209.991 145.782 210.816 146.61 210.816 147.633V158.125Z" fill="white"/>
</g>
<defs>
<filter id="filter0_d" x="-4" y="89" width="167.9" height="178" filterUnits="userSpaceOnUse" color-interpolation-filters="sRGB">
<feFlood flood-opacity="0" result="BackgroundImageFix"/>
<feColorMatrix in="SourceAlpha" type="matrix" values="0 0 0 0 0 0 0 0 0 0 0 0 0 0 0 0 0 0 127 0"/>
<feOffset dy="4"/>
<feGaussianBlur stdDeviation="2"/>
<feColorMatrix type="matrix" values="0 0 0 0 0 0 0 0 0 0 0 0 0 0 0 0 0 0 0.25 0"/>
<feBlend mode="normal" in2="BackgroundImageFix" result="effect1_dropShadow"/>
<feBlend mode="normal" in="SourceGraphic" in2="effect1_dropShadow" result="shape"/>
</filter>
<filter id="filter1_d" x="82" y="0" width="253.846" height="269" filterUnits="userSpaceOnUse" color-interpolation-filters="sRGB">
<feFlood flood-opacity="0" result="BackgroundImageFix"/>
<feColorMatrix in="SourceAlpha" type="matrix" values="0 0 0 0 0 0 0 0 0 0 0 0 0 0 0 0 0 0 127 0"/>
<feOffset dy="4"/>
<feGaussianBlur stdDeviation="2"/>
<feColorMatrix type="matrix" values="0 0 0 0 0 0 0 0 0 0 0 0 0 0 0 0 0 0 0.25 0"/>
<feBlend mode="normal" in2="BackgroundImageFix" result="effect1_dropShadow"/>
<feBlend mode="normal" in="SourceGraphic" in2="effect1_dropShadow" result="shape"/>
</filter>
<linearGradient id="paint0_linear" x1="73.0072" y1="134.988" x2="73.0072" y2="171.982" gradientUnits="userSpaceOnUse">
<stop stop-color="#7A5FFF"/>
<stop offset="1" stop-color="#01FF89"/>
</linearGradient>
<linearGradient id="paint1_linear" x1="77.9993" y1="135.031" x2="77.9993" y2="189.011" gradientUnits="userSpaceOnUse">
<stop stop-color="#7A5FFF"/>
<stop offset="1" stop-color="#01FF89"/>
</linearGradient>
<clipPath id="clip0">
<rect y="89" width="160" height="170" fill="white"/>
</clipPath>
<clipPath id="clip1">
<rect x="86" width="246" height="261" fill="white"/>
</clipPath>
</defs>
</svg>
