<svg width="366" height="241" viewBox="0 0 366 241" fill="none" xmlns="http://www.w3.org/2000/svg">
<g filter="url(#filter0_d_13_7971)">
<mask id="mask0_13_7971" style="mask-type:alpha" maskUnits="userSpaceOnUse" x="39" y="1" width="288" height="223">
<path fill-rule="evenodd" clip-rule="evenodd" d="M39.1172 1.30078H326.669V223.201H39.1172V1.30078Z" fill="white"/>
</mask>
<g mask="url(#mask0_13_7971)">
<path fill-rule="evenodd" clip-rule="evenodd" d="M326.669 214.656C326.669 219.385 323.048 223.202 318.596 223.202H47.1869C42.7352 223.202 39.1172 219.385 39.1172 214.656V9.8494C39.1172 5.12091 42.7352 1.30078 47.1869 1.30078H318.596C323.048 1.30078 326.669 5.12091 326.669 9.8494V214.656Z" fill="white"/>
</g>
<mask id="mask1_13_7971" style="mask-type:alpha" maskUnits="userSpaceOnUse" x="3" y="1" width="360" height="235">
<path fill-rule="evenodd" clip-rule="evenodd" d="M3 236H362.778V1.30078H3V236Z" fill="white"/>
</mask>
<g mask="url(#mask1_13_7971)">
<path fill-rule="evenodd" clip-rule="evenodd" d="M52 203.755H313.35V16H52V203.755Z" fill="#191551"/>
<path fill-rule="evenodd" clip-rule="evenodd" d="M2.99988 216.793C4.07239 227.539 14.7279 236 27.8399 236H337.934C351.053 236 361.701 227.539 362.779 216.793H2.99988Z" fill="#EFEFEF"/>
<path fill-rule="evenodd" clip-rule="evenodd" d="M135.461 223.202H230.316V216.793H135.461V223.202Z" fill="#CCCCCC"/>
</g>
</g>
<mask id="mask2_13_7971" style="mask-type:alpha" maskUnits="userSpaceOnUse" x="54" y="42" width="258" height="123">
<path d="M306.99 164.661H59.0097C56.3122 164.661 54 162.793 54 160.247V46.5C54 43.9534 56.1195 42.0859 59.0097 42.0859H306.99C309.688 42.0859 312 43.9534 312 46.5V160.416C311.808 162.793 309.688 164.661 306.99 164.661Z" fill="#E4F5FB"/>
</mask>
<g mask="url(#mask2_13_7971)">
<path d="M210.419 101.197C210.419 101.197 225.444 102.202 224.438 105.218C223.43 108.192 214.615 118.202 214.615 118.202L200.387 119.416L210.419 101.197Z" fill="#630DD3"/>
<path d="M202.74 102.914C202.74 102.914 221.418 102.998 223.643 106.181C223.643 106.181 209.414 121.385 208.826 121.552C208.239 121.761 190.609 123.562 190.609 123.562L202.74 102.914Z" fill="#191551"/>
<path d="M152.747 101.198C152.747 101.198 137.721 102.203 138.728 105.218C139.736 108.192 148.55 118.202 148.55 118.202L162.779 119.417L152.747 101.198Z" fill="#630DD3"/>
<path d="M160.43 102.914C160.43 102.914 141.752 102.998 139.527 106.181C139.527 106.181 153.756 121.385 154.344 121.552C154.932 121.761 172.561 123.562 172.561 123.562L160.43 102.914Z" fill="#191551"/>
<path d="M181.584 101.575C181.584 101.575 151.027 86.4548 151.027 93.6587C151.027 101.575 153.294 112.046 164.039 118.328C168.698 121.05 181.584 135.458 181.584 135.458C181.584 135.458 194.47 121.009 199.129 118.328C209.916 112.087 212.141 101.617 212.141 93.6587C212.141 86.4129 181.584 101.575 181.584 101.575Z" fill="#F0F0F0"/>
<path d="M181.582 96.4219H150.941C152.62 104.254 162.358 113.762 169.578 113.762C177.972 113.762 178.392 106.935 181.582 106.935C184.772 106.935 185.192 113.762 193.587 113.762C200.807 113.762 210.208 105.301 212.223 96.4219H181.582Z" fill="#191551"/>
<path d="M213.609 122.976C213.609 122.976 219.401 116.987 221.836 112.589C223.935 108.778 224.396 105.846 224.481 105.176C224.313 105.762 222.844 107.982 210.252 111.207C195.435 115.018 185.025 120.002 181.625 132.191C178.226 120.002 167.816 115.018 152.999 111.207C140.407 107.982 138.938 105.762 138.77 105.176C138.854 105.888 139.316 108.778 141.415 112.589C143.807 116.987 149.641 122.976 149.641 122.976C136.126 119.793 127.102 189.636 127.102 189.636C137.931 203.038 181.583 201.523 181.583 201.523C181.583 201.523 225.236 203.038 236.065 189.636C236.023 189.636 227.041 119.793 213.609 122.976Z" fill="#630DD3"/>
<path d="M138.686 107.521C138.686 107.437 138.686 107.354 138.686 107.354C138.686 107.354 138.645 107.395 138.686 107.521Z" fill="#18557F"/>
<path d="M211.218 85.1562C211.218 85.1562 209.202 66.1831 202.193 56.9687C197.24 50.4767 192.791 55.1677 181.584 60.9476C170.377 55.1677 165.928 50.4767 160.933 56.9687C153.923 66.1831 151.951 85.1562 151.951 85.1562C144.521 85.952 137.344 88.9676 137.344 88.9676C144.941 100.737 178.394 102.747 178.394 102.747H181.584H184.774C184.774 102.747 218.227 100.737 225.825 88.9676C225.825 88.9676 218.605 85.952 211.218 85.1562Z" fill="#4607A8"/>
<path d="M181.582 79.9631C173.355 79.9631 161.141 78.7485 150.941 74.7695L151.949 85.1566C151.949 85.1566 160.973 90.3502 181.582 90.3502C202.191 90.3502 211.216 85.1566 211.216 85.1566L212.223 74.7695C201.982 78.7485 189.767 79.9631 181.582 79.9631Z" fill="#1C175C"/>
<path opacity="0.1" d="M181.582 162.138C181.582 162.138 225.235 201.069 236.064 187.667C236.064 187.667 227.039 119.752 213.649 122.977C213.649 122.977 219.443 116.987 221.877 112.59C223.975 108.778 224.437 105.847 224.521 105.176C224.521 105.218 224.48 105.302 224.437 105.386C224.48 105.344 224.48 105.26 224.521 105.218C225.361 102.705 214.741 101.574 211.468 101.281C211.719 100.067 211.929 98.8938 212.055 97.7211C218.1 95.6688 223.43 92.8627 225.949 88.9676C225.949 88.9676 218.729 85.952 211.342 85.1562C211.342 85.1562 209.326 66.1831 202.317 56.9687C197.364 50.4767 192.915 55.1677 181.708 60.9476V162.138H181.582Z" fill="black"/>
<path d="M182.286 142.338C183.552 142.338 184.579 141.317 184.579 140.058C184.579 138.798 183.552 137.777 182.286 137.777C181.019 137.777 179.992 138.798 179.992 140.058C179.992 141.317 181.019 142.338 182.286 142.338Z" fill="#C4C4C4" stroke="#FFD22E" stroke-width="0.2"/>
<path d="M182.286 153.741C183.552 153.741 184.579 152.72 184.579 151.46C184.579 150.201 183.552 149.18 182.286 149.18C181.019 149.18 179.992 150.201 179.992 151.46C179.992 152.72 181.019 153.741 182.286 153.741Z" fill="#C4C4C4" stroke="#FFD22E" stroke-width="0.2"/>
</g>
<defs>
<filter id="filter0_d_13_7971" x="0" y="0.300781" width="365.778" height="240.699" filterUnits="userSpaceOnUse" color-interpolation-filters="sRGB">
<feFlood flood-opacity="0" result="BackgroundImageFix"/>
<feColorMatrix in="SourceAlpha" type="matrix" values="0 0 0 0 0 0 0 0 0 0 0 0 0 0 0 0 0 0 127 0" result="hardAlpha"/>
<feOffset dy="2"/>
<feGaussianBlur stdDeviation="1.5"/>
<feColorMatrix type="matrix" values="0 0 0 0 0 0 0 0 0 0 0 0 0 0 0 0 0 0 0.15 0"/>
<feBlend mode="normal" in2="BackgroundImageFix" result="effect1_dropShadow_13_7971"/>
<feBlend mode="normal" in="SourceGraphic" in2="effect1_dropShadow_13_7971" result="shape"/>
</filter>
</defs>
</svg>
