<svg width="537" height="425" viewBox="0 0 537 425" fill="none" xmlns="http://www.w3.org/2000/svg">
<path d="M236.165 250.395L171.119 213.296C168.763 211.928 169.067 209.495 171.803 207.899L209.265 186.308C212.001 184.712 216.18 184.56 218.536 185.928L283.583 223.027C285.938 224.396 285.634 226.828 282.899 228.425L245.436 250.015C242.701 251.612 238.521 251.764 236.165 250.395Z" fill="#F3F3F3"/>
<path d="M289.358 210.483V58.5145L228.947 42.7018L217.852 36.3159C215.269 34.8715 210.861 35.0235 207.898 36.696L197.487 42.7018H165.268L174.843 189.425C174.767 190.413 175.298 191.402 176.59 192.086L236.849 237.623C239.433 239.068 243.84 238.916 246.804 237.243L287.002 214.056C288.674 212.992 289.434 211.7 289.358 210.483Z" fill="#7EC4F7"/>
<path d="M213.217 35.3276C211.317 35.4036 209.417 35.8597 207.898 36.696L197.487 42.7017H165.268V195.127C165.192 196.115 165.724 197.103 167.016 197.788L236.849 237.623C238.065 238.308 239.737 238.688 241.485 238.612L242.169 85.2742L213.217 35.3276Z" fill="#D3E9F8"/>
<path d="M237.457 237.852C239.661 238.764 242.853 238.764 245.436 237.776V83.374H237.457V237.852Z" fill="#7EC4F7"/>
<path d="M236.774 85.1985L166.94 45.3628C164.357 43.9183 164.736 41.3336 167.624 39.585L207.822 16.3982C210.786 14.7257 215.193 14.4977 217.777 16.0181L287.61 55.8538C290.194 57.2983 289.814 59.883 286.927 61.6315L246.728 84.8184C243.841 86.4909 239.358 86.7189 236.774 85.1985Z" fill="#D3E9F8"/>
<path d="M286.926 58.7426L246.728 81.9294C243.764 83.6019 239.357 83.83 236.773 82.3096L166.94 42.4738C166.408 42.1697 165.952 41.7896 165.648 41.3335C164.736 42.7779 165.192 44.2984 166.94 45.2867L236.773 85.1224C239.357 86.5668 243.764 86.4148 246.728 84.7423L286.926 61.5554C289.206 60.2631 289.89 58.3625 288.902 56.9181C288.522 57.6023 287.838 58.2105 286.926 58.7426Z" fill="#F9FCFF"/>
<path d="M238.749 69.0824L192.244 42.0944C191.028 41.4102 191.18 40.1939 192.548 39.4337L211.317 28.5625C212.685 27.8022 214.813 27.6502 215.952 28.3344L262.61 55.3223C263.825 56.0065 263.673 57.2229 262.306 57.9831L243.536 68.8543C242.093 69.6906 239.965 69.7666 238.749 69.0824Z" fill="#7EC4F7"/>
<path d="M213.673 43.3101L211.013 41.7896C210.861 41.7136 210.861 41.5616 211.089 41.4095L213.673 39.8891C213.901 39.813 214.129 39.737 214.281 39.8891L216.94 41.4095C217.092 41.4855 217.092 41.6376 216.864 41.7896L214.281 43.3101C214.129 43.3861 213.825 43.4621 213.673 43.3101Z" fill="#D3E9F8"/>
<path d="M222.716 48.4799L220.056 46.9595C219.904 46.8835 219.904 46.7314 220.132 46.5794L222.716 45.0589C222.944 44.9829 223.172 44.9069 223.323 45.0589L225.983 46.5794C226.135 46.6554 226.135 46.8074 225.907 46.9595L223.323 48.4799C223.172 48.632 222.868 48.632 222.716 48.4799Z" fill="#D3E9F8"/>
<path d="M231.682 53.6494L229.023 52.1289C228.871 52.0529 228.871 51.9009 229.099 51.7488L231.682 50.2284C231.91 50.1524 232.138 50.0763 232.29 50.2284L234.95 51.7488C235.102 51.8248 235.102 51.9769 234.874 52.1289L232.29 53.6494C232.138 53.8014 231.834 53.8014 231.682 53.6494Z" fill="#D3E9F8"/>
<path d="M240.725 58.8946L238.065 57.3741C237.913 57.2981 237.913 57.1461 238.141 56.994L240.725 55.4736C240.953 55.3975 241.181 55.3215 241.333 55.4736L243.992 56.994C244.144 57.07 244.144 57.2221 243.916 57.3741L241.333 58.8946C241.105 58.9706 240.877 58.9706 240.725 58.8946Z" fill="#D3E9F8"/>
<path d="M192.321 42.0939C192.473 42.0939 192.549 42.0179 192.625 41.9419L211.394 31.0707C212.762 30.3105 214.89 30.1584 216.03 30.8426L262.535 57.8306C263.599 57.0703 263.675 56.006 262.611 55.3218L216.105 28.3339C214.89 27.6497 212.838 27.7257 211.47 28.5619L192.625 39.4331C191.257 40.1934 191.105 41.4097 192.321 42.0939Z" fill="#44A6E2"/>
<path d="M254.631 115.303L281.075 100.175C282.595 99.3385 283.735 96.9818 283.735 95.0053V85.5785C283.735 83.6019 282.519 82.6896 281.075 83.5259L254.631 98.6543C253.111 99.4906 251.971 101.847 251.971 103.824V113.251C251.895 115.303 253.111 116.216 254.631 115.303Z" fill="#203E79"/>
<path d="M282.367 83.2979C282.747 83.678 283.051 84.3622 283.051 85.2744V94.7012C283.051 96.6778 281.835 98.9585 280.391 99.8707L253.947 114.999C253.491 115.303 253.035 115.379 252.655 115.303C253.111 115.76 253.871 115.836 254.707 115.38L281.151 100.251C282.671 99.4146 283.811 97.0579 283.811 95.0813V85.5785C283.735 84.2101 283.203 83.4499 282.367 83.2979Z" fill="white"/>
<path d="M262.534 105.04L264.965 103.672C265.269 103.52 265.573 102.988 265.573 102.531V99.9467C265.573 99.4906 265.345 99.3386 264.965 99.4906L262.534 100.935C262.23 101.087 261.926 101.619 261.926 102.075V104.66C262.002 105.04 262.23 105.268 262.534 105.04Z" fill="#3A6DAA"/>
<path d="M270.664 100.403L273.096 99.0346C273.4 98.8826 273.704 98.3504 273.704 97.8943V95.3095C273.704 94.8534 273.476 94.7013 273.096 94.8534L270.664 96.2218C270.36 96.3738 270.057 96.906 270.057 97.3621V99.9469C270.057 100.403 270.36 100.555 270.664 100.403Z" fill="white"/>
<path d="M254.631 183.648L281.075 168.519C282.595 167.683 283.735 165.326 283.735 163.35V153.923C283.735 151.946 282.519 151.034 281.075 151.87L254.631 166.999C253.111 167.835 251.971 170.192 251.971 172.168V181.595C251.895 183.572 253.111 184.484 254.631 183.648Z" fill="#203E79"/>
<path d="M282.367 151.566C282.747 151.946 283.051 152.63 283.051 153.543V162.969C283.051 164.946 281.835 167.227 280.391 168.139L253.947 183.267C253.491 183.572 253.035 183.648 252.655 183.572C253.111 184.028 253.871 184.104 254.707 183.648L281.151 168.519C282.671 167.683 283.811 165.326 283.811 163.35V153.923C283.735 152.554 283.203 151.718 282.367 151.566Z" fill="white"/>
<path d="M262.534 173.385L264.965 172.016C265.269 171.864 265.573 171.332 265.573 170.876V168.291C265.573 167.835 265.345 167.683 264.965 167.835L262.534 169.203C262.23 169.355 261.926 169.888 261.926 170.344V172.928C262.002 173.385 262.23 173.537 262.534 173.385Z" fill="#3A6DAA"/>
<path d="M270.664 168.671L273.096 167.303C273.4 167.151 273.704 166.619 273.704 166.162V163.578C273.704 163.122 273.476 162.97 273.096 163.122L270.664 164.49C270.36 164.642 270.057 165.174 270.057 165.63V168.215C270.057 168.671 270.36 168.899 270.664 168.671Z" fill="white"/>
<path d="M254.631 217.782L281.075 202.653C282.595 201.817 283.735 199.46 283.735 197.484V188.057C283.735 186.08 282.519 185.168 281.075 186.004L254.631 201.133C253.111 201.969 251.971 204.326 251.971 206.302V215.729C251.895 217.782 253.111 218.694 254.631 217.782Z" fill="#203E79"/>
<path d="M282.367 185.776C282.747 186.156 283.051 186.841 283.051 187.753V197.18C283.051 199.156 281.835 201.437 280.391 202.349L253.947 217.478C253.491 217.782 253.035 217.858 252.655 217.782C253.111 218.238 253.871 218.314 254.707 217.858L281.151 202.729C282.671 201.893 283.811 199.536 283.811 197.56V188.133C283.735 186.764 283.203 185.928 282.367 185.776Z" fill="white"/>
<path d="M262.534 207.518L264.965 206.15C265.269 205.998 265.573 205.466 265.573 205.01V202.425C265.573 201.969 265.345 201.817 264.965 201.969L262.534 203.337C262.23 203.489 261.926 204.021 261.926 204.478V207.062C262.002 207.518 262.23 207.747 262.534 207.518Z" fill="#3A6DAA"/>
<path d="M270.664 202.881L273.096 201.513C273.4 201.361 273.704 200.829 273.704 200.372V197.788C273.704 197.332 273.476 197.179 273.096 197.332L270.664 198.7C270.36 198.852 270.057 199.384 270.057 199.84V202.425C270.057 202.881 270.36 203.033 270.664 202.881Z" fill="white"/>
<path d="M254.631 149.514L281.075 134.385C282.595 133.549 283.735 131.192 283.735 129.216V119.789C283.735 117.812 282.519 116.9 281.075 117.736L254.631 132.865C253.111 133.701 251.971 136.058 251.971 138.034V147.461C251.895 149.437 253.111 150.35 254.631 149.514Z" fill="#203E79"/>
<path d="M282.367 117.432C282.747 117.812 283.051 118.496 283.051 119.409V128.835C283.051 130.812 281.835 133.093 280.391 134.005L253.947 149.133C253.491 149.437 253.035 149.514 252.655 149.437C253.111 149.894 253.871 149.97 254.707 149.514L281.151 134.385C282.671 133.549 283.811 131.192 283.811 129.216V119.789C283.735 118.42 283.203 117.584 282.367 117.432Z" fill="white"/>
<path d="M262.534 139.251L264.965 137.882C265.269 137.73 265.573 137.198 265.573 136.742V134.157C265.573 133.701 265.345 133.549 264.965 133.701L262.534 135.069C262.23 135.221 261.926 135.754 261.926 136.21V138.794C262.002 139.175 262.23 139.403 262.534 139.251Z" fill="#3A6DAA"/>
<path d="M270.664 134.537L273.096 133.169C273.4 133.017 273.704 132.485 273.704 132.028V129.444C273.704 128.988 273.476 128.835 273.096 128.988L270.664 130.356C270.36 130.508 270.057 131.04 270.057 131.496V134.081C270.057 134.537 270.36 134.765 270.664 134.537Z" fill="white"/>
<path d="M231.758 105.648L170.815 70.45C169.447 69.6898 168.307 67.5612 168.307 65.7366V54.1052C168.307 52.2807 169.447 51.4444 170.815 52.2047L231.758 87.403C233.126 88.1632 234.266 90.2919 234.266 92.1164V103.748C234.19 105.572 233.126 106.409 231.758 105.648Z" fill="#4164C4"/>
<path d="M230.01 101.543L172.563 68.3214C171.879 67.9412 171.347 66.8769 171.347 65.8886V57.2221C171.347 56.3098 171.879 55.8537 172.563 56.3098L230.01 89.5316C230.694 89.9117 231.226 90.976 231.226 91.9643V100.707C231.226 101.543 230.694 101.999 230.01 101.543Z" fill="#5070E2"/>
<path d="M184.493 70.9064L175.906 65.8889C175.222 65.5088 174.691 64.4445 174.691 63.5322C174.691 62.6199 175.222 62.2398 175.906 62.6199L184.493 67.5614C185.177 67.9415 185.709 69.0058 185.709 69.9181C185.709 70.8303 185.177 71.2865 184.493 70.9064Z" fill="#5B95FF"/>
<path d="M191.788 73.4908C191.788 74.403 191.18 74.7832 190.42 74.327C189.66 73.8709 188.976 72.8066 188.976 71.8943C188.976 70.982 189.584 70.6019 190.42 71.0581C191.18 71.5142 191.788 72.5785 191.788 73.4908Z" fill="#03E59F"/>
<path d="M196.727 76.3037C196.727 77.216 196.119 77.5961 195.284 77.14C194.524 76.6839 193.916 75.6195 193.916 74.7073C193.916 73.795 194.524 73.4149 195.284 73.871C196.119 74.3272 196.727 75.4675 196.727 76.3037Z" fill="#03E59F"/>
<path d="M201.743 79.1924C201.743 80.1047 201.135 80.4848 200.375 80.0287C199.615 79.5725 199.007 78.5082 199.007 77.596C199.007 76.6837 199.615 76.3036 200.375 76.7597C201.059 77.2159 201.743 78.2802 201.743 79.1924Z" fill="#03E59F"/>
<path d="M206.682 82.0815C206.682 82.9938 206.074 83.3739 205.314 82.9178C204.554 82.4617 203.946 81.3973 203.946 80.4851C203.946 79.5728 204.554 79.1927 205.314 79.6488C206.074 80.105 206.682 81.1693 206.682 82.0815Z" fill="#203E79"/>
<path d="M227.579 96.6778L224.691 95.0053C224.235 94.7772 223.931 94.093 223.931 93.4849V90.444C223.931 89.8358 224.311 89.6077 224.691 89.8358L227.579 91.5083C228.035 91.7363 228.339 92.4206 228.339 93.0287V96.0696C228.339 96.6778 227.959 96.9819 227.579 96.6778Z" fill="#203E79"/>
<path d="M231.758 126.175L170.815 90.9764C169.447 90.2161 168.307 88.0875 168.307 86.263V74.6315C168.307 72.807 169.447 71.9708 170.815 72.731L231.758 107.929C233.126 108.69 234.266 110.818 234.266 112.643V124.274C234.19 126.099 233.126 126.935 231.758 126.175Z" fill="#4164C4"/>
<path d="M230.01 122.07L172.563 88.8477C171.879 88.4676 171.347 87.4033 171.347 86.415V77.7484C171.347 76.8362 171.879 76.38 172.563 76.8362L230.01 110.058C230.694 110.438 231.226 111.502 231.226 112.491V121.233C231.226 122.07 230.694 122.45 230.01 122.07Z" fill="#5070E2"/>
<path d="M184.493 91.3563L175.906 86.4148C175.222 86.0347 174.691 84.9704 174.691 84.0581C174.691 83.1459 175.222 82.7657 175.906 83.1458L184.493 88.0873C185.177 88.4674 185.709 89.5317 185.709 90.444C185.709 91.3563 185.177 91.8124 184.493 91.3563Z" fill="#5B95FF"/>
<path d="M191.788 94.0171C191.788 94.9294 191.18 95.3095 190.42 94.8533C189.66 94.3972 188.976 93.3329 188.976 92.4206C188.976 91.5084 189.584 91.1283 190.42 91.5844C191.18 91.9645 191.788 93.1048 191.788 94.0171Z" fill="#03E59F"/>
<path d="M196.727 96.8301C196.727 97.7423 196.119 98.1224 195.284 97.6663C194.524 97.2102 193.916 96.1459 193.916 95.2336C193.916 94.3213 194.524 93.9412 195.284 94.3974C196.119 94.8535 196.727 95.9178 196.727 96.8301Z" fill="#203E79"/>
<path d="M201.273 100.598C201.818 100.283 201.818 99.2614 201.272 98.3161C200.727 97.3707 199.842 96.8596 199.297 97.1745C198.752 97.4894 198.752 98.511 199.298 99.4564C199.843 100.402 200.728 100.913 201.273 100.598Z" fill="#03E59F"/>
<path d="M206.227 103.493C206.772 103.179 206.772 102.157 206.226 101.212C205.681 100.266 204.796 99.7551 204.251 100.07C203.706 100.385 203.706 101.407 204.252 102.352C204.798 103.297 205.682 103.808 206.227 103.493Z" fill="#203E79"/>
<path d="M227.579 117.204L224.691 115.532C224.235 115.304 223.931 114.619 223.931 114.011V110.97C223.931 110.362 224.311 110.134 224.691 110.362L227.579 112.035C228.035 112.263 228.339 112.947 228.339 113.555V116.596C228.339 117.204 227.959 117.432 227.579 117.204Z" fill="#FFD22E"/>
<path d="M231.758 146.701L170.815 111.502C169.447 110.742 168.307 108.613 168.307 106.789V95.1574C168.307 93.3329 169.447 92.4967 170.815 93.2569L231.758 128.455C233.126 129.216 234.266 131.344 234.266 133.169V144.8C234.19 146.625 233.126 147.461 231.758 146.701Z" fill="#4164C4"/>
<path d="M230.01 142.596L172.563 109.374C171.879 108.994 171.347 107.929 171.347 106.941V98.1987C171.347 97.2864 171.879 96.8303 172.563 97.2864L230.01 130.508C230.694 130.888 231.226 131.952 231.226 132.941V141.683C231.226 142.596 230.694 142.976 230.01 142.596Z" fill="#5070E2"/>
<path d="M184.493 111.882L175.906 106.941C175.222 106.561 174.691 105.496 174.691 104.584C174.691 103.672 175.222 103.292 175.906 103.672L184.493 108.613C185.177 108.993 185.709 110.058 185.709 110.97C185.709 111.882 185.177 112.262 184.493 111.882Z" fill="#5B95FF"/>
<path d="M191.788 114.467C191.788 115.38 191.18 115.76 190.42 115.304C189.66 114.847 188.976 113.783 188.976 112.871C188.976 111.959 189.584 111.578 190.42 112.035C191.18 112.491 191.788 113.631 191.788 114.467Z" fill="#FF65AB"/>
<path d="M196.727 117.356C196.727 118.268 196.119 118.648 195.284 118.192C194.524 117.736 193.916 116.672 193.916 115.76C193.916 114.847 194.524 114.467 195.284 114.923C196.119 115.379 196.727 116.444 196.727 117.356Z" fill="#FF65AB"/>
<path d="M201.743 120.245C201.743 121.157 201.135 121.537 200.375 121.081C199.615 120.625 199.007 119.561 199.007 118.648C199.007 117.736 199.615 117.356 200.375 117.812C201.059 118.268 201.743 119.333 201.743 120.245Z" fill="#03E59F"/>
<path d="M206.682 123.058C206.682 123.97 206.074 124.35 205.314 123.894C204.554 123.438 203.946 122.374 203.946 121.461C203.946 120.549 204.554 120.169 205.314 120.625C206.074 121.081 206.682 122.221 206.682 123.058Z" fill="#203E79"/>
<path d="M227.579 137.73L224.691 136.058C224.235 135.829 223.931 135.145 223.931 134.537V131.496C223.931 130.888 224.311 130.66 224.691 130.888L227.579 132.56C228.035 132.789 228.339 133.473 228.339 134.081V137.122C228.339 137.73 227.959 137.958 227.579 137.73Z" fill="#203E79"/>
<path d="M231.758 167.151L170.815 131.952C169.447 131.192 168.307 129.063 168.307 127.239V115.607C168.307 113.783 169.447 112.946 170.815 113.707L231.758 148.905C233.126 149.666 234.266 151.794 234.266 153.619V165.25C234.19 167.151 233.126 167.987 231.758 167.151Z" fill="#4164C4"/>
<path d="M230.01 162.513L172.563 129.292C171.879 128.911 171.347 127.847 171.347 126.859V118.116C171.347 117.204 171.879 116.748 172.563 117.204L230.01 150.426C230.694 150.806 231.226 151.87 231.226 152.858V161.601C231.226 162.437 230.694 162.893 230.01 162.513Z" fill="#5070E2"/>
<path d="M184.493 132.408L175.906 127.467C175.222 127.087 174.691 126.023 174.691 125.11C174.691 124.198 175.222 123.818 175.906 124.198L184.493 129.14C185.177 129.52 185.709 130.584 185.709 131.496C185.709 132.408 185.177 132.789 184.493 132.408Z" fill="#5B95FF"/>
<path d="M191.788 134.993C191.788 135.905 191.18 136.286 190.42 135.829C189.66 135.373 188.976 134.309 188.976 133.397C188.976 132.484 189.584 132.104 190.42 132.56C191.18 133.017 191.788 134.081 191.788 134.993Z" fill="#203E79"/>
<path d="M196.727 137.882C196.727 138.794 196.119 139.174 195.284 138.718C194.524 138.262 193.916 137.198 193.916 136.286C193.916 135.373 194.524 134.993 195.284 135.449C196.119 135.905 196.727 136.97 196.727 137.882Z" fill="#203E79"/>
<path d="M201.743 140.771C201.743 141.683 201.135 142.063 200.375 141.607C199.615 141.151 199.007 140.087 199.007 139.174C199.007 138.262 199.615 137.882 200.375 138.338C201.059 138.718 201.743 139.859 201.743 140.771Z" fill="#03E59F"/>
<path d="M206.243 144.54C206.788 144.225 206.787 143.204 206.242 142.258C205.696 141.313 204.812 140.802 204.267 141.117C203.722 141.432 203.722 142.453 204.268 143.399C204.813 144.344 205.697 144.855 206.243 144.54Z" fill="#203E79"/>
<path d="M227.579 158.256L224.691 156.584C224.235 156.355 223.931 155.671 223.931 155.063V152.022C223.931 151.414 224.311 151.186 224.691 151.414L227.579 153.086C228.035 153.315 228.339 153.999 228.339 154.607V157.648C228.339 158.256 227.959 158.484 227.579 158.256Z" fill="#FFD22E"/>
<path d="M231.758 187.677L170.815 152.478C169.447 151.718 168.307 149.59 168.307 147.765V136.134C168.307 134.309 169.447 133.473 170.815 134.233L231.758 169.431C233.126 170.192 234.266 172.32 234.266 174.145V185.776C234.19 187.677 233.126 188.513 231.758 187.677Z" fill="#4164C4"/>
<path d="M230.01 182.963L172.563 149.742C171.879 149.361 171.347 148.297 171.347 147.309V138.566C171.347 137.654 171.879 137.198 172.563 137.654L230.01 170.876C230.694 171.256 231.226 172.32 231.226 173.308V182.051C231.226 182.963 230.694 183.419 230.01 182.963Z" fill="#5070E2"/>
<path d="M184.493 152.935L175.906 147.993C175.222 147.613 174.691 146.549 174.691 145.636C174.691 144.724 175.222 144.344 175.906 144.724L184.493 149.666C185.177 150.046 185.709 151.11 185.709 152.022C185.709 152.859 185.177 153.315 184.493 152.935Z" fill="#5B95FF"/>
<path d="M191.788 155.519C191.788 156.432 191.18 156.812 190.42 156.356C189.66 155.899 188.976 154.835 188.976 153.923C188.976 153.011 189.584 152.63 190.42 153.087C191.18 153.543 191.788 154.607 191.788 155.519Z" fill="#203E79"/>
<path d="M196.727 158.408C196.727 159.32 196.119 159.701 195.284 159.244C194.524 158.788 193.916 157.724 193.916 156.812C193.916 155.899 194.524 155.519 195.284 155.975C196.119 156.432 196.727 157.496 196.727 158.408Z" fill="#03E59F"/>
<path d="M201.743 161.221C201.743 162.133 201.135 162.513 200.375 162.057C199.615 161.601 199.007 160.537 199.007 159.624C199.007 158.712 199.615 158.332 200.375 158.788C201.059 159.244 201.743 160.385 201.743 161.221Z" fill="#FF65AB"/>
<path d="M206.682 164.11C206.682 165.022 206.074 165.402 205.314 164.946C204.554 164.49 203.946 163.426 203.946 162.513C203.946 161.601 204.554 161.221 205.314 161.677C206.074 162.133 206.682 163.198 206.682 164.11Z" fill="#03E59F"/>
<path d="M227.579 178.782L224.691 177.11C224.235 176.882 223.931 176.197 223.931 175.589V172.548C223.931 171.94 224.311 171.712 224.691 171.94L227.579 173.613C228.035 173.841 228.339 174.525 228.339 175.133V178.174C228.339 178.706 227.959 179.01 227.579 178.782Z" fill="#FFD22E"/>
<path d="M231.758 208.203L170.815 173.004C169.447 172.244 168.307 170.116 168.307 168.291V156.66C168.307 154.835 169.447 153.999 170.815 154.759L231.758 189.957C233.126 190.718 234.266 192.846 234.266 194.671V206.302C234.19 208.127 233.126 208.963 231.758 208.203Z" fill="#4164C4"/>
<path d="M230.01 203.489L172.563 170.268C171.879 169.887 171.347 168.823 171.347 167.835V159.092C171.347 158.18 171.879 157.724 172.563 158.18L230.01 191.402C230.694 191.782 231.226 192.846 231.226 193.835V202.577C231.226 203.489 230.694 203.869 230.01 203.489Z" fill="#5070E2"/>
<path d="M184.493 173.461L175.906 168.519C175.222 168.139 174.691 167.075 174.691 166.162C174.691 165.25 175.222 164.87 175.906 165.25L184.493 170.192C185.177 170.572 185.709 171.636 185.709 172.548C185.709 173.385 185.177 173.841 184.493 173.461Z" fill="#5B95FF"/>
<path d="M191.788 176.045C191.788 176.958 191.18 177.338 190.42 176.882C189.66 176.425 188.976 175.361 188.976 174.449C188.976 173.537 189.584 173.156 190.42 173.613C191.18 174.069 191.788 175.133 191.788 176.045Z" fill="#203E79"/>
<path d="M196.727 178.858C196.727 179.77 196.119 180.151 195.284 179.694C194.524 179.238 193.916 178.174 193.916 177.262C193.916 176.349 194.524 175.969 195.284 176.425C196.119 176.882 196.727 178.022 196.727 178.858Z" fill="#203E79"/>
<path d="M201.743 181.747C201.743 182.659 201.135 183.039 200.375 182.583C199.615 182.127 199.007 181.063 199.007 180.15C199.007 179.238 199.615 178.858 200.375 179.314C201.059 179.77 201.743 180.835 201.743 181.747Z" fill="#03E59F"/>
<path d="M206.682 184.636C206.682 185.548 206.074 185.928 205.314 185.472C204.554 185.016 203.946 183.952 203.946 183.039C203.946 182.127 204.554 181.747 205.314 182.203C206.074 182.659 206.682 183.724 206.682 184.636Z" fill="#203E79"/>
<path d="M227.579 199.232L224.691 197.56C224.235 197.332 223.931 196.647 223.931 196.039V192.998C223.931 192.39 224.311 192.162 224.691 192.39L227.579 194.063C228.035 194.291 228.339 194.975 228.339 195.583V198.624C228.339 199.232 227.959 199.536 227.579 199.232Z" fill="#203E79"/>
<path d="M231.758 228.729L170.815 193.53C169.447 192.77 168.307 190.642 168.307 188.817V177.186C168.307 175.361 169.447 174.525 170.815 175.285L231.758 210.483C233.126 211.244 234.266 213.372 234.266 215.197V226.828C234.19 228.653 233.126 229.489 231.758 228.729Z" fill="#4164C4"/>
<path d="M230.01 224.015L172.563 190.794C171.879 190.413 171.347 189.349 171.347 188.361V179.618C171.347 178.706 171.879 178.25 172.563 178.706L230.01 211.928C230.694 212.308 231.226 213.372 231.226 214.36V223.103C231.226 224.015 230.694 224.395 230.01 224.015Z" fill="#5070E2"/>
<path d="M184.493 193.911L175.906 188.969C175.222 188.589 174.691 187.525 174.691 186.612C174.691 185.7 175.222 185.32 175.906 185.7L184.493 190.642C185.177 191.022 185.709 192.086 185.709 192.998C185.709 193.911 185.177 194.367 184.493 193.911Z" fill="#5B95FF"/>
<path d="M223.855 215.501C223.855 217.173 222.64 217.858 221.196 217.021C219.752 216.185 218.536 214.133 218.536 212.384C218.536 210.712 219.752 210.027 221.196 210.864C222.716 211.7 223.855 213.752 223.855 215.501Z" fill="white"/>
<path d="M191.788 196.799C191.788 197.712 191.18 198.092 190.42 197.636C189.66 197.18 188.976 196.115 188.976 195.203C188.976 194.291 189.584 193.911 190.42 194.367C191.18 194.823 191.788 195.887 191.788 196.799Z" fill="#203E79"/>
<path d="M196.727 199.688C196.727 200.6 196.119 200.981 195.284 200.524C194.524 200.068 193.916 199.004 193.916 198.092C193.916 197.179 194.524 196.799 195.284 197.256C196.119 197.636 196.727 198.776 196.727 199.688Z" fill="#03E59F"/>
<path d="M201.298 203.447C201.843 203.132 201.843 202.111 201.297 201.165C200.752 200.22 199.867 199.709 199.322 200.024C198.777 200.339 198.777 201.36 199.323 202.306C199.869 203.251 200.753 203.762 201.298 203.447Z" fill="#203E79"/>
<path d="M220.512 265.98C220.36 265.98 220.208 265.904 219.98 265.828L162.988 233.442C162.304 233.062 161.848 232.302 161.848 231.542C161.848 230.781 162.228 230.021 162.912 229.641L187.381 215.197C188.217 214.665 188.748 213.752 188.748 212.764V196.875C188.748 196.343 189.204 195.887 189.736 195.887C190.268 195.887 190.724 196.343 190.724 196.875V212.764C190.724 214.513 189.812 216.109 188.368 216.945L163.9 231.39C163.824 231.39 163.824 231.466 163.824 231.542C163.824 231.618 163.824 231.694 163.9 231.694L220.892 264.079C221.348 264.383 221.576 264.992 221.272 265.448C221.196 265.828 220.892 265.98 220.512 265.98Z" fill="#7EC4F7"/>
<path d="M223.139 269.707L225.823 265.025L215.671 259.201L212.988 263.884L223.139 269.707Z" fill="#7EC4F7"/>
<path d="M212.457 262.635C212.457 261.418 213.293 259.898 214.357 259.29C215.42 258.682 216.256 259.138 216.256 260.354C216.256 261.57 215.42 263.091 214.357 263.699C213.293 264.383 212.457 263.851 212.457 262.635Z" fill="#7EC4F7"/>
<path d="M236.443 279.272L240.789 271.688L224.902 262.575L220.556 270.159L236.443 279.272Z" fill="#7EC4F7"/>
<path d="M224.159 264.079L220.74 262.103C219.296 263.091 218.232 265.068 218.08 266.816L221.5 268.793C222.867 267.728 224.007 265.828 224.159 264.079Z" fill="#3981EA"/>
<path d="M219.6 268.108C219.6 266.132 220.968 263.699 222.715 262.711C224.463 261.723 225.831 262.483 225.831 264.459C225.831 266.436 224.463 268.869 222.715 269.857C221.044 270.921 219.6 270.085 219.6 268.108Z" fill="#7EC4F7"/>
<path d="M215.648 261.418C215.117 261.114 215.117 260.658 215.648 260.354C216.18 260.05 216.94 260.05 217.472 260.354C218.004 260.658 218.004 261.114 217.472 261.418C216.94 261.647 216.104 261.647 215.648 261.418Z" fill="#D3E9F8"/>
<path d="M223.389 293.671L228.341 285.031L210.345 274.708L205.393 283.348L223.389 293.671Z" fill="#7EC4F7"/>
<path d="M209.569 276.395L205.694 274.19C204.098 275.331 202.806 277.535 202.654 279.512L206.53 281.716C208.126 280.576 209.341 278.372 209.569 276.395Z" fill="#3981EA"/>
<path d="M204.402 281.032C204.402 278.828 205.922 276.091 207.898 274.95C209.797 273.81 211.393 274.722 211.393 277.003C211.393 279.284 209.873 281.945 207.898 283.085C205.998 284.225 204.402 283.313 204.402 281.032Z" fill="#7EC4F7"/>
<path opacity="0.4" d="M476.594 190.642L472.415 188.209C471.579 187.753 470.971 186.613 470.971 185.624C470.971 184.712 471.655 184.332 472.415 184.788L476.594 187.221C477.43 187.677 478.038 188.817 478.038 189.805C478.038 190.794 477.43 191.174 476.594 190.642Z" fill="#BAE1FF"/>
<path opacity="0.1" d="M96.5743 290.383L127.198 272.67C129.098 271.605 128.87 269.705 126.666 268.412L97.1063 251.307C94.9026 250.091 91.635 249.939 89.8113 251.003L59.1878 268.717C57.2881 269.781 57.5161 271.681 59.7197 272.974L89.2794 290.079C91.4072 291.295 94.6746 291.447 96.5743 290.383Z" fill="#203E79"/>
<path d="M49.0052 257.465V244.237H78.6408L88.8993 238.308C91.2549 236.939 95.3583 237.091 98.0939 238.688L107.669 244.237H137.38V257.845C137.456 258.758 136.924 259.67 135.784 260.278L97.486 282.401C95.1304 283.769 91.027 283.617 88.2914 282.021L51.2848 260.658C49.6891 259.746 48.9292 258.53 49.0052 257.465Z" fill="#5B95FF"/>
<path d="M93.1545 237.395C94.9023 237.471 96.65 237.851 98.0938 238.688L107.668 244.237H137.38V257.845C137.456 258.758 136.924 259.67 135.784 260.278L97.4859 282.401C96.3461 283.085 94.8263 283.313 93.2305 283.313V237.395H93.1545Z" fill="#7EC4F7"/>
<path d="M133.961 244.161H137.304V257.769C137.38 258.682 136.848 259.594 135.708 260.202L133.961 261.266V244.161Z" fill="#7EC4F7"/>
<path d="M96.8022 282.629C94.7505 283.465 91.8629 283.465 89.4312 282.553V267.12H96.8022V282.629Z" fill="#7BB1FF"/>
<path d="M97.4104 268.793L135.709 246.67C138.064 245.302 137.761 242.945 135.025 241.349L98.0183 219.986C95.2827 218.39 91.1793 218.238 88.8237 219.606L50.6013 241.729C48.2457 243.097 48.5496 245.454 51.2852 247.05L88.2918 268.412C90.9514 270.009 95.0548 270.161 97.4104 268.793Z" fill="#D3E9F8"/>
<path d="M96.7261 264.84L128.869 246.29C130.845 245.15 130.617 243.173 128.337 241.881L97.334 223.939C95.0543 222.647 91.6348 222.495 89.6591 223.635L57.5159 242.185C55.5401 243.325 55.7681 245.302 58.0478 246.594L89.0512 264.535C91.3309 265.828 94.7504 265.98 96.7261 264.84Z" fill="#3A81E8"/>
<path d="M64.6483 261.764L64.3442 262.291L79.7411 271.189L80.0452 270.662L64.6483 261.764Z" fill="white"/>
<path d="M63.1392 260.962C63.1392 261.95 63.8231 263.167 64.659 263.623C65.4949 264.079 66.1788 263.699 66.1788 262.711C66.1788 261.722 65.4949 260.506 64.659 260.05C63.8231 259.518 63.1392 259.974 63.1392 260.962Z" fill="white"/>
<path d="M58.1238 258.073C58.1238 259.062 58.8077 260.278 59.6436 260.734C60.4794 261.19 61.1633 260.81 61.1633 259.822C61.1633 258.834 60.4794 257.617 59.6436 257.161C58.8077 256.705 58.1238 257.085 58.1238 258.073Z" fill="white"/>
<path d="M53.1846 255.185C53.1846 256.173 53.8685 257.389 54.7044 257.845C55.5402 258.301 56.2241 257.921 56.2241 256.933C56.2241 255.945 55.5402 254.728 54.7044 254.272C53.8685 253.816 53.1846 254.196 53.1846 255.185Z" fill="white"/>
<path d="M49.0052 236.179V222.951H78.6408L88.8993 217.021C91.2549 215.653 95.3583 215.805 98.0939 217.402L107.669 222.951H137.38V236.559C137.456 237.471 136.924 238.384 135.784 238.992L97.486 261.114C95.1304 262.483 91.027 262.331 88.2914 260.734L51.2848 239.372C49.6891 238.46 48.9292 237.243 49.0052 236.179Z" fill="#5B95FF"/>
<path d="M93.1545 216.109C94.9023 216.185 96.65 216.565 98.0938 217.401L107.668 222.951H137.38V236.559C137.456 237.471 136.924 238.384 135.784 238.992L97.4859 261.114C96.3461 261.799 94.8263 262.027 93.2305 262.027V216.109H93.1545Z" fill="#7EC4F7"/>
<path d="M133.961 222.875H137.304V236.483C137.38 237.395 136.848 238.308 135.708 238.916L133.961 239.98V222.875Z" fill="#7EC4F7"/>
<path d="M96.8022 261.342C94.7505 262.179 91.8629 262.179 89.4312 261.266V245.834H96.8022V261.342Z" fill="#7BB1FF"/>
<path d="M97.4104 247.506L135.709 225.384C138.064 224.015 137.761 221.659 135.025 220.062L98.0183 198.7C95.2827 197.103 91.1793 196.951 88.8237 198.32L50.6013 220.442C48.2457 221.811 48.5496 224.167 51.2852 225.764L88.2918 247.126C90.9514 248.723 95.0548 248.875 97.4104 247.506Z" fill="#D3E9F8"/>
<path d="M51.2849 223.179L88.2914 244.541C91.027 246.138 95.1304 246.29 97.486 244.922L135.784 222.799C136.316 222.495 136.696 222.115 136.924 221.735C137.76 223.027 137.38 224.472 135.784 225.384L97.486 247.506C95.1304 248.875 91.027 248.723 88.2914 247.126L51.2849 225.764C49.1572 224.548 48.5493 222.875 49.4611 221.507C49.7651 222.115 50.373 222.723 51.2849 223.179Z" fill="white"/>
<path d="M63.1392 239.676C63.1392 240.664 63.8231 241.881 64.659 242.337C65.4949 242.793 66.1788 242.413 66.1788 241.425C66.1788 240.436 65.4949 239.22 64.659 238.764C63.8231 238.308 63.1392 238.688 63.1392 239.676Z" fill="white"/>
<path d="M78.3369 248.038C78.3369 249.027 79.0208 250.243 79.8567 250.699C80.6925 251.155 81.3764 250.775 81.3764 249.787C81.3764 248.799 80.6925 247.582 79.8567 247.126C79.0208 246.67 78.3369 247.05 78.3369 248.038Z" fill="white"/>
<path d="M78.3369 270.009C78.3369 270.997 79.0208 272.213 79.8567 272.67C80.6925 273.126 81.3764 272.746 81.3764 271.757C81.3764 270.769 80.6925 269.553 79.8567 269.097C79.0208 268.564 78.3369 269.021 78.3369 270.009Z" fill="white"/>
<path d="M58.1238 236.787C58.1238 237.775 58.8077 238.992 59.6436 239.448C60.4794 239.904 61.1633 239.524 61.1633 238.536C61.1633 237.547 60.4794 236.331 59.6436 235.875C58.8077 235.419 58.1238 235.799 58.1238 236.787Z" fill="white"/>
<path d="M53.1846 233.898C53.1846 234.887 53.8685 236.103 54.7044 236.559C55.5402 237.015 56.2241 236.635 56.2241 235.647C56.2241 234.659 55.5402 233.442 54.7044 232.986C53.8685 232.53 53.1846 232.91 53.1846 233.898Z" fill="white"/>
<path d="M95.1305 233.822L113.064 223.483C114.128 222.875 114.052 221.735 112.76 220.974L95.4344 210.94C94.1426 210.179 92.2429 210.103 91.1031 210.787L73.1697 221.127C72.1059 221.735 72.1819 222.875 73.4737 223.635L90.7991 233.67C92.1669 234.354 94.0666 234.43 95.1305 233.822Z" fill="#7EC4F7"/>
<path d="M93.4587 225.156L95.9663 223.711C96.1183 223.635 96.1183 223.483 95.8904 223.331L93.4587 221.963C93.3067 221.887 93.0028 221.887 92.8508 221.963L90.3432 223.407C90.1912 223.483 90.1912 223.635 90.4192 223.787L92.8508 225.156C93.0028 225.232 93.3067 225.232 93.4587 225.156Z" fill="#D3E9F8"/>
<path d="M113.063 223.483C112.911 223.483 112.835 223.407 112.759 223.331L95.434 213.296C94.1422 212.536 92.2424 212.46 91.1026 213.144L73.3212 223.483C72.3334 222.723 72.2574 221.734 73.2452 221.202L91.1786 210.863C92.2424 210.255 94.2181 210.331 95.51 211.015L112.835 221.05C114.051 221.734 114.203 222.799 113.063 223.483Z" fill="#44A6E2"/>
<path d="M98.9299 250.699C98.9299 251.764 99.6898 252.144 100.526 251.612C101.438 251.079 102.121 249.863 102.121 248.799C102.121 247.734 101.362 247.354 100.526 247.886C99.6138 248.343 98.9299 249.635 98.9299 250.699Z" fill="#D3E9F8"/>
<path d="M103.945 247.734C103.945 248.799 104.705 249.179 105.541 248.647C106.453 248.114 107.137 246.898 107.137 245.834C107.137 244.769 106.377 244.389 105.541 244.922C104.705 245.454 103.945 246.746 103.945 247.734Z" fill="#203E79"/>
<path d="M98.9299 256.781C98.9299 257.845 99.6898 258.225 100.526 257.693C101.438 257.161 102.121 255.945 102.121 254.88C102.121 253.816 101.362 253.436 100.526 253.968C99.6138 254.5 98.9299 255.717 98.9299 256.781Z" fill="#D3E9F8"/>
<path d="M103.945 253.892C103.945 254.956 104.705 255.337 105.541 254.804C106.453 254.272 107.137 253.056 107.137 251.992C107.137 250.927 106.377 250.547 105.541 251.079C104.705 251.535 103.945 252.828 103.945 253.892Z" fill="#D3E9F8"/>
<path d="M98.9299 271.681C98.9299 272.746 99.6898 273.126 100.526 272.594C101.438 272.061 102.121 270.845 102.121 269.781C102.121 268.717 101.362 268.336 100.526 268.869C99.6138 269.401 98.9299 270.617 98.9299 271.681Z" fill="#D3E9F8"/>
<path d="M103.945 268.793C103.945 269.857 104.705 270.237 105.541 269.705C106.453 269.173 107.137 267.956 107.137 266.892C107.137 265.828 106.377 265.448 105.541 265.98C104.705 266.436 103.945 267.728 103.945 268.793Z" fill="#D3E9F8"/>
<path d="M98.9299 277.763C98.9299 278.827 99.6898 279.208 100.526 278.675C101.438 278.143 102.121 276.927 102.121 275.863C102.121 274.798 101.362 274.418 100.526 274.95C99.6138 275.482 98.9299 276.775 98.9299 277.763Z" fill="#203E79"/>
<path d="M103.945 274.874C103.945 275.939 104.705 276.319 105.541 275.787C106.453 275.255 107.137 274.038 107.137 272.974C107.137 271.909 106.377 271.529 105.541 272.062C104.705 272.594 103.945 273.81 103.945 274.874Z" fill="#D3E9F8"/>
<path d="M466.132 276.148C442.895 262.716 412.453 256 381.988 256C351.547 256 321.082 262.716 297.844 276.148C274.607 289.58 263 307.16 263 324.763V343.237C263 360.84 274.607 378.444 297.844 391.852C321.082 405.284 351.523 412 381.988 412C412.453 412 442.895 405.284 466.132 391.852C489.37 378.42 500.976 360.817 500.976 343.237V324.763C501 307.16 489.37 289.58 466.132 276.148Z" fill="#721BD5"/>
<path d="M381.988 256C351.547 256 321.082 262.716 297.844 276.148C274.607 289.58 263 307.16 263 324.763C263 342.366 274.607 359.969 297.844 373.377C321.082 386.809 351.523 393.525 381.988 393.525C412.453 393.525 442.895 386.809 466.132 373.377C489.37 359.945 500.976 342.342 500.976 324.763C500.976 307.16 489.37 289.556 466.132 276.148C442.895 262.716 412.453 256 381.988 256Z" fill="#983BE9"/>
<path d="M457.398 285.55C436.585 273.509 409.275 267.5 381.988 267.5C354.701 267.5 327.415 273.509 306.579 285.55C286.732 297.026 276.349 311.896 275.431 326.93C276.349 341.965 286.732 356.858 306.602 368.334C327.415 380.376 354.725 386.385 382.012 386.385C409.299 386.385 436.585 380.376 457.421 368.334C477.268 356.858 487.651 341.988 488.569 326.93C487.651 311.896 477.268 297.026 457.398 285.55Z" fill="#E6F6FF"/>
<path d="M306.602 285.55C327.415 273.509 354.725 267.5 382.012 267.5C409.299 267.5 436.585 273.509 457.421 285.55C477.292 297.026 487.675 311.919 488.569 326.954C488.616 326.223 488.64 325.516 488.64 324.786C488.64 309.021 478.234 293.232 457.421 281.214C436.609 269.173 409.299 263.164 382.012 263.164C354.725 263.164 327.438 269.173 306.602 281.214C285.767 293.232 275.36 308.997 275.36 324.762C275.36 325.493 275.384 326.223 275.431 326.93C276.349 311.896 286.732 297.026 306.602 285.55Z" fill="#721BD5"/>
<path d="M312.865 285.598C312.135 285.998 311.405 286.399 310.675 286.823C309.945 287.247 309.239 287.671 308.556 288.096V289.18L316.585 293.822C317.267 293.398 317.974 292.973 318.704 292.549C319.433 292.125 320.163 291.725 320.893 291.324V290.24L312.865 285.598Z" fill="#721BD5"/>
<path d="M318.704 291.442C319.433 291.018 320.163 290.617 320.893 290.217L312.865 285.574C312.135 285.975 311.405 286.375 310.675 286.8C309.945 287.224 309.239 287.648 308.556 288.072L316.585 292.714C317.291 292.29 317.997 291.866 318.704 291.442Z" fill="#983BE9"/>
<path d="M285.39 311.236C284.801 312.367 284.283 313.499 283.812 314.653V315.737L294.783 317.434C295.231 316.303 295.772 315.148 296.361 314.041V312.957L285.39 311.236Z" fill="#721BD5"/>
<path d="M296.361 312.933L285.39 311.236C284.801 312.367 284.283 313.499 283.812 314.653L294.783 316.35C295.254 315.195 295.772 314.064 296.361 312.933Z" fill="#983BE9"/>
<path d="M294.807 339.703L283.836 341.399V342.483C284.307 343.614 284.825 344.769 285.413 345.877L296.385 344.18V343.096C295.772 341.988 295.254 340.857 294.807 339.703Z" fill="#721BD5"/>
<path d="M294.807 339.703L283.836 341.399C284.307 342.53 284.825 343.685 285.413 344.793L296.385 343.096C295.772 341.988 295.254 340.857 294.807 339.703Z" fill="#983BE9"/>
<path d="M318.704 364.611C317.974 364.187 317.291 363.763 316.585 363.338L308.556 367.981V369.065C309.263 369.489 309.945 369.913 310.675 370.337C311.405 370.761 312.135 371.162 312.865 371.563L320.893 366.92V365.813C320.163 365.412 319.433 365.011 318.704 364.611Z" fill="#721BD5"/>
<path d="M318.704 364.611C317.974 364.187 317.291 363.763 316.585 363.338L308.556 367.981C309.263 368.405 309.945 368.829 310.675 369.253C311.405 369.677 312.135 370.078 312.865 370.479L320.893 365.836C320.163 365.412 319.433 365.011 318.704 364.611Z" fill="#983BE9"/>
<path d="M405.155 271.293L402.212 277.632V278.716C404.19 278.976 406.144 279.282 408.098 279.635L411.041 273.296V272.212C409.087 271.859 407.109 271.576 405.155 271.293Z" fill="#721BD5"/>
<path d="M408.098 278.551L411.041 272.212C409.087 271.883 407.132 271.576 405.155 271.293L402.212 277.632C404.19 277.892 406.144 278.198 408.098 278.551Z" fill="#983BE9"/>
<path d="M358.845 271.293C356.867 271.553 354.913 271.859 352.959 272.189V273.273L355.902 279.612C357.856 279.258 359.81 278.976 361.788 278.693V277.609L358.845 271.293Z" fill="#721BD5"/>
<path d="M361.788 277.632L358.845 271.293C356.867 271.553 354.913 271.859 352.959 272.189L355.902 278.528C357.856 278.198 359.81 277.892 361.788 277.632Z" fill="#983BE9"/>
<path d="M453.301 286.823C452.571 286.399 451.841 285.998 451.112 285.598L443.083 290.24V291.324C443.813 291.725 444.566 292.125 445.273 292.549C446.003 292.973 446.685 293.398 447.392 293.822L455.42 289.18V288.096C454.737 287.648 454.031 287.224 453.301 286.823Z" fill="#721BD5"/>
<path d="M451.112 285.598L443.083 290.24C443.813 290.641 444.566 291.041 445.273 291.465C446.003 291.889 446.685 292.314 447.392 292.738L455.42 288.096C454.714 287.671 454.031 287.247 453.301 286.823C452.595 286.399 451.865 285.998 451.112 285.598Z" fill="#983BE9"/>
<path d="M478.587 311.236L467.615 312.933V314.017C468.204 315.148 468.722 316.279 469.193 317.41L480.164 315.714V314.63C479.693 313.499 479.175 312.367 478.587 311.236Z" fill="#721BD5"/>
<path d="M469.193 316.35L480.164 314.653C479.693 313.522 479.175 312.367 478.587 311.236L467.615 312.933C468.204 314.064 468.746 315.195 469.193 316.35Z" fill="#983BE9"/>
<path d="M469.193 339.703C468.746 340.834 468.204 341.988 467.615 343.096V344.18L478.587 345.877C479.175 344.746 479.693 343.614 480.164 342.483V341.399L469.193 339.703Z" fill="#721BD5"/>
<path d="M467.615 343.119L478.587 344.816C479.175 343.685 479.693 342.554 480.164 341.423L469.193 339.726C468.746 340.857 468.204 341.988 467.615 343.119Z" fill="#983BE9"/>
<path d="M411.041 383.84V384.052C408.945 384.382 406.85 384.688 404.755 384.948L402.212 379.481V378.397C404.19 378.137 406.167 377.831 408.098 377.478L411.041 383.84Z" fill="#721BD5"/>
<path d="M402.212 378.42L405.155 384.759C407.132 384.5 409.087 384.193 411.041 383.84L408.098 377.501C406.144 377.854 404.19 378.161 402.212 378.42Z" fill="#983BE9"/>
<path d="M361.788 378.42V379.504L359.245 384.971C357.126 384.712 355.031 384.405 352.959 384.075V383.863L355.902 377.524C357.833 377.854 359.81 378.161 361.788 378.42Z" fill="#721BD5"/>
<path d="M355.902 377.501L352.959 383.84C354.913 384.17 356.867 384.476 358.845 384.735L361.788 378.396C359.81 378.161 357.856 377.854 355.902 377.501Z" fill="#983BE9"/>
<path d="M447.392 363.338C446.709 363.763 446.003 364.187 445.273 364.611C444.543 365.035 443.813 365.436 443.083 365.836V366.92L451.112 371.563C451.841 371.162 452.571 370.761 453.301 370.337C454.031 369.913 454.737 369.489 455.42 369.065V367.981L447.392 363.338Z" fill="#721BD5"/>
<path d="M445.296 364.611C444.567 365.035 443.837 365.436 443.107 365.836L451.135 370.479C451.865 370.078 452.595 369.677 453.325 369.253C454.055 368.829 454.761 368.405 455.444 367.981L447.415 363.338C446.709 363.763 446.003 364.187 445.296 364.611Z" fill="#983BE9"/>
<path d="M287.132 325.564L281.364 325.399C281.317 325.847 281.27 326.294 281.246 326.742L287.014 326.907C287.038 326.459 287.085 326.012 287.132 325.564Z" fill="#983BE9"/>
<path d="M308.863 294.01L304.366 291.913C303.871 292.267 303.377 292.62 302.883 292.974L307.379 295.071C307.874 294.717 308.368 294.364 308.863 294.01Z" fill="#983BE9"/>
<path d="M302.906 298.629L298.056 296.814C297.632 297.191 297.185 297.569 296.785 297.946L301.635 299.76C302.035 299.383 302.459 299.006 302.906 298.629Z" fill="#983BE9"/>
<path d="M297.797 303.554L292.641 302.046C292.288 302.447 291.911 302.847 291.582 303.248L296.738 304.756C297.091 304.355 297.444 303.955 297.797 303.554Z" fill="#983BE9"/>
<path d="M301.611 358.46L296.761 360.275C297.185 360.652 297.609 361.029 298.033 361.406L302.883 359.592C302.459 359.238 302.035 358.861 301.611 358.46Z" fill="#983BE9"/>
<path d="M296.738 353.465L291.582 354.973C291.935 355.374 292.288 355.774 292.641 356.175L297.797 354.667C297.444 354.266 297.091 353.865 296.738 353.465Z" fill="#983BE9"/>
<path d="M307.379 363.15L302.883 365.247C303.377 365.601 303.848 365.954 304.366 366.308L308.863 364.21C308.368 363.857 307.874 363.503 307.379 363.15Z" fill="#983BE9"/>
<path d="M287.909 337.04L282.188 337.558C282.305 338.006 282.423 338.454 282.541 338.902L288.262 338.383C288.144 337.936 288.027 337.488 287.909 337.04Z" fill="#983BE9"/>
<path d="M287.014 331.313L281.246 331.478C281.27 331.926 281.317 332.374 281.364 332.822L287.132 332.657C287.085 332.209 287.038 331.761 287.014 331.313Z" fill="#983BE9"/>
<path d="M292.806 348.163L287.415 349.364C287.674 349.789 287.956 350.213 288.262 350.637L293.654 349.435C293.371 349.011 293.089 348.587 292.806 348.163Z" fill="#983BE9"/>
<path d="M288.286 319.861L282.565 319.343C282.423 319.791 282.306 320.238 282.211 320.686L287.932 321.204C288.027 320.733 288.144 320.285 288.286 319.861Z" fill="#983BE9"/>
<path d="M417.162 278.057L419.234 274.947C418.504 274.782 417.774 274.617 417.044 274.452L414.972 277.562C415.702 277.727 416.432 277.892 417.162 278.057Z" fill="#983BE9"/>
<path d="M398.021 274.946L398.916 271.647C398.139 271.576 397.362 271.506 396.609 271.435L395.714 274.734C396.491 274.805 397.244 274.876 398.021 274.946Z" fill="#983BE9"/>
<path d="M426.203 280.461L428.84 277.492C428.157 277.28 427.451 277.067 426.744 276.879L424.107 279.848C424.814 280.037 425.52 280.249 426.203 280.461Z" fill="#983BE9"/>
<path d="M442.73 286.847L446.379 284.255C445.767 283.972 445.179 283.689 444.566 283.406L440.917 285.998C441.529 286.281 442.118 286.564 442.73 286.847Z" fill="#983BE9"/>
<path d="M434.773 283.406L437.927 280.602C437.268 280.343 436.609 280.107 435.95 279.872L432.795 282.676C433.454 282.911 434.113 283.147 434.773 283.406Z" fill="#983BE9"/>
<path d="M388.133 274.287L388.439 270.94C387.662 270.917 386.885 270.893 386.108 270.87L385.802 274.216C386.579 274.239 387.356 274.263 388.133 274.287Z" fill="#983BE9"/>
<path d="M323.083 285.998L319.433 283.406C318.821 283.689 318.209 283.972 317.621 284.255L321.27 286.847C321.858 286.564 322.471 286.281 323.083 285.998Z" fill="#983BE9"/>
<path d="M339.869 279.848L337.232 276.879C336.526 277.091 335.843 277.28 335.137 277.492L337.774 280.461C338.48 280.249 339.163 280.037 339.869 279.848Z" fill="#983BE9"/>
<path d="M331.205 282.676L328.05 279.872C327.391 280.107 326.732 280.366 326.096 280.602L329.251 283.406C329.887 283.147 330.546 282.911 331.205 282.676Z" fill="#983BE9"/>
<path d="M349.027 277.586L346.956 274.475C346.226 274.64 345.496 274.781 344.766 274.97L346.838 278.081C347.544 277.892 348.274 277.727 349.027 277.586Z" fill="#983BE9"/>
<path d="M368.286 274.758L367.391 271.459C366.614 271.53 365.837 271.6 365.084 271.671L365.979 274.97C366.732 274.876 367.509 274.805 368.286 274.758Z" fill="#983BE9"/>
<path d="M378.198 274.216L377.892 270.893C377.115 270.917 376.338 270.94 375.561 270.964L375.867 274.31C376.62 274.263 377.421 274.239 378.198 274.216Z" fill="#983BE9"/>
<path d="M293.654 308.786L288.262 307.584C287.98 308.008 287.697 308.432 287.415 308.856L292.806 310.058C293.089 309.634 293.371 309.21 293.654 308.786Z" fill="#983BE9"/>
<path d="M475.714 338.383L481.435 338.902C481.577 338.454 481.694 338.006 481.789 337.558L476.068 337.04C475.973 337.488 475.832 337.936 475.714 338.383Z" fill="#983BE9"/>
<path d="M476.868 332.657L482.636 332.822C482.683 332.374 482.73 331.926 482.754 331.478L476.986 331.313C476.962 331.761 476.915 332.209 476.868 332.657Z" fill="#983BE9"/>
<path d="M470.346 349.435L475.738 350.637C476.02 350.213 476.303 349.789 476.585 349.364L471.194 348.163C470.911 348.587 470.629 349.011 470.346 349.435Z" fill="#983BE9"/>
<path d="M461.094 359.615L465.944 361.43C466.368 361.052 466.815 360.675 467.215 360.298L462.365 358.484C461.965 358.861 461.541 359.238 461.094 359.615Z" fill="#983BE9"/>
<path d="M476.986 326.907L482.754 326.742C482.73 326.294 482.683 325.847 482.636 325.399L476.868 325.564C476.915 326.012 476.962 326.459 476.986 326.907Z" fill="#983BE9"/>
<path d="M466.179 354.667L471.335 356.175C471.688 355.774 472.065 355.374 472.395 354.973L467.239 353.465C466.909 353.865 466.556 354.266 466.179 354.667Z" fill="#983BE9"/>
<path d="M471.171 310.058L476.562 308.856C476.303 308.432 476.021 308.008 475.714 307.584L470.323 308.786C470.629 309.21 470.912 309.634 471.171 310.058Z" fill="#983BE9"/>
<path d="M456.621 295.071L461.117 292.974C460.623 292.62 460.152 292.267 459.634 291.913L455.137 294.01C455.632 294.364 456.126 294.717 456.621 295.071Z" fill="#983BE9"/>
<path d="M321.27 371.374L317.621 373.966C318.233 374.249 318.821 374.532 319.433 374.815L323.083 372.222C322.471 371.963 321.858 371.68 321.27 371.374Z" fill="#983BE9"/>
<path d="M476.068 321.181L481.789 320.663C481.671 320.215 481.553 319.767 481.435 319.319L475.714 319.838C475.832 320.285 475.973 320.733 476.068 321.181Z" fill="#983BE9"/>
<path d="M467.262 304.78L472.418 303.272C472.065 302.871 471.712 302.47 471.359 302.07L466.203 303.578C466.556 303.955 466.909 304.356 467.262 304.78Z" fill="#983BE9"/>
<path d="M455.137 364.21L459.634 366.308C460.129 365.954 460.623 365.601 461.117 365.247L456.621 363.15C456.126 363.503 455.632 363.857 455.137 364.21Z" fill="#983BE9"/>
<path d="M462.365 299.76L467.215 297.946C466.792 297.569 466.368 297.191 465.944 296.814L461.094 298.629C461.518 299.006 461.965 299.383 462.365 299.76Z" fill="#983BE9"/>
<path d="M365.979 383.274L365.084 386.574C365.861 386.644 366.638 386.715 367.391 386.786L368.286 383.487C367.509 383.416 366.732 383.345 365.979 383.274Z" fill="#983BE9"/>
<path d="M385.802 384.005L386.108 387.351C386.885 387.327 387.662 387.304 388.439 387.28L388.133 383.934C387.356 383.958 386.579 383.981 385.802 384.005Z" fill="#983BE9"/>
<path d="M329.228 374.814L326.073 377.619C326.732 377.878 327.391 378.114 328.05 378.349L331.205 375.545C330.546 375.333 329.887 375.074 329.228 374.814Z" fill="#983BE9"/>
<path d="M346.838 380.164L344.766 383.275C345.496 383.44 346.226 383.605 346.956 383.769L349.027 380.659C348.298 380.494 347.568 380.329 346.838 380.164Z" fill="#983BE9"/>
<path d="M337.774 377.76L335.137 380.729C335.82 380.942 336.526 381.154 337.232 381.342L339.869 378.373C339.163 378.184 338.48 377.972 337.774 377.76Z" fill="#983BE9"/>
<path d="M375.843 383.934L375.537 387.28C376.314 387.304 377.091 387.327 377.868 387.351L378.174 384.005C377.421 383.981 376.644 383.958 375.843 383.934Z" fill="#983BE9"/>
<path d="M432.795 375.569L435.95 378.373C436.609 378.137 437.268 377.878 437.927 377.643L434.773 374.838C434.113 375.074 433.454 375.333 432.795 375.569Z" fill="#983BE9"/>
<path d="M395.714 383.487L396.609 386.786C397.385 386.715 398.162 386.644 398.916 386.574L398.021 383.274C397.268 383.345 396.491 383.416 395.714 383.487Z" fill="#983BE9"/>
<path d="M424.131 378.373L426.768 381.342C427.474 381.154 428.157 380.942 428.863 380.729L426.226 377.76C425.52 377.972 424.814 378.184 424.131 378.373Z" fill="#983BE9"/>
<path d="M440.917 372.222L444.566 374.815C445.179 374.532 445.791 374.249 446.379 373.966L442.73 371.374C442.141 371.68 441.529 371.963 440.917 372.222Z" fill="#983BE9"/>
<path d="M414.972 380.659L417.044 383.769C417.774 383.605 418.504 383.44 419.234 383.275L417.162 380.164C416.432 380.329 415.702 380.494 414.972 380.659Z" fill="#983BE9"/>
<path opacity="0.2" d="M372.783 326.106L297.656 310.152L296.479 312.014L371.606 327.967C371.818 327.308 372.218 326.695 372.783 326.106Z" fill="#983BE9"/>
<path opacity="0.2" d="M392.394 330.277C392.183 330.913 391.782 331.549 391.217 332.138L403.389 334.731L404.566 332.869L392.394 330.277Z" fill="#983BE9"/>
<path d="M372.783 321.77L297.656 305.816L296.479 307.678L371.606 323.632C371.818 322.972 372.218 322.335 372.783 321.77Z" fill="#CD276F"/>
<path d="M389.475 318.282C387.403 317.08 384.696 316.491 381.988 316.491C379.281 316.491 376.573 317.08 374.502 318.282C372.43 319.484 371.394 321.039 371.394 322.595V329.122C371.394 330.677 372.43 332.256 374.502 333.434C376.573 334.636 379.281 335.225 381.988 335.225C384.696 335.225 387.403 334.636 389.475 333.434C391.547 332.233 392.583 330.677 392.583 329.122V322.595C392.583 321.039 391.547 319.46 389.475 318.282Z" fill="#ECA600"/>
<path opacity="0.2" d="M381.988 322.995C384.696 322.995 387.403 323.585 389.475 324.786C389.546 324.833 389.616 324.857 389.687 324.904L409.934 281.238L399.41 279.612L379.187 323.207C380.105 323.09 381.046 322.995 381.988 322.995Z" fill="#983BE9"/>
<path opacity="0.2" d="M371.417 329.122C371.417 328.604 371.535 328.085 371.77 327.567L320.069 335.579L322.753 341.376L374.407 333.387C372.43 332.186 371.417 330.654 371.417 329.122Z" fill="#983BE9"/>
<path d="M399.387 275.276L379.163 318.872V321.04C380.081 320.898 381.023 320.804 381.988 320.804C384.696 320.804 387.403 321.393 389.475 322.595C389.546 322.642 389.616 322.665 389.687 322.713L409.934 279.047V276.879L399.387 275.276Z" fill="#721BD5"/>
<path d="M381.988 318.659C384.696 318.659 387.403 319.249 389.475 320.45C389.546 320.498 389.616 320.521 389.687 320.568L409.934 276.902L399.41 275.276L379.187 318.872C380.105 318.73 381.046 318.659 381.988 318.659Z" fill="#983BE9"/>
<path d="M371.417 324.762C371.417 324.244 371.535 323.725 371.77 323.207L320.069 331.219V333.387L322.753 339.184L374.407 331.196V329.028C372.43 327.826 371.417 326.294 371.417 324.762Z" fill="#721BD5"/>
<path d="M371.417 324.762C371.417 324.244 371.535 323.725 371.77 323.207L320.069 331.219L322.753 337.016L374.407 329.028C372.43 327.826 371.417 326.294 371.417 324.762Z" fill="#983BE9"/>
<path d="M381.988 316.491C379.281 316.491 376.573 317.08 374.502 318.282C372.43 319.484 371.394 321.039 371.394 322.595C371.394 324.15 372.43 325.729 374.502 326.907C376.573 328.109 379.281 328.698 381.988 328.698C384.696 328.698 387.403 328.109 389.475 326.907C391.547 325.705 392.583 324.15 392.583 322.595C392.583 321.039 391.547 319.46 389.475 318.282C387.403 317.08 384.696 316.491 381.988 316.491Z" fill="#FFDE01"/>
<path d="M392.394 325.917C392.183 326.553 391.782 327.19 391.217 327.779L403.389 330.371L404.566 328.509L392.394 325.917Z" fill="#CD276F"/>
<mask id="mask0_304_2654" style="mask-type:alpha" maskUnits="userSpaceOnUse" x="193" y="232" width="78" height="98">
<path d="M269.074 233.069L195.057 275.788C194.443 276.143 193.94 277.01 193.94 277.72V328.943C193.94 329.65 194.443 329.94 195.057 329.585L269.074 286.863C269.688 286.514 270.188 285.644 270.188 284.934V233.714C270.188 233.208 269.935 232.918 269.569 232.918C269.421 232.918 269.253 232.967 269.074 233.069Z" fill="white"/>
</mask>
<g mask="url(#mask0_304_2654)">
<path fill-rule="evenodd" clip-rule="evenodd" d="M269.074 233.069L195.058 275.788C194.444 276.143 193.941 277.01 193.941 277.72V328.943C193.941 329.65 194.444 329.94 195.058 329.585L269.074 286.863C269.688 286.514 270.188 285.644 270.188 284.934V233.714C270.188 233.208 269.936 232.918 269.569 232.918C269.421 232.918 269.253 232.967 269.074 233.069Z" fill="url(#paint0_linear_304_2654)"/>
</g>
<path fill-rule="evenodd" clip-rule="evenodd" d="M196.522 276.711C195.915 277.062 195.42 277.919 195.42 278.618V328.143L267.846 286.385C268.45 286.037 268.945 285.18 268.945 284.481V234.954L196.522 276.711Z" fill="#E7EDF8"/>
<path fill-rule="evenodd" clip-rule="evenodd" d="M207 280.647L248.293 257L248.29 260.379L207 284.026V280.647Z" fill="#C9D0E0"/>
<path fill-rule="evenodd" clip-rule="evenodd" d="M207 288.711L248.293 265.064L248.29 268.443L207 292.09V288.711Z" fill="#C9D0E0"/>
<path fill-rule="evenodd" clip-rule="evenodd" d="M207 296.775L248.293 273.128L248.29 276.507L207 300.154V296.775Z" fill="#C9D0E0"/>
<path fill-rule="evenodd" clip-rule="evenodd" d="M207 304.839L230.216 291.629V295.006L207 308.217V304.839Z" fill="#C9D0E0"/>
<mask id="mask1_304_2654" style="mask-type:alpha" maskUnits="userSpaceOnUse" x="192" y="119" width="118" height="149">
<path d="M307.301 119.231L193.709 184.885C192.77 185.427 192 186.762 192 187.849V266.566C192 267.653 192.77 268.096 193.709 267.554L307.301 201.904C308.24 201.359 309.012 200.027 309.012 198.937V120.22C309.012 119.446 308.62 119 308.059 119C307.831 119 307.571 119.073 307.301 119.231Z" fill="white"/>
</mask>
<g mask="url(#mask1_304_2654)">
<path fill-rule="evenodd" clip-rule="evenodd" d="M307.301 119.231L193.709 184.885C192.77 185.427 192 186.762 192 187.849V266.566C192 267.653 192.77 268.096 193.709 267.554L307.301 201.904C308.24 201.359 309.012 200.027 309.012 198.937V120.22C309.012 119.446 308.62 119 308.059 119C307.831 119 307.571 119.073 307.301 119.231Z" fill="url(#paint1_linear_304_2654)"/>
</g>
<path fill-rule="evenodd" clip-rule="evenodd" d="M197.123 187.225C196.187 187.769 195.42 189.108 195.42 190.198V267.441L307.424 202.314C308.36 201.768 309.128 200.431 309.128 199.341V122.101L197.123 187.225Z" fill="#E7EDF8"/>
<path fill-rule="evenodd" clip-rule="evenodd" d="M207 197.647L248.293 174L248.29 177.379L207 201.026V197.647Z" fill="#C9D0E0"/>
<path fill-rule="evenodd" clip-rule="evenodd" d="M207 205.711L248.293 182.064L248.29 185.443L207 209.09V205.711Z" fill="#C9D0E0"/>
<path fill-rule="evenodd" clip-rule="evenodd" d="M207 213.775L248.293 190.128L248.29 193.507L207 217.154V213.775Z" fill="#C9D0E0"/>
<path fill-rule="evenodd" clip-rule="evenodd" d="M207 221.839L230.216 208.629V212.006L207 225.217V221.839Z" fill="#C9D0E0"/>
<path fill-rule="evenodd" clip-rule="evenodd" d="M263 185.647L304.293 162L304.29 165.379L263 189.026V185.647Z" fill="#C9D0E0"/>
<path fill-rule="evenodd" clip-rule="evenodd" d="M263 193.711L304.293 170.064L304.29 173.443L263 197.09V193.711Z" fill="#C9D0E0"/>
<path fill-rule="evenodd" clip-rule="evenodd" d="M263 201.775L304.293 178.128L304.29 181.507L263 205.154V201.775Z" fill="#C9D0E0"/>
<path fill-rule="evenodd" clip-rule="evenodd" d="M263 209.839L286.216 196.629V200.006L263 213.217V209.839Z" fill="#C9D0E0"/>
<path fill-rule="evenodd" clip-rule="evenodd" d="M319.451 272.951C321.096 274.151 322.747 275.058 324.381 275.747L324.746 275.956L324.775 275.914C338.194 281.289 350.405 271.208 350.405 271.208C352.993 268.892 353.904 262.948 353.681 258.802C353.944 257.861 354.218 256.731 354.555 255.339C355.349 252.031 355.72 247.898 355.783 243.401L302.107 274.05V274.959L312.521 269.016L319.451 272.951Z" fill="#231F20"/>
<path fill-rule="evenodd" clip-rule="evenodd" d="M344.689 263.593L319.853 249.492V264.578L305.863 272.564V247.014C305.863 242.529 308.211 238.515 312.138 236.272C316.066 234.029 320.756 234.032 324.683 236.272L351.684 251.61L344.689 263.593Z" fill="#4D5068"/>
<path fill-rule="evenodd" clip-rule="evenodd" d="M328.505 273.17L303.672 259.069V273.763L289.682 281.751V256.591C289.682 252.106 292.027 248.092 295.955 245.849C299.882 243.606 304.575 243.609 308.5 245.849L335.5 261.19L328.505 273.17Z" fill="#4D5068"/>
<path fill-rule="evenodd" clip-rule="evenodd" d="M291.559 256.593C291.559 252.107 293.904 248.09 297.832 245.85C299.511 244.89 301.328 244.367 303.165 244.229C300.702 244.043 298.203 244.565 295.952 245.85C292.025 248.09 289.68 252.107 289.68 256.593V281.753L291.559 280.679V256.593Z" fill="#717386"/>
<path fill-rule="evenodd" clip-rule="evenodd" d="M323.208 270.163C338.535 281.338 354.162 268.42 354.162 268.42C357.498 265.438 358.055 256.421 356.981 252.998L352.748 248.766L330.834 260.819L323.208 270.163Z" fill="#4D5068"/>
<path fill-rule="evenodd" clip-rule="evenodd" d="M285.33 223.034L315.744 205.667C316.155 205.433 316.666 205.727 316.666 206.196L325.215 229.234C325.215 229.709 324.961 230.146 324.544 230.381L294.133 247.747C293.722 247.982 293.43 247.685 293.207 247.219L284.661 224.181C284.661 223.706 284.913 223.268 285.33 223.034Z" fill="#3A3C4E"/>
<path fill-rule="evenodd" clip-rule="evenodd" d="M285.722 223.293L316.136 205.927C316.547 205.692 316.904 206.054 317.061 206.455L325.608 229.493C325.608 229.968 325.353 230.406 324.939 230.64L294.525 248.006C294.114 248.241 293.837 247.927 293.6 247.478L285.053 224.44C285.053 223.965 285.308 223.527 285.722 223.293Z" fill="#4D5068"/>
<path fill-rule="evenodd" clip-rule="evenodd" d="M286.706 224.409L316.218 207.904L324.021 229.395L294.624 246.117L286.706 224.409Z" fill="#E0E3FD"/>
<path fill-rule="evenodd" clip-rule="evenodd" d="M326.96 231.368L346.437 241.528C346.437 241.528 346.543 243.031 346.129 243.268L316.289 260.307C315.526 260.739 314.586 260.742 313.824 260.313L294.658 249.477C293.867 248.991 294.347 247.731 294.347 247.731L324.498 231.37C325.258 230.938 326.195 230.935 326.96 231.368Z" fill="#3A3C4E"/>
<path fill-rule="evenodd" clip-rule="evenodd" d="M326.96 230.2L346.126 241.033C346.54 241.27 346.543 241.864 346.129 242.101L316.289 259.14C315.526 259.575 314.586 259.575 313.824 259.145L294.658 248.31C294.241 248.075 294.241 247.482 294.655 247.245L324.498 230.206C325.258 229.771 326.195 229.768 326.96 230.2Z" fill="#F9F9F9"/>
<path fill-rule="evenodd" clip-rule="evenodd" d="M328.658 244.23L333.711 247.086C333.82 247.148 333.82 247.304 333.711 247.366L325.845 251.857C325.645 251.973 325.397 251.973 325.197 251.86L320.147 249.001C320.035 248.942 320.035 248.784 320.144 248.722L328.01 244.23C328.21 244.117 328.459 244.115 328.658 244.23Z" fill="#717386"/>
<path fill-rule="evenodd" clip-rule="evenodd" d="M324.847 231.856L323.196 232.799C323.13 232.836 323.13 232.929 323.196 232.969L324.016 233.435C324.081 233.471 324.161 233.471 324.227 233.435L325.878 232.491C325.944 232.452 325.944 232.358 325.878 232.322L325.058 231.856C324.992 231.819 324.912 231.819 324.847 231.856Z" fill="#4D5068"/>
<path fill-rule="evenodd" clip-rule="evenodd" d="M322.427 233.282L320.776 234.223C320.711 234.262 320.711 234.355 320.776 234.395L321.596 234.861C321.662 234.898 321.745 234.898 321.81 234.858L323.461 233.917C323.527 233.878 323.527 233.785 323.458 233.748L322.639 233.282C322.573 233.245 322.493 233.245 322.427 233.282Z" fill="#4D5068"/>
<path fill-rule="evenodd" clip-rule="evenodd" d="M319.999 234.631L318.348 235.575C318.282 235.611 318.282 235.704 318.348 235.744L319.168 236.21C319.233 236.247 319.316 236.247 319.379 236.21L321.03 235.267C321.096 235.227 321.096 235.134 321.03 235.097L320.21 234.631C320.144 234.594 320.065 234.594 319.999 234.631Z" fill="#4D5068"/>
<path fill-rule="evenodd" clip-rule="evenodd" d="M317.497 236.025L315.846 236.966C315.78 237.005 315.78 237.099 315.846 237.138L316.665 237.604C316.731 237.641 316.811 237.641 316.88 237.601L318.531 236.661C318.596 236.621 318.596 236.528 318.531 236.491L317.711 236.025C317.642 235.986 317.562 235.986 317.497 236.025Z" fill="#4D5068"/>
<path fill-rule="evenodd" clip-rule="evenodd" d="M315.094 237.349L313.443 238.293C313.377 238.329 313.377 238.423 313.443 238.462L314.263 238.928C314.328 238.965 314.411 238.965 314.477 238.928L316.128 237.985C316.193 237.945 316.193 237.852 316.128 237.815L315.305 237.349C315.239 237.313 315.159 237.313 315.094 237.349Z" fill="#4D5068"/>
<path fill-rule="evenodd" clip-rule="evenodd" d="M312.758 238.774L311.107 239.718C311.038 239.754 311.038 239.848 311.107 239.887L311.927 240.353C311.992 240.39 312.072 240.39 312.138 240.353L313.792 239.41C313.855 239.373 313.855 239.28 313.789 239.24L312.969 238.774C312.903 238.737 312.823 238.737 312.758 238.774Z" fill="#4D5068"/>
<path fill-rule="evenodd" clip-rule="evenodd" d="M310.311 240.108L308.66 241.052C308.595 241.088 308.595 241.181 308.66 241.221L309.48 241.687C309.546 241.724 309.626 241.724 309.694 241.687L311.342 240.744C311.408 240.707 311.408 240.614 311.342 240.574L310.523 240.108C310.457 240.071 310.377 240.071 310.311 240.108Z" fill="#4D5068"/>
<path fill-rule="evenodd" clip-rule="evenodd" d="M307.901 241.527L306.25 242.471C306.185 242.507 306.185 242.6 306.25 242.64L307.07 243.106C307.136 243.143 307.216 243.143 307.284 243.106L308.935 242.163C309.001 242.123 309.001 242.03 308.935 241.993L308.116 241.527C308.047 241.49 307.967 241.49 307.901 241.527Z" fill="#4D5068"/>
<path fill-rule="evenodd" clip-rule="evenodd" d="M305.532 242.91L303.881 243.854C303.815 243.891 303.815 243.984 303.881 244.023L304.7 244.489C304.766 244.526 304.846 244.526 304.915 244.489L306.563 243.546C306.631 243.506 306.631 243.413 306.563 243.376L305.743 242.91C305.677 242.874 305.597 242.874 305.532 242.91Z" fill="#4D5068"/>
<path fill-rule="evenodd" clip-rule="evenodd" d="M303.034 244.334L301.383 245.274C301.317 245.314 301.317 245.407 301.383 245.447L302.203 245.913C302.268 245.949 302.348 245.949 302.417 245.91L304.065 244.969C304.131 244.93 304.131 244.836 304.065 244.8L303.245 244.334C303.18 244.297 303.1 244.297 303.034 244.334Z" fill="#4D5068"/>
<path fill-rule="evenodd" clip-rule="evenodd" d="M300.607 245.68L298.956 246.623C298.891 246.66 298.891 246.753 298.956 246.793L299.776 247.259C299.842 247.296 299.922 247.296 299.99 247.259L301.641 246.315C301.707 246.276 301.707 246.183 301.641 246.146L300.819 245.68C300.753 245.643 300.673 245.643 300.607 245.68Z" fill="#4D5068"/>
<path fill-rule="evenodd" clip-rule="evenodd" d="M328.205 233.632L327.085 232.985C326.943 232.901 326.763 232.901 326.614 232.982L325.523 233.607C325.372 233.694 325.366 233.912 325.517 234.002L326.603 234.663C326.751 234.751 326.934 234.754 327.082 234.669L328.205 234.03C328.359 233.943 328.359 233.723 328.205 233.632Z" fill="#4D5068"/>
<path fill-rule="evenodd" clip-rule="evenodd" d="M325.701 235.058L324.581 234.412C324.438 234.327 324.258 234.327 324.11 234.409L323.019 235.033C322.864 235.121 322.862 235.338 323.013 235.428L324.098 236.087C324.247 236.177 324.43 236.18 324.578 236.095L325.701 235.457C325.855 235.366 325.855 235.146 325.701 235.058Z" fill="#4D5068"/>
<path fill-rule="evenodd" clip-rule="evenodd" d="M323.268 236.407L322.148 235.76C322.006 235.676 321.826 235.676 321.68 235.76L320.586 236.382C320.435 236.469 320.432 236.687 320.58 236.777L321.669 237.438C321.814 237.526 321.997 237.529 322.146 237.444L323.268 236.805C323.422 236.718 323.422 236.498 323.268 236.407Z" fill="#4D5068"/>
<path fill-rule="evenodd" clip-rule="evenodd" d="M320.681 237.8L319.561 237.153C319.419 237.069 319.239 237.069 319.093 237.153L317.999 237.775C317.848 237.862 317.845 238.08 317.996 238.17L319.082 238.831C319.227 238.919 319.41 238.922 319.559 238.837L320.681 238.199C320.835 238.111 320.835 237.891 320.681 237.8Z" fill="#4D5068"/>
<path fill-rule="evenodd" clip-rule="evenodd" d="M318.402 239.126L317.282 238.479C317.139 238.394 316.959 238.394 316.811 238.476L315.72 239.1C315.568 239.188 315.565 239.405 315.714 239.496L316.799 240.154C316.948 240.244 317.131 240.247 317.279 240.162L318.402 239.524C318.556 239.437 318.556 239.216 318.402 239.126Z" fill="#4D5068"/>
<path fill-rule="evenodd" clip-rule="evenodd" d="M316.086 240.544L314.966 239.897C314.823 239.812 314.643 239.812 314.497 239.894L313.406 240.518C313.252 240.606 313.249 240.823 313.401 240.914L314.486 241.575C314.632 241.662 314.814 241.665 314.963 241.58L316.086 240.942C316.24 240.854 316.24 240.634 316.086 240.544Z" fill="#4D5068"/>
<path fill-rule="evenodd" clip-rule="evenodd" d="M313.612 241.884L312.492 241.237C312.349 241.153 312.169 241.153 312.023 241.237L310.929 241.859C310.778 241.946 310.775 242.164 310.927 242.254L312.012 242.915C312.158 243.003 312.34 243.006 312.489 242.921L313.612 242.283C313.766 242.195 313.766 241.975 313.612 241.884Z" fill="#4D5068"/>
<path fill-rule="evenodd" clip-rule="evenodd" d="M311.19 243.243L310.07 242.596C309.927 242.511 309.748 242.511 309.599 242.593L308.508 243.218C308.354 243.305 308.351 243.523 308.502 243.613L309.588 244.271C309.736 244.362 309.919 244.364 310.067 244.28L311.19 243.641C311.344 243.554 311.344 243.333 311.19 243.243Z" fill="#4D5068"/>
<path fill-rule="evenodd" clip-rule="evenodd" d="M308.809 244.687L307.689 244.04C307.544 243.955 307.364 243.955 307.218 244.037L306.127 244.661C305.973 244.749 305.97 244.966 306.121 245.057L307.207 245.715C307.352 245.805 307.538 245.808 307.687 245.724L308.809 245.085C308.96 244.998 308.963 244.774 308.809 244.687Z" fill="#4D5068"/>
<path fill-rule="evenodd" clip-rule="evenodd" d="M306.215 246.199L305.095 245.552C304.95 245.467 304.77 245.467 304.624 245.549L303.533 246.173C303.379 246.258 303.376 246.478 303.527 246.569L304.613 247.227C304.758 247.317 304.944 247.317 305.093 247.235L306.212 246.597C306.366 246.506 306.369 246.286 306.215 246.199Z" fill="#4D5068"/>
<path fill-rule="evenodd" clip-rule="evenodd" d="M303.868 247.456L302.748 246.81C302.605 246.725 302.425 246.725 302.28 246.807L301.189 247.431C301.034 247.519 301.031 247.736 301.183 247.826L302.268 248.485C302.414 248.575 302.597 248.578 302.745 248.493L303.868 247.855C304.022 247.767 304.022 247.547 303.868 247.456Z" fill="#4D5068"/>
<path fill-rule="evenodd" clip-rule="evenodd" d="M330.698 234.973L329.578 234.326C329.435 234.241 329.255 234.241 329.109 234.323L328.015 234.948C327.864 235.035 327.861 235.253 328.01 235.343L329.098 236.004C329.244 236.092 329.427 236.094 329.575 236.01L330.698 235.371C330.852 235.284 330.852 235.063 330.698 234.973Z" fill="#4D5068"/>
<path fill-rule="evenodd" clip-rule="evenodd" d="M328.193 236.397L327.073 235.751C326.93 235.666 326.75 235.666 326.604 235.751L325.51 236.372C325.359 236.46 325.353 236.677 325.505 236.767L326.593 237.428C326.739 237.516 326.922 237.519 327.07 237.434L328.193 236.796C328.347 236.708 328.347 236.488 328.193 236.397Z" fill="#4D5068"/>
<path fill-rule="evenodd" clip-rule="evenodd" d="M325.762 237.748L324.642 237.101C324.497 237.016 324.317 237.016 324.171 237.098L323.08 237.722C322.926 237.81 322.923 238.028 323.074 238.118L324.16 238.776C324.305 238.866 324.491 238.869 324.639 238.785L325.759 238.146C325.916 238.059 325.916 237.838 325.762 237.748Z" fill="#4D5068"/>
<path fill-rule="evenodd" clip-rule="evenodd" d="M323.173 239.141L322.053 238.494C321.91 238.409 321.73 238.409 321.585 238.494L320.494 239.116C320.339 239.203 320.337 239.421 320.488 239.511L321.573 240.172C321.719 240.26 321.902 240.262 322.05 240.178L323.173 239.539C323.327 239.452 323.327 239.231 323.173 239.141Z" fill="#4D5068"/>
<path fill-rule="evenodd" clip-rule="evenodd" d="M320.894 240.467L319.775 239.82C319.632 239.735 319.452 239.735 319.306 239.817L318.212 240.441C318.061 240.529 318.058 240.746 318.207 240.837L319.295 241.495C319.44 241.585 319.623 241.585 319.772 241.503L320.894 240.865C321.049 240.775 321.049 240.554 320.894 240.467Z" fill="#4D5068"/>
<path fill-rule="evenodd" clip-rule="evenodd" d="M318.579 241.885L317.46 241.238C317.317 241.153 317.137 241.153 316.988 241.235L315.897 241.859C315.743 241.947 315.74 242.164 315.892 242.255L316.977 242.913C317.125 243.003 317.308 243.006 317.457 242.921L318.579 242.283C318.734 242.195 318.734 241.975 318.579 241.885Z" fill="#4D5068"/>
<path fill-rule="evenodd" clip-rule="evenodd" d="M316.105 243.225L314.985 242.578C314.84 242.493 314.66 242.493 314.514 242.578L313.423 243.2C313.269 243.287 313.266 243.505 313.417 243.595L314.503 244.256C314.648 244.344 314.834 244.346 314.982 244.262L316.102 243.623C316.256 243.536 316.259 243.315 316.105 243.225Z" fill="#4D5068"/>
<path fill-rule="evenodd" clip-rule="evenodd" d="M313.682 244.583L312.563 243.936C312.42 243.852 312.24 243.852 312.091 243.934L311 244.558C310.849 244.645 310.846 244.863 310.995 244.953L312.083 245.612C312.229 245.702 312.411 245.702 312.56 245.62L313.682 244.982C313.837 244.891 313.837 244.671 313.682 244.583Z" fill="#4D5068"/>
<path fill-rule="evenodd" clip-rule="evenodd" d="M311.302 246.028L310.182 245.381C310.036 245.296 309.856 245.296 309.711 245.378L308.62 246.002C308.465 246.09 308.463 246.307 308.614 246.398L309.699 247.056C309.848 247.146 310.031 247.149 310.179 247.064L311.299 246.426C311.456 246.336 311.456 246.115 311.302 246.028Z" fill="#4D5068"/>
<path fill-rule="evenodd" clip-rule="evenodd" d="M308.706 247.538L307.586 246.891C307.444 246.806 307.264 246.806 307.118 246.891L306.027 247.512C305.873 247.6 305.87 247.817 306.021 247.908L307.107 248.569C307.252 248.656 307.435 248.659 307.584 248.574L308.706 247.936C308.86 247.848 308.86 247.628 308.706 247.538Z" fill="#4D5068"/>
<path fill-rule="evenodd" clip-rule="evenodd" d="M306.362 248.797L305.242 248.15C305.096 248.066 304.919 248.066 304.771 248.148L303.68 248.772C303.525 248.859 303.522 249.077 303.674 249.167L304.759 249.825C304.908 249.916 305.091 249.919 305.239 249.834L306.359 249.195C306.516 249.105 306.516 248.888 306.362 248.797Z" fill="#4D5068"/>
<path fill-rule="evenodd" clip-rule="evenodd" d="M333.19 236.313L332.07 235.666C331.927 235.582 331.747 235.582 331.602 235.664L330.508 236.288C330.356 236.375 330.353 236.593 330.505 236.683L331.59 237.344C331.736 237.432 331.919 237.435 332.067 237.35L333.19 236.712C333.344 236.621 333.344 236.404 333.19 236.313Z" fill="#4D5068"/>
<path fill-rule="evenodd" clip-rule="evenodd" d="M330.685 237.738L329.565 237.091C329.423 237.007 329.243 237.007 329.097 237.091L328.006 237.713C327.852 237.8 327.849 238.018 327.997 238.108L329.085 238.769C329.231 238.857 329.414 238.86 329.562 238.775L330.685 238.137C330.839 238.049 330.839 237.829 330.685 237.738Z" fill="#4D5068"/>
<path fill-rule="evenodd" clip-rule="evenodd" d="M328.254 239.089L327.134 238.442C326.989 238.357 326.809 238.357 326.663 238.439L325.572 239.063C325.418 239.151 325.415 239.368 325.566 239.459L326.652 240.117C326.8 240.207 326.983 240.21 327.132 240.125L328.254 239.487C328.408 239.399 328.408 239.176 328.254 239.089Z" fill="#4D5068"/>
<path fill-rule="evenodd" clip-rule="evenodd" d="M325.667 240.482L324.548 239.835C324.402 239.75 324.225 239.75 324.076 239.832L322.985 240.456C322.831 240.544 322.828 240.761 322.979 240.852L324.065 241.513C324.213 241.6 324.396 241.603 324.545 241.518L325.667 240.88C325.821 240.792 325.821 240.572 325.667 240.482Z" fill="#4D5068"/>
<path fill-rule="evenodd" clip-rule="evenodd" d="M323.387 241.807L322.267 241.16C322.124 241.075 321.944 241.075 321.799 241.157L320.708 241.782C320.553 241.866 320.55 242.087 320.702 242.177L321.787 242.835C321.933 242.926 322.116 242.928 322.264 242.844L323.387 242.205C323.541 242.115 323.541 241.895 323.387 241.807Z" fill="#4D5068"/>
<path fill-rule="evenodd" clip-rule="evenodd" d="M321.072 243.225L319.952 242.578C319.809 242.493 319.629 242.493 319.481 242.575L318.389 243.2C318.235 243.287 318.232 243.505 318.384 243.595L319.469 244.253C319.618 244.344 319.8 244.344 319.949 244.262L321.072 243.623C321.226 243.533 321.226 243.313 321.072 243.225Z" fill="#4D5068"/>
<path fill-rule="evenodd" clip-rule="evenodd" d="M318.596 244.566L317.476 243.919C317.334 243.834 317.154 243.834 317.008 243.916L315.917 244.54C315.763 244.628 315.76 244.845 315.911 244.936L316.996 245.597C317.142 245.684 317.325 245.687 317.474 245.602L318.596 244.964C318.75 244.876 318.75 244.656 318.596 244.566Z" fill="#4D5068"/>
<path fill-rule="evenodd" clip-rule="evenodd" d="M316.175 245.924L315.055 245.277C314.912 245.193 314.732 245.193 314.587 245.274L313.493 245.899C313.341 245.983 313.338 246.204 313.487 246.294L314.572 246.952C314.721 247.043 314.904 247.043 315.052 246.961L316.175 246.322C316.329 246.232 316.329 246.012 316.175 245.924Z" fill="#4D5068"/>
<path fill-rule="evenodd" clip-rule="evenodd" d="M313.794 247.367L312.674 246.72C312.531 246.635 312.352 246.635 312.203 246.72L311.112 247.341C310.958 247.429 310.955 247.646 311.106 247.737L312.192 248.398C312.34 248.485 312.523 248.488 312.671 248.403L313.794 247.765C313.948 247.677 313.948 247.457 313.794 247.367Z" fill="#4D5068"/>
<path fill-rule="evenodd" clip-rule="evenodd" d="M311.2 248.878L310.08 248.231C309.937 248.147 309.757 248.147 309.609 248.229L308.518 248.853C308.366 248.94 308.36 249.158 308.512 249.248L309.597 249.909C309.746 249.997 309.929 250 310.077 249.915L311.2 249.277C311.354 249.189 311.354 248.969 311.2 248.878Z" fill="#4D5068"/>
<path fill-rule="evenodd" clip-rule="evenodd" d="M308.854 250.138L307.734 249.491C307.591 249.406 307.411 249.406 307.263 249.488L306.172 250.112C306.017 250.2 306.015 250.417 306.166 250.508L307.251 251.166C307.4 251.256 307.583 251.259 307.731 251.174L308.854 250.536C309.008 250.448 309.008 250.225 308.854 250.138Z" fill="#4D5068"/>
<path fill-rule="evenodd" clip-rule="evenodd" d="M335.684 237.654L334.564 237.007C334.418 236.923 334.241 236.923 334.093 237.004L333.002 237.629C332.847 237.713 332.844 237.934 332.996 238.024L334.081 238.682C334.23 238.773 334.413 238.773 334.561 238.691L335.681 238.052C335.838 237.962 335.838 237.742 335.684 237.654Z" fill="#4D5068"/>
<path fill-rule="evenodd" clip-rule="evenodd" d="M333.178 239.079L332.059 238.432C331.913 238.347 331.733 238.347 331.588 238.432L330.496 239.054C330.342 239.141 330.339 239.359 330.491 239.449L331.576 240.11C331.722 240.198 331.907 240.2 332.056 240.116L333.176 239.477C333.33 239.39 333.333 239.169 333.178 239.079Z" fill="#4D5068"/>
<path fill-rule="evenodd" clip-rule="evenodd" d="M330.747 240.429L329.627 239.782C329.481 239.697 329.304 239.697 329.156 239.779L328.064 240.404C327.913 240.491 327.907 240.709 328.059 240.799L329.144 241.457C329.293 241.548 329.475 241.548 329.624 241.466L330.747 240.827C330.901 240.737 330.901 240.517 330.747 240.429Z" fill="#4D5068"/>
<path fill-rule="evenodd" clip-rule="evenodd" d="M328.159 241.822L327.039 241.175C326.897 241.091 326.717 241.091 326.568 241.175L325.477 241.797C325.326 241.884 325.32 242.102 325.471 242.192L326.557 242.853C326.705 242.941 326.888 242.944 327.037 242.859L328.159 242.221C328.313 242.133 328.313 241.913 328.159 241.822Z" fill="#4D5068"/>
<path fill-rule="evenodd" clip-rule="evenodd" d="M325.667 243.294L324.547 242.647C324.402 242.562 324.224 242.562 324.076 242.644L318.389 245.893C318.235 245.98 318.232 246.198 318.383 246.288L319.472 246.949C319.617 247.037 319.8 247.039 319.949 246.955L325.667 243.692C325.821 243.604 325.821 243.384 325.667 243.294Z" fill="#4D5068"/>
<path fill-rule="evenodd" clip-rule="evenodd" d="M318.667 247.264L317.547 246.617C317.405 246.532 317.225 246.532 317.079 246.617L315.988 247.238C315.834 247.326 315.831 247.543 315.982 247.634L317.068 248.295C317.213 248.382 317.396 248.385 317.545 248.3L318.667 247.662C318.821 247.574 318.821 247.354 318.667 247.264Z" fill="#4D5068"/>
<path fill-rule="evenodd" clip-rule="evenodd" d="M316.286 248.709L315.167 248.062C315.024 247.977 314.844 247.977 314.698 248.059L313.604 248.683C313.453 248.768 313.45 248.988 313.598 249.079L314.684 249.737C314.832 249.827 315.015 249.827 315.164 249.745L316.286 249.107C316.44 249.017 316.44 248.796 316.286 248.709Z" fill="#4D5068"/>
<path fill-rule="evenodd" clip-rule="evenodd" d="M313.692 250.219L312.573 249.572C312.43 249.487 312.25 249.487 312.101 249.569L311.01 250.194C310.856 250.281 310.856 250.499 311.004 250.589L312.09 251.247C312.238 251.338 312.421 251.34 312.57 251.256L313.692 250.617C313.847 250.53 313.847 250.309 313.692 250.219Z" fill="#4D5068"/>
<path fill-rule="evenodd" clip-rule="evenodd" d="M311.346 251.477L310.226 250.83C310.084 250.745 309.904 250.745 309.755 250.83L308.664 251.452C308.513 251.539 308.507 251.757 308.658 251.847L309.744 252.508C309.892 252.596 310.075 252.598 310.224 252.514L311.346 251.875C311.5 251.788 311.5 251.567 311.346 251.477Z" fill="#4D5068"/>
<path fill-rule="evenodd" clip-rule="evenodd" d="M325.052 225.685C324.738 220.632 327.017 211.124 328.768 207.731C330.947 203.505 334.632 199.847 338.679 197.539L342.673 195.26C347.797 192.331 350.065 197.658 354.204 201.842C370.407 218.228 359.199 245.712 358.519 260.446C358.182 267.779 340.884 269.505 335.797 269.51C328.571 269.516 318.257 264.513 319.339 261.649C327.997 238.775 325.92 239.701 325.052 225.685Z" fill="#1DAFF4"/>
<path fill-rule="evenodd" clip-rule="evenodd" d="M354.204 201.842C350.579 198.178 348.388 193.636 344.455 194.534C347.297 195.181 349.322 198.805 352.324 201.842C368.531 218.228 357.32 245.712 356.64 260.446C356.326 267.285 341.267 269.245 335.112 269.482C335.341 269.491 335.575 269.51 335.798 269.51C340.885 269.505 358.183 267.779 358.52 260.446C359.199 245.712 370.408 218.228 354.204 201.842Z" fill="#1DAFF4"/>
<path fill-rule="evenodd" clip-rule="evenodd" d="M340.756 202.404H339.953C338.268 202.404 336.903 201.054 336.903 199.388V191.021C336.903 189.354 338.268 188.004 339.953 188.004H340.756C342.441 188.004 343.807 189.354 343.807 191.021V199.388C343.807 201.054 342.441 202.404 340.756 202.404Z" fill="#FFCEBD"/>
<path fill-rule="evenodd" clip-rule="evenodd" d="M346.164 194.293L343.691 195.07C335.782 197.55 327.336 193.223 324.825 185.401L320.906 173.187L342.186 166.509L349.229 188.449C350.015 190.898 348.644 193.516 346.164 194.293Z" fill="#FFCEBD"/>
<path fill-rule="evenodd" clip-rule="evenodd" d="M348.469 169.229C347.755 167.077 346.475 164.427 343.887 164.221C342.119 164.077 340.363 165.094 339.44 166.591C338.023 164.916 335.461 164.868 333.27 165.15C329.237 165.67 324.744 166.653 321.457 169.068C319.049 170.837 315.938 173.11 316.655 176.531C317.035 178.35 318.566 179.692 320.268 180.339C321.102 180.655 321.925 180.613 322.699 181.028C323.516 181.469 323.987 182.356 324.89 182.7C326.064 183.15 327.503 182.559 328.595 183.181C329.748 183.833 329.848 185.392 330.051 186.692C330.377 188.796 331.028 190.488 332.388 192.2C333.279 193.318 334.344 194.347 335.661 194.934C336.738 195.414 337.929 195.573 339.1 195.728C339.377 195.765 339.66 195.796 339.94 195.824C343.345 196.135 346.915 195.601 349.171 192.768C350.585 190.991 351.254 188.734 351.516 186.491C352.202 180.641 350.323 174.825 348.469 169.229Z" fill="#4D5068"/>
<path fill-rule="evenodd" clip-rule="evenodd" d="M321.456 169.068C324.744 166.653 329.237 165.67 333.27 165.15C334.092 165.046 334.961 165.023 335.809 165.079C335.501 165.102 335.186 165.111 334.886 165.15C330.853 165.67 326.36 166.653 323.07 169.068C320.665 170.836 317.554 173.11 318.268 176.534C318.651 178.353 320.182 179.692 321.885 180.339C322.719 180.655 323.538 180.613 324.312 181.028C325.132 181.468 325.603 182.355 326.506 182.7C327.68 183.149 329.12 182.559 330.211 183.18C331.365 183.836 331.465 185.392 331.667 186.691C331.993 188.796 332.641 190.491 334.004 192.2C334.895 193.318 335.96 194.346 337.274 194.934C338.354 195.414 339.545 195.572 340.716 195.728C340.993 195.764 341.273 195.795 341.556 195.821C341.862 195.849 342.17 195.863 342.476 195.877C341.636 195.925 340.782 195.9 339.939 195.821C339.659 195.795 339.377 195.764 339.1 195.728C337.928 195.572 336.737 195.414 335.661 194.934C334.344 194.346 333.278 193.318 332.387 192.2C331.028 190.491 330.379 188.796 330.051 186.691C329.848 185.392 329.748 183.836 328.597 183.18C327.503 182.559 326.063 183.149 324.889 182.7C323.987 182.355 323.515 181.468 322.699 181.028C321.925 180.613 321.102 180.655 320.268 180.339C318.565 179.692 317.034 178.353 316.655 176.534C315.938 173.11 319.048 170.836 321.456 169.068Z" fill="#717386"/>
<path fill-rule="evenodd" clip-rule="evenodd" d="M340.491 233.165L338.123 216.295C337.792 213.931 335.584 212.276 333.19 212.609C330.8 212.937 329.129 215.12 329.463 217.485L331.828 234.354C332.299 237.695 331.202 240.997 328.82 243.415C327.629 244.622 326.207 245.517 324.658 246.059C324.007 248.517 323.047 251.488 321.682 255.305C326.721 255.135 331.491 253.093 335.078 249.452C339.36 245.11 341.334 239.173 340.491 233.165Z" fill="#0086AF"/>
<path fill-rule="evenodd" clip-rule="evenodd" d="M321.013 252.55C320.296 252.55 319.576 252.513 318.854 252.434L313.501 252.078C311.09 251.92 309.268 249.858 309.431 247.477C309.591 245.093 311.71 243.31 314.084 243.452L319.734 243.833C323.121 244.206 326.437 243.042 328.819 240.627C331.202 238.212 332.298 234.91 331.83 231.568L329.462 214.699C329.131 212.335 330.802 210.148 333.193 209.823C335.586 209.49 337.794 211.145 338.125 213.51L340.49 230.376C341.336 236.384 339.362 242.322 335.081 246.666C331.33 250.468 326.3 252.55 321.013 252.55Z" fill="#FFCEBD"/>
<path fill-rule="evenodd" clip-rule="evenodd" d="M340.845 231.241L338.28 212.959C337.92 210.397 335.527 208.601 332.933 208.962C330.343 209.315 328.532 211.683 328.892 214.247L331.457 232.532L340.845 231.241Z" fill="#0086AF"/>
<path fill-rule="evenodd" clip-rule="evenodd" d="M314.003 245.275H305.714C305.252 245.275 304.877 244.905 304.877 244.45V244.233C304.877 243.778 305.252 243.408 305.714 243.408H314.003C314.466 243.408 314.837 243.778 314.837 244.233V244.45C314.837 244.905 314.466 245.275 314.003 245.275Z" fill="#FFCEBD"/>
<path fill-rule="evenodd" clip-rule="evenodd" d="M318.745 246.27L311.533 242.228C311.13 242.002 310.99 241.499 311.216 241.104L311.324 240.915C311.55 240.516 312.061 240.378 312.461 240.604L319.676 244.643C320.079 244.869 320.219 245.375 319.99 245.77L319.882 245.96C319.653 246.355 319.148 246.494 318.745 246.27Z" fill="#FFCEBD"/>
<path fill-rule="evenodd" clip-rule="evenodd" d="M312.537 247.95H304.245C303.786 247.95 303.411 247.58 303.411 247.125V246.908C303.411 246.453 303.786 246.083 304.245 246.083H312.537C312.997 246.083 313.371 246.453 313.371 246.908V247.125C313.371 247.58 312.997 247.95 312.537 247.95Z" fill="#FFCEBD"/>
<path fill-rule="evenodd" clip-rule="evenodd" d="M314.067 249.596L305.815 250.409C305.358 250.452 304.95 250.124 304.904 249.669L304.881 249.452C304.835 249 305.17 248.596 305.627 248.548L313.879 247.737C314.338 247.692 314.747 248.022 314.793 248.477L314.815 248.692C314.861 249.147 314.527 249.551 314.067 249.596Z" fill="#FFCEBD"/>
<path fill-rule="evenodd" clip-rule="evenodd" d="M315.113 251.84L306.861 252.653C306.401 252.699 305.993 252.368 305.95 251.91L305.927 251.696C305.882 251.244 306.216 250.84 306.676 250.795L314.925 249.981C315.385 249.936 315.793 250.266 315.839 250.721L315.862 250.939C315.904 251.391 315.57 251.795 315.113 251.84Z" fill="#FFCEBD"/>
<defs>
<linearGradient id="paint0_linear_304_2654" x1="193.943" y1="281.327" x2="270.189" y2="281.327" gradientUnits="userSpaceOnUse">
<stop stop-color="#D3DAED"/>
<stop offset="1" stop-color="#B1B8F9"/>
</linearGradient>
<linearGradient id="paint1_linear_304_2654" x1="192" y1="193.393" x2="309.01" y2="193.393" gradientUnits="userSpaceOnUse">
<stop stop-color="#D3DAED"/>
<stop offset="1" stop-color="#B1B8F9"/>
</linearGradient>
</defs>
</svg>
