<?xml version="1.0" encoding="UTF-8"?>
<svg fill="none" viewBox="0 0 475 344" xmlns="http://www.w3.org/2000/svg">
<g clip-path="url(#h)">
<g filter="url(#f)">
<mask id="e" x="50" y="32" width="374" height="289" style="mask-type:alpha" maskUnits="userSpaceOnUse">
<path d="m50.765 32.386h373.19v288.47h-373.19v-288.47z" clip-rule="evenodd" fill="#fff" fill-rule="evenodd"/>
</mask>
<g mask="url(#e)">
<path d="m423.95 309.75c0 6.148-4.699 11.11-10.477 11.11h-352.24c-5.7775 0-10.473-4.962-10.473-11.11v-266.25c0-6.1471 4.6955-11.113 10.473-11.113h352.24c5.778 0 10.477 4.9662 10.477 11.113v266.25z" clip-rule="evenodd" fill="#fff" fill-rule="evenodd"/>
</g>
<mask id="d" x="3" y="32" width="468" height="306" style="mask-type:alpha" maskUnits="userSpaceOnUse">
<path d="m3.8934 337.5h466.92v-305.11h-466.92v305.11z" clip-rule="evenodd" fill="#fff" fill-rule="evenodd"/>
</mask>
<g clip-rule="evenodd" fill-rule="evenodd" mask="url(#d)">
<path d="m67.486 295.58h339.18v-244.09h-339.18v244.09z" fill="#191551"/>
<path d="m3.8933 312.53c1.3919 13.97 15.221 24.97 32.238 24.97h402.44c17.026 0 30.845-11 32.244-24.97h-466.93z" fill="#EFEFEF"/>
<path d="m175.8 320.86h123.1v-8.332h-123.1v8.332z" fill="#ccc"/>
</g>
</g>
<path d="m326.45 144.63c0.259 2.587 0.405 5.207 0.435 7.855-0.276 2e-3 -0.498 0.227-0.496 0.502 1e-3 0.164 1e-3 0.329 1e-3 0.493s0 0.328-1e-3 0.492c-2e-3 0.276 0.22 0.501 0.496 0.503-0.03 2.648-0.176 5.268-0.435 7.855-0.274-0.028-0.519 0.17-0.548 0.445-0.035 0.326-0.071 0.651-0.109 0.976-0.032 0.274 0.163 0.522 0.437 0.555-0.322 2.623-0.76 5.211-1.308 7.757-0.269-0.059-0.535 0.111-0.595 0.381-0.071 0.319-0.143 0.638-0.217 0.956-0.063 0.268 0.104 0.536 0.372 0.6-0.614 2.565-1.34 5.087-2.173 7.56-0.261-0.089-0.544 0.05-0.634 0.311-0.106 0.309-0.213 0.617-0.323 0.924-0.092 0.26 0.043 0.545 0.302 0.638-0.897 2.477-1.903 4.901-3.011 7.268-0.249-0.118-0.547-0.011-0.665 0.238-0.14 0.295-0.282 0.589-0.426 0.882-0.121 0.248-0.018 0.547 0.229 0.669-1.169 2.356-2.441 4.653-3.81 6.883-0.234-0.144-0.542-0.072-0.687 0.162-0.173 0.277-0.347 0.554-0.522 0.83-0.148 0.232-0.08 0.541 0.152 0.689-1.424 2.208-2.945 4.348-4.556 6.414-0.216-0.17-0.53-0.133-0.701 0.084-0.202 0.256-0.406 0.512-0.611 0.766-0.173 0.214-0.14 0.528 0.074 0.702-1.66 2.033-3.409 3.991-5.242 5.866-0.196-0.193-0.512-0.19-0.706 6e-3 -0.23 0.232-0.46 0.463-0.693 0.693-0.196 0.194-0.197 0.51-4e-3 0.706-1.875 1.834-3.831 3.585-5.863 5.246-0.173-0.213-0.487-0.246-0.702-0.073-0.254 0.205-0.509 0.409-0.765 0.612-0.217 0.171-0.254 0.484-0.084 0.701-2.064 1.612-4.203 3.134-6.41 4.56-0.149-0.232-0.457-0.3-0.69-0.151-0.275 0.175-0.552 0.35-0.829 0.522-0.234 0.146-0.306 0.453-0.161 0.688-2.23 1.37-4.526 2.643-6.881 3.814-0.122-0.247-0.421-0.349-0.669-0.228-0.293 0.144-0.587 0.286-0.882 0.426-0.249 0.119-0.355 0.416-0.238 0.665-2.366 1.11-4.79 2.117-7.265 3.015-0.094-0.259-0.379-0.394-0.639-0.301-0.307 0.109-0.615 0.217-0.924 0.323-0.26 0.09-0.399 0.374-0.31 0.634-2.473 0.835-4.994 1.562-7.56 2.176-0.063-0.268-0.332-0.434-0.6-0.371-0.318 0.074-0.637 0.146-0.956 0.217-0.269 0.06-0.439 0.326-0.38 0.595-2.547 0.549-5.134 0.987-7.757 1.31-0.033-0.274-0.281-0.469-0.555-0.437-0.325 0.038-0.65 0.074-0.976 0.109-0.275 0.029-0.473 0.274-0.445 0.548-2.587 0.259-5.207 0.406-7.855 0.436-2e-3 -0.276-0.227-0.498-0.503-0.496-0.164 1e-3 -0.328 1e-3 -0.492 1e-3s-0.329 0-0.493-1e-3c-0.275-2e-3 -0.5 0.22-0.502 0.496-2.648-0.03-5.268-0.177-7.855-0.436 0.028-0.274-0.171-0.519-0.445-0.548-0.326-0.035-0.651-0.071-0.976-0.109-0.274-0.032-0.522 0.163-0.555 0.437-2.623-0.323-5.211-0.761-7.757-1.31 0.059-0.269-0.111-0.535-0.38-0.595-0.32-0.071-0.638-0.143-0.956-0.217-0.269-0.063-0.537 0.103-0.6 0.371-2.566-0.614-5.088-1.341-7.56-2.176 0.089-0.26-0.05-0.544-0.311-0.634-0.308-0.106-0.616-0.214-0.924-0.323-0.259-0.093-0.545 0.042-0.638 0.301-2.476-0.898-4.899-1.905-7.266-3.015 0.118-0.249 0.012-0.546-0.237-0.665-0.295-0.14-0.589-0.282-0.882-0.426-0.248-0.121-0.547-0.019-0.669 0.228-2.356-1.171-4.651-2.444-6.881-3.814 0.145-0.235 0.073-0.542-0.161-0.688-0.278-0.172-0.554-0.347-0.829-0.522-0.233-0.149-0.541-0.081-0.69 0.151-2.207-1.426-4.346-2.948-6.411-4.56 0.17-0.217 0.133-0.53-0.083-0.701-0.256-0.203-0.511-0.407-0.765-0.612-0.215-0.173-0.529-0.14-0.703 0.073-2.032-1.661-3.988-3.412-5.862-5.246 0.193-0.196 0.191-0.512-5e-3 -0.706-0.232-0.23-0.463-0.461-0.692-0.693-0.194-0.196-0.51-0.199-0.706-6e-3 -1.833-1.875-3.582-3.833-5.242-5.866 0.214-0.174 0.247-0.488 0.074-0.702-0.205-0.254-0.409-0.51-0.611-0.766-0.171-0.217-0.485-0.254-0.702-0.084-1.61-2.066-3.131-4.206-4.555-6.414 0.232-0.148 0.3-0.457 0.152-0.689-0.176-0.276-0.35-0.553-0.522-0.83-0.146-0.234-0.453-0.306-0.688-0.162-1.368-2.23-2.64-4.527-3.809-6.883 0.247-0.122 0.349-0.421 0.228-0.669-0.143-0.293-0.285-0.587-0.425-0.882-0.119-0.249-0.416-0.356-0.665-0.238-1.108-2.367-2.114-4.791-3.011-7.268 0.259-0.093 0.394-0.378 0.302-0.638-0.11-0.307-0.217-0.615-0.324-0.924-0.089-0.261-0.373-0.4-0.633-0.311-0.834-2.473-1.56-4.995-2.173-7.56 0.268-0.064 0.434-0.332 0.372-0.6-0.074-0.318-0.147-0.637-0.217-0.956-0.06-0.27-0.326-0.44-0.595-0.381-0.548-2.546-0.986-5.134-1.308-7.757 0.273-0.033 0.469-0.281 0.437-0.555-0.038-0.325-0.075-0.65-0.109-0.976-0.029-0.274-0.274-0.473-0.548-0.445-0.259-2.587-0.405-5.207-0.435-7.855 0.276-2e-3 0.498-0.227 0.496-0.503-1e-3 -0.164-1e-3 -0.328-1e-3 -0.492s0-0.329 1e-3 -0.493c2e-3 -0.275-0.22-0.5-0.496-0.502 0.03-2.648 0.176-5.268 0.435-7.855 0.274 0.028 0.519-0.171 0.548-0.445 0.034-0.326 0.071-0.652 0.109-0.977 0.032-0.273-0.164-0.521-0.437-0.554 0.322-2.623 0.76-5.211 1.308-7.757 0.269 0.058 0.535-0.112 0.595-0.381 0.07-0.319 0.143-0.638 0.217-0.956 0.062-0.268-0.104-0.537-0.372-0.6 0.613-2.566 1.339-5.088 2.173-7.561 0.26 0.089 0.544-0.05 0.633-0.311 0.107-0.308 0.214-0.616 0.324-0.924 0.092-0.259-0.043-0.545-0.302-0.638 0.897-2.476 1.903-4.9 3.011-7.267 0.249 0.117 0.546 0.011 0.665-0.238 0.14-0.295 0.282-0.589 0.425-0.883 0.121-0.247 0.019-0.546-0.228-0.668 1.169-2.356 2.441-4.653 3.809-6.884 0.235 0.145 0.542 0.073 0.688-0.161 0.172-0.278 0.346-0.554 0.522-0.83 0.148-0.232 0.08-0.541-0.152-0.69 1.424-2.207 2.945-4.347 4.555-6.4135 0.217 0.17 0.531 0.1327 0.702-0.0838 0.202-0.2564 0.406-0.5117 0.611-0.7659 0.173-0.2145 0.14-0.5286-0.074-0.7022 1.66-2.0333 3.409-3.9907 5.242-5.8664 0.196 0.1931 0.512 0.1909 0.706-0.0052 0.229-0.2324 0.46-0.4634 0.692-0.6932 0.196-0.1939 0.198-0.5098 5e-3 -0.7061 1.874-1.8341 3.83-3.585 5.862-5.2465 0.174 0.2137 0.488 0.2467 0.703 0.0734 0.254-0.2053 0.509-0.4092 0.765-0.6117 0.216-0.1709 0.253-0.4845 0.083-0.7012 2.065-1.6124 4.204-3.1344 6.411-4.5601 0.149 0.2318 0.457 0.2996 0.69 0.1514 0.275-0.1757 0.551-0.35 0.829-0.5226 0.234-0.1457 0.306-0.4532 0.161-0.6875 2.23-1.3702 4.525-2.6435 6.881-3.814 0.122 0.247 0.421 0.349 0.669 0.2278 0.293-0.1437 0.587-0.2857 0.882-0.4261 0.249-0.1185 0.355-0.416 0.237-0.6651 2.367-1.1095 4.79-2.1165 7.266-3.0153 0.093 0.2592 0.379 0.3943 0.638 0.3017 0.308-0.1095 0.616-0.2174 0.924-0.3235 0.261-0.0896 0.4-0.3733 0.311-0.6341 2.472-0.8343 4.994-1.5615 7.56-2.176 0.063 0.2681 0.331 0.4345 0.6 0.3718 0.318-0.0742 0.636-0.1467 0.956-0.2175 0.269-0.0596 0.439-0.3258 0.38-0.5949 2.546-0.5489 5.134-0.9874 7.757-1.3101 0.033 0.2736 0.281 0.4691 0.555 0.437 0.325-0.0381 0.65-0.0744 0.976-0.1089 0.274-0.0291 0.473-0.2745 0.445-0.5485 2.587-0.259 5.207-0.4057 7.855-0.4352 2e-3 0.2755 0.227 0.4974 0.502 0.4959 0.164-9e-4 0.329-0.0014 0.493-0.0014s0.328 5e-4 0.492 0.0014c0.276 0.0015 0.501-0.2204 0.503-0.4959 2.648 0.0295 5.268 0.1762 7.855 0.4352-0.028 0.274 0.17 0.5194 0.445 0.5485 0.326 0.0345 0.651 0.0708 0.976 0.1089 0.274 0.0321 0.522-0.1634 0.555-0.437 2.623 0.3227 5.21 0.7612 7.757 1.3101-0.059 0.2692 0.111 0.5353 0.38 0.595 0.319 0.0707 0.638 0.1432 0.956 0.2174 0.268 0.0627 0.537-0.1037 0.6-0.3718 2.566 0.6145 5.087 1.3417 7.56 2.176-0.089 0.2608 0.05 0.5445 0.31 0.6341 0.309 0.1062 0.617 0.214 0.924 0.3235 0.26 0.0926 0.545-0.0425 0.639-0.3017 2.475 0.8988 4.899 1.9058 7.265 3.0153-0.117 0.2491-0.011 0.5466 0.238 0.6651 0.295 0.1404 0.589 0.2824 0.882 0.4261 0.248 0.1212 0.547 0.0192 0.669-0.2278 2.355 1.1705 4.651 2.4438 6.881 3.814-0.145 0.2343-0.073 0.5418 0.161 0.6875 0.277 0.1727 0.554 0.3469 0.829 0.5226 0.233 0.1482 0.541 0.0804 0.69-0.1514 2.207 1.4257 4.346 2.9477 6.41 4.5601-0.17 0.2167-0.133 0.5303 0.084 0.7012 0.256 0.2025 0.511 0.4064 0.765 0.6117 0.215 0.1733 0.529 0.1403 0.702-0.0734 2.032 1.6615 3.988 3.4124 5.863 5.2465-0.193 0.1963-0.192 0.5122 4e-3 0.7061 0.233 0.2298 0.463 0.4608 0.693 0.6932 0.194 0.1961 0.51 0.1983 0.706 0.0052 1.833 1.8757 3.582 3.8331 5.242 5.8664-0.214 0.1736-0.247 0.4877-0.074 0.7022 0.205 0.2542 0.409 0.5095 0.611 0.7659 0.171 0.2165 0.485 0.2538 0.701 0.0838 1.611 2.0665 3.132 4.2065 4.556 6.4135-0.232 0.149-0.3 0.458-0.152 0.69 0.175 0.276 0.349 0.552 0.522 0.83 0.145 0.234 0.453 0.306 0.687 0.161 1.369 2.231 2.641 4.528 3.81 6.884-0.247 0.122-0.35 0.421-0.229 0.668 0.144 0.294 0.286 0.588 0.426 0.883 0.118 0.249 0.416 0.355 0.665 0.238 1.108 2.367 2.114 4.791 3.011 7.267-0.259 0.093-0.394 0.379-0.302 0.638 0.11 0.308 0.217 0.616 0.323 0.924 0.09 0.261 0.373 0.4 0.634 0.311 0.833 2.473 1.559 4.995 2.173 7.561-0.268 0.063-0.435 0.332-0.372 0.6 0.074 0.318 0.146 0.637 0.217 0.956 0.06 0.269 0.326 0.439 0.595 0.381 0.548 2.546 0.986 5.134 1.308 7.757-0.274 0.033-0.469 0.281-0.437 0.554 0.038 0.325 0.074 0.651 0.109 0.977 0.029 0.274 0.274 0.473 0.548 0.445z" stroke="#fff" stroke-dasharray="1 9" stroke-linecap="round" stroke-linejoin="round"/>
<rect x="191.48" y="182.06" width="97.327" height="97.378" rx="24" fill="url(#a)"/>
<path d="m230.01 230.74c0-5.602 4.538-10.144 10.137-10.144s10.139 4.542 10.139 10.144-4.54 10.145-10.139 10.145-10.137-4.543-10.137-10.145zm-5.481 0c0 8.63 6.992 15.626 15.618 15.626s15.618-6.996 15.618-15.626-6.992-15.626-15.618-15.626-15.618 6.996-15.618 15.626zm28.204-16.245c0 0.722 0.214 1.428 0.614 2.029 0.401 0.601 0.971 1.069 1.638 1.345 0.667 0.277 1.4 0.35 2.108 0.209 0.709-0.141 1.359-0.488 1.87-0.999 0.51-0.51 0.858-1.161 0.999-1.869s0.069-1.442-0.207-2.11c-0.276-0.667-0.743-1.238-1.343-1.639-0.6-0.402-1.306-0.616-2.028-0.616h-1e-3c-0.968 0-1.896 0.385-2.58 1.069-0.684 0.685-1.069 1.613-1.07 2.581zm-24.874 41.015c-2.965-0.135-4.577-0.629-5.648-1.047-1.42-0.553-2.433-1.212-3.498-2.276s-1.725-2.077-2.275-3.498c-0.418-1.071-0.912-2.684-1.047-5.651-0.147-3.207-0.176-4.171-0.176-12.298 0-8.126 0.031-9.087 0.176-12.297 0.136-2.967 0.633-4.577 1.047-5.651 0.553-1.421 1.211-2.435 2.275-3.501 1.064-1.065 2.076-1.725 3.498-2.276 1.071-0.418 2.683-0.912 5.648-1.047 3.206-0.147 4.169-0.177 12.288-0.177s9.083 0.032 12.291 0.177c2.966 0.135 4.575 0.633 5.648 1.047 1.42 0.551 2.434 1.212 3.499 2.276 1.065 1.065 1.722 2.08 2.275 3.501 0.417 1.071 0.911 2.684 1.046 5.651 0.148 3.21 0.177 4.171 0.177 12.297 0 8.127-0.029 9.088-0.177 12.298-0.135 2.967-0.631 4.58-1.046 5.651-0.553 1.421-1.211 2.435-2.275 3.498s-2.079 1.723-3.499 2.276c-1.07 0.418-2.682 0.912-5.648 1.047-3.206 0.148-4.169 0.177-12.291 0.177s-9.083-0.029-12.288-0.177zm-0.251-55.016c-3.238 0.147-5.451 0.661-7.383 1.413-2.001 0.777-3.695 1.819-5.388 3.51s-2.732 3.389-3.508 5.391c-0.752 1.934-1.265 4.147-1.413 7.386-0.15 3.245-0.184 4.282-0.184 12.546s0.034 9.302 0.184 12.546c0.148 3.24 0.661 5.452 1.413 7.387 0.776 2.001 1.816 3.7 3.508 5.39 1.693 1.691 3.387 2.731 5.388 3.51 1.936 0.753 4.145 1.266 7.383 1.414 3.244 0.147 4.279 0.184 12.539 0.184s9.296-0.034 12.539-0.184c3.238-0.148 5.449-0.661 7.383-1.414 2-0.779 3.695-1.819 5.388-3.51 1.692-1.691 2.729-3.389 3.508-5.39 0.752-1.935 1.268-4.147 1.413-7.387 0.147-3.247 0.181-4.282 0.181-12.546s-0.034-9.301-0.181-12.546c-0.148-3.24-0.661-5.453-1.413-7.386-0.779-2.001-1.818-3.697-3.508-5.391-1.69-1.693-3.388-2.733-5.386-3.51-1.936-0.752-4.147-1.268-7.382-1.413-3.243-0.148-4.28-0.185-12.54-0.185-8.259 0-9.297 0.035-12.541 0.185z" fill="#fff"/>
<path d="m86.877 217.23-1.9857 0.621 1.2524 1.679c0.4457 0.599 0.7312 1.303 0.8289 2.045 0.0977 0.743 0.0045 1.498-0.2708 2.193s-0.7233 1.307-1.301 1.777-1.2655 0.782-1.9974 0.907l-1.9911 0.334 0.9527 1.825c0.3321 0.645 0.4993 1.363 0.4864 2.089-0.0128 0.727-0.2052 1.438-0.5599 2.071-0.3546 0.632-0.8601 1.165-1.4707 1.55s-1.3069 0.61-2.0258 0.655h-25.011c-1.9306-0.079-3.7885-0.764-5.3149-1.959-0.4152-0.373-0.8822-0.682-1.3862-0.918l-0.5352-0.248v-23.313l2.6065-2.251 8.7992-16.456c0.7892-1.307 1.1506-2.831 1.033-4.357l-0.7065-9.232c0.6072-0.352 1.2956-0.539 1.9964-0.539 3.8001 0 7.0543 6.122 7.0543 11.137-9e-4 0.696-0.0528 1.391-0.1552 2.079l-1.5361 9.999h19.076c1.2424 9e-3 2.4301 0.516 3.3023 1.409 0.3969 0.389 0.7127 0.855 0.9287 1.37 0.2159 0.514 0.3279 1.067 0.3291 1.626-0.0012 0.671-0.1577 1.333-0.4568 1.933-0.2992 0.6-0.7329 1.121-1.2666 1.522l-1.7716 1.355 1.9375 1.107c0.7369 0.42 1.336 1.049 1.7233 1.808 0.3874 0.759 0.5462 1.616 0.4569 2.466-0.0893 0.849-0.4228 1.653-0.9595 2.313-0.5367 0.661-1.2531 1.149-2.061 1.403z" fill="#fff"/>
<path d="m25.482 204.28c-0.0236 0-0.0463 9e-3 -0.0635 0.025s-0.0276 0.037-0.029 0.06v33.701c0.0014 0.023 0.0118 0.045 0.029 0.06 0.0172 0.016 0.0399 0.025 0.0635 0.025h19.91c0.0242 0 0.0476-8e-3 0.0657-0.024s0.0296-0.037 0.0323-0.061v-33.701c-0.0027-0.023-0.0142-0.045-0.0323-0.061-0.0181-0.015-0.0415-0.024-0.0657-0.024h-19.91z" fill="#4267B2"/>
<path d="m93.096 212.56c-0.0022-0.971-0.1966-1.931-0.5719-2.825s-0.924-1.704-1.614-2.383c0.9935-1.262 1.5361-2.824 1.5408-4.435 0.0021-0.943-0.1825-1.876-0.5432-2.746-0.3606-0.871-0.8901-1.66-1.5574-2.322-1.419-1.44-3.3476-2.256-5.3633-2.268h-15.6l0.997-6.543c0.1235-0.831 0.1859-1.67 0.1866-2.51 0-6.478-4.3451-14.003-9.9483-14.003-1.6237-4e-3 -3.1974 0.566-4.4464 1.609l-0.5757 0.483 0.8157 10.758c0.0325 0.455-0.0052 0.913-0.112 1.357-0.1077 0.443-0.2878 0.865-0.5331 1.249l-8.5675 15.971-0.3199 0.279c-0.1048-0.716-0.4617-1.37-1.0058-1.844-0.544-0.473-1.2391-0.734-1.9584-0.735h-16.586c-0.7961 0-1.5595 0.318-2.1224 0.884s-0.8792 1.334-0.8792 2.135v31.523c0.0015 0.8 0.3183 1.567 0.8811 2.132 0.5627 0.565 1.3254 0.882 2.1205 0.882h16.612c0.7951 0 1.5578-0.317 2.1205-0.882 0.5628-0.565 0.8796-1.332 0.8811-2.132v-1.608c2.0476 1.638 4.5663 2.567 7.1813 2.649h25.036c1.0582-0.057 2.0912-0.347 3.0263-0.848 0.9351-0.502 1.7496-1.203 2.3863-2.055s1.0802-1.834 1.2992-2.877 0.2082-2.122-0.0316-3.16c1.7558-0.759 3.1416-2.187 3.8548-3.97 0.7132-1.784 0.6959-3.779-0.0482-5.549 1.0572-0.651 1.9296-1.565 2.5329-2.654s0.9172-2.316 0.9112-3.562zm-49.048 23.645c-0.0023 0.021-0.0114 0.04-0.026 0.054-0.0145 0.015-0.0335 0.024-0.054 0.027h-16.634c-0.0214-2e-3 -0.0417-0.01-0.0573-0.025s-0.0255-0.034-0.028-0.056v-31.523c0.0014-0.022 0.0109-0.043 0.0268-0.058 0.0158-0.015 0.0368-0.023 0.0585-0.023h16.612c0.0208 1e-3 0.0404 0.01 0.0552 0.025 0.0147 0.015 0.0235 0.035 0.0248 0.056v31.523h0.0213zm43.115-19.494-1.978 0.617 1.2476 1.667c0.4442 0.596 0.7281 1.298 0.8243 2.036 0.0962 0.739 0.0015 1.49-0.2751 2.181-0.2765 0.691-0.7255 1.299-1.3036 1.765-0.5781 0.465-1.2657 0.773-1.9966 0.894l-1.9833 0.332 0.949 1.813c0.3308 0.64 0.4973 1.354 0.4846 2.075-0.0128 0.722-0.2045 1.428-0.5578 2.057-0.3532 0.628-0.8568 1.157-1.465 1.54-0.6082 0.382-1.3018 0.606-2.0178 0.651h-24.913c-1.9231-0.079-3.7737-0.76-5.2941-1.947-0.4135-0.37-0.8787-0.677-1.3808-0.912l-0.5331-0.246v-23.158l2.5964-2.236 8.7647-16.346c0.7862-1.298 1.1461-2.813 1.029-4.328l-0.7038-9.171c0.6049-0.35 1.2905-0.535 1.9886-0.536 3.7853 0 7.0267 6.081 7.0267 11.064-9e-4 0.691-0.0525 1.381-0.1546 2.064l-1.5301 9.933h19.001c1.2375 9e-3 2.4206 0.513 3.2894 1.399 0.3954 0.388 0.7099 0.85 0.925 1.361 0.2152 0.511 0.3267 1.061 0.3279 1.616-0.0012 0.667-0.157 1.324-0.455 1.92s-0.73 1.114-1.2617 1.512l-1.7647 1.346 1.93 1.1c0.734 0.417 1.3307 1.041 1.7166 1.796 0.3859 0.754 0.5441 1.605 0.4551 2.449-0.089 0.843-0.4212 1.642-0.9558 2.298-0.5345 0.656-1.2482 1.141-2.0529 1.394h0.0213z" fill="#32363B"/>
<rect x="278.23" y="73.034" width="75.111" height="75.151" rx="37.556" fill="#1DA1F2"/>
<path d="m334.19 102.49v1.175c0 12.153-9.271 26.185-26.171 26.185-5.223 0-10.035-1.526-14.142-4.11 0.704 0.059 1.467 0.118 2.171 0.118 4.283 0 8.274-1.468 11.443-3.934-4.049-0.059-7.453-2.759-8.568-6.4 0.587 0.118 1.115 0.177 1.761 0.177 0.821 0 1.643-0.118 2.405-0.353-4.225-0.822-7.393-4.52-7.393-8.983v-0.117c1.232 0.705 2.64 1.116 4.166 1.174-2.465-1.644-4.108-4.462-4.108-7.6909 0-1.7027 0.47-3.2879 1.233-4.6383 4.518 5.5772 11.325 9.2182 18.954 9.6292-0.176-0.646-0.235-1.41-0.235-2.114 0-5.108 4.107-9.2178 9.213-9.2178 2.64 0 5.046 1.1155 6.689 2.8769 2.113-0.411 4.049-1.1743 5.868-2.2311-0.704 2.1724-2.171 3.9337-4.049 5.1079 1.878-0.2348 3.639-0.7045 5.282-1.4678-1.174 1.8788-2.7 3.5229-4.519 4.8139z" fill="#fff"/>
<rect x="122.72" y="86.794" width="61.359" height="61.391" rx="30.679" fill="#4267B2"/>
<path d="m155.44 137.95v-18.669h6.263l0.938-7.276h-7.201v-4.645c0-2.106 0.585-3.542 3.604-3.542l3.85-2e-3v-6.5067c-0.666-0.0884-2.951-0.2864-5.611-0.2864-5.551 0-9.352 3.3901-9.352 9.6171v5.366h-6.28v7.275h6.28v18.669h7.509z" fill="#fff"/>
<g clip-path="url(#g)">
<path d="m421.9-0.46143h-56.712c-6.2 0-11.227 5.0298-11.227 11.234v31.607c0 6.2047 5.027 11.234 11.227 11.234h14.711l13.645 13.653 13.644-13.651h14.711c6.202 0 11.228-5.0298 11.228-11.234v-31.609c1e-3 -6.2038-5.026-11.234-11.227-11.234z" fill="#EE5162"/>
<path d="m407.64 17.234c-3.178-3.1789-8.329-3.1789-11.505 0l-2.597 2.598-2.596-2.598c-3.178-3.1789-8.329-3.1789-11.505 0-3.177 3.1789-3.177 8.3328 0 11.511l2.596 2.598 11.505 11.512 11.506-11.512 2.597-2.598c3.176-3.178 3.176-8.3319-1e-3 -11.511z" fill="#fff"/>
</g>
<mask id="c" x="67" y="61" width="43" height="38" style="mask-type:alpha" maskUnits="userSpaceOnUse">
<path d="m67.706 61.391h41.493v37.179h-41.493v-37.179z" clip-rule="evenodd" fill="#fff" fill-rule="evenodd"/>
</mask>
<g mask="url(#c)">
<path d="m102.78 59.505h-34.573c-3.5439 0-6.4167 2.8576-6.4167 6.3827v20.018c0 3.5251 2.8728 6.3827 6.4167 6.3827h14.011c1.099 3.6 4.4422 6.2378 8.425 6.2806 0.7776 0.0082 1.5324-0.0833 2.2533-0.262-2.006-1.3653-3.4158-3.5257-3.784-6.0186h13.668c3.544 0 6.416-2.8576 6.416-6.3827v-20.018c0-3.5251-2.872-6.3827-6.416-6.3827z" clip-rule="evenodd" fill="#1DAFF4" fill-rule="evenodd"/>
</g>
<mask id="b" x="357" y="200" width="51" height="46" style="mask-type:alpha" maskUnits="userSpaceOnUse">
<path d="m357.57 200.05h49.789v45.407h-49.789v-45.407z" clip-rule="evenodd" fill="#fff" fill-rule="evenodd"/>
</mask>
<g mask="url(#b)">
<path d="m405.22 200.05h-40.185c-4.12 0-7.459 3.322-7.459 7.419v23.268c0 4.098 3.339 7.419 7.459 7.419h15.886c-0.428 2.898-2.067 5.409-4.399 6.996 0.838 0.207 1.716 0.314 2.619 0.304 4.63-0.049 8.516-3.115 9.793-7.3h16.286c4.119 0 7.458-3.321 7.458-7.419v-23.268c0-4.097-3.339-7.419-7.458-7.419z" clip-rule="evenodd" fill="#FC3E54" fill-rule="evenodd"/>
<rect x="367.09" y="208.52" width="30.679" height="4.2339" fill="#fff" fill-opacity=".5"/>
<rect x="367.09" y="223.34" width="30.679" height="4.2339" fill="#fff" fill-opacity=".5"/>
<rect x="367.09" y="215.93" width="22.216" height="4.2338" fill="#fff" fill-opacity=".5"/>
</g>
<rect x="70.88" y="68.8" width="30.679" height="4.2338" fill="#fff" fill-opacity=".5"/>
<rect x="70.88" y="76.209" width="22.216" height="4.2338" fill="#fff" fill-opacity=".5"/>
</g>
<defs>
<filter id="f" x=".89345" y="31.386" width="472.92" height="311.11" color-interpolation-filters="sRGB" filterUnits="userSpaceOnUse">
<feFlood flood-opacity="0" result="BackgroundImageFix"/>
<feColorMatrix in="SourceAlpha" result="hardAlpha" values="0 0 0 0 0 0 0 0 0 0 0 0 0 0 0 0 0 0 127 0"/>
<feOffset dy="2"/>
<feGaussianBlur stdDeviation="1.5"/>
<feColorMatrix values="0 0 0 0 0 0 0 0 0 0 0 0 0 0 0 0 0 0 0.15 0"/>
<feBlend in2="BackgroundImageFix" result="effect1_dropShadow_38_2020"/>
<feBlend in="SourceGraphic" in2="effect1_dropShadow_38_2020" result="shape"/>
</filter>
<linearGradient id="a" x1="277.7" x2="195.14" y1="188.41" y2="270.39" gradientUnits="userSpaceOnUse">
<stop stop-color="#B12DE8" offset="0"/>
<stop stop-color="#F53290" offset=".44271"/>
<stop stop-color="#FFD22E" offset="1"/>
</linearGradient>
<clipPath id="h">
<rect width="475" height="344" fill="#fff"/>
</clipPath>
<clipPath id="g">
<rect transform="translate(353.34 -8.4678)" width="80.401" height="80.443" fill="#fff"/>
</clipPath>
</defs>
</svg>
