<svg width="415" height="510" viewBox="0 0 415 510" fill="none" xmlns="http://www.w3.org/2000/svg">
<g clip-path="url(#clip0)">
<path d="M337.239 343.676L242.106 289.459C238.613 287.438 239.073 283.946 243.117 281.649L297.807 250.038C301.852 247.741 307.918 247.465 311.411 249.486L406.544 303.703C410.036 305.724 409.577 309.216 405.533 311.514L350.843 343.124C346.798 345.422 340.732 345.697 337.239 343.676Z" fill="#F3F3F3"/>
<path d="M415 285.508V63.4973L326.761 40.4324L310.492 31.0595C306.723 28.9459 300.289 29.2216 295.969 31.7027L280.803 40.4324H233.742L247.713 254.724C247.621 256.195 248.449 257.573 250.195 258.584L338.25 325.022C342.019 327.135 348.453 326.859 352.773 324.378L411.507 290.47C413.989 289.092 415.184 287.162 415 285.508Z" fill="#7EC4F7"/>
<path d="M303.782 29.5892C301.024 29.6811 298.175 30.3243 295.969 31.6108L280.803 40.4324H233.742V262.995C233.65 264.465 234.477 265.843 236.224 266.854L338.25 325.022C340.089 326.032 342.478 326.492 344.96 326.492L345.971 102.551L303.782 29.5892Z" fill="#D3E9F8"/>
<path d="M339.169 325.389C342.386 326.768 347.074 326.676 350.843 325.297V99.7946H339.169V325.389Z" fill="#7EC4F7"/>
<path d="M338.25 102.459L236.224 44.3838C232.455 42.2703 232.915 38.5027 237.235 36.0216L295.969 2.02163C300.289 -0.459456 306.815 -0.735132 310.492 1.37838L412.518 59.546C416.287 61.6595 415.735 65.427 411.507 67.9081L352.773 101.816C348.453 104.389 341.927 104.665 338.25 102.459Z" fill="#D3E9F8"/>
<path d="M411.507 63.8649L352.773 97.773C348.453 100.254 341.927 100.53 338.25 98.4162L236.224 40.2487C235.396 39.7892 234.753 39.2378 234.385 38.5946C233.099 40.6162 233.65 42.9135 236.224 44.3838L338.25 102.551C342.019 104.665 348.453 104.389 352.773 101.908L411.507 68C414.816 66.0703 415.827 63.4054 414.449 61.2919C413.805 62.2108 412.794 63.1297 411.507 63.8649Z" fill="#F9FCFF"/>
<path d="M341.1 78.9351L273.174 39.6054C271.427 38.5946 271.611 36.8486 273.633 35.6541L301.116 19.7568C303.138 18.5622 306.172 18.4703 307.918 19.4811L375.844 58.8108C377.59 59.8216 377.406 61.5676 375.384 62.7622L347.901 78.6595C345.879 79.7622 342.846 79.9459 341.1 78.9351Z" fill="#7EC4F7"/>
<path d="M304.425 41.3513L300.473 39.054C300.197 38.8703 300.289 38.6865 300.565 38.5027L304.333 36.2973C304.609 36.1135 305.069 36.1135 305.253 36.2973L309.205 38.5946C309.481 38.7784 309.389 38.9622 309.113 39.1459L305.344 41.3513C305.069 41.4432 304.701 41.4432 304.425 41.3513Z" fill="#D3E9F8"/>
<path d="M317.569 48.8865L313.617 46.5892C313.341 46.4054 313.433 46.2216 313.709 46.0378L317.477 43.8324C317.753 43.6486 318.213 43.6486 318.396 43.8324L322.349 46.1297C322.625 46.3135 322.533 46.4973 322.257 46.6811L318.488 48.8865C318.213 48.9784 317.845 49.0703 317.569 48.8865Z" fill="#D3E9F8"/>
<path d="M330.713 56.4216L326.761 54.1243C326.485 53.9405 326.577 53.7567 326.853 53.573L330.621 51.3676C330.897 51.1838 331.357 51.1838 331.54 51.3676L335.493 53.6649C335.769 53.8486 335.677 54.0324 335.401 54.2162L331.632 56.4216C331.357 56.6054 330.989 56.6054 330.713 56.4216Z" fill="#D3E9F8"/>
<path d="M343.857 64.0486L339.905 61.7513C339.629 61.5676 339.721 61.3838 339.997 61.2L343.765 58.9946C344.041 58.8108 344.501 58.8108 344.684 58.9946L348.637 61.2919C348.913 61.4757 348.821 61.6595 348.545 61.8432L344.776 64.0486C344.592 64.1405 344.133 64.1405 343.857 64.0486Z" fill="#D3E9F8"/>
<path d="M273.175 39.6054C273.358 39.5135 273.542 39.4216 273.634 39.3297L301.117 23.4324C303.139 22.2378 306.172 22.1459 307.919 23.1568L375.753 62.4865C377.407 61.2919 377.407 59.7297 375.845 58.8108L307.919 19.4811C306.172 18.4703 303.139 18.5622 301.117 19.7568L273.634 35.6541C271.704 36.7568 271.428 38.5946 273.175 39.6054Z" fill="#44A6E2"/>
<path d="M364.262 146.476L402.867 124.33C405.073 123.043 406.82 119.735 406.82 116.795V103.011C406.82 100.07 405.073 98.7838 402.867 100.07L364.262 122.216C362.056 123.503 360.31 126.811 360.31 129.751V143.535C360.31 146.384 362.056 147.762 364.262 146.476Z" fill="#203E79"/>
<path d="M404.797 99.6108C405.441 100.162 405.808 101.173 405.808 102.459V116.243C405.808 119.184 404.062 122.492 401.856 123.778L363.251 145.924C362.516 146.292 361.873 146.476 361.321 146.384C362.056 147.027 363.068 147.211 364.262 146.476L402.867 124.33C405.073 123.043 406.82 119.735 406.82 116.795V103.011C406.82 101.081 405.992 99.8865 404.797 99.6108Z" fill="white"/>
<path d="M375.844 131.497L379.429 129.476C379.888 129.2 380.256 128.465 380.256 127.822V124.054C380.256 123.411 379.888 123.135 379.429 123.411L375.844 125.432C375.384 125.708 375.017 126.443 375.017 127.086V130.854C375.017 131.497 375.384 131.773 375.844 131.497Z" fill="#3A6DAA"/>
<path d="M387.701 124.605L391.286 122.584C391.745 122.308 392.113 121.573 392.113 120.93V117.162C392.113 116.519 391.745 116.243 391.286 116.519L387.701 118.541C387.241 118.816 386.874 119.551 386.874 120.195V123.962C386.874 124.605 387.241 124.881 387.701 124.605Z" fill="white"/>
<path d="M364.262 246.27L402.867 224.124C405.073 222.838 406.82 219.53 406.82 216.589V202.805C406.82 199.865 405.073 198.578 402.867 199.865L364.262 222.011C362.056 223.297 360.31 226.605 360.31 229.546V243.33C360.31 246.178 362.056 247.465 364.262 246.27Z" fill="#203E79"/>
<path d="M404.797 199.405C405.441 199.957 405.808 200.968 405.808 202.254V216.038C405.808 218.978 404.062 222.286 401.856 223.573L363.251 245.719C362.516 246.086 361.873 246.27 361.321 246.178C362.056 246.822 363.068 247.005 364.262 246.27L402.867 224.124C405.073 222.838 406.82 219.53 406.82 216.589V202.805C406.82 200.876 405.992 199.589 404.797 199.405Z" fill="white"/>
<path d="M375.844 231.2L379.429 229.178C379.888 228.903 380.256 228.168 380.256 227.524V223.757C380.256 223.113 379.888 222.838 379.429 223.113L375.844 225.135C375.384 225.411 375.017 226.146 375.017 226.789V230.557C375.017 231.2 375.384 231.476 375.844 231.2Z" fill="#3A6DAA"/>
<path d="M387.701 224.4L391.286 222.378C391.745 222.103 392.113 221.368 392.113 220.724V216.957C392.113 216.314 391.745 216.038 391.286 216.314L387.701 218.335C387.241 218.611 386.874 219.346 386.874 219.989V223.757C386.874 224.4 387.241 224.676 387.701 224.4Z" fill="white"/>
<path d="M364.262 296.168L402.867 274.022C405.073 272.735 406.82 269.427 406.82 266.486V252.703C406.82 249.762 405.073 248.476 402.867 249.762L364.262 271.908C362.056 273.195 360.31 276.503 360.31 279.443V293.227C360.31 296.076 362.056 297.362 364.262 296.168Z" fill="#203E79"/>
<path d="M404.797 249.303C405.441 249.854 405.808 250.865 405.808 252.151V265.935C405.808 268.876 404.062 272.184 401.856 273.47L363.251 295.616C362.516 295.984 361.873 296.168 361.321 296.076C362.056 296.719 363.068 296.903 364.262 296.168L402.867 274.022C405.073 272.735 406.82 269.427 406.82 266.486V252.703C406.82 250.773 405.992 249.486 404.797 249.303Z" fill="white"/>
<path d="M375.844 281.097L379.429 279.076C379.888 278.8 380.256 278.065 380.256 277.422V273.654C380.256 273.011 379.888 272.735 379.429 273.011L375.844 275.032C375.384 275.308 375.017 276.043 375.017 276.686V280.454C375.017 281.097 375.384 281.373 375.844 281.097Z" fill="#3A6DAA"/>
<path d="M387.701 274.297L391.286 272.276C391.745 272 392.113 271.265 392.113 270.622V266.854C392.113 266.211 391.745 265.935 391.286 266.211L387.701 268.232C387.241 268.508 386.874 269.243 386.874 269.886V273.654C386.874 274.297 387.241 274.573 387.701 274.297Z" fill="white"/>
<path d="M364.262 196.373L402.867 174.227C405.073 172.941 406.82 169.632 406.82 166.692V152.908C406.82 149.968 405.073 148.681 402.867 149.968L364.262 172.114C362.056 173.4 360.31 176.708 360.31 179.649V193.432C360.31 196.281 362.056 197.568 364.262 196.373Z" fill="#203E79"/>
<path d="M404.797 149.508C405.441 150.059 405.808 151.07 405.808 152.357V166.141C405.808 169.081 404.062 172.389 401.856 173.676L363.251 195.822C362.516 196.189 361.873 196.373 361.321 196.281C362.056 196.924 363.068 197.108 364.262 196.373L402.867 174.227C405.073 172.941 406.82 169.632 406.82 166.692V152.908C406.82 150.978 405.992 149.784 404.797 149.508Z" fill="white"/>
<path d="M375.844 181.395L379.429 179.373C379.888 179.097 380.256 178.362 380.256 177.719V173.951C380.256 173.308 379.888 173.032 379.429 173.308L375.844 175.33C375.384 175.605 375.017 176.341 375.017 176.984V180.751C375.017 181.303 375.384 181.67 375.844 181.395Z" fill="#3A6DAA"/>
<path d="M387.701 174.503L391.286 172.481C391.745 172.205 392.113 171.47 392.113 170.827V167.059C392.113 166.416 391.745 166.141 391.286 166.416L387.701 168.438C387.241 168.714 386.874 169.449 386.874 170.092V173.859C386.874 174.503 387.241 174.778 387.701 174.503Z" fill="white"/>
<path d="M330.805 132.324L241.739 80.8649C239.716 79.6703 238.154 76.6378 238.154 73.973V57.0649C238.154 54.4 239.808 53.2054 241.739 54.3081L330.805 105.768C332.827 106.962 334.39 109.995 334.39 112.659V129.568C334.39 132.232 332.827 133.519 330.805 132.324Z" fill="#4164C4"/>
<path d="M328.231 126.351L244.22 77.8324C243.209 77.2811 242.382 75.7189 242.382 74.3406V61.6595C242.382 60.2811 243.209 59.7297 244.22 60.2811L328.231 108.8C329.243 109.351 330.07 110.914 330.07 112.292V124.973C330.07 126.351 329.243 126.995 328.231 126.351Z" fill="#5070E2"/>
<path d="M261.776 81.6L249.276 74.3405C248.265 73.7892 247.529 72.227 247.529 70.9405C247.529 69.654 248.357 69.0108 249.276 69.5622L261.776 76.8216C262.787 77.373 263.523 78.9351 263.523 80.2216C263.523 81.5081 262.695 82.1513 261.776 81.6Z" fill="#5B95FF"/>
<path d="M272.439 85.3676C272.439 86.6541 271.519 87.2054 270.416 86.5622C269.313 85.9189 268.394 84.3568 268.394 82.9784C268.394 81.6919 269.313 81.1406 270.416 81.7838C271.519 82.427 272.439 84.0811 272.439 85.3676Z" fill="#03E59F"/>
<path d="M279.7 89.5027C279.7 90.7892 278.781 91.3405 277.678 90.6973C276.575 90.0541 275.656 88.4919 275.656 87.1135C275.656 85.827 276.575 85.2757 277.678 85.9189C278.781 86.6541 279.7 88.2162 279.7 89.5027Z" fill="#03E59F"/>
<path d="M286.961 93.7297C286.961 95.0162 286.042 95.5676 284.939 94.9243C283.836 94.2811 282.917 92.7189 282.917 91.3405C282.917 90.0541 283.836 89.5027 284.939 90.146C286.042 90.7892 286.961 92.4433 286.961 93.7297Z" fill="#03E59F"/>
<path d="M294.131 97.8649C294.131 99.1514 293.211 99.7027 292.108 99.0595C291.006 98.4162 290.086 96.8541 290.086 95.4757C290.086 94.1892 291.006 93.6378 292.108 94.2811C293.211 95.0162 294.131 96.5784 294.131 97.8649Z" fill="#203E79"/>
<path d="M324.739 119.276L320.511 116.795C319.867 116.427 319.408 115.416 319.408 114.589V110.087C319.408 109.259 319.959 108.892 320.511 109.259L324.739 111.741C325.382 112.108 325.842 113.119 325.842 113.946V118.449C325.842 119.276 325.29 119.643 324.739 119.276Z" fill="#203E79"/>
<path d="M330.805 162.281L241.739 110.822C239.716 109.627 238.154 106.595 238.154 103.93V87.0216C238.154 84.3568 239.808 83.1622 241.739 84.2649L330.805 135.724C332.827 136.919 334.39 139.951 334.39 142.616V159.616C334.39 162.189 332.827 163.476 330.805 162.281Z" fill="#4164C4"/>
<path d="M328.231 156.308L244.22 107.789C243.209 107.238 242.382 105.676 242.382 104.297V91.6162C242.382 90.2379 243.209 89.6865 244.22 90.2379L328.231 138.757C329.243 139.308 330.07 140.87 330.07 142.249V155.022C330.07 156.308 329.243 156.951 328.231 156.308Z" fill="#5070E2"/>
<path d="M261.776 111.465L249.276 104.205C248.265 103.654 247.529 102.092 247.529 100.805C247.529 99.5189 248.357 98.8757 249.276 99.427L261.776 106.686C262.787 107.238 263.523 108.8 263.523 110.086C263.523 111.465 262.695 112.108 261.776 111.465Z" fill="#5B95FF"/>
<path d="M272.439 115.324C272.439 116.611 271.519 117.162 270.416 116.519C269.313 115.876 268.394 114.314 268.394 112.935C268.394 111.649 269.313 111.097 270.416 111.741C271.519 112.384 272.439 113.946 272.439 115.324Z" fill="#03E59F"/>
<path d="M279.7 119.459C279.7 120.746 278.781 121.297 277.678 120.654C276.575 120.011 275.656 118.449 275.656 117.07C275.656 115.692 276.575 115.232 277.678 115.876C278.781 116.611 279.7 118.173 279.7 119.459Z" fill="#203E79"/>
<path d="M286.32 125.048C287.112 124.592 287.095 123.081 286.282 121.675C285.47 120.268 284.17 119.499 283.379 119.955C282.588 120.412 282.605 121.922 283.417 123.329C284.229 124.735 285.529 125.505 286.32 125.048Z" fill="#03E59F"/>
<path d="M293.556 129.182C294.347 128.726 294.33 127.215 293.518 125.809C292.706 124.403 291.406 123.633 290.614 124.089C289.823 124.546 289.84 126.057 290.652 127.463C291.464 128.869 292.764 129.639 293.556 129.182Z" fill="#203E79"/>
<path d="M324.739 149.232L320.511 146.751C319.867 146.384 319.408 145.373 319.408 144.546V140.043C319.408 139.216 319.959 138.849 320.511 139.216L324.739 141.697C325.382 142.065 325.842 143.076 325.842 143.903V148.405C325.842 149.232 325.29 149.6 324.739 149.232Z" fill="#FFD22E"/>
<path d="M330.805 192.238L241.739 140.778C239.716 139.584 238.154 136.551 238.154 133.886V116.886C238.154 114.222 239.808 113.027 241.739 114.13L330.805 165.589C332.827 166.784 334.39 169.816 334.39 172.481V189.481C334.39 192.146 332.827 193.432 330.805 192.238Z" fill="#4164C4"/>
<path d="M328.231 186.265L244.22 137.838C243.209 137.286 242.382 135.724 242.382 134.346V121.573C242.382 120.195 243.209 119.643 244.22 120.195L328.231 168.714C329.243 169.265 330.07 170.827 330.07 172.205V184.978C330.07 186.265 329.243 186.908 328.231 186.265Z" fill="#5070E2"/>
<path d="M261.776 141.422L249.276 134.162C248.265 133.611 247.529 132.049 247.529 130.762C247.529 129.476 248.357 128.832 249.276 129.384L261.776 136.643C262.787 137.195 263.523 138.757 263.523 140.043C263.523 141.422 262.695 142.065 261.776 141.422Z" fill="#5B95FF"/>
<path d="M272.439 145.281C272.439 146.568 271.519 147.119 270.416 146.476C269.313 145.832 268.394 144.27 268.394 142.892C268.394 141.514 269.313 141.054 270.416 141.697C271.519 142.341 272.439 143.903 272.439 145.281Z" fill="#FF65AB"/>
<path d="M279.7 149.416C279.7 150.703 278.781 151.254 277.678 150.611C276.575 149.968 275.656 148.405 275.656 147.027C275.656 145.741 276.575 145.189 277.678 145.832C278.781 146.568 279.7 148.13 279.7 149.416Z" fill="#FF65AB"/>
<path d="M286.961 153.643C286.961 154.93 286.042 155.481 284.939 154.838C283.836 154.195 282.917 152.632 282.917 151.254C282.917 149.968 283.836 149.416 284.939 150.059C286.042 150.703 286.961 152.265 286.961 153.643Z" fill="#03E59F"/>
<path d="M294.131 157.778C294.131 159.065 293.211 159.616 292.108 158.973C291.006 158.33 290.086 156.768 290.086 155.389C290.086 154.103 291.006 153.551 292.108 154.195C293.211 154.93 294.131 156.492 294.131 157.778Z" fill="#203E79"/>
<path d="M324.739 179.189L320.511 176.708C319.867 176.341 319.408 175.33 319.408 174.503V170C319.408 169.173 319.959 168.805 320.511 169.173L324.739 171.654C325.382 172.022 325.842 173.032 325.842 173.859V178.362C325.842 179.189 325.29 179.557 324.739 179.189Z" fill="#203E79"/>
<path d="M330.805 222.195L241.739 170.735C239.716 169.541 238.154 166.508 238.154 163.843V146.843C238.154 144.178 239.808 142.984 241.739 144.086L330.805 195.546C332.827 196.741 334.39 199.773 334.39 202.438V219.438C334.39 222.103 332.827 223.297 330.805 222.195Z" fill="#4164C4"/>
<path d="M328.231 215.303L244.22 166.784C243.209 166.232 242.382 164.67 242.382 163.292V150.519C242.382 149.141 243.209 148.589 244.22 149.141L328.231 197.659C329.243 198.211 330.07 199.773 330.07 201.151V213.924C330.07 215.303 329.243 215.946 328.231 215.303Z" fill="#5070E2"/>
<path d="M261.776 171.378L249.276 164.119C248.265 163.568 247.529 162.005 247.529 160.719C247.529 159.432 248.357 158.789 249.276 159.341L261.776 166.6C262.787 167.151 263.523 168.714 263.523 170C263.523 171.378 262.695 171.93 261.776 171.378Z" fill="#5B95FF"/>
<path d="M272.439 175.238C272.439 176.524 271.519 177.076 270.416 176.432C269.313 175.789 268.394 174.227 268.394 172.849C268.394 171.562 269.313 171.011 270.416 171.654C271.519 172.297 272.439 173.859 272.439 175.238Z" fill="#203E79"/>
<path d="M279.7 179.373C279.7 180.659 278.781 181.211 277.678 180.568C276.575 179.924 275.656 178.362 275.656 176.984C275.656 175.697 276.575 175.146 277.678 175.789C278.781 176.524 279.7 178.086 279.7 179.373Z" fill="#203E79"/>
<path d="M286.961 183.6C286.961 184.886 286.042 185.438 284.939 184.795C283.836 184.151 282.917 182.589 282.917 181.211C282.917 179.924 283.836 179.373 284.939 180.016C286.042 180.659 286.961 182.222 286.961 183.6Z" fill="#03E59F"/>
<path d="M293.561 189.093C294.353 188.636 294.336 187.126 293.524 185.719C292.711 184.313 291.411 183.543 290.62 184C289.829 184.457 289.846 185.967 290.658 187.373C291.47 188.78 292.77 189.55 293.561 189.093Z" fill="#203E79"/>
<path d="M324.739 209.146L320.511 206.665C319.867 206.297 319.408 205.286 319.408 204.459V199.957C319.408 199.13 319.959 198.762 320.511 199.13L324.739 201.611C325.382 201.978 325.842 202.989 325.842 203.816V208.319C325.842 209.146 325.29 209.514 324.739 209.146Z" fill="#FFD22E"/>
<path d="M330.805 252.151L241.739 200.692C239.716 199.497 238.154 196.465 238.154 193.8V176.8C238.154 174.135 239.808 172.941 241.739 174.043L330.805 225.503C332.827 226.697 334.39 229.73 334.39 232.395V249.395C334.39 252.059 332.827 253.254 330.805 252.151Z" fill="#4164C4"/>
<path d="M328.231 245.259L244.22 196.741C243.209 196.189 242.382 194.627 242.382 193.249V180.476C242.382 179.097 243.209 178.546 244.22 179.097L328.231 227.616C329.243 228.168 330.07 229.73 330.07 231.108V243.881C330.07 245.259 329.243 245.903 328.231 245.259Z" fill="#5070E2"/>
<path d="M261.776 201.335L249.276 194.076C248.265 193.524 247.529 191.962 247.529 190.676C247.529 189.389 248.357 188.746 249.276 189.297L261.776 196.557C262.787 197.108 263.523 198.67 263.523 199.957C263.523 201.335 262.695 201.887 261.776 201.335Z" fill="#5B95FF"/>
<path d="M272.439 205.195C272.439 206.481 271.519 207.032 270.416 206.389C269.313 205.746 268.394 204.184 268.394 202.805C268.394 201.427 269.313 200.968 270.416 201.611C271.519 202.254 272.439 203.816 272.439 205.195Z" fill="#203E79"/>
<path d="M279.7 209.33C279.7 210.616 278.781 211.168 277.678 210.524C276.575 209.881 275.656 208.319 275.656 206.941C275.656 205.562 276.575 205.103 277.678 205.746C278.781 206.389 279.7 208.043 279.7 209.33Z" fill="#03E59F"/>
<path d="M286.961 213.557C286.961 214.843 286.042 215.395 284.939 214.751C283.836 214.108 282.917 212.546 282.917 211.168C282.917 209.881 283.836 209.33 284.939 209.973C286.042 210.616 286.961 212.178 286.961 213.557Z" fill="#FF65AB"/>
<path d="M294.131 217.692C294.131 218.978 293.211 219.53 292.108 218.887C291.006 218.243 290.086 216.681 290.086 215.303C290.086 214.016 291.006 213.465 292.108 214.108C293.211 214.843 294.131 216.405 294.131 217.692Z" fill="#03E59F"/>
<path d="M324.739 239.103L320.511 236.622C319.867 236.254 319.408 235.243 319.408 234.416V229.914C319.408 229.087 319.959 228.719 320.511 229.087L324.739 231.568C325.382 231.935 325.842 232.946 325.842 233.773V238.276C325.842 239.011 325.29 239.47 324.739 239.103Z" fill="#FFD22E"/>
<path d="M330.805 282.108L241.739 230.649C239.716 229.454 238.154 226.422 238.154 223.757V206.757C238.154 204.092 239.808 202.897 241.739 204L330.805 255.459C332.827 256.654 334.39 259.686 334.39 262.351V279.351C334.39 282.016 332.827 283.211 330.805 282.108Z" fill="#4164C4"/>
<path d="M328.231 275.216L244.22 226.697C243.209 226.146 242.382 224.584 242.382 223.205V210.432C242.382 209.054 243.209 208.503 244.22 209.054L328.231 257.573C329.243 258.124 330.07 259.686 330.07 261.065V273.838C330.07 275.216 329.243 275.768 328.231 275.216Z" fill="#5070E2"/>
<path d="M261.776 231.292L249.276 224.032C248.265 223.481 247.529 221.919 247.529 220.632C247.529 219.346 248.357 218.703 249.276 219.254L261.776 226.514C262.787 227.065 263.523 228.627 263.523 229.914C263.523 231.292 262.695 231.843 261.776 231.292Z" fill="#5B95FF"/>
<path d="M272.439 235.059C272.439 236.346 271.519 236.897 270.416 236.254C269.313 235.611 268.394 234.049 268.394 232.67C268.394 231.384 269.313 230.832 270.416 231.476C271.519 232.211 272.439 233.773 272.439 235.059Z" fill="#203E79"/>
<path d="M279.7 239.286C279.7 240.573 278.781 241.124 277.678 240.481C276.575 239.838 275.656 238.276 275.656 236.897C275.656 235.611 276.575 235.059 277.678 235.703C278.781 236.346 279.7 238 279.7 239.286Z" fill="#203E79"/>
<path d="M286.961 243.513C286.961 244.8 286.042 245.351 284.939 244.708C283.836 244.065 282.917 242.503 282.917 241.124C282.917 239.838 283.836 239.286 284.939 239.93C286.042 240.573 286.961 242.135 286.961 243.513Z" fill="#03E59F"/>
<path d="M294.131 247.649C294.131 248.935 293.211 249.486 292.108 248.843C291.006 248.2 290.086 246.638 290.086 245.259C290.086 243.973 291.006 243.422 292.108 244.065C293.211 244.708 294.131 246.362 294.131 247.649Z" fill="#203E79"/>
<path d="M324.739 269.059L320.511 266.578C319.867 266.211 319.408 265.2 319.408 264.373V259.87C319.408 259.043 319.959 258.676 320.511 259.043L324.739 261.524C325.382 261.892 325.842 262.903 325.842 263.73V268.232C325.842 268.968 325.29 269.427 324.739 269.059Z" fill="#203E79"/>
<path d="M330.805 312.065L241.739 260.605C239.716 259.411 238.154 256.378 238.154 253.714V236.714C238.154 234.049 239.808 232.854 241.739 233.957L330.805 285.416C332.827 286.611 334.39 289.643 334.39 292.308V309.308C334.39 311.973 332.827 313.168 330.805 312.065Z" fill="#4164C4"/>
<path d="M328.231 305.173L244.22 256.654C243.209 256.103 242.382 254.541 242.382 253.162V240.389C242.382 239.011 243.209 238.459 244.22 239.011L328.231 287.53C329.243 288.081 330.07 289.643 330.07 291.022V303.795C330.07 305.173 329.243 305.724 328.231 305.173Z" fill="#5070E2"/>
<path d="M261.776 261.249L249.276 253.989C248.265 253.438 247.529 251.876 247.529 250.589C247.529 249.303 248.357 248.66 249.276 249.211L261.776 256.47C262.787 257.022 263.523 258.584 263.523 259.87C263.523 261.249 262.695 261.8 261.776 261.249Z" fill="#5B95FF"/>
<path d="M319.316 292.676C319.316 295.157 317.569 296.168 315.455 294.881C313.341 293.686 311.595 290.654 311.595 288.173C311.595 285.692 313.341 284.681 315.455 285.968C317.569 287.254 319.316 290.195 319.316 292.676Z" fill="white"/>
<path d="M272.439 265.384C272.439 266.67 271.519 267.222 270.416 266.578C269.313 265.935 268.394 264.373 268.394 262.995C268.394 261.708 269.313 261.157 270.416 261.8C271.519 262.535 272.439 264.097 272.439 265.384Z" fill="#203E79"/>
<path d="M279.7 269.611C279.7 270.897 278.781 271.449 277.678 270.805C276.575 270.162 275.656 268.6 275.656 267.222C275.656 265.935 276.575 265.384 277.678 266.027C278.781 266.67 279.7 268.324 279.7 269.611Z" fill="#03E59F"/>
<path d="M286.331 275.193C287.123 274.736 287.106 273.226 286.293 271.82C285.481 270.413 284.181 269.643 283.39 270.1C282.599 270.557 282.616 272.067 283.428 273.474C284.24 274.88 285.54 275.65 286.331 275.193Z" fill="#203E79"/>
<path d="M202.215 502.373L73.2569 427.941C68.753 425.368 69.3045 420.865 74.5437 417.832C79.691 414.8 87.5039 414.524 92.0078 417.097L220.966 491.53C225.47 494.103 224.918 498.605 219.679 501.638C214.44 504.67 206.627 504.946 202.215 502.373Z" fill="#F3F3F3"/>
<path d="M235.396 450.27L234.569 448.892L257.732 435.292C260.581 433.638 264.166 433.638 267.016 435.292L286.134 446.687L285.307 448.065L266.188 436.67C263.798 435.292 260.857 435.2 258.467 436.67L235.396 450.27Z" fill="#D4ECFF"/>
<path d="M235.029 429.778C234.477 429.778 234.018 429.503 233.65 429.043C233.19 428.308 233.466 427.389 234.202 426.93L257.364 413.33C260.489 411.492 264.35 411.492 267.383 413.33L286.502 424.724C287.237 425.184 287.513 426.103 287.053 426.838C286.594 427.573 285.674 427.849 284.939 427.389L265.821 415.995C263.707 414.708 261.041 414.708 258.927 415.995L235.764 429.595C235.58 429.686 235.305 429.778 235.029 429.778Z" fill="#7EC4F7"/>
<path d="M225.561 108.157L86.5847 27.9351C81.9889 25.2703 77.8527 25.2703 74.7276 27.2L57.2636 37.3081L68.9369 39.5135C68.9369 40.1568 68.845 40.7081 68.845 41.3514V368.946C68.845 381.995 76.7497 397.065 86.4928 402.67L223.447 481.789C222.161 485.741 219.587 493.919 219.587 493.919L236.591 483.995C240.544 481.973 243.025 476.827 243.025 469.476V141.881C243.209 128.832 235.305 113.762 225.561 108.157Z" fill="#7EC4F7"/>
<path d="M238.522 387.968C237.97 387.968 237.419 387.692 237.143 387.232C236.683 386.497 236.959 385.578 237.694 385.119L296.245 351.395C296.796 351.119 296.796 350.568 296.796 350.384C296.796 350.2 296.704 349.649 296.245 349.373L265.269 331.546C260.765 328.973 258.008 324.195 258.008 318.957V216.957C258.008 212.454 260.214 208.319 263.89 205.746L268.578 202.622C269.313 202.162 270.233 202.346 270.692 202.989C271.152 203.724 270.968 204.643 270.324 205.103L265.637 208.227C262.787 210.157 261.041 213.373 261.041 216.865V318.865C261.041 322.908 263.247 326.676 266.74 328.697L297.715 346.524C299.094 347.259 299.829 348.638 299.829 350.2C299.829 351.762 299.002 353.141 297.715 353.876L239.257 387.784C239.073 387.968 238.797 387.968 238.522 387.968Z" fill="#7EC4F7"/>
<path d="M68.9369 368.854C68.9369 381.903 76.8416 396.973 86.5847 402.578L223.539 481.697C222.252 485.649 219.679 493.827 219.679 493.827L236.683 483.903C240.636 481.881 243.117 476.735 243.117 469.384V141.881C243.117 135.081 240.911 127.73 237.51 121.481L68.9369 218.795V368.854Z" fill="#58B4ED"/>
<path d="M208.006 493L69.0288 412.778C59.2857 407.173 51.381 392.011 51.381 379.054V51.3676C51.381 38.3189 59.2857 32.346 69.0288 38.0432L207.914 118.265C217.657 123.87 225.561 139.032 225.561 151.989V479.584C225.653 492.633 217.749 498.605 208.006 493Z" fill="#D4ECFF"/>
<path d="M303.966 428.124C303.414 428.124 302.955 427.849 302.587 427.389C302.127 426.654 302.403 425.735 303.138 425.276L363.251 389.805C363.711 389.53 363.803 389.07 363.803 388.886C363.803 388.703 363.711 388.243 363.251 387.968L346.89 378.135C346.155 377.676 345.879 376.757 346.339 376.022C346.798 375.286 347.718 375.011 348.453 375.47L364.814 385.303C366.101 386.038 366.836 387.416 366.836 388.886C366.836 390.357 366.101 391.735 364.814 392.47L304.701 427.94C304.517 428.032 304.241 428.124 303.966 428.124Z" fill="#7EC4F7"/>
<path d="M315.731 455.324L294.866 443.286L274.001 455.324L294.866 467.362L315.731 455.324Z" fill="#F3F3F3"/>
<path d="M294.866 456.151V442.643L319.775 428.216V441.816L294.866 456.151Z" fill="#721BD5"/>
<path d="M294.866 442.643L269.957 428.216V441.816L294.866 456.151V442.643Z" fill="#7E23DC"/>
<path d="M319.775 428.216L294.866 413.789L269.957 428.216L294.866 442.643L319.775 428.216Z" fill="#983BE9"/>
<path opacity="0.1" d="M372.719 410.114L400.753 393.941C402.499 392.93 402.224 391.184 400.293 390.081L373.178 374.459C371.156 373.357 368.215 373.173 366.468 374.184L338.434 390.357C336.688 391.368 336.963 393.114 338.894 394.216L366.009 409.838C367.939 411.032 370.972 411.124 372.719 410.114Z" fill="#203E79"/>
<path d="M329.059 378.043V365.914H356.266L365.641 360.492C367.755 359.205 371.524 359.389 374.097 360.859L382.829 365.914H410.037V378.411C410.128 379.238 409.669 380.065 408.566 380.708L373.454 401.016C371.34 402.303 367.571 402.119 364.998 400.649L331.081 381.076C329.702 380.065 329.059 379.054 329.059 378.043Z" fill="#5B95FF"/>
<path d="M369.594 359.665C371.156 359.665 372.811 360.124 374.097 360.859L382.829 365.914H410.037V378.411C410.128 379.238 409.669 380.065 408.566 380.708L373.454 401.016C372.443 401.659 370.972 401.843 369.594 401.843V359.665Z" fill="#7EC4F7"/>
<path d="M407.003 365.914H410.037V378.411C410.128 379.238 409.669 380.065 408.566 380.708L406.911 381.627V365.914H407.003Z" fill="#7EC4F7"/>
<path d="M372.903 401.108C371.064 401.935 368.399 401.843 366.193 401.016V386.865H372.903V401.108Z" fill="#7BB1FF"/>
<path d="M373.456 388.427L408.568 368.119C410.682 366.832 410.498 364.719 407.924 363.249L374.099 343.768C371.618 342.297 367.849 342.205 365.643 343.4L330.531 363.708C328.417 364.995 328.601 367.108 331.175 368.578L365.092 388.151C367.573 389.53 371.342 389.714 373.456 388.427Z" fill="#D3E9F8"/>
<path d="M372.811 384.751L402.224 367.751C404.062 366.741 403.786 364.903 401.672 363.708L373.362 347.351C371.248 346.157 368.123 345.973 366.285 347.076L336.872 364.076C335.033 365.086 335.309 366.924 337.423 368.119L365.825 384.568C367.847 385.67 371.064 385.854 372.811 384.751Z" fill="#3A81E8"/>
<path d="M342.019 381.259C342.019 382.178 342.662 383.281 343.398 383.741C344.225 384.2 344.776 383.832 344.776 382.914C344.776 381.995 344.133 380.892 343.398 380.432C342.662 379.973 342.019 380.341 342.019 381.259Z" fill="white"/>
<path d="M337.423 378.595C337.423 379.514 338.066 380.616 338.802 381.076C339.629 381.535 340.181 381.168 340.181 380.249C340.181 379.33 339.537 378.227 338.802 377.768C338.066 377.308 337.423 377.676 337.423 378.595Z" fill="white"/>
<path d="M332.919 375.93C332.919 376.849 333.563 377.951 334.298 378.411C335.125 378.87 335.677 378.503 335.677 377.584C335.677 376.665 335.033 375.562 334.298 375.103C333.563 374.643 332.919 375.011 332.919 375.93Z" fill="white"/>
<path d="M329.059 358.654V346.524H356.266L365.641 341.103C367.755 339.816 371.524 340 374.097 341.47L382.829 346.524H410.037V359.022C410.128 359.849 409.669 360.676 408.566 361.319L373.454 381.627C371.34 382.914 367.571 382.73 364.998 381.26L331.081 361.687C329.702 360.768 329.059 359.665 329.059 358.654Z" fill="#5B95FF"/>
<path d="M369.594 340.276C371.156 340.276 372.811 340.735 374.097 341.47L382.829 346.524H410.037V359.022C410.128 359.849 409.669 360.676 408.566 361.319L373.454 381.627C372.443 382.27 370.972 382.454 369.594 382.454V340.276Z" fill="#7EC4F7"/>
<path d="M407.003 346.524H410.037V359.022C410.128 359.849 409.669 360.676 408.566 361.319L406.911 362.238V346.524H407.003Z" fill="#7EC4F7"/>
<path d="M372.903 381.719C371.064 382.546 368.399 382.454 366.193 381.627V367.568H372.903V381.719Z" fill="#7BB1FF"/>
<path d="M373.456 369.038L408.568 348.73C410.682 347.443 410.498 345.33 407.924 343.859L374.099 324.378C371.618 322.908 367.849 322.816 365.643 324.011L330.531 344.319C328.417 345.605 328.601 347.719 331.175 349.189L365.092 368.762C367.573 370.141 371.342 370.324 373.456 369.038Z" fill="#D3E9F8"/>
<path d="M372.811 365.454L402.224 348.454C404.062 347.443 403.786 345.605 401.672 344.411L373.27 327.962C371.156 326.768 368.031 326.584 366.193 327.686L336.78 344.687C334.941 345.697 335.217 347.535 337.331 348.73L365.733 365.178C367.847 366.373 371.064 366.465 372.811 365.454Z" fill="#3A81E8"/>
<path d="M342.019 361.87C342.019 362.789 342.662 363.892 343.398 364.351C344.225 364.811 344.776 364.443 344.776 363.524C344.776 362.605 344.133 361.503 343.398 361.043C342.662 360.584 342.019 360.951 342.019 361.87Z" fill="white"/>
<path d="M337.423 359.205C337.423 360.124 338.066 361.227 338.802 361.687C339.629 362.146 340.181 361.778 340.181 360.86C340.181 359.941 339.537 358.838 338.802 358.378C338.066 357.919 337.423 358.287 337.423 359.205Z" fill="white"/>
<path d="M332.919 356.632C332.919 357.551 333.563 358.654 334.298 359.114C335.125 359.573 335.677 359.205 335.677 358.287C335.677 357.368 335.033 356.265 334.298 355.805C333.563 355.346 332.919 355.714 332.919 356.632Z" fill="white"/>
<path d="M329.059 339.265V327.135H356.266L365.641 321.713C367.755 320.427 371.524 320.611 374.097 322.081L382.829 327.135H410.037V339.632C410.128 340.459 409.669 341.286 408.566 341.93L373.454 362.238C371.34 363.524 367.571 363.341 364.998 361.87L331.081 342.297C329.702 341.378 329.059 340.276 329.059 339.265Z" fill="#5B95FF"/>
<path d="M369.594 320.886C371.156 320.886 372.811 321.346 374.097 322.081L382.829 327.135H410.037V339.632C410.128 340.459 409.669 341.286 408.566 341.93L373.454 362.238C372.443 362.881 370.972 363.065 369.594 363.065V320.886Z" fill="#7EC4F7"/>
<path d="M407.003 327.135H410.037V339.632C410.128 340.459 409.669 341.286 408.566 341.93L406.911 342.849V327.135H407.003Z" fill="#7EC4F7"/>
<path d="M372.903 362.422C371.064 363.249 368.399 363.157 366.193 362.33V348.178H372.903V362.422Z" fill="#7BB1FF"/>
<path d="M373.456 349.741L408.568 329.432C410.682 328.146 410.498 326.032 407.924 324.562L374.099 304.989C371.618 303.519 367.849 303.427 365.643 304.622L330.531 324.93C328.417 326.216 328.601 328.33 331.175 329.8L365.092 349.373C367.573 350.843 371.342 350.935 373.456 349.741Z" fill="#D3E9F8"/>
<path d="M372.811 346.065L402.224 329.065C404.062 328.054 403.786 326.216 401.672 325.022L373.27 308.573C371.156 307.378 368.031 307.195 366.193 308.297L336.78 325.297C334.941 326.308 335.217 328.146 337.331 329.341L365.733 345.789C367.847 346.984 371.064 347.076 372.811 346.065Z" fill="#3A81E8"/>
<path d="M342.019 342.481C342.019 343.4 342.662 344.503 343.398 344.962C344.225 345.422 344.776 345.054 344.776 344.135C344.776 343.216 344.133 342.113 343.398 341.654C342.662 341.195 342.019 341.562 342.019 342.481Z" fill="white"/>
<path d="M337.423 339.908C337.423 340.827 338.066 341.93 338.802 342.389C339.629 342.849 340.181 342.481 340.181 341.562C340.181 340.643 339.537 339.541 338.802 339.081C338.066 338.622 337.423 338.989 337.423 339.908Z" fill="white"/>
<path d="M332.919 337.243C332.919 338.162 333.563 339.265 334.298 339.724C335.125 340.184 335.677 339.816 335.677 338.897C335.677 337.978 335.033 336.876 334.298 336.416C333.563 335.957 332.919 336.324 332.919 337.243Z" fill="white"/>
<path d="M329.059 319.968V307.838H356.266L365.641 302.416C367.755 301.13 371.524 301.314 374.097 302.784L382.829 307.838H410.037V320.335C410.128 321.162 409.669 321.989 408.566 322.632L373.454 342.757C371.34 344.043 367.571 343.86 364.998 342.389L331.081 322.816C329.702 321.989 329.059 320.978 329.059 319.968Z" fill="#5B95FF"/>
<path d="M369.594 301.589C371.156 301.589 372.811 302.049 374.097 302.784L382.829 307.838H410.037V320.335C410.128 321.162 409.669 321.989 408.566 322.632L373.454 342.757C372.443 343.4 370.972 343.584 369.594 343.584V301.589Z" fill="#7EC4F7"/>
<path d="M407.003 307.746H410.037V320.243C410.128 321.07 409.669 321.897 408.566 322.541L406.911 323.46V307.746H407.003Z" fill="#7EC4F7"/>
<path d="M372.903 343.032C371.064 343.859 368.399 343.768 366.193 342.941V328.789H372.903V343.032Z" fill="#7BB1FF"/>
<path d="M373.456 330.351L408.568 310.043C410.682 308.757 410.498 306.643 407.924 305.173L374.099 285.6C371.618 284.13 367.849 284.038 365.643 285.232L330.531 305.541C328.417 306.827 328.601 308.941 331.175 310.411L365.092 329.984C367.573 331.454 371.342 331.638 373.456 330.351Z" fill="#D3E9F8"/>
<path d="M372.811 326.676L402.224 309.676C404.062 308.665 403.786 306.827 401.672 305.632L373.27 289.184C371.156 287.989 368.031 287.805 366.193 288.908L336.78 305.908C334.941 306.919 335.217 308.757 337.331 309.951L365.733 326.4C367.847 327.595 371.064 327.778 372.811 326.676Z" fill="#3A81E8"/>
<path d="M342.019 323.092C342.019 324.011 342.662 325.114 343.398 325.573C344.225 326.032 344.776 325.665 344.776 324.746C344.776 323.827 344.133 322.724 343.398 322.265C342.662 321.897 342.019 322.265 342.019 323.092Z" fill="white"/>
<path d="M337.423 320.519C337.423 321.438 338.066 322.541 338.802 323C339.629 323.459 340.181 323.092 340.181 322.173C340.181 321.254 339.537 320.151 338.802 319.692C338.066 319.232 337.423 319.6 337.423 320.519Z" fill="white"/>
<path d="M332.919 317.854C332.919 318.773 333.563 319.876 334.298 320.335C335.125 320.795 335.677 320.427 335.677 319.508C335.677 318.589 335.033 317.487 334.298 317.027C333.563 316.568 332.919 316.935 332.919 317.854Z" fill="white"/>
<path d="M329.059 300.578V288.449H356.266L365.641 283.027C367.755 281.741 371.524 281.924 374.097 283.395L382.829 288.449H410.037V300.946C410.128 301.773 409.669 302.6 408.566 303.243L373.454 323.551C371.34 324.838 367.571 324.654 364.998 323.184L331.081 303.611C329.702 302.692 329.059 301.589 329.059 300.578Z" fill="#5B95FF"/>
<path d="M369.594 282.2C371.156 282.2 372.811 282.659 374.097 283.395L382.829 288.449H410.037V300.946C410.128 301.773 409.669 302.6 408.566 303.243L373.454 323.551C372.443 324.195 370.972 324.378 369.594 324.378V282.2Z" fill="#7EC4F7"/>
<path d="M407.003 288.449H410.037V300.946C410.128 301.773 409.669 302.6 408.566 303.243L406.911 304.162V288.449H407.003Z" fill="#7EC4F7"/>
<path d="M372.903 323.643C371.064 324.47 368.399 324.378 366.193 323.551V309.4H372.903V323.643Z" fill="#7BB1FF"/>
<path d="M373.456 310.962L408.568 290.654C410.682 289.368 410.498 287.254 407.924 285.784L374.099 266.303C371.618 264.832 367.849 264.741 365.643 265.935L330.531 286.243C328.417 287.53 328.601 289.643 331.175 291.114L365.092 310.687C367.573 312.065 371.342 312.249 373.456 310.962Z" fill="#D3E9F8"/>
<path d="M372.811 307.378L402.224 290.378C404.062 289.368 403.786 287.53 401.672 286.335L373.27 269.887C371.156 268.692 368.031 268.508 366.193 269.611L336.78 286.611C334.941 287.622 335.217 289.459 337.331 290.654L365.733 307.103C367.847 308.205 371.064 308.389 372.811 307.378Z" fill="#3A81E8"/>
<path d="M343.463 304.493L343.187 304.97L357.274 313.106L357.55 312.628L343.463 304.493Z" fill="white"/>
<path d="M342.019 303.795C342.019 304.714 342.662 305.816 343.398 306.276C344.225 306.735 344.776 306.368 344.776 305.449C344.776 304.53 344.133 303.427 343.398 302.968C342.662 302.508 342.019 302.876 342.019 303.795Z" fill="white"/>
<path d="M337.423 301.13C337.423 302.049 338.066 303.151 338.802 303.611C339.629 304.07 340.181 303.703 340.181 302.784C340.181 301.865 339.537 300.762 338.802 300.303C338.066 299.843 337.423 300.211 337.423 301.13Z" fill="white"/>
<path d="M332.919 298.465C332.919 299.384 333.563 300.486 334.298 300.946C335.125 301.405 335.677 301.038 335.677 300.119C335.677 299.2 335.033 298.097 334.298 297.638C333.563 297.27 332.919 297.638 332.919 298.465Z" fill="white"/>
<path d="M329.059 281.097V268.968H356.266L365.641 263.546C367.755 262.259 371.524 262.443 374.097 263.914L382.829 268.968H410.037V281.465C410.128 282.292 409.669 283.119 408.566 283.762L373.454 304.07C371.34 305.357 367.571 305.173 364.998 303.703L331.173 283.946C329.702 283.119 329.059 282.108 329.059 281.097Z" fill="#5B95FF"/>
<path d="M369.594 262.719C371.156 262.719 372.811 263.178 374.097 263.914L382.829 268.968H410.037V281.465C410.128 282.292 409.669 283.119 408.566 283.762L373.454 304.07C372.443 304.714 370.972 304.897 369.594 304.897V262.719Z" fill="#7EC4F7"/>
<path d="M407.003 268.876H410.037V281.373C410.128 282.2 409.669 283.027 408.566 283.67L406.911 284.589V268.876H407.003Z" fill="#7EC4F7"/>
<path d="M372.903 304.162C371.064 304.989 368.399 304.897 366.193 304.07V289.919H372.903V304.162Z" fill="#7BB1FF"/>
<path d="M373.456 291.481L408.568 271.173C410.682 269.887 410.498 267.773 407.924 266.303L374.099 246.822C371.618 245.351 367.849 245.259 365.643 246.454L330.531 266.762C328.417 268.049 328.601 270.162 331.175 271.632L365.092 291.205C367.573 292.584 371.342 292.768 373.456 291.481Z" fill="#D3E9F8"/>
<path d="M331.173 269.151L365.09 288.724C367.571 290.195 371.34 290.287 373.546 289.092L408.658 268.784C409.117 268.508 409.485 268.141 409.761 267.865C410.496 269.059 410.128 270.346 408.658 271.173L373.546 291.481C371.432 292.768 367.663 292.584 365.09 291.114L331.173 271.541C329.243 270.438 328.691 268.876 329.518 267.681C329.794 268.232 330.346 268.692 331.173 269.151Z" fill="white"/>
<path d="M342.019 284.314C342.019 285.232 342.662 286.335 343.398 286.795C344.225 287.254 344.776 286.887 344.776 285.968C344.776 285.049 344.133 283.946 343.398 283.487C342.662 283.027 342.019 283.395 342.019 284.314Z" fill="white"/>
<path d="M355.99 291.941C355.99 292.86 356.633 293.962 357.369 294.422C358.196 294.881 358.747 294.514 358.747 293.595C358.747 292.676 358.104 291.573 357.369 291.114C356.633 290.654 355.99 291.022 355.99 291.941Z" fill="white"/>
<path d="M355.99 312.065C355.99 312.984 356.633 314.086 357.369 314.546C358.196 315.005 358.747 314.638 358.747 313.719C358.747 312.8 358.104 311.697 357.369 311.238C356.633 310.778 355.99 311.146 355.99 312.065Z" fill="white"/>
<path d="M337.423 281.649C337.423 282.568 338.066 283.67 338.802 284.13C339.629 284.589 340.181 284.222 340.181 283.303C340.181 282.384 339.537 281.281 338.802 280.822C338.066 280.362 337.423 280.73 337.423 281.649Z" fill="white"/>
<path d="M332.919 278.984C332.919 279.903 333.563 281.005 334.298 281.465C335.125 281.924 335.677 281.557 335.677 280.638C335.677 279.719 335.033 278.616 334.298 278.157C333.563 277.697 332.919 278.065 332.919 278.984Z" fill="white"/>
<path d="M371.433 278.892L387.886 269.427C388.897 268.876 388.806 267.865 387.611 267.13L371.709 257.941C370.514 257.297 368.768 257.205 367.757 257.757L351.304 267.222C350.293 267.773 350.385 268.784 351.58 269.519L367.481 278.708C368.584 279.443 370.422 279.535 371.433 278.892Z" fill="#7EC4F7"/>
<path d="M369.777 270.989L372.075 269.703C372.259 269.611 372.167 269.519 372.075 269.427L369.869 268.141C369.685 268.049 369.502 268.049 369.318 268.141L367.02 269.427C366.836 269.519 366.928 269.611 367.02 269.703L369.226 270.989C369.41 271.081 369.685 271.081 369.777 270.989Z" fill="#D3E9F8"/>
<path d="M387.793 269.428C387.701 269.428 387.609 269.337 387.517 269.337L371.616 260.147C370.421 259.504 368.674 259.412 367.663 259.964L351.302 269.428C350.383 268.785 350.291 267.866 351.21 267.315L367.663 257.85C368.674 257.299 370.421 257.299 371.616 258.034L387.517 267.223C388.712 267.866 388.804 268.877 387.793 269.428Z" fill="#44A6E2"/>
<path d="M374.833 294.33C374.833 295.249 375.476 295.708 376.303 295.157C377.131 294.697 377.774 293.503 377.774 292.584C377.774 291.665 377.131 291.205 376.303 291.757C375.476 292.216 374.833 293.411 374.833 294.33Z" fill="#D3E9F8"/>
<path d="M379.429 291.665C379.429 292.584 380.072 293.043 380.899 292.492C381.726 292.032 382.37 290.838 382.37 289.919C382.37 289 381.726 288.541 380.899 289.092C380.164 289.551 379.429 290.746 379.429 291.665Z" fill="#203E79"/>
<path d="M374.833 299.935C374.833 300.854 375.476 301.314 376.303 300.762C377.131 300.303 377.774 299.108 377.774 298.189C377.774 297.27 377.131 296.811 376.303 297.362C375.476 297.822 374.833 299.016 374.833 299.935Z" fill="#D3E9F8"/>
<path d="M379.429 297.27C379.429 298.189 380.072 298.649 380.899 298.097C381.726 297.638 382.37 296.443 382.37 295.524C382.37 294.605 381.726 294.146 380.899 294.697C380.164 295.157 379.429 296.351 379.429 297.27Z" fill="#D3E9F8"/>
<path d="M374.833 313.627C374.833 314.546 375.476 315.005 376.303 314.454C377.131 313.995 377.774 312.8 377.774 311.881C377.774 310.962 377.131 310.503 376.303 311.054C375.476 311.514 374.833 312.616 374.833 313.627Z" fill="#D3E9F8"/>
<path d="M379.429 310.962C379.429 311.881 380.072 312.341 380.899 311.789C381.726 311.33 382.37 310.135 382.37 309.216C382.37 308.297 381.726 307.838 380.899 308.389C380.164 308.849 379.429 309.951 379.429 310.962Z" fill="#D3E9F8"/>
<path d="M374.833 319.232C374.833 320.151 375.476 320.611 376.303 320.059C377.131 319.6 377.774 318.405 377.774 317.486C377.774 316.568 377.131 316.108 376.303 316.659C375.476 317.119 374.833 318.222 374.833 319.232Z" fill="#203E79"/>
<path d="M379.429 316.568C379.429 317.487 380.072 317.946 380.899 317.395C381.726 316.935 382.37 315.741 382.37 314.822C382.37 313.903 381.726 313.443 380.899 313.995C380.164 314.454 379.429 315.557 379.429 316.568Z" fill="#D3E9F8"/>
<path d="M374.833 332.832C374.833 333.751 375.476 334.211 376.303 333.659C377.131 333.2 377.774 332.005 377.774 331.086C377.774 330.168 377.131 329.708 376.303 330.259C375.476 330.719 374.833 331.914 374.833 332.832Z" fill="#D3E9F8"/>
<path d="M379.429 330.168C379.429 331.087 380.072 331.546 380.899 330.995C381.726 330.535 382.37 329.341 382.37 328.422C382.37 327.503 381.726 327.043 380.899 327.595C380.164 328.054 379.429 329.249 379.429 330.168Z" fill="#203E79"/>
<path d="M374.833 338.438C374.833 339.357 375.476 339.816 376.303 339.265C377.131 338.805 377.774 337.611 377.774 336.692C377.774 335.773 377.131 335.314 376.303 335.865C375.476 336.324 374.833 337.519 374.833 338.438Z" fill="#D3E9F8"/>
<path d="M379.429 335.773C379.429 336.692 380.072 337.151 380.899 336.6C381.726 336.141 382.37 334.946 382.37 334.027C382.37 333.108 381.726 332.649 380.899 333.2C380.164 333.659 379.429 334.854 379.429 335.773Z" fill="#203E79"/>
<path d="M374.833 352.314C374.833 353.232 375.476 353.692 376.303 353.141C377.131 352.681 377.774 351.487 377.774 350.568C377.774 349.649 377.131 349.189 376.303 349.741C375.476 350.2 374.833 351.395 374.833 352.314Z" fill="#203E79"/>
<path d="M379.429 349.649C379.429 350.568 380.072 351.027 380.899 350.476C381.726 350.016 382.37 348.822 382.37 347.903C382.37 346.984 381.726 346.524 380.899 347.076C380.164 347.535 379.429 348.73 379.429 349.649Z" fill="#D3E9F8"/>
<path d="M374.833 357.919C374.833 358.838 375.476 359.297 376.303 358.746C377.131 358.287 377.774 357.092 377.774 356.173C377.774 355.254 377.131 354.795 376.303 355.346C375.476 355.805 374.833 356.908 374.833 357.919Z" fill="#D3E9F8"/>
<path d="M379.429 355.254C379.429 356.173 380.072 356.632 380.899 356.081C381.726 355.622 382.37 354.427 382.37 353.508C382.37 352.589 381.726 352.13 380.899 352.681C380.164 353.141 379.429 354.243 379.429 355.254Z" fill="#203E79"/>
<path d="M374.833 371.519C374.833 372.438 375.476 372.897 376.303 372.346C377.131 371.887 377.774 370.692 377.774 369.773C377.774 368.854 377.131 368.395 376.303 368.946C375.476 369.405 374.833 370.6 374.833 371.519Z" fill="#203E79"/>
<path d="M379.429 368.946C379.429 369.865 380.072 370.324 380.899 369.773C381.726 369.314 382.37 368.119 382.37 367.2C382.37 366.281 381.726 365.822 380.899 366.373C380.164 366.832 379.429 367.935 379.429 368.946Z" fill="#D3E9F8"/>
<path d="M374.833 377.124C374.833 378.043 375.476 378.503 376.303 377.951C377.131 377.492 377.774 376.297 377.774 375.378C377.774 374.46 377.131 374 376.303 374.551C375.476 375.011 374.833 376.205 374.833 377.124Z" fill="#203E79"/>
<path d="M379.429 374.459C379.429 375.378 380.072 375.838 380.899 375.287C381.726 374.827 382.37 373.632 382.37 372.714C382.37 371.795 381.726 371.335 380.899 371.887C380.164 372.346 379.429 373.541 379.429 374.459Z" fill="#D3E9F8"/>
<path d="M374.833 391.092C374.833 392.011 375.476 392.47 376.303 391.919C377.131 391.46 377.774 390.265 377.774 389.346C377.774 388.427 377.131 387.968 376.303 388.519C375.476 388.978 374.833 390.081 374.833 391.092Z" fill="#D3E9F8"/>
<path d="M379.429 388.427C379.429 389.346 380.072 389.805 380.899 389.254C381.726 388.795 382.37 387.6 382.37 386.681C382.37 385.762 381.726 385.303 380.899 385.854C380.164 386.314 379.429 387.416 379.429 388.427Z" fill="#203E79"/>
<path d="M374.833 396.697C374.833 397.616 375.476 398.076 376.303 397.524C377.131 397.065 377.774 395.87 377.774 394.951C377.774 394.032 377.131 393.573 376.303 394.124C375.476 394.584 374.833 395.687 374.833 396.697Z" fill="#D3E9F8"/>
<path d="M379.429 394.032C379.429 394.951 380.072 395.411 380.899 394.86C381.726 394.4 382.37 393.205 382.37 392.287C382.37 391.368 381.726 390.908 380.899 391.46C380.164 391.919 379.429 393.022 379.429 394.032Z" fill="#D3E9F8"/>
<path d="M203.961 482.524L70.4994 405.427C63.2381 401.2 57.3555 389.989 57.3555 380.341V57.4324C57.3555 47.7838 63.2381 43.2811 70.4994 47.5081L203.961 124.605C211.223 128.832 217.105 140.043 217.105 149.692V472.6C217.105 482.249 211.223 486.659 203.961 482.524Z" fill="white"/>
<path d="M188.795 169.908L150.65 147.946C149.087 147.027 147.893 144.914 147.893 143.168C147.893 141.422 149.087 140.686 150.65 141.605L188.703 163.568C190.266 164.486 191.461 166.6 191.461 168.346C191.553 170.092 190.266 170.827 188.795 169.908Z" fill="#BAE1FF"/>
<path d="M156.992 177.443L150.742 173.859C149.179 172.941 147.984 170.827 147.984 169.081C147.984 167.335 149.179 166.6 150.742 167.519L156.992 171.103C158.555 172.022 159.75 174.135 159.75 175.881C159.658 177.627 158.463 178.27 156.992 177.443Z" fill="#BAE1FF"/>
<path d="M205.156 205.287L165.908 182.681C164.346 181.762 163.151 179.649 163.151 177.903C163.151 176.157 164.346 175.422 165.908 176.341L205.156 198.946C206.719 199.865 207.914 201.978 207.914 203.724C207.914 205.47 206.719 206.114 205.156 205.287Z" fill="#BAE1FF"/>
<path d="M176.57 201.703L150.65 186.724C149.087 185.805 147.893 183.692 147.893 181.946C147.893 180.2 149.087 179.465 150.65 180.384L176.57 195.362C178.133 196.281 179.328 198.395 179.328 200.141C179.328 201.886 178.133 202.622 176.57 201.703Z" fill="#BAE1FF"/>
<path d="M201.296 216.038L185.578 206.941C184.016 206.022 182.821 203.908 182.821 202.162C182.821 200.416 184.016 199.681 185.578 200.6L201.296 209.697C202.858 210.616 204.053 212.73 204.053 214.476C204.053 216.13 202.858 216.865 201.296 216.038Z" fill="#BAE1FF"/>
<path d="M194.586 225.043L150.742 199.681C149.179 198.762 147.984 196.649 147.984 194.903C147.984 193.157 149.179 192.422 150.742 193.341L194.586 218.703C196.148 219.622 197.343 221.735 197.343 223.481C197.343 225.227 196.056 225.87 194.586 225.043Z" fill="#BAE1FF"/>
<path d="M202.399 255.459L150.65 225.595C149.087 224.676 147.893 222.562 147.893 220.816C147.893 219.07 149.087 218.335 150.65 219.254L202.399 249.119C203.961 250.038 205.156 252.151 205.156 253.897C205.156 255.643 203.961 256.378 202.399 255.459Z" fill="#BAE1FF"/>
<path d="M202.399 268.416L150.65 238.551C149.087 237.632 147.893 235.519 147.893 233.773C147.893 232.027 149.087 231.292 150.65 232.211L202.399 262.076C203.961 262.995 205.156 265.108 205.156 266.854C205.156 268.6 203.961 269.243 202.399 268.416Z" fill="#BAE1FF"/>
<path d="M186.497 272.184L150.65 251.508C149.087 250.589 147.893 248.476 147.893 246.73C147.893 244.984 149.087 244.249 150.65 245.168L186.497 265.843C188.06 266.762 189.255 268.876 189.255 270.622C189.255 272.368 188.06 273.011 186.497 272.184Z" fill="#BAE1FF"/>
<path d="M202.399 294.33L150.65 264.465C149.087 263.546 147.893 261.432 147.893 259.687C147.893 257.941 149.087 257.205 150.65 258.124L202.399 287.989C203.961 288.908 205.156 291.022 205.156 292.768C205.156 294.422 203.961 295.157 202.399 294.33Z" fill="#BAE1FF"/>
<path d="M186.497 298.097L150.65 277.422C149.087 276.503 147.893 274.389 147.893 272.643C147.893 270.897 149.087 270.162 150.65 271.081L186.497 291.757C188.06 292.676 189.255 294.789 189.255 296.535C189.255 298.189 188.06 298.924 186.497 298.097Z" fill="#BAE1FF"/>
<path d="M190.45 326.216L150.65 303.243C149.087 302.324 147.893 300.211 147.893 298.465C147.893 296.719 149.087 295.984 150.65 296.903L190.45 319.876C192.012 320.795 193.207 322.908 193.207 324.654C193.207 326.4 192.012 327.135 190.45 326.216Z" fill="#BAE1FF"/>
<path d="M202.399 346.065L150.65 316.2C149.087 315.281 147.893 313.168 147.893 311.422C147.893 309.676 149.087 308.941 150.65 309.859L202.399 339.724C203.961 340.643 205.156 342.757 205.156 344.503C205.156 346.249 203.961 346.984 202.399 346.065Z" fill="#BAE1FF"/>
<path d="M178.592 345.238L150.742 329.157C149.179 328.238 147.984 326.124 147.984 324.378C147.984 322.632 149.179 321.897 150.742 322.816L178.592 338.897C180.155 339.816 181.35 341.93 181.35 343.676C181.258 345.422 180.063 346.157 178.592 345.238Z" fill="#BAE1FF"/>
<path d="M195.413 354.978L187.416 350.384C185.854 349.465 184.659 347.351 184.659 345.605C184.659 343.859 185.854 343.124 187.416 344.043L195.413 348.638C196.976 349.557 198.171 351.67 198.171 353.416C198.171 355.162 196.884 355.805 195.413 354.978Z" fill="#BAE1FF"/>
<path d="M202.399 371.978L150.65 342.114C149.087 341.195 147.893 339.081 147.893 337.335C147.893 335.589 149.087 334.854 150.65 335.773L202.399 365.638C203.961 366.557 205.156 368.67 205.156 370.416C205.156 372.162 203.961 372.805 202.399 371.978Z" fill="#BAE1FF"/>
<path d="M188.795 377.032L150.742 355.07C149.179 354.151 147.984 352.038 147.984 350.292C147.984 348.546 149.179 347.811 150.742 348.73L188.795 370.692C190.358 371.611 191.553 373.724 191.553 375.47C191.553 377.216 190.266 377.951 188.795 377.032Z" fill="#BAE1FF"/>
<path d="M188.795 402.946L150.742 380.984C149.179 380.065 147.984 377.951 147.984 376.205C147.984 374.459 149.179 373.724 150.742 374.643L188.795 396.605C190.358 397.524 191.553 399.638 191.553 401.384C191.553 403.13 190.266 403.773 188.795 402.946Z" fill="#BAE1FF"/>
<path d="M159.198 398.811L150.65 393.849C149.087 392.93 147.893 390.816 147.893 389.07C147.893 387.324 149.087 386.589 150.65 387.508L159.198 392.47C160.761 393.389 161.956 395.503 161.956 397.249C161.956 398.995 160.761 399.73 159.198 398.811Z" fill="#BAE1FF"/>
<path d="M202.674 423.897L168.574 404.232C167.011 403.314 165.816 401.2 165.816 399.454C165.816 397.708 167.011 396.973 168.574 397.892L202.674 417.557C204.237 418.476 205.432 420.589 205.432 422.335C205.432 424.081 204.145 424.724 202.674 423.897Z" fill="#BAE1FF"/>
<path d="M173.997 420.313L150.65 406.897C149.087 405.978 147.893 403.865 147.893 402.119C147.893 400.373 149.087 399.638 150.65 400.557L173.997 413.973C175.559 414.892 176.754 417.005 176.754 418.751C176.754 420.497 175.559 421.141 173.997 420.313Z" fill="#BAE1FF"/>
<path d="M193.299 444.389L150.65 419.762C149.087 418.843 147.893 416.73 147.893 414.984C147.893 413.238 149.087 412.503 150.65 413.422L193.299 438.049C194.862 438.968 196.056 441.081 196.056 442.827C196.056 444.573 194.862 445.216 193.299 444.389Z" fill="#BAE1FF"/>
<path d="M197.343 459.643L150.742 432.719C149.179 431.8 147.984 429.687 147.984 427.941C147.984 426.195 149.179 425.459 150.742 426.378L197.343 453.303C198.906 454.222 200.101 456.335 200.101 458.081C200.101 459.827 198.814 460.47 197.343 459.643Z" fill="#BAE1FF"/>
<path d="M198.446 188.47L150.65 160.903C149.087 159.984 147.893 157.87 147.893 156.124C147.893 154.378 149.087 153.643 150.65 154.562L198.446 182.13C200.009 183.049 201.204 185.162 201.204 186.908C201.204 188.562 200.009 189.297 198.446 188.47Z" fill="#BAE1FF"/>
<path d="M130.245 187.919L71.6944 154.103V95.9352L130.245 129.751V187.919Z" fill="#BAE1FF"/>
<path d="M130.245 265.568L71.6944 231.751V173.676L130.245 207.4V265.568Z" fill="#BAE1FF"/>
<path d="M130.245 343.216L71.6944 309.4V251.324L130.245 285.141V343.216Z" fill="#FCCA2E"/>
<path d="M130.245 420.865L71.6944 387.141V328.973L130.245 362.789V420.865Z" fill="#BAE1FF"/>
<path d="M87.2281 121.205L83.7353 161.087L118.112 180.935L114.803 137.011L87.2281 121.205Z" fill="#A3D7FF"/>
<path d="M93.2027 128.465C93.2027 127.73 93.7541 127.546 94.4895 127.914C95.2248 128.281 95.7763 129.2 95.7763 129.935C95.7763 130.67 95.2248 130.854 94.4895 130.486C93.8461 130.027 93.2027 129.2 93.2027 128.465ZM94.4895 128.465C94.0299 128.189 93.5703 128.281 93.5703 128.741C93.5703 129.2 93.938 129.751 94.4895 130.027C94.9491 130.303 95.4086 130.211 95.4086 129.751C95.4086 129.292 95.041 128.741 94.4895 128.465Z" fill="#ABC5FF"/>
<path d="M106.071 135.816L106.255 135.908L106.071 135.816C106.071 135.541 106.163 135.265 106.347 135.173C106.622 134.989 106.99 135.081 107.358 135.265C108.093 135.632 108.645 136.551 108.645 137.287C108.645 137.654 108.553 137.838 108.277 137.93C108.001 138.022 107.725 137.93 107.358 137.746C106.622 137.47 106.071 136.551 106.071 135.816ZM107.358 135.816C107.082 135.632 106.806 135.632 106.622 135.724C106.53 135.816 106.439 135.908 106.439 136.092C106.439 136.551 106.806 137.103 107.358 137.378C107.633 137.562 107.817 137.562 108.001 137.47C108.185 137.378 108.277 137.287 108.277 137.103C108.185 136.643 107.817 136.092 107.358 135.816Z" fill="#ABC5FF"/>
<path d="M100.556 141.881C100.648 141.973 100.832 141.973 100.924 142.065C103.313 143.351 105.06 143.535 106.255 142.524C108.185 140.962 107.817 136.919 107.725 136.735C107.725 136.459 107.45 136.184 107.266 136.092C107.082 136 106.898 136.184 106.898 136.459C106.898 136.459 107.266 140.227 105.611 141.605C104.6 142.432 102.946 142.249 100.924 141.146C98.9014 140.043 97.3389 138.573 96.3278 136.643C94.4895 133.243 94.949 129.568 94.949 129.568C94.949 129.292 94.8571 129.016 94.5814 128.832C94.3976 128.649 94.1218 128.741 94.1218 128.924C94.1218 129.108 93.5703 132.968 95.6844 136.919C96.7874 138.941 98.4418 140.595 100.556 141.881Z" fill="white"/>
<path d="M87.2281 198.854L83.7353 238.735L118.112 258.584L114.803 214.659L87.2281 198.854Z" fill="#A3D7FF"/>
<path d="M93.2027 206.114C93.2027 205.378 93.7541 205.195 94.4895 205.562C95.2248 205.93 95.7763 206.849 95.7763 207.584C95.7763 208.319 95.2248 208.503 94.4895 208.135C93.8461 207.768 93.2027 206.849 93.2027 206.114ZM94.4895 206.114C94.0299 205.838 93.5703 205.93 93.5703 206.389C93.5703 206.849 93.938 207.4 94.4895 207.676C94.9491 207.951 95.4086 207.859 95.4086 207.4C95.4086 206.941 95.041 206.389 94.4895 206.114Z" fill="#ABC5FF"/>
<path d="M106.071 213.465L106.255 213.557L106.071 213.465C106.071 213.189 106.163 212.914 106.347 212.822C106.622 212.638 106.99 212.73 107.358 212.914C108.093 213.281 108.645 214.2 108.645 214.935C108.645 215.303 108.553 215.487 108.277 215.578C108.001 215.67 107.725 215.578 107.358 215.395C106.622 215.119 106.071 214.2 106.071 213.465ZM107.358 213.465C107.082 213.281 106.806 213.281 106.622 213.373C106.53 213.465 106.439 213.557 106.439 213.741C106.439 214.2 106.806 214.751 107.358 215.027C107.633 215.211 107.817 215.211 108.001 215.119C108.185 215.027 108.277 214.935 108.277 214.751C108.185 214.292 107.817 213.741 107.358 213.465Z" fill="#ABC5FF"/>
<path d="M100.556 219.53C100.648 219.622 100.832 219.622 100.924 219.714C103.313 221 105.06 221.184 106.255 220.173C108.185 218.611 107.817 214.568 107.725 214.384C107.725 214.108 107.45 213.832 107.266 213.741C107.082 213.649 106.898 213.832 106.898 214.108C106.898 214.108 107.266 217.876 105.611 219.254C104.6 220.081 102.946 219.897 100.924 218.795C98.9014 217.692 97.3389 216.222 96.3278 214.292C94.4895 210.892 94.949 207.216 94.949 207.216C94.949 206.941 94.8571 206.665 94.5814 206.481C94.3976 206.297 94.1218 206.389 94.1218 206.573C94.1218 206.757 93.5703 210.616 95.6844 214.568C96.7874 216.681 98.4418 218.335 100.556 219.53Z" fill="white"/>
<path d="M87.2281 276.503L83.7353 316.384L118.112 336.232L114.803 292.4L87.2281 276.503Z" fill="#03E59F"/>
<path d="M93.2027 283.854C93.2027 283.119 93.7541 282.935 94.4895 283.303C95.2248 283.67 95.7763 284.589 95.7763 285.324C95.7763 286.059 95.2248 286.243 94.4895 285.876C93.8461 285.416 93.2027 284.497 93.2027 283.854ZM94.4895 283.762C94.0299 283.486 93.5703 283.578 93.5703 284.038C93.5703 284.497 93.938 285.049 94.4895 285.324C94.9491 285.6 95.4086 285.508 95.4086 285.049C95.4086 284.589 95.041 284.038 94.4895 283.762Z" fill="#ABC5FF"/>
<path d="M106.071 291.205L106.255 291.297L106.071 291.205C106.071 290.93 106.163 290.654 106.347 290.562C106.622 290.378 106.99 290.47 107.358 290.654C108.093 291.022 108.645 291.941 108.645 292.676C108.645 293.043 108.553 293.227 108.277 293.319C108.001 293.411 107.725 293.319 107.358 293.135C106.622 292.768 106.071 291.849 106.071 291.205ZM107.358 291.113C107.082 290.93 106.806 290.93 106.622 291.022C106.53 291.114 106.439 291.205 106.439 291.389C106.439 291.849 106.806 292.4 107.358 292.676C107.633 292.859 107.817 292.859 108.001 292.768C108.185 292.676 108.277 292.584 108.277 292.4C108.185 292.032 107.817 291.389 107.358 291.113Z" fill="#ABC5FF"/>
<path d="M100.556 297.178C100.648 297.27 100.832 297.27 100.924 297.362C103.313 298.649 105.06 298.832 106.255 297.822C108.185 296.259 107.817 292.216 107.725 292.032C107.725 291.757 107.45 291.481 107.266 291.389C107.082 291.297 106.898 291.481 106.898 291.757C106.898 291.757 107.266 295.524 105.611 296.903C104.6 297.73 102.946 297.546 100.924 296.443C98.9014 295.341 97.3389 293.87 96.3278 291.941C94.4895 288.541 94.949 284.865 94.949 284.865C94.949 284.589 94.8571 284.314 94.5814 284.13C94.3976 283.946 94.1218 284.038 94.1218 284.222C94.1218 284.405 93.5703 288.265 95.6844 292.216C96.7874 294.33 98.4418 295.984 100.556 297.178Z" fill="white"/>
<path d="M87.2281 354.335L83.7353 394.216L118.112 414.065L114.803 370.232L87.2281 354.335Z" fill="#A3D7FF"/>
<path d="M93.2027 361.595C93.2027 360.859 93.7541 360.676 94.4895 361.043C95.2248 361.411 95.7763 362.33 95.7763 363.065C95.7763 363.8 95.2248 363.984 94.4895 363.616C93.8461 363.249 93.2027 362.33 93.2027 361.595ZM94.4895 361.595C94.0299 361.319 93.5703 361.411 93.5703 361.87C93.5703 362.33 93.938 362.881 94.4895 363.157C94.9491 363.432 95.4086 363.341 95.4086 362.881C95.4086 362.422 95.041 361.87 94.4895 361.595Z" fill="#ABC5FF"/>
<path d="M106.071 369.038L106.255 369.13L106.071 369.038C106.071 368.762 106.163 368.487 106.347 368.395C106.622 368.211 106.99 368.303 107.358 368.487C108.093 368.854 108.645 369.773 108.645 370.508C108.645 370.876 108.553 371.059 108.277 371.151C108.001 371.243 107.725 371.151 107.358 370.968C106.622 370.6 106.071 369.681 106.071 369.038ZM107.358 368.946C107.082 368.762 106.806 368.762 106.622 368.854C106.53 368.946 106.439 369.038 106.439 369.222C106.439 369.681 106.806 370.232 107.358 370.508C107.633 370.692 107.817 370.692 108.001 370.6C108.185 370.508 108.277 370.416 108.277 370.232C108.185 369.773 107.817 369.222 107.358 368.946Z" fill="#ABC5FF"/>
<path d="M100.556 375.011C100.648 375.103 100.832 375.103 100.924 375.195C103.313 376.481 105.06 376.665 106.255 375.654C108.185 374.092 107.817 370.049 107.725 369.865C107.725 369.589 107.45 369.314 107.266 369.222C107.082 369.13 106.898 369.314 106.898 369.589C106.898 369.589 107.266 373.357 105.611 374.735C104.6 375.562 102.946 375.378 100.924 374.276C98.9014 373.173 97.3389 371.703 96.3278 369.773C94.4895 366.373 94.949 362.697 94.949 362.697C94.949 362.422 94.8571 362.146 94.5814 361.962C94.3976 361.778 94.1218 361.87 94.1218 362.054C94.1218 362.238 93.5703 366.097 95.6844 370.049C96.7874 372.162 98.4418 373.816 100.556 375.011Z" fill="white"/>
<path d="M160.669 156.859C160.669 156.859 160.669 161.362 160.577 166.784C160.577 172.205 156.625 174.503 151.937 171.838C147.249 169.173 143.389 162.557 143.389 157.043C143.389 151.53 143.389 147.119 143.389 147.119L160.669 156.859Z" fill="#5070E2"/>
<path d="M197.619 122.768L160.669 156.859L177.949 166.508L214.899 132.416L197.619 122.768Z" fill="#E6E7FF"/>
<path d="M177.949 166.508C177.949 166.508 177.949 171.011 177.857 176.432C177.857 181.854 173.905 184.151 169.217 181.486C164.529 178.822 160.669 172.205 160.669 166.692C160.669 161.178 160.669 156.768 160.669 156.768L177.949 166.508Z" fill="#D1D3FF"/>
<path d="M214.899 128.005C214.899 130.67 214.899 132.416 214.899 132.416L197.619 122.768C197.619 122.768 197.619 121.022 197.619 118.357L214.899 128.005Z" fill="#B7B9FF"/>
<path d="M180.247 113.027L143.389 147.119L160.669 156.859L197.619 122.768L180.247 113.027Z" fill="#5070E2"/>
<path d="M197.619 118.357C197.619 121.022 197.619 122.768 197.619 122.768L180.247 113.027C180.247 113.027 180.247 111.281 180.247 108.616L197.619 118.357Z" fill="#203E79"/>
<path d="M126.109 137.47C126.109 137.47 126.109 141.973 126.017 147.395C126.017 152.816 122.064 155.113 117.377 152.449C112.689 149.784 108.828 143.168 108.828 137.654C108.828 132.141 108.828 127.73 108.828 127.73L126.109 137.47Z" fill="#5070E2"/>
<path d="M162.967 103.378L126.109 137.47L143.389 147.119L180.247 113.027L162.967 103.378Z" fill="#E6E7FF"/>
<path d="M143.389 147.119C143.389 147.119 143.389 151.622 143.297 157.043C143.297 162.465 139.344 164.762 134.657 162.097C129.969 159.432 126.109 152.816 126.109 147.303C126.109 141.881 126.109 137.378 126.109 137.378L143.389 147.119Z" fill="#D1D3FF"/>
<path d="M180.247 108.616C180.247 111.281 180.247 113.027 180.247 113.027L162.967 103.378C162.967 103.378 162.967 101.632 162.967 98.9676L180.247 108.616Z" fill="#B7B9FF"/>
<path d="M145.687 93.6378L108.736 127.822L126.109 137.47L162.967 103.378L145.687 93.6378Z" fill="#5070E2"/>
<path d="M162.967 98.9676C162.967 101.632 162.967 103.378 162.967 103.378L145.687 93.6378C145.687 93.6378 145.687 91.8919 145.687 89.227L162.967 98.9676Z" fill="#203E79"/>
<path d="M91.4563 118.081C91.4563 118.081 91.4563 122.584 91.3643 128.005C91.3643 133.427 87.412 135.724 82.7243 133.059C78.0366 130.395 74.1761 123.778 74.1761 118.265C74.1761 112.843 74.1761 108.341 74.1761 108.341L91.4563 118.081Z" fill="#5070E2"/>
<path d="M128.406 83.9892L91.4563 118.081L108.736 127.822L145.687 93.6378L128.406 83.9892Z" fill="#E6E7FF"/>
<path d="M108.736 127.822C108.736 127.822 108.736 132.324 108.645 137.746C108.645 143.168 104.692 145.465 100.004 142.8C95.3167 140.135 91.4563 133.519 91.4563 128.005C91.4563 122.584 91.4563 118.081 91.4563 118.081L108.736 127.822Z" fill="#D1D3FF"/>
<path d="M145.687 89.227C145.687 91.8919 145.687 93.6378 145.687 93.6378L128.406 83.9892C128.406 83.9892 128.406 82.2432 128.406 79.5784L145.687 89.227Z" fill="#B7B9FF"/>
<path d="M111.034 74.2487L74.1761 108.432L91.4563 118.081L128.406 83.9892L111.034 74.2487Z" fill="#5070E2"/>
<path d="M128.406 79.5784C128.406 82.2432 128.406 83.9892 128.406 83.9892L111.126 74.2486C111.126 74.2486 111.126 72.5027 111.126 69.8378L128.406 79.5784Z" fill="#203E79"/>
<path d="M56.8959 98.6919C56.8959 98.6919 56.8959 103.195 56.804 108.616C56.804 114.038 52.8516 116.335 48.1639 113.67C43.4762 111.005 39.6157 104.389 39.6157 98.8757C39.6157 93.4541 39.6157 88.9514 39.6157 88.9514L56.8959 98.6919Z" fill="#5070E2"/>
<path d="M93.7542 64.6L56.8959 98.6919L74.1761 108.432L111.034 74.2487L93.7542 64.6Z" fill="#E6E7FF"/>
<path d="M74.1761 108.432C74.1761 108.432 74.1761 112.935 74.0842 118.357C74.0842 123.778 70.1318 126.076 65.4441 123.411C60.7564 120.746 56.8959 114.13 56.8959 108.616C56.8959 103.195 56.8959 98.6919 56.8959 98.6919L74.1761 108.432Z" fill="#D1D3FF"/>
<path d="M111.034 69.8378C111.034 72.5027 111.034 74.2487 111.034 74.2487L93.7542 64.6C93.7542 64.6 93.7542 62.8541 93.7542 60.1892L111.034 69.8378Z" fill="#B7B9FF"/>
<path d="M59.1938 45.2108L22.2436 79.3027L39.5238 89.0432L76.474 54.8595L59.1938 45.2108Z" fill="#E6E7FF"/>
<path d="M39.5238 89.0432C39.5238 89.0432 39.5238 93.5459 39.4319 98.9676C39.4319 104.389 35.4795 106.686 30.7918 104.022C26.1041 101.357 22.2436 94.7405 22.2436 89.227C22.2436 83.8054 22.2436 79.3027 22.2436 79.3027L39.5238 89.0432Z" fill="#D1D3FF"/>
<path d="M76.474 50.4487C76.474 53.1135 76.474 54.8595 76.474 54.8595L59.1938 45.2108C59.1938 45.2108 59.1938 43.4649 59.1938 40.8L76.474 50.4487Z" fill="#B7B9FF"/>
<path d="M76.474 54.8595L39.5238 89.0433L56.8959 98.6919L93.7542 64.6L76.474 54.8595Z" fill="#5070E2"/>
<path d="M93.7542 60.1892C93.7542 62.8541 93.7542 64.6 93.7542 64.6L76.474 54.8595C76.474 54.8595 76.474 53.1135 76.474 50.4487L93.7542 60.1892Z" fill="#203E79"/>
<path d="M9.55925 504.67H9.19158C-4.32005 496.859 -2.66556 483.076 12.9601 474.07L24.3577 467.362C39.9834 458.357 63.8815 457.346 77.4851 465.157H77.8527C91.3643 472.968 89.7099 486.751 74.0842 495.757L62.6866 502.465C46.969 511.562 23.0709 512.481 9.55925 504.67Z" fill="#F3F3F3"/>
<path d="M27.7586 362.238C27.6667 363.065 27.4828 363.892 27.4828 364.719C27.4828 365.546 27.5747 366.005 27.2071 366.649C26.7475 367.476 25.9203 369.038 25.0011 368.854C24.0819 368.67 23.2547 368.027 22.6113 367.292C21.9679 366.557 21.876 365.546 21.3245 364.719C20.6811 363.8 19.8538 362.881 19.67 361.778C19.4862 360.676 19.8538 359.573 20.2215 358.562C21.1406 356.081 22.0598 353.6 23.3466 351.303C23.8062 350.476 24.2658 349.649 25.0011 348.913C25.2769 348.638 25.5526 348.454 25.9203 348.362C26.8394 348.178 27.0233 349.373 27.2071 350.016C27.4828 351.027 27.7586 352.038 27.9424 353.049C28.3101 355.07 28.4939 357.184 28.4939 359.297C28.402 360.584 27.8505 361.135 27.7586 362.238Z" fill="#EA9F68"/>
<path d="M18.6589 362.881C19.4862 364.811 20.9568 366.832 22.4275 368.211C22.7032 368.395 23.0709 368.67 23.3466 368.486C23.7143 368.303 23.6224 367.659 23.4385 367.292C21.7841 364.627 21.7841 364.259 21.2326 362.881C20.9568 362.238 20.773 361.503 20.8649 360.492C20.9568 360.124 21.5083 358.011 23.99 357.551C26.2879 356.908 27.1152 353.784 27.299 352.773C27.3909 352.497 27.3909 352.314 27.4828 352.038C27.4828 351.854 27.3909 351.578 27.4828 351.395C27.5748 350.659 27.2071 349.557 27.1152 348.638C26.9313 347.811 26.6556 347.627 25.8284 346.984C25.2769 346.616 24.7254 346.524 24.0819 346.708C23.4385 346.892 22.7951 347.259 22.2436 347.627C21.6921 347.995 21.0487 348.454 20.5891 349.005C20.1296 349.373 19.3023 350.016 19.1185 350.568C18.9347 351.027 19.3023 351.854 19.3023 352.405C19.3023 352.865 19.2104 353.324 19.1185 353.784C18.6589 355.162 18.2913 356.357 18.0155 357.643C17.6478 358.47 17.464 360.032 18.6589 362.881Z" fill="#FEB37C"/>
<path d="M14.0631 322.081C13.8793 323.276 14.7065 330.627 15.7176 335.222C16.2691 337.519 18.1074 346.432 18.567 348.73C18.6589 349.373 18.9347 351.303 18.9347 351.395C21.5083 354.059 25.6445 353.784 26.5637 352.957C26.6556 352.865 26.7475 352.957 26.8394 352.865C26.9313 352.773 27.299 352.589 27.299 352.405C27.0233 350.2 26.1041 341.746 26.0122 339.632C25.8283 335.13 26.1041 330.627 26.1041 326.124C26.1041 324.286 25.9203 321.897 26.196 320.243C27.1152 318.038 28.5858 315.189 29.6888 312.616C31.3433 308.573 32.3544 305.816 33.2735 303.335C34.8361 299.2 34.4684 294.422 32.9978 290.195C32.0786 287.53 30.3322 285.324 28.4939 283.211C27.7586 282.384 26.3798 280.546 25.3688 280.913C23.0709 281.924 20.3134 293.962 18.2912 302.968C17.464 307.195 14.5227 319.232 14.0631 322.081Z" fill="#8720B7"/>
<path d="M41.2702 275.951C39.6157 279.719 42.8328 280.178 43.66 280.73C44.763 281.465 45.9579 281.924 47.1528 282.476C48.8073 283.119 50.4618 283.578 52.1163 284.222C52.9435 284.497 53.8627 284.589 54.7818 284.773C55.701 284.865 56.7121 285.049 57.6312 285.049C57.1716 283.578 56.804 282.108 56.5282 280.546C56.3444 278.984 56.3444 277.33 56.804 275.859C57.4474 276.043 58.0908 276.319 58.7342 276.686C59.8372 277.33 62.0432 277.973 62.8704 277.789C63.6977 277.605 63.8815 276.778 64.1573 276.043C64.5249 275.124 65.8117 273.746 67.0066 272.184C67.5581 271.541 69.0288 269.978 69.3965 268.324C69.6722 267.038 69.6722 265.476 69.9479 264.649C70.4075 263.086 71.1429 262.903 71.6943 262.076C72.7973 260.238 72.9812 257.849 72.4297 257.022C71.9701 256.195 69.856 256.103 68.9369 256.011C64.8007 255.459 60.6644 256.286 56.7121 257.573C53.1274 258.676 49.6345 260.054 45.9579 260.881C45.5903 260.973 44.9468 260.973 44.763 261.249C44.5792 261.524 44.6711 262.443 44.6711 262.719C44.5792 263.454 44.3953 264.189 44.1196 264.924C43.66 266.395 43.8439 266.211 43.5681 267.681C43.1085 269.886 42.0975 273.746 41.2702 275.951Z" fill="#FEB37C"/>
<path d="M63.4219 264.924C62.1351 263.822 60.3887 265.476 59.6534 266.67C59.1019 267.589 58.1827 270.162 59.8372 271.632C60.2049 272 60.7564 272.368 61.2159 272.184C60.4806 274.849 55.701 274.941 59.2857 276.962C58.918 276.778 58.3666 276.778 57.9989 277.054C57.6312 277.33 57.4474 277.789 57.2636 278.249C56.6202 279.903 56.3444 281.649 56.4363 283.395C54.0465 282.935 52.3001 282.2 50.0941 281.097C51.7486 277.973 53.1274 274.022 53.7708 269.243C54.1384 266.67 54.3223 264.557 56.5282 263.086C60.6644 260.238 66.639 261.249 70.7752 258.4C70.7752 258.4 71.2348 259.503 71.3267 259.687C71.4186 260.054 71.3267 260.238 71.0509 260.514C70.4994 261.249 69.4884 261.8 68.6611 262.351C67.0066 263.362 64.8007 265.2 63.4219 264.924Z" fill="#EA9F68"/>
<path d="M52.5759 244.065C51.4729 241.492 48.3477 239.838 45.4983 239.654C42.6489 239.47 40.8106 240.297 38.7885 242.319C36.5825 244.432 36.5825 249.027 38.0532 251.6C38.9723 253.346 40.6268 254.081 42.1894 255.184C41.8217 259.043 42.0055 262.811 42.7409 266.67C42.9247 267.865 43.2004 269.059 43.9358 269.978C45.2226 271.724 47.6124 272.184 49.7265 271.908C52.7597 271.632 55.6091 270.162 57.7231 267.865C59.01 266.395 60.2049 264.005 62.1351 263.546C63.0543 263.362 63.9734 264.097 64.8926 263.822C66.0875 263.546 67.0066 262.719 68.1096 262.259C69.3045 261.708 70.7752 260.605 71.7863 259.686C72.9812 258.584 72.9812 256.838 72.8893 255.276C72.5216 252.151 70.0399 249.027 67.742 246.913C64.2492 244.065 56.2525 242.87 52.5759 244.065Z" fill="#713E23"/>
<path d="M44.3953 247.465C43.2924 248.568 41.2702 248.935 40.2591 250.773C39.7996 251.6 39.9834 253.162 40.5349 253.897C41.7298 255.459 43.9358 256.195 45.866 256.103C49.175 256.011 56.1606 253.989 52.4839 244.065C53.8627 247.924 52.8516 250.589 52.2082 251.508C51.1971 252.795 50.0941 253.713 48.6235 254.265C47.1528 254.816 45.7741 254.816 44.2115 254.449C43.66 254.265 43.1085 254.081 42.6489 253.713C42.1894 253.346 41.8217 252.795 41.8217 252.243C41.8217 251.968 42.0055 251.324 42.6489 250.589C43.5681 249.578 46.4175 248.2 46.6013 242.411C45.7741 245.903 44.6711 247.097 44.3953 247.465Z" fill="#572F1B"/>
<path d="M28.402 497.319C30.3322 497.319 32.3544 496.124 34.2846 496.124C33.9169 494.103 33.5493 491.989 32.814 490.059C32.0786 488.13 31.0676 486.2 29.5969 484.73C28.402 483.535 26.8394 482.708 25.1849 482.432C25.0011 482.432 23.2547 481.33 23.1628 481.605C23.0709 481.789 22.6113 483.443 22.7951 483.259C23.8981 482.616 25.2769 485.281 26.2879 488.405C27.2071 491.622 26.8394 492.632 28.402 497.319Z" fill="#721BD5"/>
<path d="M47.4286 495.297C47.2447 497.503 45.6822 498.789 43.8439 499.708C42.0975 500.627 39.0642 501.27 37.0421 501.27C34.928 501.27 33.4574 501.178 31.4352 500.719C30.5161 500.443 28.3101 499.249 28.0343 495.389C27.8505 492.908 27.0233 487.395 25.3688 485.005C24.5415 483.719 23.99 483.168 23.6224 483.168C22.1517 482.984 20.1296 486.568 19.7619 487.67C19.3942 488.681 18.9347 489.692 18.567 490.703C18.3832 491.254 17.8317 492.632 17.6478 493.184C17.464 493.276 17.3721 493.368 17.2802 493.459C16.6368 493.184 15.9934 493 15.9014 492.724C15.8095 492.449 15.9934 491.897 16.1772 491.346C16.5449 490.335 16.9125 489.416 17.1883 488.405C17.6478 486.935 18.1993 485.741 18.3832 484.27C18.8427 481.054 19.0266 478.849 18.6589 475.724C18.567 474.989 18.7508 473.427 20.0377 472.416C20.773 471.865 20.8649 471.497 21.7841 471.222C22.0598 471.13 22.4275 471.13 22.7951 471.13C23.0709 471.222 23.3466 471.405 23.5305 471.497C24.3577 472.14 24.9092 472.968 25.3688 473.886C25.8284 474.805 26.1041 475.816 26.4718 476.735C27.1152 478.849 28.0343 480.962 28.8616 482.984C29.5969 484.73 30.3322 486.476 31.3433 488.038C32.3544 489.6 33.7331 490.978 35.4795 491.805C37.2259 492.541 39.2481 492.632 41.1783 492.632C42.4651 492.632 43.66 493.551 44.9468 493.827C45.4064 493.919 45.866 494.011 46.3256 494.103C46.6932 494.47 47.4286 494.838 47.4286 495.297Z" fill="#983BE9"/>
<path d="M19.7619 472.232C19.3942 472.784 19.2104 473.427 19.2104 474.07C19.2104 474.989 19.8538 475.908 20.4053 476.643C22.2436 478.94 27.8505 484.454 29.0454 492.173C29.3211 494.103 29.2292 496.216 30.4241 497.778C31.5271 499.157 33.3654 499.708 35.1118 499.892C37.6855 500.167 40.2591 499.984 42.7409 499.249C44.0277 498.881 45.2226 498.422 46.1417 497.503C47.0609 496.584 47.8881 495.022 47.3366 493.827C46.6932 492.357 44.763 491.713 43.2924 490.978C41.3621 490.059 36.8582 488.038 36.8582 483.443C36.8582 480.778 35.8472 482.249 34.3765 479.951C32.8139 477.654 30.6999 475.908 28.6777 473.978C27.6667 473.059 26.7475 472.049 25.9203 470.946C25.1849 469.935 26.0122 469.2 24.5415 469.292C22.1517 469.384 20.5891 471.038 19.7619 472.232Z" fill="#FCCA2E"/>
<path d="M50.0022 481.33C50.0022 481.33 50.0022 481.422 50.0022 481.33C50.0022 481.605 50.0941 481.789 50.278 482.065C50.4618 482.341 50.4618 482.708 50.6456 483.076C50.8295 483.535 51.1971 483.811 51.6567 483.995C53.2193 484.914 54.8737 485.832 56.6202 486.568C58.3666 487.211 61.0321 487.762 62.1351 487.578C62.1351 486.384 61.8594 485.189 61.3079 484.178C60.8483 483.443 60.2049 482.8 59.4695 482.341C58.7342 481.881 57.907 481.514 57.0797 481.146C56.4363 480.87 55.701 480.686 55.0576 480.411C54.5061 480.135 53.8627 479.951 53.2193 479.859C52.1163 479.676 51.0133 479.951 50.278 480.778C50.0941 480.962 50.0022 481.146 50.0022 481.33Z" fill="#721BD5"/>
<path d="M46.8771 487.854C46.969 488.313 47.2447 490.703 47.3366 491.162C47.3366 491.438 47.3366 491.989 47.6124 492.265C47.7962 492.449 48.3477 492.541 48.6235 492.449C49.0831 492.357 49.2669 492.173 49.6345 491.897C49.6345 491.438 49.6345 490.886 49.6345 490.335C49.7265 486.751 49.6345 484.913 50.5537 481.973C50.6456 481.605 51.1052 479.676 53.5869 480.319C54.4142 480.503 55.1495 480.778 55.9767 481.238C57.8151 482.432 58.5504 484.73 59.9291 486.384C60.4806 487.027 61.0321 487.67 61.8594 487.578C62.5028 487.486 63.4219 487.119 63.7896 486.659C65.3522 485.189 66.7309 483.719 67.8339 481.789C69.4884 478.94 69.4884 477.286 68.6611 475.357C68.5692 475.081 67.9258 474.989 67.742 475.265C66.7309 476.827 65.7198 478.389 64.7087 479.859C64.2492 480.503 63.8815 481.146 63.33 481.697C62.7785 482.249 62.0432 482.616 61.2159 482.616C59.7453 482.616 58.6423 481.238 57.4474 480.411C55.4252 479.032 52.8516 478.849 50.4618 478.297C48.072 477.746 45.866 476.735 43.8438 475.357C43.4762 475.081 43.2004 474.897 42.8328 474.713C42.557 474.622 42.2813 474.622 42.0055 474.622C41.8217 474.622 41.6379 474.622 41.454 474.622C41.3621 474.622 41.1783 474.713 41.0864 474.805C40.8106 476.368 41.9136 477.47 42.0974 477.654C42.4651 477.93 43.3843 478.94 44.2115 479.951C44.5792 480.411 45.6822 482.432 45.9579 483.259C45.9579 483.627 46.6932 485.924 46.8771 487.854Z" fill="#983BE9"/>
<path d="M41.2702 475.632C42.1894 477.195 44.9468 477.746 46.7852 478.022C49.2669 478.297 52.0244 478.665 54.2303 479.676C56.5282 480.595 57.8151 481.881 59.1019 483.903C59.5615 484.546 60.1129 485.741 60.8483 486.108C61.5836 486.476 62.4108 486.292 63.0543 485.832C63.9734 485.281 68.0177 480.778 68.4773 478.113C68.6611 476.827 68.753 475.449 67.9258 474.438C67.2824 473.611 66.3632 473.151 65.3521 472.968C64.3411 472.784 63.2381 472.876 62.3189 473.151C57.1716 474.714 57.5393 472.141 55.7929 472.049C54.1384 471.957 53.8627 472.416 52.4839 471.681C50.7375 470.67 48.9911 470.67 47.2447 469.659C46.3256 469.2 45.4983 468.557 44.5792 468.189C43.7519 467.822 43.4762 468.557 42.9247 469.108C40.6268 471.13 40.9945 475.081 41.2702 475.632Z" fill="#FCCA2E"/>
<path d="M50.9214 411.216C50.186 421.508 49.7265 422.978 51.0133 433.27C51.289 435.843 51.6567 439.519 52.0244 443.103C52.2082 445.308 52.6678 454.13 52.9435 456.335C53.4031 461.205 55.4252 464.973 57.6312 468.832C58.1827 469.751 60.8483 473.243 61.4917 474.254C61.7674 474.713 62.0432 475.081 62.4108 475.541C62.5947 475.724 62.6866 475.908 62.8704 476.092C63.0543 476.276 63.2381 476.459 63.4219 476.735C63.4219 476.735 63.5138 476.827 63.4219 476.827H63.33C63.1462 476.827 62.8704 476.551 62.6866 476.459C62.5028 476.368 62.227 476.184 62.0432 476.092C61.5836 475.816 61.124 475.541 60.7564 475.265C59.7453 474.622 58.7342 474.07 57.6312 473.611C56.5282 473.151 54.5061 472.692 53.2193 472.508C51.289 472.232 50.0022 472.232 48.8992 472.141C47.7043 472.049 45.9579 471.773 45.3145 471.405C44.2115 470.854 44.1196 470.854 42.9247 469.751C43.2923 468.832 43.4762 466.076 43.4762 465.341C43.3843 461.113 42.3732 459.092 40.9025 454.681C39.8915 451.557 39.7076 449.259 38.3289 446.227C36.9502 443.286 35.5714 439.335 34.4684 436.395C32.8139 431.984 31.711 425.919 32.4463 421.14C32.9978 417.281 33.6412 413.513 35.0199 409.838C35.2038 409.286 35.3876 406.989 35.9391 406.622C36.4906 406.254 38.0531 408.827 38.6046 409.011C40.5349 409.562 42.4651 410.022 44.3953 410.389C44.763 410.481 50.9214 411.308 50.9214 411.216Z" fill="#EA9F68"/>
<path d="M36.3068 438.232C36.3068 438.416 35.0199 442.643 33.6412 448.341C33.5493 448.616 31.2514 457.714 30.4241 460.195C28.8616 465.249 24.7254 469.108 24.7254 469.2C26.1041 471.865 27.8505 474.53 29.2292 476.368C29.505 476.827 31.619 479.308 32.6301 482.984C33.2735 485.281 33.9169 487.395 34.4684 488.865C35.2957 491.254 37.5936 491.897 38.6047 491.622C39.0642 491.53 39.1561 491.254 39.0642 490.335C38.9723 489.049 37.4097 487.762 37.3178 485.832C36.8582 480.503 37.134 480.87 37.3178 477.287C37.6855 470.027 39.7076 466.351 40.5349 464.789C41.546 462.951 46.7852 454.314 52.9435 445.124C57.907 437.681 62.9623 427.757 64.3411 426.103C66.5471 423.438 67.8339 421.876 69.3045 419.67C69.5803 419.303 69.4884 419.027 68.9369 418.751C68.3854 418.476 67.2824 419.486 66.7309 419.303C65.4441 419.027 56.3444 412.778 55.9767 412.595C55.6091 412.411 55.4252 412.503 55.0576 412.778C54.4142 413.146 51.9324 414.892 51.289 415.351C39.7996 423.438 37.5017 433.822 36.3068 438.232Z" fill="#FEB37C"/>
<path opacity="0.07" d="M62.0432 424.357C61.9513 424.541 42.1894 456.611 41.0864 459C34.1008 473.427 34.2846 486.292 38.6966 491.622C38.9723 491.989 39.2481 491.254 39.1561 490.335C39.0642 489.049 37.5017 487.762 37.4097 485.832C36.9502 480.503 37.2259 480.87 37.4097 477.286C37.7774 470.027 39.7996 466.351 40.6268 464.789C41.6379 462.951 46.8771 454.313 53.0354 445.124C57.9989 437.681 63.0543 427.757 64.433 426.103C66.639 423.438 67.9258 421.876 69.3965 419.67C69.6722 419.303 69.5803 419.027 69.0288 418.751C68.4773 418.476 67.3743 419.486 66.8228 419.303C65.536 419.027 56.4363 412.778 56.0687 412.595C55.701 412.411 55.5172 412.503 55.1495 412.778C54.5061 413.146 50.9214 414.708 51.3809 415.351C56.7121 421.968 63.33 420.313 62.0432 424.357Z" fill="black"/>
<path d="M67.742 288.357C65.9037 287.162 63.9734 286.427 62.227 285.049C61.3079 284.314 61.0321 284.038 60.021 283.395C59.1019 282.843 56.6202 281.649 55.5172 281.373C51.5648 280.27 48.8992 279.535 45.0388 278.157C43.9358 277.789 42.1894 276.87 41.7298 276.227C41.546 275.951 41.454 275.859 41.454 275.308C40.9945 275.4 40.9945 275.308 40.443 275.492C39.8915 276.135 39.1561 277.513 38.8804 278.249C38.5127 278.984 37.8693 279.168 38.237 279.903C38.6966 280.73 40.2591 281.189 41.0864 281.465C43.5681 282.476 46.1417 283.395 48.6235 284.314C55.5172 286.795 62.4109 289.368 69.3965 291.849C70.3156 292.124 73.9003 294.054 74.6357 294.697C73.8084 292.676 69.2126 289.276 67.742 288.357Z" fill="#FCCA2E"/>
<path d="M38.8804 278.157C38.3289 278.065 35.1118 277.789 34.2846 277.789C33.2735 277.789 30.1484 277.697 28.402 278.157C27.9424 278.249 26.5637 279.443 26.1041 279.811C25.2768 280.546 24.4496 281.557 23.99 282.568C23.3466 283.854 23.0709 285.141 23.0709 286.611C23.0709 288.173 23.0709 289.643 23.4385 291.113C23.99 293.227 25.093 295.065 26.2879 296.903C26.8394 297.822 27.4828 298.741 28.0343 299.751C28.5858 300.67 28.9535 301.681 29.505 302.508C30.3322 303.703 31.0675 304.989 31.8948 306.184C33.9169 309.308 35.7553 312.524 37.3178 315.924C38.1451 317.578 38.8804 319.324 39.6157 321.07C40.2591 322.632 40.6268 324.47 41.7298 325.849C41.8217 326.032 42.0055 326.124 42.0974 326.308C43.9358 328.238 46.5094 329.157 49.0831 329.8C52.5759 330.719 56.1606 331.362 59.7453 331.638C62.6866 331.913 65.6279 331.913 68.4773 330.995C71.2348 330.076 73.8084 328.054 74.6357 325.205C74.7276 324.93 74.7276 324.562 74.9114 324.195C75.0033 323.919 75.1872 323.735 75.1872 323.459C75.2791 322.724 75.2791 322.173 75.2791 321.346C75.2791 319.6 75.4629 320.795 75.8306 319.508C76.474 316.659 78.2204 314.913 79.7829 312.524C79.7829 312.524 79.7829 312.524 79.7829 312.432C86.5847 303.243 79.3234 294.605 72.7973 292.4C72.4297 292.308 68.845 290.378 68.1096 290.011C63.9734 287.989 59.6534 286.059 55.1495 284.773C51.0133 283.578 46.3256 282.843 42.3732 281.005C40.443 280.086 38.9723 278.157 38.8804 278.157Z" fill="#983BE9"/>
<path d="M70.1318 328.789C70.5914 328.513 73.7165 326.308 75.0952 323.643C74.3599 326.859 74.0842 329.616 74.1761 332.649C74.3599 337.886 75.7387 342.481 76.3821 345.238C77.2093 348.362 79.691 360.4 79.9668 363.157C81.4374 380.157 78.4961 392.746 76.6578 398.811C74.0842 407.265 70.8671 416.178 69.3045 420.957C68.9369 422.059 61.216 419.762 60.3887 419.486C57.3555 418.476 54.4142 417.281 51.4729 415.811C45.866 413.054 40.9025 410.481 34.4684 410.113C34.4684 404.508 31.711 396.605 30.6999 391.092C28.3101 378.595 25.0011 360.308 25.9203 353.232C26.4718 348.454 28.0343 342.665 30.7918 338.713C32.9978 335.589 36.7663 331.27 38.6046 327.962C39.5238 326.124 39.34 324.378 39.6157 321.254C42.0975 324.654 44.9468 326.859 48.7154 328.697C52.7597 330.535 60.9402 333.568 70.1318 328.789Z" fill="#983BE9"/>
<path d="M109.748 330.811C109.472 330.811 109.288 330.811 109.012 330.903C108.736 330.903 108.277 330.903 108.185 331.178C108.093 331.362 108.369 331.73 108.553 331.914C108.736 332.005 108.92 332.005 109.104 332.005C109.38 332.005 109.839 332.005 110.023 331.914C110.207 331.914 110.575 331.822 110.759 331.822C111.218 331.73 111.31 331.73 111.77 331.546C112.781 331.086 113.608 330.259 113.7 329.157C113.7 329.065 113.7 328.973 113.608 328.973H113.516C112.873 328.973 112.321 328.881 111.862 329.432C111.586 329.708 111.402 329.984 111.218 330.259C110.942 330.627 110.391 330.811 109.931 330.811C109.931 330.811 109.839 330.811 109.748 330.811Z" fill="#E0A585"/>
<path d="M105.152 327.595C104.692 326.951 104.141 326.676 103.681 326.124C103.497 325.849 103.405 325.757 103.13 325.573C102.578 325.297 101.935 325.205 101.291 325.205C101.016 325.205 100.648 325.113 100.372 325.113C100.28 325.113 100.096 325.022 100.004 325.022C99.9125 325.022 99.6368 324.93 99.5449 324.93C100.188 324.838 100.832 324.562 101.475 324.47C101.751 324.378 102.027 324.286 102.302 324.286C102.578 324.195 102.946 324.195 103.221 324.103C103.865 324.011 104.416 323.735 104.968 323.551C105.887 323.184 106.806 322.816 107.725 322.449C108.277 322.265 108.92 322.173 109.564 322.081C109.839 322.081 110.115 321.989 110.299 322.081C110.575 322.173 110.851 322.173 111.126 322.265C111.862 322.357 112.689 322.265 113.424 322.357C113.884 322.449 114.343 322.541 114.803 322.632C114.987 322.724 115.262 322.816 115.446 322.816C115.63 322.816 115.814 322.816 115.998 322.908C117.009 323.092 118.112 323.459 119.123 323.643C119.399 323.735 119.674 323.735 119.858 323.919C120.042 324.103 120.226 324.378 120.134 324.562C120.042 324.838 119.674 324.93 119.399 325.022C118.296 325.205 117.101 325.205 116.09 324.93C115.63 324.838 115.171 324.93 114.711 324.838C114.803 324.838 114.987 325.022 114.987 325.022C115.079 325.114 115.262 325.113 115.354 325.205C115.722 325.389 116.274 325.665 116.549 326.032C117.009 326.492 116.917 327.043 116.917 327.595C116.917 327.87 116.917 328.238 116.917 328.514C116.825 328.973 116.733 329.432 116.549 329.892C116.365 330.351 115.998 330.627 115.63 331.086C115.354 331.362 115.171 331.638 114.895 331.914C114.619 332.189 114.251 332.281 113.884 332.465C112.965 332.832 111.953 333.016 111.034 333.108C110.575 333.2 110.023 333.016 110.023 332.557C110.023 332.373 110.115 332.189 110.299 332.097C110.483 332.005 110.667 331.914 110.851 331.822C111.126 331.73 111.402 331.73 111.678 331.638C111.953 331.546 112.137 331.362 112.413 331.178C112.505 331.086 112.689 330.995 112.781 330.811C112.781 330.811 112.965 330.535 112.873 330.535C112.321 330.627 111.862 330.719 111.31 330.811C110.667 330.903 109.931 330.995 109.288 331.086C108.553 331.178 108.369 331.086 107.725 331.178C107.358 331.178 106.99 331.178 106.622 331.178C106.439 331.178 106.255 331.178 106.071 331.178C105.979 331.178 105.611 331.086 105.519 331.178C105.611 330.995 105.795 330.903 105.795 330.719C105.887 330.535 105.979 330.351 105.979 330.259C106.071 329.892 106.163 329.524 106.163 329.157C106.163 328.881 105.979 328.973 105.795 328.697C105.611 328.238 105.336 327.962 105.152 327.595Z" fill="#EFB796"/>
<path d="M74.6356 297.362C72.2458 296.535 69.5803 296.719 67.4662 298.189C62.4108 301.957 63.9734 309.124 64.3411 310.319C65.4441 313.995 70.6833 328.881 75.371 335.313C75.7386 335.865 76.1063 336.508 76.6578 336.876C77.1174 337.151 77.7608 337.335 78.3123 337.427C83.8272 338.346 90.8128 336.968 96.052 334.946C98.0742 334.119 106.347 331.27 106.439 331.086C107.174 329.524 107.358 328.697 106.714 327.043C106.163 325.665 104.141 324.195 103.221 324.011C101.843 324.286 93.2026 325.205 91.3643 325.389C89.526 325.573 87.32 325.941 84.5626 326.768C84.4706 326.768 83.2757 323.368 83.2757 323.092C82.9081 321.989 82.6323 320.795 82.2647 319.692C81.6213 317.211 80.9778 314.73 80.3344 312.249C80.1506 311.33 79.8748 310.411 79.691 309.492C78.9557 305.357 79.7829 299.2 74.6356 297.362Z" fill="url(#paint0_linear)"/>
<path opacity="0.15" d="M62.6866 313.995C63.5138 317.211 64.6168 320.335 64.5249 323.643C64.433 326.951 64.0653 331.638 62.9624 332.649C63.6977 333.843 66.9147 331.454 68.3854 330.903C71.1429 329.984 73.7165 327.962 74.5437 325.114C74.6357 324.838 74.6357 324.47 74.8195 324.103C74.9114 323.827 75.0952 323.643 75.0952 323.368C75.1872 322.632 75.1872 320.795 75.4629 319.6C76.1063 316.751 78.1285 314.914 79.691 312.432C79.691 312.432 79.691 312.432 79.691 312.341C81.0698 310.503 75.4629 307.47 73.9923 306.551C71.6944 304.989 69.3965 303.519 67.0986 301.957C66.5471 301.589 69.1207 296.995 68.5692 297.27C58.5504 302.416 61.8594 310.87 62.6866 313.995Z" fill="black"/>
<path opacity="0.15" d="M70.4075 328.605C72.1539 327.319 73.7165 325.757 75.1872 323.735C74.5437 326.676 74.268 329.616 74.3599 332.649C74.5437 337.886 75.9225 342.481 76.5659 345.238C77.3931 348.362 79.8749 360.4 80.1506 363.157C81.6213 380.157 78.6799 392.746 76.8416 398.811C74.268 407.265 71.0509 416.178 69.4884 420.957C69.3045 421.6 66.1794 420.957 65.3522 420.773C84.8383 365.27 54.0465 369.313 62.6866 337.243C63.0543 335.865 63.9734 332.281 65.3522 331.638C67.1905 330.627 68.845 329.708 70.4075 328.605Z" fill="black"/>
<path d="M75.2791 322.816C75.0952 324.838 74.7276 326.859 74.5437 328.789C74.3599 329.984 74.4518 331.086 73.8084 332.097C72.8893 333.476 70.959 334.762 69.4884 335.405C67.8339 336.141 66.4551 336.6 64.7087 336.876C63.8815 337.059 63.0543 337.151 62.227 337.151C60.2968 337.243 58.3666 337.151 56.5282 336.876C54.3223 336.508 52.2082 335.865 50.186 335.038C49.4507 334.762 48.7154 334.395 48.072 334.119C45.0388 332.649 41.9136 330.627 40.0753 327.411C39.5238 326.4 39.6157 325.389 39.5238 324.286C39.5238 323.735 39.5238 323.184 39.5238 322.632C39.5238 322.173 39.5238 321.622 39.6157 321.162C39.6157 321.254 43.2924 325.665 48.8992 328.146C52.6678 329.8 59.4695 332.832 67.742 329.892C68.4773 329.616 73.9003 326.859 75.2791 322.816Z" fill="#FCCA2E"/>
<path opacity="0.15" d="M67.742 329.892C66.3632 330.351 65.0764 330.627 63.7896 330.811L62.5947 337.059C63.33 336.968 63.9734 336.968 64.6168 336.784C66.4551 336.508 67.742 335.957 69.3965 335.313C70.8671 334.67 72.7973 333.384 73.7165 332.005C74.3599 330.995 74.268 329.892 74.4518 328.697C74.7276 326.676 75.0033 324.654 75.1872 322.724C73.9003 326.859 68.4773 329.616 67.742 329.892Z" fill="black"/>
<path d="M109.748 330.811C109.472 330.811 109.288 330.811 109.012 330.903C108.736 330.903 108.277 330.903 108.185 331.178C108.093 331.362 108.369 331.73 108.553 331.914C108.736 332.005 108.92 332.005 109.104 332.005C109.38 332.005 109.839 332.005 110.023 331.914C110.207 331.914 110.575 331.822 110.759 331.822C111.218 331.73 111.31 331.73 111.77 331.546C112.781 331.086 113.608 330.259 113.7 329.157C113.7 329.065 113.7 328.973 113.608 328.973H113.516C112.873 328.973 112.321 328.881 111.862 329.432C111.586 329.708 111.402 329.984 111.218 330.259C110.942 330.627 110.391 330.811 109.931 330.811C109.931 330.811 109.839 330.811 109.748 330.811Z" fill="#EA9F68"/>
<path d="M105.152 327.595C104.692 326.951 104.141 326.676 103.681 326.124C103.497 325.849 103.405 325.757 103.13 325.573C102.578 325.297 101.935 325.205 101.291 325.205C101.016 325.205 100.648 325.113 100.372 325.113C100.28 325.113 100.096 325.022 100.004 325.022C99.9125 325.022 99.6368 324.93 99.5449 324.93C100.188 324.838 100.832 324.562 101.475 324.47C101.751 324.378 102.027 324.286 102.302 324.286C102.578 324.195 102.946 324.195 103.221 324.103C103.865 324.011 104.416 323.735 104.968 323.551C105.887 323.184 106.806 322.816 107.725 322.449C108.277 322.265 108.92 322.173 109.564 322.081C109.839 322.081 110.115 321.989 110.299 322.081C110.575 322.173 110.851 322.173 111.126 322.265C111.862 322.357 112.689 322.265 113.424 322.357C113.884 322.449 114.343 322.541 114.803 322.632C114.987 322.724 115.262 322.816 115.446 322.816C115.63 322.816 115.814 322.816 115.998 322.908C117.009 323.092 118.112 323.459 119.123 323.643C119.399 323.735 119.674 323.735 119.858 323.919C120.042 324.103 120.226 324.378 120.134 324.562C120.042 324.838 119.674 324.93 119.399 325.022C118.296 325.205 117.101 325.205 116.09 324.93C115.63 324.838 115.171 324.93 114.711 324.838C114.803 324.838 114.987 325.022 114.987 325.022C115.079 325.114 115.262 325.113 115.354 325.205C115.722 325.389 116.274 325.665 116.549 326.032C117.009 326.492 116.917 327.043 116.917 327.595C116.917 327.87 116.917 328.238 116.917 328.514C116.825 328.973 116.733 329.432 116.549 329.892C116.365 330.351 115.998 330.627 115.63 331.086C115.354 331.362 115.171 331.638 114.895 331.914C114.619 332.189 114.251 332.281 113.884 332.465C112.965 332.832 111.953 333.016 111.034 333.108C110.575 333.2 110.023 333.016 110.023 332.557C110.023 332.373 110.115 332.189 110.299 332.097C110.483 332.005 110.667 331.914 110.851 331.822C111.126 331.73 111.402 331.73 111.678 331.638C111.953 331.546 112.137 331.362 112.413 331.178C112.505 331.086 112.689 330.995 112.781 330.811C112.781 330.811 112.965 330.535 112.873 330.535C112.321 330.627 111.862 330.719 111.31 330.811C110.667 330.903 109.931 330.995 109.288 331.086C108.553 331.178 108.369 331.086 107.725 331.178C107.358 331.178 106.99 331.178 106.622 331.178C106.439 331.178 106.255 331.178 106.071 331.178C105.979 331.178 105.611 331.086 105.519 331.178C105.611 330.995 105.795 330.903 105.795 330.719C105.887 330.535 105.979 330.351 105.979 330.259C106.071 329.892 106.163 329.524 106.163 329.157C106.163 328.881 105.979 328.973 105.795 328.697C105.611 328.238 105.336 327.962 105.152 327.595Z" fill="#FEB37C"/>
<path d="M74.6356 297.362C72.2458 296.535 69.5803 296.719 67.4662 298.189C62.4108 301.957 63.9734 309.124 64.3411 310.319C65.4441 313.995 70.6833 328.881 75.371 335.313C75.7386 335.865 76.1063 336.508 76.6578 336.876C77.1174 337.151 77.7608 337.335 78.3123 337.427C83.8272 338.346 90.8128 336.968 96.052 334.946C98.0742 334.119 106.347 331.27 106.439 331.086C107.174 329.524 107.358 328.697 106.714 327.043C106.163 325.665 104.141 324.195 103.221 324.011C101.843 324.286 93.2026 325.205 91.3643 325.389C89.526 325.573 87.32 325.941 84.5626 326.768C84.4706 326.768 83.2757 323.368 83.2757 323.092C82.9081 321.989 82.6323 320.795 82.2647 319.692C81.6213 317.211 80.9778 314.73 80.3344 312.249C80.1506 311.33 79.8748 310.411 79.691 309.492C78.9557 305.357 79.7829 299.2 74.6356 297.362Z" fill="#983BE9"/>
<path opacity="0.09" d="M86.8605 335.589C83.6434 336.049 78.3123 336.14 76.9335 334.303C75.1871 332.005 64.6168 311.238 65.7198 303.243C65.9956 300.854 67.8339 298.465 69.856 297.178C69.0288 297.362 68.2935 297.73 67.5581 298.281C62.5028 302.049 64.0653 309.216 64.433 310.411C65.536 314.086 70.7752 328.973 75.4629 335.405C75.8306 335.957 76.1982 336.6 76.7497 336.968C77.2093 337.243 77.8527 337.427 78.4042 337.519C83.9191 338.438 90.9047 337.059 96.1439 335.038C98.1661 334.211 106.439 331.362 106.53 331.178C106.714 330.811 106.806 330.535 106.898 330.168C100.464 332.557 93.5703 334.67 86.8605 335.589Z" fill="black"/>
</g>
<defs>
<linearGradient id="paint0_linear" x1="63.8454" y1="317.318" x2="107.122" y2="317.318" gradientUnits="userSpaceOnUse">
<stop stop-color="#EB4CD4"/>
<stop offset="0.0416927" stop-color="#E849D5"/>
<stop offset="0.3223" stop-color="#D739DD"/>
<stop offset="0.5327" stop-color="#D133E0"/>
<stop offset="0.7412" stop-color="#CE31DF"/>
<stop offset="0.9116" stop-color="#C42CDD"/>
<stop offset="1" stop-color="#BB27DB"/>
</linearGradient>
<clipPath id="clip0">
<path d="M0 0H415V510H0V0Z" fill="white"/>
</clipPath>
</defs>
</svg>
