<svg width="366" height="241" viewBox="0 0 366 241" fill="none" xmlns="http://www.w3.org/2000/svg">
<g filter="url(#filter0_d_40_3590)">
<mask id="mask0_40_3590" style="mask-type:alpha" maskUnits="userSpaceOnUse" x="39" y="1" width="288" height="223">
<path fill-rule="evenodd" clip-rule="evenodd" d="M39.1156 1.30078H326.667V223.201H39.1156V1.30078Z" fill="white"/>
</mask>
<g mask="url(#mask0_40_3590)">
<path fill-rule="evenodd" clip-rule="evenodd" d="M326.667 214.655C326.667 219.384 323.046 223.201 318.594 223.201H47.1853C42.7336 223.201 39.1156 219.384 39.1156 214.655V9.84842C39.1156 5.11994 42.7336 1.2998 47.1853 1.2998H318.594C323.046 1.2998 326.667 5.11994 326.667 9.84842V214.655Z" fill="white"/>
</g>
<mask id="mask1_40_3590" style="mask-type:alpha" maskUnits="userSpaceOnUse" x="3" y="1" width="360" height="235">
<path fill-rule="evenodd" clip-rule="evenodd" d="M3 236H362.778V1.30078H3V236Z" fill="white"/>
</mask>
<g mask="url(#mask1_40_3590)">
<path fill-rule="evenodd" clip-rule="evenodd" d="M52 203.755H313.35V16H52V203.755Z" fill="#191551"/>
<path fill-rule="evenodd" clip-rule="evenodd" d="M2.99988 216.793C4.07239 227.539 14.7279 236 27.8399 236H337.934C351.053 236 361.701 227.539 362.779 216.793H2.99988Z" fill="#EFEFEF"/>
<path fill-rule="evenodd" clip-rule="evenodd" d="M135.462 223.201H230.317V216.792H135.462V223.201Z" fill="#CCCCCC"/>
</g>
<path d="M222.888 176.463V179.125H213.956V176.463H217.08V169.797C216.948 169.973 216.736 170.156 216.442 170.347C216.164 170.523 215.856 170.692 215.518 170.853C215.181 171.014 214.829 171.146 214.462 171.249C214.11 171.352 213.795 171.403 213.516 171.403V168.653C213.78 168.653 214.103 168.572 214.484 168.411C214.866 168.235 215.24 168.03 215.606 167.795C215.973 167.56 216.288 167.333 216.552 167.113C216.831 166.878 217.007 166.695 217.08 166.563H220.094V176.463H222.888ZM235.849 172.679C235.849 173.647 235.703 174.542 235.409 175.363C235.131 176.17 234.735 176.874 234.221 177.475C233.723 178.062 233.121 178.524 232.417 178.861C231.728 179.184 230.98 179.345 230.173 179.345C229.352 179.345 228.597 179.184 227.907 178.861C227.218 178.524 226.617 178.062 226.103 177.475C225.605 176.874 225.209 176.17 224.915 175.363C224.637 174.542 224.497 173.647 224.497 172.679C224.497 171.711 224.637 170.824 224.915 170.017C225.209 169.196 225.605 168.492 226.103 167.905C226.617 167.304 227.218 166.834 227.907 166.497C228.597 166.16 229.352 165.991 230.173 165.991C230.98 165.991 231.728 166.16 232.417 166.497C233.121 166.834 233.723 167.304 234.221 167.905C234.735 168.492 235.131 169.196 235.409 170.017C235.703 170.824 235.849 171.711 235.849 172.679ZM232.879 172.679C232.879 172.092 232.813 171.557 232.681 171.073C232.549 170.574 232.359 170.149 232.109 169.797C231.875 169.445 231.589 169.174 231.251 168.983C230.929 168.792 230.569 168.697 230.173 168.697C229.763 168.697 229.389 168.792 229.051 168.983C228.729 169.174 228.443 169.445 228.193 169.797C227.959 170.149 227.775 170.574 227.643 171.073C227.511 171.557 227.445 172.092 227.445 172.679C227.445 173.266 227.511 173.801 227.643 174.285C227.775 174.769 227.959 175.187 228.193 175.539C228.443 175.891 228.729 176.162 229.051 176.353C229.389 176.544 229.763 176.639 230.173 176.639C230.569 176.639 230.929 176.544 231.251 176.353C231.589 176.162 231.875 175.891 232.109 175.539C232.359 175.187 232.549 174.769 232.681 174.285C232.813 173.801 232.879 173.266 232.879 172.679ZM249.363 172.679C249.363 173.647 249.216 174.542 248.923 175.363C248.644 176.17 248.248 176.874 247.735 177.475C247.236 178.062 246.635 178.524 245.931 178.861C245.242 179.184 244.494 179.345 243.687 179.345C242.866 179.345 242.11 179.184 241.421 178.861C240.732 178.524 240.13 178.062 239.617 177.475C239.118 176.874 238.722 176.17 238.429 175.363C238.15 174.542 238.011 173.647 238.011 172.679C238.011 171.711 238.15 170.824 238.429 170.017C238.722 169.196 239.118 168.492 239.617 167.905C240.13 167.304 240.732 166.834 241.421 166.497C242.11 166.16 242.866 165.991 243.687 165.991C244.494 165.991 245.242 166.16 245.931 166.497C246.635 166.834 247.236 167.304 247.735 167.905C248.248 168.492 248.644 169.196 248.923 170.017C249.216 170.824 249.363 171.711 249.363 172.679ZM246.393 172.679C246.393 172.092 246.327 171.557 246.195 171.073C246.063 170.574 245.872 170.149 245.623 169.797C245.388 169.445 245.102 169.174 244.765 168.983C244.442 168.792 244.083 168.697 243.687 168.697C243.276 168.697 242.902 168.792 242.565 168.983C242.242 169.174 241.956 169.445 241.707 169.797C241.472 170.149 241.289 170.574 241.157 171.073C241.025 171.557 240.959 172.092 240.959 172.679C240.959 173.266 241.025 173.801 241.157 174.285C241.289 174.769 241.472 175.187 241.707 175.539C241.956 175.891 242.242 176.162 242.565 176.353C242.902 176.544 243.276 176.639 243.687 176.639C244.083 176.639 244.442 176.544 244.765 176.353C245.102 176.162 245.388 175.891 245.623 175.539C245.872 175.187 246.063 174.769 246.195 174.285C246.327 173.801 246.393 173.266 246.393 172.679ZM254.847 169.951C254.333 169.951 253.857 169.863 253.417 169.687C252.977 169.511 252.595 169.276 252.273 168.983C251.95 168.675 251.693 168.323 251.503 167.927C251.312 167.516 251.217 167.076 251.217 166.607C251.217 166.152 251.312 165.72 251.503 165.309C251.693 164.898 251.95 164.546 252.273 164.253C252.595 163.96 252.977 163.725 253.417 163.549C253.857 163.373 254.333 163.285 254.847 163.285C255.345 163.285 255.815 163.373 256.255 163.549C256.709 163.725 257.098 163.96 257.421 164.253C257.743 164.546 258 164.898 258.191 165.309C258.381 165.72 258.477 166.152 258.477 166.607C258.477 167.076 258.381 167.516 258.191 167.927C258 168.323 257.743 168.675 257.421 168.983C257.098 169.276 256.709 169.511 256.255 169.687C255.815 169.863 255.345 169.951 254.847 169.951ZM254.847 168.477C255.067 168.477 255.265 168.426 255.441 168.323C255.631 168.22 255.8 168.088 255.947 167.927C256.093 167.751 256.203 167.553 256.277 167.333C256.365 167.098 256.409 166.856 256.409 166.607C256.409 166.094 256.255 165.661 255.947 165.309C255.639 164.942 255.272 164.759 254.847 164.759C254.627 164.759 254.421 164.81 254.231 164.913C254.055 165.016 253.893 165.155 253.747 165.331C253.6 165.492 253.483 165.683 253.395 165.903C253.321 166.123 253.285 166.358 253.285 166.607C253.285 167.12 253.439 167.56 253.747 167.927C254.055 168.294 254.421 168.477 254.847 168.477ZM263.339 179.345C262.825 179.345 262.349 179.257 261.909 179.081C261.469 178.905 261.087 178.67 260.765 178.377C260.442 178.084 260.185 177.739 259.995 177.343C259.804 176.932 259.709 176.492 259.709 176.023C259.709 175.554 259.804 175.121 259.995 174.725C260.185 174.314 260.442 173.962 260.765 173.669C261.087 173.361 261.469 173.119 261.909 172.943C262.349 172.767 262.825 172.679 263.339 172.679C263.852 172.679 264.329 172.767 264.769 172.943C265.209 173.119 265.59 173.361 265.913 173.669C266.25 173.962 266.507 174.314 266.683 174.725C266.873 175.121 266.969 175.554 266.969 176.023C266.969 176.492 266.873 176.932 266.683 177.343C266.507 177.739 266.25 178.084 265.913 178.377C265.59 178.67 265.209 178.905 264.769 179.081C264.329 179.257 263.852 179.345 263.339 179.345ZM263.339 177.871C263.559 177.871 263.757 177.82 263.933 177.717C264.123 177.614 264.292 177.482 264.439 177.321C264.585 177.145 264.695 176.947 264.769 176.727C264.857 176.507 264.901 176.272 264.901 176.023C264.901 175.759 264.857 175.517 264.769 175.297C264.681 175.062 264.563 174.864 264.417 174.703C264.285 174.527 264.123 174.395 263.933 174.307C263.742 174.204 263.544 174.153 263.339 174.153C263.119 174.153 262.913 174.204 262.723 174.307C262.547 174.41 262.385 174.549 262.239 174.725C262.092 174.886 261.975 175.084 261.887 175.319C261.813 175.539 261.777 175.774 261.777 176.023C261.777 176.536 261.931 176.976 262.239 177.343C262.547 177.695 262.913 177.871 263.339 177.871ZM252.449 178.091L258.653 170.853L264.373 163.329L265.715 164.517L259.709 171.623L253.791 179.279L252.449 178.091Z" fill="white"/>
<path fill-rule="evenodd" clip-rule="evenodd" d="M189.682 167.125H85.8058V167.139C82.5816 167.285 80 170.744 80 175C80 179.256 82.5816 182.714 85.8058 182.861V182.875H189.682C193.005 182.875 195.699 179.349 195.699 175C195.699 170.651 193.005 167.125 189.682 167.125Z" fill="#03E59F"/>
<path fill-rule="evenodd" clip-rule="evenodd" d="M88.9883 93.399C103.076 56.9213 138.532 31 179.975 31C221.418 31 256.873 56.9213 270.961 93.399L225.527 110.875C218.483 92.578 200.755 79.676 179.975 79.676C159.195 79.676 141.467 92.578 134.423 110.875L88.9883 93.399Z" fill="#FCCA2E"/>
<path fill-rule="evenodd" clip-rule="evenodd" d="M269.838 56.875L185.492 139.617C183.378 140.79 180.56 139.852 179.386 137.623C178.211 135.394 179.033 132.579 181.265 131.523L269.838 56.875Z" fill="white"/>
</g>
<defs>
<filter id="filter0_d_40_3590" x="0" y="0.300781" width="365.778" height="240.699" filterUnits="userSpaceOnUse" color-interpolation-filters="sRGB">
<feFlood flood-opacity="0" result="BackgroundImageFix"/>
<feColorMatrix in="SourceAlpha" type="matrix" values="0 0 0 0 0 0 0 0 0 0 0 0 0 0 0 0 0 0 127 0" result="hardAlpha"/>
<feOffset dy="2"/>
<feGaussianBlur stdDeviation="1.5"/>
<feColorMatrix type="matrix" values="0 0 0 0 0 0 0 0 0 0 0 0 0 0 0 0 0 0 0.15 0"/>
<feBlend mode="normal" in2="BackgroundImageFix" result="effect1_dropShadow_40_3590"/>
<feBlend mode="normal" in="SourceGraphic" in2="effect1_dropShadow_40_3590" result="shape"/>
</filter>
</defs>
</svg>
