<svg width="184" height="116" viewBox="0 0 184 116" fill="none" xmlns="http://www.w3.org/2000/svg">
<g filter="url(#filter0_d_38_2616)">
<path fill-rule="evenodd" clip-rule="evenodd" d="M163.035 100.902C163.035 103.108 161.245 104.889 159.044 104.889H24.8471C22.646 104.889 20.8571 103.108 20.8571 100.902V5.35658C20.8571 3.15068 22.646 1.3689 24.8471 1.3689H159.044C161.245 1.3689 163.035 3.15068 163.035 5.35658V100.902Z" fill="white"/>
<path fill-rule="evenodd" clip-rule="evenodd" d="M27.4219 95.9286H156.645V8.33838H27.4219V95.9286Z" fill="#191551"/>
<g clip-path="url(#clip0_38_2616)">
<path d="M88.494 24.5933V74.5159H60.2396V81.4353H123.695V74.5159H95.4403V73.4125H95.506V63.3887H95.4403V45.2954H95.506V42.3874H95.4403V24.5933H88.494Z" fill="white"/>
<path d="M97.2707 73.4126H96.0129H95.4966H92.0235H86.6542C85.6498 73.4126 84.8331 74.2261 84.8331 75.2266V80.7154C84.8331 81.7159 85.6498 82.5294 86.6542 82.5294H92.0235H96.0129H97.2707C98.2751 82.5294 99.0918 81.7159 99.0918 80.7154V80.0047C99.1293 79.8084 99.1575 79.612 99.1575 79.4063V76.545C99.1575 76.3393 99.1293 76.143 99.0918 75.9466V75.236C99.0918 74.2261 98.2751 73.4126 97.2707 73.4126Z" fill="#6A82B0"/>
<path d="M126.605 45.2957H122.859H95.506H92.0328H57.3296C56.5317 45.2957 55.884 45.9408 55.884 46.7356V61.9491C55.884 62.7439 56.5317 63.389 57.3296 63.389H92.0328H95.506H122.859H126.605C127.403 63.389 128.05 62.7439 128.05 61.9491V58.9101C128.088 58.6576 128.116 58.4052 128.116 58.1527V50.532C128.116 50.2702 128.088 50.0177 128.05 49.7652V46.7356C128.05 45.9408 127.403 45.2957 126.605 45.2957Z" fill="#1DAFF4"/>
<path d="M126.605 24.2942H122.859H92.0798H92.0328H57.3296C56.5317 24.2942 55.884 24.9394 55.884 25.7342V40.9475C55.884 41.7423 56.5317 42.3875 57.3296 42.3875H92.0328H95.506H122.859H126.605C127.403 42.3875 128.05 41.7423 128.05 40.9475V37.9086C128.088 37.6561 128.116 37.4037 128.116 37.1512V29.5305C128.116 29.2687 128.088 29.0162 128.05 28.7638V25.7342C128.05 24.9394 127.403 24.2942 126.605 24.2942Z" fill="#1DAFF4"/>
<path d="M120.991 25.865H117.65V41.1719H120.991V25.865Z" fill="#FCCA2E"/>
<path d="M115.613 25.865H112.271V41.1719H115.613V25.865Z" fill="#FCCA2E"/>
<path d="M120.991 46.8665H117.65V62.1733H120.991V46.8665Z" fill="#FCCA2E"/>
<path d="M115.613 46.8665H112.271V62.1733H115.613V46.8665Z" fill="#FCCA2E"/>
<path d="M60.202 29.4614C60.202 30.7705 61.2627 31.8271 62.5768 31.8271C63.891 31.8271 64.9517 30.7705 64.9517 29.4614C64.9517 28.1523 63.891 27.0957 62.5768 27.0957C61.2627 27.1051 60.202 28.1617 60.202 29.4614Z" fill="#630DD3"/>
<path d="M63.0368 35.0697C61.3659 34.7518 59.9297 36.1824 60.2489 37.8468C60.4273 38.7725 61.1876 39.5299 62.1169 39.6982C63.7878 40.0162 65.224 38.5855 64.9048 36.9211C64.7264 36.0048 63.9661 35.2474 63.0368 35.0697Z" fill="#FC3E54"/>
<path d="M60.202 50.2944C60.202 51.5941 61.2627 52.6601 62.5768 52.6601C63.891 52.6601 64.9517 51.6035 64.9517 50.2944C64.9517 48.9853 63.891 47.9287 62.5768 47.9287C61.2627 47.9381 60.202 48.9947 60.202 50.2944Z" fill="#630DD3"/>
<path d="M63.0368 56.0805C61.3659 55.7625 59.9297 57.1932 60.2489 58.8576C60.4273 59.7833 61.1876 60.5407 62.1169 60.709C63.7878 61.0269 65.224 59.5962 64.9048 57.9319C64.7264 57.0062 63.9661 56.2488 63.0368 56.0805Z" fill="#FC3E54"/>
</g>
<mask id="mask0_38_2616" style="mask-type:alpha" maskUnits="userSpaceOnUse" x="3" y="101" width="178" height="10">
<path fill-rule="evenodd" clip-rule="evenodd" d="M3 101.899H180.89V110.86H3V101.899Z" fill="white"/>
</mask>
<g mask="url(#mask0_38_2616)">
<path fill-rule="evenodd" clip-rule="evenodd" d="M2.99994 101.899C3.53024 106.913 8.79882 110.86 15.2819 110.86H168.606C175.093 110.86 180.358 106.913 180.891 101.899H2.99994Z" fill="#EFEFEF"/>
</g>
<path fill-rule="evenodd" clip-rule="evenodd" d="M68.4951 104.889H115.396V101.899H68.4951V104.889Z" fill="#CCCCCC"/>
</g>
<defs>
<filter id="filter0_d_38_2616" x="0" y="0.368896" width="183.891" height="115.491" filterUnits="userSpaceOnUse" color-interpolation-filters="sRGB">
<feFlood flood-opacity="0" result="BackgroundImageFix"/>
<feColorMatrix in="SourceAlpha" type="matrix" values="0 0 0 0 0 0 0 0 0 0 0 0 0 0 0 0 0 0 127 0" result="hardAlpha"/>
<feOffset dy="2"/>
<feGaussianBlur stdDeviation="1.5"/>
<feColorMatrix type="matrix" values="0 0 0 0 0 0 0 0 0 0 0 0 0 0 0 0 0 0 0.15 0"/>
<feBlend mode="normal" in2="BackgroundImageFix" result="effect1_dropShadow_38_2616"/>
<feBlend mode="normal" in="SourceGraphic" in2="effect1_dropShadow_38_2616" result="shape"/>
</filter>
<clipPath id="clip0_38_2616">
<rect width="72.2319" height="58.2353" fill="white" transform="translate(55.884 24.2942)"/>
</clipPath>
</defs>
</svg>
