<svg width="366" height="241" viewBox="0 0 366 241" fill="none" xmlns="http://www.w3.org/2000/svg">
<g clip-path="url(#clip0_304_1886)">
<g filter="url(#filter0_d_304_1886)">
<mask id="mask0_304_1886" style="mask-type:alpha" maskUnits="userSpaceOnUse" x="37" y="13" width="290" height="211">
<path fill-rule="evenodd" clip-rule="evenodd" d="M37.3162 13.7483H326.465V223.611H37.3162V13.7483Z" fill="white"/>
</mask>
<g mask="url(#mask0_304_1886)">
<path fill-rule="evenodd" clip-rule="evenodd" d="M326.465 215.528C326.465 220 322.824 223.611 318.347 223.611H45.4307C40.9542 223.611 37.3162 220 37.3162 215.528V21.8319C37.3162 17.36 40.9542 13.7478 45.4307 13.7478H318.347C322.824 13.7478 326.465 17.36 326.465 21.8319V215.528Z" fill="white"/>
</g>
<mask id="mask1_304_1886" style="mask-type:alpha" maskUnits="userSpaceOnUse" x="1" y="13" width="362" height="223">
<path fill-rule="evenodd" clip-rule="evenodd" d="M1 235.716H362.777V13.7483H1V235.716Z" fill="white"/>
</mask>
<g mask="url(#mask1_304_1886)">
<path fill-rule="evenodd" clip-rule="evenodd" d="M50.667 205.446H313.468V27.8767H50.667V205.446Z" fill="#191551"/>
</g>
<mask id="mask2_304_1886" style="mask-type:alpha" maskUnits="userSpaceOnUse" x="1" y="217" width="362" height="19">
<path fill-rule="evenodd" clip-rule="evenodd" d="M1 217.551H362.777V235.715H1V217.551Z" fill="white"/>
</mask>
<g mask="url(#mask2_304_1886)">
<path fill-rule="evenodd" clip-rule="evenodd" d="M0.999756 217.551C2.07823 227.713 12.793 235.715 25.9778 235.715H337.794C350.987 235.715 361.694 227.713 362.778 217.551H0.999756Z" fill="#EFEFEF"/>
</g>
<mask id="mask3_304_1886" style="mask-type:alpha" maskUnits="userSpaceOnUse" x="1" y="13" width="362" height="223">
<path fill-rule="evenodd" clip-rule="evenodd" d="M1 235.716H362.777V13.7483H1V235.716Z" fill="white"/>
</mask>
<g mask="url(#mask3_304_1886)">
<path fill-rule="evenodd" clip-rule="evenodd" d="M134.198 223.611H229.58V217.55H134.198V223.611Z" fill="#CCCCCC"/>
</g>
</g>
<path d="M273.015 60H97.6266C93.4145 60 90 63.4405 90 67.6845V104.751C90 108.995 93.4145 112.435 97.6266 112.435H273.015C277.227 112.435 280.642 108.995 280.642 104.751V67.6845C280.642 63.4405 277.227 60 273.015 60Z" fill="#F0F0F0" stroke="#B12DE8"/>
<path d="M160.28 93.9999V82.6399H167.848V84.2239H162.072V87.6159H166.904V89.1039H162.072V93.9999H160.28Z" fill="black"/>
<path d="M173.51 87.1519C172.827 87.1626 172.219 87.3172 171.686 87.6159C171.163 87.9146 170.79 88.3359 170.566 88.8799V93.9999H168.806V85.6319H170.438V87.5039C170.726 86.9279 171.105 86.4692 171.574 86.1279C172.043 85.7759 172.539 85.5839 173.062 85.5519C173.169 85.5519 173.254 85.5519 173.318 85.5519C173.393 85.5519 173.457 85.5572 173.51 85.5679V87.1519Z" fill="black"/>
<path d="M178.426 94.1599C177.775 94.1599 177.183 94.0479 176.65 93.8239C176.127 93.5892 175.674 93.2746 175.29 92.8799C174.906 92.4746 174.607 92.0159 174.394 91.5039C174.191 90.9812 174.09 90.4266 174.09 89.8399C174.09 89.0506 174.271 88.3306 174.634 87.6799C174.997 87.0186 175.503 86.4906 176.154 86.0959C176.805 85.6906 177.567 85.4879 178.442 85.4879C179.317 85.4879 180.069 85.6906 180.698 86.0959C181.338 86.4906 181.834 87.0132 182.186 87.6639C182.538 88.3146 182.714 89.0132 182.714 89.7599C182.714 89.8879 182.709 90.0106 182.698 90.1279C182.687 90.2346 182.677 90.3252 182.666 90.3999H175.962C175.994 90.8906 176.127 91.3226 176.362 91.6959C176.607 92.0586 176.917 92.3466 177.29 92.5599C177.663 92.7626 178.063 92.8639 178.49 92.8639C178.959 92.8639 179.402 92.7466 179.818 92.5119C180.245 92.2772 180.533 91.9679 180.682 91.5839L182.186 92.0159C182.005 92.4212 181.727 92.7892 181.354 93.1199C180.991 93.4399 180.559 93.6959 180.058 93.8879C179.557 94.0692 179.013 94.1599 178.426 94.1599ZM175.914 89.2319H180.97C180.938 88.7519 180.799 88.3306 180.554 87.9679C180.319 87.5946 180.015 87.3066 179.642 87.1039C179.279 86.8906 178.874 86.7839 178.426 86.7839C177.989 86.7839 177.583 86.8906 177.21 87.1039C176.847 87.3066 176.549 87.5946 176.314 87.9679C176.079 88.3306 175.946 88.7519 175.914 89.2319Z" fill="black"/>
<path d="M187.334 94.1599C186.79 94.1599 186.288 94.0479 185.83 93.8239C185.382 93.5892 184.992 93.2746 184.662 92.8799C184.331 92.4746 184.075 92.0106 183.894 91.4879C183.723 90.9546 183.638 90.3946 183.638 89.8079C183.638 89.2106 183.734 88.6506 183.926 88.1279C184.128 87.6052 184.406 87.1466 184.758 86.7519C185.12 86.3572 185.542 86.0479 186.022 85.8239C186.502 85.5999 187.019 85.4879 187.574 85.4879C188.214 85.4879 188.79 85.6426 189.302 85.9519C189.824 86.2612 190.235 86.6612 190.534 87.1519V85.6319H192.086V97.4079H190.326V92.4319C189.622 93.5839 188.624 94.1599 187.334 94.1599ZM187.974 92.6559C188.326 92.6559 188.646 92.5866 188.934 92.4479C189.232 92.3092 189.494 92.1226 189.718 91.8879C189.952 91.6426 190.155 91.3652 190.326 91.0559V88.8479C190.272 88.5919 190.166 88.3572 190.006 88.1439C189.856 87.9199 189.67 87.7226 189.446 87.5519C189.222 87.3706 188.982 87.2319 188.726 87.1359C188.47 87.0399 188.219 86.9919 187.974 86.9919C187.6 86.9919 187.259 87.0719 186.95 87.2319C186.64 87.3919 186.368 87.6106 186.134 87.8879C185.91 88.1546 185.734 88.4586 185.606 88.7999C185.488 89.1412 185.43 89.4932 185.43 89.8559C185.43 90.3679 185.536 90.8372 185.75 91.2639C185.974 91.6799 186.272 92.0159 186.646 92.2719C187.03 92.5279 187.472 92.6559 187.974 92.6559Z" fill="black"/>
<path d="M194.117 90.7519V85.6319H195.877V90.3999C195.877 91.1466 196.01 91.7119 196.277 92.0959C196.554 92.4692 196.954 92.6559 197.477 92.6559C197.807 92.6559 198.127 92.5866 198.437 92.4479C198.757 92.3092 199.045 92.1066 199.301 91.8399C199.567 91.5626 199.781 91.2319 199.941 90.8479V85.6319H201.701V92.0159C201.701 92.2186 201.738 92.3626 201.813 92.4479C201.887 92.5332 202.01 92.5812 202.181 92.5919V93.9999C201.999 94.0319 201.85 94.0532 201.733 94.0639C201.615 94.0746 201.503 94.0799 201.397 94.0799C201.077 94.0799 200.81 93.9946 200.597 93.8239C200.383 93.6426 200.261 93.4132 200.229 93.1359L200.197 92.3039C199.823 92.9119 199.338 93.3759 198.741 93.6959C198.143 94.0052 197.487 94.1599 196.773 94.1599C195.898 94.1599 195.237 93.8719 194.789 93.2959C194.341 92.7199 194.117 91.8719 194.117 90.7519Z" fill="black"/>
<path d="M207.739 94.1599C207.088 94.1599 206.496 94.0479 205.963 93.8239C205.44 93.5892 204.987 93.2746 204.603 92.8799C204.219 92.4746 203.92 92.0159 203.707 91.5039C203.504 90.9812 203.403 90.4266 203.403 89.8399C203.403 89.0506 203.584 88.3306 203.947 87.6799C204.309 87.0186 204.816 86.4906 205.467 86.0959C206.117 85.6906 206.88 85.4879 207.755 85.4879C208.629 85.4879 209.381 85.6906 210.011 86.0959C210.651 86.4906 211.147 87.0132 211.499 87.6639C211.851 88.3146 212.027 89.0132 212.027 89.7599C212.027 89.8879 212.021 90.0106 212.011 90.1279C212 90.2346 211.989 90.3252 211.979 90.3999H205.275C205.307 90.8906 205.44 91.3226 205.675 91.6959C205.92 92.0586 206.229 92.3466 206.603 92.5599C206.976 92.7626 207.376 92.8639 207.803 92.8639C208.272 92.8639 208.715 92.7466 209.131 92.5119C209.557 92.2772 209.845 91.9679 209.995 91.5839L211.499 92.0159C211.317 92.4212 211.04 92.7892 210.667 93.1199C210.304 93.4399 209.872 93.6959 209.371 93.8879C208.869 94.0692 208.325 94.1599 207.739 94.1599ZM205.227 89.2319H210.283C210.251 88.7519 210.112 88.3306 209.867 87.9679C209.632 87.5946 209.328 87.3066 208.955 87.1039C208.592 86.8906 208.187 86.7839 207.739 86.7839C207.301 86.7839 206.896 86.8906 206.523 87.1039C206.16 87.3066 205.861 87.5946 205.627 87.9679C205.392 88.3306 205.259 88.7519 205.227 89.2319Z" fill="black"/>
<path d="M220.966 93.9999H219.206V89.3119C219.206 88.5332 219.078 87.9626 218.822 87.5999C218.577 87.2372 218.209 87.0559 217.718 87.0559C217.377 87.0559 217.036 87.1412 216.694 87.3119C216.364 87.4826 216.065 87.7172 215.798 88.0159C215.532 88.3039 215.34 88.6399 215.222 89.0239V93.9999H213.462V85.6319H215.062V87.3119C215.276 86.9386 215.553 86.6186 215.894 86.3519C216.246 86.0746 216.641 85.8612 217.078 85.7119C217.516 85.5626 217.98 85.4879 218.47 85.4879C218.972 85.4879 219.382 85.5786 219.702 85.7599C220.033 85.9412 220.289 86.1919 220.47 86.5119C220.662 86.8212 220.79 87.1839 220.854 87.5999C220.929 88.0052 220.966 88.4372 220.966 88.8959V93.9999Z" fill="black"/>
<path d="M226.801 94.1599C226.15 94.1599 225.558 94.0479 225.025 93.8239C224.502 93.5892 224.049 93.2692 223.665 92.8639C223.281 92.4586 222.982 91.9946 222.769 91.4719C222.566 90.9492 222.465 90.3946 222.465 89.8079C222.465 89.0186 222.641 88.2986 222.993 87.6479C223.356 86.9972 223.857 86.4746 224.497 86.0799C225.148 85.6852 225.916 85.4879 226.801 85.4879C227.654 85.4879 228.396 85.6799 229.025 86.0639C229.665 86.4372 230.134 86.9386 230.433 87.5679L228.721 88.1119C228.529 87.7599 228.257 87.4879 227.905 87.2959C227.564 87.0932 227.185 86.9919 226.769 86.9919C226.3 86.9919 225.873 87.1146 225.489 87.3599C225.116 87.5946 224.817 87.9252 224.593 88.3519C224.38 88.7679 224.273 89.2532 224.273 89.8079C224.273 90.3412 224.385 90.8266 224.609 91.2639C224.833 91.6906 225.132 92.0319 225.505 92.2879C225.889 92.5332 226.316 92.6559 226.785 92.6559C227.073 92.6559 227.35 92.6079 227.617 92.5119C227.894 92.4052 228.134 92.2666 228.337 92.0959C228.54 91.9146 228.684 91.7172 228.769 91.5039L230.497 92.0159C230.316 92.4319 230.044 92.7999 229.681 93.1199C229.329 93.4399 228.908 93.6959 228.417 93.8879C227.937 94.0692 227.398 94.1599 226.801 94.1599Z" fill="black"/>
<path d="M232.078 95.9679C232.238 95.9892 232.393 96.0106 232.542 96.0319C232.702 96.0639 232.83 96.0799 232.926 96.0799C233.108 96.0799 233.262 96.0212 233.39 95.9039C233.529 95.7972 233.668 95.5946 233.806 95.2959C233.945 94.9972 234.116 94.5652 234.318 93.9999L230.878 85.6319H232.718L235.278 92.2079L237.55 85.6319H239.246L235.454 95.9359C235.337 96.2452 235.166 96.5279 234.942 96.7839C234.718 97.0506 234.441 97.2586 234.11 97.4079C233.78 97.5572 233.39 97.6319 232.942 97.6319C232.814 97.6319 232.681 97.6212 232.542 97.5999C232.404 97.5786 232.249 97.5466 232.078 97.5039V95.9679Z" fill="black"/>
<path d="M264.043 85.7999C264.043 86.0331 263.953 86.241 263.772 86.4218L257.504 92.7258C257.323 92.9075 257.117 92.9979 256.885 92.9979C256.653 92.9979 256.433 92.9075 256.227 92.7258L249.958 86.4218C249.778 86.241 249.688 86.0204 249.688 85.761C249.688 85.5015 249.778 85.2936 249.958 85.1381C250.139 84.9826 250.345 84.8913 250.578 84.866C250.81 84.8397 251.016 84.9311 251.197 85.1381L256.846 90.8191L262.496 85.1381C262.676 84.9564 262.896 84.866 263.153 84.866C263.412 84.866 263.618 84.9564 263.772 85.1381C263.953 85.3713 264.043 85.5919 264.043 85.7999Z" fill="black"/>
<path d="M273.015 123H95.6266C91.4145 123 88 126.44 88 130.684V167.751C88 171.995 91.4145 175.435 95.6266 175.435H273.015C277.227 175.435 280.642 171.995 280.642 167.751V130.684C280.642 126.44 277.227 123 273.015 123Z" fill="#F0F0F0" stroke="#B12DE8"/>
<path d="M168.616 145.224H164.84V155H163.032V145.224H159.24V143.64H168.616V145.224Z" fill="black"/>
<path d="M169.915 155V146.632H171.675V155H169.915ZM169.915 145.256V143.32H171.675V145.256H169.915Z" fill="black"/>
<path d="M186.59 155H184.83V150.312C184.83 149.533 184.702 148.963 184.446 148.6C184.19 148.237 183.817 148.056 183.326 148.056C182.836 148.056 182.377 148.243 181.95 148.616C181.534 148.979 181.241 149.453 181.07 150.04V155H179.31V150.312C179.31 149.533 179.182 148.963 178.926 148.6C178.67 148.237 178.302 148.056 177.822 148.056C177.332 148.056 176.873 148.237 176.446 148.6C176.03 148.963 175.732 149.437 175.55 150.024V155H173.79V146.632H175.39V148.312C175.721 147.725 176.153 147.277 176.686 146.968C177.23 146.648 177.849 146.488 178.542 146.488C179.236 146.488 179.78 146.669 180.174 147.032C180.58 147.395 180.83 147.848 180.926 148.392C181.289 147.773 181.732 147.304 182.254 146.984C182.788 146.653 183.396 146.488 184.078 146.488C184.569 146.488 184.98 146.579 185.31 146.76C185.641 146.941 185.897 147.192 186.078 147.512C186.26 147.821 186.388 148.184 186.462 148.6C186.548 149.005 186.59 149.437 186.59 149.896V155Z" fill="black"/>
<path d="M192.41 155.16C191.76 155.16 191.168 155.048 190.634 154.824C190.112 154.589 189.658 154.275 189.274 153.88C188.89 153.475 188.592 153.016 188.378 152.504C188.176 151.981 188.074 151.427 188.074 150.84C188.074 150.051 188.256 149.331 188.618 148.68C188.981 148.019 189.488 147.491 190.138 147.096C190.789 146.691 191.552 146.488 192.426 146.488C193.301 146.488 194.053 146.691 194.682 147.096C195.322 147.491 195.818 148.013 196.17 148.664C196.522 149.315 196.698 150.013 196.698 150.76C196.698 150.888 196.693 151.011 196.682 151.128C196.672 151.235 196.661 151.325 196.65 151.4H189.946C189.978 151.891 190.112 152.323 190.346 152.696C190.592 153.059 190.901 153.347 191.274 153.56C191.648 153.763 192.048 153.864 192.474 153.864C192.944 153.864 193.386 153.747 193.802 153.512C194.229 153.277 194.517 152.968 194.666 152.584L196.17 153.016C195.989 153.421 195.712 153.789 195.338 154.12C194.976 154.44 194.544 154.696 194.042 154.888C193.541 155.069 192.997 155.16 192.41 155.16ZM189.898 150.232H194.954C194.922 149.752 194.784 149.331 194.538 148.968C194.304 148.595 194 148.307 193.626 148.104C193.264 147.891 192.858 147.784 192.41 147.784C191.973 147.784 191.568 147.891 191.194 148.104C190.832 148.307 190.533 148.595 190.298 148.968C190.064 149.331 189.93 149.752 189.898 150.232Z" fill="black"/>
<path d="M198.15 143.32H199.91V152.584C199.91 153.011 199.974 153.283 200.102 153.4C200.23 153.517 200.39 153.576 200.582 153.576C200.795 153.576 200.993 153.555 201.174 153.512C201.366 153.469 201.531 153.416 201.67 153.352L201.926 154.744C201.67 154.851 201.366 154.941 201.014 155.016C200.662 155.091 200.347 155.128 200.07 155.128C199.473 155.128 199.003 154.963 198.662 154.632C198.321 154.291 198.15 153.821 198.15 153.224V143.32Z" fill="black"/>
<path d="M202.947 155V146.632H204.707V155H202.947ZM202.947 145.256V143.32H204.707V145.256H202.947Z" fill="black"/>
<path d="M214.326 155H212.566V150.312C212.566 149.533 212.438 148.963 212.182 148.6C211.936 148.237 211.568 148.056 211.078 148.056C210.736 148.056 210.395 148.141 210.054 148.312C209.723 148.483 209.424 148.717 209.158 149.016C208.891 149.304 208.699 149.64 208.582 150.024V155H206.822V146.632H208.422V148.312C208.635 147.939 208.912 147.619 209.254 147.352C209.606 147.075 210 146.861 210.438 146.712C210.875 146.563 211.339 146.488 211.83 146.488C212.331 146.488 212.742 146.579 213.062 146.76C213.392 146.941 213.648 147.192 213.83 147.512C214.022 147.821 214.15 148.184 214.214 148.6C214.288 149.005 214.326 149.437 214.326 149.896V155Z" fill="black"/>
<path d="M220.16 155.16C219.51 155.16 218.918 155.048 218.384 154.824C217.862 154.589 217.408 154.275 217.024 153.88C216.64 153.475 216.342 153.016 216.128 152.504C215.926 151.981 215.824 151.427 215.824 150.84C215.824 150.051 216.006 149.331 216.368 148.68C216.731 148.019 217.238 147.491 217.888 147.096C218.539 146.691 219.302 146.488 220.176 146.488C221.051 146.488 221.803 146.691 222.432 147.096C223.072 147.491 223.568 148.013 223.92 148.664C224.272 149.315 224.448 150.013 224.448 150.76C224.448 150.888 224.443 151.011 224.432 151.128C224.422 151.235 224.411 151.325 224.4 151.4H217.696C217.728 151.891 217.862 152.323 218.096 152.696C218.342 153.059 218.651 153.347 219.024 153.56C219.398 153.763 219.798 153.864 220.224 153.864C220.694 153.864 221.136 153.747 221.552 153.512C221.979 153.277 222.267 152.968 222.416 152.584L223.92 153.016C223.739 153.421 223.462 153.789 223.088 154.12C222.726 154.44 222.294 154.696 221.792 154.888C221.291 155.069 220.747 155.16 220.16 155.16ZM217.648 150.232H222.704C222.672 149.752 222.534 149.331 222.288 148.968C222.054 148.595 221.75 148.307 221.376 148.104C221.014 147.891 220.608 147.784 220.16 147.784C219.723 147.784 219.318 147.891 218.944 148.104C218.582 148.307 218.283 148.595 218.048 148.968C217.814 149.331 217.68 149.752 217.648 150.232Z" fill="black"/>
<path d="M264.043 148.8C264.043 149.033 263.953 149.241 263.772 149.422L257.504 155.726C257.323 155.908 257.117 155.998 256.885 155.998C256.653 155.998 256.433 155.908 256.227 155.726L249.958 149.422C249.778 149.241 249.688 149.02 249.688 148.761C249.688 148.502 249.778 148.294 249.958 148.138C250.139 147.983 250.345 147.891 250.578 147.866C250.81 147.84 251.016 147.931 251.197 148.138L256.846 153.819L262.496 148.138C262.676 147.956 262.896 147.866 263.153 147.866C263.412 147.866 263.618 147.956 263.772 148.138C263.953 148.371 264.043 148.592 264.043 148.8Z" fill="black"/>
<circle cx="126" cy="86" r="21" fill="#F6CD40"/>
<path d="M112.5 91H117L119.5 83L121.5 91H125L127 76L128.5 91H130.5L132 86.5L134 91H139.5" stroke="black"/>
<circle cx="113" cy="91" r="1" fill="black"/>
<circle cx="140" cy="91" r="1" fill="black"/>
</g>
<circle cx="126" cy="149" r="21" fill="#31C5FF"/>
<circle cx="126" cy="149" r="17" fill="white"/>
<mask id="mask4_304_1886" style="mask-type:alpha" maskUnits="userSpaceOnUse" x="109" y="132" width="34" height="34">
<circle cx="126.16" cy="148.842" r="16.5511" fill="white"/>
</mask>
<g mask="url(#mask4_304_1886)">
<path d="M124.936 131.678H128.001V136.582H124.936V131.678Z" fill="#C0DDE7"/>
<path d="M124.936 161.102H128.001V166.006H124.936V161.102Z" fill="#C0DDE7"/>
<path d="M143.632 147.31V150.375H138.728V147.31H143.632Z" fill="#C0DDE7"/>
<path d="M114.208 147.31V150.375H109.304L109.304 147.31H114.208Z" fill="#C0DDE7"/>
</g>
<rect x="126" y="140" width="1" height="11" fill="#191551"/>
<rect x="137" y="149" width="1" height="11" transform="rotate(90 137 149)" fill="#191551"/>
<circle cx="126.5" cy="149.5" r="2.5" fill="#191551"/>
<defs>
<filter id="filter0_d_304_1886" x="-2" y="12.7483" width="367.777" height="227.967" filterUnits="userSpaceOnUse" color-interpolation-filters="sRGB">
<feFlood flood-opacity="0" result="BackgroundImageFix"/>
<feColorMatrix in="SourceAlpha" type="matrix" values="0 0 0 0 0 0 0 0 0 0 0 0 0 0 0 0 0 0 127 0" result="hardAlpha"/>
<feOffset dy="2"/>
<feGaussianBlur stdDeviation="1.5"/>
<feColorMatrix type="matrix" values="0 0 0 0 0 0 0 0 0 0 0 0 0 0 0 0 0 0 0.15 0"/>
<feBlend mode="normal" in2="BackgroundImageFix" result="effect1_dropShadow_304_1886"/>
<feBlend mode="normal" in="SourceGraphic" in2="effect1_dropShadow_304_1886" result="shape"/>
</filter>
<clipPath id="clip0_304_1886">
<rect width="366" height="241" fill="white"/>
</clipPath>
</defs>
</svg>
