<?xml version="1.0" encoding="UTF-8"?>
<svg fill="none" viewBox="0 0 479 606" xmlns="http://www.w3.org/2000/svg">
<g clip-path="url(#c)">
<path d="m313.93 263.15-79.415-40.642c-2.915-1.515-2.531-4.133 0.844-5.855l45.654-23.696c3.376-1.722 8.44-1.929 11.356-0.413l79.414 40.642c2.916 1.515 2.532 4.132-0.844 5.854l-45.654 23.697c-3.375 1.722-8.44 1.928-11.355 0.413z" fill="#F3F3F3"/>
<path d="m378.84 219.48v-166.35l-73.659-17.29-13.581-7.0261c-3.146-1.5844-8.517-1.3777-12.124 0.4822l-12.66 6.5439h-39.285l11.586 160.57c-0.076 1.103 0.614 2.136 2.071 2.894l73.507 49.803c3.146 1.584 8.516 1.377 12.123-0.483l49.029-25.418c2.149-1.033 3.146-2.411 2.993-3.719z" fill="#7EC4F7"/>
<path d="m286 27.706c-2.301 0.0689-4.68 0.5511-6.522 1.5154l-12.66 6.544h-39.285v166.84c-0.077 1.102 0.614 2.135 2.072 2.893l85.169 43.604c1.534 0.757 3.529 1.101 5.601 1.101l0.844-167.87-35.219-54.625z" fill="#D3E9F8"/>
<path d="m315.54 249.44c2.686 1.034 6.6 0.965 9.745-0.069v-169.04h-9.745v169.11z" fill="#7EC4F7"/>
<path d="m314.77 82.331-85.169-43.604c-3.146-1.5843-2.763-4.4086 0.844-6.2685l49.029-25.418c3.607-1.8599 9.054-2.0665 12.124-0.48219l85.168 43.603c3.146 1.5843 2.686 4.4086-0.844 6.2684l-49.029 25.418c-3.607 1.929-9.054 2.1359-12.123 0.4826z" fill="#D3E9F8"/>
<path d="m375.92 53.4-49.029 25.418c-3.607 1.8601-9.054 2.067-12.123 0.4819l-85.169-43.603c-0.691-0.3445-1.228-0.7578-1.535-1.24-1.074 1.5155-0.614 3.2376 1.535 4.3397l85.169 43.604c3.145 1.5843 8.516 1.3775 12.123-0.4826l49.029-25.418c2.763-1.4465 3.607-3.4442 2.456-5.0285-0.538 0.6888-1.382 1.3777-2.456 1.9288z" fill="#F9FCFF"/>
<path d="m317.15 64.697-56.702-29.482c-1.458-0.7577-1.305-2.0666 0.384-2.962l22.941-11.917c1.688-0.8955 4.22-0.9644 5.678-0.2066l56.702 29.482c1.458 0.7577 1.305 2.0665-0.383 2.962l-22.942 11.917c-1.688 0.8266-4.22 0.9644-5.678 0.2066z" fill="#7EC4F7"/>
<path d="m286.53 36.523-3.299-1.7221c-0.23-0.1378-0.153-0.2755 0.077-0.4134l3.145-1.6531c0.231-0.1378 0.614-0.1378 0.768 0l3.299 1.722c0.231 0.1378 0.154 0.2756-0.076 0.4133l-3.146 1.6533c-0.231 0.0689-0.538 0.0689-0.768 0z" fill="#D3E9F8"/>
<path d="m297.51 42.172-3.3-1.722c-0.23-0.1379-0.153-0.2756 0.077-0.4134l3.146-1.6532c0.23-0.1378 0.614-0.1378 0.767 0l3.299 1.7221c0.23 0.1378 0.154 0.2756-0.077 0.4133l-3.145 1.6532c-0.23 0.0689-0.537 0.0689-0.767 0z" fill="#D3E9F8"/>
<path d="m308.48 47.82-3.298-1.7222c-0.231-0.1377-0.154-0.2755 0.076-0.4133l3.146-1.6532c0.23-0.1377 0.614-0.1377 0.767 0l3.3 1.7222c0.23 0.1377 0.153 0.2755-0.077 0.4132l-3.146 1.6533c-0.23 0.0688-0.537 0.1377-0.768 0z" fill="#D3E9F8"/>
<path d="m319.45 53.469-3.3-1.7221c-0.23-0.1377-0.153-0.2755 0.077-0.4133l3.146-1.6532c0.231-0.1378 0.614-0.1378 0.768 0l3.299 1.7221c0.23 0.1378 0.153 0.2755-0.077 0.4133l-3.146 1.6532c-0.23 0.1378-0.537 0.1378-0.767 0z" fill="#D3E9F8"/>
<path d="m260.45 35.146c0.153-0.0689 0.307-0.1378 0.384-0.2067l22.941-11.917c1.688-0.8955 4.22-0.9644 5.678-0.2066l56.626 29.482c1.381-0.8955 1.381-2.0665 0.076-2.7554l-56.702-29.482c-1.458-0.7578-3.99-0.6888-5.678 0.2066l-22.941 11.917c-1.689 0.8955-1.842 2.2042-0.384 2.962z" fill="#44A6E2"/>
<path d="m336.48 115.33 32.225-16.602c1.842-0.9645 3.3-3.4436 3.3-5.6485v-10.332c0-2.2041-1.458-3.1687-3.3-2.2041l-32.225 16.601c-1.842 0.9645-3.3 3.444-3.3 5.649v10.332c0 2.136 1.458 3.1 3.3 2.205z" fill="#203E79"/>
<path d="m370.32 80.195c0.537 0.4137 0.844 1.1714 0.844 2.1359v10.332c0 2.2041-1.458 4.684-3.3 5.6485l-32.225 16.601c-0.614 0.276-1.151 0.414-1.612 0.345 0.614 0.482 1.458 0.619 2.456 0.069l32.225-16.602c1.842-0.9645 3.3-3.4437 3.3-5.6485v-10.332c0-1.4464-0.69-2.4109-1.688-2.5488z" fill="#fff"/>
<path d="m346.15 104.1 2.993-1.516c0.384-0.207 0.691-0.758 0.691-1.24v-2.8247c0-0.4819-0.307-0.6887-0.691-0.4819l-2.993 1.5154c-0.383 0.2068-0.69 0.7572-0.69 1.2402v2.824c0 0.414 0.307 0.62 0.69 0.483z" fill="#3A6DAA"/>
<path d="m356.05 98.932 2.992-1.5154c0.384-0.2068 0.691-0.7577 0.691-1.2403v-2.8239c0-0.4819-0.307-0.6887-0.691-0.4819l-2.992 1.5154c-0.384 0.2061-0.691 0.7577-0.691 1.2396v2.8246c0 0.4819 0.307 0.6887 0.691 0.4819z" fill="#fff"/>
<path d="m336.48 190.06 32.225-16.601c1.842-0.964 3.3-3.444 3.3-5.648v-10.333c0-2.204-1.458-3.168-3.3-2.204l-32.225 16.601c-1.842 0.964-3.3 3.444-3.3 5.648v10.333c0 2.204 1.458 3.168 3.3 2.204z" fill="#203E79"/>
<path d="m370.32 155c0.537 0.414 0.844 1.172 0.844 2.136v10.332c0 2.205-1.458 4.685-3.3 5.649l-32.225 16.601c-0.614 0.275-1.151 0.413-1.612 0.344 0.614 0.483 1.458 0.621 2.456 0.069l32.225-16.601c1.842-0.964 3.3-3.444 3.3-5.648v-10.333c0-1.515-0.69-2.411-1.688-2.549z" fill="#fff"/>
<path d="m346.15 178.84 2.993-1.515c0.384-0.207 0.691-0.758 0.691-1.24v-2.824c0-0.482-0.307-0.689-0.691-0.482l-2.993 1.515c-0.383 0.207-0.69 0.758-0.69 1.24v2.824c0 0.482 0.307 0.689 0.69 0.482z" fill="#3A6DAA"/>
<path d="m356.05 173.74 2.992-1.515c0.384-0.207 0.691-0.759 0.691-1.24v-2.824c0-0.483-0.307-0.69-0.691-0.483l-2.992 1.515c-0.384 0.207-0.691 0.758-0.691 1.241v2.824c0 0.482 0.307 0.688 0.691 0.482z" fill="#fff"/>
<path d="m336.48 227.47 32.225-16.601c1.842-0.964 3.3-3.444 3.3-5.648v-10.333c0-2.204-1.458-3.169-3.3-2.204l-32.225 16.601c-1.842 0.964-3.3 3.444-3.3 5.648v10.333c0 2.135 1.458 3.169 3.3 2.204z" fill="#203E79"/>
<path d="m370.32 192.41c0.537 0.414 0.844 1.172 0.844 2.136v10.333c0 2.204-1.458 4.684-3.3 5.648l-32.225 16.601c-0.614 0.276-1.151 0.414-1.612 0.345 0.614 0.481 1.458 0.619 2.456 0.069l32.225-16.602c1.842-0.964 3.3-3.444 3.3-5.648v-10.333c0-1.515-0.69-2.411-1.688-2.549z" fill="#fff"/>
<path d="m346.15 216.24 2.993-1.515c0.384-0.207 0.691-0.758 0.691-1.24v-2.824c0-0.483-0.307-0.689-0.691-0.483l-2.993 1.516c-0.383 0.206-0.69 0.758-0.69 1.24v2.824c0 0.482 0.307 0.689 0.69 0.482z" fill="#3A6DAA"/>
<path d="m356.05 211.14 2.992-1.515c0.384-0.207 0.691-0.758 0.691-1.24v-2.894c0-0.482-0.307-0.688-0.691-0.482l-2.992 1.516c-0.384 0.207-0.691 0.758-0.691 1.239v2.825c0 0.551 0.307 0.758 0.691 0.551z" fill="#fff"/>
<path d="m336.48 152.73 32.225-16.6c1.842-0.965 3.3-3.445 3.3-5.649v-10.332c0-2.205-1.458-3.169-3.3-2.205l-32.225 16.601c-1.842 0.964-3.3 3.444-3.3 5.649v10.332c0 2.135 1.458 3.1 3.3 2.204z" fill="#203E79"/>
<path d="m370.32 117.6c0.537 0.413 0.844 1.17 0.844 2.135v10.332c0 2.205-1.458 4.684-3.3 5.649l-32.225 16.601c-0.614 0.275-1.151 0.413-1.612 0.344 0.614 0.482 1.458 0.62 2.456 0.069l32.225-16.601c1.842-0.964 3.3-3.444 3.3-5.648v-10.333c0-1.447-0.69-2.41-1.688-2.548z" fill="#fff"/>
<path d="m346.15 141.43 2.993-1.515c0.384-0.207 0.691-0.758 0.691-1.24v-2.824c0-0.482-0.307-0.689-0.691-0.482l-2.993 1.515c-0.383 0.207-0.69 0.758-0.69 1.24v2.824c0 0.482 0.307 0.689 0.69 0.482z" fill="#3A6DAA"/>
<path d="m356.05 136.34 2.992-1.516c0.384-0.206 0.691-0.757 0.691-1.239v-2.825c0-0.482-0.307-0.689-0.691-0.482l-2.992 1.516c-0.384 0.206-0.691 0.757-0.691 1.24v2.824c0 0.482 0.307 0.689 0.691 0.482z" fill="#fff"/>
<path d="m308.55 104.72-74.35-38.575c-1.688-0.8954-2.992-3.1686-2.992-5.1662v-12.744c0-1.9976 1.381-2.8931 2.992-2.0665l74.35 38.575c1.688 0.8955 2.993 3.1686 2.993 5.1659v12.743c0 1.998-1.381 2.894-2.993 2.067z" fill="#4164C4"/>
<path d="m306.41 100.24-70.13-36.371c-0.844-0.4134-1.535-1.5843-1.535-2.6176v-9.506c0-1.0332 0.691-1.4466 1.535-1.0332l70.13 36.371c0.844 0.4129 1.534 1.5843 1.534 2.6178v9.5748c0 0.9641-0.69 1.3771-1.534 0.9641z" fill="#5070E2"/>
<path d="m250.93 66.626-10.435-5.4418c-0.843-0.4133-1.457-1.5843-1.457-2.5487s0.689-1.4466 1.457-1.0333l10.435 5.4418c0.844 0.4133 1.458 1.5844 1.458 2.5488 0 1.0332-0.69 1.4465-1.458 1.0332z" fill="#5B95FF"/>
<path d="m259.83 69.519c0 0.9644-0.767 1.3777-1.688 0.8955-0.921-0.4821-1.689-1.6531-1.689-2.6864 0-0.9644 0.768-1.3777 1.689-0.8955s1.688 1.6532 1.688 2.6864z" fill="#03E59F"/>
<path d="m265.89 72.618c0 0.9644-0.767 1.3777-1.688 0.8955s-1.688-1.6532-1.688-2.6865c0-0.9644 0.767-1.3777 1.688-0.8955 0.921 0.5511 1.688 1.7221 1.688 2.6865z" fill="#03E59F"/>
<path d="m271.96 75.787c0 0.9644-0.768 1.3775-1.688 0.8955-0.921-0.4822-1.688-1.6532-1.688-2.6864 0-0.9644 0.767-1.3777 1.688-0.8955 0.92 0.4821 1.688 1.6532 1.688 2.6864z" fill="#03E59F"/>
<path d="m277.94 78.887c0 0.9645-0.766 1.3775-1.687 0.8956s-1.688-1.6533-1.688-2.6867c0-0.9642 0.767-1.3775 1.688-0.8953 0.921 0.551 1.687 1.7219 1.687 2.6864z" fill="#203E79"/>
<path d="m303.41 94.937-3.529-1.86c-0.538-0.2751-0.921-1.0328-0.921-1.6533v-3.3747c0-0.6205 0.46-0.8956 0.921-0.6205l3.529 1.8601c0.537 0.2757 0.92 1.0334 0.92 1.6532v3.3755c0.077 0.5508-0.383 0.8955-0.92 0.6197z" fill="#203E79"/>
<path d="m308.55 127.18-74.35-38.576c-1.688-0.8955-2.992-3.1686-2.992-5.1666v-12.743c0-1.9977 1.381-2.8932 2.992-2.0665l74.35 38.575c1.688 0.896 2.993 3.169 2.993 5.166v12.744c0 1.998-1.381 2.893-2.993 2.067z" fill="#4164C4"/>
<path d="m306.41 122.7-70.13-36.37c-0.844-0.4137-1.535-1.5843-1.535-2.6178v-9.5749c0-1.0332 0.691-1.4465 1.535-1.0332l70.13 36.371c0.844 0.412 1.534 1.584 1.534 2.617v9.575c0 1.033-0.69 1.447-1.534 1.033z" fill="#5070E2"/>
<path d="m250.93 89.082-10.435-5.4417c-0.843-0.413-1.457-1.5843-1.457-2.5488 0-0.9638 0.689-1.4465 1.457-1.0328l10.435 5.4417c0.844 0.4129 1.458 1.5843 1.458 2.5488 0 1.0328-0.69 1.4464-1.458 1.0328z" fill="#5B95FF"/>
<path d="m259.83 91.975c0 0.9638-0.767 1.3774-1.688 0.8955-0.921-0.4826-1.689-1.6532-1.689-2.6867 0-0.9645 0.768-1.3775 1.689-0.8956s1.688 1.6533 1.688 2.6868z" fill="#03E59F"/>
<path d="m265.89 95.075c0 0.9645-0.767 1.3774-1.688 0.8955-0.921-0.4826-1.688-1.6532-1.688-2.6867 0-0.9645 0.767-1.3774 1.688-0.8955 0.921 0.4826 1.688 1.7221 1.688 2.6867z" fill="#203E79"/>
<path d="m271.43 99.258c0.66-0.3426 0.646-1.4748-0.031-2.5293-0.679-1.0545-1.764-1.6315-2.424-1.2889-0.661 0.3425-0.647 1.4747 0.031 2.5292 0.679 1.0538 1.763 1.6308 2.424 1.289z" fill="#03E59F"/>
<path d="m277.47 102.36c0.66-0.342 0.646-1.474-0.032-2.5284-0.678-1.0545-1.763-1.6314-2.424-1.2889-0.66 0.3426-0.646 1.4743 0.032 2.5283 0.678 1.055 1.763 1.632 2.424 1.289z" fill="#203E79"/>
<path d="m303.41 117.39-3.529-1.86c-0.538-0.275-0.921-1.033-0.921-1.653v-3.375c0-0.621 0.46-0.896 0.921-0.621l3.529 1.861c0.537 0.275 0.92 1.033 0.92 1.653v3.375c0.077 0.551-0.383 0.896-0.92 0.62z" fill="#FFD22E"/>
<path d="m308.55 149.63-74.35-38.575c-1.688-0.896-2.992-3.169-2.992-5.167v-12.743c0-1.9972 1.381-2.8928 2.992-2.0662l74.35 38.575c1.688 0.895 2.993 3.168 2.993 5.166v12.743c0 1.998-1.381 2.894-2.993 2.067z" fill="#4164C4"/>
<path d="m306.41 145.15-70.13-36.371c-0.844-0.414-1.535-1.585-1.535-2.618v-9.5749c0-1.0334 0.691-1.4464 1.535-1.0334l70.13 36.371c0.844 0.413 1.534 1.584 1.534 2.617v9.575c0 1.034-0.69 1.447-1.534 1.034z" fill="#5070E2"/>
<path d="m250.93 111.54-10.435-5.442c-0.843-0.413-1.457-1.584-1.457-2.549 0-0.964 0.689-1.446 1.457-1.033l10.435 5.442c0.844 0.413 1.458 1.584 1.458 2.549 0 1.033-0.69 1.446-1.458 1.033z" fill="#5B95FF"/>
<path d="m259.83 114.36c0 0.965-0.767 1.378-1.688 0.896-0.921-0.483-1.689-1.654-1.689-2.687 0-1.034 0.768-1.378 1.689-0.896 0.921 0.552 1.688 1.723 1.688 2.687z" fill="#FF65AB"/>
<path d="m265.89 117.53c0 0.964-0.767 1.377-1.688 0.895s-1.688-1.653-1.688-2.686c0-0.965 0.767-1.378 1.688-0.896 0.921 0.483 1.688 1.722 1.688 2.687z" fill="#FF65AB"/>
<path d="m271.96 120.63c0 0.965-0.768 1.378-1.688 0.896-0.921-0.482-1.688-1.653-1.688-2.687 0-0.964 0.767-1.377 1.688-0.895 0.92 0.551 1.688 1.722 1.688 2.686z" fill="#03E59F"/>
<path d="m277.94 123.8c0 0.965-0.766 1.378-1.687 0.896s-1.688-1.654-1.688-2.687c0-0.964 0.767-1.377 1.688-0.896 0.921 0.483 1.687 1.723 1.687 2.687z" fill="#203E79"/>
<path d="m303.41 139.85-3.529-1.86c-0.538-0.275-0.921-1.033-0.921-1.653v-3.375c0-0.621 0.46-0.896 0.921-0.621l3.529 1.861c0.537 0.275 0.92 1.033 0.92 1.653v3.375c0.077 0.551-0.383 0.896-0.92 0.62z" fill="#203E79"/>
<path d="m308.55 172.09-74.35-38.575c-1.688-0.896-2.992-3.169-2.992-5.167v-12.743c0-1.997 1.381-2.893 2.992-2.066l74.35 38.575c1.688 0.895 2.993 3.168 2.993 5.166v12.743c0 1.998-1.381 2.894-2.993 2.067z" fill="#4164C4"/>
<path d="m306.41 166.92-70.13-36.37c-0.844-0.414-1.535-1.585-1.535-2.618v-9.575c0-1.033 0.691-1.446 1.535-1.033l70.13 36.371c0.844 0.413 1.534 1.584 1.534 2.617v9.575c0 1.033-0.69 1.447-1.534 1.033z" fill="#5070E2"/>
<path d="m250.93 133.99-10.435-5.442c-0.843-0.413-1.457-1.584-1.457-2.549 0-0.964 0.689-1.446 1.457-1.032l10.435 5.441c0.844 0.413 1.458 1.585 1.458 2.549 0 1.033-0.69 1.447-1.458 1.033z" fill="#5B95FF"/>
<path d="m259.83 136.82c0 0.965-0.767 1.378-1.688 0.896-0.921-0.483-1.689-1.653-1.689-2.687 0-0.964 0.768-1.377 1.689-0.895 0.921 0.55 1.688 1.722 1.688 2.686z" fill="#203E79"/>
<path d="m265.89 139.99c0 0.964-0.767 1.377-1.688 0.895s-1.688-1.653-1.688-2.686c0-0.965 0.767-1.378 1.688-0.896 0.921 0.483 1.688 1.722 1.688 2.687z" fill="#203E79"/>
<path d="m271.96 143.09c0 0.965-0.768 1.378-1.688 0.896-0.921-0.483-1.688-1.653-1.688-2.687 0-0.964 0.767-1.377 1.688-0.895 0.92 0.482 1.688 1.722 1.688 2.686z" fill="#03E59F"/>
<path d="m277.47 147.27c0.66-0.342 0.646-1.474-0.032-2.528-0.678-1.055-1.763-1.632-2.424-1.289-0.66 0.342-0.646 1.475 0.032 2.528 0.678 1.055 1.763 1.632 2.424 1.289z" fill="#203E79"/>
<path d="m303.41 162.3-3.529-1.86c-0.538-0.275-0.921-1.033-0.921-1.653v-3.375c0-0.62 0.46-0.896 0.921-0.62l3.529 1.86c0.537 0.275 0.92 1.033 0.92 1.653v3.375c0.077 0.551-0.383 0.827-0.92 0.62z" fill="#FFD22E"/>
<path d="m308.55 194.54-74.35-38.575c-1.688-0.896-2.992-3.169-2.992-5.167v-12.743c0-1.997 1.381-2.893 2.992-2.066l74.35 38.575c1.688 0.895 2.993 3.168 2.993 5.166v12.743c0 1.998-1.381 2.894-2.993 2.067z" fill="#4164C4"/>
<path d="m306.41 189.38-70.13-36.37c-0.844-0.413-1.535-1.584-1.535-2.617v-9.575c0-1.034 0.691-1.447 1.535-1.034l70.13 36.371c0.844 0.413 1.534 1.585 1.534 2.617v9.575c0 1.033-0.69 1.447-1.534 1.033z" fill="#5070E2"/>
<path d="m250.93 156.45-10.435-5.442c-0.843-0.413-1.457-1.584-1.457-2.549 0-0.964 0.689-1.446 1.457-1.032l10.435 5.441c0.844 0.413 1.458 1.585 1.458 2.549 0 1.033-0.69 1.447-1.458 1.033z" fill="#5B95FF"/>
<path d="m259.83 159.28c0 0.964-0.767 1.377-1.688 0.895s-1.689-1.653-1.689-2.686c0-1.034 0.768-1.378 1.689-0.896 0.921 0.551 1.688 1.722 1.688 2.687z" fill="#203E79"/>
<path d="m265.89 162.44c0 0.965-0.767 1.378-1.688 0.896-0.921-0.483-1.688-1.654-1.688-2.687 0-1.034 0.767-1.378 1.688-0.896 0.921 0.483 1.688 1.723 1.688 2.687z" fill="#03E59F"/>
<path d="m271.96 165.54c0 0.964-0.768 1.377-1.688 0.896-0.921-0.483-1.688-1.654-1.688-2.687 0-0.965 0.767-1.378 1.688-0.896 0.92 0.552 1.688 1.722 1.688 2.687z" fill="#FF65AB"/>
<path d="m277.94 168.71c0 0.965-0.766 1.378-1.687 0.896-0.921-0.483-1.688-1.653-1.688-2.687 0-0.964 0.767-1.377 1.688-0.895s1.687 1.722 1.687 2.686z" fill="#03E59F"/>
<path d="m303.41 184.69-3.529-1.86c-0.538-0.275-0.921-1.033-0.921-1.653v-3.237c0-0.621 0.46-0.896 0.921-0.621l3.529 1.861c0.537 0.275 0.92 1.033 0.92 1.653v3.375c0.077 0.482-0.383 0.758-0.92 0.482z" fill="#FFD22E"/>
<path d="m308.55 217-74.35-38.575c-1.688-0.895-2.992-3.169-2.992-5.167v-12.743c0-1.997 1.381-2.893 2.992-2.066l74.35 38.575c1.688 0.895 2.993 3.168 2.993 5.166v12.743c0 1.998-1.381 2.894-2.993 2.067z" fill="#4164C4"/>
<path d="m306.41 211.83-70.13-36.371c-0.844-0.413-1.535-1.584-1.535-2.617v-9.575c0-1.034 0.691-1.447 1.535-1.034l70.13 36.371c0.844 0.413 1.534 1.585 1.534 2.617v9.575c0 0.965-0.69 1.447-1.534 1.034z" fill="#5070E2"/>
<path d="m250.93 178.91-10.435-5.442c-0.843-0.413-1.457-1.584-1.457-2.549 0-0.964 0.689-1.446 1.457-1.032l10.435 5.441c0.844 0.413 1.458 1.585 1.458 2.549 0 1.033-0.69 1.447-1.458 1.033z" fill="#5B95FF"/>
<path d="m259.83 181.73c0 0.965-0.767 1.378-1.688 0.896-0.921-0.483-1.689-1.653-1.689-2.687 0-0.964 0.768-1.377 1.689-0.895 0.921 0.551 1.688 1.722 1.688 2.686z" fill="#203E79"/>
<path d="m265.89 184.9c0 0.965-0.767 1.378-1.688 0.896-0.921-0.483-1.688-1.653-1.688-2.687 0-0.964 0.767-1.377 1.688-0.895s1.688 1.722 1.688 2.686z" fill="#203E79"/>
<path d="m271.96 188c0 0.965-0.768 1.377-1.688 0.896-0.921-0.483-1.688-1.654-1.688-2.687 0-0.965 0.767-1.378 1.688-0.896 0.92 0.552 1.688 1.722 1.688 2.687z" fill="#03E59F"/>
<path d="m277.94 191.17c0 0.965-0.766 1.378-1.687 0.896s-1.688-1.653-1.688-2.687c0-0.964 0.767-1.377 1.688-0.895s1.687 1.722 1.687 2.686z" fill="#203E79"/>
<path d="m303.41 207.15-3.529-1.86c-0.538-0.275-0.921-1.032-0.921-1.653v-3.375c0-0.62 0.46-0.895 0.921-0.62l3.529 1.86c0.537 0.276 0.92 1.033 0.92 1.653v3.376c0.077 0.619-0.383 0.895-0.92 0.619z" fill="#203E79"/>
<path d="m308.55 239.46-74.35-38.575c-1.688-0.895-2.992-3.168-2.992-5.166v-12.744c0-1.997 1.381-2.893 2.992-2.066l74.35 38.575c1.688 0.895 2.993 3.169 2.993 5.166v12.743c0 1.998-1.381 2.894-2.993 2.067z" fill="#4164C4"/>
<path d="m306.41 234.29-70.13-36.371c-0.844-0.413-1.535-1.584-1.535-2.617v-9.575c0-1.034 0.691-1.447 1.535-1.034l70.13 36.371c0.844 0.413 1.534 1.585 1.534 2.617v9.575c0 0.965-0.69 1.447-1.534 1.034z" fill="#5070E2"/>
<path d="m250.93 201.36-10.435-5.442c-0.843-0.413-1.457-1.584-1.457-2.548 0-0.965 0.689-1.447 1.457-1.033l10.435 5.441c0.844 0.413 1.458 1.585 1.458 2.549 0 1.033-0.69 1.447-1.458 1.033z" fill="#5B95FF"/>
<path d="m298.96 224.92c0 1.86-1.458 2.617-3.223 1.653-1.765-0.896-3.223-3.169-3.223-5.029 0-1.859 1.458-2.618 3.223-1.653 1.765 0.895 3.223 3.169 3.223 5.029z" fill="#fff"/>
<path d="m259.83 204.46c0 0.964-0.767 1.378-1.688 0.895-0.921-0.482-1.689-1.653-1.689-2.686 0-0.964 0.768-1.378 1.689-0.896 0.921 0.551 1.688 1.723 1.688 2.687z" fill="#203E79"/>
<path d="m265.89 207.63c0 0.965-0.767 1.379-1.688 0.896-0.921-0.482-1.688-1.653-1.688-2.686 0-0.965 0.767-1.378 1.688-0.896s1.688 1.723 1.688 2.686z" fill="#03E59F"/>
<path d="m271.4 211.75c0.66-0.342 0.646-1.475-0.031-2.528-0.679-1.055-1.764-1.632-2.425-1.289-0.66 0.342-0.646 1.474 0.032 2.528 0.678 1.055 1.763 1.632 2.424 1.289z" fill="#203E79"/>
<path d="m201.14 382.11-107.65-55.795c-3.7597-1.93-3.2993-5.305 1.0743-7.578 4.2967-2.273 10.819-2.48 14.579-0.551l107.65 55.796c3.76 1.929 3.299 5.304-1.074 7.577-4.297 2.204-10.819 2.48-14.578 0.551z" fill="#F3F3F3"/>
<path d="m228.91 342.99-0.69-1.033 19.335-10.195c2.379-1.24 5.371-1.24 7.749 0l15.96 8.542-0.691 1.033-15.958-8.542c-1.996-1.033-4.451-1.102-6.446 0l-19.259 10.195z" fill="#D4ECFF"/>
<path d="m228.6 327.7c-0.46 0-0.844-0.207-1.151-0.551-0.384-0.551-0.153-1.24 0.461-1.585l19.336-10.194c2.608-1.378 5.831-1.378 8.362 0l15.96 8.542c0.614 0.344 0.844 1.032 0.46 1.584-0.383 0.551-1.151 0.758-1.764 0.413l-15.959-8.541c-1.765-0.965-3.991-0.965-5.756 0l-19.335 10.194c-0.153 0.069-0.384 0.138-0.614 0.138z" fill="#7EC4F7"/>
<path d="m220.62 86.534-115.94-60.136c-3.836-1.9977-7.2889-1.9977-9.8976-0.5511l-14.578 7.5773 9.7445 1.6531c0 0.4822-0.0767 0.8955-0.0767 1.3777v245.57c0 9.781 6.5987 21.077 14.732 25.28l114.32 59.308c-1.074 2.963-3.222 9.093-3.222 9.093l14.195-7.439c3.299-1.516 5.371-5.373 5.371-10.884v-245.5c0.153-9.781-6.446-21.078-14.656-25.348z" fill="#7EC4F7"/>
<path d="m231.52 296.35c-0.46 0-0.921-0.207-1.151-0.551-0.384-0.551-0.153-1.24 0.461-1.584l48.875-25.281c0.461-0.207 0.461-0.62 0.461-0.757 0-0.138-0.077-0.551-0.461-0.758l-25.857-13.363c-3.76-1.929-6.062-5.512-6.062-9.438v-76.461c0-3.375 1.842-6.475 4.911-8.404l3.913-2.342c0.614-0.344 1.381-0.207 1.765 0.276 0.384 0.551 0.23 1.24-0.307 1.584l-3.913 2.342c-2.379 1.447-3.837 3.858-3.837 6.476v76.46c0 3.031 1.842 5.855 4.757 7.371l25.858 13.364c1.151 0.551 1.765 1.584 1.765 2.755s-0.691 2.204-1.765 2.755l-48.876 25.28c-0.076 0.207-0.307 0.276-0.537 0.276z" fill="#7EC4F7"/>
<path d="m89.954 282.02c0 9.782 6.5987 21.078 14.732 25.28l114.33 59.309c-1.074 2.963-3.222 9.093-3.222 9.093l14.194-7.44c3.299-1.515 5.371-5.372 5.371-10.883v-245.5c0-5.098-1.841-10.608-4.68-15.292l-140.72 72.948v112.49z" fill="#58B4ED"/>
<path d="m206.04 375.02-116.01-60.135c-8.1333-4.202-14.732-15.568-14.732-25.281v-245.57c0-9.7815 6.5986-14.259 14.732-9.9881l115.94 60.136c8.134 4.2021 14.732 15.568 14.732 25.28v245.57c0.077 9.782-6.522 14.259-14.655 9.988z" fill="#D4ECFF"/>
<path d="m286.15 326.39c-0.46 0-0.844-0.206-1.151-0.551-0.383-0.551-0.153-1.239 0.461-1.584l50.181-26.589c0.384-0.206 0.46-0.551 0.46-0.689s-0.076-0.482-0.46-0.689l-13.658-7.439c-0.614-0.344-0.844-1.033-0.46-1.585 0.384-0.551 1.15-0.757 1.764-0.413l13.658 7.371c1.074 0.551 1.688 1.584 1.688 2.686s-0.614 2.136-1.688 2.687l-50.181 26.589c-0.153 0.206-0.383 0.206-0.614 0.206z" fill="#7EC4F7"/>
<path d="m295.97 346.84-17.418-9.093-17.417 9.093 17.417 9.024 17.418-9.024z" fill="#F3F3F3"/>
<path d="m278.55 347.46v-10.195l20.794-10.746v10.126l-20.794 10.815z" fill="#30C2B6"/>
<path d="m278.55 337.27-20.793-10.746v10.126l20.793 10.815v-10.195z" fill="#12DC96"/>
<path d="m299.35 326.52-20.794-10.815-20.793 10.815 20.793 10.746 20.794-10.746z" fill="#11EB98"/>
<path d="m343.54 312.95 23.402-12.124c1.458-0.757 1.227-2.066-0.383-2.893l-22.635-11.71c-1.689-0.826-4.144-0.964-5.602-0.206l-23.402 12.123c-1.458 0.758-1.227 2.067 0.383 2.893l22.635 11.71c1.612 0.896 4.144 0.965 5.602 0.207z" fill="#203E79" opacity=".1"/>
<path d="m307.1 288.91v-9.092h22.712l7.825-4.065c1.765-0.964 4.911-0.826 7.06 0.275l7.289 3.79h22.712v9.367c0.077 0.62-0.307 1.24-1.228 1.723l-29.31 15.223c-1.765 0.964-4.911 0.827-7.059-0.276l-28.314-14.672c-1.151-0.758-1.764-1.585-1.687-2.273z" fill="#5B95FF"/>
<path d="m340.93 275.14c1.304 0 2.686 0.344 3.76 0.895l7.289 3.789h22.712v9.368c0.077 0.62-0.307 1.24-1.228 1.723l-29.31 15.223c-0.844 0.482-2.072 0.62-3.223 0.62v-31.618z" fill="#7EC4F7"/>
<path d="m372.09 279.75h2.532v9.368c0.077 0.62-0.307 1.24-1.228 1.723l-1.381 0.688v-11.779h0.077z" fill="#7EC4F7"/>
<path d="m343.7 306.2c-1.534 0.619-3.76 0.55-5.601-0.069v-10.609h5.601v10.678z" fill="#7BB1FF"/>
<path d="m344.16 296.7 29.31-15.223c1.764-0.964 1.611-2.548-0.537-3.651l-28.313-14.672c-2.072-1.102-5.218-1.171-7.059-0.275l-29.311 15.223c-1.764 0.964-1.61 2.548 0.537 3.651l28.314 14.672c2.148 1.102 5.294 1.171 7.059 0.275z" fill="#D3E9F8"/>
<path d="m343.62 293.94 24.552-12.743c1.535-0.758 1.305-2.136-0.46-3.032l-23.709-12.329c-1.765-0.896-4.374-1.034-5.908-0.207l-24.553 12.743c-1.535 0.758-1.304 2.136 0.461 3.031l23.708 12.33c1.765 0.896 4.451 1.034 5.909 0.207z" fill="#3A81E8"/>
<path d="m317.92 291.26c0 0.689 0.537 1.516 1.151 1.861 0.691 0.344 1.151 0.069 1.151-0.62 0-0.69-0.537-1.516-1.151-1.86-0.614-0.276-1.151 0-1.151 0.619z" fill="#fff"/>
<path d="m314.08 289.33c0 0.689 0.537 1.516 1.151 1.86 0.69 0.344 1.151 0.069 1.151-0.62s-0.538-1.516-1.151-1.86c-0.614-0.344-1.151-0.069-1.151 0.62z" fill="#fff"/>
<path d="m310.32 287.33c0 0.689 0.537 1.516 1.151 1.86 0.691 0.344 1.151 0.069 1.151-0.619 0-0.69-0.537-1.517-1.151-1.861-0.69-0.344-1.151-0.068-1.151 0.62z" fill="#fff"/>
<path d="m307.1 274.38v-9.092h22.712l7.825-4.064c1.765-0.965 4.911-0.827 7.06 0.275l7.289 3.789h22.712v9.368c0.077 0.62-0.307 1.239-1.228 1.722l-29.31 15.223c-1.765 0.965-4.911 0.827-7.059-0.275l-28.314-14.673c-1.151-0.758-1.764-1.515-1.687-2.273z" fill="#5B95FF"/>
<path d="m340.93 260.6c1.304 0 2.686 0.345 3.76 0.896l7.289 3.789h22.712v9.368c0.077 0.62-0.307 1.239-1.228 1.722l-29.31 15.223c-0.844 0.482-2.072 0.62-3.223 0.62v-31.618z" fill="#7EC4F7"/>
<path d="m372.09 265.29h2.532v9.368c0.077 0.619-0.307 1.239-1.228 1.722l-1.381 0.689v-11.779h0.077z" fill="#7EC4F7"/>
<path d="m343.7 291.67c-1.534 0.62-3.76 0.551-5.601-0.069v-10.608h5.601v10.677z" fill="#7BB1FF"/>
<path d="m344.16 282.16 29.31-15.223c1.764-0.965 1.611-2.549-0.537-3.651l-28.313-14.673c-2.072-1.102-5.218-1.17-7.059-0.275l-29.311 15.223c-1.764 0.965-1.61 2.549 0.537 3.651l28.314 14.672c2.148 1.103 5.294 1.24 7.059 0.276z" fill="#D3E9F8"/>
<path d="m343.62 279.41 24.552-12.744c1.535-0.757 1.305-2.135-0.46-3.03l-23.709-12.331c-1.765-0.896-4.374-1.033-5.908-0.207l-24.553 12.744c-1.535 0.757-1.304 2.136 0.461 3.031l23.708 12.33c1.765 0.895 4.451 1.033 5.909 0.207z" fill="#3A81E8"/>
<path d="m317.92 276.79c0 0.688 0.537 1.515 1.151 1.86 0.691 0.344 1.151 0.069 1.151-0.62s-0.537-1.515-1.151-1.86-1.151-0.069-1.151 0.62z" fill="#fff"/>
<path d="m314.08 274.79c0 0.688 0.537 1.515 1.151 1.859 0.69 0.345 1.151 0.069 1.151-0.62s-0.538-1.515-1.151-1.859c-0.614-0.345-1.151-0.069-1.151 0.62z" fill="#fff"/>
<path d="m310.32 272.8c0 0.688 0.537 1.515 1.151 1.86 0.691 0.344 1.151 0.069 1.151-0.62s-0.537-1.515-1.151-1.86c-0.69-0.276-1.151 0-1.151 0.62z" fill="#fff"/>
<path d="m307.1 259.84v-9.092h22.712l7.825-4.064c1.765-0.965 4.911-0.827 7.06 0.275l7.289 3.789h22.712v9.368c0.077 0.62-0.307 1.24-1.228 1.722l-29.31 15.224c-1.765 0.964-4.911 0.826-7.059-0.276l-28.314-14.673c-1.151-0.688-1.764-1.515-1.687-2.273z" fill="#5B95FF"/>
<path d="m340.93 246.07c1.304 0 2.686 0.345 3.76 0.896l7.289 3.789h22.712v9.368c0.077 0.62-0.307 1.24-1.228 1.722l-29.31 15.224c-0.844 0.481-2.072 0.619-3.223 0.619v-31.618z" fill="#7EC4F7"/>
<path d="m372.09 250.75h2.532v9.368c0.077 0.62-0.307 1.24-1.228 1.722l-1.381 0.689v-11.779h0.077z" fill="#7EC4F7"/>
<path d="m343.7 277.14c-1.534 0.62-3.76 0.551-5.601-0.069v-10.608h5.601v10.677z" fill="#7BB1FF"/>
<path d="m344.16 267.63 29.31-15.224c1.764-0.964 1.611-2.549-0.537-3.651l-28.313-14.672c-2.072-1.102-5.218-1.171-7.059-0.276l-29.311 15.224c-1.764 0.964-1.61 2.549 0.537 3.65l28.314 14.673c2.148 1.102 5.294 1.239 7.059 0.276z" fill="#D3E9F8"/>
<path d="m343.62 264.94 24.552-12.744c1.535-0.757 1.305-2.135-0.46-3.03l-23.709-12.331c-1.765-0.895-4.374-1.033-5.908-0.207l-24.553 12.744c-1.535 0.757-1.304 2.136 0.461 3.031l23.708 12.33c1.765 0.896 4.451 0.965 5.909 0.207z" fill="#3A81E8"/>
<path d="m317.92 262.26c0 0.689 0.537 1.516 1.151 1.86 0.691 0.345 1.151 0.069 1.151-0.619 0-0.689-0.537-1.516-1.151-1.861-0.614-0.344-1.151-0.069-1.151 0.62z" fill="#fff"/>
<path d="m314.08 260.26c0 0.689 0.537 1.515 1.151 1.859 0.69 0.345 1.151 0.069 1.151-0.619 0-0.689-0.538-1.516-1.151-1.86-0.614-0.345-1.151-0.069-1.151 0.62z" fill="#fff"/>
<path d="m310.32 258.33c0 0.689 0.537 1.515 1.151 1.86 0.691 0.344 1.151 0.069 1.151-0.62s-0.537-1.515-1.151-1.86c-0.69-0.345-1.151-0.069-1.151 0.62z" fill="#fff"/>
<path d="m307.1 245.31v-9.093h22.712l7.825-4.064c1.765-0.964 4.911-0.826 7.06 0.276l7.289 3.788h22.712v9.368c0.077 0.62-0.307 1.241-1.228 1.723l-29.31 15.223c-1.765 0.964-4.911 0.827-7.059-0.276l-28.237-14.741c-1.228-0.619-1.841-1.446-1.764-2.204z" fill="#5B95FF"/>
<path d="m340.93 231.53c1.304 0 2.686 0.344 3.76 0.895l7.289 3.789h22.712v9.368c0.077 0.619-0.307 1.24-1.228 1.722l-29.31 15.223c-0.844 0.482-2.072 0.62-3.223 0.62v-31.617z" fill="#7EC4F7"/>
<path d="m372.09 236.22h2.532v9.368c0.077 0.62-0.307 1.24-1.228 1.722l-1.381 0.689v-11.779h0.077z" fill="#7EC4F7"/>
<path d="m343.7 262.67c-1.534 0.62-3.76 0.551-5.601-0.069v-10.608h5.601v10.677z" fill="#7BB1FF"/>
<path d="m344.16 253.16 29.31-15.223c1.764-0.965 1.611-2.549-0.537-3.651l-28.313-14.672c-2.072-1.103-5.218-1.172-7.059-0.276l-29.311 15.223c-1.764 0.965-1.61 2.549 0.537 3.651l28.314 14.672c2.148 1.103 5.294 1.172 7.059 0.276z" fill="#D3E9F8"/>
<path d="m343.62 250.41 24.552-12.743c1.535-0.758 1.305-2.135-0.46-3.031l-23.709-12.33c-1.765-0.896-4.374-1.034-5.908-0.207l-24.553 12.744c-1.535 0.758-1.304 2.135 0.461 3.031l23.708 12.329c1.765 0.896 4.451 0.965 5.909 0.207z" fill="#3A81E8"/>
<path d="m317.92 247.72c0 0.689 0.537 1.516 1.151 1.86 0.691 0.344 1.151 0.069 1.151-0.62s-0.537-1.516-1.151-1.86-1.151-0.069-1.151 0.62z" fill="#fff"/>
<path d="m314.08 245.79c0 0.689 0.537 1.516 1.151 1.86 0.69 0.344 1.151 0.068 1.151-0.62 0-0.689-0.538-1.516-1.151-1.86-0.614-0.344-1.151-0.069-1.151 0.62z" fill="#fff"/>
<path d="m310.32 243.79c0 0.689 0.537 1.516 1.151 1.86 0.691 0.345 1.151 0.069 1.151-0.619 0-0.689-0.537-1.516-1.151-1.861-0.69-0.344-1.151-0.068-1.151 0.62z" fill="#fff"/>
<path d="m307.1 230.84v-9.092h22.712l7.825-4.064c1.765-0.965 4.911-0.827 7.06 0.276l7.289 3.788h22.712v9.368c0.077 0.62-0.307 1.24-1.228 1.722l-29.31 15.224c-1.765 0.964-4.911 0.826-7.059-0.276l-28.314-14.672c-1.151-0.758-1.764-1.515-1.687-2.274z" fill="#5B95FF"/>
<path d="m340.93 217.07c1.304 0 2.686 0.344 3.76 0.895l7.289 3.789h22.712v9.368c0.077 0.62-0.307 1.24-1.228 1.722l-29.31 15.223c-0.844 0.482-2.072 0.62-3.223 0.62v-31.617z" fill="#7EC4F7"/>
<path d="m372.09 221.68h2.532v9.368c0.077 0.621-0.307 1.24-1.228 1.722l-1.381 0.689v-11.779h0.077z" fill="#7EC4F7"/>
<path d="m343.7 248.13c-1.534 0.62-3.76 0.551-5.601-0.069v-10.608h5.601v10.677z" fill="#7BB1FF"/>
<path d="m344.16 238.63 29.31-15.223c1.764-0.964 1.611-2.549-0.537-3.651l-28.313-14.672c-2.072-1.102-5.218-1.171-7.059-0.276l-29.311 15.224c-1.764 0.964-1.61 2.549 0.537 3.65l28.314 14.673c2.148 1.102 5.294 1.24 7.059 0.275z" fill="#D3E9F8"/>
<path d="m343.62 235.87 24.552-12.743c1.535-0.758 1.305-2.136-0.46-3.031l-23.709-12.331c-1.765-0.895-4.374-1.032-5.908-0.206l-24.553 12.744c-1.535 0.757-1.304 2.135 0.461 3.03l23.708 12.33c1.765 0.896 4.451 1.034 5.909 0.207z" fill="#3A81E8"/>
<path d="m319.13 233.76-0.23 0.358 11.759 6.098 0.23-0.357-11.759-6.099z" fill="#fff"/>
<path d="m317.92 233.26c0 0.69 0.537 1.516 1.151 1.86 0.691 0.345 1.151 0.069 1.151-0.62 0-0.688-0.537-1.515-1.151-1.86-0.614-0.344-1.151-0.069-1.151 0.62z" fill="#fff"/>
<path d="m314.08 231.26c0 0.689 0.537 1.515 1.151 1.86 0.69 0.344 1.151 0.069 1.151-0.62s-0.538-1.516-1.151-1.86c-0.614-0.345-1.151-0.069-1.151 0.62z" fill="#fff"/>
<path d="m310.32 229.26c0 0.69 0.537 1.516 1.151 1.86 0.691 0.345 1.151 0.069 1.151-0.62 0-0.688-0.537-1.515-1.151-1.86-0.69-0.344-1.151-0.069-1.151 0.62z" fill="#fff"/>
<path d="m307.1 216.24v-9.092h22.712l7.825-4.065c1.765-0.964 4.911-0.826 7.06 0.276l7.289 3.789h22.712v9.368c0.077 0.62-0.307 1.24-1.228 1.722l-29.31 15.223c-1.765 0.965-4.911 0.827-7.059-0.275l-28.314-14.672c-1.151-0.758-1.764-1.585-1.687-2.274z" fill="#5B95FF"/>
<path d="m340.93 202.4c1.304 0 2.686 0.344 3.76 0.895l7.289 3.788h22.712v9.368c0.077 0.621-0.307 1.241-1.228 1.723l-29.31 15.223c-0.844 0.483-2.072 0.62-3.223 0.62v-31.617z" fill="#7EC4F7"/>
<path d="m372.09 207.08h2.532v9.368c0.077 0.62-0.307 1.24-1.228 1.722l-1.381 0.689v-11.779h0.077z" fill="#7EC4F7"/>
<path d="m343.7 233.53c-1.534 0.62-3.76 0.551-5.601-0.069v-10.608h5.601v10.677z" fill="#7BB1FF"/>
<path d="m344.16 224.02 29.31-15.223c1.764-0.965 1.611-2.549-0.537-3.651l-28.313-14.672c-2.072-1.103-5.218-1.172-7.059-0.276l-29.311 15.223c-1.764 0.965-1.61 2.549 0.537 3.651l28.314 14.672c2.148 1.103 5.294 1.172 7.059 0.276z" fill="#D3E9F8"/>
<path d="m308.86 207.29 28.314 14.672c2.071 1.102 5.217 1.171 7.059 0.275l29.31-15.223c0.384-0.206 0.691-0.482 0.921-0.689 0.613 0.896 0.307 1.86-0.921 2.48l-29.31 15.223c-1.765 0.965-4.912 0.827-7.059-0.276l-28.314-14.671c-1.611-0.827-2.071-1.998-1.381-2.894 0.23 0.345 0.691 0.758 1.381 1.103z" fill="#fff"/>
<path d="m317.92 218.58c0 0.689 0.537 1.516 1.151 1.86 0.691 0.344 1.151 0.068 1.151-0.62 0-0.689-0.537-1.516-1.151-1.86-0.614-0.275-1.151 0-1.151 0.62z" fill="#fff"/>
<path d="m329.58 224.37c0 0.688 0.537 1.515 1.151 1.859 0.69 0.345 1.151 0.069 1.151-0.62 0-0.688-0.537-1.515-1.151-1.86-0.614-0.344-1.151-0.069-1.151 0.621z" fill="#fff"/>
<path d="m329.58 239.46c0 0.689 0.537 1.515 1.151 1.859 0.69 0.345 1.151 0.069 1.151-0.619 0-0.689-0.537-1.516-1.151-1.861-0.614-0.344-1.151-0.068-1.151 0.621z" fill="#fff"/>
<path d="m314.08 216.65c0 0.689 0.537 1.516 1.151 1.861 0.69 0.344 1.151 0.069 1.151-0.62s-0.538-1.516-1.151-1.86c-0.614-0.345-1.151-0.069-1.151 0.619z" fill="#fff"/>
<path d="m310.32 214.66c0 0.689 0.537 1.515 1.151 1.86 0.691 0.344 1.151 0.068 1.151-0.62 0-0.689-0.537-1.516-1.151-1.86-0.69-0.344-1.151-0.069-1.151 0.62z" fill="#fff"/>
<path d="m342.39 214.59 13.734-7.095c0.844-0.414 0.768-1.171-0.23-1.722l-13.274-6.889c-0.997-0.482-2.455-0.551-3.3-0.137l-13.734 7.095c-0.844 0.413-0.767 1.17 0.23 1.722l13.274 6.888c0.998 0.551 2.533 0.551 3.3 0.138z" fill="#7EC4F7"/>
<path d="m341.09 208.66 1.919-0.965c0.153-0.068 0.077-0.137 0-0.206l-1.842-0.964c-0.153-0.069-0.307-0.069-0.46 0l-1.919 0.964c-0.153 0.069-0.076 0.138 0 0.206l1.842 0.965h0.46z" fill="#D3E9F8"/>
<path d="m356.13 207.49c-0.076 0-0.153-0.069-0.23-0.069l-13.274-6.888c-0.997-0.482-2.455-0.551-3.299-0.138l-13.658 7.095c-0.767-0.482-0.843-1.17-0.077-1.584l13.735-7.095c0.844-0.414 2.302-0.414 3.299 0.138l13.274 6.888c0.998 0.414 1.074 1.171 0.23 1.653z" fill="#44A6E2"/>
<path d="m345.31 226.16c0 0.69 0.537 1.034 1.228 0.621 0.691-0.345 1.228-1.241 1.228-1.929 0-0.689-0.537-1.034-1.228-0.62-0.691 0.344-1.228 1.24-1.228 1.928z" fill="#D3E9F8"/>
<path d="m349.14 224.16c0 0.689 0.537 1.034 1.228 0.62 0.69-0.345 1.228-1.24 1.228-1.929s-0.538-1.033-1.228-0.62c-0.614 0.345-1.228 1.24-1.228 1.929z" fill="#203E79"/>
<path d="m345.31 230.36c0 0.689 0.537 1.034 1.228 0.62 0.691-0.344 1.228-1.24 1.228-1.928 0-0.689-0.537-1.034-1.228-0.621-0.691 0.345-1.228 1.24-1.228 1.929z" fill="#D3E9F8"/>
<path d="m349.14 228.36c0 0.689 0.537 1.033 1.228 0.62 0.69-0.345 1.228-1.241 1.228-1.929 0-0.689-0.538-1.033-1.228-0.62-0.614 0.344-1.228 1.239-1.228 1.929z" fill="#D3E9F8"/>
<path d="m345.31 240.56c0 0.689 0.537 1.033 1.228 0.62 0.691-0.344 1.228-1.24 1.228-1.929 0-0.688-0.537-1.033-1.228-0.62-0.691 0.344-1.228 1.24-1.228 1.929z" fill="#D3E9F8"/>
<path d="m349.14 238.63c0 0.689 0.537 1.034 1.228 0.62 0.69-0.344 1.228-1.239 1.228-1.929 0-0.689-0.538-1.033-1.228-0.62-0.614 0.345-1.228 1.172-1.228 1.929z" fill="#D3E9F8"/>
<path d="m345.31 244.76c0 0.689 0.537 1.033 1.228 0.62 0.691-0.344 1.228-1.24 1.228-1.929 0-0.688-0.537-1.033-1.228-0.619-0.691 0.344-1.228 1.239-1.228 1.928z" fill="#203E79"/>
<path d="m349.14 242.76c0 0.688 0.537 1.032 1.228 0.62 0.69-0.345 1.228-1.241 1.228-1.929 0-0.689-0.538-1.033-1.228-0.62-0.614 0.344-1.228 1.24-1.228 1.929z" fill="#D3E9F8"/>
<path d="m345.31 255.02c0 0.689 0.537 1.033 1.228 0.62 0.691-0.345 1.228-1.24 1.228-1.929s-0.537-1.033-1.228-0.62c-0.691 0.344-1.228 1.24-1.228 1.929z" fill="#D3E9F8"/>
<path d="m349.14 253.02c0 0.689 0.537 1.033 1.228 0.62 0.69-0.345 1.228-1.24 1.228-1.929s-0.538-1.033-1.228-0.62c-0.614 0.345-1.228 1.24-1.228 1.929z" fill="#203E79"/>
<path d="m345.31 259.22c0 0.688 0.537 1.033 1.228 0.619 0.691-0.344 1.228-1.239 1.228-1.928s-0.537-1.033-1.228-0.621c-0.691 0.345-1.228 1.241-1.228 1.93z" fill="#D3E9F8"/>
<path d="m349.14 257.23c0 0.689 0.537 1.033 1.228 0.62 0.69-0.345 1.228-1.24 1.228-1.929s-0.538-1.033-1.228-0.62c-0.614 0.344-1.228 1.24-1.228 1.929z" fill="#203E79"/>
<path d="m345.31 269.63c0 0.689 0.537 1.034 1.228 0.62 0.691-0.344 1.228-1.24 1.228-1.928 0-0.689-0.537-1.034-1.228-0.62-0.691 0.344-1.228 1.17-1.228 1.928z" fill="#203E79"/>
<path d="m349.14 267.63c0 0.689 0.537 1.033 1.228 0.62 0.69-0.344 1.228-1.24 1.228-1.929s-0.538-1.033-1.228-0.62c-0.614 0.345-1.228 1.172-1.228 1.929z" fill="#D3E9F8"/>
<path d="m345.31 273.83c0 0.689 0.537 1.034 1.228 0.62 0.691-0.344 1.228-1.24 1.228-1.928 0-0.69-0.537-1.034-1.228-0.621-0.691 0.345-1.228 1.171-1.228 1.929z" fill="#D3E9F8"/>
<path d="m349.14 271.83c0 0.69 0.537 1.034 1.228 0.621 0.69-0.345 1.228-1.241 1.228-1.929 0-0.689-0.538-1.034-1.228-0.62-0.614 0.344-1.228 1.171-1.228 1.928z" fill="#203E79"/>
<path d="m345.31 284.02c0 0.688 0.537 1.033 1.228 0.619 0.691-0.344 1.228-1.239 1.228-1.928s-0.537-1.033-1.228-0.62c-0.691 0.344-1.228 1.24-1.228 1.929z" fill="#203E79"/>
<path d="m349.14 282.02c0 0.689 0.537 1.033 1.228 0.62 0.69-0.345 1.228-1.24 1.228-1.929s-0.538-1.033-1.228-0.62c-0.614 0.345-1.228 1.241-1.228 1.929z" fill="#D3E9F8"/>
<path d="m345.31 288.22c0 0.688 0.537 1.033 1.228 0.619 0.691-0.344 1.228-1.239 1.228-1.928s-0.537-1.033-1.228-0.62c-0.691 0.344-1.228 1.24-1.228 1.929z" fill="#203E79"/>
<path d="m349.14 286.23c0 0.689 0.537 1.033 1.228 0.62 0.69-0.344 1.228-1.24 1.228-1.929s-0.538-1.033-1.228-0.62c-0.614 0.344-1.228 1.24-1.228 1.929z" fill="#D3E9F8"/>
<path d="m345.31 298.63c0 0.689 0.537 1.033 1.228 0.62 0.691-0.344 1.228-1.24 1.228-1.929s-0.537-1.033-1.228-0.62c-0.691 0.345-1.228 1.24-1.228 1.929z" fill="#D3E9F8"/>
<path d="m349.14 296.63c0 0.689 0.537 1.033 1.228 0.62 0.69-0.345 1.228-1.241 1.228-1.929 0-0.689-0.538-1.034-1.228-0.62-0.614 0.344-1.228 1.239-1.228 1.929z" fill="#203E79"/>
<path d="m345.31 302.83c0 0.689 0.537 1.034 1.228 0.62 0.691-0.345 1.228-1.24 1.228-1.929s-0.537-1.033-1.228-0.62c-0.691 0.345-1.228 1.24-1.228 1.929z" fill="#D3E9F8"/>
<path d="m349.14 300.83c0 0.689 0.537 1.034 1.228 0.621 0.69-0.345 1.228-1.241 1.228-1.929 0-0.689-0.538-1.034-1.228-0.62-0.614 0.344-1.228 1.239-1.228 1.928z" fill="#D3E9F8"/>
<path d="m202.67 367.17-111.41-57.725c-6.0616-3.168-10.972-11.572-10.972-18.805v-242.13c0-7.2328 4.9106-10.608 10.972-7.4395l111.41 57.793c6.062 3.1687 10.972 11.573 10.972 18.806v242.06c0 7.233-4.91 10.609-10.972 7.44z" fill="#fff"/>
<path d="m175.93 122.76-74.197-38.506c-1.304-0.6894-2.3016-2.2737-2.3016-3.6512 0-1.3085 1.0746-1.8601 2.3016-1.2396l74.197 38.506c1.304 0.689 2.302 2.273 2.302 3.651 0 1.308-0.998 1.86-2.302 1.24z" fill="#BAE1FF"/>
<path d="m175.93 132.61-74.197-38.506c-1.305-0.6887-2.3022-2.273-2.3022-3.6505 0-1.3093 1.0742-1.8601 2.3022-1.2403l74.197 38.506c1.303 0.689 2.301 2.274 2.301 3.651 0 1.378-0.998 1.86-2.301 1.24z" fill="#BAE1FF"/>
<path d="m175.93 142.46-74.197-38.506c-1.305-0.689-2.3022-2.273-2.3022-3.651 0-1.309 1.0742-1.8598 2.3022-1.24l74.197 38.506c1.303 0.689 2.301 2.273 2.301 3.651s-0.998 1.86-2.301 1.24z" fill="#BAE1FF"/>
<path d="m175.93 152.31-74.197-38.506c-1.305-0.689-2.3022-2.273-2.3022-3.651 0-1.309 1.0742-1.86 2.3022-1.24l74.197 38.506c1.303 0.689 2.301 2.273 2.301 3.651s-0.998 1.929-2.301 1.24z" fill="#BAE1FF"/>
<path d="m175.93 162.16-74.197-38.506c-1.305-0.689-2.3022-2.273-2.3022-3.65 0-1.309 1.0742-1.861 2.3022-1.24l74.197 38.506c1.303 0.689 2.301 2.273 2.301 3.651 0 1.377-0.998 1.929-2.301 1.239z" fill="#BAE1FF"/>
<path d="m175.93 172.01-74.197-38.506c-1.305-0.689-2.3022-2.273-2.3022-3.651 0-1.309 1.0742-1.86 2.3022-1.24l74.197 38.506c1.303 0.689 2.301 2.273 2.301 3.651s-0.998 1.928-2.301 1.24z" fill="#BAE1FF"/>
<path d="m175.93 181.86-74.197-38.506c-1.305-0.689-2.3022-2.273-2.3022-3.651 0-1.309 1.0742-1.859 2.3022-1.24l74.197 38.506c1.303 0.689 2.301 2.273 2.301 3.651s-0.998 1.929-2.301 1.24z" fill="#BAE1FF"/>
<path d="m150.84 178.76-49.183-25.487c-1.304-0.69-2.3019-2.274-2.3019-3.651 0-1.309 1.0739-1.86 2.3019-1.24l49.183 25.487c1.305 0.689 2.302 2.273 2.302 3.65 0 1.31-0.997 1.861-2.302 1.241z" fill="#BAE1FF"/>
<path d="m208.92 208.79-49.183-25.487c-1.305-0.689-2.302-2.273-2.302-3.651 0-1.309 1.074-1.86 2.302-1.24l49.183 25.487c1.304 0.689 2.302 2.274 2.302 3.651 0 1.378-0.998 1.928-2.302 1.24z" fill="#BAE1FF"/>
<path d="m175.93 201.56-74.197-38.506c-1.305-0.689-2.3022-2.273-2.3022-3.651 0-1.309 1.0742-1.86 2.3022-1.24l74.197 38.506c1.303 0.689 2.301 2.273 2.301 3.651s-0.998 1.929-2.301 1.24z" fill="#BAE1FF"/>
<path d="m196.03 211.96-11.586-5.993c-1.304-0.688-2.301-2.273-2.301-3.651 0-1.308 1.074-1.859 2.301-1.239l11.586 5.992c1.305 0.69 2.303 2.274 2.303 3.651 0 1.378-1.075 1.929-2.303 1.24z" fill="#BAE1FF"/>
<path d="m203.86 225.88-45.424-23.559c-1.304-0.689-2.302-2.273-2.302-3.65 0-1.31 1.075-1.861 2.302-1.241l45.424 23.559c1.304 0.688 2.302 2.273 2.302 3.65 0 1.378-1.074 1.929-2.302 1.241z" fill="#BAE1FF"/>
<path d="m150.84 198.46-49.183-25.487c-1.304-0.688-2.3019-2.273-2.3019-3.65 0-1.31 1.0739-1.86 2.3019-1.241l49.183 25.487c1.305 0.689 2.302 2.273 2.302 3.652 0 1.377-0.997 1.859-2.302 1.239z" fill="#BAE1FF"/>
<path d="m125.83 195.29-24.093-12.467c-1.305-0.69-2.3022-2.274-2.3022-3.652 0-1.308 1.0742-1.86 2.3022-1.239l24.093 12.467c1.304 0.689 2.301 2.274 2.301 3.652 0 1.377-1.074 1.928-2.301 1.239z" fill="#BAE1FF"/>
<path d="m182.84 224.91-49.183-25.487c-1.305-0.688-2.302-2.273-2.302-3.65 0-1.309 1.074-1.86 2.302-1.24l49.183 25.486c1.305 0.689 2.302 2.274 2.302 3.652 0.076 1.377-0.997 1.859-2.302 1.239z" fill="#BAE1FF"/>
<path d="m138.33 211.69-36.677-19.013c-1.304-0.688-2.3019-2.273-2.3019-3.65 0-1.309 1.0739-1.86 2.3019-1.24l36.677 19.012c1.303 0.689 2.301 2.273 2.301 3.65 0 1.31-0.998 1.861-2.301 1.241z" fill="#BAE1FF"/>
<path d="m188.44 247.51-86.78-44.981c-1.304-0.689-2.3019-2.273-2.3019-3.65 0-1.31 1.0739-1.861 2.3019-1.241l86.78 44.981c1.305 0.689 2.302 2.273 2.302 3.651s-0.997 1.929-2.302 1.24z" fill="#BAE1FF"/>
<path d="m113.24 218.37-11.586-5.992c-1.304-0.689-2.3019-2.273-2.3019-3.652 0-1.308 1.0739-1.859 2.3019-1.239l11.586 5.992c1.304 0.69 2.302 2.274 2.302 3.652 0.077 1.377-0.998 1.928-2.302 1.239z" fill="#BAE1FF"/>
<path d="m203.55 284.91-19.106-9.919c-1.304-0.689-2.301-2.273-2.301-3.651 0-1.309 1.074-1.86 2.301-1.24l19.106 9.919c1.304 0.689 2.302 2.274 2.302 3.651 0 1.309-1.074 1.86-2.302 1.24z" fill="#BAE1FF"/>
<path d="m158.05 241.65-36.677-19.012c-1.304-0.688-2.301-2.273-2.301-3.651 0-1.308 1.074-1.859 2.301-1.239l36.677 19.011c1.304 0.689 2.302 2.273 2.302 3.651 0.077 1.309-0.998 1.86-2.302 1.24z" fill="#BAE1FF"/>
<path d="m195.96 271.13-94.3-48.908c-1.304-0.688-2.3019-2.273-2.3019-3.65 0-1.309 1.0739-1.86 2.3019-1.24l94.3 48.839c1.304 0.688 2.302 2.273 2.302 3.65 0 1.378-0.998 1.929-2.302 1.309z" fill="#BAE1FF"/>
<path d="m175.93 270.58-74.197-38.506c-1.305-0.688-2.3022-2.273-2.3022-3.65 0-1.309 1.0742-1.86 2.3022-1.24l74.197 38.505c1.303 0.689 2.301 2.274 2.301 3.652 0 1.377-0.998 1.859-2.301 1.239z" fill="#BAE1FF"/>
<path d="m202.06 181.04c-0.153-0.069-0.306-0.207-0.46-0.276v-0.138c0.154 0 0.307 0.069 0.46 0.069v0.345z" fill="#5070E2"/>
<path d="m202.06 150.8c-0.153 0-0.306-0.068-0.46-0.068v0.137c0.537 0.276 0.307 0.138 1.15 0.552v-0.138c-0.153-0.276-0.46-0.345-0.69-0.483z" fill="#5070E2"/>
<g clip-path="url(#b)">
<path d="m105.82 311.5c3.066 0 6.036 0.129 8.861 0.344 3.284-2.366 11.276-4.043 20.621-4.043 12.266 0 22.214 2.882 22.214 6.43 0 3.162-7.848 5.786-18.206 6.324 0.048 0.215 0.096 0.43 0.096 0.666 0 5.377-15.018 9.722-33.562 9.722-18.544 0-33.563-4.366-33.563-9.722-0.0241-5.376 15.019-9.721 33.539-9.721z" fill="#A8C4E5" opacity=".4"/>
<path d="m36.88 173.92 0.6278 1.054c1.159 1.936 3.8874 2.689 6.0606 1.656l4.4669-2.108c2.1732-1.032 3.0183-3.462 1.8593-5.398l-0.6278-1.054c-1.159-1.935-3.8875-2.688-6.0606-1.656l-4.467 2.108c-2.1973 1.011-3.0182 3.463-1.8592 5.398z" fill="#FFA3B4"/>
<path d="m120.38 115.93c0.387 1.355 3.767 18.195 4.443 19.464 1.642 3.054 2.729 6.452 2.391 9.85-0.338 3.377-2.27 6.753-5.53 8.495-1.183 0.624-2.535 1.033-3.911 0.925-2.463-0.236-4.322-2.129-5.506-4.086-1.207-2-2.004-4.173-2.342-6.409-0.169-1.183-0.217-2.431 0.169-3.571 0.363-1.053-1.062-6.194-0.289-7.054 2.318-2.645 5.553-4.882 9.247-5.549l1.328-12.065z" fill="#875915"/>
<path d="m79.763 318.36 11.807-9.872c1.5695-0.753 5.0465-1.011 7.3886-0.667 1.0629 0.151 1.8349 0.968 1.8829 1.915l0.097 2.043c0.266 2.946-0.048 3.376-2.1006 4.366l-12.29 5.914c-2.0766 0.99-5.1914 1.033-6.9057 0.086l-0.4829-0.279c-1.7385-0.904-1.4729-2.495 0.6036-3.506z" fill="#173891"/>
<path d="m99.273 309.58c-0.4105 3.764-6.4952 3.871-8.282 0.796-5.4569-37.1-4.2497-71.297-2.9699-109.26l22.021-16.13c-5.771 45.337-13.184 89.405-10.769 124.59z" fill="#FFA3B4"/>
<path d="m137.88 305.89 1.159-13.787c0.555-1.376 2.753-3.29 4.612-4.15 0.821-0.388 1.932-0.108 2.632 0.645l1.521 1.613c2.27 2.28 2.342 2.753 1.642 4.581l-4.25 10.818c-0.724 1.828-2.825 3.377-4.684 3.441l-0.531 0.022c-1.884 0.064-2.825-1.355-2.101-3.183z" fill="#173891"/>
<path d="m144.5 287.28c3.501 2.946-1.449 7.635-5.312 5.226-12.435-5.592-19.075-10.71-26.271-28.411-6.495-15.98 9.079-39.337 11.494-20.582 2.294 17.743 8.064 32.927 20.089 43.767z" fill="#FFA3B4"/>
<path d="m123.52 196.44s9.031 13.011 5.94 30.389c-3.09 17.378-1.062 29.336 2.946 41.036 1.135 3.699 2.898 6.99 5.167 9.958 0.628 0.839 0.652 1.936 0.024 2.774-1.835 2.517-6.06 7.055-11.493 4.495-10.745-5.054-15.791-29.056-15.985-31.615-0.458-6.044-7.63-47.101-7.63-47.101l21.031-9.936z" fill="#173891"/>
<path d="m106.71 210.11s-6.23 64.264-6.181 70.587c0.048 5.376 0.12 10.194 0.169 12.796 0.024 1.291-0.9662 2.409-2.3667 2.732-3.5011 0.774-9.6824 1.462-10.986-2.882-1.8351-6.108-2.7285-66.178-0.4588-97.256l22.045 2.216-2.221 11.807z" fill="#173891"/>
<path d="m82.468 214.63c-3.3804-8.538 1.5212-34.046 1.0866-40.691-0.99-15.744-2.9699-19.421 4.3221-29.358 3.7426-5.097 5.4328-10.366 10.455-10.796l4.4907 1.054c2.149 0.516 4.226 1.225 6.206 2.129 21.055 9.678 25.401 11.764 24.484 22.948 0.024 5.785-3.695-0.344-4.636 3.441-1.811 7.27 3.356 1.764 6.881 14.776 0.701 2.623-1.835 38.756-4.249 40.39-10.455 7.076-44.887 3.979-49.04-3.893z" fill="#3E69DE"/>
<path d="m128.73 161.29 8.137 24.519-12.097 11.743c-1.087-20.411-5.071-30.196 3.96-36.262z" fill="#3B2AD1"/>
<path d="m120.93 156.8c2.583 7.076 11.735 17.442 14.825 27.163 1.183 3.7-10.238 6.689-16.829 8.775l3.622 7.936c7.195-1.29 26.729-8.495 26.729-13.442 0-13.893-17.699-37.143-17.699-37.143l-10.648 6.711z" fill="#3E69DE"/>
<path d="m113.86 139.57s-2.173 8.022-13.135 7.162c-10.938-0.86-20.91-3.076-20.91-3.076s1.98-6.925 8.5718-8.99c6.5918-2.064 14.439 0.194 14.439 0.194l11.035 4.71z" fill="#FFA3B4"/>
<path d="m96.834 134.45s-4.3463 5.333-5.9882 11.162l-4.9982-0.796c0.6761-3.312 2.6078-8.259 8.0406-11.291 8.6925-4.882 2.9458 0.925 2.9458 0.925z" fill="#173891"/>
<path d="m105.33 142.67-0.701 0.043c-2.39 0.151-4.467-1.484-4.6356-3.613l-0.9176-12.001c-0.169-2.129 1.6662-3.979 4.0562-4.129l0.701-0.043c2.39-0.151 4.467 1.484 4.636 3.613l3.018 12.216c0.145 2.151-3.767 3.785-6.157 3.914z" fill="#FFA3B4"/>
<path d="m99.466 133.94s5.6738 0.56 9.8758-4c0 0-4.322 7.14-9.5861 7.356l-0.2897-3.356z" fill="#E37B8E"/>
<path d="m86.814 114.79s-3.2839 8.388 5.0947 11.506c8.3785 3.119 9.9965-17.313 9.9965-17.313l-15.091 5.807z" fill="#6B4711"/>
<path d="m110.45 110.11c-2.174-3.356-5.457-4.151-8.476-2.517-2.9937-1.333-6.5673 0.086-9.1992 4.108-3.6702 5.613-4.5877 14.819-1.4246 19.744 1.3763 2.15 3.5736 2.731 5.626 2.903 1.9316 0.172 3.8878-0.043 5.7468-0.537 6.64-1.786 6.761-0.904 9.199-4.646 3.646-5.613 1.666-14.152-1.472-19.055z" fill="#FFA3B4"/>
<path d="m104.3 114.28c-0.41 4.882 0.749 8.839 4.419 11.291 0 0 1.135 6.581 1.521 8.345 0 0 12.918-1.204 10.793-14.754-2.656-16.883-13.135-8.732-13.135-8.732l-3.598 3.85z" fill="#875915"/>
<path d="m110.69 118.43c-7.364-2.925-12.677-11.034-24.46-1.183-0.8934-1.463 0.2414-4.28 2.5836-5.764 4.8533-3.076 8.282-6.667 13.618-7.549l1.304-0.086c7.847-0.516 12.073 2.301 13.908 9.119 0.169 0.602 1.569 3.355 1.618 3.85l-2.511-0.839c0.458 4-1.546 2.043-6.061 2.452z" fill="#875915"/>
<path d="m109.95 128.33c1.574-0.729 2.186-2.456 1.368-3.857-0.818-1.402-2.757-1.947-4.331-1.219-1.573 0.729-2.186 2.456-1.367 3.858 0.818 1.401 2.757 1.947 4.33 1.218z" fill="#FFA3B4"/>
<path d="m103.02 115.03c0.169 0.237 0.507 0.302 0.748 0.151l6.688-3.656c0.266-0.151 0.339-0.452 0.17-0.667-0.17-0.237-0.508-0.301-0.749-0.151l-6.688 3.657c-0.242 0.15-0.314 0.451-0.169 0.666z" fill="#FFA3B4"/>
<path d="m101.06 220.7c1.787-0.517 8.378-4.495 9.779-6.022 4.926-4.044 7.992-10.948 8.113-20.024 0.265-19.958-13.618-42.842-31.052-51.165-8.1129-3.872-15.574-3.893-21.248-0.775-0.5795 0.194-12.628 6.431-12.628 6.431-1.7385 1.506 1.7868 1.032 0.6036 3.248-2.5594 3.978-4.0806 9.226-4.1772 15.549-0.2656 19.959 13.618 42.843 31.052 51.166 7.3403 3.506 14.125 3.85 19.558 1.592z" fill="#E65187"/>
<path d="m93.916 223.67c14.016-5.514 16.981-26.923 6.6214-47.818-10.36-20.896-30.122-33.365-44.139-27.851-14.017 5.514-16.981 26.923-6.6211 47.818 10.36 20.896 30.122 33.365 44.138 27.851z" fill="#FF80AE"/>
<path d="m55.159 180.8c-1.4004-2.494-2.1489-5.247-2.0041-7.893 0.3864-6.559 5.288-10.732 12.073-8.344 3.3805 1.182 8.0164 7.635 5.3121 12.431-0.3622-6.625 9.5376-6.754 12.918-5.571 6.785 2.388 11.976 9.636 11.59 16.195-0.1932 3.334-1.7868 5.85-4.1772 7.205-0.2415 0.129-9.5859 6.753-15.091 10.668-2.0766 1.462-5.5536 0.193-7.2921-2.689l-12.652-20.883c-0.2414-0.344-0.4587-0.731-0.6761-1.119z" fill="#fff"/>
<path d="m110.38 200.72 0.628 1.054c1.159 1.936 3.887 2.688 6.06 1.656l4.467-2.108c2.174-1.032 3.019-3.462 1.86-5.398l-0.628-1.054c-1.159-1.935-3.888-2.688-6.061-1.656l-4.467 2.108c-2.173 1.032-3.018 3.462-1.859 5.398z" fill="#FFA3B4"/>
</g>
<g clip-path="url(#a)">
<path d="m298.92 285.05c-2.831 7.665-11.555 15.017-22.121 20.156-0.95 1.045-19.543 8.623-19.543 8.623l4.285 5.662s17.681-5.732 24.854-8.571c1.881-0.749 3.568-1.847 4.944-3.24l17.526-17.7-9.945-4.93z" fill="#B57F72"/>
<path d="m356.32 418.37c-7.561-3.623-20.279-3.832-28.829-0.575-0.756-1.55-2.404-3.013-4.983-4.25-7.794-3.728-21.035-3.85-29.585-0.262-8.55 3.572-9.17 9.495-1.396 13.223 7.561 3.623 20.279 3.832 28.829 0.575 0.756 1.55 2.404 3.013 4.983 4.25 7.794 3.728 21.035 3.85 29.585 0.261 8.569-3.571 9.19-9.494 1.396-13.222z" fill="#A8C4E5" opacity=".4"/>
<path d="m295.93 420.27 12.234-7.997c1.55-0.54 4.808-0.418 6.94 0.14 0.95 0.244 1.571 1.08 1.493 1.986l-0.174 1.933c-0.136 2.788-0.466 3.154-2.521 3.868l-12.156 4.268c-2.055 0.714-4.944 0.435-6.417-0.627l-0.426-0.296c-1.474-1.098-1.028-2.544 1.027-3.275z" fill="#1F309C"/>
<path d="m316.48 412.69c0 2.891-7.833 3.257-7.833 0.365v-9.372l7.833-0.366v9.373z" fill="#86ABD9"/>
<path d="m317.16 408.32c-2.695 2.926-8.278 2.857-9.79 0.679l-9.461-82.033 27.762-6.202-8.511 87.556z" fill="#BAD4F5"/>
<path d="m322.74 341.72-1.667 19.964-3.18-22.211c1.221 0.139 2.54 0.209 3.897 0.226l0.95 2.021z" fill="#86ABD9"/>
<path d="m303.43 276.98s-11.632 13.031-14.463 18.344c-1.299 2.439 9.558 10.749 14.463 8.379 4.905-2.369 4.033-23.657 0-26.723z" fill="#2139C4"/>
<path d="m342.92 428.7-3.179-10.714c0.038-1.289 0.407-3.536 2.035-4.703 0.737-0.523 3.277-0.383 4.324 0.104l1.764-0.261c3.315 1.428 4.091 3.136 4.052 4.843l-0.271 10.139c-0.039 1.707-1.299 3.553-3.258 4.024l-0.93 0.069c-1.978 0.471-4.576-1.794-4.537-3.501z" fill="#1F309C"/>
<path d="m349.15 415.04c0.523 2.84-7.154 4.338-7.658 1.498l-1.687-9.25 7.658-1.498 1.687 9.25z" fill="#86ABD9"/>
<path d="m349.03 409.38c-2.132 3.275-7.677 4.006-9.538 2.09l-23.983-79.612 26.309-10.121 7.212 87.643z" fill="#BAD4F5"/>
<path d="m320.96 276.98c-4.304 3.415-8.666 7.578-13.358 16.776-0.291 6.55 3.781 9.198 7.891 12.055l14.502-13.588-5.816-10.086-3.219-5.157z" fill="#4432DB"/>
<path d="m298.04 325.88c0.504-10.54 2.54-19.337 2.986-34.475-0.524-16.498 4.556-20.348 19.038-18.797l5.41 1.515c12.95 6.603 20.783 10.226 20.221 22.699l-4.343 31.95c-0.795 16.497-45.27 16.48-43.312-2.892z" fill="#3E69DE"/>
<path d="m316.58 272.26s1.376 2.004 2.249 2.404c0.872 0.401 13.164-4.355 12.078-13.431-0.698-5.749-12.815-4.425-12.815-4.425l-1.512 15.452z" fill="#45312B"/>
<path d="m321.87 280.62-0.581 0.07c-1.978 0.244-3.82-1.01-4.091-2.787l-1.512-10.017c-0.272-1.777 1.124-3.432 3.102-3.676l0.581-0.069c1.978-0.244 3.82 1.01 4.091 2.787l3.025 9.424c0.271 1.795-2.637 4.024-4.615 4.268z" fill="#B57F72"/>
<path d="m316.52 273.29s4.749 0.227 8.007-3.78c0 0-3.219 6.167-7.581 6.568l-0.426-2.788z" fill="#7A564D"/>
<path d="m320.45 264.51c0.437-5.596-2.076-10.312-5.611-10.535-3.536-0.223-6.756 4.133-7.192 9.729-0.437 5.595 2.076 10.312 5.611 10.535 3.536 0.222 6.756-4.134 7.192-9.729z" fill="#B57F72"/>
<path d="m324.35 270.1c-2.482 4.32-11.535 6.272-14.095 2.7-2.559-3.571 0.621-11.253 3.122-15.574 2.481-4.32 6.572-4.93 9.112-1.341 2.559 3.571 4.362 9.912 1.861 14.215z" fill="#B57F72"/>
<path d="m320.34 257.42s-2.172 8.798 5.448 11.55c0 0 9.403-3.763 3.897-12.961-4.847-8.1-14.715-3.223-14.715-3.223l5.37 4.634z" fill="#45312B"/>
<path d="m307.83 263.05s1.493-3.728 6.863-4.843l-3.819-2.578c-0.02 0-4.285 0.453-3.044 7.421z" fill="#45312B"/>
<path d="m323.83 263.05c-1.474-2.247-5.157-2.578-10.605-1.376-0.834 0.174-1.706 0.226-2.521-0.018-3.819-1.097-3.897-5.487-3.897-5.487-0.504-2.979 1.784-4.094 5.099-4.547l8.647-1.167c4.886-0.68 9.093 3.258 9.597 6.236l0.155 0.506c0.543 2.996-3.141 5.4-6.475 5.853z" fill="#45312B"/>
<path d="m326.7 268.76c0.598-1.054 0.131-2.345-1.042-2.882-1.174-0.537-2.61-0.118-3.208 0.937-0.598 1.054-0.131 2.344 1.042 2.882 1.174 0.537 2.61 0.118 3.208-0.937z" fill="#B57F72"/>
<path d="m316.79 295.08-7.193-2.177c-0.834-0.262-1.415-1.098-1.299-1.864 0.136-0.767 0.931-1.202 1.764-0.941l7.193 2.178c0.834 0.261 1.416 1.097 1.299 1.864-0.136 0.766-0.93 1.184-1.764 0.94z" fill="#fff"/>
<path d="m310.06 322.84c-14.947-8.066-50.659-13.327-65.917-5.732-15.238 7.613-15.471 20.313-0.523 28.361 14.947 8.065 39.162 8.431 54.692 0.975 8.957-4.303 12.311-9.233 11.748-14.581v-9.023z" fill="#E3377D"/>
<path d="m298.29 308.45c-14.947-8.066-39.434-8.431-54.672-0.819-15.239 7.613-15.472 20.313-0.524 28.361 14.948 8.066 39.163 8.432 54.692 0.976 17.061-8.188 15.471-20.47 0.504-28.518z" fill="#FF80AE"/>
<path d="m286.99 315.99c-0.271-1.202-1.299-2.369-3.102-3.31-4.517-2.334-11.807-2.874-16.731-0.627-2.462 1.132-2.772 4.442 2.831 5.661-3.859-2.526-13.32-0.54-15.782 0.575-4.924 2.265-5.254 5.993-0.737 8.327 2.288 1.185 5.39 1.795 8.531 1.795 0.31 0 13.377 0.54 21.093 0.853 2.889 0.122 5.39-1.062 5.216-2.473l-1.222-10.261c-0.038-0.174-0.058-0.366-0.097-0.54z" fill="#fff"/>
<path d="m397.17 457.65c-15.781-8.362-41.605-8.745-57.697-0.854-16.091 7.892-16.343 21.079-0.562 29.441s41.334 8.745 57.716 1.01c18.011-8.501 16.325-21.235 0.543-29.597z" fill="#A8C4E5" opacity=".4"/>
<path d="m382.16 458.37c-14.986-7.944-39.511-8.31-54.808-0.801-15.277 7.491-15.51 20.016-0.523 27.96 14.986 7.943 39.259 8.309 54.808 0.958 17.119-8.066 15.51-20.173 0.523-28.117z" fill="#4C73DB"/>
<path d="m315.82 470.68-0.562-8.762h78.17l0.524 10.034-21.074 11.01-57.058-12.282z" fill="#4C73DB"/>
<path d="m381.64 447.88c-14.987-7.944-39.512-8.31-54.808-0.802-15.278 7.491-15.51 20.017-0.524 27.96 14.987 7.944 39.26 8.31 54.809 0.958 17.119-8.065 15.509-20.173 0.523-28.116z" fill="#85A6FF"/>
<path d="m355.97 471.33-10.527-5.366c-2.404-1.219-2.094-3.38 0.678-4.791l6.825-3.484c2.772-1.411 6.998-1.568 9.383-0.348l10.527 5.365c2.404 1.22 2.094 3.38-0.678 4.791l-6.825 3.484c-2.753 1.411-6.979 1.568-9.383 0.349z" fill="#fff"/>
<path d="m350.37 463.31-0.698-0.366c-1.939-0.993-1.687-2.717 0.543-3.85l10.837-5.522c2.23-1.132 5.623-1.254 7.562-0.279l0.698 0.366c1.938 0.993 1.686 2.718-0.543 3.85l-10.838 5.522c-2.229 1.133-5.622 1.255-7.561 0.279z" fill="#fff"/>
<path d="m336.97 461.62-4.963-2.526c-0.931-0.471-0.814-1.307 0.272-1.864l12.621-6.446c1.085-0.557 2.714-0.61 3.645-0.139l4.963 2.526c0.93 0.47 0.814 1.306-0.272 1.864l-12.621 6.445c-1.086 0.558-2.714 0.627-3.645 0.14z" fill="#fff"/>
<path d="m126.17 363.84c-14.986-7.944-39.511-8.31-54.808-0.801-15.297 7.508-15.51 20.016-0.5235 27.96 14.987 7.943 39.259 8.309 54.808 0.958 17.119-8.066 15.51-20.173 0.523-28.117z" fill="#4C73DB"/>
<path d="m59.848 376.16-0.5817-8.762h78.171l0.523 10.034-21.074 11.01-57.038-12.282z" fill="#4C73DB"/>
<path d="m125.65 353.36c-14.987-7.943-39.512-8.309-54.808-0.801-15.297 7.508-15.51 20.016-0.5234 27.96s39.26 8.309 54.809 0.958c17.119-8.066 15.509-20.173 0.523-28.117z" fill="#85A6FF"/>
<path d="m110.26 370.83 10.528-5.365c2.404-1.22 2.094-3.38-0.679-4.791l-6.824-3.484c-2.773-1.411-6.999-1.568-9.384-0.349l-10.508 5.383c-2.4041 1.22-2.0939 3.38 0.6785 4.791l6.8242 3.484c2.753 1.394 6.98 1.551 9.364 0.331z" fill="#fff"/>
<path d="m104.75 368.86 0.698-0.366c1.939-0.993 1.687-2.718-0.543-3.85l-10.837-5.522c-2.2295-1.133-5.6223-1.255-7.5611-0.279l-0.6979 0.366c-1.9388 0.993-1.6867 2.717 0.5428 3.85l10.838 5.522c2.2296 1.132 5.6228 1.254 7.5608 0.279z" fill="#fff"/>
<path d="m96.354 378.42 4.9635-2.526c0.93-0.47 0.814-1.306-0.272-1.864l-12.621-6.445c-1.0857-0.558-2.7143-0.61-3.6449-0.14l-4.9632 2.526c-0.9306 0.471-0.8142 1.307 0.2715 1.864l12.621 6.446c1.0857 0.558 2.7142 0.627 3.6448 0.139z" fill="#fff"/>
<path d="m226.7 463.25c16.323-0.664 29.243-7.413 28.857-15.073s-13.932-13.332-30.255-12.668-29.243 7.413-28.857 15.073 13.932 13.332 30.255 12.668z" fill="#A8C4E5" opacity=".4"/>
<path d="m209.15 440.76 5.137-0.801c3.393-1.551 4.944-2.666 6.534-1.934l0.446 0.209c1.59 0.732 1.454 2.16-0.271 3.153l-7.329 5.731c-1.725 0.993-4.149 0.802-5.622-0.261 0 0-0.892-0.662-0.427-3.589 0.272-1.654 0.155-1.707 1.532-2.508z" fill="#191791"/>
<path d="m229.45 446.21 5.855 0.749c4.266-0.609 6.379-1.341 7.814-0.052l0.407 0.366c1.415 1.289 0.736 2.787-1.513 3.31l-10.139 3.902c-2.249 0.54-4.789-0.435-5.972-2.038 0 0-0.697-0.976 0.931-4.007 0.931-1.69 0.814-1.794 2.617-2.23z" fill="#191791"/>
<path d="m204.46 377.83 3.722 63.359c0.233 4.024 5.487 2.404 6.01-0.088l-0.213-58.864-9.519-4.407z" fill="#FFA3B4"/>
<path d="m219.29 380.13 7.833 68.69c0.426 4.302 5.37 2.63 5.758-0.018l-1.997-64.282-11.594-4.39z" fill="#FFA3B4"/>
<path d="m233.87 355.57-0.834 83.514s-3.373 5.227-8.55 0.349c-2.636-13.588-4.711-26.427-3.606-34.946l-3.49-33.83-2.636-14.32 19.116-0.767z" fill="#325BC9"/>
<path d="m215.16 358.11 1.609 47.68v24.807s-5.428 5.087-10.469-0.784c-2.055-11.55-2.424-20.191-0.718-27.612l-2.985-26.305c-2.676-5.348-2.365-12.194-1.338-19.389l13.901 1.603z" fill="#325BC9"/>
<path d="m211.26 359.49-6.066 12.16 21.335 8.593 6.066-12.16-21.335-8.593z" fill="#325BC9"/>
<path d="m233.97 310.08c-1.183 5.261-7.174 7.561-11.071 4.46-3.896-3.101-6.107-9.877-4.905-15.138 1.183-5.261 7.891-7.613 11.807-4.512 3.878 3.101 5.351 9.929 4.169 15.19z" fill="#FFA3B4"/>
<path d="m218.44 326.82-0.484-0.175c-1.648-0.574-3.199-3.17-2.366-5.121l4.13-10.592c0.834-1.951 4.343-2.996 6.01-2.421l0.485 0.174c1.648 0.575 2.326 2.648 1.493 4.599l-3.219 11.062c-0.853 1.934-4.401 3.048-6.049 2.474z" fill="#FFA3B4"/>
<path d="m214.5 310.42s0.601 2.804 6.63 2.926c5.739 0.122 4.401-7.613 9.83-8.815 5.971-1.306 5.874-7.212 3.276-9.616-2.617-2.404-9.383-3.275-14.036-1.028-4.673 2.265-9.869 4.025-5.7 16.533z" fill="#875915"/>
<path d="m230.61 308.22c-0.291 1.272-1.687 2.108-3.102 1.847-1.416-0.261-2.346-1.516-2.055-2.787 0.29-1.272 1.686-2.108 3.102-1.847 1.434 0.261 2.345 1.498 2.055 2.787z" fill="#FFA3B4"/>
<path d="m203.96 330.55-3.664 27.28s-2.385 5.017 13.532 9.895c13.067 4.007 21.055-0.941 21.927-2.247l1.222-26.671 11.206 7.16s-1.745-14.372-16.654-23.204c-2.714-1.603-6.766-3.589-10.082-5.14-4.924-2.299-7.289-1.724-12.175 0.628-2.617 1.289-5.312 12.299-5.312 12.299z" fill="#97CBFF"/>
<path d="m220.3 300.31c0.11-2.74-1.926-5.03-4.547-5.115-2.622-0.085-4.836 2.067-4.946 4.807-0.111 2.74 1.925 5.031 4.547 5.116 2.621 0.085 4.836-2.067 4.946-4.808z" fill="#FEC601"/>
<path d="m216.44 299.26c0.369-3.083-4.304-4.407-6.126-1.777-0.543 0.784-1.047 1.864-1.473 3.31-2.618 8.885-19.369 7.038-11.749 23.083 0 0-7.91 10.104 5.855 14.912 2.21 0.766 4.769-0.192 7.251-1.864 6.262-4.234 8.55-11.637 6.359-18.414-0.776-2.369-1.028-4.947 0.058-7.108 1.376-2.735 1.764-5.853 0.465-8.623-0.581-1.167-0.775-2.351-0.64-3.519z" fill="#875915"/>
<path d="m225.94 319.8s-4.536-3.675-8.181-3.344c-0.02 0-0.136 4.337 8.181 3.344z" fill="#fff"/>
<path d="m230.98 314.61s-2.656 1.237-3.742-0.366l-0.194 1.69c-0.019 0 2.346 0.191 3.936-1.324z" fill="#E37B8E"/>
<path d="m235.73 365.5 1.086-23.465-2.385-2.614-5.118 29.197s4.944-1.271 6.417-3.118z" fill="#74B5F7"/>
<path d="m309.42 334.52-0.737-0.593c-1.338-1.097-3.451-1.01-4.672 0.192l-2.521 2.491c-1.221 1.219-1.124 3.101 0.213 4.216l0.737 0.592c1.338 1.098 3.451 1.01 4.673-0.192l2.52-2.491c1.241-1.219 1.144-3.118-0.213-4.215z" fill="#B57F72"/>
<path d="m331.18 295.9c0.175 8.066-5.292 17.63-13.358 25.643-0.504 1.272-15.199 14.006-15.199 14.006l6.146 4.059s14.54-10.713 20.221-15.539c1.492-1.271 2.675-2.822 3.451-4.529l9.926-21.95-11.187-1.69z" fill="#B57F72"/>
<path d="m328.56 294.21-7.58 17.943c-0.388 1.742 15.258 8.414 16.072 5.976 0.135-0.436 10.178-18.71 6.979-27.577-2.578-7.195-11.652-4.913-15.471 3.658z" fill="#3E69DE"/>
<path d="m276.21 352.21-3.858-0.313c-1.784-0.14-3.122-1.568-2.947-3.188 0.155-1.603 1.745-2.805 3.548-2.648l3.858 0.313c1.784 0.14 3.121 1.568 2.947 3.188-0.175 1.603-1.764 2.788-3.548 2.648z" fill="#FFA3B4"/>
<path d="m229.35 336.79s12.835 17.072 19.911 18.118c7.077 1.027 20.377-2.23 20.377-2.23l2.656-6.637-22.141-3.136-10.488-13.518c-8.221-2.718-11.129 0.313-10.315 7.403z" fill="#97CBFF"/>
<path d="m459.16 364.08c-14.618-7.874-38.562-8.24-53.471-0.801-14.909 7.438-15.141 19.859-0.504 27.733 14.618 7.874 38.29 8.24 53.471 0.958 16.692-8.013 15.122-20.016 0.504-27.89z" fill="#A8C4E5" opacity=".4"/>
<path d="m456.58 366.88c-14.424-7.77-48.895-12.874-63.61-5.522-3.877 1.933-11.691 4.947-11.691 4.947s0.233 7.195 0.582 10.017c0.543 4.477 4.071 8.902 10.605 12.421 14.424 7.769 37.806 8.135 52.792 0.94 8.647-4.146 11.865-8.901 11.342-14.058v-8.745h-0.02z" fill="#DEA03C"/>
<path d="m445.22 352.98c-14.424-7.769-38.057-8.135-52.772-0.784-14.715 7.334-14.948 19.598-0.504 27.368 14.424 7.77 37.805 8.135 52.792 0.941 16.479-7.892 14.928-19.738 0.484-27.525z" fill="#F2D03D"/>
<path d="m440.86 368.02c3.502-1.142 5.85-3.285 5.244-4.787-0.607-1.501-3.938-1.792-7.441-0.649-3.502 1.142-5.85 3.285-5.243 4.786 0.606 1.502 3.937 1.792 7.44 0.65z" fill="#16358A"/>
<path d="m417.48 356.83c3.502-1.143 5.85-3.286 5.243-4.787-0.606-1.502-3.937-1.792-7.44-0.65-3.502 1.142-5.85 3.285-5.244 4.787 0.607 1.501 3.938 1.792 7.441 0.65z" fill="#16358A"/>
<path d="m402.96 360.24 31.213 13.797c0.757 0.331 0.66 0.975-0.193 1.306-4.576 1.864-18.263 6.411-30.749 0.349-12.447-6.045-5.642-12.909-2.714-15.226 0.581-0.435 1.725-0.54 2.443-0.226z" fill="#16358A"/>
<path d="m396.33 369.39s9.694-0.627 15.452 1.986c5.719 2.596 5.7 7.386 5.7 7.386-0.291 0.175-18.515 0.018-21.152-9.372z" fill="#FF80AE"/>
<path d="m141.8 490.54c14.618-7.874 38.561-8.24 53.47-0.801 14.909 7.438 15.142 19.859 0.504 27.733-14.618 7.874-38.29 8.24-53.47 0.958-16.693-7.996-15.122-19.999-0.504-27.89z" fill="#A8C4E5" opacity=".4"/>
<path d="m115.98 493.87c14.424-7.769 48.895-12.874 63.61-5.522 3.877 1.934 11.691 4.947 11.691 4.947s-0.233 7.195-0.582 10.017c-0.543 4.477-4.071 8.902-10.605 12.421-14.424 7.769-37.806 8.135-52.792 0.941-8.647-4.146-11.865-8.902-11.342-14.059v-8.745h0.02z" fill="#DEA03C"/>
<path d="m127.32 479.97c14.425-7.769 38.058-8.135 52.773-0.783 14.715 7.334 14.948 19.598 0.504 27.367-14.424 7.77-37.805 8.136-52.792 0.941-16.46-7.909-14.909-19.755-0.485-27.525z" fill="#F2D03D"/>
<path d="m136.29 490.6c-2.986-1.638-6.98-2.195-8.899-1.254-1.919 0.94-1.047 3.031 1.958 4.668 2.986 1.638 6.979 2.195 8.899 1.255 1.9-0.941 1.027-3.032-1.958-4.669z" fill="#16358A"/>
<path d="m162.53 483.18c0.607-1.502-1.741-3.645-5.244-4.787-3.502-1.142-6.833-0.851-7.44 0.65-0.606 1.501 1.742 3.644 5.244 4.787 3.503 1.142 6.834 0.851 7.44-0.65z" fill="#16358A"/>
<path d="m169.6 487.23-31.213 13.797c-0.757 0.331-0.66 0.976 0.193 1.307 4.576 1.864 18.263 6.41 30.749 0.348 12.447-6.045 5.642-12.909 2.714-15.226-0.581-0.435-1.725-0.54-2.443-0.226z" fill="#16358A"/>
<path d="m176.23 496.38s-9.694-0.627-15.452 1.986c-5.719 2.596-5.7 7.387-5.7 7.387 0.291 0.157 18.515 0.017 21.152-9.373z" fill="#FF80AE"/>
<path d="m79.692 504.35c0.0673-6.851-12.317-12.503-27.66-12.624-15.344-0.122-27.837 5.332-27.904 12.183-0.0673 6.85 12.317 12.502 27.66 12.623 15.344 0.122 27.837-5.332 27.904-12.182z" fill="#E8EEFA" opacity=".4"/>
<path d="m31.29 492.25 6.9407-0.924c4.6143-1.985 6.7469-3.466 8.8407-2.421l0.601 0.296c2.0939 1.028 1.8806 2.944-0.4653 4.233l-10.043 7.526c-2.3652 1.289-5.6029 0.958-7.5417-0.505 0 0-1.1632-0.906-0.4459-4.826 0.3878-2.264 0.2133-2.334 2.1132-3.379z" fill="#191791"/>
<path d="m62 504.13 6.8631 2.02c5.2734 0.14 8.007-0.278 9.4029 1.481l0.3878 0.505c1.3959 1.76 0.2133 3.345-2.6367 3.502l-14.773 2.526c-2.85 0.174-4.0326-1.481-5.0602-3.554 0 0-0.6204-2.561 0.8725-5.331 1.1438-2.038 2.6754-1.01 4.9438-1.149z" fill="#191791"/>
<path d="m65.044 506.22c0.0775 2.927-7.8519 3.084-7.9295 0.157l-0.2326-9.512 7.9294-0.157 0.2327 9.512z" fill="#fff"/>
<path d="m65.897 500.19c-0.9112 3.728-9.1508 3.623-10.818 1.254-0.2714-32.001-5.4478-65.153-15.277-98.809l28.596-0.575c0.95 32.82 0.3878 65.536-2.501 98.13z" fill="#BAD4F5"/>
<path d="m37.727 492.7c-0.1164 2.648-8.0458 2.822-7.9295 0.157l0.3684-8.624 7.9294-0.156-0.3683 8.623z" fill="#fff"/>
<path d="m39.181 488.85c-3.0826 2.996-9.3447 1.864-10.605-0.227l2.0357-85.883 19.969 2.247-11.4 83.863z" fill="#BAD4F5"/>
<path d="m46.839 433.66-8.6662-10.662 8.4917 3.136 0.1745 7.526z" fill="#97B6DB"/>
<path d="m57.541 348.32c-1.7254 5.871-6.4948 7.613-10.682 3.885-4.1877-3.728-3.7418-11.341-2.0357-17.211 1.7255-5.871 4.052-7.77 8.2396-4.042 4.1877 3.728 6.204 11.498 4.4785 17.368z" fill="#FFA3B4"/>
<path d="m65.703 347.85c-2.4041 5.679-9.5387 7.247-13.261 3.136-3.7224-4.111-4.7694-12.038-2.3653-17.699 2.404-5.662 7.3672-6.934 11.09-2.84 3.7224 4.111 6.9601 11.742 4.5367 17.403z" fill="#FFA3B4"/>
<path d="m47.246 362.83-0.6398-0.279c-2.1908-0.906-3.1407-3.275-2.1132-5.226l5.7387-11.062c1.0081-1.969 3.6448-2.822 5.8162-1.899l0.6398 0.279c2.1908 0.906 3.1408 3.275 2.1132 5.226l-3.7805 11.358c-1.0082 1.969-5.603 2.526-7.7744 1.603z" fill="#FFA3B4"/>
<path d="m43.31 346.42s1.0663 5.069 6.4948 5.557c6.2621 0.557 5.4478-9.181 11.729-9.738 8.4917-0.749 8.1233-8.083 5.6999-11.202-2.4234-3.118-6.9989-3.188-12.641-3.257-5.9714-0.087-13.726 0.174-11.284 18.64z" fill="#1D348C"/>
<path d="m62.449 344.99c0.4466-1.416-0.4691-2.889-2.0453-3.291-1.5761-0.401-3.2159 0.422-3.6625 1.838-0.4465 1.416 0.4692 2.89 2.0453 3.291 1.5762 0.401 3.2159-0.421 3.6625-1.838z" fill="#FFA3B4"/>
<path d="m32.337 408.25c-1.8031-10.435-2.1714-17.42-2.2684-29.04 1.4929-22.141 3.2959-26.183 12.117-25.172l3.4897 0.749c1.6674 0.365 3.2959 0.888 4.8469 1.567 16.382 7.178 20.783 9.408 20.279 18.118 0.4265 14.337-1.5122 30.451-1.6673 37.506-3.102 9.982-32.92 3.293-36.797-3.728z" fill="#EF487C"/>
<path d="m57.269 353.29-0.5622-1.516s1.1439 1.219 3.5479 1.132c0 0-1.4734 0.61-2.9857 0.384z" fill="#E37B8E"/>
<path d="m56.339 365.08s0.8725 12.856 19.678 33.117c12.776 13.779 38-3.659 38-3.659l-1.881-6.114s-24.37 11.898-31.834-1.708c-4.3621-7.909-11.477-27.019-23.963-21.636z" fill="#FFA3B4"/>
<path d="m61.554 378.84 9.8294 17.038c3.451 5.365 17.546-3.763 12.738-9.791-0.3102-0.383-11.962-21.131-21.656-23.413-7.8713-1.846-6.7663 8.014-0.9112 16.166z" fill="#EF487C"/>
<path d="m117.27 395.67-3.102 0.715c-2.385 0.54-4.847-0.767-5.448-2.91-0.621-2.142 0.833-4.355 3.237-4.895l3.102-0.714c2.385-0.54 4.847 0.766 5.448 2.909 0.621 2.143-0.833 4.338-3.237 4.895z" fill="#FFA3B4"/>
<path d="m70.084 394.26-5.0407-9.129-0.2327 30.852s3.2377-0.662 4.3234-4.007l0.95-17.716z" fill="#DD4078"/>
<path d="m43.95 354.4s-1.4734 3.153 2.6561 4.53c4.1489 1.376 10.741 0.453 10.741 0.453s-8.6468-4.843-13.397-4.983z" fill="#fff"/>
<path d="m69.736 392.99s4.9632 0.261 9.0539-2.3c3.9357-2.456 3.8194-7.125 3.8194-7.125" stroke="#fff" stroke-linecap="round" stroke-linejoin="round" stroke-miterlimit="10" stroke-width="4.532"/>
<path d="m59.945 346.3c-0.5429-0.105-0.8724-0.575-0.7755-1.045l0.4265-5.871c0.1163-0.488 1.3378 0.209 1.8612 0.313 0.5429 0.105 2.152 0.14 2.0551 0.628l-2.3847 5.295c-0.1163 0.471-0.6398 0.784-1.1826 0.68z" fill="#1D348C"/>
<path d="m64.443 362.33c-0.7755-0.662-1.8806-0.906-2.9275-0.662-4.4204 1.08-15.859 4.86-14.928 14.86 1.1439 12.386 1.0082 2.717 1.0082 2.717l3.3346 0.366s1.8806-10.191 14.734-13.936c0.9112-0.262 1.1826-1.29 0.4847-1.882l-1.7061-1.463z" fill="#1D348C"/>
<path d="m41.604 353.84c-0.8725-0.349-1.8612-0.262-2.6367 0.226-3.3153 2.073-11.536 8.24-7.4836 16.288 5.0407 9.965 1.7255 1.986 1.7255 1.986l2.8887-0.592s-1.803-8.954 7.6193-15.469c0.6592-0.453 0.5428-1.394-0.2133-1.69l-1.8999-0.749z" fill="#1D348C"/>
<path d="m52.849 397.22s10.779 3.537 16.441 3.537c2.2101 1.411 1.1244 6.863-1.6092 6.916 0 0-14.676-2.892-18.438-7.073-3.7805-4.199 3.6061-3.38 3.6061-3.38z" fill="#1D348C"/>
<path d="m43.291 409.48 8.8794-6.463-13.416-34.249-7.057-3.536-10.954 6.08 22.548 38.168z" fill="#2B439E"/>
<path d="m37.223 399 9.5774 3.85c4.3428 1.742 7.6774-0.052 7.2703-3.902l-2.5204-23.135c-0.3683-3.467-3.6836-7.351-7.5805-8.919l-5.8162-2.334c-3.9163-1.568-7.1152-0.279-7.2897 2.978l-1.2408 21.637c-0.2132 3.588 3.2765 8.1 7.5999 9.825z" fill="#2B439E"/>
<path d="m43.388 398.41-0.1163-1.028c-0.0194-0.157-0.1745-0.679 0.0582-0.819l5.0601-2.543c0.1551-0.087 2.5203-1.342 3.9744-2.056 0.5622-0.279 1.2408-0.035 1.3765 0.453 0.0776 0.314-0.0969 0.662-0.4459 0.836l-9.907 5.157z" fill="#52A5FF"/>
<path d="m30.185 395.15-4.7111-7.212c-1.3765-0.558-5.5254 0.226-7.9876 1.132l-0.349 6.045c-0.2133 3.589 3.0632 8.048 7.1152 9.668l8.9376 3.589c4.052 1.62 1.0275-11.602-3.0051-13.222z" fill="#1D348C"/>
<path d="m17.642 389.3c-0.3296 0.122-0.698-0.07-0.6786-0.366l0.0388-0.401c0.0194-0.157 0.2326-0.366 0.4847-0.453l5.0601-1.829c0.252-0.087 0.4459-0.035 0.4265 0.122l-0.0775 1.01-5.254 1.917z" fill="#52A5FF"/>
<path d="m26.424 405.65 10.217 4.111c4.6336 1.864 8.2203 0.157 7.7743-3.693l-2.6367-23.205c-0.3877-3.466-2.9081-8.396-7.0764-10.069l-6.9407-2.56c-4.1877-1.673-7.8907 0.54-8.0846 3.78l-1.3571 21.584c-0.2326 3.588 3.4898 8.188 8.104 10.052z" fill="#1D348C"/>
<path d="m25.92 405.44 9.5774 3.85c4.3428 1.742 7.6774-0.053 7.2703-3.903l-2.5204-23.134c-0.3683-3.467-3.6836-7.351-7.5805-8.919l-5.8162-2.335c-3.9163-1.568-7.1152-0.278-7.2897 2.979l-1.2602 21.619c-0.1938 3.589 3.2959 8.101 7.6193 9.843z" fill="#2B439E"/>
<path d="m36.699 402.95-0.252-3.728c-0.4459-6.428 0.7949-12.159 3.6254-16.671l0.1939-0.314 2.5204 23.135c0.3296 3.048-1.6867 4.808-4.7112 4.546-0.0193 0-0.9499-3.118-1.3765-6.968z" fill="#52A5FF"/>
<path d="m24.369 398 0.0776-3.589c0.1357-6.201-1.4347-13.048-4.5367-19.946l-0.2133-0.47-1.3959 21.566c-0.1745 2.84 1.9776 6.272 5.0214 8.449 0.0194 0 0.8143-2.421 1.0469-6.01z" fill="#52A5FF"/>
<path d="m37.456 409.96c-0.097-0.662-0.5429-7.177-7.5612-10.121-1.7836-0.749-3.1601-0.871-4.0907-0.366-1.6479 0.889-2.0357 4.146-1.9775 5.122l-1.3572-0.732c0-0.174-0.1938-3.919 2.5398-5.4 1.4541-0.784 3.3346-0.68 5.6418 0.279 7.7355 3.257 8.3172 10.992 8.3366 11.323l-1.5316-0.105z" fill="#1D348C"/>
<path d="m35.614 383.91c-0.1357 0-0.252-0.018-0.3877-0.053l-11.187-4.494c-0.3683-0.139-0.504-0.505-0.2908-0.819 0.1939-0.313 0.6592-0.435 1.0276-0.296l11.186 4.495c0.3684 0.139 0.5041 0.505 0.2908 0.818-0.1163 0.209-0.3683 0.331-0.6398 0.349z" fill="#fff"/>
</g>
<path d="m304.6 561.97c-15.141-8.17-39.957-8.536-55.39-0.819-15.452 7.7-15.684 20.574-0.523 28.744 15.141 8.17 39.686 8.536 55.409 0.993 17.274-8.327 15.646-20.748 0.504-28.918z" fill="#A8C4E5" opacity=".4"/>
<path d="m299.22 565.02c-14.948-8.066-50.66-13.327-65.917-5.732-4.014 2.004-12.118 5.122-12.118 5.122s0.252 7.456 0.601 10.383c0.563 4.633 4.227 9.233 10.993 12.873 14.948 8.066 39.163 8.432 54.692 0.976 8.957-4.303 12.311-9.233 11.749-14.581v-9.041z" fill="#E3377D"/>
<path d="m287.48 550.61c-14.948-8.066-39.434-8.432-54.673-0.819-15.238 7.613-15.471 20.312-0.523 28.361 14.948 8.065 39.163 8.431 54.692 0.975 17.061-8.188 15.452-20.452 0.504-28.517z" fill="#FF80AE"/>
<path d="m245.58 557.05c0.271-1.202 1.299-2.369 3.102-3.31 4.517-2.334 11.807-2.874 16.731-0.627 2.462 1.133 2.773 4.442-2.83 5.662 3.858-2.526 13.319-0.54 15.781 0.575 4.924 2.264 5.254 5.992 0.737 8.327-2.288 1.184-5.39 1.794-8.531 1.794-0.31 0-13.377 0.54-21.093 0.854-2.889 0.122-5.39-1.063-5.216-2.474l1.222-10.261c0.039-0.174 0.058-0.348 0.097-0.54z" fill="#fff"/>
</g>
<defs>
<clipPath id="c">
<rect width="479" height="606" fill="#fff"/>
</clipPath>
<clipPath id="b">
<rect transform="translate(36.349 103.78)" width="121.16" height="227.16" fill="#fff"/>
</clipPath>
<clipPath id="a">
<rect transform="translate(16.963 250.38)" width="487.88" height="275.78" fill="#fff"/>
</clipPath>
</defs>
</svg>
