<?xml version="1.0" encoding="UTF-8"?>
<svg width="536px" height="433px" viewBox="0 0 536 433" version="1.1" xmlns="http://www.w3.org/2000/svg" xmlns:xlink="http://www.w3.org/1999/xlink">
    <!-- Generator: Sketch 54.1 (76490) - https://sketchapp.com -->
    <title>images/UC_Insta_BG</title>
    <desc>Created with Sketch.</desc>
    <defs>
        <polygon id="path-1" points="0 0 536 0 536 433 0 433"></polygon>
    </defs>
    <g id="Symbols" stroke="none" stroke-width="1" fill="none" fill-rule="evenodd">
        <g id="images/UC_Insta_BG">
            <g transform="translate(268.000000, 216.500000) scale(-1, 1) translate(-268.000000, -216.500000) ">
                <mask id="mask-2" fill="white">
                    <use xlink:href="#path-1"></use>
                </mask>
                <g id="Clip-2"></g>
                <path d="M415.449275,390.887882 C440.376959,394.146263 466.655788,395.919345 489.472606,383.378148 C529.764166,361.231863 546.35297,296.035711 529.413157,246.685516 C512.472141,197.334132 468.487769,166.122651 424.296637,162.822649 C387.830119,160.099404 349.348902,173.501575 315.700076,156.330861 C280.268554,138.250416 261.592927,92.2810885 234.727479,59.0622555 C192.192824,6.47032857 124.140261,-13.5806037 66.2994286,9.43854677 C33.2636669,22.5862312 0.856596882,56.2854969 3.37617175,98.1437951 C6.44990884,149.211181 59.1638387,185.068826 53.4575306,235.806806 C48.998989,275.456778 10.6343745,297.988361 1.77258736,336.546657 C-9.52102231,385.683987 35.2122504,431.335801 77.4572024,432.930505 C119.702155,434.525209 158.659398,408.33211 197.976066,389.610692 C268.478482,356.03867 343.077613,381.429065 415.449275,390.887882" id="Fill-1" fill-opacity="0.1" fill="#8D4FDF" mask="url(#mask-2)"></path>
            </g>
        </g>
    </g>
</svg>