<?xml version="1.0" encoding="UTF-8"?>
<svg width="387px" height="280px" viewBox="0 0 387 280" version="1.1" xmlns="http://www.w3.org/2000/svg" xmlns:xlink="http://www.w3.org/1999/xlink">
    <!-- Generator: Sketch 54.1 (76490) - https://sketchapp.com -->
    <title>Group 4</title>
    <desc>Created with Sketch.</desc>
    <defs>
        <polygon id="path-1" points="0 0 387 0 387 280 0 280"></polygon>
    </defs>
    <g id="Symbols" stroke="none" stroke-width="1" fill="none" fill-rule="evenodd" opacity="0.1">
        <g id="images/UC_Sneakers_BG" transform="translate(-37.000000, -49.000000)">
            <g id="Group-4" transform="translate(37.000000, 49.000000)">
                <g id="Group-3">
                    <mask id="mask-2" fill="white">
                        <use xlink:href="#path-1"></use>
                    </mask>
                    <g id="Clip-2"></g>
                    <path d="M339.294553,143.85047 C354.70264,137.853919 370.411979,130.568786 379.536489,116.062399 C395.647496,90.4469335 384.294834,47.3260162 358.704299,24.0203749 C333.115346,0.713944926 297.762218,-3.49720537 271.241837,8.57160439 C249.358035,18.5301074 231.48459,38.4928524 206.589859,39.1678983 C180.376264,39.8776427 154.871914,19.0860739 128.738178,8.29164965 C87.3623987,-8.79741907 41.721662,1.09168668 15.7792721,32.7675807 C0.961826643,50.8597549 -6.90154023,80.6903133 7.97599734,104.207301 C26.1269727,132.899114 67.9993025,137.046387 80.9863111,168.324824 C91.134759,192.767634 76.2572214,217.996683 83.5188766,243.198919 C92.7714779,275.316432 133.188156,287.679391 158.04019,275.235205 C182.891434,262.792597 196.93638,235.248993 213.584262,211.931522 C243.437382,170.1189 294.563104,161.258924 339.294553,143.85047" id="Fill-1" fill="#05F4AA" mask="url(#mask-2)"></path>
                </g>
            </g>
        </g>
    </g>
</svg>