<?xml version="1.0" encoding="UTF-8"?>
<svg width="369px" height="229px" viewBox="0 0 369 229" version="1.1" xmlns="http://www.w3.org/2000/svg" xmlns:xlink="http://www.w3.org/1999/xlink">
    <!-- Generator: Sketch 54.1 (76490) - https://sketchapp.com -->
    <title>images/UC_AdVar_BG</title>
    <desc>Created with Sketch.</desc>
    <defs>
        <polygon id="path-1" points="0 0.00059924269 489.612516 0.00059924269 489.612516 355.252947 0 355.252947"></polygon>
    </defs>
    <g id="Use-Cases" stroke="none" stroke-width="1" fill="none" fill-rule="evenodd" opacity="0.1">
        <g id="Use-Cases_" transform="translate(-941.000000, -1731.000000)">
            <g id="Use-Cases" transform="translate(0.000000, 339.000000)">
                <g id="UC_SEO" transform="translate(730.000000, 1188.000000)">
                    <g id="images/UC_AdVar_BG">
                        <g id="images/UC_SEO_BG" transform="translate(209.000000, 204.000000)">
                            <g id="Group-3">
                                <mask id="mask-2" fill="white">
                                    <use xlink:href="#path-1"></use>
                                </mask>
                                <g id="Clip-2"></g>
                                <path d="M59.4019,175.9931 C40.0159,183.8501 20.2709,193.3481 8.9729,211.8921 C-10.9761,244.6391 4.0959,299.1261 36.8439,328.2541 C69.5909,357.3811 114.3699,362.1351 147.7069,346.3941 C175.2169,333.4051 197.4879,307.7971 228.9599,306.5301 C262.0979,305.1951 294.6959,331.1381 327.9239,344.3911 C380.5319,365.3761 438.0869,352.0811 470.3679,311.4881 C488.8059,288.3031 498.2549,250.3481 479.0509,220.7751 C455.6219,184.6961 402.5989,180.1311 385.6579,140.6861 C372.4189,109.8611 390.8139,77.6261 381.2129,45.7911 C368.9779,5.2211 317.6619,-9.7849 286.4409,6.4031 C255.2189,22.5921 237.9149,57.7481 217.2489,87.5891 C180.1889,141.0991 115.6819,153.1801 59.4019,175.9931" id="Fill-1" fill="#012988" mask="url(#mask-2)"></path>
                            </g>
                        </g>
                    </g>
                </g>
            </g>
        </g>
    </g>
</svg>