<?xml version="1.0" encoding="UTF-8"?>
<svg width="1003px" height="127px" viewBox="0 0 1003 127" version="1.1" xmlns="http://www.w3.org/2000/svg" xmlns:xlink="http://www.w3.org/1999/xlink">
    <!-- Generator: Sketch 54.1 (76490) - https://sketchapp.com -->
    <title>images/Stars</title>
    <desc>Created with Sketch.</desc>
    <defs>
        <polygon id="path-1" points="0 0.295 549.555507 0.295 549.555507 147.0501 0 147.0501"></polygon>
    </defs>
    <g id="HP" stroke="none" stroke-width="1" fill="none" fill-rule="evenodd">
        <g transform="translate(-219.000000, -2276.000000)" id="Ip-Locations">
            <g transform="translate(0.000000, 2276.000000)">
                <g id="Group-39">
                    <g id="images/Stars" transform="translate(219.000000, -22.000000)">
                        <g id="Group-16">
                            <path d="M356.6499,24.0052 C356.6499,21.8052 357.4169,19.9222 358.9499,18.3552 C360.5169,16.8212 362.3999,16.0552 364.5999,16.0552 C366.7999,16.0552 368.6669,16.8212 370.1999,18.3552 C371.7669,19.9222 372.5499,21.8052 372.5499,24.0052 C372.5499,26.2052 371.7669,28.0712 370.1999,29.6052 C368.6669,31.1722 366.7999,31.9552 364.5999,31.9552 C362.3999,31.9552 360.5169,31.1722 358.9499,29.6052 C357.4169,28.0712 356.6499,26.2052 356.6499,24.0052 M978.9499,45.0052 C980.5169,46.5722 981.2999,48.4552 981.2999,50.6552 C981.2999,52.8552 980.5169,54.7212 978.9499,56.2552 C977.4169,57.8222 975.5499,58.6052 973.3499,58.6052 C971.1499,58.6052 969.2669,57.8222 967.6999,56.2552 C966.1669,54.7212 965.3999,52.8552 965.3999,50.6552 C965.3999,48.4552 966.1669,46.5722 967.6999,45.0052 C969.2669,43.4712 971.1499,42.7052 973.3499,42.7052 C975.5499,42.7052 977.4169,43.4712 978.9499,45.0052" id="Fill-1" fill="#B12DE8"></path>
                            <path d="M22.25,126.8553 C22.25,125.4883 22.717,124.3053 23.65,123.3053 C24.65,122.3383 25.85,121.8553 27.25,121.8553 C28.617,121.8553 29.783,122.3383 30.75,123.3053 C31.75,124.3053 32.25,125.4883 32.25,126.8553 C32.25,128.2553 31.75,129.4383 30.75,130.4053 C29.783,131.3723 28.617,131.8553 27.25,131.8553 C25.85,131.8553 24.65,131.3723 23.65,130.4053 C22.717,129.4383 22.25,128.2553 22.25,126.8553 M319.05,55.8053 C319.05,54.4383 319.517,53.2553 320.45,52.2553 C321.45,51.2883 322.65,50.8053 324.05,50.8053 C325.417,50.8053 326.583,51.2883 327.55,52.2553 C328.55,53.2553 329.05,54.4383 329.05,55.8053 C329.05,57.2053 328.55,58.3883 327.55,59.3553 C326.583,60.3213 325.417,60.8053 324.05,60.8053 C322.65,60.8053 321.45,60.3213 320.45,59.3553 C319.517,58.3883 319.05,57.2053 319.05,55.8053 M992.9,37.7053 C992.9,36.3383 993.366,35.1553 994.3,34.1553 C995.3,33.1883 996.5,32.7053 997.9,32.7053 C999.267,32.7053 1000.434,33.1883 1001.4,34.1553 C1002.4,35.1553 1002.9,36.3383 1002.9,37.7053 C1002.9,39.1053 1002.4,40.2893 1001.4,41.2543 C1000.434,42.2213 999.267,42.7053 997.9,42.7053 C996.5,42.7053 995.3,42.2213 994.3,41.2543 C993.366,40.2893 992.9,39.1053 992.9,37.7053 M917.9,117.3553 C917.9,115.9883 918.366,114.8053 919.3,113.8053 C920.3,112.8383 921.5,112.3553 922.9,112.3553 C924.267,112.3553 925.434,112.8383 926.4,113.8053 C927.4,114.8053 927.9,115.9883 927.9,117.3553 C927.9,118.7553 927.4,119.9383 926.4,120.9053 C925.434,121.8723 924.267,122.3553 922.9,122.3553 C921.5,122.3553 920.3,121.8723 919.3,120.9053 C918.366,119.9383 917.9,118.7553 917.9,117.3553" id="Fill-3" fill="#630DD3"></path>
                            <path d="M810.3999,143.705 C810.3999,142.339 810.8669,141.155 811.7999,140.155 C812.7999,139.188 813.9999,138.705 815.3999,138.705 C816.7669,138.705 817.9329,139.188 818.8999,140.155 C819.8999,141.155 820.3999,142.339 820.3999,143.705 C820.3999,145.105 819.8999,146.289 818.8999,147.255 C817.9329,148.222 816.7669,148.705 815.3999,148.705 C813.9999,148.705 812.7999,148.222 811.7999,147.255 C810.8669,146.289 810.3999,145.105 810.3999,143.705 M863.1499,50.155 C863.1499,48.788 863.6159,47.605 864.5499,46.605 C865.5499,45.639 866.7499,45.155 868.1499,45.155 C869.5169,45.155 870.6839,45.639 871.6499,46.605 C872.6499,47.605 873.1499,48.788 873.1499,50.155 C873.1499,51.555 872.6499,52.739 871.6499,53.705 C870.6839,54.672 869.5169,55.155 868.1499,55.155 C866.7499,55.155 865.5499,54.672 864.5499,53.705 C863.6159,52.739 863.1499,51.555 863.1499,50.155" id="Fill-5" fill="#D8DFFF"></path>
                            <g id="Group-9" transform="translate(0.000000, 0.705000)">
                                <mask id="mask-2" fill="white">
                                    <use xlink:href="#path-1"></use>
                                </mask>
                                <g id="Clip-8"></g>
                                <path d="M13.5498,133.4501 C15.1168,135.0171 15.8998,136.9001 15.8998,139.1001 C15.8998,141.3001 15.1168,143.1671 13.5498,144.7001 C12.0168,146.2671 10.1498,147.0501 7.9498,147.0501 C5.7498,147.0501 3.8668,146.2671 2.2998,144.7001 C0.7668,143.1671 -0.0002,141.3001 -0.0002,139.1001 C-0.0002,136.9001 0.7668,135.0171 2.2998,133.4501 C3.8668,131.9171 5.7498,131.1501 7.9498,131.1501 C10.1498,131.1501 12.0168,131.9171 13.5498,133.4501 L13.5498,133.4501 Z M545.6508,13.0751 L537.8498,17.0501 C534.2498,18.9171 533.3668,21.6501 535.1998,25.2501 L537.9498,30.6501 L530.6498,34.3501 C527.4838,35.9831 525.0998,35.2171 523.4998,32.0501 L515.4998,16.3001 C513.8668,13.1331 514.6328,10.7331 517.7998,9.1001 L533.5498,1.1001 C536.7168,-0.4999 539.1158,0.2831 540.7498,3.4501 L545.6508,13.0751 Z M547.1508,16.0251 L548.7498,19.2001 C550.3498,22.3671 549.5668,24.7501 546.4008,26.3501 L540.9008,29.1501 L538.1508,23.7501 C537.3168,22.1171 537.7168,20.8671 539.3498,20.0001 L547.1508,16.0251 Z" id="Fill-7" fill="#1DAFF4" mask="url(#mask-2)"></path>
                            </g>
                            <path d="M158.5,82.3051 C154.867,80.4721 153.983,77.7391 155.85,74.1051 L162.5,61.0551 C164.333,57.4551 167.067,56.5721 170.7,58.4051 L183.75,65.0551 C187.35,66.9221 188.233,69.6551 186.4,73.2551 L179.75,86.3051 C177.883,89.9381 175.15,90.8221 171.55,88.9551 L158.5,82.3051 Z M158.8,75.6051 C157.933,77.2721 158.333,78.5221 160,79.3551 L173.05,86.0051 C174.683,86.8721 175.933,86.4721 176.8,84.8051 L183.45,71.7551 C184.283,70.1221 183.883,68.8721 182.25,68.0051 L169.2,61.3551 C167.533,60.5221 166.283,60.9221 165.45,62.5551 L158.8,75.6051 Z M540.9,29.8551 L544.8,37.5051 C545.667,39.1721 546.917,39.5721 548.55,38.7051 L561.6,32.0551 C563.267,31.2221 563.667,29.9721 562.8,28.3051 L556.15,15.2551 C555.316,13.6221 554.066,13.2221 552.4,14.0551 L547.15,16.7301 L539.35,20.7051 C537.717,21.5721 537.316,22.8221 538.15,24.4551 L540.9,29.8551 Z M545.65,13.7801 L550.9,11.1051 C554.533,9.2721 557.267,10.1551 559.1,13.7551 L565.75,26.8051 C567.616,30.4381 566.733,33.1721 563.1,35.0051 L550.05,41.6551 C546.45,43.5221 543.717,42.6381 541.85,39.0051 L537.95,31.3551 L535.2,25.9551 C533.367,22.3551 534.25,19.6221 537.85,17.7551 L545.65,13.7801 Z" id="Fill-10" fill="#B12DE8"></path>
                            <path d="M195.7998,96.5052 L202.8998,92.9052 C204.6998,91.9722 206.0668,92.4222 206.9998,94.2552 L210.5998,101.3552 C211.5328,103.1552 211.0998,104.5222 209.2998,105.4552 L202.1998,109.0552 C200.3998,109.9882 199.0328,109.5552 198.0998,107.7552 L194.4998,100.6552 C193.5668,98.8212 193.9998,97.4382 195.7998,96.5052 L195.7998,96.5052 Z M196.3998,97.7052 C195.3998,98.2052 195.1668,98.9722 195.6998,100.0052 L199.2998,107.1052 C199.8338,108.1052 200.5998,108.3552 201.5998,107.8552 L208.6998,104.2552 C209.6998,103.7222 209.9328,102.9552 209.3998,101.9552 L205.7998,94.8552 C205.2668,93.8212 204.4998,93.5712 203.4998,94.1052 L196.3998,97.7052 Z" id="Fill-12" fill="#D6E0FF"></path>
                            <path d="M56.1504,64.1551 C56.1504,62.7881 56.6164,61.6051 57.5494,60.6051 C58.5494,59.6381 59.7504,59.1551 61.1504,59.1551 C62.5164,59.1551 63.6834,59.6381 64.6504,60.6051 C65.6504,61.6051 66.1504,62.7881 66.1504,64.1551 C66.1504,65.5551 65.6504,66.7381 64.6504,67.7051 C63.6834,68.6721 62.5164,69.1551 61.1504,69.1551 C59.7504,69.1551 58.5494,68.6721 57.5494,67.7051 C56.6164,66.7381 56.1504,65.5551 56.1504,64.1551" id="Fill-14" fill="#D8DFFF"></path>
                        </g>
                    </g>
                </g>
            </g>
        </g>
    </g>
</svg>