<?xml version="1.0" encoding="UTF-8"?>
<svg width="45px" height="45px" viewBox="0 0 45 45" version="1.1" xmlns="http://www.w3.org/2000/svg" xmlns:xlink="http://www.w3.org/1999/xlink">
    <!-- Generator: Sketch 54.1 (76490) - https://sketchapp.com -->
    <title>Telegram</title>
    <desc>Created with Sketch.</desc>
    <defs>
        <polygon id="path-1" points="4.07862448e-05 0.0549618321 26.9454368 0.0549618321 26.9454368 23.9083969 4.07862448e-05 23.9083969"></polygon>
    </defs>
    <g id="HP" stroke="none" stroke-width="1" fill="none" fill-rule="evenodd">
        <g transform="translate(-1056.000000, -7618.000000)" id="Footer">
            <g transform="translate(0.000000, 7484.000000)">
                <g id="Telegram" transform="translate(1056.000000, 134.000000)">
                    <circle id="Oval" fill="#007BB9" cx="22.5" cy="22.5" r="22.5"></circle>
                    <g id="Group-8" transform="translate(7.000000, 10.000000)">
                        <g id="Group-3" transform="translate(0.000000, 0.036641)">
                            <mask id="mask-2" fill="white">
                                <use xlink:href="#path-1"></use>
                            </mask>
                            <g id="Clip-2"></g>
                            <path d="M26.9454368,0.900247328 L22.6838175,22.915484 C22.6838175,22.915484 22.0877613,24.4422321 20.4487182,23.7094076 L10.6142811,15.9841557 L7.03812219,14.2131939 L1.01828444,12.1368275 C1.01828444,12.1368275 0.0944731788,11.8010107 0.0050692053,11.0681863 C-0.0843347682,10.3353618 1.04805596,9.9383542 1.04805596,9.9383542 L24.9785493,0.320033588 C24.9785493,0.320033588 26.9454368,-0.565401527 26.9454368,0.900247328" id="Fill-1" fill="#FEFEFE" mask="url(#mask-2)"></path>
                        </g>
                        <path d="M9.85837053,22.7049069 C9.85837053,22.7049069 9.57129437,22.6773344 9.21367848,21.5169069 C8.85606258,20.3566626 7.03812219,14.2498534 7.03812219,14.2498534 L21.4917944,4.84524275 C21.4917944,4.84524275 22.3262017,4.32621985 22.2964301,4.84524275 C22.2964301,4.84524275 22.4454666,4.9368458 21.9984467,5.36435725 C21.5514268,5.7918687 10.6441421,15.8375176 10.6441421,15.8375176" id="Fill-4" fill="#D2E5F1"></path>
                        <path d="M14.3850546,18.9828183 L10.4950877,22.6167115 C10.4950877,22.6167115 10.1910248,22.8530473 9.85835265,22.7049252 L10.6031772,15.9550626" id="Fill-6" fill="#B5D0E4"></path>
                    </g>
                </g>
            </g>
        </g>
    </g>
</svg>