<svg width="185" height="116" viewBox="0 0 185 116" fill="none" xmlns="http://www.w3.org/2000/svg">
<g filter="url(#filter0_d_38_3435)">
<mask id="mask0_38_3435" style="mask-type:alpha" maskUnits="userSpaceOnUse" x="21" y="1" width="143" height="104">
<path fill-rule="evenodd" clip-rule="evenodd" d="M21.3885 1.14624H163.504V104.279H21.3885V1.14624Z" fill="white"/>
</mask>
<g mask="url(#mask0_38_3435)">
<path fill-rule="evenodd" clip-rule="evenodd" d="M163.504 100.307C163.504 102.505 161.714 104.279 159.514 104.279H25.3768C23.1766 104.279 21.3885 102.505 21.3885 100.307V5.11879C21.3885 2.92112 23.1766 1.146 25.3768 1.146H159.514C161.714 1.146 163.504 2.92112 163.504 5.11879V100.307Z" fill="white"/>
</g>
<rect x="27.9594" y="8.10376" width="129.134" height="87.2753" fill="#191551"/>
<mask id="mask1_38_3435" style="mask-type:alpha" maskUnits="userSpaceOnUse" x="3" y="101" width="179" height="10">
<path fill-rule="evenodd" clip-rule="evenodd" d="M3.53928 101.301H181.351V110.228H3.53928V101.301Z" fill="white"/>
</mask>
<g mask="url(#mask1_38_3435)">
<path fill-rule="evenodd" clip-rule="evenodd" d="M3.53922 101.301C4.06928 106.295 9.33553 110.228 15.8158 110.228H169.072C175.556 110.228 180.819 106.295 181.352 101.301H3.53922Z" fill="#EFEFEF"/>
</g>
<path fill-rule="evenodd" clip-rule="evenodd" d="M69.0055 104.279H115.885V101.301H69.0055V104.279Z" fill="#CCCCCC"/>
</g>
<circle cx="93.0002" cy="50" r="36" stroke="#FC3E54" stroke-width="6"/>
<path d="M66.0002 32.3C66.0002 29.9252 67.8825 28 70.2044 28H116.796C119.118 28 121 29.9252 121 32.3V71H66.0002V32.3Z" fill="#2C267D"/>
<path fill-rule="evenodd" clip-rule="evenodd" d="M84.5335 55H97.4664C97.7462 55 98.0002 55.2139 98.0002 55.4997C98.0002 55.7614 97.7714 56 97.4664 56H84.5335C84.2543 56 84.0002 55.7856 84.0002 55.4997C84.0002 55.238 84.2543 55 84.5335 55Z" fill="#362F9C"/>
<path fill-rule="evenodd" clip-rule="evenodd" d="M84.5335 61H97.4664C97.7462 61 98.0002 61.214 98.0002 61.5C98.0002 61.7618 97.7714 62 97.4664 62H84.5335C84.2543 62 84.0002 61.786 84.0002 61.5C84.0002 61.2382 84.2543 61 84.5335 61Z" fill="#362F9C"/>
<path fill-rule="evenodd" clip-rule="evenodd" d="M84.5288 35H100.472C100.748 35 101 35.2143 101 35.5C101 35.7619 100.773 36 100.472 36H84.5288C84.252 36 84.0002 35.7857 84.0002 35.5C84.0002 35.2143 84.252 35 84.5288 35Z" fill="#362F9C"/>
<path fill-rule="evenodd" clip-rule="evenodd" d="M84.5288 38H100.472C100.748 38 101 38.2143 101 38.5C101 38.7619 100.773 39 100.472 39H84.5288C84.252 39 84.0002 38.7857 84.0002 38.5C84.0002 38.2143 84.252 38 84.5288 38Z" fill="#362F9C"/>
<path fill-rule="evenodd" clip-rule="evenodd" d="M84.5887 41H89.4111C89.7199 41 90.0002 41.2143 90.0002 41.5C90.0002 41.7619 89.7477 42 89.4111 42H84.5887C84.2805 42 84.0002 41.7857 84.0002 41.5C84.0002 41.2143 84.2805 41 84.5887 41Z" fill="#362F9C"/>
<path fill-rule="evenodd" clip-rule="evenodd" d="M84.5887 64H89.4111C89.7199 64 90.0002 64.2144 90.0002 64.5003C90.0002 64.762 89.7477 65 89.4111 65H84.5887C84.2805 65 84.0002 64.7861 84.0002 64.5003C84.0002 64.2144 84.2805 64 84.5887 64Z" fill="#362F9C"/>
<path fill-rule="evenodd" clip-rule="evenodd" d="M90.5893 41H95.4117C95.7199 41 96.0002 41.2143 96.0002 41.5C96.0002 41.7619 95.7483 42 95.4117 42H90.5893C90.2805 42 90.0002 41.7857 90.0002 41.5C90.0002 41.2143 90.2527 41 90.5893 41Z" fill="#362F9C"/>
<path fill-rule="evenodd" clip-rule="evenodd" d="M90.5893 64H95.4117C95.7199 64 96.0002 64.2144 96.0002 64.5003C96.0002 64.762 95.7483 65 95.4117 65H90.5893C90.2805 65 90.0002 64.7861 90.0002 64.5003C90.0002 64.2144 90.2527 64 90.5893 64Z" fill="#362F9C"/>
<path fill-rule="evenodd" clip-rule="evenodd" d="M84.5365 44H90.464C90.7448 44 91.0002 44.2144 91.0002 44.5003C91.0002 44.762 90.7702 45 90.464 45H84.5365C84.2557 45 84.0002 44.7856 84.0002 44.5003C84.0002 44.2144 84.2557 44 84.5365 44Z" fill="#362F9C"/>
<path fill-rule="evenodd" clip-rule="evenodd" d="M92.537 44H98.4634C98.7448 44 99.0002 44.2144 99.0002 44.5003C99.0002 44.762 98.7702 45 98.4634 45H92.537C92.2556 45 92.0002 44.7856 92.0002 44.5003C92.0002 44.2144 92.2303 44 92.537 44Z" fill="#362F9C"/>
<path fill-rule="evenodd" clip-rule="evenodd" d="M84.5217 46H91.4787C91.7518 46 92.0002 46.2144 92.0002 46.5003C92.0002 46.762 91.7765 47 91.4787 47H84.5217C84.2486 47 84.0002 46.7856 84.0002 46.5003C84.0002 46.238 84.2486 46 84.5217 46Z" fill="#362F9C"/>
<path fill-rule="evenodd" clip-rule="evenodd" d="M93.5222 46H100.478C100.752 46 101 46.2144 101 46.5003C101 46.762 100.777 47 100.478 47H93.5222C93.2486 47 93.0002 46.7856 93.0002 46.5003C93.0254 46.238 93.2486 46 93.5222 46Z" fill="#362F9C"/>
<path fill-rule="evenodd" clip-rule="evenodd" d="M84.5454 49H89.4545C89.7405 49 90.0002 49.2144 90.0002 49.4997C90.0002 49.762 89.7663 50 89.4545 50H84.5454C84.2599 50 84.0002 49.7856 84.0002 49.4997C84.0002 49.2144 84.2599 49 84.5454 49Z" fill="#362F9C"/>
<path fill-rule="evenodd" clip-rule="evenodd" d="M91.5454 49H96.455C96.7405 49 97.0002 49.2144 97.0002 49.4997C97.0002 49.762 96.7669 50 96.455 50H91.5454C91.2599 50 91.0002 49.7856 91.0002 49.4997C91.0002 49.2144 91.2599 49 91.5454 49Z" fill="#362F9C"/>
<path fill-rule="evenodd" clip-rule="evenodd" d="M84.5217 52H91.4787C91.7518 52 92.0002 52.4278 92.0002 52.9995C92.0002 53.5239 91.7765 54 91.4787 54H84.5217C84.2486 54 84.0002 53.5712 84.0002 52.9995C84.0002 52.4761 84.2486 52 84.5217 52Z" fill="#362F9C"/>
<path fill-rule="evenodd" clip-rule="evenodd" d="M84.5217 58H91.4787C91.7518 58 92.0002 58.2139 92.0002 58.4997C92.0002 58.7614 91.7765 59 91.4787 59H84.5217C84.2486 59 84.0002 58.7856 84.0002 58.4997C84.0002 58.2381 84.2486 58 84.5217 58Z" fill="#362F9C"/>
<path fill-rule="evenodd" clip-rule="evenodd" d="M93.5222 52H100.478C100.752 52 101 52.4278 101 52.9995C101 53.5239 100.777 54 100.478 54H93.5222C93.2486 54 93.0002 53.5712 93.0002 52.9995C93.0254 52.4761 93.2486 52 93.5222 52Z" fill="#362F9C"/>
<path fill-rule="evenodd" clip-rule="evenodd" d="M93.5222 58H100.478C100.752 58 101 58.2139 101 58.4997C101 58.7614 100.777 59 100.478 59H93.5222C93.2486 59 93.0002 58.7856 93.0002 58.4997C93.0254 58.2381 93.2486 58 93.5222 58Z" fill="#362F9C"/>
<path fill-rule="evenodd" clip-rule="evenodd" d="M100.534 55H113.466C113.746 55 114 55.2139 114 55.4997C114 55.762 113.771 56 113.466 56H100.534C100.255 56 100 55.7856 100 55.4997C100 55.238 100.255 55 100.534 55Z" fill="#362F9C"/>
<path fill-rule="evenodd" clip-rule="evenodd" d="M100.534 61H113.466C113.746 61 114 61.2139 114 61.4997C114 61.762 113.771 62 113.466 62H100.534C100.255 62 100 61.7856 100 61.4997C100 61.238 100.255 61 100.534 61Z" fill="#362F9C"/>
<path fill-rule="evenodd" clip-rule="evenodd" d="M100.529 35H116.471C116.748 35 117 35.2143 117 35.5C117 35.7619 116.773 36 116.471 36H100.529C100.253 36 100 35.7857 100 35.5C100 35.2143 100.253 35 100.529 35Z" fill="#362F9C"/>
<path fill-rule="evenodd" clip-rule="evenodd" d="M100.529 38H116.471C116.748 38 117 38.2143 117 38.5C117 38.7619 116.773 39 116.471 39H100.529C100.253 39 100 38.7857 100 38.5C100 38.2143 100.253 38 100.529 38Z" fill="#362F9C"/>
<path fill-rule="evenodd" clip-rule="evenodd" d="M100.589 41H105.411C105.719 41 106 41.2143 106 41.5C106 41.7619 105.748 42 105.411 42H100.589C100.281 42 100 41.7857 100 41.5C100 41.2143 100.281 41 100.589 41Z" fill="#362F9C"/>
<path fill-rule="evenodd" clip-rule="evenodd" d="M100.589 64H105.411C105.719 64 106 64.2139 106 64.4997C106 64.7614 105.748 65 105.411 65H100.589C100.281 65 100 64.7856 100 64.4997C100 64.2139 100.281 64 100.589 64Z" fill="#362F9C"/>
<path fill-rule="evenodd" clip-rule="evenodd" d="M106.589 41H111.412C111.72 41 112 41.2143 112 41.5C112 41.7619 111.748 42 111.412 42H106.589C106.281 42 106 41.7857 106 41.5C106 41.2143 106.253 41 106.589 41Z" fill="#362F9C"/>
<path fill-rule="evenodd" clip-rule="evenodd" d="M106.589 64H111.412C111.72 64 112 64.2139 112 64.4997C112 64.7614 111.748 65 111.412 65H106.589C106.281 65 106 64.7856 106 64.4997C106 64.2139 106.253 64 106.589 64Z" fill="#362F9C"/>
<path fill-rule="evenodd" clip-rule="evenodd" d="M100.537 44H106.464C106.745 44 107 44.2144 107 44.5003C107 44.762 106.77 45 106.464 45H100.537C100.256 45 100 44.7856 100 44.5003C100 44.2144 100.256 44 100.537 44Z" fill="#362F9C"/>
<path fill-rule="evenodd" clip-rule="evenodd" d="M108.537 44H114.463C114.745 44 115 44.2144 115 44.5003C115 44.762 114.77 45 114.463 45H108.537C108.256 45 108 44.7856 108 44.5003C108 44.2144 108.23 44 108.537 44Z" fill="#362F9C"/>
<path fill-rule="evenodd" clip-rule="evenodd" d="M100.522 46H107.478C107.752 46 108 46.2139 108 46.4997C108 46.7614 107.776 47 107.478 47H100.522C100.249 47 100 46.7856 100 46.4997C100 46.238 100.249 46 100.522 46Z" fill="#362F9C"/>
<path fill-rule="evenodd" clip-rule="evenodd" d="M109.522 46H116.479C116.752 46 117 46.2139 117 46.4997C117 46.7614 116.777 47 116.479 47H109.522C109.249 47 109 46.7856 109 46.4997C109.025 46.238 109.249 46 109.522 46Z" fill="#362F9C"/>
<path fill-rule="evenodd" clip-rule="evenodd" d="M100.546 49H105.455C105.741 49 106 49.2144 106 49.5003C106 49.762 105.766 50 105.455 50H100.546C100.26 50 100 49.7856 100 49.5003C100 49.2144 100.26 49 100.546 49Z" fill="#362F9C"/>
<path fill-rule="evenodd" clip-rule="evenodd" d="M107.545 49H112.455C112.741 49 113 49.2144 113 49.5003C113 49.762 112.766 50 112.455 50H107.545C107.26 50 107 49.7856 107 49.5003C107 49.2144 107.26 49 107.545 49Z" fill="#362F9C"/>
<path fill-rule="evenodd" clip-rule="evenodd" d="M100.522 52H107.478C107.752 52 108 52.4288 108 52.9995C108 53.5239 107.776 54 107.478 54H100.522C100.249 54 100 53.5712 100 52.9995C100 52.4761 100.249 52 100.522 52Z" fill="#362F9C"/>
<path fill-rule="evenodd" clip-rule="evenodd" d="M100.522 58H107.478C107.752 58 108 58.2144 108 58.4997C108 58.762 107.776 59 107.478 59H100.522C100.249 59 100 58.7856 100 58.4997C100 58.2381 100.249 58 100.522 58Z" fill="#362F9C"/>
<path fill-rule="evenodd" clip-rule="evenodd" d="M109.522 52H116.479C116.752 52 117 52.4288 117 52.9995C117 53.5239 116.777 54 116.479 54H109.522C109.249 54 109 53.5712 109 52.9995C109.025 52.4761 109.249 52 109.522 52Z" fill="#362F9C"/>
<path fill-rule="evenodd" clip-rule="evenodd" d="M109.522 58H116.479C116.752 58 117 58.2144 117 58.4997C117 58.762 116.777 59 116.479 59H109.522C109.249 59 109 58.7856 109 58.4997C109.025 58.2381 109.249 58 109.522 58Z" fill="#362F9C"/>
<path d="M66.0002 31C66.0002 29.3432 67.3278 28 68.9655 28H118.035C119.672 28 121 29.3432 121 31H66.0002Z" fill="#F6CD40"/>
<path d="M113 30C113.552 30 114 29.7761 114 29.5C114 29.2239 113.552 29 113 29C112.448 29 112 29.2239 112 29.5C112 29.7761 112.448 30 113 30Z" fill="#31C5FF"/>
<path d="M115 30C115.552 30 116 29.7761 116 29.5C116 29.2239 115.552 29 115 29C114.448 29 114 29.2239 114 29.5C114 29.7761 114.448 30 115 30Z" fill="#FC3E54"/>
<path d="M117 30C117.552 30 118 29.7761 118 29.5C118 29.2239 117.552 29 117 29C116.448 29 116 29.2239 116 29.5C116 29.7761 116.448 30 117 30Z" fill="#03E59F"/>
<path d="M80.8015 46H71.1989C69.9846 46 69.0002 46.9159 69.0002 48.0458V52.9542C69.0002 54.0841 69.9846 55 71.1989 55H80.8015C82.0158 55 83.0002 54.0841 83.0002 52.9542V48.0458C83.0002 46.9159 82.0158 46 80.8015 46Z" fill="#48C4FF"/>
<path d="M80.8015 35H71.1989C69.9846 35 69.0002 35.9159 69.0002 37.0458V41.9542C69.0002 43.0841 69.9846 44 71.1989 44H80.8015C82.0158 44 83.0002 43.0841 83.0002 41.9542V37.0458C83.0002 35.9159 82.0158 35 80.8015 35Z" fill="#03E59F"/>
<path d="M80.8015 56H71.1989C69.9846 56 69.0002 57.0177 69.0002 58.2731V63.7269C69.0002 64.9823 69.9846 66 71.1989 66H80.8015C82.0158 66 83.0002 64.9823 83.0002 63.7269V58.2731C83.0002 57.0177 82.0158 56 80.8015 56Z" fill="#F6CD40"/>
<path d="M79.7582 36.3328H72.3169C72.1935 36.3328 72.0752 36.3818 71.988 36.469C71.9008 36.5562 71.8518 36.6745 71.8518 36.7978V42.3787C71.8518 42.502 71.9008 42.6203 71.988 42.7075C72.0752 42.7948 72.1935 42.8438 72.3169 42.8438H79.7582C79.8814 42.8438 79.9998 42.7948 80.087 42.7075C80.1742 42.6203 80.2228 42.502 80.2228 42.3787V36.7978C80.2228 36.6745 80.1742 36.5562 80.087 36.469C79.9998 36.3818 79.8814 36.3328 79.7582 36.3328ZM77.5488 37.9605C77.7031 37.9605 77.8511 38.0218 77.96 38.1308C78.0689 38.2398 78.1302 38.3876 78.1302 38.5418C78.1302 38.696 78.0689 38.8439 77.96 38.9529C77.8511 39.0619 77.7031 39.1232 77.5488 39.1232C77.395 39.1232 77.247 39.0619 77.1381 38.9529C77.0287 38.8439 76.9674 38.696 76.9674 38.5418C76.9674 38.3876 77.0287 38.2398 77.1381 38.1308C77.247 38.0218 77.395 37.9605 77.5488 37.9605ZM73.247 41.4485L74.7881 37.9052L76.5413 40.743L78.0435 39.9966L78.8279 41.4485H73.247Z" fill="white"/>
<path d="M79.7582 47.103H72.3169C72.1935 47.103 72.0752 47.1517 71.988 47.2389C71.9008 47.3261 71.8518 47.4445 71.8518 47.5676V53.1488C71.8518 53.272 71.9008 53.3904 71.988 53.4776C72.0752 53.5648 72.1935 53.614 72.3169 53.614H79.7582C79.8814 53.614 79.9998 53.5648 80.087 53.4776C80.1742 53.3904 80.2228 53.272 80.2228 53.1488V47.5676C80.2228 47.4445 80.1742 47.3261 80.087 47.2389C79.9998 47.1517 79.8814 47.103 79.7582 47.103ZM77.5488 48.7305C77.7031 48.7305 77.8511 48.7918 77.96 48.9007C78.0689 49.0096 78.1302 49.1576 78.1302 49.3119C78.1302 49.4663 78.0689 49.6137 77.96 49.7232C77.8511 49.832 77.7031 49.8934 77.5488 49.8934C77.395 49.8934 77.247 49.832 77.1381 49.7232C77.0287 49.6137 76.9674 49.4663 76.9674 49.3119C76.9674 49.1576 77.0287 49.0096 77.1381 48.9007C77.247 48.7918 77.395 48.7305 77.5488 48.7305ZM73.247 52.2185L74.7881 48.675L76.5413 51.5129L78.0435 50.7666L78.8279 52.2185H73.247Z" fill="white"/>
<path d="M79.5557 58H72.4447C72.3268 58 72.2138 58.0453 72.1304 58.1257C72.047 58.206 72.0002 58.3152 72.0002 58.4286V63.5718C72.0002 63.6853 72.047 63.7944 72.1304 63.8748C72.2138 63.9552 72.3268 64 72.4447 64H79.5557C79.6734 64 79.7866 63.9552 79.8699 63.8748C79.9532 63.7944 80.0002 63.6853 80.0002 63.5718V58.4286C80.0002 58.3152 79.9532 58.206 79.8699 58.1257C79.7866 58.0453 79.6734 58 79.5557 58ZM77.4443 59.5002C77.5918 59.5002 77.7333 59.5567 77.8373 59.6571C77.9414 59.7574 78 59.8938 78 60.036C78 60.1778 77.9414 60.3142 77.8373 60.4145C77.7333 60.5153 77.5918 60.5718 77.4443 60.5718C77.2973 60.5718 77.1559 60.5153 77.0519 60.4145C76.9478 60.3142 76.8892 60.1778 76.8892 60.036C76.8892 59.8938 76.9478 59.7574 77.0519 59.6571C77.1559 59.5567 77.2973 59.5002 77.4443 59.5002ZM73.3335 62.7146L74.8066 59.4491L76.4816 62.0643L77.9176 61.3765L78.6667 62.7146H73.3335Z" fill="white"/>
<path d="M114.83 23L66.0002 70.9083L70.1702 75L119 27.0912L114.83 23Z" fill="#FC3E54"/>
<defs>
<filter id="filter0_d_38_3435" x="0.539284" y="0.14624" width="183.812" height="115.082" filterUnits="userSpaceOnUse" color-interpolation-filters="sRGB">
<feFlood flood-opacity="0" result="BackgroundImageFix"/>
<feColorMatrix in="SourceAlpha" type="matrix" values="0 0 0 0 0 0 0 0 0 0 0 0 0 0 0 0 0 0 127 0" result="hardAlpha"/>
<feOffset dy="2"/>
<feGaussianBlur stdDeviation="1.5"/>
<feColorMatrix type="matrix" values="0 0 0 0 0 0 0 0 0 0 0 0 0 0 0 0 0 0 0.15 0"/>
<feBlend mode="normal" in2="BackgroundImageFix" result="effect1_dropShadow_38_3435"/>
<feBlend mode="normal" in="SourceGraphic" in2="effect1_dropShadow_38_3435" result="shape"/>
</filter>
</defs>
</svg>
