<?xml version="1.0" encoding="UTF-8"?>
<svg width="1282px" height="379px" viewBox="0 0 1282 379" version="1.1" xmlns="http://www.w3.org/2000/svg" xmlns:xlink="http://www.w3.org/1999/xlink">
    <!-- Generator: Sketch 54.1 (76490) - https://sketchapp.com -->
    <title>world-map</title>
    <desc>Created with Sketch.</desc>
    <defs>
        <polygon id="path-1" points="0 0.523314627 649.534541 0.523314627 649.534541 378.874337 0 378.874337"></polygon>
    </defs>
    <g id="Page-1" stroke="none" stroke-width="1" fill="none" fill-rule="evenodd">
        <g id="world-map" transform="translate(0.000000, 0.000000)">
            <path d="M30.7343915,27.8816422 C30.5800777,30.1773677 34.2976365,31.2548542 42.4107994,30.949081 C50.0797257,27.5516013 61.6672864,26.7070849 71.996956,25.1005623 C72.2307647,20.7517883 58.9223719,20.71296 57.2903869,17 C43.7575377,17.1019244 30.8512958,19.6063523 20.5122738,21.8632495 C14.4613039,23.1834131 7.81645982,25.2510222 3,27.3137777 C5.2819732,28.6193806 13.123918,29.1969522 17.0472285,27.3865808 C17.837502,28.8135223 26.9326615,28.3524358 30.7343915,27.8816422" id="Fill-1" fill="#2A2A7F" fill-rule="nonzero"></path>
            <path d="M617.9973,28.3495332 C617.637191,23.3428587 597.102031,28.232986 586.487846,26.1059992 C585.195959,27.3200327 582.220566,27.6502499 582,29.4081705 C584.349705,35.1772582 618.348405,33.3853446 617.9973,28.3495332" id="Fill-3" fill="#2A2A7F" fill-rule="nonzero"></path>
            <path d="M635.165848,42.6430905 C638.616962,45.2760536 639.800201,47.2342372 644.775184,49.7128389 C638.164283,50.0524338 633.274458,51.2167592 632.638019,54.3966024 C634.66835,55.5521072 639.68367,55.5653381 641.458529,56.8266906 C638.554215,58.8069258 630.854196,58.5334858 631.002101,62 C646.729321,61.7794838 670.111739,61.4398889 677.923807,56.1519111 C675.552846,54.5597844 675.929332,52.7074485 678,50.2288468 C674.719201,49.4482195 670.891601,48.8704672 667.270173,48.2265599 C667.987287,44.3190134 663.545659,42.4490363 659.516371,40.4246978 C663.007823,39.5690951 660.412764,38.4003594 661.990416,36.9802352 C657.996984,37.2139824 657.593607,36.0761189 656.885457,35.0485136 C653.237136,35.0308723 649.593298,35.0176413 645.944977,35 C644.47041,37.0419797 639.840539,38.1577916 642.009811,40.7334205 C639.356487,41.1920941 636.7435,41.6728193 635.165848,42.6430905" id="Fill-5" fill="#2A2A7F" fill-rule="nonzero"></path>
            <path d="M602.000392,54.2148443 C604.949453,57.6923834 618.678619,55.5089217 620.232183,52.596071 C624.224479,52.8925324 625.642558,51.8902106 628,51.3631681 C627.878063,49.2267639 627.90516,47.048008 626.414823,45.4904093 C615.431491,43.5422345 609.840469,47.885629 603.910734,50.0032103 C605.089455,50.4220209 604.80042,51.4243427 606.344951,51.7019811 C604.430093,52.3043154 601.964263,52.6243054 602.000392,54.2148443" id="Fill-7" fill="#2A2A7F" fill-rule="nonzero"></path>
            <path d="M269.261305,142.064388 C272.824677,145.674197 288.814515,143.370357 296.70743,142.064388 C299.051276,140.064048 301.512995,138.141882 303,135.654103 C292.382421,135.442573 285.931176,133.649164 274.62903,133.690551 C262.968734,129.961181 247.173838,119.269709 223.032673,126.392759 C222.216633,130.54059 236.869074,129.009295 246.552742,129.308197 C245.088404,132.17765 253.121859,131.533862 253.63415,133.690551 C249.513151,133.529604 248.175753,135.093088 247.581858,137.125617 C254.558995,138.486768 265.879275,137.254375 272.316919,136.146141 C273.794857,136.776133 275.93016,137.157807 275.259194,138.60173 C273.577246,139.953684 269.048228,139.544419 269.261305,142.064388" id="Fill-9" fill="#2A2A7F" fill-rule="nonzero"></path>
            <path d="M1222.20975,135 C1230.48717,134.459491 1228.88838,127.329926 1223.6624,124.076579 C1210.49116,123.031596 1214.28221,132.992397 1222.20975,135" id="Fill-11" fill="#2A2A7F" fill-rule="nonzero"></path>
            <path d="M239,141.176768 C239.544626,143.69697 244.592066,144.267677 249.25784,145 C252.362637,143.853535 254.339587,141.893939 255,139 C249.39078,139.525253 241.547306,138.424242 239,141.176768" id="Fill-13" fill="#2A2A7F" fill-rule="nonzero"></path>
            <path d="M1272.61386,163.757077 C1265.01002,162.800024 1266.20536,165.477062 1262.6466,166.20388 C1261.60124,165.63958 1260.85131,164.899219 1260.76041,163.775134 C1272.39115,164.343948 1265.01911,156.014885 1255.50181,157.51818 C1253.30656,157.694241 1254.88823,159.436798 1253.42473,159.919839 C1250.67498,159.603831 1249.28875,158.479746 1247.62981,157.527208 C1253.90196,157.667155 1254.78824,155.595046 1254.90641,153.224988 C1252.51118,152.511713 1249.29784,152.295022 1247.3662,151.328941 C1245.4482,148.466813 1245.1255,147.446559 1246.1345,145.193875 C1241.2804,143.871157 1238.04434,141.627501 1232.00399,141 C1231.61312,142.074427 1231.72674,142.548438 1232.34032,144.733407 C1230.4405,145.297706 1227.06808,145.243533 1226,146.146413 C1229.45423,150.552465 1238.69882,152.710347 1237.12624,158.493289 C1246.88443,162.190581 1259.16965,166.754636 1253.38382,173.566862 C1259.65142,174.388482 1267.14164,174.47877 1269.0051,178 C1271.00037,177.990971 1273.00019,177.990971 1275,177.990971 C1274.44551,173.467545 1275.20907,167.711689 1272.61386,163.757077" id="Fill-15" fill="#2A2A7F" fill-rule="nonzero"></path>
            <path d="M1278,190.66301 C1277.40113,188.294468 1274.62908,187.306814 1272.27443,186.058528 C1263.25506,187.654322 1250.87839,187.425698 1241.21932,186.639233 C1245.20726,183.15958 1247.07193,179.455876 1246.26436,174.970279 C1241.40533,173.689986 1237.84386,171.627801 1233.59279,170 C1219.15636,172.528578 1220.68529,182.007317 1208.54454,185.692731 C1203.40876,185.962506 1198.05522,186.140833 1196,187.773206 C1196.78942,191.344308 1197.46996,195.020577 1203.42237,195.518977 C1204.89687,198.728854 1203.11387,200.525836 1204.94224,203.909467 C1209.86024,205.084592 1214.27919,206.566074 1219.46033,207.576591 C1223.05809,207.791497 1222.05544,205.980797 1223.93372,205.441245 C1226.24754,206.547784 1227.63583,208.230454 1231.98672,208.070418 C1237.22685,206.278008 1239.98528,203.411067 1238.10247,198.564245 C1243.29269,197.384546 1244.50404,194.513033 1244.81255,191.257431 C1246.74527,191.728396 1249.92564,191.42204 1251.24588,192.277093 C1248.92298,194.069503 1248.02921,196.483769 1242.67567,196.973024 C1243.20195,198.53681 1243.72823,200.105168 1244.25905,201.678099 C1246.74527,202.665754 1249.15437,203.71285 1251.47726,204.823961 C1247.81144,206.396892 1252.44816,212.427986 1253.89997,214.947419 C1265.28306,215.674442 1258.92686,208.669412 1262.08908,205.852768 C1263.76773,206.296298 1264.16698,207.553728 1265.06982,208.491085 C1268.83092,208.477368 1272.59655,208.468223 1276.3531,208.445361 C1277.6552,204.983998 1268.60861,203.758575 1269.68839,198.472795 C1271.89333,197.942388 1276.08089,198.285324 1275.02833,196.364885 C1274.34779,192.757203 1266.82561,193.465936 1263.21877,191.732969 C1269.26192,191.851853 1274.5701,191.650664 1278,190.66301" id="Fill-17" fill="#2A2A7F" fill-rule="nonzero"></path>
            <path d="M1229.29255,216.881311 C1236.24829,216.50392 1240.22233,218.118801 1248.03466,218.37332 C1249.29849,216.881311 1249.64487,214.524814 1247.05636,212.686132 C1235.18574,210.891333 1222.82363,211.85675 1212.57725,211.768985 C1204.85386,211.703161 1194.51855,208.736696 1197.5377,214.915369 C1206.20662,214.437048 1210.78449,218.741934 1218.19895,218.992065 C1222.41639,219.141266 1224.56958,217.140218 1229.29255,216.881311" id="Fill-21" fill="#2A2A7F" fill-rule="nonzero"></path>
            <path d="M904.107776,227.197413 C899.166153,227.134494 899.833569,226.76597 895.440507,227.233367 C894.494239,236.684667 877.456839,238.280107 866.307331,242.886661 C869.882122,244.805684 865.809054,246.733695 864.199941,250.234676 C868.981567,250.423433 872.282078,251.385191 874.243184,253.048045 C871.74723,257.654599 866.773608,261.052213 861,264.085797 C862.357689,268.660892 863.285672,273.505638 872.405504,274 C876.885421,272.782072 880.108219,270.925968 885.868113,270.38217 C894.562809,264.616113 894.247387,254.450235 899.531861,247.232552 C907.956848,246.670777 910.969364,238.958731 904.52834,236.001549 C908.221986,234.109491 906.388877,229.215308 904.107776,227.197413" id="Fill-25" fill="#2A2A7F" fill-rule="nonzero"></path>
            <path d="M1168.20084,189.742867 C1171.78876,190.727512 1174.61504,190.814934 1178.648,190.23519 C1171.04548,183.273662 1171.50888,171.766206 1154.74389,170.358256 C1151.15139,168.025477 1151.6882,166.065391 1146.06775,164.376772 C1149.46296,163.751016 1145.78788,159.393735 1146.64585,158.924419 C1155.5514,160.327767 1158.72179,164.997926 1166.92994,166.833782 C1167.25569,167.997871 1167.57686,169.175763 1167.91179,170.339852 C1170.71972,170.85518 1174.29846,170.933399 1178.17542,170.822972 C1178.53329,168.204922 1183.95186,167.772415 1183.49305,164.818481 C1186.54415,164.257142 1189.86136,163.80623 1194.24302,163.815432 C1192.92164,162.103808 1195.16064,161.91056 1194.19714,160.355374 C1192.68764,158.910615 1189.76042,158.298663 1187.2966,157.415244 C1190.49911,157.6407 1191.62779,156.987338 1190.6964,155.459759 C1187.89306,153.44906 1185.06678,151.461366 1180.27219,150.600953 C1177.68908,146.068828 1171.37582,143.680835 1166.45736,140.524452 C1167.47133,138.739209 1168.72389,137.045989 1173.22484,136.742313 C1176.8678,136.903353 1176.06947,139.553611 1180.79982,139.1073 C1183.44258,138.338909 1181.52934,137.943211 1180.93288,136.263794 C1182.3139,134.239292 1187.90223,133.995431 1188.3014,131.57063 C1198.36774,128.869759 1217.81678,128.405044 1211.88434,120.481877 C1214.73815,117.652175 1219.98237,114.854681 1217.30291,110.975918 C1215.1832,109.834835 1210.71437,110.023482 1208.91124,108.72596 C1209.22323,105.376328 1202.07035,106.163124 1203.03386,102.48221 C1198.68432,99.8365534 1189.89348,99.6249009 1185.22736,97.1724922 C1194.06408,97.2967231 1195.04594,89.4471749 1183.83257,89.7692548 C1181.94227,90.5192409 1182.84613,92.3965069 1180.08867,92.7968062 C1177.71661,91.7109367 1174.13328,91.2646259 1171.76123,90.1833576 C1177.15227,90.5928592 1176.94121,88.7478013 1178.46447,87.6113192 C1181.79545,91.0345688 1198.23009,87.4226724 1197.16565,93.275325 C1199.35877,93.275325 1201.54731,93.2799261 1203.74043,93.2799261 C1208.76442,97.2507116 1216.76151,99.6249009 1223.86851,102.52362 C1231.57197,102.068107 1225.44683,97.2875208 1224.70355,94.1909522 C1204.09371,92.6955811 1202.31811,79.177426 1225.39636,80.4657458 C1228.64475,76.5639774 1229.44308,71.6775646 1226.22222,67.4997277 C1231.19115,69.1239308 1234.78824,71.4981201 1237.84852,74.185187 C1243.45979,74.5992897 1244.18012,73.0947163 1245.17116,71.7097726 C1242.36781,69.6346576 1241.75759,69.0503125 1241.28502,66.3172342 C1229.79178,63.9384438 1225.87811,57.5796656 1212.99467,56.0290808 C1210.53085,56.1119013 1212.74232,58.0259764 1211.13648,58.4538826 C1206.24554,52.1181101 1186.9892,56.8434829 1179.31786,55.4907472 C1183.52058,55.1548638 1185.73205,54.0229829 1186.41568,52.3021558 C1174.06905,41.6183041 1222.98759,50.5031093 1228.99344,45.7087193 C1229.44308,43.8866671 1224.21721,45.050756 1223.03806,44.0983196 C1225.52024,43.4679632 1228.22264,42.9342307 1230.33317,42.16584 C1232.57676,42.8744159 1234.54507,43.7302283 1238.80284,43.3851426 C1241.6383,43.3345301 1240.09211,41.6321076 1241.45478,41.0385602 C1243.45979,43.6474077 1243.43685,45.5798874 1238.08251,46.1412267 C1234.79283,53.1027545 1247.63039,54.6717439 1257.16909,58.2146232 C1263.33094,60.5013908 1269.12115,64.5181877 1275.38393,65.1945556 C1281.39437,64.3203386 1277.85234,60.3311485 1273.58539,58.6701363 C1283.17915,55.1272569 1267.44189,52.2837512 1266.26275,47.4387487 C1263.30341,47.2593042 1258.74282,47.9264698 1257.90319,46.6151443 C1261.39016,45.2025937 1265.96911,44.5906418 1272.41083,45.0967675 C1274.48007,42.423504 1276.37038,40.3667935 1282,38.4941287 C1281.83024,38.1030317 1281.66507,37.7119346 1281.49531,37.3254387 C1277.05401,36.52484 1270.12136,37.0585724 1265.99205,36.0877315 C1267.72177,35.4343693 1270.82334,35.2871328 1274.48925,35.3561499 C1268.97433,29.8025716 1254.37951,29.0985968 1245.07022,25.6569426 C1242.28523,25.3670707 1242.76239,26.2965014 1239.9774,26.0020283 C1237.75217,25.7857746 1237.52735,24.534264 1234.26978,24.8379394 C1226.72691,26.9820715 1215.71083,23.3287648 1208.58089,23.9453178 C1208.34231,24.7367142 1210.57673,26.4529402 1208.66807,26.6047779 C1208.57172,25.6063301 1206.47954,25.6109312 1204.74064,25.4452901 C1184.9016,26.5633676 1168.16414,22.4775535 1146.03563,23.2505454 C1141.86503,19.7398741 1128.33008,22.1600747 1119.04831,21.2076384 C1115.59345,20.8579516 1115.91462,20.0665552 1113.44163,20.0527517 C1104.83431,19.9561277 1097.03909,21.4422966 1091.25347,22.9560723 C1080.49433,22.8732518 1070.91434,21.0742052 1058.98522,21.2766555 C1057.65467,20.0849597 1055.34225,19.3625804 1053.11702,18.5895886 C1050.4192,17.9914401 1045.29886,19.413193 1043.74807,20.4438488 C1030.26818,20.5358716 1011.66793,20.4668545 1003.01474,21.359476 C1001.39972,19.1647313 1006.71735,19.7812844 1006.03831,17.9592321 C1005.91443,17.0758129 1004.33153,16.8365535 1004.78575,15.686268 C996.040796,12.7921497 987.084785,14.1770934 981.913973,17.0758129 C981.037642,16.3948439 979.30792,16.0957696 979.835554,14.7982476 C969.044294,12.8427623 955.169818,14.6924213 951.737904,18.0420527 C950.237588,17.5175225 949.397962,16.6939181 946.259688,16.8825649 C938.005659,18.3365258 925.126804,17.8810127 919.712822,20.5450739 C914.014376,18.8334491 905.774112,22.4407444 899.910493,20.061954 C895.611424,22.6385935 883.985127,19.3579793 879.277715,22.6385935 C876.208262,23.4621979 883.741956,24.2351898 880.264161,25.344065 C876.088971,25.5511164 875.033704,24.4514434 871.188859,24.5158594 C868.945268,24.9621702 870.326292,26.963667 867.610124,27.2121286 C862.824715,24.1339647 851.464528,26.08945 849.413638,28.6844941 C849.941272,27.41918 848.789654,26.8624418 848.509778,25.9514157 C840.503508,27.2397355 833.231337,26.5495642 827.496186,28.9651637 C823.766044,27.3915732 815.186259,24.3272126 809.304288,26.1400625 C811.047774,27.7228554 814.736623,28.4958472 816.480109,30.0786401 C814.828385,31.2243244 808.868417,32.5678579 807.216693,32.3976156 C806.689059,30.8240251 812.653616,32.116946 811.882812,30.4513326 C811.905752,29.8025716 811.937869,29.1492094 811.96081,28.4958472 C797.925749,26.3839231 782.638131,24.8195348 769.33717,22.4499467 C759.91317,22.6754026 747.993233,21.7965845 744.405322,24.6538937 C739.775909,23.9959304 730.540022,23.8947053 726.915407,24.9483668 C726.819056,25.7305609 726.722705,26.512755 726.617179,27.2949492 C714.802768,28.8363317 710.026535,33.6491262 702.98377,37.4772764 C703.126001,36.0371189 699.281156,36.1935577 695.70701,36.2441703 C684.06236,38.8530178 689.595634,46.895814 692.527443,50.8067846 C700.831941,50.1534225 700.703474,52.9141077 705.355828,53.7331109 C689.022119,55.1870718 673.702384,59.4983418 661.60351,64.4491706 C655.96471,64.6746265 646.481064,62.5258932 644.994513,65.663872 C644.209945,68.3141298 652.385976,67.3893003 649.793688,70.7849431 C652.959491,71.7419806 657.070447,72.3217245 661.020819,72.9612832 C658.712994,73.8861127 656.593282,75.1882359 658.373473,76.8354447 C653.652297,77.0516984 650.546139,78.0593485 646.348009,78.5378673 C645.439561,75.6299455 631.537556,75.9014129 626.118985,77.1851315 C623.843277,79.3798762 625.7657,82.3752197 627.573419,84.1742662 C623.210117,86.5484554 618.888107,88.9732572 614.19446,91.2232157 C613.052018,97.1218797 630.757575,95.3228332 636.515667,98.4424074 C640.979908,98.6908691 639.640177,96.0452124 643.911717,96.1970501 C649.284406,95.6265085 648.733832,97.5083756 653.670649,97.1172785 C658.570762,95.1525909 661.943031,90.942546 662.190789,88.2232711 C670.252117,86.2585835 675.76245,83.0929978 680.313866,79.4949048 C685.40668,83.6037246 696.119941,77.8753028 700.685121,79.9826258 C701.198991,81.3077547 698.817756,81.2479399 699.336214,82.5914733 C707.025904,84.9886683 716.674721,86.5806634 725.928961,88.3475019 C727.64033,89.3091406 726.213424,91.5959082 726.34648,93.2293136 C730.645549,93.891878 732.421151,93.3857524 736.210939,92.7968062 C733.288306,90.6112638 736.197174,88.545351 736.041178,85.301546 C731.898105,84.2892947 731.581525,81.6528404 723.726663,82.2095786 C725.502265,78.5792775 717.399644,79.11301 715.646982,76.9872824 C716.784836,76.9228664 716.780248,76.3109146 716.780248,75.6989627 C723.937716,78.2802033 730.328968,81.2157319 737.151504,83.9948216 C736.114588,86.6680851 740.519184,87.0131708 741.519394,88.8260207 C752.480414,88.8950378 754.650595,92.7830028 755.4214,97.2967231 C759.243304,98.1111252 763.409318,99.9653854 769.080235,98.6678634 C767.933205,95.1894 771.773462,94.0897271 771.599113,91.103586 C770.41079,89.6220183 766.006194,89.5484 765.010572,88.0024163 C766.91923,87.2294244 768.180963,86.1435549 770.080445,85.3797654 C769.525282,87.0315753 774.43916,86.3137972 775.778891,87.1420027 C775.728421,91.7247401 780.009138,94.4394139 783.899864,97.3427345 C800.09593,99.693918 806.276128,98.2215526 818.186889,96.9562386 C817.682196,101.074261 814.415454,103.683108 818.888872,106.862497 C817.985012,107.975974 813.364775,107.345617 813.878644,109.13086 C814.796268,119.759498 835.107878,125.653561 842.366285,135.302156 C856.483932,138.509152 859.140454,147.301934 863.820337,155.252707 C858.819285,153.366239 854.497276,151.171494 847.390277,150.329485 C847.89497,148.613259 848.918121,147.140894 848.418016,144.955352 C847.619683,144.844924 847.229693,144.541249 847.394865,143.979909 C845.018219,142.53055 840.154811,142.268285 837.245942,141.076589 C834.162725,126.403547 815.438605,119.308586 808.019614,107.304207 C800.453803,106.370175 800.311572,108.937612 796.040031,109.567969 C779.197041,109.342513 769.566576,102.408592 751.732551,105.403935 C749.920243,106.434591 751.764668,109.232085 748.369458,109.512755 C741.643274,109.982071 742.891242,106.95452 737.706666,106.75207 C733.898526,106.35177 735.86683,108.748965 731.590701,108.118609 C729.998624,107.506657 731.54482,105.532767 729.95733,104.920815 C724.873693,103.324219 717.734577,103.604889 710.196295,103.986783 C710.944159,102.380985 706.828615,102.864105 707.576478,101.258306 C710.957923,100.213847 713.687855,96.7537883 711.421323,94.5314367 C695.289491,93.2799261 681.905944,97.0574637 663.89757,95.3412377 C656.561165,99.6433055 644.544878,98.6678634 631.25768,99.7767386 C628.096465,101.088064 632.913992,101.207694 631.606377,102.956128 C625.770288,103.034347 620.929821,103.614091 616.309583,104.304262 C614.841385,108.863994 615.057027,113.299495 604.986102,114.431376 C595.291403,122.713431 574.360397,125.313076 568.088436,135.776073 C576.686574,140.349608 566.05131,150.499728 562,155.510371 C568.813359,159.186684 570.419201,165.158966 578.998987,168.168113 C577.039859,169.622074 575.654247,171.388912 575.507427,173.841321 C576.567283,174.623515 578.297004,175.111236 578.099715,176.431764 C581.0407,176.707832 583.504521,177.190952 586.445507,177.467021 C592.102659,187.649348 616.158175,179.252264 635.992621,181.543632 C640.287102,180.200099 642.599514,177.812106 648.509014,177.351992 C650.995775,177.669471 649.867097,179.615754 654.643331,178.902577 C659.474622,178.801352 658.538645,175.677176 663.691105,175.759997 C665.140951,177.991551 668.251697,179.482321 671.399147,180.950085 C681.148904,180.540584 687.948498,181.49302 692.380623,183.526725 C687.622742,185.270557 691.196888,188.086456 692.600853,189.844093 C690.081974,190.419235 688.466956,191.468296 687.856736,193.051089 C686.498652,205.092277 693.587299,213.369731 707.40213,218.569022 C708.420692,220.708553 709.521841,222.820477 711.08639,224.706945 C707.269074,232.068772 699.322449,237.300271 694.225047,244.192781 C705.22736,253.100592 704.773137,265.091168 705.034659,276.916103 C705.172303,283.371505 712.687645,286.707333 716.073678,292.320726 C718.840314,296.912666 719.179835,301.214734 722.983387,304.937058 C739.977786,308.567359 760.495861,307.025976 775.930299,303.262242 C788.414575,296.668806 796.879657,288.046266 811.607525,282.971206 C809.841098,279.35931 817.503259,276.9023 811.850695,275.020433 C825.945401,269.715316 826.404213,259.809057 829.363551,249.921203 C849.129175,246.543965 859.764438,239.63305 859.291862,227.481434 C858.273299,225.438527 854.4881,224.223825 857.066623,221.891046 C837.713931,216.618138 856.956508,202.980353 868.66998,200.040223 C875.776979,191.951416 890.605785,187.787382 897.676079,179.979244 C900.974937,180.218504 901.731977,179.23846 903.89757,178.934785 C900.06649,170.450279 918.313445,164.786273 906.985375,157.695914 C895.203082,158.381484 870.505229,166.935007 868.991149,157.728122 C872.583647,159.076256 876.699191,157.396839 881.328605,157.714318 C882.383873,153.826353 894.01017,154.953633 900.653769,153.738932 C901.071288,151.530383 903.6544,150.34789 909.68319,150.780397 C910.091533,148.903131 912.325948,147.89088 914.551186,146.869427 C927.301573,147.923088 927.980615,143.390963 937.546847,142.981462 C936.528284,137.381872 942.098262,136.834336 944.704315,132.463251 C944.039037,129.831398 938.799404,131.299162 933.490948,129.624347 C923.658606,126.532379 916.946185,118.245722 907.366189,126.325328 C905.604351,126.063063 901.539276,126.886667 901.369516,125.860612 C901.910914,124.737934 902.690894,123.721081 902.181613,122.115283 C898.047716,119.975752 889.734042,119.837718 885.150509,117.932845 C884.87981,115.784111 882.631631,113.069438 886.939877,112.411474 C886.774704,118.577005 901.915502,117.500337 906.127397,121.655169 C909.802481,122.865269 917.767459,122.165895 917.937219,120.270225 C924.213768,121.392904 926.232541,124.581495 932.210862,125.865214 C943.061768,125.883618 952.38024,124.07997 968.759831,124.489472 C970.833662,128.059958 976.912921,129.656555 985.267889,130.116669 C984.492497,131.400387 979.21157,130.659603 980.643063,132.950972 C982.427842,136.742313 994.031199,135.582825 1000.12881,137.216231 C1002.23017,147.343344 1014.29693,154.065613 1026.73073,160.539419 C1027.05649,163.060845 1029.12573,164.657441 1028.85045,167.528554 C1033.59456,168.448782 1036.19144,170.528499 1042.6561,170.5331 C1049.30888,165.82153 1048.58854,157.870757 1049.34099,150.688374 C1061.15999,146.285082 1069.36355,140.377215 1076.00715,133.903409 C1081.47619,134.418736 1082.36628,132.955573 1086.66535,132.964776 C1093.53836,137.73616 1104.70584,140.262187 1106.83473,147.743644 C1110.59699,148.410809 1110.56487,151.162292 1115.62557,151.139286 C1121.28731,151.705227 1118.50232,148.617861 1123.01703,148.69608 C1123.76031,154.070214 1134.8085,156.034901 1136.73093,163.392127 C1132.83102,164.726459 1133.64771,165.609878 1135.0792,168.88129 C1143.76451,171.043827 1147.17349,176.247718 1155.01459,178.957791 C1151.25692,184.009845 1164.72305,183.894816 1165.71867,188.187681 C1154.63836,185.298164 1146.75138,180.591196 1136.22164,177.471622 C1133.85876,174.5637 1130.30297,172.355152 1122.73716,172.424169 C1123.38408,184.626398 1150.13283,187.106413 1156.11574,198.678285 C1166.18207,202.317788 1172.58709,208.221054 1180.02902,213.567581 C1183.84175,213.369731 1189.4622,213.995487 1191.4305,212.987837 C1190.1963,206.790098 1195.3304,201.627617 1187.67742,196.474338 C1178.30847,196.331703 1170.70137,191.910005 1168.20084,189.742867" id="Fill-32" fill="#2A2A7F" fill-rule="nonzero"></path>
            <g id="Group-36">
                <g id="Fill-34-Clipped">
                    <mask id="mask-2" fill="white">
                        <use xlink:href="#path-1"></use>
                    </mask>
                    <g id="path-3"></g>
                    <path d="M481.723063,8.11582993 C474.657558,9.24842522 462.30097,8.12041534 460.866723,11.3668828 C460.485177,9.33554793 449.369764,11.0275628 448.81813,9.06500898 C455.240062,7.28128603 461.418356,7.23543197 470.763946,7.66646014 C474.584007,6.99699086 475.90333,5.10780357 480.242846,4.69970244 C479.557901,6.24956968 483.359575,6.23122805 481.723063,8.11582993 M596.058279,26.0539383 C599.211783,25.6825204 606.387615,24.8250495 605.311929,22.5965422 C602.176813,21.8903896 595.851417,22.3764427 594.568869,20.9870647 C596.334096,20.9503814 595.543421,19.7169072 597.648822,19.8452986 C601.119516,21.1750663 607.711535,22.8533249 614.027737,21.0879436 C615.006886,19.4371974 613.802487,18.6072389 612.000484,17.9927945 C618.459192,18.0294778 621.318492,16.383317 627.197985,16.1632175 C629.409115,13.5862193 623.161867,14.1823221 624.48119,11.9492294 C631.413383,10.5644367 638.823659,9.39974362 642.179428,6.40088807 C644.813478,6.37796104 648.086503,6.63932919 649.534541,6.07532425 C645.719076,0.774594877 628.747155,7.73524123 622.407968,5.16282845 C622.343611,2.79217353 629.611381,3.80096286 629.625172,1.476162 C625.08339,-0.954103196 616.689368,2.02182532 609.481359,2.09977722 C607.123126,2.12270425 604.783281,1.39362469 602.402063,1.32025819 C584.910687,0.705813787 566.417178,3.47998443 549.564777,3.9889645 C547.615672,4.63092135 546.811207,5.82312691 545.073562,6.58888972 C541.037444,5.02985167 529.41177,3.54418012 523.265655,5.70849176 C516.269104,4.5208716 509.667891,2.43909727 499.871801,4.062331 C501.154349,2.20065615 496.575792,2.37948699 497.42163,0.673715945 C469.219372,0.714984599 434.38832,0.27478562 411.261089,5.428782 C405.087392,3.64505905 389.673835,5.32790306 390.29902,8.34968564 C401.106438,10.2480437 414.005465,6.66684162 423.263713,7.77192448 C415.076554,12.2060121 393.999561,9.52813499 383.596674,10.60112 C384.736717,14.5216422 396.380778,14.8838892 402.131556,17.2683004 C396.215288,17.433375 396.298033,15.5533585 389.489958,16.0394115 C384.40114,19.1299752 379.882343,24.8342203 369.686319,23.7428937 C370.454008,21.7986815 373.50638,20.3038392 372.154878,18.6622638 C380.116787,18.0799172 384.4609,13.4761696 378.356157,11.7337153 C377.110385,11.7245445 375.860016,11.7153737 374.60505,11.7107883 C373.455813,12.9534333 374.375202,13.4945112 374.232697,14.4024216 C367.66826,14.2144199 365.962793,16.5713186 362.896631,18.2220648 C365.360593,16.1036072 360.336132,16.507123 360.667112,15.1039887 C366.224819,12.9855311 369.870196,9.89038206 375.53823,7.88655963 C376.457619,5.79561448 367.636081,6.11200749 364.694036,7.06118654 C361.632471,11.6053239 345.037499,13.0726538 349.455163,18.5476286 C352.254703,18.6806054 357.035526,18.1486983 356.635592,19.3592455 C355.500146,20.8999419 352.507535,21.4685323 350.314792,22.4681508 C350.130914,21.3309701 349.44597,20.3772057 349.055229,19.3225623 C343.860681,18.67602 341.36454,19.5197347 337.070994,20.4368159 C334.873654,23.1055222 339.81537,26.0034988 330.377842,25.9163761 C334.869057,20.8999419 338.293781,15.3240882 339.700446,9.98209018 C333.968056,9.06959438 323.882358,9.24842522 323.20201,12.5820154 C323.293949,14.1318826 330.695031,13.2744117 330.460587,14.9343287 C322.489484,14.6913022 315.295265,14.8426206 309.949018,15.9935575 C311.098254,14.4345194 316.862823,15.3424298 317.851166,13.7054399 C318.779749,11.3164433 313.810452,11.3531266 316.605394,9.0833506 C304.244209,8.22587967 292.181825,11.944644 291.855442,14.3428113 C280.735432,15.2736487 267.404292,15.0214514 264.416278,20.4551576 C274.25374,20.5560365 278.965609,21.5877528 285.488674,22.142587 C283.291334,22.6607379 281.139964,23.215572 281.034234,24.875489 C285.746102,25.6825204 293.855113,25.3569566 298.576176,26.1685735 C292.595551,26.5216497 284.123381,25.9117907 277.733627,27.2553147 C272.226487,23.385232 255.341908,21.6565339 246.478998,18.3963102 C241.243078,16.4704397 226.188083,20.4964262 214.065939,20.9870647 C181.413838,22.2801492 161.329785,13.8521729 133.49988,18.5980681 C130.925591,18.5797265 128.346705,18.5613849 125.767819,18.5522141 C122.913116,19.3179769 119.722836,19.895738 116.560138,20.4872554 C110.037073,20.6569154 105.495291,20.0608126 101.036255,20.4093035 C98.5998737,22.605713 96.4439065,24.7470976 97.1610299,26.7830179 C95.4095939,23.5457212 69.059905,25.1139301 67.8601024,29.0619647 C68.6783586,30.240414 75.9645165,29.4287972 76.4150171,30.7218817 C68.6002105,33.7207372 52.6855869,31.7490126 44.5949636,34.65616 C39.7543805,38.7463422 45.569516,38.6821465 39.9474522,41.6397334 C42.6228742,42.368813 48.1024327,42.2404216 50.915763,42.9328179 C45.9096899,45.1888377 39.1062113,46.3306038 33.5668925,48.297743 C26.0738722,48.1876932 11.9658479,49.3844842 1.35150184,49.4349237 C-1.97208941,51.5946499 1.49400713,52.3649981 4.58775113,52.8418803 C18.8658624,54.9924358 51.0260897,48.9763831 58.5926612,45.881234 C72.6409252,45.0466901 80.680982,40.5025527 94.9407055,41.4517318 C105.605618,39.0764914 131.045112,38.5170719 132.957441,42.4421795 C150.012107,43.7627764 137.926738,52.5300727 133.04938,59.2568634 C138.928872,59.9859429 139.77471,62.3565978 144.164793,63.5763158 C141.029676,65.543455 134.547984,65.4655031 129.243109,66.1212162 C128.438644,71.1605774 115.038549,71.9859505 107.504156,75.2278326 C97.910332,79.3638688 88.2843291,88.3741917 93.9063929,91.3134369 C86.2984489,95.7108413 86.1973161,100.195368 95.3958031,100.938204 C84.027558,105.950053 94.0902707,109.228618 88.9508861,114.511006 C84.3585381,113.809439 84.9009776,116.487316 83.4069704,117.83084 C96.1083295,119.559538 93.7087242,126.492672 101.762572,129.890458 C116.633689,121.966876 94.5959346,119.036802 102.594619,111.686396 C115.48905,114.038709 106.194027,124.048651 116.284321,127.464778 C114.974192,129.532796 115.797045,130.862564 113.429618,133.311171 C111.269054,134.480449 108.276443,135.117821 107.545529,137.240864 C115.024758,142.023442 120.720373,147.232463 133.320599,149.190432 C135.540924,149.529752 141.921484,150.506443 145.76453,150.18088 C146.688516,150.116684 149.878795,148.511792 151.069404,148.676866 C155.790467,149.337165 156.17661,153.904229 163.665034,154.725017 C170.394961,155.472438 175.070054,154.174768 183.316974,154.706675 C189.348165,156.875572 190.957096,160.699801 187.311719,166.481998 C194.21633,170.021931 211.77666,171.25082 224.946908,167.986011 C224.983683,173.928697 218.832971,178.546201 217.053953,184.273373 C200.247522,189.65664 188.580476,198.621109 181.708043,211.079657 C182.438957,222.102973 201.387564,226.183984 198.532862,238.968096 C203.474577,244.397217 221.306127,242.246662 225.208933,248.244373 C228.031458,252.582167 223.12192,259.611594 221.857761,266.269604 C220.30859,274.362846 223.429916,280.667779 214.047551,288.650971 C214.392322,290.3384 214.852016,291.989146 213.578663,294.364387 C211.873196,296.634163 207.947405,297.354071 206.076448,299.522968 C207.391175,302.191675 208.880585,304.796185 207.611828,308.569975 C203.45619,310.064817 199.548786,311.743076 198.082361,315.191301 C200.592293,320.528713 197.080227,328.511905 207.823287,330.419434 C205.028345,334.294102 207.161327,336.050313 204.357191,339.947908 C200.353252,343.267742 191.646638,343.162278 189.132109,347.642219 C191.003066,349.723994 200.132598,348.641838 199.797021,351.700304 C191.030647,363.452699 214.96694,362.544789 204.476711,373.554349 C206.793572,375.296803 210.351607,372.962831 214.842822,373.444299 C214.148684,379.799672 251.84823,381.41832 258.486218,373.714838 C254.790275,369.661339 238.57685,371.289158 234.329272,367.538296 C241.656803,364.181779 240.902904,359.935693 237.97465,356.909325 C241.197108,353.01173 249.733635,352.970461 251.052958,347.756854 C251.052958,345.377029 243.546147,346.317037 242.521028,344.391166 C255.332714,335.990703 256.895676,329.323522 265.94706,320.592909 C274.281322,322.367461 279.167874,317.227221 289.409868,317.759128 C291.175095,313.260845 299.091034,313.013233 301.72968,309.170663 C299.394432,307.368598 297.270644,305.497753 294.195287,304.039593 C317.340906,308.964319 326.364709,299.316625 327.173771,289.159951 C331.646598,289.164536 335.052935,288.476725 338.528225,287.821012 C344.416912,281.383102 349.358628,274.404114 356.782694,269.15841 C369.194445,268.456843 378.563019,265.829405 389.310677,264.119049 C390.069173,262.110641 390.818475,260.102233 391.567777,258.102996 C404.967872,253.00861 410.55316,243.227939 416.625724,233.965418 C417.310669,232.213793 415.025987,231.741497 414.451369,230.535535 C425.051924,229.545087 427.520484,223.671182 436.792522,221.951655 C435.280127,216.458338 442.157157,214.046415 443.140903,206.929865 C422.151252,206.553861 421.388159,193.535894 399.10217,196.71358 C397.097902,192.146515 378.098728,195.801084 372.651348,193.554235 C373.40065,191.91266 377.868881,190.743381 375.524439,189.266881 C363.742469,188.180139 363.806826,194.274144 355.297881,195.214152 C357.334327,189.904252 365.8019,188.52863 368.909435,183.961566 C368.868062,182.365844 364.533143,182.494236 363.429876,181.334128 C365.447935,179.903481 367.35107,178.408639 367.842944,176.079253 C360.703888,172.03951 342.224169,175.281392 333.356662,172.498051 C327.881701,170.778523 328.906819,166.935953 326.258979,164.253491 C321.629855,162.827429 317.046701,161.396783 313.231237,159.67267 C310.702917,159.67267 308.174597,159.681841 305.641681,159.681841 C304.975123,161.02995 304.791246,162.680696 301.987109,162.740307 C292.365703,160.0716 282.390333,157.554212 276.202845,153.629105 C270.980715,154.188524 270.83821,157.888947 266.811286,159.209544 C264.926538,158.287877 269.164922,155.055166 267.284771,154.14267 C259.768766,153.51447 260.329593,157.888947 251.84823,156.682985 C242.364732,165.04218 231.525136,164.129685 217.076938,164.386467 C215.490992,162.135033 211.275593,160.864876 207.938211,159.264569 C212.04788,155.825514 213.560275,149.800291 221.361291,147.140755 C220.552228,142.972621 200.845125,145.700938 192.855634,144.160241 C205.910958,142.303152 214.948552,133.091071 213.095983,127.987514 C205.66732,128.812887 196.726262,127.134629 189.104527,128.945864 C186.033768,131.632912 186.626774,132.79302 184.971874,135.768948 C181.83216,136.956569 178.554538,138.057066 175.350468,139.208003 C173.704761,138.78156 173.461123,137.836966 169.498557,138.226726 C166.961043,138.905366 166.96564,141.20724 163.343247,141.188898 C158.796869,139.987522 160.437978,136.598907 163.186951,132.829703 C163.269696,131.532033 157.583275,132.279454 159.362293,130.394852 C161.840046,128.565275 165.356709,127.414339 168.510214,126.038717 C167.287426,125.474712 164.014401,125.62603 165.462439,124.117432 C169.213546,121.127747 172.960056,118.165575 177.193843,115.542722 C185.780936,113.057432 195.760904,109.434962 208.163461,111.328734 C210.609036,112.704356 214.994522,114.49725 221.719852,113.227092 C223.885013,111.796446 219.5409,110.838096 222.317455,110.416238 C229.948384,108.710467 243.109437,110.118187 247.637428,111.846885 C244.116168,117.49152 243.592117,122.109024 251.558622,123.686403 C261.53859,122.021901 265.758586,111.787275 261.70408,109.058958 C271.982849,100.61264 309.452548,105.230144 309.369803,93.1017453 C313.920778,90.8548963 318.076417,88.4154603 326.111877,88.1953608 C326.704883,87.0031552 327.297888,85.8109497 327.886297,84.6370857 C334.579449,82.0555021 342.978068,83.8025418 351.965095,82.9175585 C351.358299,77.2454112 362.744932,73.448695 371.506709,73.3386453 C369.530022,74.4345573 367.084448,75.2645158 365.903033,76.8052122 C377.52411,77.6443415 385.302141,76.644723 395.447598,75.5763234 C397.369121,74.8289022 397.097902,72.8984463 399.750339,72.5499554 C402.63722,72.5086868 406.153883,72.8113236 407.882335,72.1418543 C410.888737,68.7578247 402.099378,69.642808 396.109559,69.5235875 C398.251735,68.6294333 398.899904,68.2717716 398.22875,66.9603455 C391.967711,66.5843422 387.724731,67.3042509 385.403274,69.0604615 C384.644778,68.5010419 385.141248,67.4830818 384.382752,66.9190768 C386.938653,65.9928248 390.951786,65.8644335 394.04553,65.2408182 C396.440539,63.7368051 391.705685,63.0352379 394.188035,62.6867471 C394.454658,63.7826591 396.67958,64.1724186 400.522626,63.984417 C403.745084,62.0447902 412.736709,63.1957271 414.763961,60.6370706 C419.512606,60.9488782 426.168982,60.5682895 427.966387,61.9484967 C426.026477,66.4421946 412.879214,65.0023771 410.962288,69.5694415 C414.998406,71.7383386 423.121207,72.4169787 428.982312,73.9347481 C433.795314,72.0180483 434.034355,73.6687945 441.05389,73.5358177 C443.228245,72.2656603 445.420988,70.9909174 447.517195,69.6794913 C447.471225,66.0432643 440.074741,65.1215977 442.189335,60.7287787 C441.044696,59.7016478 437.403916,59.6053542 435.041086,59.0184223 C445.264692,52.4291938 421.181297,50.3749319 429.363859,44.4872705 C423.925673,42.9511595 422.895957,39.8651813 416.386683,38.7280006 C412.277014,39.4112261 411.808126,41.9836389 409.45449,43.588531 C408.217912,43.1024779 405.726367,43.0612093 405.170137,42.3413005 C410.075077,36.7654468 394.983307,32.34053 380.778747,34.5461103 C381.201666,33.5969312 382.989877,33.3676609 382.86576,32.1479429 C381.289008,31.0107622 373.878732,30.1303643 375.777271,28.9198171 C378.719315,29.4929928 383.665628,29.8965086 387.039786,29.3646015 C387.619001,26.727993 392.583702,26.3611605 392.648059,23.4723547 C400.87659,22.3810281 405.160943,25.6733496 413.476817,23.5732337 C412.175881,25.237736 413.007928,26.1777443 412.681545,27.507512 C407.532967,29.7222631 399.001037,30.1853891 393.388167,32.193797 C392.82734,32.9549744 394.059321,33.0879512 393.613417,33.7986891 C407.813381,34.757039 409.449893,38.0356043 425.19443,38.3657535 C426.982641,37.2056458 425.75066,36.4352976 429.253532,35.5732412 C428.453664,37.3248663 435.073264,36.0501235 435.946684,35.5961683 C437.376334,32.5881419 433.804508,31.3592531 431.777255,29.5892864 C435.422632,30.1120226 434.402111,32.2717489 439.178336,32.4093111 C444.253364,32.9182911 443.550031,30.4696843 446.804668,30.0524124 C450.610939,31.6894023 459.703696,30.240414 460.227748,27.3516082 C457.037468,25.4257377 448.280288,25.4807626 444.653298,23.7291375 C445.972621,22.5873714 445.991009,22.5277611 445.614059,21.385995 C436.971803,19.895738 424.941598,17.3783501 416.147642,19.6756385 C414.915661,19.3225623 413.417057,19.0703649 414.014659,18.1074297 C421.549052,17.1536652 427.667586,13.0955809 436.199516,12.4352824 C443.173082,11.8850337 451.718802,14.0401745 460.604697,12.1830851 C460.682845,12.0776207 460.701233,12.0042542 460.747202,11.9125461 C460.715024,12.3252327 460.783978,12.7929441 461.073586,13.334022 C459.211823,13.3248512 457.345463,13.3202658 455.479103,13.3065096 C455.171108,14.0722724 454.863113,14.8426206 454.545924,15.6129688 C467.026629,17.4608874 485.193756,13.4624134 490.245799,17.7314264 C488.650659,18.6255805 486.021206,18.992413 486.30162,20.8174046 C487.561183,22.0554643 493.095905,21.7849253 492.806297,23.5778191 C490.81582,24.5866084 488.701225,25.5449582 484.568572,25.5036896 C481.143847,28.828109 479.383218,30.5843195 475.9493,33.3722463 C479.971627,37.242329 483.722734,41.2408031 492.300633,43.5197499 C512.329523,45.000836 517.850453,39.2553223 524.148268,33.9958616 C529.227892,32.3497008 538.821717,32.9366328 547.188157,32.9091203 C548.820072,32.0378932 550.134798,31.0107622 550.153186,29.3600161 C562.00411,26.7830179 582.557052,27.6359034 596.058279,26.0539383" id="Fill-34" fill="#2A2A7F" fill-rule="nonzero" mask="url(#mask-2)"></path>
                </g>
            </g>
            <path d="M1279,98.8346844 C1277.57,94.6605645 1267.70297,93.224704 1271.38408,89.2760878 C1267.63377,88.3924814 1266.41135,86.1052293 1263.89731,84.5497138 C1260.23927,84.5036927 1255.85239,84.8626578 1255.77397,82.8285221 C1261.39711,83.0954449 1263.77738,82.1059898 1269.55736,82.4373422 C1269.50201,81.9357115 1268.91155,81.2315876 1269.97714,81.1717601 C1268.19655,76.5788475 1251.03189,78.5807683 1251.56237,74.3882399 C1247.63217,73.5000313 1244.5,74.2915954 1242.64099,75.2028146 C1245.5702,80.1546923 1245.04432,81.2730066 1249.47272,85.7968875 C1251.7515,86.4365817 1254.81448,86.6482791 1256.67349,87.5226813 C1254.81448,88.25902 1259.14601,89.9572011 1259.12294,91.41147 C1256.94103,92.3871188 1256.89952,94.209557 1251.66386,93.9886554 C1251.94525,94.7157899 1252.2128,95.4429243 1252.48957,96.1654567 C1246.0361,98.1949902 1235.08504,98.4711172 1233,102.28167 C1237.02246,104.209957 1234.69755,106.603058 1235.56939,109.396543 C1241.19715,108.489926 1238.15263,112.157813 1242.62716,113 C1245.358,112.944775 1240.67128,109.916582 1243.3929,109.861356 C1246.86181,109.525402 1244.929,112.249855 1248.83614,111.660784 C1250.98576,110.860016 1246.64962,107.47746 1248.91917,106.745723 C1262.07521,108.121756 1257.01023,102.746484 1253.05235,100.109471 C1256.82571,100.307362 1256.80726,102.640635 1260.70517,102.764892 C1264.20176,102.654441 1265.8578,101.821458 1264.23406,99.686076 C1270.4292,102.553195 1273.34456,99.2856919 1279,98.8346844" id="Fill-37" fill="#2A2A7F" fill-rule="nonzero"></path>
        </g>
    </g>
</svg>