<?xml version="1.0" encoding="UTF-8"?>
<svg width="46px" height="46px" viewBox="0 0 46 46" version="1.1" xmlns="http://www.w3.org/2000/svg" xmlns:xlink="http://www.w3.org/1999/xlink">
    <!-- Generator: Sketch 54.1 (76490) - https://sketchapp.com -->
    <title>arrow-page-left</title>
    <desc>Created with Sketch.</desc>
    <g id="Page-1" stroke="none" stroke-width="1" fill="none" fill-rule="evenodd">
        <g id="arrow-page-left" fill="#BEBEBE" fill-rule="nonzero">
            <path d="M23,0.480623 C10.5969,0.480622 0.480655,10.5581 0.480654,23 C0.480653,35.4419 10.5969,45.5194 23,45.5194 C35.4031,45.5194 45.5194,35.4031 45.5194,23 C45.5194,10.5969 35.4031,0.480624 23,0.480623 Z M23,42.3411 C12.3411,42.3411 3.65895,33.6589 3.65895,23 C3.65895,12.3411 12.3411,3.65892 23,3.65892 C33.6589,3.65892 42.3411,12.3411 42.3411,23 C42.3411,33.6589 33.6589,42.3411 23,42.3411 Z" id="Shape"></path>
            <path d="M28.1938,11.7597 C27.8837,11.4496 27.4961,11.2946 27.0698,11.2946 C26.6822,11.2946 26.2558,11.4496 25.9458,11.7597 L15.7132,21.9922 C15.4031,22.3023 15.2481,22.6899 15.2481,23.1163 C15.2481,23.5426 15.4031,23.9302 15.7132,24.2403 L25.9458,34.4729 C26.5659,35.093 27.5737,35.093 28.1938,34.4729 C28.814,33.8527 28.814,32.845 28.1938,32.2248 L19.0853,23.1163 L28.1938,14.0078 C28.814,13.3876 28.814,12.3798 28.1938,11.7597 Z" id="Path"></path>
        </g>
    </g>
</svg>