<svg width="184" height="117" viewBox="0 0 184 117" fill="none" xmlns="http://www.w3.org/2000/svg">
<g filter="url(#filter0_d_40_3648)">
<path fill-rule="evenodd" clip-rule="evenodd" d="M163.035 101.124C163.035 103.33 161.245 105.111 159.044 105.111H24.8471C22.646 105.111 20.8571 103.33 20.8571 101.124V5.57851C20.8571 3.3726 22.646 1.59082 24.8471 1.59082H159.044C161.245 1.59082 163.035 3.3726 163.035 5.57851V101.124Z" fill="white"/>
<path fill-rule="evenodd" clip-rule="evenodd" d="M27.4219 96.1508H156.645V8.56055H27.4219V96.1508Z" fill="#191551"/>
<mask id="mask0_40_3648" style="mask-type:alpha" maskUnits="userSpaceOnUse" x="3" y="102" width="178" height="10">
<path fill-rule="evenodd" clip-rule="evenodd" d="M3 102.122H180.89V111.082H3V102.122Z" fill="white"/>
</mask>
<g mask="url(#mask0_40_3648)">
<path fill-rule="evenodd" clip-rule="evenodd" d="M2.99994 102.122C3.53024 107.135 8.79882 111.082 15.2819 111.082H168.606C175.093 111.082 180.358 107.135 180.891 102.122H2.99994Z" fill="#EFEFEF"/>
</g>
<path fill-rule="evenodd" clip-rule="evenodd" d="M68.4951 105.111H115.396V102.121H68.4951V105.111Z" fill="#CCCCCC"/>
<path fill-rule="evenodd" clip-rule="evenodd" d="M88.3628 39.7139H66.8161C60.2897 39.7139 55 45.0141 55 51.552V66.8722C55 72.0564 58.3316 76.4515 62.9626 78.0534L63.3405 86.2638L73.9559 78.7104H88.3628C94.8885 78.7104 100.179 73.4101 100.179 66.8722V51.552C100.179 45.0141 94.8885 39.7139 88.3628 39.7139Z" fill="#31C5FF"/>
<path fill-rule="evenodd" clip-rule="evenodd" d="M114.391 18H85.964C77.3542 18 70.375 24.9923 70.375 33.6181V53.8296C70.375 62.4555 77.3542 69.4477 85.964 69.4477H104.971L118.976 79.4129L119.474 68.5815C125.584 66.4676 129.98 60.669 129.98 53.8296V33.6181C129.98 24.9923 123 18 114.391 18Z" fill="white"/>
<path fill-rule="evenodd" clip-rule="evenodd" d="M79.2227 42.2555L90.6896 36.3379V38.0465L81.026 42.8996V42.9486L90.6896 47.8017V49.5103L79.2227 43.5927V42.2555Z" fill="#043299"/>
<path fill-rule="evenodd" clip-rule="evenodd" d="M97.5352 50.501L104.43 32.5498H106.111L99.1916 50.501H97.5352Z" fill="#043299"/>
<path fill-rule="evenodd" clip-rule="evenodd" d="M124.377 43.6182L112.91 49.5113V47.8027L122.647 42.9496V42.8998L112.91 38.0474V36.3389L124.377 42.232V43.6182Z" fill="#043299"/>
</g>
<defs>
<filter id="filter0_d_40_3648" x="0" y="0.59082" width="183.891" height="115.491" filterUnits="userSpaceOnUse" color-interpolation-filters="sRGB">
<feFlood flood-opacity="0" result="BackgroundImageFix"/>
<feColorMatrix in="SourceAlpha" type="matrix" values="0 0 0 0 0 0 0 0 0 0 0 0 0 0 0 0 0 0 127 0" result="hardAlpha"/>
<feOffset dy="2"/>
<feGaussianBlur stdDeviation="1.5"/>
<feColorMatrix type="matrix" values="0 0 0 0 0 0 0 0 0 0 0 0 0 0 0 0 0 0 0.15 0"/>
<feBlend mode="normal" in2="BackgroundImageFix" result="effect1_dropShadow_40_3648"/>
<feBlend mode="normal" in="SourceGraphic" in2="effect1_dropShadow_40_3648" result="shape"/>
</filter>
</defs>
</svg>
