<svg width="180" height="87" viewBox="0 0 180 87" fill="none" xmlns="http://www.w3.org/2000/svg">
<path d="M176.505 86.7615H3.49515C1.61314 86.7615 0 85.4512 0 83.6645V3.85843C0 2.07172 1.47872 0.761475 3.49515 0.761475H176.505C178.387 0.761475 180 2.07172 180 3.85843V83.7836C179.866 85.4512 178.387 86.7615 176.505 86.7615Z" fill="#E4F5FB"/>
<path fill-rule="evenodd" clip-rule="evenodd" d="M43.8267 59.6775H68.3053C68.8343 59.6775 69.3152 60.1103 69.3152 60.6874C69.3152 61.2164 68.8824 61.6973 68.3053 61.6973H43.8267C43.2977 61.6973 42.8168 61.2645 42.8168 60.6874C42.8168 60.1584 43.2977 59.6775 43.8267 59.6775Z" fill="#D9EFF8"/>
<path fill-rule="evenodd" clip-rule="evenodd" d="M43.8267 71.3638H68.3053C68.8343 71.3638 69.3152 71.7966 69.3152 72.3737C69.3152 72.9027 68.8824 73.3836 68.3053 73.3836H43.8267C43.2977 73.3836 42.8168 72.9508 42.8168 72.3737C42.8168 71.8447 43.2977 71.3638 43.8267 71.3638Z" fill="#D9EFF8"/>
<path fill-rule="evenodd" clip-rule="evenodd" d="M43.8267 20.2424H74.2687C74.7977 20.2424 75.2786 20.6753 75.2786 21.2524C75.2786 21.7814 74.8458 22.2623 74.2687 22.2623H43.8267C43.2977 22.2623 42.8168 21.8295 42.8168 21.2524C42.8168 20.6753 43.2977 20.2424 43.8267 20.2424Z" fill="#D9EFF8"/>
<path fill-rule="evenodd" clip-rule="evenodd" d="M43.8267 25.6287H74.2687C74.7977 25.6287 75.2786 26.0615 75.2786 26.6386C75.2786 27.1676 74.8458 27.6485 74.2687 27.6485H43.8267C43.2977 27.6485 42.8168 27.2157 42.8168 26.6386C42.8168 26.0615 43.2977 25.6287 43.8267 25.6287Z" fill="#D9EFF8"/>
<path fill-rule="evenodd" clip-rule="evenodd" d="M43.8267 31.0149H52.0985C52.6275 31.0149 53.1084 31.4477 53.1084 32.0248C53.1084 32.5538 52.6756 33.0347 52.0985 33.0347H43.8267C43.2977 33.0347 42.8168 32.6019 42.8168 32.0248C42.8168 31.4477 43.2977 31.0149 43.8267 31.0149Z" fill="#D9EFF8"/>
<path fill-rule="evenodd" clip-rule="evenodd" d="M43.8267 76.0286H52.0985C52.6275 76.0286 53.1084 76.4614 53.1084 77.0385C53.1084 77.5675 52.6756 78.0484 52.0985 78.0484H43.8267C43.2977 78.0484 42.8168 77.6156 42.8168 77.0385C42.8168 76.4614 43.2977 76.0286 43.8267 76.0286Z" fill="#D9EFF8"/>
<path fill-rule="evenodd" clip-rule="evenodd" d="M55.6092 31.0149H63.8809C64.4099 31.0149 64.8908 31.4477 64.8908 32.0248C64.8908 32.5538 64.458 33.0347 63.8809 33.0347H55.6092C55.0802 33.0347 54.5992 32.6019 54.5992 32.0248C54.5992 31.4477 55.0321 31.0149 55.6092 31.0149Z" fill="#D9EFF8"/>
<path fill-rule="evenodd" clip-rule="evenodd" d="M55.6092 76.0286H63.8809C64.4099 76.0286 64.8908 76.4614 64.8908 77.0385C64.8908 77.5675 64.458 78.0484 63.8809 78.0484H55.6092C55.0802 78.0484 54.5992 77.6156 54.5992 77.0385C54.5992 76.4614 55.0321 76.0286 55.6092 76.0286Z" fill="#D9EFF8"/>
<path fill-rule="evenodd" clip-rule="evenodd" d="M43.8267 37.5073H54.9839C55.513 37.5073 55.9939 37.9401 55.9939 38.5172C55.9939 39.0463 55.561 39.5272 54.9839 39.5272H43.8267C43.2977 39.5272 42.8168 39.0943 42.8168 38.5172C42.8168 37.9401 43.2977 37.5073 43.8267 37.5073Z" fill="#D9EFF8"/>
<path fill-rule="evenodd" clip-rule="evenodd" d="M58.8793 37.5073H70.0366C70.5656 37.5073 71.0465 37.9401 71.0465 38.5172C71.0465 39.0463 70.6137 39.5272 70.0366 39.5272H58.8793C58.3503 39.5272 57.8694 39.0943 57.8694 38.5172C57.8694 37.9401 58.3022 37.5073 58.8793 37.5073Z" fill="#D9EFF8"/>
<path fill-rule="evenodd" clip-rule="evenodd" d="M43.8267 42.3645H57.2923C57.8213 42.3645 58.3023 42.7973 58.3023 43.3744C58.3023 43.9034 57.8694 44.3844 57.2923 44.3844H43.8267C43.2977 44.3844 42.8168 43.9515 42.8168 43.3744C42.8168 42.8454 43.2977 42.3645 43.8267 42.3645Z" fill="#D9EFF8"/>
<path fill-rule="evenodd" clip-rule="evenodd" d="M61.5243 42.3645H74.99C75.519 42.3645 75.9999 42.7973 75.9999 43.3744C75.9999 43.9034 75.5671 44.3844 74.99 44.3844H61.5243C60.9953 44.3844 60.5144 43.9515 60.5144 43.3744C60.5625 42.8454 60.9953 42.3645 61.5243 42.3645Z" fill="#D9EFF8"/>
<path fill-rule="evenodd" clip-rule="evenodd" d="M43.8267 47.895H52.916C53.445 47.895 53.9259 48.3278 53.9259 48.9049C53.9259 49.434 53.4931 49.9149 52.916 49.9149H43.8267C43.2977 49.9149 42.8168 49.482 42.8168 48.9049C42.8168 48.3278 43.2977 47.895 43.8267 47.895Z" fill="#D9EFF8"/>
<path fill-rule="evenodd" clip-rule="evenodd" d="M56.8114 47.895H65.9007C66.4298 47.895 66.9107 48.3278 66.9107 48.9049C66.9107 49.434 66.4778 49.9149 65.9007 49.9149H56.8114C56.2824 49.9149 55.8015 49.482 55.8015 48.9049C55.8015 48.3278 56.2824 47.895 56.8114 47.895Z" fill="#D9EFF8"/>
<path fill-rule="evenodd" clip-rule="evenodd" d="M43.8267 54.2432H57.2923C57.8213 54.2432 58.3023 54.676 58.3023 55.2531C58.3023 55.7821 57.8694 56.263 57.2923 56.263H43.8267C43.2977 56.263 42.8168 55.8302 42.8168 55.2531C42.8168 54.7241 43.2977 54.2432 43.8267 54.2432Z" fill="#D9EFF8"/>
<path fill-rule="evenodd" clip-rule="evenodd" d="M43.8267 65.9294H57.2923C57.8213 65.9294 58.3023 66.3623 58.3023 66.9394C58.3023 67.4684 57.8694 67.9493 57.2923 67.9493H43.8267C43.2977 67.9493 42.8168 67.5165 42.8168 66.9394C42.8168 66.4104 43.2977 65.9294 43.8267 65.9294Z" fill="#D9EFF8"/>
<path fill-rule="evenodd" clip-rule="evenodd" d="M61.5243 54.2432H74.99C75.519 54.2432 75.9999 54.676 75.9999 55.2531C75.9999 55.7821 75.5671 56.263 74.99 56.263H61.5243C60.9953 56.263 60.5144 55.8302 60.5144 55.2531C60.5625 54.7241 60.9953 54.2432 61.5243 54.2432Z" fill="#D9EFF8"/>
<path fill-rule="evenodd" clip-rule="evenodd" d="M61.5243 65.9294H74.99C75.519 65.9294 75.9999 66.3623 75.9999 66.9394C75.9999 67.4684 75.5671 67.9493 74.99 67.9493H61.5243C60.9953 67.9493 60.5144 67.5165 60.5144 66.9394C60.5625 66.4104 60.9953 65.9294 61.5243 65.9294Z" fill="#D9EFF8"/>
<rect x="10" y="40.7615" width="26" height="19" rx="3" fill="#48C4FF"/>
<rect x="10" y="19.7615" width="26" height="19" rx="3" fill="#03E59F"/>
<rect x="10" y="61.7615" width="26" height="19" rx="3" fill="#FC3E54"/>
<path d="M30.2 22.6115H15.8C15.5613 22.6115 15.3324 22.7115 15.1636 22.8897C14.9948 23.0679 14.9 23.3095 14.9 23.5615V34.9615C14.9 35.2134 14.9948 35.455 15.1636 35.6332C15.3324 35.8114 15.5613 35.9115 15.8 35.9115H30.2C30.4387 35.9115 30.6676 35.8114 30.8364 35.6332C31.0052 35.455 31.1 35.2134 31.1 34.9615V23.5615C31.1 23.3095 31.0052 23.0679 30.8364 22.8897C30.6676 22.7115 30.4387 22.6115 30.2 22.6115ZM25.925 25.9365C26.2234 25.9365 26.5095 26.0616 26.7205 26.2843C26.9315 26.507 27.05 26.809 27.05 27.124C27.05 27.4389 26.9315 27.7409 26.7205 27.9636C26.5095 28.1863 26.2234 28.3115 25.925 28.3115C25.6267 28.3115 25.3405 28.1863 25.1295 27.9636C24.9185 27.7409 24.8 27.4389 24.8 27.124C24.8 26.809 24.9185 26.507 25.1295 26.2843C25.3405 26.0616 25.6267 25.9365 25.925 25.9365ZM17.6 33.0615L20.5826 25.8234L23.9747 31.6203L26.8826 30.0956L28.4 33.0615H17.6Z" fill="white"/>
<path d="M30.2 43.6115H15.8C15.5613 43.6115 15.3324 43.7115 15.1636 43.8897C14.9948 44.0679 14.9 44.3095 14.9 44.5615V55.9615C14.9 56.2134 14.9948 56.455 15.1636 56.6332C15.3324 56.8114 15.5613 56.9115 15.8 56.9115H30.2C30.4387 56.9115 30.6676 56.8114 30.8364 56.6332C31.0052 56.455 31.1 56.2134 31.1 55.9615V44.5615C31.1 44.3095 31.0052 44.0679 30.8364 43.8897C30.6676 43.7115 30.4387 43.6115 30.2 43.6115ZM25.925 46.9365C26.2234 46.9365 26.5095 47.0616 26.7205 47.2843C26.9315 47.507 27.05 47.809 27.05 48.124C27.05 48.4389 26.9315 48.7409 26.7205 48.9636C26.5095 49.1863 26.2234 49.3115 25.925 49.3115C25.6267 49.3115 25.3405 49.1863 25.1295 48.9636C24.9185 48.7409 24.8 48.4389 24.8 48.124C24.8 47.809 24.9185 47.507 25.1295 47.2843C25.3405 47.0616 25.6267 46.9365 25.925 46.9365ZM17.6 54.0615L20.5826 46.8234L23.9747 52.6203L26.8826 51.0956L28.4 54.0615H17.6Z" fill="white"/>
<path d="M30.1111 65.7615H15.8889C15.6531 65.7615 15.427 65.8518 15.2603 66.0125C15.0937 66.1733 15 66.3913 15 66.6186V76.9043C15 77.1317 15.0937 77.3497 15.2603 77.5104C15.427 77.6712 15.6531 77.7615 15.8889 77.7615H30.1111C30.3469 77.7615 30.573 77.6712 30.7397 77.5104C30.9064 77.3497 31 77.1317 31 76.9043V66.6186C31 66.3913 30.9064 66.1733 30.7397 66.0125C30.573 65.8518 30.3469 65.7615 30.1111 65.7615ZM25.8889 68.7615C26.1836 68.7615 26.4662 68.8744 26.6746 69.0753C26.8829 69.2762 27 69.5487 27 69.8329C27 70.1171 26.8829 70.3896 26.6746 70.5905C26.4662 70.7914 26.1836 70.9043 25.8889 70.9043C25.5942 70.9043 25.3116 70.7914 25.1032 70.5905C24.8948 70.3896 24.7778 70.1171 24.7778 69.8329C24.7778 69.5487 24.8948 69.2762 25.1032 69.0753C25.3116 68.8744 25.5942 68.7615 25.8889 68.7615ZM17.6667 75.19L20.6124 68.6595L23.9627 73.8898L26.8347 72.514L28.3333 75.19H17.6667Z" fill="white"/>
<path fill-rule="evenodd" clip-rule="evenodd" d="M84.0099 59.6775H108.489C109.018 59.6775 109.498 60.1103 109.498 60.6874C109.498 61.2164 109.066 61.6973 108.489 61.6973H84.0099C83.4809 61.6973 83 61.2645 83 60.6874C83 60.1584 83.4809 59.6775 84.0099 59.6775Z" fill="#D9EFF8"/>
<path fill-rule="evenodd" clip-rule="evenodd" d="M84.0099 71.3638H108.489C109.018 71.3638 109.498 71.7966 109.498 72.3737C109.498 72.9027 109.066 73.3836 108.489 73.3836H84.0099C83.4809 73.3836 83 72.9508 83 72.3737C83 71.8447 83.4809 71.3638 84.0099 71.3638Z" fill="#D9EFF8"/>
<path fill-rule="evenodd" clip-rule="evenodd" d="M84.0099 20.2424H114.452C114.981 20.2424 115.462 20.6753 115.462 21.2524C115.462 21.7814 115.029 22.2623 114.452 22.2623H84.0099C83.4809 22.2623 83 21.8295 83 21.2524C83 20.6753 83.4809 20.2424 84.0099 20.2424Z" fill="#D9EFF8"/>
<path fill-rule="evenodd" clip-rule="evenodd" d="M84.0099 25.6287H114.452C114.981 25.6287 115.462 26.0615 115.462 26.6386C115.462 27.1676 115.029 27.6485 114.452 27.6485H84.0099C83.4809 27.6485 83 27.2157 83 26.6386C83 26.0615 83.4809 25.6287 84.0099 25.6287Z" fill="#D9EFF8"/>
<path fill-rule="evenodd" clip-rule="evenodd" d="M84.0099 31.0149H92.2817C92.8107 31.0149 93.2916 31.4477 93.2916 32.0248C93.2916 32.5538 92.8588 33.0347 92.2817 33.0347H84.0099C83.4809 33.0347 83 32.6019 83 32.0248C83 31.4477 83.4809 31.0149 84.0099 31.0149Z" fill="#D9EFF8"/>
<path fill-rule="evenodd" clip-rule="evenodd" d="M84.0099 76.0286H92.2817C92.8107 76.0286 93.2916 76.4614 93.2916 77.0385C93.2916 77.5675 92.8588 78.0484 92.2817 78.0484H84.0099C83.4809 78.0484 83 77.6156 83 77.0385C83 76.4614 83.4809 76.0286 84.0099 76.0286Z" fill="#D9EFF8"/>
<path fill-rule="evenodd" clip-rule="evenodd" d="M95.7924 31.0149H104.064C104.593 31.0149 105.074 31.4477 105.074 32.0248C105.074 32.5538 104.641 33.0347 104.064 33.0347H95.7924C95.2634 33.0347 94.7825 32.6019 94.7825 32.0248C94.7825 31.4477 95.2153 31.0149 95.7924 31.0149Z" fill="#D9EFF8"/>
<path fill-rule="evenodd" clip-rule="evenodd" d="M95.7924 76.0286H104.064C104.593 76.0286 105.074 76.4614 105.074 77.0385C105.074 77.5675 104.641 78.0484 104.064 78.0484H95.7924C95.2634 78.0484 94.7825 77.6156 94.7825 77.0385C94.7825 76.4614 95.2153 76.0286 95.7924 76.0286Z" fill="#D9EFF8"/>
<path fill-rule="evenodd" clip-rule="evenodd" d="M84.0099 37.5073H95.1672C95.6962 37.5073 96.1771 37.9401 96.1771 38.5172C96.1771 39.0463 95.7443 39.5272 95.1672 39.5272H84.0099C83.4809 39.5272 83 39.0943 83 38.5172C83 37.9401 83.4809 37.5073 84.0099 37.5073Z" fill="#D9EFF8"/>
<path fill-rule="evenodd" clip-rule="evenodd" d="M99.0627 37.5073H110.22C110.749 37.5073 111.23 37.9401 111.23 38.5172C111.23 39.0463 110.797 39.5272 110.22 39.5272H99.0627C98.5336 39.5272 98.0527 39.0943 98.0527 38.5172C98.0527 37.9401 98.4856 37.5073 99.0627 37.5073Z" fill="#D9EFF8"/>
<path fill-rule="evenodd" clip-rule="evenodd" d="M84.0099 42.3645H97.4756C98.0046 42.3645 98.4855 42.7973 98.4855 43.3744C98.4855 43.9034 98.0527 44.3844 97.4756 44.3844H84.0099C83.4809 44.3844 83 43.9515 83 43.3744C83 42.8454 83.4809 42.3645 84.0099 42.3645Z" fill="#D9EFF8"/>
<path fill-rule="evenodd" clip-rule="evenodd" d="M101.708 42.3645H115.173C115.702 42.3645 116.183 42.7973 116.183 43.3744C116.183 43.9034 115.75 44.3844 115.173 44.3844H101.708C101.179 44.3844 100.698 43.9515 100.698 43.3744C100.746 42.8454 101.179 42.3645 101.708 42.3645Z" fill="#D9EFF8"/>
<path fill-rule="evenodd" clip-rule="evenodd" d="M84.0099 47.895H93.0992C93.6282 47.895 94.1092 48.3278 94.1092 48.9049C94.1092 49.434 93.6763 49.9149 93.0992 49.9149H84.0099C83.4809 49.9149 83 49.482 83 48.9049C83 48.3278 83.4809 47.895 84.0099 47.895Z" fill="#D9EFF8"/>
<path fill-rule="evenodd" clip-rule="evenodd" d="M96.9947 47.895H106.084C106.613 47.895 107.094 48.3278 107.094 48.9049C107.094 49.434 106.661 49.9149 106.084 49.9149H96.9947C96.4657 49.9149 95.9847 49.482 95.9847 48.9049C95.9847 48.3278 96.4657 47.895 96.9947 47.895Z" fill="#D9EFF8"/>
<path fill-rule="evenodd" clip-rule="evenodd" d="M84.0099 54.2432H97.4756C98.0046 54.2432 98.4855 54.676 98.4855 55.2531C98.4855 55.7821 98.0527 56.263 97.4756 56.263H84.0099C83.4809 56.263 83 55.8302 83 55.2531C83 54.7241 83.4809 54.2432 84.0099 54.2432Z" fill="#D9EFF8"/>
<path fill-rule="evenodd" clip-rule="evenodd" d="M84.0099 65.9294H97.4756C98.0046 65.9294 98.4855 66.3623 98.4855 66.9394C98.4855 67.4684 98.0527 67.9493 97.4756 67.9493H84.0099C83.4809 67.9493 83 67.5165 83 66.9394C83 66.4104 83.4809 65.9294 84.0099 65.9294Z" fill="#D9EFF8"/>
<path fill-rule="evenodd" clip-rule="evenodd" d="M101.708 54.2432H115.173C115.702 54.2432 116.183 54.676 116.183 55.2531C116.183 55.7821 115.75 56.263 115.173 56.263H101.708C101.179 56.263 100.698 55.8302 100.698 55.2531C100.746 54.7241 101.179 54.2432 101.708 54.2432Z" fill="#D9EFF8"/>
<path fill-rule="evenodd" clip-rule="evenodd" d="M101.708 65.9294H115.173C115.702 65.9294 116.183 66.3623 116.183 66.9394C116.183 67.4684 115.75 67.9493 115.173 67.9493H101.708C101.179 67.9493 100.698 67.5165 100.698 66.9394C100.746 66.4104 101.179 65.9294 101.708 65.9294Z" fill="#D9EFF8"/>
<path d="M0 4C0 2.34315 1.34315 1 3 1H177C178.657 1 180 2.34315 180 4V13H0V4Z" fill="#F6CD40"/>
<circle cx="12.6846" cy="6.85399" r="2.68456" fill="#31C5FF"/>
<circle cx="20.7286" cy="6.85399" r="2.68456" fill="#FC3E54"/>
<circle cx="28.7286" cy="6.85399" r="2.68456" fill="#03E59F"/>
<g clip-path="url(#clip0)">
<path d="M128.774 82.1738C125.907 82.1738 123.62 79.8233 123.62 76.9634V10.5988C123.62 7.69971 125.945 5.38831 128.774 5.38831H168.226C171.094 5.38831 173.38 7.73888 173.38 10.5988V76.9242C173.38 79.8233 171.055 82.1347 168.226 82.1347H128.774V82.1738Z" fill="white"/>
<path d="M168.226 5.97594C170.745 5.97594 172.799 8.05228 172.799 10.5987V76.9242C172.799 79.4707 170.745 81.547 168.226 81.547H128.774C126.255 81.547 124.201 79.4707 124.201 76.9242V10.5987C124.201 8.05228 126.255 5.97594 128.774 5.97594H168.226ZM168.226 4.76147H128.774C125.597 4.76147 123 7.38629 123 10.5987V76.9242C123 80.1367 125.597 82.7615 128.774 82.7615H168.226C171.403 82.7615 174 80.1367 174 76.9242V10.5987C174 7.38629 171.403 4.76147 168.226 4.76147Z" fill="#D3E9F8"/>
<path d="M143.966 15.8092C143.54 16.2793 143.036 16.5144 142.493 16.5144C142.183 16.5144 141.912 16.436 141.641 16.3185C141.369 16.2009 141.176 16.0051 140.982 15.77C140.788 15.5349 140.633 15.2999 140.556 15.0257C140.439 14.7514 140.401 14.438 140.401 14.1638C140.401 13.8504 140.439 13.5761 140.556 13.2627C140.672 12.9885 140.827 12.7143 140.982 12.5184C141.176 12.2833 141.408 12.1266 141.641 12.0091C141.912 11.8916 142.183 11.8132 142.493 11.8132C142.726 11.8132 142.92 11.8524 143.113 11.8916C143.307 11.9307 143.462 12.0091 143.617 12.0874C143.772 12.1658 143.888 12.2833 144.005 12.4008C144.121 12.5184 144.198 12.6751 144.276 12.7926L143.927 13.0277C143.772 12.7534 143.578 12.5184 143.346 12.4008C143.036 12.2833 142.764 12.205 142.454 12.205C142.183 12.205 141.989 12.2441 141.757 12.3617C141.563 12.4792 141.369 12.5967 141.253 12.7926C141.098 12.9885 141.021 13.1844 140.943 13.4194C140.866 13.6545 140.827 13.8895 140.827 14.1246C140.827 14.3988 140.866 14.6339 140.943 14.8689C141.021 15.104 141.137 15.2999 141.292 15.4958C141.447 15.6525 141.641 15.8092 141.834 15.9267C142.028 16.0442 142.261 16.0834 142.532 16.0834C142.803 16.0834 143.036 16.0051 143.268 15.8875C143.501 15.77 143.733 15.5741 143.966 15.2999V14.5164H142.958V14.1638H144.353V16.436H143.966V15.8092ZM146.679 16.5144C146.446 16.5144 146.214 16.4752 146.02 16.3968C145.826 16.3185 145.632 16.1618 145.477 16.0051C145.322 15.8484 145.206 15.6525 145.128 15.4566C145.051 15.2607 145.012 15.0257 145.012 14.7906C145.012 14.5555 145.051 14.3205 145.128 14.1246C145.206 13.9287 145.322 13.7328 145.477 13.5761C145.632 13.4194 145.787 13.3019 146.02 13.1844C146.214 13.106 146.446 13.0277 146.679 13.0277C146.911 13.0277 147.144 13.0668 147.337 13.1844C147.531 13.2627 147.725 13.4194 147.88 13.5761C148.035 13.7328 148.151 13.9287 148.229 14.1246C148.306 14.3205 148.345 14.5555 148.345 14.7906C148.345 14.8298 148.345 14.8689 148.345 14.9081C148.345 14.9473 148.345 14.9473 148.345 14.9865H145.477C145.477 15.1824 145.516 15.3391 145.594 15.4958C145.671 15.6525 145.749 15.77 145.865 15.8875C145.981 16.0051 146.097 16.0834 146.252 16.1618C146.407 16.2401 146.562 16.2401 146.717 16.2401C146.834 16.2401 146.95 16.2401 147.027 16.2009C147.144 16.1618 147.221 16.1226 147.337 16.0834C147.415 16.0442 147.492 15.9659 147.57 15.8875C147.647 15.8092 147.686 15.7308 147.725 15.6525L148.113 15.77C148.074 15.8875 147.996 16.0051 147.88 16.1226C147.802 16.2401 147.686 16.3185 147.57 16.3968C147.454 16.4752 147.299 16.5144 147.144 16.5535C146.989 16.5144 146.834 16.5144 146.679 16.5144ZM147.919 14.5947C147.919 14.3988 147.88 14.2421 147.802 14.0854C147.725 13.9287 147.647 13.8112 147.531 13.6937C147.415 13.5761 147.299 13.4978 147.144 13.4586C146.989 13.3803 146.834 13.3803 146.679 13.3803C146.524 13.3803 146.369 13.4194 146.214 13.4586C146.059 13.537 145.942 13.6153 145.826 13.6937C145.71 13.8112 145.632 13.9287 145.555 14.0854C145.477 14.2421 145.439 14.3988 145.439 14.5947H147.919ZM150.438 16.5144C150.205 16.5144 149.973 16.4752 149.779 16.3968C149.585 16.3185 149.391 16.1618 149.236 16.0051C149.081 15.8484 148.965 15.6525 148.888 15.4566C148.81 15.2607 148.771 15.0257 148.771 14.7906C148.771 14.5555 148.81 14.3205 148.888 14.1246C148.965 13.9287 149.081 13.7328 149.236 13.5761C149.391 13.4194 149.546 13.3019 149.779 13.1844C149.973 13.106 150.205 13.0277 150.438 13.0277C150.67 13.0277 150.903 13.0668 151.097 13.1844C151.29 13.2627 151.484 13.4194 151.639 13.5761C151.794 13.7328 151.91 13.9287 151.988 14.1246C152.065 14.3205 152.104 14.5555 152.104 14.7906C152.104 15.0257 152.065 15.2607 151.988 15.4566C151.91 15.6525 151.794 15.8484 151.639 16.0051C151.484 16.1618 151.329 16.2793 151.097 16.3968C150.903 16.4752 150.67 16.5144 150.438 16.5144ZM149.236 14.7906C149.236 14.9865 149.275 15.1432 149.314 15.3391C149.391 15.4958 149.469 15.6525 149.585 15.77C149.701 15.8875 149.818 16.0051 149.973 16.0442C150.128 16.1226 150.283 16.1618 150.438 16.1618C150.593 16.1618 150.748 16.1226 150.903 16.0442C151.058 15.9659 151.174 15.8875 151.29 15.77C151.407 15.6525 151.484 15.4958 151.562 15.3391C151.639 15.1824 151.639 14.9865 151.639 14.7906C151.639 14.5947 151.6 14.438 151.562 14.2813C151.484 14.1246 151.407 13.9679 151.29 13.8504C151.174 13.7328 151.058 13.6153 150.903 13.5761C150.748 13.4978 150.593 13.4586 150.438 13.4586C150.283 13.4586 150.128 13.4978 149.973 13.5761C149.818 13.6545 149.701 13.7328 149.585 13.8504C149.469 13.9679 149.391 14.1246 149.314 14.2813C149.236 14.3988 149.236 14.5947 149.236 14.7906ZM155.592 12.7143C155.476 12.5575 155.282 12.44 155.088 12.3617C154.856 12.2833 154.623 12.2441 154.352 12.2441C153.926 12.2441 153.654 12.3225 153.461 12.4792C153.267 12.6359 153.189 12.8318 153.189 13.106C153.189 13.2627 153.228 13.3411 153.267 13.4586C153.306 13.537 153.383 13.6153 153.499 13.6937C153.616 13.772 153.732 13.8112 153.887 13.8504C154.042 13.8895 154.236 13.9287 154.468 14.0071C154.701 14.0462 154.933 14.1246 155.127 14.1638C155.321 14.2421 155.476 14.3205 155.631 14.3988C155.786 14.4772 155.863 14.5947 155.941 14.7514C156.018 14.9081 156.057 15.0648 156.057 15.2607C156.057 15.4566 156.018 15.6525 155.941 15.8092C155.863 15.9659 155.747 16.0834 155.592 16.2009C155.437 16.3185 155.282 16.3968 155.088 16.436C154.817 16.4752 154.623 16.5144 154.391 16.5144C153.654 16.5144 153.073 16.2793 152.569 15.8484L152.802 15.4958C152.957 15.6917 153.189 15.8092 153.461 15.9659C153.732 16.0834 154.042 16.1618 154.391 16.1618C154.739 16.1618 155.049 16.0834 155.243 15.9659C155.437 15.8484 155.553 15.6133 155.553 15.3782C155.553 15.2215 155.514 15.104 155.476 15.0257C155.437 14.9081 155.321 14.8298 155.204 14.7906C155.088 14.7122 154.933 14.6731 154.778 14.5947C154.623 14.5555 154.391 14.4772 154.197 14.438C153.964 14.3988 153.732 14.3205 153.577 14.2813C153.383 14.203 153.228 14.1638 153.112 14.0462C152.995 13.9679 152.918 13.8504 152.84 13.7328C152.763 13.6153 152.763 13.4586 152.763 13.2627C152.763 13.0668 152.802 12.871 152.879 12.7143C152.957 12.5575 153.073 12.4008 153.228 12.2833C153.383 12.1658 153.538 12.0874 153.732 12.0483C153.926 11.9699 154.158 11.9699 154.391 11.9699C154.701 11.9699 154.972 12.0091 155.204 12.1266C155.437 12.205 155.67 12.3617 155.863 12.5184L155.592 12.7143ZM157.762 16.5144C157.413 16.5144 157.142 16.3968 156.948 16.1618C156.755 15.9267 156.677 15.5349 156.677 15.0648V13.0668H157.103V14.9865C157.103 15.77 157.375 16.1226 157.878 16.1226C157.995 16.1226 158.15 16.0834 158.266 16.0442C158.382 16.0051 158.499 15.9267 158.615 15.8484C158.731 15.77 158.809 15.6525 158.886 15.5741C158.964 15.4566 159.041 15.3391 159.08 15.1824V13.0277H159.506V15.8484C159.506 15.9659 159.545 16.0442 159.661 16.0442V16.436C159.584 16.436 159.506 16.436 159.467 16.436C159.351 16.436 159.274 16.3968 159.196 16.3576C159.119 16.2793 159.08 16.2401 159.08 16.1226V15.6525C158.925 15.9267 158.731 16.1226 158.499 16.2793C158.344 16.4752 158.072 16.5144 157.762 16.5144ZM162.219 13.4586C161.909 13.4586 161.676 13.537 161.444 13.6937C161.211 13.8504 161.056 14.0462 160.979 14.3205V16.436H160.552V13.0277H160.979V13.8504C161.095 13.6153 161.25 13.4194 161.444 13.2627C161.638 13.106 161.831 13.0277 162.064 13.0277C162.103 13.0277 162.141 13.0277 162.18 13.0277C162.219 13.0277 162.258 13.0277 162.258 13.0277V13.4586H162.219ZM162.994 16.4752V13.8112H162.529V13.4586H162.994V12.9885C162.994 12.5575 163.071 12.2441 163.265 12.0091C163.459 11.774 163.692 11.6565 164.002 11.6565C164.118 11.6565 164.273 11.6565 164.389 11.6957C164.505 11.7348 164.622 11.774 164.699 11.8524L164.583 12.1658C164.505 12.1266 164.467 12.0874 164.35 12.0483C164.273 12.0091 164.195 12.0091 164.079 12.0091C163.885 12.0091 163.73 12.0874 163.614 12.2441C163.498 12.4008 163.459 12.6359 163.459 12.9493V13.4586H164.389V13.8112H163.459V16.4752H162.994Z" fill="#020202"/>
<path d="M133.812 15.535L133.774 15.6525C132.495 15.2216 131.836 13.8504 132.262 12.5968C132.688 11.3431 134.084 10.6771 135.324 11.1081C136.293 11.4215 136.951 12.3225 136.951 13.3411H136.835C136.641 12.205 135.556 11.4606 134.432 11.6173C133.309 11.8132 132.533 12.9102 132.727 14.0463C132.805 14.6731 133.231 15.2216 133.812 15.535Z" fill="url(#paint0_linear)"/>
<path d="M136.641 11.1081L136.68 10.9905C138.501 11.8524 139.277 14.0071 138.424 15.8092C137.571 17.6113 135.401 18.3949 133.58 17.5722C132.185 16.9453 131.371 15.4958 131.487 13.9679H131.603C131.681 15.7309 133.231 17.102 135.014 17.0237C136.796 16.9453 138.153 15.4175 138.075 13.6154C138.036 12.5968 137.494 11.6565 136.641 11.1081Z" fill="url(#paint1_linear)"/>
<path d="M133.774 27.3662V29.9127C133.774 30.1869 133.696 30.4611 133.58 30.6962C133.463 30.9313 133.27 31.088 133.037 31.2055C132.805 31.323 132.495 31.3622 132.185 31.3622C131.681 31.3622 131.293 31.2447 131.022 30.9704C130.751 30.6962 130.596 30.3436 130.596 29.9127V27.3662H131.41V29.756C131.41 30.0694 131.487 30.2653 131.603 30.422C131.72 30.5787 131.913 30.6178 132.185 30.6178C132.456 30.6178 132.65 30.5395 132.766 30.422C132.882 30.2653 132.96 30.0694 132.96 29.756V27.3662H133.774Z" fill="black"/>
<path d="M137.416 31.323H136.602V29.5601C136.602 29.325 136.564 29.1683 136.486 29.09C136.409 28.9724 136.292 28.9333 136.137 28.9333C135.905 28.9333 135.75 29.0116 135.634 29.1683C135.517 29.325 135.479 29.5601 135.479 29.9127V31.323H134.665V28.3064H135.285L135.401 28.6982H135.44C135.517 28.5415 135.672 28.424 135.827 28.3848C135.982 28.3064 136.176 28.2673 136.37 28.2673C136.719 28.2673 136.99 28.3456 137.145 28.5415C137.339 28.7374 137.416 29.0116 137.416 29.3642V31.323Z" fill="black"/>
<path d="M138.191 27.5229C138.191 27.2487 138.346 27.1312 138.618 27.1312C138.928 27.1312 139.044 27.2487 139.044 27.5229C139.044 27.6405 139.005 27.758 138.928 27.8363C138.85 27.9147 138.734 27.9539 138.579 27.9539C138.346 27.9539 138.191 27.7972 138.191 27.5229ZM139.044 31.323H138.23V28.3065H139.044V31.323Z" fill="black"/>
<path d="M141.176 30.7354C141.331 30.7354 141.486 30.6962 141.679 30.657V31.2839C141.486 31.3622 141.214 31.4406 140.943 31.4406C140.633 31.4406 140.4 31.3622 140.245 31.2055C140.09 31.0488 140.013 30.7746 140.013 30.4612V29.0116H139.625V28.6591L140.09 28.3848L140.323 27.758H140.827V28.3848H141.679V29.0116H140.827V30.4612C140.827 30.5787 140.865 30.657 140.943 30.7354C140.982 30.6962 141.059 30.7354 141.176 30.7354Z" fill="black"/>
<path d="M143.617 31.3622C143.152 31.3622 142.764 31.2447 142.493 30.9704C142.222 30.6962 142.106 30.3436 142.106 29.8343C142.106 29.325 142.222 28.9333 142.493 28.659C142.726 28.3848 143.074 28.2281 143.539 28.2281C143.966 28.2281 144.276 28.3456 144.508 28.5807C144.741 28.8157 144.857 29.1683 144.857 29.5993V29.991H142.919C142.919 30.2261 142.997 30.422 143.113 30.5395C143.229 30.657 143.423 30.7354 143.656 30.7354C143.85 30.7354 144.005 30.7354 144.16 30.6962C144.315 30.657 144.47 30.5787 144.663 30.5003V31.1271C144.508 31.2055 144.353 31.2447 144.198 31.2838C144.043 31.3622 143.85 31.3622 143.617 31.3622ZM143.501 28.8549C143.346 28.8549 143.191 28.8941 143.113 29.0116C142.997 29.1291 142.958 29.2858 142.958 29.4817H144.082C144.082 29.2858 144.043 29.1291 143.927 29.0116C143.811 28.8941 143.694 28.8549 143.501 28.8549Z" fill="black"/>
<path d="M146.446 31.3622C146.097 31.3622 145.826 31.2447 145.632 30.9313C145.438 30.657 145.322 30.2653 145.322 29.7951C145.322 29.2859 145.438 28.9333 145.632 28.659C145.826 28.3848 146.097 28.2281 146.485 28.2281C146.872 28.2281 147.144 28.3848 147.337 28.659H147.376C147.337 28.424 147.299 28.2281 147.299 28.0714V27.092H148.112V31.2838H147.492L147.337 30.8921H147.299C147.105 31.2055 146.834 31.3622 146.446 31.3622ZM146.717 30.7354C146.911 30.7354 147.066 30.657 147.182 30.5395C147.26 30.422 147.337 30.2261 147.337 29.9127V29.8343C147.337 29.5209 147.299 29.2859 147.182 29.1291C147.066 28.9724 146.911 28.9333 146.717 28.9333C146.524 28.9333 146.407 29.0116 146.291 29.1683C146.175 29.325 146.136 29.5601 146.136 29.8343C146.136 30.1086 146.175 30.3436 146.291 30.5003C146.407 30.657 146.524 30.7354 146.717 30.7354Z" fill="black"/>
<path d="M152.724 30.2261C152.724 30.5787 152.608 30.8529 152.337 31.0488C152.065 31.2447 151.716 31.3622 151.29 31.3622C150.864 31.3622 150.515 31.2838 150.205 31.1271V30.3436C150.476 30.4611 150.709 30.5395 150.864 30.5787C151.058 30.6178 151.213 30.657 151.368 30.657C151.561 30.657 151.678 30.6178 151.794 30.5395C151.871 30.4611 151.949 30.3828 151.949 30.2261C151.949 30.1477 151.91 30.0694 151.871 30.0302C151.833 29.9518 151.755 29.9127 151.678 29.8735C151.6 29.8343 151.445 29.7168 151.174 29.5993C150.941 29.4817 150.748 29.3642 150.631 29.2858C150.515 29.1683 150.399 29.0508 150.36 28.9333C150.283 28.7766 150.244 28.6198 150.244 28.4631C150.244 28.1106 150.36 27.8363 150.593 27.6404C150.825 27.4446 151.135 27.327 151.561 27.327C151.755 27.327 151.949 27.3662 152.143 27.4054C152.337 27.4446 152.53 27.5229 152.724 27.6013L152.453 28.2673C152.259 28.1889 152.065 28.1106 151.949 28.0714C151.794 28.0322 151.678 28.0322 151.561 28.0322C151.406 28.0322 151.29 28.0714 151.213 28.1497C151.135 28.2281 151.096 28.3064 151.096 28.424C151.096 28.5023 151.096 28.5807 151.135 28.6198C151.174 28.659 151.213 28.7374 151.29 28.7765C151.368 28.8157 151.523 28.9333 151.794 29.0508C152.143 29.2075 152.414 29.4034 152.53 29.5993C152.647 29.756 152.724 29.9518 152.724 30.2261Z" fill="black"/>
<path d="M154.623 30.7354C154.778 30.7354 154.933 30.6962 155.127 30.657V31.2839C154.933 31.3622 154.662 31.4406 154.391 31.4406C154.08 31.4406 153.848 31.3622 153.693 31.2055C153.538 31.0488 153.46 30.7746 153.46 30.4612V29.0116H153.073V28.6591L153.538 28.3848L153.77 27.758H154.274V28.3848H155.127V29.0116H154.274V30.4612C154.274 30.5787 154.313 30.657 154.391 30.7354C154.429 30.6962 154.507 30.7354 154.623 30.7354Z" fill="black"/>
<path d="M157.607 31.323L157.452 30.9313H157.413C157.258 31.088 157.142 31.2447 156.987 31.2839C156.832 31.3622 156.638 31.4014 156.406 31.4014C156.134 31.4014 155.902 31.323 155.747 31.1663C155.592 31.0096 155.514 30.7746 155.514 30.4612C155.514 30.1478 155.631 29.9127 155.863 29.756C156.096 29.5993 156.406 29.5209 156.871 29.5209H157.375V29.4034C157.375 29.09 157.22 28.9333 156.91 28.9333C156.677 28.9333 156.406 29.0116 156.057 29.1683L155.786 28.6199C156.134 28.424 156.522 28.3456 156.91 28.3456C157.297 28.3456 157.607 28.424 157.84 28.6199C158.033 28.7766 158.15 29.0508 158.15 29.4034V31.4014L157.607 31.323ZM157.375 29.9127H157.065C156.832 29.9127 156.638 29.9519 156.522 30.0302C156.406 30.1086 156.367 30.2261 156.367 30.3828C156.367 30.6179 156.483 30.7354 156.755 30.7354C156.948 30.7354 157.103 30.6962 157.22 30.5787C157.336 30.4612 157.375 30.3045 157.375 30.1478V29.9127Z" fill="black"/>
<path d="M160.281 30.7354C160.436 30.7354 160.591 30.6962 160.785 30.657V31.2839C160.591 31.3622 160.32 31.4406 160.049 31.4406C159.739 31.4406 159.506 31.3622 159.351 31.2055C159.196 31.0488 159.118 30.7746 159.118 30.4612V29.0116H158.731V28.6591L159.196 28.3848L159.429 27.758H159.932V28.3848H160.785V29.0116H159.932V30.4612C159.932 30.5787 159.971 30.657 160.049 30.7354C160.087 30.6962 160.165 30.7354 160.281 30.7354Z" fill="black"/>
<path d="M162.723 31.3622C162.258 31.3622 161.87 31.2447 161.599 30.9704C161.327 30.6962 161.211 30.3436 161.211 29.8343C161.211 29.325 161.327 28.9333 161.599 28.659C161.831 28.3848 162.18 28.2281 162.645 28.2281C163.071 28.2281 163.381 28.3456 163.614 28.5807C163.846 28.8157 163.963 29.1683 163.963 29.5993V29.991H162.025C162.025 30.2261 162.103 30.422 162.219 30.5395C162.335 30.657 162.529 30.7354 162.761 30.7354C162.955 30.7354 163.11 30.7354 163.265 30.6962C163.42 30.657 163.575 30.5787 163.769 30.5003V31.1271C163.614 31.2055 163.459 31.2447 163.304 31.2838C163.188 31.3622 162.955 31.3622 162.723 31.3622ZM162.645 28.8549C162.49 28.8549 162.335 28.8941 162.258 29.0116C162.141 29.1291 162.103 29.2858 162.103 29.4817H163.226C163.226 29.2858 163.188 29.1291 163.071 29.0116C162.955 28.8941 162.8 28.8549 162.645 28.8549Z" fill="black"/>
<path d="M166.676 30.422C166.676 30.7354 166.559 30.9704 166.365 31.1271C166.172 31.2838 165.823 31.3622 165.397 31.3622C165.164 31.3622 165.009 31.3622 164.854 31.323C164.699 31.2838 164.544 31.2447 164.428 31.2055V30.5395C164.583 30.6178 164.738 30.657 164.932 30.7354C165.125 30.7745 165.28 30.8137 165.435 30.8137C165.745 30.8137 165.862 30.7354 165.862 30.5395C165.862 30.4611 165.823 30.422 165.784 30.3828C165.745 30.3436 165.668 30.3044 165.59 30.2261C165.513 30.1869 165.358 30.1085 165.203 30.0302C164.97 29.9518 164.815 29.8343 164.699 29.756C164.583 29.6776 164.505 29.5601 164.467 29.4817C164.428 29.3642 164.389 29.2467 164.389 29.09C164.389 28.8157 164.505 28.6199 164.699 28.4631C164.893 28.3064 165.203 28.2281 165.59 28.2281C165.939 28.2281 166.288 28.3064 166.637 28.4631L166.404 29.0508C166.249 28.9724 166.133 28.9333 165.978 28.8941C165.862 28.8549 165.707 28.8157 165.59 28.8157C165.358 28.8157 165.242 28.8941 165.242 29.0116C165.242 29.09 165.28 29.1291 165.358 29.2075C165.435 29.2467 165.59 29.325 165.862 29.4426C166.094 29.5209 166.249 29.6384 166.365 29.7168C166.482 29.7951 166.559 29.9127 166.598 29.991C166.676 30.1477 166.676 30.2653 166.676 30.422Z" fill="black"/>
<path d="M174 22.2733H123V22.43H174V22.2733Z" fill="black"/>
<path d="M160.397 49.8142H136.486V50.9111H160.397V49.8142Z" fill="#CB001C"/>
<path d="M160.397 48.7957H136.486V49.8534H160.397V48.7957Z" fill="white"/>
<path d="M160.397 47.6595H136.486V48.7565H160.397V47.6595Z" fill="#CB001C"/>
<path d="M160.397 46.6409H136.486V47.6987H160.397V46.6409Z" fill="white"/>
<path d="M160.397 45.4656H136.486V46.6409H160.397V45.4656Z" fill="#CB001C"/>
<path d="M160.397 44.3687H136.486V45.4657H160.397V44.3687Z" fill="white"/>
<path d="M160.397 43.3501H136.486V44.4079H160.397V43.3501Z" fill="#CB001C"/>
<path d="M160.397 42.214H136.486V43.3109H160.397V42.214Z" fill="white"/>
<path d="M160.397 41.1954H136.486V42.2532H160.397V41.1954Z" fill="#CB001C"/>
<path d="M160.397 40.0985H136.486V41.1954H160.397V40.0985Z" fill="white"/>
<path d="M160.397 39.0016H136.486V40.0985H160.397V39.0016Z" fill="#CB001C"/>
<path d="M160.397 37.8655H136.486V38.9624H160.397V37.8655Z" fill="white"/>
<path d="M160.397 36.8469H136.486V37.9046H160.397V36.8469Z" fill="#CB001C"/>
<path d="M147.415 36.8469H136.486V44.3687H147.415V36.8469Z" fill="#2A3560"/>
<path d="M137.455 37.6304L137.533 37.9438H137.843L137.61 38.1397L137.688 38.3747L137.455 38.2572L137.223 38.3747L137.3 38.1397L137.068 37.9438H137.339L137.455 37.6304Z" fill="white"/>
<path d="M137.455 38.9232L137.533 39.2366H137.843L137.61 39.4325L137.688 39.7067L137.455 39.55L137.223 39.7067L137.3 39.4325L137.068 39.2366H137.339L137.455 38.9232Z" fill="white"/>
<path d="M137.455 40.216L137.533 40.4511H137.843L137.61 40.6469L137.688 40.9604L137.455 40.7645L137.223 40.9604L137.3 40.6469L137.068 40.4511H137.339L137.455 40.216Z" fill="white"/>
<path d="M137.455 41.4305L137.533 41.7439H137.843L137.61 41.9398L137.688 42.214L137.455 42.0573L137.223 42.214L137.3 41.9398L137.068 41.7439H137.339L137.455 41.4305Z" fill="white"/>
<path d="M137.455 42.7625L137.533 43.0367H137.843L137.61 43.1934L137.688 43.5068L137.455 43.3501L137.223 43.5068L137.3 43.1934L137.068 43.0367H137.339L137.455 42.7625Z" fill="white"/>
<path d="M138.308 38.2964L138.424 38.6098H138.734L138.463 38.7273L138.579 39.1191L138.308 38.9232L138.114 39.1191L138.192 38.7273L137.959 38.6098H138.23L138.308 38.2964Z" fill="white"/>
<path d="M138.308 39.5892L138.424 39.9026H138.734L138.463 40.0985L138.579 40.3336L138.308 40.2161L138.114 40.3336L138.192 40.0985L137.959 39.9026H138.23L138.308 39.5892Z" fill="white"/>
<path d="M138.308 40.882L138.424 41.1954H138.734L138.463 41.313L138.579 41.6264L138.308 41.4305L138.114 41.6264L138.192 41.313L137.959 41.1954H138.23L138.308 40.882Z" fill="white"/>
<path d="M138.308 42.0965L138.424 42.4099H138.734L138.463 42.6058L138.579 42.9192L138.308 42.7233L138.114 42.9192L138.192 42.6058L137.959 42.4099H138.23L138.308 42.0965Z" fill="white"/>
<path d="M139.199 37.6304L139.315 37.9438H139.625L139.354 38.1397L139.432 38.3747L139.199 38.2572L138.967 38.3747L139.083 38.1397L138.812 37.9438H139.122L139.199 37.6304Z" fill="white"/>
<path d="M139.199 38.9232L139.315 39.2366H139.625L139.354 39.4325L139.432 39.7067L139.199 39.55L138.967 39.7067L139.083 39.4325L138.812 39.2366H139.122L139.199 38.9232Z" fill="white"/>
<path d="M139.199 40.216L139.315 40.4511H139.625L139.354 40.6469L139.432 40.9604L139.199 40.7645L138.967 40.9604L139.083 40.6469L138.812 40.4511H139.122L139.199 40.216Z" fill="white"/>
<path d="M139.199 41.4305L139.315 41.7439H139.625L139.354 41.9398L139.432 42.214L139.199 42.0573L138.967 42.214L139.083 41.9398L138.812 41.7439H139.122L139.199 41.4305Z" fill="white"/>
<path d="M139.199 42.7625L139.315 43.0367H139.625L139.354 43.1934L139.432 43.5068L139.199 43.3501L138.967 43.5068L139.083 43.1934L138.812 43.0367H139.122L139.199 42.7625Z" fill="white"/>
<path d="M140.09 38.2964L140.168 38.6098H140.478L140.245 38.7273L140.323 39.1191L140.09 38.9232L139.819 39.1191L139.935 38.7273L139.703 38.6098H140.013L140.09 38.2964Z" fill="white"/>
<path d="M140.09 39.5892L140.168 39.9026H140.478L140.245 40.0985L140.323 40.3336L140.09 40.2161L139.819 40.3336L139.935 40.0985L139.703 39.9026H140.013L140.09 39.5892Z" fill="white"/>
<path d="M140.09 40.882L140.168 41.1954H140.478L140.245 41.313L140.323 41.6264L140.09 41.4305L139.819 41.6264L139.935 41.313L139.703 41.1954H140.013L140.09 40.882Z" fill="white"/>
<path d="M140.09 42.0965L140.168 42.4099H140.478L140.245 42.6058L140.323 42.9192L140.09 42.7233L139.819 42.9192L139.935 42.6058L139.703 42.4099H140.013L140.09 42.0965Z" fill="white"/>
<path d="M140.982 37.6304L141.059 37.9438H141.369L141.098 38.1397L141.214 38.3747L140.982 38.2572L140.749 38.3747L140.827 38.1397L140.594 37.9438H140.866L140.982 37.6304Z" fill="white"/>
<path d="M140.982 38.9232L141.059 39.2366H141.369L141.098 39.4325L141.214 39.7067L140.982 39.55L140.749 39.7067L140.827 39.4325L140.594 39.2366H140.866L140.982 38.9232Z" fill="white"/>
<path d="M140.982 40.216L141.059 40.4511H141.369L141.098 40.6469L141.214 40.9604L140.982 40.7645L140.749 40.9604L140.827 40.6469L140.594 40.4511H140.866L140.982 40.216Z" fill="white"/>
<path d="M140.982 41.4305L141.059 41.7439H141.369L141.098 41.9398L141.214 42.214L140.982 42.0573L140.749 42.214L140.827 41.9398L140.594 41.7439H140.866L140.982 41.4305Z" fill="white"/>
<path d="M140.982 42.7625L141.059 43.0367H141.369L141.098 43.1934L141.214 43.5068L140.982 43.3501L140.749 43.5068L140.827 43.1934L140.594 43.0367H140.866L140.982 42.7625Z" fill="white"/>
<path d="M141.834 38.2964L141.951 38.6098H142.222L141.989 38.7273L142.106 39.1191L141.834 38.9232L141.602 39.1191L141.679 38.7273L141.486 38.6098H141.757L141.834 38.2964Z" fill="white"/>
<path d="M141.834 39.5892L141.951 39.9026H142.222L141.989 40.0985L142.106 40.3336L141.834 40.2161L141.602 40.3336L141.679 40.0985L141.486 39.9026H141.757L141.834 39.5892Z" fill="white"/>
<path d="M141.834 40.882L141.951 41.1954H142.222L141.989 41.313L142.106 41.6264L141.834 41.4305L141.602 41.6264L141.679 41.313L141.486 41.1954H141.757L141.834 40.882Z" fill="white"/>
<path d="M141.834 42.0965L141.951 42.4099H142.222L141.989 42.6058L142.106 42.9192L141.834 42.7233L141.602 42.9192L141.679 42.6058L141.486 42.4099H141.757L141.834 42.0965Z" fill="white"/>
<path d="M142.726 37.6304L142.803 37.9438H143.113L142.881 38.1397L142.958 38.3747L142.726 38.2572L142.493 38.3747L142.571 38.1397L142.338 37.9438H142.648L142.726 37.6304Z" fill="white"/>
<path d="M142.726 38.9232L142.803 39.2366H143.113L142.881 39.4325L142.958 39.7067L142.726 39.55L142.493 39.7067L142.571 39.4325L142.338 39.2366H142.648L142.726 38.9232Z" fill="white"/>
<path d="M142.726 40.216L142.803 40.4511H143.113L142.881 40.6469L142.958 40.9604L142.726 40.7645L142.493 40.9604L142.571 40.6469L142.338 40.4511H142.648L142.726 40.216Z" fill="white"/>
<path d="M142.726 41.4305L142.803 41.7439H143.113L142.881 41.9398L142.958 42.214L142.726 42.0573L142.493 42.214L142.571 41.9398L142.338 41.7439H142.648L142.726 41.4305Z" fill="white"/>
<path d="M142.726 42.7625L142.803 43.0367H143.113L142.881 43.1934L142.958 43.5068L142.726 43.3501L142.493 43.5068L142.571 43.1934L142.338 43.0367H142.648L142.726 42.7625Z" fill="white"/>
<path d="M143.617 38.2964L143.695 38.6098H144.005L143.772 38.7273L143.85 39.1191L143.617 38.9232L143.346 39.1191L143.462 38.7273L143.229 38.6098H143.501L143.617 38.2964Z" fill="white"/>
<path d="M143.617 39.5892L143.695 39.9026H144.005L143.772 40.0985L143.85 40.3336L143.617 40.2161L143.346 40.3336L143.462 40.0985L143.229 39.9026H143.501L143.617 39.5892Z" fill="white"/>
<path d="M143.617 40.882L143.695 41.1954H144.005L143.772 41.313L143.85 41.6264L143.617 41.4305L143.346 41.6264L143.462 41.313L143.229 41.1954H143.501L143.617 40.882Z" fill="white"/>
<path d="M143.617 42.0965L143.695 42.4099H144.005L143.772 42.6058L143.85 42.9192L143.617 42.7233L143.346 42.9192L143.462 42.6058L143.229 42.4099H143.501L143.617 42.0965Z" fill="white"/>
<path d="M144.47 37.6304L144.586 37.9438H144.896L144.625 38.1397L144.702 38.3747L144.47 38.2572L144.237 38.3747L144.315 38.1397L144.121 37.9438H144.392L144.47 37.6304Z" fill="white"/>
<path d="M144.47 38.9232L144.586 39.2366H144.896L144.625 39.4325L144.702 39.7067L144.47 39.55L144.237 39.7067L144.315 39.4325L144.121 39.2366H144.392L144.47 38.9232Z" fill="white"/>
<path d="M144.47 40.216L144.586 40.4511H144.896L144.625 40.6469L144.702 40.9604L144.47 40.7645L144.237 40.9604L144.315 40.6469L144.121 40.4511H144.392L144.47 40.216Z" fill="white"/>
<path d="M144.47 41.4305L144.586 41.7439H144.896L144.625 41.9398L144.702 42.214L144.47 42.0573L144.237 42.214L144.315 41.9398L144.121 41.7439H144.392L144.47 41.4305Z" fill="white"/>
<path d="M144.47 42.7625L144.586 43.0367H144.896L144.625 43.1934L144.702 43.5068L144.47 43.3501L144.237 43.5068L144.315 43.1934L144.121 43.0367H144.392L144.47 42.7625Z" fill="white"/>
<path d="M145.361 38.2964L145.438 38.6098H145.748L145.516 38.7273L145.593 39.1191L145.361 38.9232L145.128 39.1191L145.206 38.7273L144.973 38.6098H145.283L145.361 38.2964Z" fill="white"/>
<path d="M145.361 39.5892L145.438 39.9026H145.748L145.516 40.0985L145.593 40.3336L145.361 40.2161L145.128 40.3336L145.206 40.0985L144.973 39.9026H145.283L145.361 39.5892Z" fill="white"/>
<path d="M145.361 40.882L145.438 41.1954H145.748L145.516 41.313L145.593 41.6264L145.361 41.4305L145.128 41.6264L145.206 41.313L144.973 41.1954H145.283L145.361 40.882Z" fill="white"/>
<path d="M145.361 42.0965L145.438 42.4099H145.748L145.516 42.6058L145.593 42.9192L145.361 42.7233L145.128 42.9192L145.206 42.6058L144.973 42.4099H145.283L145.361 42.0965Z" fill="white"/>
<path d="M146.252 37.6304L146.33 37.9438H146.679L146.369 38.1397L146.446 38.3747L146.252 38.2572L146.02 38.3747L146.097 38.1397L145.865 37.9438H146.136L146.252 37.6304Z" fill="white"/>
<path d="M146.252 38.9232L146.33 39.2366H146.679L146.369 39.4325L146.446 39.7067L146.252 39.55L146.02 39.7067L146.097 39.4325L145.865 39.2366H146.136L146.252 38.9232Z" fill="white"/>
<path d="M146.252 40.216L146.33 40.4511H146.679L146.369 40.6469L146.446 40.9604L146.252 40.7645L146.02 40.9604L146.097 40.6469L145.865 40.4511H146.136L146.252 40.216Z" fill="white"/>
<path d="M146.252 41.4305L146.33 41.7439H146.679L146.369 41.9398L146.446 42.214L146.252 42.0573L146.02 42.214L146.097 41.9398L145.865 41.7439H146.136L146.252 41.4305Z" fill="white"/>
<path d="M146.252 42.7625L146.33 43.0367H146.679L146.369 43.1934L146.446 43.5068L146.252 43.3501L146.02 43.5068L146.097 43.1934L145.865 43.0367H146.136L146.252 42.7625Z" fill="white"/>
<path d="M142.997 57.2577V58.0804H142.532V55.8865H143.152C143.462 55.8865 143.656 55.9257 143.811 56.0432C143.966 56.1608 144.005 56.3175 144.005 56.5525C144.005 56.6701 143.966 56.7876 143.888 56.9051C143.811 57.0227 143.733 57.101 143.578 57.1402C143.888 57.6495 144.121 57.9629 144.198 58.0804H143.694L143.191 57.2577H142.997ZM142.997 56.9051H143.152C143.307 56.9051 143.423 56.8659 143.462 56.8268C143.539 56.7876 143.578 56.7092 143.578 56.5917C143.578 56.4742 143.539 56.3958 143.462 56.3566C143.384 56.3175 143.268 56.2783 143.152 56.2783H142.997V56.9051Z" fill="black"/>
<path d="M145.245 58.1587C144.973 58.1587 144.78 58.0804 144.625 57.9237C144.47 57.767 144.392 57.5711 144.392 57.2969C144.392 57.0226 144.47 56.7876 144.586 56.6309C144.741 56.4742 144.935 56.3958 145.167 56.3958C145.4 56.3958 145.593 56.4742 145.71 56.5917C145.826 56.7092 145.903 56.9051 145.903 57.1402V57.3752H144.818C144.818 57.4927 144.857 57.6103 144.935 57.6886C145.012 57.767 145.09 57.8062 145.245 57.8062C145.361 57.8062 145.438 57.8062 145.516 57.767C145.593 57.7278 145.71 57.7278 145.787 57.6494V58.002C145.71 58.0412 145.632 58.0804 145.516 58.0804C145.516 58.1196 145.4 58.1587 145.245 58.1587ZM145.206 56.7484C145.128 56.7484 145.051 56.7876 144.973 56.8267C144.935 56.9051 144.896 56.9835 144.896 57.101H145.516C145.516 56.9835 145.477 56.9051 145.438 56.8267C145.361 56.7484 145.283 56.7484 145.206 56.7484Z" fill="black"/>
<path d="M147.454 57.6103C147.454 57.767 147.376 57.9237 147.26 58.002C147.144 58.0804 146.95 58.1195 146.717 58.1195C146.601 58.1195 146.485 58.1196 146.407 58.0804C146.33 58.0804 146.252 58.0412 146.175 58.002V57.6103C146.252 57.6494 146.368 57.6886 146.446 57.7278C146.562 57.767 146.64 57.767 146.717 57.767C146.872 57.767 146.95 57.7278 146.95 57.6103C146.95 57.5711 146.95 57.5319 146.911 57.5319C146.872 57.4927 146.833 57.4927 146.795 57.4536C146.756 57.4144 146.678 57.3752 146.601 57.336C146.485 57.2968 146.368 57.2185 146.33 57.1793C146.252 57.1401 146.213 57.0618 146.213 57.0226C146.175 56.9443 146.175 56.9051 146.175 56.7876C146.175 56.6309 146.213 56.5133 146.33 56.435C146.446 56.3566 146.601 56.3174 146.833 56.3174C147.027 56.3174 147.221 56.3566 147.415 56.435L147.26 56.7484C147.182 56.7092 147.105 56.67 147.027 56.67C146.95 56.6309 146.872 56.6308 146.795 56.6308C146.678 56.6308 146.601 56.67 146.601 56.7484C146.601 56.7876 146.64 56.8267 146.678 56.8659C146.717 56.9051 146.833 56.9443 146.95 56.9834C147.066 57.0226 147.182 57.101 147.221 57.1401C147.299 57.1793 147.337 57.2577 147.337 57.2969C147.337 57.336 147.454 57.5319 147.454 57.6103Z" fill="black"/>
<path d="M147.802 56.004C147.802 55.8473 147.88 55.769 148.035 55.769C148.19 55.769 148.267 55.8473 148.267 56.004C148.267 56.0824 148.229 56.1216 148.19 56.1607C148.151 56.1999 148.074 56.2391 147.996 56.2391C147.88 56.2391 147.802 56.1607 147.802 56.004ZM148.267 58.1196H147.802V56.435H148.267V58.1196Z" fill="black"/>
<path d="M149.275 58.1587C149.081 58.1587 148.926 58.0804 148.81 57.9237C148.694 57.767 148.655 57.5711 148.655 57.2969C148.655 57.0226 148.694 56.8267 148.81 56.67C148.926 56.5133 149.081 56.435 149.275 56.435C149.469 56.435 149.624 56.5133 149.74 56.67C149.701 56.5525 149.701 56.435 149.701 56.3175V55.769H150.166V58.0804H149.818L149.74 57.8453C149.624 58.0412 149.469 58.1587 149.275 58.1587ZM149.43 57.767C149.546 57.767 149.624 57.7278 149.701 57.6494C149.74 57.5711 149.779 57.4536 149.779 57.2969V57.2577C149.779 57.0618 149.74 56.9443 149.701 56.8659C149.663 56.7876 149.546 56.7484 149.43 56.7484C149.314 56.7484 149.236 56.7876 149.197 56.8659C149.159 56.9443 149.12 57.0618 149.12 57.2577C149.12 57.4144 149.159 57.5319 149.197 57.6103C149.236 57.7278 149.314 57.767 149.43 57.767Z" fill="black"/>
<path d="M151.407 58.1587C151.135 58.1587 150.941 58.0804 150.786 57.9237C150.631 57.767 150.554 57.5711 150.554 57.2969C150.554 57.0226 150.631 56.7876 150.748 56.6309C150.864 56.4742 151.097 56.3958 151.329 56.3958C151.562 56.3958 151.755 56.4742 151.872 56.5917C151.988 56.7092 152.065 56.9051 152.065 57.1402V57.3752H150.98C150.98 57.4927 151.019 57.6103 151.097 57.6886C151.174 57.767 151.252 57.8062 151.407 57.8062C151.523 57.8062 151.6 57.8062 151.678 57.767C151.755 57.7278 151.872 57.7278 151.949 57.6494V58.002C151.872 58.0412 151.794 58.0804 151.678 58.0804C151.639 58.1196 151.523 58.1587 151.407 58.1587ZM151.329 56.7484C151.252 56.7484 151.174 56.7876 151.097 56.8267C151.058 56.9051 151.019 56.9835 151.019 57.101H151.639C151.639 56.9835 151.6 56.9051 151.562 56.8267C151.523 56.7484 151.445 56.7484 151.329 56.7484Z" fill="black"/>
<path d="M153.964 58.1196H153.499V57.1402C153.499 57.0226 153.46 56.9443 153.422 56.8659C153.383 56.7876 153.305 56.7876 153.228 56.7876C153.112 56.7876 152.995 56.8267 152.957 56.9051C152.918 56.9835 152.879 57.1402 152.879 57.336V58.1196H152.414V56.435H152.763L152.84 56.6309H152.879C152.918 56.5525 152.995 56.4742 153.073 56.435C153.15 56.3958 153.267 56.3566 153.383 56.3566C153.577 56.3566 153.732 56.3958 153.809 56.5133C153.925 56.6309 153.964 56.7876 153.964 56.9835V58.1196Z" fill="black"/>
<path d="M155.127 57.767C155.204 57.767 155.282 57.767 155.398 57.7278V58.0804C155.282 58.1196 155.166 58.1587 154.972 58.1587C154.778 58.1587 154.662 58.1196 154.584 58.002C154.507 57.9237 154.468 57.767 154.468 57.5711V56.7484H154.235V56.5525L154.468 56.3958L154.584 56.0432H154.856V56.3958H155.321V56.7484H154.856V57.5711C154.856 57.6494 154.856 57.6886 154.894 57.7278C155.011 57.767 155.088 57.767 155.127 57.767Z" fill="black"/>
<path d="M155.708 56.004C155.708 55.8473 155.786 55.769 155.941 55.769C156.096 55.769 156.173 55.8473 156.173 56.004C156.173 56.0824 156.134 56.1216 156.096 56.1607C156.057 56.1999 155.979 56.2391 155.902 56.2391C155.824 56.2391 155.708 56.1607 155.708 56.004ZM156.212 58.1196H155.747V56.435H156.212V58.1196Z" fill="black"/>
<path d="M157.723 58.1196L157.646 57.8845C157.568 57.9629 157.491 58.0412 157.413 58.0804C157.336 58.1196 157.22 58.1196 157.103 58.1196C156.948 58.1196 156.832 58.0804 156.716 58.002C156.638 57.9237 156.561 57.767 156.561 57.6103C156.561 57.4144 156.638 57.2969 156.755 57.2185C156.871 57.1402 157.065 57.101 157.297 57.0618H157.568V56.9835C157.568 56.8268 157.491 56.7484 157.297 56.7484C157.181 56.7484 157.026 56.7876 156.832 56.8659L156.677 56.5525C156.871 56.435 157.065 56.3958 157.297 56.3958C157.53 56.3958 157.685 56.435 157.801 56.5525C157.917 56.6309 157.995 56.7876 157.995 56.9835V58.0804L157.723 58.1196ZM157.607 57.336H157.413C157.297 57.336 157.181 57.3752 157.103 57.4144C157.026 57.4536 157.026 57.5319 157.026 57.6103C157.026 57.7278 157.103 57.8062 157.258 57.8062C157.375 57.8062 157.452 57.767 157.491 57.7278C157.568 57.6494 157.568 57.5711 157.568 57.4927V57.336H157.607Z" fill="black"/>
<path d="M158.963 58.1196H158.498V55.8082H158.963V58.1196Z" fill="black"/>
<path d="M160.242 58.1195V55.9257H160.707V58.1195H160.242Z" fill="black"/>
<path d="M162.761 56.5917C162.761 56.8267 162.684 57.0226 162.529 57.1401C162.374 57.2576 162.18 57.336 161.909 57.336H161.715V58.1195H161.25V55.9257H161.948C162.219 55.9257 162.413 55.9648 162.529 56.0824C162.684 56.1999 162.761 56.3958 162.761 56.5917ZM161.715 56.9442H161.87C162.025 56.9442 162.103 56.9051 162.18 56.8659C162.258 56.8267 162.296 56.7092 162.296 56.6308C162.296 56.5133 162.258 56.4349 162.219 56.3958C162.141 56.3566 162.064 56.3174 161.948 56.3174H161.754V56.9442H161.715Z" fill="black"/>
<path d="M139.16 59.0206H134.471C133.308 59.0206 132.417 58.0804 132.417 56.9443C132.417 55.769 133.347 54.8679 134.471 54.8679H139.16C140.323 54.8679 141.214 55.8082 141.214 56.9443C141.214 58.0804 140.284 59.0206 139.16 59.0206Z" fill="#7EC4F7"/>
<path d="M139.005 58.7464C139.99 58.7464 140.788 57.9395 140.788 56.9443C140.788 55.949 139.99 55.1422 139.005 55.1422C138.021 55.1422 137.223 55.949 137.223 56.9443C137.223 57.9395 138.021 58.7464 139.005 58.7464Z" fill="white"/>
<path d="M160.824 73.32H136.176C134.82 73.32 133.735 72.223 133.735 70.8519V67.5219C133.735 66.1507 134.82 65.0538 136.176 65.0538H160.785C162.141 65.0538 163.227 66.1507 163.227 67.5219V70.8519C163.227 72.223 162.141 73.32 160.824 73.32Z" fill="#7EC4F7"/>
<path d="M143.191 69.4807C143.191 69.6766 143.113 69.8333 142.997 69.9508C142.842 70.0683 142.648 70.1075 142.416 70.1075C142.183 70.1075 141.989 70.0683 141.796 69.99V69.559C141.951 69.6374 142.067 69.6766 142.183 69.7157C142.299 69.7549 142.377 69.7549 142.454 69.7549C142.571 69.7549 142.648 69.7549 142.687 69.7157C142.726 69.6766 142.764 69.6374 142.764 69.559C142.764 69.5199 142.764 69.4807 142.726 69.4415C142.687 69.4023 142.648 69.3632 142.609 69.3632C142.571 69.324 142.454 69.2848 142.338 69.2065C142.222 69.1281 142.106 69.0889 142.028 69.0106C141.951 68.9714 141.912 68.893 141.873 68.8147C141.834 68.7363 141.796 68.658 141.796 68.5405C141.796 68.3446 141.873 68.1879 141.989 68.0703C142.106 67.9528 142.299 67.9136 142.532 67.9136C142.648 67.9136 142.764 67.9136 142.842 67.9528C142.958 67.992 143.036 68.0312 143.152 68.0703L142.997 68.4229C142.881 68.3838 142.803 68.3446 142.726 68.3054C142.648 68.3054 142.571 68.2662 142.493 68.2662C142.416 68.2662 142.338 68.3054 142.299 68.3446C142.261 68.3838 142.222 68.4229 142.222 68.5013C142.222 68.5405 142.222 68.5796 142.261 68.6188C142.261 68.658 142.299 68.6972 142.338 68.6972C142.377 68.7363 142.493 68.7755 142.609 68.8539C142.803 68.9322 142.958 69.0497 143.036 69.1281C143.152 69.2065 143.191 69.324 143.191 69.4807Z" fill="white"/>
<path d="M144.896 70.0683L144.78 69.4807L144.625 68.7363L144.315 70.0683H143.811L143.346 68.3838H143.811L144.005 69.1281C144.043 69.2456 144.082 69.4415 144.082 69.6766C144.082 69.5982 144.121 69.4807 144.121 69.324L144.16 69.2065L144.353 68.4229H144.857L145.051 69.2065C145.051 69.2456 145.051 69.2456 145.051 69.2848C145.051 69.324 145.051 69.3632 145.09 69.4023C145.09 69.4415 145.09 69.4807 145.128 69.559C145.128 69.5982 145.128 69.6374 145.128 69.6766C145.128 69.5982 145.167 69.5199 145.167 69.3632C145.206 69.2456 145.206 69.1673 145.206 69.1281L145.4 68.3838H145.826L145.361 70.0683H144.896Z" fill="white"/>
<path d="M146.097 67.9528C146.097 67.7961 146.175 67.7178 146.33 67.7178C146.485 67.7178 146.562 67.7961 146.562 67.9528C146.562 68.0312 146.524 68.0704 146.485 68.1095C146.446 68.1487 146.369 68.1879 146.291 68.1879C146.214 68.1879 146.097 68.1095 146.097 67.9528ZM146.601 70.0683H146.136V68.3838H146.601V70.0683Z" fill="white"/>
<path d="M147.764 69.7549C147.841 69.7549 147.919 69.755 148.035 69.7158V70.0684C147.919 70.1075 147.803 70.1467 147.609 70.1467C147.415 70.1467 147.299 70.1075 147.221 69.99C147.144 69.9117 147.105 69.7549 147.105 69.5591V68.7364H146.872V68.5405L147.105 68.3838L147.221 68.0312H147.492V68.3838H147.958V68.7364H147.492V69.5591C147.492 69.6374 147.492 69.6766 147.531 69.7158C147.648 69.7158 147.686 69.7549 147.764 69.7549Z" fill="white"/>
<path d="M149.043 70.1075C148.539 70.1075 148.268 69.8333 148.268 69.2457C148.268 68.9714 148.345 68.7364 148.461 68.5797C148.616 68.423 148.81 68.3446 149.081 68.3446C149.275 68.3446 149.43 68.3838 149.585 68.4621L149.469 68.8147C149.391 68.7755 149.314 68.7755 149.275 68.7364C149.198 68.7364 149.159 68.6972 149.081 68.6972C148.849 68.6972 148.733 68.8539 148.733 69.2065C148.733 69.5199 148.849 69.7158 149.081 69.7158C149.159 69.7158 149.236 69.7158 149.314 69.6766C149.391 69.6374 149.469 69.5982 149.546 69.5591V69.9508C149.469 69.99 149.391 70.0292 149.314 70.0292C149.236 70.1075 149.159 70.1075 149.043 70.1075Z" fill="white"/>
<path d="M151.445 70.0684H150.98V69.0889C150.98 68.8539 150.903 68.7364 150.709 68.7364C150.593 68.7364 150.476 68.7755 150.438 68.8539C150.399 68.9322 150.36 69.0889 150.36 69.2848V70.0684H149.895V67.757H150.36V68.2271C150.36 68.2662 150.36 68.3446 150.36 68.5013V68.6188H150.399C150.515 68.4621 150.67 68.3838 150.864 68.3838C151.058 68.3838 151.213 68.423 151.29 68.5405C151.407 68.658 151.445 68.8147 151.445 69.0106V70.0684Z" fill="white"/>
<path d="M152.724 70.0683V67.8745H153.189V70.0683H152.724Z" fill="white"/>
<path d="M155.243 68.5796C155.243 68.8147 155.166 69.0106 155.011 69.1281C154.856 69.2456 154.662 69.324 154.391 69.324H154.197V70.1075H153.732V67.9136H154.429C154.701 67.9136 154.894 67.9528 155.011 68.0703C155.166 68.1879 155.243 68.3446 155.243 68.5796ZM154.197 68.9322H154.352C154.507 68.9322 154.584 68.893 154.662 68.8539C154.739 68.8147 154.778 68.6972 154.778 68.6188C154.778 68.5013 154.739 68.4229 154.701 68.3837C154.623 68.3446 154.546 68.3054 154.429 68.3054H154.236V68.9322H154.197Z" fill="white"/>
</g>
<defs>
<linearGradient id="paint0_linear" x1="134.543" y1="10.9569" x2="134.543" y2="15.6473" gradientUnits="userSpaceOnUse">
<stop stop-color="#7A5FFF"/>
<stop offset="1" stop-color="#01FF89"/>
</linearGradient>
<linearGradient id="paint1_linear" x1="135.149" y1="10.9947" x2="135.149" y2="17.8909" gradientUnits="userSpaceOnUse">
<stop stop-color="#7A5FFF"/>
<stop offset="1" stop-color="#01FF89"/>
</linearGradient>
<clipPath id="clip0">
<rect x="123" y="4.76147" width="51" height="78" fill="white"/>
</clipPath>
</defs>
</svg>
