<svg width="180" height="86" viewBox="0 0 180 86" fill="none" xmlns="http://www.w3.org/2000/svg">
<path d="M176.505 86H3.49515C1.61314 86 0 84.6898 0 82.903V3.09695C0 1.31025 1.47872 0 3.49515 0H176.505C178.387 0 180 1.31025 180 3.09695V83.0222C179.866 84.6898 178.387 86 176.505 86Z" fill="#E4F5FB"/>
<path d="M86.3111 13.3134V65.6061H56.5828V72.854H123.348V65.6061H93.6198V64.4504H93.6889V53.9507H93.6198V34.9984H93.6889V31.9523H93.6198V13.3134H86.3111Z" fill="white"/>
<path d="M95.5456 64.4503H94.2222H93.679H90.0247H84.3753C83.3185 64.4503 82.4592 65.3024 82.4592 66.3504V72.0997C82.4592 73.1478 83.3185 73.9999 84.3753 73.9999H90.0247H94.2222H95.5456C96.6024 73.9999 97.4617 73.1478 97.4617 72.0997V71.3554C97.5012 71.1497 97.5308 70.944 97.5308 70.7285V67.7314C97.5308 67.5159 97.5012 67.3102 97.4617 67.1046V66.3602C97.4617 65.3024 96.6024 64.4503 95.5456 64.4503Z" fill="#6A82B0"/>
<path d="M126.41 34.9984H122.469H93.6889H90.0346H53.521C52.6815 34.9984 52 35.6742 52 36.5068V52.4424C52 53.275 52.6815 53.9508 53.521 53.9508H90.0346H93.6889H122.469H126.41C127.249 53.9508 127.931 53.275 127.931 52.4424V49.2592C127.97 48.9948 128 48.7303 128 48.4659V40.4833C128 40.2091 127.97 39.9446 127.931 39.6802V36.5068C127.931 35.6742 127.249 34.9984 126.41 34.9984Z" fill="#1DAFF4"/>
<path d="M126.41 13H122.469H90.084H90.0346H53.521C52.6815 13 52 13.6758 52 14.5083V30.444C52 31.2765 52.6815 31.9523 53.521 31.9523H90.0346H93.6889H122.469H126.41C127.249 31.9523 127.931 31.2765 127.931 30.444V27.2608C127.97 26.9963 128 26.7319 128 26.4674V18.4849C128 18.2107 127.97 17.9462 127.931 17.6818V14.5083C127.931 13.6758 127.249 13 126.41 13Z" fill="#1DAFF4"/>
<path d="M120.504 14.6455H116.988V30.6791H120.504V14.6455Z" fill="#FCCA2E"/>
<path d="M114.844 14.6455H111.328V30.6791H114.844V14.6455Z" fill="#FCCA2E"/>
<path d="M120.504 36.6438H116.988V52.6774H120.504V36.6438Z" fill="#FCCA2E"/>
<path d="M114.844 36.6438H111.328V52.6774H114.844V36.6438Z" fill="#FCCA2E"/>
<path d="M56.5432 18.4124C56.5432 19.7836 57.6593 20.8904 59.042 20.8904C60.4247 20.8904 61.5408 19.7836 61.5408 18.4124C61.5408 17.0412 60.4247 15.9344 59.042 15.9344C57.6593 15.9442 56.5432 17.051 56.5432 18.4124Z" fill="#630DD3"/>
<path d="M59.5259 24.2872C57.7679 23.9541 56.2568 25.4527 56.5926 27.1961C56.7803 28.1658 57.5803 28.9591 58.558 29.1354C60.3161 29.4684 61.8272 27.9699 61.4914 26.2265C61.3037 25.2666 60.5037 24.4733 59.5259 24.2872Z" fill="#FC3E54"/>
<path d="M56.5432 40.2346C56.5432 41.596 57.6593 42.7126 59.042 42.7126C60.4247 42.7126 61.5408 41.6058 61.5408 40.2346C61.5408 38.8634 60.4247 37.7566 59.042 37.7566C57.6593 37.7664 56.5432 38.8732 56.5432 40.2346Z" fill="#630DD3"/>
<path d="M59.5259 46.2953C57.7679 45.9623 56.2568 47.4609 56.5926 49.2043C56.7803 50.1739 57.5803 50.9673 58.558 51.1436C60.3161 51.4766 61.8272 49.978 61.4914 48.2346C61.3037 47.265 60.5037 46.4716 59.5259 46.2953Z" fill="#FC3E54"/>
</svg>
