<svg width="366" height="241" viewBox="0 0 366 241" fill="none" xmlns="http://www.w3.org/2000/svg">
<g clip-path="url(#clip0_304_1925)">
<g filter="url(#filter0_d_304_1925)">
<mask id="mask0_304_1925" style="mask-type:alpha" maskUnits="userSpaceOnUse" x="37" y="13" width="290" height="211">
<path fill-rule="evenodd" clip-rule="evenodd" d="M37.3162 13.7483H326.465V223.611H37.3162V13.7483Z" fill="white"/>
</mask>
<g mask="url(#mask0_304_1925)">
<path fill-rule="evenodd" clip-rule="evenodd" d="M326.465 215.528C326.465 220 322.824 223.611 318.347 223.611H45.4307C40.9542 223.611 37.3162 220 37.3162 215.528V21.8319C37.3162 17.36 40.9542 13.7478 45.4307 13.7478H318.347C322.824 13.7478 326.465 17.36 326.465 21.8319V215.528Z" fill="white"/>
</g>
<mask id="mask1_304_1925" style="mask-type:alpha" maskUnits="userSpaceOnUse" x="1" y="13" width="362" height="223">
<path fill-rule="evenodd" clip-rule="evenodd" d="M1 235.716H362.777V13.7483H1V235.716Z" fill="white"/>
</mask>
<g mask="url(#mask1_304_1925)">
<path fill-rule="evenodd" clip-rule="evenodd" d="M50.667 205.446H313.468V27.8767H50.667V205.446Z" fill="#191551"/>
</g>
<mask id="mask2_304_1925" style="mask-type:alpha" maskUnits="userSpaceOnUse" x="1" y="217" width="362" height="19">
<path fill-rule="evenodd" clip-rule="evenodd" d="M1 217.551H362.777V235.715H1V217.551Z" fill="white"/>
</mask>
<g mask="url(#mask2_304_1925)">
<path fill-rule="evenodd" clip-rule="evenodd" d="M0.999756 217.551C2.07823 227.713 12.793 235.715 25.9778 235.715H337.794C350.987 235.715 361.694 227.713 362.778 217.551H0.999756Z" fill="#EFEFEF"/>
</g>
<mask id="mask3_304_1925" style="mask-type:alpha" maskUnits="userSpaceOnUse" x="1" y="13" width="362" height="223">
<path fill-rule="evenodd" clip-rule="evenodd" d="M1 235.716H362.777V13.7483H1V235.716Z" fill="white"/>
</mask>
<g mask="url(#mask3_304_1925)">
<path fill-rule="evenodd" clip-rule="evenodd" d="M134.198 223.611H229.58V217.55H134.198V223.611Z" fill="#CCCCCC"/>
</g>
</g>
<g clip-path="url(#clip1_304_1925)">
<g filter="url(#filter1_d_304_1925)">
<mask id="mask4_304_1925" style="mask-type:alpha" maskUnits="userSpaceOnUse" x="32" y="8" width="288" height="223">
<path fill-rule="evenodd" clip-rule="evenodd" d="M32.1172 8.30078H319.669V230.201H32.1172V8.30078Z" fill="white"/>
</mask>
<g mask="url(#mask4_304_1925)">
</g>
<mask id="mask5_304_1925" style="mask-type:alpha" maskUnits="userSpaceOnUse" x="-4" y="8" width="360" height="235">
<path fill-rule="evenodd" clip-rule="evenodd" d="M-4 243H355.778V8.30078H-4V243Z" fill="white"/>
</mask>
<g mask="url(#mask5_304_1925)">
<path d="M64 46C64 41.5817 67.5817 38 72 38H282C286.418 38 290 41.5817 290 46V210.754H64V46Z" fill="#2C267D"/>
<path fill-rule="evenodd" clip-rule="evenodd" d="M143.1 148H194C195.1 148 196.1 148.9 196.1 150.1C196.1 151.2 195.2 152.2 194 152.2H143.1C142 152.2 141 151.3 141 150.1C141 149 142 148 143.1 148Z" fill="#362F9C"/>
<path fill-rule="evenodd" clip-rule="evenodd" d="M143.1 66H206.4C207.5 66 208.5 66.9 208.5 68.1C208.5 69.2 207.6 70.2 206.4 70.2H143.1C142 70.2 141 69.3 141 68.1C141 66.9 142 66 143.1 66Z" fill="#362F9C"/>
<path fill-rule="evenodd" clip-rule="evenodd" d="M143.1 77.2H206.4C207.5 77.2 208.5 78.0999 208.5 79.2999C208.5 80.3999 207.6 81.3999 206.4 81.3999H143.1C142 81.3999 141 80.4999 141 79.2999C141 78.0999 142 77.2 143.1 77.2Z" fill="#362F9C"/>
<path fill-rule="evenodd" clip-rule="evenodd" d="M143.1 88.3999H160.3C161.4 88.3999 162.4 89.2999 162.4 90.4999C162.4 91.5999 161.5 92.5999 160.3 92.5999H143.1C142 92.5999 141 91.6999 141 90.4999C141 89.2999 142 88.3999 143.1 88.3999Z" fill="#362F9C"/>
<path fill-rule="evenodd" clip-rule="evenodd" d="M167.6 88.3999H184.8C185.9 88.3999 186.9 89.2999 186.9 90.4999C186.9 91.5999 186 92.5999 184.8 92.5999H167.6C166.5 92.5999 165.5 91.6999 165.5 90.4999C165.5 89.2999 166.4 88.3999 167.6 88.3999Z" fill="#362F9C"/>
<path fill-rule="evenodd" clip-rule="evenodd" d="M143.1 101.9H166.3C167.4 101.9 168.4 102.8 168.4 104C168.4 105.1 167.5 106.1 166.3 106.1H143.1C142 106.1 141 105.2 141 104C141 102.8 142 101.9 143.1 101.9Z" fill="#362F9C"/>
<path fill-rule="evenodd" clip-rule="evenodd" d="M174.401 101.9H197.601C198.701 101.9 199.701 102.8 199.701 104C199.701 105.1 198.801 106.1 197.601 106.1H174.401C173.301 106.1 172.301 105.2 172.301 104C172.301 102.8 173.201 101.9 174.401 101.9Z" fill="#362F9C"/>
<path fill-rule="evenodd" clip-rule="evenodd" d="M143.1 112H171.1C172.2 112 173.2 112.9 173.2 114.1C173.2 115.2 172.3 116.2 171.1 116.2H143.1C142 116.2 141 115.3 141 114.1C141 113 142 112 143.1 112Z" fill="#362F9C"/>
<path fill-rule="evenodd" clip-rule="evenodd" d="M179.901 112H207.901C209.001 112 210.001 112.9 210.001 114.1C210.001 115.2 209.101 116.2 207.901 116.2H179.901C178.801 116.2 177.801 115.3 177.801 114.1C177.901 113 178.801 112 179.901 112Z" fill="#362F9C"/>
<path fill-rule="evenodd" clip-rule="evenodd" d="M143.1 123.5H162C163.1 123.5 164.1 124.4 164.1 125.6C164.1 126.7 163.2 127.7 162 127.7H143.1C142 127.7 141 126.8 141 125.6C141 124.4 142 123.5 143.1 123.5Z" fill="#362F9C"/>
<path fill-rule="evenodd" clip-rule="evenodd" d="M170.1 123.5H189C190.1 123.5 191.1 124.4 191.1 125.6C191.1 126.7 190.2 127.7 189 127.7H170.1C169 127.7 168 126.8 168 125.6C168 124.4 169 123.5 170.1 123.5Z" fill="#362F9C"/>
<path fill-rule="evenodd" clip-rule="evenodd" d="M143.1 136.7H171.1C172.2 136.7 173.2 137.6 173.2 138.8C173.2 139.9 172.3 140.9 171.1 140.9H143.1C142 140.9 141 140 141 138.8C141 137.7 142 136.7 143.1 136.7Z" fill="#362F9C"/>
<path fill-rule="evenodd" clip-rule="evenodd" d="M179.901 136.7H207.901C209.001 136.7 210.001 137.6 210.001 138.8C210.001 139.9 209.101 140.9 207.901 140.9H179.901C178.801 140.9 177.801 140 177.801 138.8C177.901 137.7 178.801 136.7 179.901 136.7Z" fill="#362F9C"/>
<path fill-rule="evenodd" clip-rule="evenodd" d="M206.1 148H257C258.1 148 259.1 148.9 259.1 150.1C259.1 151.2 258.2 152.2 257 152.2H206.1C205 152.2 204 151.3 204 150.1C204 149 205 148 206.1 148Z" fill="#362F9C"/>
<path fill-rule="evenodd" clip-rule="evenodd" d="M206.1 66H269.4C270.5 66 271.5 66.9 271.5 68.1C271.5 69.2 270.6 70.2 269.4 70.2H206.1C205 70.2 204 69.3 204 68.1C204 66.9 205 66 206.1 66Z" fill="#362F9C"/>
<path fill-rule="evenodd" clip-rule="evenodd" d="M206.1 77.2H269.4C270.5 77.2 271.5 78.0999 271.5 79.2999C271.5 80.3999 270.6 81.3999 269.4 81.3999H206.1C205 81.3999 204 80.4999 204 79.2999C204 78.0999 205 77.2 206.1 77.2Z" fill="#362F9C"/>
<path fill-rule="evenodd" clip-rule="evenodd" d="M206.1 88.3999H223.3C224.4 88.3999 225.4 89.2999 225.4 90.4999C225.4 91.5999 224.5 92.5999 223.3 92.5999H206.1C205 92.5999 204 91.6999 204 90.4999C204 89.2999 205 88.3999 206.1 88.3999Z" fill="#362F9C"/>
<path fill-rule="evenodd" clip-rule="evenodd" d="M230.6 88.3999H247.8C248.9 88.3999 249.9 89.2999 249.9 90.4999C249.9 91.5999 249 92.5999 247.8 92.5999H230.6C229.5 92.5999 228.5 91.6999 228.5 90.4999C228.5 89.2999 229.4 88.3999 230.6 88.3999Z" fill="#362F9C"/>
<path fill-rule="evenodd" clip-rule="evenodd" d="M206.1 101.9H229.3C230.4 101.9 231.4 102.8 231.4 104C231.4 105.1 230.5 106.1 229.3 106.1H206.1C205 106.1 204 105.2 204 104C204 102.8 205 101.9 206.1 101.9Z" fill="#362F9C"/>
<path fill-rule="evenodd" clip-rule="evenodd" d="M237.401 101.9H260.601C261.701 101.9 262.701 102.8 262.701 104C262.701 105.1 261.801 106.1 260.601 106.1H237.401C236.301 106.1 235.301 105.2 235.301 104C235.301 102.8 236.201 101.9 237.401 101.9Z" fill="#362F9C"/>
<path fill-rule="evenodd" clip-rule="evenodd" d="M206.1 112H234.1C235.2 112 236.2 112.9 236.2 114.1C236.2 115.2 235.3 116.2 234.1 116.2H206.1C205 116.2 204 115.3 204 114.1C204 113 205 112 206.1 112Z" fill="#362F9C"/>
<path fill-rule="evenodd" clip-rule="evenodd" d="M242.901 112H270.901C272.001 112 273.001 112.9 273.001 114.1C273.001 115.2 272.101 116.2 270.901 116.2H242.901C241.801 116.2 240.801 115.3 240.801 114.1C240.901 113 241.801 112 242.901 112Z" fill="#362F9C"/>
<path fill-rule="evenodd" clip-rule="evenodd" d="M206.1 123.5H225C226.1 123.5 227.1 124.4 227.1 125.6C227.1 126.7 226.2 127.7 225 127.7H206.1C205 127.7 204 126.8 204 125.6C204 124.4 205 123.5 206.1 123.5Z" fill="#362F9C"/>
<path fill-rule="evenodd" clip-rule="evenodd" d="M233.1 123.5H252C253.1 123.5 254.1 124.4 254.1 125.6C254.1 126.7 253.2 127.7 252 127.7H233.1C232 127.7 231 126.8 231 125.6C231 124.4 232 123.5 233.1 123.5Z" fill="#362F9C"/>
<path fill-rule="evenodd" clip-rule="evenodd" d="M206.1 136.7H234.1C235.2 136.7 236.2 137.6 236.2 138.8C236.2 139.9 235.3 140.9 234.1 140.9H206.1C205 140.9 204 140 204 138.8C204 137.7 205 136.7 206.1 136.7Z" fill="#362F9C"/>
<path fill-rule="evenodd" clip-rule="evenodd" d="M242.901 136.7H270.901C272.001 136.7 273.001 137.6 273.001 138.8C273.001 139.9 272.101 140.9 270.901 140.9H242.901C241.801 140.9 240.801 140 240.801 138.8C240.901 137.7 241.801 136.7 242.901 136.7Z" fill="#362F9C"/>
<path d="M64 46C64 41.5817 67.5817 38 72 38H282C286.418 38 290 41.5817 290 46V50.1848H64V46Z" fill="#F6CD40"/>
<path d="M257.685 46.7771C259.167 46.7771 260.369 45.5752 260.369 44.0925C260.369 42.6099 259.167 41.408 257.685 41.408C256.202 41.408 255 42.6099 255 44.0925C255 45.5752 256.202 46.7771 257.685 46.7771Z" fill="#31C5FF"/>
<path d="M265.728 46.7771C267.21 46.7771 268.412 45.5752 268.412 44.0925C268.412 42.6099 267.21 41.408 265.728 41.408C264.245 41.408 263.043 42.6099 263.043 44.0925C263.043 45.5752 264.245 46.7771 265.728 46.7771Z" fill="#FC3E54"/>
<path d="M273.728 46.7771C275.21 46.7771 276.412 45.5752 276.412 44.0925C276.412 42.6099 275.21 41.408 273.728 41.408C272.245 41.408 271.043 42.6099 271.043 44.0925C271.043 45.5752 272.245 46.7771 273.728 46.7771Z" fill="#03E59F"/>
<path d="M130 109H83C80.7909 109 79 110.791 79 113V143C79 145.209 80.7909 147 83 147H130C132.209 147 134 145.209 134 143V113C134 110.791 132.209 109 130 109Z" fill="#48C4FF"/>
<path d="M130 65H83C80.7909 65 79 66.7909 79 69V99C79 101.209 80.7909 103 83 103H130C132.209 103 134 101.209 134 99V69C134 66.7909 132.209 65 130 65Z" fill="#03E59F"/>
<path d="M122.198 70.7H91.7984C91.2945 70.7 90.8112 70.9001 90.4549 71.2564C90.0986 71.6128 89.8984 72.0959 89.8984 72.5999V95.4C89.8984 95.9039 90.0986 96.3871 90.4549 96.7435C90.8112 97.0998 91.2945 97.3 91.7984 97.3H122.198C122.702 97.3 123.185 97.0998 123.541 96.7435C123.898 96.3871 124.098 95.9039 124.098 95.4V72.5999C124.098 72.0959 123.898 71.6128 123.541 71.2564C123.185 70.9001 122.702 70.7 122.198 70.7ZM113.173 77.3499C113.803 77.3499 114.407 77.6002 114.852 78.0456C115.298 78.491 115.548 79.095 115.548 79.7249C115.548 80.3547 115.298 80.9588 114.852 81.4042C114.407 81.8496 113.803 82.0999 113.173 82.0999C112.543 82.0999 111.939 81.8496 111.494 81.4042C111.048 80.9588 110.798 80.3547 110.798 79.7249C110.798 79.095 111.048 78.491 111.494 78.0456C111.939 77.6002 112.543 77.3499 113.173 77.3499ZM95.5984 91.5999L101.895 77.1239L109.056 88.7176L115.195 85.6681L118.398 91.5999H95.5984Z" fill="white"/>
<path d="M122.198 114.7H91.7984C91.2945 114.7 90.8112 114.9 90.4549 115.256C90.0986 115.613 89.8984 116.096 89.8984 116.6V139.4C89.8984 139.904 90.0986 140.387 90.4549 140.743C90.8112 141.1 91.2945 141.3 91.7984 141.3H122.198C122.702 141.3 123.185 141.1 123.541 140.743C123.898 140.387 124.098 139.904 124.098 139.4V116.6C124.098 116.096 123.898 115.613 123.541 115.256C123.185 114.9 122.702 114.7 122.198 114.7ZM113.173 121.35C113.803 121.35 114.407 121.6 114.852 122.046C115.298 122.491 115.548 123.095 115.548 123.725C115.548 124.355 115.298 124.959 114.852 125.404C114.407 125.85 113.803 126.1 113.173 126.1C112.543 126.1 111.939 125.85 111.494 125.404C111.048 124.959 110.798 124.355 110.798 123.725C110.798 123.095 111.048 122.491 111.494 122.046C111.939 121.6 112.543 121.35 113.173 121.35ZM95.5984 135.6L101.895 121.124L109.056 132.718L115.195 129.668L118.398 135.6H95.5984Z" fill="white"/>
</g>
</g>
</g>
<path d="M221.889 172.178V174.84H212.957V172.178H216.081V165.512C215.949 165.688 215.737 165.871 215.443 166.062C215.165 166.238 214.857 166.407 214.519 166.568C214.182 166.729 213.83 166.861 213.463 166.964C213.111 167.067 212.796 167.118 212.517 167.118V164.368C212.781 164.368 213.104 164.287 213.485 164.126C213.867 163.95 214.241 163.745 214.607 163.51C214.974 163.275 215.289 163.048 215.553 162.828C215.832 162.593 216.008 162.41 216.081 162.278H219.095V172.178H221.889ZM234.85 168.394C234.85 169.362 234.704 170.257 234.41 171.078C234.132 171.885 233.736 172.589 233.222 173.19C232.724 173.777 232.122 174.239 231.418 174.576C230.729 174.899 229.981 175.06 229.174 175.06C228.353 175.06 227.598 174.899 226.908 174.576C226.219 174.239 225.618 173.777 225.104 173.19C224.606 172.589 224.21 171.885 223.916 171.078C223.638 170.257 223.498 169.362 223.498 168.394C223.498 167.426 223.638 166.539 223.916 165.732C224.21 164.911 224.606 164.207 225.104 163.62C225.618 163.019 226.219 162.549 226.908 162.212C227.598 161.875 228.353 161.706 229.174 161.706C229.981 161.706 230.729 161.875 231.418 162.212C232.122 162.549 232.724 163.019 233.222 163.62C233.736 164.207 234.132 164.911 234.41 165.732C234.704 166.539 234.85 167.426 234.85 168.394ZM231.88 168.394C231.88 167.807 231.814 167.272 231.682 166.788C231.55 166.289 231.36 165.864 231.11 165.512C230.876 165.16 230.59 164.889 230.252 164.698C229.93 164.507 229.57 164.412 229.174 164.412C228.764 164.412 228.39 164.507 228.052 164.698C227.73 164.889 227.444 165.16 227.194 165.512C226.96 165.864 226.776 166.289 226.644 166.788C226.512 167.272 226.446 167.807 226.446 168.394C226.446 168.981 226.512 169.516 226.644 170C226.776 170.484 226.96 170.902 227.194 171.254C227.444 171.606 227.73 171.877 228.052 172.068C228.39 172.259 228.764 172.354 229.174 172.354C229.57 172.354 229.93 172.259 230.252 172.068C230.59 171.877 230.876 171.606 231.11 171.254C231.36 170.902 231.55 170.484 231.682 170C231.814 169.516 231.88 168.981 231.88 168.394ZM248.364 168.394C248.364 169.362 248.217 170.257 247.924 171.078C247.645 171.885 247.249 172.589 246.736 173.19C246.237 173.777 245.636 174.239 244.932 174.576C244.243 174.899 243.495 175.06 242.688 175.06C241.867 175.06 241.111 174.899 240.422 174.576C239.733 174.239 239.131 173.777 238.618 173.19C238.119 172.589 237.723 171.885 237.43 171.078C237.151 170.257 237.012 169.362 237.012 168.394C237.012 167.426 237.151 166.539 237.43 165.732C237.723 164.911 238.119 164.207 238.618 163.62C239.131 163.019 239.733 162.549 240.422 162.212C241.111 161.875 241.867 161.706 242.688 161.706C243.495 161.706 244.243 161.875 244.932 162.212C245.636 162.549 246.237 163.019 246.736 163.62C247.249 164.207 247.645 164.911 247.924 165.732C248.217 166.539 248.364 167.426 248.364 168.394ZM245.394 168.394C245.394 167.807 245.328 167.272 245.196 166.788C245.064 166.289 244.873 165.864 244.624 165.512C244.389 165.16 244.103 164.889 243.766 164.698C243.443 164.507 243.084 164.412 242.688 164.412C242.277 164.412 241.903 164.507 241.566 164.698C241.243 164.889 240.957 165.16 240.708 165.512C240.473 165.864 240.29 166.289 240.158 166.788C240.026 167.272 239.96 167.807 239.96 168.394C239.96 168.981 240.026 169.516 240.158 170C240.29 170.484 240.473 170.902 240.708 171.254C240.957 171.606 241.243 171.877 241.566 172.068C241.903 172.259 242.277 172.354 242.688 172.354C243.084 172.354 243.443 172.259 243.766 172.068C244.103 171.877 244.389 171.606 244.624 171.254C244.873 170.902 245.064 170.484 245.196 170C245.328 169.516 245.394 168.981 245.394 168.394ZM253.848 165.666C253.334 165.666 252.858 165.578 252.418 165.402C251.978 165.226 251.596 164.991 251.274 164.698C250.951 164.39 250.694 164.038 250.504 163.642C250.313 163.231 250.218 162.791 250.218 162.322C250.218 161.867 250.313 161.435 250.504 161.024C250.694 160.613 250.951 160.261 251.274 159.968C251.596 159.675 251.978 159.44 252.418 159.264C252.858 159.088 253.334 159 253.848 159C254.346 159 254.816 159.088 255.256 159.264C255.71 159.44 256.099 159.675 256.422 159.968C256.744 160.261 257.001 160.613 257.192 161.024C257.382 161.435 257.478 161.867 257.478 162.322C257.478 162.791 257.382 163.231 257.192 163.642C257.001 164.038 256.744 164.39 256.422 164.698C256.099 164.991 255.71 165.226 255.256 165.402C254.816 165.578 254.346 165.666 253.848 165.666ZM253.848 164.192C254.068 164.192 254.266 164.141 254.442 164.038C254.632 163.935 254.801 163.803 254.948 163.642C255.094 163.466 255.204 163.268 255.278 163.048C255.366 162.813 255.41 162.571 255.41 162.322C255.41 161.809 255.256 161.376 254.948 161.024C254.64 160.657 254.273 160.474 253.848 160.474C253.628 160.474 253.422 160.525 253.232 160.628C253.056 160.731 252.894 160.87 252.748 161.046C252.601 161.207 252.484 161.398 252.396 161.618C252.322 161.838 252.286 162.073 252.286 162.322C252.286 162.835 252.44 163.275 252.748 163.642C253.056 164.009 253.422 164.192 253.848 164.192ZM262.34 175.06C261.826 175.06 261.35 174.972 260.91 174.796C260.47 174.62 260.088 174.385 259.766 174.092C259.443 173.799 259.186 173.454 258.996 173.058C258.805 172.647 258.71 172.207 258.71 171.738C258.71 171.269 258.805 170.836 258.996 170.44C259.186 170.029 259.443 169.677 259.766 169.384C260.088 169.076 260.47 168.834 260.91 168.658C261.35 168.482 261.826 168.394 262.34 168.394C262.853 168.394 263.33 168.482 263.77 168.658C264.21 168.834 264.591 169.076 264.914 169.384C265.251 169.677 265.508 170.029 265.684 170.44C265.874 170.836 265.97 171.269 265.97 171.738C265.97 172.207 265.874 172.647 265.684 173.058C265.508 173.454 265.251 173.799 264.914 174.092C264.591 174.385 264.21 174.62 263.77 174.796C263.33 174.972 262.853 175.06 262.34 175.06ZM262.34 173.586C262.56 173.586 262.758 173.535 262.934 173.432C263.124 173.329 263.293 173.197 263.44 173.036C263.586 172.86 263.696 172.662 263.77 172.442C263.858 172.222 263.902 171.987 263.902 171.738C263.902 171.474 263.858 171.232 263.77 171.012C263.682 170.777 263.564 170.579 263.418 170.418C263.286 170.242 263.124 170.11 262.934 170.022C262.743 169.919 262.545 169.868 262.34 169.868C262.12 169.868 261.914 169.919 261.724 170.022C261.548 170.125 261.386 170.264 261.24 170.44C261.093 170.601 260.976 170.799 260.888 171.034C260.814 171.254 260.778 171.489 260.778 171.738C260.778 172.251 260.932 172.691 261.24 173.058C261.548 173.41 261.914 173.586 262.34 173.586ZM251.45 173.806L257.654 166.568L263.374 159.044L264.716 160.232L258.71 167.338L252.792 174.994L251.45 173.806Z" fill="white"/>
<path fill-rule="evenodd" clip-rule="evenodd" d="M188.683 162.84H84.8073V162.854C81.5831 163 79.0015 166.459 79.0015 170.715C79.0015 174.971 81.5831 178.429 84.8073 178.576V178.59H188.683C192.006 178.59 194.7 175.064 194.7 170.715C194.7 166.366 192.006 162.84 188.683 162.84Z" fill="#03E59F"/>
</g>
<defs>
<filter id="filter0_d_304_1925" x="-2" y="12.7483" width="367.777" height="227.967" filterUnits="userSpaceOnUse" color-interpolation-filters="sRGB">
<feFlood flood-opacity="0" result="BackgroundImageFix"/>
<feColorMatrix in="SourceAlpha" type="matrix" values="0 0 0 0 0 0 0 0 0 0 0 0 0 0 0 0 0 0 127 0" result="hardAlpha"/>
<feOffset dy="2"/>
<feGaussianBlur stdDeviation="1.5"/>
<feColorMatrix type="matrix" values="0 0 0 0 0 0 0 0 0 0 0 0 0 0 0 0 0 0 0.15 0"/>
<feBlend mode="normal" in2="BackgroundImageFix" result="effect1_dropShadow_304_1925"/>
<feBlend mode="normal" in="SourceGraphic" in2="effect1_dropShadow_304_1925" result="shape"/>
</filter>
<filter id="filter1_d_304_1925" x="61" y="37" width="232" height="178.754" filterUnits="userSpaceOnUse" color-interpolation-filters="sRGB">
<feFlood flood-opacity="0" result="BackgroundImageFix"/>
<feColorMatrix in="SourceAlpha" type="matrix" values="0 0 0 0 0 0 0 0 0 0 0 0 0 0 0 0 0 0 127 0" result="hardAlpha"/>
<feOffset dy="2"/>
<feGaussianBlur stdDeviation="1.5"/>
<feColorMatrix type="matrix" values="0 0 0 0 0 0 0 0 0 0 0 0 0 0 0 0 0 0 0.15 0"/>
<feBlend mode="normal" in2="BackgroundImageFix" result="effect1_dropShadow_304_1925"/>
<feBlend mode="normal" in="SourceGraphic" in2="effect1_dropShadow_304_1925" result="shape"/>
</filter>
<clipPath id="clip0_304_1925">
<rect width="366" height="241" fill="white"/>
</clipPath>
<clipPath id="clip1_304_1925">
<rect width="260" height="167" fill="white" transform="translate(51 27)"/>
</clipPath>
</defs>
</svg>
