<?xml version="1.0" encoding="UTF-8"?>
<svg width="478px" height="380px" viewBox="0 0 478 380" version="1.1" xmlns="http://www.w3.org/2000/svg" xmlns:xlink="http://www.w3.org/1999/xlink">
    <!-- Generator: Sketch 54.1 (76490) - https://sketchapp.com -->
    <title>images/Products_Header</title>
    <desc>Created with Sketch.</desc>
    <defs>
        <path d="M0.709081325,6.7888723 C0.709081325,10.2702158 90.2599337,13.0916403 200.726166,13.0916403 L200.726166,13.0916403 C311.192398,13.0916403 400.74253,10.2702158 400.74253,6.7888723 L400.74253,6.7888723 C400.74253,3.30825 311.192398,0.48682554 200.726166,0.48682554 L200.726166,0.48682554 C90.2599337,0.48682554 0.709081325,3.30825 0.709081325,6.7888723" id="path-1"></path>
        <polygon id="path-3" points="0 400.278777 477.901377 400.278777 477.901377 0.535147482 0 0.535147482"></polygon>
    </defs>
    <g id="Products" stroke="none" stroke-width="1" fill="none" fill-rule="evenodd">
        <g id="Products_" transform="translate(-832.000000, -101.000000)">
            <g id="Header">
                <g id="images/Products_Header" transform="translate(832.000000, 101.000000)">
                    <g id="Group-114">
                        <g id="Group-3" transform="translate(47.512048, 336.997227)">
                            <mask id="mask-2" fill="white">
                                <use xlink:href="#path-1"></use>
                            </mask>
                            <g id="Clip-2"></g>
                            <path d="M200.726166,13.0916403 C311.192398,13.0916403 400.74253,10.2702158 400.74253,6.7888723 C400.74253,3.30825 311.192398,0.48682554 200.726166,0.48682554 C90.2599337,0.48682554 0.709081325,3.30825 0.709081325,6.7888723 C0.709081325,10.2702158 90.2599337,13.0916403 200.726166,13.0916403 Z" id="Fill-1" fill="#E3E3E3" mask="url(#mask-2)"></path>
                        </g>
                        <g id="Group-113" transform="translate(0.000000, 0.186076)">
                            <path d="M153.968551,22.2490811 L132.421837,22.2490811 C125.89541,22.2490811 120.605735,27.5493491 120.605735,34.0872358 L120.605735,49.4074552 C120.605735,54.5916063 123.937337,58.9867394 128.568322,60.5885757 L128.946259,68.7989786 L139.561602,61.2456099 L153.968551,61.2456099 C160.494259,61.2456099 165.784654,55.9453419 165.784654,49.4074552 L165.784654,34.0872358 C165.784654,27.5493491 160.494259,22.2490811 153.968551,22.2490811" id="Fill-4" fill="#31C5FF"></path>
                            <path d="M179.998099,0.535435971 L151.571496,0.535435971 C142.961737,0.535435971 135.982505,7.52769317 135.982505,16.1535205 L135.982505,36.3650745 C135.982505,44.9909018 142.961737,51.983159 151.571496,51.983159 L170.578475,51.983159 L184.583731,61.9482975 L185.081888,51.1169701 C191.191505,49.0030655 195.58709,43.2044324 195.58709,36.3650745 L195.58709,16.1535205 C195.58709,7.52769317 188.607858,0.535435971 179.998099,0.535435971" id="Fill-6" fill="#FFFFFF"></path>
                            <polygon id="Fill-8" fill="#043299" points="144.826657 24.7908153 156.293618 18.8731804 156.293618 20.5817577 146.629955 25.4348674 146.629955 25.4839106 156.293618 30.3370203 156.293618 32.0455977 144.826657 26.1279628"></polygon>
                            <polygon id="Fill-10" fill="#043299" points="163.14284 33.035909 170.037846 15.084668 171.718764 15.084668 164.799283 33.035909"></polygon>
                            <polygon id="Fill-12" fill="#043299" points="189.984699 26.1527728 178.517739 32.0458862 178.517739 30.3373088 188.254109 25.4841991 188.254109 25.4344347 178.517739 20.5820462 178.517739 18.8734689 189.984699 24.7665822"></polygon>
                            <path d="M404.805818,87.193339 L404.805818,278.238826 C404.805818,282.082945 401.696658,285.187089 397.859701,285.187089 L108.726571,285.187089 C104.900411,285.187089 101.791252,282.082945 101.791252,278.238826 L101.791252,87.193339 C101.791252,87.0627977 101.791252,86.9322563 101.80205,86.8009937 C102.063366,81.6716556 106.16092,77.5549146 111.281423,77.2938318 C111.411722,77.2830135 111.54202,77.2830135 111.672318,77.2830135 L394.913234,77.2830135 C395.043532,77.2830135 395.17455,77.2830135 395.304848,77.2938318 C400.43543,77.5549146 404.533704,81.6608372 404.79502,86.8009937 C404.805818,86.9322563 404.805818,87.0627977 404.805818,87.193339" id="Fill-14" fill="#01013D"></path>
                            <path d="M263.199398,270.940194 C266.050121,266.965534 265.144512,261.428704 261.177256,258.572661 C257.21,255.716618 251.682765,256.623196 248.832762,260.597856 C245.982039,264.572516 246.887648,270.110066 250.854904,272.966109 C254.82216,275.822152 260.349395,274.914854 263.199398,270.940194" id="Fill-16" fill="#043299"></path>
                            <path d="M198.931506,343.60024 L199.821277,342.229195 C202.944834,337.415031 208.28634,334.510666 214.016581,334.510666 L298.685211,334.510666 C304.632136,334.510666 310.142813,337.637168 313.202301,342.74559 L313.714136,343.60024 L198.931506,343.60024 Z" id="Fill-18" fill="#01013D"></path>
                            <path d="M101.788228,87.1908869 L101.788228,246.346056 L404.800635,246.346056 L404.800635,87.1908869 C404.800635,81.7218527 400.374816,77.2877736 394.915969,77.2877736 L111.672894,77.2877736 C106.213328,77.2877736 101.788228,81.7218527 101.788228,87.1908869" id="Fill-20" fill="#01013D"></path>
                            <path d="M111.767774,92.9210038 L111.767774,232.075937 C111.767774,235.063243 114.18441,237.484389 117.165431,237.484389 L391.464723,237.484389 C394.445744,237.484389 396.86238,235.063243 396.86238,232.075937 L396.86238,92.9210038 C396.86238,89.9344192 394.445744,87.5132736 391.464723,87.5132736 L117.165431,87.5132736 C114.18441,87.5132736 111.767774,89.9344192 111.767774,92.9210038" id="Fill-22" fill="#3052E4"></path>
                            <polygon id="Fill-24" fill="#01013D" points="280.630848 334.511027 231.401888 334.511027 238.096767 285.192354 273.935249 285.192354"></polygon>
                            <path d="M396.862523,110.6121 L111.767918,110.6121 L111.767918,90.7337507 C111.767918,88.9552147 113.206957,87.5127687 114.98218,87.5127687 L393.647542,87.5127687 C395.422764,87.5127687 396.862523,88.9552147 396.862523,90.7337507 L396.862523,110.6121 Z" id="Fill-26" fill="#3462F4"></path>
                            <path d="M357.8087,99.0627227 C357.8087,97.2416345 356.335106,95.765291 354.517411,95.765291 C352.699715,95.765291 351.226121,97.2416345 351.226121,99.0627227 C351.226121,100.883811 352.699715,102.360154 354.517411,102.360154 C356.335106,102.360154 357.8087,100.883811 357.8087,99.0627227" id="Fill-28" fill="#FC3E54"></path>
                            <path d="M370.272334,99.0627227 C370.272334,97.2416345 368.79874,95.765291 366.981045,95.765291 C365.163349,95.765291 363.689755,97.2416345 363.689755,99.0627227 C363.689755,100.883811 365.163349,102.360154 366.981045,102.360154 C368.79874,102.360154 370.272334,100.883811 370.272334,99.0627227" id="Fill-30" fill="#03E59F"></path>
                            <path d="M382.736328,99.0627227 C382.736328,97.2416345 381.262734,95.765291 379.445039,95.765291 C377.627343,95.765291 376.153749,97.2416345 376.153749,99.0627227 C376.153749,100.883811 377.627343,102.360154 379.445039,102.360154 C381.262734,102.360154 382.736328,100.883811 382.736328,99.0627227" id="Fill-32" fill="#FFD22E"></path>
                            <mask id="mask-4" fill="white">
                                <use xlink:href="#path-3"></use>
                            </mask>
                            <g id="Clip-35"></g>
                            <polygon id="Fill-34" fill="#FC3E54" mask="url(#mask-4)" points="131.355696 133.170225 147.192325 133.170225 147.192325 127.361495 131.355696 127.361495"></polygon>
                            <polygon id="Fill-36" fill="#FFD22E" mask="url(#mask-4)" points="155.942461 133.170225 184.514479 133.170225 184.514479 127.361495 155.942461 127.361495"></polygon>
                            <polygon id="Fill-37" fill="#FFFFFF" mask="url(#mask-4)" points="142.233795 145.513236 201.579223 145.513236 201.579223 139.704505 142.233795 139.704505"></polygon>
                            <polygon id="Fill-38" fill="#8DABFF" mask="url(#mask-4)" points="210.329358 145.513236 226.165988 145.513236 226.165988 139.704505 210.329358 139.704505"></polygon>
                            <polygon id="Fill-39" fill="#FFFFFF" mask="url(#mask-4)" points="142.233795 157.855525 201.579223 157.855525 201.579223 152.046795 142.233795 152.046795"></polygon>
                            <polygon id="Fill-40" fill="#8DABFF" mask="url(#mask-4)" points="210.329358 157.855525 226.165988 157.855525 226.165988 152.046795 210.329358 152.046795"></polygon>
                            <polygon id="Fill-41" fill="#FFFFFF" mask="url(#mask-4)" points="142.233795 170.198536 201.579223 170.198536 201.579223 164.389806 142.233795 164.389806"></polygon>
                            <polygon id="Fill-42" fill="#8DABFF" mask="url(#mask-4)" points="210.329358 170.198536 226.165988 170.198536 226.165988 164.389806 210.329358 164.389806"></polygon>
                            <polygon id="Fill-43" fill="#FC3E54" mask="url(#mask-4)" points="131.355696 182.541547 147.192325 182.541547 147.192325 176.732817 131.355696 176.732817"></polygon>
                            <polygon id="Fill-44" fill="#FFD22E" mask="url(#mask-4)" points="155.942461 182.541547 184.514479 182.541547 184.514479 176.732817 155.942461 176.732817"></polygon>
                            <polygon id="Fill-45" fill="#31C5FF" mask="url(#mask-4)" points="142.233795 194.884558 171.906509 194.884558 171.906509 189.075827 142.233795 189.075827"></polygon>
                            <polygon id="Fill-46" fill="#FFFFFF" mask="url(#mask-4)" points="180.656645 194.884558 226.165988 194.884558 226.165988 189.075827 180.656645 189.075827"></polygon>
                            <polygon id="Fill-47" fill="#31C5FF" mask="url(#mask-4)" points="142.233795 207.226847 171.906509 207.226847 171.906509 201.418117 142.233795 201.418117"></polygon>
                            <polygon id="Fill-48" fill="#FFFFFF" mask="url(#mask-4)" points="180.656645 207.226847 226.165988 207.226847 226.165988 201.418117 180.656645 201.418117"></polygon>
                            <polygon id="Fill-49" fill="#31C5FF" mask="url(#mask-4)" points="142.233795 219.569858 171.906509 219.569858 171.906509 213.761849 142.233795 213.761849"></polygon>
                            <polygon id="Fill-50" fill="#FFFFFF" mask="url(#mask-4)" points="180.656645 219.569858 226.165988 219.569858 226.165988 213.761849 180.656645 213.761849"></polygon>
                            <polygon id="Fill-51" fill="#FFD22E" mask="url(#mask-4)" points="280.423307 133.170225 296.259937 133.170225 296.259937 127.361495 280.423307 127.361495"></polygon>
                            <polygon id="Fill-52" fill="#03E59F" mask="url(#mask-4)" points="305.009352 133.170225 333.58137 133.170225 333.58137 127.361495 305.009352 127.361495"></polygon>
                            <polygon id="Fill-53" fill="#FFFFFF" mask="url(#mask-4)" points="291.300687 145.513236 305.009352 145.513236 305.009352 139.704505 291.300687 139.704505"></polygon>
                            <polygon id="Fill-54" fill="#31C5FF" mask="url(#mask-4)" points="313.759488 145.513236 375.23288 145.513236 375.23288 139.704505 313.759488 139.704505"></polygon>
                            <polygon id="Fill-55" fill="#FFFFFF" mask="url(#mask-4)" points="291.300687 157.855525 305.009352 157.855525 305.009352 152.046795 291.300687 152.046795"></polygon>
                            <polygon id="Fill-56" fill="#FC3E54" mask="url(#mask-4)" points="313.759488 157.855525 375.23288 157.855525 375.23288 152.046795 313.759488 152.046795"></polygon>
                            <polygon id="Fill-57" fill="#FFFFFF" mask="url(#mask-4)" points="291.300687 170.198536 305.009352 170.198536 305.009352 164.389806 291.300687 164.389806"></polygon>
                            <polygon id="Fill-58" fill="#31C5FF" mask="url(#mask-4)" points="313.759488 170.198536 375.23288 170.198536 375.23288 164.389806 313.759488 164.389806"></polygon>
                            <polygon id="Fill-59" fill="#FFD22E" mask="url(#mask-4)" points="280.423307 182.541547 296.259937 182.541547 296.259937 176.732817 280.423307 176.732817"></polygon>
                            <polygon id="Fill-60" fill="#03E59F" mask="url(#mask-4)" points="305.009352 182.541547 333.58137 182.541547 333.58137 176.732817 305.009352 176.732817"></polygon>
                            <polygon id="Fill-61" fill="#31C5FF" mask="url(#mask-4)" points="291.300687 194.884558 340.121476 194.884558 340.121476 189.075827 291.300687 189.075827"></polygon>
                            <polygon id="Fill-62" fill="#FFFFFF" mask="url(#mask-4)" points="348.870892 194.884558 375.23288 194.884558 375.23288 189.075827 348.870892 189.075827"></polygon>
                            <polygon id="Fill-63" fill="#03E59F" mask="url(#mask-4)" points="291.300687 207.226847 340.121476 207.226847 340.121476 201.418117 291.300687 201.418117"></polygon>
                            <polygon id="Fill-64" fill="#FFFFFF" mask="url(#mask-4)" points="348.870892 207.226847 375.23288 207.226847 375.23288 201.418117 348.870892 201.418117"></polygon>
                            <polygon id="Fill-65" fill="#31C5FF" mask="url(#mask-4)" points="291.300687 219.569858 340.121476 219.569858 340.121476 213.761849 291.300687 213.761849"></polygon>
                            <polygon id="Fill-66" fill="#FFFFFF" mask="url(#mask-4)" points="348.870892 219.569858 375.23288 219.569858 375.23288 213.761849 348.870892 213.761849"></polygon>
                            <g id="Group-69" mask="url(#mask-4)">
                                <g transform="translate(252.677711, 124.050360)">
                                    <path d="M0.616648795,0.0439946043 L0.616648795,104.907658" id="Fill-67" stroke="none" fill="#181548" fill-rule="evenodd"></path>
                                    <path d="M0.616648795,0.0439946043 L0.616648795,104.907658" id="Stroke-68" stroke="#202D45" stroke-width="0.72" fill="none"></path>
                                </g>
                            </g>
                            <path d="M61.1635554,246.470034 L2.65678735,246.470034 C1.18895301,246.470034 0.000431927711,245.278574 0.000431927711,243.808721 L0.000431927711,173.453415 C0.000431927711,171.983563 1.18895301,170.792103 2.65678735,170.792103 L61.1635554,170.792103 C62.6306699,170.792103 63.8199108,171.983563 63.8199108,173.453415 L63.8199108,243.808721 C63.8199108,245.278574 62.6306699,246.470034 61.1635554,246.470034" id="Fill-70" fill="#043299" mask="url(#mask-4)"></path>
                            <polygon id="Fill-71" fill="#FC3E54" mask="url(#mask-4)" points="13.9728614 183.11564 19.9651386 183.11564 19.9651386 180.641124 13.9728614 180.641124"></polygon>
                            <polygon id="Fill-72" fill="#FFD22E" mask="url(#mask-4)" points="23.2751446 183.11564 34.0870151 183.11564 34.0870151 180.641124 23.2751446 180.641124"></polygon>
                            <polygon id="Fill-73" fill="#FFFFFF" mask="url(#mask-4)" points="18.0884127 188.374077 40.5436145 188.374077 40.5436145 185.899561 18.0884127 185.899561"></polygon>
                            <polygon id="Fill-74" fill="#31C5FF" mask="url(#mask-4)" points="43.8550602 188.374077 49.8473373 188.374077 49.8473373 186.769356 43.8550602 186.769356"></polygon>
                            <polygon id="Fill-75" fill="#FFFFFF" mask="url(#mask-4)" points="18.0884127 193.631793 40.5436145 193.631793 40.5436145 191.157277 18.0884127 191.157277"></polygon>
                            <polygon id="Fill-76" fill="#31C5FF" mask="url(#mask-4)" points="43.8550602 193.631793 49.8473373 193.631793 49.8473373 192.027072 43.8550602 192.027072"></polygon>
                            <polygon id="Fill-77" fill="#FFFFFF" mask="url(#mask-4)" points="18.0884127 198.89023 40.5436145 198.89023 40.5436145 196.415714 18.0884127 196.415714"></polygon>
                            <polygon id="Fill-78" fill="#31C5FF" mask="url(#mask-4)" points="43.8550602 198.89023 49.8473373 198.89023 49.8473373 196.415714 43.8550602 196.415714"></polygon>
                            <polygon id="Fill-79" fill="#FC3E54" mask="url(#mask-4)" points="13.9728614 204.148667 19.9651386 204.148667 19.9651386 201.674151 13.9728614 201.674151"></polygon>
                            <polygon id="Fill-80" fill="#FFD22E" mask="url(#mask-4)" points="23.2751446 204.148667 34.0870151 204.148667 34.0870151 201.674151 23.2751446 201.674151"></polygon>
                            <polygon id="Fill-81" fill="#31C5FF" mask="url(#mask-4)" points="18.0884127 209.406383 29.3163735 209.406383 29.3163735 206.931867 18.0884127 206.931867"></polygon>
                            <polygon id="Fill-82" fill="#FFFFFF" mask="url(#mask-4)" points="32.6270994 209.406383 49.8473373 209.406383 49.8473373 206.931867 32.6270994 206.931867"></polygon>
                            <polygon id="Fill-83" fill="#31C5FF" mask="url(#mask-4)" points="18.0884127 214.66482 29.3163735 214.66482 29.3163735 212.190304 18.0884127 212.190304"></polygon>
                            <polygon id="Fill-84" fill="#FFFFFF" mask="url(#mask-4)" points="32.6270994 214.66482 49.8473373 214.66482 49.8473373 212.190304 32.6270994 212.190304"></polygon>
                            <polygon id="Fill-85" fill="#31C5FF" mask="url(#mask-4)" points="18.0884127 219.923257 29.3163735 219.923257 29.3163735 217.448741 18.0884127 217.448741"></polygon>
                            <polygon id="Fill-86" fill="#FFFFFF" mask="url(#mask-4)" points="32.6270994 219.923257 49.8473373 219.923257 49.8473373 217.448741 32.6270994 217.448741"></polygon>
                            <polygon id="Fill-87" fill="#FFFFFF" mask="url(#mask-4)" points="18.0884127 227.580482 40.5436145 227.580482 40.5436145 225.105966 18.0884127 225.105966"></polygon>
                            <polygon id="Fill-88" fill="#31C5FF" mask="url(#mask-4)" points="43.8550602 227.580482 49.8473373 227.580482 49.8473373 225.975761 43.8550602 225.975761"></polygon>
                            <polygon id="Fill-89" fill="#FFFFFF" mask="url(#mask-4)" points="18.0884127 232.838919 40.5436145 232.838919 40.5436145 230.364403 18.0884127 230.364403"></polygon>
                            <polygon id="Fill-90" fill="#31C5FF" mask="url(#mask-4)" points="43.8550602 232.838919 49.8473373 232.838919 49.8473373 231.234919 43.8550602 231.234919"></polygon>
                            <polygon id="Fill-91" fill="#FFFFFF" mask="url(#mask-4)" points="18.0884127 238.096635 40.5436145 238.096635 40.5436145 235.622119 18.0884127 235.622119"></polygon>
                            <polygon id="Fill-92" fill="#31C5FF" mask="url(#mask-4)" points="43.8550602 238.096635 49.8473373 238.096635 49.8473373 235.622119 43.8550602 235.622119"></polygon>
                            <path d="M370.933773,363.321573 C338.068394,363.321573 344.999394,366.487021 341.576367,379.278633 L409.706484,379.278633 C411.231909,379.278633 412.267095,377.593135 411.452192,376.302145 C407.096921,369.400041 388.503873,363.321573 370.933773,363.321573" id="Fill-93" fill="#6E98FF" mask="url(#mask-4)"></path>
                            <path d="M352.019731,364.743176 C341.530366,364.743176 337.515598,370.119172 336.870586,377.125854 C336.764044,378.28486 337.705646,379.278705 338.867532,379.278705 L378.568887,379.278705 C378.568887,371.250771 363.560839,364.743176 352.019731,364.743176" id="Fill-94" fill="#3462F4" mask="url(#mask-4)"></path>
                            <path d="M368.351637,363.555394 C366.088336,362.782964 363.777523,362.314169 361.396161,362.111505 C360.383291,362.02568 360.39193,363.608764 361.398321,363.69459 C363.637866,363.884993 365.807583,364.356673 367.934107,365.082223 C368.898746,365.411101 369.310517,363.882108 368.351637,363.555394" id="Fill-95" fill="#C0D7FF" mask="url(#mask-4)"></path>
                            <path d="M448.282582,184.314241 C440.501404,184.314241 434.1931,177.994163 434.1931,170.198464 C434.1931,162.402764 440.501404,156.082687 448.282582,156.082687 C456.064479,156.082687 462.372064,162.402764 462.372064,170.198464 C462.372064,177.994163 456.064479,184.314241 448.282582,184.314241 L448.282582,184.314241 Z M471.737696,174.980172 L471.737696,165.417476 L465.946985,164.433728 C465.646076,163.50912 465.276058,162.616246 464.84197,161.761597 L468.242681,156.9633 L461.493811,150.201113 L456.703732,153.608171 C455.850675,153.172552 454.959464,152.802565 454.037298,152.501815 L453.054663,146.699575 L448.282582,146.699575 L443.5105,146.699575 L442.527865,152.501815 C441.605699,152.802565 440.714488,153.172552 439.861431,153.608171 L435.071353,150.201113 L428.322482,156.9633 L431.723193,161.761597 C431.289106,162.616246 430.919088,163.50912 430.618178,164.433728 L424.827467,165.417476 L424.827467,174.980172 L430.618178,175.963921 C430.919088,176.888529 431.289106,177.780681 431.723193,178.635331 L428.322482,183.434349 L435.071353,190.195815 L439.861431,186.788757 C440.714488,187.224376 441.605699,187.594363 442.527865,187.895834 L443.5105,193.697352 L448.282582,193.697352 L453.054663,193.697352 L454.037298,187.895834 C454.959464,187.594363 455.850675,187.224376 456.703732,186.788757 L461.493811,190.195815 L468.242681,183.434349 L464.84197,178.635331 C465.276058,177.780681 465.646076,176.888529 465.946985,175.963921 L471.737696,174.980172 Z" id="Fill-96" fill="#FFFFFF" mask="url(#mask-4)"></path>
                            <path d="M465.95584,145.469602 C461.992903,145.469602 458.780081,142.250783 458.780081,138.280451 C458.780081,134.310118 461.992903,131.091299 465.95584,131.091299 C469.918777,131.091299 473.131599,134.310118 473.131599,138.280451 C473.131599,142.250783 469.918777,145.469602 465.95584,145.469602 L465.95584,145.469602 Z M477.900801,140.716021 L477.900801,135.845602 L474.952174,135.344352 C474.79884,134.873393 474.610231,134.419022 474.389228,133.984125 L476.121258,131.5399 L472.683834,128.09606 L470.244882,129.831323 C469.810075,129.609907 469.356551,129.420947 468.886469,129.268048 L468.386153,126.313197 L465.95584,126.313197 L463.525527,126.313197 L463.02521,129.268048 C462.555129,129.420947 462.101605,129.609907 461.666798,129.831323 L459.227846,128.09606 L455.790421,131.5399 L457.522451,133.984125 C457.301448,134.419022 457.11284,134.873393 456.959505,135.344352 L454.010159,135.845602 L454.010159,140.716021 L456.959505,141.216549 C457.11284,141.687508 457.301448,142.141879 457.522451,142.577497 L455.790421,145.021001 L459.227846,148.464841 L461.666798,146.729578 C462.101605,146.951715 462.555129,147.139954 463.02521,147.293575 L463.525527,150.248425 L465.95584,150.248425 L468.386153,150.248425 L468.886469,147.293575 C469.356551,147.139954 469.810075,146.951715 470.244882,146.729578 L472.683834,148.464841 L476.121258,145.021001 L474.389228,142.577497 C474.610231,142.141879 474.79884,141.687508 474.952174,141.216549 L477.900801,140.716021 Z" id="Fill-97" fill="#FFD22E" mask="url(#mask-4)"></path>
                            <path d="M443.846972,160.334585 L449.212234,165.70986 C450.641195,167.141488 450.641195,169.462384 449.212234,170.894733 C447.782553,172.32636 445.465981,172.32636 444.0363,170.894733 L438.588252,165.435796 C436.588427,169.504936 437.268713,174.560709 440.647108,177.945409 C443.720993,181.02431 448.172728,181.862371 452.009686,180.483393 L466.235225,194.735481 C468.027005,196.531326 470.970592,196.713074 472.815644,194.972763 C474.724764,193.171148 474.758598,190.160042 472.917867,188.315153 L458.55483,173.926033 C459.93124,170.082635 459.09474,165.621871 456.021574,162.54297 C452.728126,159.243375 447.852382,158.515661 443.846972,160.334585" id="Fill-98" fill="#6582FF" mask="url(#mask-4)"></path>
                            <path d="M468.088771,190.262888 L468.088771,190.262888 C467.458876,190.893958 466.435927,190.893958 465.806033,190.262888 L456.654924,181.095422 C456.02503,180.463631 456.02503,179.439494 456.654924,178.807703 C457.285539,178.175912 458.307768,178.175912 458.938382,178.807703 L468.088771,187.975169 C468.719385,188.60696 468.719385,189.631097 468.088771,190.262888" id="Fill-99" fill="#A9C4FF" mask="url(#mask-4)"></path>
                            <path d="M367.965048,269.46111 L364.834292,252.253449 L389.629822,252.253449 L392.760578,269.46111 L367.965048,269.46111 Z M396.119536,246.35096 L394.499807,237.485687 L392.716665,227.695084 L385.151452,227.695084 L386.933873,237.485687 L388.249093,244.673396 L363.442765,244.673396 L362.138343,237.485687 L360.355921,227.695084 L352.779189,227.695084 L354.561611,237.485687 L355.876831,244.673396 L356.18134,246.35096 L357.25756,252.253449 L360.388316,269.46111 L361.779843,277.041163 L363.257756,285.187378 L370.823689,285.187378 L369.345057,277.041163 L394.141307,277.041163 L395.630018,285.187378 L403.195952,285.187378 L396.119536,246.35096 Z" id="Fill-100" fill="#16168B" mask="url(#mask-4)"></path>
                            <polygon id="Fill-101" fill="#6BC5FC" mask="url(#mask-4)" points="412.094238 343.60024 419.665931 343.60024 398.543226 227.689603 390.971533 227.689603"></polygon>
                            <polygon id="Fill-102" fill="#6BC5FC" mask="url(#mask-4)" points="379.72536 343.60024 387.297052 343.60024 366.174348 227.689603 358.602655 227.689603"></polygon>
                            <polygon id="Fill-103" fill="#6BC5FC" mask="url(#mask-4)" points="416.437055 326.620558 415.054887 319.034735 375.248429 319.034735 376.631317 326.620558"></polygon>
                            <polygon id="Fill-104" fill="#6BC5FC" mask="url(#mask-4)" points="411.919523 301.831979 410.537355 294.246155 370.731617 294.246155 372.113786 301.831979"></polygon>
                            <polygon id="Fill-105" fill="#6BC5FC" mask="url(#mask-4)" points="407.402352 277.043471 406.020183 269.457648 366.214445 269.457648 367.596614 277.043471"></polygon>
                            <polygon id="Fill-106" fill="#6BC5FC" mask="url(#mask-4)" points="402.88518 252.254964 401.503011 244.66914 361.696553 244.66914 363.079442 252.254964"></polygon>
                            <path d="M123.389149,219.570363 L123.389149,204.064068 L121.215113,204.064068 L121.215113,219.570363 C121.215113,223.917895 117.684824,227.454773 113.34539,227.454773 L68.0037786,227.454773 L68.0037786,229.633588 L113.34539,229.633588 C118.883423,229.633588 123.389149,225.118731 123.389149,219.570363" id="Fill-107" fill="#03E59F" mask="url(#mask-4)"></path>
                            <path d="M63.836684,231.630005 C65.5348798,231.630005 66.9170485,230.245978 66.9170485,228.543892 C66.9170485,226.842527 65.5348798,225.457778 63.836684,225.457778 C62.1384883,225.457778 60.7563196,226.842527 60.7563196,228.543892 C60.7563196,230.245978 62.1384883,231.630005 63.836684,231.630005 M63.836684,233.808099 C60.9398889,233.808099 58.5822834,231.446814 58.5822834,228.543892 C58.5822834,225.64169 60.9398889,223.279685 63.836684,223.279685 C66.7334792,223.279685 69.0910846,225.64169 69.0910846,228.543892 C69.0910846,231.446814 66.7334792,233.808099 63.836684,233.808099" id="Fill-108" fill="#03E59F" mask="url(#mask-4)"></path>
                            <path d="M122.302347,202.653644 C123.999823,202.653644 125.381992,201.269617 125.381992,199.567531 C125.381992,197.866166 123.999823,196.482139 122.302347,196.482139 C120.603431,196.482139 119.221983,197.866166 119.221983,199.567531 C119.221983,201.269617 120.603431,202.653644 122.302347,202.653644 M122.302347,204.831738 C119.405552,204.831738 117.047946,202.470453 117.047946,199.567531 C117.047946,196.665329 119.405552,194.304045 122.302347,194.304045 C125.199142,194.304045 127.556028,196.665329 127.556028,199.567531 C127.556028,202.470453 125.199142,204.831738 122.302347,204.831738" id="Fill-109" fill="#03E59F" mask="url(#mask-4)"></path>
                            <path d="M243.233971,94.7469962 L241.059935,94.7469962 L241.059935,33.4711671 C241.059935,29.1229135 237.529646,25.5860358 233.190212,25.5860358 L211.778836,25.5860358 L211.778836,23.4079423 L233.190212,23.4079423 C238.728245,23.4079423 243.233971,27.9220772 243.233971,33.4711671 L243.233971,94.7469962 Z" id="Fill-110" fill="#03E59F" mask="url(#mask-4)"></path>
                            <path d="M207.611525,21.4114527 C205.91333,21.4114527 204.531881,22.7954797 204.531881,24.497566 C204.531881,26.1989311 205.91333,27.5829581 207.611525,27.5829581 C209.309721,27.5829581 210.69189,26.1989311 210.69189,24.497566 C210.69189,22.7954797 209.309721,21.4114527 207.611525,21.4114527 M207.611525,29.7610516 C204.71473,29.7610516 202.357845,27.3997674 202.357845,24.497566 C202.357845,21.5946433 204.71473,19.2333592 207.611525,19.2333592 C210.50832,19.2333592 212.865926,21.5946433 212.865926,24.497566 C212.865926,27.3997674 210.50832,29.7610516 207.611525,29.7610516" id="Fill-111" fill="#03E59F" mask="url(#mask-4)"></path>
                            <path d="M242.147169,96.1577085 C240.448973,96.1577085 239.066805,97.5417354 239.066805,99.2438218 C239.066805,100.945187 240.448973,102.329214 242.147169,102.329214 C243.844645,102.329214 245.226814,100.945187 245.226814,99.2438218 C245.226814,97.5417354 243.844645,96.1577085 242.147169,96.1577085 M242.147169,104.507307 C239.250374,104.507307 236.892769,102.146023 236.892769,99.2438218 C236.892769,96.3408991 239.250374,93.9796149 242.147169,93.9796149 C245.043964,93.9796149 247.40085,96.3408991 247.40085,99.2438218 C247.40085,102.146023 245.043964,104.507307 242.147169,104.507307" id="Fill-112" fill="#03E59F" mask="url(#mask-4)"></path>
                        </g>
                    </g>
                </g>
            </g>
        </g>
    </g>
</svg>