<?xml version="1.0" encoding="UTF-8"?>
<svg width="541px" height="424px" viewBox="0 0 541 424" version="1.1" xmlns="http://www.w3.org/2000/svg" xmlns:xlink="http://www.w3.org/1999/xlink">
    <!-- Generator: Sketch 54.1 (76490) - https://sketchapp.com -->
    <title>images/UseCases</title>
    <desc>Created with Sketch.</desc>
    <defs>
        <linearGradient x1="100.086059%" y1="49.9949531%" x2="0.0860585198%" y2="49.9949531%" id="linearGradient-1">
            <stop stop-color="#D7D9D9" offset="0%"></stop>
            <stop stop-color="#C6C7C9" offset="100%"></stop>
        </linearGradient>
        <linearGradient x1="5118.58864%" y1="50.0050469%" x2="5218.6747%" y2="50.0050469%" id="linearGradient-2">
            <stop stop-color="#D7D9D9" offset="0%"></stop>
            <stop stop-color="#C6C7C9" offset="100%"></stop>
        </linearGradient>
        <linearGradient x1="6332.87435%" y1="50.0050469%" x2="6432.87435%" y2="50.0050469%" id="linearGradient-3">
            <stop stop-color="#D7D9D9" offset="0%"></stop>
            <stop stop-color="#C6C7C9" offset="100%"></stop>
        </linearGradient>
        <linearGradient x1="-16.445761%" y1="73.4261986%" x2="128.42393%" y2="22.3822006%" id="linearGradient-4">
            <stop stop-color="#BFC0C2" offset="0%"></stop>
            <stop stop-color="#D4D4D6" offset="100%"></stop>
        </linearGradient>
        <linearGradient x1="7.62614768%" y1="83.0871743%" x2="109.623578%" y2="3.4308716%" id="linearGradient-5">
            <stop stop-color="#C6C7C9" offset="0%"></stop>
            <stop stop-color="#D7D8D9" offset="42%"></stop>
            <stop stop-color="#E0E1E2" offset="77%"></stop>
        </linearGradient>
        <linearGradient x1="89.5783325%" y1="45.1462191%" x2="1.26022272%" y2="55.961239%" id="linearGradient-6">
            <stop stop-color="#8278B8" offset="0%"></stop>
            <stop stop-color="#865BA6" offset="100%"></stop>
        </linearGradient>
        <linearGradient x1="86.9155684%" y1="30.839487%" x2="33.6739189%" y2="58.4726001%" id="linearGradient-7">
            <stop stop-color="#D5DDF1" offset="0%"></stop>
            <stop stop-color="#FFFFFF" offset="100%"></stop>
        </linearGradient>
        <linearGradient x1="2765.90407%" y1="89.5649996%" x2="2590.48766%" y2="8.48197162%" id="linearGradient-8">
            <stop stop-color="#8278B8" offset="0%"></stop>
            <stop stop-color="#865BA6" offset="100%"></stop>
        </linearGradient>
        <linearGradient x1="234.782609%" y1="24.6259348%" x2="-199.516908%" y2="84.3450759%" id="linearGradient-9">
            <stop stop-color="#60A3D8" offset="0%"></stop>
            <stop stop-color="#5FA0D6" offset="4%"></stop>
            <stop stop-color="#4B72B8" offset="67%"></stop>
            <stop stop-color="#4460AC" offset="99%"></stop>
        </linearGradient>
        <linearGradient x1="32211.5942%" y1="21.057352%" x2="32645.8937%" y2="80.8154076%" id="linearGradient-10">
            <stop stop-color="#60A3D8" offset="0%"></stop>
            <stop stop-color="#5FA0D6" offset="4%"></stop>
            <stop stop-color="#4B72B8" offset="67%"></stop>
            <stop stop-color="#4460AC" offset="99%"></stop>
        </linearGradient>
        <linearGradient x1="32185.5072%" y1="17.3563241%" x2="32619.8068%" y2="77.0754653%" id="linearGradient-11">
            <stop stop-color="#60A3D8" offset="0%"></stop>
            <stop stop-color="#5FA0D6" offset="4%"></stop>
            <stop stop-color="#4B72B8" offset="67%"></stop>
            <stop stop-color="#4460AC" offset="99%"></stop>
        </linearGradient>
    </defs>
    <g id="Use-Cases" stroke="none" stroke-width="1" fill="none" fill-rule="evenodd">
        <g id="Use-Cases_" transform="translate(-800.000000, -106.000000)">
            <g id="Header">
                <g id="images/UseCases" transform="translate(800.000000, 106.000000)">
                    <g id="AllUseCases">
                        <g id="Group" opacity="0.35" transform="translate(372.000000, 51.000000)" fill="#FFFFFF" fill-rule="nonzero">
                            <path d="M25.36,43.36 L4.83,43.36 C3.5512949,43.4288182 2.33914326,42.7857634 1.67909366,41.6884224 C1.01904406,40.5910815 1.01904406,39.2189185 1.67909366,38.1215776 C2.33914326,37.0242366 3.5512949,36.3811818 4.83,36.45 L25.36,36.45 C26.6387051,36.3811818 27.8508567,37.0242366 28.5109063,38.1215776 C29.1709559,39.2189185 29.1709559,40.5910815 28.5109063,41.6884224 C27.8508567,42.7857634 26.6387051,43.4288182 25.36,43.36 L25.36,43.36 Z" id="Path"></path>
                            <path d="M25.35,7.61 L4.79,7.61 C3.5112949,7.67881822 2.29914326,7.0357634 1.63909366,5.93842244 C0.979044061,4.84108147 0.979044061,3.46891853 1.63909366,2.37157756 C2.29914326,1.2742366 3.5112949,0.631181779 4.79,0.7 L25.35,0.7 C27.1859957,0.798810864 28.6240565,2.3163473 28.6240565,4.155 C28.6240565,5.9936527 27.1859957,7.51118914 25.35,7.61 L25.35,7.61 Z" id="Path"></path>
                            <path d="M60.52,16.61 L1.75,16.61 C0.794547383,16.61 0.02,15.8354526 0.02,14.88 C0.02,13.9245474 0.794547383,13.15 1.75,13.15 L60.52,13.15 C61.4754526,13.15 62.25,13.9245474 62.25,14.88 C62.25,15.8354526 61.4754526,16.61 60.52,16.61 L60.52,16.61 Z" id="Path" opacity="0.45"></path>
                            <path d="M43.06,25 L1.75,25 C0.842769702,24.9310744 0.141814263,24.1748448 0.141814263,23.265 C0.141814263,22.3551552 0.842769702,21.5989256 1.75,21.53 L43.06,21.53 C43.9672303,21.5989256 44.6681857,22.3551552 44.6681857,23.265 C44.6681857,24.1748448 43.9672303,24.9310744 43.06,25 L43.06,25 Z" id="Path" opacity="0.45"></path>
                            <path d="M25.36,79.11 L4.83,79.11 C3.5512949,79.1788182 2.33914326,78.5357634 1.67909366,77.4384224 C1.01904406,76.3410815 1.01904406,74.9689185 1.67909366,73.8715776 C2.33914326,72.7742366 3.5512949,72.1311818 4.83,72.2 L25.36,72.2 C26.6387051,72.1311818 27.8508567,72.7742366 28.5109063,73.8715776 C29.1709559,74.9689185 29.1709559,76.3410815 28.5109063,77.4384224 C27.8508567,78.5357634 26.6387051,79.1788182 25.36,79.11 L25.36,79.11 Z" id="Path"></path>
                            <path d="M60.52,52.36 L1.75,52.36 C0.79454744,52.3599999 0.0200001458,51.5854526 0.0200001458,50.63 C0.0200001458,49.6745474 0.79454744,48.9000001 1.75,48.9 L60.5200001,48.9 C61.1380695,48.8999999 61.7091893,49.2297361 62.0182241,49.765 C62.3272588,50.3002638 62.3272588,50.9597362 62.0182241,51.495 C61.7091893,52.0302639 61.1380695,52.3600001 60.52,52.36 L60.52,52.36 Z" id="Path" opacity="0.45"></path>
                            <path d="M43.06,60.72 L1.75,60.72 C0.79454744,60.7199999 0.0200001458,59.9454526 0.0200001458,58.99 C0.0200001458,58.0345474 0.79454744,57.2600001 1.75,57.26 L43.06,57.26 C43.6780695,57.2599999 44.2491893,57.5897361 44.5582241,58.125 C44.8672588,58.6602638 44.8672588,59.3197362 44.5582241,59.855 C44.2491893,60.3902639 43.6780695,60.7200001 43.06,60.72 L43.06,60.72 Z" id="Path" opacity="0.45"></path>
                            <path d="M60.52,88.12 L1.75,88.12 C0.842769702,88.0510744 0.141814263,87.2948448 0.141814263,86.385 C0.141814263,85.4751552 0.842769702,84.7189256 1.75,84.65 L60.52,84.65 C61.4272303,84.7189256 62.1281857,85.4751552 62.1281857,86.385 C62.1281857,87.2948448 61.4272303,88.0510744 60.52,88.12 L60.52,88.12 Z" id="Path" opacity="0.45"></path>
                            <path d="M43.06,96.47 L1.75,96.47 C0.794547383,96.47 0.02,95.6954526 0.02,94.74 C0.02,93.7845474 0.794547383,93.01 1.75,93.01 L43.06,93.01 C44.0154526,93.01 44.79,93.7845474 44.79,94.74 C44.79,95.6954526 44.0154526,96.47 43.06,96.47 L43.06,96.47 Z" id="Path" opacity="0.45"></path>
                        </g>
                        <rect id="Rectangle" fill="#FFFFFF" fill-rule="nonzero" opacity="0.25" x="102.31" y="173.67" width="12.53" height="62.24" rx="1.44"></rect>
                        <rect id="Rectangle" fill="#FFFFFF" fill-rule="nonzero" opacity="0.25" x="173.56" y="146.42" width="14.36" height="89.49" rx="1.85"></rect>
                        <rect id="Rectangle" fill="#FFFFFF" fill-rule="nonzero" opacity="0.25" x="124.99" y="185.06" width="14.36" height="50.86" rx="1.39"></rect>
                        <rect id="Rectangle" fill="#FFFFFF" fill-rule="nonzero" opacity="0.25" x="149.28" y="161.99" width="14.37" height="73.92" rx="1.68"></rect>
                        <rect id="Rectangle" fill="#FFFFFF" fill-rule="nonzero" opacity="0.25" x="269.99" y="104.69" width="14.37" height="131.23" rx="2.24"></rect>
                        <rect id="Rectangle" fill="#FFFFFF" fill-rule="nonzero" opacity="0.25" x="197.13" y="171.04" width="14.36" height="64.87" rx="1.58"></rect>
                        <rect id="Rectangle" fill="#FFFFFF" fill-rule="nonzero" opacity="0.25" x="221.42" y="136.65" width="14.36" height="99.26" rx="1.95"></rect>
                        <rect id="Rectangle" fill="#FFFFFF" fill-rule="nonzero" opacity="0.25" x="245.7" y="146.42" width="14.37" height="89.49" rx="1.85"></rect>
                        <path d="M346.16,50.27 L355.16,50.27 C356.6346,50.27 357.83,51.4653997 357.83,52.94 L357.83,233.25 C357.83,234.7246 356.6346,235.92 355.16,235.92 L346.16,235.92 C344.690923,235.92 343.5,234.729077 343.5,233.26 L343.5,52.93 C343.505483,51.4631999 344.6932,50.2754834 346.16,50.27 Z" id="Path" fill="#FFFFFF" fill-rule="nonzero" opacity="0.25"></path>
                        <rect id="Rectangle" fill="#FFFFFF" fill-rule="nonzero" opacity="0.25" x="294.93" y="118.06" width="14.37" height="117.85" rx="2.12"></rect>
                        <rect id="Rectangle" fill="#FFFFFF" fill-rule="nonzero" opacity="0.25" x="319.22" y="77.48" width="14.37" height="158.43" rx="2.46"></rect>
                        <path d="M329.63,42 L343.91,26 L355.62,36.29 L362.87,0 L327.87,11.85 L339.59,22.15 L324.93,38.53 C324.230745,39.315678 323.607931,40.166187 323.07,41.07 L306.55,68.66 C305.003247,71.253271 302.482148,73.1188846 299.55,73.84 C296.754835,74.544047 293.797955,74.1877964 291.25,72.84 C287.244402,70.6952932 282.577854,70.1383065 278.18,71.28 C273.677858,72.3945638 269.816162,75.2791172 267.47,79.28 L256.47,98.14 C253.552503,103.027735 247.511062,105.064175 242.23,102.94 L240.64,102.3 C233.023315,99.2207274 224.288157,101.689448 219.41,108.3 L212,118.87 C209.999641,121.688917 206.830172,123.450142 203.38,123.66 C199.98738,123.863123 196.673882,122.582244 194.3,120.15 L191.37,117.09 C185.419482,110.951489 175.961383,109.871281 168.78,114.51 L155.89,122.77 C154.96579,123.353874 154.098628,124.023497 153.3,124.77 L138,139.37 C134.269407,142.894172 128.669863,143.556528 124.22,141 L109.51,132.51 C108.106495,131.689258 106.31028,132.055393 105.34,133.36 C104.916857,133.9723 104.776411,134.736585 104.954226,135.459317 C105.132041,136.18205 105.611066,136.793925 106.27,137.14 L121,145.61 C123.736495,147.189291 126.84048,148.020469 130,148.02 C134.568554,148.037218 138.968824,146.29716 142.29,143.16 L157.64,128.59 C158.162073,128.092445 158.731436,127.647002 159.34,127.26 L172.24,118.99 C176.880407,116.016191 182.97488,116.731957 186.8,120.7 L189.73,123.76 C193.396026,127.541217 198.546893,129.507113 203.8,129.13 C209.097768,128.831494 213.974399,126.146772 217.06,121.83 L224.51,111.27 C227.631141,106.963425 233.272711,105.317452 238.22,107.27 L239.81,107.91 C247.927993,111.243588 257.264412,108.166814 261.81,100.66 L272.81,81.8 C274.344436,79.1756752 276.865092,77.2743802 279.81,76.52 C282.620304,75.7951851 285.600324,76.1520737 288.16,77.52 C292.147356,79.6401801 296.779196,80.2066898 301.16,79.11 C305.63076,78.0248681 309.482831,75.1988165 311.86,71.26 L328.37,43.67 C328.73639,43.0748405 329.15827,42.5156821 329.63,42 Z" id="Path" fill="#FFFFFF" fill-rule="nonzero" opacity="0.25"></path>
                        <rect id="Rectangle" fill="#FFFFFF" fill-rule="nonzero" opacity="0.6" x="100.59" y="130.03" width="134.77" height="117.94" rx="8.14"></rect>
                        <rect id="Rectangle" fill="#FFFFFF" fill-rule="nonzero" x="104.85" y="140.56" width="126.26" height="103.24"></rect>
                        <rect id="Rectangle" fill="#FFFFFF" fill-rule="nonzero" opacity="0.6" x="151.7" y="37.31" width="108.94" height="81.16" rx="9.82"></rect>
                        <rect id="Rectangle" fill="#FFFFFF" fill-rule="nonzero" x="155.92" y="48.69" width="100.5" height="65.83" rx="3.12"></rect>
                        <rect id="Rectangle" fill="#F7FCFE" fill-rule="nonzero" x="155.92" y="48.69" width="100.5" height="65.83" rx="3.12"></rect>
                        <g id="Green" transform="translate(0.000000, 3.000000)" fill-rule="nonzero">
                            <rect id="Rectangle" fill="#FFFFFF" opacity="0.15" x="0" y="0.16" width="121.27" height="93.29" rx="11.1"></rect>
                            <rect id="Rectangle" fill="#FFFFFF" opacity="0.15" x="11.23" y="10.63" width="121.27" height="93.29" rx="11.1"></rect>
                            <rect id="Rectangle" fill="#FFFFFF" opacity="0.6" x="24.11" y="22.78" width="121.27" height="93.29" rx="11.1"></rect>
                            <rect id="Rectangle" fill="#FFFFFF" x="27.68" y="33.4" width="113.89" height="79.38" rx="3.64"></rect>
                            <path d="M48,95.84 L38.9,95.84 C38.0715729,95.84 37.4,95.1684271 37.4,94.34 C37.4,93.5115729 38.0715729,92.84 38.9,92.84 L48,92.84 C48.8284271,92.84 49.5,93.5115729 49.5,94.34 C49.5,95.1684271 48.8284271,95.84 48,95.84 Z" id="Path" fill="#03E59F"></path>
                            <path d="M58.61,99.57 L37.61,99.57 C37.2013093,99.57 36.87,99.2386907 36.87,98.83 C36.87,98.4213093 37.2013093,98.09 37.61,98.09 L58.61,98.09 C59.0186907,98.09 59.35,98.4213093 59.35,98.83 C59.35,99.2386907 59.0186907,99.57 58.61,99.57 L58.61,99.57 Z" id="Path" fill="#E2E2E2"></path>
                            <path d="M48.9,103.05 L37.56,103.05 C37.1480379,103.044614 36.8153858,102.711962 36.81,102.3 C36.8154712,101.889697 37.1496605,101.559964 37.56,101.56 L48.9,101.56 C49.3103395,101.559964 49.6445288,101.889697 49.65,102.3 C49.6446142,102.711962 49.3119621,103.044614 48.9,103.05 L48.9,103.05 Z" id="Path" fill="#E2E2E2"></path>
                            <path d="M77.67,95.84 L68.58,95.84 C67.7515729,95.84 67.08,95.1684271 67.08,94.34 C67.08,93.5115729 67.7515729,92.84 68.58,92.84 L77.67,92.84 C78.4984271,92.84 79.17,93.5115729 79.17,94.34 C79.17,95.1684271 78.4984271,95.84 77.67,95.84 Z" id="Path" fill="#03E59F"></path>
                            <path d="M88.29,99.57 L67.23,99.57 C66.8213093,99.57 66.49,99.2386907 66.49,98.83 C66.49,98.4213093 66.8213093,98.09 67.23,98.09 L88.29,98.09 C88.6986907,98.09 89.03,98.4213093 89.03,98.83 C89.03,99.2386907 88.6986907,99.57 88.29,99.57 L88.29,99.57 Z" id="Path" fill="#E2E2E2"></path>
                            <path d="M78.58,103.05 L67.23,103.05 C66.8196969,103.044529 66.4899635,102.71034 66.49,102.3 C66.49,101.891309 66.8213093,101.56 67.23,101.56 L78.58,101.56 C78.9903395,101.559964 79.3245288,101.889697 79.33,102.3 C79.3246142,102.711962 78.9919621,103.044614 78.58,103.05 L78.58,103.05 Z" id="Path" fill="#E2E2E2"></path>
                            <path d="M107.35,95.84 L98.26,95.84 C97.4315729,95.84 96.76,95.1684271 96.76,94.34 C96.76,93.5115729 97.4315729,92.84 98.26,92.84 L107.35,92.84 C108.178427,92.84 108.85,93.5115729 108.85,94.34 C108.85,95.1684271 108.178427,95.84 107.35,95.84 Z" id="Path" fill="#03E59F"></path>
                            <path d="M118,99.57 L97,99.57 C96.5913093,99.57 96.26,99.2386907 96.26,98.83 C96.26,98.4213093 96.5913093,98.09 97,98.09 L118,98.09 C118.408691,98.09 118.74,98.4213093 118.74,98.83 C118.74,99.2386907 118.408691,99.57 118,99.57 Z" id="Path" fill="#E2E2E2"></path>
                            <path d="M108.26,103.05 L96.91,103.05 C96.4996969,103.044529 96.1699635,102.71034 96.17,102.3 C96.17,101.891309 96.5013093,101.56 96.91,101.56 L108.26,101.56 C108.67034,101.559964 109.004529,101.889697 109.01,102.3 C109.004614,102.711962 108.671962,103.044614 108.26,103.05 L108.26,103.05 Z" id="Path" fill="#E2E2E2"></path>
                            <rect id="Rectangle" fill="#E2E2E2" x="51.24" y="53.06" width="8.01" height="30.09" rx="2.18"></rect>
                            <rect id="Rectangle" fill="#E2E2E2" x="64.77" y="53.06" width="8.01" height="30.09" rx="2.18"></rect>
                            <rect id="Rectangle" fill="#E2E2E2" x="78.31" y="53.06" width="8.01" height="30.09" rx="2.18"></rect>
                            <rect id="Rectangle" fill="#03E59F" x="78.31" y="60.89" width="8.01" height="22.26" rx="0.69"></rect>
                            <rect id="Rectangle" fill="#E2E2E2" x="37.7" y="53.06" width="8.01" height="30.09" rx="2.18"></rect>
                            <rect id="Rectangle" fill="#03E59F" x="37.7" y="72.35" width="8.01" height="10.8" rx="0.48"></rect>
                            <rect id="Rectangle" fill="#03E59F" x="51.24" y="66.62" width="8.01" height="16.53" rx="0.59"></rect>
                            <rect id="Rectangle" fill="#03E59F" x="64.77" y="70.84" width="8.01" height="12.31" rx="0.51"></rect>
                            <path d="M41.55,68.94 C41.4276342,68.9398085 41.3072796,68.9088602 41.2,68.85 C41.0071717,68.759098 40.8585998,68.5949933 40.7872564,68.3941052 C40.7159129,68.1932171 40.7276994,67.9721627 40.82,67.78 C40.82,67.68 45.58,58.27 55.67,61.94 C57.89,62.76 59.73,63.56 61.35,64.26 C64.59,65.67 66.73,66.61 68.7,66.14 C70.83,65.63 72.05,63.64 73.35,61.53 C75.21,58.53 77.35,55.09 82.45,55.53 C82.6644043,55.5476713 82.8626557,55.6509503 83.0000089,55.8165267 C83.1373621,55.9821031 83.2022401,56.1960214 83.18,56.41 C83.1327078,56.8472779 82.7488462,57.1693687 82.31,57.14 C78.17,56.76 76.5,59.46 74.73,62.33 C73.31,64.63 71.85,67.01 69.07,67.67 C66.57,68.26 64.07,67.19 60.7,65.67 C59.11,64.98 57.29,64.19 55.11,63.39 C46.41,60.22 42.44,68.08 42.27,68.39 C42.1669467,68.7046685 41.8806939,68.9233338 41.55,68.94 Z" id="Path" fill="#03E59F"></path>
                            <path d="M117.9,84.54 C109.527363,84.54 102.74,77.7526368 102.74,69.38 C102.74,61.0073632 109.527363,54.22 117.9,54.22 L117.9,60.8 C114.834661,60.7999999 112.002171,62.4353387 110.469502,65.0899999 C108.936832,67.7446612 108.936832,71.0153388 110.469502,73.6700001 C112.002171,76.3246613 114.834661,77.9600001 117.9,77.96 C118.573513,77.964471 119.245083,77.8872405 119.9,77.73 L121.42,84.13 C120.266399,84.4019273 119.085217,84.5395082 117.9,84.54 Z" id="Path" fill="#03E59F"></path>
                            <path d="M121.28,83.6 L120,78.27 C122.781646,77.6000258 125.089757,75.667443 126.238121,73.0468171 C127.386485,70.4261913 127.24288,67.4192609 125.85,64.92 L130.62,62.23 C132.865735,66.2275051 133.104558,71.0474067 131.265001,75.2473353 C129.425444,79.4472639 125.720913,82.5399877 121.26,83.6 L121.28,83.6 Z" id="Path" fill="#E2E2E2"></path>
                            <path d="M126.18,64.74 C124.501898,61.7419165 121.33577,59.8835369 117.9,59.88 L117.9,55.13 C123.050984,55.1353905 127.798692,57.9182658 130.32,62.41 L126.18,64.74 Z" id="Path" fill="#E2E2E2"></path>
                        </g>
                        <rect id="Rectangle" fill="#FFFFFF" fill-rule="nonzero" opacity="0.6" x="241.41" y="157.19" width="127.95" height="89.4" rx="11.68"></rect>
                        <path d="M362.41,242.94 L249.3,242.94 C247.151645,242.837388 245.489538,241.018901 245.58,238.87 L245.58,175.33 C245.489538,173.181099 247.151645,171.362612 249.3,171.26 L362.41,171.26 C364.558355,171.362612 366.220462,173.181099 366.13,175.33 L366.13,238.87 C366.226048,241.020931 364.560878,242.842771 362.41,242.94 L362.41,242.94 Z" id="Path" fill="#F7FCFE" fill-rule="nonzero"></path>
                        <g id="Man_Computer" transform="translate(309.000000, 233.000000)" fill-rule="nonzero">
                            <rect id="Rectangle" fill="url(#linearGradient-1)" x="161.59969" y="44.8180282" width="10.4489922" height="89.3025352"></rect>
                            <rect id="Rectangle" fill="url(#linearGradient-2)" x="79.8151938" y="90.3301408" width="10.4489922" height="89.3025352"></rect>
                            <rect id="Rectangle" fill="url(#linearGradient-3)" x="16.3748837" y="61.8726761" width="10.4489922" height="89.3025352"></rect>
                            <path d="M3.59689922,82.9295775 L62.2083721,116.87662 C67.2520236,119.797793 73.4676664,119.797793 78.5113178,116.87662 L184.368062,55.5808451 C186.377979,54.4138741 187.615444,52.2618752 187.615444,49.9335211 C187.615444,47.6051671 186.377979,45.4531682 184.368062,44.2861972 L125.765581,10.2940845 C120.721148,7.363833 114.498077,7.363833 109.453643,10.2940845 L3.59689922,71.6529577 C1.59571279,72.8222367 0.364993892,74.9693214 0.364993892,77.2912676 C0.364993892,79.6132138 1.59571279,81.7602985 3.59689922,82.9295775 L3.59689922,82.9295775 Z" id="Path" fill="url(#linearGradient-4)"></path>
                            <path d="M3.59689922,78.8552113 L62.2083721,112.802254 C67.249521,115.732768 73.4701689,115.732768 78.5113178,112.802254 L184.368062,51.5064789 C186.378404,50.3419752 187.616637,48.1911492 187.616637,45.863662 C187.616637,43.5361747 186.378404,41.3853487 184.368062,40.2208451 L125.765581,6.21971831 C120.719646,3.29507163 114.499579,3.29507163 109.453643,6.21971831 L3.59689922,67.6056338 C1.60872379,68.7782838 0.38802625,70.9180275 0.38802625,73.2304225 C0.38802625,75.5428176 1.60872379,77.6825613 3.59689922,78.8552113 L3.59689922,78.8552113 Z" id="Path" fill="url(#linearGradient-5)"></path>
                            <path d="M135.666047,66.235493 L135.666047,64.1712676 L133.56186,64.3695775 L109.831318,50.7132394 L63.6651163,77.5211268 L61.9565891,76.484507 L61.0573643,77.0073239 L61.0573643,79.035493 L86.4155039,93.7464789 C87.286336,94.250475 88.3592454,94.250475 89.2300775,93.7464789 L135.19845,67.0828169 C135.505269,66.9153984 135.687597,66.5850041 135.666047,66.235493 L135.666047,66.235493 Z" id="Path" fill="#3B50A2"></path>
                            <path d="M109.831318,48.6760563 L61.0573643,76.9892958 L61.0573643,48.5588732 C61.1669722,47.4345046 61.8049799,46.4299647 62.7748837,45.8546479 L108.149767,19.9030986 C109.048992,19.3712676 109.831318,19.6957746 109.831318,20.6242254 L109.831318,48.6760563 Z" id="Path" fill="#3B50A2"></path>
                            <polygon id="Path" fill="#FFFFFF" points="107.871008 48.0090141 63.0626357 73.9876056 63.0626357 47.5402817 107.871008 21.8952113"></polygon>
                            <polygon id="Path" fill="url(#linearGradient-6)" opacity="0.08" points="63.0716279 47.5402817 63.0716279 73.9876056 91.1724031 57.6991549 107.88 48.0090141 107.88 21.8952113 97.8896124 27.6011268"></polygon>
                            <polygon id="Path" fill="url(#linearGradient-7)" points="63.0716279 47.5402817 63.0716279 73.9876056 91.1724031 57.6991549 97.8896124 27.6011268"></polygon>
                            <polygon id="Path" fill="url(#linearGradient-8)" opacity="0.08" points="63.0716279 47.5402817 63.0716279 50.7042254 107.88 24.7256338 107.88 21.8952113"></polygon>
                            <path d="M61.0573643,76.9892958 L86.4155039,91.7092958 C87.286336,92.2132919 88.3592454,92.2132919 89.2300775,91.7092958 L135.19845,65.0456338 C135.51381,64.8970332 135.715134,64.5791694 135.715134,64.2298592 C135.715134,63.8805489 135.51381,63.5626851 135.19845,63.4140845 L109.831318,48.6760563 L61.0573643,76.9892958 Z" id="Path" fill="#5775D2"></path>
                            <polyline id="Path" fill="#8CD4F5" points="68.1972093 76.0338028 65.9581395 77.3228169 67.6396899 78.2873239 69.8787597 76.9983099 68.1972093 76.0338028"></polyline>
                            <polyline id="Path" fill="#8CD4F5" points="71.3265116 74.2219718 69.0874419 75.5109859 70.7689922 76.475493 73.008062 75.1864789 71.3265116 74.2219718"></polyline>
                            <polyline id="Path" fill="#8CD4F5" points="74.455814 72.4101408 72.2167442 73.708169 73.8982946 74.6726761 76.1283721 73.3746479 74.455814 72.4101408"></polyline>
                            <polyline id="Path" fill="#8CD4F5" points="77.5851163 70.5983099 75.3460465 71.896338 77.0275969 72.8608451 79.2576744 71.5628169 77.5851163 70.5983099"></polyline>
                            <polyline id="Path" fill="#8CD4F5" points="80.7144186 68.7864789 78.4753488 70.084507 80.1568992 71.0490141 82.395969 69.7509859 80.7144186 68.7864789"></polyline>
                            <polyline id="Path" fill="#8CD4F5" points="83.8437209 66.9746479 81.6046512 68.2726761 83.2862016 69.2371831 85.5252713 67.9391549 83.8437209 66.9746479"></polyline>
                            <polyline id="Path" fill="#8CD4F5" points="86.964031 65.171831 84.7339535 66.4608451 86.4155039 67.4253521 88.6455814 66.136338 86.964031 65.171831"></polyline>
                            <polyline id="Path" fill="#8CD4F5" points="90.0933333 63.36 87.8632558 64.6490141 89.5448062 65.6135211 91.7748837 64.324507 90.0933333 63.36"></polyline>
                            <polyline id="Path" fill="#8CD4F5" points="93.2226357 61.548169 90.9925581 62.8371831 92.6741085 63.8016901 94.904186 62.5126761 93.2226357 61.548169"></polyline>
                            <polyline id="Path" fill="#8CD4F5" points="96.351938 59.736338 94.1128682 61.0343662 95.7944186 61.9988732 98.0334884 60.7008451 96.351938 59.736338"></polyline>
                            <polyline id="Path" fill="#8CD4F5" points="99.4812403 57.924507 97.2421705 59.2225352 98.9237209 60.1870423 101.162791 58.8890141 99.4812403 57.924507"></polyline>
                            <polyline id="Path" fill="#8CD4F5" points="102.610543 56.1126761 100.371473 57.4107042 102.053023 58.3752113 104.292093 57.0771831 102.610543 56.1126761"></polyline>
                            <polyline id="Path" fill="#8CD4F5" points="105.739845 54.3008451 103.509767 55.5988732 105.182326 56.5633803 107.421395 55.2653521 105.739845 54.3008451"></polyline>
                            <polyline id="Path" fill="#8CD4F5" points="110.460775 51.5695775 106.630078 53.7870423 108.311628 54.7515493 112.133333 52.5430986 110.460775 51.5695775"></polyline>
                            <polyline id="Path" fill="#8CD4F5" points="112.825736 52.9307042 110.586667 54.2287324 112.268217 55.1932394 114.507287 53.8952113 112.825736 52.9307042"></polyline>
                            <polyline id="Path" fill="#8CD4F5" points="109.696434 54.7425352 107.457364 56.0405634 109.138915 57.0050704 111.377984 55.7070423 109.696434 54.7425352"></polyline>
                            <polyline id="Path" fill="#8CD4F5" points="106.55814 56.5543662 104.328062 57.8523944 106.009612 58.8169014 108.23969 57.5188732 106.55814 56.5543662"></polyline>
                            <polyline id="Path" fill="#8CD4F5" points="103.437829 58.3661972 101.207752 59.6552113 102.88031 60.6197183 105.11938 59.3307042 103.437829 58.3661972"></polyline>
                            <polyline id="Path" fill="#8CD4F5" points="100.308527 60.1780282 98.0694574 61.4670423 99.7510078 62.4315493 101.990078 61.1425352 100.308527 60.1780282"></polyline>
                            <polyline id="Path" fill="#8CD4F5" points="97.1792248 61.9898592 94.940155 63.2788732 96.6217054 64.2433803 98.8607752 62.9543662 97.1792248 61.9898592"></polyline>
                            <polyline id="Path" fill="#8CD4F5" points="94.0589147 63.7926761 91.8108527 65.0907042 93.4924031 66.0552113 95.7314729 64.7571831 94.0589147 63.7926761"></polyline>
                            <polyline id="Path" fill="#8CD4F5" points="90.9206202 65.604507 88.6905426 66.9025352 90.372093 67.8670423 92.6021705 66.5690141 90.9206202 65.604507"></polyline>
                            <polyline id="Path" fill="#8CD4F5" points="87.7913178 67.416338 85.5612403 68.7143662 87.2427907 69.6788732 89.4728682 68.3808451 87.7913178 67.416338"></polyline>
                            <polyline id="Path" fill="#8CD4F5" points="84.6620155 69.228169 82.431938 70.5261972 84.1134884 71.4907042 86.3435659 70.1926761 84.6620155 69.228169"></polyline>
                            <polyline id="Path" fill="#8CD4F5" points="81.5417054 71.04 79.3026357 72.3290141 80.984186 73.2935211 83.2232558 72.004507 81.5417054 71.04"></polyline>
                            <polyline id="Path" fill="#8CD4F5" points="78.4124031 72.851831 76.1733333 74.1408451 77.8548837 75.1053521 80.0939535 73.816338 78.4124031 72.851831"></polyline>
                            <polyline id="Path" fill="#8CD4F5" points="75.2831008 74.663662 73.044031 75.9526761 74.7255814 76.9171831 76.9556589 75.628169 75.2831008 74.663662"></polyline>
                            <polyline id="Path" fill="#8CD4F5" points="109.795349 57.4197183 107.565271 58.7087324 109.246822 59.6732394 111.476899 58.3842254 109.795349 57.4197183"></polyline>
                            <polyline id="Path" fill="#8CD4F5" points="106.657054 59.2315493 104.417984 60.5295775 106.099535 61.4940845 108.338605 60.2050704 106.657054 59.2315493"></polyline>
                            <polyline id="Path" fill="#8CD4F5" points="103.509767 61.0614085 101.270698 62.3504225 102.952248 63.3149296 105.191318 62.0259155 103.509767 61.0614085"></polyline>
                            <polyline id="Path" fill="#8CD4F5" points="100.362481 62.8822535 98.1234109 64.1712676 99.8049612 65.1357746 102.044031 63.8467606 100.362481 62.8822535"></polyline>
                            <polyline id="Path" fill="#8CD4F5" points="97.2151938 64.6940845 94.976124 65.9921127 96.6576744 66.9566197 98.8967442 65.6676056 97.2151938 64.6940845"></polyline>
                            <polyline id="Path" fill="#8CD4F5" points="94.067907 66.5239437 91.8378295 67.8129577 93.5193798 68.7774648 95.7494574 67.4884507 94.067907 66.5239437"></polyline>
                            <polyline id="Path" fill="#8CD4F5" points="90.9206202 68.3447887 88.6905426 69.6338028 90.3631008 70.5983099 92.6021705 69.3092958 90.9206202 68.3447887"></polyline>
                            <polyline id="Path" fill="#8CD4F5" points="87.7733333 70.1656338 85.5432558 71.4546479 87.215814 72.4191549 89.4548837 71.1301408 87.7733333 70.1656338"></polyline>
                            <polyline id="Path" fill="#8CD4F5" points="84.6350388 71.9864789 82.395969 73.275493 84.0775194 74.24 86.3165891 72.9509859 84.6350388 71.9864789"></polyline>
                            <polyline id="Path" fill="#8CD4F5" points="81.4877519 73.8073239 79.2486822 75.096338 80.9302326 76.0608451 83.1693023 74.771831 81.4877519 73.8073239"></polyline>
                            <polyline id="Path" fill="#8CD4F5" points="78.3404651 75.628169 76.1013953 76.9171831 77.7829457 77.8816901 80.0130233 76.5926761 78.3404651 75.628169"></polyline>
                            <polyline id="Path" fill="#8CD4F5" points="72.1537984 76.4664789 68.332093 78.6839437 70.0046512 79.6484507 73.8353488 77.4309859 72.1537984 76.4664789"></polyline>
                            <polyline id="Path" fill="#8CD4F5" points="119.929612 57.0140845 117.699535 58.3121127 119.372093 59.2766197 121.611163 57.9785915 119.929612 57.0140845"></polyline>
                            <polyline id="Path" fill="#8CD4F5" points="116.701395 58.8890141 114.462326 60.1780282 116.143876 61.1425352 118.382946 59.8535211 116.701395 58.8890141"></polyline>
                            <polyline id="Path" fill="#8CD4F5" points="113.473178 60.7549296 111.234109 62.0439437 112.915659 63.0084507 115.154729 61.7194366 113.473178 60.7549296"></polyline>
                            <polyline id="Path" fill="#8CD4F5" points="110.244961 62.6208451 108.014884 63.9098592 109.696434 64.8833803 111.926512 63.5853521 110.244961 62.6208451"></polyline>
                            <polyline id="Path" fill="#8CD4F5" points="107.016744 64.4867606 89.140155 74.8349296 90.8217054 75.7994366 108.698295 65.4512676 107.016744 64.4867606"></polyline>
                            <polyline id="Path" fill="#8CD4F5" points="88.1510078 75.411831 85.911938 76.7008451 87.5934884 77.6743662 89.8235659 76.376338 88.1510078 75.411831"></polyline>
                            <polyline id="Path" fill="#8CD4F5" points="84.9227907 77.2777465 82.6837209 78.5757746 84.3652713 79.5402817 86.6043411 78.2422535 84.9227907 77.2777465"></polyline>
                            <polyline id="Path" fill="#8CD4F5" points="81.6945736 79.143662 79.4644961 80.4416901 81.1370543 81.4061972 83.376124 80.108169 81.6945736 79.143662"></polyline>
                            <polyline id="Path" fill="#8CD4F5" points="78.4663566 81.0185915 75.435969 82.7673239 77.1175194 83.731831 80.147907 81.9830986 78.4663566 81.0185915"></polyline>
                            <polyline id="Path" fill="#8CD4F5" points="75.1931783 77.4490141 70.6970543 80.0450704 72.3786047 81.0095775 76.8747287 78.4135211 75.1931783 77.4490141"></polyline>
                            <polyline id="Path" fill="#8CD4F5" points="115.208682 54.291831 110.47876 57.0230986 112.16031 57.9876056 116.890233 55.256338 115.208682 54.291831"></polyline>
                            <polyline id="Path" fill="#8CD4F5" points="107.286512 61.6022535 105.047442 62.9002817 106.728992 63.8647887 108.95907 62.5667606 107.286512 61.6022535"></polyline>
                            <polyline id="Path" fill="#8CD4F5" points="110.415814 59.7904225 108.176744 61.0884507 109.858295 62.0529577 112.088372 60.7549296 110.415814 59.7904225"></polyline>
                            <polyline id="Path" fill="#8CD4F5" points="104.148217 63.4140845 101.91814 64.7121127 103.59969 65.6766197 105.829767 64.3785915 104.148217 63.4140845"></polyline>
                            <polyline id="Path" fill="#8CD4F5" points="101.027907 65.2259155 98.7888372 66.5149296 100.470388 67.4794366 102.709457 66.1904225 101.027907 65.2259155"></polyline>
                            <polyline id="Path" fill="#8CD4F5" points="97.8986047 67.0377465 95.6595349 68.3267606 97.3410853 69.2912676 99.580155 68.0022535 97.8986047 67.0377465"></polyline>
                            <polyline id="Path" fill="#8CD4F5" points="94.7693023 68.8495775 92.5302326 70.1385915 94.2117829 71.1030986 96.4508527 69.8140845 94.7693023 68.8495775"></polyline>
                            <polyline id="Path" fill="#8CD4F5" points="91.64 70.6523944 89.4009302 71.9504225 91.0824806 72.9149296 93.3215504 71.6259155 91.64 70.6523944"></polyline>
                            <polyline id="Path" fill="#8CD4F5" points="88.5106977 72.4642254 86.2806202 73.7622535 87.9531783 74.7267606 90.1922481 73.4287324 88.5106977 72.4642254"></polyline>
                            <polyline id="Path" fill="#8CD4F5" points="85.3813953 74.2760563 83.1423256 75.5740845 84.823876 76.5385915 87.0629457 75.2405634 85.3813953 74.2760563"></polyline>
                            <polyline id="Path" fill="#8CD4F5" points="79.1317829 77.8997183 73.0620155 81.4061972 74.7435659 82.3707042 80.8133333 78.8642254 79.1317829 77.8997183"></polyline>
                            <polyline id="Path" fill="#8CD4F5" points="117.573643 55.6439437 111.297054 59.2766197 112.978605 60.2411268 119.255194 56.6084507 117.573643 55.6439437"></polyline>
                            <path d="M106.755969,67.6056338 L93.6722481,75.1684507 C93.2765891,75.3938028 93.1956589,75.7183099 93.4924031,75.8895775 L99.9308527,79.5853521 C100.339435,79.7399587 100.795955,79.700165 101.171783,79.4771831 L114.255504,71.9143662 C114.651163,71.6890141 114.732093,71.3735211 114.435349,71.2022535 L107.996899,67.5064789 C107.590475,67.3436625 107.131531,67.3803338 106.755969,67.6056338 Z" id="Path" fill="#8CD4F5"></path>
                            <polygon id="Path" fill="#FFFFFF" points="82.5128682 54.4450704 84.9407752 52.1825352 87.3057364 53.1380282 88.8524031 50.7402817 90.3091473 49.7847887 91.7209302 47.0264789 94.7063566 46.4495775 97.7457364 46.7560563 99.4452713 43.0242254 103.851473 45.223662 104.12124 44.6738028 99.1485271 42.1949296 97.3770543 46.1070423 94.6793798 45.8366197 94.6344186 45.8366197 91.3162791 46.4856338 89.8415504 49.3611268 88.375814 50.3526761 87.0629457 52.3808451 84.8058915 51.4704225 82.3060465 53.8050704 80.4986047 53.6157746 80.4356589 54.2287324"></polygon>
                            <polygon id="Path" fill="#FFFFFF" points="80.7324031 55.364507 78.4663566 53.7149296 81.020155 52.5701408"></polygon>
                            <polygon id="Path" fill="#FFFFFF" points="79.896124 61.4219718 104.831628 47.035493 104.831628 30.8822535 104.507907 30.8822535 104.507907 46.8461972 79.7342636 61.1335211"></polygon>
                            <path d="M70.6790698,52.5971831 L73.4936434,50.9926761 C73.7468675,50.8480262 73.9144504,50.5893218 73.9432558,50.2985915 C73.9432558,50.0642254 73.7454264,49.9830986 73.4936434,50.1273239 L70.6790698,51.731831 C70.4251372,51.8816302 70.2555219,52.1416718 70.2204651,52.4349296 C70.2204651,52.6692958 70.4272868,52.7414085 70.6790698,52.5971831 Z" id="Path" fill="url(#linearGradient-9)"></path>
                            <g id="Group" opacity="0.5" transform="translate(65.643411, 50.478873)" fill="#FFFFFF">
                                <path d="M0.386666667,5.86816901 L8.26387597,1.36112676 C8.38928237,1.28970373 8.4728933,1.1623065 8.48868217,1.01859155 C8.48868217,0.892394366 8.38976744,0.856338028 8.26387597,0.928450704 L0.386666667,5.43549296 C0.254250452,5.50528922 0.166210152,5.63767036 0.152868217,5.78704225 C0.152868217,5.90422535 0.251782946,5.94028169 0.386666667,5.86816901 Z" id="Path"></path>
                            </g>
                            <g id="Group" opacity="0.5" transform="translate(68.341085, 52.281690)" fill="#FFFFFF">
                                <path d="M0.683410853,3.36225352 L5.56620155,0.567887324 C5.69160795,0.496464293 5.77521888,0.369067067 5.79100775,0.225352113 C5.79100775,0.108169014 5.69209302,0.0630985915 5.56620155,0.144225352 L0.683410853,2.92957746 C0.554223863,3.00291026 0.467452924,3.13338273 0.449612403,3.28112676 C0.449612403,3.39830986 0.55751938,3.4343662 0.683410853,3.36225352 Z" id="Path"></path>
                            </g>
                            <path d="M70.6790698,57.7442254 L73.4936434,56.1397183 C73.7468675,55.9950684 73.9144504,55.736364 73.9432558,55.4456338 C73.9432558,55.2022535 73.7454264,55.1301408 73.4936434,55.2743662 L70.6790698,56.8788732 C70.422392,57.0213762 70.2512134,57.2804499 70.2204651,57.5729577 C70.2204651,57.816338 70.4272868,57.8884507 70.6790698,57.7442254 Z" id="Path" fill="url(#linearGradient-10)"></path>
                            <g id="Group" opacity="0.5" transform="translate(65.643411, 55.887324)" fill="#FFFFFF">
                                <path d="M0.386666667,5.60676056 L8.26387597,1.09971831 C8.38961915,1.02431538 8.47283239,0.894187493 8.48868217,0.748169014 C8.48868217,0.630985915 8.38976744,0.594929577 8.26387597,0.667042254 L0.386666667,5.17408451 C0.256739806,5.24216291 0.169100864,5.37056164 0.152868217,5.51661972 C0.152868217,5.63380282 0.251782946,5.67887324 0.386666667,5.60676056 Z" id="Path"></path>
                            </g>
                            <g id="Group" opacity="0.5" transform="translate(68.341085, 56.788732)" fill="#FFFFFF">
                                <path d="M0.683410853,4.00225352 L5.56620155,1.20788732 C5.69160795,1.13646429 5.77521888,1.00906707 5.79100775,0.865352113 C5.79100775,0.73915493 5.69209302,0.703098592 5.56620155,0.775211268 L0.683410853,3.56957746 C0.556549486,3.6410635 0.470124046,3.76768434 0.449612403,3.91211268 C0.449612403,4.02929577 0.55751938,4.0743662 0.683410853,4.00225352 Z" id="Path"></path>
                            </g>
                            <path d="M70.6790698,62.8912676 L73.4936434,61.2777465 C73.7468675,61.1330966 73.9144504,60.8743922 73.9432558,60.583662 C73.9432558,60.3492958 73.7454264,60.2771831 73.4936434,60.4214085 L70.6790698,62.0259155 C70.422392,62.1684184 70.2512134,62.4274921 70.2204651,62.72 C70.2204651,62.9543662 70.4272868,63.035493 70.6790698,62.8912676 Z" id="Path" fill="url(#linearGradient-11)"></path>
                            <g id="Group" opacity="0.5" transform="translate(65.643411, 61.295775)" fill="#FFFFFF">
                                <path d="M0.386666667,5.33633803 L8.26387597,0.829295775 C8.38928237,0.757872744 8.4728933,0.630475517 8.48868217,0.486760563 C8.48868217,0.369577465 8.38976744,0.324507042 8.26387597,0.396619718 L0.386666667,4.90366197 C0.254250452,4.97345824 0.166210152,5.10583938 0.152868217,5.25521127 C0.152868217,5.4084507 0.251782946,5.4084507 0.386666667,5.33633803 Z" id="Path"></path>
                            </g>
                            <g id="Group" opacity="0.5" transform="translate(68.341085, 62.197183)" fill="#FFFFFF">
                                <path d="M0.683410853,3.73183099 L5.56620155,0.946478873 C5.69194473,0.871075941 5.77515797,0.740948056 5.79100775,0.594929577 C5.79100775,0.477746479 5.69209302,0.441690141 5.56620155,0.513802817 L0.683410853,3.29915493 C0.555212281,3.37354832 0.468809725,3.50346688 0.449612403,3.65070423 C0.449612403,3.76788732 0.55751938,3.80394366 0.683410853,3.73183099 Z" id="Path"></path>
                            </g>
                            <path d="M198.108217,29.6292958 C197.42981,33.1771217 197.586844,36.8347068 198.566822,40.3109859 C198.692713,42.1138028 194.826047,42.9701408 192.865736,43.0152113 C187.371473,43.2135211 184.556899,39.68 183.873488,38.2287324 C183.828527,38.1205634 185.096434,33.7938028 185.510078,32.4507042 C185.923721,31.1076056 184.88062,31.7025352 185.069457,29.6743662 C185.420155,25.7261972 198.665736,25.8794366 198.665736,25.8794366 L198.108217,29.6292958 Z" id="Path" fill="#FAB27F"></path>
                            <path d="M181.643411,12.268169 C180.150698,14.9723944 178.19938,20.2907042 178.460155,22.6073239 C178.72093,24.9239437 179.287442,27.6732394 178.747907,28.9171831 C178.208372,30.1611268 177.381085,31.6664789 177.848682,32.3966197 C178.316279,33.1267606 185.042481,35.8219718 188.063876,34.7042254 C191.085271,33.5864789 194.070698,30.9543662 195.851163,29.6292958 C197.631628,28.3042254 199.448062,23.0219718 199.744806,22.1926761 C201.336434,17.92 201.543256,14.2512676 199.187287,12.7729577 C197.065116,11.4929577 183.109147,9.59098592 181.643411,12.268169 Z" id="Path" fill="#FAB27F"></path>
                            <path d="M201.426357,20.2456338 L197.658605,23.1842254 C197.658605,23.1842254 199.924651,15.5222535 196.507597,15.8107042 C193.090543,16.0991549 195.419535,11.303662 198.180155,12.4664789 C200.940775,13.6292958 201.777054,13.0974648 202.289612,14.8642254 C202.802171,16.6309859 201.426357,20.2456338 201.426357,20.2456338 Z" id="Path" fill="#E6352C"></path>
                            <path d="M176.077209,9.10422535 L176.077209,9.01408451 L176.077209,8.81577465 C176.106525,8.52390713 176.169904,8.23649595 176.266047,7.95943662 L176.266047,7.95943662 C178.064496,1.55042254 184.79969,0.685070423 184.79969,0.685070423 C184.79969,0.685070423 183.666667,2.58704225 184.727752,3.56957746 C185.788837,4.55211268 198.989457,2.7943662 203.071938,7.45464789 C204.924341,9.54591549 205.526822,12.3583099 205.472868,16.0811268 C205.472868,16.64 205.472868,17.2169014 205.40093,17.8298592 L205.40093,17.8298592 C205.40093,18.0822535 205.40093,18.3256338 205.355969,18.5870423 C205.359923,18.6440627 205.359923,18.7012895 205.355969,18.7583099 C205.355969,18.9566197 205.355969,19.1639437 205.293023,19.3712676 C205.293023,19.416338 205.293023,19.4704225 205.293023,19.524507 C205.201412,20.306065 205.069348,21.082323 204.897364,21.8501408 C204.168992,25.0861972 203.098915,30.5397183 200.877829,33.1447887 C200.772794,33.3597797 200.639745,33.5598378 200.482171,33.7397183 C199.639993,34.4315037 198.576001,34.7934349 197.487752,34.7583099 C196.761809,34.8003875 196.033482,34.7488869 195.32062,34.6050704 C194.828298,34.5219053 194.341738,34.4074969 193.863876,34.2625352 C188.252713,32.324507 188.468527,31.4321127 188.468527,30.0259155 C188.468527,28.6197183 188.99907,25.7532394 189.062016,23.6529577 C189.124961,21.5526761 187.64124,21.5616901 187.64124,21.5616901 C187.039803,21.4542114 186.445952,21.7857667 186.220465,22.3549296 C185.811316,23.3790365 185.483577,24.4339663 185.24031,25.5098592 L184.341085,24.5183099 C184.341085,24.5183099 185.474109,20.7684507 184.493953,18.9476056 C183.684651,17.4332394 182.191938,17.9560563 179.629147,16.9464789 C176.472868,15.684507 175.888372,11.9076056 175.978295,9.60901408 C176.04124,9.50084507 176.059225,9.30253521 176.077209,9.10422535 Z" id="Path" fill="#7B3B1E"></path>
                            <path d="M185.141395,23.5447887 C184.700775,25.4197183 184.952558,26.8439437 186.265426,27.1504225 C186.795969,27.2766197 187.164651,26.2490141 187.812093,25.7352113 C188.711318,25.0050704 190.042171,24.5904225 190.302946,23.4726761 C190.752558,21.6067606 189.844341,20.9126761 188.324651,20.7143662 C186.984806,20.5521127 185.591008,21.6338028 185.141395,23.5447887 Z" id="Path" fill="#FAB27F"></path>
                            <path d="M138.264806,86.4360563 L147.005271,147.091831 C147.337984,148.894648 150.404341,150.084507 152.23876,149.750986 C153.92031,149.435493 155.979535,147.867042 155.898605,146.199437 L154.190078,84.7233803 C154.099263,82.7765725 153.239536,80.9459649 151.800553,79.6353901 C150.361569,78.3248154 148.461568,77.641961 146.51969,77.7374648 C142.482171,77.9267606 137.968062,81.4152113 138.156899,85.4625352 C138.17458,85.7888179 138.210606,86.1138412 138.264806,86.4360563 L138.264806,86.4360563 Z" id="Path" fill="#3D3D3C"></path>
                            <path d="M156.725891,145.847887 C156.725891,145.847887 157.292403,150.895775 156.617984,153.636056 C156.213333,155.294648 151.510388,154.474366 149.334264,152.689577 C147.15814,150.904789 142.626047,149.083944 140.99845,148.606197 C137.050853,147.353239 134.91969,144.099155 135.144496,142.557746 C135.423256,140.682817 138.129922,139.096338 140.836589,139.799437 C143.147597,140.394366 145.224806,141.656338 145.863256,141.421972 C146.204961,141.295775 146.762481,140.277183 147.778605,140.890141 C150.035659,142.305352 149.181395,144.946479 153.731473,145.811831 C154.163101,145.892958 156.465116,145.027606 156.725891,145.847887 Z" id="Path" fill="#0D0D0D"></path>
                            <path d="M119.965581,100.173521 L127.591008,169.365634 C127.842791,171.222535 131.286822,172.421408 133.130233,172.169014 C134.820775,171.943662 136.529302,170.456338 136.529302,168.788732 L135.944806,99.1549296 C135.944808,97.2073501 135.172394,95.3396699 133.79774,93.9633689 C132.423087,92.5870679 130.558984,91.8150722 128.616124,91.8174648 C124.569612,91.8174648 119.893643,95.1526761 119.893643,99.2090141 C119.896063,99.531768 119.920097,99.8539949 119.965581,100.173521 L119.965581,100.173521 Z" id="Path" fill="#3D3D3C"></path>
                            <path d="M137.527442,169.834366 C137.527442,169.834366 138.426667,176.540845 137.905116,177.162817 C137.383566,177.784789 132.060155,178.271549 129.56031,177.406197 C127.060465,176.540845 121.916899,176.342535 119.956589,176.306479 C115.154729,176.19831 112.645891,172.457465 112.618915,170.970141 C112.618915,168.950986 114.462326,167.788169 117.663566,167.562817 C120.864806,167.337465 123.850233,168.301972 124.632558,167.869296 C125.036899,167.627025 125.352313,167.260257 125.531783,166.823662 C125.829682,166.63623 126.191513,166.580273 126.531912,166.668992 C126.872311,166.75771 127.161131,166.983248 127.330233,167.292394 C128.813953,170.63662 131.934264,170.474366 134.856744,170.420282 C135.423256,170.411268 136.853023,168.36507 137.527442,169.834366 Z" id="Path" fill="#0D0D0D"></path>
                            <path d="M167.381705,177.307042 C168.762558,177.307042 170.086855,176.757169 171.063265,175.778387 C172.039675,174.799606 172.588217,173.472093 172.588217,172.087887 L172.588217,116.200563 C172.667649,114.285832 171.69389,112.481467 170.051672,111.500374 C168.409455,110.519281 166.362948,110.519281 164.720731,111.500374 C163.078513,112.481467 162.104754,114.285832 162.184186,116.200563 L162.184186,172.087887 C162.181798,173.471264 162.728338,174.7988 163.703321,175.777842 C164.678304,176.756883 166.001678,177.307044 167.381705,177.307042 L167.381705,177.307042 Z" id="Path" fill="#3C57AB"></path>
                            <path d="M141.852713,188.691831 C142.286273,188.693203 142.713142,188.584676 143.093643,188.376338 L194.151628,160.351549 C195.241977,159.596346 195.584453,158.136019 194.943983,156.972929 C194.303513,155.809839 192.888313,155.322106 191.669767,155.844507 L140.611783,183.869296 C139.574834,184.435839 139.053808,185.635672 139.346723,186.782514 C139.639637,187.929357 140.67175,188.730574 141.852713,188.727887 L141.852713,188.691831 Z" id="Path" fill="#254094"></path>
                            <path d="M195.32062,182.868732 C196.610155,182.874655 197.706136,181.925493 197.887553,180.645669 C198.06897,179.365846 197.280136,178.148209 196.04,177.793803 L140.171163,161.424225 C139.286086,161.164981 138.330271,161.39876 137.663764,162.037498 C136.997258,162.676237 136.721318,163.622896 136.939888,164.520878 C137.158459,165.418861 137.838334,166.131742 138.723411,166.390986 L194.592248,182.760563 C194.828551,182.831701 195.073892,182.868136 195.32062,182.868732 L195.32062,182.868732 Z" id="Path" fill="#254094"></path>
                            <ellipse id="Oval" fill="#163081" cx="191.373023" cy="161.23493" rx="4.37922481" ry="4.38985915"></ellipse>
                            <ellipse id="Oval" fill="#163081" transform="translate(146.237873, 186.100811) rotate(-22.500000) translate(-146.237873, -186.100811) " cx="146.237873" cy="186.100811" rx="4.38078382" ry="4.38830344"></ellipse>
                            <ellipse id="Oval" fill="#163081" cx="191.660775" cy="181.237183" rx="4.37922481" ry="4.38985915"></ellipse>
                            <ellipse id="Oval" fill="#163081" cx="141.852713" cy="166.607324" rx="4.37922481" ry="4.38985915"></ellipse>
                            <path d="M180.995969,98.4788732 L170.708837,134.454085 C169.982757,137.040723 168.112777,139.150342 165.635703,140.177342 C163.15863,141.204342 160.348418,141.03514 158.011783,139.71831 L153.695504,137.275493 L134.901705,126.458592 C132.381635,125.001934 130.828864,122.307623 130.828864,119.391549 C130.828864,116.475475 132.381635,113.781165 134.901705,112.324507 L165.475349,94.5307042 C167.998004,93.0792496 171.09967,93.0792496 173.622326,94.5307042 L176.814574,96.3335211 L176.814574,96.3335211 L179.584186,97.8659155 C180.034902,98.1134709 180.507513,98.3186657 180.995969,98.4788732 L180.995969,98.4788732 Z" id="Path" fill="#81B5E2"></path>
                            <path d="M187.461395,106.267042 L129.434419,91.2135211 C125.607814,90.1123451 121.582776,92.1623695 120.213703,95.9097977 C118.844629,99.6572259 120.596915,103.828182 124.227907,105.464789 L153.236899,119.553803 C153.236899,119.553803 170.555969,134.922817 188.306667,132.08338 C192.649922,131.380282 199.861705,134.886761 201.408372,131.695775 C204.663566,124.944225 196.723411,110.494648 189.997209,107.231549 C189.183126,106.833021 188.334301,106.510167 187.461395,106.267042 L187.461395,106.267042 Z" id="Path" fill="#3D3D3C"></path>
                            <path d="M177.785736,88.5814085 L148.372093,76.4214085 C144.714187,74.9187567 140.518199,76.4824181 138.727781,80.0154219 C136.937363,83.5484257 138.152184,87.8674534 141.52,89.9425352 L179.970853,118.363944 C196.930233,128.748169 207.550078,107.547042 201.857984,102.814648 C201.138605,102.228732 197.829457,95.2788732 177.785736,88.5814085 Z" id="Path" fill="#3D3D3C"></path>
                            <path d="M207.11845,74.6456338 L207.568062,76.4484507 L199.771783,110.701972 L204.456744,112.072113 L216.776124,77.6473239 L217.117829,76.691831 L216.848062,75.3216901 L216.065736,71.3194366 L211.569612,48.3966197 C209.510388,42.8890141 199.978605,45.3138028 200.976744,50.7943662 L207.11845,74.6456338 Z" id="Path" fill="#EC9F09"></path>
                            <path d="M200.149457,109.160563 C200.149457,109.160563 198.126202,112.04507 197.397829,112.477746 C196.669457,112.910423 192.901705,114.740282 192.820775,114.95662 C192.739845,115.172958 193.477209,115.858028 194.043721,115.858028 C195.17029,115.670969 196.284406,115.415093 197.379845,115.091831 C197.379845,115.091831 195.365581,120.247887 194.835039,120.680563 L193.594109,121.753239 C193.32265,122.012943 193.205275,122.395366 193.28415,122.763118 C193.363025,123.130871 193.626825,123.431142 193.980775,123.556056 C196.048992,124.169014 199.457054,124.727887 201.435349,122.582535 C204.420775,119.328451 205.742636,113.162817 205.337984,111.765634 C204.933333,110.368451 202.775194,107.907606 200.149457,109.160563 Z" id="Path" fill="#FDCEA2"></path>
                            <path d="M170.654884,46.1791549 C177.372093,34.3346479 202.046822,36.6692958 207.217364,40.1397183 C210.845509,43.0277568 212.449812,47.7782922 211.317829,52.2816901 C211.317829,52.2816901 207.936744,69.3092958 207.055504,81.5053521 C206.893643,83.731831 204.861395,110.738028 204.564651,111.350986 C202.262636,116.092394 159.090853,113.261972 163.72186,102.958873 C173.154729,66.4969014 163.425116,58.9340845 170.654884,46.1791549 Z" id="Path" fill="#FFB82E"></path>
                            <path d="M231.487442,66.4969014 L231.487442,66.4969014 L197.388837,87.0850704 L191.606822,90.5464789 C189.570951,91.7640984 188.085086,93.7252916 187.461395,96.0180282 L176.463876,136.36507 C176.463876,136.36507 174.188837,144.531831 174.062946,144.83831 L174.062946,144.83831 C173.514226,146.452748 172.390291,147.807314 170.906667,148.642254 L170.906667,148.642254 C168.77052,150.024456 166.122698,150.356237 163.712868,149.543662 C163.416124,149.444507 162.426977,148.984789 162.292093,148.903662 L134.892713,133.138028 C132.740982,131.901343 131.416084,129.602946 131.421705,127.11662 L130.900155,119.499718 L130.900155,119.499718 C131.111496,121.971442 132.524266,124.18004 134.676899,125.403944 L153.64155,136.662535 L157.67907,138.943099 C159.856972,140.177563 162.479261,140.34293 164.794325,139.391801 C167.109388,138.440671 168.861638,136.478052 169.548837,134.066479 L179.63814,97.8388732 L179.88093,96.9825352 L181.949147,89.7712676 C182.606285,87.4662406 184.131442,85.50749 186.202481,84.3087324 L220.696744,64.2433803 C225.12093,61.6833803 228.789767,60.6377465 231.00186,64.2433803 C231.389616,64.9271743 231.55908,65.7136375 231.487442,66.4969014 L231.487442,66.4969014 Z" id="Path" fill="#3C57AB"></path>
                            <path d="M231.487442,66.5059155 C231.474333,66.8109426 231.426053,67.1134243 231.343566,67.4073239 L216.191628,120.608451 C215.825087,121.937924 214.953493,123.070513 213.763721,123.76338 L170.897674,148.669296 C171.579273,148.231188 172.186451,147.686445 172.696124,147.055775 L172.696124,147.055775 C173.469595,146.132258 174.036832,145.053427 174.35969,143.891831 L187.416434,96.0360563 C188.046214,93.7414242 189.534182,91.7784776 191.570853,90.555493 L197.36186,87.0940845 L231.487442,66.5059155 Z" id="Path" fill="#6582DB"></path>
                            <path d="M119.740775,65.5053521 C131.026047,65.7938028 141.052403,67.308169 152.193798,65.1808451 C159.333643,59.2405634 165.484341,52.6692958 172.093643,46.1340845 C174.611473,49.0005634 177.381085,51.7228169 179.701085,54.715493 C174.548527,59.5740845 162.903566,70.0394366 158.75814,72.9509859 L157.310388,73.915493 C157.265426,73.915493 157.139535,74.0777465 156.905736,74.2760563 C157.004651,74.2760563 157.022636,74.2760563 156.905736,74.2760563 L156.779845,74.3842254 C155.88062,74.3842254 155.682791,74.3842254 155.808682,74.3842254 L154.190078,74.5014085 C147.580775,74.9521127 128.310388,73.0771831 119.246202,70.5983099 C118.931473,68.9487324 119.650853,67.2 119.740775,65.5053521 Z" id="Path" fill="#EC9F09"></path>
                            <path d="M120.397209,65.4242254 C121.548217,66.4067606 123.049922,69.6157746 120.702946,71.5898592 C120.702946,71.5898592 119.354109,71.8422535 118.131163,72.1487324 L118.131163,72.1487324 L113.796899,71.6349296 C113.796899,71.6349296 107.987907,71.3104225 107.331473,71.6349296 L105.775814,72.3560563 C105.400507,72.5309591 104.959925,72.4868069 104.626585,72.2408884 C104.293246,71.9949699 104.120195,71.586419 104.175194,71.1752113 C104.489922,68.9126761 105.452093,65.4061972 108.374574,64.4416901 C112.780775,62.9994366 119.255194,64.4326761 120.397209,65.4242254 Z" id="Path" fill="#F6CF9F"></path>
                        </g>
                        <path d="M180.56,83.17 C180.56,83.8824473 179.982447,84.46 179.27,84.46 C178.557553,84.46 177.98,83.8824473 177.98,83.17 C177.98,82.4575527 178.557553,81.88 179.27,81.88 C179.982447,81.88 180.56,82.4575527 180.56,83.17 L180.56,83.17 Z" id="Path" fill="#E2E2E2" fill-rule="nonzero"></path>
                        <path d="M186.18,83.17 C186.18,83.6917563 185.865702,84.1621371 185.383662,84.3618046 C184.901622,84.5614721 184.34677,84.4511052 183.977832,84.0821677 C183.608895,83.7132303 183.498528,83.1583783 183.698195,82.6763384 C183.897863,82.1942984 184.368244,81.88 184.89,81.88 C185.602447,81.88 186.18,82.4575527 186.18,83.17 L186.18,83.17 Z" id="Path" fill="#E2E2E2" fill-rule="nonzero"></path>
                        <path d="M191.8,83.17 C191.8,83.8824473 191.222447,84.46 190.51,84.46 C189.797553,84.46 189.22,83.8824473 189.22,83.17 C189.22,82.4575527 189.797553,81.88 190.51,81.88 C191.222447,81.88 191.8,82.4575527 191.8,83.17 L191.8,83.17 Z" id="Path" fill="#E2E2E2" fill-rule="nonzero"></path>
                        <path d="M225.45,83.17 C225.454052,83.696692 225.139899,84.1737796 224.654457,84.3781495 C224.169015,84.5825194 223.608229,84.4737789 223.234356,84.1027811 C222.860482,83.7317834 222.747414,83.1718544 222.94803,82.6848488 C223.148645,82.1978433 223.623292,81.8800156 224.15,81.88 C224.493859,81.8773343 224.82455,82.012067 225.068639,82.2542784 C225.312728,82.4964899 225.45001,82.826131 225.45,83.17 L225.45,83.17 Z" id="Path" fill="#E2E2E2" fill-rule="nonzero"></path>
                        <path d="M231.07,83.17 C231.074052,83.696692 230.759899,84.1737796 230.274457,84.3781495 C229.789015,84.5825194 229.228229,84.4737789 228.854356,84.1027811 C228.480482,83.7317834 228.367414,83.1718544 228.56803,82.6848488 C228.768645,82.1978433 229.243292,81.8800156 229.77,81.88 C230.113859,81.8773343 230.44455,82.012067 230.688639,82.2542784 C230.932728,82.4964899 231.07001,82.826131 231.07,83.17 L231.07,83.17 Z" id="Path" fill="#E2E2E2" fill-rule="nonzero"></path>
                        <path d="M236.69,83.17 C236.694043,83.6975991 236.3788,84.1753147 235.892125,84.3790903 C235.40545,84.5828658 234.843879,84.4722805 234.470799,84.0992006 C234.09772,83.7261208 233.987134,83.1645503 234.19091,82.6778752 C234.394685,82.1912001 234.872401,81.8759569 235.4,81.88 C236.112447,81.88 236.69,82.4575527 236.69,83.17 L236.69,83.17 Z" id="Path" fill="#E2E2E2" fill-rule="nonzero"></path>
                        <rect id="Rectangle" fill="#5F84F3" fill-rule="nonzero" x="163.07" y="59.38" width="43.67" height="18.58"></rect>
                        <rect id="Rectangle" fill="#E2E2E2" fill-rule="nonzero" x="210.32" y="59.81" width="18.13" height="7.72"></rect>
                        <rect id="Rectangle" fill="#E2E2E2" fill-rule="nonzero" x="231.15" y="59.81" width="18.13" height="7.72"></rect>
                        <rect id="Rectangle" fill="#E2E2E2" fill-rule="nonzero" x="210.32" y="70.25" width="18.13" height="7.72"></rect>
                        <rect id="Rectangle" fill="#E2E2E2" fill-rule="nonzero" x="231.15" y="70.25" width="18.13" height="7.72"></rect>
                        <rect id="Rectangle" fill="#E2E2E2" fill-rule="nonzero" x="163.63" y="88.13" width="85.64" height="2.27"></rect>
                        <rect id="Rectangle" fill="#5F84F3" fill-rule="nonzero" x="163.63" y="92.21" width="29.66" height="2.27"></rect>
                        <rect id="Rectangle" fill="#E2E2E2" fill-rule="nonzero" x="199.54" y="92.21" width="49.38" height="2.27"></rect>
                        <rect id="Rectangle" fill="#E2E2E2" fill-rule="nonzero" x="163.63" y="96.29" width="85.64" height="2.27"></rect>
                        <rect id="Rectangle" fill="#E2E2E2" fill-rule="nonzero" x="163.63" y="100.37" width="61.57" height="2.27"></rect>
                        <rect id="Rectangle" fill="#5F84F3" fill-rule="nonzero" x="231.93" y="100.37" width="16.99" height="2.27"></rect>
                        <rect id="Rectangle" fill="#E2E2E2" fill-rule="nonzero" x="163.63" y="104.45" width="85.64" height="2.27"></rect>
                        <rect id="Rectangle" fill="#EF4357" fill-rule="nonzero" x="158.51" y="159.06" width="33.18" height="3.29"></rect>
                        <rect id="Rectangle" fill="#E2E2E2" fill-rule="nonzero" x="158.51" y="164.97" width="63.86" height="3.29"></rect>
                        <rect id="Rectangle" fill="#E2E2E2" fill-rule="nonzero" x="124.89" y="188.73" width="76.46" height="1.36"></rect>
                        <rect id="Rectangle" fill="#E2E2E2" fill-rule="nonzero" x="124.89" y="193.11" width="63.86" height="1.36"></rect>
                        <rect id="Rectangle" fill="#DD1281" fill-rule="nonzero" x="112.96" y="174.36" width="109.41" height="6.43"></rect>
                        <polygon id="Path" fill="#E2E2E2" fill-rule="nonzero" points="137.63 149.72 145.07 159.06 152.51 168.4 137.63 168.4 122.74 168.4 130.19 159.06"></polygon>
                        <polygon id="Path" fill="#DD1281" fill-rule="nonzero" points="123.73 154.87 129.12 161.64 134.51 168.4 123.73 168.4 112.95 168.4 118.34 161.64"></polygon>
                        <circle id="Oval" fill="#DD1281" fill-rule="nonzero" cx="117.36" cy="191.6" r="4.4"></circle>
                        <rect id="Rectangle" fill="#E2E2E2" fill-rule="nonzero" x="124.89" y="201.69" width="76.46" height="1.36"></rect>
                        <rect id="Rectangle" fill="#E2E2E2" fill-rule="nonzero" x="124.89" y="206.07" width="63.86" height="1.36"></rect>
                        <circle id="Oval" fill="#EF4357" fill-rule="nonzero" cx="117.36" cy="204.56" r="4.4"></circle>
                        <rect id="Rectangle" fill="#E2E2E2" fill-rule="nonzero" x="124.89" y="214.65" width="76.46" height="1.36"></rect>
                        <rect id="Rectangle" fill="#E2E2E2" fill-rule="nonzero" x="124.89" y="219.03" width="63.86" height="1.36"></rect>
                        <circle id="Oval" fill="#DD1281" fill-rule="nonzero" cx="117.36" cy="217.52" r="4.4"></circle>
                        <rect id="Rectangle" fill="#E2E2E2" fill-rule="nonzero" x="124.89" y="227.61" width="76.46" height="1.36"></rect>
                        <rect id="Rectangle" fill="#E2E2E2" fill-rule="nonzero" x="124.89" y="231.99" width="63.86" height="1.36"></rect>
                        <path d="M121.76,230.48 C121.76,232.910053 119.790053,234.88 117.36,234.88 C114.929947,234.88 112.96,232.910053 112.96,230.48 C112.96,228.049947 114.929947,226.08 117.36,226.08 C119.790053,226.08 121.76,228.049947 121.76,230.48 Z" id="Path" fill="#DD1281" fill-rule="nonzero"></path>
                        <rect id="Rectangle" fill="#E2E2E2" fill-rule="nonzero" x="209.87" y="188.43" width="12.5" height="6.04"></rect>
                        <rect id="Rectangle" fill="#EF4357" fill-rule="nonzero" x="209.87" y="201.54" width="12.5" height="6.04"></rect>
                        <rect id="Rectangle" fill="#DD1281" fill-rule="nonzero" x="209.87" y="214.65" width="12.5" height="6.04"></rect>
                        <rect id="Rectangle" fill="#E2E2E2" fill-rule="nonzero" x="209.87" y="227.76" width="12.5" height="6.04"></rect>
                        <rect id="Rectangle" fill="#E2E2E2" fill-rule="nonzero" x="255.74" y="181.29" width="9.85" height="47.63"></rect>
                        <rect id="Rectangle" fill="#E2E2E2" fill-rule="nonzero" x="270.85" y="181.29" width="9.85" height="47.63"></rect>
                        <rect id="Rectangle" fill="#E2E2E2" fill-rule="nonzero" x="285.96" y="181.29" width="9.85" height="47.63"></rect>
                        <rect id="Rectangle" fill="#E2E2E2" fill-rule="nonzero" x="301.06" y="181.29" width="9.85" height="47.63"></rect>
                        <rect id="Rectangle" fill="#E2E2E2" fill-rule="nonzero" x="316.17" y="181.29" width="9.85" height="47.63"></rect>
                        <path d="M326,228.92 L326,187.69 L316.15,187.69 L316.15,228.37 C316.147049,228.555356 316.123572,228.739814 316.08,228.92 L326,228.92 Z" id="Path" fill="#059ADB" fill-rule="nonzero"></path>
                        <polygon id="Path" fill="#03E59F" fill-rule="nonzero" points="341.13 181.29 331.28 181.29 331.28 228.88 341.14 228.88"></polygon>
                        <polygon id="Path" fill="#6582FF" fill-rule="nonzero" points="310.92 228.92 310.92 197.59 301.06 197.59 301.06 228.92"></polygon>
                        <polygon id="Path" fill="#03E59F" fill-rule="nonzero" points="295.81 228.92 295.81 206 286 206 286 228.86 286 228.95"></polygon>
                        <polygon id="Path" fill="#059ADB" fill-rule="nonzero" points="280.71 228.92 280.71 209.32 270.85 209.32 270.85 228.89"></polygon>
                        <rect id="Rectangle" fill="#6582FF" fill-rule="nonzero" x="255.74" y="215.06" width="9.85" height="13.85"></rect>
                        <rect id="Rectangle" fill="#E2E2E2" fill-rule="nonzero" x="255.69" y="230.89" width="9.95" height="3.32"></rect>
                        <path d="M270.8,230.89 L280.76,230.89" id="Path" fill="#E6E7E7" fill-rule="nonzero"></path>
                        <rect id="Rectangle" fill="#E2E2E2" fill-rule="nonzero" x="285.91" y="230.89" width="9.95" height="3.32"></rect>
                        <rect id="Rectangle" fill="#E2E2E2" fill-rule="nonzero" x="301.02" y="230.89" width="9.95" height="3.32"></rect>
                        <rect id="Rectangle" fill="#E2E2E2" fill-rule="nonzero" x="316.12" y="230.89" width="9.95" height="3.32"></rect>
                        <rect id="Rectangle" fill="#E2E2E2" fill-rule="nonzero" x="331.23" y="230.89" width="9.95" height="3.32"></rect>
                        <rect id="Rectangle" fill="#E2E2E2" fill-rule="nonzero" x="270.91" y="230.89" width="9.95" height="3.32"></rect>
                        <rect id="Rectangle" fill="#E2E2E2" fill-rule="nonzero" x="346.16" y="182.24" width="14.73" height="1.97"></rect>
                        <rect id="Rectangle" fill="#E2E2E2" fill-rule="nonzero" x="346.16" y="187.24" width="14.73" height="1.97"></rect>
                        <rect id="Rectangle" fill="#E2E2E2" fill-rule="nonzero" x="346.16" y="192.24" width="14.73" height="1.97"></rect>
                    </g>
                </g>
            </g>
        </g>
    </g>
</svg>