<?xml version="1.0" encoding="UTF-8"?>
<svg width="427px" height="345px" viewBox="0 0 427 345" version="1.1" xmlns="http://www.w3.org/2000/svg" xmlns:xlink="http://www.w3.org/1999/xlink">
    <!-- Generator: Sketch 54.1 (76490) - https://sketchapp.com -->
    <title>Group</title>
    <desc>Created with Sketch.</desc>
    <defs>
        <path d="M5.47588235,0.0171167401 C2.71456303,0.0171167401 0.475655462,2.26031057 0.475655462,5.02781718 L0.475655462,5.02781718 L0.475655462,80.8585793 C0.475655462,83.6260859 2.71456303,85.8692797 5.47588235,85.8692797 L5.47588235,85.8692797 L61.6032269,85.8692797 C64.3645462,85.8692797 66.6043529,83.6260859 66.6043529,80.8585793 L66.6043529,80.8585793 L66.6043529,5.02781718 C66.6043529,2.26031057 64.3645462,0.0171167401 61.6032269,0.0171167401 L61.6032269,0.0171167401 L5.47588235,0.0171167401 Z" id="path-1"></path>
        <path d="M5.47588235,0.0171167401 C2.71366387,0.0171167401 0.475655462,2.26031057 0.475655462,5.02781718 L0.475655462,5.02781718 L0.475655462,80.8585793 C0.475655462,83.6260859 2.71366387,85.8692797 5.47588235,85.8692797 L5.47588235,85.8692797 L61.6032269,85.8692797 C64.3654454,85.8692797 66.6034538,83.6260859 66.6034538,80.8585793 L66.6034538,80.8585793 L66.6034538,5.02781718 C66.6034538,2.26031057 64.3654454,0.0171167401 61.6032269,0.0171167401 L61.6032269,0.0171167401 L5.47588235,0.0171167401 Z" id="path-3"></path>
        <path d="M5.47588235,0.016215859 C2.71366387,0.016215859 0.475655462,2.26031057 0.475655462,5.0269163 L0.475655462,5.0269163 L0.475655462,80.8594802 C0.475655462,83.6260859 2.71366387,85.8692797 5.47588235,85.8692797 L5.47588235,85.8692797 L61.6032269,85.8692797 C64.3654454,85.8692797 66.6034538,83.6260859 66.6034538,80.8594802 L66.6034538,80.8594802 L66.6034538,5.0269163 C66.6034538,2.26031057 64.3654454,0.016215859 61.6032269,0.016215859 L61.6032269,0.016215859 L5.47588235,0.016215859 Z" id="path-5"></path>
        <polygon id="path-7" points="0.0986325258 0.463020207 110.902229 0.463020207 110.902229 100.621485 0.0986325258 100.621485"></polygon>
    </defs>
    <g id="Page-1" stroke="none" stroke-width="1" fill="none" fill-rule="evenodd">
        <g id="Group">
            <g id="pricing-phone">
                <g id="Group-31" transform="translate(10.789916, 0.520709)" fill-rule="nonzero">
                    <path d="M376.181518,259.862744 C380.777124,254.934925 385.753972,249.309824 390.586955,243.057709 C391.350342,242.081154 392.109233,241.082077 392.863628,240.061379 C394.90472,237.306485 396.908048,234.443485 398.813367,231.476883 C408.758073,216.06461 416.437796,197.819967 416.07993,177.573566 C416.070039,177.042046 416.053855,176.512328 416.029577,175.984412 C416.034073,175.929458 416.030476,175.876306 416.027779,175.822253 C415.958544,174.028599 415.816476,172.25026 415.615964,170.490839 C415.618661,170.467416 415.615964,170.452101 415.611468,170.43048 C414.286107,158.604615 410.242586,147.555308 404.576981,137.436612 C404.487964,137.269949 404.400745,137.110493 404.305434,136.944731 C403.187779,134.965496 401.998191,133.01689 400.756451,131.109725 C400.458829,130.637663 400.154913,130.175511 399.843804,129.71426 C399.529997,129.237694 399.208098,128.76383 398.886199,128.289066 C394.515384,121.944161 389.582594,116.024471 384.415124,110.569637 C382.73909,108.806612 381.043275,107.094037 379.33667,105.437317 C376.872972,103.033767 374.37151,100.744628 371.884434,98.561793 C368.314771,95.4357357 364.754098,92.5394031 361.294132,89.8691916 C349.165367,80.5216498 330.572544,67.5624758 309.23009,63.0607731 C283.393636,57.6095419 255.038636,65.8589097 235.379409,83.5017643 C231.247771,87.1980793 227.502771,91.3087996 224.244216,95.7987907 C223.294703,97.1077709 222.368569,98.4581916 221.486493,99.8302335 C219.353687,103.082414 217.362947,106.45261 215.417166,109.74443 C215.41267,109.760645 215.406376,109.769654 215.394687,109.787672 C210.099535,118.777564 204.638939,128.048531 196.540208,134.480822 C195.811888,135.063692 195.061989,135.620436 194.283317,136.151956 C191.897846,137.795163 189.320855,139.185222 186.551443,140.314026 C181.276972,142.476141 175.302955,143.710348 168.575443,144.024756 C167.795871,144.062593 166.998317,144.087817 166.198065,144.098628 C159.828418,144.201328 152.812275,143.524767 145.101981,142.064438 C140.749149,141.240132 136.322586,140.245559 132.040787,139.283419 C121.778678,136.975361 111.210855,134.606044 100.58009,134.367311 C98.5066277,134.308753 96.4376613,134.342086 94.3659975,134.475416 C74.331821,135.722236 57.0346866,145.722916 43.9096529,156.607361 C42.9484513,157.408244 42.0088294,158.204623 41.094384,159.011813 C37.8574092,161.844183 34.910863,164.700877 32.2718294,167.439555 C31.1280983,168.626916 29.9214261,169.925987 28.6661992,171.328659 C15.9592748,185.549967 -1.22726303,210.508877 0.983770588,239.74607 C2.06815714,254.186293 7.79400588,268.642731 18.3573336,283.499161 C20.5980395,286.652244 23.0590395,289.825148 25.7412328,293.018771 C26.2726361,293.054806 26.8049387,293.08904 27.336342,293.124174 C24.4671235,289.750374 21.8451739,286.400899 19.4740899,283.074846 C8.91435882,268.311207 3.2037958,253.967379 2.1248042,239.664991 C-0.0205907563,211.271923 16.4466193,186.902189 28.9584261,172.744844 C30.4024765,171.101637 31.7988714,169.600769 33.1017538,168.24224 C35.5870311,165.658513 38.3456529,162.979293 41.3605353,160.301874 C42.9538462,158.898302 44.6163924,157.489324 46.3535689,156.102868 C52.5811487,151.11559 59.6818126,146.396775 67.5260815,142.737396 C75.7426025,138.900544 84.7701655,136.225828 94.4397286,135.619535 C97.0077286,135.460079 99.5757286,135.447467 102.146426,135.565482 C112.136989,135.991599 122.098779,138.230289 131.794418,140.408619 C136.08251,141.368958 140.518964,142.369837 144.887981,143.198648 C151.304384,144.40763 157.248729,145.088696 162.748888,145.228333 C163.99872,145.263467 165.228771,145.272476 166.433645,145.240044 C176.139174,145.075183 184.378174,143.103154 191.296308,139.333868 C192.552434,138.649198 193.764502,137.90507 194.934308,137.098782 C195.867636,136.458256 196.770392,135.785297 197.635384,135.073601 C205.567771,128.622392 210.960031,119.58115 216.159871,110.765128 C216.232703,110.6345 216.315426,110.509278 216.389157,110.37865 C218.25851,107.203044 220.175518,103.956269 222.207619,100.823905 C223.168821,99.3437577 224.157897,97.8879339 225.179342,96.4789559 C228.334493,92.1267996 231.958107,88.1331938 235.94588,84.5278678 C255.34435,67.0084339 283.42151,58.7932996 308.999905,64.190478 C330.107678,68.6399295 348.555737,81.497304 360.594586,90.7790815 C363.925972,93.3519978 367.355367,96.1366211 370.790157,99.1356542 C373.056939,101.109485 375.336308,103.18061 377.586006,105.335518 C379.501216,107.173315 381.405636,109.074174 383.276787,111.037194 C388.259031,116.266808 393.030871,121.934251 397.274905,127.99628 C398.201939,129.311566 399.101997,130.647573 399.968787,132.006101 C400.270006,132.453839 400.558636,132.919595 400.845468,133.378143 C401.711359,134.768203 402.548476,136.171775 403.349628,137.589762 C403.436846,137.749218 403.522266,137.902368 403.607687,138.054617 C409.158199,147.988632 413.125292,158.812718 414.451552,170.383634 C414.45335,170.391742 414.45425,170.398949 414.45425,170.398949 C414.653863,172.150262 414.794132,173.921394 414.868762,175.70604 C414.872359,175.760093 414.876855,175.820452 414.880451,175.873604 C414.919115,176.76998 414.941594,177.669059 414.939796,178.558229 C415.041401,197.969513 407.661098,215.53309 398.094039,230.458888 C396.331687,233.218286 394.490208,235.893002 392.605569,238.468621 C391.733384,239.668595 390.848611,240.847848 389.959342,241.997372 C385.063418,248.35489 380.006544,254.081791 375.340804,259.078077 C374.399384,260.091568 373.51551,261.046502 372.683787,261.952789 C362.790334,272.776874 360.585594,276.967773 360.1513,288.754 C360.540636,288.709857 360.929073,288.664813 361.316611,288.62067 C361.760796,277.458753 363.919678,273.296683 373.210695,263.087899 C374.127838,262.071705 375.119611,261.001458 376.181518,259.862744" id="Fill-1" fill="#DAEBFE"></path>
                    <path d="M358.827467,264.566154 C361.241711,261.262624 364.401358,257.643784 368.523106,253.223161 C368.60403,253.128569 368.692148,253.033075 368.774871,252.946591 C374.812728,246.476463 380.082703,240.211736 384.609971,234.092952 C386.779644,231.172295 388.783871,228.277765 390.617257,225.412062 C391.143266,224.59226 391.65219,223.768855 392.15482,222.94635 C396.823257,215.298771 400.278728,207.871007 402.564392,200.569366 C403.996753,195.984782 404.975938,191.447945 405.49745,186.936333 C405.547803,186.508414 405.599055,186.080496 405.635022,185.656181 C405.6584,185.434564 405.682677,185.213848 405.698862,184.994033 C405.960518,182.065269 406.02256,179.147315 405.909266,176.234767 C405.825644,174.181659 405.645812,172.14837 405.36977,170.134 C405.352686,169.975445 405.328408,169.818692 405.302333,169.653831 C405.304131,169.630408 405.300534,169.607886 405.295139,169.585364 C404.333039,162.815243 402.344097,156.30998 399.607955,150.107414 C399.532425,149.92904 399.458694,149.759674 399.37777,149.590309 C399.329215,149.46869 399.275266,149.35698 399.221316,149.24437 C399.091837,148.954287 398.963257,148.664203 398.827484,148.382227 C398.690812,148.093945 398.554139,147.805663 398.410274,147.518282 C397.401417,145.393104 396.292753,143.312069 395.115753,141.267969 C391.773576,135.459989 387.831661,129.961011 383.546266,124.819683 C380.713013,121.409848 377.728703,118.163073 374.676955,115.076654 C372.290585,112.672203 369.870946,110.366848 367.435123,108.173203 C366.069299,106.940798 364.704375,105.74713 363.345745,104.582291 C360.565543,102.212974 357.806022,99.9850949 355.108543,97.9076632 C336.838518,83.8160817 322.041946,76.1315663 307.145568,72.9874914 C299.544072,71.3812205 291.611686,71.0875333 283.574097,72.1208438 C266.264375,74.3433174 249.908661,82.6188108 238.28882,94.7762007 C236.173997,96.9824584 234.22282,99.3166412 232.442484,101.762533 C229.521114,105.788571 226.911753,110.206491 224.137845,114.912694 C224.124358,114.923505 224.120761,114.93972 224.114467,114.948729 C222.267593,118.081093 220.402736,121.24769 218.410198,124.347621 C218.403904,124.35663 218.390417,124.36654 218.38682,124.383657 C215.913232,128.224113 213.249022,131.965472 210.181988,135.433864 C207.582518,138.366231 204.696215,141.102207 201.391803,143.530983 C200.943123,143.863408 200.48545,144.189527 200.018787,144.509339 C197.199022,146.444432 194.159862,148.09935 190.913896,149.465086 C186.076417,151.499276 180.775871,152.89474 175.076097,153.623553 C169.722501,154.311826 164.029022,154.436148 157.885963,153.989311 C153.272375,153.659588 148.39803,153.004648 143.226963,152.032597 C140.969173,151.602877 138.712282,151.133518 136.46798,150.654249 C134.230871,150.17408 132.00545,149.674991 129.820492,149.184011 C121.435829,147.298467 113.374862,145.485894 105.458661,144.786811 C101.943845,144.469701 98.4596017,144.377811 94.9915429,144.59222 C93.7569966,144.668795 92.4855849,144.792216 91.2294588,144.951672 C83.2431227,145.974172 75.732442,148.591231 68.8664588,152.087551 C64.2483748,154.439751 59.9126269,157.182033 55.9212571,160.099987 C51.2986773,163.472886 47.1247782,167.077311 43.4777866,170.580837 C42.0984756,171.901529 40.7928958,173.206005 39.5655429,174.47895 C37.0532908,177.084298 34.1903664,180.271615 31.2689966,183.95802 C20.7353412,197.227998 9.41851765,216.925762 11.0837613,238.981132 C12.107005,252.523176 17.9713244,266.302152 28.9033076,280.742375 C32.1816437,285.079216 35.9302403,289.483624 40.1383076,293.951093 C40.7011815,293.986227 41.2649546,294.021361 41.8278286,294.055595 C37.4722992,289.490831 33.5942235,285.002641 30.2115849,280.572108 C19.1636101,266.133687 13.2489378,252.372729 12.224795,238.900053 C10.6179966,217.613135 21.3404756,198.517159 31.5720134,185.432762 C34.6750134,181.461679 37.7366521,178.040132 40.3945681,175.281635 C41.4564756,174.181659 42.5741311,173.04745 43.7529294,171.915042 C47.3855345,168.383588 51.5522403,164.741326 56.1748202,161.32969 C60.2749882,158.304531 64.7303244,155.468557 69.4958706,153.046989 C76.227879,149.647965 83.5677193,147.097571 91.3724252,146.096692 C92.6051731,145.934533 93.8469126,145.817419 95.0661731,145.743546 C98.5782908,145.520128 102.119182,145.623729 105.699635,145.957956 C113.435106,146.679562 121.356703,148.450694 129.588509,150.305608 C130.948039,150.611908 132.324652,150.922712 133.706661,151.224507 C136.771896,151.905573 139.887484,152.56772 143.011165,153.158698 C147.372089,153.981203 151.523509,154.576685 155.489703,154.947848 C162.603854,155.611798 169.128156,155.546934 175.219064,154.768573 C182.768408,153.796522 189.620904,151.693866 195.659661,148.484928 C197.400434,147.569632 199.067476,146.560646 200.669778,145.457066 C201.615694,144.805729 202.521148,144.139978 203.403224,143.439994 C206.646492,140.90041 209.47435,138.06804 212.025266,135.053692 C217.172955,128.983555 221.1904,122.181903 225.124224,115.505474 C227.876551,110.841613 230.470627,106.427295 233.368618,102.437293 C234.96103,100.238243 236.7054,98.1400905 238.570257,96.1401346 C250.049829,83.8647293 266.400148,75.4892381 283.717064,73.2658637 C291.627871,72.2505707 299.434375,72.5316456 306.906392,74.1108901 C321.632829,77.2198306 336.276543,84.8358791 354.408097,98.8166522 C357.061518,100.865256 359.781476,103.054397 362.514022,105.379571 C363.835787,106.512879 365.171039,107.674115 366.490106,108.870485 C368.894459,111.023591 371.283526,113.289306 373.628534,115.648714 C376.355686,118.391897 379.023492,121.263906 381.578005,124.260236 C383.510299,126.518745 385.379652,128.852928 387.157291,131.260082 C387.614963,131.868176 388.058249,132.487082 388.502434,133.106888 C390.564207,135.996013 392.491106,138.981533 394.244467,142.058042 C395.508686,144.261597 396.682089,146.507494 397.755686,148.797533 C397.904047,149.106535 398.047013,149.424546 398.180988,149.737152 C398.458829,150.336238 398.720484,150.93172 398.975845,151.535311 C399.215921,152.103767 399.455097,152.665016 399.679887,153.228967 C399.794081,153.522654 399.910072,153.822648 400.024266,154.115434 C401.695803,158.445069 402.986097,162.908033 403.794442,167.507932 C403.825013,167.655676 403.854686,167.797115 403.869971,167.948463 C404.161299,169.588066 404.378896,171.242985 404.529955,172.911417 C404.636055,174.025806 404.713383,175.152809 404.760139,176.27891 C404.895013,179.666223 404.783518,183.05804 404.397778,186.467875 C403.724308,192.525399 402.218215,198.631571 399.857022,204.852154 C397.735005,210.474553 394.908946,216.196049 391.359064,222.044569 C391.038064,222.582394 390.701778,223.122923 390.350207,223.666154 C388.406224,226.779599 386.254534,229.936287 383.888845,233.137117 C379.352585,239.289234 374.052938,245.599005 367.971921,252.123185 C367.959333,252.133996 367.947644,252.152013 367.934156,252.161923 C364.615358,255.722205 361.901694,258.769886 359.679871,261.546401 C353.568282,269.198485 351.230467,274.819082 350.378963,283.572042 C350.195534,285.494522 350.083139,287.579161 350.017501,289.865597 C350.400543,289.825057 350.788081,289.785419 351.170224,289.743978 C351.251148,287.082776 351.400408,284.695441 351.659366,282.518912 C352.491988,275.547894 354.436871,270.56422 358.827467,264.566154" id="Fill-3" fill="#DAEBFE"></path>
                    <path d="M361.374337,246.022058 C362.304068,245.026585 363.216715,244.026607 364.11048,243.046448 C369.396639,237.195226 373.991345,231.549404 377.923371,226.062138 C380.533631,222.433389 382.848068,218.872206 384.874774,215.370481 C385.095967,214.984904 385.318959,214.606534 385.525766,214.224561 C386.092236,213.226384 386.629934,212.242622 387.13706,211.257058 C390.468446,204.874316 392.819749,198.678957 394.233228,192.615127 C394.33753,192.184506 394.434639,191.754785 394.523656,191.326867 C394.590194,191.011558 394.654934,190.689944 394.713379,190.376437 C395.617934,185.738702 395.9749,181.175739 395.790572,176.647911 C395.602648,172.06603 394.842858,167.586849 393.612808,163.228387 C393.133555,161.5041 392.573379,159.79603 391.946665,158.101472 C391.826177,157.778957 391.70569,157.456442 391.576211,157.12762 C390.395614,154.095254 389.003715,151.122347 387.426589,148.226014 C382.447043,139.03973 375.690757,130.598475 368.399471,123.117558 C367.499413,122.19866 366.597555,121.303184 365.689404,120.416717 C364.53848,119.287012 363.369572,118.183433 362.20606,117.110483 C361.824816,116.756437 361.444471,116.410499 361.065925,116.070867 C360.628034,115.667272 360.18385,115.271785 359.739665,114.877199 C358.520404,113.791638 357.300245,112.738508 356.083682,111.706999 C353.673034,109.670107 351.27048,107.747627 348.929068,105.936856 C331.926858,92.8272346 318.391808,85.7237874 305.052774,82.9076333 C298.564438,81.5355914 291.769488,81.2923535 284.858547,82.1788205 C267.270984,84.4346267 250.864018,93.8488337 240.887841,107.389977 C240.802421,107.500785 240.7179,107.610693 240.639673,107.719699 C237.982656,111.382682 235.489287,115.613219 232.840362,120.101409 C230.507043,124.05988 228.066724,128.210239 225.291917,132.314653 C222.626808,136.272224 219.66048,140.191957 216.200513,143.857642 C216.049455,144.019801 215.897497,144.18286 215.744639,144.337812 C212.804387,147.409816 209.515261,150.290834 205.755875,152.875461 C204.864808,153.491664 203.951261,154.082642 203.026026,154.644792 C195.263581,159.376219 186.31874,162.413089 176.362345,163.688737 C170.354161,164.458089 164.008791,164.601329 157.199455,164.106746 C152.186639,163.750898 146.914866,163.039202 141.342774,161.99508 C141.190816,161.96445 141.037959,161.934721 140.885102,161.904091 C136.346144,161.041047 131.919581,160.046475 127.637782,159.084334 C122.207757,157.86364 116.939581,156.679882 111.826959,155.842964 C110.404488,155.603329 109.001799,155.390721 107.609001,155.222257 C103.48006,154.699746 99.4814966,154.474525 95.6259,154.71416 C94.5972613,154.779924 93.553337,154.879922 92.5157067,155.015955 C86.1847235,155.82945 80.1405723,157.849226 74.5235218,160.593309 C73.4634126,161.105911 72.4176899,161.646439 71.3926479,162.213094 C68.2078244,163.952695 65.1812529,165.898598 62.3273202,167.964318 C56.3263286,172.293052 51.0923202,177.121774 46.8581773,181.518975 C46.5533622,181.836986 46.2485471,182.154997 45.9320429,182.491025 C42.3156227,186.327878 38.014942,191.38092 34.0217739,197.320428 C26.4913118,208.494957 20.0227571,222.841488 21.1835723,238.217726 C22.1312866,250.794025 28.1889252,263.899142 39.6055555,277.991624 C42.9792025,282.154596 46.8177151,286.400448 51.1399756,290.746298 C51.1804378,290.792243 51.2298916,290.843594 51.2766479,290.887737 C52.6011101,292.219239 53.9426563,293.53903 55.3003874,294.847109 C55.8929336,294.880442 56.4845807,294.914675 57.0771269,294.947107 C55.4352613,293.378673 53.8077824,291.800329 52.2153706,290.199464 C52.1695134,290.162528 52.1290513,290.116583 52.0903874,290.078746 C47.8175807,285.784246 44.0132361,281.593347 40.6737571,277.485329 C29.2948916,263.500052 23.2669252,250.536373 22.3326983,238.134845 C21.2249336,223.505437 27.1953538,209.778713 34.3481689,198.905979 C38.2765975,192.910616 42.5700849,187.790008 46.236858,183.857662 C46.7358916,183.321638 47.2178412,182.81264 47.6872025,182.32166 C48.7805807,181.183847 49.9377992,180.018107 51.1624546,178.846061 L51.1822361,178.826241 C51.502337,178.512735 51.8314294,178.197426 52.1695134,177.888424 C55.2779084,174.95966 58.7702445,171.982248 62.5817824,169.202129 C65.4258244,167.122895 68.4550933,165.153569 71.635421,163.392347 C73.0758748,162.592365 74.5486983,161.840129 76.0475975,161.136541 C77.3226059,160.541058 78.6209924,159.987017 79.9355639,159.476217 C84.0069588,157.886162 88.265379,156.713215 92.6568748,156.153768 C93.6720261,156.021338 94.6943706,155.925845 95.693337,155.867287 C99.5938916,155.617743 103.657194,155.860981 107.852673,156.408717 C108.471295,156.488895 109.089917,156.569975 109.712135,156.665468 L109.713934,156.673576 C115.380438,157.504188 121.296009,158.832988 127.389614,160.201426 C131.260497,161.078884 135.249169,161.970757 139.342144,162.77164 C139.938287,162.895061 140.534429,163.012175 141.136866,163.127488 C145.344034,163.919362 149.389354,164.521151 153.282715,164.914836 C161.635908,165.786889 169.308438,165.748151 176.511606,164.824748 C187.724127,163.389644 197.686816,159.749184 206.13532,154.002464 C206.223438,153.945708 206.310656,153.880845 206.399673,153.824089 C210.700354,150.872803 214.389606,147.538642 217.642766,143.999981 C217.661648,143.981063 217.681429,143.961243 217.698513,143.934217 C221.204337,140.119887 224.203934,136.062318 226.898715,131.983129 C229.418161,128.178708 231.670555,124.352666 233.833034,120.684279 C236.337194,116.434823 238.710976,112.406083 241.202547,108.91697 C241.320337,108.738596 241.448018,108.572834 241.567606,108.401666 C251.341471,94.9325936 267.58569,85.5517192 285.001513,83.3229394 C291.782976,82.4481839 298.455639,82.6932236 304.813597,84.0310319 C317.975497,86.8147544 331.364883,93.8470319 348.228623,106.845845 C350.542161,108.632292 352.910547,110.538556 355.292421,112.550224 C356.590808,113.642091 357.896387,114.770895 359.192976,115.932131 C359.692009,116.369959 360.185648,116.816796 360.672992,117.272642 C361.117177,117.667228 361.555967,118.071724 361.986665,118.47712 C362.902009,119.323948 363.805665,120.187893 364.712018,121.067153 C365.832371,122.157219 366.941034,123.27251 368.040707,124.413025 C375.159354,131.766917 381.718724,140.039708 386.54811,149.017889 C388.117144,151.915122 389.494656,154.891633 390.653673,157.93571 C390.784051,158.264532 390.905438,158.595155 391.027724,158.924878 C391.640051,160.622138 392.193934,162.339217 392.659698,164.074314 C393.775555,168.177827 394.46611,172.39305 394.642345,176.692054 C394.829371,181.273034 394.456219,185.901761 393.493219,190.597153 C393.427581,190.950298 393.346656,191.307047 393.272925,191.662895 C393.157833,192.188109 393.027455,192.717827 392.897076,193.246644 C391.575312,198.596076 389.510841,204.044605 386.668597,209.65349 C386.082345,210.817428 385.459228,211.989475 384.806438,213.167827 C384.546581,213.63088 384.281329,214.102942 384.014278,214.566895 C382.007354,218.048801 379.711799,221.590164 377.128513,225.199094 L377.129413,225.206301 C373.493211,230.291774 369.275253,235.520488 364.462051,240.926675 C363.196034,242.354572 361.885959,243.78427 360.533623,245.237391 C347.548858,259.160508 342.573808,267.11799 340.770093,279.08079 C340.235093,282.591523 339.979732,286.447294 339.875429,290.900349 C340.258471,290.862512 340.644211,290.825576 341.026354,290.787739 C341.130656,286.686028 341.367135,283.096017 341.840992,279.81771 C343.559287,267.780138 348.420144,259.908239 361.374337,246.022058" id="Fill-5" fill="#DAEBFE"></path>
                    <path d="M240.594535,129.154723 C241.270703,128.018712 241.92709,126.893511 242.574485,125.802544 C243.101392,124.913375 243.622006,124.032313 244.139023,123.169269 C246.063224,119.920692 247.917292,116.895533 249.764166,114.358652 C257.927636,103.107549 271.585871,95.2653791 286.294325,93.3789341 C291.948241,92.6519231 297.476275,92.8474143 302.730065,93.9572998 C314.325628,96.4076963 326.452594,102.858906 342.043124,114.883866 C345.153317,117.278408 348.363317,119.899071 351.566124,122.707117 C353.261939,124.196273 354.954157,125.739483 356.625695,127.334042 C357.269493,127.950245 357.914191,128.566447 358.5463,129.201569 C359.513796,130.152899 360.469603,131.122247 361.412821,132.101505 C362.123157,132.851038 362.825401,133.602372 363.52225,134.362716 C363.560014,134.393346 363.591485,134.433886 363.621157,134.466317 C369.633838,141.058965 375.010813,148.316463 378.800771,156.03341 C379.715216,157.88472 380.533451,159.763057 381.249182,161.663016 C381.344493,161.898146 381.43351,162.142284 381.520729,162.379216 C382.146544,164.104403 382.684241,165.855716 383.124829,167.61874 C383.904401,170.72678 384.38725,173.895179 384.515829,177.105919 C384.693863,181.566181 384.219107,186.114729 383.068182,190.794806 C383.063687,190.811022 383.060989,190.835346 383.0493,190.852463 C382.89914,191.471368 382.733695,192.092976 382.553863,192.716386 C382.416292,193.209168 382.270628,193.70285 382.117771,194.197434 L382.686939,196.135229 C382.991754,195.253267 383.27409,194.375809 383.518661,193.506458 C383.751544,192.724494 383.962846,191.95424 384.158863,191.180383 C384.175947,191.114619 384.185838,191.050657 384.20472,190.993 C385.370031,186.231844 385.850182,181.597712 385.663157,177.054569 C385.529182,173.821306 385.050829,170.636692 384.282048,167.503428 C383.860342,165.790853 383.339729,164.089989 382.745384,162.404441 C382.636586,162.102646 382.526888,161.792743 382.410897,161.492749 C381.626829,159.374778 380.710586,157.284734 379.690939,155.223518 C375.797577,147.412879 370.336082,140.086914 364.236182,133.442917 C363.895401,133.064546 363.548325,132.687978 363.20035,132.312311 C362.480124,131.549265 361.760796,130.793425 361.029779,130.055604 C360.1513,129.163731 359.266527,128.279967 358.370964,127.41422 L357.503275,126.573698 C355.572779,124.731397 353.616208,122.95576 351.661434,121.2585 C348.661838,118.647747 345.659544,116.215368 342.750762,113.973075 C327.006476,101.840009 314.741039,95.3167293 302.961149,92.8357029 C297.586871,91.6969892 291.926661,91.4978945 286.145065,92.2429231 C271.128199,94.1699077 257.182233,102.186848 248.830838,113.685694 C247.171888,115.974833 245.512939,118.636035 243.795544,121.501738 C243.066325,122.717928 242.321821,123.976458 241.567426,125.260214 C240.76088,126.625049 239.930955,128.032225 239.062367,129.470932 C236.82346,133.217696 234.36246,137.156348 231.535502,141.077883 L233.186359,140.73645 C235.957569,136.803203 238.373611,132.874461 240.594535,129.154723" id="Fill-7" fill="#DAEBFE"></path>
                    <path d="M378.336355,203.678396 C377.670077,205.05224 376.959741,206.435093 376.19096,207.837764 C376.487682,208.0783 376.793397,208.32424 377.096413,208.562974 C377.80675,207.288227 378.464934,206.024291 379.078161,204.769363 C380.519514,201.836996 381.725287,198.960482 382.686489,196.135319 L382.11822,194.197524 C381.150724,197.294753 379.894598,200.451441 378.336355,203.678396" id="Fill-9" fill="#DAEBFE"></path>
                    <path d="M229.467075,145.723367 C229.040873,145.641387 228.609276,145.568415 228.183075,145.486435 C226.88289,147.114327 225.499982,148.721499 224.03615,150.306149 L225.945966,149.911563 C227.183209,148.535917 228.353016,147.135047 229.467075,145.723367" id="Fill-11" fill="#DAEBFE"></path>
                    <path d="M233.186629,140.73681 L231.535771,141.077343 C230.472066,142.548482 229.356208,144.023224 228.183704,145.486255 C228.609906,145.568235 229.041503,145.641206 229.466805,145.723187 C230.77778,144.069169 232.008729,142.401638 233.186629,140.73681" id="Fill-13" fill="#DAEBFE"></path>
                    <path d="M205.558959,166.190213 C207.831135,164.971321 210.018791,163.638918 212.134513,162.182193 C217.503396,158.493085 222.027068,154.30579 225.946505,149.912193 L224.035791,150.305878 C220.418471,154.213 216.291329,157.931837 211.484421,161.234467 C208.239354,163.465949 204.79827,165.41996 201.183648,167.093797 C199.896051,167.699189 198.584177,168.264041 197.248925,168.786552 L197.484505,169.927969 C200.276396,168.834299 202.96848,167.590182 205.558959,166.190213" id="Fill-15" fill="#DAEBFE"></path>
                    <path d="M340.823683,255.102129 C344.075045,250.242776 348.360439,245.116763 353.967599,239.106085 C360.605196,231.987322 366.162902,225.24603 370.66949,218.798424 C373.120599,215.302104 375.258801,211.89317 377.096683,208.562613 C376.792767,208.32388 376.487952,208.077939 376.191229,207.838305 C374.373129,211.149043 372.253809,214.538157 369.81349,218.016459 C365.327582,224.452353 359.769876,231.193646 353.126885,238.321417 C347.544003,244.303267 343.258608,249.422974 339.979372,254.264309 C335.994297,260.132648 333.498229,265.584781 331.961566,271.690052 C330.497734,277.513347 329.907885,283.944737 329.737944,291.858977 C330.120986,291.823842 330.505826,291.789609 330.888868,291.754474 C331.05791,284.290675 331.602801,278.17099 332.94075,272.623364 C334.417171,266.454131 336.863784,260.980378 340.823683,255.102129" id="Fill-17" fill="#DAEBFE"></path>
                    <path d="M59.2677496,282.917642 C55.4732958,279.11142 52.0933546,275.405195 49.1144387,271.809779 C38.7120605,259.230776 33.2253882,247.88508 32.4323294,237.370898 C31.5772286,226.065741 36.0676319,215.117334 41.7772958,206.041858 C46.0770773,199.188856 51.0746067,193.405199 54.978758,189.353937 C57.8156067,186.41166 61.1380017,183.245063 64.8542286,180.229814 C68.7269092,177.073127 73.0329849,174.074994 77.634884,171.648922 C78.3587076,171.267849 79.0870269,170.901191 79.8243378,170.548045 C83.6115983,168.738175 87.5831866,167.339107 91.679758,166.577862 C92.4359513,166.429217 93.1903462,166.304895 93.9501361,166.209402 C94.7467916,166.106702 95.5497412,166.03373 96.3284134,165.988686 C97.7679681,165.9004 99.271363,165.891391 100.820615,165.957155 L100.830506,165.963461 C103.741086,166.080576 106.820708,166.457144 110.032506,166.98416 C114.84301,167.783241 119.932254,168.919252 125.16896,170.101208 C125.645514,170.203909 126.123867,170.313816 126.60222,170.423724 C126.860279,170.478677 127.127329,170.539937 127.39438,170.600296 C131.205018,171.451629 135.14064,172.307466 139.253397,173.089431 C146.608523,174.474986 153.510472,175.306499 160.066245,175.583069 C166.262355,175.841622 172.14196,175.609195 177.796775,174.881283 C180.849422,174.491202 183.833733,173.951574 186.724531,173.2624 C190.450649,172.392149 194.042792,171.280461 197.483876,169.928239 L197.249195,168.786823 C193.80901,170.146252 190.218666,171.266047 186.494346,172.143506 C183.624229,172.820968 180.678582,173.359695 177.647514,173.745272 C173.616582,174.261477 169.473254,174.529939 165.166279,174.529939 C157.183539,174.556065 148.686481,173.698426 139.468296,171.962428 C135.982254,171.29938 132.6158,170.580477 129.348254,169.857069 C129.097388,169.800314 128.855514,169.749865 128.612741,169.692208 C127.535548,169.450772 126.468245,169.215642 125.416229,168.976909 C120.009582,167.759818 114.750397,166.581466 109.785237,165.783285 C106.86117,165.305818 104.044103,164.967988 101.352918,164.82745 L101.337632,164.831054 C99.5815731,164.737362 97.8830605,164.732858 96.252884,164.83736 C95.4526319,164.886909 94.6272034,164.964384 93.8008756,165.073391 C93.0114134,165.175191 92.2264471,165.298611 91.4459765,165.443653 C87.3673882,166.216609 83.4137832,167.589552 79.6346151,169.366089 C78.8604387,169.727343 78.0970521,170.108415 77.3381613,170.504803 C75.922884,171.245327 74.5354807,172.041706 73.1804471,172.877724 C72.6454471,173.204743 72.1122454,173.53897 71.5952286,173.876801 C69.1387244,175.474063 66.7982118,177.192944 64.5925731,178.962274 C60.6542538,182.132475 57.1331445,185.463032 54.1515311,188.55936 C50.1259933,192.735845 44.9558252,198.732109 40.5409513,205.849069 C34.857363,215.011931 30.4209092,226.033309 31.2841025,237.452878 C32.103237,248.209398 37.6735311,259.77671 48.2395563,272.546699 C51.2409513,276.176349 54.6406739,279.901492 58.4558084,283.73384 C59.1166908,284.393285 59.7784723,285.060838 60.4465479,285.718481 C63.8984218,289.105794 67.4797748,292.423739 71.1519429,295.684928 C71.7606739,295.714657 72.3685059,295.746188 72.977237,295.775017 C69.0218336,292.290409 65.1743294,288.738235 61.4706908,285.104981 C60.7333798,284.376169 59.9969681,283.648257 59.2677496,282.917642" id="Fill-19" fill="#DAEBFE"></path>
                    <path d="M236.543551,38.3537498 L194.101417,38.3537498 C192.449661,38.3537498 191.109913,37.011437 191.109913,35.3565185 C191.109913,33.7006991 192.449661,32.3592872 194.101417,32.3592872 L236.543551,32.3592872 C238.195308,32.3592872 239.535055,33.7006991 239.535055,35.3565185 C239.535055,37.011437 238.195308,38.3537498 236.543551,38.3537498 M215.322484,16.7181903 C217.232299,16.7181903 218.781551,18.2695075 218.781551,20.1838797 C218.781551,22.098252 217.232299,23.6495692 215.322484,23.6495692 C213.41177,23.6495692 211.863417,22.098252 211.863417,20.1838797 C211.863417,18.2695075 213.41177,16.7181903 215.322484,16.7181903 M326.485593,12.3615295 C324.547005,9.62465286 322.179518,7.25083128 319.492829,5.35537753 C315.034795,2.21040176 309.695585,0.380712335 303.957148,0.380712335 L126.68782,0.380712335 C111.082005,0.380712335 98.4317277,13.9128467 98.4317277,30.6061727 L98.4317277,296.874181 C101.927661,297.00571 105.429887,297.12823 108.938408,297.243543 L108.938408,60.4577674 L321.70656,60.4577674 L321.70656,292.567069 C325.251946,292.265274 328.755971,291.953569 332.21324,291.633756 L332.21324,30.6061727 C332.21324,23.7531705 330.080434,17.432589 326.485593,12.3615295" id="Fill-21" fill="#2A2A93"></path>
                    <path d="M236.543551,32.3592872 L194.101417,32.3592872 C192.449661,32.3592872 191.109913,33.7016 191.109913,35.3565185 C191.109913,37.011437 192.449661,38.3537498 194.101417,38.3537498 L236.543551,38.3537498 C238.195308,38.3537498 239.535055,37.011437 239.535055,35.3565185 C239.535055,33.7016 238.195308,32.3592872 236.543551,32.3592872" id="Fill-23" fill="#181548"></path>
                    <path d="M215.322394,23.6492989 C217.233108,23.6492989 218.781461,22.0979817 218.781461,20.1836095 C218.781461,18.2701381 217.233108,16.71792 215.322394,16.71792 C213.41168,16.71792 211.863327,18.2701381 211.863327,20.1836095 C211.863327,22.0979817 213.41168,23.6492989 215.322394,23.6492989" id="Fill-25" fill="#181548"></path>
                    <path d="M108.938408,60.4581278 L108.938408,297.243002 C118.086459,297.543896 127.275871,297.790738 136.512938,297.971815 C208.205635,299.381694 269.684778,296.996161 321.70656,292.566529 L321.70656,60.4581278 L108.938408,60.4581278 Z" id="Fill-27" fill="#181548"></path>
                    <path d="M138.551782,228.208487 L194.679127,228.208487 C197.440446,228.208487 199.679354,225.965293 199.679354,223.197786 L199.679354,147.366123 C199.679354,144.599518 197.440446,142.356324 194.679127,142.356324 L138.551782,142.356324 C135.789564,142.356324 133.550656,144.599518 133.550656,147.366123 L133.550656,223.197786 C133.550656,225.965293 135.789564,228.208487 138.551782,228.208487" id="Fill-29" fill="#FFFFFF"></path>
                </g>
                <g id="Group-34" transform="translate(143.865546, 142.859916)">
                    <g id="Fill-32-Clipped">
                        <mask id="mask-2" fill="white">
                            <use xlink:href="#path-1"></use>
                        </mask>
                        <g id="path-1"></g>
                        <polygon id="Fill-32" fill="#DD1281" fill-rule="nonzero" mask="url(#mask-2)" points="-12.451563 12.9474626 79.3796134 12.9474626 79.3796134 -6.28184361 -12.451563 -6.28184361"></polygon>
                    </g>
                </g>
                <path d="M194.299682,201.702764 L250.427026,201.702764 C253.188345,201.702764 255.427253,199.45957 255.427253,196.692064 L255.427253,120.860401 C255.427253,118.093795 253.188345,115.850601 250.427026,115.850601 L194.299682,115.850601 C191.537463,115.850601 189.298555,118.093795 189.298555,120.860401 L189.298555,196.692064 C189.298555,199.45957 191.537463,201.702764 194.299682,201.702764" id="Fill-35" fill="#FFFFFF" fill-rule="nonzero"></path>
                <g id="Group-39" transform="translate(188.823529, 115.833484)">
                    <g id="Clip-38">
                        <g id="path-3-link" fill="#000000" fill-rule="nonzero">
                            <path d="M5.47588235,0.0171167401 C2.71366387,0.0171167401 0.475655462,2.26031057 0.475655462,5.02781718 L0.475655462,5.02781718 L0.475655462,80.8585793 C0.475655462,83.6260859 2.71366387,85.8692797 5.47588235,85.8692797 L5.47588235,85.8692797 L61.6032269,85.8692797 C64.3654454,85.8692797 66.6034538,83.6260859 66.6034538,80.8585793 L66.6034538,80.8585793 L66.6034538,5.02781718 C66.6034538,2.26031057 64.3654454,0.0171167401 61.6032269,0.0171167401 L61.6032269,0.0171167401 L5.47588235,0.0171167401 Z" id="path-3"></path>
                        </g>
                        <g id="path-3-link" fill="#FFFFFF">
                            <path d="M5.47588235,0.0171167401 C2.71366387,0.0171167401 0.475655462,2.26031057 0.475655462,5.02781718 L0.475655462,5.02781718 L0.475655462,80.8585793 C0.475655462,83.6260859 2.71366387,85.8692797 5.47588235,85.8692797 L5.47588235,85.8692797 L61.6032269,85.8692797 C64.3654454,85.8692797 66.6034538,83.6260859 66.6034538,80.8585793 L66.6034538,80.8585793 L66.6034538,5.02781718 C66.6034538,2.26031057 64.3654454,0.0171167401 61.6032269,0.0171167401 L61.6032269,0.0171167401 L5.47588235,0.0171167401 Z" id="path-3"></path>
                        </g>
                    </g>
                    <g id="Fill-37-Clipped">
                        <mask id="mask-4" fill="white">
                            <use xlink:href="#path-3"></use>
                        </mask>
                        <g id="path-3"></g>
                        <polygon id="Fill-37" fill="#FFD22E" fill-rule="nonzero" mask="url(#mask-4)" points="-12.451563 12.9474626 79.3796134 12.9474626 79.3796134 -6.28184361 -12.451563 -6.28184361"></polygon>
                    </g>
                </g>
                <path d="M242.854303,174.676332 L298.981648,174.676332 C301.742967,174.676332 303.981875,172.433138 303.981875,169.665632 L303.981875,93.8339689 C303.981875,91.0673631 301.742967,88.8241693 298.981648,88.8241693 L242.854303,88.8241693 C240.092085,88.8241693 237.853177,91.0673631 237.853177,93.8339689 L237.853177,169.665632 C237.853177,172.433138 240.092085,174.676332 242.854303,174.676332" id="Fill-40" fill="#FFFFFF" fill-rule="nonzero"></path>
                <g id="Group-44" transform="translate(237.378151, 88.807053)">
                    <g id="Clip-43">
                        <g id="path-6-link" fill="#000000" fill-rule="nonzero">
                            <path d="M5.47588235,0.016215859 C2.71366387,0.016215859 0.475655462,2.26031057 0.475655462,5.0269163 L0.475655462,5.0269163 L0.475655462,80.8594802 C0.475655462,83.6260859 2.71366387,85.8692797 5.47588235,85.8692797 L5.47588235,85.8692797 L61.6032269,85.8692797 C64.3654454,85.8692797 66.6034538,83.6260859 66.6034538,80.8594802 L66.6034538,80.8594802 L66.6034538,5.0269163 C66.6034538,2.26031057 64.3654454,0.016215859 61.6032269,0.016215859 L61.6032269,0.016215859 L5.47588235,0.016215859 Z" id="path-6"></path>
                        </g>
                        <g id="path-6-link" fill="#FFFFFF">
                            <path d="M5.47588235,0.016215859 C2.71366387,0.016215859 0.475655462,2.26031057 0.475655462,5.0269163 L0.475655462,5.0269163 L0.475655462,80.8594802 C0.475655462,83.6260859 2.71366387,85.8692797 5.47588235,85.8692797 L5.47588235,85.8692797 L61.6032269,85.8692797 C64.3654454,85.8692797 66.6034538,83.6260859 66.6034538,80.8594802 L66.6034538,80.8594802 L66.6034538,5.0269163 C66.6034538,2.26031057 64.3654454,0.016215859 61.6032269,0.016215859 L61.6032269,0.016215859 L5.47588235,0.016215859 Z" id="path-6"></path>
                        </g>
                    </g>
                    <g id="Fill-42-Clipped">
                        <mask id="mask-6" fill="white">
                            <use xlink:href="#path-5"></use>
                        </mask>
                        <g id="path-6"></g>
                        <polygon id="Fill-42" fill="#03E59F" fill-rule="nonzero" mask="url(#mask-6)" points="-12.451563 12.9474626 79.3796134 12.9474626 79.3796134 -6.28184361 -12.451563 -6.28184361"></polygon>
                    </g>
                </g>
                <path d="M386.599992,64.8561387 C386.599992,62.3327708 384.558,60.2877708 382.040353,60.2877708 C379.521807,60.2877708 377.479815,62.3327708 377.479815,64.8561387 C377.479815,67.3795065 379.521807,69.4254074 382.040353,69.4254074 C384.558,69.4254074 386.599992,67.3795065 386.599992,64.8561387" id="Fill-84" fill="#2743BC" fill-rule="nonzero"></path>
                <path d="M9.12026639,182.423549 C9.12026639,179.900181 7.07827479,177.855181 4.55972857,177.855181 C2.04118235,177.855181 8.99159655e-05,179.900181 8.99159655e-05,182.423549 C8.99159655e-05,184.946917 2.04118235,186.992818 4.55972857,186.992818 C7.07827479,186.992818 9.12026639,184.946917 9.12026639,182.423549" id="Fill-86" fill="#6582FF" fill-rule="nonzero"></path>
                <path d="M75.1873714,82.8627691 C75.1873714,80.7249783 73.4573882,78.9916832 71.3227832,78.9916832 C69.1890773,78.9916832 67.4590941,80.7249783 67.4590941,82.8627691 C67.4590941,85.0005598 69.1890773,86.7347559 71.3227832,86.7347559 C73.4573882,86.7347559 75.1873714,85.0005598 75.1873714,82.8627691" id="Fill-88" fill="#2743BC" fill-rule="nonzero"></path>
                <path d="M89.5818387,228.002275 C89.5818387,226.515821 88.378763,225.310442 86.8951496,225.310442 C85.410637,225.310442 84.2075613,226.515821 84.2075613,228.002275 C84.2075613,229.488729 85.410637,230.694107 86.8951496,230.694107 C88.378763,230.694107 89.5818387,229.488729 89.5818387,228.002275" id="Fill-90" fill="#2743BC" fill-rule="nonzero"></path>
                <path d="M369.477384,30.6629279 C369.477384,29.0476481 368.170905,27.738668 366.558712,27.738668 C364.946518,27.738668 363.640039,29.0476481 363.640039,30.6629279 C363.640039,32.2782076 364.946518,33.5871878 366.558712,33.5871878 C368.170905,33.5871878 369.477384,32.2782076 369.477384,30.6629279" id="Fill-92" fill="#6582FF" fill-rule="nonzero"></path>
            </g>
            <g id="pricing-person" transform="translate(261.000000, 160.000000)">
                <path d="M101.065841,179 C100.734573,174.977694 100.397505,168.407548 101.390665,165.605038 C102.629376,162.119419 101.21343,158.102241 100.710082,156.866493 C100.60632,156.61695 100.544448,156.481354 100.544448,156.481354 L100.293097,151.868237 L98,115.282346 C98,115.282346 98.3551143,115.260695 98.9441787,115.206571 C101.102578,115.011723 106.425424,114.409516 109.375258,113 L109.375258,114.962726 L109.375258,165.984479 C109.375258,165.984479 112.036359,170.142381 111.999623,173.833673 C109.288896,175.324661 106.498896,176.690877 103.629625,177.931753 L101.065841,179 Z" id="Fill-45" fill="#FFC4BD" fill-rule="nonzero"></path>
                <path d="M100.402795,178.651374 C93.3084717,181.43909 85.7669162,183.467806 77.7781306,184.602914 C76.0825699,184.845546 74.3302075,184.974497 72.5412839,184.995988 C61.9683515,185.135685 49.9348997,181.616681 38.0450842,176.041247 C37.9517206,169.148026 38.0013404,162.738936 38.2128774,156.899945 C38.312117,154.13372 38.4485713,151.502667 38.6228935,149 C38.6228935,149 59.5330644,154.564688 99.619978,151.717586 C100.520969,151.6582 101.434365,151.588635 102.360165,151.518504 C102.396727,151.513413 102.428067,151.513413 102.465281,151.507758 L102.490091,152.799529 L102.490091,152.831768 L102.565173,156.254059 L103,177.590922 L100.402795,178.651374 Z" id="Fill-47" fill="#002652" fill-rule="nonzero"></path>
                <path d="M79.2257367,44 C79.338437,50.3430758 76.9756206,56.7206802 85,63.7531965 C85,63.7531965 70.07889,66.5585044 60,63.7531965 C62.0907819,56.6878497 63.0454945,51.4598783 61.5939945,45.3466159 L79.2257367,44 Z" id="Fill-49" fill="#FFC4BD" fill-rule="nonzero"></path>
                <path d="M62.3135639,54.5473073 C62.3135639,54.5473073 64.5003722,54.9226656 67.9993998,54 C67.9993998,54 68.2051064,58.1837272 61,61 L62.3135639,54.5473073 Z" id="Fill-51" fill="#FFA69C" fill-rule="nonzero"></path>
                <path d="M21,59.2916831 L11.1869657,23.2795758 L3.14188964,23 L3,65.7813864 C3.76806928,68.7315112 6.00366382,72.1676063 9.05395801,73.678688 L10.4415455,74 C10.4415455,74 9.51160208,70.6039262 21,59.2916831" id="Fill-53" fill="#FFC4BD" fill-rule="nonzero"></path>
                <g id="Group-57" transform="translate(5.000000, 59.000000)">
                    <g id="Fill-55-Clipped">
                        <mask id="mask-8" fill="white">
                            <use xlink:href="#path-7"></use>
                        </mask>
                        <g id="path-1"></g>
                        <path d="M30.9676124,28.2891584 L28.8096997,97.8536512 C28.8096997,97.8536512 63.9814583,104.081278 98.0214215,97.8536512 L93.5001122,58.2984636 C93.5001122,58.2984636 99.7331394,59.030925 110.90236,53.7188742 L108.148216,25.2279477 C107.112966,19.935232 104.030047,13.9999067 98.4558748,11.134891 L79.6158876,3.07554149 C79.6158876,3.07554149 67.0148,5.54248039 54.6707305,3.07554149 L30.9265155,4.74917017 L15.3814554,0.463020207 C15.3814554,0.463020207 1.40916655,2.92995911 0.0986325258,14.7010906 L30.9676124,28.2891584 Z" id="Fill-55" fill="#0059C2" fill-rule="nonzero" mask="url(#mask-8)"></path>
                    </g>
                </g>
                <path d="M13.2820795,21.2467129 L19.8476516,11.6433328 C20.149562,11.2014818 19.989458,10.6333076 19.484967,10.3593263 C19.0471314,10.1218384 18.4766383,10.1768593 18.1113398,10.4918255 L13.5388994,14.4364819 L9.72450265,0.787386679 C9.57942883,0.270864629 9.00109388,-0.0659975783 8.38943111,0.0109192924 C7.72941047,0.0934505333 7.27654476,0.624008513 7.38175597,1.18937558 L9.02919372,10.0297628 L8.64494412,10.0774849 L7.85487971,6.88403122 C7.66079444,6.10251089 6.76682584,5.60339338 5.85717357,5.7690173 C4.97039331,5.9312726 4.39205836,6.66731652 4.54824147,7.43480092 L4.66260149,7.99567651 L4.61881793,7.83566696 C4.43976282,7.17653988 3.67649138,6.76444511 2.90799205,6.91210304 C2.14798803,7.05863812 1.66244807,7.69867632 1.81340329,8.35499621 L2.14341364,9.78890633 L1.89182159,8.85074505 C1.79314524,8.48188097 1.36707247,8.25056891 0.937078809,8.33197725 L0.936425323,8.33197725 C0.512966507,8.41226275 -0.0777846772,8.52455014 0.00847545115,9.15953542 L1.23441485,17.0331281 C1.3383191,17.6973081 4.11432688,23.4290186 4.11432688,23.4290186 L12.0862005,24 L13.2820795,21.2467129 Z" id="Fill-58" fill="#FFC4BD" fill-rule="nonzero"></path>
                <path d="M4.79803539,11 C4.81190942,11 4.82629731,10.9985276 4.8406852,10.9955828 C4.9501359,10.9730059 5.01899222,10.8699375 4.99535497,10.7658876 L4.39979925,8.15138675 C4.37564816,8.04733677 4.26825286,7.98255094 4.15880215,8.00414618 C4.0498653,8.0267231 3.98100899,8.12979145 4.00464623,8.23384143 L4.60071581,10.8478515 C4.62126993,10.9386498 4.70451413,11 4.79803539,11" id="Fill-60" fill="#FFA69C" fill-rule="nonzero"></path>
                <path d="M1.77403123,14 C1.78489841,14 1.79633755,13.998913 1.80720473,13.9978259 C1.93017545,13.9804334 2.01539702,13.8722734 1.99766635,13.755417 L1.44801584,10.1823315 C1.42914126,10.0649316 1.31532186,9.98883912 1.19235114,10.00134 C1.06995237,10.0187326 0.984158849,10.1274362 1.00246147,10.2442925 L1.55154003,13.8168345 C1.56869873,13.923364 1.66421552,14 1.77403123,14" id="Fill-62" fill="#FFA69C" fill-rule="nonzero"></path>
                <polygon id="Fill-64" fill="#FFFFFF" fill-rule="nonzero" points="72.5316357 185 73.0191753 184.968977 72.4993403 177.911257 80 168.263695 79.6037574 168 72 177.779697"></polygon>
                <path d="M9.02299782,75 L9.52639956,74.9706047 C8.85498352,66.1379313 23.8486588,60.4657999 24,60.409836 L23.8037695,60 C23.649222,60.0570944 8.32721333,65.8513285 9.02299782,75" id="Fill-66" fill="#FFFFFF" fill-rule="nonzero"></path>
                <path d="M99.7227181,114 C109.797031,114 115.935489,109.35428 116,109.304585 L115.643213,109 C115.576068,109.051299 108.889921,114.096185 98.032914,113.535108 L98,113.955114 C98.5852107,113.985038 99.1612056,114 99.7227181,114" id="Fill-68" fill="#FFFFFF" fill-rule="nonzero"></path>
                <polygon id="Fill-70" fill="#FFFFFF" fill-rule="nonzero" points="98.3261891 117 99 116.985239 97.6738109 90 97 90.0153285"></polygon>
                <path d="M85,61.3893169 L82.4523345,57 C82.4523345,57 65.7140041,59.6156906 58,58.8034588 L58,61.5182158 C58,61.5182158 70.9441159,64.9365694 85,61.3893169" id="Fill-72" fill="#004589" fill-rule="nonzero"></path>
                <path d="M49.3076875,37.6594679 C50.8055531,35.2600548 53.0254497,31.9557759 53.0254497,31.9557759 C53.0254497,31.9557759 53.539573,27.8646821 53.4605282,27.0274377 C53.3323295,25.6646948 55.5150286,17.5134525 60.0737212,15 C60.0737212,15 58.0158996,17.6618757 57.2413935,23.3598371 C59.5855033,18.8509806 63.5231297,15.8916854 67.9874999,15.8916854 C75.173934,15.8916854 81,23.5592629 81,33.0176609 C81,42.476059 75.173934,50.1436364 67.9874999,50.1436364 C66.2206163,50.1436364 64.536763,49.6783096 63.0010355,48.8387729 C63.0355761,49.4301735 63.0442113,49.9677062 63.0129919,50.3969301 L67.2342496,52.941901 L62.4224808,53.9992015 C62.4224808,53.9992015 50.1725305,54.2845867 50.9822415,44.0645885 C50.8706488,43.0399526 50.8593567,41.9219074 50.9051893,40.8136044 L50.7597204,40.7746361 C49.2412633,40.3671886 48.5537728,38.8669108 49.3076875,37.6594679" id="Fill-74" fill="#FFC4BD" fill-rule="nonzero"></path>
                <path d="M54,34 C54,34.5521993 54.2238739,35 54.5,35 C54.7761261,35 55,34.5521993 55,34 C55,33.4478007 54.7761261,33 54.5,33 C54.2238739,33 54,33.4478007 54,34" id="Fill-76" fill="#493F93" fill-rule="nonzero"></path>
                <path d="M57,32.2267813 C57,32.2267813 55.0783522,29.9764528 54,30.0001864 L54,31.1131716 L57,33 L57,32.2267813 Z" id="Fill-78" fill="#493F93" fill-rule="nonzero"></path>
                <path d="M50.9208682,45 C52.7177671,45 53.8653997,44.3176919 53.9196707,44.2857022 C54.0229179,44.2225645 54.0275508,44.1181768 53.9282746,44.0516717 C53.8296603,43.9851667 53.6648618,43.9826412 53.5602909,44.045358 C53.5470541,44.0533554 52.2332993,44.8278446 50.3000611,44.6384314 C50.1584271,44.6228575 50.0247352,44.6864161 50.0028944,44.7769135 C49.9817155,44.8674108 50.0790062,44.9515944 50.221302,44.9654847 C50.4635359,44.9894771 50.6971658,45 50.9208682,45" id="Fill-80" fill="#FF7E70" fill-rule="nonzero"></path>
                <path d="M79.2451705,49.7246307 C79.2451705,49.7246307 94.5707841,38.2160262 95.8330843,30.6373257 C97.0953845,23.0580652 90.7838826,20.8170456 90.7838826,20.8170456 C90.7838826,20.8170456 88.4704229,11.5013029 77.741195,12.0209596 C67.0126157,12.5411763 62.5935899,13.1369896 57.0194585,12.3860633 C51.445327,11.6345769 52.6848891,21.3299827 54.705999,23.3626916 C54.705999,23.3626916 62.8450105,26.9465311 61.2474826,32.4365252 L59.439463,36.4420257 L62.5948892,37.3822236 C62.5948892,37.3822236 64.488015,32.4074064 67.2231075,34.7139431 C69.9575503,37.0199198 67.6934654,40.9498238 62.8300682,40.3450509 C62.8300682,40.3450509 62.6579068,51.9124527 79.2451705,49.7246307" id="Fill-82" fill="#452312" fill-rule="nonzero"></path>
            </g>
        </g>
    </g>
</svg>