<?xml version="1.0" encoding="UTF-8"?>
<svg width="416px" height="303px" viewBox="0 0 416 303" version="1.1" xmlns="http://www.w3.org/2000/svg" xmlns:xlink="http://www.w3.org/1999/xlink">
    <!-- Generator: Sketch 54.1 (76490) - https://sketchapp.com -->
    <title>Buy Proxies For Ad Verification</title>
    <desc>Created with Sketch.</desc>
    <defs>
        <linearGradient x1="100%" y1="100%" x2="100%" y2="0.000488756771%" id="linearGradient-1">
            <stop stop-color="#0079AA" offset="0%"></stop>
            <stop stop-color="#0297DD" offset="100%"></stop>
        </linearGradient>
        <radialGradient cx="-626.511582%" cy="10.2006031%" fx="-626.511582%" fy="10.2006031%" r="748.156549%" gradientTransform="translate(-6.265116,0.102006),scale(0.786911,1.000000),translate(6.265116,-0.102006)" id="radialGradient-2">
            <stop stop-color="#01C8EF" offset="0%"></stop>
            <stop stop-color="#03BEE9" offset="8.94054%"></stop>
            <stop stop-color="#08A5D7" offset="23.88%"></stop>
            <stop stop-color="#107BBB" offset="42.88%"></stop>
            <stop stop-color="#1177B8" offset="44.57%"></stop>
            <stop stop-color="#112564" offset="100%"></stop>
        </radialGradient>
    </defs>
    <g id="Page-1" stroke="none" stroke-width="1" fill="none" fill-rule="evenodd">
        <g id="Buy-Proxies-For-Ad-Verification">
            <g id="header_splash_buy_proxies_for_ad_verification1">
                <path d="M375.391,252.464 C379.987,247.536 384.964,241.911 389.797,235.659 C390.56,234.683 391.319,233.684 392.074,232.663 C394.115,229.908 396.118,227.045 398.023,224.078 C407.968,208.666 415.648,190.422 415.29,170.175 C415.28,169.644 415.264,169.114 415.24,168.586 C415.244,168.531 415.24,168.478 415.238,168.424 C415.168,166.63 415.026,164.852 414.826,163.092 C414.829,163.069 414.826,163.054 414.821,163.032 C413.496,151.206 409.453,140.157 403.787,130.038 C403.698,129.871 403.611,129.712 403.515,129.546 C402.398,127.567 401.208,125.618 399.966,123.711 C399.669,123.239 399.365,122.777 399.054,122.316 C398.74,121.839 398.418,121.365 398.096,120.891 C393.725,114.546 388.793,108.626 383.625,103.171 C381.949,101.408 380.253,99.6956 378.547,98.0389 C376.083,95.6353 373.581,93.3462 371.094,91.1633 C367.525,88.0373 363.964,85.141 360.504,82.4707 C348.375,73.1232 329.782,60.164 308.44,55.6623 C282.604,50.2111 254.249,58.4605 234.589,76.1033 C230.458,79.7996 226.713,83.9104 223.454,88.4003 C222.505,89.7093 221.578,91.0597 220.696,92.4318 C218.564,95.684 216.573,99.0542 214.627,102.346 C214.623,102.362 214.616,102.371 214.605,102.389 C209.309,111.379 203.849,120.65 195.75,127.082 C195.022,127.665 194.272,128.222 193.493,128.754 C191.108,130.397 188.531,131.787 185.761,132.916 C180.487,135.078 174.513,136.312 167.785,136.626 C167.006,136.664 166.208,136.689 165.408,136.7 C159.038,136.803 152.022,136.126 144.312,134.666 C139.959,133.842 135.533,132.847 131.251,131.885 C120.989,129.577 110.421,127.208 99.79,126.969 C97.7165,126.91 95.6476,126.944 93.5759,127.077 C73.5417,128.324 56.2446,138.324 43.1196,149.209 C42.1584,150.01 41.2187,150.806 40.3043,151.613 C37.0673,154.446 34.1208,157.302 31.4817,160.041 C30.338,161.228 29.1313,162.528 27.8761,163.93 C15.1692,178.152 -2.01734,203.11 0.193689,232.348 C1.27808,246.788 7.00392,261.244 17.5673,276.101 C19.808,279.254 22.269,282.427 24.9512,285.62 C25.4826,285.656 26.0149,285.691 26.5463,285.726 C23.677,282.352 21.0551,279.002 18.684,275.676 C8.12428,260.913 2.41371,246.569 1.33472,232.267 C-0.810672,203.873 15.6565,179.504 28.1683,165.346 C29.6124,163.703 31.0088,162.202 32.3117,160.844 C34.797,158.26 37.5556,155.581 40.5705,152.903 C42.1638,151.5 43.8263,150.091 45.5635,148.704 C51.7911,143.717 58.8917,138.998 66.736,135.339 C74.9525,131.502 83.9801,128.827 93.6497,128.221 C96.2177,128.062 98.7857,128.049 101.356,128.167 C111.347,128.593 121.309,130.832 131.004,133.01 C135.292,133.971 139.729,134.971 144.098,135.8 C150.514,137.009 156.459,137.69 161.959,137.83 C163.209,137.865 164.439,137.874 165.644,137.842 C175.349,137.677 183.588,135.705 190.506,131.935 C191.762,131.251 192.974,130.507 194.144,129.7 C195.078,129.06 195.98,128.387 196.845,127.675 C204.778,121.224 210.17,112.183 215.37,103.367 C215.443,103.236 215.525,103.111 215.599,102.98 C217.468,99.8046 219.385,96.5578 221.418,93.4255 C222.379,91.9453 223.368,90.4895 224.389,89.0805 C227.544,84.7283 231.168,80.7347 235.156,77.1294 C254.554,59.61 282.631,51.3948 308.21,56.792 C329.318,61.2415 347.766,74.0989 359.805,83.3806 C363.136,85.9535 366.565,88.7382 370,91.7372 C372.267,93.711 374.546,95.7822 376.796,97.9371 C378.711,99.7749 380.616,101.676 382.487,103.639 C387.469,108.868 392.241,114.536 396.485,120.598 C397.412,121.913 398.312,123.249 399.179,124.608 C399.48,125.055 399.769,125.521 400.055,125.98 C400.921,127.37 401.758,128.773 402.56,130.191 C402.647,130.351 402.732,130.504 402.818,130.656 C408.368,140.59 412.335,151.414 413.661,162.985 C413.663,162.993 413.664,163.001 413.664,163.001 C413.864,164.752 414.004,166.523 414.079,168.308 C414.082,168.362 414.087,168.422 414.09,168.475 C414.129,169.372 414.152,170.271 414.15,171.16 C414.251,190.571 406.871,208.135 397.304,223.06 C395.542,225.82 393.7,228.495 391.815,231.07 C390.943,232.27 390.059,233.449 389.169,234.599 C384.273,240.956 379.216,246.683 374.551,251.68 C373.609,252.693 372.725,253.648 371.894,254.554 C362,265.378 359.796,269.569 359.361,281.356 C359.751,281.311 360.139,281.266 360.527,281.222 C360.971,270.06 363.13,265.898 372.421,255.689 C373.338,254.673 374.33,253.603 375.391,252.464 Z" id="Path" fill="#DAEBFE"></path>
                <path d="M358.037,257.168 C360.452,253.864 363.611,250.245 367.733,245.825 C367.814,245.73 367.902,245.634 367.985,245.548 C374.023,239.078 379.293,232.813 383.82,226.694 C385.99,223.774 387.994,220.879 389.827,218.013 C390.353,217.194 390.862,216.37 391.365,215.548 C396.033,207.9 399.489,200.472 401.774,193.171 C403.207,188.586 404.186,184.049 404.707,179.538 C404.758,179.11 404.809,178.682 404.845,178.258 C404.868,178.036 404.893,177.815 404.909,177.595 C405.17,174.667 405.232,171.749 405.119,168.836 C405.036,166.783 404.856,164.75 404.58,162.735 C404.563,162.577 404.538,162.42 404.512,162.255 C404.514,162.232 404.51,162.209 404.505,162.187 C403.543,155.417 401.554,148.911 398.818,142.709 C398.742,142.53 398.669,142.361 398.588,142.192 C398.539,142.07 398.485,141.958 398.431,141.846 C398.302,141.556 398.173,141.266 398.037,140.984 C397.901,140.695 397.764,140.407 397.62,140.12 C396.611,137.994 395.503,135.913 394.326,133.869 C390.983,128.061 387.042,122.562 382.756,117.421 C379.923,114.011 376.939,110.764 373.887,107.678 C371.5,105.274 369.081,102.968 366.645,100.775 C365.279,99.5422 363.914,98.3485 362.556,97.1837 C359.775,94.8144 357.016,92.5865 354.318,90.5091 C336.048,76.4175 321.252,68.733 306.355,65.5889 C298.754,63.9826 290.822,63.6889 282.784,64.7222 C265.474,66.9447 249.119,75.2202 237.499,87.3776 C235.384,89.5839 233.433,91.918 231.652,94.3639 C228.731,98.39 226.122,102.808 223.348,107.514 C223.334,107.525 223.331,107.541 223.324,107.55 C221.477,110.682 219.613,113.849 217.62,116.949 C217.614,116.958 217.6,116.968 217.597,116.985 C215.123,120.826 212.459,124.567 209.392,128.035 C206.792,130.968 203.906,133.704 200.602,136.132 C200.153,136.465 199.695,136.791 199.229,137.111 C196.409,139.046 193.37,140.701 190.124,142.066 C185.286,144.101 179.986,145.496 174.286,146.225 C168.932,146.913 163.239,147.038 157.096,146.591 C152.482,146.261 147.608,145.606 142.437,144.634 C140.179,144.204 137.922,143.735 135.678,143.256 C133.441,142.775 131.215,142.276 129.03,141.785 C120.646,139.9 112.585,138.087 104.669,137.388 C101.154,137.071 97.6695,136.979 94.2015,137.194 C92.9669,137.27 91.6955,137.394 90.4394,137.553 C82.453,138.576 74.9424,141.193 68.0764,144.689 C63.4583,147.041 59.1225,149.783 55.1312,152.701 C50.5086,156.074 46.3347,159.679 42.6877,163.182 C41.3084,164.503 40.0028,165.807 38.7755,167.08 C36.2632,169.686 33.4003,172.873 30.4789,176.559 C19.9453,189.829 8.62843,209.527 10.2937,231.583 C11.3169,245.125 17.1812,258.904 28.1132,273.344 C31.3916,277.681 35.1402,282.085 39.3482,286.552 C39.9111,286.588 40.4749,286.623 41.0377,286.657 C36.6822,282.092 32.8041,277.604 29.4215,273.174 C18.3735,258.735 12.4588,244.974 11.4347,231.501 C9.82791,210.215 20.5504,191.119 30.7819,178.034 C33.8849,174.063 36.9466,170.642 39.6045,167.883 C40.6664,166.783 41.784,165.649 42.9628,164.516 C46.5954,160.985 50.7621,157.343 55.3847,153.931 C59.4849,150.906 63.9402,148.07 68.7058,145.648 C75.4378,142.249 82.7776,139.699 90.5823,138.698 C91.8151,138.536 93.0568,138.419 94.2761,138.345 C97.7882,138.122 101.329,138.225 104.91,138.559 C112.645,139.281 120.567,141.052 128.798,142.907 C130.158,143.213 131.535,143.524 132.917,143.826 C135.982,144.507 139.097,145.169 142.221,145.76 C146.582,146.583 150.733,147.178 154.7,147.549 C161.814,148.213 168.338,148.148 174.429,147.37 C181.978,146.398 188.831,144.295 194.87,141.086 C196.61,140.171 198.277,139.162 199.88,138.058 C200.826,137.407 201.731,136.741 202.613,136.041 C205.856,133.502 208.684,130.669 211.235,127.655 C216.383,121.585 220.4,114.783 224.334,108.107 C227.086,103.443 229.681,99.0287 232.579,95.0387 C234.171,92.8396 235.915,90.7415 237.78,88.7415 C249.26,76.4661 265.61,68.0906 282.927,65.8673 C290.838,64.852 298.644,65.133 306.116,66.7123 C320.843,69.8212 335.486,77.4373 353.618,91.418 C356.271,93.4667 358.991,95.6558 361.724,97.981 C363.046,99.1143 364.381,100.276 365.7,101.472 C368.104,103.625 370.493,105.891 372.838,108.25 C375.566,110.993 378.233,113.865 380.788,116.862 C382.72,119.12 384.59,121.454 386.367,123.861 C386.825,124.47 387.268,125.088 387.712,125.708 C389.774,128.597 391.701,131.583 393.454,134.659 C394.719,136.863 395.892,139.109 396.966,141.399 C397.114,141.708 397.257,142.026 397.391,142.339 C397.669,142.938 397.93,143.533 398.186,144.137 C398.426,144.705 398.665,145.266 398.89,145.83 C399.004,146.124 399.12,146.424 399.234,146.717 C400.906,151.046 402.196,155.509 403.004,160.109 C403.035,160.257 403.065,160.399 403.08,160.55 C403.371,162.189 403.589,163.844 403.74,165.513 C403.846,166.627 403.923,167.754 403.97,168.88 C404.105,172.268 403.993,175.659 403.608,179.069 C402.934,185.127 401.428,191.233 399.067,197.454 C396.945,203.076 394.119,208.797 390.569,214.646 C390.248,215.184 389.912,215.724 389.56,216.268 C387.616,219.381 385.464,222.538 383.099,225.739 C378.562,231.891 373.263,238.2 367.182,244.725 C367.169,244.735 367.158,244.753 367.144,244.763 C363.825,248.324 361.112,251.371 358.89,254.148 C352.778,261.8 350.44,267.42 349.589,276.173 C349.405,278.096 349.293,280.181 349.227,282.467 C349.61,282.426 349.998,282.387 350.38,282.345 C350.461,279.684 350.61,277.297 350.869,275.12 C351.702,268.149 353.647,263.166 358.037,257.168 Z" id="Path" fill="#DAEBFE"></path>
                <path d="M360.584,238.624 C361.514,237.628 362.427,236.628 363.32,235.648 C368.607,229.797 373.201,224.151 377.133,218.664 C379.744,215.035 382.058,211.474 384.085,207.972 C384.306,207.586 384.529,207.208 384.736,206.826 C385.302,205.828 385.84,204.844 386.347,203.859 C389.678,197.476 392.03,191.28 393.443,185.217 C393.547,184.786 393.645,184.356 393.734,183.928 C393.8,183.613 393.865,183.291 393.923,182.978 C394.828,178.34 395.185,173.777 395,169.249 C394.813,164.668 394.053,160.188 392.823,155.83 C392.344,154.106 391.783,152.398 391.157,150.703 C391.036,150.38 390.916,150.058 390.786,149.729 C389.606,146.697 388.214,143.724 386.637,140.827 C381.657,131.641 374.901,123.2 367.609,115.719 C366.709,114.8 365.807,113.905 364.899,113.018 C363.748,111.888 362.579,110.785 361.416,109.712 C361.035,109.358 360.654,109.012 360.276,108.672 C359.838,108.269 359.394,107.873 358.95,107.479 C357.73,106.393 356.51,105.34 355.294,104.308 C352.883,102.272 350.48,100.349 348.139,98.5383 C331.137,85.4287 317.602,78.3253 304.263,75.5091 C297.774,74.1371 290.979,73.8938 284.068,74.7803 C266.481,77.0361 250.074,86.4503 240.098,99.9915 C240.012,100.102 239.928,100.212 239.85,100.321 C237.193,103.984 234.699,108.215 232.05,112.703 C229.717,116.661 227.277,120.812 224.502,124.916 C221.837,128.874 218.87,132.793 215.41,136.459 C215.259,136.621 215.107,136.784 214.955,136.939 C212.014,140.011 208.725,142.892 204.966,145.477 C204.075,146.093 203.161,146.684 202.236,147.246 C194.474,151.978 185.529,155.015 175.572,156.29 C169.564,157.06 163.219,157.203 156.409,156.708 C151.397,156.352 146.125,155.641 140.553,154.597 C140.401,154.566 140.248,154.536 140.095,154.506 C135.556,153.643 131.13,152.648 126.848,151.686 C121.418,150.465 116.15,149.281 111.037,148.444 C109.614,148.205 108.212,147.992 106.819,147.824 C102.69,147.301 98.6914,147.076 94.8358,147.316 C93.8072,147.381 92.7633,147.481 91.7256,147.617 C85.3947,148.431 79.3505,150.451 73.7335,153.195 C72.6733,153.707 71.6276,154.248 70.6026,154.815 C67.4178,156.554 64.3912,158.5 61.5373,160.566 C55.5363,164.895 50.3022,169.723 46.0681,174.12 C45.7633,174.438 45.4585,174.756 45.142,175.093 C41.5256,178.929 37.2249,183.982 33.2317,189.922 C25.7012,201.096 19.2327,215.443 20.3935,230.819 C21.3412,243.395 27.3989,256.501 38.8155,270.593 C42.1891,274.756 46.0276,279.002 50.3499,283.348 C50.3904,283.394 50.4398,283.445 50.4866,283.489 C51.811,284.821 53.1526,286.141 54.5103,287.449 C55.1029,287.482 55.6945,287.516 56.2871,287.549 C54.6452,285.98 53.0177,284.402 51.4253,282.801 C51.3794,282.764 51.339,282.718 51.3003,282.68 C47.0275,278.386 43.2232,274.195 39.8837,270.087 C28.5048,256.102 22.4769,243.138 21.5426,230.736 C20.4349,216.107 26.4053,202.38 33.5581,191.507 C37.4865,185.512 41.78,180.391 45.4468,176.459 C45.9458,175.923 46.4278,175.414 46.8971,174.923 C47.9905,173.785 49.1477,172.62 50.3724,171.448 L50.3922,171.428 C50.7123,171.114 51.0414,170.799 51.3794,170.49 C54.4878,167.561 57.9802,164.584 61.7917,161.804 C64.6358,159.724 67.665,157.755 70.8454,155.994 C72.2858,155.194 73.7586,154.442 75.2575,153.738 C76.5325,153.143 77.8309,152.589 79.1455,152.078 C83.2169,150.488 87.4753,149.315 91.8668,148.755 C92.882,148.623 93.9043,148.527 94.9033,148.469 C98.8038,148.219 102.867,148.462 107.063,149.01 C107.681,149.09 108.3,149.171 108.922,149.267 L108.924,149.275 C114.59,150.106 120.506,151.434 126.6,152.803 C130.47,153.68 134.459,154.572 138.552,155.373 C139.148,155.497 139.744,155.614 140.347,155.729 C144.554,156.521 148.599,157.123 152.493,157.516 C160.846,158.388 168.518,158.35 175.722,157.426 C186.934,155.991 196.897,152.351 205.345,146.604 C205.433,146.547 205.521,146.482 205.61,146.426 C209.91,143.474 213.6,140.14 216.853,136.601 C216.872,136.583 216.891,136.563 216.908,136.536 C220.414,132.721 223.414,128.664 226.109,124.585 C228.628,120.78 230.88,116.954 233.043,113.286 C235.547,109.036 237.921,105.008 240.412,101.518 C240.53,101.34 240.658,101.174 240.778,101.003 C250.551,87.5341 266.796,78.1532 284.211,75.9244 C290.993,75.0497 297.666,75.2947 304.024,76.6325 C317.185,79.4162 330.575,86.4485 347.439,99.4473 C349.752,101.234 352.12,103.14 354.502,105.152 C355.801,106.244 357.106,107.372 358.403,108.534 C358.902,108.971 359.396,109.418 359.883,109.874 C360.327,110.269 360.766,110.673 361.197,111.079 C362.112,111.925 363.016,112.789 363.922,113.669 C365.042,114.759 366.151,115.874 367.251,117.015 C374.369,124.368 380.929,132.641 385.758,141.619 C387.327,144.517 388.705,147.493 389.864,150.537 C389.994,150.866 390.115,151.197 390.238,151.526 C390.85,153.224 391.404,154.941 391.87,156.676 C392.985,160.779 393.676,164.995 393.852,169.294 C394.039,173.875 393.666,178.503 392.703,183.199 C392.638,183.552 392.557,183.909 392.483,184.264 C392.368,184.79 392.237,185.319 392.107,185.848 C390.785,191.198 388.721,196.646 385.879,202.255 C385.292,203.419 384.669,204.591 384.016,205.769 C383.757,206.232 383.491,206.704 383.224,207.168 C381.217,210.65 378.922,214.192 376.338,217.801 L376.339,217.808 C372.703,222.893 368.485,228.122 363.672,233.528 C362.406,234.956 361.096,236.386 359.744,237.839 C346.759,251.762 341.784,259.719 339.98,271.682 C339.445,275.193 339.19,279.049 339.085,283.502 C339.468,283.464 339.854,283.427 340.236,283.389 C340.341,279.288 340.577,275.697 341.051,272.419 C342.769,260.382 347.63,252.51 360.584,238.624 Z" id="Path" fill="#DAEBFE"></path>
                <path d="M239.804,121.756 C240.481,120.62 241.137,119.495 241.784,118.404 C242.311,117.515 242.832,116.634 243.349,115.771 C245.273,112.522 247.127,109.497 248.974,106.96 C257.137,95.7089 270.796,87.8667 285.504,85.9803 C291.158,85.2533 296.686,85.4488 301.94,86.5587 C313.535,89.0091 325.662,95.4603 341.253,107.485 C344.363,109.88 347.573,112.5 350.776,115.308 C352.472,116.798 354.164,118.341 355.836,119.935 C356.479,120.552 357.124,121.168 357.756,121.803 C358.724,122.754 359.679,123.724 360.623,124.703 C361.333,125.452 362.035,126.204 362.732,126.964 C362.77,126.995 362.801,127.035 362.831,127.068 C368.844,133.66 374.221,140.918 378.011,148.635 C378.925,150.486 379.743,152.364 380.459,154.264 C380.554,154.5 380.643,154.744 380.731,154.981 C381.356,156.706 381.894,158.457 382.335,160.22 C383.114,163.328 383.597,166.497 383.726,169.707 C383.904,174.168 383.429,178.716 382.278,183.396 C382.274,183.412 382.271,183.437 382.259,183.454 C382.109,184.073 381.944,184.694 381.764,185.318 C381.626,185.811 381.48,186.304 381.328,186.799 L381.897,188.737 C382.202,187.855 382.484,186.977 382.729,186.108 C382.961,185.326 383.173,184.556 383.369,183.782 C383.386,183.716 383.396,183.652 383.415,183.594 C384.58,178.833 385.06,174.199 384.873,169.656 C384.739,166.423 384.261,163.238 383.492,160.105 C383.07,158.392 382.55,156.691 381.955,155.006 C381.846,154.704 381.737,154.394 381.621,154.094 C380.837,151.976 379.92,149.886 378.901,147.825 C375.007,140.014 369.546,132.688 363.446,126.044 C363.105,125.666 362.758,125.289 362.41,124.914 C361.69,124.151 360.971,123.395 360.24,122.657 C359.361,121.765 358.476,120.881 357.581,120.016 L356.713,119.175 C354.783,117.333 352.826,115.557 350.871,113.86 C347.872,111.249 344.869,108.817 341.961,106.574 C326.216,94.4414 313.951,87.9181 302.171,85.4371 C296.797,84.2984 291.137,84.0993 285.355,84.8443 C270.338,86.7713 256.392,94.7882 248.041,106.287 C246.382,108.576 244.723,111.237 243.005,114.103 C242.276,115.319 241.532,116.578 240.777,117.862 C239.971,119.226 239.141,120.634 238.272,122.072 C236.033,125.819 233.572,129.758 230.745,133.679 L232.396,133.338 C235.167,129.405 237.583,125.476 239.804,121.756 Z" id="Path" fill="#DAEBFE"></path>
                <path d="M377.546,196.28 C376.88,197.654 376.17,199.037 375.401,200.439 C375.698,200.68 376.003,200.926 376.306,201.165 C377.017,199.89 377.675,198.626 378.288,197.371 C379.729,194.439 380.935,191.562 381.896,188.737 L381.328,186.799 C380.361,189.896 379.105,193.053 377.546,196.28 Z" id="Path" fill="#DAEBFE"></path>
                <path d="M340.034,247.704 C343.285,242.844 347.57,237.718 353.178,231.707 C359.815,224.589 365.373,217.847 369.879,211.4 C372.331,207.903 374.469,204.495 376.307,201.164 C376.003,200.925 375.698,200.679 375.401,200.44 C373.583,203.75 371.464,207.14 369.023,210.618 C364.538,217.054 358.98,223.795 352.337,230.923 C346.754,236.905 342.469,242.024 339.189,246.866 C335.204,252.734 332.708,258.186 331.171,264.291 C329.708,270.115 329.118,276.546 328.948,284.46 C329.331,284.425 329.716,284.391 330.099,284.356 C330.268,276.892 330.813,270.772 332.151,265.225 C333.627,259.056 336.074,253.582 340.034,247.704 Z" id="Path" fill="#DAEBFE"></path>
                <path d="M58.4777,275.519 C54.6832,271.713 51.3033,268.007 48.3244,264.411 C37.922,251.832 32.4353,240.487 31.6423,229.972 C30.7872,218.667 35.2776,207.719 40.9872,198.643 C45.287,191.79 50.2845,186.007 54.1887,181.955 C57.0255,179.013 60.3479,175.847 64.0642,172.831 C67.9368,169.675 72.2429,166.676 76.8448,164.25 C77.5686,163.869 78.297,163.503 79.0343,163.149 C82.8215,161.34 86.7931,159.941 90.8897,159.179 C91.6459,159.031 92.4003,158.906 93.1601,158.811 C93.9567,158.708 94.7597,158.635 95.5383,158.59 C96.9779,158.502 98.4813,158.493 100.031,158.559 L100.04,158.565 C102.951,158.682 106.031,159.059 109.242,159.586 C114.053,160.385 119.142,161.521 124.379,162.703 C124.855,162.805 125.334,162.915 125.812,163.025 C126.07,163.08 126.337,163.141 126.604,163.202 C130.415,164.053 134.351,164.909 138.463,165.691 C145.818,167.076 152.72,167.908 159.276,168.185 C165.472,168.443 171.352,168.211 177.007,167.483 C180.059,167.093 183.044,166.553 185.934,165.864 C189.661,164.994 193.253,163.882 196.694,162.53 L196.459,161.388 C193.019,162.748 189.429,163.867 185.704,164.745 C182.834,165.422 179.889,165.961 176.857,166.347 C172.827,166.863 168.683,167.131 164.376,167.131 C156.393,167.158 147.896,166.3 138.678,164.564 C135.192,163.901 131.826,163.182 128.558,162.459 C128.307,162.402 128.065,162.351 127.823,162.294 C126.745,162.052 125.678,161.817 124.626,161.578 C119.22,160.361 113.96,159.183 108.995,158.385 C106.071,157.907 103.254,157.569 100.563,157.429 L100.548,157.432 C98.7915,157.339 97.093,157.334 95.4628,157.439 C94.6626,157.488 93.8371,157.566 93.0108,157.675 C92.2213,157.777 91.4364,157.9 90.6559,158.045 C86.5773,158.818 82.6237,160.191 78.8445,161.968 C78.0704,162.329 77.307,162.71 76.5481,163.106 C75.1328,163.847 73.7454,164.643 72.3904,165.479 C71.8554,165.806 71.3222,166.14 70.8052,166.478 C68.3487,168.076 66.0081,169.794 63.8025,171.564 C59.8642,174.734 56.3431,178.064 53.3615,181.161 C49.3359,185.337 44.1658,191.334 39.7509,198.451 C34.0673,207.613 29.6308,218.635 30.494,230.054 C31.3132,240.811 36.8835,252.378 47.4495,265.148 C50.4509,268.778 53.8506,272.503 57.6657,276.335 C58.3266,276.995 58.9884,277.662 59.6565,278.32 C63.1084,281.707 66.6897,285.025 70.3619,288.286 C70.9706,288.316 71.5784,288.348 72.1872,288.376 C68.2318,284.892 64.3843,281.34 60.6806,277.706 C59.9433,276.978 59.2069,276.25 58.4777,275.519 Z" id="Path" fill="#DAEBFE"></path>
                <path d="M64.2769,0 C61.372,0 59,2.37918 59,5.28707 L59,186.713 C59,189.618 61.372,192 64.2769,192 L337.723,192 C340.625,192 343,189.618 343,186.713 L343,5.28707 C343,2.37918 340.625,0 337.723,0 L64.2769,0 Z" id="Path" fill="url(#linearGradient-1)"></path>
                <path d="M193.782,51 L300.221,51 C305.069,51 309,46.9716 309,41.9973 C309,37.0284 305.069,33 300.221,33 L193.782,33 C188.931,33 185,37.0284 185,41.9973 C185,46.9716 188.931,51 193.782,51 Z" id="Path" fill="#EFEFEF"></path>
                <path d="M193.782,80 L300.221,80 C305.069,80 309,75.971 309,70.9986 C309,66.029 305.069,62 300.221,62 L193.782,62 C188.931,62 185,66.029 185,70.9986 C185,75.971 188.931,80 193.782,80 Z" id="Path" fill="#EFEFEF"></path>
                <path d="M193.782,111 L300.221,111 C305.069,111 309,107.195 309,102.497 C309,97.8046 305.069,94 300.221,94 L193.782,94 C188.931,94 185,97.8046 185,102.497 C185,107.195 188.931,111 193.782,111 Z" id="Path" fill="#EFEFEF"></path>
                <path d="M230.733,142 L300.27,142 C305.091,142 309,138.195 309,133.5 C309,128.805 305.091,125 300.27,125 L230.733,125 C225.911,125 222,128.805 222,133.5 C222,138.195 225.911,142 230.733,142 Z" id="Path" fill="#EFEFEF"></path>
                <path d="M157.693,107 L98.3042,107 C95.3756,107 93,104.631 93,101.704 L93,38.2989 C93,35.372 95.3756,33 98.3042,33 L157.693,33 C160.624,33 163,35.372 163,38.2989 L163,101.704 C163,104.631 160.624,107 157.693,107 Z" id="Path" fill="#EFEFEF"></path>
                <path d="M113.584,70.8559 L119.847,70.8559 L116.716,62.564 L113.584,70.8559 Z M114.944,57.3535 L118.487,57.3535 L127.058,79.2111 L122.978,79.2111 L120.985,73.9691 L112.414,73.9691 L110.422,79.2111 L106.373,79.2111 L114.944,57.3535 Z" id="Shape" fill="#0398DE"></path>
                <path d="M133.636,75.8129 L137.178,75.8129 C138.148,75.8129 139.044,75.6275 139.867,75.2569 C140.689,74.8863 141.39,74.3726 141.97,73.7161 C142.55,73.0595 143.003,72.2705 143.33,71.3466 C143.657,70.4279 143.82,69.406 143.82,68.2834 C143.82,67.1821 143.657,66.1655 143.33,65.2335 C143.003,64.3016 142.55,63.5074 141.97,62.8508 C141.39,62.1942 140.689,61.6806 139.867,61.3073 C139.044,60.9393 138.148,60.754 137.178,60.754 L133.636,60.754 L133.636,75.8129 Z M129.525,57.3542 L137.4,57.3542 C138.96,57.3542 140.394,57.6243 141.701,58.1644 C143.008,58.7045 144.131,59.4563 145.069,60.42 C146.008,61.3837 146.74,62.538 147.268,63.8829 C147.795,65.2278 148.058,66.6945 148.058,68.283 C148.058,69.8715 147.795,71.3382 147.268,72.6831 C146.74,74.0281 146.008,75.1824 145.069,76.146 C144.131,77.1097 143.008,77.8616 141.701,78.4017 C140.394,78.9418 138.96,79.2118 137.4,79.2118 L129.525,79.2118 L129.525,57.3542 Z" id="Shape" fill="#0398DE"></path>
                <g id="Group" transform="translate(289.000000, 67.000000)" fill-rule="nonzero">
                    <path d="M82.363,90.363 C100.539,72.176 100.539,42.687 82.363,24.4993 C64.187,6.3114 34.718,6.3114 16.542,24.4993 C-1.634,42.687 -1.634,72.176 16.542,90.363 C34.718,108.551 64.187,108.551 82.363,90.363 Z" id="Path" fill="#242424" opacity="0.25"></path>
                    <path d="M79.455,80.499 C97.631,62.311 97.631,32.8227 79.455,14.6348 C61.279,-3.5531 31.81,-3.5531 13.634,14.6348 C-4.541,32.8227 -4.541,62.311 13.634,80.499 C31.81,98.687 61.279,98.687 79.455,80.499 Z" id="Path" fill="#03E59F"></path>
                    <path d="M36.771,65.261 L22.683,52.042 C19.656,49.2 19.656,44.414 22.683,41.572 C25.448,38.992 29.727,38.992 32.492,41.572 L40.097,48.714 C40.975,49.537 42.357,49.537 43.254,48.714 L65.096,28.2225 C67.861,25.6423 72.14,25.6423 74.905,28.2225 C77.932,31.0644 77.932,35.851 74.905,38.693 L46.58,65.261 C43.815,67.859 39.536,67.859 36.771,65.261 Z" id="Path" fill="#FFFFFF"></path>
                </g>
            </g>
            <g id="header_splash_buy_proxies_for_ad_verification2" transform="translate(260.000000, 113.000000)" fill-rule="nonzero">
                <path d="M49.2692,172.269 C48.4615,171.807 47.6539,171.46 46.8462,171.113 L42.2308,169.033 L42.5769,169.842 C39,169.149 35.1923,169.149 31.6154,169.727 L31.8462,168.802 L26.4231,171.229 C25.7308,171.576 25.0385,171.807 24.3462,172.269 C17.4231,176.198 17.4231,182.67 24.3462,186.599 C31.2692,190.528 42.3462,190.528 49.2692,186.599 C56.1923,182.67 56.1923,176.198 49.2692,172.269 Z" id="Path" fill="#983BE9"></path>
                <path d="M42.6923,175.967 C39.4615,177.816 34.2692,177.816 31.0385,175.967 C27.8077,174.118 27.8077,171.113 31.0385,169.264 C34.2692,167.415 39.4615,167.415 42.6923,169.264 C45.9231,171.113 45.9231,174.118 42.6923,175.967 Z" id="Path" fill="#8A2AE3"></path>
                <path d="M36.9231,173.887 C35.4231,173.887 34.1539,172.615 34.1539,171.113 L34.1539,135.634 L39.8077,135.634 L39.8077,171.113 C39.6923,172.731 38.4231,173.887 36.9231,173.887 Z" id="Path" fill="#8A2AE3"></path>
                <path d="M38.8846,136.906 C37.7308,137.599 36,137.599 34.8462,136.906 C33.6923,136.212 33.6923,135.172 34.8462,134.594 C36,133.901 37.7308,133.901 38.8846,134.594 C39.9231,135.288 39.9231,136.328 38.8846,136.906 Z" id="Path" fill="#983BE9"></path>
                <path d="M36.9231,136.906 C35.6538,136.906 34.6154,135.866 34.6154,134.594 L34.6154,101.311 L39.1154,101.311 L39.1154,134.594 C39.1154,135.866 38.1923,136.906 36.9231,136.906 Z" id="Path" fill="#8A2AE3"></path>
                <path d="M69.5769,118.762 L69.5769,117.491 L71.4231,117.26 L73.5,115.757 C73.8461,115.526 74.4231,115.526 74.8846,115.757 L76.3846,116.682 L77.8846,116.451 L77.8846,117.722 C77.8846,117.838 77.7692,118.069 77.5384,118.069 L72.6923,120.264 C72.3461,120.38 71.7692,120.38 71.4231,120.264 L69.8077,119.34 C69.6923,118.993 69.5769,118.878 69.5769,118.762 Z" id="Path" fill="#B45EF4"></path>
                <path d="M69.6923,117.028 L73.3846,114.255 C73.7308,114.024 74.3077,114.024 74.7692,114.255 L77.5385,115.873 C77.8846,116.104 77.8846,116.451 77.4231,116.682 L72.5769,118.878 C72.2308,118.993 71.6538,118.993 71.3077,118.878 L69.6923,117.953 C69.4615,117.606 69.4615,117.26 69.6923,117.028 Z" id="Path" fill="#8A2AE3"></path>
                <path d="M63.4615,123.385 C64.0385,123.385 64.5,123.269 64.9615,123.038 L70.7308,119.686 C71.0769,119.455 71.1923,119.109 70.9615,118.762 C70.7308,118.415 70.3846,118.3 70.0385,118.531 L64.2692,121.882 C63.8077,122.113 63.1154,122.113 62.6538,121.882 L53.0769,116.335 C52.7308,116.104 52.3846,116.22 52.1538,116.566 C51.9231,116.913 52.0385,117.26 52.3846,117.491 L61.9615,123.038 C62.4231,123.269 63,123.385 63.4615,123.385 Z" id="Path" fill="#B45EF4"></path>
                <polygon id="Path" fill="url(#radialGradient-2)" points="8.19231 111.134 17.4231 105.818 12.2308 103.507 7.73077 106.627"></polygon>
                <path d="M67.5,103.16 C67.0385,102.929 66.4615,102.582 66,102.236 L46.2692,87.7899 C42.6923,85.1319 39,84.5541 36.2308,85.9409 C36.1154,85.9409 36.1154,86.0564 36,86.0564 L8.76923,101.889 L11.1923,102.698 L20.7692,106.974 L33.6923,116.219 L43.9615,121.651 L44.4231,121.766 C46.8462,119.802 49.5,118.068 51,115.063 C53.5385,110.672 60.5769,109.401 64.7308,105.703 C65.1923,105.934 65.5385,106.165 66,106.396 C66.8077,105.587 67.0385,104.431 67.5,103.16 Z" id="Path" fill="#8A2AE3"></path>
                <path d="M76.1538,96.6887 C75.6923,96.6887 75.3461,96.8043 75,97.0354 L48.3461,112.521 L49.2692,116.566 L50.3077,116.104 C48.8077,118.531 46.5,120.033 44.3077,121.882 L47.3077,122.576 L73.3846,107.436 C73.5,107.436 73.6154,107.321 73.7308,107.321 C74.0769,107.09 74.4231,106.974 74.7692,106.627 C76.7308,105.125 77.8846,102.467 77.8846,99.1156 L77.8846,98.7689 C78,97.4977 77.1923,96.6887 76.1538,96.6887 Z" id="Path" fill="#721BD5"></path>
                <path d="M39.6923,85.1321 C41.3077,85.2476 43.1538,85.7099 44.8846,86.8656 C43.1538,85.8255 41.3077,85.2476 39.6923,85.1321 Z" id="Path" fill="#EAEAEA"></path>
                <path d="M51.8077,113.677 L51.8077,113.33 C51.8077,112.29 51,111.481 49.9615,111.481 C48.9231,111.481 48.1154,112.29 48.1154,113.33 L48.1154,113.677 C48.1154,116.104 47.3077,117.953 46.0385,118.646 C44.5385,119.455 42.2308,118.877 39.8077,117.144 L20.0769,102.698 C17.0769,100.5024 13.9615,99.6934 11.3077,100.3868 L27.5769,90.9104 L8.76923,101.889 L11.1923,102.698 L20.7692,106.974 L33.6923,116.219 L43.9615,121.651 L44.4231,121.767 C46.8461,119.802 49.5,118.068 51,115.064 C51.1154,114.601 51.4615,114.255 51.8077,113.677 C51.8077,113.792 51.8077,113.792 51.8077,113.677 Z" id="Path" fill="#B45EF4"></path>
                <path d="M43.9615,123.269 C41.7692,123.269 39.4615,122.344 37.1539,120.726 L17.3077,106.281 C14.8846,104.547 12.5769,103.969 11.0769,104.778 C9.69231,105.472 9,107.321 9,109.748 C9,110.788 8.19231,111.597 7.15385,111.597 C6.11539,111.597 5.30769,110.788 5.30769,109.748 C5.30769,105.818 6.80769,102.929 9.46154,101.542 C12.3462,100.1556 15.9231,100.7334 19.5,103.391 L39.2308,117.722 C41.6539,119.455 43.9615,120.033 45.4615,119.224 C46.8462,118.531 47.5385,116.682 47.5385,114.255 L47.5385,113.908 C47.5385,112.868 48.3462,112.059 49.3846,112.059 C50.4231,112.059 51.2308,112.868 51.2308,113.908 L51.2308,114.255 C51.2308,118.184 49.7308,121.073 47.0769,122.46 C46.1539,123.038 45,123.269 43.9615,123.269 Z" id="Path" fill="#983BE9"></path>
                <path d="M28.3846,155.627 C28.3846,155.627 24.6923,153.778 22.3846,156.552 C20.0769,159.326 16.8462,165.913 16.7308,170.42 C16.6154,174.927 20.1923,174.58 22.3846,173.54 C24.5769,172.5 30.8077,163.37 31.1538,161.521 C31.5,159.788 30.6923,157.361 30.1154,156.899 C29.6538,156.321 28.3846,155.627 28.3846,155.627 Z" id="Path" fill="#5C5C5C"></path>
                <path d="M29.1923,154.703 L29.3077,158.516 C29.3077,159.325 28.9615,160.134 28.2692,160.481 C27.5769,160.828 26.6538,161.174 25.3846,160.943 C22.6154,160.481 22.3846,159.672 22.1538,155.858 C22.0385,152.045 29.1923,154.703 29.1923,154.703 Z" id="Path" fill="#E8A200"></path>
                <path d="M14.8846,148.231 C14.8846,148.231 11.1923,146.382 8.88461,149.156 C6.57692,151.929 3.34615,158.517 3.23077,163.024 C3.11538,167.531 6.69231,167.184 8.88461,166.144 C11.0769,165.104 17.3077,155.974 17.6538,154.125 C18,152.392 17.1923,149.965 16.6154,149.502 C16.0385,148.925 14.8846,148.231 14.8846,148.231 Z" id="Path" fill="#5C5C5C"></path>
                <path d="M15.6923,147.307 L15.8077,151.12 C15.8077,151.929 15.4615,152.738 14.7692,153.085 C14.0769,153.432 13.1538,153.778 11.8846,153.547 C9.11539,153.085 8.88462,152.276 8.65385,148.462 C8.42308,144.649 15.6923,147.307 15.6923,147.307 Z" id="Path" fill="#E8A200"></path>
                <path d="M48.8077,76.5802 C47.6538,58.6675 29.4231,79.2382 29.4231,79.2382 L16.9615,91.4882 L5.65385,103.854 C3.46154,106.281 2.42308,109.517 2.88461,112.752 L7.38461,147.422 C7.61538,149.156 9.11538,150.427 10.8462,150.427 C11.3077,150.427 11.8846,150.427 12.5769,150.311 C16.6154,149.734 16.3846,145.804 16.3846,145.804 L15.5769,113.33 L39.2308,99.1156 C39.1154,99.1156 49.8462,94.493 48.8077,76.5802 Z" id="Path" fill="#FCCA2E"></path>
                <path d="M62.3077,83.3986 C61.1538,65.4858 42.9231,86.0566 42.9231,86.0566 L30.4615,98.3066 L19.2692,110.672 C17.0769,113.099 16.0384,116.335 16.5,119.571 L21,154.241 C21.2308,155.974 22.7308,157.245 24.4615,157.245 C24.9231,157.245 25.5,157.245 26.1923,157.13 C30.2308,156.552 30,152.623 30,152.623 L29.1923,120.149 L52.8461,105.934 C52.6154,105.934 63.4615,101.311 62.3077,83.3986 Z" id="Path" fill="#FCCA2E"></path>
                <path d="M51.5769,25.9621 C65.4231,31.7404 65.1923,39.9456 65.1923,39.9456 C65.1923,39.9456 62.5384,69.9928 63.4615,89.9857 C63.8077,98.422 19.0385,98.9998 25.7308,76.6956 C33.5769,50.3465 30.6923,28.9668 34.3846,25.731 C37.8461,22.4951 48,24.4598 51.5769,25.9621 Z" id="Path" fill="#B12DE8"></path>
                <path d="M56.0345,33.3246 C56.7656,30.4814 54.2566,27.3765 50.4305,26.3896 C46.6043,25.4026 42.91,26.9074 42.1789,29.7506 C41.4479,32.5938 43.9569,35.6987 47.783,36.6857 C51.6091,37.6726 55.3034,36.1678 56.0345,33.3246 Z" id="Path" fill="#FFC2B0"></path>
                <path d="M50.1923,37.5189 C49.3846,37.5189 48.4615,37.4033 47.6538,37.1722 C45.6923,36.7099 43.9615,35.5543 42.8077,34.1675 C41.6538,32.6651 41.1923,31.0472 41.5385,29.4293 C42,27.8113 43.1538,26.6557 44.8846,25.8467 C46.6154,25.1533 48.5769,25.0377 50.5384,25.6156 C52.5,26.0778 54.2308,27.2335 55.3846,28.6203 C56.5385,30.1227 57,31.7406 56.6538,33.3585 C56.1923,34.9764 55.0385,36.1321 53.3077,36.941 C52.3846,37.2877 51.2308,37.5189 50.1923,37.5189 Z M48,26.7712 C47.0769,26.7712 46.1538,26.8868 45.3461,27.2335 C43.9615,27.8113 43.0384,28.7359 42.8077,29.8915 C42.4615,31.0472 42.8077,32.3184 43.7308,33.4741 C44.6538,34.6297 46.1538,35.5543 47.8846,36.0165 C49.6154,36.4788 51.3461,36.3632 52.7308,35.7854 C54.1154,35.2076 55.0385,34.283 55.2692,33.1274 C55.6154,31.9717 55.2692,30.7005 54.3461,29.5448 C53.4231,28.3892 51.9231,27.4646 50.1923,27.0024 C49.5,26.8868 48.8077,26.7712 48,26.7712 Z" id="Shape" fill="#FFFFFF"></path>
                <path d="M46.0385,25.3843 C46.0385,25.3843 46.1538,25.9622 45.9231,30.3537 C45.8077,31.7405 50.6538,33.0117 51.9231,31.7405 C53.1923,30.4693 52.6154,29.198 52.9615,24.4598 C53.1923,19.8372 46.0385,25.3843 46.0385,25.3843 Z" id="Path" fill="#FFC2B0"></path>
                <path d="M52.9615,24.46 C52.9615,24.46 51.8077,28.8515 45.9231,30.4694 L46.0385,26.5401 L52.9615,24.46 Z" id="Path" fill="#EA9C92"></path>
                <path d="M56.6539,13.4812 C58.1539,19.144 54.6923,25.0378 49.0385,26.4246 C43.3846,27.927 37.5,24.46 36.1154,18.7973 C34.6154,13.1345 38.0769,7.24065 43.7308,5.85385 C49.3846,4.46706 55.1539,7.70291 56.6539,13.4812 Z" id="Path" fill="#FFC2B0"></path>
                <path d="M48.8077,16.4858 C48.8077,16.4858 42.9231,19.0283 38.8846,19.0283 C34.8462,19.0283 35.7692,15.6769 35.7692,15.6769 L47.7692,13.9434 L48.8077,16.4858 Z" id="Path" fill="#EA9C92"></path>
                <path d="M37.6154,17.1793 C37.6154,17.1793 42.6923,14.9835 47.1923,15.908 C48.2308,16.1392 49.2692,16.717 49.8461,17.526 C50.0769,17.7571 50.3077,18.1038 50.6538,18.1038 C51.4615,18.3349 52.7308,14.9835 54.3461,14.8679 C55.8461,14.7524 56.8846,15.908 55.6154,17.8727 C54.3461,19.9528 54.8077,22.1486 55.3846,22.4953 C55.9615,22.842 62.1923,18.1038 56.6538,7.24058 C51.2308,-3.62263 37.3846,2.27124 35.1923,4.467 C35.1923,4.467 32.8846,6.43162 31.0385,4.69813 C31.1538,4.81369 29.0769,20.2995 37.6154,17.1793 Z" id="Path" fill="#5C5C5C"></path>
                <path d="M57.3462,61.9033 L57.3462,69.9929 C57.3462,70.9175 57,71.842 56.3077,72.4198 L39.5769,87.6745 L41.4231,90.5637 L63.3462,74.6156 C64.3846,73.9222 65.0769,72.7665 65.1923,71.4953 L66.6923,57.3962 L57.3462,61.9033 Z" id="Path" fill="#FFC2B0"></path>
                <path d="M63.9231,35.9011 C63.9231,35.9011 69,43.5285 70.8462,63.5214 C70.8462,63.5214 62.1923,66.295 57.3462,64.6771 C52.5,63.1747 63.9231,35.9011 63.9231,35.9011 Z" id="Path" fill="#983BE9"></path>
                <path d="M56.4231,45.4932 C56.4231,45.4932 54.4615,56.1252 54.3461,61.0946 C54.3461,62.4814 55.1538,63.7526 56.4231,64.2149 L56.4231,45.4932 Z" id="Path" fill="#6614CF"></path>
                <path d="M52.1539,98.191 L48.4615,97.7288 L24.6923,83.9764 C23.8846,83.5141 22.6154,83.6297 21.6923,84.092 L4.84616,93.7995 L2.65385,93.4528 L2.65385,95.7641 C2.65385,96.1108 2.76924,96.342 3.11539,96.5731 L30,112.175 C30.8077,112.637 32.0769,112.521 33,112.059 L51.3462,101.427 C51.8077,101.196 52.0385,100.7335 52.0385,100.3868 L52.0385,98.191 L52.1539,98.191 Z" id="Path" fill="#173D7A"></path>
                <path d="M34.2692,89.5234 L32.5385,88.5989 L14.0769,88.5989 L4.96155,93.9149 L2.76924,93.5682 L2.76924,95.764 C2.76924,96.1107 2.88463,96.3418 3.23078,96.5729 L30.1154,112.174 C30.4615,112.405 31.0385,112.521 31.6154,112.405 L34.2692,89.5234 Z" id="Path" fill="#396CAA"></path>
                <path d="M3.69232,93.6839 L2.65385,93.5684 L2.65385,95.7641 C2.65385,96.1108 2.76924,96.3419 3.11539,96.5731 L3.57693,96.8042 L3.57693,93.6839 L3.69232,93.6839 Z" id="Path" fill="#5793CE"></path>
                <path d="M30.3462,112.175 C31.0385,112.406 32.0769,112.406 32.8846,112.059 L32.8846,108.245 L30.3462,108.245 L30.3462,112.175 Z" id="Path" fill="#274F89"></path>
                <path d="M30.1167,109.863 L3.23204,94.2617 C2.42435,93.7995 2.53973,93.1061 3.46281,92.5282 L21.809,81.8962 C22.732,81.4339 24.0013,81.3183 24.809,81.7806 L51.6936,97.382 C52.5013,97.8443 52.3859,98.5377 51.4628,99.1155 L33.1167,109.748 C32.1936,110.21 30.809,110.325 30.1167,109.863 Z" id="Path" fill="#FFFFFF"></path>
                <path d="M29.6539,107.552 L7.26924,94.6084 C6.69232,94.2617 6.69232,93.5683 7.50001,93.2216 L17.3077,87.6745 C18,87.2122 19.1539,87.2122 19.7308,87.5589 L42.1154,100.5023 C42.6923,100.849 42.6923,101.542 41.8846,101.889 L32.0769,107.436 C31.3846,107.783 30.2308,107.899 29.6539,107.552 Z" id="Path" fill="#D4ECFF"></path>
                <path d="M22.7308,81.4339 L22.5,83.283 C22.2692,84.9009 22.2692,86.5189 22.6154,88.0212 L22.9615,89.6391 C23.1923,90.5637 23.8846,91.2571 24.8077,91.4882 C25.5,91.6038 26.1923,91.1415 26.3077,90.3325 L26.7692,86.4033 C26.7692,86.4033 27.8077,87.7901 28.2692,87.7901 C28.7308,87.7901 27.6923,83.8608 26.6539,81.5495 C25.5,79.3537 22.7308,81.4339 22.7308,81.4339 Z" id="Path" fill="#FFC2B0"></path>
                <path d="M31.8462,51.9647 L28.9615,57.743 C28.2692,59.1298 27.9231,60.6322 27.8077,62.1345 L26.5385,81.5496 L22.7308,81.4341 L21,59.4765 C21,58.7831 21,58.0897 21.1154,57.3963 L23.0769,46.302 L31.8462,51.9647 Z" id="Path" fill="#FFC2B0"></path>
                <path d="M29.1923,111.365 L26.8846,108.361 L3.23076,94.6084 C2.42307,94.1461 1.84615,92.9905 1.84615,91.9504 L1.84615,72.5353 L0.461533,70.8018 L1.73076,70.1084 C1.96153,69.9928 2.30769,69.9928 2.65384,70.1084 L29.5385,85.7098 C30.3462,86.1721 30.9231,87.3277 30.9231,88.3678 L30.9231,109.516 C30.9231,110.094 30.6923,110.441 30.4615,110.672 L29.1923,111.365 Z" id="Path" fill="#173D7A"></path>
                <path d="M12.8077,100.1557 L11.0769,99.2312 L1.84615,83.1675 L1.84615,72.651 L0.461533,70.9175 L1.73076,70.2241 C1.96153,70.1086 2.30769,70.1086 2.65384,70.2241 L29.5385,85.8255 C29.8846,86.0567 30.3462,86.5189 30.5769,86.9812 L12.8077,100.1557 Z" id="Path" fill="#396CAA"></path>
                <path d="M1.03846,71.6108 L0.461533,70.8018 L1.73076,70.1084 C1.96153,69.9928 2.30769,69.9928 2.65384,70.1084 L3.11538,70.3395 L1.03846,71.6108 Z" id="Path" fill="#5793CE"></path>
                <path d="M29.7692,85.8254 C30.3462,86.2877 30.8077,87.2122 30.9231,88.1368 L28.2692,89.6391 L27,87.4434 L29.7692,85.8254 Z" id="Path" fill="#274F89"></path>
                <path d="M28.2692,86.4034 L1.38462,70.802 C0.692308,70.3397 0,70.802 0,71.8421 L0,92.9907 C0,94.0308 0.576923,95.1864 1.38462,95.6487 L28.2692,111.25 C29.0769,111.712 29.6538,111.25 29.6538,110.21 L29.6538,89.0614 C29.6538,88.0213 29.0769,86.8657 28.2692,86.4034 Z" id="Path" fill="#FFFFFF"></path>
                <path d="M41.5385,90.5636 L41.0769,91.4882 C40.6154,92.5282 39.8077,93.3372 38.8846,94.0306 L36.2308,95.6485 C35.4231,96.1108 34.3846,96.2264 33.4615,95.7641 L33.3461,95.7641 C32.5385,95.1863 32.4231,94.0306 33.1154,93.3372 L35.8846,90.4481 C35.8846,90.4481 34.2692,91.6037 33.9231,91.1415 C33.5769,90.7948 35.4231,89.0613 36.8077,88.9457 C38.1923,88.9457 39.5769,87.79 39.5769,87.79 L41.5385,90.5636 Z" id="Path" fill="#FFC2B0"></path>
                <path d="M34.3846,25.7312 C34.3846,25.7312 24.1154,36.8255 20.0769,47.1109 C20.0769,47.1109 23.5385,53.4671 32.1923,55.8939 C40.8461,58.3208 34.3846,25.7312 34.3846,25.7312 Z" id="Path" fill="#983BE9"></path>
                <path d="M30.2308,55.2006 L31.8462,39.137 L27.9231,54.1605 C28.6154,54.5072 29.4231,54.8539 30.2308,55.2006 Z" id="Path" fill="#6614CF"></path>
                <path d="M42.1154,23.4198 L39.3462,22.6108 C39.3462,22.6108 40.6154,24.691 42.5769,25.1533 C44.5385,25.7311 44.7692,24.1132 44.7692,24.1132 L42.1154,23.4198 Z" id="Path" fill="#FFFFFF"></path>
            </g>
        </g>
    </g>
</svg>