<?xml version="1.0" encoding="UTF-8"?>
<svg width="3722px" height="801px" viewBox="0 0 3722 801" version="1.1" xmlns="http://www.w3.org/2000/svg" xmlns:xlink="http://www.w3.org/1999/xlink">
    <!-- Generator: Sketch 54.1 (76490) - https://sketchapp.com -->
    <title>header_bg</title>
    <desc>Created with Sketch.</desc>
    <defs>
        <linearGradient x1="0%" y1="49.9999983%" x2="100.000047%" y2="49.9999983%" id="linearGradient-1">
            <stop stop-color="#050E49" offset="0%"></stop>
            <stop stop-color="#332682" offset="100%"></stop>
        </linearGradient>
        <linearGradient x1="7.69201659e-06%" y1="49.9999569%" x2="100.000019%" y2="49.9999569%" id="linearGradient-2">
            <stop stop-color="#5D2493" offset="0%"></stop>
            <stop stop-color="#5250E1" offset="100%"></stop>
        </linearGradient>
    </defs>
    <g id="Page-1" stroke="none" stroke-width="1" fill="none" fill-rule="evenodd">
        <g id="header_bg" transform="translate(0.000000, 0.000000)" fill-rule="nonzero">
            <path d="M0.205255347,-5.68434189e-14 L0.205255347,85.1063113 L0,85.1063113 L0,785.929931 C708.443046,656.392975 1522.41265,790.64328 2514.75478,800.417782 C2554.09349,800.805927 2592.43409,800.993458 2629.64435,801 L2633.34738,801 C3399.89737,800.883338 3716.79475,723.586816 3716.79475,723.586816 L3716.79475,696.834227 L3717,696.834227 L3717,-5.68434189e-14 L0.205255347,-5.68434189e-14 Z" id="Fill-1" fill="url(#linearGradient-1)"></path>
            <path d="M3722,0.128734977 L2019.79704,0.128734977 C2019.79704,0.128734977 1358.61308,-16.650066 1358.61308,332.901988 C1358.61308,638.354085 602,729.008842 602,729.008842 C1402.88956,728.903262 2915.7617,866.369883 3715.99181,725.473643 L3722,0.128734977 Z" id="Fill-1" fill-opacity="0.7" fill="url(#linearGradient-2)" style="mix-blend-mode: multiply;"></path>
        </g>
    </g>
</svg>