<svg width="610" height="296" viewBox="0 0 610 296" fill="none" xmlns="http://www.w3.org/2000/svg">
<path d="M179.3 289.5L180.3 288C183.8 282.7 189.7 279.4 196.1 279.4H290.4C297 279.4 303.2 282.9 306.6 288.6L307.2 289.5H179.3Z" fill="#01013D"/>
<path opacity="0.15" d="M222.7 295.6C345.694 295.6 445.4 292.466 445.4 288.6C445.4 284.734 345.694 281.6 222.7 281.6C99.7062 281.6 0 284.734 0 288.6C0 292.466 99.7062 295.6 222.7 295.6Z" fill="url(#paint0_linear)"/>
<path fill-rule="evenodd" clip-rule="evenodd" d="M109.9 49H379.3C389 49 396.9 56.9 396.9 66.6V223.6H92.3V66.6C92.3 56.9 100.2 49 109.9 49Z" fill="#01013D"/>
<path d="M384.4 61.8999H104.8V239.7H384.4V61.8999Z" fill="#3052E4"/>
<path d="M112.359 78.4158C112.359 73.9975 115.941 70.4158 120.359 70.4158H368.939C373.358 70.4158 376.939 73.9975 376.939 78.4158V237.354H112.359V78.4158Z" fill="#2C267D"/>
<path fill-rule="evenodd" clip-rule="evenodd" d="M220.1 174H271C272.1 174 273.1 174.9 273.1 176.1C273.1 177.2 272.2 178.2 271 178.2H220.1C219 178.2 218 177.3 218 176.1C218 175 219 174 220.1 174Z" fill="#2B348C"/>
<path fill-rule="evenodd" clip-rule="evenodd" d="M220.1 92H283.4C284.5 92 285.5 92.9 285.5 94.1C285.5 95.2 284.6 96.2 283.4 96.2H220.1C219 96.2 218 95.3 218 94.1C218 92.9 219 92 220.1 92Z" fill="#2B348C"/>
<path fill-rule="evenodd" clip-rule="evenodd" d="M220.1 103.2H283.4C284.5 103.2 285.5 104.1 285.5 105.3C285.5 106.4 284.6 107.4 283.4 107.4H220.1C219 107.4 218 106.5 218 105.3C218 104.1 219 103.2 220.1 103.2Z" fill="#2B348C"/>
<path fill-rule="evenodd" clip-rule="evenodd" d="M220.1 114.4H237.3C238.4 114.4 239.4 115.3 239.4 116.5C239.4 117.6 238.5 118.6 237.3 118.6H220.1C219 118.6 218 117.7 218 116.5C218 115.3 219 114.4 220.1 114.4Z" fill="#2B348C"/>
<path fill-rule="evenodd" clip-rule="evenodd" d="M244.6 114.4H261.8C262.9 114.4 263.9 115.3 263.9 116.5C263.9 117.6 263 118.6 261.8 118.6H244.6C243.5 118.6 242.5 117.7 242.5 116.5C242.5 115.3 243.4 114.4 244.6 114.4Z" fill="#2B348C"/>
<path fill-rule="evenodd" clip-rule="evenodd" d="M220.1 127.9H243.3C244.4 127.9 245.4 128.8 245.4 130C245.4 131.1 244.5 132.1 243.3 132.1H220.1C219 132.1 218 131.2 218 130C218 128.8 219 127.9 220.1 127.9Z" fill="#2B348C"/>
<path fill-rule="evenodd" clip-rule="evenodd" d="M251.4 127.9H274.6C275.7 127.9 276.7 128.8 276.7 130C276.7 131.1 275.8 132.1 274.6 132.1H251.4C250.3 132.1 249.3 131.2 249.3 130C249.3 128.8 250.2 127.9 251.4 127.9Z" fill="#2B348C"/>
<path fill-rule="evenodd" clip-rule="evenodd" d="M220.1 138H248.1C249.2 138 250.2 138.9 250.2 140.1C250.2 141.2 249.3 142.2 248.1 142.2H220.1C219 142.2 218 141.3 218 140.1C218 139 219 138 220.1 138Z" fill="#2B348C"/>
<path fill-rule="evenodd" clip-rule="evenodd" d="M256.9 138H284.9C286 138 287 138.9 287 140.1C287 141.2 286.1 142.2 284.9 142.2H256.9C255.8 142.2 254.8 141.3 254.8 140.1C254.9 139 255.8 138 256.9 138Z" fill="#2B348C"/>
<path fill-rule="evenodd" clip-rule="evenodd" d="M220.1 149.5H239C240.1 149.5 241.1 150.4 241.1 151.6C241.1 152.7 240.2 153.7 239 153.7H220.1C219 153.7 218 152.8 218 151.6C218 150.4 219 149.5 220.1 149.5Z" fill="#2B348C"/>
<path fill-rule="evenodd" clip-rule="evenodd" d="M220.1 162.7H248.1C249.2 162.7 250.2 163.6 250.2 164.8C250.2 165.9 249.3 166.9 248.1 166.9H220.1C219 166.9 218 166 218 164.8C218 163.7 219 162.7 220.1 162.7Z" fill="#2B348C"/>
<path fill-rule="evenodd" clip-rule="evenodd" d="M256.9 162.7H284.9C286 162.7 287 163.6 287 164.8C287 165.9 286.1 166.9 284.9 166.9H256.9C255.8 166.9 254.8 166 254.8 164.8C254.9 163.7 255.8 162.7 256.9 162.7Z" fill="#2B348C"/>
<path fill-rule="evenodd" clip-rule="evenodd" d="M298.1 174H349C350.1 174 351.1 174.9 351.1 176.1C351.1 177.2 350.2 178.2 349 178.2H298.1C297 178.2 296 177.3 296 176.1C296 175 297 174 298.1 174Z" fill="#2B348C"/>
<path fill-rule="evenodd" clip-rule="evenodd" d="M298.1 92H361.4C362.5 92 363.5 92.9 363.5 94.1C363.5 95.2 362.6 96.2 361.4 96.2H298.1C297 96.2 296 95.3 296 94.1C296 92.9 297 92 298.1 92Z" fill="#2B348C"/>
<path fill-rule="evenodd" clip-rule="evenodd" d="M298.1 103.2H361.4C362.5 103.2 363.5 104.1 363.5 105.3C363.5 106.4 362.6 107.4 361.4 107.4H298.1C297 107.4 296 106.5 296 105.3C296 104.1 297 103.2 298.1 103.2Z" fill="#2B348C"/>
<path fill-rule="evenodd" clip-rule="evenodd" d="M298.1 114.4H315.3C316.4 114.4 317.4 115.3 317.4 116.5C317.4 117.6 316.5 118.6 315.3 118.6H298.1C297 118.6 296 117.7 296 116.5C296 115.3 297 114.4 298.1 114.4Z" fill="#2B348C"/>
<path fill-rule="evenodd" clip-rule="evenodd" d="M322.6 114.4H339.8C340.9 114.4 341.9 115.3 341.9 116.5C341.9 117.6 341 118.6 339.8 118.6H322.6C321.5 118.6 320.5 117.7 320.5 116.5C320.5 115.3 321.4 114.4 322.6 114.4Z" fill="#2B348C"/>
<path fill-rule="evenodd" clip-rule="evenodd" d="M298.1 127.9H321.3C322.4 127.9 323.4 128.8 323.4 130C323.4 131.1 322.5 132.1 321.3 132.1H298.1C297 132.1 296 131.2 296 130C296 128.8 297 127.9 298.1 127.9Z" fill="#2B348C"/>
<path fill-rule="evenodd" clip-rule="evenodd" d="M329.4 127.9H352.6C353.7 127.9 354.7 128.8 354.7 130C354.7 131.1 353.8 132.1 352.6 132.1H329.4C328.3 132.1 327.3 131.2 327.3 130C327.3 128.8 328.2 127.9 329.4 127.9Z" fill="#2B348C"/>
<path fill-rule="evenodd" clip-rule="evenodd" d="M298.1 138H326.1C327.2 138 328.2 138.9 328.2 140.1C328.2 141.2 327.3 142.2 326.1 142.2H298.1C297 142.2 296 141.3 296 140.1C296 139 297 138 298.1 138Z" fill="#2B348C"/>
<path fill-rule="evenodd" clip-rule="evenodd" d="M334.9 138H362.9C364 138 365 138.9 365 140.1C365 141.2 364.1 142.2 362.9 142.2H334.9C333.8 142.2 332.8 141.3 332.8 140.1C332.9 139 333.8 138 334.9 138Z" fill="#2B348C"/>
<path fill-rule="evenodd" clip-rule="evenodd" d="M298.1 149.5H317C318.1 149.5 319.1 150.4 319.1 151.6C319.1 152.7 318.2 153.7 317 153.7H298.1C297 153.7 296 152.8 296 151.6C296 150.4 297 149.5 298.1 149.5Z" fill="#2B348C"/>
<path fill-rule="evenodd" clip-rule="evenodd" d="M298.1 162.7H326.1C327.2 162.7 328.2 163.6 328.2 164.8C328.2 165.9 327.3 166.9 326.1 166.9H298.1C297 166.9 296 166 296 164.8C296 163.7 297 162.7 298.1 162.7Z" fill="#2B348C"/>
<path fill-rule="evenodd" clip-rule="evenodd" d="M334.9 162.7H362.9C364 162.7 365 163.6 365 164.8C365 165.9 364.1 166.9 362.9 166.9H334.9C333.8 166.9 332.8 166 332.8 164.8C332.9 163.7 333.8 162.7 334.9 162.7Z" fill="#2B348C"/>
<path d="M112.359 78.4158C112.359 73.9975 115.941 70.4158 120.359 70.4158H368.939C373.358 70.4158 376.939 73.9975 376.939 78.4158V82.6006H112.359V78.4158Z" fill="#F6CD40"/>
<circle cx="346.102" cy="76.5083" r="2.68456" fill="#31C5FF"/>
<circle cx="354.146" cy="76.5083" r="2.68456" fill="#FC3E54"/>
<circle cx="362.146" cy="76.5083" r="2.68456" fill="#03E59F"/>
<path fill-rule="evenodd" clip-rule="evenodd" d="M220.7 249.8C219.5 272.2 216.2 276.8 193.5 289.5H243.8H294.1C271.4 276.8 268.2 272.2 266.9 249.8L243.8 248L220.7 249.8Z" fill="#01013D"/>
<path fill-rule="evenodd" clip-rule="evenodd" d="M396.9 223.6V235.1C396.9 244.8 389 252.7 379.3 252.7H109.9C100.2 252.7 92.3 244.8 92.3 235.1V223.6H396.9Z" fill="#E4F5FB"/>
<path d="M396.8 212.2H92.3V230.6H396.8V212.2Z" fill="#01013D"/>
<path fill-rule="evenodd" clip-rule="evenodd" d="M231.6 235.4C233.3 235.4 234.7 236.8 234.7 238.5C234.7 240.2 233.3 241.6 231.6 241.6C229.9 241.6 228.5 240.2 228.5 238.5C228.5 236.8 229.9 235.4 231.6 235.4Z" fill="#FC3E54"/>
<path fill-rule="evenodd" clip-rule="evenodd" d="M243.2 235.4C244.9 235.4 246.3 236.8 246.3 238.5C246.3 240.2 244.9 241.6 243.2 241.6C241.5 241.6 240.1 240.2 240.1 238.5C240.1 236.8 241.5 235.4 243.2 235.4Z" fill="#31C5FF"/>
<path fill-rule="evenodd" clip-rule="evenodd" d="M254.8 235.4C256.5 235.4 257.9 236.8 257.9 238.5C257.9 240.2 256.5 241.6 254.8 241.6C253.1 241.6 251.7 240.2 251.7 238.5C251.6 236.8 253 235.4 254.8 235.4Z" fill="#FFD22E"/>
<path fill-rule="evenodd" clip-rule="evenodd" d="M322.8 252.7V276.8C322.8 280.3 324.2 283.5 326.5 285.8C328.8 288.1 332 289.5 335.5 289.5H347.5V286.5H335.5C332.8 286.5 330.4 285.4 328.6 283.6C326.8 281.8 325.7 279.4 325.7 276.7V252.6H322.8V252.7Z" fill="#01013D"/>
<path fill-rule="evenodd" clip-rule="evenodd" d="M336.6 252.7V276.8C336.6 280.3 338 283.5 340.3 285.8C342.6 288.1 345.8 289.5 349.3 289.5H407V286.5H349.3C346.6 286.5 344.2 285.4 342.4 283.6C340.6 281.8 339.5 279.4 339.5 276.7V252.6H336.6V252.7Z" fill="#01013D"/>
<path d="M327.3 252.7H321.1V261H327.3V252.7Z" fill="#01013D"/>
<path d="M341.3 252.7H335.1V261H341.3V252.7Z" fill="#01013D"/>
<path fill-rule="evenodd" clip-rule="evenodd" d="M393.239 245.2H490.139C492.039 245.2 493.639 246.8 493.639 248.7V282C493.639 283.9 492.039 285.5 490.139 285.5H393.239C391.339 285.5 389.739 283.9 389.739 282V248.7C389.739 246.8 391.339 245.2 393.239 245.2Z" fill="#3462F4"/>
<path fill-rule="evenodd" clip-rule="evenodd" d="M400.439 249.7H420.539C424.439 249.7 427.539 252.8 427.539 256.7V259.6C427.539 263.5 424.439 266.6 420.539 266.6H400.439C396.539 266.6 393.439 263.5 393.439 259.6V256.7C393.339 252.8 396.539 249.7 400.439 249.7Z" fill="#01013D"/>
<path fill-rule="evenodd" clip-rule="evenodd" d="M437.639 249.7H483.139C487.039 249.7 490.139 252.8 490.139 256.7V259.6C490.139 263.5 487.039 266.6 483.139 266.6H437.639C433.739 266.6 430.639 263.5 430.639 259.6V256.7C430.639 252.8 433.739 249.7 437.639 249.7Z" fill="#01013D"/>
<path d="M469.639 256H465.539V260.1H469.639V256Z" fill="#FC3E54"/>
<path d="M476.039 256H471.939V260.1H476.039V256Z" fill="#FFD22E"/>
<path d="M482.439 256H478.339V260.1H482.439V256Z" fill="#FFD22E"/>
<path d="M412.339 285.5H397.739V289.5H412.339V285.5Z" fill="#092978"/>
<path d="M484.939 285.5H470.339V289.5H484.939V285.5Z" fill="#092978"/>
<path fill-rule="evenodd" clip-rule="evenodd" d="M393.239 200.8H490.139C492.039 200.8 493.639 202.4 493.639 204.3V237.6C493.639 239.5 492.039 241.1 490.139 241.1H393.239C391.339 241.1 389.739 239.5 389.739 237.6V204.3C389.739 202.4 391.339 200.8 393.239 200.8Z" fill="#3462F4"/>
<path fill-rule="evenodd" clip-rule="evenodd" d="M393.239 156.401H490.139C492.039 156.401 493.639 158.001 493.639 159.901V193.201C493.639 195.101 492.039 196.701 490.139 196.701H393.239C391.339 196.701 389.739 195.101 389.739 193.201V159.901C389.739 158.001 391.339 156.401 393.239 156.401Z" fill="#3462F4"/>
<path fill-rule="evenodd" clip-rule="evenodd" d="M393.239 112H490.139C492.039 112 493.639 113.6 493.639 115.5V148.8C493.639 150.7 492.039 152.3 490.139 152.3H393.239C391.339 152.3 389.739 150.7 389.739 148.8V115.5C389.739 113.6 391.339 112 393.239 112Z" fill="#3462F4"/>
<path fill-rule="evenodd" clip-rule="evenodd" d="M393.239 67.6006H490.139C492.039 67.6006 493.639 69.2006 493.639 71.1006V104.401C493.639 106.301 492.039 107.901 490.139 107.901H393.239C391.339 107.901 389.739 106.301 389.739 104.401V71.1006C389.739 69.2006 391.339 67.6006 393.239 67.6006Z" fill="#3462F4"/>
<path fill-rule="evenodd" clip-rule="evenodd" d="M400.439 205.3H420.539C424.439 205.3 427.539 208.4 427.539 212.3V215.2C427.539 219.1 424.439 222.2 420.539 222.2H400.439C396.539 222.2 393.439 219.1 393.439 215.2V212.3C393.339 208.5 396.539 205.3 400.439 205.3Z" fill="#01013D"/>
<path fill-rule="evenodd" clip-rule="evenodd" d="M400.439 160.901H420.539C424.439 160.901 427.539 164.001 427.539 167.901V170.801C427.539 174.701 424.439 177.801 420.539 177.801H400.439C396.539 177.801 393.439 174.701 393.439 170.801V167.901C393.339 164.101 396.539 160.901 400.439 160.901Z" fill="#01013D"/>
<path fill-rule="evenodd" clip-rule="evenodd" d="M400.439 116.5H420.539C424.439 116.5 427.539 119.6 427.539 123.5V126.4C427.539 130.3 424.439 133.4 420.539 133.4H400.439C396.539 133.4 393.439 130.3 393.439 126.4V123.5C393.339 119.7 396.539 116.5 400.439 116.5Z" fill="#01013D"/>
<path fill-rule="evenodd" clip-rule="evenodd" d="M400.439 72.1006H420.539C424.439 72.1006 427.539 75.2006 427.539 79.1006V82.0006C427.539 85.9006 424.439 89.0006 420.539 89.0006H400.439C396.539 89.0006 393.439 85.9006 393.439 82.0006V79.1006C393.339 75.3006 396.539 72.1006 400.439 72.1006Z" fill="#01013D"/>
<path fill-rule="evenodd" clip-rule="evenodd" d="M437.639 205.3H483.139C487.039 205.3 490.139 208.4 490.139 212.3V215.2C490.139 219.1 487.039 222.2 483.139 222.2H437.639C433.739 222.2 430.639 219.1 430.639 215.2V212.3C430.639 208.5 433.739 205.3 437.639 205.3Z" fill="#01013D"/>
<path fill-rule="evenodd" clip-rule="evenodd" d="M437.639 160.901H483.139C487.039 160.901 490.139 164.001 490.139 167.901V170.801C490.139 174.701 487.039 177.801 483.139 177.801H437.639C433.739 177.801 430.639 174.701 430.639 170.801V167.901C430.639 164.101 433.739 160.901 437.639 160.901Z" fill="#01013D"/>
<path fill-rule="evenodd" clip-rule="evenodd" d="M437.639 116.5H483.139C487.039 116.5 490.139 119.6 490.139 123.5V126.4C490.139 130.3 487.039 133.4 483.139 133.4H437.639C433.739 133.4 430.639 130.3 430.639 126.4V123.5C430.639 119.7 433.739 116.5 437.639 116.5Z" fill="#01013D"/>
<path fill-rule="evenodd" clip-rule="evenodd" d="M437.639 72.1006H483.139C487.039 72.1006 490.139 75.2006 490.139 79.1006V82.0006C490.139 85.9006 487.039 89.0006 483.139 89.0006H437.639C433.739 89.0006 430.639 85.9006 430.639 82.0006V79.1006C430.639 75.3006 433.739 72.1006 437.639 72.1006Z" fill="#01013D"/>
<path d="M469.639 211.6H465.539V215.7H469.639V211.6Z" fill="#FC3E54"/>
<path d="M469.639 167.201H465.539V171.301H469.639V167.201Z" fill="#FC3E54"/>
<path d="M469.639 122.8H465.539V126.9H469.639V122.8Z" fill="#FC3E54"/>
<path d="M469.639 78.4006H465.539V82.5006H469.639V78.4006Z" fill="#FC3E54"/>
<path d="M476.039 211.6H471.939V215.7H476.039V211.6Z" fill="#FFD22E"/>
<path d="M476.039 167.201H471.939V171.301H476.039V167.201Z" fill="#FFD22E"/>
<path d="M476.039 122.8H471.939V126.9H476.039V122.8Z" fill="#FFD22E"/>
<path d="M476.039 78.4006H471.939V82.5006H476.039V78.4006Z" fill="#FFD22E"/>
<path d="M482.439 211.6H478.339V215.7H482.439V211.6Z" fill="#FFD22E"/>
<path d="M482.439 167.201H478.339V171.301H482.439V167.201Z" fill="#FFD22E"/>
<path d="M482.439 122.8H478.339V126.9H482.439V122.8Z" fill="#FFD22E"/>
<path d="M482.439 78.4006H478.339V82.5006H482.439V78.4006Z" fill="#FFD22E"/>
<path d="M412.339 241.2H397.739V245.2H412.339V241.2Z" fill="#092978"/>
<path d="M412.339 196.801H397.739V200.801H412.339V196.801Z" fill="#092978"/>
<path d="M412.339 152.4H397.739V156.4H412.339V152.4Z" fill="#092978"/>
<path d="M412.339 108H397.739V112H412.339V108Z" fill="#092978"/>
<path d="M484.939 241.2H470.339V245.2H484.939V241.2Z" fill="#092978"/>
<path d="M484.939 196.801H470.339V200.801H484.939V196.801Z" fill="#092978"/>
<path d="M484.939 152.4H470.339V156.4H484.939V152.4Z" fill="#092978"/>
<path d="M484.939 108H470.339V112H484.939V108Z" fill="#092978"/>
<path d="M403.139 211.7H399.039V215.8H403.139V211.7Z" fill="#03E59F"/>
<path d="M403.139 167.301H399.039V171.401H403.139V167.301Z" fill="#03E59F"/>
<path d="M403.139 122.9H399.039V127H403.139V122.9Z" fill="#03E59F"/>
<path d="M403.139 78.5005H399.039V82.6005H403.139V78.5005Z" fill="#03E59F"/>
<path d="M410.339 211.7H406.239V215.8H410.339V211.7Z" fill="#03E59F"/>
<path d="M410.339 167.301H406.239V171.401H410.339V167.301Z" fill="#03E59F"/>
<path d="M410.339 122.9H406.239V127H410.339V122.9Z" fill="#03E59F"/>
<path d="M410.339 78.5005H406.239V82.6005H410.339V78.5005Z" fill="#03E59F"/>
<path d="M403.139 256.1H399.039V260.2H403.139V256.1Z" fill="#03E59F"/>
<path d="M410.339 256.1H406.239V260.2H410.339V256.1Z" fill="#03E59F"/>
<path fill-rule="evenodd" clip-rule="evenodd" d="M493.739 219.2H497.939C501.439 219.2 504.639 220.6 506.939 222.9C509.239 225.2 510.639 228.4 510.639 231.9V288V289.5H509.139H404.639H394.5V288V286.5H406.139H496.239H507.639V231.9C507.639 229.2 506.539 226.8 504.739 225C502.939 223.2 500.539 222.1 497.839 222.1H493.639V219.2H493.739Z" fill="#01013D"/>
<path fill-rule="evenodd" clip-rule="evenodd" d="M493.739 174.801H497.939C501.439 174.801 504.639 176.201 506.939 178.501C509.239 180.801 510.639 184.001 510.639 187.501V243.601V245.101H509.139H517.779H507.639V243.601V242.101H519.279H609.379H507.639V187.501C507.639 184.801 506.539 182.401 504.739 180.601C502.939 178.801 500.539 177.701 497.839 177.701H493.639V174.801H493.739Z" fill="#01013D"/>
<path fill-rule="evenodd" clip-rule="evenodd" d="M493.739 130.4H497.939C501.439 130.4 504.639 131.8 506.939 134.1C509.239 136.4 510.639 139.6 510.639 143.1V199.2V200.7H509.139H517.779H507.639V199.2V197.7H519.279H609.379H507.639V143.1C507.639 140.4 506.539 138 504.739 136.2C502.939 134.4 500.539 133.3 497.839 133.3H493.639V130.4H493.739Z" fill="#01013D"/>
<path fill-rule="evenodd" clip-rule="evenodd" d="M493.739 86.0005H497.939C501.439 86.0005 504.639 87.4005 506.939 89.7005C509.239 92.0005 510.639 95.2005 510.639 98.7005V154.8V156.3H509.139H517.779H507.639V154.8V153.3H519.279H609.379H507.639V98.7005C507.639 96.0005 506.539 93.6005 504.739 91.8005C502.939 90.0005 500.539 88.9005 497.839 88.9005H493.639V86.0005H493.739Z" fill="#01013D"/>
<path fill-rule="evenodd" clip-rule="evenodd" d="M493.739 263.3H497.939C501.439 263.3 504.639 264.7 506.939 267C509.239 269.3 510.639 272.5 510.639 276V288H507.639V276C507.639 273.3 506.539 270.9 504.739 269.1C502.939 267.3 500.539 266.2 497.839 266.2H493.639V263.3H493.739Z" fill="#01013D"/>
<path fill-rule="evenodd" clip-rule="evenodd" d="M493.739 216.1H494.739C495.239 216.1 495.739 216.5 495.739 217.1V224.1C495.739 224.6 495.339 225.1 494.739 225.1H493.739V216.1Z" fill="#01013D"/>
<path fill-rule="evenodd" clip-rule="evenodd" d="M493.739 171.701H494.739C495.239 171.701 495.739 172.101 495.739 172.701V179.701C495.739 180.201 495.339 180.701 494.739 180.701H493.739V171.701Z" fill="#01013D"/>
<path fill-rule="evenodd" clip-rule="evenodd" d="M493.739 127.3H494.739C495.239 127.3 495.739 127.7 495.739 128.3V135.3C495.739 135.8 495.339 136.3 494.739 136.3H493.739V127.3Z" fill="#01013D"/>
<path fill-rule="evenodd" clip-rule="evenodd" d="M493.739 82.9006H494.739C495.239 82.9006 495.739 83.3006 495.739 83.9006V90.9006C495.739 91.4006 495.339 91.9006 494.739 91.9006H493.739V82.9006Z" fill="#01013D"/>
<path fill-rule="evenodd" clip-rule="evenodd" d="M493.739 260.3H494.739C495.239 260.3 495.739 260.7 495.739 261.3V268.3C495.739 268.8 495.339 269.3 494.739 269.3H493.739V260.3Z" fill="#01013D"/>
<path fill-rule="evenodd" clip-rule="evenodd" d="M126.484 91C125.667 91 125 91.6691 125 92.487V143.513C125 144.33 125.667 145 126.484 145H203.391C204.207 145 204.875 144.33 204.875 143.513V92.487C204.875 91.6691 204.207 91 203.391 91H126.484Z" fill="#03E59F"/>
<path fill-rule="evenodd" clip-rule="evenodd" d="M162.907 105.344H192.843C194.207 105.344 195.312 104.211 195.312 102.812C195.312 101.414 194.207 100.281 192.843 100.281H162.907C161.543 100.281 160.438 101.414 160.438 102.812C160.438 104.211 161.543 105.344 162.907 105.344Z" fill="#EFEFEF"/>
<path fill-rule="evenodd" clip-rule="evenodd" d="M162.907 113.5H192.843C194.207 113.5 195.312 112.367 195.312 110.968C195.312 109.571 194.207 108.438 192.843 108.438H162.907C161.543 108.438 160.438 109.571 160.438 110.968C160.438 112.367 161.543 113.5 162.907 113.5Z" fill="#EFEFEF"/>
<path fill-rule="evenodd" clip-rule="evenodd" d="M162.907 122.219H192.843C194.207 122.219 195.312 121.149 195.312 119.827C195.312 118.508 194.207 117.438 192.843 117.438H162.907C161.543 117.438 160.438 118.508 160.438 119.827C160.438 121.149 161.543 122.219 162.907 122.219Z" fill="#EFEFEF"/>
<path fill-rule="evenodd" clip-rule="evenodd" d="M173.3 130.938H192.857C194.213 130.938 195.312 129.867 195.312 128.547C195.312 127.226 194.213 126.156 192.857 126.156H173.3C171.944 126.156 170.844 127.226 170.844 128.547C170.844 129.867 171.944 130.938 173.3 130.938Z" fill="#EFEFEF"/>
<path fill-rule="evenodd" clip-rule="evenodd" d="M152.757 121.094H136.054C135.231 121.094 134.562 120.427 134.562 119.604V101.772C134.562 100.948 135.231 100.281 136.054 100.281H152.757C153.582 100.281 154.25 100.948 154.25 101.772V119.604C154.25 120.427 153.582 121.094 152.757 121.094Z" fill="#EFEFEF"/>
<path fill-rule="evenodd" clip-rule="evenodd" d="M140.352 110.928H142.113L141.232 108.596L140.352 110.928ZM140.734 107.131H141.731L144.141 113.278H142.994L142.433 111.804H140.023L139.462 113.278H138.324L140.734 107.131Z" fill="#03E59F"/>
<path fill-rule="evenodd" clip-rule="evenodd" d="M145.991 112.322H146.988C147.26 112.322 147.512 112.27 147.744 112.166C147.975 112.062 148.172 111.917 148.335 111.733C148.498 111.548 148.626 111.326 148.718 111.066C148.81 110.808 148.856 110.52 148.856 110.205C148.856 109.895 148.81 109.609 148.718 109.347C148.626 109.085 148.498 108.861 148.335 108.677C148.172 108.492 147.975 108.348 147.744 108.243C147.512 108.139 147.26 108.087 146.988 108.087H145.991V112.322ZM144.835 107.131H147.05C147.489 107.131 147.892 107.207 148.26 107.359C148.627 107.511 148.943 107.722 149.207 107.993C149.471 108.264 149.677 108.589 149.825 108.967C149.974 109.345 150.048 109.758 150.048 110.205C150.048 110.651 149.974 111.064 149.825 111.442C149.677 111.82 149.471 112.145 149.207 112.416C148.943 112.687 148.627 112.899 148.26 113.05C147.892 113.202 147.489 113.278 147.05 113.278H144.835V107.131Z" fill="#03E59F"/>
<g clip-path="url(#clip0)">
<path fill-rule="evenodd" clip-rule="evenodd" d="M224.499 174.098H239.313V204H224.499V174.098Z" fill="#8720B7"/>
<path fill-rule="evenodd" clip-rule="evenodd" d="M247.334 162.357H262.147V204H247.334V162.357Z" fill="#8720B7"/>
<path fill-rule="evenodd" clip-rule="evenodd" d="M270.169 172.074H284.982V204H270.169V172.074Z" fill="#8720B7"/>
<path fill-rule="evenodd" clip-rule="evenodd" d="M293.706 158.366H308.578V204H293.706V158.366Z" fill="#8720B7"/>
<path fill-rule="evenodd" clip-rule="evenodd" d="M317.829 144.254H332.701V204H317.829V144.254Z" fill="#8720B7"/>
<path fill-rule="evenodd" clip-rule="evenodd" d="M342.187 135.405H357V204H342.187V135.405Z" fill="#8720B7"/>
<path d="M245.636 169.934L218 195.035L220.342 197.522L246.749 173.52L263.26 189.598L288.847 164.671L307.642 183.699L347.046 148.765L346.695 155.937L351.789 151.426L352.316 141.883L342.655 141.362L337.561 145.873L344.763 146.278L307.759 179.014L288.847 159.87L263.26 184.856L246.807 168.835L245.636 169.934Z" fill="#FCCA2E"/>
</g>
<path opacity="0.25" d="M418.639 108.661C436.815 90.4727 436.815 60.9843 418.639 42.7964C400.463 24.6086 370.994 24.6086 352.818 42.7964C334.642 60.9843 334.642 90.4727 352.818 108.661C370.994 126.848 400.463 126.848 418.639 108.661Z" fill="#242424"/>
<path d="M415.731 98.7961C433.907 80.6082 433.907 51.1198 415.731 32.932C397.555 14.7441 368.086 14.7441 349.91 32.932C331.734 51.1198 331.734 80.6082 349.91 98.7961C368.086 116.984 397.555 116.984 415.731 98.7961Z" fill="#03E59F"/>
<path d="M373.047 83.5577L358.959 70.3391C355.932 67.4973 355.932 62.7109 358.959 59.869C361.724 57.2889 366.003 57.2889 368.768 59.869L376.373 67.0111C377.251 67.8338 378.633 67.8338 379.53 67.0111L401.372 46.5196C404.137 43.9394 408.416 43.9394 411.181 46.5196C414.208 49.3615 414.208 54.1478 411.181 56.9897L382.856 83.5577C380.091 86.1565 375.812 86.1565 373.047 83.5577Z" fill="white"/>
<path fill-rule="evenodd" clip-rule="evenodd" d="M126.484 150C125.667 150 125 150.669 125 151.487V202.513C125 203.33 125.667 204 126.484 204H203.391C204.207 204 204.875 203.33 204.875 202.513V151.487C204.875 150.669 204.207 150 203.391 150H126.484Z" fill="#1DAFF4"/>
<path fill-rule="evenodd" clip-rule="evenodd" d="M162.907 164.344H192.843C194.207 164.344 195.312 163.211 195.312 161.812C195.312 160.414 194.207 159.281 192.843 159.281H162.907C161.543 159.281 160.438 160.414 160.438 161.812C160.438 163.211 161.543 164.344 162.907 164.344Z" fill="#EFEFEF"/>
<path fill-rule="evenodd" clip-rule="evenodd" d="M162.907 172.5H192.843C194.207 172.5 195.312 171.367 195.312 169.968C195.312 168.571 194.207 167.438 192.843 167.438H162.907C161.543 167.438 160.438 168.571 160.438 169.968C160.438 171.367 161.543 172.5 162.907 172.5Z" fill="#EFEFEF"/>
<path fill-rule="evenodd" clip-rule="evenodd" d="M162.907 181.219H192.843C194.207 181.219 195.312 180.149 195.312 178.827C195.312 177.508 194.207 176.438 192.843 176.438H162.907C161.543 176.438 160.438 177.508 160.438 178.827C160.438 180.149 161.543 181.219 162.907 181.219Z" fill="#EFEFEF"/>
<path fill-rule="evenodd" clip-rule="evenodd" d="M173.3 189.938H192.857C194.213 189.938 195.312 188.867 195.312 187.547C195.312 186.226 194.213 185.156 192.857 185.156H173.3C171.944 185.156 170.844 186.226 170.844 187.547C170.844 188.867 171.944 189.938 173.3 189.938Z" fill="#EFEFEF"/>
<path fill-rule="evenodd" clip-rule="evenodd" d="M152.757 180.094H136.054C135.231 180.094 134.562 179.427 134.562 178.604V160.772C134.562 159.948 135.231 159.281 136.054 159.281H152.757C153.582 159.281 154.25 159.948 154.25 160.772V178.604C154.25 179.427 153.582 180.094 152.757 180.094Z" fill="#EFEFEF"/>
<path fill-rule="evenodd" clip-rule="evenodd" d="M140.352 169.928H142.113L141.232 167.596L140.352 169.928ZM140.734 166.131H141.731L144.141 172.278H142.994L142.433 170.804H140.023L139.462 172.278H138.324L140.734 166.131Z" fill="#1DAFF4"/>
<path fill-rule="evenodd" clip-rule="evenodd" d="M145.991 171.322H146.988C147.26 171.322 147.512 171.27 147.744 171.166C147.975 171.062 148.172 170.917 148.335 170.733C148.498 170.548 148.626 170.326 148.718 170.066C148.81 169.808 148.856 169.52 148.856 169.205C148.856 168.895 148.81 168.609 148.718 168.347C148.626 168.085 148.498 167.862 148.335 167.677C148.172 167.492 147.975 167.348 147.744 167.243C147.512 167.139 147.26 167.087 146.988 167.087H145.991V171.322ZM144.835 166.131H147.05C147.489 166.131 147.892 166.207 148.26 166.359C148.627 166.511 148.943 166.722 149.207 166.993C149.471 167.264 149.677 167.589 149.825 167.967C149.974 168.345 150.048 168.758 150.048 169.205C150.048 169.651 149.974 170.064 149.825 170.442C149.677 170.82 149.471 171.145 149.207 171.416C148.943 171.687 148.627 171.899 148.26 172.05C147.892 172.202 147.489 172.278 147.05 172.278H144.835V166.131Z" fill="#1DAFF4"/>
<defs>
<linearGradient id="paint0_linear" x1="0" y1="288.599" x2="480.888" y2="288.599" gradientUnits="userSpaceOnUse">
<stop stop-color="#060E49"/>
<stop offset="1" stop-color="#332782"/>
</linearGradient>
<clipPath id="clip0">
<rect x="218" y="135" width="139" height="69" fill="white"/>
</clipPath>
</defs>
</svg>
