<svg width="602" height="431" viewBox="0 0 602 431" fill="none" xmlns="http://www.w3.org/2000/svg">
<path d="M179.3 348.9L180.3 347.4C183.8 342.1 189.7 338.8 196.1 338.8H290.4C297 338.8 303.2 342.3 306.6 348L307.2 348.9H179.3Z" fill="#01013D"/>
<path opacity="0.15" d="M222.7 355C345.694 355 445.4 351.866 445.4 348C445.4 344.134 345.694 341 222.7 341C99.7062 341 0 344.134 0 348C0 351.866 99.7062 355 222.7 355Z" fill="url(#paint0_linear)"/>
<path fill-rule="evenodd" clip-rule="evenodd" d="M109.9 108.4H379.3C389 108.4 396.9 116.3 396.9 126V283H92.3V126C92.3 116.3 100.2 108.4 109.9 108.4Z" fill="#01013D"/>
<path d="M384.4 121.3H104.8V299.1H384.4V121.3Z" fill="#3052E4"/>
<path opacity="0.7" d="M374 139H208V263H374V139Z" fill="#181548" stroke="#31C5FF" stroke-miterlimit="10"/>
<path fill-rule="evenodd" clip-rule="evenodd" d="M220.1 239.4H271C272.1 239.4 273.1 240.3 273.1 241.5C273.1 242.6 272.2 243.6 271 243.6H220.1C219 243.6 218 242.7 218 241.5C218 240.4 219 239.4 220.1 239.4Z" fill="#2B348C"/>
<path fill-rule="evenodd" clip-rule="evenodd" d="M220.1 157.4H283.4C284.5 157.4 285.5 158.3 285.5 159.5C285.5 160.6 284.6 161.6 283.4 161.6H220.1C219 161.6 218 160.7 218 159.5C218 158.3 219 157.4 220.1 157.4Z" fill="#2B348C"/>
<path fill-rule="evenodd" clip-rule="evenodd" d="M220.1 168.6H283.4C284.5 168.6 285.5 169.5 285.5 170.7C285.5 171.8 284.6 172.8 283.4 172.8H220.1C219 172.8 218 171.9 218 170.7C218 169.5 219 168.6 220.1 168.6Z" fill="#2B348C"/>
<path fill-rule="evenodd" clip-rule="evenodd" d="M220.1 179.8H237.3C238.4 179.8 239.4 180.7 239.4 181.9C239.4 183 238.5 184 237.3 184H220.1C219 184 218 183.1 218 181.9C218 180.7 219 179.8 220.1 179.8Z" fill="#2B348C"/>
<path fill-rule="evenodd" clip-rule="evenodd" d="M244.6 179.8H261.8C262.9 179.8 263.9 180.7 263.9 181.9C263.9 183 263 184 261.8 184H244.6C243.5 184 242.5 183.1 242.5 181.9C242.5 180.7 243.4 179.8 244.6 179.8Z" fill="#2B348C"/>
<path fill-rule="evenodd" clip-rule="evenodd" d="M220.1 193.3H243.3C244.4 193.3 245.4 194.2 245.4 195.4C245.4 196.5 244.5 197.5 243.3 197.5H220.1C219 197.5 218 196.6 218 195.4C218 194.2 219 193.3 220.1 193.3Z" fill="#2B348C"/>
<path fill-rule="evenodd" clip-rule="evenodd" d="M251.4 193.3H274.6C275.7 193.3 276.7 194.2 276.7 195.4C276.7 196.5 275.8 197.5 274.6 197.5H251.4C250.3 197.5 249.3 196.6 249.3 195.4C249.3 194.2 250.2 193.3 251.4 193.3Z" fill="#2B348C"/>
<path fill-rule="evenodd" clip-rule="evenodd" d="M220.1 203.4H248.1C249.2 203.4 250.2 204.3 250.2 205.5C250.2 206.6 249.3 207.6 248.1 207.6H220.1C219 207.6 218 206.7 218 205.5C218 204.4 219 203.4 220.1 203.4Z" fill="#2B348C"/>
<path fill-rule="evenodd" clip-rule="evenodd" d="M256.9 203.4H284.9C286 203.4 287 204.3 287 205.5C287 206.6 286.1 207.6 284.9 207.6H256.9C255.8 207.6 254.8 206.7 254.8 205.5C254.9 204.4 255.8 203.4 256.9 203.4Z" fill="#2B348C"/>
<path fill-rule="evenodd" clip-rule="evenodd" d="M220.1 214.9H239C240.1 214.9 241.1 215.8 241.1 217C241.1 218.1 240.2 219.1 239 219.1H220.1C219 219.1 218 218.2 218 217C218 215.8 219 214.9 220.1 214.9Z" fill="#2B348C"/>
<path fill-rule="evenodd" clip-rule="evenodd" d="M220.1 228.1H248.1C249.2 228.1 250.2 229 250.2 230.2C250.2 231.3 249.3 232.3 248.1 232.3H220.1C219 232.3 218 231.4 218 230.2C218 229.1 219 228.1 220.1 228.1Z" fill="#2B348C"/>
<path fill-rule="evenodd" clip-rule="evenodd" d="M256.9 228.1H284.9C286 228.1 287 229 287 230.2C287 231.3 286.1 232.3 284.9 232.3H256.9C255.8 232.3 254.8 231.4 254.8 230.2C254.9 229.1 255.8 228.1 256.9 228.1Z" fill="#2B348C"/>
<path fill-rule="evenodd" clip-rule="evenodd" d="M297.1 239.4H348C349.1 239.4 350.1 240.3 350.1 241.5C350.1 242.6 349.2 243.6 348 243.6H297.1C296 243.6 295 242.7 295 241.5C295 240.4 296 239.4 297.1 239.4Z" fill="#2B348C"/>
<path fill-rule="evenodd" clip-rule="evenodd" d="M297.1 157.4H360.4C361.5 157.4 362.5 158.3 362.5 159.5C362.5 160.6 361.6 161.6 360.4 161.6H297.1C296 161.6 295 160.7 295 159.5C295 158.3 296 157.4 297.1 157.4Z" fill="#2B348C"/>
<path fill-rule="evenodd" clip-rule="evenodd" d="M297.1 168.6H360.4C361.5 168.6 362.5 169.5 362.5 170.7C362.5 171.8 361.6 172.8 360.4 172.8H297.1C296 172.8 295 171.9 295 170.7C295 169.5 296 168.6 297.1 168.6Z" fill="#2B348C"/>
<path fill-rule="evenodd" clip-rule="evenodd" d="M297.1 179.8H314.3C315.4 179.8 316.4 180.7 316.4 181.9C316.4 183 315.5 184 314.3 184H297.1C296 184 295 183.1 295 181.9C295 180.7 296 179.8 297.1 179.8Z" fill="#2B348C"/>
<path fill-rule="evenodd" clip-rule="evenodd" d="M321.6 179.8H338.8C339.9 179.8 340.9 180.7 340.9 181.9C340.9 183 340 184 338.8 184H321.6C320.5 184 319.5 183.1 319.5 181.9C319.5 180.7 320.4 179.8 321.6 179.8Z" fill="#2B348C"/>
<path fill-rule="evenodd" clip-rule="evenodd" d="M297.1 193.3H320.3C321.4 193.3 322.4 194.2 322.4 195.4C322.4 196.5 321.5 197.5 320.3 197.5H297.1C296 197.5 295 196.6 295 195.4C295 194.2 296 193.3 297.1 193.3Z" fill="#2B348C"/>
<path fill-rule="evenodd" clip-rule="evenodd" d="M328.4 193.3H351.6C352.7 193.3 353.7 194.2 353.7 195.4C353.7 196.5 352.8 197.5 351.6 197.5H328.4C327.3 197.5 326.3 196.6 326.3 195.4C326.3 194.2 327.2 193.3 328.4 193.3Z" fill="#2B348C"/>
<path fill-rule="evenodd" clip-rule="evenodd" d="M297.1 203.4H325.1C326.2 203.4 327.2 204.3 327.2 205.5C327.2 206.6 326.3 207.6 325.1 207.6H297.1C296 207.6 295 206.7 295 205.5C295 204.4 296 203.4 297.1 203.4Z" fill="#2B348C"/>
<path fill-rule="evenodd" clip-rule="evenodd" d="M333.9 203.4H361.9C363 203.4 364 204.3 364 205.5C364 206.6 363.1 207.6 361.9 207.6H333.9C332.8 207.6 331.8 206.7 331.8 205.5C331.9 204.4 332.8 203.4 333.9 203.4Z" fill="#2B348C"/>
<path fill-rule="evenodd" clip-rule="evenodd" d="M297.1 214.9H316C317.1 214.9 318.1 215.8 318.1 217C318.1 218.1 317.2 219.1 316 219.1H297.1C296 219.1 295 218.2 295 217C295 215.8 296 214.9 297.1 214.9Z" fill="#2B348C"/>
<path fill-rule="evenodd" clip-rule="evenodd" d="M297.1 228.1H325.1C326.2 228.1 327.2 229 327.2 230.2C327.2 231.3 326.3 232.3 325.1 232.3H297.1C296 232.3 295 231.4 295 230.2C295 229.1 296 228.1 297.1 228.1Z" fill="#2B348C"/>
<path fill-rule="evenodd" clip-rule="evenodd" d="M333.9 228.1H361.9C363 228.1 364 229 364 230.2C364 231.3 363.1 232.3 361.9 232.3H333.9C332.8 232.3 331.8 231.4 331.8 230.2C331.9 229.1 332.8 228.1 333.9 228.1Z" fill="#2B348C"/>
<path d="M330.047 184.826H264.042V265.596H330.047V184.826Z" fill="#952034"/>
<path d="M330.078 184.826H297.06V265.596H330.078V184.826Z" fill="#952034"/>
<path d="M332.296 192.399H261.793V278.646H332.296V192.399Z" fill="#FC3E54"/>
<path d="M332.296 192.399H297.06V278.646H332.296V192.399Z" fill="#BC2A44"/>
<path d="M332.296 192.399L319.176 188.143V192.399H332.296Z" fill="#A7233A"/>
<path d="M319.176 188.143L330.047 184.826V191.68L319.176 188.143Z" fill="#FC3E54"/>
<path d="M261.793 192.399L274.913 188.143V192.399H261.793Z" fill="#A7233A"/>
<path d="M274.913 188.143L264.042 184.826V191.68L274.913 188.143Z" fill="#FC3E54"/>
<path d="M311.492 199.628V218.467C311.492 226.479 305.026 232.956 297.029 232.956C289.032 232.956 282.566 226.479 282.566 218.467V199.628" stroke="#A2112A" stroke-width="3" stroke-miterlimit="10" stroke-linecap="round" stroke-linejoin="round"/>
<path d="M368.344 212.803H319.426V272.638H368.344V212.803Z" fill="#008EC6"/>
<path d="M368.344 212.803H343.885V272.638H368.344V212.803Z" fill="#008EC6"/>
<path d="M370 218.436H317.771V282.339H370V218.436Z" fill="#1DAFF4"/>
<path d="M370 218.436H343.885V282.339H370V218.436Z" fill="#48C4FF"/>
<path d="M370 218.436L360.285 215.276V218.436H370Z" fill="#80C8EA"/>
<path d="M360.285 215.275L368.344 212.803V217.904L360.285 215.275Z" fill="#BAE2F4"/>
<path d="M317.771 218.436L327.486 215.276V218.436H317.771Z" fill="#80C8EA"/>
<path d="M327.486 215.275L319.426 212.803V217.904L327.486 215.275Z" fill="#BAE2F4"/>
<path d="M354.6 223.787V237.745C354.6 243.659 349.821 248.478 343.885 248.478C337.982 248.478 333.171 243.659 333.171 237.745V223.787" stroke="#E0E0E0" stroke-width="3" stroke-miterlimit="10" stroke-linecap="round" stroke-linejoin="round"/>
<path d="M281.973 228.669H214.374V278.02H281.973V228.669Z" fill="#DEA02D"/>
<path d="M281.973 228.669H234.523V278.02H281.973V228.669Z" fill="#DEA02D"/>
<path d="M283.347 233.301H213V286H283.347V233.301Z" fill="#EDB720"/>
<path d="M283.347 233.301H248.173V286H283.347V233.301Z" fill="#FCCA2E"/>
<path d="M283.347 233.301L275.319 230.703V233.301H283.347Z" fill="#E9B74C"/>
<path d="M275.319 230.703L281.973 228.669V232.863L275.319 230.703Z" fill="#ECC870"/>
<path d="M213 233.301L220.997 230.703V233.301H213Z" fill="#E9B74C"/>
<path d="M220.997 230.703L214.374 228.669V232.863L220.997 230.703Z" fill="#ECC870"/>
<path d="M261 238V252.128C261 258.142 255.191 263 248 263C240.809 263 235 258.142 235 252.128V238" stroke="#AA5000" stroke-width="3" stroke-miterlimit="10" stroke-linecap="round" stroke-linejoin="round"/>
<path fill-rule="evenodd" clip-rule="evenodd" d="M220.7 309.2C219.5 331.6 216.2 336.2 193.5 348.9H243.8H294.1C271.4 336.2 268.2 331.6 266.9 309.2L243.8 307.4L220.7 309.2Z" fill="#01013D"/>
<path fill-rule="evenodd" clip-rule="evenodd" d="M396.9 283V294.5C396.9 304.2 389 312.1 379.3 312.1H109.9C100.2 312.1 92.3 304.2 92.3 294.5V283H396.9Z" fill="#E4F5FB"/>
<path d="M396.8 271.6H92.3V290H396.8V271.6Z" fill="#01013D"/>
<path fill-rule="evenodd" clip-rule="evenodd" d="M231.6 294.8C233.3 294.8 234.7 296.2 234.7 297.9C234.7 299.6 233.3 301 231.6 301C229.9 301 228.5 299.6 228.5 297.9C228.5 296.2 229.9 294.8 231.6 294.8Z" fill="#FC3E54"/>
<path fill-rule="evenodd" clip-rule="evenodd" d="M243.2 294.8C244.9 294.8 246.3 296.2 246.3 297.9C246.3 299.6 244.9 301 243.2 301C241.5 301 240.1 299.6 240.1 297.9C240.1 296.2 241.5 294.8 243.2 294.8Z" fill="#31C5FF"/>
<path fill-rule="evenodd" clip-rule="evenodd" d="M254.8 294.8C256.5 294.8 257.9 296.2 257.9 297.9C257.9 299.6 256.5 301 254.8 301C253.1 301 251.7 299.6 251.7 297.9C251.6 296.2 253 294.8 254.8 294.8Z" fill="#FFD22E"/>
<path opacity="0.7" d="M200.6 139.4H120.5V263.2H200.6V139.4Z" fill="#181548" stroke="#31C5FF" stroke-miterlimit="10"/>
<path fill-rule="evenodd" clip-rule="evenodd" d="M126.4 239.4H177.3C178.4 239.4 179.4 240.3 179.4 241.5C179.4 242.6 178.5 243.6 177.3 243.6H126.4C125.3 243.6 124.3 242.7 124.3 241.5C124.3 240.4 125.3 239.4 126.4 239.4Z" fill="#31C5FF"/>
<path fill-rule="evenodd" clip-rule="evenodd" d="M126.4 157.4H189.7C190.8 157.4 191.8 158.3 191.8 159.5C191.8 160.6 190.9 161.6 189.7 161.6H126.4C125.3 161.6 124.3 160.7 124.3 159.5C124.3 158.3 125.3 157.4 126.4 157.4Z" fill="#31C5FF"/>
<g clip-path="url(#clip0)">
<path d="M130.791 140.799C130.791 149.695 138.135 156.912 147.187 156.912C156.239 156.912 163.582 149.695 163.582 140.799V130.754H130.791V140.799Z" fill="#E0E0E0"/>
<path d="M196.343 140.828C196.343 149.724 203.687 156.941 212.739 156.941C221.791 156.941 229.134 149.724 229.134 140.828V130.783H196.343V140.828Z" fill="#E0E0E0"/>
<path d="M261.896 140.857C261.896 149.753 269.239 156.97 278.291 156.97C287.343 156.97 294.687 149.753 294.687 140.857V130.812H261.896V140.857Z" fill="#E0E0E0"/>
<path d="M327.448 130.842V140.887C327.448 149.783 334.791 157 343.843 157C352.895 157 360.239 149.783 360.239 140.887V130.842H327.448Z" fill="#E0E0E0"/>
<path d="M130.791 130.753H163.552L167.479 119.029L136.276 119L130.791 130.753Z" fill="#EEEEEE"/>
<path d="M196.343 130.783H229.134L229.914 119.059L198.681 119.029L196.343 130.783Z" fill="#EEEEEE"/>
<path d="M261.116 119.059L261.896 130.812H294.687L292.319 119.088L261.116 119.059Z" fill="#EEEEEE"/>
<path d="M354.754 119.088H323.551L327.448 130.842H360.239L354.754 119.088Z" fill="#EEEEEE"/>
<path d="M98 140.769C98 149.665 105.344 156.882 114.396 156.882C123.448 156.882 130.791 149.665 130.791 140.769V130.724H98V140.769Z" fill="#630DD3"/>
<path d="M163.552 140.799C163.552 149.695 170.896 156.912 179.948 156.912C189 156.912 196.343 149.695 196.343 140.799V130.754H163.552V140.799Z" fill="#630DD3"/>
<path d="M229.104 140.828C229.104 149.724 236.448 156.941 245.5 156.941C254.552 156.941 261.896 149.724 261.896 140.828V130.783H229.104V140.828Z" fill="#630DD3"/>
<path d="M294.687 140.857C294.687 149.753 302.03 156.97 311.082 156.97C320.134 156.97 327.478 149.753 327.478 140.857V130.812H294.687V140.857Z" fill="#630DD3"/>
<path d="M360.239 130.842V140.887C360.239 149.783 367.582 157 376.634 157C385.686 157 393.03 149.783 393.03 140.887V130.842H360.239Z" fill="#630DD3"/>
<path d="M98 130.724L130.791 130.753L136.276 119H105.044L98 130.724Z" fill="#4607A8"/>
<path d="M163.552 130.753L196.343 130.783L198.681 119.029H167.479L163.552 130.753Z" fill="#4607A8"/>
<path d="M229.914 119.059L229.134 130.783L261.896 130.812L261.116 119.059H229.914Z" fill="#4607A8"/>
<path d="M292.319 119.088L294.687 130.812L327.448 130.842L323.551 119.088H292.319Z" fill="#4607A8"/>
<path d="M385.986 119.118L354.754 119.088L360.239 130.842H393L385.986 119.118Z" fill="#4607A8"/>
</g>
<path fill-rule="evenodd" clip-rule="evenodd" d="M126.4 168.6H189.7C190.8 168.6 191.8 169.5 191.8 170.7C191.8 171.8 190.9 172.8 189.7 172.8H126.4C125.3 172.8 124.3 171.9 124.3 170.7C124.3 169.5 125.3 168.6 126.4 168.6Z" fill="#31C5FF"/>
<path fill-rule="evenodd" clip-rule="evenodd" d="M126.4 179.8H143.6C144.7 179.8 145.7 180.7 145.7 181.9C145.7 183 144.8 184 143.6 184H126.4C125.3 184 124.3 183.1 124.3 181.9C124.3 180.7 125.3 179.8 126.4 179.8Z" fill="#FFD22E"/>
<path fill-rule="evenodd" clip-rule="evenodd" d="M150.9 179.8H168.1C169.2 179.8 170.2 180.7 170.2 181.9C170.2 183 169.3 184 168.1 184H150.9C149.8 184 148.8 183.1 148.8 181.9C148.8 180.7 149.7 179.8 150.9 179.8Z" fill="#FFD22E"/>
<path fill-rule="evenodd" clip-rule="evenodd" d="M126.4 193.3H149.6C150.7 193.3 151.7 194.2 151.7 195.4C151.7 196.5 150.8 197.5 149.6 197.5H126.4C125.3 197.5 124.3 196.6 124.3 195.4C124.3 194.2 125.3 193.3 126.4 193.3Z" fill="#FC3E54"/>
<path fill-rule="evenodd" clip-rule="evenodd" d="M157.7 193.3H180.9C182 193.3 183 194.2 183 195.4C183 196.5 182.1 197.5 180.9 197.5H157.7C156.6 197.5 155.6 196.6 155.6 195.4C155.6 194.2 156.5 193.3 157.7 193.3Z" fill="#FC3E54"/>
<path fill-rule="evenodd" clip-rule="evenodd" d="M126.4 203.4H154.4C155.5 203.4 156.5 204.3 156.5 205.5C156.5 206.6 155.6 207.6 154.4 207.6H126.4C125.3 207.6 124.3 206.7 124.3 205.5C124.3 204.4 125.3 203.4 126.4 203.4Z" fill="#31C5FF"/>
<path fill-rule="evenodd" clip-rule="evenodd" d="M163.2 203.4H191.2C192.3 203.4 193.3 204.3 193.3 205.5C193.3 206.6 192.4 207.6 191.2 207.6H163.2C162.1 207.6 161.1 206.7 161.1 205.5C161.2 204.4 162.1 203.4 163.2 203.4Z" fill="#31C5FF"/>
<path fill-rule="evenodd" clip-rule="evenodd" d="M126.4 214.9H145.3C146.4 214.9 147.4 215.8 147.4 217C147.4 218.1 146.5 219.1 145.3 219.1H126.4C125.3 219.1 124.3 218.2 124.3 217C124.3 215.8 125.3 214.9 126.4 214.9Z" fill="#FFD22E"/>
<path fill-rule="evenodd" clip-rule="evenodd" d="M126.4 228.1H154.4C155.5 228.1 156.5 229 156.5 230.2C156.5 231.3 155.6 232.3 154.4 232.3H126.4C125.3 232.3 124.3 231.4 124.3 230.2C124.3 229.1 125.3 228.1 126.4 228.1Z" fill="#03E59F"/>
<path fill-rule="evenodd" clip-rule="evenodd" d="M163.2 228.1H191.2C192.3 228.1 193.3 229 193.3 230.2C193.3 231.3 192.4 232.3 191.2 232.3H163.2C162.1 232.3 161.1 231.4 161.1 230.2C161.2 229.1 162.1 228.1 163.2 228.1Z" fill="#03E59F"/>
<path d="M31.4 144.5C30.7 143.8 29.8 143.4 28.7 143.4C27.7 143.4 26.7 143.8 26 144.5C25.3 145.2 24.9 146.1 24.9 147.2C24.9 148.2 25.3 149.2 26 149.9C26.7 150.6 27.6 151 28.7 151C29.7 151 30.7 150.6 31.4 149.9C32.1 149.2 32.5 148.3 32.5 147.2C32.5 146.1 32 145.2 31.4 144.5ZM28.7 141.3C30.3 141.3 31.8 142 32.9 143C34 144.1 34.6 145.5 34.6 147.2C34.6 148.8 33.9 150.3 32.9 151.4C31.8 152.5 30.4 153.1 28.7 153.1C27.1 153.1 25.6 152.4 24.5 151.4C23.4 150.3 22.8 148.9 22.8 147.2C22.8 145.6 23.5 144.1 24.5 143C25.6 141.9 27.1 141.3 28.7 141.3Z" fill="#630DD3"/>
<path fill-rule="evenodd" clip-rule="evenodd" d="M481.336 173.122L431 147.809L380.664 173.122C373.206 251.406 431 265 431 265C431 265 488.794 251.406 481.336 173.122Z" fill="#EDB720"/>
<path fill-rule="evenodd" clip-rule="evenodd" d="M474.91 177.436L431 155.404L387.09 177.436C380.585 245.572 431 257.404 431 257.404C431 257.404 481.416 245.572 474.91 177.436Z" fill="#FCCA2E"/>
<path fill-rule="evenodd" clip-rule="evenodd" d="M420.149 209.66C418.95 209.66 417.979 208.741 417.979 207.608V187.067C417.979 181.481 423.639 177.106 430.863 177.106H431.54C438.656 177.106 444.021 181.388 444.021 187.067V207.12C444.021 208.254 443.05 209.172 441.851 209.172C440.653 209.172 439.681 208.254 439.681 207.12V187.067C439.681 183.728 436.182 181.21 431.54 181.21H430.863C426.152 181.21 422.319 183.838 422.319 187.067V207.608C422.319 208.741 421.348 209.66 420.149 209.66Z" fill="#191551"/>
<path fill-rule="evenodd" clip-rule="evenodd" d="M447.277 224.245C447.277 226.895 445.095 229.192 442.026 229.192H419.336C416.267 229.192 413.638 226.895 413.638 224.245V204.653C413.638 202.004 416.267 199.894 419.336 199.894H442.026C445.095 199.894 447.277 202.004 447.277 204.653V224.245Z" fill="#191551"/>
<path fill-rule="evenodd" clip-rule="evenodd" d="M434.255 210.662C434.255 208.91 432.835 207.49 431.083 207.49H430.917C429.164 207.49 427.745 208.91 427.745 210.662V210.829C427.745 212.581 429.164 214 430.917 214H431.083C432.835 214 434.255 212.581 434.255 210.829V210.662Z" fill="white"/>
<path fill-rule="evenodd" clip-rule="evenodd" d="M433.17 220.181C433.17 220.963 432.442 221.596 431.543 221.596C430.643 221.596 429.915 220.963 429.915 220.181V212.16C429.915 211.378 430.643 210.745 431.543 210.745C432.442 210.745 433.17 211.378 433.17 212.16V220.181Z" fill="white"/>
<path fill-rule="evenodd" clip-rule="evenodd" d="M322.8 312.1V336.2C322.8 339.7 324.2 342.9 326.5 345.2C328.8 347.5 332 348.9 335.5 348.9H347.5V345.9H335.5C332.8 345.9 330.4 344.8 328.6 343C326.8 341.2 325.7 338.8 325.7 336.1V312H322.8V312.1Z" fill="#01013D"/>
<path fill-rule="evenodd" clip-rule="evenodd" d="M336.6 312.1V336.2C336.6 339.7 338 342.9 340.3 345.2C342.6 347.5 345.8 348.9 349.3 348.9H384V345.9H349.3C346.6 345.9 344.2 344.8 342.4 343C340.6 341.2 339.5 338.8 339.5 336.1V312H336.6V312.1Z" fill="#01013D"/>
<path d="M327.3 312.1H321.1V320.4H327.3V312.1Z" fill="#01013D"/>
<path d="M341.3 312.1H335.1V320.4H341.3V312.1Z" fill="#01013D"/>
<path fill-rule="evenodd" clip-rule="evenodd" d="M381.039 324.8C382.439 324.8 383.539 325.9 383.539 327.3C383.539 328.7 382.439 329.8 381.039 329.8C379.639 329.8 378.539 328.7 378.539 327.3C378.539 325.9 379.639 324.8 381.039 324.8Z" fill="#03E59F"/>
<path fill-rule="evenodd" clip-rule="evenodd" d="M393.239 304.6H490.139C492.039 304.6 493.639 306.2 493.639 308.1V341.4C493.639 343.3 492.039 344.9 490.139 344.9H393.239C391.339 344.9 389.739 343.3 389.739 341.4V308.1C389.739 306.2 391.339 304.6 393.239 304.6Z" fill="#3462F4"/>
<path fill-rule="evenodd" clip-rule="evenodd" d="M400.439 309.1H420.539C424.439 309.1 427.539 312.2 427.539 316.1V319C427.539 322.9 424.439 326 420.539 326H400.439C396.539 326 393.439 322.9 393.439 319V316.1C393.339 312.2 396.539 309.1 400.439 309.1Z" fill="#01013D"/>
<path fill-rule="evenodd" clip-rule="evenodd" d="M437.639 309.1H483.139C487.039 309.1 490.139 312.2 490.139 316.1V319C490.139 322.9 487.039 326 483.139 326H437.639C433.739 326 430.639 322.9 430.639 319V316.1C430.639 312.2 433.739 309.1 437.639 309.1Z" fill="#01013D"/>
<path d="M469.639 315.4H465.539V319.5H469.639V315.4Z" fill="#FC3E54"/>
<path d="M476.039 315.4H471.939V319.5H476.039V315.4Z" fill="#FFD22E"/>
<path d="M482.439 315.4H478.339V319.5H482.439V315.4Z" fill="#FFD22E"/>
<path d="M412.339 344.9H397.739V348.9H412.339V344.9Z" fill="#092978"/>
<path d="M484.939 344.9H470.339V348.9H484.939V344.9Z" fill="#092978"/>
<path fill-rule="evenodd" clip-rule="evenodd" d="M393.239 260.2H490.139C492.039 260.2 493.639 261.8 493.639 263.7V297C493.639 298.9 492.039 300.5 490.139 300.5H393.239C391.339 300.5 389.739 298.9 389.739 297V263.7C389.739 261.8 391.339 260.2 393.239 260.2Z" fill="#3462F4"/>
<path fill-rule="evenodd" clip-rule="evenodd" d="M400.439 264.7H420.539C424.439 264.7 427.539 267.8 427.539 271.7V274.6C427.539 278.5 424.439 281.6 420.539 281.6H400.439C396.539 281.6 393.439 278.5 393.439 274.6V271.7C393.339 267.9 396.539 264.7 400.439 264.7Z" fill="#01013D"/>
<path fill-rule="evenodd" clip-rule="evenodd" d="M437.639 264.7H483.139C487.039 264.7 490.139 267.8 490.139 271.7V274.6C490.139 278.5 487.039 281.6 483.139 281.6H437.639C433.739 281.6 430.639 278.5 430.639 274.6V271.7C430.639 267.9 433.739 264.7 437.639 264.7Z" fill="#01013D"/>
<path d="M469.639 271H465.539V275.1H469.639V271Z" fill="#FC3E54"/>
<path d="M476.039 271H471.939V275.1H476.039V271Z" fill="#FFD22E"/>
<path d="M482.439 271H478.339V275.1H482.439V271Z" fill="#FFD22E"/>
<path d="M412.339 300.6H397.739V304.6H412.339V300.6Z" fill="#092978"/>
<path d="M484.939 300.6H470.339V304.6H484.939V300.6Z" fill="#092978"/>
<path d="M403.139 271.1H399.039V275.2H403.139V271.1Z" fill="#03E59F"/>
<path d="M410.339 271.1H406.239V275.2H410.339V271.1Z" fill="#03E59F"/>
<path d="M403.139 315.5H399.039V319.6H403.139V315.5Z" fill="#03E59F"/>
<path d="M410.339 315.5H406.239V319.6H410.339V315.5Z" fill="#03E59F"/>
<path fill-rule="evenodd" clip-rule="evenodd" d="M493.739 278.6H497.939C501.439 278.6 504.639 280 506.939 282.3C509.239 284.6 510.639 287.8 510.639 291.3V347.4V348.9H509.139H404.639H403.139V347.4V345.9H406.139H496.239H507.639V291.3C507.639 288.6 506.539 286.2 504.739 284.4C502.939 282.6 500.539 281.5 497.839 281.5H493.639V278.6H493.739Z" fill="#01013D"/>
<path fill-rule="evenodd" clip-rule="evenodd" d="M493.739 322.7H497.939C501.439 322.7 504.639 324.1 506.939 326.4C509.239 328.7 510.639 331.9 510.639 335.4V347.4H507.639V335.4C507.639 332.7 506.539 330.3 504.739 328.5C502.939 326.7 500.539 325.6 497.839 325.6H493.639V322.7H493.739Z" fill="#01013D"/>
<path fill-rule="evenodd" clip-rule="evenodd" d="M493.739 275.5H494.739C495.239 275.5 495.739 275.9 495.739 276.5V283.5C495.739 284 495.339 284.5 494.739 284.5H493.739V275.5Z" fill="#01013D"/>
<path fill-rule="evenodd" clip-rule="evenodd" d="M493.739 319.7H494.739C495.239 319.7 495.739 320.1 495.739 320.7V327.7C495.739 328.2 495.339 328.7 494.739 328.7H493.739V319.7Z" fill="#01013D"/>
<rect x="150.374" y="86.4144" width="12.0211" height="12.0211" rx="2" transform="rotate(-58.7167 150.374 86.4144)" stroke="#1DAFF4" stroke-width="2"/>
<rect x="158.305" y="81.0765" width="11.3534" height="12.0211" rx="2" transform="rotate(-58.7167 158.305 81.0765)" fill="#B12DE8" stroke="#B12DE8" stroke-width="2"/>
<circle cx="65.5" cy="78.5" r="5.5" fill="#1DAFF4"/>
<circle cx="63" cy="63" r="3" fill="#B12DE8"/>
<circle cx="73" cy="207" r="3" fill="#B12DE8"/>
<path fill-rule="evenodd" clip-rule="evenodd" d="M400.123 335.452C399.785 341.789 399.4 348.126 399.062 354.462C398.725 360.799 398.34 367.136 398.002 373.472C396.701 373.472 395.4 373.472 394.051 373.472C392.75 373.472 391.449 373.472 390.1 373.472C389.763 367.136 389.377 360.799 389.04 354.462C388.703 348.126 388.317 341.789 387.98 335.452C390.004 335.452 392.027 335.452 394.051 335.452C396.075 335.452 398.099 335.452 400.123 335.452Z" fill="#FFC6A8"/>
<path fill-rule="evenodd" clip-rule="evenodd" d="M389.763 367.469C389.763 367.469 389.859 369.232 390.1 371.138C392.509 373.472 395.256 373.663 398.099 371.852C399.544 378.189 395.352 379.571 385.522 376.093C373.38 371.043 374.584 365.563 389.763 367.469Z" fill="#1B0E5C"/>
<path fill-rule="evenodd" clip-rule="evenodd" d="M398.099 236.257C400.219 231.254 407.254 232.207 409.374 238.21C411.928 245.643 413.47 253.552 413.952 261.842C414.385 270.084 409.663 275.468 398.051 273.277C400.604 271.943 401.134 268.036 399.544 261.461C400.363 260.651 399.882 255.601 398.099 246.31C397.569 242.832 397.135 238.544 398.099 236.257Z" fill="#6250BA"/>
<path fill-rule="evenodd" clip-rule="evenodd" d="M385.33 335.452C384.944 342.313 384.607 349.126 384.221 355.987C383.836 362.848 383.499 369.661 383.113 376.521C381.812 376.521 380.511 376.521 379.258 376.521C377.957 376.521 376.656 376.521 375.403 376.521C375.018 369.661 374.681 362.848 374.295 355.987C373.91 349.126 373.572 342.313 373.187 335.452C375.211 335.452 377.234 335.452 379.258 335.452C381.282 335.452 383.306 335.452 385.33 335.452Z" fill="#FFC6A8"/>
<path fill-rule="evenodd" clip-rule="evenodd" d="M401.375 269.227C404.556 274.229 405.905 280.042 405.423 286.665C404.17 317.49 403.544 332.879 403.544 332.879C403.206 342.456 371.163 341.884 370.44 334.404C369.332 302.578 368.754 274.468 373.524 268.941C373.524 268.941 382.583 270.084 401.375 269.227Z" fill="#1B0E5C"/>
<path fill-rule="evenodd" clip-rule="evenodd" d="M404.218 257.316C403.785 270.99 400.508 274.134 386.245 274.801C378.343 275.182 372.03 274.134 372.705 262.509C371.645 242.308 382.198 240.545 404.218 257.316Z" fill="#453497"/>
<path fill-rule="evenodd" clip-rule="evenodd" d="M343.408 237.543C346.203 238.735 350.25 240.64 352.178 245.5C352.178 245.5 356.466 249.597 365.043 257.84C365.284 264.653 363.116 267.321 358.538 265.796C349.817 254.267 346.637 249.359 346.637 249.359C344.179 248.502 340.854 243.88 345.384 242.213C344.902 241.26 343.601 240.069 342.3 239.068C340.421 237.686 341.143 236.638 343.408 237.543Z" fill="#FFC6A8"/>
<path fill-rule="evenodd" clip-rule="evenodd" d="M381.137 227.872C375.982 227.586 372.849 223.441 373.91 210.291C381.571 215.389 383.98 221.249 381.137 227.872Z" fill="#FFC6A8"/>
<path fill-rule="evenodd" clip-rule="evenodd" d="M364.224 257.03C365.381 256.696 367.453 252.075 370.537 243.213C371.741 239.973 373.524 235.971 375.5 234.447C379.885 231.016 385.763 234.923 384.655 241.069C383.209 248.645 380.656 256.172 376.945 263.653C373.235 271.037 366.248 273.658 356.948 266.654C359.888 266.606 362.297 263.414 364.224 257.03Z" fill="#6250BA"/>
<path fill-rule="evenodd" clip-rule="evenodd" d="M376.56 202.477C387.257 196.379 401.375 201.525 399.978 218.105C399.496 223.441 399.544 226.204 401.954 228.729C418.867 246.072 407.977 263.7 389.811 258.078C381.667 255.458 376.849 247.978 379.595 233.589C380.559 227.967 380.8 222.821 377.09 218.486C370.922 211.482 371.115 205.479 376.56 202.477Z" fill="#140A47"/>
<path fill-rule="evenodd" clip-rule="evenodd" d="M375.066 369.947C375.066 369.947 375.162 371.567 375.259 373.806C377.62 376.283 380.415 376.474 383.258 374.52C384.703 381.238 380.511 382.715 370.729 378.999C358.635 373.663 359.936 367.898 375.066 369.947Z" fill="#1B0E5C"/>
<defs>
<linearGradient id="paint0_linear" x1="0" y1="347.999" x2="480.888" y2="347.999" gradientUnits="userSpaceOnUse">
<stop stop-color="#060E49"/>
<stop offset="1" stop-color="#332782"/>
</linearGradient>
<clipPath id="clip0">
<rect x="98" y="119" width="295" height="38" fill="white"/>
</clipPath>
</defs>
</svg>
