<?xml version="1.0" encoding="UTF-8"?>
<svg width="1011px" height="547px" viewBox="0 0 1011 547" version="1.1" xmlns="http://www.w3.org/2000/svg" xmlns:xlink="http://www.w3.org/1999/xlink">
    <!-- Generator: Sketch 54.1 (76490) - https://sketchapp.com -->
    <title>images/Lines_BG_Right</title>
    <desc>Created with Sketch.</desc>
    <defs>
        <polygon id="path-1" points="0 0 1011 0 1011 647 0 647"></polygon>
    </defs>
    <g id="HP" stroke="none" stroke-width="1" fill="none" fill-rule="evenodd">
        <g transform="translate(-429.000000, -1538.000000)" id="Benefits">
            <g transform="translate(-182.000000, 740.000000)">
                <g id="images/Lines_BG_right" transform="translate(611.000000, 698.000000)">
                    <g id="Lines_BG-Copy" transform="translate(505.500000, 323.500000) scale(-1, 1) translate(-505.500000, -323.500000) ">
                        <mask id="mask-2" fill="white">
                            <use xlink:href="#path-1"></use>
                        </mask>
                        <g id="Clip-2"></g>
                        <path d="M684.919869,594.597041 C685.404097,594.600629 685.815867,594.781816 686.156947,595.135219 C686.506864,595.479653 686.683589,595.899432 686.687124,596.390968 L686.687124,601.772748 C686.683589,602.26249 686.506864,602.682269 686.156947,603.028497 C685.815867,603.381901 685.404097,603.561293 684.919869,603.566675 C684.437409,603.561293 684.023871,603.381901 683.684558,603.028497 C683.332874,602.682269 683.156149,602.26249 683.152614,601.772748 L683.152614,596.390968 C683.156149,595.899432 683.332874,595.479653 683.684558,595.135219 C684.023871,594.781816 684.437409,594.600629 684.919869,594.597041 L684.919869,594.597041 Z M483.320279,625.809574 C483.185968,626.299316 482.906741,626.672453 482.480833,626.930778 L477.887738,629.621668 C477.465364,629.871024 477.02355,629.930224 476.562297,629.802855 C476.079836,629.66831 475.712247,629.38487 475.457762,628.948946 C475.210347,628.525579 475.152027,628.077097 475.27927,627.603501 C475.413581,627.117346 475.692807,626.74421 476.120483,626.482296 L480.713578,623.791406 C481.134185,623.545638 481.575998,623.484645 482.039019,623.613807 C482.52148,623.746558 482.889069,624.029998 483.143553,624.464129 C483.389202,624.891083 483.447521,625.339565 483.320279,625.809574 L483.320279,625.809574 Z M468.167836,631.596782 C468.64853,631.729532 469.016119,632.012973 469.272371,632.448897 C469.516252,632.874058 469.574571,633.322539 469.447329,633.794342 C469.313017,634.28229 469.033791,634.655427 468.60965,634.915546 L464.01302,637.606436 C463.594181,637.853998 463.152367,637.913198 462.687579,637.785829 C462.206886,637.651285 461.839297,637.367844 461.583045,636.933714 C461.337397,636.508553 461.279077,636.060072 461.40632,635.588269 C461.540631,635.100321 461.819857,634.72539 462.245766,634.467065 L466.842395,631.776174 C467.261235,631.526819 467.703048,631.467619 468.167836,631.596782 L468.167836,631.596782 Z M906.621982,512.210952 C907.047891,512.471072 907.327117,512.844209 907.463196,513.332157 C907.588671,513.803959 907.530351,514.252441 907.284703,514.677602 C907.030218,515.109938 906.662629,515.395173 906.180169,515.529717 C905.717148,515.657086 905.275334,515.597886 904.854728,515.350324 L900.261632,512.659434 C899.833957,512.399315 899.554731,512.026178 899.420419,511.53823 C899.293177,511.066427 899.351496,510.617945 899.598912,510.192785 C899.853397,509.758655 900.220986,509.475214 900.703446,509.34067 C901.1647,509.211507 901.606513,509.2725 902.028887,509.520062 L906.621982,512.210952 Z M767.62916,455.747106 L771.117721,453.728938 L772.840795,454.713804 L767.62916,455.747106 Z M620.1058,625.004101 C620.233042,625.475903 620.174723,625.924385 619.930841,626.349546 C619.674589,626.781882 619.307,627.067116 618.826307,627.201661 C618.361519,627.32903 617.919705,627.26983 617.500866,627.022268 L612.904236,624.331378 C612.478328,624.071259 612.199102,623.698122 612.06479,623.210174 C611.937548,622.738371 611.995867,622.289889 612.241516,621.864729 C612.497768,621.430598 612.865357,621.147158 613.34605,621.012613 C613.810838,620.883451 614.252652,620.944444 614.671491,621.192006 L619.268121,623.882896 C619.692262,624.143016 619.971488,624.516153 620.1058,625.004101 L620.1058,625.004101 Z M627.130637,629.085284 C627.593658,628.956121 628.035472,629.017115 628.456079,629.264677 L633.050941,631.955567 C633.478617,632.215686 633.756076,632.588823 633.890387,633.076771 C634.017629,633.548574 633.95931,633.997056 633.713662,634.422216 C633.459177,634.854553 633.089821,635.139787 632.609127,635.274332 C632.146107,635.4017 631.704293,635.342501 631.283686,635.094939 L626.688824,632.404049 C626.262915,632.143929 625.983689,631.770793 625.849378,631.282844 C625.722135,630.811042 625.782222,630.36256 626.026103,629.937399 C626.280588,629.503269 626.649944,629.219829 627.130637,629.085284 L627.130637,629.085284 Z M600.886904,613.119336 L605.481766,615.810226 C605.909442,616.070345 606.186901,616.443482 606.321212,616.93143 C606.448455,617.403233 606.390135,617.851714 606.144487,618.276875 C605.890002,618.709211 605.520646,618.994446 605.039953,619.12899 C604.576932,619.256359 604.135118,619.19716 603.714511,618.949598 L599.119649,616.258707 C598.693741,615.998588 598.414514,615.625451 598.28197,615.137503 C598.152961,614.6657 598.213047,614.217219 598.456928,613.792058 C598.71318,613.357928 599.080769,613.074487 599.561463,612.939943 C600.024483,612.81078 600.466297,612.871774 600.886904,613.119336 L600.886904,613.119336 Z M585.776875,604.867272 C586.241663,604.738109 586.683477,604.799103 587.102316,605.046665 L591.697179,607.737555 C592.123087,607.997674 592.404081,608.370811 592.538392,608.858759 C592.663867,609.330562 592.605548,609.779044 592.359899,610.204204 C592.105415,610.636541 591.736059,610.921775 591.255365,611.05632 C590.792344,611.183688 590.350531,611.124489 589.929924,610.876927 L585.335062,608.186037 C584.909153,607.925917 584.629927,607.552781 584.495616,607.064833 C584.368373,606.59303 584.426693,606.144548 584.672341,605.719387 C584.926826,605.285257 585.296182,605.001817 585.776875,604.867272 L585.776875,604.867272 Z M683.152614,612.536309 C683.156149,612.044773 683.332874,611.624994 683.684558,611.280561 C684.023871,610.927157 684.437409,610.74597 684.919869,610.742383 C685.404097,610.74597 685.815867,610.927157 686.156947,611.280561 C686.506864,611.624994 686.683589,612.044773 686.687124,612.536309 L686.687124,617.91809 C686.683589,618.407832 686.506864,618.827611 686.156947,619.173839 C685.815867,619.527242 685.404097,619.706635 684.919869,619.712017 C684.437409,619.706635 684.023871,619.527242 683.684558,619.173839 C683.332874,618.827611 683.156149,618.407832 683.152614,617.91809 L683.152614,612.536309 Z M871.851244,495.392889 C871.724002,494.921086 871.784089,494.472604 872.02797,494.047444 C872.284222,493.613313 872.651811,493.329873 873.132504,493.195328 C873.597292,493.066166 874.039106,493.127159 874.457945,493.374721 L879.054575,496.065611 C879.480483,496.325731 879.75971,496.698867 879.892254,497.186815 C880.019496,497.658618 879.961177,498.1071 879.717296,498.532261 C879.461044,498.964597 879.091687,499.249831 878.612761,499.384376 C878.147973,499.511745 877.70616,499.452545 877.28732,499.204983 L872.69069,496.514093 C872.264782,496.253973 871.985556,495.880837 871.851244,495.392889 L871.851244,495.392889 Z M888.2443,501.447392 L892.837395,504.138282 C893.263303,504.398401 893.54253,504.771538 893.676841,505.259486 C893.804083,505.731289 893.745764,506.179771 893.500116,506.604931 C893.245631,507.037268 892.878042,507.322502 892.395581,507.457046 C891.934328,507.584415 891.492514,507.525216 891.07014,507.277654 L886.477045,504.586764 C886.051137,504.326644 885.770143,503.953507 885.635832,503.465559 C885.508589,502.993757 885.568676,502.545275 885.814325,502.120114 C886.068809,501.685984 886.436398,501.402543 886.918859,501.267999 C887.38188,501.138836 887.823693,501.19983 888.2443,501.447392 L888.2443,501.447392 Z M991.717068,392.017856 L996.310163,394.708746 C996.736071,394.968866 997.015298,395.342003 997.151376,395.829951 C997.276851,396.301753 997.218532,396.750235 996.972884,397.175396 C996.718399,397.607732 996.35081,397.892966 995.868349,398.027511 C995.405329,398.15488 994.963515,398.09568 994.542908,397.848118 L989.949813,395.157228 C989.522137,394.897109 989.242911,394.523972 989.106833,394.036024 C988.981357,393.564221 989.039677,393.115739 989.287092,392.690579 C989.541577,392.256448 989.909166,391.973008 990.391627,391.838463 C990.85288,391.709301 991.294694,391.770294 991.717068,392.017856 L991.717068,392.017856 Z M975.502505,384.617908 C975.75699,384.183778 976.124579,383.900337 976.607039,383.765793 C977.068293,383.63663 977.510107,383.697624 977.93248,383.945186 L982.525576,386.636076 C982.951484,386.896195 983.23071,387.269332 983.363254,387.75728 C983.492264,388.229083 983.433945,388.677564 983.188296,389.102725 C982.933812,389.535061 982.566223,389.820296 982.083762,389.95484 C981.622508,390.082209 981.180695,390.02301 980.758321,389.775448 L976.165226,387.084557 C975.739317,386.824438 975.458324,386.451301 975.324012,385.963353 C975.19677,385.49155 975.256857,385.043069 975.502505,384.617908 L975.502505,384.617908 Z M33.0679398,553.919751 C33.4885465,553.672189 33.9303602,553.611195 34.3933809,553.740358 C34.8740742,553.874903 35.2434305,554.158343 35.4979152,554.592473 C35.7435636,555.017634 35.801883,555.466116 35.6746407,555.937918 C35.5420965,556.425867 35.2628703,556.799003 34.8351946,557.059123 L30.2403322,559.750013 C29.8214928,559.997575 29.3796791,560.056774 28.9148911,559.929406 C28.4341978,559.794861 28.0648415,559.509627 27.8103568,559.07729 C27.5647084,558.65213 27.506389,558.203648 27.6336314,557.731845 C27.7679427,557.243897 28.047169,556.87076 28.4730774,556.610641 L33.0679398,553.919751 Z M21.7150951,562.665144 C21.9589762,563.090305 22.0172956,563.538786 21.8900533,564.010589 C21.7575092,564.498537 21.4765157,564.871674 21.0523745,565.131793 L16.4557448,567.822684 C16.0369054,568.070245 15.5950917,568.129445 15.1303037,568.002076 C14.6496104,567.867532 14.2820214,567.582297 14.0257695,567.149961 C13.7801211,566.7248 13.7235689,566.276319 13.849044,565.804516 C13.9833554,565.316568 14.2625816,564.943431 14.68849,564.683312 L19.2851197,561.992421 C19.7039591,561.74486 20.1457728,561.683866 20.6105608,561.813029 C21.0912541,561.947573 21.4588431,562.231014 21.7150951,562.665144 L21.7150951,562.665144 Z M131.901664,613.164184 C132.035975,612.676236 132.315202,612.301305 132.74111,612.042979 L137.335972,609.352089 C137.756579,609.102733 138.198393,609.043534 138.661414,609.172697 C139.142107,609.305447 139.511463,609.588888 139.765948,610.024812 C140.011596,610.449972 140.069916,610.898454 139.942673,611.370257 C139.810129,611.858205 139.530903,612.231342 139.103227,612.491461 L134.508365,615.182351 C134.089525,615.429913 133.647712,615.489113 133.182924,615.361744 C132.70223,615.2272 132.332874,614.943759 132.078389,614.509629 C131.832741,614.084468 131.774422,613.635986 131.901664,613.164184 L131.901664,613.164184 Z M123.553152,617.42476 C123.971992,617.175404 124.413805,617.116204 124.878593,617.245367 C125.359287,617.378118 125.726876,617.661558 125.983128,618.097482 C126.227009,618.522643 126.285328,618.971125 126.158086,619.442928 C126.023775,619.930876 125.744548,620.304012 125.320407,620.564132 L120.723777,623.255022 C120.304938,623.502584 119.863124,623.561783 119.398336,623.434415 C118.917643,623.29987 118.550054,623.01643 118.293802,622.582299 C118.048154,622.157139 117.989834,621.708657 118.117077,621.236854 C118.251388,620.748906 118.530614,620.373976 118.956523,620.11565 L123.553152,617.42476 Z M0.0662238949,573.877187 C0.198768004,573.389238 0.477994261,573.016102 0.903902665,572.755982 L5.49876512,570.065092 C5.91937176,569.81753 6.36118546,569.756537 6.82420621,569.885699 C7.30666677,570.020244 7.67425577,570.303684 7.92874045,570.737815 C8.17438887,571.162975 8.23270828,571.611457 8.10546593,572.08326 C7.97292182,572.571208 7.69369557,572.944345 7.26601991,573.204464 L2.67115746,575.895354 C2.25055082,576.142916 1.80873712,576.202116 1.34571636,576.074747 C0.86502306,575.940202 0.497434064,575.654968 0.241182119,575.222632 C-0.00269904191,574.797471 -0.0627857048,574.348989 0.0662238949,573.877187 L0.0662238949,573.877187 Z M29.8886485,413.453488 L34.4817437,416.144378 C34.9076521,416.406291 35.1886456,416.779428 35.3211897,417.265582 C35.448432,417.739179 35.3901126,418.18766 35.1444642,418.611027 C34.8899795,419.046951 34.5223905,419.330392 34.03993,419.464936 C33.5769092,419.592305 33.1350955,419.533106 32.7144889,419.28375 L28.1213937,416.59286 C27.693718,416.334534 27.4144918,415.961397 27.2801804,415.471655 C27.1547053,415.001646 27.2130247,414.553165 27.4586731,414.12621 C27.7131578,413.693874 28.0825141,413.408639 28.5632074,413.275889 C29.0244609,413.146726 29.4662746,413.20772 29.8886485,413.453488 L29.8886485,413.453488 Z M69.9152022,437.493901 C70.3799902,437.364738 70.8218039,437.425732 71.2406433,437.6715 L75.837273,440.36239 C76.2614142,440.624303 76.5406404,440.99744 76.6749518,441.483594 C76.8021941,441.957191 76.7438747,442.405672 76.4999936,442.829039 C76.2437416,443.264963 75.8761526,443.548404 75.3954593,443.682948 C74.9306713,443.810317 74.4888576,443.751118 74.0700182,443.501762 L69.4733885,440.810871 C69.0474801,440.552546 68.7682538,440.179409 68.6339425,439.689667 C68.5067001,439.219658 68.5650195,438.771177 68.810668,438.344222 C69.0669199,437.911886 69.4345089,437.626651 69.9152022,437.493901 L69.9152022,437.493901 Z M57.4560559,429.598829 L62.0509184,432.289719 C62.4785941,432.551632 62.7578203,432.924769 62.8903644,433.410923 C63.0176068,433.88452 62.9592874,434.333002 62.7136389,434.756369 C62.4591542,435.192293 62.0915653,435.475733 61.6091047,435.610278 C61.1460839,435.737646 60.7042702,435.678447 60.2836636,435.429091 L55.6888011,432.738201 C55.2628927,432.479875 54.9836665,432.106739 54.8511224,431.616997 C54.7221128,431.146988 54.7821994,430.698506 55.0260806,430.271551 C55.2823325,429.839215 55.6499215,429.553981 56.1306148,429.42123 C56.5936356,429.292067 57.0354493,429.353061 57.4560559,429.598829 L57.4560559,429.598829 Z M48.266331,424.217048 C48.6922394,424.478962 48.9732329,424.852099 49.1075443,425.338253 C49.2330194,425.811849 49.1747,426.260331 48.9290516,426.683698 C48.6745669,427.119622 48.3052106,427.403063 47.8245173,427.537607 C47.3614966,427.664976 46.9196829,427.605776 46.4990762,427.35642 L41.9042138,424.66553 C41.4783054,424.407205 41.1990791,424.034068 41.0647678,423.544326 C40.9375254,423.074317 40.9958448,422.625835 41.2414932,422.198881 C41.4959779,421.766544 41.8653342,421.48131 42.3460275,421.34856 C42.8108155,421.219397 43.2526292,421.28039 43.6714686,421.526158 L48.266331,424.217048 Z M313.091229,632.942227 C313.510068,632.692871 313.951882,632.633671 314.41667,632.76104 C314.897363,632.897379 315.264952,633.180819 315.521204,633.614949 C315.765085,634.038316 315.823404,634.486798 315.696162,634.960394 C315.561851,635.446549 315.282624,635.821479 314.858483,636.081599 L310.261854,638.772489 C309.843014,639.021845 309.401201,639.081044 308.936413,638.951882 C308.455719,638.817337 308.08813,638.533897 307.831878,638.099766 C307.58623,637.674606 307.52791,637.226124 307.655153,636.754321 C307.789464,636.266373 308.06869,635.893236 308.494599,635.633117 L313.091229,632.942227 Z M299.216511,640.925201 C299.637118,640.677639 300.078932,640.616646 300.541952,640.745808 C301.022646,640.880353 301.392002,641.163793 301.646487,641.597924 C301.892135,642.023084 301.950454,642.471566 301.824979,642.943369 C301.690668,643.431317 301.409674,643.804454 300.983766,644.064573 L296.388904,646.755463 C295.970064,647.003025 295.52825,647.062225 295.063462,646.934856 C294.582769,646.800311 294.213413,646.515077 293.958928,646.082741 C293.71328,645.65758 293.65496,645.209098 293.782203,644.737296 C293.916514,644.249347 294.19574,643.876211 294.621649,643.616091 L299.216511,640.925201 Z M146.527465,604.058211 L151.12056,601.367321 C151.541166,601.121553 151.98298,601.06056 152.446001,601.189722 C152.928461,601.322473 153.29605,601.605913 153.550535,602.040044 C153.796184,602.466998 153.854503,602.91548 153.727261,603.385489 C153.594717,603.875231 153.313723,604.248367 152.887815,604.506693 L148.294719,607.197583 C147.872345,607.446939 147.430532,607.506139 146.969278,607.37877 C146.486818,607.244225 146.119229,606.960785 145.864744,606.524861 C145.617328,606.101494 145.559009,605.653012 145.686251,605.179415 C145.820563,604.693261 146.099789,604.320125 146.527465,604.058211 L146.527465,604.058211 Z M258.923102,612.222372 C258.502495,612.469934 258.060682,612.529134 257.597661,612.401765 C257.116968,612.26722 256.749379,611.981986 256.493127,611.54965 C256.249245,611.124489 256.189159,610.676007 256.318168,610.204204 C256.450713,609.716256 256.729939,609.34312 257.155847,609.083 L261.75071,606.39211 C262.171316,606.144548 262.61313,606.083555 263.076151,606.212717 C263.558611,606.347262 263.9262,606.630702 264.180685,607.064833 C264.426333,607.489993 264.484653,607.938475 264.35741,608.410278 C264.224866,608.898226 263.94564,609.271363 263.517964,609.531482 L258.923102,612.222372 Z M247.87776,614.37329 C248.298366,614.127522 248.74018,614.066529 249.203201,614.195692 C249.685661,614.328442 250.05325,614.611883 250.307735,615.046013 C250.553383,615.472968 250.611703,615.921449 250.48446,616.391458 C250.350149,616.8812 250.070923,617.254337 249.645014,617.512662 L245.051919,620.203552 C244.629545,620.452908 244.187732,620.512108 243.726478,620.384739 C243.244017,620.250195 242.876428,619.966754 242.621944,619.53083 C242.374528,619.107463 242.316209,618.658982 242.443451,618.185385 C242.577762,617.699231 242.856989,617.326094 243.284664,617.064181 L247.87776,614.37329 Z M518.797919,601.548508 C519.142534,601.776336 519.495984,602.000577 519.860039,602.22123 L516.500488,602.893953 L518.797919,601.548508 Z M713.374438,403.67838 L716.995543,401.568723 L732.593334,410.674695 L729.058825,412.780765 L713.374438,403.67838 Z M870.218301,238.457721 C869.795927,238.705283 869.354113,238.764483 868.89286,238.637114 C868.410399,238.502569 868.04281,238.219129 867.788326,237.784999 C867.54091,237.359838 867.482591,236.911356 867.609833,236.439554 C867.744144,235.951605 868.023371,235.576675 868.451046,235.318349 L873.044141,232.627459 C873.464748,232.378103 873.906562,232.318904 874.369583,232.448066 C874.852043,232.580817 875.219632,232.864257 875.474117,233.300182 C875.719765,233.725342 875.778085,234.173824 875.65261,234.645627 C875.516531,235.133575 875.237305,235.506712 874.811396,235.766831 L870.218301,238.457721 Z M889.258704,225.227511 C889.504353,225.652672 889.562672,226.101153 889.437197,226.572956 C889.301118,227.060904 889.021892,227.434041 888.595984,227.69416 L884.001121,230.385051 C883.580514,230.632612 883.138701,230.691812 882.67568,230.564443 C882.193219,230.429899 881.82563,230.146458 881.571146,229.712328 C881.325497,229.287167 881.267178,228.838686 881.396188,228.366883 C881.528732,227.878935 881.807958,227.504004 882.233866,227.245679 L886.828729,224.554788 C887.249335,224.305433 887.691149,224.246233 888.15417,224.375396 C888.634863,224.508146 889.002452,224.791587 889.258704,225.227511 L889.258704,225.227511 Z M896.460267,222.491773 C895.979574,222.357228 895.610218,222.073788 895.355733,221.639657 C895.110085,221.214497 895.051765,220.766015 895.180775,220.294212 C895.313319,219.806264 895.592545,219.431333 896.018454,219.173008 L900.615083,216.482118 C901.033923,216.232762 901.475736,216.173562 901.940525,216.302725 C902.419451,216.435476 902.788807,216.718916 903.045059,217.15484 C903.287173,217.580001 903.349027,218.028483 903.220017,218.500285 C903.085706,218.988234 902.806479,219.36137 902.382338,219.62149 L897.785708,222.31238 C897.366869,222.559942 896.925055,222.619141 896.460267,222.491773 L896.460267,222.491773 Z M917.004604,210.427615 C916.870293,210.915563 916.592834,211.2887 916.166926,211.548819 L911.568529,214.239709 C911.151456,214.487271 910.709643,214.546471 910.243088,214.419102 C909.764161,214.284557 909.396572,214.001117 909.138553,213.566987 C908.896439,213.141826 908.836353,212.693344 908.963595,212.221542 C909.097906,211.733594 909.377133,211.358663 909.801274,211.100337 L914.399671,208.409447 C914.81851,208.160091 915.260324,208.100892 915.725112,208.230054 C916.204038,208.362805 916.573394,208.646246 916.829646,209.08217 C917.073527,209.50733 917.131847,209.955812 917.004604,210.427615 L917.004604,210.427615 Z M827.18388,106.245315 C826.76504,106.492877 826.323227,106.553871 825.858439,106.424708 C825.377745,106.290163 825.010156,106.006723 824.753904,105.572593 C824.510023,105.147432 824.449936,104.69895 824.577179,104.227148 C824.71149,103.7392 824.990716,103.364269 825.416625,103.105943 L830.013255,100.415053 C830.432094,100.165697 830.873908,100.106498 831.338696,100.235661 C831.817622,100.370205 832.186978,100.653645 832.44323,101.087776 C832.687111,101.512936 832.74543,101.961418 832.618188,102.433221 C832.485644,102.921169 832.206418,103.294306 831.780509,103.554425 L827.18388,106.245315 Z M817.554108,108.308331 C818.033034,108.442876 818.402391,108.726316 818.658643,109.160446 C818.900756,109.585607 818.96261,110.034089 818.833601,110.505892 C818.699289,110.99384 818.420063,111.366976 817.995922,111.627096 L813.399292,114.317986 C812.980453,114.565548 812.538639,114.626541 812.073851,114.497379 C811.593158,114.362834 811.223802,114.079394 810.969317,113.645263 C810.723669,113.220103 810.665349,112.771621 810.794359,112.299818 C810.926903,111.81187 811.206129,111.43694 811.632037,111.178614 L816.228667,108.487724 C816.647507,108.238368 817.08932,108.179168 817.554108,108.308331 L817.554108,108.308331 Z M803.767754,116.381002 C804.248447,116.515546 804.616036,116.798987 804.872288,117.233117 C805.117936,117.658278 805.176256,118.106759 805.050781,118.578562 C804.914702,119.06651 804.635476,119.439647 804.209567,119.699766 L799.614705,122.390657 C799.194098,122.638219 798.752285,122.699212 798.289264,122.570049 C797.806803,122.435505 797.439214,122.152064 797.18473,121.717934 C796.939081,121.292773 796.880762,120.844292 797.009771,120.372489 C797.142315,119.884541 797.421542,119.50961 797.84745,119.251285 L802.442313,116.560394 C802.862919,116.311039 803.304733,116.251839 803.767754,116.381002 L803.767754,116.381002 Z M784.06463,127.323955 L788.657725,124.633065 C789.078332,124.383709 789.520146,124.32451 789.983166,124.453672 C790.465627,124.588217 790.833216,124.871657 791.087701,125.305788 C791.333349,125.730948 791.391668,126.17943 791.266193,126.651233 C791.130115,127.139181 790.850888,127.512318 790.42498,127.772437 L785.831885,130.463327 C785.409511,130.710889 784.967697,130.771883 784.506444,130.64272 C784.023983,130.508175 783.656394,130.224735 783.401909,129.790605 C783.154494,129.365444 783.096174,128.916962 783.223417,128.44516 C783.357728,127.957212 783.636954,127.582281 784.06463,127.323955 L784.06463,127.323955 Z M133.138742,477.72271 L116.173096,467.856112 L119.751787,465.748248 L136.717433,475.614846 L133.138742,477.72271 Z M95.8054849,517.501243 L99.3841758,519.610901 L49.7702649,548.44648 C49.549358,548.573849 49.3284512,548.649194 49.1075443,548.670721 C48.9856037,548.792708 48.8530596,548.896756 48.7081447,548.986452 L44.1132823,551.677342 C43.6944429,551.924904 43.2526292,551.984104 42.7878412,551.856735 C42.3071479,551.72219 41.9377916,551.436956 41.6833069,551.00462 C41.4376585,550.579459 41.3793391,550.130977 41.5065815,549.659175 C41.6408928,549.171227 41.9201191,548.79809 42.3460275,548.53797 L46.9408899,545.84708 C47.156495,545.719711 47.3774019,545.64616 47.6036105,545.622839 C47.7167148,545.500852 47.8492589,545.395011 48.0030101,545.307108 L95.8054849,517.501243 Z M172.681068,386.815468 L175.597039,388.519699 C175.584668,388.573517 175.57053,388.632716 175.552857,388.699092 C175.420313,389.172688 175.141087,389.52968 174.713411,389.775448 L81.8883534,443.726003 L108.927352,459.422862 L103.40468,458.3483 L105.171935,461.44103 L77.4260351,445.295689 C77.0478425,445.078623 76.7827543,444.76648 76.6307704,444.355671 C76.482321,443.937686 76.482321,443.517907 76.6307704,443.099922 C76.7827543,442.689113 77.0478425,442.375176 77.4260351,442.156317 L172.681068,386.815468 Z M166.981672,497.411056 L168.748926,496.379548 L170.516181,499.474072 L166.981672,497.411056 Z M173.520514,497.095325 L169.059963,496.198362 L170.516181,495.34804 L173.520514,497.095325 Z M181.252254,505.707968 L184.786764,503.644952 L219.999315,524.095718 L216.464806,526.158733 L181.252254,505.707968 Z M221.635793,448.392006 L218.101284,446.32899 L251.058818,427.089125 C251.479425,426.839769 251.921238,426.78057 252.384259,426.907939 C252.864953,427.044277 253.234309,427.327718 253.488793,427.761848 C253.734442,428.187009 253.792761,428.63549 253.667286,429.107293 C253.532975,429.593447 253.253749,429.966584 252.826073,430.228497 L221.635793,448.392006 Z M220.617854,362.01443 L217.083345,359.951414 L243.063757,344.835787 L246.598267,346.900597 L220.617854,362.01443 Z M201.929135,576.028105 L156.068873,602.712766 C155.650034,602.962122 155.20822,603.021322 154.743432,602.893953 C154.262739,602.759408 153.89515,602.475968 153.638898,602.040044 C153.393249,601.616677 153.33493,601.168195 153.462172,600.694598 C153.594717,600.208444 153.87571,599.835307 154.301618,599.573394 L198.350444,573.922035 L201.929135,576.028105 Z M385.548675,555.354892 L370.968823,546.83374 L318.479588,577.46504 L318.479588,577.554737 L280.660336,599.620036 L280.660336,599.573394 L270.14517,605.719387 L270.14517,601.503659 L307.964422,579.43836 L307.964422,579.483208 L311.587295,577.37355 L311.498932,577.330496 L307.920241,579.43836 L280.176108,563.246376 L283.753032,561.140306 L311.498932,577.330496 L394.118093,529.161767 C394.148137,529.147415 394.176413,529.13127 394.206456,529.118713 C394.250638,529.086422 394.294819,529.055925 394.339,529.029016 L394.559907,528.937526 C395.005255,528.718667 395.461207,528.689964 395.931297,528.849624 C396.389016,529.005695 396.728329,529.305281 396.945701,529.746587 C397.163073,530.198657 397.191349,530.659696 397.035831,531.13688 C396.880313,531.603301 396.586948,531.945941 396.152204,532.168388 L374.545747,544.725876 L389.125599,553.247028 L385.548675,555.354892 Z M400.570341,564.100285 L396.373111,561.633636 L401.895782,562.75484 L400.128527,559.658523 L404.147264,561.992421 L400.570341,564.100285 Z M359.347355,605.89878 L362.926046,608.006644 L328.641303,628.008928 L328.597122,628.051982 L324.046441,630.699818 C323.627602,630.949174 323.185788,631.008374 322.721,630.879211 C322.240307,630.744666 321.87095,630.461226 321.616466,630.027096 C321.372584,629.601935 321.312498,629.153453 321.43974,628.681651 C321.574052,628.193703 321.853278,627.820566 322.279186,627.560446 L326.829867,624.91261 L326.874049,624.869556 L359.347355,605.89878 Z M505.722001,609.172697 L509.298924,611.280561 L491.670558,621.548998 C491.251718,621.798353 490.809905,621.857553 490.345117,621.730184 C489.864423,621.59564 489.495067,621.312199 489.240582,620.876275 C488.994934,620.452908 488.936615,620.004427 489.063857,619.53083 C489.198168,619.044676 489.477395,618.671539 489.903303,618.409626 L491.804869,617.288421 L434.369088,583.83348 L437.946012,581.725616 L495.381793,615.2272 L505.722001,609.172697 Z M520.301853,604.867272 L521.316257,603.073345 C521.666173,603.272471 522.019624,603.466215 522.37661,603.656372 L520.301853,604.867272 Z M589.974105,564.23483 C589.394446,563.858105 588.790045,563.483175 588.162669,563.113626 C587.58301,562.776367 586.994514,562.446285 586.395415,562.125172 L637.027264,532.61687 L640.605955,534.724734 L589.974105,564.23483 Z M712.623355,527.816322 L716.200279,525.710252 L750.486789,545.667687 C750.614031,545.75559 750.732437,545.859638 750.84024,545.979831 L751.191924,546.250714 L750.84024,545.936776 L791.882965,569.749361 L788.304274,571.859019 L749.072985,549.076148 C748.942208,548.986452 748.82557,548.884198 748.719534,548.762211 L748.364316,548.493122 L748.719534,548.807059 L712.623355,527.816322 Z M683.417702,543.0647 L685.009999,544.008305 L686.466217,543.15619 C686.611132,543.409134 686.685357,543.692574 686.687124,544.008305 L686.687124,577.106255 C686.683589,577.595997 686.506864,578.015776 686.156947,578.362004 C686.035007,578.489372 685.902463,578.59342 685.761082,578.675941 C685.902463,578.758461 686.035007,578.862509 686.156947,578.989878 C686.506864,579.334312 686.683589,579.754091 686.687124,580.245627 L686.687124,585.627407 C686.683589,586.117149 686.506864,586.536928 686.156947,586.883156 C685.815867,587.23656 685.404097,587.415952 684.919869,587.421334 C684.437409,587.415952 684.023871,587.23656 683.684558,586.883156 C683.332874,586.536928 683.156149,586.117149 683.152614,585.627407 L683.152614,580.245627 C683.156149,579.754091 683.332874,579.334312 683.684558,578.989878 C683.806499,578.862509 683.937275,578.758461 684.080423,578.675941 C683.937275,578.59342 683.806499,578.489372 683.684558,578.362004 C683.332874,578.015776 683.156149,577.595997 683.152614,577.106255 L683.152614,544.008305 C683.156149,543.662077 683.244512,543.34814 683.417702,543.0647 L683.417702,543.0647 Z M651.783842,528.176901 L653.33019,525.486011 L654.876538,526.382974 L651.783842,528.176901 Z M647.630793,526.427822 L651.299614,524.27511 L653.109283,525.349672 L647.630793,526.427822 Z M715.274237,490.3681 L711.693779,488.26203 L756.758776,462.070698 L760.293286,464.13192 L715.274237,490.3681 Z M652.579106,491.580794 L607.560058,465.344615 L611.181163,463.234957 L656.201979,489.471136 L652.579106,491.580794 Z M851.262726,484.001453 L854.841417,481.893589 L860.673358,485.30205 L860.719307,485.346898 L865.269988,487.992941 C865.694129,488.25306 865.973355,488.626197 866.107666,489.114145 C866.236676,489.585948 866.174822,490.034429 865.932708,490.45959 C865.676456,490.891926 865.3071,491.177161 864.828174,491.311705 C864.363386,491.439074 863.921572,491.379874 863.502733,491.132312 L859.038647,488.48627 L858.952052,488.441422 L858.906103,488.441422 L851.262726,484.001453 Z M774.652231,455.791954 L771.384577,457.675577 L773.019288,454.805295 L774.652231,455.791954 Z M887.933263,385.604568 L891.467773,387.66579 L853.825246,409.553491 L853.692701,409.688035 L808.450979,436.101814 L804.872288,433.995744 L849.23215,408.118349 L777.52402,366.275006 L781.05853,364.211991 L852.809074,406.05354 L887.933263,385.604568 Z M896.327723,384.842149 L899.819819,378.653101 L901.940525,377.397353 C903.195275,378.089808 904.490673,378.732034 905.824951,379.325824 L896.327723,384.842149 Z M972.851623,340.263068 C971.853124,339.489885 970.776866,338.727466 969.626383,337.975811 L976.340184,334.072226 C976.760791,333.826458 977.202604,333.767259 977.665625,333.894628 C978.148086,334.029172 978.515675,334.312612 978.770159,334.744949 C979.015808,335.171903 979.074127,335.620385 978.945117,336.090394 C978.812573,336.580136 978.533347,336.953273 978.107439,337.211598 L972.851623,340.263068 Z M966.841189,377.442201 L968.742756,378.563405 C969.168664,378.823524 969.446123,379.196661 969.580434,379.684609 C969.707677,380.156412 969.649357,380.604894 969.405476,381.030054 C969.149224,381.462391 968.779868,381.747625 968.300942,381.88217 C967.836154,382.009539 967.39434,381.950339 966.975501,381.702777 L962.953229,379.368878 C964.283972,378.773295 965.579369,378.131069 966.841189,377.442201 L966.841189,377.442201 Z M906.975433,333.984324 L846.005143,298.464573 L849.495471,296.356709 L911.261026,332.36979 C909.801274,332.859532 908.373332,333.395916 906.975433,333.984324 L906.975433,333.984324 Z M860.099,244.198287 L856.522076,242.090423 L865.091495,237.112276 C865.512102,236.86292 865.953915,236.803721 866.416936,236.932883 C866.899397,237.065634 867.266986,237.349074 867.52147,237.784999 C867.767119,238.210159 867.825438,238.658641 867.699963,239.130444 C867.563884,239.618392 867.284658,239.991529 866.85875,240.251648 L860.099,244.198287 Z M784.239588,262.451492 L756.893088,246.530392 L760.427597,244.467376 L784.151226,258.325461 L784.239588,262.451492 Z M757.068046,147.236543 L753.491122,145.128679 L780.705079,129.117882 C781.125685,128.87032 781.567499,128.811121 782.03052,128.938489 C782.511213,129.07124 782.880569,129.35468 783.135054,129.790605 C783.380702,130.215765 783.439022,130.664247 783.313547,131.13605 C783.181003,131.622204 782.900009,131.995341 782.472333,132.257254 L757.068046,147.236543 Z M1010.09298,402.781417 C1010.52066,403.041536 1010.79989,403.414673 1010.93596,403.902621 C1011.06144,404.374424 1011.00312,404.822906 1010.7557,405.248066 C1010.50122,405.680403 1010.13363,405.965637 1009.65117,406.100182 C1009.18992,406.22755 1008.7481,406.168351 1008.32573,405.920789 L1003.73263,403.229899 C1003.30672,402.969779 1003.0275,402.596643 1002.89495,402.108694 C1002.76594,401.636892 1002.82426,401.18841 1003.06991,400.763249 C1003.3244,400.329119 1003.69199,400.045679 1004.17445,399.911134 C1004.63747,399.781971 1005.07928,399.842965 1005.49989,400.090527 L1010.09298,402.781417 Z" id="Fill-1" fill="#E9E9E9" mask="url(#mask-2)"></path>
                    </g>
                </g>
            </g>
        </g>
    </g>
</svg>