<svg width="366" height="241" viewBox="0 0 366 241" fill="none" xmlns="http://www.w3.org/2000/svg">
<g clip-path="url(#clip0_955_38105)">
<g filter="url(#filter0_d_955_38105)">
<mask id="mask0_955_38105" style="mask-type:alpha" maskUnits="userSpaceOnUse" x="39" y="1" width="288" height="223">
<path fill-rule="evenodd" clip-rule="evenodd" d="M39.1172 1.30066H326.669V223.201H39.1172V1.30066Z" fill="white"/>
</mask>
<g mask="url(#mask0_955_38105)">
<path fill-rule="evenodd" clip-rule="evenodd" d="M326.669 214.655C326.669 219.384 323.048 223.201 318.596 223.201H47.1869C42.7352 223.201 39.1172 219.384 39.1172 214.655V9.84855C39.1172 5.12006 42.7352 1.29993 47.1869 1.29993H318.596C323.048 1.29993 326.669 5.12006 326.669 9.84855V214.655Z" fill="white"/>
</g>
<mask id="mask1_955_38105" style="mask-type:alpha" maskUnits="userSpaceOnUse" x="3" y="1" width="360" height="235">
<path fill-rule="evenodd" clip-rule="evenodd" d="M3 236H362.778V1.30066H3V236Z" fill="white"/>
</mask>
<g mask="url(#mask1_955_38105)">
<path fill-rule="evenodd" clip-rule="evenodd" d="M52 203.755H313.35V15.9999H52V203.755Z" fill="#191551"/>
<g clip-path="url(#clip1_955_38105)">
<path d="M216.162 140.002C234.476 121.751 234.476 92.1603 216.162 73.9092C197.848 55.6582 168.155 55.6582 149.84 73.9092C131.526 92.1603 131.526 121.751 149.84 140.002C168.155 158.253 197.848 158.253 216.162 140.002Z" stroke="white" stroke-miterlimit="10"/>
<path d="M137.811 131.874C130.956 131.874 124.382 129.16 119.535 124.33C114.688 119.499 111.965 112.948 111.965 106.116C111.965 99.2852 114.688 92.7337 119.535 87.9033C124.382 83.0728 130.956 80.3591 137.811 80.3591" stroke="white" stroke-miterlimit="10"/>
<path d="M184.262 138.587C212.565 138.587 235.509 115.722 235.509 87.5166C235.509 59.3114 212.565 36.4465 184.262 36.4465C155.96 36.4465 133.016 59.3114 133.016 87.5166C133.016 115.722 155.96 138.587 184.262 138.587Z" stroke="white" stroke-miterlimit="10"/>
<path d="M231.877 140.282C250.191 122.031 250.191 92.4399 231.877 74.1889C213.563 55.9378 183.87 55.9378 165.555 74.1889C147.241 92.44 147.241 122.031 165.555 140.282C183.87 158.533 213.563 158.533 231.877 140.282Z" stroke="white" stroke-miterlimit="10"/>
<path d="M228.121 78.0383C237.426 78.0383 246.35 81.7221 252.93 88.2791C259.51 94.8362 263.206 103.73 263.206 113.003C263.206 122.276 259.51 131.169 252.93 137.726C246.35 144.283 237.426 147.967 228.121 147.967" stroke="white" stroke-miterlimit="10"/>
<path d="M215.403 154.606C215.4 163.272 211.943 171.582 205.792 177.709C199.642 183.836 191.302 187.278 182.606 187.278C173.91 187.278 165.569 183.836 159.419 177.709C153.269 171.582 149.812 163.272 149.809 154.606" stroke="white" stroke-miterlimit="10"/>
<path d="M112.476 122.385C120.47 122.385 126.951 115.926 126.951 107.959C126.951 99.9917 120.47 93.5331 112.476 93.5331C104.481 93.5331 98 99.9917 98 107.959C98 115.926 104.481 122.385 112.476 122.385Z" fill="white"/>
<path d="M262.097 119.604C268.551 114.86 269.924 105.8 265.163 99.3688C260.403 92.9371 251.312 91.5692 244.858 96.3134C238.404 101.058 237.031 110.117 241.792 116.549C246.552 122.981 255.643 124.349 262.097 119.604Z" fill="white"/>
<path fill-rule="evenodd" clip-rule="evenodd" d="M252.657 99C254.934 99.0062 256.83 100.287 257.695 102.289C257.929 102.829 258.081 103.41 258.147 104.013C258.197 104.466 258.205 104.764 258.176 105.187C258.037 107.234 256.984 109.024 255.328 110.296C255.318 110.305 255.319 110.32 255.331 110.327C255.378 110.354 255.426 110.381 255.473 110.408C256.637 111.076 257.58 111.773 258.304 112.567C258.354 112.621 258.403 112.677 258.451 112.732C258.459 112.741 258.473 112.741 258.481 112.732C258.528 112.676 258.576 112.62 258.625 112.565C259.342 111.765 260.278 111.06 261.435 110.381C261.866 110.129 262.309 109.891 262.817 109.634C262.894 109.594 262.987 109.648 262.988 109.731L263 112.33C263 112.376 262.97 112.418 262.925 112.434C261.14 113.078 259.868 114.713 259.801 115.885C259.797 115.943 259.747 115.989 259.685 115.989L257.294 116C257.224 116 257.165 115.948 257.16 115.881C257.08 114.742 256.045 113.633 254.138 112.539C253.761 112.323 253.366 112.114 252.908 111.887C252.904 111.885 252.901 111.884 252.898 111.882C252.198 111.514 251.157 111.126 249.838 110.153C248.292 108.907 247.307 107.192 247.155 105.236C247.122 104.814 247.127 104.515 247.172 104.062C247.232 103.458 247.379 102.876 247.607 102.334C248.453 100.324 250.336 99.0267 252.613 99.0003L252.624 99L252.657 99ZM249.137 111.505C249.683 111.921 250.368 112.312 251.19 112.676C251.313 112.731 251.324 112.883 251.21 112.951C249.606 113.908 248.737 114.861 248.664 115.842C248.658 115.926 248.581 115.99 248.488 115.991L246.179 116C246.079 116 245.997 115.927 246 115.837C246.038 114.697 246.557 113.656 247.458 112.717C247.871 112.287 248.356 111.885 248.913 111.5C248.979 111.454 249.073 111.456 249.137 111.505ZM252.647 101.485C251.442 101.498 250.479 102.162 250.016 103.262C249.881 103.581 249.794 103.93 249.757 104.297C249.725 104.615 249.723 104.774 249.744 105.051C249.874 106.723 250.962 108.146 252.67 108.988C252.672 108.989 252.673 108.99 252.674 108.99C252.68 108.993 252.687 108.993 252.692 108.99C252.694 108.99 252.695 108.989 252.696 108.988C254.397 108.131 255.471 106.699 255.584 105.026C255.603 104.747 255.599 104.589 255.564 104.272C255.524 103.904 255.433 103.556 255.296 103.239C254.822 102.142 253.852 101.487 252.647 101.485Z" fill="#005FF9"/>
<path d="M197.27 35.9529C197.323 38.7653 196.539 41.5302 195.015 43.8981C193.492 46.266 191.298 48.1305 188.711 49.2559C186.124 50.3813 183.261 50.7169 180.483 50.2204C177.704 49.7239 175.136 48.4176 173.103 46.4666C171.07 44.5156 169.663 42.0076 169.06 39.2597C168.457 36.5118 168.685 33.6474 169.716 31.0288C170.747 28.4102 172.533 26.155 174.85 24.5483C177.167 22.9417 179.91 22.0557 182.732 22.0025C186.516 21.9313 190.174 23.361 192.9 25.9772C195.627 28.5934 197.198 32.1818 197.27 35.9529Z" fill="white"/>
<mask id="mask2_955_38105" style="mask-type:alpha" maskUnits="userSpaceOnUse" x="168" y="22" width="30" height="29">
<path d="M197.27 35.9529C197.323 38.7653 196.539 41.5302 195.015 43.8981C193.492 46.266 191.298 48.1305 188.711 49.2559C186.124 50.3813 183.261 50.7169 180.483 50.2204C177.704 49.7239 175.136 48.4176 173.103 46.4666C171.07 44.5156 169.663 42.0076 169.06 39.2597C168.457 36.5118 168.685 33.6474 169.716 31.0288C170.747 28.4102 172.533 26.155 174.85 24.5483C177.167 22.9417 179.91 22.0557 182.732 22.0025C186.516 21.9313 190.174 23.361 192.9 25.9772C195.627 28.5934 197.198 32.1818 197.27 35.9529Z" fill="white"/>
</mask>
<g mask="url(#mask2_955_38105)">
<path d="M173.672 52.2017C172.743 51.1994 172.892 50.0634 174.623 48.3877C174 48.5128 173.325 48.9221 173.978 47.38C172.34 47.9208 170.589 45.5176 172.38 44.0673C169.248 40.7835 169.922 37.3714 172.205 34.8354C171.237 34.7403 171.428 32.8104 173.388 31.2437C172.247 31.0386 172.38 29.053 175.714 27.9704C174.786 27.0247 177.49 25.7272 179.6 26.0274C179.521 24.8958 181.115 24.9791 181.813 25.8158C183.373 24.1433 186.114 24.7715 186.766 26.1757C188.167 25.0728 188.47 26.0869 188.139 26.6031C190.796 25.8165 194.729 29.3685 193.18 31.6073C195.584 32.4685 194.229 32.9474 193.491 33.0179C196.711 34.9402 196.51 39.3067 194.366 40.1969C195.928 41.584 195.231 43.8067 192.91 44.3604C193.5 45.4824 192.644 45.3286 192.132 45.2816C193.981 46.8898 195.279 49.3583 191.68 51.4658" fill="#D46E03"/>
<path d="M189.529 50.8387L176.758 51.0793C176.758 51.0793 179.563 48.2137 183.09 48.1473C186.616 48.0809 189.529 50.8387 189.529 50.8387Z" fill="#D1E6CF"/>
<path d="M182.899 48.1602C179.464 48.3239 176.758 51.0794 176.758 51.0794L189.529 50.8387C189.203 50.5456 188.859 50.2737 188.499 50.0249C185.782 50.5575 183.757 49.6845 182.899 48.1602Z" fill="#99DAD0"/>
<path d="M184.244 48.9432C184.028 49.4446 183.63 49.847 183.131 50.0711C182.692 49.7833 182.305 49.4242 181.986 49.0088C181.807 48.688 181.925 45.8118 181.925 45.8118L184.184 45.7693C184.184 45.7693 184.326 48.7259 184.244 48.9432Z" fill="#F4D9BF"/>
<path d="M184.261 47.8695C184.24 46.946 184.184 45.7693 184.184 45.7693L181.924 45.8118C181.924 45.8118 181.875 47.0319 181.889 47.9717C182.66 47.7487 183.474 47.7137 184.261 47.8695Z" fill="#D2AD8D"/>
<path d="M190.588 38.1347C190.548 38.1354 190.509 38.1446 190.47 38.1488C190.149 36.3493 189.194 34.7229 187.778 33.562C186.361 32.4012 184.575 31.782 182.742 31.8159C180.908 31.8497 179.147 32.5344 177.774 33.7467C176.402 34.9591 175.508 36.6196 175.254 38.4297C175.234 38.4291 175.215 38.4243 175.194 38.4247C174.83 38.432 174.484 38.583 174.231 38.8446C173.979 39.1061 173.841 39.4568 173.848 39.8196C173.855 40.1824 174.006 40.5276 174.268 40.7795C174.53 41.0313 174.882 41.1692 175.246 41.1628C175.282 41.1621 175.315 41.1536 175.35 41.1503C175.733 42.887 176.707 44.4379 178.108 45.5389C179.509 46.64 181.25 47.223 183.033 47.1887C184.817 47.1544 186.534 46.5049 187.891 45.3508C189.248 44.1968 190.162 42.6095 190.477 40.8594C190.531 40.8671 190.585 40.8715 190.64 40.8727C190.821 40.8695 190.999 40.8309 191.164 40.759C191.33 40.6872 191.48 40.5835 191.605 40.454C191.73 40.3244 191.829 40.1715 191.895 40.004C191.961 39.8365 191.993 39.6577 191.99 39.4778C191.986 39.2978 191.947 39.1204 191.875 38.9555C191.803 38.7906 191.698 38.6415 191.568 38.5167C191.438 38.392 191.285 38.2941 191.116 38.2285C190.948 38.1629 190.769 38.1311 190.588 38.1347Z" fill="#F4D9BF"/>
<path d="M190.643 40.8727C190.823 40.8695 191.001 40.8309 191.167 40.759C191.333 40.6872 191.482 40.5835 191.608 40.454C191.733 40.3244 191.831 40.1715 191.897 40.004C191.963 39.8365 191.996 39.6577 191.992 39.4777C191.989 39.2978 191.95 39.1203 191.878 38.9554C191.805 38.7905 191.701 38.6415 191.571 38.5167C191.441 38.392 191.287 38.294 191.119 38.2285C190.951 38.1629 190.771 38.131 190.591 38.1346C190.55 38.1354 190.512 38.1446 190.473 38.1488C190.181 36.5064 189.359 35.0036 188.134 33.8679C186.908 32.7322 185.344 32.0255 183.679 31.8548C182.014 31.684 180.339 32.0587 178.907 32.9218C177.475 33.785 176.364 35.0898 175.742 36.6385C182.597 36.0178 187.974 39.313 190.117 42.18C190.277 41.7515 190.399 41.3096 190.48 40.8594C190.534 40.8671 190.588 40.8715 190.643 40.8727Z" fill="#D2AD8D"/>
<path d="M175.385 37.7323C176.214 37.7787 178.44 36.8143 177.923 35.29C179.23 36.4595 180.327 35.8409 181.82 33.9579C183.758 35.411 186.023 34.9151 186.181 32.6171C185.699 35.2097 187.238 35.7769 188.082 34.7011C188.414 36.1877 189.264 37.5092 190.479 38.4318L191.399 38.4462C191.399 38.4462 192.004 36.9719 191.367 32.2326C190.885 28.6491 188.613 27.6693 187.688 27.9517C186.516 25.7216 178.328 25.0809 175.555 29.5715C173.128 33.5006 174.016 37.7732 174.276 38.7799C174.376 38.6738 174.513 38.609 174.658 38.5983C174.804 38.5877 174.949 38.6319 175.063 38.7222C175.239 38.4184 175.349 38.0811 175.385 37.7323Z" fill="#D46E03"/>
<path d="M190.231 37.7094C190.168 38.6525 190.489 40.5085 190.615 40.1994C190.703 39.5675 190.735 38.9292 190.711 38.2917" fill="#D46E03"/>
<path d="M175.305 37.9906C175.404 38.9307 175.153 40.7975 175.016 40.4934C174.904 39.8653 174.848 39.2286 174.848 38.5907" fill="#D46E03"/>
<path d="M183.162 49.8399C182.68 49.5271 182.26 49.1291 181.922 48.6657C181.925 48.7828 181.947 48.8985 181.987 49.0088C182.306 49.4242 182.693 49.7833 183.132 50.0711C183.632 49.8469 184.029 49.4445 184.246 48.9431C184.265 48.8353 184.273 48.7258 184.269 48.6163C184.024 49.1207 183.64 49.5452 183.162 49.8399Z" fill="#D2AD8D"/>
</g>
<path d="M189.429 192.129C195.286 188.591 197.157 180.992 193.607 175.154C190.058 169.317 182.432 167.453 176.575 170.99C170.717 174.528 168.846 182.127 172.396 187.964C175.945 193.802 183.571 195.666 189.429 192.129Z" fill="white"/>
<mask id="mask3_955_38105" style="mask-type:alpha" maskUnits="userSpaceOnUse" x="170" y="169" width="26" height="25">
<path d="M189.429 192.129C195.286 188.591 197.157 180.992 193.607 175.154C190.058 169.317 182.432 167.453 176.575 170.99C170.717 174.528 168.846 182.127 172.396 187.964C175.945 193.802 183.571 195.666 189.429 192.129Z" fill="white"/>
</mask>
<g mask="url(#mask3_955_38105)">
<path d="M189.029 194H177.133C177.133 194 179.796 191.381 183.081 191.381C186.366 191.381 189.029 194 189.029 194Z" fill="#3958A4"/>
<path d="M182.903 191.389C179.701 191.482 177.133 194 177.133 194H189.029C188.731 193.721 188.416 193.462 188.084 193.224C185.545 193.672 183.675 192.824 182.903 191.389Z" fill="#2A3F75"/>
<path d="M184.141 192.142C183.93 192.605 183.553 192.973 183.084 193.173C182.68 192.897 182.326 192.556 182.036 192.164C181.876 191.862 182.036 189.186 182.036 189.186H184.141C184.141 189.186 184.221 191.941 184.141 192.142Z" fill="#DEAC72"/>
<path d="M184.175 191.143C184.172 190.282 184.14 189.186 184.14 189.186H182.036C182.036 189.186 181.968 190.321 181.965 191.196C182.687 191.002 183.445 190.984 184.175 191.143Z" fill="#BC855D"/>
<path d="M190.241 182.189C190.203 182.189 190.167 182.197 190.13 182.2C189.863 180.519 189.003 178.987 187.704 177.881C186.406 176.776 184.754 176.168 183.046 176.167C181.338 176.166 179.685 176.773 178.386 177.878C177.086 178.983 176.225 180.513 175.957 182.194C175.938 182.194 175.92 182.189 175.901 182.189C175.561 182.189 175.236 182.323 174.996 182.562C174.756 182.801 174.621 183.126 174.621 183.464C174.621 183.802 174.756 184.127 174.996 184.366C175.236 184.605 175.561 184.739 175.901 184.739C175.934 184.739 175.965 184.732 175.998 184.729C176.323 186.353 177.204 187.815 178.489 188.865C179.774 189.914 181.384 190.488 183.046 190.487C184.707 190.487 186.318 189.912 187.602 188.861C188.886 187.81 189.765 186.348 190.089 184.724C190.139 184.732 190.19 184.737 190.241 184.739C190.58 184.739 190.906 184.605 191.146 184.366C191.386 184.127 191.52 183.802 191.52 183.464C191.52 183.126 191.386 182.801 191.146 182.562C190.906 182.323 190.58 182.189 190.241 182.189Z" fill="#DEAC72"/>
<path d="M190.242 184.739C190.581 184.739 190.907 184.605 191.147 184.366C191.387 184.126 191.522 183.802 191.522 183.464C191.522 183.126 191.387 182.801 191.147 182.562C190.907 182.323 190.581 182.189 190.242 182.189C190.204 182.189 190.168 182.197 190.131 182.2C189.889 180.665 189.151 179.251 188.029 178.172C186.908 177.093 185.464 176.408 183.917 176.22C182.369 176.031 180.803 176.351 179.454 177.13C178.105 177.908 177.047 179.104 176.441 180.535C182.835 180.077 187.785 183.24 189.729 185.947C189.886 185.551 190.007 185.142 190.09 184.724C190.14 184.732 190.191 184.737 190.242 184.739Z" fill="#BC855D"/>
<path d="M183.118 192.958C182.675 192.658 182.291 192.28 181.984 191.843C181.986 191.952 182.004 192.06 182.039 192.164C182.329 192.556 182.683 192.897 183.086 193.173C183.556 192.973 183.933 192.605 184.143 192.142C184.163 192.042 184.173 191.94 184.171 191.838C183.934 192.304 183.569 192.692 183.118 192.958Z" fill="#BC855D"/>
<path d="M191.068 176.706C190.683 173.361 188.584 172.409 187.718 172.655C186.665 170.558 179.052 169.818 176.39 173.951C173.729 178.084 175.09 182.71 175.09 182.71C175.525 185.111 176.313 187.435 177.429 189.606C179.046 191.12 185.511 192.34 188.989 189.46C190.211 187.333 190.897 184.942 190.988 182.493C190.988 182.493 191.577 181.131 191.068 176.706ZM180.833 189.375C181.139 188.977 181.525 188.648 181.967 188.409C182.409 188.17 182.896 188.027 183.397 187.987H183.44C183.955 188.019 184.456 188.163 184.909 188.409C185.362 188.655 185.755 188.997 186.061 189.411C184.441 189.874 182.544 189.681 180.833 189.375H180.833ZM188.842 187.166C188.474 187.805 187.977 188.361 187.383 188.8C186.288 187.365 184.896 186.575 183.441 186.575C183.419 186.575 183.396 186.575 183.373 186.575C181.906 186.6 180.508 187.428 179.398 188.902C178.624 188.535 177.907 188.016 177.723 187.508C177.723 187.508 176.011 185.482 176.165 181.599C176.937 181.656 177.553 180.854 178.495 179.317C180.525 179.541 185.784 180.196 187.965 178.947C188.248 180.337 189.016 181.583 190.132 182.463C190.415 183.632 189.283 186.482 188.842 187.166H188.842Z" fill="url(#paint0_linear_955_38105)"/>
</g>
<path d="M163.282 88.6073C173.16 78.7634 173.16 62.8033 163.282 52.9594C153.404 43.1154 137.389 43.1155 127.511 52.9594C117.633 62.8033 117.633 78.7634 127.511 88.6073C137.389 98.4512 153.404 98.4512 163.282 88.6073Z" fill="white"/>
<mask id="mask4_955_38105" style="mask-type:alpha" maskUnits="userSpaceOnUse" x="120" y="45" width="51" height="51">
<path d="M163.282 88.6073C173.16 78.7634 173.16 62.8033 163.282 52.9594C153.404 43.1154 137.389 43.1155 127.511 52.9594C117.633 62.8033 117.633 78.7634 127.511 88.6073C137.389 98.4512 153.404 98.4512 163.282 88.6073Z" fill="white"/>
</mask>
<g mask="url(#mask4_955_38105)">
<path d="M157.694 96.1577H133.43C133.43 96.1577 138.861 90.8156 145.562 90.8156C152.262 90.8156 157.694 96.1577 157.694 96.1577Z" fill="#EE76AB"/>
<path d="M145.199 90.8331C138.668 91.0212 133.43 96.1578 133.43 96.1578H157.694C157.086 95.5895 156.443 95.0608 155.767 94.5753C150.588 95.4897 146.774 93.7592 145.199 90.8331Z" fill="#C95F8E"/>
<path d="M147.723 92.3684C147.294 93.313 146.525 94.063 145.568 94.4708C145.568 94.4708 143.904 93.3022 143.431 92.4122C143.103 91.7965 143.431 86.3381 143.431 86.3381H147.723C147.723 86.3381 147.887 91.9587 147.723 92.3684Z" fill="#F4D9BF"/>
<path d="M147.794 90.3297C147.787 88.5751 147.722 86.3381 147.722 86.3381H143.43C143.43 86.3381 143.291 88.6537 143.285 90.4391C144.758 90.0432 146.304 90.0057 147.794 90.3297Z" fill="#D2AD8D"/>
<path d="M159.941 76.6016C163.697 79.3787 164.303 84.5104 161.637 88.7969C158.971 93.0834 160.607 95.8605 160.607 95.8605C160.607 95.8605 152.55 92.7815 154.004 85.2349C155.458 77.6883 159.941 76.6016 159.941 76.6016Z" fill="url(#paint1_linear_955_38105)"/>
<path d="M160.163 72.0668C160.086 72.0668 160.014 72.0828 159.938 72.0894C159.393 68.6601 157.639 65.5369 154.99 63.2814C152.342 61.0259 148.972 59.786 145.488 59.7847C142.004 59.7833 138.634 61.0206 135.984 63.2741C133.333 65.5276 131.576 68.6494 131.029 72.0783C130.99 72.0766 130.954 72.0668 130.915 72.0668C130.223 72.0668 129.559 72.3409 129.069 72.8287C128.58 73.3165 128.305 73.9781 128.305 74.6679C128.305 75.3578 128.58 76.0194 129.069 76.5072C129.559 76.995 130.223 77.269 130.915 77.269C130.983 77.269 131.047 77.2542 131.113 77.2491C131.777 80.5613 133.572 83.5418 136.193 85.6831C138.814 87.8244 142.099 88.994 145.488 88.9927C148.877 88.9914 152.161 87.8192 154.781 85.6759C157.4 83.5326 159.193 80.5506 159.854 77.2379C159.956 77.2545 160.06 77.2649 160.163 77.269C160.856 77.269 161.52 76.995 162.009 76.5072C162.499 76.0194 162.774 75.3578 162.774 74.6679C162.774 73.9781 162.499 73.3165 162.009 72.8287C161.52 72.3409 160.856 72.0668 160.163 72.0668Z" fill="#F4D9BF"/>
<path d="M160.164 77.2691C160.856 77.2691 161.52 76.995 162.01 76.5072C162.499 76.0194 162.774 75.3578 162.774 74.668C162.774 73.9781 162.499 73.3165 162.01 72.8287C161.52 72.3409 160.856 72.0669 160.164 72.0669C160.087 72.0669 160.014 72.0828 159.939 72.0894C159.443 68.9596 157.938 66.0759 155.651 63.875C153.363 61.6741 150.419 60.2758 147.263 59.892C144.107 59.5082 140.911 60.1597 138.16 61.7479C135.409 63.3361 133.252 65.7745 132.016 68.6937C145.057 67.7603 155.152 74.2113 159.118 79.7333C159.438 78.9252 159.684 78.09 159.854 77.2379C159.957 77.2545 160.06 77.2649 160.164 77.2691Z" fill="#D2AD8D"/>
<path d="M131.3 70.7584C132.874 70.8762 134.289 69.3449 136.209 66.2105C135.451 69.1043 140.754 67.3428 143.658 63.82C143.405 67.4687 150.097 63.5683 151.99 61.4295C150.98 66.3363 153.884 67.4687 155.525 65.4556C156.103 68.2909 157.668 70.8313 159.944 72.6271L161.69 72.6873C161.69 72.6873 162.893 69.9089 161.854 60.8847C161.068 54.0613 156.788 52.1191 155.02 52.6224C152.874 48.3446 137.345 46.8348 131.916 55.2645C127.166 62.6404 128.699 70.787 129.156 72.7084C129.35 72.5105 129.612 72.3923 129.889 72.3772C130.166 72.3622 130.439 72.4514 130.654 72.6271C130.998 72.0562 131.219 71.4196 131.3 70.7584Z" fill="url(#paint2_linear_955_38105)"/>
<path d="M159.499 71.2462C159.346 73.0354 159.889 76.572 160.14 75.9895C160.39 75.407 160.39 72.3696 160.39 72.3696" fill="url(#paint3_linear_955_38105)"/>
<path d="M131.137 71.2462C131.29 73.0354 130.747 76.572 130.497 75.9895C130.246 75.407 130.246 72.3696 130.246 72.3696" fill="#67300C"/>
<path d="M145.633 94.0328C144.73 93.4214 143.946 92.6505 143.32 91.7582C143.323 91.9807 143.36 92.2013 143.431 92.4122C143.905 93.3022 145.568 94.4707 145.568 94.4707C146.525 94.063 147.294 93.313 147.724 92.3683C147.764 92.1642 147.783 91.9565 147.781 91.7484C147.297 92.6977 146.552 93.4901 145.633 94.0328Z" fill="#D2AD8D"/>
</g>
<path d="M244.539 150.245C246.807 136.508 237.471 123.541 223.687 121.281C209.902 119.021 196.89 128.325 194.622 142.061C192.354 155.798 201.69 168.766 215.474 171.026C229.259 173.286 242.271 163.982 244.539 150.245Z" fill="white"/>
<mask id="mask5_955_38105" style="mask-type:alpha" maskUnits="userSpaceOnUse" x="194" y="120" width="51" height="52">
<path d="M244.539 150.245C246.807 136.508 237.471 123.541 223.687 121.281C209.902 119.021 196.89 128.325 194.622 142.061C192.354 155.798 201.69 168.766 215.474 171.026C229.259 173.286 242.271 163.982 244.539 150.245Z" fill="white"/>
</mask>
<g mask="url(#mask5_955_38105)">
<path d="M231.881 171.528H207.617C207.617 171.528 213.049 166.186 219.749 166.186C226.45 166.186 231.881 171.528 231.881 171.528Z" fill="#3958A4"/>
<path d="M219.387 166.203C212.856 166.391 207.617 171.528 207.617 171.528H231.881C231.274 170.959 230.63 170.431 229.955 169.945C224.775 170.86 220.961 169.129 219.387 166.203Z" fill="#2A3F75"/>
<path d="M221.911 167.738C221.481 168.683 220.712 169.433 219.755 169.841C219.755 169.841 218.092 168.672 217.618 167.782C217.291 167.167 217.618 161.708 217.618 161.708H221.911C221.911 161.708 222.074 167.329 221.911 167.738Z" fill="#F4D9BF"/>
<path d="M221.982 165.7C221.975 163.945 221.91 161.708 221.91 161.708H217.617C217.617 161.708 217.479 164.024 217.473 165.809C218.945 165.413 220.492 165.376 221.982 165.7Z" fill="#D2AD8D"/>
<path d="M234.351 147.437C234.274 147.437 234.201 147.453 234.126 147.459C233.581 144.03 231.826 140.907 229.178 138.652C226.529 136.396 223.16 135.156 219.676 135.155C216.192 135.153 212.821 136.391 210.171 138.644C207.521 140.898 205.764 144.02 205.216 147.448C205.178 147.447 205.141 147.437 205.102 147.437C204.41 147.437 203.746 147.711 203.257 148.199C202.767 148.687 202.492 149.348 202.492 150.038C202.492 150.728 202.767 151.389 203.257 151.877C203.746 152.365 204.41 152.639 205.102 152.639C205.17 152.639 205.234 152.624 205.301 152.619C205.964 155.931 207.759 158.912 210.38 161.053C213.002 163.195 216.286 164.364 219.676 164.363C223.065 164.362 226.349 163.189 228.968 161.046C231.588 158.903 233.381 155.921 234.041 152.608C234.144 152.625 234.247 152.635 234.351 152.639C235.043 152.639 235.707 152.365 236.196 151.877C236.686 151.389 236.961 150.728 236.961 150.038C236.961 149.348 236.686 148.687 236.196 148.199C235.707 147.711 235.043 147.437 234.351 147.437Z" fill="#F4D9BF"/>
<path d="M234.351 152.639C235.044 152.639 235.708 152.365 236.197 151.877C236.687 151.389 236.962 150.728 236.962 150.038C236.962 149.348 236.687 148.686 236.197 148.199C235.708 147.711 235.044 147.437 234.351 147.437C234.274 147.437 234.202 147.453 234.126 147.459C233.631 144.33 232.125 141.446 229.838 139.245C227.551 137.044 224.606 135.646 221.45 135.262C218.294 134.878 215.099 135.53 212.347 137.118C209.596 138.706 207.439 141.144 206.203 144.064C219.245 143.13 229.339 149.581 233.305 155.103C233.625 154.295 233.872 153.46 234.042 152.608C234.144 152.624 234.248 152.635 234.351 152.639Z" fill="#D2AD8D"/>
<path d="M205.645 146.233C207.218 146.351 208.476 144.715 210.396 141.58C209.639 144.474 214.942 142.713 217.845 139.19C217.593 142.839 224.284 138.938 226.178 136.799C225.168 141.706 228.072 142.839 229.713 140.826C230.29 143.661 231.856 146.201 234.132 147.997L235.878 148.057C235.878 148.057 237.08 145.279 236.041 136.255C235.255 129.431 230.975 127.489 229.208 127.992C227.062 123.715 211.533 122.205 206.104 130.634C200.675 139.064 203.453 148.5 203.453 148.5C203.72 148.608 204.015 148.626 204.293 148.551C204.571 148.475 204.816 148.311 204.991 148.083C205.335 147.518 205.558 146.888 205.645 146.233Z" fill="url(#paint4_linear_955_38105)"/>
<path d="M219.821 169.403C218.917 168.791 218.133 168.021 217.508 167.128C217.51 167.351 217.548 167.571 217.619 167.782C218.092 168.672 219.756 169.841 219.756 169.841C220.713 169.433 221.482 168.683 221.911 167.738C221.952 167.534 221.971 167.327 221.968 167.119C221.485 168.068 220.74 168.86 219.821 169.403Z" fill="#D2AD8D"/>
</g>
<path d="M238.189 89.3277C248.466 79.0859 248.466 62.4807 238.189 52.239C227.912 41.9972 211.249 41.9972 200.972 52.239C190.695 62.4807 190.695 79.0859 200.972 89.3277C211.249 99.5694 227.912 99.5694 238.189 89.3277Z" fill="white"/>
<mask id="mask6_955_38105" style="mask-type:alpha" maskUnits="userSpaceOnUse" x="193" y="44" width="53" height="54">
<path d="M238.189 89.3277C248.466 79.0859 248.466 62.4807 238.189 52.239C227.912 41.9972 211.249 41.9972 200.972 52.239C190.695 62.4807 190.695 79.0859 200.972 89.3277C211.249 99.5694 227.912 99.5694 238.189 89.3277Z" fill="white"/>
</mask>
<g mask="url(#mask6_955_38105)">
<path d="M232.374 97.1834H207.129C207.129 97.1834 212.78 91.6252 219.751 91.6252C226.722 91.6252 232.374 97.1834 232.374 97.1834Z" fill="#3958A4"/>
<path d="M219.374 91.6434C212.579 91.8392 207.129 97.1834 207.129 97.1834H232.374C231.742 96.592 231.072 96.042 230.369 95.5369C224.981 96.4882 221.012 94.6878 219.374 91.6434Z" fill="#2A3F75"/>
<path d="M222 93.2408C221.553 94.2236 220.753 95.004 219.757 95.4282C219.757 95.4282 218.027 94.2124 217.534 93.2864C217.194 92.6458 217.534 86.9668 217.534 86.9668H222C222 86.9668 222.17 92.8145 222 93.2408Z" fill="#DEAC72"/>
<path d="M222.074 91.1198C222.067 89.2943 221.999 86.9668 221.999 86.9668H217.533C217.533 86.9668 217.389 89.3759 217.383 91.2336C218.915 90.8217 220.524 90.7826 222.074 91.1198Z" fill="#BC855D"/>
<path d="M234.943 72.1188C234.863 72.1188 234.787 72.1355 234.709 72.1423C234.142 68.5744 232.317 65.3251 229.561 62.9784C226.805 60.6317 223.3 59.3417 219.675 59.3403C216.05 59.3389 212.544 60.6262 209.786 62.9708C207.029 65.3153 205.201 68.5633 204.631 72.1307C204.591 72.129 204.553 72.1188 204.512 72.1188C203.792 72.1188 203.102 72.404 202.592 72.9115C202.083 73.419 201.797 74.1073 201.797 74.825C201.797 75.5428 202.083 76.2311 202.592 76.7386C203.102 77.2461 203.792 77.5312 204.512 77.5312C204.583 77.5312 204.65 77.5158 204.719 77.5105C205.409 80.9566 207.277 84.0576 210.004 86.2855C212.731 88.5133 216.149 89.7302 219.675 89.7288C223.201 89.7274 226.618 88.5079 229.343 86.2779C232.068 84.048 233.934 80.9455 234.621 77.4989C234.728 77.5161 234.835 77.5269 234.943 77.5312C235.663 77.5312 236.354 77.2461 236.863 76.7386C237.373 76.2311 237.659 75.5428 237.659 74.825C237.659 74.1073 237.373 73.419 236.863 72.9115C236.354 72.404 235.663 72.1188 234.943 72.1188Z" fill="#DEAC72"/>
<path d="M234.946 77.5312C235.666 77.5312 236.357 77.2461 236.866 76.7385C237.376 76.231 237.662 75.5427 237.662 74.825C237.662 74.1073 237.376 73.4189 236.866 72.9114C236.357 72.4039 235.666 72.1188 234.946 72.1188C234.866 72.1188 234.79 72.1354 234.712 72.1423C234.196 68.886 232.63 65.8857 230.251 63.5958C227.871 61.306 224.807 59.8512 221.524 59.4519C218.24 59.0526 214.915 59.7304 212.053 61.3828C209.19 63.0352 206.946 65.5721 205.66 68.6093C219.229 67.6381 229.732 74.3498 233.857 80.095C234.191 79.2542 234.447 78.3854 234.624 77.4988C234.731 77.5161 234.838 77.5269 234.946 77.5312Z" fill="#BC855D"/>
<path d="M236.533 72.7643C236.533 72.7643 237.783 69.8736 236.702 60.4847C235.885 53.3855 231.432 51.3648 229.593 51.8884C227.36 47.4377 211.203 45.8669 205.555 54.6373C199.907 63.4076 202.797 73.2253 202.797 73.2253C203.357 77.1211 203.152 82.6334 200.898 83.8584C204.176 85.5938 207.966 84.2668 207.966 84.2668C207.966 84.2668 204.75 79.1076 205.078 70.8666C206.714 70.9891 208.023 69.2868 210.021 66.0257C209.233 69.0364 214.75 67.2038 217.771 63.5386C217.508 67.3347 224.47 63.2768 226.44 61.0515C225.389 66.1566 228.411 67.3347 230.118 65.2403C230.719 68.1903 232.347 70.8333 234.716 72.7017C235.316 75.1815 233.165 82.2251 231.526 84.0625C235.214 85.4917 238.594 83.348 238.594 83.348C238.594 83.348 236.11 81.6781 236.533 72.7643Z" fill="url(#paint5_linear_955_38105)"/>
<path d="M219.828 94.9726C218.888 94.3364 218.073 93.5344 217.422 92.6061C217.424 92.8375 217.463 93.0671 217.537 93.2865C218.03 94.2124 219.761 95.4281 219.761 95.4281C220.756 95.004 221.556 94.2236 222.003 93.2408C222.046 93.0284 222.065 92.8123 222.063 92.5958C221.56 93.5835 220.784 94.4079 219.828 94.9726Z" fill="#BC855D"/>
<path d="M216.898 89.482C217.402 90.5843 218.162 91.5514 219.114 92.3037C219.32 91.8538 219.484 91.404 219.484 91.404L219.976 93.2033C220.275 92.6548 220.522 92.0798 220.715 91.4858C220.901 91.7778 220.987 92.1221 220.961 92.4672C220.961 92.4672 222.233 91.5267 222.848 89.1549C221.864 88.746 220.345 88.4188 219.894 88.0099C218.868 89.2367 216.898 89.482 216.898 89.482Z" fill="url(#paint6_linear_955_38105)"/>
</g>
<path d="M170.09 151.608C173.112 138.016 164.507 124.556 150.868 121.544C137.23 118.531 123.723 127.107 120.7 140.699C117.677 154.29 126.283 167.751 139.921 170.763C153.56 173.775 167.067 165.199 170.09 151.608Z" fill="white"/>
<mask id="mask7_955_38105" style="mask-type:alpha" maskUnits="userSpaceOnUse" x="120" y="120" width="51" height="52">
<path d="M170.09 151.608C173.112 138.016 164.507 124.556 150.868 121.544C137.23 118.531 123.723 127.107 120.7 140.699C117.677 154.29 126.283 167.751 139.921 170.763C153.56 173.775 167.067 165.199 170.09 151.608Z" fill="white"/>
</mask>
<g mask="url(#mask7_955_38105)">
<path d="M126.656 172.918H164.079C162.544 163.796 161.753 154.566 161.714 145.317C161.714 130.521 129.021 127.818 129.021 145.317C129.021 162.817 126.656 172.918 126.656 172.918Z" fill="url(#paint7_linear_955_38105)"/>
<path d="M157.694 171.528H133.43C133.43 171.528 138.861 166.186 145.562 166.186C152.262 166.186 157.694 171.528 157.694 171.528Z" fill="#B4B4B4"/>
<path d="M145.199 166.203C138.668 166.391 133.43 171.528 133.43 171.528H157.694C157.086 170.959 156.443 170.431 155.767 169.945C150.588 170.86 146.774 169.129 145.199 166.203Z" fill="#878888"/>
<path d="M147.723 167.738C147.294 168.683 146.525 169.433 145.568 169.841C145.568 169.841 143.904 168.672 143.431 167.782C143.103 167.167 143.431 161.708 143.431 161.708H147.723C147.723 161.708 147.887 167.329 147.723 167.738Z" fill="#683914"/>
<path d="M147.794 165.7C147.787 163.945 147.722 161.708 147.722 161.708H143.43C143.43 161.708 143.291 164.024 143.285 165.809C144.758 165.413 146.304 165.376 147.794 165.7Z" fill="#542700"/>
<path d="M160.163 147.437C160.086 147.437 160.014 147.453 159.938 147.459C159.393 144.03 157.639 140.907 154.99 138.652C152.342 136.396 148.972 135.156 145.488 135.155C142.004 135.153 138.634 136.391 135.984 138.644C133.333 140.898 131.576 144.02 131.029 147.448C130.99 147.447 130.954 147.437 130.915 147.437C130.223 147.437 129.559 147.711 129.069 148.199C128.58 148.687 128.305 149.348 128.305 150.038C128.305 150.728 128.58 151.389 129.069 151.877C129.559 152.365 130.223 152.639 130.915 152.639C130.983 152.639 131.047 152.624 131.113 152.619C131.777 155.931 133.572 158.912 136.193 161.053C138.814 163.195 142.099 164.364 145.488 164.363C148.877 164.362 152.161 163.189 154.781 161.046C157.4 158.903 159.193 155.921 159.854 152.608C159.956 152.625 160.06 152.635 160.163 152.639C160.856 152.639 161.52 152.365 162.009 151.877C162.499 151.389 162.774 150.728 162.774 150.038C162.774 149.348 162.499 148.687 162.009 148.199C161.52 147.711 160.856 147.437 160.163 147.437Z" fill="#683914"/>
<path d="M160.164 152.639C160.856 152.639 161.52 152.365 162.01 151.877C162.499 151.389 162.774 150.728 162.774 150.038C162.774 149.348 162.499 148.686 162.01 148.199C161.52 147.711 160.856 147.437 160.164 147.437C160.087 147.437 160.014 147.453 159.939 147.459C159.443 144.33 157.938 141.446 155.651 139.245C153.363 137.044 150.419 135.646 147.263 135.262C144.107 134.878 140.911 135.53 138.16 137.118C135.409 138.706 133.252 141.144 132.016 144.064C145.057 143.13 155.152 149.581 159.118 155.103C159.438 154.295 159.684 153.46 159.854 152.608C159.957 152.624 160.06 152.635 160.164 152.639Z" fill="#542700"/>
<path d="M131.3 146.128C145.011 145.602 150.097 138.938 151.99 136.799C150.98 141.706 153.884 142.839 155.525 140.826C156.103 143.661 157.668 146.201 159.944 147.997L161.69 148.057C161.69 148.057 162.893 145.279 161.854 136.255C161.068 129.431 156.788 127.489 155.02 127.992C152.874 123.715 137.345 122.205 131.916 130.634C126.488 139.064 129.265 148.5 129.265 148.5C129.52 148.582 129.794 148.576 130.046 148.485C130.297 148.394 130.511 148.223 130.654 147.997C130.998 147.426 131.219 146.79 131.3 146.128Z" fill="url(#paint8_linear_955_38105)"/>
<path d="M159.499 146.616C159.346 148.405 159.889 151.942 160.14 151.359C160.39 150.777 160.39 147.74 160.39 147.74" fill="url(#paint9_linear_955_38105)"/>
<path d="M131.137 146.616C131.29 148.405 130.747 151.942 130.497 151.359C130.246 150.777 130.246 147.74 130.246 147.74" fill="url(#paint10_linear_955_38105)"/>
<path d="M145.633 169.403C144.73 168.791 143.946 168.021 143.32 167.128C143.323 167.351 143.36 167.571 143.431 167.782C143.905 168.672 145.568 169.841 145.568 169.841C146.525 169.433 147.294 168.683 147.724 167.738C147.764 167.534 147.783 167.327 147.781 167.119C147.297 168.068 146.552 168.86 145.633 169.403Z" fill="#542700"/>
</g>
</g>
<path fill-rule="evenodd" clip-rule="evenodd" d="M3 216.793C4.07251 227.539 14.728 236 27.84 236H337.934C351.053 236 361.701 227.539 362.779 216.793H3Z" fill="#EFEFEF"/>
<path fill-rule="evenodd" clip-rule="evenodd" d="M135.461 223.201H230.316V216.792H135.461V223.201Z" fill="#CCCCCC"/>
</g>
</g>
<path d="M108.5 112.668L108.384 113C104.993 111.791 103.183 107.998 104.359 104.502C105.535 101.006 109.226 99.1685 112.617 100.366C115.201 101.278 116.954 103.755 117 106.564H116.642C116.123 103.412 113.217 101.302 110.149 101.835C107.081 102.369 105.028 105.367 105.559 108.52C105.847 110.298 106.943 111.827 108.5 112.668Z" fill="url(#paint11_linear_955_38105)"/>
<path d="M116.109 100.271L116.227 100C121.229 102.333 123.393 108.259 121.063 113.243C118.734 118.226 112.775 120.394 107.773 118.061C103.966 116.294 101.672 112.336 102.038 108.165L102.358 108.2C102.618 113.101 106.815 116.848 111.734 116.589C116.653 116.33 120.413 112.147 120.153 107.246C119.999 104.406 118.497 101.826 116.109 100.271Z" fill="url(#paint12_linear_955_38105)"/>
</g>
<defs>
<filter id="filter0_d_955_38105" x="0" y="0.300659" width="365.777" height="240.699" filterUnits="userSpaceOnUse" color-interpolation-filters="sRGB">
<feFlood flood-opacity="0" result="BackgroundImageFix"/>
<feColorMatrix in="SourceAlpha" type="matrix" values="0 0 0 0 0 0 0 0 0 0 0 0 0 0 0 0 0 0 127 0" result="hardAlpha"/>
<feOffset dy="2"/>
<feGaussianBlur stdDeviation="1.5"/>
<feColorMatrix type="matrix" values="0 0 0 0 0 0 0 0 0 0 0 0 0 0 0 0 0 0 0.15 0"/>
<feBlend mode="normal" in2="BackgroundImageFix" result="effect1_dropShadow_955_38105"/>
<feBlend mode="normal" in="SourceGraphic" in2="effect1_dropShadow_955_38105" result="shape"/>
</filter>
<linearGradient id="paint0_linear_955_38105" x1="175.462" y1="187.065" x2="190.972" y2="175.056" gradientUnits="userSpaceOnUse">
<stop stop-color="#210800"/>
<stop offset="1" stop-color="#4B211C"/>
</linearGradient>
<linearGradient id="paint1_linear_955_38105" x1="158.272" y1="84.4955" x2="160.766" y2="89.9702" gradientUnits="userSpaceOnUse">
<stop stop-color="#67300C"/>
<stop offset="1" stop-color="#834617"/>
</linearGradient>
<linearGradient id="paint2_linear_955_38105" x1="134.573" y1="72.9721" x2="160.141" y2="53.1744" gradientUnits="userSpaceOnUse">
<stop stop-color="#67300C"/>
<stop offset="1" stop-color="#834617"/>
</linearGradient>
<linearGradient id="paint3_linear_955_38105" x1="134.655" y1="89.3781" x2="170.88" y2="66.5567" gradientUnits="userSpaceOnUse">
<stop stop-color="#67300C"/>
<stop offset="1" stop-color="#834617"/>
</linearGradient>
<linearGradient id="paint4_linear_955_38105" x1="208.64" y1="148.435" x2="234.334" y2="128.54" gradientUnits="userSpaceOnUse">
<stop stop-color="#210800"/>
<stop offset="1" stop-color="#4B211C"/>
</linearGradient>
<linearGradient id="paint5_linear_955_38105" x1="205.544" y1="81.279" x2="238.129" y2="56.0483" gradientUnits="userSpaceOnUse">
<stop stop-color="#210800"/>
<stop offset="1" stop-color="#4B211C"/>
</linearGradient>
<linearGradient id="paint6_linear_955_38105" x1="218.698" y1="91.1528" x2="222.428" y2="88.2644" gradientUnits="userSpaceOnUse">
<stop stop-color="#210800"/>
<stop offset="1" stop-color="#4B211C"/>
</linearGradient>
<linearGradient id="paint7_linear_955_38105" x1="131.776" y1="169.708" x2="173.05" y2="132.718" gradientUnits="userSpaceOnUse">
<stop stop-color="#210800"/>
<stop offset="1" stop-color="#4B211C"/>
</linearGradient>
<linearGradient id="paint8_linear_955_38105" x1="123.173" y1="160.108" x2="164.447" y2="123.118" gradientUnits="userSpaceOnUse">
<stop stop-color="#210800"/>
<stop offset="1" stop-color="#4B211C"/>
</linearGradient>
<linearGradient id="paint9_linear_955_38105" x1="133.894" y1="172.074" x2="175.168" y2="135.084" gradientUnits="userSpaceOnUse">
<stop stop-color="#210800"/>
<stop offset="1" stop-color="#4B211C"/>
</linearGradient>
<linearGradient id="paint10_linear_955_38105" x1="121.053" y1="157.744" x2="162.327" y2="120.754" gradientUnits="userSpaceOnUse">
<stop stop-color="#210800"/>
<stop offset="1" stop-color="#4B211C"/>
</linearGradient>
<linearGradient id="paint11_linear_955_38105" x1="110.502" y1="99.9958" x2="110.502" y2="112.994" gradientUnits="userSpaceOnUse">
<stop stop-color="#7A5FFF"/>
<stop offset="0.609375" stop-color="#927FF1"/>
<stop offset="1" stop-color="#01FF89"/>
</linearGradient>
<linearGradient id="paint12_linear_955_38105" x1="112" y1="100.011" x2="112" y2="119.004" gradientUnits="userSpaceOnUse">
<stop stop-color="#7A5FFF"/>
<stop offset="1" stop-color="#01FF89"/>
</linearGradient>
<clipPath id="clip0_955_38105">
<rect width="366" height="241" fill="white"/>
</clipPath>
<clipPath id="clip1_955_38105">
<rect width="170" height="172" fill="white" transform="translate(98 22)"/>
</clipPath>
</defs>
</svg>
