<svg width="307" height="243" viewBox="0 0 307 243" fill="none" xmlns="http://www.w3.org/2000/svg">
<g filter="url(#filter0_d)">
<path d="M7.96265 101.69C7.96265 98.7012 10.3943 96.2558 13.3663 96.2558H138.64C141.612 96.2558 144.044 98.7012 144.044 101.69V233.199H148.006V98.2484C148.006 88.2856 139.901 80.1342 129.994 80.1342H22.012C12.1054 80.1342 4 88.2856 4 98.2484V233.199H7.96265V101.69ZM97.6627 85.7496C99.0136 85.7496 100.094 86.8364 100.094 88.195C100.094 89.5535 99.0136 90.6404 97.6627 90.6404C96.3118 90.6404 95.231 89.5535 95.231 88.195C95.231 86.8364 96.3118 85.7496 97.6627 85.7496ZM62.4491 85.7496H89.6473C90.9982 85.7496 92.0789 86.8364 92.0789 88.195C92.0789 89.5535 90.9982 90.6404 89.6473 90.6404H62.4491C61.0982 90.6404 60.0175 89.5535 60.0175 88.195C60.0175 86.8364 61.0982 85.7496 62.4491 85.7496ZM54.4337 85.7496C55.7846 85.7496 56.8654 86.8364 56.8654 88.195C56.8654 89.5535 55.7846 90.6404 54.4337 90.6404C53.0828 90.6404 52.0021 89.5535 52.0021 88.195C52.0021 86.8364 53.0828 85.7496 54.4337 85.7496Z" fill="white"/>
</g>
<path d="M138.924 96.2559H13.5602C10.5882 96.2559 8.15662 98.7013 8.15662 101.69V233.199H144.238V101.69C144.328 98.7013 141.896 96.2559 138.924 96.2559Z" fill="#191551"/>
<path d="M62.4491 90.6404H89.6473C90.9982 90.6404 92.0789 89.5535 92.0789 88.1949C92.0789 86.8364 90.9982 85.7495 89.6473 85.7495H62.4491C61.0982 85.7495 60.0175 86.8364 60.0175 88.1949C60.0175 89.5535 61.0982 90.6404 62.4491 90.6404Z" fill="#CCCCCC"/>
<path d="M54.4337 90.6404C55.7846 90.6404 56.8653 89.5535 56.8653 88.1949C56.8653 86.8364 55.7846 85.7495 54.4337 85.7495C53.0828 85.7495 52.0021 86.8364 52.0021 88.1949C52.0021 89.5535 53.0828 90.6404 54.4337 90.6404Z" fill="#CCCCCC"/>
<path d="M97.6626 90.6404C99.0135 90.6404 100.094 89.5535 100.094 88.1949C100.094 86.8364 99.0135 85.7495 97.6626 85.7495C96.3117 85.7495 95.231 86.8364 95.231 88.1949C95.231 89.5535 96.3117 90.6404 97.6626 90.6404Z" fill="#CCCCCC"/>
<path d="M64.478 154.015L64.1744 154.866C55.2477 151.768 50.4808 142.049 53.5778 133.089C56.6748 124.129 66.3909 119.421 75.3176 122.489C82.1189 124.827 86.734 131.175 86.8555 138.373H85.9142C84.5479 130.294 76.8964 124.888 68.8199 126.255C60.7434 127.622 55.3388 135.306 56.7355 143.385C57.4946 147.941 60.3791 151.859 64.478 154.015Z" fill="url(#paint0_linear)"/>
<path d="M84.9784 122.245L85.2872 121.552C98.3501 127.521 104.001 142.686 97.9178 155.44C91.8341 168.193 76.2698 173.74 63.207 167.771C53.2631 163.248 47.2721 153.118 48.2294 142.445L49.0632 142.536C49.7426 155.078 60.7056 164.665 73.5523 164.002C86.399 163.339 96.2193 152.636 95.5399 140.094C95.1384 132.828 91.2165 126.225 84.9784 122.245Z" fill="url(#paint1_linear)"/>
<path d="M48.2235 196.576C47.0902 197.71 45.7702 198.276 44.2635 198.276C43.3302 198.276 42.4502 198.09 41.6235 197.716C40.8102 197.343 40.0968 196.83 39.4835 196.176C38.8835 195.523 38.4035 194.756 38.0435 193.876C37.6968 192.983 37.5235 192.023 37.5235 190.996C37.5235 190.023 37.6968 189.11 38.0435 188.256C38.4035 187.39 38.8902 186.636 39.5035 185.996C40.1302 185.343 40.8635 184.83 41.7035 184.456C42.5435 184.07 43.4568 183.876 44.4435 183.876C45.7768 183.876 46.9168 184.156 47.8635 184.716C48.8235 185.276 49.5435 186.03 50.0235 186.976L47.9635 188.496C47.6035 187.79 47.0968 187.25 46.4435 186.876C45.8035 186.503 45.1035 186.316 44.3435 186.316C43.7435 186.316 43.1902 186.443 42.6835 186.696C42.1902 186.95 41.7635 187.296 41.4035 187.736C41.0568 188.176 40.7835 188.683 40.5835 189.256C40.3968 189.83 40.3035 190.436 40.3035 191.076C40.3035 191.743 40.4102 192.37 40.6235 192.956C40.8368 193.53 41.1302 194.03 41.5035 194.456C41.8768 194.883 42.3168 195.223 42.8235 195.476C43.3435 195.716 43.9035 195.836 44.5035 195.836C45.8768 195.836 47.1168 195.19 48.2235 193.896V192.896H45.3635V190.876H50.5035V198.176H48.2235V196.576ZM57.4557 198.376C56.6157 198.376 55.8557 198.236 55.1757 197.956C54.4957 197.663 53.9157 197.27 53.4357 196.776C52.9557 196.283 52.5824 195.71 52.3157 195.056C52.0624 194.403 51.9357 193.716 51.9357 192.996C51.9357 192.25 52.0624 191.55 52.3157 190.896C52.569 190.23 52.9357 189.65 53.4157 189.156C53.8957 188.65 54.4757 188.25 55.1557 187.956C55.849 187.663 56.6224 187.516 57.4757 187.516C58.329 187.516 59.089 187.663 59.7557 187.956C60.4357 188.25 61.009 188.643 61.4757 189.136C61.9557 189.63 62.3157 190.203 62.5557 190.856C62.809 191.51 62.9357 192.19 62.9357 192.896C62.9357 193.07 62.929 193.236 62.9157 193.396C62.9157 193.556 62.9024 193.69 62.8757 193.796H54.7757C54.8157 194.21 54.9157 194.576 55.0757 194.896C55.2357 195.216 55.4424 195.49 55.6957 195.716C55.949 195.943 56.2357 196.116 56.5557 196.236C56.8757 196.356 57.209 196.416 57.5557 196.416C58.089 196.416 58.589 196.29 59.0557 196.036C59.5357 195.77 59.8624 195.423 60.0357 194.996L62.3357 195.636C61.949 196.436 61.329 197.096 60.4757 197.616C59.6357 198.123 58.629 198.376 57.4557 198.376ZM60.1757 192.056C60.109 191.27 59.8157 190.643 59.2957 190.176C58.789 189.696 58.169 189.456 57.4357 189.456C57.0757 189.456 56.7357 189.523 56.4157 189.656C56.109 189.776 55.8357 189.95 55.5957 190.176C55.3557 190.403 55.1557 190.676 54.9957 190.996C54.849 191.316 54.7624 191.67 54.7357 192.056H60.1757ZM69.4084 198.376C68.555 198.376 67.7884 198.23 67.1084 197.936C66.4284 197.643 65.8484 197.25 65.3684 196.756C64.9017 196.25 64.5417 195.67 64.2884 195.016C64.035 194.363 63.9084 193.676 63.9084 192.956C63.9084 192.223 64.035 191.53 64.2884 190.876C64.5417 190.223 64.9017 189.65 65.3684 189.156C65.8484 188.65 66.4284 188.25 67.1084 187.956C67.7884 187.663 68.555 187.516 69.4084 187.516C70.2617 187.516 71.0217 187.663 71.6884 187.956C72.3684 188.25 72.9417 188.65 73.4084 189.156C73.8884 189.65 74.255 190.223 74.5084 190.876C74.7617 191.53 74.8884 192.223 74.8884 192.956C74.8884 193.676 74.7617 194.363 74.5084 195.016C74.255 195.67 73.895 196.25 73.4284 196.756C72.9617 197.25 72.3884 197.643 71.7084 197.936C71.0284 198.23 70.2617 198.376 69.4084 198.376ZM66.6684 192.956C66.6684 193.423 66.735 193.85 66.8684 194.236C67.015 194.61 67.2084 194.936 67.4484 195.216C67.7017 195.496 67.995 195.716 68.3284 195.876C68.6617 196.023 69.0217 196.096 69.4084 196.096C69.795 196.096 70.155 196.023 70.4884 195.876C70.8217 195.716 71.1084 195.496 71.3484 195.216C71.6017 194.936 71.795 194.603 71.9284 194.216C72.075 193.83 72.1484 193.403 72.1484 192.936C72.1484 192.483 72.075 192.063 71.9284 191.676C71.795 191.29 71.6017 190.956 71.3484 190.676C71.1084 190.396 70.8217 190.183 70.4884 190.036C70.155 189.876 69.795 189.796 69.4084 189.796C69.0217 189.796 68.6617 189.876 68.3284 190.036C67.995 190.196 67.7017 190.416 67.4484 190.696C67.2084 190.976 67.015 191.31 66.8684 191.696C66.735 192.083 66.6684 192.503 66.6684 192.956ZM85.3196 187.696C85.2263 187.603 85.0529 187.476 84.7996 187.316C84.5596 187.156 84.2596 187.003 83.8996 186.856C83.5529 186.696 83.1729 186.563 82.7596 186.456C82.3463 186.35 81.9263 186.296 81.4996 186.296C80.7396 186.296 80.1729 186.436 79.7996 186.716C79.4263 186.996 79.2396 187.39 79.2396 187.896C79.2396 188.19 79.3063 188.436 79.4396 188.636C79.5863 188.823 79.7929 188.99 80.0596 189.136C80.3263 189.283 80.6596 189.416 81.0596 189.536C81.4729 189.656 81.9463 189.783 82.4796 189.916C83.1729 190.103 83.7996 190.303 84.3596 190.516C84.9329 190.73 85.4129 190.996 85.7996 191.316C86.1996 191.636 86.5063 192.023 86.7196 192.476C86.9329 192.916 87.0396 193.463 87.0396 194.116C87.0396 194.876 86.8929 195.53 86.5996 196.076C86.3196 196.61 85.9329 197.043 85.4396 197.376C84.9596 197.71 84.3996 197.956 83.7596 198.116C83.1329 198.263 82.4729 198.336 81.7796 198.336C80.7129 198.336 79.6596 198.176 78.6196 197.856C77.5796 197.536 76.6463 197.083 75.8196 196.496L77.0396 194.116C77.1596 194.236 77.3729 194.396 77.6796 194.596C77.9996 194.783 78.3729 194.976 78.7996 195.176C79.2263 195.363 79.6996 195.523 80.2196 195.656C80.7396 195.79 81.2729 195.856 81.8196 195.856C83.3396 195.856 84.0996 195.37 84.0996 194.396C84.0996 194.09 84.0129 193.83 83.8396 193.616C83.6663 193.403 83.4196 193.216 83.0996 193.056C82.7796 192.896 82.3929 192.75 81.9396 192.616C81.4863 192.483 80.9796 192.336 80.4196 192.176C79.7396 191.99 79.1463 191.79 78.6396 191.576C78.1463 191.35 77.7329 191.09 77.3996 190.796C77.0663 190.49 76.8129 190.143 76.6396 189.756C76.4796 189.356 76.3996 188.883 76.3996 188.336C76.3996 187.616 76.5329 186.976 76.7996 186.416C77.0663 185.856 77.4329 185.39 77.8996 185.016C78.3796 184.643 78.9329 184.363 79.5596 184.176C80.1863 183.976 80.8596 183.876 81.5796 183.876C82.5796 183.876 83.4996 184.036 84.3396 184.356C85.1796 184.663 85.9129 185.03 86.5396 185.456L85.3196 187.696ZM92.0652 198.376C90.9852 198.376 90.1652 198.03 89.6052 197.336C89.0452 196.643 88.7652 195.616 88.7652 194.256V187.696H91.4452V193.676C91.4452 195.29 92.0252 196.096 93.1852 196.096C93.7052 196.096 94.2052 195.943 94.6852 195.636C95.1786 195.316 95.5786 194.836 95.8852 194.196V187.696H98.5652V195.096C98.5652 195.376 98.6119 195.576 98.7052 195.696C98.8119 195.816 98.9786 195.883 99.2052 195.896V198.176C98.9386 198.23 98.7119 198.263 98.5252 198.276C98.3519 198.29 98.1919 198.296 98.0452 198.296C97.5652 198.296 97.1719 198.19 96.8652 197.976C96.5719 197.75 96.3986 197.443 96.3452 197.056L96.2852 196.216C95.8186 196.936 95.2186 197.476 94.4852 197.836C93.7519 198.196 92.9452 198.376 92.0652 198.376ZM107.469 190.016C106.655 190.03 105.929 190.19 105.289 190.496C104.649 190.79 104.189 191.236 103.909 191.836V198.176H101.229V187.696H103.689V189.936C103.875 189.576 104.095 189.256 104.349 188.976C104.602 188.683 104.875 188.43 105.169 188.216C105.462 188.003 105.755 187.843 106.049 187.736C106.355 187.616 106.649 187.556 106.929 187.556C107.075 187.556 107.182 187.556 107.249 187.556C107.329 187.556 107.402 187.563 107.469 187.576V190.016ZM109.603 198.176V190.296H108.223V188.256H109.603V187.616C109.603 186.31 109.916 185.276 110.543 184.516C111.17 183.756 112.023 183.376 113.103 183.376C113.956 183.376 114.816 183.583 115.683 183.996L115.143 186.016C114.943 185.91 114.703 185.823 114.423 185.756C114.156 185.676 113.91 185.636 113.683 185.636C112.75 185.636 112.283 186.263 112.283 187.516V188.256H114.843V190.296H112.283V198.176H109.603Z" fill="white"/>
<g filter="url(#filter1_d)">
<path d="M87.5444 33.0947C87.5444 28.5059 91.283 24.7515 95.8524 24.7515H288.461C293.03 24.7515 296.769 28.5059 296.769 33.0947V235H302.862V27.8106C302.862 12.5148 290.399 0 275.168 0H109.145C93.9139 0 81.4518 12.5148 81.4518 27.8106V235H87.5444V33.0947ZM225.458 8.6213C227.535 8.6213 229.197 10.2899 229.197 12.3757C229.197 14.4615 227.535 16.1302 225.458 16.1302C223.381 16.1302 221.719 14.4615 221.719 12.3757C221.719 10.2899 223.381 8.6213 225.458 8.6213ZM171.317 8.6213H213.135C215.212 8.6213 216.873 10.2899 216.873 12.3757C216.873 14.4615 215.212 16.1302 213.135 16.1302H171.317C169.24 16.1302 167.579 14.4615 167.579 12.3757C167.579 10.2899 169.24 8.6213 171.317 8.6213ZM158.994 8.6213C161.071 8.6213 162.732 10.2899 162.732 12.3757C162.732 14.4615 161.071 16.1302 158.994 16.1302C156.917 16.1302 155.255 14.4615 155.255 12.3757C155.255 10.2899 156.917 8.6213 158.994 8.6213Z" fill="white"/>
</g>
<path d="M288.898 24.7515H96.1507C91.5813 24.7515 87.8427 28.5059 87.8427 33.0947V235H297.067V33.0947C297.206 28.5059 293.467 24.7515 288.898 24.7515Z" fill="#191551"/>
<mask id="mask0" mask-type="alpha" maskUnits="userSpaceOnUse" x="87" y="24" width="211" height="211">
<path d="M288.898 24.7515H96.1506C91.5812 24.7515 87.8425 28.5059 87.8425 33.0947V235H297.067V33.0947C297.206 28.5059 293.467 24.7515 288.898 24.7515Z" fill="#191551"/>
</mask>
<g mask="url(#mask0)">
<path d="M173.61 210.018C171.307 210.018 169.083 209.541 167.336 208.507L124.686 183.856C122.939 182.822 121.986 181.47 121.986 180.039C121.986 178.608 122.939 177.256 124.686 176.222L198.787 133.44C202.282 131.451 207.921 131.451 211.415 133.44L254.065 158.091C255.812 159.125 256.765 160.477 256.765 161.908C256.765 163.339 255.812 164.691 254.065 165.725L179.964 208.507C178.137 209.541 175.913 210.018 173.61 210.018ZM205.061 132.485C202.917 132.485 200.693 132.962 199.105 133.917L125.004 176.779C123.495 177.653 122.621 178.846 122.621 180.039C122.621 181.232 123.495 182.425 125.004 183.299L167.653 207.951C170.989 209.859 176.311 209.859 179.646 207.951L253.747 165.168C255.256 164.294 256.13 163.101 256.13 161.908C256.13 160.715 255.256 159.522 253.747 158.648L211.098 133.996C209.35 132.962 207.206 132.485 205.061 132.485Z" fill="#03A7D3"/>
<path d="M256.606 148.389V127.953L230.794 131.372L211.415 120.159C208 118.171 202.52 118.171 199.105 120.159L164.477 140.199L122.542 145.765V166.441V166.52C122.621 167.793 123.415 168.985 125.083 169.94L167.733 194.591C171.148 196.579 176.628 196.579 180.043 194.591L254.144 151.809C255.812 150.855 256.606 149.662 256.686 148.389H256.606Z" fill="url(#paint2_linear)"/>
<path d="M254.065 124.215L211.415 99.5635C208 97.5755 202.52 97.5755 199.105 99.5635L125.004 142.346C121.588 144.334 121.588 147.515 125.004 149.423L167.653 174.075C171.069 176.063 176.549 176.063 179.964 174.075L254.065 131.292C257.401 129.384 257.401 126.203 254.065 124.215Z" fill="url(#paint3_radial)"/>
<g clip-path="url(#clip0)">
<path opacity="0.5" d="M175.543 140.112C177.936 138.76 181.812 138.76 184.205 140.112C186.598 141.464 186.598 143.658 184.205 145.023C181.812 146.375 177.936 146.375 175.543 145.023C173.15 143.671 173.15 141.477 175.543 140.112ZM180.017 142.612C180.628 142.957 181.63 142.957 182.241 142.612C182.852 142.268 182.852 141.694 182.241 141.35C181.63 141.005 180.628 141.005 180.017 141.35C179.406 141.707 179.406 142.268 180.017 142.612Z" fill="#2C2C2C"/>
<path opacity="0.5" d="M174.242 143.939C174.567 144.245 174.958 144.551 175.426 144.806C175.894 145.074 176.414 145.291 176.974 145.482L175.803 146.145L174.034 146.235L173.163 146.732L173.514 146.924L172.85 147.293L172.135 146.885L170.978 147.536L172.135 148.199L171.277 148.684L170.444 149.156L169.417 148.569L167.895 149.436L168.48 149.768L167.505 150.329L166.919 149.998L166.464 150.253L166.932 151.158L165.45 152H160L174.242 143.939Z" fill="#2C2C2C"/>
<path d="M173.748 142.089V140.469L174.242 140.737C174.541 140.342 174.97 139.972 175.543 139.64C177.936 138.288 181.812 138.288 184.205 139.64C184.868 140.023 185.35 140.457 185.649 140.929L186 140.469V142.089C186 142.982 185.402 143.862 184.205 144.551C181.812 145.903 177.936 145.903 175.543 144.551C174.346 143.875 173.748 142.982 173.748 142.089ZM180.043 141.031C180.654 141.375 181.656 141.375 182.267 141.031C182.878 140.686 182.878 140.112 182.267 139.768C181.656 139.424 180.654 139.424 180.043 139.768C179.432 140.112 179.432 140.686 180.043 141.031Z" fill="#E8A200"/>
<path d="M180.381 143.378L183.035 142.102L185.376 140.571C185.48 140.686 185.558 140.801 185.636 140.929L186 140.469V142.089C186 142.982 185.402 143.862 184.205 144.551C183.139 145.15 181.773 145.482 180.381 145.559V143.378Z" fill="#FDD762"/>
<path d="M175.543 138.019C177.936 136.654 181.812 136.654 184.205 138.019C186.598 139.384 186.598 141.565 184.205 142.93C181.812 144.282 177.936 144.282 175.543 142.93C173.15 141.565 173.15 139.371 175.543 138.019ZM180.017 140.519C180.628 140.863 181.63 140.863 182.241 140.519C182.852 140.175 182.852 139.601 182.241 139.256C181.63 138.912 180.628 138.912 180.017 139.256C179.406 139.601 179.406 140.162 180.017 140.519Z" fill="#FDD762"/>
<path d="M178.82 138.875H182.15C182.449 138.939 182.748 139.028 183.035 139.13V141.898H178.82V138.875ZM180.043 141.031C180.654 141.375 181.656 141.375 182.267 141.031C182.878 140.686 182.878 140.112 182.267 139.768C181.656 139.423 180.654 139.423 180.043 139.768C179.432 140.112 179.432 140.686 180.043 141.031Z" fill="#E8A200"/>
<path d="M176.05 138.301C178.157 137.102 181.578 137.102 183.685 138.301C185.792 139.5 185.792 141.426 183.685 142.625C181.578 143.824 178.157 143.824 176.05 142.625C173.943 141.439 173.943 139.5 176.05 138.301ZM180.017 140.52C180.628 140.865 181.63 140.865 182.241 140.52C182.852 140.176 182.852 139.602 182.241 139.258C181.63 138.913 180.628 138.913 180.017 139.258C179.406 139.602 179.406 140.163 180.017 140.52Z" fill="#F2B42A"/>
<path d="M183.698 138.76C181.591 137.561 178.17 137.561 176.063 138.76C175.114 139.296 174.593 139.997 174.502 140.699C174.398 139.844 174.918 138.964 176.063 138.314C178.17 137.115 181.591 137.115 183.698 138.314C184.855 138.964 185.376 139.844 185.259 140.699C185.168 139.985 184.647 139.296 183.698 138.76Z" fill="#E8A200"/>
<path d="M174.242 143.454C174.567 143.76 174.958 144.066 175.426 144.322C175.894 144.589 176.414 144.806 176.974 144.998L175.803 145.661L174.034 145.75L173.163 146.248L173.514 146.439L172.863 146.822L172.148 146.413L170.991 147.064L172.148 147.727L171.29 148.212L170.457 148.684L169.43 148.097L167.908 148.964L168.493 149.296L167.518 149.857L166.932 149.526L166.477 149.781L166.945 150.686L165.463 151.528H160.013L174.242 143.454Z" fill="#F2B42A"/>
<path d="M174.242 142.281C174.567 142.587 174.958 142.893 175.426 143.148C175.894 143.416 176.414 143.633 176.974 143.824L175.803 144.487L174.034 144.577L173.163 145.074L173.514 145.265L172.85 145.635L172.135 145.227L170.978 145.878L172.135 146.541L171.277 147.026L170.444 147.497L169.417 146.911L167.895 147.778L168.48 148.11L167.505 148.671L166.919 148.339L166.464 148.594L166.932 149.5L165.45 150.342H160L174.242 142.281Z" fill="#FDD762"/>
<path d="M160 150.342H165.45V151.515H160V150.342Z" fill="#E8A200"/>
<path d="M167.518 149.844V148.671L166.932 148.339V149.513L167.518 149.844Z" fill="#E8A200"/>
<path d="M168.493 148.11V149.283L167.518 149.844V148.671L168.493 148.11Z" fill="#EEAD00"/>
<path d="M169.443 146.923V148.097L170.47 148.671V147.497L169.443 146.923Z" fill="#E8A200"/>
<path d="M172.148 146.554V147.727L170.47 148.671V147.497L172.148 146.554Z" fill="#EEAD00"/>
<path d="M166.932 149.513V150.674L165.45 151.515V150.342L166.932 149.513Z" fill="#EEAD00"/>
<path d="M172.863 145.648V146.821L173.514 146.439V145.265L172.863 145.648Z" fill="#EEAD00"/>
<path d="M175.803 144.487V145.661L174.034 145.75V144.577L175.803 144.487Z" fill="#E8A200"/>
<path d="M163.72 149.513L174.151 143.594L173.566 143.276L162.562 149.513H163.72Z" fill="#E8A200"/>
<path d="M173.566 143.556L163.057 149.513H162.562L173.566 143.276L174.151 143.594L173.904 143.747L173.566 143.556Z" fill="#F2B42A"/>
<path d="M175.803 145.661V144.487L176.974 143.824V144.998L175.803 145.661Z" fill="#E8A200"/>
<path d="M172.148 145.24V146.413L172.863 146.822V145.648L172.148 145.24Z" fill="#E8A200"/>
<path d="M176.05 138.301C177.234 137.638 178.833 137.344 180.381 137.421V137.867C178.833 137.778 177.234 138.084 176.05 138.747C175.101 139.283 174.58 139.985 174.489 140.686C174.372 139.844 174.892 138.964 176.05 138.301Z" fill="#FDD762"/>
</g>
<path d="M254.065 130.1L179.964 172.882C176.549 174.87 171.069 174.87 167.654 172.882L125.004 148.23C123.574 147.435 122.78 146.401 122.542 145.288C122.224 146.799 123.018 148.31 125.004 149.423L167.654 174.075C171.069 176.063 176.549 176.063 179.964 174.075L254.065 131.292C256.051 130.179 256.845 128.589 256.527 127.157C256.289 128.191 255.415 129.225 254.065 130.1Z" fill="white"/>
<path d="M204.982 168.111L202.917 169.304V166.997L204.982 165.805V168.111Z" fill="white"/>
<path d="M209.191 165.725L207.126 166.838V164.532L209.191 163.339V165.725Z" fill="white"/>
<path d="M213.401 163.26L211.415 164.453V162.067L213.401 160.954V163.26Z" fill="white"/>
<path d="M209.906 170.019L207.921 171.133V168.826L209.906 167.634V170.019Z" fill="white"/>
<path d="M213.639 167.872L211.653 168.985V166.679L213.639 165.487V167.872Z" fill="white"/>
<path d="M226.903 155.467L224.917 156.58V154.274L226.903 153.081V155.467Z" fill="white"/>
<path d="M238.578 148.708L236.592 149.9V147.515L238.578 146.401V148.708Z" fill="white"/>
<path d="M217.61 160.795L215.625 161.988V159.682L217.61 158.489V160.795Z" fill="white"/>
<path d="M188.939 118.649L219.119 136.064L216.339 137.654L186.159 120.239L188.939 118.649Z" fill="#380031"/>
<path d="M187.271 120.875L189.098 119.762L218.246 136.541L219.119 136.064L188.939 118.649L186.159 120.239L187.271 120.875Z" fill="#FB8488"/>
<path d="M197.437 113.798L227.538 131.133L224.758 132.724L194.657 115.388L197.437 113.798Z" fill="#380031"/>
<path d="M195.69 116.024L197.596 114.911L226.664 131.69L227.538 131.133L197.437 113.798L194.657 115.388L195.69 116.024Z" fill="#FB8488"/>
<path d="M205.856 108.868L235.957 126.283L233.177 127.873L203.076 110.458L205.856 108.868Z" fill="#380031"/>
<path d="M204.108 111.094L206.015 109.981L235.083 126.76L235.957 126.283L205.856 108.868L203.076 110.458L204.108 111.094Z" fill="#FB8488"/>
<path d="M173.293 164.453C172.498 164.453 171.704 164.294 171.148 163.976L142.477 147.435C141.841 147.117 141.524 146.561 141.524 146.004C141.524 145.368 142 144.732 142.794 144.254L170.83 128.032C172.26 127.157 174.404 127.078 175.675 127.873L204.347 144.493C204.982 144.811 205.3 145.368 205.3 145.924C205.3 146.561 204.823 147.197 204.029 147.674L175.993 163.896C175.199 164.294 174.246 164.453 173.293 164.453ZM173.531 127.953C172.657 127.953 171.783 128.191 171.148 128.589L143.112 144.811C142.477 145.129 142.159 145.606 142.159 146.004C142.159 146.401 142.477 146.72 142.794 146.879L171.466 163.499C172.578 164.135 174.484 164.055 175.675 163.339L203.711 147.117C204.347 146.799 204.664 146.322 204.664 145.924C204.664 145.527 204.347 145.209 204.029 145.05L175.357 128.43C174.881 128.112 174.246 127.953 173.531 127.953Z" fill="white"/>
<path d="M160.029 181.709L136.361 168.031C135.805 167.713 135.328 166.838 135.328 166.043V164.294C135.328 163.578 135.805 163.18 136.361 163.499L160.029 177.176C160.585 177.494 161.061 178.369 161.061 179.164V180.914C161.061 181.629 160.585 182.027 160.029 181.709Z" fill="#FCCA2E"/>
<path d="M217.56 186.229L217.242 186.78L303.909 236.881L304.227 236.33L217.56 186.229Z" fill="#03A7D3"/>
<path d="M298 206.5L278.13 194.909C276.541 193.955 274.397 193.398 272.173 193.16L253.271 191.649C250.888 191.49 248.664 190.854 246.996 189.82L229.365 179.641L229.682 179.085L247.314 189.343C248.902 190.297 251.047 190.854 253.271 191.092L272.173 192.603C274.556 192.762 276.78 193.398 278.448 194.432L298.318 206.023L298 206.5Z" fill="#03A7D3"/>
<path d="M258 238L231.35 221.947C229.603 220.913 228.491 219.64 228.173 218.209L225.632 207.315C225.314 206.042 224.282 204.849 222.773 203.975L205.141 193.796L205.458 193.239L223.09 203.418C224.838 204.452 225.949 205.724 226.267 207.156L228.809 218.05C229.126 219.322 230.159 220.515 231.668 221.39L258.318 237.443L258 238Z" fill="#03A7D3"/>
<path d="M289.182 242.557L241.913 214.551C240.96 213.994 240.166 213.358 239.61 212.643L232.065 202.941C231.588 202.305 230.874 201.669 230 201.192L211.256 190.377L211.574 189.82L230.318 200.635C231.271 201.192 232.065 201.828 232.621 202.543L240.166 212.245C240.642 212.881 241.357 213.517 242.231 213.994L289.5 242L289.182 242.557Z" fill="#03A7D3"/>
<path d="M302.5 223.5L265.264 201.033C264.39 200.476 263.357 200.078 262.166 199.76L245.328 195.387C244.137 195.068 243.025 194.671 242.072 194.114L223.328 183.299L223.646 182.743L242.39 193.558C243.264 194.114 244.296 194.512 245.487 194.83L262.325 199.204C263.516 199.522 264.628 199.919 265.581 200.476L302.818 222.943L302.5 223.5Z" fill="#03A7D3"/>
</g>
<path d="M127.817 59.5693H128.287V68.2328H127.817V59.5693Z" fill="#03A7D3"/>
<path d="M127.817 70.2103H128.287V72.6587H127.817V70.2103Z" fill="#172F78"/>
<path d="M127.817 74.7303H128.287V77.1787H127.817V74.7303Z" fill="#172F78"/>
<path d="M99.5963 181.463H100.066V190.126H99.5963V181.463Z" fill="#172F78"/>
<path d="M99.5963 192.104H100.066V194.552H99.5963V192.104Z" fill="#03A7D3"/>
<path d="M99.5963 196.624H100.066V199.072H99.5963V196.624Z" fill="#03A7D3"/>
<path d="M99.5963 201.144H100.066V208.112H99.5963V201.144Z" fill="#03A7D3"/>
<path d="M269.75 85.9363H270.219V88.6671H269.75V85.9363Z" fill="#172F78"/>
<path d="M269.75 75.2953H270.219V83.9587H269.75V75.2953Z" fill="#03A7D3"/>
<path d="M269.75 63.9952H270.219V72.7529H269.75V63.9952Z" fill="#172F78"/>
<path d="M269.75 51H270.219V59.7576H269.75V51Z" fill="#172F78"/>
<path opacity="0.4" d="M266.275 102.981C266.275 105.052 267.966 106.747 270.031 106.747C272.097 106.747 273.788 105.052 273.788 102.981C273.788 100.909 272.097 99.214 270.031 99.214C267.966 99.214 266.275 100.909 266.275 102.981Z" fill="#03A7D3"/>
<path opacity="0.8" d="M268.153 102.981C268.153 104.017 268.998 104.77 269.938 104.77C270.97 104.77 271.722 103.922 271.722 102.981C271.722 101.945 270.877 101.191 269.938 101.191C268.998 101.097 268.153 101.945 268.153 102.981Z" fill="#01C8EF"/>
<path opacity="0.4" d="M98 214.987C98 216.022 98.8452 216.776 99.7842 216.776C100.817 216.776 101.568 215.928 101.568 214.987C101.568 213.951 100.723 213.197 99.7842 213.197C98.8452 213.103 98 213.951 98 214.987Z" fill="#03A7D3"/>
<path opacity="0.8" d="M99.8781 215.928C99.3595 215.928 98.9391 215.507 98.9391 214.987C98.9391 214.467 99.3595 214.045 99.8781 214.045C100.397 214.045 100.817 214.467 100.817 214.987C100.817 215.507 100.397 215.928 99.8781 215.928Z" fill="#01C8EF"/>
<path opacity="0.4" d="M125 54.1075C125 55.8026 126.409 57.2151 128.099 57.2151C129.789 57.2151 131.198 55.8026 131.198 54.1075C131.198 52.4125 129.789 51 128.099 51C126.409 51 125 52.4125 125 54.1075Z" fill="#03A7D3"/>
<path opacity="0.8" d="M126.596 54.1075C126.596 54.955 127.254 55.6142 128.099 55.6142C128.944 55.6142 129.601 54.955 129.601 54.1075C129.601 53.26 128.944 52.6008 128.099 52.6008C127.254 52.6008 126.596 53.26 126.596 54.1075Z" fill="#01C8EF"/>
<path d="M171.317 16.1302H213.134C215.211 16.1302 216.873 14.4616 216.873 12.3758C216.873 10.29 215.211 8.62134 213.134 8.62134H171.317C169.24 8.62134 167.579 10.29 167.579 12.3758C167.579 14.4616 169.24 16.1302 171.317 16.1302Z" fill="#CCCCCC"/>
<path d="M158.994 16.1302C161.071 16.1302 162.732 14.4616 162.732 12.3758C162.732 10.29 161.071 8.62134 158.994 8.62134C156.917 8.62134 155.255 10.29 155.255 12.3758C155.255 14.4616 156.917 16.1302 158.994 16.1302Z" fill="#CCCCCC"/>
<path d="M225.458 16.1302C227.535 16.1302 229.197 14.4616 229.197 12.3758C229.197 10.29 227.535 8.62134 225.458 8.62134C223.381 8.62134 221.719 10.29 221.719 12.3758C221.719 14.4616 223.381 16.1302 225.458 16.1302Z" fill="#CCCCCC"/>
<defs>
<filter id="filter0_d" x="0" y="80.1342" width="152.006" height="161.065" filterUnits="userSpaceOnUse" color-interpolation-filters="sRGB">
<feFlood flood-opacity="0" result="BackgroundImageFix"/>
<feColorMatrix in="SourceAlpha" type="matrix" values="0 0 0 0 0 0 0 0 0 0 0 0 0 0 0 0 0 0 127 0"/>
<feOffset dy="4"/>
<feGaussianBlur stdDeviation="2"/>
<feColorMatrix type="matrix" values="0 0 0 0 0 0 0 0 0 0 0 0 0 0 0 0 0 0 0.25 0"/>
<feBlend mode="normal" in2="BackgroundImageFix" result="effect1_dropShadow"/>
<feBlend mode="normal" in="SourceGraphic" in2="effect1_dropShadow" result="shape"/>
</filter>
<filter id="filter1_d" x="77.4518" y="0" width="229.41" height="243" filterUnits="userSpaceOnUse" color-interpolation-filters="sRGB">
<feFlood flood-opacity="0" result="BackgroundImageFix"/>
<feColorMatrix in="SourceAlpha" type="matrix" values="0 0 0 0 0 0 0 0 0 0 0 0 0 0 0 0 0 0 127 0"/>
<feOffset dy="4"/>
<feGaussianBlur stdDeviation="2"/>
<feColorMatrix type="matrix" values="0 0 0 0 0 0 0 0 0 0 0 0 0 0 0 0 0 0 0.25 0"/>
<feBlend mode="normal" in2="BackgroundImageFix" result="effect1_dropShadow"/>
<feBlend mode="normal" in="SourceGraphic" in2="effect1_dropShadow" result="shape"/>
</filter>
<linearGradient id="paint0_linear" x1="69.7505" y1="121.541" x2="69.7505" y2="154.849" gradientUnits="userSpaceOnUse">
<stop stop-color="#7A5FFF"/>
<stop offset="1" stop-color="#01FF89"/>
</linearGradient>
<linearGradient id="paint1_linear" x1="74.2463" y1="121.58" x2="74.2463" y2="170.182" gradientUnits="userSpaceOnUse">
<stop stop-color="#7A5FFF"/>
<stop offset="1" stop-color="#01FF89"/>
</linearGradient>
<linearGradient id="paint2_linear" x1="114.429" y1="157.474" x2="208.981" y2="157.474" gradientUnits="userSpaceOnUse">
<stop stop-color="#01C8EF"/>
<stop offset="0.1297" stop-color="#04B1DD"/>
<stop offset="0.5466" stop-color="#0E6BA7"/>
<stop offset="0.8476" stop-color="#154085"/>
<stop offset="1" stop-color="#172F78"/>
</linearGradient>
<radialGradient id="paint3_radial" cx="0" cy="0" r="1" gradientUnits="userSpaceOnUse" gradientTransform="translate(116.314 105.688) scale(145.189 144.594)">
<stop stop-color="#2743BC"/>
<stop offset="1" stop-color="#B6246E"/>
</radialGradient>
<clipPath id="clip0">
<rect width="26" height="15" transform="matrix(-1 0 0 1 186 137)" fill="white"/>
</clipPath>
</defs>
</svg>
