<svg width="457" height="525" viewBox="0 0 457 525" fill="none" xmlns="http://www.w3.org/2000/svg">
<path d="M383.45 320.225L294.706 269.714C291.448 267.831 291.877 264.578 295.649 262.437L346.666 232.987C350.439 230.847 356.098 230.59 359.356 232.473L448.1 282.984C451.358 284.868 450.929 288.121 447.157 290.261L396.14 319.712C392.367 321.852 386.708 322.109 383.45 320.225Z" fill="#F3F3F3"/>
<path d="M455.988 266.033V59.1954L373.675 37.7068L358.499 28.9744C354.983 27.0054 348.982 27.2622 344.952 29.5737L330.804 37.7068H286.904L299.937 237.353C299.851 238.723 300.623 240.007 302.252 240.949L384.393 302.846C387.909 304.815 393.911 304.559 397.941 302.247L452.73 270.656C454.959 269.372 456.16 267.574 455.988 266.033Z" fill="#7EC4F7"/>
<path d="M352.154 27.6045C349.582 27.6901 346.924 28.2894 344.866 29.488L330.804 37.7067H286.904V245.058C286.818 246.428 287.59 247.712 289.219 248.654L384.393 302.846C386.108 303.788 388.337 304.216 390.652 304.216L391.595 95.5802L352.154 27.6045Z" fill="#D3E9F8"/>
<path d="M385.25 303.189C388.251 304.473 392.624 304.387 396.14 303.103V93.012H385.25V303.189Z" fill="#7EC4F7"/>
<path d="M384.308 95.4945L289.219 41.3879C285.703 39.4188 286.132 35.9087 290.162 33.5972L344.952 1.92089C348.982 -0.390625 355.069 -0.64746 358.499 1.32161L453.673 55.5138C457.189 57.4829 456.674 60.993 452.73 63.3045L397.941 94.8952C393.911 97.2923 387.823 97.5492 384.308 95.4945Z" fill="#D3E9F8"/>
<path d="M452.644 59.5376L397.855 91.1283C393.825 93.4399 387.737 93.6967 384.307 91.7276L289.219 37.5354C288.447 37.1073 287.847 36.5937 287.504 35.9944C286.304 37.8778 286.818 40.0181 289.219 41.3879L384.393 95.5802C387.909 97.5492 393.911 97.2924 397.94 94.9809L452.644 63.3901C455.731 61.5923 456.674 59.1096 455.388 57.1405C454.874 57.9966 453.93 58.8527 452.644 59.5376Z" fill="#F9FCFF"/>
<path d="M387.051 73.578L323.687 36.9362C322.058 35.9945 322.23 34.3678 324.116 33.2549L349.753 18.4441C351.639 17.3311 354.469 17.2455 356.098 18.1872L419.462 54.8291C421.091 55.7708 420.919 57.3974 419.033 58.5104L393.396 73.3212C391.51 74.3485 388.68 74.5198 387.051 73.578Z" fill="#7EC4F7"/>
<path d="M352.84 38.5627L349.153 36.4224C348.896 36.2511 348.981 36.0799 349.239 35.9087L352.754 33.854C353.011 33.6828 353.44 33.6828 353.611 33.854L357.298 35.9943C357.556 36.1655 357.47 36.3367 357.213 36.508L353.697 38.5627C353.44 38.6483 353.097 38.6483 352.84 38.5627Z" fill="#D3E9F8"/>
<path d="M365.101 45.5827L361.414 43.4424C361.157 43.2712 361.243 43.0999 361.5 42.9287L365.015 40.874C365.273 40.7028 365.701 40.7028 365.873 40.874L369.56 43.0143C369.817 43.1855 369.731 43.3568 369.474 43.528L365.958 45.5827C365.701 45.6683 365.358 45.7539 365.101 45.5827Z" fill="#D3E9F8"/>
<path d="M377.362 52.6032L373.675 50.4629C373.418 50.2917 373.504 50.1204 373.761 49.9492L377.277 47.8945C377.534 47.7233 377.962 47.7233 378.134 47.8945L381.821 50.0348C382.078 50.206 381.992 50.3773 381.735 50.5485L378.22 52.6032C377.962 52.7744 377.619 52.7744 377.362 52.6032Z" fill="#D3E9F8"/>
<path d="M389.624 59.7089L385.937 57.5686C385.679 57.3974 385.765 57.2262 386.022 57.0549L389.538 55.0002C389.795 54.829 390.224 54.829 390.395 55.0002L394.082 57.1405C394.339 57.3118 394.254 57.483 393.996 57.6542L390.481 59.7089C390.224 59.7945 389.881 59.7945 389.624 59.7089Z" fill="#D3E9F8"/>
<path d="M323.687 36.9362C323.859 36.8506 324.03 36.765 324.116 36.6794L349.753 21.8685C351.639 20.7556 354.469 20.67 356.098 21.6117L419.376 58.2535C420.919 57.1406 420.919 55.6852 419.462 54.8291L356.098 18.1872C354.469 17.2455 351.639 17.3311 349.753 18.4441L324.116 33.2549C322.23 34.2822 322.058 35.9945 323.687 36.9362Z" fill="#44A6E2"/>
<path d="M408.658 136.503L444.67 115.87C446.728 114.672 448.357 111.59 448.357 108.85V96.0086C448.357 93.269 446.728 92.0704 444.67 93.269L408.658 113.901C406.601 115.1 404.971 118.182 404.971 120.922V133.763C404.971 136.417 406.601 137.701 408.658 136.503Z" fill="#203E79"/>
<path d="M446.385 92.8408C446.985 93.3545 447.328 94.2962 447.328 95.4948V108.337C447.328 111.076 445.699 114.158 443.641 115.357L407.629 135.989C406.943 136.332 406.343 136.503 405.829 136.417C406.515 137.016 407.458 137.188 408.572 136.503L444.584 115.87C446.642 114.672 448.271 111.59 448.271 108.85V96.0085C448.271 94.2106 447.585 93.0977 446.385 92.8408Z" fill="white"/>
<path d="M419.462 122.548L422.806 120.664C423.235 120.408 423.578 119.723 423.578 119.123V115.613C423.578 115.014 423.235 114.757 422.806 115.014L419.462 116.897C419.033 117.154 418.69 117.839 418.69 118.438V121.949C418.69 122.548 419.033 122.805 419.462 122.548Z" fill="#3A6DAA"/>
<path d="M430.522 116.127L433.866 114.244C434.295 113.987 434.638 113.302 434.638 112.703V109.193C434.638 108.593 434.295 108.336 433.866 108.593L430.522 110.477C430.094 110.734 429.751 111.419 429.751 112.018V115.528C429.665 116.127 430.094 116.384 430.522 116.127Z" fill="white"/>
<path d="M408.658 229.477L444.67 208.845C446.728 207.646 448.357 204.564 448.357 201.824V188.983C448.357 186.243 446.728 185.045 444.67 186.243L408.658 206.876C406.601 208.074 404.971 211.156 404.971 213.896V226.737C404.971 229.391 406.601 230.59 408.658 229.477Z" fill="#203E79"/>
<path d="M446.385 185.815C446.985 186.329 447.328 187.27 447.328 188.469V201.311C447.328 204.05 445.699 207.132 443.641 208.331L407.629 228.963C406.943 229.306 406.343 229.477 405.829 229.391C406.515 229.991 407.458 230.162 408.572 229.477L444.584 208.844C446.642 207.646 448.271 204.564 448.271 201.824V188.983C448.271 187.185 447.585 185.986 446.385 185.815Z" fill="white"/>
<path d="M419.462 215.436L422.806 213.553C423.235 213.296 423.578 212.611 423.578 212.012V208.502C423.578 207.903 423.235 207.646 422.806 207.903L419.462 209.786C419.033 210.043 418.69 210.728 418.69 211.327V214.837C418.69 215.436 419.033 215.693 419.462 215.436Z" fill="#3A6DAA"/>
<path d="M430.522 209.101L433.866 207.218C434.295 206.961 434.638 206.276 434.638 205.677V202.167C434.638 201.568 434.295 201.311 433.866 201.568L430.522 203.451C430.094 203.708 429.751 204.393 429.751 204.992V208.502C429.665 209.101 430.094 209.358 430.522 209.101Z" fill="white"/>
<path d="M408.658 275.964L444.67 255.331C446.728 254.133 448.357 251.051 448.357 248.311V235.47C448.357 232.73 446.728 231.531 444.67 232.73L408.658 253.362C406.601 254.561 404.971 257.643 404.971 260.383V273.224C404.971 275.878 406.601 277.077 408.658 275.964Z" fill="#203E79"/>
<path d="M446.385 232.302C446.985 232.816 447.328 233.758 447.328 234.956V247.798C447.328 250.538 445.699 253.62 443.641 254.818L407.629 275.451C406.943 275.793 406.343 275.964 405.829 275.879C406.515 276.478 407.458 276.649 408.572 275.964L444.584 255.332C446.642 254.133 448.271 251.051 448.271 248.312V235.47C448.271 233.672 447.585 232.473 446.385 232.302Z" fill="white"/>
<path d="M419.462 261.924L422.806 260.041C423.235 259.784 423.578 259.099 423.578 258.5V254.989C423.578 254.39 423.235 254.133 422.806 254.39L419.462 256.274C419.033 256.53 418.69 257.215 418.69 257.815V261.325C418.69 261.924 419.033 262.181 419.462 261.924Z" fill="#3A6DAA"/>
<path d="M430.522 255.588L433.866 253.705C434.295 253.448 434.638 252.763 434.638 252.164V248.654C434.638 248.054 434.295 247.798 433.866 248.054L430.522 249.938C430.094 250.195 429.751 250.88 429.751 251.479V254.989C429.665 255.588 430.094 255.845 430.522 255.588Z" fill="white"/>
<path d="M408.658 182.99L444.67 162.357C446.728 161.159 448.357 158.077 448.357 155.337V142.495C448.357 139.756 446.728 138.557 444.67 139.756L408.658 160.388C406.601 161.587 404.971 164.669 404.971 167.408V180.25C404.971 182.904 406.601 184.103 408.658 182.99Z" fill="#203E79"/>
<path d="M446.385 139.328C446.985 139.842 447.328 140.783 447.328 141.982V154.824C447.328 157.563 445.699 160.645 443.641 161.844L407.629 182.476C406.943 182.819 406.343 182.99 405.829 182.904C406.515 183.504 407.458 183.675 408.572 182.99L444.584 162.357C446.642 161.159 448.271 158.077 448.271 155.337V142.496C448.271 140.698 447.585 139.585 446.385 139.328Z" fill="white"/>
<path d="M419.462 169.035L422.806 167.152C423.235 166.895 423.578 166.21 423.578 165.611V162.101C423.578 161.501 423.235 161.244 422.806 161.501L419.462 163.385C419.033 163.642 418.69 164.326 418.69 164.926V168.436C418.69 168.949 419.033 169.292 419.462 169.035Z" fill="#3A6DAA"/>
<path d="M430.522 162.614L433.866 160.731C434.295 160.474 434.638 159.789 434.638 159.19V155.68C434.638 155.08 434.295 154.824 433.866 155.08L430.522 156.964C430.094 157.221 429.751 157.906 429.751 158.505V162.015C429.665 162.614 430.094 162.871 430.522 162.614Z" fill="white"/>
<path d="M377.448 123.318L294.363 75.3757C292.477 74.2628 291.019 71.4376 291.019 68.9548V53.2023C291.019 50.7195 292.563 49.6066 294.363 50.6339L377.448 98.5765C379.334 99.6894 380.792 102.515 380.792 104.997V120.75C380.792 123.233 379.248 124.431 377.448 123.318Z" fill="#4164C4"/>
<path d="M375.047 117.753L296.678 72.5504C295.735 72.0367 294.964 70.5813 294.964 69.2971V57.4827C294.964 56.1985 295.735 55.6849 296.678 56.1985L375.047 101.402C375.99 101.915 376.762 103.371 376.762 104.655V116.469C376.762 117.753 375.99 118.353 375.047 117.753Z" fill="#5070E2"/>
<path d="M313.055 76.061L301.394 69.2976C300.451 68.784 299.765 67.3286 299.765 66.13C299.765 64.9314 300.537 64.3321 301.394 64.8458L313.055 71.6091C313.998 72.1228 314.684 73.5782 314.684 74.7768C314.684 75.9754 313.913 76.5746 313.055 76.061Z" fill="#5B95FF"/>
<path d="M323.001 79.5709C323.001 80.7695 322.144 81.2831 321.115 80.6839C320.086 80.0846 319.229 78.6292 319.229 77.345C319.229 76.1464 320.086 75.6328 321.115 76.2321C322.144 76.8313 323.001 78.3723 323.001 79.5709Z" fill="#03E59F"/>
<path d="M329.775 83.4232C329.775 84.6218 328.918 85.1354 327.889 84.5362C326.86 83.9369 326.002 82.4815 326.002 81.1973C326.002 79.9987 326.86 79.4851 327.889 80.0843C328.918 80.7692 329.775 82.2246 329.775 83.4232Z" fill="#03E59F"/>
<path d="M336.463 87.3614C336.463 88.56 335.605 89.0737 334.576 88.4744C333.548 87.8751 332.69 86.4197 332.69 85.1355C332.69 83.937 333.548 83.4233 334.576 84.0226C335.605 84.6219 336.463 86.1629 336.463 87.3614Z" fill="#03E59F"/>
<path d="M343.237 91.214C343.237 92.4125 342.379 92.9262 341.35 92.3269C340.322 91.7277 339.464 90.2723 339.464 88.9881C339.464 87.7895 340.322 87.2758 341.35 87.8751C342.379 88.56 343.237 90.0154 343.237 91.214Z" fill="#203E79"/>
<path d="M371.703 111.162L367.759 108.85C367.159 108.508 366.73 107.566 366.73 106.795V102.601C366.73 101.83 367.245 101.488 367.759 101.83L371.703 104.142C372.304 104.484 372.732 105.426 372.732 106.196V110.391C372.818 111.162 372.304 111.504 371.703 111.162Z" fill="#203E79"/>
<path d="M377.448 151.228L294.363 103.285C292.477 102.172 291.019 99.347 291.019 96.8643V81.1117C291.019 78.629 292.563 77.516 294.363 78.5434L377.448 126.486C379.334 127.599 380.792 130.424 380.792 132.907V148.745C380.792 151.142 379.248 152.341 377.448 151.228Z" fill="#4164C4"/>
<path d="M375.047 145.663L296.678 100.46C295.735 99.9466 294.964 98.4912 294.964 97.2071V85.3926C294.964 84.1085 295.735 83.5948 296.678 84.1085L375.047 129.311C375.99 129.825 376.762 131.281 376.762 132.565V144.465C376.762 145.663 375.99 146.263 375.047 145.663Z" fill="#5070E2"/>
<path d="M313.055 103.884L301.394 97.1211C300.451 96.6074 299.765 95.152 299.765 93.9535C299.765 92.7549 300.537 92.1556 301.394 92.6693L313.055 99.4326C313.998 99.9463 314.684 101.402 314.684 102.6C314.684 103.884 313.913 104.484 313.055 103.884Z" fill="#5B95FF"/>
<path d="M323.001 107.48C323.001 108.679 322.144 109.192 321.115 108.593C320.086 107.994 319.229 106.538 319.229 105.254C319.229 104.056 320.086 103.542 321.115 104.141C322.144 104.741 323.001 106.196 323.001 107.48Z" fill="#03E59F"/>
<path d="M329.775 111.333C329.775 112.531 328.918 113.045 327.889 112.445C326.86 111.846 326.002 110.391 326.002 109.107C326.002 107.822 326.86 107.394 327.889 107.994C328.918 108.679 329.775 110.134 329.775 111.333Z" fill="#203E79"/>
<path d="M335.947 116.529C336.685 116.104 336.669 114.696 335.911 113.386C335.154 112.076 333.941 111.359 333.203 111.784C332.465 112.21 332.48 113.617 333.238 114.927C333.996 116.237 335.208 116.955 335.947 116.529Z" fill="#03E59F"/>
<path d="M342.696 120.381C343.434 119.955 343.418 118.548 342.66 117.238C341.903 115.927 340.69 115.21 339.952 115.636C339.214 116.061 339.229 117.468 339.987 118.779C340.745 120.089 341.957 120.806 342.696 120.381Z" fill="#203E79"/>
<path d="M371.703 139.071L367.759 136.759C367.159 136.417 366.73 135.475 366.73 134.705V130.51C366.73 129.739 367.245 129.397 367.759 129.739L371.703 132.051C372.304 132.393 372.732 133.335 372.732 134.105V138.3C372.818 139.071 372.304 139.413 371.703 139.071Z" fill="#FFD22E"/>
<path d="M377.448 179.137L294.363 131.195C292.477 130.082 291.019 127.257 291.019 124.774V108.936C291.019 106.453 292.563 105.34 294.363 106.367L377.448 154.31C379.334 155.423 380.792 158.248 380.792 160.731V176.569C380.792 179.052 379.248 180.25 377.448 179.137Z" fill="#4164C4"/>
<path d="M375.047 173.572L296.678 128.455C295.735 127.941 294.964 126.486 294.964 125.202V113.302C294.964 112.018 295.735 111.504 296.678 112.018L375.047 157.221C375.99 157.734 376.762 159.19 376.762 160.474V172.374C376.762 173.572 375.99 174.172 375.047 173.572Z" fill="#5070E2"/>
<path d="M313.055 131.794L301.394 125.031C300.451 124.517 299.765 123.062 299.765 121.863C299.765 120.665 300.537 120.065 301.394 120.579L313.055 127.342C313.998 127.856 314.684 129.311 314.684 130.51C314.684 131.794 313.913 132.393 313.055 131.794Z" fill="#5B95FF"/>
<path d="M323.001 135.39C323.001 136.588 322.144 137.102 321.115 136.503C320.086 135.903 319.229 134.448 319.229 133.164C319.229 131.88 320.086 131.451 321.115 132.051C322.144 132.65 323.001 134.105 323.001 135.39Z" fill="#FF65AB"/>
<path d="M329.775 139.242C329.775 140.441 328.918 140.954 327.889 140.355C326.86 139.756 326.002 138.3 326.002 137.016C326.002 135.818 326.86 135.304 327.889 135.903C328.918 136.588 329.775 138.043 329.775 139.242Z" fill="#FF65AB"/>
<path d="M336.463 143.18C336.463 144.379 335.605 144.893 334.576 144.293C333.548 143.694 332.69 142.239 332.69 140.954C332.69 139.756 333.548 139.242 334.576 139.841C335.605 140.441 336.463 141.896 336.463 143.18Z" fill="#03E59F"/>
<path d="M343.237 147.033C343.237 148.232 342.379 148.745 341.35 148.146C340.322 147.547 339.464 146.091 339.464 144.807C339.464 143.609 340.322 143.095 341.35 143.694C342.379 144.379 343.237 145.835 343.237 147.033Z" fill="#203E79"/>
<path d="M371.703 166.981L367.759 164.669C367.159 164.327 366.73 163.385 366.73 162.614V158.419C366.73 157.649 367.245 157.306 367.759 157.649L371.703 159.96C372.304 160.303 372.732 161.245 372.732 162.015V166.21C372.818 166.981 372.304 167.323 371.703 166.981Z" fill="#203E79"/>
<path d="M377.448 207.047L294.363 159.104C292.477 157.991 291.019 155.166 291.019 152.683V136.845C291.019 134.362 292.563 133.249 294.363 134.277L377.448 182.219C379.334 183.332 380.792 186.157 380.792 188.64V204.478C380.792 206.961 379.248 208.074 377.448 207.047Z" fill="#4164C4"/>
<path d="M375.047 200.626L296.678 155.423C295.735 154.909 294.964 153.454 294.964 152.17V140.27C294.964 138.985 295.735 138.472 296.678 138.985L375.047 184.188C375.99 184.702 376.762 186.157 376.762 187.442V199.342C376.762 200.626 375.99 201.225 375.047 200.626Z" fill="#5070E2"/>
<path d="M313.055 159.704L301.394 152.94C300.451 152.427 299.765 150.971 299.765 149.773C299.765 148.574 300.537 147.975 301.394 148.488L313.055 155.252C313.998 155.765 314.684 157.221 314.684 158.419C314.684 159.704 313.913 160.217 313.055 159.704Z" fill="#5B95FF"/>
<path d="M323.001 163.299C323.001 164.498 322.144 165.011 321.115 164.412C320.086 163.813 319.229 162.357 319.229 161.073C319.229 159.875 320.086 159.361 321.115 159.96C322.144 160.56 323.001 162.015 323.001 163.299Z" fill="#203E79"/>
<path d="M329.775 167.152C329.775 168.35 328.918 168.864 327.889 168.265C326.86 167.665 326.002 166.21 326.002 164.926C326.002 163.727 326.86 163.214 327.889 163.813C328.918 164.498 329.775 165.953 329.775 167.152Z" fill="#203E79"/>
<path d="M336.463 171.09C336.463 172.288 335.605 172.802 334.576 172.203C333.548 171.603 332.69 170.148 332.69 168.864C332.69 167.665 333.548 167.152 334.576 167.751C335.605 168.35 336.463 169.806 336.463 171.09Z" fill="#03E59F"/>
<path d="M342.701 176.197C343.439 175.771 343.424 174.364 342.666 173.054C341.908 171.743 340.696 171.026 339.957 171.452C339.219 171.877 339.235 173.284 339.993 174.595C340.75 175.905 341.963 176.622 342.701 176.197Z" fill="#203E79"/>
<path d="M371.703 194.89L367.759 192.578C367.159 192.236 366.73 191.294 366.73 190.524V186.329C366.73 185.558 367.245 185.216 367.759 185.558L371.703 187.87C372.304 188.212 372.732 189.154 372.732 189.924V194.119C372.818 194.89 372.304 195.232 371.703 194.89Z" fill="#FFD22E"/>
<path d="M377.448 234.956L294.363 187.014C292.477 185.901 291.019 183.075 291.019 180.593V164.755C291.019 162.272 292.563 161.159 294.363 162.186L377.448 210.129C379.334 211.242 380.792 214.067 380.792 216.55V232.388C380.792 234.87 379.248 235.983 377.448 234.956Z" fill="#4164C4"/>
<path d="M375.047 228.535L296.678 183.332C295.735 182.818 294.964 181.363 294.964 180.079V168.179C294.964 166.895 295.735 166.381 296.678 166.895L375.047 212.098C375.99 212.611 376.762 214.067 376.762 215.351V227.251C376.762 228.535 375.99 229.134 375.047 228.535Z" fill="#5070E2"/>
<path d="M313.055 187.613L301.394 180.849C300.451 180.336 299.765 178.88 299.765 177.682C299.765 176.483 300.537 175.884 301.394 176.398L313.055 183.161C313.998 183.675 314.684 185.13 314.684 186.329C314.684 187.613 313.913 188.126 313.055 187.613Z" fill="#5B95FF"/>
<path d="M323.001 191.209C323.001 192.407 322.144 192.921 321.115 192.321C320.086 191.722 319.229 190.267 319.229 188.983C319.229 187.698 320.086 187.27 321.115 187.87C322.144 188.469 323.001 189.924 323.001 191.209Z" fill="#203E79"/>
<path d="M329.775 195.061C329.775 196.26 328.918 196.774 327.889 196.174C326.86 195.575 326.002 194.12 326.002 192.835C326.002 191.551 326.86 191.123 327.889 191.722C328.918 192.322 329.775 193.863 329.775 195.061Z" fill="#03E59F"/>
<path d="M336.463 198.999C336.463 200.198 335.605 200.711 334.576 200.112C333.548 199.513 332.69 198.057 332.69 196.773C332.69 195.575 333.548 195.061 334.576 195.66C335.605 196.26 336.463 197.715 336.463 198.999Z" fill="#FF65AB"/>
<path d="M343.237 202.852C343.237 204.05 342.379 204.564 341.35 203.965C340.322 203.365 339.464 201.91 339.464 200.626C339.464 199.427 340.322 198.914 341.35 199.513C342.379 200.198 343.237 201.653 343.237 202.852Z" fill="#03E59F"/>
<path d="M371.703 222.799L367.759 220.488C367.159 220.145 366.73 219.203 366.73 218.433V214.238C366.73 213.467 367.245 213.125 367.759 213.467L371.703 215.779C372.304 216.121 372.732 217.063 372.732 217.834V222.029C372.818 222.714 372.304 223.142 371.703 222.799Z" fill="#FFD22E"/>
<path d="M377.448 262.866L294.363 214.923C292.477 213.81 291.019 210.985 291.019 208.502V192.664C291.019 190.181 292.563 189.068 294.363 190.096L377.448 238.038C379.334 239.151 380.792 241.976 380.792 244.459V260.297C380.792 262.78 379.248 263.893 377.448 262.866Z" fill="#4164C4"/>
<path d="M375.047 256.445L296.678 211.242C295.735 210.728 294.964 209.273 294.964 207.988V196.088C294.964 194.804 295.735 194.291 296.678 194.804L375.047 240.007C375.99 240.521 376.762 241.976 376.762 243.261V255.161C376.762 256.445 375.99 256.958 375.047 256.445Z" fill="#5070E2"/>
<path d="M313.055 215.522L301.394 208.759C300.451 208.245 299.765 206.79 299.765 205.591C299.765 204.393 300.537 203.793 301.394 204.307L313.055 211.07C313.998 211.584 314.684 213.039 314.684 214.238C314.684 215.522 313.913 216.036 313.055 215.522Z" fill="#5B95FF"/>
<path d="M323.001 219.033C323.001 220.231 322.144 220.745 321.115 220.146C320.086 219.546 319.229 218.091 319.229 216.807C319.229 215.608 320.086 215.094 321.115 215.694C322.144 216.379 323.001 217.834 323.001 219.033Z" fill="#203E79"/>
<path d="M329.775 222.971C329.775 224.169 328.918 224.683 327.889 224.084C326.86 223.484 326.002 222.029 326.002 220.745C326.002 219.546 326.86 219.032 327.889 219.632C328.918 220.231 329.775 221.772 329.775 222.971Z" fill="#203E79"/>
<path d="M336.463 226.909C336.463 228.107 335.605 228.621 334.576 228.022C333.548 227.422 332.69 225.967 332.69 224.683C332.69 223.484 333.548 222.971 334.576 223.57C335.605 224.169 336.463 225.625 336.463 226.909Z" fill="#03E59F"/>
<path d="M343.237 230.761C343.237 231.96 342.379 232.474 341.35 231.874C340.322 231.275 339.464 229.82 339.464 228.535C339.464 227.337 340.322 226.823 341.35 227.422C342.379 228.022 343.237 229.563 343.237 230.761Z" fill="#203E79"/>
<path d="M371.703 250.709L367.759 248.397C367.159 248.055 366.73 247.113 366.73 246.343V242.148C366.73 241.377 367.245 241.035 367.759 241.377L371.703 243.689C372.304 244.031 372.732 244.973 372.732 245.743V249.938C372.818 250.623 372.304 251.051 371.703 250.709Z" fill="#203E79"/>
<path d="M377.448 290.775L294.363 242.833C292.477 241.72 291.019 238.895 291.019 236.412V220.574C291.019 218.091 292.563 216.978 294.363 218.005L377.448 265.948C379.334 267.061 380.792 269.886 380.792 272.369V288.207C380.792 290.69 379.248 291.803 377.448 290.775Z" fill="#4164C4"/>
<path d="M375.047 284.354L296.678 239.151C295.735 238.637 294.964 237.182 294.964 235.898V223.998C294.964 222.714 295.735 222.2 296.678 222.714L375.047 267.917C375.99 268.43 376.762 269.886 376.762 271.17V283.07C376.762 284.354 375.99 284.868 375.047 284.354Z" fill="#5070E2"/>
<path d="M313.055 243.432L301.394 236.668C300.451 236.155 299.765 234.699 299.765 233.501C299.765 232.302 300.537 231.703 301.394 232.217L313.055 238.98C313.998 239.494 314.684 240.949 314.684 242.148C314.684 243.432 313.913 243.945 313.055 243.432Z" fill="#5B95FF"/>
<path d="M366.73 272.711C366.73 275.022 365.101 275.964 363.129 274.766C361.157 273.653 359.528 270.827 359.528 268.516C359.528 266.204 361.157 265.263 363.129 266.461C365.101 267.66 366.73 270.399 366.73 272.711Z" fill="white"/>
<path d="M323.001 247.284C323.001 248.483 322.144 248.996 321.115 248.397C320.086 247.798 319.229 246.342 319.229 245.058C319.229 243.86 320.086 243.346 321.115 243.945C322.144 244.63 323.001 246.085 323.001 247.284Z" fill="#203E79"/>
<path d="M329.775 251.222C329.775 252.421 328.918 252.935 327.889 252.335C326.86 251.736 326.002 250.281 326.002 248.996C326.002 247.798 326.86 247.284 327.889 247.883C328.918 248.483 329.775 250.024 329.775 251.222Z" fill="#03E59F"/>
<path d="M335.957 256.412C336.695 255.987 336.679 254.58 335.921 253.269C335.164 251.959 333.951 251.242 333.213 251.667C332.475 252.093 332.491 253.5 333.248 254.81C334.006 256.121 335.219 256.838 335.957 256.412Z" fill="#203E79"/>
<path d="M257.408 468.077L137.111 398.731C132.91 396.334 133.425 392.139 138.312 389.314C143.113 386.489 150.402 386.232 154.603 388.629L274.9 457.974C279.101 460.372 278.587 464.567 273.7 467.392C268.898 470.217 261.61 470.474 257.408 468.077Z" fill="#F3F3F3"/>
<path d="M288.447 419.535L287.676 418.251L309.283 405.58C311.941 404.039 315.285 404.039 317.943 405.58L335.777 416.196L335.005 417.48L317.171 406.865C314.942 405.58 312.198 405.495 309.969 406.865L288.447 419.535Z" fill="#D4ECFF"/>
<path d="M288.104 400.443C287.59 400.443 287.161 400.187 286.818 399.759C286.389 399.074 286.646 398.218 287.332 397.789L308.94 385.119C311.855 383.407 315.456 383.407 318.286 385.119L336.12 395.735C336.806 396.163 337.063 397.019 336.634 397.704C336.206 398.389 335.348 398.646 334.662 398.218L316.828 387.602C314.856 386.403 312.369 386.403 310.397 387.602L288.79 400.272C288.619 400.358 288.361 400.443 288.104 400.443Z" fill="#7EC4F7"/>
<path d="M279.187 100.803L149.63 26.0636C145.343 23.5808 141.484 23.5808 138.569 25.3787L122.278 34.796L133.167 36.8507C133.167 37.4499 133.081 37.9636 133.081 38.5629V343.769C133.081 355.926 140.455 369.966 149.544 375.188L277.301 448.9C276.1 452.581 273.699 460.201 273.699 460.201L289.562 450.955C293.249 449.071 295.564 444.277 295.564 437.428V132.222C295.65 120.065 288.276 106.025 279.187 100.803Z" fill="#7EC4F7"/>
<path d="M291.362 361.49C290.848 361.49 290.334 361.233 290.076 360.805C289.648 360.12 289.905 359.264 290.591 358.836L345.209 327.417C345.723 327.16 345.723 326.646 345.723 326.475C345.723 326.304 345.638 325.79 345.209 325.533L316.314 308.925C312.112 306.527 309.54 302.076 309.54 297.196V202.167C309.54 197.972 311.598 194.119 315.027 191.722L319.4 188.811C320.086 188.383 320.944 188.554 321.372 189.154C321.801 189.839 321.63 190.695 321.029 191.123L316.657 194.034C313.998 195.831 312.369 198.828 312.369 202.081V297.11C312.369 300.877 314.427 304.387 317.685 306.271L346.581 322.879C347.867 323.564 348.553 324.848 348.553 326.304C348.553 327.759 347.781 329.043 346.581 329.728L292.048 361.319C291.877 361.49 291.62 361.49 291.362 361.49Z" fill="#7EC4F7"/>
<path d="M133.167 343.683C133.167 355.84 140.541 369.88 149.63 375.103L277.386 448.814C276.186 452.495 273.785 460.115 273.785 460.115L289.648 450.869C293.335 448.985 295.65 444.191 295.65 437.342V132.222C295.65 125.887 293.592 119.038 290.419 113.216L133.167 203.879V343.683Z" fill="#58B4ED"/>
<path d="M262.896 459.345L133.339 384.606C124.25 379.383 116.876 365.257 116.876 353.186V47.8946C116.876 35.7377 124.25 30.173 133.339 35.4809L262.896 110.22C271.985 115.442 279.358 129.568 279.358 141.639V446.845C279.358 459.002 271.985 464.567 262.896 459.345Z" fill="#D4ECFF"/>
<path d="M260.409 449.157L135.911 377.328C129.137 373.39 123.65 362.946 123.65 353.956V53.2024C123.65 44.2132 129.137 40.0182 135.911 43.9563L260.409 115.785C267.183 119.723 272.671 130.167 272.671 139.157V439.996C272.671 448.985 267.183 453.095 260.409 449.157Z" fill="white"/>
<path d="M244.976 347.621L218.396 332.297V330.413L244.976 345.738V347.621Z" fill="white"/>
<path d="M236.916 351.302L218.396 340.687V338.718L236.916 349.419V351.302Z" fill="white"/>
<path d="M234.429 345.738L218.396 336.492V334.608L234.429 343.854V345.738Z" fill="white"/>
<path d="M244.976 351.816L236.916 347.193V345.224L244.976 349.847V351.816Z" fill="white"/>
<path d="M161.376 297.453L142.512 286.58V284.782L161.376 295.655V297.453Z" fill="white"/>
<path d="M173.123 304.216L165.063 299.593V297.795L173.123 302.418V304.216Z" fill="white"/>
<path d="M162.062 301.648L154.003 297.025V295.227L162.062 299.935V301.648Z" fill="white"/>
<path d="M179.554 311.75L165.063 303.36V301.648L179.554 310.038V311.75Z" fill="white"/>
<path d="M189.5 321.338L168.064 308.925V307.212L189.5 319.54V321.338Z" fill="white"/>
<path d="M184.698 310.894L176.639 306.185V304.473L184.698 309.096V310.894Z" fill="white"/>
<path d="M150.573 295.056L142.513 290.347V288.635L150.573 293.258V295.056Z" fill="white"/>
<path d="M164.549 306.956L142.427 294.2V292.402L164.549 305.158V306.956Z" fill="white"/>
<path d="M156.06 305.929L142.685 298.224V296.426L156.06 304.131V305.929Z" fill="white"/>
<path d="M352.411 398.902C351.897 398.902 351.468 398.646 351.125 398.218C350.696 397.533 350.953 396.677 351.639 396.249L407.715 363.202C408.144 362.946 408.23 362.518 408.23 362.346C408.23 362.175 408.144 361.747 407.715 361.49L392.453 352.33C391.767 351.902 391.51 351.046 391.938 350.361C392.367 349.676 393.225 349.419 393.91 349.847L409.173 359.007C410.373 359.692 411.059 360.976 411.059 362.346C411.059 363.716 410.373 365 409.173 365.685L353.097 398.731C352.925 398.817 352.668 398.902 352.411 398.902Z" fill="#7EC4F7"/>
<path d="M363.387 424.244L343.923 413.029L324.459 424.244L343.923 435.459L363.387 424.244Z" fill="#F3F3F3"/>
<path d="M343.923 425.014V412.43L367.159 398.989V411.659L343.923 425.014Z" fill="#721BD5"/>
<path d="M343.923 412.43L320.687 398.989V411.659L343.923 425.014V412.43Z" fill="#7E23DC"/>
<path d="M367.159 398.988L343.923 385.547L320.687 398.988L343.923 412.429L367.159 398.988Z" fill="#983BE9"/>
<path opacity="0.1" d="M416.461 382.122L442.612 367.055C444.242 366.113 443.984 364.486 442.184 363.459L416.89 348.905C415.003 347.877 412.26 347.706 410.63 348.648L384.479 363.716C382.85 364.657 383.107 366.284 384.908 367.311L410.202 381.865C412.088 382.978 414.918 383.064 416.461 382.122Z" fill="#203E79"/>
<path d="M375.819 352.244V340.943H401.199L409.945 335.892C411.917 334.694 415.432 334.865 417.833 336.235L425.978 340.943H451.358V352.586C451.444 353.357 451.015 354.127 449.986 354.727L417.233 373.647C415.261 374.845 411.745 374.674 409.344 373.304L377.705 355.069C376.419 354.127 375.733 353.186 375.819 352.244Z" fill="#5B95FF"/>
<path d="M413.546 335.122C415.003 335.122 416.547 335.55 417.747 336.235L425.893 340.943H451.272V352.587C451.358 353.357 450.929 354.128 449.901 354.727L417.147 373.647C416.204 374.246 414.832 374.418 413.546 374.418V335.122Z" fill="#7EC4F7"/>
<path d="M448.443 340.943H451.273V352.586C451.358 353.357 450.93 354.127 449.901 354.727L448.357 355.583V340.943H448.443Z" fill="#7EC4F7"/>
<path d="M416.718 373.733C415.003 374.503 412.517 374.418 410.459 373.647V360.463H416.718V373.733Z" fill="#7BB1FF"/>
<path d="M417.234 361.918L449.987 342.998C451.959 341.799 451.788 339.83 449.387 338.46L417.834 320.311C415.519 318.941 412.003 318.855 409.946 319.968L377.192 338.889C375.22 340.087 375.391 342.056 377.792 343.426L409.431 361.661C411.746 362.945 415.176 363.117 417.234 361.918Z" fill="#D3E9F8"/>
<path d="M416.633 358.494L444.07 342.656C445.785 341.714 445.528 340.002 443.556 338.889L417.147 323.65C415.175 322.537 412.26 322.366 410.545 323.393L383.107 339.231C381.392 340.173 381.65 341.885 383.622 342.998L410.116 358.322C412.003 359.35 414.918 359.521 416.633 358.494Z" fill="#3A81E8"/>
<path d="M387.909 355.241C387.909 356.097 388.509 357.124 389.195 357.552C389.967 357.98 390.481 357.638 390.481 356.782C390.481 355.926 389.881 354.898 389.195 354.47C388.509 354.042 387.909 354.385 387.909 355.241Z" fill="white"/>
<path d="M383.622 352.758C383.622 353.614 384.222 354.641 384.908 355.07C385.679 355.498 386.194 355.155 386.194 354.299C386.194 353.443 385.594 352.416 384.908 351.988C384.222 351.559 383.622 351.902 383.622 352.758Z" fill="white"/>
<path d="M379.334 350.275C379.334 351.131 379.935 352.158 380.621 352.587C381.392 353.015 381.907 352.672 381.907 351.816C381.907 350.96 381.307 349.933 380.621 349.505C379.935 349.077 379.334 349.419 379.334 350.275Z" fill="white"/>
<path d="M375.819 334.18V322.879H401.199L409.945 317.828C411.917 316.629 415.432 316.801 417.833 318.17L425.978 322.879H451.358V334.522C451.444 335.293 451.015 336.063 449.986 336.662L417.233 355.583C415.261 356.781 411.745 356.61 409.344 355.24L377.705 337.005C376.419 336.149 375.733 335.121 375.819 334.18Z" fill="#5B95FF"/>
<path d="M413.546 317.058C415.003 317.058 416.547 317.486 417.747 318.171L425.893 322.879H451.272V334.522C451.358 335.293 450.929 336.063 449.901 336.663L417.147 355.583C416.204 356.182 414.832 356.353 413.546 356.353V317.058Z" fill="#7EC4F7"/>
<path d="M448.443 322.879H451.273V334.522C451.358 335.293 450.93 336.063 449.901 336.663L448.357 337.519V322.879H448.443Z" fill="#7EC4F7"/>
<path d="M416.718 355.668C415.003 356.439 412.517 356.353 410.459 355.583V342.484H416.718V355.668Z" fill="#7BB1FF"/>
<path d="M417.234 343.854L449.987 324.934C451.959 323.735 451.788 321.766 449.387 320.396L417.834 302.247C415.519 300.877 412.003 300.791 409.946 301.904L377.192 320.824C375.22 322.023 375.391 323.992 377.792 325.362L409.431 343.597C411.746 344.881 415.176 345.052 417.234 343.854Z" fill="#D3E9F8"/>
<path d="M416.632 340.515L444.07 324.677C445.785 323.735 445.528 322.023 443.556 320.91L417.061 305.586C415.089 304.473 412.174 304.302 410.459 305.329L383.021 321.167C381.306 322.109 381.564 323.821 383.536 324.934L410.03 340.258C412.002 341.371 414.918 341.457 416.632 340.515Z" fill="#3A81E8"/>
<path d="M387.909 337.176C387.909 338.033 388.509 339.06 389.195 339.488C389.967 339.916 390.481 339.574 390.481 338.717C390.481 337.861 389.881 336.834 389.195 336.406C388.509 335.978 387.909 336.32 387.909 337.176Z" fill="white"/>
<path d="M383.622 334.694C383.622 335.55 384.222 336.577 384.908 337.005C385.679 337.433 386.194 337.091 386.194 336.235C386.194 335.379 385.594 334.351 384.908 333.923C384.222 333.495 383.622 333.838 383.622 334.694Z" fill="white"/>
<path d="M379.334 332.297C379.334 333.153 379.935 334.18 380.621 334.608C381.392 335.036 381.907 334.694 381.907 333.838C381.907 332.981 381.307 331.954 380.621 331.526C379.935 331.098 379.334 331.44 379.334 332.297Z" fill="white"/>
<path d="M375.819 316.116V304.815H401.199L409.945 299.764C411.917 298.566 415.432 298.737 417.833 300.107L425.978 304.815H451.358V316.458C451.444 317.229 451.015 317.999 449.986 318.599L417.233 337.519C415.261 338.718 411.745 338.546 409.344 337.176L377.705 318.941C376.419 318.085 375.733 317.058 375.819 316.116Z" fill="#5B95FF"/>
<path d="M413.546 298.993C415.003 298.993 416.547 299.421 417.747 300.106L425.893 304.815H451.272V316.458C451.358 317.229 450.929 317.999 449.901 318.598L417.147 337.519C416.204 338.118 414.832 338.289 413.546 338.289V298.993Z" fill="#7EC4F7"/>
<path d="M448.443 304.815H451.273V316.458C451.358 317.229 450.93 317.999 449.901 318.599L448.357 319.455V304.815H448.443Z" fill="#7EC4F7"/>
<path d="M416.718 337.69C415.003 338.461 412.517 338.375 410.459 337.604V324.42H416.718V337.69Z" fill="#7BB1FF"/>
<path d="M417.234 325.876L449.987 306.955C451.959 305.757 451.788 303.788 449.387 302.418L417.834 284.183C415.519 282.813 412.003 282.727 409.946 283.84L377.192 302.76C375.22 303.959 375.391 305.928 377.792 307.298L409.431 325.533C411.746 326.903 415.176 326.989 417.234 325.876Z" fill="#D3E9F8"/>
<path d="M416.632 322.451L444.07 306.613C445.785 305.671 445.528 303.959 443.556 302.846L417.061 287.522C415.089 286.409 412.174 286.237 410.459 287.265L383.021 303.103C381.306 304.045 381.564 305.757 383.536 306.87L410.03 322.194C412.002 323.307 414.918 323.393 416.632 322.451Z" fill="#3A81E8"/>
<path d="M387.909 319.112C387.909 319.968 388.509 320.996 389.195 321.424C389.967 321.852 390.481 321.509 390.481 320.653C390.481 319.797 389.881 318.77 389.195 318.342C388.509 317.914 387.909 318.256 387.909 319.112Z" fill="white"/>
<path d="M383.622 316.715C383.622 317.571 384.222 318.599 384.908 319.027C385.679 319.455 386.194 319.112 386.194 318.256C386.194 317.4 385.594 316.373 384.908 315.945C384.222 315.517 383.622 315.859 383.622 316.715Z" fill="white"/>
<path d="M379.334 314.232C379.334 315.089 379.935 316.116 380.621 316.544C381.392 316.972 381.907 316.63 381.907 315.773C381.907 314.917 381.307 313.89 380.621 313.462C379.935 313.034 379.334 313.376 379.334 314.232Z" fill="white"/>
<path d="M375.819 298.137V286.837H401.199L409.945 281.786C411.917 280.587 415.432 280.758 417.833 282.128L425.978 286.837H451.358V298.48C451.444 299.25 451.015 300.021 449.986 300.62L417.233 319.369C415.261 320.568 411.745 320.397 409.344 319.027L377.705 300.791C376.419 300.021 375.733 299.079 375.819 298.137Z" fill="#5B95FF"/>
<path d="M413.546 281.015C415.003 281.015 416.547 281.443 417.747 282.128L425.893 286.837H451.272V298.48C451.358 299.25 450.929 300.021 449.901 300.62L417.233 319.369C416.289 319.968 414.918 320.14 413.631 320.14V281.015H413.546Z" fill="#7EC4F7"/>
<path d="M448.443 286.751H451.273V298.394C451.358 299.165 450.93 299.935 449.901 300.535L448.357 301.391V286.751H448.443Z" fill="#7EC4F7"/>
<path d="M416.718 319.626C415.003 320.396 412.517 320.311 410.459 319.54V306.356H416.718V319.626Z" fill="#7BB1FF"/>
<path d="M417.234 307.811L449.987 288.891C451.959 287.693 451.788 285.724 449.387 284.354L417.834 266.118C415.519 264.749 412.003 264.663 409.946 265.776L377.192 284.696C375.22 285.895 375.391 287.864 377.792 289.234L409.431 307.469C411.746 308.839 415.176 309.01 417.234 307.811Z" fill="#D3E9F8"/>
<path d="M416.632 304.387L444.07 288.549C445.785 287.607 445.528 285.895 443.556 284.782L417.061 269.457C415.089 268.344 412.174 268.173 410.459 269.2L383.021 285.039C381.306 285.98 381.564 287.693 383.536 288.806L410.03 304.13C412.002 305.243 414.918 305.414 416.632 304.387Z" fill="#3A81E8"/>
<path d="M387.909 301.048C387.909 301.904 388.509 302.932 389.195 303.36C389.967 303.788 390.481 303.445 390.481 302.589C390.481 301.733 389.881 300.706 389.195 300.278C388.509 299.935 387.909 300.278 387.909 301.048Z" fill="white"/>
<path d="M383.622 298.651C383.622 299.507 384.222 300.535 384.908 300.963C385.679 301.391 386.194 301.048 386.194 300.192C386.194 299.336 385.594 298.309 384.908 297.881C384.222 297.453 383.622 297.795 383.622 298.651Z" fill="white"/>
<path d="M379.334 296.168C379.334 297.025 379.935 298.052 380.621 298.48C381.392 298.908 381.907 298.566 381.907 297.709C381.907 296.853 381.307 295.826 380.621 295.398C379.935 294.97 379.334 295.312 379.334 296.168Z" fill="white"/>
<path d="M375.819 280.073V268.773H401.199L409.945 263.721C411.917 262.523 415.432 262.694 417.833 264.064L425.978 268.773H451.358V280.416C451.444 281.186 451.015 281.957 449.986 282.556L417.233 301.476C415.261 302.675 411.745 302.504 409.344 301.134L377.705 282.898C376.419 282.042 375.733 281.015 375.819 280.073Z" fill="#5B95FF"/>
<path d="M413.546 262.951C415.003 262.951 416.547 263.379 417.747 264.064L425.893 268.773H451.272V280.416C451.358 281.186 450.929 281.957 449.901 282.556L417.147 301.476C416.204 302.076 414.832 302.247 413.546 302.247V262.951Z" fill="#7EC4F7"/>
<path d="M448.443 268.772H451.273V280.415C451.358 281.186 450.93 281.956 449.901 282.556L448.357 283.412V268.772H448.443Z" fill="#7EC4F7"/>
<path d="M416.718 301.562C415.003 302.333 412.517 302.247 410.459 301.476V288.292H416.718V301.562Z" fill="#7BB1FF"/>
<path d="M417.234 289.747L449.987 270.827C451.959 269.629 451.788 267.66 449.387 266.29L417.834 248.14C415.519 246.77 412.003 246.685 409.946 247.798L377.192 266.718C375.22 267.917 375.391 269.886 377.792 271.255L409.431 289.491C411.746 290.775 415.176 290.946 417.234 289.747Z" fill="#D3E9F8"/>
<path d="M416.632 286.408L444.07 270.57C445.785 269.628 445.528 267.916 443.556 266.803L417.061 251.479C415.089 250.366 412.174 250.195 410.459 251.222L383.021 267.06C381.306 268.002 381.564 269.714 383.536 270.827L410.03 286.152C412.002 287.179 414.918 287.35 416.632 286.408Z" fill="#3A81E8"/>
<path d="M389.203 283.777L388.945 284.221L402.087 291.801L402.344 291.356L389.203 283.777Z" fill="white"/>
<path d="M387.909 283.07C387.909 283.926 388.509 284.953 389.195 285.382C389.967 285.81 390.481 285.467 390.481 284.611C390.481 283.755 389.881 282.728 389.195 282.3C388.509 281.871 387.909 282.214 387.909 283.07Z" fill="white"/>
<path d="M383.622 280.587C383.622 281.443 384.222 282.471 384.908 282.899C385.679 283.327 386.194 282.984 386.194 282.128C386.194 281.272 385.594 280.245 384.908 279.817C384.222 279.389 383.622 279.731 383.622 280.587Z" fill="white"/>
<path d="M379.334 278.104C379.334 278.96 379.935 279.988 380.621 280.416C381.392 280.844 381.907 280.501 381.907 279.645C381.907 278.789 381.307 277.762 380.621 277.334C379.935 276.991 379.334 277.334 379.334 278.104Z" fill="white"/>
<path d="M375.819 261.924V250.623H401.199L409.945 245.572C411.917 244.373 415.432 244.544 417.833 245.914L425.978 250.623H451.358V262.266C451.444 263.037 451.015 263.807 449.986 264.406L417.233 283.327C415.261 284.525 411.745 284.354 409.344 282.984L377.705 264.578C376.419 263.807 375.733 262.865 375.819 261.924Z" fill="#5B95FF"/>
<path d="M413.546 244.802C415.004 244.802 416.547 245.23 417.747 245.914L425.893 250.623H451.273V262.266C451.358 263.037 450.93 263.807 449.901 264.407L417.147 283.327C416.204 283.926 414.832 284.097 413.546 284.097V244.802Z" fill="#7EC4F7"/>
<path d="M448.443 250.538H451.273V262.181C451.358 262.951 450.93 263.722 449.901 264.321L448.357 265.177V250.538H448.443Z" fill="#7EC4F7"/>
<path d="M416.718 283.412C415.003 284.183 412.517 284.097 410.459 283.327V270.142H416.718V283.412Z" fill="#7BB1FF"/>
<path d="M417.234 271.598L449.987 252.677C451.959 251.479 451.788 249.51 449.387 248.14L417.834 229.99C415.519 228.62 412.003 228.535 409.946 229.648L377.192 248.568C375.22 249.767 375.391 251.736 377.792 253.105L409.431 271.341C411.746 272.625 415.176 272.796 417.234 271.598Z" fill="#D3E9F8"/>
<path d="M377.705 250.794L409.344 269.029C411.659 270.399 415.175 270.485 417.233 269.372L449.986 250.452C450.415 250.195 450.758 249.852 451.015 249.596C451.701 250.709 451.358 251.907 449.986 252.678L417.233 271.598C415.261 272.796 411.745 272.625 409.344 271.255L377.705 253.02C375.905 251.993 375.39 250.537 376.162 249.424C376.505 249.938 377.019 250.366 377.705 250.794Z" fill="white"/>
<path d="M387.909 264.92C387.909 265.776 388.509 266.803 389.195 267.231C389.966 267.659 390.481 267.317 390.481 266.461C390.481 265.605 389.881 264.577 389.195 264.149C388.509 263.721 387.909 264.064 387.909 264.92Z" fill="white"/>
<path d="M400.942 272.026C400.942 272.882 401.542 273.909 402.228 274.337C403 274.765 403.514 274.423 403.514 273.567C403.514 272.71 402.914 271.683 402.228 271.255C401.542 270.827 400.942 271.169 400.942 272.026Z" fill="white"/>
<path d="M400.942 290.775C400.942 291.631 401.542 292.658 402.228 293.086C403 293.514 403.514 293.172 403.514 292.316C403.514 291.46 402.914 290.432 402.228 290.004C401.542 289.576 400.942 289.919 400.942 290.775Z" fill="white"/>
<path d="M383.622 262.438C383.622 263.294 384.222 264.321 384.908 264.749C385.679 265.177 386.194 264.835 386.194 263.979C386.194 263.123 385.594 262.095 384.908 261.667C384.222 261.239 383.622 261.582 383.622 262.438Z" fill="white"/>
<path d="M379.334 259.955C379.334 260.811 379.935 261.838 380.621 262.266C381.392 262.694 381.907 262.352 381.907 261.496C381.907 260.64 381.307 259.612 380.621 259.184C379.935 258.756 379.334 259.099 379.334 259.955Z" fill="white"/>
<path d="M415.261 259.869L430.608 251.051C431.552 250.538 431.466 249.596 430.351 248.911L415.518 240.35C414.403 239.751 412.774 239.665 411.831 240.179L396.483 248.997C395.54 249.51 395.625 250.452 396.74 251.137L411.574 259.698C412.688 260.383 414.317 260.469 415.261 259.869Z" fill="#7EC4F7"/>
<path d="M413.803 252.507L415.946 251.308C416.118 251.222 416.032 251.137 415.946 251.051L413.889 249.853C413.717 249.767 413.546 249.767 413.374 249.853L411.231 251.051C411.059 251.137 411.145 251.222 411.231 251.308L413.288 252.507C413.46 252.592 413.717 252.592 413.803 252.507Z" fill="#D3E9F8"/>
<path d="M430.609 251.051C430.523 251.051 430.437 250.966 430.352 250.966L415.518 242.404C414.403 241.805 412.774 241.719 411.831 242.233L396.569 251.051C395.711 250.452 395.626 249.596 396.483 249.082L411.831 240.264C412.774 239.75 414.403 239.75 415.518 240.435L430.352 248.996C431.466 249.596 431.552 250.538 430.609 251.051Z" fill="#44A6E2"/>
<path d="M418.519 274.252C418.519 275.108 419.119 275.536 419.891 275.022C420.662 274.594 421.263 273.481 421.263 272.625C421.263 271.769 420.662 271.341 419.891 271.855C419.119 272.283 418.519 273.396 418.519 274.252Z" fill="#D3E9F8"/>
<path d="M422.806 271.769C422.806 272.625 423.406 273.053 424.178 272.54C424.95 272.112 425.55 270.999 425.55 270.143C425.55 269.286 424.95 268.858 424.178 269.372C423.492 269.8 422.806 270.913 422.806 271.769Z" fill="#203E79"/>
<path d="M418.519 279.474C418.519 280.33 419.119 280.758 419.891 280.245C420.662 279.817 421.263 278.704 421.263 277.848C421.263 276.992 420.662 276.563 419.891 277.077C419.119 277.505 418.519 278.618 418.519 279.474Z" fill="#D3E9F8"/>
<path d="M422.806 276.991C422.806 277.848 423.406 278.276 424.178 277.762C424.95 277.334 425.55 276.221 425.55 275.365C425.55 274.509 424.95 274.081 424.178 274.594C423.492 275.022 422.806 276.135 422.806 276.991Z" fill="#D3E9F8"/>
<path d="M418.519 292.23C418.519 293.086 419.119 293.514 419.891 293.001C420.662 292.573 421.263 291.46 421.263 290.604C421.263 289.747 420.662 289.319 419.891 289.833C419.119 290.261 418.519 291.288 418.519 292.23Z" fill="#D3E9F8"/>
<path d="M422.806 289.748C422.806 290.604 423.406 291.032 424.178 290.518C424.95 290.09 425.55 288.977 425.55 288.121C425.55 287.265 424.95 286.837 424.178 287.351C423.492 287.779 422.806 288.806 422.806 289.748Z" fill="#D3E9F8"/>
<path d="M418.519 297.453C418.519 298.309 419.119 298.737 419.891 298.223C420.662 297.795 421.263 296.682 421.263 295.826C421.263 294.97 420.662 294.542 419.891 295.055C419.119 295.483 418.519 296.511 418.519 297.453Z" fill="#203E79"/>
<path d="M422.806 294.97C422.806 295.826 423.406 296.254 424.178 295.74C424.95 295.312 425.55 294.199 425.55 293.343C425.55 292.487 424.95 292.059 424.178 292.573C423.492 293.001 422.806 294.028 422.806 294.97Z" fill="#D3E9F8"/>
<path d="M418.519 310.123C418.519 310.979 419.119 311.407 419.891 310.894C420.662 310.466 421.263 309.353 421.263 308.497C421.263 307.64 420.662 307.212 419.891 307.726C419.119 308.154 418.519 309.267 418.519 310.123Z" fill="#D3E9F8"/>
<path d="M422.806 307.641C422.806 308.497 423.406 308.925 424.178 308.411C424.95 307.983 425.55 306.87 425.55 306.014C425.55 305.158 424.95 304.73 424.178 305.243C423.492 305.671 422.806 306.784 422.806 307.641Z" fill="#203E79"/>
<path d="M418.519 315.345C418.519 316.201 419.119 316.63 419.891 316.116C420.662 315.688 421.263 314.575 421.263 313.719C421.263 312.863 420.662 312.435 419.891 312.948C419.119 313.376 418.519 314.489 418.519 315.345Z" fill="#D3E9F8"/>
<path d="M422.806 312.862C422.806 313.719 423.406 314.147 424.178 313.633C424.95 313.205 425.55 312.092 425.55 311.236C425.55 310.38 424.95 309.952 424.178 310.465C423.492 310.893 422.806 312.006 422.806 312.862Z" fill="#203E79"/>
<path d="M418.519 328.273C418.519 329.129 419.119 329.557 419.891 329.043C420.662 328.615 421.263 327.502 421.263 326.646C421.263 325.79 420.662 325.362 419.891 325.876C419.119 326.304 418.519 327.417 418.519 328.273Z" fill="#203E79"/>
<path d="M422.806 325.79C422.806 326.646 423.406 327.074 424.178 326.56C424.95 326.132 425.55 325.019 425.55 324.163C425.55 323.307 424.95 322.879 424.178 323.393C423.492 323.821 422.806 324.934 422.806 325.79Z" fill="#D3E9F8"/>
<path d="M418.519 333.495C418.519 334.351 419.119 334.779 419.891 334.266C420.662 333.838 421.263 332.725 421.263 331.869C421.263 331.013 420.662 330.584 419.891 331.098C419.119 331.526 418.519 332.554 418.519 333.495Z" fill="#D3E9F8"/>
<path d="M422.806 331.012C422.806 331.869 423.406 332.297 424.178 331.783C424.95 331.355 425.55 330.242 425.55 329.386C425.55 328.53 424.95 328.102 424.178 328.615C423.492 329.043 422.806 330.071 422.806 331.012Z" fill="#203E79"/>
<path d="M418.519 346.165C418.519 347.022 419.119 347.45 419.891 346.936C420.662 346.508 421.263 345.395 421.263 344.539C421.263 343.683 420.662 343.255 419.891 343.768C419.119 344.196 418.519 345.309 418.519 346.165Z" fill="#203E79"/>
<path d="M422.806 343.768C422.806 344.625 423.406 345.053 424.178 344.539C424.95 344.111 425.55 342.998 425.55 342.142C425.55 341.286 424.95 340.858 424.178 341.371C423.492 341.799 422.806 342.827 422.806 343.768Z" fill="#D3E9F8"/>
<path d="M418.519 351.388C418.519 352.244 419.119 352.672 419.891 352.159C420.662 351.731 421.263 350.618 421.263 349.761C421.263 348.905 420.662 348.477 419.891 348.991C419.119 349.419 418.519 350.532 418.519 351.388Z" fill="#203E79"/>
<path d="M422.806 348.905C422.806 349.761 423.406 350.189 424.178 349.676C424.95 349.248 425.55 348.135 425.55 347.279C425.55 346.422 424.95 345.994 424.178 346.508C423.492 346.936 422.806 348.049 422.806 348.905Z" fill="#D3E9F8"/>
<path d="M418.519 364.401C418.519 365.257 419.119 365.685 419.891 365.171C420.662 364.743 421.263 363.63 421.263 362.774C421.263 361.918 420.662 361.49 419.891 362.004C419.119 362.432 418.519 363.459 418.519 364.401Z" fill="#D3E9F8"/>
<path d="M422.806 361.918C422.806 362.774 423.406 363.202 424.178 362.689C424.95 362.261 425.55 361.148 425.55 360.292C425.55 359.435 424.95 359.007 424.178 359.521C423.492 359.949 422.806 360.976 422.806 361.918Z" fill="#203E79"/>
<path d="M418.519 369.623C418.519 370.48 419.119 370.908 419.891 370.394C420.662 369.966 421.263 368.853 421.263 367.997C421.263 367.141 420.662 366.713 419.891 367.226C419.119 367.654 418.519 368.682 418.519 369.623Z" fill="#D3E9F8"/>
<path d="M422.806 367.141C422.806 367.997 423.406 368.425 424.178 367.911C424.95 367.483 425.55 366.37 425.55 365.514C425.55 364.658 424.95 364.23 424.178 364.743C423.492 365.171 422.806 366.199 422.806 367.141Z" fill="#D3E9F8"/>
<path d="M193.273 103.2L139.169 71.9513C137.711 71.0952 136.597 69.1261 136.597 67.4995C136.597 65.8728 137.711 65.188 139.169 66.0441L193.273 97.2067C194.73 98.0629 195.845 100.032 195.845 101.659C195.845 103.285 194.73 103.97 193.273 103.2Z" fill="#BAE1FF"/>
<path d="M193.273 127.257L139.169 96.0939C137.711 95.2377 136.597 93.2687 136.597 91.642C136.597 90.0154 137.711 89.3305 139.169 90.1866L193.273 121.349C194.73 122.205 195.845 124.174 195.845 125.801C195.845 127.428 194.73 128.113 193.273 127.257Z" fill="#BAE1FF"/>
<path d="M243.346 156.193L203.047 132.992C201.59 132.136 200.475 130.167 200.475 128.54C200.475 126.914 201.59 126.229 203.047 127.085L243.346 150.286C244.804 151.142 245.919 153.111 245.919 154.738C245.919 156.279 244.804 156.964 243.346 156.193Z" fill="#BAE1FF"/>
<path d="M215.309 152.084L139.169 108.165C137.711 107.309 136.597 105.34 136.597 103.713C136.597 102.087 137.711 101.402 139.169 102.258L215.309 146.177C216.766 147.033 217.881 149.002 217.881 150.629C217.881 152.255 216.766 152.854 215.309 152.084Z" fill="#BAE1FF"/>
<path d="M230.742 160.902L223.54 156.707C222.082 155.851 220.968 153.882 220.968 152.255C220.968 150.628 222.082 149.944 223.54 150.8L230.742 154.995C232.2 155.851 233.314 157.82 233.314 159.446C233.314 161.073 232.114 161.758 230.742 160.902Z" fill="#BAE1FF"/>
<path d="M258.094 188.725L139.169 120.236C137.711 119.38 136.597 117.411 136.597 115.784C136.597 114.158 137.711 113.473 139.169 114.329L258.094 182.904C259.552 183.76 260.666 185.729 260.666 187.356C260.666 188.897 259.466 189.581 258.094 188.725Z" fill="#BAE1FF"/>
<path d="M220.882 179.394L139.169 132.307C137.711 131.451 136.597 129.482 136.597 127.856C136.597 126.229 137.711 125.544 139.169 126.4L220.882 173.487C222.339 174.343 223.454 176.312 223.454 177.939C223.454 179.48 222.254 180.164 220.882 179.394Z" fill="#BAE1FF"/>
<path d="M220.882 191.465L139.169 144.379C137.711 143.523 136.597 141.554 136.597 139.927C136.597 138.301 137.711 137.616 139.169 138.472L220.882 185.558C222.339 186.414 223.454 188.383 223.454 190.01C223.454 191.551 222.254 192.236 220.882 191.465Z" fill="#BAE1FF"/>
<path d="M220.882 203.451L139.169 156.365C137.711 155.509 136.597 153.539 136.597 151.913C136.597 150.286 137.711 149.601 139.169 150.457L220.882 197.544C222.339 198.4 223.454 200.369 223.454 201.996C223.454 203.622 222.254 204.307 220.882 203.451Z" fill="#BAE1FF"/>
<path d="M220.882 215.522L139.169 168.436C137.711 167.58 136.597 165.61 136.597 163.984C136.597 162.357 137.711 161.672 139.169 162.528L220.882 209.615C222.339 210.471 223.454 212.44 223.454 214.067C223.454 215.693 222.254 216.378 220.882 215.522Z" fill="#BAE1FF"/>
<path d="M220.882 227.594L139.169 180.507C137.711 179.651 136.597 177.682 136.597 176.055C136.597 174.429 137.711 173.744 139.169 174.6L220.882 221.686C222.339 222.543 223.454 224.512 223.454 226.138C223.454 227.765 222.254 228.45 220.882 227.594Z" fill="#BAE1FF"/>
<path d="M220.882 239.664L139.169 192.578C137.711 191.722 136.597 189.753 136.597 188.126C136.597 186.5 137.711 185.815 139.169 186.671L220.882 233.757C222.339 234.613 223.454 236.582 223.454 238.209C223.454 239.836 222.254 240.521 220.882 239.664Z" fill="#BAE1FF"/>
<path d="M220.882 251.736L139.169 204.65C137.711 203.793 136.597 201.824 136.597 200.198C136.597 198.571 137.711 197.886 139.169 198.742L220.882 245.829C222.339 246.685 223.454 248.654 223.454 250.281C223.454 251.907 222.254 252.506 220.882 251.736Z" fill="#BAE1FF"/>
<path d="M220.882 263.807L139.169 216.721C137.711 215.865 136.597 213.896 136.597 212.269C136.597 210.642 137.711 209.957 139.169 210.814L220.882 257.9C222.339 258.756 223.454 260.725 223.454 262.352C223.454 263.978 222.254 264.578 220.882 263.807Z" fill="#BAE1FF"/>
<path d="M220.882 275.878L139.169 228.792C137.711 227.936 136.597 225.967 136.597 224.34C136.597 222.713 137.711 222.029 139.169 222.885L220.882 269.971C222.339 270.827 223.454 272.796 223.454 274.423C223.454 275.964 222.254 276.649 220.882 275.878Z" fill="#BAE1FF"/>
<path d="M220.882 287.864L139.169 240.777C137.711 239.921 136.597 237.952 136.597 236.326C136.597 234.699 137.711 234.014 139.169 234.87L220.882 281.957C222.339 282.813 223.454 284.782 223.454 286.409C223.454 288.035 222.254 288.72 220.882 287.864Z" fill="#BAE1FF"/>
<path d="M220.882 299.935L139.169 252.849C137.711 251.993 136.597 250.024 136.597 248.397C136.597 246.771 137.711 246.086 139.169 246.942L220.882 294.028C222.339 294.884 223.454 296.853 223.454 298.48C223.454 300.107 222.254 300.792 220.882 299.935Z" fill="#BAE1FF"/>
<path d="M193.273 296.168L139.169 264.92C137.711 264.064 136.597 262.095 136.597 260.468C136.597 258.841 137.711 258.156 139.169 259.013L193.273 290.175C194.73 291.031 195.845 293 195.845 294.627C195.845 296.254 194.73 296.939 193.273 296.168Z" fill="#BAE1FF"/>
<path d="M257.151 332.981L203.047 301.819C201.59 300.963 200.475 298.994 200.475 297.367C200.475 295.74 201.59 295.055 203.047 295.912L257.151 327.074C258.609 327.93 259.723 329.899 259.723 331.526C259.723 333.153 258.609 333.752 257.151 332.981Z" fill="#BAE1FF"/>
<path d="M220.882 324.078L139.169 276.991C137.711 276.135 136.597 274.166 136.597 272.539C136.597 270.913 137.711 270.228 139.169 271.084L220.882 318.171C222.339 319.027 223.454 320.996 223.454 322.622C223.454 324.249 222.254 324.934 220.882 324.078Z" fill="#BAE1FF"/>
<path d="M243.003 336.834L230.228 329.471C228.77 328.615 227.656 326.646 227.656 325.019C227.656 323.393 228.77 322.708 230.228 323.564L243.003 330.927C244.461 331.783 245.576 333.752 245.576 335.378C245.49 337.005 244.375 337.604 243.003 336.834Z" fill="#BAE1FF"/>
<path d="M251.578 353.871L201.59 325.105C200.132 324.249 199.017 322.28 199.017 320.653C199.017 319.027 200.132 318.342 201.59 319.198L251.578 347.963C253.035 348.819 254.15 350.789 254.15 352.415C254.15 354.042 253.035 354.641 251.578 353.871Z" fill="#BAE1FF"/>
<path d="M193.273 320.225L139.169 289.063C137.711 288.207 136.597 286.238 136.597 284.611C136.597 282.984 137.711 282.3 139.169 283.156L193.273 314.318C194.73 315.174 195.845 317.143 195.845 318.77C195.845 320.397 194.73 321.082 193.273 320.225Z" fill="#BAE1FF"/>
<path d="M165.749 316.373L139.169 301.134C137.711 300.278 136.597 298.309 136.597 296.682C136.597 295.055 137.711 294.371 139.169 295.227L165.664 310.551C167.121 311.407 168.236 313.376 168.236 315.003C168.236 316.544 167.121 317.229 165.749 316.373Z" fill="#BAE1FF"/>
<path d="M228.513 352.587L174.409 321.424C172.952 320.568 171.837 318.599 171.837 316.972C171.837 315.346 172.952 314.661 174.409 315.517L228.513 346.679C229.97 347.535 231.085 349.505 231.085 351.131C231.085 352.758 229.885 353.443 228.513 352.587Z" fill="#BAE1FF"/>
<path d="M179.468 336.406L139.169 313.205C137.711 312.349 136.597 310.38 136.597 308.753C136.597 307.127 137.711 306.442 139.169 307.298L179.468 330.499C180.926 331.355 182.04 333.324 182.04 334.951C182.04 336.577 180.926 337.262 179.468 336.406Z" fill="#BAE1FF"/>
<path d="M234.686 380.239L139.169 325.276C137.711 324.42 136.597 322.451 136.597 320.824C136.597 319.198 137.711 318.513 139.169 319.369L234.601 374.417C236.058 375.273 237.173 377.243 237.173 378.869C237.173 380.41 236.058 381.095 234.686 380.239Z" fill="#BAE1FF"/>
<path d="M151.945 344.624L139.169 337.262C137.711 336.406 136.597 334.437 136.597 332.81C136.597 331.183 137.711 330.498 139.169 331.355L151.945 338.717C153.402 339.573 154.517 341.542 154.517 343.169C154.517 344.796 153.317 345.481 151.945 344.624Z" fill="#BAE1FF"/>
<path d="M251.235 426.041L230.228 413.97C228.77 413.114 227.656 411.145 227.656 409.518C227.656 407.892 228.77 407.207 230.228 408.063L251.235 420.134C252.692 420.99 253.807 422.959 253.807 424.586C253.807 426.213 252.607 426.812 251.235 426.041Z" fill="#BAE1FF"/>
<path d="M201.247 373.048L160.948 349.847C159.49 348.991 158.375 347.022 158.375 345.395C158.375 343.769 159.49 343.084 160.948 343.94L201.247 367.141C202.704 367.997 203.819 369.966 203.819 371.592C203.819 373.219 202.619 373.904 201.247 373.048Z" fill="#BAE1FF"/>
<path d="M242.918 409.176L139.169 349.333C137.711 348.477 136.597 346.508 136.597 344.881C136.597 343.255 137.711 342.57 139.169 343.426L242.918 403.268C244.375 404.125 245.49 406.094 245.49 407.72C245.49 409.347 244.375 409.946 242.918 409.176Z" fill="#BAE1FF"/>
<path d="M220.882 408.491L139.169 361.405C137.711 360.549 136.597 358.579 136.597 356.953C136.597 355.326 137.711 354.641 139.169 355.497L220.882 402.584C222.339 403.44 223.454 405.409 223.454 407.036C223.454 408.662 222.254 409.347 220.882 408.491Z" fill="#BAE1FF"/>
<path d="M220.882 131.109L139.169 84.0226C137.711 83.1664 136.597 81.1974 136.597 79.5708C136.597 77.9441 137.711 77.2592 139.169 78.1154L220.882 125.202C222.339 126.058 223.454 128.027 223.454 129.654C223.454 131.28 222.254 131.965 220.882 131.109Z" fill="#BAE1FF"/>
<path d="M260.409 294.713V209.273L228.684 187.014C212.65 175.799 196.531 166.467 180.497 159.19L148.772 144.807L135.996 152.341L150.144 162.614V229.477C150.144 229.477 148.429 284.012 205.962 346.851C213.336 347.279 219.767 346.765 225.34 345.481L224.397 348.563L235.715 341.971C236.658 341.457 237.601 340.858 238.545 340.344L238.716 340.259C261.352 325.533 260.409 294.713 260.409 294.713Z" fill="#721BD5"/>
<path d="M204.505 171.689C196.445 167.066 188.471 162.957 180.497 159.276L148.772 144.893L135.997 152.427L150.144 162.7V203.023L204.505 171.689Z" fill="#7E23DC"/>
<path d="M193.444 165.611L166.693 181.021L188.728 193.691L215.48 178.281C208.192 173.658 200.818 169.378 193.444 165.611Z" fill="#7E23DC"/>
<path d="M247.634 302.161V216.721L215.909 194.462C199.875 183.247 183.755 173.915 167.721 166.638L135.997 152.255V237.696C135.997 237.696 134.282 292.231 191.815 355.07C249.348 358.665 247.634 302.161 247.634 302.161Z" fill="#983BE9"/>
<path d="M225.512 335.807C218.567 342.484 208.706 345.909 196.188 345.738C145 288.121 145.514 238.552 145.514 238.038V167.152L163.777 175.37C179.211 182.391 194.902 191.465 210.421 202.252L238.116 221.601V301.99V302.247C238.03 302.675 238.373 323.393 225.512 335.807Z" fill="#721BD5"/>
<path d="M187.871 259.099C187.871 254.39 191.215 252.507 195.331 254.904C199.446 257.301 202.704 262.951 202.704 267.66C202.704 270.571 201.418 272.369 199.532 272.797V280.844C199.532 282.214 199.018 283.156 198.246 283.584C197.474 284.012 196.445 283.926 195.245 283.241C192.93 281.872 191.043 278.618 191.043 275.964V267.917C189.071 265.263 187.871 261.924 187.871 259.099ZM184.784 222.971C184.784 216.293 189.5 213.639 195.331 216.978C201.161 220.317 205.877 228.45 205.791 235.128V246L184.699 233.843L184.784 222.971ZM195.416 209.615C186.07 204.222 178.268 207.903 174.752 216.636L178.354 230.248L177.753 229.905C173.466 227.423 165.578 231.361 165.578 236.241L169.865 271.341C169.865 276.221 173.295 282.214 177.582 284.697L209.049 308.154C213.337 310.637 220.539 305.5 220.539 300.535L220.625 263.465C220.625 258.585 217.195 252.592 212.908 250.11L212.308 249.767V238.895C212.393 228.107 204.762 215.009 195.416 209.615Z" fill="#F2B42A"/>
<path d="M183.412 261.838C183.412 257.13 186.756 255.246 190.872 257.643C194.988 260.041 198.246 265.691 198.246 270.4C198.246 273.31 196.96 275.108 195.073 275.536V283.584C195.073 284.954 194.559 285.895 193.787 286.323C193.016 286.751 191.987 286.666 190.786 285.981C188.471 284.611 186.585 281.358 186.585 278.704V270.656C184.613 268.002 183.412 264.749 183.412 261.838ZM180.411 225.796C180.411 219.118 185.127 216.464 190.958 219.803C196.788 223.142 201.504 231.275 201.418 237.953V248.825L180.326 236.669L180.411 225.796ZM190.958 212.355C181.612 206.961 173.981 211.327 173.895 222.029V232.902L173.295 232.559C169.008 230.076 165.578 232.046 165.492 237.011L165.406 274.081C165.406 278.961 168.836 284.954 173.123 287.436L208.278 307.726C212.565 310.209 215.995 308.24 216.08 303.275L216.166 266.205C216.166 261.325 212.736 255.332 208.449 252.849L207.849 252.507V241.634C207.935 230.933 200.304 217.748 190.958 212.355Z" fill="#FDD762"/>
<path d="M138.826 441.195C123.05 432.12 97.4983 432.12 81.7216 441.195C65.945 450.269 65.945 464.995 81.7216 474.155C97.4983 483.23 123.05 483.23 138.826 474.155C154.603 465.08 154.603 450.355 138.826 441.195ZM109.331 457.974C105.301 460.286 98.6987 460.286 94.6688 457.974C90.6389 455.663 90.6389 451.81 94.6688 449.499C98.6987 447.187 105.301 447.187 109.331 449.499C113.361 451.896 113.361 455.663 109.331 457.974Z" fill="#B2D3EA"/>
<path d="M147.401 466.878C145.257 468.933 142.685 470.988 139.598 472.7C136.511 474.498 133.082 475.953 129.395 477.237L137.111 481.689L148.772 482.288L154.517 485.627L152.202 486.997L156.575 489.48L161.291 486.74L168.922 491.106L161.291 495.558L166.95 498.811L172.437 501.979L179.211 498.041L189.243 503.862L185.385 506.088L191.815 509.855L195.674 507.629L198.675 509.342L195.588 515.42L205.363 521.07H241.289L147.401 466.878Z" fill="#B2D3EA"/>
<path d="M150.659 454.465V443.592L147.401 445.39C145.428 442.736 142.599 440.253 138.826 438.027C123.05 428.952 97.4983 428.952 81.7217 438.027C77.3488 440.51 74.1763 443.506 72.2042 446.674L69.8892 443.592V454.465C69.8892 460.457 73.8333 466.365 81.7217 470.988C97.4983 480.062 123.05 480.062 138.826 470.988C146.715 466.45 150.659 460.457 150.659 454.465ZM109.159 447.359C105.129 449.67 98.5272 449.67 94.4973 447.359C90.4674 445.047 90.4674 441.195 94.4973 438.883C98.5272 436.572 105.129 436.572 109.159 438.883C113.275 441.28 113.275 445.047 109.159 447.359Z" fill="#E8A200"/>
<path d="M106.93 463.111L89.5242 454.55L74.0048 444.277C73.3188 445.047 72.8044 445.818 72.2899 446.674L69.9749 443.592V454.464C69.9749 460.457 73.919 466.365 81.8073 470.988C88.8382 475.011 97.8412 477.237 107.016 477.751V463.111H106.93Z" fill="#FDD762"/>
<path d="M138.826 427.155C123.05 418.08 97.4983 418.08 81.7216 427.155C65.945 436.229 65.945 450.955 81.7216 460.115C97.4983 469.19 123.05 469.19 138.826 460.115C154.603 450.955 154.603 436.229 138.826 427.155ZM109.331 443.849C105.301 446.16 98.6987 446.16 94.6688 443.849C90.6389 441.537 90.6389 437.685 94.6688 435.373C98.6987 433.062 105.301 433.062 109.331 435.373C113.361 437.77 113.361 441.537 109.331 443.849Z" fill="#FDD762"/>
<path d="M117.219 432.891H95.2689C93.2968 433.319 91.3247 433.918 89.4384 434.603V453.181H117.219V432.891ZM109.159 447.359C105.129 449.671 98.5271 449.671 94.4972 447.359C90.4673 445.048 90.4673 441.195 94.4972 438.883C98.5271 436.572 105.129 436.572 109.159 438.883C113.275 441.281 113.275 445.048 109.159 447.359Z" fill="#E8A200"/>
<path d="M135.482 429.038C121.592 420.99 99.0417 420.99 85.1514 429.038C71.2611 437.085 71.2611 450.012 85.1514 458.06C99.0417 466.107 121.592 466.107 135.482 458.06C149.373 450.098 149.373 437.085 135.482 429.038ZM109.331 443.848C105.301 446.16 98.6987 446.16 94.6688 443.848C90.6389 441.537 90.6389 437.684 94.6688 435.373C98.6987 433.061 105.301 433.061 109.331 435.373C113.361 437.77 113.361 441.537 109.331 443.848Z" fill="#F2B42A"/>
<path d="M85.1513 432.034C99.0416 423.986 121.592 423.986 135.482 432.034C141.741 435.63 145.171 440.338 145.771 445.047C146.457 439.311 143.028 433.404 135.482 429.038C121.592 420.99 99.0416 420.99 85.1513 429.038C77.5202 433.404 74.0905 439.311 74.8622 445.047C75.3766 440.338 78.8063 435.715 85.1513 432.034Z" fill="#E8A200"/>
<path d="M147.401 463.539C145.257 465.594 142.685 467.649 139.598 469.361C136.511 471.159 133.082 472.614 129.395 473.898L137.111 478.35L148.772 478.949L154.517 482.288L152.202 483.658L156.575 486.141L161.291 483.401L168.922 487.767L161.291 492.219L166.95 495.473L172.437 498.64L179.211 494.702L189.243 500.524L185.385 502.75L191.815 506.516L195.674 504.291L198.675 506.003L195.588 512.081L205.363 517.732H241.289L147.401 463.539Z" fill="#F2B42A"/>
<path d="M147.401 455.663C145.257 457.718 142.685 459.772 139.598 461.485C136.511 463.283 133.082 464.738 129.395 466.022L137.111 470.474L148.772 471.073L154.517 474.412L152.202 475.782L156.575 478.265L161.291 475.525L168.922 479.891L161.291 484.343L166.95 487.596L172.437 490.764L179.211 486.826L189.243 492.647L185.385 494.873L191.815 498.64L195.674 496.414L198.675 498.127L195.588 504.205L205.363 509.855H241.289L147.401 455.663Z" fill="#FDD762"/>
<path d="M241.289 509.855H205.363V517.731H241.289V509.855Z" fill="#E8A200"/>
<path d="M191.729 506.517V498.64L195.588 496.415V504.291L191.729 506.517Z" fill="#E8A200"/>
<path d="M185.299 494.873V502.75L191.73 506.516V498.64L185.299 494.873Z" fill="#EEAD00"/>
<path d="M179.04 486.826V494.702L172.266 498.64V490.764L179.04 486.826Z" fill="#E8A200"/>
<path d="M161.205 484.428V492.305L172.266 498.64V490.764L161.205 484.428Z" fill="#EEAD00"/>
<path d="M195.588 504.291V512.081L205.363 517.732V509.856L195.588 504.291Z" fill="#EEAD00"/>
<path d="M156.489 478.264V486.141L152.202 483.658V475.782L156.489 478.264Z" fill="#EEAD00"/>
<path d="M137.112 470.56V478.436L148.773 479.035V471.159L137.112 470.56Z" fill="#E8A200"/>
<path d="M216.766 504.29L148.001 464.566L151.859 462.426L224.398 504.29H216.766Z" fill="#E8A200"/>
<path d="M151.859 464.309L221.139 504.29H224.398L151.859 462.426L148.001 464.566L149.63 465.508L151.859 464.309Z" fill="#F2B42A"/>
<path d="M137.111 478.436V470.559L129.395 466.108V473.984L137.111 478.436Z" fill="#E8A200"/>
<path d="M161.205 475.611V483.487L156.489 486.141V478.265L161.205 475.611Z" fill="#E8A200"/>
<path d="M135.482 429.038C127.68 424.501 117.133 422.531 106.93 423.131V426.127C117.133 425.528 127.68 427.583 135.482 432.034C141.741 435.63 145.171 440.339 145.771 445.047C146.543 439.311 143.113 433.49 135.482 429.038Z" fill="#FDD762"/>
<path d="M38.3358 376.13C53.4419 376.13 65.6877 369.077 65.6877 360.378C65.6877 351.678 53.4419 344.625 38.3358 344.625C23.2298 344.625 10.9839 351.678 10.9839 360.378C10.9839 369.077 23.2298 376.13 38.3358 376.13Z" fill="#F3F3F3"/>
<path d="M50.9398 350.789C50.1681 350.361 49.3107 349.933 48.4533 349.591L43.6517 347.45L43.9947 348.306C40.3935 347.621 36.4493 347.536 32.7624 348.221L33.0196 347.279L27.3606 349.762C26.5889 350.104 25.903 350.447 25.217 350.789C18.1861 354.899 18.1861 361.491 25.217 365.514C32.2479 369.624 43.7374 369.624 50.7683 365.514C57.9707 361.491 57.9707 354.899 50.9398 350.789Z" fill="#983BE9"/>
<path d="M44.1661 354.641C40.8222 356.525 35.5061 356.525 32.1621 354.641C28.8182 352.758 28.8182 349.676 32.1621 347.707C35.5061 345.823 40.8222 345.823 44.1661 347.707C47.4243 349.676 47.4243 352.758 44.1661 354.641Z" fill="#8A2AE3"/>
<path d="M38.1642 352.501C36.535 352.501 35.2489 351.217 35.2489 349.591V313.291H40.9937V349.591C41.0794 351.217 39.7933 352.501 38.1642 352.501Z" fill="#8A2AE3"/>
<path d="M40.2214 314.575C39.1068 315.26 37.2204 315.26 36.1058 314.575C34.9911 313.89 34.9911 312.863 36.1058 312.178C37.2204 311.493 39.1068 311.493 40.2214 312.178C41.3361 312.863 41.3361 313.976 40.2214 314.575Z" fill="#983BE9"/>
<path d="M38.1642 314.575C36.878 314.575 35.8491 313.548 35.8491 312.264V278.104H40.4792V312.264C40.4792 313.462 39.4503 314.575 38.1642 314.575Z" fill="#8A2AE3"/>
<path d="M71.6895 295.997V294.628L73.5758 294.371L75.7194 292.83C76.0623 292.573 76.7483 292.573 77.0912 292.744L78.6346 293.686L80.178 293.429V294.799C80.178 294.97 80.0922 295.141 79.835 295.227L74.8619 297.453C74.4332 297.624 73.9188 297.624 73.5758 297.367L71.9467 296.425C71.7752 296.254 71.6895 296.083 71.6895 295.997Z" fill="#B45EF4"/>
<path d="M71.9467 294.285L75.7193 291.46C76.0623 291.203 76.7483 291.203 77.0912 291.374L79.9207 293.001C80.3495 293.258 80.2637 293.6 79.835 293.772L74.8619 295.998C74.4332 296.169 73.9188 296.169 73.5758 295.912L71.9467 294.97C71.6894 294.799 71.6037 294.457 71.9467 294.285Z" fill="#8A2AE3"/>
<path d="M65.516 300.706C66.0305 300.706 66.6307 300.62 67.0594 300.363L72.9756 296.939C73.3186 296.768 73.4044 296.34 73.2329 295.997C73.0614 295.655 72.6327 295.569 72.2897 295.74L66.3735 299.165C65.9447 299.422 65.1731 299.422 64.6586 299.165L54.7982 293.515C54.4552 293.343 54.0265 293.429 53.855 293.771C53.6835 294.114 53.7693 294.542 54.1123 294.713L63.9727 300.363C64.4014 300.62 64.9158 300.706 65.516 300.706Z" fill="#B45EF4"/>
<path d="M8.6687 288.207L18.1004 282.727L12.7844 280.33L8.23999 283.498L8.6687 288.207Z" fill="url(#paint0_radial)"/>
<path d="M69.6318 280.074C69.1173 279.817 68.6029 279.474 68.0027 279.046L47.7674 264.235C44.0805 261.581 40.3935 260.897 37.4783 262.352C37.3925 262.352 37.3068 262.438 37.221 262.523L9.26892 278.704L11.7555 279.56L21.5301 284.012L34.8202 293.429L45.3666 298.994L45.8811 299.079C48.3676 297.025 51.1114 295.227 52.569 292.23C55.1413 287.693 62.4294 286.409 66.7165 282.728C67.1452 282.984 67.5739 283.241 68.0027 283.498C68.8601 282.556 69.1173 281.358 69.6318 280.074Z" fill="#8A2AE3"/>
<path d="M78.4633 273.396C78.0346 273.396 77.6059 273.567 77.3487 273.824L49.9968 289.577L51.0257 293.686L52.0546 293.172C50.5112 295.569 48.1104 297.196 45.8811 299.079L48.9678 299.764L75.7196 284.097C75.8053 284.012 75.9768 284.012 76.0625 283.926C76.4055 283.755 76.7485 283.498 77.0914 283.241H77.1772C79.235 281.7 80.3497 278.961 80.3497 275.536V275.194C80.3497 274.167 79.4922 273.396 78.4633 273.396Z" fill="#721BD5"/>
<path d="M40.9935 261.582C42.7084 261.667 44.509 262.266 46.3953 263.294C44.5947 262.266 42.7084 261.667 40.9935 261.582Z" fill="#EAEAEA"/>
<path d="M53.5121 290.861V290.518C53.5121 289.491 52.6546 288.635 51.6257 288.635C50.5968 288.635 49.7394 289.491 49.7394 290.518V290.861C49.7394 293.343 48.9677 295.227 47.5101 295.912C45.9667 296.682 43.5659 296.083 41.0794 294.371L20.8441 279.56C17.7574 277.248 14.4992 276.478 11.8411 277.163L28.561 267.489L9.18311 278.704L11.6696 279.56L21.4443 284.012L34.7344 293.429L45.2808 298.994L45.7952 299.079C48.2818 297.025 51.0255 295.227 52.4832 292.23C52.7404 291.802 53.0834 291.374 53.4263 290.946C53.5121 290.946 53.5121 290.861 53.5121 290.861Z" fill="#B45EF4"/>
<path d="M45.3666 300.62C43.1373 300.62 40.7365 299.679 38.3357 297.966L18.1004 283.156C15.6996 281.358 13.2988 280.758 11.6697 281.615C10.2978 282.299 9.4404 284.183 9.4404 286.666C9.4404 287.693 8.58298 288.549 7.55406 288.549C6.52515 288.549 5.66772 287.693 5.66772 286.666C5.66772 282.728 7.21109 279.646 9.95486 278.276C12.8701 276.82 16.6428 277.505 20.244 280.159L40.565 294.97C42.9658 296.768 45.3666 297.367 46.9957 296.511C48.3676 295.826 49.225 293.943 49.225 291.46V291.117C49.225 290.09 50.0824 289.234 51.1113 289.234C52.1403 289.234 52.9977 290.09 52.9977 291.117V291.46C52.9977 295.398 51.4543 298.48 48.7106 299.85C47.6816 300.364 46.567 300.62 45.3666 300.62Z" fill="#983BE9"/>
<path d="M29.5042 333.752C29.5042 333.752 25.7315 331.869 23.3308 334.694C21.0157 337.519 17.6717 344.282 17.5002 348.82C17.4145 353.357 21.1014 353.101 23.3308 351.988C25.5601 350.875 31.9908 341.543 32.4195 339.745C32.8482 337.947 31.9908 335.464 31.3048 334.951C30.7046 334.437 29.5042 333.752 29.5042 333.752Z" fill="#173D7A"/>
<path d="M30.2759 332.811L30.4474 336.749C30.4474 337.605 30.1044 338.375 29.3327 338.803C28.6468 339.146 27.7036 339.488 26.4175 339.232C23.588 338.803 23.3307 337.947 23.0735 334.009C22.902 330.071 30.2759 332.811 30.2759 332.811Z" fill="#E8A200"/>
<path d="M15.5283 326.133C15.5283 326.133 11.7556 324.249 9.3548 327.074C7.03975 329.9 3.69578 336.663 3.5243 341.2C3.43855 345.738 7.12549 345.481 9.3548 344.368C11.5841 343.255 18.0148 333.923 18.4435 332.125C18.8722 330.328 18.0148 327.845 17.3289 327.331C16.7287 326.903 15.5283 326.133 15.5283 326.133Z" fill="#173D7A"/>
<path d="M16.3856 325.191L16.5571 329.129C16.5571 329.985 16.2142 330.756 15.4425 331.184C14.7565 331.526 13.8134 331.869 12.5272 331.612C9.69772 331.184 9.44049 330.328 9.18326 326.39C8.92603 322.451 16.3856 325.191 16.3856 325.191Z" fill="#E8A200"/>
<path d="M50.3398 252.849C49.2251 234.528 30.4474 255.503 30.4474 255.503L17.586 268.088L6.09652 280.758C3.86722 283.241 2.75256 286.58 3.26702 289.919L7.98286 325.448C8.24009 327.246 9.69772 328.53 11.4983 328.444C12.0128 328.444 12.613 328.359 13.2132 328.273C17.4146 327.588 17.0716 323.65 17.0716 323.65L16.2142 290.433L40.4793 275.793C40.3936 275.879 51.4544 271.17 50.3398 252.849Z" fill="#FE5E31"/>
<path d="M64.3159 259.784C63.2012 241.463 44.4236 262.438 44.4236 262.438L31.5622 275.023L19.9869 287.693C17.7576 290.176 16.6429 293.515 17.1574 296.854L21.8732 332.382C22.1305 334.18 23.5881 335.464 25.3887 335.379C25.9031 335.379 26.5033 335.293 27.1035 335.208C31.3049 334.523 30.962 330.585 30.962 330.585L30.1045 297.367L54.3697 282.728C54.3697 282.813 65.4305 278.105 64.3159 259.784Z" fill="#FE5E31"/>
<path d="M53.2551 200.968C67.4884 206.876 67.1454 215.266 67.1454 215.266C67.1454 215.266 64.4016 246 65.3448 266.547C65.7735 275.108 19.644 275.793 26.5034 252.849C34.6489 225.796 31.5622 203.965 35.3349 200.712C39.1933 197.373 49.5682 199.427 53.2551 200.968Z" fill="#983BE9"/>
<path d="M57.7994 208.417C57.0277 211.328 53.255 212.783 49.3108 211.841C45.3667 210.814 42.7944 207.646 43.5661 204.821C44.3378 201.91 48.1104 200.455 52.0546 201.397C55.9988 202.424 58.5711 205.506 57.7994 208.417Z" fill="#FFC2B0"/>
<path d="M51.7972 212.783C50.9398 212.783 50.0824 212.697 49.225 212.44C44.9378 211.327 42.1083 207.817 42.9658 204.564C43.8232 201.311 47.9388 199.598 52.226 200.711C56.5131 201.824 59.3426 205.334 58.4852 208.588C58.0565 210.214 56.8561 211.499 55.0555 212.183C54.0266 212.611 52.9119 212.783 51.7972 212.783ZM49.6537 201.739C46.9957 201.739 44.7664 202.937 44.3376 204.906C43.6517 207.389 46.0525 210.214 49.5679 211.156C51.3685 211.584 53.0834 211.499 54.541 210.985C55.9129 210.386 56.8561 209.444 57.199 208.331C57.885 205.848 55.4842 203.023 51.9687 202.081C51.1113 201.824 50.3396 201.739 49.6537 201.739Z" fill="white"/>
<path d="M47.5103 200.369C47.5103 200.369 47.596 200.968 47.4246 205.42C47.3388 206.876 52.3119 208.16 53.598 206.876C54.8842 205.591 54.3697 204.307 54.7127 199.427C54.9699 194.633 47.5103 200.369 47.5103 200.369Z" fill="#FFC2B0"/>
<path d="M54.627 199.427C54.627 199.427 53.4266 203.879 47.4246 205.592L47.5103 201.568L54.627 199.427Z" fill="#EA9C92"/>
<path d="M58.4852 188.126C60.0286 193.948 56.5132 199.941 50.5969 201.396C44.6807 202.852 38.7644 199.427 37.3068 193.52C35.7634 187.698 39.2789 181.706 45.1951 180.25C50.9399 178.795 56.9419 182.305 58.4852 188.126Z" fill="#FFC2B0"/>
<path d="M50.3397 191.209C50.3397 191.209 44.3378 193.777 40.1364 193.777C35.935 193.777 36.8782 190.353 36.8782 190.353L49.2251 188.555L50.3397 191.209Z" fill="#EA9C92"/>
<path d="M38.9359 191.894C38.9359 191.894 44.1662 189.668 48.7963 190.609C49.911 190.866 50.8542 191.38 51.5401 192.236C51.7973 192.493 52.0545 192.75 52.3975 192.835C53.2549 193.007 54.5411 189.668 56.1702 189.582C57.7993 189.496 58.8282 190.609 57.5421 192.664C56.2559 194.719 56.6847 197.03 57.2849 197.373C57.8851 197.715 64.23 192.835 58.6567 181.791C53.0835 170.748 38.8502 176.655 36.6209 178.966C36.6209 178.966 34.3058 181.021 32.4195 179.223C32.3337 179.223 30.1902 195.147 38.9359 191.894Z" fill="#173D7A"/>
<path d="M59.1712 237.696V246C59.1712 246.942 58.7425 247.884 58.0566 248.483L40.9938 264.064L42.9659 267.061L65.5162 250.709C66.5451 249.938 67.231 248.74 67.4025 247.456L68.9459 232.987L59.1712 237.696Z" fill="#FFC2B0"/>
<path d="M65.9449 211.071C65.9449 211.071 71.0894 218.861 73.0615 239.322C73.0615 239.322 64.23 242.148 59.1712 240.521C54.1124 238.98 65.9449 211.071 65.9449 211.071Z" fill="#983BE9"/>
<path d="M58.228 220.916C58.228 220.916 56.1702 231.788 56.0845 236.84C56.0845 238.209 56.9419 239.494 58.228 240.007V220.916Z" fill="#6614CF"/>
<path d="M53.7694 274.937L49.9968 274.423L25.5601 260.383C24.7884 259.955 23.4165 259.955 22.4734 260.469L5.32482 270.4L3.00977 270.057V272.369C3.00977 272.626 3.18125 272.968 3.52422 273.139L31.1334 289.149C31.905 289.577 33.2769 289.577 34.2201 289.063L53.0835 278.19C53.5979 277.933 53.8552 277.505 53.8552 277.163V274.937H53.7694Z" fill="#173D7A"/>
<path d="M35.5062 266.033L33.7913 265.006H14.6707L5.239 270.399L2.92395 270.057V272.368C2.92395 272.625 3.09544 272.968 3.43841 273.139L31.1333 289.148C31.562 289.405 32.1622 289.491 32.6767 289.405L35.5062 266.033Z" fill="#396CAA"/>
<path d="M4.03868 270.314L3.00977 270.143V272.454C3.00977 272.711 3.18125 273.053 3.52422 273.225L4.03868 273.481V270.314Z" fill="#5793CE"/>
<path d="M31.4763 289.32C32.248 289.577 33.2769 289.577 34.0486 289.149V285.296H31.4763V289.32Z" fill="#274F89"/>
<path d="M31.1327 286.922L3.52357 270.913C2.75189 270.485 2.83763 269.714 3.7808 269.115L22.6442 258.242C23.5874 257.729 24.8735 257.643 25.7309 258.157L53.3401 274.081C54.1118 274.509 54.026 275.279 53.0828 275.879L34.2194 286.751C33.362 287.265 31.9901 287.35 31.1327 286.922Z" fill="white"/>
<path d="M30.7045 284.44L7.72549 271.17C7.03955 270.828 7.12529 270.143 7.89698 269.715L18.0146 264.064C18.7863 263.636 19.901 263.551 20.5869 263.979L43.5659 277.249C44.2519 277.591 44.1661 278.276 43.3944 278.704L33.2768 284.354C32.5051 284.782 31.3905 284.868 30.7045 284.44Z" fill="#D4ECFF"/>
<path d="M23.6738 257.814L23.4165 259.698C23.1593 261.325 23.2451 262.951 23.5023 264.578L23.8453 266.29C24.0167 267.232 24.7884 268.002 25.7316 268.174C26.5033 268.345 27.1892 267.745 27.275 267.061L27.7037 262.951C27.7037 262.951 28.7326 264.321 29.247 264.321C29.7615 264.321 28.6468 260.212 27.5322 257.9C26.4175 255.589 23.6738 257.814 23.6738 257.814Z" fill="#FFC2B0"/>
<path d="M33.0198 227.508L30.0188 233.33C29.3328 234.699 28.9041 236.24 28.8184 237.781L27.5322 257.815L23.5881 257.729L21.7875 235.213C21.7017 234.528 21.7875 233.843 21.8732 233.158L23.931 221.772L33.0198 227.508Z" fill="#FFC2B0"/>
<path d="M30.2759 288.378L27.9608 285.381L3.52416 271.255C2.75248 270.827 2.15228 269.629 2.15228 268.516V248.568L0.780396 246.77L2.06654 246C2.32376 245.829 2.66673 245.829 3.00971 246.086L30.6189 262.095C31.3905 262.523 31.9907 263.722 31.9907 264.835V286.58C31.9907 287.179 31.8193 287.607 31.4763 287.778L30.2759 288.378Z" fill="#173D7A"/>
<path d="M13.3846 276.992L11.6697 275.965L2.15228 259.528V248.74L0.780396 246.943L2.06654 246.172C2.32376 246.001 2.66673 246.001 3.00971 246.258L30.6189 262.267C31.0476 262.524 31.3905 262.952 31.6478 263.466L13.3846 276.992Z" fill="#396CAA"/>
<path d="M1.38059 247.627L0.780396 246.857L2.06654 246.086C2.32376 245.915 2.66673 245.915 3.00971 246.172L3.52416 246.429L1.38059 247.627Z" fill="#5793CE"/>
<path d="M30.8761 262.267C31.4763 262.78 31.9908 263.722 31.9908 264.578L29.3328 266.119L28.0466 263.893L30.8761 262.267Z" fill="#274F89"/>
<path d="M29.3328 262.866L1.72362 246.856C0.951933 246.428 0.265991 246.856 0.265991 247.884V269.629C0.265991 270.656 0.86619 271.855 1.63787 272.368L29.247 288.378C30.0187 288.806 30.7046 288.378 30.7046 287.351V265.605C30.7904 264.492 30.1044 263.294 29.3328 262.866Z" fill="white"/>
<path d="M42.8801 267.06L42.4514 268.002C41.937 269.03 41.1653 269.971 40.1364 270.571L37.3926 272.283C36.5352 272.796 35.4205 272.882 34.5631 272.368C34.5631 272.368 34.4773 272.368 34.4773 272.283C33.6199 271.769 33.5342 270.485 34.2201 269.714L37.0496 266.804C37.0496 266.804 35.4205 268.002 34.9918 267.574C34.6488 267.232 36.5352 265.434 37.9928 265.348C39.4504 265.263 40.8223 264.15 40.8223 264.15L42.8801 267.06Z" fill="#FFC2B0"/>
<path d="M35.6777 200.712C35.6777 200.712 25.1313 212.098 20.9299 222.628C20.9299 222.628 24.5311 229.135 33.3626 231.618C42.1084 234.1 35.6777 200.712 35.6777 200.712Z" fill="#983BE9"/>
<path d="M31.3048 230.932L33.0197 214.495L28.9897 229.905C29.6757 230.247 30.4474 230.59 31.3048 230.932Z" fill="#6614CF"/>
<path d="M43.4803 198.4L40.6508 197.63C40.6508 197.63 42.0226 199.77 43.9947 200.284C45.9668 200.797 46.3098 199.171 46.3098 199.171L43.4803 198.4Z" fill="white"/>
<path d="M341.109 525C356.215 525 368.46 517.947 368.46 509.247C368.46 500.548 356.215 493.495 341.109 493.495C326.002 493.495 313.757 500.548 313.757 509.247C313.757 517.947 326.002 525 341.109 525Z" fill="#F3F3F3"/>
<path d="M353.955 323.906C353.955 323.906 353.269 337.947 352.24 347.45C351.125 356.867 328.317 340.173 328.317 340.173V329.386L353.955 323.906Z" fill="#173D7A"/>
<path d="M341.865 498.983C341.522 499.839 335.606 507.03 329.689 508.828C327.117 509.598 325.402 509.684 324.288 509.598C323.173 509.427 322.487 508.314 322.83 507.201C323.859 504.376 326.774 498.383 334.148 494.702C344.18 489.822 341.865 498.983 341.865 498.983Z" fill="#173D7A"/>
<path d="M343.837 501.808C343.837 501.808 341.608 507.03 340.922 511.396C340.493 514.05 341.951 517.475 343.151 519.786C343.923 521.241 345.809 521.498 347.01 520.471C348.982 518.759 351.382 515.677 351.811 511.311C352.497 503.948 351.811 502.664 351.811 502.664L343.837 501.808Z" fill="#173D7A"/>
<path d="M358.07 412.857C358.07 412.857 358.842 422.103 358.07 432.377C357.298 442.65 354.555 490.678 354.04 502.236C354.04 502.236 354.297 505.746 347.524 504.975C340.75 504.205 341.264 500.352 341.264 500.352C341.264 500.352 331.747 500.267 331.404 494.616C331.147 489.052 321.629 427.668 321.629 405.666L358.07 412.857Z" fill="#FE5E31"/>
<path d="M324.973 365L319.486 398.475L314.427 398.389L314.941 367.654L324.973 365Z" fill="#FFC2B0"/>
<path d="M327.288 335.293C327.288 335.293 319.915 335.122 317.257 345.824C314.684 356.525 312.626 369.881 314.941 370.993C321.715 374.332 325.916 370.394 325.916 370.394L327.288 335.293Z" fill="#8A2AE3"/>
<path d="M325.059 335.721C326.345 335.207 327.717 335.122 329.089 335.464C335.434 337.262 359.099 344.197 363.043 347.536C367.588 351.388 356.27 373.048 356.441 380.154C356.613 387.259 357.384 395.649 358.07 403.354C358.67 411.059 359.528 415.34 353.183 418.593C346.838 421.847 336.034 422.018 327.974 415.854C319.915 409.69 321.372 405.495 321.715 401.043C322.058 396.591 324.802 377.243 324.545 371.764C324.545 371.764 321.715 369.709 319.572 366.113C317.428 362.518 321.201 355.925 322.744 351.645C324.288 347.364 321.887 342.399 322.315 338.889C322.487 337.176 323.687 336.32 325.059 335.721Z" fill="#983BE9"/>
<path d="M332.605 343.083C332.09 347.022 335.691 350.703 340.579 351.302C345.466 351.901 349.925 349.248 350.439 345.395C350.954 341.457 347.352 337.776 342.465 337.176C337.492 336.577 333.119 339.231 332.605 343.083Z" fill="white"/>
<path d="M335.177 343.426C334.834 346.252 337.406 348.82 340.922 349.334C344.437 349.847 347.61 347.878 347.953 345.139C348.296 342.313 345.723 339.745 342.208 339.231C338.692 338.718 335.52 340.687 335.177 343.426Z" fill="#FFC2B0"/>
<path d="M338.692 334.266C338.692 334.266 342.979 330.756 343.837 332.553C344.694 334.351 345.38 341.971 345.38 341.971L336.892 344.282L338.178 336.492C338.092 336.492 336.377 335.036 338.692 334.266Z" fill="#FFC2B0"/>
<path d="M325.402 325.876C325.831 332.896 331.833 338.204 338.864 337.776C345.895 337.348 351.211 331.355 350.782 324.335C350.353 317.314 344.351 312.007 337.32 312.435C330.289 312.863 324.973 318.941 325.402 325.876Z" fill="#FFC2B0"/>
<path d="M344.351 334.779C344.437 335.208 344.523 335.636 344.609 336.064C343.751 340.515 337.149 342.399 337.149 342.399L338.092 336.577C338.092 336.577 337.32 335.892 337.492 335.208C340.15 334.351 343.408 333.581 344.351 334.779Z" fill="#EA9C92"/>
<path d="M325.402 325.876C325.831 332.896 331.833 338.204 338.864 337.776C345.895 337.348 351.211 331.355 350.782 324.335C350.353 317.314 344.351 312.007 337.32 312.435C330.289 312.863 324.973 318.941 325.402 325.876Z" fill="#FFC2B0"/>
<path d="M369.388 378.87L367.93 412.772L362.957 413.286L359.699 382.722L369.388 378.87Z" fill="#FFC2B0"/>
<path d="M353.011 376.044C354.64 368.767 357.899 352.758 357.899 352.758L359.271 368.682C357.641 373.39 356.27 377.756 356.355 380.239C356.441 384.434 356.784 389.057 357.127 393.68C357.127 393.68 351.382 383.236 353.011 376.044Z" fill="#8A2AE3"/>
<path d="M362.014 346.937C362.014 346.937 365.959 348.478 368.274 360.634C370.503 372.791 372.218 385.034 368.188 386.575C364.158 388.116 360.814 389.314 359.614 386.061C358.413 382.808 357.727 367.055 357.556 361.405C357.384 355.755 357.213 348.049 362.014 346.937Z" fill="#B45EF4"/>
<path d="M341.264 500.267C341.264 500.267 340.064 500.267 338.521 500.01L336.634 425.356L341.264 500.267Z" fill="#D64F29"/>
<path d="M348.467 460.03L351.125 456.605L378.905 440.51C379.763 439.996 380.535 438.627 380.535 437.428V414.655L382.164 412.601L380.62 411.745C380.363 411.573 379.934 411.573 379.506 411.83L347.952 430.065C347.095 430.579 346.323 431.949 346.323 433.147V457.889C346.323 458.574 346.58 459.002 346.923 459.173L348.467 460.03Z" fill="#983BE9"/>
<path d="M367.673 446.931L369.645 445.818L380.535 426.983V414.655L382.164 412.601L380.62 411.745C380.363 411.573 379.934 411.573 379.506 411.83L347.952 430.065C347.524 430.322 347.095 430.836 346.752 431.435L367.673 446.931Z" fill="#D29FFF"/>
<path d="M381.392 413.457L382.078 412.515L380.534 411.659C380.277 411.487 379.848 411.487 379.42 411.744L378.905 412.087L381.392 413.457Z" fill="#D29FFF"/>
<path d="M347.695 430.151C347.009 430.75 346.494 431.778 346.409 432.805L349.495 434.603L350.953 432.035L347.695 430.151Z" fill="#983BE9"/>
<path d="M349.496 430.836L381.049 412.601C381.907 412.087 382.678 412.601 382.678 413.799V438.541C382.678 439.74 381.992 441.109 381.049 441.623L349.496 459.858C348.638 460.372 347.867 459.858 347.867 458.66V433.918C347.867 432.719 348.553 431.35 349.496 430.836Z" fill="#B45EF4"/>
<path d="M367.93 412.515C367.93 412.515 369.216 420.477 369.045 422.96C368.873 425.528 367.502 429.723 366.473 429.637C365.444 429.552 366.473 419.449 364.586 420.477C362.786 421.504 362.614 423.216 361.757 422.617C360.899 422.018 363.214 413.371 362.614 409.604C362.014 405.752 367.93 412.515 367.93 412.515Z" fill="#FFC2B0"/>
<path d="M314.427 398.389C314.427 398.389 313.141 406.351 313.312 408.834C313.484 411.402 314.856 415.597 315.885 415.511C316.914 415.426 315.885 405.323 317.771 406.351C319.572 407.378 319.743 409.09 320.6 408.491C321.458 407.892 319.143 399.245 319.743 395.478C320.343 391.711 314.427 398.389 314.427 398.389Z" fill="#FFC2B0"/>
<path d="M333.205 326.218C326.86 328.444 325.573 327.074 325.488 326.988C325.402 326.646 325.402 326.218 325.402 325.79C325.316 324.42 325.488 323.05 325.831 321.766L342.379 319.54C342.293 319.626 339.721 323.906 333.205 326.218Z" fill="#EA9C92"/>
<path d="M324.888 313.291C326.431 312.007 331.833 305.671 341.522 307.127C347.609 308.068 352.668 312.178 353.869 321.595C354.64 327.93 352.325 334.18 348.038 338.803C347.781 338.717 347.524 338.632 347.352 338.461C344.951 336.834 344.694 335.978 344.694 335.978L344.18 331.184C344.18 330.499 344.694 329.899 345.38 329.814C345.895 329.814 346.581 329.557 347.181 328.701C348.553 326.903 347.952 324.078 345.123 323.907C343.665 323.821 343.065 323.05 342.894 322.366C342.722 321.681 342.036 321.338 341.436 321.595C338.264 322.708 330.461 325.191 325.402 323.821C318.8 322.023 323.43 314.575 324.888 313.291Z" fill="#173D7A"/>
<path d="M332.176 331.954L328.317 330.927C328.317 330.927 330.204 333.838 332.862 334.608C335.606 335.379 336.034 333.067 336.034 333.067L332.176 331.954Z" fill="white"/>
<path d="M361.243 422.275L364.587 420.391L363.386 422.446L361.671 423.045L361.243 422.275Z" fill="#D29FFF"/>
<defs>
<radialGradient id="paint0_radial" cx="0" cy="0" r="1" gradientUnits="userSpaceOnUse" gradientTransform="translate(-54.1759 281.162) scale(58.6221 58.5325)">
<stop stop-color="#01C8EF"/>
<stop offset="0.0894054" stop-color="#03BEE9"/>
<stop offset="0.2388" stop-color="#08A5D7"/>
<stop offset="0.4288" stop-color="#107BBB"/>
<stop offset="0.4457" stop-color="#1177B8"/>
<stop offset="1" stop-color="#112564"/>
</radialGradient>
</defs>
</svg>
