<svg width="360" height="235" viewBox="0 0 360 235" fill="none" xmlns="http://www.w3.org/2000/svg">
<mask id="mask0" mask-type="alpha" maskUnits="userSpaceOnUse" x="36" y="0" width="288" height="223">
<path fill-rule="evenodd" clip-rule="evenodd" d="M36.1156 0.300659H323.667V222.201H36.1156V0.300659Z" fill="white"/>
</mask>
<g mask="url(#mask0)">
<path fill-rule="evenodd" clip-rule="evenodd" d="M323.667 213.655C323.667 218.384 320.046 222.201 315.594 222.201H44.1853C39.7336 222.201 36.1156 218.384 36.1156 213.655V8.84855C36.1156 4.12006 39.7336 0.299927 44.1853 0.299927H315.594C320.046 0.299927 323.667 4.12006 323.667 8.84855V213.655Z" fill="white"/>
</g>
<mask id="mask1" mask-type="alpha" maskUnits="userSpaceOnUse" x="0" y="0" width="360" height="235">
<path fill-rule="evenodd" clip-rule="evenodd" d="M0 235H359.778V0.300659H0V235Z" fill="white"/>
</mask>
<g mask="url(#mask1)">
<path fill-rule="evenodd" clip-rule="evenodd" d="M49 202.755H310.35V14.9999H49V202.755Z" fill="#191551"/>
<mask id="mask2" mask-type="alpha" maskUnits="userSpaceOnUse" x="49" y="15" width="262" height="188">
<path fill-rule="evenodd" clip-rule="evenodd" d="M49 202.755H310.35V14.9999H49V202.755Z" fill="#191551"/>
</mask>
<g mask="url(#mask2)">
<path d="M90.5969 161.008H90.1372V169.425H90.5969V161.008Z" fill="#172F78"/>
<path d="M90.5969 171.347H90.1372V174H90.5969V171.347Z" fill="#03A7D3"/>
<path d="M254.061 31.3258H253.601V39.7431H254.061V31.3258Z" fill="#03A7D3"/>
<path d="M254.061 41.6645H253.601V44.0433H254.061V41.6645Z" fill="#172F78"/>
<path d="M254.061 46.0562H253.601V48.435H254.061V46.0562Z" fill="#172F78"/>
<path d="M271.437 130H270.977V138.417H271.437V130Z" fill="#172F78"/>
<path d="M271.437 140.339H270.977V142.717H271.437V140.339Z" fill="#03A7D3"/>
<path d="M271.437 144.73H270.977V147.109H271.437V144.73Z" fill="#03A7D3"/>
<path d="M271.437 149.122H270.977V155.892H271.437V149.122Z" fill="#03A7D3"/>
<path d="M86.4597 146.973H86V149.626H86.4597V146.973Z" fill="#172F78"/>
<path d="M86.4597 125.655H86V134.164H86.4597V125.655Z" fill="#172F78"/>
<path d="M104.847 93.1749H104.387V95.8282H104.847V93.1749Z" fill="#172F78"/>
<path d="M104.847 82.8362H104.387V91.2536H104.847V82.8362Z" fill="#03A7D3"/>
<path d="M104.847 71.8571H104.387V80.3659H104.847V71.8571Z" fill="#172F78"/>
<path d="M104.847 59.2311H104.387V67.7399H104.847V59.2311Z" fill="#172F78"/>
<path opacity="0.4" d="M108.249 109.735C108.249 111.748 106.594 113.395 104.571 113.395C102.549 113.395 100.894 111.748 100.894 109.735C100.894 107.722 102.549 106.075 104.571 106.075C106.594 106.075 108.249 107.722 108.249 109.735Z" fill="#03A7D3"/>
<path opacity="0.8" d="M106.41 109.735C106.41 110.741 105.583 111.473 104.663 111.473C103.652 111.473 102.916 110.65 102.916 109.735C102.916 108.729 103.744 107.997 104.663 107.997C105.583 107.905 106.41 108.729 106.41 109.735Z" fill="#01C8EF"/>
<path opacity="0.4" d="M273 162.571C273 163.578 272.173 164.31 271.253 164.31C270.242 164.31 269.506 163.486 269.506 162.571C269.506 161.565 270.334 160.833 271.253 160.833C272.173 160.741 273 161.565 273 162.571Z" fill="#03A7D3"/>
<path opacity="0.8" d="M271.161 163.486C271.669 163.486 272.081 163.077 272.081 162.571C272.081 162.066 271.669 161.656 271.161 161.656C270.654 161.656 270.242 162.066 270.242 162.571C270.242 163.077 270.654 163.486 271.161 163.486Z" fill="#01C8EF"/>
<path opacity="0.4" d="M256.819 26.0192C256.819 27.6661 255.44 29.0385 253.785 29.0385C252.13 29.0385 250.751 27.6661 250.751 26.0192C250.751 24.3723 252.13 22.9999 253.785 22.9999C255.44 22.9999 256.819 24.3723 256.819 26.0192Z" fill="#03A7D3"/>
<path opacity="0.8" d="M255.256 26.0192C255.256 26.8426 254.613 27.4831 253.785 27.4831C252.958 27.4831 252.314 26.8426 252.314 26.0192C252.314 25.1957 252.958 24.5553 253.785 24.5553C254.613 24.5553 255.256 25.1957 255.256 26.0192Z" fill="#01C8EF"/>
<path opacity="0.4" d="M159.113 114.851C159.113 115.472 158.579 116.005 157.956 116.005C157.332 116.005 156.798 115.472 156.798 114.851C156.798 114.229 157.332 113.696 157.956 113.696C158.579 113.696 159.113 114.229 159.113 114.851Z" fill="#172F78"/>
<path opacity="0.4" d="M175.68 98.1611C175.68 100.647 173.632 102.689 171.138 102.689C168.644 102.689 166.595 100.647 166.595 98.1611C166.595 95.6754 168.644 93.6336 171.138 93.6336C173.632 93.6336 175.68 95.6754 175.68 98.1611Z" fill="#172F78"/>
<path opacity="0.8" d="M173.008 98.1611C173.008 99.2264 172.206 100.025 171.138 100.025C170.069 100.025 169.267 99.2264 169.267 98.1611C169.267 97.0958 170.069 96.2968 171.138 96.2968C172.206 96.2968 173.008 97.0958 173.008 98.1611Z" fill="#172F78"/>
<path opacity="0.4" d="M153.413 93.8111C154.692 93.8111 155.729 92.7777 155.729 91.503C155.729 90.2283 154.692 89.1949 153.413 89.1949C152.134 89.1949 151.097 90.2283 151.097 91.503C151.097 92.7777 152.134 93.8111 153.413 93.8111Z" fill="#03A7D3"/>
<path opacity="0.8" d="M153.413 92.6571C154.052 92.6571 154.571 92.1404 154.571 91.503C154.571 90.8656 154.052 90.3489 153.413 90.3489C152.773 90.3489 152.255 90.8656 152.255 91.503C152.255 92.1404 152.773 92.6571 153.413 92.6571Z" fill="#03A7D3"/>
<path d="M179.154 201.494C177.105 201.494 175.057 201.05 173.542 200.162L135.777 178.413C134.174 177.525 133.372 176.282 133.372 174.95C133.372 173.619 134.263 172.376 135.777 171.488L173.364 149.739C176.482 147.963 181.47 147.963 184.587 149.739L222.352 171.488C223.955 172.376 224.757 173.619 224.757 174.95C224.757 176.282 223.866 177.525 222.352 178.413L184.765 200.162C183.162 201.05 181.202 201.494 179.154 201.494ZM178.976 149.117C177.105 149.117 175.146 149.561 173.721 150.36L136.134 172.11C134.798 172.909 134.085 173.885 134.085 174.95C134.085 176.016 134.798 176.992 136.134 177.791L173.899 199.541C176.838 201.228 181.559 201.228 184.409 199.541L221.996 177.791C223.332 176.992 224.044 176.016 224.044 174.95C224.044 173.885 223.332 172.909 221.996 172.11L184.231 150.36C182.717 149.561 180.846 149.117 178.976 149.117Z" fill="#03A7D3"/>
<path opacity="0.7" d="M179.154 214.011C177.105 214.011 175.057 213.567 173.542 212.679L135.777 190.93C134.174 190.042 133.372 188.799 133.372 187.468C133.372 186.136 134.263 184.893 135.777 184.005L173.364 162.256C176.482 160.48 181.47 160.48 184.587 162.256L222.352 184.005C223.955 184.893 224.757 186.136 224.757 187.468C224.757 188.799 223.866 190.042 222.352 190.93L184.765 212.679C183.162 213.567 181.202 214.011 179.154 214.011ZM178.976 161.723C177.105 161.723 175.146 162.167 173.721 162.966L136.134 184.716C134.798 185.515 134.085 186.491 134.085 187.556C134.085 188.622 134.798 189.598 136.134 190.397L173.899 212.147C176.838 213.833 181.559 213.833 184.409 212.147L221.996 190.397C223.332 189.598 224.044 188.622 224.044 187.556C224.044 186.491 223.332 185.515 221.996 184.716L184.231 162.966C182.717 162.078 180.846 161.723 178.976 161.723Z" fill="#03A7D3"/>
<path opacity="0.4" d="M179.154 226.617C177.105 226.617 175.057 226.173 173.542 225.285L135.777 203.536C134.174 202.648 133.372 201.405 133.372 200.073C133.372 198.742 134.263 197.499 135.777 196.611L173.364 174.862C176.482 173.086 181.47 173.086 184.587 174.862L222.352 196.611C223.955 197.499 224.757 198.742 224.757 200.073C224.757 201.405 223.866 202.648 222.352 203.536L184.765 225.285C183.162 226.173 181.202 226.617 179.154 226.617ZM178.976 174.24C177.105 174.24 175.146 174.684 173.721 175.483L136.134 197.233C134.798 198.032 134.085 199.008 134.085 200.073C134.085 201.139 134.798 202.115 136.134 202.914L173.899 224.664C176.838 226.351 181.559 226.351 184.409 224.664L221.996 202.914C223.332 202.115 224.044 201.139 224.044 200.073C224.044 199.008 223.332 198.032 221.996 197.233L184.231 175.483C182.717 174.684 180.846 174.24 178.976 174.24Z" fill="#03A7D3"/>
<path d="M224.579 163.055V145.034L201.688 148.052L184.587 138.198C181.559 136.511 176.749 136.511 173.721 138.198L171.049 139.885L133.907 144.856V163.144V163.232C133.907 164.298 134.708 165.452 136.134 166.251L173.899 188C176.927 189.687 181.737 189.687 184.765 188L222.352 166.251C223.777 165.452 224.579 164.298 224.579 163.232V163.055Z" fill="url(#paint0_linear)"/>
<path d="M222.351 141.749L184.586 119.999C181.558 118.313 176.748 118.313 173.72 119.999L136.133 141.749C133.104 143.436 133.104 146.277 136.133 148.052L173.898 169.802C176.926 171.488 181.736 171.488 184.764 169.802L222.351 148.052C225.291 146.277 225.291 143.525 222.351 141.749Z" fill="url(#paint1_radial)"/>
<path d="M222.352 146.898L184.765 168.648C181.737 170.334 176.927 170.334 173.899 168.648L136.134 146.898C134.887 146.188 134.174 145.3 133.907 144.323C133.64 145.655 134.352 146.987 136.134 147.963L173.899 169.713C176.927 171.4 181.737 171.4 184.765 169.713L222.352 147.963C224.134 146.987 224.846 145.566 224.579 144.323C224.312 145.3 223.599 146.188 222.352 146.898Z" fill="white"/>
<path d="M189.842 174.595L188.061 175.661V173.53L189.842 172.554V174.595Z" fill="white"/>
<path d="M193.583 172.465L191.802 173.441V171.399L193.583 170.423V172.465Z" fill="white"/>
<path d="M197.324 170.334L195.542 171.311V169.269L197.324 168.204V170.334Z" fill="white"/>
<path d="M194.296 176.193L192.514 177.259V175.217L194.296 174.151V176.193Z" fill="white"/>
<path d="M197.591 174.329L195.81 175.394V173.264L197.591 172.287V174.329Z" fill="white"/>
<path d="M209.348 163.41L207.567 164.386V162.345L209.348 161.368V163.41Z" fill="white"/>
<path d="M219.591 157.462L217.81 158.527V156.397L219.591 155.42V157.462Z" fill="white"/>
<path d="M201.065 168.115L199.283 169.18V167.138L201.065 166.073V168.115Z" fill="white"/>
<path opacity="0.4" d="M177.105 160.569L151.721 145.921C150.652 145.3 150.83 144.323 151.988 143.613L176.838 129.321C177.996 128.611 179.866 128.522 180.846 129.143L206.231 143.791C207.3 144.412 207.121 145.389 205.964 146.099L181.113 160.392C179.955 161.102 178.085 161.191 177.105 160.569Z" fill="#06033E"/>
<path d="M167.129 176.46L146.198 164.386C145.664 164.12 145.308 163.321 145.308 162.7V161.191C145.308 160.569 145.753 160.214 146.198 160.48L167.129 172.554C167.664 172.82 168.02 173.619 168.02 174.24V175.749C168.02 176.371 167.575 176.726 167.129 176.46Z" fill="#FCCA2E"/>
<path d="M224.579 129.232V111.211L201.688 114.229L184.587 104.375C181.559 102.689 176.749 102.689 173.721 104.375L171.049 106.062L133.907 111.033V129.321V129.409C133.907 130.475 134.708 131.629 136.134 132.428L173.899 154.177C176.927 155.864 181.737 155.864 184.765 154.177L222.352 132.428C223.777 131.629 224.579 130.475 224.579 129.409V129.232Z" fill="url(#paint2_linear)"/>
<path d="M222.351 107.926L184.586 86.1766C181.558 84.4899 176.748 84.4899 173.72 86.1766L136.133 107.926C133.104 109.613 133.104 112.454 136.133 114.229L173.898 135.979C176.926 137.665 181.736 137.665 184.764 135.979L222.351 114.229C225.291 112.454 225.291 109.613 222.351 107.926Z" fill="url(#paint3_radial)"/>
<path opacity="0.4" d="M204.36 109.169L182.36 96.4744C180.579 95.4979 177.729 95.4979 176.036 96.4744L154.125 109.258C152.344 110.234 152.344 111.921 154.125 112.898L176.125 125.592C177.907 126.569 180.757 126.569 182.449 125.592L204.36 112.898C206.053 111.832 206.053 110.234 204.36 109.169Z" fill="#06033E"/>
<path d="M222.352 113.075L184.765 134.825C181.737 136.511 176.927 136.511 173.899 134.825L136.134 113.075C134.887 112.365 134.174 111.477 133.907 110.501C133.64 111.832 134.352 113.164 136.134 114.14L173.899 135.89C176.927 137.577 181.737 137.577 184.765 135.89L222.352 114.14C224.134 113.164 224.846 111.743 224.579 110.501C224.312 111.388 223.599 112.365 222.352 113.075Z" fill="white"/>
<path d="M189.842 140.773L188.061 141.749V139.707L189.842 138.731V140.773Z" fill="white"/>
<path d="M193.583 138.553L191.802 139.618V137.577L193.583 136.511V138.553Z" fill="white"/>
<path d="M197.324 136.423L195.542 137.488V135.446L197.324 134.381V136.423Z" fill="white"/>
<path d="M194.296 142.37L192.514 143.436V141.305L194.296 140.329V142.37Z" fill="white"/>
<path d="M197.591 140.506L195.81 141.483V139.441L197.591 138.376V140.506Z" fill="white"/>
<path d="M209.348 129.498L207.567 130.564V128.522L209.348 127.456V129.498Z" fill="white"/>
<path d="M219.591 123.639L217.81 124.616V122.574L219.591 121.509V123.639Z" fill="white"/>
<path d="M201.065 134.292L199.283 135.357V133.227L201.065 132.25V134.292Z" fill="white"/>
<path d="M224.579 95.3203V77.2992L201.688 80.3175L184.587 70.4636C181.559 68.7769 176.749 68.7769 173.721 70.4636L171.049 72.1503L133.907 77.1217V95.4091V95.4979C133.907 96.5632 134.708 97.7172 136.134 98.5162L173.899 120.266C176.927 121.952 181.737 121.952 184.765 120.266L222.352 98.5162C223.777 97.7172 224.579 96.5632 224.579 95.4979V95.3203Z" fill="url(#paint4_linear)"/>
<path d="M222.351 74.0146L184.586 52.265C181.558 50.5783 176.748 50.5783 173.72 52.265L136.133 74.1033C133.104 75.79 133.104 78.6308 136.133 80.4063L173.898 102.156C176.926 103.843 181.736 103.843 184.764 102.156L222.351 80.4063C225.291 78.542 225.291 75.79 222.351 74.0146Z" fill="url(#paint5_radial)"/>
<path d="M222.351 74.0146L184.586 52.265C181.558 50.5783 176.748 50.5783 173.72 52.265L136.133 74.1033C133.104 75.79 133.104 78.6308 136.133 80.4063L173.898 102.156C176.926 103.843 181.736 103.843 184.764 102.156L222.351 80.4063C225.291 78.542 225.291 75.79 222.351 74.0146Z" fill="url(#paint6_radial)"/>
<g clip-path="url(#clip0)">
<path opacity="0.5" d="M177.262 72.1122C174.684 70.7602 170.51 70.7602 167.933 72.1122C165.356 73.4643 165.356 75.6582 167.933 77.0229C170.51 78.375 174.684 78.375 177.262 77.0229C179.839 75.6709 179.839 73.477 177.262 72.1122ZM172.443 74.6122C171.785 74.9566 170.706 74.9566 170.048 74.6122C169.39 74.2678 169.39 73.6939 170.048 73.3495C170.706 73.0051 171.785 73.0051 172.443 73.3495C173.102 73.7066 173.102 74.2678 172.443 74.6122Z" fill="#2C2C2C"/>
<path opacity="0.5" d="M178.662 75.9388C178.312 76.245 177.892 76.5511 177.388 76.8062C176.883 77.074 176.323 77.2909 175.721 77.4822L176.981 78.1455L178.886 78.2348L179.825 78.7322L179.447 78.9235L180.161 79.2934L180.931 78.8853L182.178 79.5358L180.931 80.199L181.856 80.6837L182.752 81.1557L183.859 80.5689L185.498 81.4363L184.867 81.7679L185.918 82.3291L186.548 81.9975L187.038 82.2526L186.534 83.1582L188.131 84.0001H194L178.662 75.9388Z" fill="#2C2C2C"/>
<path d="M179.195 74.0893V72.4694L178.662 72.7373C178.34 72.3418 177.878 71.9719 177.262 71.6403C174.684 70.2883 170.51 70.2883 167.933 71.6403C167.219 72.023 166.7 72.4566 166.378 72.9286L166 72.4694V74.0893C166 74.9822 166.644 75.8623 167.933 76.551C170.51 77.9031 174.684 77.9031 177.262 76.551C178.55 75.875 179.195 74.9822 179.195 74.0893ZM172.415 73.0306C171.757 73.375 170.678 73.375 170.02 73.0306C169.362 72.6862 169.362 72.1123 170.02 71.7679C170.678 71.4235 171.757 71.4235 172.415 71.7679C173.074 72.1123 173.074 72.6862 172.415 73.0306Z" fill="#E8A200"/>
<path d="M172.051 75.3776L169.194 74.1021L166.672 72.5715C166.56 72.6863 166.476 72.8011 166.392 72.9286L166 72.4694V74.0893C166 74.9822 166.644 75.8623 167.933 76.5511C169.082 77.1505 170.552 77.4822 172.051 77.5587V75.3776Z" fill="#FDD762"/>
<path d="M177.262 70.019C174.684 68.6542 170.51 68.6542 167.933 70.019C165.356 71.3838 165.356 73.5649 167.933 74.9297C170.51 76.2817 174.684 76.2817 177.262 74.9297C179.839 73.5649 179.839 71.371 177.262 70.019ZM172.443 72.519C171.785 72.8633 170.706 72.8633 170.048 72.519C169.39 72.1746 169.39 71.6006 170.048 71.2562C170.706 70.9118 171.785 70.9118 172.443 71.2562C173.102 71.6006 173.102 72.1618 172.443 72.519Z" fill="#FDD762"/>
<path d="M173.732 70.875H170.146C169.824 70.9388 169.502 71.0281 169.194 71.1301V73.898H173.732V70.875ZM172.415 73.0306C171.757 73.375 170.678 73.375 170.02 73.0306C169.362 72.6862 169.362 72.1122 170.02 71.7679C170.678 71.4235 171.757 71.4235 172.415 71.7679C173.074 72.1122 173.074 72.6862 172.415 73.0306Z" fill="#E8A200"/>
<path d="M176.715 70.301C174.446 69.102 170.762 69.102 168.493 70.301C166.224 71.4999 166.224 73.426 168.493 74.6249C170.762 75.8239 174.446 75.8239 176.715 74.6249C178.984 73.4387 178.984 71.4999 176.715 70.301ZM172.443 72.5204C171.785 72.8647 170.706 72.8647 170.048 72.5204C169.39 72.176 169.39 71.602 170.048 71.2576C170.706 70.9132 171.785 70.9132 172.443 71.2576C173.102 71.602 173.102 72.1632 172.443 72.5204Z" fill="#F2B42A"/>
<path d="M168.479 70.7602C170.748 69.5612 174.432 69.5612 176.701 70.7602C177.724 71.2959 178.284 71.9974 178.382 72.6989C178.494 71.8443 177.934 70.9642 176.701 70.3137C174.432 69.1147 170.748 69.1147 168.479 70.3137C167.233 70.9642 166.672 71.8443 166.798 72.6989C166.896 71.9846 167.457 71.2959 168.479 70.7602Z" fill="#E8A200"/>
<path d="M178.662 75.4541C178.312 75.7602 177.892 76.0663 177.388 76.3214C176.883 76.5893 176.323 76.8061 175.721 76.9975L176.981 77.6607L178.886 77.75L179.825 78.2475L179.447 78.4388L180.147 78.8214L180.917 78.4133L182.164 79.0638L180.917 79.7271L181.842 80.2118L182.738 80.6837L183.845 80.097L185.484 80.9643L184.853 81.2959L185.904 81.8572L186.534 81.5255L187.024 81.7806L186.52 82.6862L188.117 83.5281H193.986L178.662 75.4541Z" fill="#F2B42A"/>
<path d="M178.662 74.2806C178.312 74.5867 177.892 74.8928 177.388 75.1479C176.883 75.4158 176.323 75.6326 175.721 75.8239L176.981 76.4872L178.886 76.5765L179.825 77.0739L179.447 77.2653L180.161 77.6352L180.931 77.227L182.178 77.8775L180.931 78.5408L181.856 79.0255L182.752 79.4974L183.859 78.9107L185.498 79.778L184.867 80.1097L185.918 80.6709L186.548 80.3393L187.038 80.5944L186.534 81.5L188.131 82.3418H194L178.662 74.2806Z" fill="#FDD762"/>
<path d="M194 82.3418H188.131V83.5153H194V82.3418Z" fill="#E8A200"/>
<path d="M185.904 81.8443V80.6709L186.534 80.3392V81.5127L185.904 81.8443Z" fill="#E8A200"/>
<path d="M184.853 80.1097V81.2832L185.904 81.8444V80.671L184.853 80.1097Z" fill="#EEAD00"/>
<path d="M183.831 78.9234V80.0969L182.724 80.6708V79.4974L183.831 78.9234Z" fill="#E8A200"/>
<path d="M180.917 78.5535V79.727L182.724 80.6709V79.4974L180.917 78.5535Z" fill="#EEAD00"/>
<path d="M186.534 81.5128V82.6735L188.131 83.5153V82.3418L186.534 81.5128Z" fill="#EEAD00"/>
<path d="M180.147 77.6479V78.8214L179.447 78.4387V77.2653L180.147 77.6479Z" fill="#EEAD00"/>
<path d="M176.981 76.4872V77.6606L178.886 77.7499V76.5765L176.981 76.4872Z" fill="#E8A200"/>
<path d="M189.994 81.5127L178.76 75.5943L179.391 75.2755L191.241 81.5127H189.994Z" fill="#E8A200"/>
<path d="M179.391 75.5561L190.708 81.5127H191.241L179.391 75.2755L178.76 75.5943L179.027 75.7474L179.391 75.5561Z" fill="#F2B42A"/>
<path d="M176.981 77.6607V76.4872L175.721 75.824V76.9974L176.981 77.6607Z" fill="#E8A200"/>
<path d="M180.917 77.2398V78.4133L180.147 78.8214V77.648L180.917 77.2398Z" fill="#E8A200"/>
<path d="M176.715 70.301C175.441 69.6378 173.718 69.3444 172.051 69.4209V69.8674C173.718 69.7781 175.441 70.0842 176.715 70.7475C177.738 71.2832 178.298 71.9847 178.396 72.6862C178.522 71.8444 177.962 70.9643 176.715 70.301Z" fill="#FDD762"/>
</g>
<path d="M179.332 95.054C177.907 95.054 176.571 94.7877 175.502 94.1662L150.385 79.6961C149.227 79.0747 148.603 78.1869 148.603 77.2104C148.603 76.2339 149.227 75.3462 150.385 74.7247L175.235 60.3434C177.372 59.1005 180.757 59.1005 182.895 60.3434L207.923 74.7247C209.081 75.3462 209.704 76.2339 209.704 77.2104C209.704 78.1869 209.081 79.0747 207.923 79.6961L183.073 94.0775C182.093 94.6989 180.668 95.054 179.332 95.054ZM179.154 60.3434C177.907 60.3434 176.749 60.6097 175.769 61.1423L150.919 75.5237C150.117 75.9676 149.672 76.589 149.672 77.2104C149.672 77.8318 150.117 78.3645 150.919 78.8971L175.947 93.2785C177.818 94.3438 180.846 94.3438 182.627 93.2785L207.478 78.8971C208.279 78.4533 208.725 77.8318 208.725 77.2104C208.725 76.589 208.279 76.0564 207.478 75.5237L182.538 61.1423C181.559 60.6097 180.401 60.3434 179.154 60.3434Z" fill="white"/>
<path d="M222.352 79.2522L184.765 101.002C181.737 102.689 176.927 102.689 173.899 101.002L136.134 79.2522C134.887 78.542 134.174 77.6543 133.907 76.6778C133.64 78.0094 134.352 79.341 136.134 80.3175L173.899 102.067C176.927 103.754 181.737 103.754 184.765 102.067L222.352 80.3175C224.134 79.341 224.846 77.9206 224.579 76.6778C224.312 77.5655 223.599 78.4533 222.352 79.2522Z" fill="white"/>
<path d="M189.842 106.861L188.061 107.926V105.884L189.842 104.819V106.861Z" fill="white"/>
<path d="M193.583 104.73L191.802 105.796V103.754L193.583 102.689V104.73Z" fill="white"/>
<path d="M197.324 102.6L195.542 103.576V101.534L197.324 100.558V102.6Z" fill="white"/>
<path d="M194.296 108.548L192.514 109.524V107.482L194.296 106.417V108.548Z" fill="white"/>
<path d="M197.591 106.595L195.81 107.66V105.618L197.591 104.553V106.595Z" fill="white"/>
<path d="M209.348 95.6754L207.567 96.7407V94.6989L209.348 93.6336V95.6754Z" fill="white"/>
<path d="M219.591 89.7275L217.81 90.7928V88.751L219.591 87.6857V89.7275Z" fill="white"/>
<path d="M201.065 100.469L199.283 101.446V99.4039L201.065 98.3386V100.469Z" fill="white"/>
<path d="M248.182 213.478C247.292 213.478 246.401 213.301 245.688 212.857L229.389 203.536C228.676 203.092 228.231 202.559 228.231 201.849C228.231 201.228 228.676 200.606 229.389 200.162L245.599 190.752C247.024 189.953 249.251 189.953 250.676 190.752L266.976 200.073C267.688 200.517 268.134 201.05 268.134 201.76C268.134 202.382 267.688 203.003 266.976 203.447L250.765 212.857C249.964 213.301 249.073 213.478 248.182 213.478ZM248.093 190.93C247.292 190.93 246.49 191.107 245.956 191.462L229.745 200.872C229.211 201.139 228.943 201.583 228.943 201.938C228.943 202.293 229.211 202.648 229.745 203.003L246.045 212.324C247.202 213.034 249.162 213.034 250.409 212.324L266.619 202.914C267.154 202.648 267.421 202.204 267.421 201.849C267.421 201.494 267.154 201.139 266.619 200.784L250.231 191.462C249.607 191.107 248.895 190.93 248.093 190.93Z" fill="#03A7D3"/>
<path d="M110.215 213.478C109.324 213.478 108.433 213.301 107.721 212.857L91.4211 203.536C90.7085 203.092 90.2632 202.559 90.2632 201.849C90.2632 201.228 90.7085 200.606 91.4211 200.162L107.632 190.752C109.057 189.953 111.283 189.953 112.709 190.752L129.008 200.073C129.721 200.517 130.166 201.05 130.166 201.76C130.166 202.382 129.721 203.003 129.008 203.447L112.798 212.857C111.996 213.301 111.105 213.478 110.215 213.478ZM110.126 190.93C109.324 190.93 108.522 191.107 107.988 191.462L91.7774 200.872C91.2429 201.139 90.9757 201.583 90.9757 201.938C90.9757 202.293 91.2429 202.648 91.7774 203.003L108.077 212.324C109.235 213.034 111.194 213.034 112.441 212.324L128.652 202.914C129.186 202.648 129.453 202.204 129.453 201.849C129.453 201.494 129.186 201.139 128.652 200.784L112.352 191.462C111.64 191.107 110.927 190.93 110.126 190.93Z" fill="#03A7D3"/>
<g opacity="0.5">
<path opacity="0.5" d="M248.182 206.199C247.292 206.199 246.401 206.021 245.688 205.577L229.389 196.256C228.676 195.812 228.231 195.28 228.231 194.569C228.231 193.948 228.676 193.327 229.389 192.883L245.599 183.473C247.024 182.674 249.251 182.674 250.676 183.473L266.976 192.794C267.688 193.238 268.134 193.771 268.134 194.481C268.134 195.102 267.688 195.724 266.976 196.167L250.765 205.577C249.964 206.021 249.073 206.199 248.182 206.199ZM248.093 183.65C247.292 183.65 246.49 183.828 245.956 184.183L229.745 193.504C229.211 193.771 228.943 194.214 228.943 194.569C228.943 194.925 229.211 195.28 229.745 195.635L246.045 204.956C247.202 205.666 249.162 205.666 250.409 204.956L266.619 195.546C267.154 195.28 267.421 194.836 267.421 194.481C267.421 194.126 267.154 193.771 266.619 193.415L250.231 184.183C249.607 183.828 248.895 183.65 248.093 183.65Z" fill="#03A7D3"/>
<path opacity="0.5" d="M110.215 206.199C109.324 206.199 108.433 206.021 107.721 205.577L91.4211 196.256C90.7085 195.812 90.2632 195.28 90.2632 194.569C90.2632 193.948 90.7085 193.327 91.4211 192.883L107.632 183.473C109.057 182.674 111.283 182.674 112.709 183.473L129.008 192.794C129.721 193.238 130.166 193.771 130.166 194.481C130.166 195.102 129.721 195.724 129.008 196.167L112.798 205.577C111.996 206.021 111.105 206.199 110.215 206.199ZM110.126 183.65C109.324 183.65 108.522 183.828 107.988 184.183L91.7774 193.593C91.2429 193.859 90.9757 194.303 90.9757 194.658C90.9757 195.013 91.2429 195.368 91.7774 195.724L108.077 205.045C109.235 205.755 111.194 205.755 112.441 205.045L128.652 195.635C129.186 195.368 129.453 194.925 129.453 194.569C129.453 194.214 129.186 193.859 128.652 193.504L112.352 184.183C111.64 183.828 110.927 183.65 110.126 183.65Z" fill="#03A7D3"/>
</g>
</g>
<path fill-rule="evenodd" clip-rule="evenodd" d="M-0.00012207 215.793C1.07239 226.539 11.7279 235 24.8399 235H334.934C348.053 235 358.701 226.539 359.779 215.793H-0.00012207Z" fill="#EFEFEF"/>
<path fill-rule="evenodd" clip-rule="evenodd" d="M132.462 222.201H227.317V215.792H132.462V222.201Z" fill="#CCCCCC"/>
</g>
<defs>
<linearGradient id="paint0_linear" x1="128.411" y1="163.084" x2="192.381" y2="163.084" gradientUnits="userSpaceOnUse">
<stop stop-color="#01C8EF"/>
<stop offset="0.1297" stop-color="#04B1DD"/>
<stop offset="0.5466" stop-color="#0E6BA7"/>
<stop offset="0.8476" stop-color="#154085"/>
<stop offset="1" stop-color="#172F78"/>
</linearGradient>
<radialGradient id="paint1_radial" cx="0" cy="0" r="1" gradientUnits="userSpaceOnUse" gradientTransform="translate(117.067 115.274) scale(142.858 142.385)">
<stop stop-color="#01C8EF"/>
<stop offset="0.1396" stop-color="#03BAE4"/>
<stop offset="0.4033" stop-color="#0895C8"/>
<stop offset="0.76" stop-color="#115A9A"/>
<stop offset="1" stop-color="#172F78"/>
</radialGradient>
<linearGradient id="paint2_linear" x1="128.411" y1="129.229" x2="192.381" y2="129.229" gradientUnits="userSpaceOnUse">
<stop stop-color="#01C8EF"/>
<stop offset="0.1297" stop-color="#04B1DD"/>
<stop offset="0.5466" stop-color="#0E6BA7"/>
<stop offset="0.8476" stop-color="#154085"/>
<stop offset="1" stop-color="#172F78"/>
</linearGradient>
<radialGradient id="paint3_radial" cx="0" cy="0" r="1" gradientUnits="userSpaceOnUse" gradientTransform="translate(117.067 81.4192) scale(142.858 142.385)">
<stop stop-color="#01C8EF"/>
<stop offset="0.1396" stop-color="#03BAE4"/>
<stop offset="0.4033" stop-color="#0895C8"/>
<stop offset="0.76" stop-color="#115A9A"/>
<stop offset="1" stop-color="#172F78"/>
</radialGradient>
<linearGradient id="paint4_linear" x1="128.411" y1="95.374" x2="192.381" y2="95.374" gradientUnits="userSpaceOnUse">
<stop stop-color="#01C8EF"/>
<stop offset="0.1297" stop-color="#04B1DD"/>
<stop offset="0.5466" stop-color="#0E6BA7"/>
<stop offset="0.8476" stop-color="#154085"/>
<stop offset="1" stop-color="#172F78"/>
</linearGradient>
<radialGradient id="paint5_radial" cx="0" cy="0" r="1" gradientUnits="userSpaceOnUse" gradientTransform="translate(117.067 47.5643) scale(142.858 142.385)">
<stop stop-color="#01C8EF"/>
<stop offset="0.1396" stop-color="#03BAE4"/>
<stop offset="0.4033" stop-color="#0895C8"/>
<stop offset="0.76" stop-color="#115A9A"/>
<stop offset="1" stop-color="#172F78"/>
</radialGradient>
<radialGradient id="paint6_radial" cx="0" cy="0" r="1" gradientUnits="userSpaceOnUse" gradientTransform="translate(129.718 56.1518) scale(98.1758 97.8116)">
<stop stop-color="#2743BC"/>
<stop offset="1" stop-color="#B6246E"/>
</radialGradient>
<clipPath id="clip0">
<rect x="166" y="68.9999" width="28" height="15" fill="white"/>
</clipPath>
</defs>
</svg>
