<svg width="332" height="261" viewBox="0 0 332 261" fill="none" xmlns="http://www.w3.org/2000/svg">
<g clip-path="url(#clip0)">
<g filter="url(#filter0_d)">
<path d="M4.4 114.941C4.4 111.621 7.1 108.905 10.4 108.905H149.5C152.8 108.905 155.5 111.621 155.5 114.941V261H159.9V111.118C159.9 100.053 150.9 91 139.9 91H20C9 91 0 100.053 0 111.118V261H4.4V114.941ZM104 97.2367C105.5 97.2367 106.7 98.4438 106.7 99.9527C106.7 101.462 105.5 102.669 104 102.669C102.5 102.669 101.3 101.462 101.3 99.9527C101.3 98.4438 102.5 97.2367 104 97.2367ZM64.9 97.2367H95.1C96.6 97.2367 97.8 98.4438 97.8 99.9527C97.8 101.462 96.6 102.669 95.1 102.669H64.9C63.4 102.669 62.2 101.462 62.2 99.9527C62.2 98.4438 63.4 97.2367 64.9 97.2367ZM56 97.2367C57.5 97.2367 58.7 98.4438 58.7 99.9527C58.7 101.462 57.5 102.669 56 102.669C54.5 102.669 53.3 101.462 53.3 99.9527C53.3 98.4438 54.5 97.2367 56 97.2367Z" fill="white"/>
</g>
<path d="M149.815 108.905H10.6154C7.31539 108.905 4.61539 111.621 4.61539 114.941V261H155.715V114.941C155.815 111.621 153.115 108.905 149.815 108.905Z" fill="#191551"/>
<path d="M64.9 102.669H95.1C96.6 102.669 97.8 101.462 97.8 99.9527C97.8 98.4438 96.6 97.2367 95.1 97.2367H64.9C63.4 97.2367 62.2 98.4438 62.2 99.9527C62.2 101.462 63.4 102.669 64.9 102.669Z" fill="#CCCCCC"/>
<path d="M56 102.669C57.5 102.669 58.7 101.462 58.7 99.9527C58.7 98.4438 57.5 97.2367 56 97.2367C54.5 97.2367 53.3 98.4438 53.3 99.9527C53.3 101.462 54.5 102.669 56 102.669Z" fill="#CCCCCC"/>
<path d="M104 102.669C105.5 102.669 106.7 101.462 106.7 99.9527C106.7 98.4438 105.5 97.2367 104 97.2367C102.5 97.2367 101.3 98.4438 101.3 99.9527C101.3 101.462 102.5 102.669 104 102.669Z" fill="#CCCCCC"/>
<path d="M67.1528 173.055L66.8157 174C56.9038 170.559 51.6107 159.765 55.0495 149.813C58.4884 139.862 69.2768 134.633 79.1887 138.04C86.7406 140.638 91.8651 147.688 92 155.683H90.9549C89.4377 146.71 80.9418 140.705 71.9739 142.223C63.006 143.741 57.0049 152.276 58.5558 161.249C59.3986 166.309 62.6014 170.66 67.1528 173.055Z" fill="url(#paint0_linear)"/>
<path d="M89.9158 137.77L90.2587 137C104.763 143.63 111.038 160.473 104.283 174.637C97.5282 188.801 80.2461 194.963 65.7415 188.333C54.7002 183.31 48.048 172.059 49.111 160.205L50.0368 160.306C50.7912 174.235 62.964 184.884 77.2286 184.147C91.4932 183.41 102.397 171.523 101.643 157.593C101.197 149.523 96.8424 142.19 89.9158 137.77Z" fill="url(#paint1_linear)"/>
<path d="M52.1716 218.4C51.0383 219.533 49.7183 220.1 48.2116 220.1C47.2783 220.1 46.3983 219.913 45.5716 219.54C44.7583 219.167 44.045 218.653 43.4316 218C42.8316 217.347 42.3516 216.58 41.9916 215.7C41.645 214.807 41.4716 213.847 41.4716 212.82C41.4716 211.847 41.645 210.933 41.9916 210.08C42.3516 209.213 42.8383 208.46 43.4516 207.82C44.0783 207.167 44.8116 206.653 45.6516 206.28C46.4916 205.893 47.405 205.7 48.3916 205.7C49.725 205.7 50.865 205.98 51.8116 206.54C52.7716 207.1 53.4916 207.853 53.9716 208.8L51.9116 210.32C51.5516 209.613 51.045 209.073 50.3916 208.7C49.7516 208.327 49.0516 208.14 48.2916 208.14C47.6916 208.14 47.1383 208.267 46.6316 208.52C46.1383 208.773 45.7116 209.12 45.3516 209.56C45.005 210 44.7316 210.507 44.5316 211.08C44.345 211.653 44.2516 212.26 44.2516 212.9C44.2516 213.567 44.3583 214.193 44.5716 214.78C44.785 215.353 45.0783 215.853 45.4516 216.28C45.825 216.707 46.265 217.047 46.7716 217.3C47.2916 217.54 47.8516 217.66 48.4516 217.66C49.825 217.66 51.065 217.013 52.1716 215.72V214.72H49.3116V212.7H54.4516V220H52.1716V218.4ZM61.4038 220.2C60.5638 220.2 59.8038 220.06 59.1238 219.78C58.4438 219.487 57.8638 219.093 57.3838 218.6C56.9038 218.107 56.5305 217.533 56.2638 216.88C56.0105 216.227 55.8838 215.54 55.8838 214.82C55.8838 214.073 56.0105 213.373 56.2638 212.72C56.5172 212.053 56.8838 211.473 57.3638 210.98C57.8438 210.473 58.4238 210.073 59.1038 209.78C59.7972 209.487 60.5705 209.34 61.4238 209.34C62.2772 209.34 63.0372 209.487 63.7038 209.78C64.3838 210.073 64.9572 210.467 65.4238 210.96C65.9038 211.453 66.2638 212.027 66.5038 212.68C66.7572 213.333 66.8838 214.013 66.8838 214.72C66.8838 214.893 66.8772 215.06 66.8638 215.22C66.8638 215.38 66.8505 215.513 66.8238 215.62H58.7238C58.7638 216.033 58.8638 216.4 59.0238 216.72C59.1838 217.04 59.3905 217.313 59.6438 217.54C59.8972 217.767 60.1838 217.94 60.5038 218.06C60.8238 218.18 61.1572 218.24 61.5038 218.24C62.0372 218.24 62.5372 218.113 63.0038 217.86C63.4838 217.593 63.8105 217.247 63.9838 216.82L66.2838 217.46C65.8972 218.26 65.2772 218.92 64.4238 219.44C63.5838 219.947 62.5772 220.2 61.4038 220.2ZM64.1238 213.88C64.0572 213.093 63.7638 212.467 63.2438 212C62.7372 211.52 62.1172 211.28 61.3838 211.28C61.0238 211.28 60.6838 211.347 60.3638 211.48C60.0572 211.6 59.7838 211.773 59.5438 212C59.3038 212.227 59.1038 212.5 58.9438 212.82C58.7972 213.14 58.7105 213.493 58.6838 213.88H64.1238ZM73.3565 220.2C72.5032 220.2 71.7365 220.053 71.0565 219.76C70.3765 219.467 69.7965 219.073 69.3165 218.58C68.8498 218.073 68.4898 217.493 68.2365 216.84C67.9832 216.187 67.8565 215.5 67.8565 214.78C67.8565 214.047 67.9832 213.353 68.2365 212.7C68.4898 212.047 68.8498 211.473 69.3165 210.98C69.7965 210.473 70.3765 210.073 71.0565 209.78C71.7365 209.487 72.5032 209.34 73.3565 209.34C74.2098 209.34 74.9698 209.487 75.6365 209.78C76.3165 210.073 76.8898 210.473 77.3565 210.98C77.8365 211.473 78.2032 212.047 78.4565 212.7C78.7098 213.353 78.8365 214.047 78.8365 214.78C78.8365 215.5 78.7098 216.187 78.4565 216.84C78.2032 217.493 77.8432 218.073 77.3765 218.58C76.9098 219.073 76.3365 219.467 75.6565 219.76C74.9765 220.053 74.2098 220.2 73.3565 220.2ZM70.6165 214.78C70.6165 215.247 70.6832 215.673 70.8165 216.06C70.9632 216.433 71.1565 216.76 71.3965 217.04C71.6498 217.32 71.9432 217.54 72.2765 217.7C72.6098 217.847 72.9698 217.92 73.3565 217.92C73.7432 217.92 74.1032 217.847 74.4365 217.7C74.7698 217.54 75.0565 217.32 75.2965 217.04C75.5498 216.76 75.7432 216.427 75.8765 216.04C76.0232 215.653 76.0965 215.227 76.0965 214.76C76.0965 214.307 76.0232 213.887 75.8765 213.5C75.7432 213.113 75.5498 212.78 75.2965 212.5C75.0565 212.22 74.7698 212.007 74.4365 211.86C74.1032 211.7 73.7432 211.62 73.3565 211.62C72.9698 211.62 72.6098 211.7 72.2765 211.86C71.9432 212.02 71.6498 212.24 71.3965 212.52C71.1565 212.8 70.9632 213.133 70.8165 213.52C70.6832 213.907 70.6165 214.327 70.6165 214.78ZM89.2677 209.52C89.1744 209.427 89.0011 209.3 88.7477 209.14C88.5077 208.98 88.2077 208.827 87.8477 208.68C87.5011 208.52 87.1211 208.387 86.7077 208.28C86.2944 208.173 85.8744 208.12 85.4477 208.12C84.6877 208.12 84.1211 208.26 83.7477 208.54C83.3744 208.82 83.1877 209.213 83.1877 209.72C83.1877 210.013 83.2544 210.26 83.3877 210.46C83.5344 210.647 83.7411 210.813 84.0077 210.96C84.2744 211.107 84.6077 211.24 85.0077 211.36C85.4211 211.48 85.8944 211.607 86.4277 211.74C87.1211 211.927 87.7477 212.127 88.3077 212.34C88.8811 212.553 89.3611 212.82 89.7477 213.14C90.1477 213.46 90.4544 213.847 90.6677 214.3C90.8811 214.74 90.9877 215.287 90.9877 215.94C90.9877 216.7 90.8411 217.353 90.5477 217.9C90.2677 218.433 89.8811 218.867 89.3877 219.2C88.9077 219.533 88.3477 219.78 87.7077 219.94C87.0811 220.087 86.4211 220.16 85.7277 220.16C84.6611 220.16 83.6077 220 82.5677 219.68C81.5277 219.36 80.5944 218.907 79.7677 218.32L80.9877 215.94C81.1077 216.06 81.3211 216.22 81.6277 216.42C81.9477 216.607 82.3211 216.8 82.7477 217C83.1744 217.187 83.6477 217.347 84.1677 217.48C84.6877 217.613 85.2211 217.68 85.7677 217.68C87.2877 217.68 88.0477 217.193 88.0477 216.22C88.0477 215.913 87.9611 215.653 87.7877 215.44C87.6144 215.227 87.3677 215.04 87.0477 214.88C86.7277 214.72 86.3411 214.573 85.8877 214.44C85.4344 214.307 84.9277 214.16 84.3677 214C83.6877 213.813 83.0944 213.613 82.5877 213.4C82.0944 213.173 81.6811 212.913 81.3477 212.62C81.0144 212.313 80.7611 211.967 80.5877 211.58C80.4277 211.18 80.3477 210.707 80.3477 210.16C80.3477 209.44 80.4811 208.8 80.7477 208.24C81.0144 207.68 81.3811 207.213 81.8477 206.84C82.3277 206.467 82.8811 206.187 83.5077 206C84.1344 205.8 84.8077 205.7 85.5277 205.7C86.5277 205.7 87.4477 205.86 88.2877 206.18C89.1277 206.487 89.8611 206.853 90.4877 207.28L89.2677 209.52ZM96.0134 220.2C94.9334 220.2 94.1134 219.853 93.5534 219.16C92.9934 218.467 92.7134 217.44 92.7134 216.08V209.52H95.3934V215.5C95.3934 217.113 95.9734 217.92 97.1334 217.92C97.6534 217.92 98.1534 217.767 98.6334 217.46C99.1267 217.14 99.5267 216.66 99.8334 216.02V209.52H102.513V216.92C102.513 217.2 102.56 217.4 102.653 217.52C102.76 217.64 102.927 217.707 103.153 217.72V220C102.887 220.053 102.66 220.087 102.473 220.1C102.3 220.113 102.14 220.12 101.993 220.12C101.513 220.12 101.12 220.013 100.813 219.8C100.52 219.573 100.347 219.267 100.293 218.88L100.233 218.04C99.7667 218.76 99.1667 219.3 98.4334 219.66C97.7 220.02 96.8934 220.2 96.0134 220.2ZM111.417 211.84C110.603 211.853 109.877 212.013 109.237 212.32C108.597 212.613 108.137 213.06 107.857 213.66V220H105.177V209.52H107.637V211.76C107.823 211.4 108.043 211.08 108.297 210.8C108.55 210.507 108.823 210.253 109.117 210.04C109.41 209.827 109.703 209.667 109.997 209.56C110.303 209.44 110.597 209.38 110.877 209.38C111.023 209.38 111.13 209.38 111.197 209.38C111.277 209.38 111.35 209.387 111.417 209.4V211.84ZM113.551 220V212.12H112.171V210.08H113.551V209.44C113.551 208.133 113.864 207.1 114.491 206.34C115.118 205.58 115.971 205.2 117.051 205.2C117.904 205.2 118.764 205.407 119.631 205.82L119.091 207.84C118.891 207.733 118.651 207.647 118.371 207.58C118.104 207.5 117.858 207.46 117.631 207.46C116.698 207.46 116.231 208.087 116.231 209.34V210.08H118.791V212.12H116.231V220H113.551Z" fill="white"/>
</g>
<g clip-path="url(#clip1)">
<g filter="url(#filter1_d)">
<path d="M92.765 36.7562C92.765 31.6598 96.9163 27.4899 101.99 27.4899H315.856C320.93 27.4899 325.081 31.6598 325.081 36.7562V261H331.846V30.8876C331.846 13.8994 318.009 0 301.096 0H116.75C99.8375 0 86 13.8994 86 30.8876V261H92.765V36.7562ZM245.9 9.57515C248.206 9.57515 250.051 11.4284 250.051 13.745C250.051 16.0615 248.206 17.9148 245.9 17.9148C243.594 17.9148 241.749 16.0615 241.749 13.745C241.749 11.4284 243.594 9.57515 245.9 9.57515ZM185.784 9.57515H232.216C234.523 9.57515 236.368 11.4284 236.368 13.745C236.368 16.0615 234.523 17.9148 232.216 17.9148H185.784C183.478 17.9148 181.633 16.0615 181.633 13.745C181.633 11.4284 183.478 9.57515 185.784 9.57515ZM172.1 9.57515C174.406 9.57515 176.251 11.4284 176.251 13.745C176.251 16.0615 174.406 17.9148 172.1 17.9148C169.794 17.9148 167.949 16.0615 167.949 13.745C167.949 11.4284 169.794 9.57515 172.1 9.57515Z" fill="white"/>
</g>
<path d="M316.245 27.4899H102.225C97.1512 27.4899 93 31.6598 93 36.7562V261H325.316V36.7562C325.47 31.6598 321.319 27.4899 316.245 27.4899Z" fill="#191551"/>
<path d="M185.784 17.9148H232.216C234.522 17.9148 236.367 16.0615 236.367 13.745C236.367 11.4284 234.522 9.57515 232.216 9.57515H185.784C183.478 9.57515 181.633 11.4284 181.633 13.745C181.633 16.0615 183.478 17.9148 185.784 17.9148Z" fill="#CCCCCC"/>
<path d="M172.1 17.9148C174.406 17.9148 176.251 16.0615 176.251 13.745C176.251 11.4284 174.406 9.57515 172.1 9.57515C169.794 9.57515 167.949 11.4284 167.949 13.745C167.949 16.0615 169.794 17.9148 172.1 17.9148Z" fill="#CCCCCC"/>
<path d="M245.9 17.9148C248.206 17.9148 250.051 16.0615 250.051 13.745C250.051 11.4284 248.206 9.57515 245.9 9.57515C243.594 9.57515 241.749 11.4284 241.749 13.745C241.749 16.0615 243.594 17.9148 245.9 17.9148Z" fill="#CCCCCC"/>
<rect x="121" y="80" width="176.359" height="79.4198" rx="17" fill="white"/>
<path d="M258.759 118.486C258.73 113.603 260.95 109.923 265.433 107.21C262.926 103.631 259.132 101.662 254.132 101.283C249.397 100.91 244.217 104.032 242.32 104.032C240.315 104.032 235.732 101.411 232.125 101.411C224.681 101.526 216.771 107.325 216.771 119.123C216.771 122.609 217.41 126.21 218.689 129.918C220.399 134.801 226.564 146.763 232.994 146.57C236.357 146.491 238.735 144.193 243.11 144.193C247.356 144.193 249.555 146.57 253.305 146.57C259.793 146.477 265.369 135.603 266.992 130.706C258.292 126.618 258.759 118.736 258.759 118.486ZM251.207 96.6508C254.85 92.3411 254.52 88.4179 254.412 87.0076C251.193 87.1938 247.471 89.1911 245.352 91.6466C243.017 94.2811 241.645 97.5385 241.939 101.211C245.417 101.476 248.592 99.6933 251.207 96.6508Z" fill="#FCCA2E"/>
<g clip-path="url(#clip2)">
<path d="M155.746 131.681C155.746 133.046 156.863 134.163 158.228 134.163H160.71V142.85C160.71 144.91 162.373 146.573 164.433 146.573C166.493 146.573 168.156 144.91 168.156 142.85V134.163H173.119V142.85C173.119 144.91 174.782 146.573 176.842 146.573C178.902 146.573 180.565 144.91 180.565 142.85V134.163H183.047C184.412 134.163 185.529 133.046 185.529 131.681V106.863H155.746V131.681ZM149.542 106.863C147.482 106.863 145.819 108.525 145.819 110.585V127.958C145.819 130.018 147.482 131.681 149.542 131.681C151.601 131.681 153.264 130.018 153.264 127.958V110.585C153.264 108.525 151.601 106.863 149.542 106.863ZM191.733 106.863C189.673 106.863 188.01 108.525 188.01 110.585V127.958C188.01 130.018 189.673 131.681 191.733 131.681C193.793 131.681 195.456 130.018 195.456 127.958V110.585C195.456 108.525 193.793 106.863 191.733 106.863ZM179.398 92.3685L182.625 89.142C183.121 88.6457 183.121 87.8763 182.625 87.3799C182.128 86.8835 181.359 86.8835 180.863 87.3799L177.19 91.0531C175.159 90.0246 172.914 89.4889 170.637 89.4895C168.255 89.4895 166.021 90.0603 164.036 91.0531L160.338 87.3799C159.841 86.8835 159.072 86.8835 158.576 87.3799C158.079 87.8763 158.079 88.6457 158.576 89.142L161.827 92.3933C159.942 93.7724 158.409 95.5767 157.352 97.6596C156.296 99.7425 155.746 102.045 155.746 104.381H185.529C185.529 99.4418 183.121 95.0737 179.398 92.3685ZM165.674 99.417H163.192V96.9351H165.674V99.417ZM178.083 99.417H175.601V96.9351H178.083V99.417Z" fill="#03E59F"/>
</g>
<path d="M256.157 220.972V223.634H247.225V220.972H250.349V214.306C250.217 214.482 250.004 214.665 249.711 214.856C249.432 215.032 249.124 215.2 248.787 215.362C248.449 215.523 248.097 215.655 247.731 215.758C247.379 215.86 247.063 215.912 246.785 215.912V213.162C247.049 213.162 247.371 213.081 247.753 212.92C248.134 212.744 248.508 212.538 248.875 212.304C249.241 212.069 249.557 211.842 249.821 211.622C250.099 211.387 250.275 211.204 250.349 211.072H253.363V220.972H256.157ZM269.118 217.188C269.118 218.156 268.971 219.05 268.678 219.872C268.399 220.678 268.003 221.382 267.49 221.984C266.991 222.57 266.39 223.032 265.686 223.37C264.997 223.692 264.249 223.854 263.442 223.854C262.621 223.854 261.865 223.692 261.176 223.37C260.487 223.032 259.885 222.57 259.372 221.984C258.873 221.382 258.477 220.678 258.184 219.872C257.905 219.05 257.766 218.156 257.766 217.188C257.766 216.22 257.905 215.332 258.184 214.526C258.477 213.704 258.873 213 259.372 212.414C259.885 211.812 260.487 211.343 261.176 211.006C261.865 210.668 262.621 210.5 263.442 210.5C264.249 210.5 264.997 210.668 265.686 211.006C266.39 211.343 266.991 211.812 267.49 212.414C268.003 213 268.399 213.704 268.678 214.526C268.971 215.332 269.118 216.22 269.118 217.188ZM266.148 217.188C266.148 216.601 266.082 216.066 265.95 215.582C265.818 215.083 265.627 214.658 265.378 214.306C265.143 213.954 264.857 213.682 264.52 213.492C264.197 213.301 263.838 213.206 263.442 213.206C263.031 213.206 262.657 213.301 262.32 213.492C261.997 213.682 261.711 213.954 261.462 214.306C261.227 214.658 261.044 215.083 260.912 215.582C260.78 216.066 260.714 216.601 260.714 217.188C260.714 217.774 260.78 218.31 260.912 218.794C261.044 219.278 261.227 219.696 261.462 220.048C261.711 220.4 261.997 220.671 262.32 220.862C262.657 221.052 263.031 221.148 263.442 221.148C263.838 221.148 264.197 221.052 264.52 220.862C264.857 220.671 265.143 220.4 265.378 220.048C265.627 219.696 265.818 219.278 265.95 218.794C266.082 218.31 266.148 217.774 266.148 217.188ZM282.632 217.188C282.632 218.156 282.485 219.05 282.192 219.872C281.913 220.678 281.517 221.382 281.004 221.984C280.505 222.57 279.904 223.032 279.2 223.37C278.51 223.692 277.762 223.854 276.956 223.854C276.134 223.854 275.379 223.692 274.69 223.37C274 223.032 273.399 222.57 272.886 221.984C272.387 221.382 271.991 220.678 271.698 219.872C271.419 219.05 271.28 218.156 271.28 217.188C271.28 216.22 271.419 215.332 271.698 214.526C271.991 213.704 272.387 213 272.886 212.414C273.399 211.812 274 211.343 274.69 211.006C275.379 210.668 276.134 210.5 276.956 210.5C277.762 210.5 278.51 210.668 279.2 211.006C279.904 211.343 280.505 211.812 281.004 212.414C281.517 213 281.913 213.704 282.192 214.526C282.485 215.332 282.632 216.22 282.632 217.188ZM279.662 217.188C279.662 216.601 279.596 216.066 279.464 215.582C279.332 215.083 279.141 214.658 278.892 214.306C278.657 213.954 278.371 213.682 278.034 213.492C277.711 213.301 277.352 213.206 276.956 213.206C276.545 213.206 276.171 213.301 275.834 213.492C275.511 213.682 275.225 213.954 274.976 214.306C274.741 214.658 274.558 215.083 274.426 215.582C274.294 216.066 274.228 216.601 274.228 217.188C274.228 217.774 274.294 218.31 274.426 218.794C274.558 219.278 274.741 219.696 274.976 220.048C275.225 220.4 275.511 220.671 275.834 220.862C276.171 221.052 276.545 221.148 276.956 221.148C277.352 221.148 277.711 221.052 278.034 220.862C278.371 220.671 278.657 220.4 278.892 220.048C279.141 219.696 279.332 219.278 279.464 218.794C279.596 218.31 279.662 217.774 279.662 217.188ZM288.115 214.46C287.602 214.46 287.125 214.372 286.685 214.196C286.245 214.02 285.864 213.785 285.541 213.492C285.219 213.184 284.962 212.832 284.771 212.436C284.581 212.025 284.485 211.585 284.485 211.116C284.485 210.661 284.581 210.228 284.771 209.818C284.962 209.407 285.219 209.055 285.541 208.762C285.864 208.468 286.245 208.234 286.685 208.058C287.125 207.882 287.602 207.794 288.115 207.794C288.614 207.794 289.083 207.882 289.523 208.058C289.978 208.234 290.367 208.468 290.689 208.762C291.012 209.055 291.269 209.407 291.459 209.818C291.65 210.228 291.745 210.661 291.745 211.116C291.745 211.585 291.65 212.025 291.459 212.436C291.269 212.832 291.012 213.184 290.689 213.492C290.367 213.785 289.978 214.02 289.523 214.196C289.083 214.372 288.614 214.46 288.115 214.46ZM288.115 212.986C288.335 212.986 288.533 212.934 288.709 212.832C288.9 212.729 289.069 212.597 289.215 212.436C289.362 212.26 289.472 212.062 289.545 211.842C289.633 211.607 289.677 211.365 289.677 211.116C289.677 210.602 289.523 210.17 289.215 209.818C288.907 209.451 288.541 209.268 288.115 209.268C287.895 209.268 287.69 209.319 287.499 209.422C287.323 209.524 287.162 209.664 287.015 209.84C286.869 210.001 286.751 210.192 286.663 210.412C286.59 210.632 286.553 210.866 286.553 211.116C286.553 211.629 286.707 212.069 287.015 212.436C287.323 212.802 287.69 212.986 288.115 212.986ZM296.607 223.854C296.094 223.854 295.617 223.766 295.177 223.59C294.737 223.414 294.356 223.179 294.033 222.886C293.711 222.592 293.454 222.248 293.263 221.852C293.073 221.441 292.977 221.001 292.977 220.532C292.977 220.062 293.073 219.63 293.263 219.234C293.454 218.823 293.711 218.471 294.033 218.178C294.356 217.87 294.737 217.628 295.177 217.452C295.617 217.276 296.094 217.188 296.607 217.188C297.121 217.188 297.597 217.276 298.037 217.452C298.477 217.628 298.859 217.87 299.181 218.178C299.519 218.471 299.775 218.823 299.951 219.234C300.142 219.63 300.237 220.062 300.237 220.532C300.237 221.001 300.142 221.441 299.951 221.852C299.775 222.248 299.519 222.592 299.181 222.886C298.859 223.179 298.477 223.414 298.037 223.59C297.597 223.766 297.121 223.854 296.607 223.854ZM296.607 222.38C296.827 222.38 297.025 222.328 297.201 222.226C297.392 222.123 297.561 221.991 297.707 221.83C297.854 221.654 297.964 221.456 298.037 221.236C298.125 221.016 298.169 220.781 298.169 220.532C298.169 220.268 298.125 220.026 298.037 219.806C297.949 219.571 297.832 219.373 297.685 219.212C297.553 219.036 297.392 218.904 297.201 218.816C297.011 218.713 296.813 218.662 296.607 218.662C296.387 218.662 296.182 218.713 295.991 218.816C295.815 218.918 295.654 219.058 295.507 219.234C295.361 219.395 295.243 219.593 295.155 219.828C295.082 220.048 295.045 220.282 295.045 220.532C295.045 221.045 295.199 221.485 295.507 221.852C295.815 222.204 296.182 222.38 296.607 222.38ZM285.717 222.6L291.921 215.362L297.641 207.838L298.983 209.026L292.977 216.132L287.059 223.788L285.717 222.6Z" fill="white"/>
<path fill-rule="evenodd" clip-rule="evenodd" d="M222.042 211.977H114.037V211.991C110.684 212.143 108 215.734 108 220.153C108 224.572 110.684 228.162 114.037 228.314V228.328H222.042C225.496 228.328 228.298 224.668 228.298 220.153C228.298 215.637 225.496 211.977 222.042 211.977Z" fill="#03E59F"/>
</g>
<defs>
<filter id="filter0_d" x="-4" y="91" width="167.9" height="178" filterUnits="userSpaceOnUse" color-interpolation-filters="sRGB">
<feFlood flood-opacity="0" result="BackgroundImageFix"/>
<feColorMatrix in="SourceAlpha" type="matrix" values="0 0 0 0 0 0 0 0 0 0 0 0 0 0 0 0 0 0 127 0"/>
<feOffset dy="4"/>
<feGaussianBlur stdDeviation="2"/>
<feColorMatrix type="matrix" values="0 0 0 0 0 0 0 0 0 0 0 0 0 0 0 0 0 0 0.25 0"/>
<feBlend mode="normal" in2="BackgroundImageFix" result="effect1_dropShadow"/>
<feBlend mode="normal" in="SourceGraphic" in2="effect1_dropShadow" result="shape"/>
</filter>
<filter id="filter1_d" x="82" y="0" width="253.846" height="269" filterUnits="userSpaceOnUse" color-interpolation-filters="sRGB">
<feFlood flood-opacity="0" result="BackgroundImageFix"/>
<feColorMatrix in="SourceAlpha" type="matrix" values="0 0 0 0 0 0 0 0 0 0 0 0 0 0 0 0 0 0 127 0"/>
<feOffset dy="4"/>
<feGaussianBlur stdDeviation="2"/>
<feColorMatrix type="matrix" values="0 0 0 0 0 0 0 0 0 0 0 0 0 0 0 0 0 0 0.25 0"/>
<feBlend mode="normal" in2="BackgroundImageFix" result="effect1_dropShadow"/>
<feBlend mode="normal" in="SourceGraphic" in2="effect1_dropShadow" result="shape"/>
</filter>
<linearGradient id="paint0_linear" x1="73.0072" y1="136.988" x2="73.0072" y2="173.982" gradientUnits="userSpaceOnUse">
<stop stop-color="#7A5FFF"/>
<stop offset="1" stop-color="#01FF89"/>
</linearGradient>
<linearGradient id="paint1_linear" x1="77.9993" y1="137.031" x2="77.9993" y2="191.011" gradientUnits="userSpaceOnUse">
<stop stop-color="#7A5FFF"/>
<stop offset="1" stop-color="#01FF89"/>
</linearGradient>
<clipPath id="clip0">
<rect y="91" width="160" height="170" fill="white"/>
</clipPath>
<clipPath id="clip1">
<rect x="86" width="246" height="261" fill="white"/>
</clipPath>
<clipPath id="clip2">
<rect x="140.855" y="87.0076" width="59.5649" height="59.5649" fill="white"/>
</clipPath>
</defs>
</svg>
