<?xml version="1.0" encoding="UTF-8"?>
<svg width="295px" height="447px" viewBox="0 0 295 447" version="1.1" xmlns="http://www.w3.org/2000/svg" xmlns:xlink="http://www.w3.org/1999/xlink">
    <!-- Generator: Sketch 54.1 (76490) - https://sketchapp.com -->
    <title>images/Product_MobileVPN</title>
    <desc>Created with Sketch.</desc>
    <defs>
        <polygon id="path-1" points="0.00045679364 0.0310976263 204.436021 0.0310976263 204.436021 395.762188 0.00045679364 395.762188"></polygon>
        <polygon id="path-3" points="0.724110193 0.430198839 42.9390769 0.430198839 42.9390769 81.99508 0.724110193 81.99508"></polygon>
    </defs>
    <g id="HP" stroke="none" stroke-width="1" fill="none" fill-rule="evenodd">
        <g id="Product_Sections" transform="translate(-2482.000000, -603.000000)">
            <g id="Product_MobileVPN" transform="translate(1605.000000, 137.000000)">
                <g id="images/Product_MobileVPN" transform="translate(877.000000, 466.000000)">
                    <g id="Group-139">
                        <g id="Group-3">
                            <mask id="mask-2" fill="white">
                                <use xlink:href="#path-1"></use>
                            </mask>
                            <g id="Clip-2"></g>
                            <path d="M14.6990361,68.7859138 L125.077544,2.49708285 C129.909807,-0.403477566 134.860839,-0.65791269 139.167118,1.26900932 L139.167118,1.26561685 L149.659643,5.07535877 L141.657905,5.07535877 C143.201921,7.64345729 144.416774,10.7136411 145.180298,14.2282383 L203.544118,281.846494 C206.852725,297.007435 200.669872,314.624523 189.7362,321.188949 L79.3576918,387.474388 C78.1835607,388.180021 77.0060361,388.719424 75.8319049,389.116343 L80.1890852,395.762188 L70.9385607,392.542736 L70.948741,392.542736 C65.5090525,390.113728 61.097577,384.207441 59.2515443,375.746625 L0.891118033,108.128369 C-2.41409508,92.9640356 3.76536393,75.35034 14.6990361,68.7859138" id="Fill-1" fill="#D1D4FC" mask="url(#mask-2)"></path>
                        </g>
                        <path d="M94.9895671,395.526561 L205.308158,329.196739 C216.235895,322.628253 222.415391,305.003666 219.108581,289.833349 L160.779835,22.0496044 C157.473024,6.87589368 145.934799,-0.0965451857 135.010454,6.47194031 L24.6884708,72.8017628 C13.7641254,79.3702483 7.58462918,96.9948358 10.8914397,112.168546 L69.2201861,379.952292 C72.523605,395.122608 84.0618301,402.098441 94.9895671,395.526561" id="Fill-4" fill="#E0E3FD"></path>
                        <path d="M94.7818758,387.080263 L202.57115,322.419162 C211.071721,317.322453 215.876834,303.638604 213.307999,291.862632 L155.266576,26.0103142 C152.694348,14.2343419 143.718695,8.81908904 135.218124,13.9191864 L27.4288497,78.5802878 C18.9282788,83.6803852 14.1231657,97.3608457 16.6920009,109.136818 L74.7334236,374.992524 C77.3056523,386.768497 86.2813049,392.180361 94.7818758,387.080263" id="Fill-6" fill="#FFFFFF"></path>
                        <path d="M103.775862,69.7148428 L116.383861,62.3601726 C117.552814,61.6781429 118.241662,59.9871313 117.921591,58.5844002 C117.60152,57.1851848 116.390819,56.605108 115.225344,57.283622 L102.617346,64.6418078 C101.448392,65.3238375 100.756065,67.0113335 101.079615,68.4140646 C101.396207,69.81328 102.606908,70.3968724 103.775862,69.7148428" id="Fill-8" fill="#F0F1FE"></path>
                        <path d="M74.6560138,86.7233359 L92.4529654,76.2006853 C93.5719354,75.5389692 94.2313284,73.8983225 93.9249438,72.5407812 C93.6185591,71.179829 92.4629562,70.6136183 91.3406559,71.2787453 L73.5470346,81.8013959 C72.4280646,82.4597011 71.7686716,84.1003478 72.0750562,85.4613 C72.3814409,86.8188413 73.5370438,87.385052 74.6560138,86.7233359" id="Fill-10" fill="#F0F1FE"></path>
                        <path d="M124.774853,126.714843 L137.383746,119.360173 C138.552782,118.678143 139.241679,116.987131 138.921585,115.5844 C138.601492,114.185185 137.394184,113.605108 136.225147,114.283622 L123.616254,121.641808 C122.447218,122.323837 121.758321,124.011334 122.078415,125.414065 C122.398508,126.81328 123.605816,127.396872 124.774853,126.714843" id="Fill-12" fill="#F0F1FE"></path>
                        <path d="M98.6574311,141.722729 L116.452812,131.199487 C117.571893,130.537734 118.231351,128.900406 117.924936,127.539378 C117.618521,126.178349 116.462804,125.615517 115.343723,126.277271 L97.5483423,136.800513 C96.4292616,137.462266 95.7664727,139.099594 96.0762183,140.460622 C96.3793026,141.821651 97.5383505,142.384483 98.6574311,141.722729" id="Fill-14" fill="#F0F1FE"></path>
                        <path d="M139.714194,60.7214788 L147.419078,56.2334986 C148.562559,55.5673408 149.236396,53.9191155 148.9233,52.5490282 C148.610204,51.1823747 147.429287,50.6123634 146.285806,51.2785212 L138.580922,55.7665014 C137.437441,56.4326592 136.763604,58.0808845 137.0767,59.4509718 C137.389796,60.8176253 138.570713,61.3876366 139.714194,60.7214788" id="Fill-16" fill="#F0F1FE"></path>
                        <path d="M115.730266,85.7248382 L139.409716,72.1718314 C140.559968,71.5169164 141.237796,69.8847191 140.922845,68.5307757 C140.607895,67.1802258 139.416563,66.616931 138.26631,67.2752393 L114.590284,80.8282461 C113.440032,81.483161 112.762204,83.1153584 113.077155,84.4659084 C113.388681,85.8198517 114.580014,86.3831465 115.730266,85.7248382" id="Fill-18" fill="#F0F1FE"></path>
                        <path d="M136.714194,96.7214788 L144.419078,92.2334986 C145.562559,91.5673408 146.236396,89.9191155 145.9233,88.5490282 C145.610204,87.1823747 144.429287,86.6123634 143.285806,87.2785212 L135.580922,91.7665014 C134.437441,92.4326592 133.763604,94.0808845 134.0767,95.4509718 C134.389796,96.8176253 135.570713,97.3876366 136.714194,96.7214788" id="Fill-20" fill="#F0F1FE"></path>
                        <path d="M94.7279036,166.729456 L115.407687,155.085401 C116.560365,154.438323 117.237605,152.833972 116.922928,151.506463 C116.60483,150.175618 115.417949,149.625269 114.268692,150.269011 L93.5889079,161.916402 C92.439651,162.560144 91.7624103,164.164495 92.0770878,165.49534 C92.3917653,166.822849 93.5786467,167.376534 94.7279036,166.729456" id="Fill-22" fill="#F0F1FE"></path>
                        <path d="M143.643065,115.734586 L148.458354,112.989205 C149.575183,112.354397 150.228047,110.780465 149.92647,109.478127 C149.621579,108.172516 148.47161,107.62933 147.354781,108.26741 L142.539493,111.012792 C141.425978,111.6476 140.769799,113.218259 141.07469,114.52387 C141.379581,115.826208 142.52955,116.369394 143.643065,115.734586" id="Fill-24" fill="#F0F1FE"></path>
                        <path d="M147.60032,136.724256 L153.485405,133.181908 C154.580911,132.522392 155.226478,130.8906 154.926518,129.534173 C154.626558,128.177746 153.495187,127.616817 152.39642,128.276333 L146.514595,131.818681 C145.419089,132.478197 144.773522,134.109989 145.073482,135.466416 C145.370182,136.819444 146.504813,137.383772 147.60032,136.724256" id="Fill-26" fill="#F0F1FE"></path>
                        <path d="M123.650595,150.720459 L139.453486,141.253261 C140.57301,140.584663 141.230771,138.930402 140.925145,137.555298 C140.616196,136.180193 139.463452,135.611541 138.34725,136.280138 L122.544359,145.747337 C121.428157,146.412487 120.767073,148.070195 121.076022,149.445299 C121.378327,150.816957 122.534393,151.389056 123.650595,150.720459" id="Fill-28" fill="#F0F1FE"></path>
                        <path d="M144.725819,149.728148 L156.409595,143.108769 C157.560891,142.458562 158.237321,140.849801 157.92302,139.512519 C157.60872,138.175237 156.419844,137.622226 155.271965,138.272433 L143.588188,144.891812 C142.440308,145.542019 141.760463,147.150779 142.07818,148.488062 C142.389064,149.821992 143.577939,150.378355 144.725819,149.728148" id="Fill-30" fill="#F0F1FE"></path>
                        <path d="M76.7676911,177.717758 L84.3886177,173.305533 C85.5541304,172.630476 86.2409503,170.956754 85.9218219,169.571844 C85.6026934,168.183454 84.3990241,167.605829 83.2300426,168.284365 L75.6125848,172.69659 C74.4470721,173.371647 73.7567834,175.04189 74.0793806,176.430279 C74.3950403,177.815189 75.6021784,178.392815 76.7676911,177.717758" id="Fill-32" fill="#F0F1FE"></path>
                        <path d="M107.727904,112.729428 L128.407687,101.084137 C129.560365,100.436991 130.237605,98.8324695 129.922928,97.5048197 C129.60483,96.1771698 128.421369,95.6234264 127.268692,96.2705723 L106.588908,107.915863 C105.439651,108.563009 104.76241,110.164195 105.077088,111.49518 C105.391765,112.82283 106.578647,113.376574 107.727904,112.729428" id="Fill-34" fill="#F0F1FE"></path>
                        <path d="M105.7035,102.725768 L141.425306,82.1562126 C142.564282,81.5003129 143.235464,79.8740874 142.923602,78.5284787 C142.611739,77.1794891 141.435476,76.6182554 140.2965,77.2741551 L104.574694,97.8470912 C103.435718,98.4996099 102.764536,100.125835 103.076398,101.474825 C103.384871,102.820434 104.564524,103.381667 105.7035,102.725768" id="Fill-36" fill="#F0F1FE"></path>
                        <path d="M125.728146,114.729428 L146.409765,103.084137 C147.559124,102.436991 148.239846,100.83247 147.92172,99.5048197 C147.607014,98.1771698 146.420027,97.6234264 145.270668,98.2705723 L124.589049,109.915863 C123.43969,110.563009 122.762389,112.164195 123.077095,113.49518 C123.3918,114.82283 124.578787,115.376574 125.728146,114.729428" id="Fill-38" fill="#F0F1FE"></path>
                        <path d="M92.7676911,122.717797 L100.388618,118.30269 C101.55413,117.631205 102.24095,115.957709 101.921822,114.569508 C101.602693,113.184786 100.399024,112.607239 99.2300426,113.282203 L91.6125848,117.69731 C90.4470721,118.368795 89.7567834,120.042291 90.0793806,121.430492 C90.3950403,122.815214 91.6021784,123.392761 92.7676911,122.717797" id="Fill-40" fill="#F0F1FE"></path>
                        <path d="M36.7667659,106.717758 L44.3884562,102.305533 C45.5540857,101.630476 46.2409745,99.9567537 45.921814,98.5718439 C45.6026536,97.1834544 44.3988636,96.6058287 43.2332341,97.2843649 L35.6115438,101.69659 C34.4459143,102.371647 33.7590255,104.04189 34.078186,105.430279 C34.3973464,106.815189 35.6011364,107.392815 36.7667659,106.717758" id="Fill-42" fill="#F0F1FE"></path>
                        <path d="M126.711417,138.720391 L151.420695,124.255881 C152.563006,123.583674 153.236154,121.929011 152.923378,120.553573 C152.610602,119.181582 151.430894,118.612791 150.288583,119.278104 L125.579305,133.746061 C124.436994,134.414821 123.763846,136.069483 124.076622,137.444922 C124.389398,138.816913 125.569106,139.389151 126.711417,138.720391" id="Fill-44" fill="#F0F1FE"></path>
                        <path d="M126.656155,55.7234124 L144.450719,45.2007106 C145.573079,44.5389913 146.229176,42.8983366 145.926106,41.5407887 C145.616375,40.1798299 144.46071,39.6136164 143.341681,40.2787467 L125.547117,50.8014485 C124.428087,51.4597569 123.768659,53.1004115 124.07506,54.4579594 C124.381461,55.8189183 125.537125,56.3851317 126.656155,55.7234124" id="Fill-46" fill="#F0F1FE"></path>
                        <path d="M147.677188,160.718156 L168.440147,148.299307 C169.567547,147.621536 170.235263,145.953177 169.923215,144.569829 C169.617877,143.183005 168.450213,142.609507 167.322812,143.280326 L146.559853,155.702651 C145.432453,156.37347 144.764737,158.045305 145.076785,159.428653 C145.382123,160.815477 146.549787,161.392451 147.677188,160.718156" id="Fill-48" fill="#F0F1FE"></path>
                        <path d="M134.774853,226.714843 L147.383746,219.360173 C148.552782,218.674627 149.241679,216.987131 148.921585,215.5844 C148.601492,214.185185 147.394184,213.605108 146.225147,214.283622 L133.616254,221.641808 C132.447218,222.323837 131.758321,224.011334 132.078415,225.414065 C132.398508,226.81328 133.605816,227.396872 134.774853,226.714843" id="Fill-50" fill="#F0F1FE"></path>
                        <path d="M105.656155,243.723336 L123.450719,233.200685 C124.573079,232.538969 125.229176,230.898323 124.926106,229.540781 C124.619705,228.179829 123.464041,227.613618 122.341681,228.278745 L104.547117,238.801396 C103.428087,239.459701 102.768659,241.100348 103.07506,242.4613 C103.381461,243.818841 104.537125,244.385052 105.656155,243.723336" id="Fill-52" fill="#F0F1FE"></path>
                        <path d="M156.774853,284.714843 L169.383746,277.360173 C170.552782,276.678143 171.241679,274.987131 170.921585,273.5844 C170.601492,272.185185 169.394184,271.605108 168.225147,272.283622 L155.616254,279.641808 C154.447218,280.323837 153.758321,282.011334 154.078415,283.414065 C154.398508,284.81328 155.605816,285.396872 156.774853,284.714843" id="Fill-54" fill="#F0F1FE"></path>
                        <path d="M130.656014,299.72331 L148.452965,289.199679 C149.571935,288.537902 150.231328,286.900513 149.924944,285.539434 L149.924944,285.539434 C149.618559,284.178355 148.462956,283.615503 147.340656,284.277281 L129.547035,294.800912 C128.428065,295.462689 127.768672,297.100078 128.075056,298.461157 C128.381441,299.818824 129.537044,300.385088 130.656014,299.72331" id="Fill-56" fill="#F0F1FE"></path>
                        <path d="M171.714194,217.721479 L179.419078,213.233499 C180.562559,212.567341 181.236396,210.919116 180.9233,209.549028 C180.610204,208.182375 179.429287,207.612363 178.285806,208.278521 L170.580922,212.766501 C169.437441,213.432659 168.763604,215.080884 169.0767,216.450972 C169.389796,217.817625 170.570713,218.387637 171.714194,217.721479" id="Fill-58" fill="#F0F1FE"></path>
                        <path d="M147.731554,242.724838 L171.411878,229.171831 C172.558749,228.516916 173.240025,226.884719 172.92164,225.530776 C172.610102,224.180226 171.418725,223.616931 170.26843,224.275239 L146.59153,237.828246 C145.441235,238.483161 144.759959,240.115358 145.078344,241.465908 C145.389882,242.819852 146.581259,243.383146 147.731554,242.724838" id="Fill-60" fill="#F0F1FE"></path>
                        <path d="M168.714194,254.721495 L176.419078,250.233782 C177.562559,249.567664 178.236396,247.919537 177.9233,246.549531 C177.610204,245.179525 176.429287,244.612981 175.285806,245.2791 L167.580922,249.766813 C166.437441,250.432931 165.763604,252.081058 166.0767,253.451064 C166.386393,254.817636 167.570713,255.387613 168.714194,254.721495" id="Fill-62" fill="#F0F1FE"></path>
                        <path d="M126.727904,324.729531 L147.407687,313.085424 C148.560365,312.438343 149.237605,310.833985 148.922928,309.50647 C148.60483,308.175619 147.417949,307.625268 146.268692,308.269012 L125.588908,319.916456 C124.439651,320.5602 123.76241,322.164559 124.077088,323.492074 C124.391765,324.822924 125.578647,325.376612 126.727904,324.729531" id="Fill-64" fill="#F0F1FE"></path>
                        <path d="M175.643065,272.734586 L180.458354,269.989205 C181.575183,269.354397 182.228047,267.780465 181.92647,266.478127 C181.618265,265.172516 180.468296,264.62933 179.354781,265.26741 L174.539493,268.012792 C173.425978,268.6476 172.769799,270.218259 173.07469,271.52387 C173.379581,272.826208 174.52955,273.369394 175.643065,272.734586" id="Fill-66" fill="#F0F1FE"></path>
                        <path d="M179.601453,294.724256 L185.483285,291.181908 C186.582053,290.522392 187.224359,288.8906 186.927659,287.534173 C186.624438,286.177746 185.496327,285.616817 184.397559,286.276333 L178.515727,289.818681 C177.420219,290.478197 176.771392,292.109989 177.074613,293.466416 C177.371313,294.819444 178.505945,295.383772 179.601453,294.724256" id="Fill-68" fill="#F0F1FE"></path>
                        <path d="M155.649593,308.720536 L171.456705,299.253288 C172.57297,298.584687 173.230769,296.930418 172.925125,295.555306 C172.619481,294.180194 171.466672,293.611539 170.350407,294.28014 L154.543295,303.747388 C153.42703,304.412542 152.769231,306.070258 153.074875,307.441923 C153.380519,308.817035 154.533328,309.389137 155.649593,308.720536" id="Fill-70" fill="#F0F1FE"></path>
                        <path d="M175.724834,307.728148 L187.41288,301.108769 C188.560844,300.458562 189.237322,298.849801 188.922999,297.512519 C188.608676,296.175237 187.42313,295.622226 186.275166,296.272433 L174.58712,302.891812 C173.439156,303.542019 172.762678,305.150779 173.077001,306.488062 C173.391324,307.821992 174.57687,308.378355 175.724834,307.728148" id="Fill-72" fill="#F0F1FE"></path>
                        <path d="M108.766766,334.717758 L116.388456,330.305533 C117.554086,329.630476 118.240974,327.956754 117.921814,326.571844 C117.602654,325.183454 116.398864,324.605829 115.233234,325.284365 L107.611544,329.69659 C106.445914,330.371647 105.759026,332.04189 106.078186,333.430279 C106.397346,334.815189 107.601136,335.392815 108.766766,334.717758" id="Fill-74" fill="#F0F1FE"></path>
                        <path d="M139.727904,270.729428 L160.407687,259.084137 C161.560365,258.436991 162.237605,256.83247 161.922928,255.50482 C161.60483,254.17717 160.417949,253.623426 159.268692,254.270572 L138.588908,265.915863 C137.439651,266.563009 136.76241,268.164195 137.077088,269.49518 C137.391765,270.82283 138.578647,271.376574 139.727904,270.729428" id="Fill-76" fill="#F0F1FE"></path>
                        <path d="M137.704596,259.725768 L173.425353,239.156213 C174.564295,238.500313 175.235457,236.874087 174.923604,235.528479 C174.611751,234.179489 173.435522,233.618255 172.296579,234.274155 L136.575823,254.847091 C135.43688,255.49961 134.762328,257.125835 135.077571,258.474825 C135.386035,259.820434 136.565653,260.381667 137.704596,259.725768" id="Fill-78" fill="#F0F1FE"></path>
                        <path d="M157.728146,271.729428 L178.409765,260.084137 C179.559124,259.436991 180.239846,257.83247 179.92172,256.50482 C179.607014,255.17717 178.420027,254.623426 177.270668,255.270572 L156.589049,266.915863 C155.43969,267.563009 154.762389,269.164195 155.077095,270.49518 C155.388379,271.82283 156.578787,272.376574 157.728146,271.729428" id="Fill-80" fill="#F0F1FE"></path>
                        <path d="M123.766766,279.717797 L131.388456,275.30269 C132.554086,274.631205 133.240974,272.957709 132.921814,271.569508 C132.602654,270.184786 131.398864,269.607239 130.233234,270.282203 L122.611544,274.69731 C121.445914,275.368795 120.759026,277.042291 121.078186,278.430492 C121.397346,279.815214 122.601136,280.392761 123.766766,279.717797" id="Fill-82" fill="#F0F1FE"></path>
                        <path d="M158.712485,294.720391 L183.420759,280.255881 C184.563024,279.583674 185.236144,277.929011 184.923381,276.553573 C184.610618,275.181582 183.430958,274.612791 182.288693,275.278104 L157.580419,289.746061 C156.438155,290.414821 155.761635,292.069483 156.077797,293.444922 C156.387161,294.816913 157.570221,295.389151 158.712485,294.720391" id="Fill-84" fill="#F0F1FE"></path>
                        <path d="M158.657431,213.723412 L176.452812,203.200711 C177.571893,202.538991 178.231351,200.898337 177.924936,199.540789 C177.618521,198.17983 176.462804,197.613616 175.343723,198.278747 L157.548342,208.801448 C156.429262,209.459757 155.766473,211.100412 156.076218,212.457959 C156.379303,213.818918 157.53835,214.385132 158.657431,213.723412" id="Fill-86" fill="#F0F1FE"></path>
                        <path d="M179.675914,317.718156 L200.441374,305.299307 C201.568728,304.621536 202.233062,302.953177 201.924381,301.569829 C201.615701,300.183005 200.45144,299.609507 199.32073,300.280326 L178.558626,312.702651 C177.431272,313.37347 176.766938,315.045305 177.075619,316.428653 C177.384299,317.815477 178.54856,318.392451 179.675914,317.718156" id="Fill-88" fill="#F0F1FE"></path>
                        <path d="M68.5826655,230.086891 L54,169.33693 L79.6138444,151.026651 C92.5438078,141.783801 105.972012,134.065295 119.664528,128.007236 L146.794362,116 L161.377027,176.749962 C161.377027,176.749962 173.517096,220.462956 131.391421,271.788598 C77.8274678,275.460332 68.5826655,230.086891 68.5826655,230.086891" id="Fill-90" fill="#E0E3FD"></path>
                        <path d="M107.374944,112.415441 C122.203172,101.750585 137.600348,92.8458901 153.305705,85.8527366 L184.417128,72 L194.382622,75.8883833 C194.382622,75.8883833 190.008828,78.2332862 186.369927,80.1863826 L201.138889,142.097756 C201.138889,142.097756 215.060354,192.536915 166.753047,251.756102 C157.48096,252.39724 149.376403,251.741261 142.282323,250.177003 C142.430486,250.758776 142.528274,251.156519 142.528274,251.156519 L133.555478,247.642133 C132.722798,247.333437 131.904934,247.012868 131.10485,246.680426 L130.9152,246.60622 C130.9152,246.60622 130.92409,246.603252 130.930016,246.603252 C100.876482,233.991236 94.7217603,203.641069 94.7217603,203.641069 L78,133.543313 L107.374944,112.415441 Z" id="Fill-92" fill="#8A14C1"></path>
                        <path d="M153.056218,86.6923009 L184.064569,73 L194,76.8433499 C194,76.8433499 189.637743,79.1610953 186.010897,81.0915718 L191.353702,103.29792 L136.07679,139 L87.9354313,137.673898 L78,133.827614 L107.277625,112.947368 C122.056727,102.406028 137.405846,93.604463 153.056218,86.6923009" id="Fill-94" fill="#8A14C1"></path>
                        <path d="M138.912376,103 L129,99.092869 C137.026535,94.2391962 145.170203,89.8935714 153.404649,86.1134523 L184.149119,72 L194,75.9615647 C194,75.9615647 189.674866,78.3505999 186.078885,80.3404546 L186.392215,81.6922251 C167.217552,90.3713784 138.912376,103 138.912376,103" id="Fill-96" fill="#8A14C1"></path>
                        <path d="M136.422924,95 L155,101.547421 L139.43853,110 L121,103.499723 C126.090862,100.476983 131.231836,97.6344981 136.422924,95" id="Fill-98" fill="#8A14C1"></path>
                        <path d="M104.590552,207.640648 L88,137.543116 L117.142227,116.415311 C131.848558,105.75049 147.125152,96.8458234 162.704515,89.8526923 L193.563411,76 L210.153963,146.097532 C210.153963,146.097532 223.963745,196.533561 176.041037,255.755527 C115.108091,259.997116 104.590552,207.640648 104.590552,207.640648" id="Fill-100" fill="#B12DE8"></path>
                        <path d="M171.779463,247.946705 C193.527749,220.400361 200.788004,195.322348 203.023064,178.930624 C205.514994,160.609595 202.45618,148.839365 202.43256,148.756891 L187.873667,88 L165.419728,97.9587457 C150.285093,104.671547 135.35123,113.275361 121.034445,123.531603 L96,141.46088 L111.450554,205.958559 L111.509605,206.217764 C111.533225,206.329693 114.013345,217.610969 122.823674,228.282527 C134.199746,242.058644 150.668921,248.668353 171.779463,247.946705" id="Fill-102" fill="#760FB2"></path>
                        <g id="Group-106" transform="translate(252.000000, 216.000000)">
                            <mask id="mask-4" fill="white">
                                <use xlink:href="#path-3"></use>
                            </mask>
                            <g id="Clip-105"></g>
                            <path d="M16.6670154,81.99508 C15.7430154,81.99508 14.8054769,81.77408 13.9356308,81.29468 C11.1636308,79.77488 10.1414769,76.28648 11.6544,73.50528 L30.4491692,38.90348 C32.5476308,35.04788 31.4036308,30.26748 27.7956308,27.78888 L3.21316923,10.91128 C0.6104,9.11948 -0.0597538462,5.54948 1.72055385,2.93148 C3.50424615,0.31348 7.05470769,-0.35632 9.66424615,1.43208 L34.2433231,18.30968 C42.7251692,24.12708 45.4091692,35.34708 40.4879385,44.40468 L21.6897846,79.00648 C20.6507077,80.91388 18.6910154,81.99508 16.6670154,81.99508" id="Fill-104" fill="#FFCEBD" mask="url(#mask-4)"></path>
                        </g>
                        <path d="M198.923489,177.890139 L198.923489,177.890139 C198.060057,178.214756 197.08556,177.795895 196.752368,176.951193 L192.112763,165.226579 C191.779571,164.381876 192.209496,163.435948 193.076511,163.111331 C193.939943,162.783224 194.910857,163.205575 195.247632,164.046787 L199.887237,175.774892 C200.220429,176.619594 199.790504,177.565522 198.923489,177.890139" id="Fill-107" fill="#FFCEBD"></path>
                        <path d="M268.503657,430 L263.174473,426.851994 L257.635371,423.628873 L245.124991,416.315393 C241.99655,414.492144 242.406227,409.817936 245.802143,408.571708 C248.195875,407.694227 250.840153,407.8308 253.132311,408.954112 L262.76141,413.676121 L274.44905,418.008897 C275.427534,418.370815 276.0539,419.337069 275.996342,420.38868 L275.820282,423.526443 C275.617137,427.159283 272.634283,430 269.02845,430 L268.503657,430 Z" id="Fill-109" fill="#4D5068"></path>
                        <path d="M270.158663,415.556617 L262.700152,413.720666 L257.141014,411 C254.401153,412.519981 254.202612,416.571046 257.058288,418.230719 L265.320889,422.970266 L265.727897,423.206412 C268.007806,424.530159 270.896572,424.174277 272.772782,422.315044 C274.172493,420.924777 275.357119,419.494598 274.900476,418.902571 L271.670881,417.871511 C271.727134,416.85043 271.114967,415.909173 270.158663,415.556617" id="Fill-111" fill="#FFCEBD"></path>
                        <path d="M245.820787,447 L240.00604,443.564833 L233.96647,440.050656 L220.313568,432.070763 C216.907155,430.081801 217.353395,424.984012 221.052759,423.623686 C223.665478,422.665274 226.554116,422.816422 229.051016,424.042776 L239.556394,429.192092 L252.306597,433.918883 C253.376211,434.317362 254.057493,435.368523 253.996178,436.512434 L253.802012,439.940731 C253.580595,443.901479 250.327471,447 246.393064,447 L245.820787,447 Z" id="Fill-113" fill="#4D5068"></path>
                        <path d="M247.673633,431.905594 L239.469714,429.926839 L233.357057,427 C230.339331,428.635198 230.124498,432.99903 233.263067,434.786186 L242.35317,439.889986 L242.799619,440.14435 C245.307118,441.571432 248.485968,441.188234 250.547018,439.183052 C252.091127,437.686598 253.393549,436.147199 252.890036,435.509637 L249.335228,434.399684 C249.399007,433.296339 248.724298,432.285489 247.673633,431.905594" id="Fill-115" fill="#FFCEBD"></path>
                        <path d="M268.349905,424 C265.634749,424 263.033298,422.505375 261.782534,419.942194 L257,364.603872 L264.173802,307.267079 C264.659636,303.35806 268.294775,300.581845 272.277923,301.051874 C276.264517,301.532048 283.462438,305.092772 282.976605,309.005173 L271.954034,362.199622 L271.995382,413.777712 C273.731979,417.331673 275.106786,421.59575 271.485429,423.296647 C270.475859,423.773439 269.404268,424 268.349905,424" id="Fill-117" fill="#FFCEBD"></path>
                        <path d="M245.601061,441 C241.734372,441 240,437.795494 240,433.841575 L240,302.158425 C240,298.204506 243.133809,295 247.000497,295 C250.867186,295 260,300.388317 260,304.342237 L253.928038,371.406271 L252.601559,433.841575 C252.601559,437.795494 249.46775,441 245.601061,441" id="Fill-119" fill="#FFCEBD"></path>
                        <path d="M282.917716,206.936395 C282.917716,198.664508 274.010238,193.39689 266.674869,197.32815 L266.548692,197.399197 C265.40286,198.011554 263.950109,199.435874 263.274887,200.53541 C252.413357,218.239615 238.509917,222.306203 238.509917,240.426541 L242.772684,272.999843 L237.725568,304.784864 L236,360.154065 C239.290856,362.322686 243.485418,363.158333 248.024412,362.975641 C248.450689,362.958725 253.354576,362.674538 254.428793,362.491846 C266.732843,360.377355 278.259364,359.572157 282.917716,350.424026 L284.731949,327.25936 C285.727732,311.419289 283.94419,295.525087 279.46317,280.287223 L279.46317,280.28384 L282.917716,206.936395 Z" id="Fill-121" fill="#536DFE"></path>
                        <path d="M265,208 L265,208 C262.793435,208 261,206.089705 261,203.731739 L261,184 L269,184 L269,203.731739 C269,206.089705 267.209768,208 265,208" id="Fill-123" fill="#FFCEBD"></path>
                        <path d="M273.259047,197.774123 L264.5975,198.911115 C258.220583,199.746736 252.33792,194.575477 253.060292,188.23983 C253.098311,187.897363 253.157069,187.554895 253.233108,187.209003 L257.664115,167 L279,171.592488 L273.259047,197.774123 Z" id="Fill-125" fill="#FFCEBD"></path>
                        <path d="M260.407816,293 C267.490884,293 274.567247,291.905669 281,289.751859 C280.322868,286.517658 279.568637,283.297398 278.673616,280.111989 L278.767476,278.104554 C267.527757,282.206552 252.929196,282.175186 241.790042,278 L240,289.807621 C246.372414,291.92658 253.381735,293 260.407816,293" id="Fill-127" fill="#4D5068"></path>
                        <path d="M257.262679,234 C256.949878,234 256.626876,233.976397 256.307275,233.922446 L250.510255,232.958084 C225.305969,228.766819 203.923295,212.50417 193.305059,189.453895 L188.521242,179.061715 C187.202038,176.202348 188.473642,172.823709 191.356852,171.515414 C194.236662,170.210491 197.646874,171.468208 198.966078,174.330947 L203.749895,184.719755 C212.780326,204.330696 230.970388,218.162209 252.407462,221.726302 L258.207882,222.690664 C261.332493,223.209936 263.4439,226.146857 262.920298,229.249 C262.447696,232.030813 260.020088,234 257.262679,234" id="Fill-129" fill="#FFCEBD"></path>
                        <path d="M238,235.911315 C238.643189,230.167818 240.952511,225.963169 244.130822,222.045201 C245.779849,221.982592 247.432297,221.883737 249.07106,221.702502 L254.948712,221.046761 C258.910483,220.605207 262.492498,223.340206 262.950941,227.159319 C263.364908,230.58301 261.117168,233.710136 257.791744,234.636081 C257.408568,234.744822 257.015128,234.820611 256.604582,234.866743 L250.730351,235.519189 C246.51199,235.9904 242.235468,236.102436 238,235.911315" id="Fill-131" fill="#231F20"></path>
                        <path d="M257.841209,235 C257.447361,235 257.050118,234.970065 256.646084,234.903542 L250.857194,233.952262 C246.41961,233.220508 242.019375,232.109573 237.785507,230.646065 C234.050739,229.358844 232.095079,225.347503 233.409038,221.692061 C234.726392,218.033292 238.824451,216.10745 242.549033,217.404649 C246.008786,218.598738 249.600954,219.506778 253.227073,220.10216 L259.019359,221.053439 C262.923889,221.695387 265.555202,225.314242 264.89992,229.142644 C264.312543,232.571908 261.277196,235 257.841209,235" id="Fill-133" fill="#536DFE"></path>
                        <path d="M289.613469,220.870739 C288.848783,219.434612 288.000251,217.974606 287.842618,216.35086 C287.517291,212.949865 290.257414,210.05032 290.924837,206.700493 C291.910879,201.740566 288.523456,197.200221 288.724689,192.270995 C288.946046,186.806206 290.378154,182.255626 288.774998,176.729435 C288.533518,175.900506 288.251792,175.088634 287.923111,174.293817 C285.028709,167.235985 278.260572,163.678073 271.126861,162.494376 C268.084888,161.986103 264.962422,161.818953 261.900326,162.235123 C260.126122,162.473909 258.237885,162.729751 256.651498,163.633727 C255.997491,164.012373 255.226098,164.483123 254.847109,165.155135 C254.266887,166.185326 253.904667,167.481593 254.022053,168.668701 C254.297072,171.435208 257.751572,172.393763 258.053422,175.010176 C258.2077,176.323499 257.345752,177.79715 257.235074,179.124118 C257.087503,180.860433 257.362522,182.637684 258.073545,184.227316 C259.415099,187.225787 262.229007,189.777386 262.08479,193.072633 C262.021066,194.536051 261.353643,195.903954 261.145703,197.353726 C260.407848,202.511504 265.730462,206.44124 264.335246,211.653598 C263.436405,215.006836 259.696825,217.452687 260.042275,220.908262 C260.183138,222.303455 261.001486,223.545143 261.236257,224.92669 C261.709155,227.764833 259.673348,230.834939 260.904223,233.430884 C265.136824,242.341015 279.810066,240.795728 286.601681,236.930805 C288.295392,235.962016 289.942149,234.764675 290.938253,233.065883 C293.0948,229.388578 291.615737,224.640147 289.613469,220.870739" id="Fill-135" fill="#FE5E31"></path>
                        <path d="M254.848305,165.130366 C255.227892,164.458062 256.000502,163.987108 256.6589,163.608297 C258.244431,162.703929 260.135647,162.447975 261.912651,162.209086 C263.649345,161.973609 265.402835,161.959958 267.152965,162.055514 C266.061233,162.069164 264.966142,162.062339 263.881128,162.209086 C262.104124,162.447975 260.212908,162.703929 258.627377,163.608297 C257.968979,163.987108 257.199728,164.458062 256.816782,165.130366 C256.239003,166.161005 255.872853,167.454423 255.993784,168.645459 C256.269236,171.413168 259.729187,172.37214 260.031513,174.989689 C260.182676,176.303583 259.322727,177.777874 259.208515,179.105419 C259.060711,180.842489 259.339523,182.620511 260.051668,184.210835 C261.395338,187.210608 264.213687,189.763316 264.069242,193.059995 C264.005418,194.524048 263.333583,195.892545 263.125314,197.342947 C262.386295,202.502967 267.720666,206.43441 266.323249,211.649033 C265.42299,215.000315 261.67415,217.450642 262.020145,220.907718 C262.16123,222.303517 262.984228,223.545744 263.216012,224.927892 C263.693014,227.77068 261.650636,230.838708 262.886812,233.435781 C265.033326,237.950798 269.870539,239.776598 275,239.981361 C269.175189,240.199774 263.336942,238.527546 260.914976,233.435781 C259.682159,230.838708 261.721178,227.77068 261.247535,224.927892 C261.012392,223.545744 260.192753,222.303517 260.051668,220.907718 C259.705673,217.450642 263.454513,215.000315 264.354772,211.649033 C265.752189,206.43441 260.417818,202.502967 261.156837,197.342947 C261.365106,195.892545 262.033582,194.524048 262.097406,193.059995 C262.241851,189.763316 259.423502,187.210608 258.079832,184.210835 C257.367687,182.620511 257.092234,180.842489 257.240038,179.105419 C257.350891,177.777874 258.214199,176.303583 258.063036,174.989689 C257.757351,172.37214 254.2974,171.413168 254.021948,168.645459 C253.904376,167.454423 254.270527,166.161005 254.848305,165.130366" id="Fill-137" fill="#FE9E83"></path>
                    </g>
                </g>
            </g>
        </g>
    </g>
</svg>