<svg width="366" height="241" viewBox="0 0 366 241" fill="none" xmlns="http://www.w3.org/2000/svg">
<g filter="url(#filter0_d)">
<g clip-path="url(#clip0)">
<mask id="mask0" mask-type="alpha" maskUnits="userSpaceOnUse" x="39" y="1" width="288" height="223">
<path fill-rule="evenodd" clip-rule="evenodd" d="M39.1156 1.30066H326.667V223.201H39.1156V1.30066Z" fill="white"/>
</mask>
<g mask="url(#mask0)">
<path fill-rule="evenodd" clip-rule="evenodd" d="M326.667 214.655C326.667 219.384 323.046 223.201 318.594 223.201H47.1853C42.7336 223.201 39.1156 219.384 39.1156 214.655V9.84855C39.1156 5.12006 42.7336 1.29993 47.1853 1.29993H318.594C323.046 1.29993 326.667 5.12006 326.667 9.84855V214.655Z" fill="white"/>
</g>
<mask id="mask1" mask-type="alpha" maskUnits="userSpaceOnUse" x="3" y="1" width="360" height="235">
<path fill-rule="evenodd" clip-rule="evenodd" d="M3 236H362.778V1.30066H3V236Z" fill="white"/>
</mask>
<g mask="url(#mask1)">
<path fill-rule="evenodd" clip-rule="evenodd" d="M52 203.755H313.35V15.9999H52V203.755Z" fill="#191551"/>
</g>
<path d="M243.226 57.2299V72.1846H228.508C224.269 72.1846 220.384 73.5866 217.322 76.0402C213.083 79.3115 210.375 84.4522 210.375 90.2939V99.9912C210.375 103.496 209.787 106.884 208.727 110.156C204.488 122.774 192.478 131.887 178.231 131.887C171.991 131.887 166.222 130.134 161.276 127.097C156.92 124.409 153.27 120.671 150.68 116.348C147.854 111.558 146.205 106.067 146.205 100.108V90.4108C146.205 80.4799 138.081 72.3015 127.955 72.3015H121.126V57.2299H127.955C142.202 57.2299 154.447 66.2261 159.157 78.8442C160.452 82.3492 161.159 86.2047 161.159 90.2939V99.9912C161.159 105.482 163.749 110.389 167.87 113.427C170.696 115.647 174.346 116.932 178.231 116.932C187.651 116.932 195.304 109.338 195.304 99.9912V90.2939C195.304 83.868 197.188 77.9095 200.367 72.8856C203.075 68.5628 206.843 64.9409 211.2 62.2537C216.263 59.0992 222.267 57.3467 228.626 57.3467H243.226V57.2299Z" fill="#B12DE8"/>
<path opacity="0.15" d="M167.87 113.427C166.81 118.451 164.455 123.124 161.276 126.98C156.92 124.293 153.27 120.554 150.679 116.231C152.563 113.427 153.623 109.922 153.623 106.3V96.603C153.623 90.0603 155.625 83.8681 159.039 78.8442C160.334 82.3493 161.041 86.2048 161.041 90.294V99.9912C161.159 105.366 163.749 110.273 167.87 113.427Z" fill="black"/>
<path opacity="0.15" d="M188.593 113.427C189.652 118.451 192.007 123.124 195.186 126.98C199.543 124.293 203.193 120.554 205.783 116.231C204.017 113.31 202.84 109.922 202.84 106.3V96.603C202.84 90.0603 200.838 83.8681 197.424 78.8442C196.128 82.3493 195.422 86.2048 195.422 90.294V99.9912C195.304 105.366 192.714 110.273 188.593 113.427Z" fill="black"/>
<path d="M134.431 48H122.774L111 64.7073L122.774 81.2977H134.431L122.657 64.7073L134.431 48Z" fill="#B12DE8"/>
<path opacity="0.15" d="M217.322 75.9234C213.083 79.1947 210.375 84.3354 210.375 90.1772V99.8744C210.375 103.379 209.787 106.768 208.727 110.039C205.077 104.781 202.84 98.3555 202.84 91.3455V81.6483C202.84 78.3769 201.898 75.3392 200.367 72.7689C203.075 68.446 206.843 64.8241 211.2 62.137C214.261 66.1093 216.498 70.7827 217.322 75.9234Z" fill="black"/>
<path opacity="0.15" d="M139.494 75.9234C143.733 79.1947 146.441 84.3354 146.441 90.1772V99.8744C146.441 103.379 147.029 106.768 148.089 110.039C151.739 104.781 153.976 98.3555 153.976 91.3455V81.6483C153.976 78.3769 154.918 75.3392 156.449 72.7689C153.741 68.446 149.973 64.8241 145.617 62.137C142.555 66.1093 140.436 70.7827 139.494 75.9234Z" fill="black"/>
<path d="M243.108 48H231.569L243.343 64.7073L231.569 81.2977H243.108L255 64.7073L243.108 48Z" fill="#B12DE8"/>
<path d="M243.226 131.77H228.508C210.14 131.77 195.304 116.932 195.304 98.8228V89.1256C195.304 79.7789 187.651 72.1846 178.231 72.1846C168.812 72.1846 161.159 79.7789 161.159 89.1256V98.8228C161.159 117.049 146.205 131.77 127.955 131.77H121.126V116.932H127.955C137.963 116.932 146.205 108.871 146.205 98.8228V89.1256C146.205 71.6005 160.57 57.2299 178.349 57.2299C196.128 57.2299 210.493 71.4836 210.493 89.1256V98.8228C210.375 108.754 218.5 116.932 228.508 116.932H243.226V131.77Z" fill="#FCCA2E"/>
<path d="M134.431 107.702H122.774L111 124.293L122.774 141H134.431L122.657 124.293L134.431 107.702Z" fill="#FCCA2E"/>
<path d="M243.108 107.702H231.569L243.343 124.293L231.569 141H243.108L255 124.293L243.108 107.702Z" fill="#FCCA2E"/>
<path fill-rule="evenodd" clip-rule="evenodd" d="M2.99988 216.793C4.07239 227.539 14.7279 236 27.8399 236H337.934C351.053 236 361.701 227.539 362.779 216.793H2.99988Z" fill="#EFEFEF"/>
<path fill-rule="evenodd" clip-rule="evenodd" d="M135.462 223.201H230.317V216.792H135.462V223.201Z" fill="#CCCCCC"/>
<path d="M91.682 170.08C91.682 169.127 91.8507 168.188 92.188 167.264C92.54 166.325 93.046 165.489 93.706 164.756C94.366 164.023 95.1727 163.429 96.126 162.974C97.0793 162.519 98.1647 162.292 99.382 162.292C100.819 162.292 102.059 162.607 103.1 163.238C104.156 163.869 104.941 164.69 105.454 165.702L103.122 167.308C102.917 166.868 102.667 166.501 102.374 166.208C102.081 165.9 101.765 165.658 101.428 165.482C101.091 165.306 100.739 165.181 100.372 165.108C100.005 165.02 99.646 164.976 99.294 164.976C98.5313 164.976 97.864 165.13 97.292 165.438C96.7347 165.746 96.2653 166.149 95.884 166.648C95.5173 167.132 95.2387 167.689 95.048 168.32C94.8573 168.936 94.762 169.552 94.762 170.168C94.762 170.857 94.872 171.525 95.092 172.17C95.312 172.801 95.62 173.358 96.016 173.842C96.4267 174.326 96.9107 174.715 97.468 175.008C98.04 175.301 98.6633 175.448 99.338 175.448C99.69 175.448 100.057 175.404 100.438 175.316C100.819 175.228 101.179 175.089 101.516 174.898C101.868 174.707 102.191 174.465 102.484 174.172C102.777 173.864 103.012 173.497 103.188 173.072L105.674 174.502C105.425 175.089 105.065 175.609 104.596 176.064C104.141 176.504 103.621 176.878 103.034 177.186C102.462 177.494 101.846 177.729 101.186 177.89C100.526 178.051 99.8807 178.132 99.25 178.132C98.1353 178.132 97.116 177.897 96.192 177.428C95.268 176.959 94.4687 176.35 93.794 175.602C93.134 174.839 92.6133 173.981 92.232 173.028C91.8653 172.06 91.682 171.077 91.682 170.08ZM118.138 178H115.19V171.532C115.19 170.623 115.021 169.955 114.684 169.53C114.347 169.09 113.87 168.87 113.254 168.87C112.99 168.87 112.711 168.929 112.418 169.046C112.125 169.163 111.846 169.332 111.582 169.552C111.318 169.757 111.076 170.007 110.856 170.3C110.636 170.593 110.475 170.916 110.372 171.268V178H107.424V161.94H110.372V168.606C110.797 167.858 111.369 167.286 112.088 166.89C112.821 166.479 113.628 166.274 114.508 166.274C115.256 166.274 115.865 166.406 116.334 166.67C116.803 166.919 117.17 167.257 117.434 167.682C117.698 168.107 117.881 168.591 117.984 169.134C118.087 169.677 118.138 170.234 118.138 170.806V178ZM123.847 178.22C123.29 178.22 122.769 178.132 122.285 177.956C121.801 177.765 121.383 177.509 121.031 177.186C120.679 176.849 120.401 176.46 120.195 176.02C120.005 175.58 119.909 175.096 119.909 174.568C119.909 174.025 120.027 173.527 120.261 173.072C120.511 172.603 120.848 172.207 121.273 171.884C121.713 171.561 122.234 171.312 122.835 171.136C123.437 170.945 124.097 170.85 124.815 170.85C125.329 170.85 125.827 170.894 126.311 170.982C126.81 171.07 127.25 171.195 127.631 171.356V170.696C127.631 169.933 127.411 169.347 126.971 168.936C126.546 168.525 125.908 168.32 125.057 168.32C124.441 168.32 123.84 168.43 123.253 168.65C122.667 168.87 122.065 169.193 121.449 169.618L120.547 167.748C122.029 166.765 123.627 166.274 125.343 166.274C127.001 166.274 128.284 166.685 129.193 167.506C130.117 168.313 130.579 169.486 130.579 171.026V174.612C130.579 174.92 130.631 175.14 130.733 175.272C130.851 175.404 131.034 175.477 131.283 175.492V178C130.785 178.103 130.352 178.154 129.985 178.154C129.428 178.154 128.995 178.029 128.687 177.78C128.394 177.531 128.211 177.201 128.137 176.79L128.071 176.152C127.558 176.827 126.935 177.34 126.201 177.692C125.468 178.044 124.683 178.22 123.847 178.22ZM124.683 176.064C125.182 176.064 125.651 175.976 126.091 175.8C126.546 175.624 126.898 175.389 127.147 175.096C127.47 174.847 127.631 174.568 127.631 174.26V172.94C127.279 172.808 126.898 172.705 126.487 172.632C126.077 172.544 125.681 172.5 125.299 172.5C124.537 172.5 123.913 172.676 123.429 173.028C122.945 173.365 122.703 173.798 122.703 174.326C122.703 174.825 122.894 175.243 123.275 175.58C123.657 175.903 124.126 176.064 124.683 176.064ZM144.048 178H141.1V171.532C141.1 170.608 140.939 169.933 140.616 169.508C140.294 169.083 139.846 168.87 139.274 168.87C138.981 168.87 138.68 168.929 138.372 169.046C138.064 169.163 137.771 169.332 137.492 169.552C137.228 169.757 136.986 170.007 136.766 170.3C136.546 170.593 136.385 170.916 136.282 171.268V178H133.334V166.472H135.996V168.606C136.422 167.873 137.038 167.301 137.844 166.89C138.651 166.479 139.56 166.274 140.572 166.274C141.291 166.274 141.878 166.406 142.332 166.67C142.787 166.934 143.139 167.279 143.388 167.704C143.638 168.129 143.806 168.613 143.894 169.156C143.997 169.699 144.048 170.249 144.048 170.806V178ZM151.122 178.066C150.344 178.066 149.64 177.912 149.01 177.604C148.379 177.296 147.829 176.878 147.36 176.35C146.905 175.807 146.553 175.184 146.304 174.48C146.054 173.776 145.93 173.028 145.93 172.236C145.93 171.4 146.062 170.623 146.326 169.904C146.59 169.185 146.956 168.555 147.426 168.012C147.895 167.469 148.46 167.044 149.12 166.736C149.78 166.428 150.506 166.274 151.298 166.274C152.192 166.274 152.977 166.479 153.652 166.89C154.326 167.286 154.884 167.821 155.324 168.496V166.472H157.898V177.45C157.898 178.301 157.736 179.063 157.414 179.738C157.091 180.413 156.644 180.985 156.072 181.454C155.514 181.923 154.84 182.283 154.048 182.532C153.27 182.781 152.42 182.906 151.496 182.906C150.234 182.906 149.171 182.693 148.306 182.268C147.455 181.857 146.722 181.271 146.106 180.508L147.712 178.946C148.152 179.489 148.702 179.914 149.362 180.222C150.036 180.53 150.748 180.684 151.496 180.684C151.95 180.684 152.383 180.618 152.794 180.486C153.219 180.369 153.593 180.178 153.916 179.914C154.238 179.65 154.488 179.313 154.664 178.902C154.854 178.491 154.95 178.007 154.95 177.45V175.998C154.568 176.658 154.033 177.171 153.344 177.538C152.654 177.89 151.914 178.066 151.122 178.066ZM152.112 175.712C152.434 175.712 152.742 175.661 153.036 175.558C153.329 175.455 153.6 175.316 153.85 175.14C154.099 174.964 154.319 174.759 154.51 174.524C154.7 174.289 154.847 174.04 154.95 173.776V171.026C154.686 170.351 154.268 169.809 153.696 169.398C153.138 168.987 152.552 168.782 151.936 168.782C151.481 168.782 151.07 168.885 150.704 169.09C150.337 169.281 150.022 169.545 149.758 169.882C149.494 170.205 149.288 170.579 149.142 171.004C149.01 171.429 148.944 171.869 148.944 172.324C148.944 172.793 149.024 173.233 149.186 173.644C149.347 174.055 149.567 174.414 149.846 174.722C150.139 175.03 150.476 175.272 150.858 175.448C151.239 175.624 151.657 175.712 152.112 175.712ZM165.901 178.22C164.977 178.22 164.141 178.066 163.393 177.758C162.645 177.435 162.007 177.003 161.479 176.46C160.951 175.917 160.54 175.287 160.247 174.568C159.968 173.849 159.829 173.094 159.829 172.302C159.829 171.481 159.968 170.711 160.247 169.992C160.526 169.259 160.929 168.621 161.457 168.078C161.985 167.521 162.623 167.081 163.371 166.758C164.134 166.435 164.984 166.274 165.923 166.274C166.862 166.274 167.698 166.435 168.431 166.758C169.179 167.081 169.81 167.513 170.323 168.056C170.851 168.599 171.247 169.229 171.511 169.948C171.79 170.667 171.929 171.415 171.929 172.192C171.929 172.383 171.922 172.566 171.907 172.742C171.907 172.918 171.892 173.065 171.863 173.182H162.953C162.997 173.637 163.107 174.04 163.283 174.392C163.459 174.744 163.686 175.045 163.965 175.294C164.244 175.543 164.559 175.734 164.911 175.866C165.263 175.998 165.63 176.064 166.011 176.064C166.598 176.064 167.148 175.925 167.661 175.646C168.189 175.353 168.548 174.971 168.739 174.502L171.269 175.206C170.844 176.086 170.162 176.812 169.223 177.384C168.299 177.941 167.192 178.22 165.901 178.22ZM168.893 171.268C168.82 170.403 168.497 169.713 167.925 169.2C167.368 168.672 166.686 168.408 165.879 168.408C165.483 168.408 165.109 168.481 164.757 168.628C164.42 168.76 164.119 168.951 163.855 169.2C163.591 169.449 163.371 169.75 163.195 170.102C163.034 170.454 162.938 170.843 162.909 171.268H168.893ZM179.296 178V162.38H182.332V178H179.296ZM185.591 178V162.38H192.213C192.932 162.38 193.592 162.534 194.193 162.842C194.809 163.135 195.337 163.531 195.777 164.03C196.217 164.514 196.562 165.071 196.811 165.702C197.06 166.318 197.185 166.941 197.185 167.572C197.185 168.232 197.068 168.877 196.833 169.508C196.598 170.124 196.268 170.674 195.843 171.158C195.418 171.642 194.904 172.031 194.303 172.324C193.702 172.617 193.042 172.764 192.323 172.764H188.627V178H185.591ZM188.627 170.102H192.147C192.704 170.102 193.166 169.875 193.533 169.42C193.914 168.965 194.105 168.349 194.105 167.572C194.105 167.176 194.046 166.824 193.929 166.516C193.812 166.193 193.658 165.922 193.467 165.702C193.276 165.482 193.049 165.321 192.785 165.218C192.536 165.101 192.279 165.042 192.015 165.042H188.627V170.102ZM207.738 162.38H210.422L216.362 178H213.238L211.786 174.106H206.33L204.9 178H201.776L207.738 162.38ZM211.236 171.972L209.08 165.834L206.836 171.972H211.236ZM222.241 178.22C221.449 178.22 220.716 178.066 220.041 177.758C219.366 177.45 218.787 177.025 218.303 176.482C217.819 175.939 217.438 175.309 217.159 174.59C216.895 173.857 216.763 173.072 216.763 172.236C216.763 171.4 216.888 170.623 217.137 169.904C217.401 169.185 217.76 168.555 218.215 168.012C218.67 167.469 219.212 167.044 219.843 166.736C220.474 166.428 221.163 166.274 221.911 166.274C222.762 166.274 223.524 166.479 224.199 166.89C224.888 167.301 225.424 167.836 225.805 168.496V161.94H228.753V174.612C228.753 174.92 228.804 175.14 228.907 175.272C229.01 175.404 229.186 175.477 229.435 175.492V178C228.922 178.103 228.504 178.154 228.181 178.154C227.653 178.154 227.22 178.022 226.883 177.758C226.546 177.494 226.355 177.149 226.311 176.724L226.245 175.998C225.82 176.731 225.24 177.289 224.507 177.67C223.788 178.037 223.033 178.22 222.241 178.22ZM223.011 175.712C223.29 175.712 223.576 175.668 223.869 175.58C224.162 175.477 224.434 175.338 224.683 175.162C224.932 174.986 225.152 174.781 225.343 174.546C225.548 174.311 225.702 174.055 225.805 173.776V171.026C225.688 170.703 225.519 170.41 225.299 170.146C225.094 169.867 224.852 169.633 224.573 169.442C224.309 169.237 224.023 169.075 223.715 168.958C223.422 168.841 223.128 168.782 222.835 168.782C222.395 168.782 221.984 168.877 221.603 169.068C221.236 169.259 220.921 169.523 220.657 169.86C220.393 170.183 220.188 170.557 220.041 170.982C219.894 171.407 219.821 171.847 219.821 172.302C219.821 172.786 219.902 173.233 220.063 173.644C220.224 174.055 220.444 174.414 220.723 174.722C221.002 175.03 221.332 175.272 221.713 175.448C222.109 175.624 222.542 175.712 223.011 175.712ZM238.511 169.024C237.616 169.039 236.817 169.215 236.113 169.552C235.409 169.875 234.903 170.366 234.595 171.026V178H231.647V166.472H234.353V168.936C234.558 168.54 234.8 168.188 235.079 167.88C235.357 167.557 235.658 167.279 235.981 167.044C236.303 166.809 236.626 166.633 236.949 166.516C237.286 166.384 237.609 166.318 237.917 166.318C238.078 166.318 238.195 166.318 238.269 166.318C238.357 166.318 238.437 166.325 238.511 166.34V169.024ZM244.92 178.22C243.996 178.22 243.16 178.066 242.412 177.758C241.664 177.435 241.026 177.003 240.498 176.46C239.97 175.917 239.56 175.287 239.266 174.568C238.988 173.849 238.848 173.094 238.848 172.302C238.848 171.481 238.988 170.711 239.266 169.992C239.545 169.259 239.948 168.621 240.476 168.078C241.004 167.521 241.642 167.081 242.39 166.758C243.153 166.435 244.004 166.274 244.942 166.274C245.881 166.274 246.717 166.435 247.45 166.758C248.198 167.081 248.829 167.513 249.342 168.056C249.87 168.599 250.266 169.229 250.53 169.948C250.809 170.667 250.948 171.415 250.948 172.192C250.948 172.383 250.941 172.566 250.926 172.742C250.926 172.918 250.912 173.065 250.882 173.182H241.972C242.016 173.637 242.126 174.04 242.302 174.392C242.478 174.744 242.706 175.045 242.984 175.294C243.263 175.543 243.578 175.734 243.93 175.866C244.282 175.998 244.649 176.064 245.03 176.064C245.617 176.064 246.167 175.925 246.68 175.646C247.208 175.353 247.568 174.971 247.758 174.502L250.288 175.206C249.863 176.086 249.181 176.812 248.242 177.384C247.318 177.941 246.211 178.22 244.92 178.22ZM247.912 171.268C247.839 170.403 247.516 169.713 246.944 169.2C246.387 168.672 245.705 168.408 244.898 168.408C244.502 168.408 244.128 168.481 243.776 168.628C243.439 168.76 243.138 168.951 242.874 169.2C242.61 169.449 242.39 169.75 242.214 170.102C242.053 170.454 241.958 170.843 241.928 171.268H247.912ZM257.1 178.22C256.132 178.22 255.186 178.066 254.262 177.758C253.338 177.45 252.546 177.01 251.886 176.438L252.986 174.59C253.69 175.089 254.372 175.47 255.032 175.734C255.707 175.983 256.374 176.108 257.034 176.108C257.621 176.108 258.083 175.998 258.42 175.778C258.758 175.558 258.926 175.243 258.926 174.832C258.926 174.421 258.728 174.121 258.332 173.93C257.936 173.739 257.291 173.519 256.396 173.27C255.648 173.065 255.01 172.867 254.482 172.676C253.954 172.485 253.529 172.273 253.206 172.038C252.884 171.789 252.649 171.51 252.502 171.202C252.356 170.879 252.282 170.498 252.282 170.058C252.282 169.471 252.392 168.943 252.612 168.474C252.847 168.005 253.17 167.609 253.58 167.286C253.991 166.949 254.468 166.692 255.01 166.516C255.568 166.34 256.169 166.252 256.814 166.252C257.68 166.252 258.486 166.377 259.234 166.626C259.997 166.875 260.694 167.279 261.324 167.836L260.136 169.618C259.55 169.178 258.978 168.855 258.42 168.65C257.878 168.445 257.335 168.342 256.792 168.342C256.294 168.342 255.876 168.445 255.538 168.65C255.201 168.855 255.032 169.185 255.032 169.64C255.032 169.845 255.069 170.014 255.142 170.146C255.23 170.278 255.362 170.395 255.538 170.498C255.714 170.601 255.942 170.703 256.22 170.806C256.514 170.894 256.873 170.989 257.298 171.092C258.09 171.297 258.765 171.503 259.322 171.708C259.894 171.913 260.356 172.148 260.708 172.412C261.075 172.676 261.339 172.984 261.5 173.336C261.676 173.673 261.764 174.084 261.764 174.568C261.764 175.697 261.346 176.592 260.51 177.252C259.674 177.897 258.538 178.22 257.1 178.22ZM268.036 178.22C267.068 178.22 266.122 178.066 265.198 177.758C264.274 177.45 263.482 177.01 262.822 176.438L263.922 174.59C264.626 175.089 265.308 175.47 265.968 175.734C266.643 175.983 267.31 176.108 267.97 176.108C268.557 176.108 269.019 175.998 269.356 175.778C269.693 175.558 269.862 175.243 269.862 174.832C269.862 174.421 269.664 174.121 269.268 173.93C268.872 173.739 268.227 173.519 267.332 173.27C266.584 173.065 265.946 172.867 265.418 172.676C264.89 172.485 264.465 172.273 264.142 172.038C263.819 171.789 263.585 171.51 263.438 171.202C263.291 170.879 263.218 170.498 263.218 170.058C263.218 169.471 263.328 168.943 263.548 168.474C263.783 168.005 264.105 167.609 264.516 167.286C264.927 166.949 265.403 166.692 265.946 166.516C266.503 166.34 267.105 166.252 267.75 166.252C268.615 166.252 269.422 166.377 270.17 166.626C270.933 166.875 271.629 167.279 272.26 167.836L271.072 169.618C270.485 169.178 269.913 168.855 269.356 168.65C268.813 168.445 268.271 168.342 267.728 168.342C267.229 168.342 266.811 168.445 266.474 168.65C266.137 168.855 265.968 169.185 265.968 169.64C265.968 169.845 266.005 170.014 266.078 170.146C266.166 170.278 266.298 170.395 266.474 170.498C266.65 170.601 266.877 170.703 267.156 170.806C267.449 170.894 267.809 170.989 268.234 171.092C269.026 171.297 269.701 171.503 270.258 171.708C270.83 171.913 271.292 172.148 271.644 172.412C272.011 172.676 272.275 172.984 272.436 173.336C272.612 173.673 272.7 174.084 272.7 174.568C272.7 175.697 272.282 176.592 271.446 177.252C270.61 177.897 269.473 178.22 268.036 178.22Z" fill="white"/>
</g>
</g>
<defs>
<filter id="filter0_d" x="0" y="0" width="366" height="241" filterUnits="userSpaceOnUse" color-interpolation-filters="sRGB">
<feFlood flood-opacity="0" result="BackgroundImageFix"/>
<feColorMatrix in="SourceAlpha" type="matrix" values="0 0 0 0 0 0 0 0 0 0 0 0 0 0 0 0 0 0 127 0"/>
<feOffset dy="2"/>
<feGaussianBlur stdDeviation="1.5"/>
<feColorMatrix type="matrix" values="0 0 0 0 0 0 0 0 0 0 0 0 0 0 0 0 0 0 0.15 0"/>
<feBlend mode="normal" in2="BackgroundImageFix" result="effect1_dropShadow"/>
<feBlend mode="normal" in="SourceGraphic" in2="effect1_dropShadow" result="shape"/>
</filter>
<clipPath id="clip0">
<rect x="3" y="1" width="360" height="235" fill="white"/>
</clipPath>
</defs>
</svg>
