<svg width="332" height="261" viewBox="0 0 332 261" fill="none" xmlns="http://www.w3.org/2000/svg">
<g clip-path="url(#clip0)">
<g filter="url(#filter0_d)">
<path d="M176.4 114.941C176.4 111.621 179.1 108.905 182.4 108.905H321.5C324.8 108.905 327.5 111.621 327.5 114.941V261H331.9V111.118C331.9 100.053 322.9 91 311.9 91H192C181 91 172 100.053 172 111.118V261H176.4V114.941ZM276 97.2367C277.5 97.2367 278.7 98.4438 278.7 99.9527C278.7 101.462 277.5 102.669 276 102.669C274.5 102.669 273.3 101.462 273.3 99.9527C273.3 98.4438 274.5 97.2367 276 97.2367ZM236.9 97.2367H267.1C268.6 97.2367 269.8 98.4438 269.8 99.9527C269.8 101.462 268.6 102.669 267.1 102.669H236.9C235.4 102.669 234.2 101.462 234.2 99.9527C234.2 98.4438 235.4 97.2367 236.9 97.2367ZM228 97.2367C229.5 97.2367 230.7 98.4438 230.7 99.9527C230.7 101.462 229.5 102.669 228 102.669C226.5 102.669 225.3 101.462 225.3 99.9527C225.3 98.4438 226.5 97.2367 228 97.2367Z" fill="white"/>
</g>
<path d="M321.815 108.905H182.615C179.315 108.905 176.615 111.621 176.615 114.941V261H327.715V114.941C327.815 111.621 325.115 108.905 321.815 108.905Z" fill="#191551"/>
<path d="M236.9 102.669H267.1C268.6 102.669 269.8 101.462 269.8 99.9527C269.8 98.4438 268.6 97.2367 267.1 97.2367H236.9C235.4 97.2367 234.2 98.4438 234.2 99.9527C234.2 101.462 235.4 102.669 236.9 102.669Z" fill="#CCCCCC"/>
<path d="M228 102.669C229.5 102.669 230.7 101.462 230.7 99.9527C230.7 98.4438 229.5 97.2367 228 97.2367C226.5 97.2367 225.3 98.4438 225.3 99.9527C225.3 101.462 226.5 102.669 228 102.669Z" fill="#CCCCCC"/>
<path d="M276 102.669C277.5 102.669 278.7 101.462 278.7 99.9527C278.7 98.4438 277.5 97.2367 276 97.2367C274.5 97.2367 273.3 98.4438 273.3 99.9527C273.3 101.462 274.5 102.669 276 102.669Z" fill="#CCCCCC"/>
<path d="M239.153 173.055L238.816 174C228.904 170.559 223.611 159.765 227.05 149.813C230.488 139.862 241.277 134.633 251.189 138.04C258.741 140.638 263.865 147.688 264 155.683H262.955C261.438 146.71 252.942 140.705 243.974 142.223C235.006 143.741 229.005 152.276 230.556 161.249C231.399 166.309 234.601 170.66 239.153 173.055Z" fill="url(#paint0_linear)"/>
<path d="M261.916 137.77L262.259 137C276.763 143.63 283.038 160.473 276.283 174.637C269.528 188.801 252.246 194.963 237.742 188.333C226.7 183.31 220.048 172.059 221.111 160.205L222.037 160.306C222.791 174.235 234.964 184.884 249.229 184.147C263.493 183.41 274.397 171.523 273.643 157.593C273.197 149.523 268.842 142.19 261.916 137.77Z" fill="url(#paint1_linear)"/>
<path d="M224.172 218.4C223.038 219.533 221.718 220.1 220.212 220.1C219.278 220.1 218.398 219.913 217.572 219.54C216.758 219.167 216.045 218.653 215.432 218C214.832 217.347 214.352 216.58 213.992 215.7C213.645 214.807 213.472 213.847 213.472 212.82C213.472 211.847 213.645 210.933 213.992 210.08C214.352 209.213 214.838 208.46 215.452 207.82C216.078 207.167 216.812 206.653 217.652 206.28C218.492 205.893 219.405 205.7 220.392 205.7C221.725 205.7 222.865 205.98 223.812 206.54C224.772 207.1 225.492 207.853 225.972 208.8L223.912 210.32C223.552 209.613 223.045 209.073 222.392 208.7C221.752 208.327 221.052 208.14 220.292 208.14C219.692 208.14 219.138 208.267 218.632 208.52C218.138 208.773 217.712 209.12 217.352 209.56C217.005 210 216.732 210.507 216.532 211.08C216.345 211.653 216.252 212.26 216.252 212.9C216.252 213.567 216.358 214.193 216.572 214.78C216.785 215.353 217.078 215.853 217.452 216.28C217.825 216.707 218.265 217.047 218.772 217.3C219.292 217.54 219.852 217.66 220.452 217.66C221.825 217.66 223.065 217.013 224.172 215.72V214.72H221.312V212.7H226.452V220H224.172V218.4ZM233.404 220.2C232.564 220.2 231.804 220.06 231.124 219.78C230.444 219.487 229.864 219.093 229.384 218.6C228.904 218.107 228.53 217.533 228.264 216.88C228.01 216.227 227.884 215.54 227.884 214.82C227.884 214.073 228.01 213.373 228.264 212.72C228.517 212.053 228.884 211.473 229.364 210.98C229.844 210.473 230.424 210.073 231.104 209.78C231.797 209.487 232.57 209.34 233.424 209.34C234.277 209.34 235.037 209.487 235.704 209.78C236.384 210.073 236.957 210.467 237.424 210.96C237.904 211.453 238.264 212.027 238.504 212.68C238.757 213.333 238.884 214.013 238.884 214.72C238.884 214.893 238.877 215.06 238.864 215.22C238.864 215.38 238.85 215.513 238.824 215.62H230.724C230.764 216.033 230.864 216.4 231.024 216.72C231.184 217.04 231.39 217.313 231.644 217.54C231.897 217.767 232.184 217.94 232.504 218.06C232.824 218.18 233.157 218.24 233.504 218.24C234.037 218.24 234.537 218.113 235.004 217.86C235.484 217.593 235.81 217.247 235.984 216.82L238.284 217.46C237.897 218.26 237.277 218.92 236.424 219.44C235.584 219.947 234.577 220.2 233.404 220.2ZM236.124 213.88C236.057 213.093 235.764 212.467 235.244 212C234.737 211.52 234.117 211.28 233.384 211.28C233.024 211.28 232.684 211.347 232.364 211.48C232.057 211.6 231.784 211.773 231.544 212C231.304 212.227 231.104 212.5 230.944 212.82C230.797 213.14 230.71 213.493 230.684 213.88H236.124ZM245.356 220.2C244.503 220.2 243.736 220.053 243.056 219.76C242.376 219.467 241.796 219.073 241.316 218.58C240.85 218.073 240.49 217.493 240.236 216.84C239.983 216.187 239.856 215.5 239.856 214.78C239.856 214.047 239.983 213.353 240.236 212.7C240.49 212.047 240.85 211.473 241.316 210.98C241.796 210.473 242.376 210.073 243.056 209.78C243.736 209.487 244.503 209.34 245.356 209.34C246.21 209.34 246.97 209.487 247.636 209.78C248.316 210.073 248.89 210.473 249.356 210.98C249.836 211.473 250.203 212.047 250.456 212.7C250.71 213.353 250.836 214.047 250.836 214.78C250.836 215.5 250.71 216.187 250.456 216.84C250.203 217.493 249.843 218.073 249.376 218.58C248.91 219.073 248.336 219.467 247.656 219.76C246.976 220.053 246.21 220.2 245.356 220.2ZM242.616 214.78C242.616 215.247 242.683 215.673 242.816 216.06C242.963 216.433 243.156 216.76 243.396 217.04C243.65 217.32 243.943 217.54 244.276 217.7C244.61 217.847 244.97 217.92 245.356 217.92C245.743 217.92 246.103 217.847 246.436 217.7C246.77 217.54 247.056 217.32 247.296 217.04C247.55 216.76 247.743 216.427 247.876 216.04C248.023 215.653 248.096 215.227 248.096 214.76C248.096 214.307 248.023 213.887 247.876 213.5C247.743 213.113 247.55 212.78 247.296 212.5C247.056 212.22 246.77 212.007 246.436 211.86C246.103 211.7 245.743 211.62 245.356 211.62C244.97 211.62 244.61 211.7 244.276 211.86C243.943 212.02 243.65 212.24 243.396 212.52C243.156 212.8 242.963 213.133 242.816 213.52C242.683 213.907 242.616 214.327 242.616 214.78ZM261.268 209.52C261.174 209.427 261.001 209.3 260.748 209.14C260.508 208.98 260.208 208.827 259.848 208.68C259.501 208.52 259.121 208.387 258.708 208.28C258.294 208.173 257.874 208.12 257.448 208.12C256.688 208.12 256.121 208.26 255.748 208.54C255.374 208.82 255.188 209.213 255.188 209.72C255.188 210.013 255.254 210.26 255.388 210.46C255.534 210.647 255.741 210.813 256.008 210.96C256.274 211.107 256.608 211.24 257.008 211.36C257.421 211.48 257.894 211.607 258.428 211.74C259.121 211.927 259.748 212.127 260.308 212.34C260.881 212.553 261.361 212.82 261.748 213.14C262.148 213.46 262.454 213.847 262.668 214.3C262.881 214.74 262.988 215.287 262.988 215.94C262.988 216.7 262.841 217.353 262.548 217.9C262.268 218.433 261.881 218.867 261.388 219.2C260.908 219.533 260.348 219.78 259.708 219.94C259.081 220.087 258.421 220.16 257.728 220.16C256.661 220.16 255.608 220 254.568 219.68C253.528 219.36 252.594 218.907 251.768 218.32L252.988 215.94C253.108 216.06 253.321 216.22 253.628 216.42C253.948 216.607 254.321 216.8 254.748 217C255.174 217.187 255.648 217.347 256.168 217.48C256.688 217.613 257.221 217.68 257.768 217.68C259.288 217.68 260.048 217.193 260.048 216.22C260.048 215.913 259.961 215.653 259.788 215.44C259.614 215.227 259.368 215.04 259.048 214.88C258.728 214.72 258.341 214.573 257.888 214.44C257.434 214.307 256.928 214.16 256.368 214C255.688 213.813 255.094 213.613 254.588 213.4C254.094 213.173 253.681 212.913 253.348 212.62C253.014 212.313 252.761 211.967 252.588 211.58C252.428 211.18 252.348 210.707 252.348 210.16C252.348 209.44 252.481 208.8 252.748 208.24C253.014 207.68 253.381 207.213 253.848 206.84C254.328 206.467 254.881 206.187 255.508 206C256.134 205.8 256.808 205.7 257.528 205.7C258.528 205.7 259.448 205.86 260.288 206.18C261.128 206.487 261.861 206.853 262.488 207.28L261.268 209.52ZM268.013 220.2C266.933 220.2 266.113 219.853 265.553 219.16C264.993 218.467 264.713 217.44 264.713 216.08V209.52H267.393V215.5C267.393 217.113 267.973 217.92 269.133 217.92C269.653 217.92 270.153 217.767 270.633 217.46C271.127 217.14 271.527 216.66 271.833 216.02V209.52H274.513V216.92C274.513 217.2 274.56 217.4 274.653 217.52C274.76 217.64 274.927 217.707 275.153 217.72V220C274.887 220.053 274.66 220.087 274.473 220.1C274.3 220.113 274.14 220.12 273.993 220.12C273.513 220.12 273.12 220.013 272.813 219.8C272.52 219.573 272.347 219.267 272.293 218.88L272.233 218.04C271.767 218.76 271.167 219.3 270.433 219.66C269.7 220.02 268.893 220.2 268.013 220.2ZM283.417 211.84C282.603 211.853 281.877 212.013 281.237 212.32C280.597 212.613 280.137 213.06 279.857 213.66V220H277.177V209.52H279.637V211.76C279.823 211.4 280.043 211.08 280.297 210.8C280.55 210.507 280.823 210.253 281.117 210.04C281.41 209.827 281.703 209.667 281.997 209.56C282.303 209.44 282.597 209.38 282.877 209.38C283.023 209.38 283.13 209.38 283.197 209.38C283.277 209.38 283.35 209.387 283.417 209.4V211.84ZM285.551 220V212.12H284.171V210.08H285.551V209.44C285.551 208.133 285.864 207.1 286.491 206.34C287.118 205.58 287.971 205.2 289.051 205.2C289.904 205.2 290.764 205.407 291.631 205.82L291.091 207.84C290.891 207.733 290.651 207.647 290.371 207.58C290.104 207.5 289.858 207.46 289.631 207.46C288.698 207.46 288.231 208.087 288.231 209.34V210.08H290.791V212.12H288.231V220H285.551Z" fill="white"/>
</g>
<g clip-path="url(#clip1)">
<g filter="url(#filter1_d)">
<path d="M6.765 36.7562C6.765 31.6598 10.9163 27.4899 15.99 27.4899H229.856C234.93 27.4899 239.081 31.6598 239.081 36.7562V261H245.846V30.8876C245.846 13.8994 232.009 0 215.096 0H30.75C13.8375 0 0 13.8994 0 30.8876V261H6.765V36.7562ZM159.9 9.57515C162.206 9.57515 164.051 11.4284 164.051 13.745C164.051 16.0615 162.206 17.9148 159.9 17.9148C157.594 17.9148 155.749 16.0615 155.749 13.745C155.749 11.4284 157.594 9.57515 159.9 9.57515ZM99.7838 9.57515H146.216C148.523 9.57515 150.368 11.4284 150.368 13.745C150.368 16.0615 148.523 17.9148 146.216 17.9148H99.7838C97.4775 17.9148 95.6325 16.0615 95.6325 13.745C95.6325 11.4284 97.4775 9.57515 99.7838 9.57515ZM86.1 9.57515C88.4063 9.57515 90.2513 11.4284 90.2513 13.745C90.2513 16.0615 88.4063 17.9148 86.1 17.9148C83.7938 17.9148 81.9488 16.0615 81.9488 13.745C81.9488 11.4284 83.7938 9.57515 86.1 9.57515Z" fill="white"/>
</g>
<path d="M230.245 27.4899H16.225C11.1512 27.4899 7 31.6598 7 36.7562V261H239.316V36.7562C239.47 31.6598 235.319 27.4899 230.245 27.4899Z" fill="#191551"/>
<path d="M99.7838 17.9148H146.216C148.522 17.9148 150.368 16.0615 150.368 13.745C150.368 11.4284 148.522 9.57513 146.216 9.57513H99.7838C97.4775 9.57513 95.6325 11.4284 95.6325 13.745C95.6325 16.0615 97.4775 17.9148 99.7838 17.9148Z" fill="#CCCCCC"/>
<path d="M86.1 17.9148C88.4063 17.9148 90.2513 16.0615 90.2513 13.745C90.2513 11.4284 88.4063 9.57513 86.1 9.57513C83.7938 9.57513 81.9488 11.4284 81.9488 13.745C81.9488 16.0615 83.7938 17.9148 86.1 17.9148Z" fill="#CCCCCC"/>
<path d="M159.9 17.9148C162.206 17.9148 164.051 16.0615 164.051 13.745C164.051 11.4284 162.206 9.57513 159.9 9.57513C157.594 9.57513 155.749 11.4284 155.749 13.745C155.749 16.0615 157.594 17.9148 159.9 17.9148Z" fill="#CCCCCC"/>
<g clip-path="url(#clip2)">
<path d="M198.959 80.9455V98.6873H181.552C176.539 98.6873 171.944 100.351 168.323 103.261C163.31 107.142 160.107 113.241 160.107 120.171V131.676C160.107 135.834 159.411 139.854 158.158 143.735C153.145 158.704 138.941 169.516 122.091 169.516C114.711 169.516 107.887 167.437 102.038 163.833C96.886 160.645 92.5691 156.21 89.5055 151.081C86.1634 145.398 84.2139 138.884 84.2139 131.815V120.31C84.2139 108.528 74.6053 98.8259 62.6295 98.8259H54.5528V80.9455H62.6295C79.4792 80.9455 93.9617 91.6183 99.5318 106.588C101.064 110.746 101.899 115.32 101.899 120.171V131.676C101.899 138.19 104.963 144.012 109.837 147.616C113.179 150.249 117.496 151.774 122.091 151.774C133.231 151.774 142.283 142.765 142.283 131.676V120.171C142.283 112.548 144.511 105.479 148.271 99.5189C151.474 94.3904 155.93 90.0936 161.082 86.9056C167.07 83.1632 174.172 81.0841 181.692 81.0841H198.959V80.9455Z" fill="#B12DE8"/>
<path opacity="0.15" d="M109.837 147.616C108.583 153.576 105.798 159.12 102.038 163.694C96.886 160.506 92.5691 156.071 89.5055 150.942C91.7336 147.616 92.9869 143.458 92.9869 139.161V127.656C92.9869 119.894 95.3542 112.548 99.3926 106.588C100.924 110.746 101.76 115.32 101.76 120.172V131.676C101.899 138.052 104.963 143.873 109.837 147.616Z" fill="black"/>
<path opacity="0.15" d="M134.345 147.616C135.599 153.576 138.384 159.12 142.144 163.694C147.296 160.506 151.613 156.071 154.676 150.942C152.588 147.477 151.195 143.458 151.195 139.161V127.656C151.195 119.894 148.828 112.548 144.789 106.588C143.258 110.746 142.422 115.32 142.422 120.172V131.676C142.283 138.052 139.219 143.873 134.345 147.616Z" fill="black"/>
<path d="M70.2885 69.9955H56.5023L42.5769 89.8164L56.5023 109.499H70.2885L56.3631 89.8164L70.2885 69.9955Z" fill="#B12DE8"/>
<path opacity="0.15" d="M168.323 103.123C163.31 107.004 160.107 113.102 160.107 120.033V131.537C160.107 135.696 159.411 139.715 158.158 143.596C153.841 137.359 151.195 129.735 151.195 121.419V109.915C151.195 106.034 150.081 102.43 148.271 99.3803C151.474 94.2518 155.93 89.955 161.082 86.767C164.703 91.4797 167.349 97.024 168.323 103.123Z" fill="black"/>
<path opacity="0.15" d="M76.2764 103.123C81.2895 107.004 84.4924 113.102 84.4924 120.033V131.537C84.4924 135.696 85.1887 139.715 86.4419 143.596C90.7588 137.359 93.4046 129.735 93.4046 121.419V109.915C93.4046 106.034 94.5187 102.43 96.329 99.3803C93.1261 94.2518 88.67 89.955 83.5176 86.767C79.897 91.4797 77.3904 97.024 76.2764 103.123Z" fill="black"/>
<path d="M198.82 69.9955H185.173L199.098 89.8164L185.173 109.499H198.82L212.885 89.8164L198.82 69.9955Z" fill="#B12DE8"/>
<path d="M198.959 169.377H181.552C159.829 169.377 142.283 151.774 142.283 130.29V118.785C142.283 107.697 133.231 98.6873 122.091 98.6873C110.951 98.6873 101.899 107.697 101.899 118.785V130.29C101.899 151.913 84.2139 169.377 62.6295 169.377H54.5528V151.774H62.6295C74.4661 151.774 84.2139 142.21 84.2139 130.29V118.785C84.2139 97.9943 101.203 80.9455 122.23 80.9455C143.258 80.9455 160.247 97.8556 160.247 118.785V130.29C160.107 142.072 169.716 151.774 181.552 151.774H198.959V169.377Z" fill="#FCCA2E"/>
<path d="M70.2885 140.824H56.5023L42.5769 160.506L56.5023 180.327H70.2885L56.3631 160.506L70.2885 140.824Z" fill="#FCCA2E"/>
<path d="M198.82 140.824H185.173L199.098 160.506L185.173 180.327H198.82L212.885 160.506L198.82 140.824Z" fill="#FCCA2E"/>
</g>
<path d="M40.62 221.05C40.62 220.183 40.7733 219.33 41.08 218.49C41.4 217.637 41.86 216.877 42.46 216.21C43.06 215.543 43.7933 215.003 44.66 214.59C45.5267 214.177 46.5133 213.97 47.62 213.97C48.9267 213.97 50.0533 214.257 51 214.83C51.96 215.403 52.6733 216.15 53.14 217.07L51.02 218.53C50.8333 218.13 50.6067 217.797 50.34 217.53C50.0733 217.25 49.7867 217.03 49.48 216.87C49.1733 216.71 48.8533 216.597 48.52 216.53C48.1867 216.45 47.86 216.41 47.54 216.41C46.8467 216.41 46.24 216.55 45.72 216.83C45.2133 217.11 44.7867 217.477 44.44 217.93C44.1067 218.37 43.8533 218.877 43.68 219.45C43.5067 220.01 43.42 220.57 43.42 221.13C43.42 221.757 43.52 222.363 43.72 222.95C43.92 223.523 44.2 224.03 44.56 224.47C44.9333 224.91 45.3733 225.263 45.88 225.53C46.4 225.797 46.9667 225.93 47.58 225.93C47.9 225.93 48.2333 225.89 48.58 225.81C48.9267 225.73 49.2533 225.603 49.56 225.43C49.88 225.257 50.1733 225.037 50.44 224.77C50.7067 224.49 50.92 224.157 51.08 223.77L53.34 225.07C53.1133 225.603 52.7867 226.077 52.36 226.49C51.9467 226.89 51.4733 227.23 50.94 227.51C50.42 227.79 49.86 228.003 49.26 228.15C48.66 228.297 48.0733 228.37 47.5 228.37C46.4867 228.37 45.56 228.157 44.72 227.73C43.88 227.303 43.1533 226.75 42.54 226.07C41.94 225.377 41.4667 224.597 41.12 223.73C40.7867 222.85 40.62 221.957 40.62 221.05ZM64.6709 228.25H61.9909V222.37C61.9909 221.543 61.8376 220.937 61.5309 220.55C61.2243 220.15 60.7909 219.95 60.2309 219.95C59.9909 219.95 59.7376 220.003 59.4709 220.11C59.2043 220.217 58.9509 220.37 58.7109 220.57C58.4709 220.757 58.2509 220.983 58.0509 221.25C57.8509 221.517 57.7043 221.81 57.6109 222.13V228.25H54.9309V213.65H57.6109V219.71C57.9976 219.03 58.5176 218.51 59.1709 218.15C59.8376 217.777 60.5709 217.59 61.3709 217.59C62.0509 217.59 62.6043 217.71 63.0309 217.95C63.4576 218.177 63.7909 218.483 64.0309 218.87C64.2709 219.257 64.4376 219.697 64.5309 220.19C64.6243 220.683 64.6709 221.19 64.6709 221.71V228.25ZM69.8613 228.45C69.3546 228.45 68.8813 228.37 68.4413 228.21C68.0013 228.037 67.6213 227.803 67.3013 227.51C66.9813 227.203 66.7279 226.85 66.5413 226.45C66.3679 226.05 66.2813 225.61 66.2813 225.13C66.2813 224.637 66.3879 224.183 66.6013 223.77C66.8279 223.343 67.1346 222.983 67.5213 222.69C67.9213 222.397 68.3946 222.17 68.9413 222.01C69.4879 221.837 70.0879 221.75 70.7413 221.75C71.2079 221.75 71.6613 221.79 72.1013 221.87C72.5546 221.95 72.9546 222.063 73.3013 222.21V221.61C73.3013 220.917 73.1013 220.383 72.7013 220.01C72.3146 219.637 71.7346 219.45 70.9613 219.45C70.4013 219.45 69.8546 219.55 69.3213 219.75C68.7879 219.95 68.2413 220.243 67.6813 220.63L66.8613 218.93C68.2079 218.037 69.6613 217.59 71.2213 217.59C72.7279 217.59 73.8946 217.963 74.7213 218.71C75.5613 219.443 75.9813 220.51 75.9813 221.91V225.17C75.9813 225.45 76.0279 225.65 76.1213 225.77C76.2279 225.89 76.3946 225.957 76.6213 225.97V228.25C76.1679 228.343 75.7746 228.39 75.4413 228.39C74.9346 228.39 74.5413 228.277 74.2613 228.05C73.9946 227.823 73.8279 227.523 73.7613 227.15L73.7013 226.57C73.2346 227.183 72.6679 227.65 72.0013 227.97C71.3346 228.29 70.6213 228.45 69.8613 228.45ZM70.6213 226.49C71.0746 226.49 71.5013 226.41 71.9013 226.25C72.3146 226.09 72.6346 225.877 72.8613 225.61C73.1546 225.383 73.3013 225.13 73.3013 224.85V223.65C72.9813 223.53 72.6346 223.437 72.2613 223.37C71.8879 223.29 71.5279 223.25 71.1813 223.25C70.4879 223.25 69.9213 223.41 69.4813 223.73C69.0413 224.037 68.8213 224.43 68.8213 224.91C68.8213 225.363 68.9946 225.743 69.3413 226.05C69.6879 226.343 70.1146 226.49 70.6213 226.49ZM88.2256 228.25H85.5456V222.37C85.5456 221.53 85.399 220.917 85.1056 220.53C84.8123 220.143 84.4056 219.95 83.8856 219.95C83.619 219.95 83.3456 220.003 83.0656 220.11C82.7856 220.217 82.519 220.37 82.2656 220.57C82.0256 220.757 81.8056 220.983 81.6056 221.25C81.4056 221.517 81.259 221.81 81.1656 222.13V228.25H78.4856V217.77H80.9056V219.71C81.2923 219.043 81.8523 218.523 82.5856 218.15C83.319 217.777 84.1456 217.59 85.0656 217.59C85.719 217.59 86.2523 217.71 86.6656 217.95C87.079 218.19 87.399 218.503 87.6256 218.89C87.8523 219.277 88.0056 219.717 88.0856 220.21C88.179 220.703 88.2256 221.203 88.2256 221.71V228.25ZM94.6559 228.31C93.9493 228.31 93.3093 228.17 92.7359 227.89C92.1626 227.61 91.6626 227.23 91.2359 226.75C90.8226 226.257 90.5026 225.69 90.2759 225.05C90.0493 224.41 89.9359 223.73 89.9359 223.01C89.9359 222.25 90.0559 221.543 90.2959 220.89C90.5359 220.237 90.8693 219.663 91.2959 219.17C91.7226 218.677 92.2359 218.29 92.8359 218.01C93.4359 217.73 94.0959 217.59 94.8159 217.59C95.6293 217.59 96.3426 217.777 96.9559 218.15C97.5693 218.51 98.0759 218.997 98.4759 219.61V217.77H100.816V227.75C100.816 228.523 100.669 229.217 100.376 229.83C100.083 230.443 99.6759 230.963 99.1559 231.39C98.6493 231.817 98.0359 232.143 97.3159 232.37C96.6093 232.597 95.8359 232.71 94.9959 232.71C93.8493 232.71 92.8826 232.517 92.0959 232.13C91.3226 231.757 90.6559 231.223 90.0959 230.53L91.5559 229.11C91.9559 229.603 92.4559 229.99 93.0559 230.27C93.6693 230.55 94.3159 230.69 94.9959 230.69C95.4093 230.69 95.8026 230.63 96.1759 230.51C96.5626 230.403 96.9026 230.23 97.1959 229.99C97.4893 229.75 97.7159 229.443 97.8759 229.07C98.0493 228.697 98.1359 228.257 98.1359 227.75V226.43C97.7893 227.03 97.3026 227.497 96.6759 227.83C96.0493 228.15 95.3759 228.31 94.6559 228.31ZM95.5559 226.17C95.8493 226.17 96.1293 226.123 96.3959 226.03C96.6626 225.937 96.9093 225.81 97.1359 225.65C97.3626 225.49 97.5626 225.303 97.7359 225.09C97.9093 224.877 98.0426 224.65 98.1359 224.41V221.91C97.8959 221.297 97.5159 220.803 96.9959 220.43C96.4893 220.057 95.9559 219.87 95.3959 219.87C94.9826 219.87 94.6093 219.963 94.2759 220.15C93.9426 220.323 93.6559 220.563 93.4159 220.87C93.1759 221.163 92.9893 221.503 92.8559 221.89C92.7359 222.277 92.6759 222.677 92.6759 223.09C92.6759 223.517 92.7493 223.917 92.8959 224.29C93.0426 224.663 93.2426 224.99 93.4959 225.27C93.7626 225.55 94.0693 225.77 94.4159 225.93C94.7626 226.09 95.1426 226.17 95.5559 226.17ZM108.092 228.45C107.252 228.45 106.492 228.31 105.812 228.03C105.132 227.737 104.552 227.343 104.072 226.85C103.592 226.357 103.218 225.783 102.952 225.13C102.698 224.477 102.572 223.79 102.572 223.07C102.572 222.323 102.698 221.623 102.952 220.97C103.205 220.303 103.572 219.723 104.052 219.23C104.532 218.723 105.112 218.323 105.792 218.03C106.485 217.737 107.258 217.59 108.112 217.59C108.965 217.59 109.725 217.737 110.392 218.03C111.072 218.323 111.645 218.717 112.112 219.21C112.592 219.703 112.952 220.277 113.192 220.93C113.445 221.583 113.572 222.263 113.572 222.97C113.572 223.143 113.565 223.31 113.552 223.47C113.552 223.63 113.538 223.763 113.512 223.87H105.412C105.452 224.283 105.552 224.65 105.712 224.97C105.872 225.29 106.078 225.563 106.332 225.79C106.585 226.017 106.872 226.19 107.192 226.31C107.512 226.43 107.845 226.49 108.192 226.49C108.725 226.49 109.225 226.363 109.692 226.11C110.172 225.843 110.498 225.497 110.672 225.07L112.972 225.71C112.585 226.51 111.965 227.17 111.112 227.69C110.272 228.197 109.265 228.45 108.092 228.45ZM110.812 222.13C110.745 221.343 110.452 220.717 109.932 220.25C109.425 219.77 108.805 219.53 108.072 219.53C107.712 219.53 107.372 219.597 107.052 219.73C106.745 219.85 106.472 220.023 106.232 220.25C105.992 220.477 105.792 220.75 105.632 221.07C105.485 221.39 105.398 221.743 105.372 222.13H110.812ZM120.269 228.25V214.05H123.029V228.25H120.269ZM125.992 228.25V214.05H132.012C132.665 214.05 133.265 214.19 133.812 214.47C134.372 214.737 134.852 215.097 135.252 215.55C135.652 215.99 135.965 216.497 136.192 217.07C136.418 217.63 136.532 218.197 136.532 218.77C136.532 219.37 136.425 219.957 136.212 220.53C135.998 221.09 135.698 221.59 135.312 222.03C134.925 222.47 134.458 222.823 133.912 223.09C133.365 223.357 132.765 223.49 132.112 223.49H128.752V228.25H125.992ZM128.752 221.07H131.952C132.458 221.07 132.878 220.863 133.212 220.45C133.558 220.037 133.732 219.477 133.732 218.77C133.732 218.41 133.678 218.09 133.572 217.81C133.465 217.517 133.325 217.27 133.152 217.07C132.978 216.87 132.772 216.723 132.532 216.63C132.305 216.523 132.072 216.47 131.832 216.47H128.752V221.07ZM146.125 214.05H148.565L153.965 228.25H151.125L149.805 224.71H144.845L143.545 228.25H140.705L146.125 214.05ZM149.305 222.77L147.345 217.19L145.305 222.77H149.305ZM159.31 228.45C158.59 228.45 157.923 228.31 157.31 228.03C156.697 227.75 156.17 227.363 155.73 226.87C155.29 226.377 154.943 225.803 154.69 225.15C154.45 224.483 154.33 223.77 154.33 223.01C154.33 222.25 154.443 221.543 154.67 220.89C154.91 220.237 155.237 219.663 155.65 219.17C156.063 218.677 156.557 218.29 157.13 218.01C157.703 217.73 158.33 217.59 159.01 217.59C159.783 217.59 160.477 217.777 161.09 218.15C161.717 218.523 162.203 219.01 162.55 219.61V213.65H165.23V225.17C165.23 225.45 165.277 225.65 165.37 225.77C165.463 225.89 165.623 225.957 165.85 225.97V228.25C165.383 228.343 165.003 228.39 164.71 228.39C164.23 228.39 163.837 228.27 163.53 228.03C163.223 227.79 163.05 227.477 163.01 227.09L162.95 226.43C162.563 227.097 162.037 227.603 161.37 227.95C160.717 228.283 160.03 228.45 159.31 228.45ZM160.01 226.17C160.263 226.17 160.523 226.13 160.79 226.05C161.057 225.957 161.303 225.83 161.53 225.67C161.757 225.51 161.957 225.323 162.13 225.11C162.317 224.897 162.457 224.663 162.55 224.41V221.91C162.443 221.617 162.29 221.35 162.09 221.11C161.903 220.857 161.683 220.643 161.43 220.47C161.19 220.283 160.93 220.137 160.65 220.03C160.383 219.923 160.117 219.87 159.85 219.87C159.45 219.87 159.077 219.957 158.73 220.13C158.397 220.303 158.11 220.543 157.87 220.85C157.63 221.143 157.443 221.483 157.31 221.87C157.177 222.257 157.11 222.657 157.11 223.07C157.11 223.51 157.183 223.917 157.33 224.29C157.477 224.663 157.677 224.99 157.93 225.27C158.183 225.55 158.483 225.77 158.83 225.93C159.19 226.09 159.583 226.17 160.01 226.17ZM174.101 220.09C173.287 220.103 172.561 220.263 171.921 220.57C171.281 220.863 170.821 221.31 170.541 221.91V228.25H167.861V217.77H170.321V220.01C170.507 219.65 170.727 219.33 170.981 219.05C171.234 218.757 171.507 218.503 171.801 218.29C172.094 218.077 172.387 217.917 172.681 217.81C172.987 217.69 173.281 217.63 173.561 217.63C173.707 217.63 173.814 217.63 173.881 217.63C173.961 217.63 174.034 217.637 174.101 217.65V220.09ZM179.928 228.45C179.088 228.45 178.328 228.31 177.648 228.03C176.968 227.737 176.388 227.343 175.908 226.85C175.428 226.357 175.054 225.783 174.788 225.13C174.534 224.477 174.408 223.79 174.408 223.07C174.408 222.323 174.534 221.623 174.788 220.97C175.041 220.303 175.408 219.723 175.888 219.23C176.368 218.723 176.948 218.323 177.628 218.03C178.321 217.737 179.094 217.59 179.948 217.59C180.801 217.59 181.561 217.737 182.228 218.03C182.908 218.323 183.481 218.717 183.948 219.21C184.428 219.703 184.788 220.277 185.028 220.93C185.281 221.583 185.408 222.263 185.408 222.97C185.408 223.143 185.401 223.31 185.388 223.47C185.388 223.63 185.374 223.763 185.348 223.87H177.248C177.288 224.283 177.388 224.65 177.548 224.97C177.708 225.29 177.914 225.563 178.168 225.79C178.421 226.017 178.708 226.19 179.028 226.31C179.348 226.43 179.681 226.49 180.028 226.49C180.561 226.49 181.061 226.363 181.528 226.11C182.008 225.843 182.334 225.497 182.508 225.07L184.808 225.71C184.421 226.51 183.801 227.17 182.948 227.69C182.108 228.197 181.101 228.45 179.928 228.45ZM182.648 222.13C182.581 221.343 182.288 220.717 181.768 220.25C181.261 219.77 180.641 219.53 179.908 219.53C179.548 219.53 179.208 219.597 178.888 219.73C178.581 219.85 178.308 220.023 178.068 220.25C177.828 220.477 177.628 220.75 177.468 221.07C177.321 221.39 177.234 221.743 177.208 222.13H182.648ZM191 228.45C190.12 228.45 189.26 228.31 188.42 228.03C187.58 227.75 186.86 227.35 186.26 226.83L187.26 225.15C187.9 225.603 188.52 225.95 189.12 226.19C189.734 226.417 190.34 226.53 190.94 226.53C191.474 226.53 191.894 226.43 192.2 226.23C192.507 226.03 192.66 225.743 192.66 225.37C192.66 224.997 192.48 224.723 192.12 224.55C191.76 224.377 191.174 224.177 190.36 223.95C189.68 223.763 189.1 223.583 188.62 223.41C188.14 223.237 187.754 223.043 187.46 222.83C187.167 222.603 186.954 222.35 186.82 222.07C186.687 221.777 186.62 221.43 186.62 221.03C186.62 220.497 186.72 220.017 186.92 219.59C187.134 219.163 187.427 218.803 187.8 218.51C188.174 218.203 188.607 217.97 189.1 217.81C189.607 217.65 190.154 217.57 190.74 217.57C191.527 217.57 192.26 217.683 192.94 217.91C193.634 218.137 194.267 218.503 194.84 219.01L193.76 220.63C193.227 220.23 192.707 219.937 192.2 219.75C191.707 219.563 191.214 219.47 190.72 219.47C190.267 219.47 189.887 219.563 189.58 219.75C189.274 219.937 189.12 220.237 189.12 220.65C189.12 220.837 189.154 220.99 189.22 221.11C189.3 221.23 189.42 221.337 189.58 221.43C189.74 221.523 189.947 221.617 190.2 221.71C190.467 221.79 190.794 221.877 191.18 221.97C191.9 222.157 192.514 222.343 193.02 222.53C193.54 222.717 193.96 222.93 194.28 223.17C194.614 223.41 194.854 223.69 195 224.01C195.16 224.317 195.24 224.69 195.24 225.13C195.24 226.157 194.86 226.97 194.1 227.57C193.34 228.157 192.307 228.45 191 228.45ZM200.942 228.45C200.062 228.45 199.202 228.31 198.362 228.03C197.522 227.75 196.802 227.35 196.202 226.83L197.202 225.15C197.842 225.603 198.462 225.95 199.062 226.19C199.675 226.417 200.282 226.53 200.882 226.53C201.415 226.53 201.835 226.43 202.142 226.23C202.448 226.03 202.602 225.743 202.602 225.37C202.602 224.997 202.422 224.723 202.062 224.55C201.702 224.377 201.115 224.177 200.302 223.95C199.622 223.763 199.042 223.583 198.562 223.41C198.082 223.237 197.695 223.043 197.402 222.83C197.108 222.603 196.895 222.35 196.762 222.07C196.628 221.777 196.562 221.43 196.562 221.03C196.562 220.497 196.662 220.017 196.862 219.59C197.075 219.163 197.368 218.803 197.742 218.51C198.115 218.203 198.548 217.97 199.042 217.81C199.548 217.65 200.095 217.57 200.682 217.57C201.468 217.57 202.202 217.683 202.882 217.91C203.575 218.137 204.208 218.503 204.782 219.01L203.702 220.63C203.168 220.23 202.648 219.937 202.142 219.75C201.648 219.563 201.155 219.47 200.662 219.47C200.208 219.47 199.828 219.563 199.522 219.75C199.215 219.937 199.062 220.237 199.062 220.65C199.062 220.837 199.095 220.99 199.162 221.11C199.242 221.23 199.362 221.337 199.522 221.43C199.682 221.523 199.888 221.617 200.142 221.71C200.408 221.79 200.735 221.877 201.122 221.97C201.842 222.157 202.455 222.343 202.962 222.53C203.482 222.717 203.902 222.93 204.222 223.17C204.555 223.41 204.795 223.69 204.942 224.01C205.102 224.317 205.182 224.69 205.182 225.13C205.182 226.157 204.802 226.97 204.042 227.57C203.282 228.157 202.248 228.45 200.942 228.45Z" fill="white"/>
</g>
<defs>
<filter id="filter0_d" x="168" y="91" width="167.9" height="178" filterUnits="userSpaceOnUse" color-interpolation-filters="sRGB">
<feFlood flood-opacity="0" result="BackgroundImageFix"/>
<feColorMatrix in="SourceAlpha" type="matrix" values="0 0 0 0 0 0 0 0 0 0 0 0 0 0 0 0 0 0 127 0"/>
<feOffset dy="4"/>
<feGaussianBlur stdDeviation="2"/>
<feColorMatrix type="matrix" values="0 0 0 0 0 0 0 0 0 0 0 0 0 0 0 0 0 0 0.25 0"/>
<feBlend mode="normal" in2="BackgroundImageFix" result="effect1_dropShadow"/>
<feBlend mode="normal" in="SourceGraphic" in2="effect1_dropShadow" result="shape"/>
</filter>
<filter id="filter1_d" x="-4" y="0" width="253.846" height="269" filterUnits="userSpaceOnUse" color-interpolation-filters="sRGB">
<feFlood flood-opacity="0" result="BackgroundImageFix"/>
<feColorMatrix in="SourceAlpha" type="matrix" values="0 0 0 0 0 0 0 0 0 0 0 0 0 0 0 0 0 0 127 0"/>
<feOffset dy="4"/>
<feGaussianBlur stdDeviation="2"/>
<feColorMatrix type="matrix" values="0 0 0 0 0 0 0 0 0 0 0 0 0 0 0 0 0 0 0.25 0"/>
<feBlend mode="normal" in2="BackgroundImageFix" result="effect1_dropShadow"/>
<feBlend mode="normal" in="SourceGraphic" in2="effect1_dropShadow" result="shape"/>
</filter>
<linearGradient id="paint0_linear" x1="245.007" y1="136.988" x2="245.007" y2="173.982" gradientUnits="userSpaceOnUse">
<stop stop-color="#7A5FFF"/>
<stop offset="1" stop-color="#01FF89"/>
</linearGradient>
<linearGradient id="paint1_linear" x1="249.999" y1="137.031" x2="249.999" y2="191.011" gradientUnits="userSpaceOnUse">
<stop stop-color="#7A5FFF"/>
<stop offset="1" stop-color="#01FF89"/>
</linearGradient>
<clipPath id="clip0">
<rect x="172" y="91" width="160" height="170" fill="white"/>
</clipPath>
<clipPath id="clip1">
<rect width="246" height="261" fill="white"/>
</clipPath>
<clipPath id="clip2">
<rect x="42.5769" y="69.9955" width="170.308" height="110.332" fill="white"/>
</clipPath>
</defs>
</svg>
