<?xml version="1.0" encoding="UTF-8"?>
<svg width="299px" height="545px" viewBox="0 0 299 545" version="1.1" xmlns="http://www.w3.org/2000/svg" xmlns:xlink="http://www.w3.org/1999/xlink">
    <!-- Generator: Sketch 54.1 (76490) - https://sketchapp.com -->
    <title>images/Product_Residential</title>
    <desc>Created with Sketch.</desc>
    <defs>
        <path d="M0.696,2.11642975 L0.696,29.954843 C0.696,30.7910744 1.20059259,31.5699835 2.02488889,31.9982149 L2.02488889,31.9982149 L4.99851852,33.5459174 C6.3197037,34.2337851 7.99525926,33.3975537 7.99525926,32.0521653 L7.99525926,32.0521653 L7.99525926,4.21712397 C7.99525926,3.37752066 7.48681481,2.59861157 6.66251852,2.17038017 L6.66251852,2.17038017 L3.69274074,0.626049587 C3.36533333,0.457454545 3.01866667,0.379900826 2.68355556,0.379900826 L2.68355556,0.379900826 C1.64740741,0.379900826 0.696,1.1048595 0.696,2.11642975" id="path-1"></path>
        <linearGradient x1="-0.000142480211%" y1="49.9976066%" x2="99.9633773%" y2="49.9976066%" id="linearGradient-3">
            <stop stop-color="#04BF80" offset="0%"></stop>
            <stop stop-color="#02E49E" offset="100%"></stop>
        </linearGradient>
        <path d="M0.329185185,2.16813223 L0.329185185,29.9998017 C0.329185185,30.8427769 0.833777778,31.6149421 1.65807407,32.0465455 L1.65807407,32.0465455 L4.6317037,33.5942479 C5.95288889,34.2787438 7.62459259,33.4458843 7.62459259,32.1004959 L7.62459259,32.1004959 L7.62459259,4.26208264 C7.62459259,3.42585124 7.12,2.65031405 6.29955556,2.22208264 L6.29955556,2.22208264 L3.32207407,0.674380165 C2.99851852,0.505785124 2.65185185,0.428231405 2.31674074,0.428231405 L2.31674074,0.428231405 C1.28059259,0.428231405 0.329185185,1.14981818 0.329185185,2.16813223" id="path-4"></path>
        <linearGradient x1="-0.000153115101%" y1="50.0006824%" x2="100.010407%" y2="50.0006824%" id="linearGradient-6">
            <stop stop-color="#04BF80" offset="0%"></stop>
            <stop stop-color="#02E49E" offset="100%"></stop>
        </linearGradient>
        <path d="M0.208888889,1.75563636 L0.208888889,29.5940496 C0.208888889,30.430281 0.713481481,31.2091901 1.53777778,31.6374215 L1.53777778,31.6374215 L4.50755556,33.1817521 C5.82874074,33.8729917 7.5042963,33.0367603 7.5042963,31.6913719 L7.5042963,31.6913719 L7.5042963,3.85633058 C7.5042963,3.01672727 6.9997037,2.24119008 6.17540741,1.80958678 L6.17540741,1.80958678 L3.20562963,0.265256198 C2.87822222,0.096661157 2.53155556,0.019107438 2.19644444,0.019107438 L2.19644444,0.019107438 C1.1602963,0.019107438 0.208888889,0.740694215 0.208888889,1.75563636" id="path-7"></path>
        <linearGradient x1="-1.05596622e-05%" y1="49.9987055%" x2="100.016272%" y2="49.9987055%" id="linearGradient-9">
            <stop stop-color="#04BF80" offset="0%"></stop>
            <stop stop-color="#02E49E" offset="100%"></stop>
        </linearGradient>
        <path d="M0.296,2.33755152 L0.296,29.5540364 C0.296,30.3749818 0.824,31.1332848 1.68,31.552 L1.68,31.552 L4.764,33.0653091 C6.14,33.7378909 7.876,32.9202424 7.876,31.6080485 L7.876,31.6080485 L7.876,4.38826667 C7.876,3.56732121 7.348,2.80901818 6.496,2.39030303 L6.496,2.39030303 L3.412,0.876993939 C3.072,0.712145455 2.712,0.636315152 2.364,0.636315152 L2.364,0.636315152 C1.288,0.636315152 0.296,1.34516364 0.296,2.33755152" id="path-10"></path>
        <linearGradient x1="0.0421424802%" y1="50.0000506%" x2="100.005203%" y2="50.0000506%" id="linearGradient-12">
            <stop stop-color="#04BF80" offset="0%"></stop>
            <stop stop-color="#02E49E" offset="100%"></stop>
        </linearGradient>
        <path d="M0.609481481,2.20072727 L0.609481481,30.0323967 C0.609481481,30.8753719 1.11407407,31.6509091 1.93837037,32.0791405 L1.93837037,32.0791405 L4.90814815,33.626843 C6.23318519,34.3147107 7.90488889,33.4784793 7.90488889,32.1330909 L7.90488889,32.1330909 L7.90488889,4.30142149 C7.90488889,3.45844628 7.4002963,2.68290909 6.57985185,2.25467769 L6.57985185,2.25467769 L3.60622222,0.706975207 C3.27881481,0.538380165 2.93214815,0.460826446 2.59703704,0.460826446 L2.59703704,0.460826446 C1.56088889,0.460826446 0.609481481,1.18578512 0.609481481,2.20072727" id="path-13"></path>
        <linearGradient x1="-0.00544350581%" y1="49.9991284%" x2="100.005116%" y2="49.9991284%" id="linearGradient-15">
            <stop stop-color="#04BF80" offset="0%"></stop>
            <stop stop-color="#02E49E" offset="100%"></stop>
        </linearGradient>
        <path d="M88.1511264,0.795645174 L1.57629121,50.7627695 C0.858269231,51.1781653 0.26989011,52.1917309 0.26989011,53.0225224 L0.26989011,53.0225224 L0.26989011,112.935883 C0.26989011,113.763351 0.858269231,114.102314 1.57629121,113.686918 L1.57629121,113.686918 L88.1511264,63.7164707 C88.8691484,63.3077212 89.4542033,62.2908324 89.4542033,61.4600409 L89.4542033,61.4600409 L89.4542033,1.55000386 C89.4542033,0.958480309 89.1583516,0.619517375 88.729533,0.619517375 L88.729533,0.619517375 C88.5566758,0.619517375 88.3605495,0.676011197 88.1511264,0.795645174" id="path-16"></path>
        <linearGradient x1="0.002981848%" y1="49.9997047%" x2="100.000368%" y2="49.9997047%" id="linearGradient-18">
            <stop stop-color="#D3DAED" offset="0%"></stop>
            <stop stop-color="#B1B8F9" offset="100%"></stop>
        </linearGradient>
        <path d="M1.04841905,15.3973244 C0.568780952,15.6821689 0.17927619,16.3892533 0.17927619,16.9622933 L0.17927619,16.9622933 L0.17927619,57.6715911 L24.4219238,42.8194667 C24.8983429,42.5312711 25.2910667,41.8275378 25.2910667,41.2544978 L25.2910667,41.2544978 L25.2910667,0.5452 L1.04841905,15.3973244 Z" id="path-19"></path>
        <linearGradient x1="56.7260747%" y1="77.5924884%" x2="43.2724406%" y2="22.4075227%" id="linearGradient-21">
            <stop stop-color="#04BF80" offset="0%"></stop>
            <stop stop-color="#02E49E" offset="100%"></stop>
        </linearGradient>
        <path d="M134.86296,0.643867925 L1.99880048,77.4358491 C0.900449721,78.0698113 0,79.6316038 0,80.9028302 L0,80.9028302 L0,172.975943 C0,174.24717 0.900449721,174.765566 1.99880048,174.131604 L1.99880048,174.131604 L134.86296,97.3429245 C135.961311,96.7056604 136.865059,95.1471698 136.865059,93.8726415 L136.865059,93.8726415 L136.865059,1.7995283 C136.865059,0.894811321 136.406588,0.373113208 135.750217,0.373113208 L135.750217,0.373113208 C135.48305,0.373113208 135.179602,0.458962264 134.86296,0.643867925" id="path-22"></path>
        <linearGradient x1="0%" y1="50.0000648%" x2="99.9978279%" y2="50.0000648%" id="linearGradient-24">
            <stop stop-color="#D3DAED" offset="0%"></stop>
            <stop stop-color="#B1B8F9" offset="100%"></stop>
        </linearGradient>
        <polygon id="path-25" points="89.5566739 15.3396005 73.4599641 15.3396005 65.6967098 20.2101296 52.4051269 40.2493545 44.166705 40.2493545 38.5072959 30.1580185 22.9676791 61.5362354 15.2863502 55.7950159 0.585649835 77.058545 0.585649835 96.3438386 123.781844 24.730381 123.781844 4.95803439 111.473367 5.52515079 99.8202926 0.157560847"></polygon>
        <linearGradient x1="53.5503873%" y1="56.4081625%" x2="38.1198447%" y2="35.1658316%" id="linearGradient-27">
            <stop stop-color="#04BF80" offset="0%"></stop>
            <stop stop-color="#02E49E" offset="100%"></stop>
        </linearGradient>
    </defs>
    <g id="HP" stroke="none" stroke-width="1" fill="none" fill-rule="evenodd">
        <g transform="translate(-1062.000000, -3898.000000)" id="Products">
            <g transform="translate(0.000000, 3224.000000)">
                <g id="Residential" transform="translate(130.000000, 246.000000)">
                    <g id="images/Product_Residential" transform="translate(932.000000, 428.000000)">
                        <polygon id="Path-2" fill="#FFFFFF" points="102 202 199 144 299 199 299 491 201 545 102 488"></polygon>
                        <g id="Group-210" stroke-width="1">
                            <polygon id="Fill-1" fill="#F0F1FE" points="102 198 199.275152 255 299 198 199.275152 141"></polygon>
                            <polygon id="Fill-2" fill="#D1D4FC" points="200 256.279177 200 545 299 490.824036 299 199"></polygon>
                            <polygon id="Fill-3" fill="#E0E3FD" points="102 487.720823 199 545 199 256.279177 102 199"></polygon>
                            <polygon id="Fill-4" fill="#C1C6FB" points="111 218 111 481.326162 190 528 190 264.673838"></polygon>
                            <polygon id="Fill-5" fill="#F0F1FE" points="121.447 482.63371 123.553 484 123.553 229.36629 121.447 228"></polygon>
                            <polygon id="Fill-6" fill="#F0F1FE" points="135.447 491.633727 137.553 493 137.553 238.369565 135.447 237"></polygon>
                            <polygon id="Fill-7" fill="#F0F1FE" points="149.447 499.633727 151.553 501 151.553 246.369565 149.447 245"></polygon>
                            <g id="Group-10" transform="translate(147.000000, 341.000000)">
                                <mask id="mask-2" fill="white">
                                    <use xlink:href="#path-1"></use>
                                </mask>
                                <g id="Clip-9"></g>
                                <path d="M0.696,2.11642975 L0.696,29.954843 C0.696,30.7910744 1.20059259,31.5699835 2.02488889,31.9982149 L2.02488889,31.9982149 L4.99851852,33.5459174 C6.3197037,34.2337851 7.99525926,33.3975537 7.99525926,32.0521653 L7.99525926,32.0521653 L7.99525926,4.21712397 C7.99525926,3.37752066 7.48681481,2.59861157 6.66251852,2.17038017 L6.66251852,2.17038017 L3.69274074,0.626049587 C3.36533333,0.457454545 3.01866667,0.379900826 2.68355556,0.379900826 L2.68355556,0.379900826 C1.64740741,0.379900826 0.696,1.1048595 0.696,2.11642975" id="Fill-8" fill="url(#linearGradient-3)" mask="url(#mask-2)"></path>
                            </g>
                            <g id="Group-13" transform="translate(133.000000, 307.000000)">
                                <mask id="mask-5" fill="white">
                                    <use xlink:href="#path-4"></use>
                                </mask>
                                <g id="Clip-12"></g>
                                <path d="M0.329185185,2.16813223 L0.329185185,29.9998017 C0.329185185,30.8427769 0.833777778,31.6149421 1.65807407,32.0465455 L1.65807407,32.0465455 L4.6317037,33.5942479 C5.95288889,34.2787438 7.62459259,33.4458843 7.62459259,32.1004959 L7.62459259,32.1004959 L7.62459259,4.26208264 C7.62459259,3.42585124 7.12,2.65031405 6.29955556,2.22208264 L6.29955556,2.22208264 L3.32207407,0.674380165 C2.99851852,0.505785124 2.65185185,0.428231405 2.31674074,0.428231405 L2.31674074,0.428231405 C1.28059259,0.428231405 0.329185185,1.14981818 0.329185185,2.16813223" id="Fill-11" fill="url(#linearGradient-6)" mask="url(#mask-5)"></path>
                            </g>
                            <g id="Group-16" transform="translate(119.000000, 375.000000)">
                                <mask id="mask-8" fill="white">
                                    <use xlink:href="#path-7"></use>
                                </mask>
                                <g id="Clip-15"></g>
                                <path d="M0.208888889,1.75563636 L0.208888889,29.5940496 C0.208888889,30.430281 0.713481481,31.2091901 1.53777778,31.6374215 L1.53777778,31.6374215 L4.50755556,33.1817521 C5.82874074,33.8729917 7.5042963,33.0367603 7.5042963,31.6913719 L7.5042963,31.6913719 L7.5042963,3.85633058 C7.5042963,3.01672727 6.9997037,2.24119008 6.17540741,1.80958678 L6.17540741,1.80958678 L3.20562963,0.265256198 C2.87822222,0.096661157 2.53155556,0.019107438 2.19644444,0.019107438 L2.19644444,0.019107438 C1.1602963,0.019107438 0.208888889,0.740694215 0.208888889,1.75563636" id="Fill-14" fill="url(#linearGradient-9)" mask="url(#mask-8)"></path>
                            </g>
                            <g id="Group-21" transform="translate(164.000000, 253.000000)" fill="#F0F1FE">
                                <polygon id="Fill-17" points="0.680425 0.717891656 0.680425 257.131855 2.961925 258.50768 2.961925 2.09703172"></polygon>
                                <polygon id="Fill-19" points="14.702225 9.0752815 14.702225 265.48593 16.983725 266.86507 16.983725 10.4511063"></polygon>
                            </g>
                            <g id="Group-24" transform="translate(161.000000, 406.000000)">
                                <mask id="mask-11" fill="white">
                                    <use xlink:href="#path-10"></use>
                                </mask>
                                <g id="Clip-23"></g>
                                <path d="M0.296,2.33755152 L0.296,29.5540364 C0.296,30.3749818 0.824,31.1332848 1.68,31.552 L1.68,31.552 L4.764,33.0653091 C6.14,33.7378909 7.876,32.9202424 7.876,31.6080485 L7.876,31.6080485 L7.876,4.38826667 C7.876,3.56732121 7.348,2.80901818 6.496,2.39030303 L6.496,2.39030303 L3.412,0.876993939 C3.072,0.712145455 2.712,0.636315152 2.364,0.636315152 L2.364,0.636315152 C1.288,0.636315152 0.296,1.34516364 0.296,2.33755152" id="Fill-22" fill="url(#linearGradient-12)" mask="url(#mask-11)"></path>
                            </g>
                            <g id="Group-27" transform="translate(175.000000, 365.000000)">
                                <mask id="mask-14" fill="white">
                                    <use xlink:href="#path-13"></use>
                                </mask>
                                <g id="Clip-26"></g>
                                <path d="M0.609481481,2.20072727 L0.609481481,30.0323967 C0.609481481,30.8753719 1.11407407,31.6509091 1.93837037,32.0791405 L1.93837037,32.0791405 L4.90814815,33.626843 C6.23318519,34.3147107 7.90488889,33.4784793 7.90488889,32.1330909 L7.90488889,32.1330909 L7.90488889,4.30142149 C7.90488889,3.45844628 7.4002963,2.68290909 6.57985185,2.25467769 L6.57985185,2.25467769 L3.60622222,0.706975207 C3.27881481,0.538380165 2.93214815,0.460826446 2.59703704,0.460826446 L2.59703704,0.460826446 C1.56088889,0.460826446 0.609481481,1.18578512 0.609481481,2.20072727" id="Fill-25" fill="url(#linearGradient-15)" mask="url(#mask-14)"></path>
                            </g>
                            <g id="Group-30" transform="translate(2.000000, 133.000000)">
                                <mask id="mask-17" fill="white">
                                    <use xlink:href="#path-16"></use>
                                </mask>
                                <g id="Clip-29"></g>
                                <path d="M88.1511264,0.795645174 L1.57629121,50.7627695 C0.858269231,51.1781653 0.26989011,52.1917309 0.26989011,53.0225224 L0.26989011,53.0225224 L0.26989011,112.935883 C0.26989011,113.763351 0.858269231,114.102314 1.57629121,113.686918 L1.57629121,113.686918 L88.1511264,63.7164707 C88.8691484,63.3077212 89.4542033,62.2908324 89.4542033,61.4600409 L89.4542033,61.4600409 L89.4542033,1.55000386 C89.4542033,0.958480309 89.1583516,0.619517375 88.729533,0.619517375 L88.729533,0.619517375 C88.5566758,0.619517375 88.3605495,0.676011197 88.1511264,0.795645174" id="Fill-28" fill="url(#linearGradient-18)" mask="url(#mask-17)"></path>
                            </g>
                            <path d="M5.28922712,184.842589 C4.57883667,185.253141 4,186.254889 4,187.072709 L4,245 L88.7140617,196.157411 C89.4211633,195.750143 90,194.748395 90,193.930575 L90,136 L5.28922712,184.842589 Z" id="Fill-31" fill="#FAFBFD"></path>
                            <g id="Group-35" transform="translate(13.000000, 178.000000)">
                                <mask id="mask-20" fill="white">
                                    <use xlink:href="#path-19"></use>
                                </mask>
                                <g id="Clip-34"></g>
                                <path d="M1.04841905,15.3973244 C0.568780952,15.6821689 0.17927619,16.3892533 0.17927619,16.9622933 L0.17927619,16.9622933 L0.17927619,57.6715911 L24.4219238,42.8194667 C24.8983429,42.5312711 25.2910667,41.8275378 25.2910667,41.2544978 L25.2910667,41.2544978 L25.2910667,0.5452 L1.04841905,15.3973244 Z" id="Fill-33" fill="url(#linearGradient-21)" mask="url(#mask-20)"></path>
                            </g>
                            <g id="Group-44" transform="translate(41.000000, 149.000000)" fill="#E4E9F4">
                                <polygon id="Fill-36" points="0.110581771 28.1480728 48.4097797 0.488987237 48.406462 4.44122539 0.110581771 32.1003109"></polygon>
                                <polygon id="Fill-38" points="0.110581771 37.5801336 48.4097797 9.92104803 48.406462 13.8732862 0.110581771 41.5323717"></polygon>
                                <polygon id="Fill-40" points="0.110581771 47.0121943 48.4097797 19.3531088 48.406462 23.305347 0.110581771 50.9644325"></polygon>
                                <polygon id="Fill-42" points="0.110581771 56.4442551 27.2660245 40.9939986 27.2660245 44.9429459 0.110581771 60.3964933"></polygon>
                            </g>
                            <g id="Group-47">
                                <mask id="mask-23" fill="white">
                                    <use xlink:href="#path-22"></use>
                                </mask>
                                <g id="Clip-46"></g>
                                <path d="M134.86296,0.643867925 L1.99880048,77.4358491 C0.900449721,78.0698113 0,79.6316038 0,80.9028302 L0,80.9028302 L0,172.975943 C0,174.24717 0.900449721,174.765566 1.99880048,174.131604 L1.99880048,174.131604 L134.86296,97.3429245 C135.961311,96.7056604 136.865059,95.1471698 136.865059,93.8726415 L136.865059,93.8726415 L136.865059,1.7995283 C136.865059,0.894811321 136.406588,0.373113208 135.750217,0.373113208 L135.750217,0.373113208 C135.48305,0.373113208 135.179602,0.458962264 134.86296,0.643867925" id="Fill-45" fill="url(#linearGradient-24)" mask="url(#mask-23)"></path>
                            </g>
                            <path d="M5.99282959,80.1737775 C4.89775987,80.809663 4,82.3761933 4,83.6512761 L4,174 L135.00717,97.8229106 C136.10224,97.1837132 137,95.6204948 137,94.345412 L137,4 L5.99282959,80.1737775 Z" id="Fill-48" fill="#FAFBFD"></path>
                            <g id="Group-52" transform="translate(8.000000, 66.000000)">
                                <mask id="mask-26" fill="white">
                                    <use xlink:href="#path-25"></use>
                                </mask>
                                <g id="Clip-51"></g>
                                <polygon id="Fill-50" fill="url(#linearGradient-27)" mask="url(#mask-26)" points="89.5566739 15.3396005 73.4599641 15.3396005 65.6967098 20.2101296 52.4051269 40.2493545 44.166705 40.2493545 38.5072959 30.1580185 22.9676791 61.5362354 15.2863502 55.7950159 0.585649835 77.058545 0.585649835 96.3438386 123.781844 24.730381 123.781844 4.95803439 111.473367 5.52515079 99.8202926 0.157560847"></polygon>
                            </g>
                            <g id="Group-209" transform="translate(108.000000, 53.000000)">
                                <path d="M41.0748082,127.443637 C42.9991875,128.847824 44.9302487,129.908397 46.8412643,130.714566 L47.2689042,130.959059 L47.3023136,130.9095 C62.9980327,137.196951 77.2805357,125.405089 77.2805357,125.405089 C80.307424,122.695835 81.3731827,115.744285 81.1125897,110.89406 C81.4199558,109.793839 81.7406857,108.472251 82.1349162,106.843395 C83.0636965,102.974448 83.4980182,98.1407426 83.5715188,92.8808252 L20.7886425,128.728881 L20.7886425,129.792758 L32.9696965,122.841209 L41.0748082,127.443637 Z" id="Fill-53" fill="#231F20"></path>
                                <path d="M70.5949879,116.49759 L41.5455461,100.004181 L41.5455461,117.650675 L25.1816397,126.990993 L25.1816397,97.1066006 C25.1816397,91.859899 27.9278894,87.1649601 32.521677,84.5416093 C37.1154645,81.9182585 42.601282,81.9215625 47.1950695,84.5416093 L78.7769411,102.482157 L70.5949879,116.49759 Z" id="Fill-55" fill="#4D5068"></path>
                                <path d="M51.6652424,127.700025 L22.6191415,111.206615 L22.6191415,128.393858 L6.25523517,137.737481 L6.25523517,108.309035 C6.25523517,103.062334 8.99814394,98.3673948 13.5919315,95.744044 C18.185719,93.1206933 23.6748774,93.1239972 28.265324,95.744044 L59.8471956,113.687896 L51.6652424,127.700025 Z" id="Fill-57" fill="#4D5068"></path>
                                <path d="M8.45156675,108.310357 C8.45156675,103.063655 11.1944755,98.3654125 15.788263,95.7453656 C17.7527336,94.6220164 19.8775691,94.0107823 22.0257912,93.8488879 C19.1459041,93.630826 16.2225848,94.2420601 13.5899269,95.7453656 C8.99613938,98.3654125 6.25323061,103.063655 6.25323061,108.310357 L6.25323061,137.738802 L8.45156675,136.483294 L8.45156675,108.310357 Z" id="Fill-59" fill="#717386"></path>
                                <path d="M45.4694759,124.183281 C63.3969405,137.25378 81.6752034,122.144733 81.6752034,122.144733 C85.577417,118.655742 86.2288996,108.109476 84.9727076,104.105066 L80.0214399,99.1557217 L54.389776,113.253754 L45.4694759,124.183281 Z" id="Fill-61" fill="#4D5068"></path>
                                <path d="M1.16465042,69.0578925 L36.7389409,48.7450956 C37.2200358,48.4708663 37.8180634,48.814479 37.8180634,49.3629377 L47.817486,76.3101028 C47.817486,76.8651694 47.5201426,77.3772845 47.0323659,77.6515139 L11.4614163,97.9643107 C10.9803215,98.2385401 10.639546,97.8916234 10.3789529,97.3464687 L0.382871309,70.3993036 C0.382871309,69.8442369 0.676873709,69.3321218 1.16465042,69.0578925" id="Fill-63" fill="#3A3C4E"></path>
                                <path d="M1.62302689,69.3611967 L37.1973174,49.0483999 C37.6784122,48.7741706 38.0960293,49.1970785 38.2797808,49.666242 L48.2758624,76.6134071 C48.2758624,77.1684737 47.9785191,77.6805888 47.4940833,77.9548182 L11.9197928,98.267615 C11.438698,98.5418444 11.1146271,98.1751039 10.8373294,97.6497729 L0.841247779,70.7026079 C0.841247779,70.1475412 1.13859112,69.6354261 1.62302689,69.3611967" id="Fill-65" fill="#4D5068"></path>
                                <polygon id="Fill-67" fill="#E0E3FD" points="2.77464766 70.6662642 37.2932023 51.3611777 46.4206405 76.4977682 12.0357233 96.0572602"></polygon>
                                <path d="M49.8577958,78.8052596 L72.6396409,90.6896334 C72.6396409,90.6896334 72.7632556,92.4473445 72.2788198,92.7248779 L37.3760575,112.654414 C36.4840275,113.159922 35.3848594,113.163225 34.4928294,112.661022 L12.0751463,99.9870001 C11.149707,99.4187175 11.7109843,97.9451477 11.7109843,97.9451477 L46.9779086,78.8085636 C47.8665977,78.3030564 48.9624248,78.2997525 49.8577958,78.8052596" id="Fill-69" fill="#3A3C4E"></path>
                                <path d="M49.8577958,77.4403903 L72.2754789,90.1111086 C72.7599146,90.3886419 72.7632556,91.0824752 72.2788198,91.3600086 L37.3760575,111.289545 C36.4840275,111.798356 35.3848594,111.798356 34.4928294,111.296153 L12.0751463,98.6221308 C11.5873696,98.3479014 11.5873696,97.6540681 12.0718054,97.3765348 L46.9779086,77.4469983 C47.8665977,76.9381871 48.9624248,76.9348832 49.8577958,77.4403903" id="Fill-71" fill="#F9F9F9"></path>
                                <path d="M51.8446507,93.8505398 L57.7547671,97.1908517 C57.8817227,97.263539 57.8817227,97.4452573 57.7547671,97.5179446 L48.5538283,102.771254 C48.3199628,102.906717 48.0293013,102.906717 47.7954358,102.774558 L41.8886603,99.4309422 C41.7583637,99.3615589 41.7583637,99.1765367 41.8853193,99.1038494 L51.0862581,93.8505398 C51.3201236,93.7183811 51.6107851,93.7150771 51.8446507,93.8505398" id="Fill-73" fill="#717386"></path>
                                <path d="M47.3861711,79.3765157 L45.4551098,80.4800411 C45.3782683,80.5229927 45.3782683,80.6320237 45.4551098,80.6782792 L46.4139586,81.223434 C46.4908001,81.2663856 46.5843463,81.2663856 46.6611879,81.223434 L48.5922491,80.1199086 C48.6690906,80.073653 48.6690906,79.9646221 48.5922491,79.9216705 L47.6334004,79.3765157 C47.5565588,79.3335641 47.4630126,79.3335641 47.3861711,79.3765157" id="Fill-75" fill="#4D5068"></path>
                                <path d="M44.5560639,81.0443589 L42.6250026,82.1445803 C42.5481611,82.1908359 42.5481611,82.2998668 42.6250026,82.3461224 L43.5838514,82.8912771 C43.6606929,82.9342287 43.7575801,82.9342287 43.8344216,82.8879732 L45.7654828,81.7877517 C45.8423244,81.7414962 45.8423244,81.6324652 45.7621419,81.5895137 L44.8032932,81.0443589 C44.7264516,81.0014073 44.6329054,81.0014073 44.5560639,81.0443589" id="Fill-77" fill="#4D5068"></path>
                                <path d="M41.7159339,82.6223341 L39.7848726,83.7258595 C39.7080311,83.7688111 39.7080311,83.8778421 39.7848726,83.9240976 L40.7437214,84.4692524 C40.8205629,84.512204 40.9174501,84.512204 40.9909507,84.4692524 L42.9220119,83.365727 C42.9988534,83.3194714 42.9988534,83.2104405 42.9220119,83.1674889 L41.9631631,82.6223341 C41.8863216,82.5793825 41.7927754,82.5793825 41.7159339,82.6223341" id="Fill-79" fill="#4D5068"></path>
                                <path d="M38.7892736,84.2531729 L36.8582124,85.3533943 C36.7813708,85.3996498 36.7813708,85.5086808 36.8582124,85.5549363 L37.8170611,86.1000911 C37.8939026,86.1430427 37.9874489,86.1430427 38.0676313,86.0967871 L39.9986926,84.9965657 C40.0755341,84.9503102 40.0755341,84.8412792 39.9986926,84.7983276 L39.0398438,84.2531729 C38.9596613,84.2069173 38.8661151,84.2069173 38.7892736,84.2531729" id="Fill-81" fill="#4D5068"></path>
                                <path d="M35.9785438,85.8020732 L34.0474826,86.9055986 C33.9706411,86.9485502 33.9706411,87.0575811 34.0474826,87.1038367 L35.0063313,87.6489914 C35.0831729,87.691943 35.18006,87.691943 35.2569016,87.6489914 L37.1879628,86.545466 C37.2648043,86.4992105 37.2648043,86.3901795 37.1879628,86.3472279 L36.2257731,85.8020732 C36.1489316,85.7591216 36.0553854,85.7591216 35.9785438,85.8020732" id="Fill-83" fill="#4D5068"></path>
                                <path d="M33.245992,87.4685948 L31.3149307,88.5721202 C31.2347483,88.6150717 31.2347483,88.7241027 31.3149307,88.7703583 L32.2737795,89.315513 C32.350621,89.3584646 32.4441672,89.3584646 32.5210088,89.315513 L34.4554109,88.2119876 C34.5289115,88.169036 34.5289115,88.0600051 34.45207,88.0137495 L33.4932212,87.4685948 C33.4163797,87.4256432 33.3228335,87.4256432 33.245992,87.4685948" id="Fill-85" fill="#4D5068"></path>
                                <path d="M30.384814,89.0287286 L28.4537528,90.132254 C28.3769113,90.1752056 28.3769113,90.2842365 28.4537528,90.3304921 L29.4126016,90.8756468 C29.4894431,90.9185984 29.5829893,90.9185984 29.6631718,90.8756468 L31.5908921,89.7721214 C31.6677336,89.7291698 31.6677336,89.6201389 31.5908921,89.5738833 L30.6320433,89.0287286 C30.5552018,88.985777 30.4616556,88.985777 30.384814,89.0287286" id="Fill-87" fill="#4D5068"></path>
                                <path d="M27.5657319,90.6886422 L25.6346707,91.7921676 C25.5578292,91.8351192 25.5578292,91.9441502 25.6346707,91.9904057 L26.5935194,92.5355605 C26.670361,92.5785121 26.7639072,92.5785121 26.8440897,92.5355605 L28.7751509,91.4320351 C28.8519924,91.3857795 28.8519924,91.2767486 28.7751509,91.233797 L27.8163022,90.6886422 C27.7361197,90.6456906 27.6425735,90.6456906 27.5657319,90.6886422" id="Fill-89" fill="#4D5068"></path>
                                <path d="M24.7940911,92.3065955 L22.8630299,93.4101209 C22.7861884,93.4530725 22.7861884,93.5621034 22.8630299,93.608359 L23.8218786,94.1535137 C23.8987202,94.1964653 23.9922664,94.1964653 24.0724489,94.1535137 L26.0001691,93.0499883 C26.0803516,93.0037328 26.0803516,92.8947018 26.0001691,92.8517502 L25.0413204,92.3065955 C24.9644789,92.2636439 24.8709327,92.2636439 24.7940911,92.3065955" id="Fill-91" fill="#4D5068"></path>
                                <path d="M21.8724423,93.9714651 L19.941381,95.0716865 C19.8645395,95.1179421 19.8645395,95.226973 19.941381,95.2732286 L20.9002298,95.8183833 C20.9770713,95.8613349 21.0706175,95.8613349 21.1508,95.8150794 L23.0785203,94.7148579 C23.1553618,94.6686024 23.1553618,94.5595714 23.0785203,94.5166198 L22.1196715,93.9714651 C22.04283,93.9285135 21.9492838,93.9285135 21.8724423,93.9714651" id="Fill-93" fill="#4D5068"></path>
                                <path d="M19.0339827,95.5461363 L17.1029215,96.6496617 C17.02608,96.6926133 17.02608,96.8016443 17.1029215,96.8478998 L18.0617702,97.3930546 C18.1386118,97.4360062 18.232158,97.4360062 18.3123405,97.3930546 L20.2434017,96.2895292 C20.3202432,96.2432737 20.3202432,96.1342427 20.2434017,96.0912911 L19.281212,95.5461363 C19.2043705,95.5031848 19.1108242,95.5031848 19.0339827,95.5461363" id="Fill-95" fill="#4D5068"></path>
                                <path d="M51.3144441,81.4543813 L50.004797,80.6977726 C49.8377502,80.5986536 49.6272712,80.5986536 49.4535425,80.6944687 L48.1773048,81.4246456 C48.0002352,81.5270687 47.9935533,81.7814742 48.1706229,81.8872012 L49.4401788,82.6603298 C49.6139074,82.7627528 49.8277274,82.7660567 50.0014561,82.6669377 L51.3144441,81.9202409 C51.4948546,81.8178179 51.4948546,81.5601083 51.3144441,81.4543813" id="Fill-97" fill="#4D5068"></path>
                                <path d="M48.384777,83.1225549 L47.0751299,82.3659462 C46.9080831,82.2668271 46.6976041,82.2668271 46.5238754,82.3626422 L45.2476377,83.0928192 C45.0672271,83.1952422 45.0638862,83.4496478 45.2409558,83.5553748 L46.5105116,84.3251994 C46.6842403,84.4309263 46.8980603,84.4342303 47.071789,84.3351113 L48.384777,83.5884144 C48.5651875,83.4826875 48.5651875,83.2249779 48.384777,83.1225549" id="Fill-99" fill="#4D5068"></path>
                                <path d="M45.5396355,84.7001998 L44.2299885,83.943591 C44.0629417,83.844472 43.8524627,83.844472 43.6820749,83.943591 L42.4024963,84.670464 C42.2254267,84.7728871 42.2220857,85.0272926 42.3958144,85.1330196 L43.6687112,85.9061482 C43.8390989,86.0085712 44.0529188,86.0118752 44.2266475,85.9127561 L45.5396355,85.1660593 C45.7200461,85.0636363 45.7200461,84.8059267 45.5396355,84.7001998" id="Fill-101" fill="#4D5068"></path>
                                <path d="M42.5137495,86.3297169 L41.2041024,85.5731082 C41.0370556,85.4739891 40.8265766,85.4739891 40.6561888,85.5731082 L39.3766102,86.2999812 C39.1995406,86.4024042 39.1961996,86.6568098 39.3732693,86.7625367 L40.6428251,87.5356653 C40.8132128,87.6380883 41.0270328,87.6413923 41.2007615,87.5422733 L42.5137495,86.7955764 C42.69416,86.6931534 42.69416,86.4354439 42.5137495,86.3297169" id="Fill-103" fill="#4D5068"></path>
                                <path d="M39.8480163,87.8799388 L38.5383693,87.1233301 C38.3713224,87.024211 38.1608435,87.024211 37.9871148,87.1200261 L36.7108771,87.8502031 C36.5338074,87.9526261 36.5304665,88.2070317 36.7041952,88.3127587 L37.973751,89.0825833 C38.1474797,89.1883102 38.3612996,89.1916142 38.5350283,89.0924952 L39.8480163,88.3457983 C40.0284269,88.2433753 40.0284269,87.9856658 39.8480163,87.8799388" id="Fill-105" fill="#4D5068"></path>
                                <path d="M37.1385169,89.5385309 L35.8288699,88.7819221 C35.661823,88.6828031 35.4513441,88.6828031 35.2809563,88.7786182 L34.0047186,89.5087952 C33.824308,89.6112182 33.8209671,89.8656237 33.9980367,89.9713507 L35.2675926,90.7444793 C35.4379803,90.8469023 35.6518002,90.8502063 35.8255289,90.7510872 L37.1385169,90.0043904 C37.3189275,89.9019674 37.3189275,89.6442579 37.1385169,89.5385309" id="Fill-107" fill="#4D5068"></path>
                                <path d="M34.2445978,91.1065942 L32.9349508,90.3499855 C32.767904,90.2508664 32.557425,90.2508664 32.3870372,90.3499855 L31.1074586,91.0768585 C30.930389,91.1792815 30.927048,91.4336871 31.1041176,91.539414 L32.3736735,92.3125426 C32.5440612,92.4149656 32.7578812,92.4182696 32.9316098,92.3191506 L34.2445978,91.5724537 C34.4250084,91.4700307 34.4250084,91.2123212 34.2445978,91.1065942" id="Fill-109" fill="#4D5068"></path>
                                <path d="M31.4124861,92.6954725 L30.102839,91.9388638 C29.9357922,91.8397448 29.7253132,91.8397448 29.5515845,91.9355598 L28.2753468,92.6657368 C28.0949363,92.7681598 28.0915953,93.0225654 28.2686649,93.1282924 L29.5382208,93.898117 C29.7119495,94.003844 29.9257694,94.0071479 30.0994981,93.9080289 L31.4124861,93.1613321 C31.5928966,93.058909 31.5928966,92.8011995 31.4124861,92.6954725" id="Fill-111" fill="#4D5068"></path>
                                <path d="M28.6278156,94.3844611 L27.3181685,93.6278524 C27.1477808,93.5287333 26.9373018,93.5287333 26.766914,93.6245484 L25.4906764,94.3547254 C25.3102658,94.4571484 25.3069248,94.711554 25.4839945,94.817281 L26.7535503,95.5871056 C26.9239381,95.6928325 27.1410989,95.6961365 27.3148276,95.5970175 L28.6278156,94.8503206 C28.8048852,94.7478976 28.8082262,94.4868841 28.6278156,94.3844611" id="Fill-113" fill="#4D5068"></path>
                                <path d="M25.5935772,96.1527449 L24.2839301,95.3961362 C24.1135424,95.2970171 23.9030634,95.2970171 23.7326756,95.3928322 L22.4564379,96.1230092 C22.2760274,96.2221283 22.2726864,96.4798378 22.4497561,96.5855648 L23.7193119,97.3553894 C23.8896996,97.4611163 24.1068605,97.4611163 24.2805892,97.3653013 L25.5902363,96.6186044 C25.7706468,96.5128775 25.7739878,96.2551679 25.5935772,96.1527449" id="Fill-115" fill="#4D5068"></path>
                                <path d="M22.8479957,97.624002 L21.5383486,96.8673933 C21.3713018,96.7682742 21.1608228,96.7682742 20.9904351,96.8640893 L19.7141974,97.5942663 C19.5337868,97.6966893 19.5304459,97.9510948 19.7075155,98.0568218 L20.9770713,98.8266464 C21.1474591,98.9323734 21.361279,98.9356774 21.5350077,98.8365583 L22.8479957,98.0898615 C23.0284062,97.9874385 23.0284062,97.729729 22.8479957,97.624002" id="Fill-117" fill="#4D5068"></path>
                                <path d="M54.2297451,83.0224447 L52.9200981,82.265836 C52.7530513,82.1667169 52.5425723,82.1667169 52.3721845,82.262532 L51.0926059,82.992709 C50.9155363,83.095132 50.9121953,83.3495375 51.085924,83.4552645 L52.3588208,84.2283931 C52.5292085,84.3308161 52.7430285,84.3341201 52.9167571,84.235001 L54.2297451,83.4883042 C54.4101557,83.3858812 54.4101557,83.1281717 54.2297451,83.0224447" id="Fill-119" fill="#4D5068"></path>
                                <path d="M51.2997439,84.6889663 L49.9900969,83.9323575 C49.8230501,83.8332385 49.6125711,83.8332385 49.4421833,83.9323575 L48.1626047,84.6592306 C47.9855351,84.7616536 47.9788532,85.0160591 48.1559228,85.1217861 L49.4288196,85.8949147 C49.5992073,85.9973377 49.8130273,86.0006417 49.9867559,85.9015226 L51.2997439,85.1548258 C51.4801545,85.0524028 51.4801545,84.7946933 51.2997439,84.6889663" id="Fill-121" fill="#4D5068"></path>
                                <path d="M48.4566071,86.2682631 L47.14696,85.5116544 C46.9765723,85.4125353 46.7660933,85.4125353 46.5957055,85.5083504 L45.3194678,86.2385274 C45.1390573,86.3409504 45.1357163,86.595356 45.312786,86.7010829 L46.5823418,87.4709075 C46.7527295,87.5766345 46.9698904,87.5799385 47.1436191,87.4808194 L48.4532661,86.7341226 C48.6370176,86.6316996 48.6370176,86.3739901 48.4566071,86.2682631" id="Fill-123" fill="#4D5068"></path>
                                <path d="M45.4287164,87.8977802 L44.1190694,87.1411715 C43.9520226,87.0420525 43.7415436,87.0420525 43.5711558,87.1411715 L42.2949181,87.8680445 C42.1145076,87.9704675 42.1111666,88.2248731 42.2882363,88.3306001 L43.5577921,89.1037287 C43.7281798,89.2061517 43.9419998,89.2094556 44.1157285,89.1103366 L45.4287164,88.3636398 C45.609127,88.2612167 45.609127,88.0035072 45.4287164,87.8977802" id="Fill-125" fill="#4D5068"></path>
                                <path d="M42.7633174,89.4480021 L41.4536703,88.6913934 C41.2866235,88.5922744 41.0761445,88.5922744 40.9057568,88.6880894 L39.6261782,89.4182664 C39.4491085,89.5206894 39.4457676,89.775095 39.6194963,89.880822 L40.892393,90.6506466 C41.0627808,90.7563736 41.2766007,90.7563736 41.4503294,90.6605585 L42.7633174,89.9138617 C42.943728,89.8081347 42.943728,89.5504252 42.7633174,89.4480021" id="Fill-127" fill="#4D5068"></path>
                                <path d="M40.0551544,91.1065942 L38.7455073,90.3499855 C38.5784605,90.2508664 38.3679815,90.2508664 38.1942528,90.3466815 L36.9180151,91.0768585 C36.7376046,91.1792815 36.7342636,91.4336871 36.9113333,91.539414 L38.1808891,92.3092387 C38.3546178,92.4149656 38.5684377,92.4182696 38.7421664,92.3191506 L40.0551544,91.5724537 C40.2355649,91.4700307 40.2355649,91.2123212 40.0551544,91.1065942" id="Fill-129" fill="#4D5068"></path>
                                <path d="M37.1612353,92.6746575 L35.8515882,91.9180488 C35.6812005,91.8189298 35.4707215,91.8189298 35.3003337,91.9180488 L34.024096,92.6449218 C33.8436855,92.7473448 33.8403445,93.0017504 34.0174142,93.1074774 L35.28697,93.880606 C35.4573577,93.983029 35.6745186,93.9863329 35.8482473,93.8872139 L37.1578944,93.1405171 C37.3383049,93.038094 37.3416459,92.7803845 37.1612353,92.6746575" id="Fill-131" fill="#4D5068"></path>
                                <path d="M34.3277872,94.2635359 L33.0181401,93.5069271 C32.8510933,93.4078081 32.6406143,93.4078081 32.4668856,93.5036232 L31.1906479,94.2338002 C31.0135783,94.3362232 31.0102373,94.5906287 31.183966,94.6963557 L32.4568628,95.4661803 C32.6272505,95.5719073 32.8410705,95.5719073 33.0147992,95.4760922 L34.3277872,94.7293954 C34.5081977,94.6236684 34.5081977,94.3659589 34.3277872,94.2635359" id="Fill-133" fill="#4D5068"></path>
                                <path d="M31.5431167,95.9528548 L30.2334696,95.1962461 C30.0630819,95.0971271 29.8526029,95.0971271 29.6822151,95.1929421 L28.4059774,95.9231191 C28.2255669,96.0255421 28.2222259,96.2799477 28.3992956,96.3856747 L29.6688514,97.1554993 C29.8425801,97.2612263 30.0564,97.2645302 30.2301287,97.1654112 L31.5397758,96.4187144 C31.7235273,96.3129874 31.7235273,96.0552779 31.5431167,95.9528548" id="Fill-135" fill="#4D5068"></path>
                                <path d="M28.5072078,97.7191563 L27.1975607,96.9625475 C27.0305139,96.8634285 26.8200349,96.8634285 26.6496472,96.9625475 L25.3734095,97.6894206 C25.1929989,97.7918436 25.189658,98.0462491 25.3667276,98.1519761 L26.6362834,98.9251047 C26.8066712,99.0275277 27.0204911,99.0308317 27.1942198,98.9317126 L28.5072078,98.1850158 C28.6876184,98.0825928 28.6876184,97.8248833 28.5072078,97.7191563" id="Fill-137" fill="#4D5068"></path>
                                <path d="M25.7649672,99.1920653 L24.4553202,98.4354566 C24.2849324,98.3363375 24.0777944,98.3363375 23.9040657,98.4321526 L22.627828,99.1623296 C22.4474174,99.2647526 22.4440765,99.5191582 22.6211461,99.6248852 L23.8907019,100.39471 C24.0644306,100.500437 24.2782505,100.503741 24.4519792,100.404622 L25.7616263,99.6579248 C25.9453778,99.5521979 25.9453778,99.2977923 25.7649672,99.1920653" id="Fill-139" fill="#4D5068"></path>
                                <path d="M57.1447121,84.590508 L55.8350651,83.8338993 C55.6680182,83.7347802 55.4575393,83.7347802 55.2871515,83.8305953 L54.0075729,84.5607723 C53.8305032,84.6631953 53.8271623,84.9176009 54.0042319,85.0233279 L55.2737878,85.7964564 C55.4441755,85.8988794 55.6579954,85.9021834 55.8317241,85.8030644 L57.1447121,85.0563675 C57.3251227,84.9506406 57.3251227,84.696235 57.1447121,84.590508" id="Fill-141" fill="#4D5068"></path>
                                <path d="M54.215045,86.2570296 L52.905398,85.5004209 C52.7383511,85.4013018 52.5278721,85.4013018 52.3574844,85.5004209 L51.0812467,86.2272939 C50.9008361,86.3297169 50.8974952,86.5841225 51.0712239,86.6898494 L52.3441206,87.462978 C52.5145084,87.565401 52.7283283,87.568705 52.902057,87.469586 L54.215045,86.7228891 C54.3954556,86.6204661 54.3954556,86.3627566 54.215045,86.2570296" id="Fill-143" fill="#4D5068"></path>
                                <path d="M51.3715741,87.8363264 L50.061927,87.0797177 C49.8915393,86.9805987 49.6810603,86.9805987 49.5106725,87.0764137 L48.2344348,87.8065907 C48.0540242,87.9090137 48.0506833,88.1634193 48.2277529,88.2691463 L49.4973088,89.0389709 C49.6710375,89.1446979 49.8848574,89.1480018 50.0585861,89.0488828 L51.3715741,88.302186 C51.5519846,88.1997629 51.5519846,87.9387494 51.3715741,87.8363264" id="Fill-145" fill="#4D5068"></path>
                                <path d="M48.345688,89.4658436 L47.0360409,88.7092348 C46.8656532,88.6101158 46.6585151,88.6101158 46.4847864,88.7059309 L45.2085487,89.4361079 C45.0281382,89.5385309 45.0247972,89.7929364 45.2018669,89.8986634 L46.4714227,90.671792 C46.6451514,90.774215 46.8589713,90.777519 47.0327,90.6783999 L48.345688,89.9317031 C48.5260986,89.8292801 48.5260986,89.5715706 48.345688,89.4658436" id="Fill-147" fill="#4D5068"></path>
                                <path d="M45.6782844,91.0160655 L44.3686373,90.2594567 C44.2015905,90.1603377 43.9911115,90.1603377 43.8207238,90.2561528 L42.5444861,90.9863298 C42.3640755,91.0854488 42.3607346,91.3431583 42.5378042,91.4488853 L43.80736,92.2187099 C43.9777478,92.3244369 44.1915677,92.3277409 44.3652964,92.2286218 L45.6782844,91.481925 C45.858695,91.376198 45.858695,91.1184885 45.6782844,91.0160655" id="Fill-149" fill="#4D5068"></path>
                                <path d="M42.9704555,92.6746575 L41.6608084,91.9180488 C41.4937616,91.8189298 41.2832826,91.8189298 41.1095539,91.9147448 L39.8333162,92.6449218 C39.6529056,92.7473448 39.6495647,93.0017504 39.8266343,93.1074774 L41.0961902,93.877302 C41.2699188,93.983029 41.4837388,93.983029 41.6574675,93.8872139 L42.9704555,93.1405171 C43.150866,93.0347901 43.150866,92.7770806 42.9704555,92.6746575" id="Fill-151" fill="#4D5068"></path>
                                <path d="M40.0748659,94.2427209 L38.7652188,93.4861121 C38.598172,93.3869931 38.387693,93.3869931 38.2173053,93.4828082 L36.9410676,94.2129852 C36.760657,94.3154082 36.7573161,94.5698137 36.9343857,94.6755407 L38.2039415,95.4486693 C38.3743293,95.5510923 38.5881492,95.5543963 38.7618779,95.4552772 L40.0748659,94.7085804 C40.2552765,94.6061574 40.2552765,94.3484479 40.0748659,94.2427209" id="Fill-153" fill="#4D5068"></path>
                                <path d="M37.2427541,95.8315992 L35.9331071,95.0749905 C35.7660603,94.9758714 35.5555813,94.9758714 35.3851935,95.0716865 L34.1056149,95.8018635 C33.9285453,95.9009825 33.9252043,96.1586921 34.098933,96.264419 L35.3684888,97.0342437 C35.5422175,97.1399706 35.7560375,97.1399706 35.9297661,97.0441556 L37.2427541,96.2974587 C37.4231647,96.1917317 37.4231647,95.9340222 37.2427541,95.8315992" id="Fill-155" fill="#4D5068"></path>
                                <path d="M34.4580837,97.5192662 L33.1484366,96.7626575 C32.9813898,96.6635384 32.7709108,96.6635384 32.5971821,96.7626575 L31.3209444,97.4895305 C31.1405339,97.5919535 31.1371929,97.846359 31.3142625,97.952086 L32.5838184,98.7252146 C32.7575471,98.8276376 32.971367,98.8309416 33.1450957,98.7318225 L34.4580837,97.9851257 C34.6384942,97.8827027 34.6384942,97.6249932 34.4580837,97.5192662" id="Fill-157" fill="#4D5068"></path>
                                <path d="M31.4238453,99.2872196 L30.1141982,98.5306109 C29.9471514,98.4314918 29.7366724,98.4314918 29.5629437,98.5273069 L28.286706,99.2574839 C28.1096364,99.3599069 28.1029545,99.6143125 28.2800241,99.7200394 L29.54958,100.493168 C29.7233086,100.595591 29.9371286,100.598895 30.1108573,100.499776 L31.4238453,99.7530791 C31.6042558,99.6506561 31.6042558,99.3929466 31.4238453,99.2872196" id="Fill-159" fill="#4D5068"></path>
                                <path d="M28.6799342,100.760129 L27.3702872,100.00352 C27.2032403,99.9044009 26.9927613,99.9044009 26.8190327,100.000216 L25.542795,100.730393 C25.3623844,100.832816 25.3590435,101.087222 25.5361131,101.192948 L26.8056689,101.962773 C26.9793976,102.0685 27.1932175,102.071804 27.3669462,101.972685 L28.6799342,101.225988 C28.8603448,101.123565 28.8603448,100.862552 28.6799342,100.760129" id="Fill-161" fill="#4D5068"></path>
                                <path d="M60.0616837,86.1585713 L58.7520366,85.4019626 C58.5816489,85.3028436 58.3745108,85.3028436 58.2007821,85.3986587 L56.9245444,86.1288356 C56.7441339,86.2279547 56.7407929,86.4856642 56.9178625,86.5913912 L58.1874184,87.3612158 C58.3611471,87.4669428 58.574967,87.4669428 58.7486957,87.3711277 L60.0583427,86.6244309 C60.2420942,86.5187039 60.2420942,86.2609944 60.0616837,86.1585713" id="Fill-163" fill="#4D5068"></path>
                                <path d="M57.1316825,87.8250929 L55.8220354,87.0684842 C55.6516477,86.9693652 55.4411687,86.9693652 55.2707809,87.0684842 L53.9945432,87.7953572 C53.8141327,87.8977802 53.8107917,88.1521858 53.9878613,88.2579128 L55.2574172,89.0310413 C55.4278049,89.1334644 55.6449658,89.1367683 55.8186945,89.0376493 L57.1283415,88.2909525 C57.3087521,88.1885294 57.312093,87.9308199 57.1316825,87.8250929" id="Fill-165" fill="#4D5068"></path>
                                <path d="M54.2868752,89.4043898 L52.9772281,88.647781 C52.8068403,88.548662 52.5997023,88.548662 52.4259736,88.6444771 L51.1497359,89.374654 C50.9726663,89.4770771 50.9659844,89.7314826 51.143054,89.8372096 L52.4126098,90.6070342 C52.5863385,90.7127612 52.8001585,90.7127612 52.9738872,90.6169461 L54.2868752,89.8702493 C54.4672857,89.7645223 54.4672857,89.5068128 54.2868752,89.4043898" id="Fill-167" fill="#4D5068"></path>
                                <path d="M51.260655,91.0339069 L49.9510079,90.2772982 C49.7839611,90.1781791 49.5734821,90.1781791 49.3997534,90.2772982 L48.1235157,91.0041712 C47.9464461,91.1065942 47.9397642,91.3609998 48.1168339,91.4667267 L49.3863897,92.2398553 C49.5601184,92.3422783 49.7739383,92.3455823 49.947667,92.2464633 L51.260655,91.4997664 C51.4410655,91.3973434 51.4410655,91.1396339 51.260655,91.0339069" id="Fill-169" fill="#4D5068"></path>
                                <path d="M48.345688,92.7552744 L47.0360409,91.9986656 C46.8656532,91.8995466 46.6585151,91.8995466 46.4847864,91.9953617 L39.8329821,95.7949252 C39.6525715,95.8973482 39.6492306,96.1517537 39.8263002,96.2574807 L41.099197,97.0306093 C41.2695848,97.1330323 41.4834047,97.1363363 41.6571334,97.0372172 L48.345688,93.2211339 C48.5260986,93.1187109 48.5260986,92.8610013 48.345688,92.7552744" id="Fill-171" fill="#4D5068"></path>
                                <path d="M40.1580552,97.398341 L38.8484082,96.6417322 C38.6813613,96.5426132 38.4708824,96.5426132 38.3004946,96.6417322 L37.0242569,97.3686052 C36.8438463,97.4710283 36.8405054,97.7254338 37.017575,97.8311608 L38.2871309,98.6042894 C38.4575186,98.7067124 38.6713385,98.7100163 38.8450672,98.6108973 L40.1580552,97.8642005 C40.3384658,97.7617775 40.3384658,97.5040679 40.1580552,97.398341" id="Fill-173" fill="#4D5068"></path>
                                <path d="M37.3733848,99.0889815 L36.0637377,98.3323728 C35.8966909,98.2332537 35.6862119,98.2332537 35.5158241,98.3290688 L34.2362455,99.0592458 C34.0591759,99.1583648 34.0558349,99.4160744 34.2295636,99.5218013 L35.4991194,100.291626 C35.6728481,100.397353 35.8866681,100.397353 36.0603968,100.301538 L37.3733848,99.554841 C37.5537953,99.449114 37.5537953,99.1914045 37.3733848,99.0889815" id="Fill-175" fill="#4D5068"></path>
                                <path d="M34.3391463,100.855283 L33.0294993,100.098674 C32.8624525,99.9995552 32.6519735,99.9995552 32.4782448,100.09537 L31.2020071,100.825547 C31.0215965,100.92797 31.0215965,101.182376 31.1953252,101.288103 L32.464881,102.057927 C32.6386097,102.163654 32.8524297,102.166958 33.0261583,102.067839 L34.3391463,101.321142 C34.5195569,101.218719 34.5195569,100.96101 34.3391463,100.855283" id="Fill-177" fill="#4D5068"></path>
                                <path d="M31.5952353,102.32687 L30.2855882,101.570262 C30.1185414,101.471143 29.9080624,101.471143 29.7343337,101.570262 L28.458096,102.297135 C28.2810264,102.399558 28.2743445,102.653963 28.4514142,102.75969 L29.72097,103.532819 C29.8946987,103.635242 30.1085186,103.638546 30.2822473,103.539427 L31.5952353,102.79273 C31.7756459,102.690307 31.7756459,102.432597 31.5952353,102.32687" id="Fill-179" fill="#4D5068"></path>
                                <path d="M47.6260503,72.1586667 C47.2585473,66.2478675 49.9246145,55.1267103 51.9726085,51.1586444 C54.521743,46.2159079 58.8315509,41.937269 63.5656577,39.237927 L68.2362868,36.5716246 C74.2299267,33.1454095 76.8826301,39.3766937 81.7236469,44.2698706 C100.676779,63.4361905 87.5669447,95.5838016 86.7718018,112.8173 C86.3775713,121.394402 66.1448606,123.413126 60.1946529,123.419734 C51.7420839,123.426342 39.6779627,117.575014 40.9441776,114.22479 C51.0705557,87.4692556 48.641695,88.5529571 47.6260503,72.1586667" id="Fill-181" fill="#1DAFF4"></path>
                                <path d="M81.723981,44.270201 C77.4843328,39.9849542 74.9218346,34.6721733 70.3213652,35.7228352 C73.6455969,36.4794439 76.0143208,40.7184352 79.5256449,44.270201 C98.4821179,63.4365209 85.3689426,95.584132 84.5737998,112.81763 C84.2062968,120.816538 66.5928802,123.109492 59.3931623,123.387025 C59.6604372,123.396937 59.934394,123.420065 60.194987,123.420065 C66.1451947,123.413457 86.3779054,121.394732 86.7721359,112.81763 C87.5672788,95.584132 100.677113,63.4365209 81.723981,44.270201" id="Fill-183" fill="#1DAFF4"></path>
                                <path d="M65.9948526,44.9283515 L65.0560495,44.9283515 C63.084897,44.9283515 61.4879294,43.3490547 61.4879294,41.3997134 L61.4879294,31.6133594 C61.4879294,29.6640182 63.084897,28.0847213 65.0560495,28.0847213 L65.9948526,28.0847213 C67.966005,28.0847213 69.5629726,29.6640182 69.5629726,31.6133594 L69.5629726,41.3997134 C69.5629726,43.3490547 67.966005,44.9283515 65.9948526,44.9283515" id="Fill-185" fill="#FFCEBD"></path>
                                <path d="M72.3209156,35.4406763 L69.4276647,36.3492675 C60.1766119,39.2501517 50.297463,34.1884723 47.36078,25.0397842 L42.7770152,10.7534255 L67.6669912,2.94284452 L75.9057403,28.604766 C76.8244978,31.4693064 75.2208484,34.532085 72.3209156,35.4406763" id="Fill-187" fill="#FFCEBD"></path>
                                <path d="M75.016049,6.12456595 C74.1808149,3.60694214 72.6840754,0.507819921 69.657187,0.266630238 C67.5891474,0.0981278571 65.5344715,1.28755643 64.4553491,3.0386596 C62.7982447,1.07940643 59.8014247,1.02323897 57.2389265,1.35363579 C52.5215244,1.96156595 47.2662315,3.1113469 43.4208137,5.93623976 C40.6044043,8.00452389 36.9661246,10.6642183 37.8046996,14.6653239 C38.2490442,16.7930794 40.0397861,18.3624644 42.0309842,19.1190731 C43.0065376,19.4891175 43.9687273,19.439558 44.874121,19.9252413 C45.8296288,20.4406604 46.3808833,21.4781064 47.4366192,21.8811906 C48.8097441,22.4065215 50.493576,21.7159921 51.7698137,22.4428652 C53.119552,23.2060818 53.2364848,25.0298723 53.4736912,26.5496977 C53.854558,29.011154 54.6162915,30.990231 56.2065772,32.9924358 C57.2489493,34.3008072 58.4951186,35.5034517 60.0352903,36.1906771 C61.2948233,36.7523517 62.6879938,36.9373739 64.0577777,37.1190921 C64.3818485,37.1620437 64.7126012,37.1983874 65.040013,37.2314271 C69.0224091,37.5948636 73.1985796,36.9704136 75.8379193,33.6565334 C77.4916828,31.5783374 78.2734619,28.9384667 78.5808281,26.315116 C79.3826528,19.4725977 77.1843167,12.6697271 75.016049,6.12456595" id="Fill-189" fill="#4D5068"></path>
                                <path d="M43.4204796,5.93557897 C47.2658974,3.11068611 52.5211903,1.96090516 57.2385924,1.352975 C58.2007821,1.23072817 59.2164268,1.20429643 60.2086849,1.27037579 C59.8478637,1.29680754 59.4803607,1.30671944 59.1295624,1.352975 C54.4121603,1.96090516 49.1568673,3.11068611 45.3081086,5.93557897 C42.4950402,8.0038631 38.8567605,10.6635575 39.6919946,14.6679671 C40.1396801,16.7957226 41.930422,18.3618036 43.92162,19.1184123 C44.8971735,19.4884567 45.8560222,19.4388972 46.761416,19.9245806 C47.7202647,20.4399996 48.2715192,21.4774456 49.3272551,21.8805298 C50.70038,22.4058607 52.3842119,21.7153313 53.6604496,22.4422044 C55.0101879,23.208725 55.1271206,25.0292115 55.3643271,26.5490369 C55.7451939,29.0104933 56.5035864,30.9928742 58.0972131,32.991775 C59.1395852,34.3001464 60.3857545,35.5027909 61.9225852,36.1900163 C63.1854592,36.7516909 64.5786297,36.9367131 65.9484136,37.1184313 C66.2724844,37.1613829 66.5998962,37.1977266 66.9306489,37.2274623 C67.2881291,37.260502 67.6489502,37.2770218 68.0064304,37.2935417 C67.0241951,37.3497091 66.0252551,37.3199734 65.0396789,37.2274623 C64.7122671,37.1977266 64.3815144,37.1613829 64.0574436,37.1184313 C62.6876597,36.9367131 61.2944892,36.7516909 60.0349562,36.1900163 C58.4947845,35.5027909 57.2486152,34.3001464 56.2062431,32.991775 C54.6159574,30.9928742 53.8575648,29.0104933 53.4733571,26.5490369 C53.2361507,25.0292115 53.1192179,23.208725 51.7728205,22.4422044 C50.4932419,21.7153313 48.80941,22.4058607 47.4362851,21.8805298 C46.3805492,21.4774456 45.8292947,20.4399996 44.8737869,19.9245806 C43.9683932,19.4388972 43.0062035,19.4884567 42.0306501,19.1184123 C40.039452,18.3618036 38.2487101,16.7957226 37.8043655,14.6679671 C36.9657905,10.6635575 40.6040702,8.0038631 43.4204796,5.93557897" id="Fill-191" fill="#717386"></path>
                                <path d="M65.6848137,80.9072442 L62.9151774,61.1759458 C62.5276288,58.4105244 59.945085,56.474399 57.1453803,56.8642672 C54.3490166,57.2475275 52.3945688,59.801495 52.7854583,62.5669164 L55.5517537,82.2982148 C56.1030082,86.2068093 54.8200886,90.0691482 52.0337477,92.897345 C50.6405772,94.3081394 48.9767909,95.3554974 47.1660034,95.9898593 C46.4042699,98.8643117 45.2817152,102.340086 43.6847477,106.803747 C49.5781594,106.605509 55.1575232,104.21674 59.3537393,99.9579252 C64.3618029,94.879726 66.6703899,87.9347847 65.6848137,80.9072442" id="Fill-193" fill="#0086AF"></path>
                                <path d="M42.9019663,103.581718 C42.0633912,103.581718 41.2214753,103.538766 40.3762184,103.446255 L34.1153036,103.029955 C31.2955533,102.844933 29.1640359,100.433036 29.3544693,97.6477906 C29.5415617,94.8592413 32.0205365,92.7744374 34.7968546,92.9396358 L41.4052268,93.3856715 C45.3675773,93.8217953 49.2464044,92.4605604 52.0327454,89.6356675 C54.8190863,86.8107747 56.1020059,82.9484358 55.5540923,79.0398413 L52.7844561,59.3085429 C52.3969074,56.5431215 54.3513552,53.9858501 57.147719,53.6058937 C59.9474236,53.2160255 62.5299675,55.1521509 62.9175161,57.9175723 L65.6838114,77.6455667 C66.6727286,84.6731072 64.3641415,91.6180485 59.3560779,96.6995517 C54.9694285,101.146693 49.0860395,103.581718 42.9019663,103.581718" id="Fill-195" fill="#FFCEBD"></path>
                                <path d="M66.0990898,78.6569114 L63.0989289,57.2736289 C62.6779709,54.2769297 59.8782663,52.1756059 56.844696,52.5985138 C53.8144667,53.0115098 51.6963131,55.7802352 52.1172711,58.7802384 L55.1174319,80.1668249 L66.0990898,78.6569114 Z" id="Fill-197" fill="#0086AF"></path>
                                <path d="M34.7029743,95.0720169 L25.007577,95.0720169 C24.4663453,95.0720169 24.0286826,94.6391971 24.0286826,94.1072582 L24.0286826,93.8528526 C24.0286826,93.3209137 24.4663453,92.8880939 25.007577,92.8880939 L34.7029743,92.8880939 C35.244206,92.8880939 35.6785277,93.3209137 35.6785277,93.8528526 L35.6785277,94.1072582 C35.6785277,94.6391971 35.244206,95.0720169 34.7029743,95.0720169" id="Fill-199" fill="#FFCEBD"></path>
                                <path d="M40.2492628,96.2366657 L31.8133984,91.5086871 C31.3423264,91.2443697 31.1786205,90.6562633 31.4425545,90.1937078 L31.5695101,89.9723419 C31.8334441,89.5064824 32.4314717,89.3445879 32.8992028,89.6089054 L41.338408,94.33358 C41.8094801,94.5978975 41.973186,95.1893078 41.705911,95.6518633 L41.5789555,95.8732292 C41.3116806,96.3357848 40.7203348,96.4976792 40.2492628,96.2366657" id="Fill-201" fill="#FFCEBD"></path>
                                <path d="M32.9884058,98.2015356 L23.2896675,98.2015356 C22.7517767,98.2015356 22.314114,97.7687158 22.314114,97.2367769 L22.314114,96.9823713 C22.314114,96.4504325 22.7517767,96.0176126 23.2896675,96.0176126 L32.9884058,96.0176126 C33.5262965,96.0176126 33.9639592,96.4504325 33.9639592,96.9823713 L33.9639592,97.2367769 C33.9639592,97.7687158 33.5262965,98.2015356 32.9884058,98.2015356" id="Fill-203" fill="#FFCEBD"></path>
                                <path d="M34.7778113,100.126097 L25.1258461,101.07764 C24.5912963,101.1272 24.1135424,100.743939 24.0600874,100.212 L24.0333599,99.9575948 C23.9799049,99.4289598 24.3707945,98.9564924 24.9053443,98.9003249 L34.5573095,97.952086 C35.0952002,97.8992225 35.5729541,98.2857868 35.6264091,98.8177257 L35.6531366,99.0688273 C35.7065916,99.6007662 35.315702,100.073234 34.7778113,100.126097" id="Fill-205" fill="#FFCEBD"></path>
                                <path d="M36.0012622,102.7511 L26.349297,103.702643 C25.8114062,103.755506 25.3336523,103.368942 25.2835383,102.833699 L25.2568108,102.582598 C25.2033558,102.053963 25.5942454,101.581495 26.1321361,101.528632 L35.7807604,100.577089 C36.3186511,100.524225 36.796405,100.91079 36.84986,101.442728 L36.8765875,101.697134 C36.9267016,102.225769 36.535812,102.698236 36.0012622,102.7511" id="Fill-207" fill="#FFCEBD"></path>
                            </g>
                        </g>
                    </g>
                </g>
            </g>
        </g>
    </g>
</svg>