<svg width="366" height="241" viewBox="0 0 366 241" fill="none" xmlns="http://www.w3.org/2000/svg">
<g filter="url(#filter0_d_13_7927)">
<mask id="mask0_13_7927" style="mask-type:alpha" maskUnits="userSpaceOnUse" x="39" y="1" width="288" height="223">
<path fill-rule="evenodd" clip-rule="evenodd" d="M39.1172 1.30078H326.669V223.201H39.1172V1.30078Z" fill="white"/>
</mask>
<g mask="url(#mask0_13_7927)">
<path fill-rule="evenodd" clip-rule="evenodd" d="M326.669 214.655C326.669 219.384 323.048 223.201 318.596 223.201H47.1869C42.7352 223.201 39.1172 219.384 39.1172 214.655V9.84842C39.1172 5.11994 42.7352 1.2998 47.1869 1.2998H318.596C323.048 1.2998 326.669 5.11994 326.669 9.84842V214.655Z" fill="white"/>
</g>
<mask id="mask1_13_7927" style="mask-type:alpha" maskUnits="userSpaceOnUse" x="3" y="1" width="360" height="235">
<path fill-rule="evenodd" clip-rule="evenodd" d="M3 236H362.778V1.30078H3V236Z" fill="white"/>
</mask>
<g mask="url(#mask1_13_7927)">
<path fill-rule="evenodd" clip-rule="evenodd" d="M52 203.755H313.35V16H52V203.755Z" fill="#191551"/>
<path fill-rule="evenodd" clip-rule="evenodd" d="M2.99988 216.793C4.07239 227.539 14.7279 236 27.8399 236H337.934C351.053 236 361.701 227.539 362.779 216.793H2.99988Z" fill="#EFEFEF"/>
<path fill-rule="evenodd" clip-rule="evenodd" d="M135.461 223.201H230.316V216.792H135.461V223.201Z" fill="#CCCCCC"/>
</g>
</g>
<path d="M245.225 73.2295V88.1842H230.507C226.268 88.1842 222.383 89.5862 219.321 92.0398C215.082 95.3111 212.374 100.452 212.374 106.293V115.991C212.374 119.496 211.786 122.884 210.726 126.156C206.487 138.774 194.477 147.887 180.23 147.887C173.99 147.887 168.221 146.134 163.275 143.097C158.919 140.409 155.269 136.671 152.679 132.348C149.853 127.558 148.204 122.067 148.204 116.108V106.41C148.204 96.4795 140.08 88.3011 129.954 88.3011H123.125V73.2295H129.954C144.201 73.2295 156.446 82.2257 161.156 94.8438C162.451 98.3488 163.158 102.204 163.158 106.293V115.991C163.158 121.482 165.748 126.389 169.869 129.427C172.695 131.647 176.345 132.932 180.23 132.932C189.65 132.932 197.303 125.338 197.303 115.991V106.293C197.303 99.8676 199.187 93.9091 202.366 88.8852C205.074 84.5624 208.842 80.9405 213.199 78.2533C218.262 75.0988 224.266 73.3463 230.625 73.3463H245.225V73.2295Z" fill="#B12DE8"/>
<path opacity="0.15" d="M169.871 129.427C168.811 134.451 166.456 139.124 163.277 142.98C158.921 140.293 155.271 136.554 152.68 132.231C154.564 129.427 155.624 125.922 155.624 122.3V112.603C155.624 106.06 157.626 99.8677 161.04 94.8438C162.335 98.3489 163.042 102.204 163.042 106.294V115.991C163.16 121.366 165.75 126.273 169.871 129.427Z" fill="black"/>
<path opacity="0.15" d="M190.594 129.427C191.653 134.451 194.008 139.124 197.187 142.98C201.544 140.293 205.194 136.554 207.784 132.231C206.018 129.31 204.841 125.922 204.841 122.3V112.603C204.841 106.06 202.839 99.8677 199.425 94.8438C198.129 98.3489 197.423 102.204 197.423 106.294V115.991C197.305 121.366 194.715 126.273 190.594 129.427Z" fill="black"/>
<path d="M136.431 64H124.774L113 80.7073L124.774 97.2977H136.431L124.657 80.7073L136.431 64Z" fill="#B12DE8"/>
<path opacity="0.15" d="M219.322 91.9231C215.083 95.1944 212.375 100.335 212.375 106.177V115.874C212.375 119.379 211.787 122.768 210.727 126.039C207.077 120.781 204.84 114.355 204.84 107.345V97.648C204.84 94.3766 203.898 91.3389 202.367 88.7686C205.075 84.4457 208.843 80.8238 213.2 78.1367C216.261 82.109 218.498 86.7824 219.322 91.9231Z" fill="black"/>
<path opacity="0.15" d="M141.492 91.9231C145.731 95.1944 148.439 100.335 148.439 106.177V115.874C148.439 119.379 149.027 122.768 150.087 126.039C153.737 120.781 155.974 114.355 155.974 107.345V97.648C155.974 94.3766 156.916 91.3389 158.447 88.7686C155.739 84.4457 151.971 80.8238 147.615 78.1367C144.553 82.109 142.434 86.7824 141.492 91.9231Z" fill="black"/>
<path d="M245.109 64H233.57L245.344 80.7073L233.57 97.2977H245.109L257.001 80.7073L245.109 64Z" fill="#B12DE8"/>
<path d="M245.225 147.77H230.507C212.139 147.77 197.303 132.932 197.303 114.822V105.125C197.303 95.7785 189.65 88.1842 180.23 88.1842C170.811 88.1842 163.158 95.7785 163.158 105.125V114.822C163.158 133.049 148.204 147.77 129.954 147.77H123.125V132.932H129.954C139.962 132.932 148.204 124.871 148.204 114.822V105.125C148.204 87.6001 162.569 73.2295 180.348 73.2295C198.127 73.2295 212.492 87.4832 212.492 105.125V114.822C212.374 124.754 220.499 132.932 230.507 132.932H245.225V147.77Z" fill="#FCCA2E"/>
<path d="M136.431 123.702H124.774L113 140.293L124.774 157H136.431L124.657 140.293L136.431 123.702Z" fill="#FCCA2E"/>
<path d="M245.109 123.702H233.57L245.344 140.293L233.57 157H245.109L257.001 140.293L245.109 123.702Z" fill="#FCCA2E"/>
<defs>
<filter id="filter0_d_13_7927" x="0" y="0.300781" width="365.778" height="240.699" filterUnits="userSpaceOnUse" color-interpolation-filters="sRGB">
<feFlood flood-opacity="0" result="BackgroundImageFix"/>
<feColorMatrix in="SourceAlpha" type="matrix" values="0 0 0 0 0 0 0 0 0 0 0 0 0 0 0 0 0 0 127 0" result="hardAlpha"/>
<feOffset dy="2"/>
<feGaussianBlur stdDeviation="1.5"/>
<feColorMatrix type="matrix" values="0 0 0 0 0 0 0 0 0 0 0 0 0 0 0 0 0 0 0.15 0"/>
<feBlend mode="normal" in2="BackgroundImageFix" result="effect1_dropShadow_13_7927"/>
<feBlend mode="normal" in="SourceGraphic" in2="effect1_dropShadow_13_7927" result="shape"/>
</filter>
</defs>
</svg>
