<svg width="366" height="241" viewBox="0 0 366 241" fill="none" xmlns="http://www.w3.org/2000/svg">
<g filter="url(#filter0_d_13_7952)">
<mask id="mask0_13_7952" style="mask-type:alpha" maskUnits="userSpaceOnUse" x="39" y="1" width="288" height="223">
<path fill-rule="evenodd" clip-rule="evenodd" d="M39.1172 1.30078H326.669V223.201H39.1172V1.30078Z" fill="white"/>
</mask>
<g mask="url(#mask0_13_7952)">
<path fill-rule="evenodd" clip-rule="evenodd" d="M326.669 214.655C326.669 219.384 323.048 223.201 318.596 223.201H47.1869C42.7352 223.201 39.1172 219.384 39.1172 214.655V9.84842C39.1172 5.11994 42.7352 1.2998 47.1869 1.2998H318.596C323.048 1.2998 326.669 5.11994 326.669 9.84842V214.655Z" fill="white"/>
</g>
<mask id="mask1_13_7952" style="mask-type:alpha" maskUnits="userSpaceOnUse" x="3" y="1" width="360" height="235">
<path fill-rule="evenodd" clip-rule="evenodd" d="M3 236H362.778V1.30078H3V236Z" fill="white"/>
</mask>
<g mask="url(#mask1_13_7952)">
<path fill-rule="evenodd" clip-rule="evenodd" d="M52 203.755H313.35V16H52V203.755Z" fill="#191551"/>
<path fill-rule="evenodd" clip-rule="evenodd" d="M2.99988 216.793C4.07239 227.539 14.7279 236 27.8399 236H337.934C351.053 236 361.701 227.539 362.779 216.793H2.99988Z" fill="#EFEFEF"/>
<path fill-rule="evenodd" clip-rule="evenodd" d="M135.461 223.201H230.316V216.792H135.461V223.201Z" fill="#CCCCCC"/>
</g>
</g>
<path d="M219.888 175.463V178.125H210.956V175.463H214.08V168.797C213.948 168.973 213.736 169.156 213.442 169.347C213.164 169.523 212.856 169.692 212.518 169.853C212.181 170.014 211.829 170.146 211.462 170.249C211.11 170.352 210.795 170.403 210.516 170.403V167.653C210.78 167.653 211.103 167.572 211.484 167.411C211.866 167.235 212.24 167.03 212.606 166.795C212.973 166.56 213.288 166.333 213.552 166.113C213.831 165.878 214.007 165.695 214.08 165.563H217.094V175.463H219.888ZM232.849 171.679C232.849 172.647 232.703 173.542 232.409 174.363C232.131 175.17 231.735 175.874 231.221 176.475C230.723 177.062 230.121 177.524 229.417 177.861C228.728 178.184 227.98 178.345 227.173 178.345C226.352 178.345 225.597 178.184 224.907 177.861C224.218 177.524 223.617 177.062 223.103 176.475C222.605 175.874 222.209 175.17 221.915 174.363C221.637 173.542 221.497 172.647 221.497 171.679C221.497 170.711 221.637 169.824 221.915 169.017C222.209 168.196 222.605 167.492 223.103 166.905C223.617 166.304 224.218 165.834 224.907 165.497C225.597 165.16 226.352 164.991 227.173 164.991C227.98 164.991 228.728 165.16 229.417 165.497C230.121 165.834 230.723 166.304 231.221 166.905C231.735 167.492 232.131 168.196 232.409 169.017C232.703 169.824 232.849 170.711 232.849 171.679ZM229.879 171.679C229.879 171.092 229.813 170.557 229.681 170.073C229.549 169.574 229.359 169.149 229.109 168.797C228.875 168.445 228.589 168.174 228.251 167.983C227.929 167.792 227.569 167.697 227.173 167.697C226.763 167.697 226.389 167.792 226.051 167.983C225.729 168.174 225.443 168.445 225.193 168.797C224.959 169.149 224.775 169.574 224.643 170.073C224.511 170.557 224.445 171.092 224.445 171.679C224.445 172.266 224.511 172.801 224.643 173.285C224.775 173.769 224.959 174.187 225.193 174.539C225.443 174.891 225.729 175.162 226.051 175.353C226.389 175.544 226.763 175.639 227.173 175.639C227.569 175.639 227.929 175.544 228.251 175.353C228.589 175.162 228.875 174.891 229.109 174.539C229.359 174.187 229.549 173.769 229.681 173.285C229.813 172.801 229.879 172.266 229.879 171.679ZM246.363 171.679C246.363 172.647 246.216 173.542 245.923 174.363C245.644 175.17 245.248 175.874 244.735 176.475C244.236 177.062 243.635 177.524 242.931 177.861C242.242 178.184 241.494 178.345 240.687 178.345C239.866 178.345 239.11 178.184 238.421 177.861C237.732 177.524 237.13 177.062 236.617 176.475C236.118 175.874 235.722 175.17 235.429 174.363C235.15 173.542 235.011 172.647 235.011 171.679C235.011 170.711 235.15 169.824 235.429 169.017C235.722 168.196 236.118 167.492 236.617 166.905C237.13 166.304 237.732 165.834 238.421 165.497C239.11 165.16 239.866 164.991 240.687 164.991C241.494 164.991 242.242 165.16 242.931 165.497C243.635 165.834 244.236 166.304 244.735 166.905C245.248 167.492 245.644 168.196 245.923 169.017C246.216 169.824 246.363 170.711 246.363 171.679ZM243.393 171.679C243.393 171.092 243.327 170.557 243.195 170.073C243.063 169.574 242.872 169.149 242.623 168.797C242.388 168.445 242.102 168.174 241.765 167.983C241.442 167.792 241.083 167.697 240.687 167.697C240.276 167.697 239.902 167.792 239.565 167.983C239.242 168.174 238.956 168.445 238.707 168.797C238.472 169.149 238.289 169.574 238.157 170.073C238.025 170.557 237.959 171.092 237.959 171.679C237.959 172.266 238.025 172.801 238.157 173.285C238.289 173.769 238.472 174.187 238.707 174.539C238.956 174.891 239.242 175.162 239.565 175.353C239.902 175.544 240.276 175.639 240.687 175.639C241.083 175.639 241.442 175.544 241.765 175.353C242.102 175.162 242.388 174.891 242.623 174.539C242.872 174.187 243.063 173.769 243.195 173.285C243.327 172.801 243.393 172.266 243.393 171.679ZM251.847 168.951C251.333 168.951 250.857 168.863 250.417 168.687C249.977 168.511 249.595 168.276 249.273 167.983C248.95 167.675 248.693 167.323 248.503 166.927C248.312 166.516 248.217 166.076 248.217 165.607C248.217 165.152 248.312 164.72 248.503 164.309C248.693 163.898 248.95 163.546 249.273 163.253C249.595 162.96 249.977 162.725 250.417 162.549C250.857 162.373 251.333 162.285 251.847 162.285C252.345 162.285 252.815 162.373 253.255 162.549C253.709 162.725 254.098 162.96 254.421 163.253C254.743 163.546 255 163.898 255.191 164.309C255.381 164.72 255.477 165.152 255.477 165.607C255.477 166.076 255.381 166.516 255.191 166.927C255 167.323 254.743 167.675 254.421 167.983C254.098 168.276 253.709 168.511 253.255 168.687C252.815 168.863 252.345 168.951 251.847 168.951ZM251.847 167.477C252.067 167.477 252.265 167.426 252.441 167.323C252.631 167.22 252.8 167.088 252.947 166.927C253.093 166.751 253.203 166.553 253.277 166.333C253.365 166.098 253.409 165.856 253.409 165.607C253.409 165.094 253.255 164.661 252.947 164.309C252.639 163.942 252.272 163.759 251.847 163.759C251.627 163.759 251.421 163.81 251.231 163.913C251.055 164.016 250.893 164.155 250.747 164.331C250.6 164.492 250.483 164.683 250.395 164.903C250.321 165.123 250.285 165.358 250.285 165.607C250.285 166.12 250.439 166.56 250.747 166.927C251.055 167.294 251.421 167.477 251.847 167.477ZM260.339 178.345C259.825 178.345 259.349 178.257 258.909 178.081C258.469 177.905 258.087 177.67 257.765 177.377C257.442 177.084 257.185 176.739 256.995 176.343C256.804 175.932 256.709 175.492 256.709 175.023C256.709 174.554 256.804 174.121 256.995 173.725C257.185 173.314 257.442 172.962 257.765 172.669C258.087 172.361 258.469 172.119 258.909 171.943C259.349 171.767 259.825 171.679 260.339 171.679C260.852 171.679 261.329 171.767 261.769 171.943C262.209 172.119 262.59 172.361 262.913 172.669C263.25 172.962 263.507 173.314 263.683 173.725C263.873 174.121 263.969 174.554 263.969 175.023C263.969 175.492 263.873 175.932 263.683 176.343C263.507 176.739 263.25 177.084 262.913 177.377C262.59 177.67 262.209 177.905 261.769 178.081C261.329 178.257 260.852 178.345 260.339 178.345ZM260.339 176.871C260.559 176.871 260.757 176.82 260.933 176.717C261.123 176.614 261.292 176.482 261.439 176.321C261.585 176.145 261.695 175.947 261.769 175.727C261.857 175.507 261.901 175.272 261.901 175.023C261.901 174.759 261.857 174.517 261.769 174.297C261.681 174.062 261.563 173.864 261.417 173.703C261.285 173.527 261.123 173.395 260.933 173.307C260.742 173.204 260.544 173.153 260.339 173.153C260.119 173.153 259.913 173.204 259.723 173.307C259.547 173.41 259.385 173.549 259.239 173.725C259.092 173.886 258.975 174.084 258.887 174.319C258.813 174.539 258.777 174.774 258.777 175.023C258.777 175.536 258.931 175.976 259.239 176.343C259.547 176.695 259.913 176.871 260.339 176.871ZM249.449 177.091L255.653 169.853L261.373 162.329L262.715 163.517L256.709 170.623L250.791 178.279L249.449 177.091Z" fill="white"/>
<path fill-rule="evenodd" clip-rule="evenodd" d="M186.682 166.125H82.8058V166.139C79.5816 166.285 77 169.744 77 174C77 178.256 79.5816 181.714 82.8058 181.861V181.875H186.682C190.005 181.875 192.699 178.349 192.699 174C192.699 169.651 190.005 166.125 186.682 166.125Z" fill="#03E59F"/>
<path fill-rule="evenodd" clip-rule="evenodd" d="M85.9883 92.399C100.076 55.9213 135.532 30 176.975 30C218.418 30 253.873 55.9213 267.961 92.399L222.527 109.875C215.483 91.578 197.755 78.676 176.975 78.676C156.195 78.676 138.467 91.578 131.423 109.875L85.9883 92.399Z" fill="#FCCA2E"/>
<path fill-rule="evenodd" clip-rule="evenodd" d="M266.838 55.875L182.492 138.617C180.378 139.79 177.56 138.852 176.386 136.623C175.211 134.394 176.033 131.579 178.265 130.523L266.838 55.875Z" fill="white"/>
<defs>
<filter id="filter0_d_13_7952" x="0" y="0.300781" width="365.778" height="240.699" filterUnits="userSpaceOnUse" color-interpolation-filters="sRGB">
<feFlood flood-opacity="0" result="BackgroundImageFix"/>
<feColorMatrix in="SourceAlpha" type="matrix" values="0 0 0 0 0 0 0 0 0 0 0 0 0 0 0 0 0 0 127 0" result="hardAlpha"/>
<feOffset dy="2"/>
<feGaussianBlur stdDeviation="1.5"/>
<feColorMatrix type="matrix" values="0 0 0 0 0 0 0 0 0 0 0 0 0 0 0 0 0 0 0.15 0"/>
<feBlend mode="normal" in2="BackgroundImageFix" result="effect1_dropShadow_13_7952"/>
<feBlend mode="normal" in="SourceGraphic" in2="effect1_dropShadow_13_7952" result="shape"/>
</filter>
</defs>
</svg>
