<svg width="366" height="241" viewBox="0 0 366 241" fill="none" xmlns="http://www.w3.org/2000/svg">
<g clip-path="url(#clip0_304_1987)">
<g filter="url(#filter0_d_304_1987)">
<mask id="mask0_304_1987" style="mask-type:alpha" maskUnits="userSpaceOnUse" x="21" y="18" width="290" height="211">
<path fill-rule="evenodd" clip-rule="evenodd" d="M21.3162 18.7483H310.465V228.611H21.3162V18.7483Z" fill="white"/>
</mask>
<g mask="url(#mask0_304_1987)">
<path fill-rule="evenodd" clip-rule="evenodd" d="M310.465 220.528C310.465 225 306.824 228.611 302.347 228.611H29.4307C24.9542 228.611 21.3162 225 21.3162 220.528V26.8319C21.3162 22.36 24.9542 18.7478 29.4307 18.7478H302.347C306.824 18.7478 310.465 22.36 310.465 26.8319V220.528Z" fill="white"/>
</g>
<mask id="mask1_304_1987" style="mask-type:alpha" maskUnits="userSpaceOnUse" x="-15" y="18" width="362" height="223">
<path fill-rule="evenodd" clip-rule="evenodd" d="M-15 240.716H346.777V18.7483H-15V240.716Z" fill="white"/>
</mask>
<g mask="url(#mask1_304_1987)">
<path fill-rule="evenodd" clip-rule="evenodd" d="M34.667 210.446H297.468V32.8767H34.667V210.446Z" fill="#191551"/>
</g>
<mask id="mask2_304_1987" style="mask-type:alpha" maskUnits="userSpaceOnUse" x="-15" y="222" width="362" height="19">
<path fill-rule="evenodd" clip-rule="evenodd" d="M-15 222.551H346.777V240.715H-15V222.551Z" fill="white"/>
</mask>
<g mask="url(#mask2_304_1987)">
<path fill-rule="evenodd" clip-rule="evenodd" d="M-15.0002 222.551C-13.9218 232.713 -3.20702 240.715 9.97776 240.715H321.794C334.987 240.715 345.694 232.713 346.778 222.551H-15.0002Z" fill="#EFEFEF"/>
</g>
<mask id="mask3_304_1987" style="mask-type:alpha" maskUnits="userSpaceOnUse" x="-15" y="18" width="362" height="223">
<path fill-rule="evenodd" clip-rule="evenodd" d="M-15 240.716H346.777V18.7483H-15V240.716Z" fill="white"/>
</mask>
<g mask="url(#mask3_304_1987)">
<path fill-rule="evenodd" clip-rule="evenodd" d="M118.198 228.611H213.58V222.55H118.198V228.611Z" fill="#CCCCCC"/>
</g>
</g>
<path d="M215.797 70.054H114.409C110.197 70.054 106.782 73.4944 106.782 77.7384V114.805C106.782 119.049 110.197 122.489 114.409 122.489H215.797C220.009 122.489 223.424 119.049 223.424 114.805V77.7384C223.424 73.4944 220.009 70.054 215.797 70.054Z" fill="#F0F0F0" stroke="#B12DE8"/>
<path d="M182.599 112.635H121.352V115.434H182.599V112.635Z" fill="#CB001C"/>
<path d="M182.599 110.036H121.352V112.734H182.599V110.036Z" fill="white"/>
<path d="M182.599 107.136H121.352V109.935H182.599V107.136Z" fill="#CB001C"/>
<path d="M182.599 104.537H121.352V107.237H182.599V104.537Z" fill="white"/>
<path d="M182.599 101.539H121.352V104.537H182.599V101.539Z" fill="#CB001C"/>
<path d="M182.599 98.7395H121.352V101.538H182.599V98.7395Z" fill="white"/>
<path d="M182.599 96.1404H121.352V98.8399H182.599V96.1404Z" fill="#CB001C"/>
<path d="M182.599 93.2419H121.352V96.0409H182.599V93.2419Z" fill="white"/>
<path d="M182.599 90.6428H121.352V93.3414H182.599V90.6428Z" fill="#CB001C"/>
<path d="M182.599 87.843H121.352V90.6429H182.599V87.843Z" fill="white"/>
<path d="M182.599 85.0449H121.352V87.8439H182.599V85.0449Z" fill="#CB001C"/>
<path d="M182.599 82.1458H121.352V84.9447H182.599V82.1458Z" fill="white"/>
<path d="M182.599 79.5466H121.352V82.2452H182.599V79.5466Z" fill="#CB001C"/>
<path d="M149.345 79.5466H121.352V98.7397H149.345V79.5466Z" fill="#2A3560"/>
<path d="M123.833 81.5454L124.032 82.3455H124.826L124.231 82.8454L124.429 83.4448L123.833 83.1456L123.238 83.4448L123.437 82.8454L122.841 82.3455H123.536L123.833 81.5454Z" fill="white"/>
<path d="M123.833 84.8442L124.032 85.6443H124.826L124.231 86.1443L124.429 86.844L123.833 86.4444L123.238 86.844L123.437 86.1443L122.841 85.6443H123.536L123.833 84.8442Z" fill="white"/>
<path d="M123.833 88.1431L124.032 88.7434H124.826L124.231 89.2433L124.429 90.0425L123.833 89.5425L123.238 90.0425L123.437 89.2433L122.841 88.7434H123.536L123.833 88.1431Z" fill="white"/>
<path d="M123.833 91.2422L124.032 92.0423H124.826L124.231 92.5413L124.429 93.2411L123.833 92.8415L123.238 93.2411L123.437 92.5413L122.841 92.0423H123.536L123.833 91.2422Z" fill="white"/>
<path d="M123.833 94.6416L124.032 95.3413H124.826L124.231 95.7409L124.429 96.5401L123.833 96.1405L123.238 96.5401L123.437 95.7409L122.841 95.3413H123.536L123.833 94.6416Z" fill="white"/>
<path d="M126.017 83.2451L126.315 84.0452H127.109L126.415 84.3444L126.712 85.3443L126.017 84.8444L125.521 85.3443L125.72 84.3444L125.124 84.0452H125.819L126.017 83.2451Z" fill="white"/>
<path d="M126.017 86.5439L126.315 87.344H127.109L126.415 87.844L126.712 88.4434L126.017 88.1432L125.521 88.4434L125.72 87.844L125.124 87.344H125.819L126.017 86.5439Z" fill="white"/>
<path d="M126.017 89.8428L126.315 90.6429H127.109L126.415 90.9421L126.712 91.7422L126.017 91.2422L125.521 91.7422L125.72 90.9421L125.124 90.6429H125.819L126.017 89.8428Z" fill="white"/>
<path d="M126.017 92.9419L126.315 93.7411H127.109L126.415 94.241L126.712 95.0411L126.017 94.5412L125.521 95.0411L125.72 94.241L125.124 93.7411H125.819L126.017 92.9419Z" fill="white"/>
<path d="M128.3 81.5454L128.598 82.3455H129.392L128.698 82.8454L128.896 83.4448L128.3 83.1456L127.705 83.4448L128.003 82.8454L127.308 82.3455H128.102L128.3 81.5454Z" fill="white"/>
<path d="M128.3 84.8442L128.598 85.6443H129.392L128.698 86.1443L128.896 86.844L128.3 86.4444L127.705 86.844L128.003 86.1443L127.308 85.6443H128.102L128.3 84.8442Z" fill="white"/>
<path d="M128.3 88.1431L128.598 88.7434H129.392L128.698 89.2433L128.896 90.0425L128.3 89.5425L127.705 90.0425L128.003 89.2433L127.308 88.7434H128.102L128.3 88.1431Z" fill="white"/>
<path d="M128.3 91.2422L128.598 92.0423H129.392L128.698 92.5413L128.896 93.2411L128.3 92.8415L127.705 93.2411L128.003 92.5413L127.308 92.0423H128.102L128.3 91.2422Z" fill="white"/>
<path d="M128.3 94.6416L128.598 95.3413H129.392L128.698 95.7409L128.896 96.5401L128.3 96.1405L127.705 96.5401L128.003 95.7409L127.308 95.3413H128.102L128.3 94.6416Z" fill="white"/>
<path d="M130.584 83.2451L130.782 84.0452H131.576L130.981 84.3444L131.179 85.3443L130.584 84.8444L129.889 85.3443L130.187 84.3444L129.591 84.0452H130.385L130.584 83.2451Z" fill="white"/>
<path d="M130.584 86.5439L130.782 87.344H131.576L130.981 87.844L131.179 88.4434L130.584 88.1432L129.889 88.4434L130.187 87.844L129.591 87.344H130.385L130.584 86.5439Z" fill="white"/>
<path d="M130.584 89.8428L130.782 90.6429H131.576L130.981 90.9421L131.179 91.7422L130.584 91.2422L129.889 91.7422L130.187 90.9421L129.591 90.6429H130.385L130.584 89.8428Z" fill="white"/>
<path d="M130.584 92.9419L130.782 93.7411H131.576L130.981 94.241L131.179 95.0411L130.584 94.5412L129.889 95.0411L130.187 94.241L129.591 93.7411H130.385L130.584 92.9419Z" fill="white"/>
<path d="M132.867 81.5454L133.065 82.3455H133.86L133.165 82.8454L133.462 83.4448L132.867 83.1456L132.271 83.4448L132.47 82.8454L131.874 82.3455H132.569L132.867 81.5454Z" fill="white"/>
<path d="M132.867 84.8442L133.065 85.6443H133.86L133.165 86.1443L133.462 86.844L132.867 86.4444L132.271 86.844L132.47 86.1443L131.874 85.6443H132.569L132.867 84.8442Z" fill="white"/>
<path d="M132.867 88.1431L133.065 88.7434H133.86L133.165 89.2433L133.462 90.0425L132.867 89.5425L132.271 90.0425L132.47 89.2433L131.874 88.7434H132.569L132.867 88.1431Z" fill="white"/>
<path d="M132.867 91.2422L133.065 92.0423H133.86L133.165 92.5413L133.462 93.2411L132.867 92.8415L132.271 93.2411L132.47 92.5413L131.874 92.0423H132.569L132.867 91.2422Z" fill="white"/>
<path d="M132.867 94.6416L133.065 95.3413H133.86L133.165 95.7409L133.462 96.5401L132.867 96.1405L132.271 96.5401L132.47 95.7409L131.874 95.3413H132.569L132.867 94.6416Z" fill="white"/>
<path d="M135.05 83.2451L135.348 84.0452H136.044L135.448 84.3444L135.746 85.3443L135.05 84.8444L134.455 85.3443L134.654 84.3444L134.157 84.0452H134.852L135.05 83.2451Z" fill="white"/>
<path d="M135.05 86.5439L135.348 87.344H136.044L135.448 87.844L135.746 88.4434L135.05 88.1432L134.455 88.4434L134.654 87.844L134.157 87.344H134.852L135.05 86.5439Z" fill="white"/>
<path d="M135.05 89.8428L135.348 90.6429H136.044L135.448 90.9421L135.746 91.7422L135.05 91.2422L134.455 91.7422L134.654 90.9421L134.157 90.6429H134.852L135.05 89.8428Z" fill="white"/>
<path d="M135.05 92.9419L135.348 93.7411H136.044L135.448 94.241L135.746 95.0411L135.05 94.5412L134.455 95.0411L134.654 94.241L134.157 93.7411H134.852L135.05 92.9419Z" fill="white"/>
<path d="M137.334 81.5454L137.532 82.3455H138.326L137.73 82.8454L137.93 83.4448L137.334 83.1456L136.738 83.4448L136.936 82.8454L136.341 82.3455H137.136L137.334 81.5454Z" fill="white"/>
<path d="M137.334 84.8442L137.532 85.6443H138.326L137.73 86.1443L137.93 86.844L137.334 86.4444L136.738 86.844L136.936 86.1443L136.341 85.6443H137.136L137.334 84.8442Z" fill="white"/>
<path d="M137.334 88.1431L137.532 88.7434H138.326L137.73 89.2433L137.93 90.0425L137.334 89.5425L136.738 90.0425L136.936 89.2433L136.341 88.7434H137.136L137.334 88.1431Z" fill="white"/>
<path d="M137.334 91.2422L137.532 92.0423H138.326L137.73 92.5413L137.93 93.2411L137.334 92.8415L136.738 93.2411L136.936 92.5413L136.341 92.0423H137.136L137.334 91.2422Z" fill="white"/>
<path d="M137.334 94.6416L137.532 95.3413H138.326L137.73 95.7409L137.93 96.5401L137.334 96.1405L136.738 96.5401L136.936 95.7409L136.341 95.3413H137.136L137.334 94.6416Z" fill="white"/>
<path d="M139.617 83.2451L139.816 84.0452H140.61L140.014 84.3444L140.212 85.3443L139.617 84.8444L138.922 85.3443L139.22 84.3444L138.624 84.0452H139.319L139.617 83.2451Z" fill="white"/>
<path d="M139.617 86.5439L139.816 87.344H140.61L140.014 87.844L140.212 88.4434L139.617 88.1432L138.922 88.4434L139.22 87.844L138.624 87.344H139.319L139.617 86.5439Z" fill="white"/>
<path d="M139.617 89.8428L139.816 90.6429H140.61L140.014 90.9421L140.212 91.7422L139.617 91.2422L138.922 91.7422L139.22 90.9421L138.624 90.6429H139.319L139.617 89.8428Z" fill="white"/>
<path d="M139.617 92.9419L139.816 93.7411H140.61L140.014 94.241L140.212 95.0411L139.617 94.5412L138.922 95.0411L139.22 94.241L138.624 93.7411H139.319L139.617 92.9419Z" fill="white"/>
<path d="M141.8 81.5454L142.098 82.3455H142.892L142.198 82.8454L142.396 83.4448L141.8 83.1456L141.205 83.4448L141.404 82.8454L140.908 82.3455H141.602L141.8 81.5454Z" fill="white"/>
<path d="M141.8 84.8442L142.098 85.6443H142.892L142.198 86.1443L142.396 86.844L141.8 86.4444L141.205 86.844L141.404 86.1443L140.908 85.6443H141.602L141.8 84.8442Z" fill="white"/>
<path d="M141.8 88.1431L142.098 88.7434H142.892L142.198 89.2433L142.396 90.0425L141.8 89.5425L141.205 90.0425L141.404 89.2433L140.908 88.7434H141.602L141.8 88.1431Z" fill="white"/>
<path d="M141.8 91.2422L142.098 92.0423H142.892L142.198 92.5413L142.396 93.2411L141.8 92.8415L141.205 93.2411L141.404 92.5413L140.908 92.0423H141.602L141.8 91.2422Z" fill="white"/>
<path d="M141.8 94.6416L142.098 95.3413H142.892L142.198 95.7409L142.396 96.5401L141.8 96.1405L141.205 96.5401L141.404 95.7409L140.908 95.3413H141.602L141.8 94.6416Z" fill="white"/>
<path d="M144.084 83.2451L144.282 84.0452H145.076L144.481 84.3444L144.68 85.3443L144.084 84.8444L143.488 85.3443L143.686 84.3444L143.092 84.0452H143.886L144.084 83.2451Z" fill="white"/>
<path d="M144.084 86.5439L144.282 87.344H145.076L144.481 87.844L144.68 88.4434L144.084 88.1432L143.488 88.4434L143.686 87.844L143.092 87.344H143.886L144.084 86.5439Z" fill="white"/>
<path d="M144.084 89.8428L144.282 90.6429H145.076L144.481 90.9421L144.68 91.7422L144.084 91.2422L143.488 91.7422L143.686 90.9421L143.092 90.6429H143.886L144.084 89.8428Z" fill="white"/>
<path d="M144.084 92.9419L144.282 93.7411H145.076L144.481 94.241L144.68 95.0411L144.084 94.5412L143.488 95.0411L143.686 94.241L143.092 93.7411H143.886L144.084 92.9419Z" fill="white"/>
<path d="M146.366 81.5454L146.566 82.3455H147.458L146.664 82.8454L146.863 83.4448L146.366 83.1456L145.772 83.4448L145.97 82.8454L145.374 82.3455H146.069L146.366 81.5454Z" fill="white"/>
<path d="M146.366 84.8442L146.566 85.6443H147.458L146.664 86.1443L146.863 86.844L146.366 86.4444L145.772 86.844L145.97 86.1443L145.374 85.6443H146.069L146.366 84.8442Z" fill="white"/>
<path d="M146.366 88.1431L146.566 88.7434H147.458L146.664 89.2433L146.863 90.0425L146.366 89.5425L145.772 90.0425L145.97 89.2433L145.374 88.7434H146.069L146.366 88.1431Z" fill="white"/>
<path d="M146.366 91.2422L146.566 92.0423H147.458L146.664 92.5413L146.863 93.2411L146.366 92.8415L145.772 93.2411L145.97 92.5413L145.374 92.0423H146.069L146.366 91.2422Z" fill="white"/>
<path d="M146.366 94.6416L146.566 95.3413H147.458L146.664 95.7409L146.863 96.5401L146.366 96.1405L145.772 96.5401L145.97 95.7409L145.374 95.3413H146.069L146.366 94.6416Z" fill="white"/>
<path d="M206.825 95.8538C206.825 96.0871 206.734 96.295 206.554 96.4758L200.286 102.78C200.104 102.961 199.898 103.052 199.666 103.052C199.434 103.052 199.214 102.961 199.008 102.78L192.74 96.4758C192.559 96.295 192.469 96.0744 192.469 95.8149C192.469 95.5555 192.559 95.3475 192.74 95.192C192.92 95.0365 193.126 94.9452 193.359 94.9199C193.591 94.8937 193.798 94.985 193.978 95.192L199.627 100.873L205.277 95.192C205.457 95.0103 205.677 94.9199 205.935 94.9199C206.193 94.9199 206.399 95.0103 206.554 95.192C206.734 95.4253 206.825 95.6459 206.825 95.8538Z" fill="black"/>
<path d="M107.911 46.064C107.879 46.0206 107.766 45.9392 107.572 45.8199C107.378 45.7006 107.136 45.5758 106.846 45.4456C106.555 45.3154 106.237 45.2015 105.893 45.1039C105.548 45.0063 105.204 44.9574 104.859 44.9574C103.912 44.9574 103.438 45.2775 103.438 45.9175C103.438 46.1128 103.486 46.2755 103.583 46.4057C103.691 46.5359 103.842 46.6552 104.035 46.7637C104.24 46.8614 104.493 46.9536 104.794 47.0404C105.096 47.1272 105.446 47.2248 105.844 47.3333C106.393 47.4852 106.889 47.6533 107.33 47.8378C107.771 48.0113 108.143 48.2337 108.444 48.5049C108.757 48.7653 108.994 49.0853 109.155 49.4651C109.327 49.8448 109.413 50.3004 109.413 50.832C109.413 51.4829 109.29 52.0362 109.042 52.4918C108.805 52.9366 108.487 53.3001 108.089 53.5821C107.691 53.8533 107.233 54.054 106.716 54.1842C106.2 54.3036 105.667 54.3632 105.117 54.3632C104.698 54.3632 104.267 54.3307 103.825 54.2656C103.384 54.2005 102.953 54.1083 102.533 53.9889C102.113 53.8588 101.704 53.7069 101.306 53.5333C100.918 53.3597 100.558 53.159 100.224 52.9312L101.387 50.6042C101.43 50.6584 101.57 50.7615 101.807 50.9134C102.043 51.0652 102.334 51.2171 102.679 51.369C103.034 51.5209 103.427 51.6565 103.858 51.7758C104.288 51.8951 104.724 51.9548 105.166 51.9548C106.103 51.9548 106.571 51.6673 106.571 51.0924C106.571 50.8754 106.501 50.6964 106.361 50.5553C106.221 50.4143 106.027 50.2895 105.78 50.1811C105.532 50.0617 105.236 49.9532 104.891 49.8556C104.558 49.758 104.191 49.6495 103.793 49.5301C103.266 49.3674 102.808 49.1938 102.42 49.0094C102.033 48.8141 101.71 48.5917 101.451 48.3422C101.204 48.0927 101.015 47.8052 100.886 47.4797C100.768 47.1543 100.708 46.7746 100.708 46.3406C100.708 45.7331 100.821 45.1961 101.048 44.7296C101.274 44.2631 101.581 43.8726 101.968 43.558C102.356 43.2325 102.803 42.9884 103.309 42.8257C103.825 42.6629 104.369 42.5816 104.94 42.5816C105.338 42.5816 105.731 42.6196 106.119 42.6955C106.506 42.7714 106.878 42.8691 107.233 42.9884C107.588 43.1077 107.917 43.2433 108.218 43.3952C108.531 43.5471 108.816 43.699 109.074 43.8509L107.911 46.064ZM114.811 54.3958C114.101 54.3958 113.46 54.2819 112.889 54.054C112.329 53.8154 111.85 53.4953 111.452 53.0939C111.064 52.6925 110.768 52.2315 110.564 51.7107C110.359 51.1791 110.257 50.6259 110.257 50.0509C110.257 49.4325 110.359 48.8521 110.564 48.3097C110.768 47.7564 111.064 47.2736 111.452 46.8614C111.84 46.4491 112.313 46.1237 112.873 45.885C113.444 45.6463 114.09 45.527 114.811 45.527C115.533 45.527 116.173 45.6463 116.733 45.885C117.293 46.1237 117.767 46.4491 118.154 46.8614C118.542 47.2628 118.833 47.7293 119.027 48.2608C119.231 48.7924 119.333 49.3511 119.333 49.937C119.333 50.0889 119.328 50.2407 119.317 50.3926C119.306 50.5336 119.29 50.6584 119.269 50.7669H113.002C113.045 51.3419 113.25 51.7812 113.616 52.085C113.993 52.3779 114.418 52.5244 114.892 52.5244C115.269 52.5244 115.63 52.4322 115.974 52.2477C116.329 52.0633 116.566 51.8138 116.685 51.4992L118.881 52.1176C118.547 52.7902 118.031 53.338 117.331 53.7611C116.631 54.1842 115.791 54.3958 114.811 54.3958ZM116.604 49.1559C116.55 48.6134 116.356 48.1849 116.023 47.8703C115.689 47.5557 115.274 47.3984 114.779 47.3984C114.273 47.3984 113.853 47.5611 113.519 47.8866C113.196 48.2012 113.008 48.6243 112.954 49.1559H116.604ZM120.473 42.3538H123.057V51.19C123.057 51.8409 123.331 52.1664 123.881 52.1664C124.01 52.1664 124.15 52.1501 124.3 52.1176C124.462 52.0742 124.607 52.0145 124.737 51.9385L125.076 53.8913C124.753 54.0432 124.381 54.1625 123.961 54.2493C123.541 54.3361 123.148 54.3795 122.782 54.3795C122.039 54.3795 121.469 54.1842 121.07 53.7937C120.672 53.4031 120.473 52.839 120.473 52.1013V42.3538ZM129.968 54.3958C129.258 54.3958 128.617 54.2819 128.046 54.054C127.487 53.8154 127.007 53.4953 126.609 53.0939C126.221 52.6925 125.925 52.2315 125.721 51.7107C125.516 51.1791 125.414 50.6259 125.414 50.0509C125.414 49.4325 125.516 48.8521 125.721 48.3097C125.925 47.7564 126.221 47.2736 126.609 46.8614C126.997 46.4491 127.47 46.1237 128.03 45.885C128.601 45.6463 129.247 45.527 129.968 45.527C130.69 45.527 131.33 45.6463 131.89 45.885C132.45 46.1237 132.924 46.4491 133.311 46.8614C133.699 47.2628 133.99 47.7293 134.184 48.2608C134.388 48.7924 134.49 49.3511 134.49 49.937C134.49 50.0889 134.485 50.2407 134.474 50.3926C134.464 50.5336 134.447 50.6584 134.426 50.7669H128.16C128.203 51.3419 128.407 51.7812 128.773 52.085C129.15 52.3779 129.575 52.5244 130.049 52.5244C130.426 52.5244 130.787 52.4322 131.131 52.2477C131.487 52.0633 131.723 51.8138 131.842 51.4992L134.038 52.1176C133.704 52.7902 133.188 53.338 132.488 53.7611C131.788 54.1842 130.948 54.3958 129.968 54.3958ZM131.761 49.1559C131.707 48.6134 131.513 48.1849 131.18 47.8703C130.846 47.5557 130.431 47.3984 129.936 47.3984C129.43 47.3984 129.01 47.5611 128.676 47.8866C128.353 48.2012 128.165 48.6243 128.111 49.1559H131.761ZM135.161 49.9532C135.161 49.3674 135.263 48.8087 135.468 48.2771C135.672 47.7347 135.968 47.2628 136.356 46.8614C136.743 46.4491 137.217 46.1237 137.777 45.885C138.348 45.6463 138.994 45.527 139.715 45.527C140.695 45.527 141.519 45.7385 142.186 46.1616C142.854 46.5739 143.354 47.1163 143.688 47.7889L141.169 48.5538C140.835 48.0113 140.345 47.7401 139.699 47.7401C139.161 47.7401 138.708 47.9408 138.342 48.3422C137.987 48.7436 137.809 49.2806 137.809 49.9532C137.809 50.2895 137.858 50.5987 137.955 50.8808C138.052 51.152 138.186 51.3853 138.358 51.5805C138.531 51.7758 138.73 51.9277 138.956 52.0362C139.193 52.1447 139.441 52.1989 139.699 52.1989C140.022 52.1989 140.318 52.123 140.587 51.9711C140.856 51.8084 141.056 51.6022 141.185 51.3527L143.704 52.1338C143.392 52.7956 142.891 53.338 142.202 53.7611C141.524 54.1842 140.695 54.3958 139.715 54.3958C139.005 54.3958 138.364 54.2764 137.793 54.0378C137.233 53.7882 136.754 53.4628 136.356 53.0614C135.968 52.6491 135.672 52.1772 135.468 51.6456C135.263 51.1032 135.161 50.5391 135.161 49.9532ZM150.364 53.7774C150.008 53.9293 149.599 54.0703 149.136 54.2005C148.684 54.3307 148.226 54.3958 147.763 54.3958C147.44 54.3958 147.134 54.3524 146.843 54.2656C146.563 54.1896 146.315 54.0649 146.1 53.8913C145.885 53.7069 145.712 53.4682 145.583 53.1753C145.465 52.8824 145.405 52.5298 145.405 52.1176V47.6587H144.323V45.6897H145.405V42.9721H147.989V45.6897H149.718V47.6587H147.989V51.2225C147.989 51.5046 148.059 51.7107 148.199 51.8409C148.339 51.9602 148.517 52.0199 148.732 52.0199C148.926 52.0199 149.125 51.9874 149.33 51.9223C149.535 51.8572 149.712 51.7867 149.863 51.7107L150.364 53.7774ZM157.546 54.3958C157.126 54.3958 156.733 54.3307 156.367 54.2005C156.012 54.0595 155.705 53.8696 155.446 53.6309C155.188 53.3814 154.984 53.0939 154.833 52.7685C154.682 52.4322 154.607 52.0687 154.607 51.6782C154.607 51.2551 154.693 50.87 154.865 50.5228C155.048 50.1756 155.301 49.8773 155.624 49.6278C155.947 49.3783 156.329 49.183 156.771 49.042C157.212 48.9009 157.702 48.8304 158.24 48.8304C158.596 48.8304 158.94 48.863 159.274 48.928C159.608 48.9823 159.899 49.0691 160.146 49.1884V48.7979C160.146 47.8106 159.581 47.317 158.45 47.317C157.987 47.317 157.546 47.3984 157.126 47.5611C156.706 47.713 156.265 47.9462 155.802 48.2608L155.043 46.6336C155.603 46.2647 156.184 45.9881 156.787 45.8036C157.39 45.6192 158.031 45.527 158.709 45.527C159.99 45.527 160.981 45.8308 161.681 46.4383C162.38 47.0458 162.73 47.9354 162.73 49.107V51.3039C162.73 51.5643 162.768 51.7487 162.843 51.8572C162.929 51.9548 163.075 52.0145 163.279 52.0362V54.233C163.053 54.2873 162.849 54.3198 162.666 54.3307C162.483 54.3524 162.316 54.3632 162.165 54.3632C161.681 54.3632 161.314 54.271 161.067 54.0866C160.819 53.8913 160.663 53.6201 160.598 53.2729L160.55 52.8824C160.173 53.3706 159.721 53.7448 159.193 54.0052C158.677 54.2656 158.127 54.3958 157.546 54.3958ZM158.305 52.5244C158.585 52.5244 158.854 52.4756 159.113 52.3779C159.382 52.2803 159.603 52.1501 159.775 51.9874C160.022 51.7921 160.146 51.586 160.146 51.369V50.5553C159.92 50.4686 159.672 50.4035 159.403 50.3601C159.145 50.3058 158.903 50.2787 158.677 50.2787C158.203 50.2787 157.81 50.3872 157.498 50.6042C157.196 50.8211 157.045 51.1032 157.045 51.4504C157.045 51.765 157.164 52.0253 157.401 52.2315C157.638 52.4267 157.939 52.5244 158.305 52.5244ZM167.92 48.3585C167.92 47.6642 168.049 46.9753 168.308 46.2918C168.566 45.5975 168.943 44.9791 169.438 44.4367C169.933 43.8943 170.536 43.4549 171.247 43.1186C171.958 42.7823 172.765 42.6141 173.669 42.6141C174.746 42.6141 175.678 42.8474 176.463 43.3139C177.26 43.7804 177.852 44.3879 178.24 45.1364L176.205 46.5685C176.076 46.2647 175.909 46.0152 175.704 45.8199C175.511 45.6138 175.295 45.451 175.058 45.3317C174.822 45.2015 174.579 45.1147 174.332 45.0713C174.084 45.0171 173.842 44.99 173.605 44.99C173.099 44.99 172.657 45.093 172.281 45.2992C171.904 45.5053 171.591 45.7711 171.344 46.0965C171.096 46.422 170.913 46.7909 170.795 47.2031C170.676 47.6154 170.617 48.033 170.617 48.4561C170.617 48.9118 170.687 49.3511 170.827 49.7742C170.967 50.1973 171.166 50.5716 171.425 50.8971C171.694 51.2225 172.011 51.4829 172.377 51.6782C172.754 51.8626 173.174 51.9548 173.637 51.9548C173.874 51.9548 174.116 51.9277 174.364 51.8735C174.622 51.8084 174.865 51.7161 175.091 51.5968C175.328 51.4666 175.543 51.3039 175.737 51.1086C175.931 50.9025 176.087 50.653 176.205 50.3601L178.369 51.6456C178.197 52.0687 177.939 52.4484 177.594 52.7847C177.26 53.1211 176.873 53.4031 176.431 53.6309C175.99 53.8588 175.521 54.0323 175.026 54.1517C174.531 54.271 174.046 54.3307 173.573 54.3307C172.744 54.3307 171.979 54.1625 171.279 53.8262C170.59 53.4791 169.993 53.0234 169.487 52.4593C168.991 51.8952 168.604 51.2551 168.324 50.5391C168.055 49.8231 167.92 49.0962 167.92 48.3585ZM183.529 54.3958C182.808 54.3958 182.162 54.2764 181.591 54.0378C181.031 53.7991 180.558 53.4791 180.17 53.0777C179.782 52.6654 179.486 52.1935 179.282 51.6619C179.088 51.1195 178.991 50.5553 178.991 49.9695C178.991 49.3837 179.088 48.825 179.282 48.2934C179.486 47.751 179.782 47.279 180.17 46.8776C180.558 46.4654 181.031 46.1399 181.591 45.9013C182.162 45.6518 182.808 45.527 183.529 45.527C184.251 45.527 184.891 45.6518 185.451 45.9013C186.011 46.1399 186.485 46.4654 186.872 46.8776C187.26 47.279 187.556 47.751 187.761 48.2934C187.965 48.825 188.068 49.3837 188.068 49.9695C188.068 50.5553 187.965 51.1195 187.761 51.6619C187.567 52.1935 187.276 52.6654 186.889 53.0777C186.501 53.4791 186.022 53.7991 185.451 54.0378C184.891 54.2764 184.251 54.3958 183.529 54.3958ZM181.64 49.9695C181.64 50.6421 181.817 51.1846 182.173 51.5968C182.528 51.9982 182.98 52.1989 183.529 52.1989C183.798 52.1989 184.046 52.1447 184.272 52.0362C184.498 51.9277 184.692 51.7758 184.854 51.5805C185.026 51.3853 185.16 51.152 185.257 50.8808C185.354 50.5987 185.403 50.295 185.403 49.9695C185.403 49.2969 185.225 48.7599 184.87 48.3585C184.514 47.9462 184.068 47.7401 183.529 47.7401C183.26 47.7401 183.007 47.7944 182.77 47.9028C182.544 48.0113 182.345 48.1632 182.173 48.3585C182.011 48.5538 181.882 48.7924 181.785 49.0745C181.688 49.3457 181.64 49.6441 181.64 49.9695ZM191.917 54.3958C191.045 54.3958 190.382 54.1245 189.93 53.5821C189.489 53.0288 189.268 52.2206 189.268 51.1574V45.6897H191.852V50.5879C191.852 51.1086 191.954 51.51 192.159 51.7921C192.364 52.0633 192.654 52.1989 193.031 52.1989C193.376 52.1989 193.709 52.1067 194.032 51.9223C194.355 51.7378 194.641 51.4178 194.888 50.9622V45.6897H197.472V51.3039C197.472 51.5643 197.51 51.7487 197.585 51.8572C197.672 51.9548 197.817 52.0145 198.022 52.0362V54.233C197.774 54.2873 197.564 54.3198 197.392 54.3307C197.219 54.3524 197.063 54.3632 196.923 54.3632C195.997 54.3632 195.47 53.9998 195.341 53.2729L195.292 52.7522C194.905 53.3163 194.42 53.734 193.839 54.0052C193.268 54.2656 192.627 54.3958 191.917 54.3958ZM207.646 54.233H205.062V49.4325C205.062 48.8684 204.955 48.4615 204.739 48.212C204.535 47.9517 204.26 47.8215 203.916 47.8215C203.732 47.8215 203.549 47.8594 203.366 47.9354C203.183 48.0113 203.006 48.1198 202.833 48.2608C202.661 48.391 202.505 48.5483 202.365 48.7328C202.236 48.9172 202.134 49.1179 202.058 49.3349V54.233H199.474V45.6897H201.8V47.1217C202.112 46.6119 202.554 46.2213 203.124 45.9501C203.695 45.668 204.352 45.527 205.095 45.527C205.644 45.527 206.085 45.6301 206.419 45.8362C206.753 46.0315 207.011 46.2918 207.194 46.6173C207.377 46.9319 207.496 47.279 207.549 47.6587C207.614 48.0385 207.646 48.4073 207.646 48.7653V54.233ZM214.776 53.7774C214.42 53.9293 214.011 54.0703 213.548 54.2005C213.096 54.3307 212.639 54.3958 212.176 54.3958C211.853 54.3958 211.546 54.3524 211.255 54.2656C210.975 54.1896 210.727 54.0649 210.512 53.8913C210.297 53.7069 210.124 53.4682 209.995 53.1753C209.877 52.8824 209.818 52.5298 209.818 52.1176V47.6587H208.736V45.6897H209.818V42.9721H212.402V45.6897H214.13V47.6587H212.402V51.2225C212.402 51.5046 212.472 51.7107 212.612 51.8409C212.752 51.9602 212.929 52.0199 213.145 52.0199C213.338 52.0199 213.538 51.9874 213.742 51.9223C213.947 51.8572 214.124 51.7867 214.275 51.7107L214.776 53.7774ZM221.161 47.9191C220.536 47.93 219.971 48.033 219.465 48.2283C218.959 48.4236 218.593 48.7165 218.367 49.107V54.233H215.782V45.6897H218.157V47.4147C218.447 46.8397 218.819 46.3895 219.271 46.064C219.734 45.7385 220.224 45.5704 220.741 45.5595C220.859 45.5595 220.945 45.5595 220.999 45.5595C221.053 45.5595 221.107 45.565 221.161 45.5758V47.9191ZM222.313 55.5186C222.529 55.5945 222.728 55.6488 222.911 55.6813C223.105 55.7139 223.277 55.7301 223.428 55.7301C223.74 55.7301 223.982 55.6217 224.155 55.4047C224.327 55.1877 224.483 54.7972 224.623 54.233L221.393 45.6897H224.058L226.028 52.0036L227.724 45.6897H230.146L226.916 55.6162C226.69 56.3214 226.286 56.891 225.705 57.3249C225.124 57.7697 224.435 57.9921 223.638 57.9921C223.422 57.9921 223.202 57.9704 222.976 57.927C222.76 57.8945 222.54 57.8348 222.313 57.748V55.5186Z" fill="white"/>
<path d="M87.426 157.085C86.474 157.085 85.6693 156.915 85.012 156.575C84.3547 156.235 83.8333 155.782 83.448 155.215C83.0627 154.637 82.7793 153.985 82.598 153.26C82.428 152.535 82.343 151.787 82.343 151.016V144.93H83.516V151.016C83.516 151.639 83.5783 152.251 83.703 152.852C83.839 153.453 84.0543 153.991 84.349 154.467C84.6437 154.943 85.0403 155.323 85.539 155.606C86.0377 155.878 86.661 156.014 87.409 156.014C88.1797 156.014 88.8143 155.872 89.313 155.589C89.823 155.294 90.2197 154.909 90.503 154.433C90.7977 153.957 91.0073 153.424 91.132 152.835C91.2567 152.234 91.319 151.628 91.319 151.016V144.93H92.509V151.016C92.509 151.821 92.4183 152.591 92.237 153.328C92.0557 154.065 91.761 154.711 91.353 155.266C90.9563 155.821 90.435 156.263 89.789 156.592C89.143 156.921 88.3553 157.085 87.426 157.085ZM95.346 157V144.93H100.446C100.967 144.93 101.443 145.038 101.874 145.253C102.305 145.468 102.679 145.763 102.996 146.137C103.325 146.5 103.574 146.908 103.744 147.361C103.925 147.803 104.016 148.256 104.016 148.721C104.016 149.299 103.903 149.843 103.676 150.353C103.461 150.863 103.149 151.294 102.741 151.645C102.344 151.996 101.874 152.229 101.33 152.342L104.288 157H102.945L100.106 152.546H96.536V157H95.346ZM96.536 151.492H100.48C100.956 151.492 101.37 151.362 101.721 151.101C102.072 150.84 102.344 150.5 102.537 150.081C102.73 149.65 102.826 149.197 102.826 148.721C102.826 148.234 102.713 147.786 102.486 147.378C102.271 146.959 101.976 146.624 101.602 146.375C101.239 146.114 100.831 145.984 100.378 145.984H96.536V151.492ZM106.452 157V144.93H107.642V155.946H114.612V157H106.452ZM115.956 149.86V148.194H116.942V149.86H115.956ZM115.956 157V155.334H116.942V157H115.956ZM132.01 155.946V157H123.901V144.93H131.857V145.984H125.091V150.336H130.99V151.339H125.091V155.946H132.01ZM134.294 148.143L136.895 151.611L137.031 151.866L137.167 151.611L139.751 148.143H141.06L137.694 152.597L141.06 157H139.751L137.167 153.549L137.031 153.311L136.895 153.549L134.311 157H133.002L136.351 152.597L133.002 148.143H134.294ZM141.791 154.45C141.791 153.895 141.95 153.419 142.267 153.022C142.585 152.614 143.021 152.302 143.576 152.087C144.143 151.86 144.795 151.747 145.531 151.747C145.962 151.747 146.41 151.781 146.874 151.849C147.339 151.917 147.753 152.019 148.115 152.155V151.407C148.115 150.659 147.894 150.064 147.452 149.622C147.01 149.18 146.398 148.959 145.616 148.959C145.14 148.959 144.67 149.05 144.205 149.231C143.752 149.401 143.276 149.656 142.777 149.996L142.335 149.18C142.913 148.783 143.48 148.489 144.035 148.296C144.591 148.092 145.157 147.99 145.735 147.99C146.823 147.99 147.685 148.302 148.319 148.925C148.954 149.548 149.271 150.41 149.271 151.509V155.606C149.271 155.765 149.305 155.884 149.373 155.963C149.441 156.031 149.549 156.071 149.696 156.082V157C149.572 157.011 149.464 157.023 149.373 157.034C149.283 157.045 149.215 157.045 149.169 157.034C148.886 157.023 148.671 156.932 148.523 156.762C148.376 156.592 148.297 156.411 148.285 156.218L148.268 155.572C147.872 156.082 147.356 156.479 146.721 156.762C146.087 157.034 145.441 157.17 144.783 157.17C144.217 157.17 143.701 157.051 143.236 156.813C142.783 156.564 142.426 156.235 142.165 155.827C141.916 155.408 141.791 154.949 141.791 154.45ZM147.724 155.13C147.849 154.971 147.945 154.818 148.013 154.671C148.081 154.524 148.115 154.393 148.115 154.28V152.988C147.73 152.841 147.328 152.727 146.908 152.648C146.5 152.569 146.087 152.529 145.667 152.529C144.84 152.529 144.171 152.693 143.661 153.022C143.151 153.351 142.896 153.798 142.896 154.365C142.896 154.694 142.981 155.005 143.151 155.3C143.321 155.583 143.571 155.821 143.899 156.014C144.228 156.195 144.613 156.286 145.055 156.286C145.611 156.286 146.126 156.178 146.602 155.963C147.09 155.748 147.464 155.47 147.724 155.13ZM164.944 157H163.788V152.053C163.788 151.022 163.624 150.262 163.295 149.775C162.966 149.288 162.479 149.044 161.833 149.044C161.164 149.044 160.564 149.282 160.031 149.758C159.51 150.234 159.141 150.846 158.926 151.594V157H157.77V152.053C157.77 151.01 157.611 150.251 157.294 149.775C156.977 149.288 156.489 149.044 155.832 149.044C155.175 149.044 154.58 149.276 154.047 149.741C153.514 150.206 153.14 150.818 152.925 151.577V157H151.769V148.143H152.823V150.149C153.197 149.458 153.673 148.925 154.251 148.551C154.84 148.177 155.492 147.99 156.206 147.99C156.943 147.99 157.538 148.2 157.991 148.619C158.444 149.038 158.722 149.588 158.824 150.268C159.232 149.52 159.719 148.953 160.286 148.568C160.864 148.183 161.516 147.99 162.241 147.99C162.74 147.99 163.159 148.081 163.499 148.262C163.85 148.443 164.128 148.704 164.332 149.044C164.547 149.373 164.7 149.775 164.791 150.251C164.893 150.716 164.944 151.237 164.944 151.815V157ZM171.913 157.17C171.177 157.17 170.514 156.977 169.924 156.592C169.346 156.207 168.887 155.731 168.547 155.164V160.621H167.391V148.143H168.428V149.86C168.78 149.305 169.25 148.857 169.839 148.517C170.429 148.166 171.058 147.99 171.726 147.99C172.338 147.99 172.899 148.12 173.409 148.381C173.919 148.63 174.361 148.97 174.735 149.401C175.109 149.832 175.398 150.325 175.602 150.88C175.818 151.424 175.925 151.991 175.925 152.58C175.925 153.407 175.755 154.172 175.415 154.875C175.087 155.566 174.622 156.122 174.021 156.541C173.421 156.96 172.718 157.17 171.913 157.17ZM171.59 156.15C172.078 156.15 172.514 156.054 172.899 155.861C173.285 155.657 173.613 155.385 173.885 155.045C174.169 154.705 174.384 154.325 174.531 153.906C174.679 153.475 174.752 153.033 174.752 152.58C174.752 152.104 174.667 151.651 174.497 151.22C174.339 150.789 174.106 150.41 173.8 150.081C173.494 149.752 173.143 149.492 172.746 149.299C172.35 149.106 171.919 149.01 171.454 149.01C171.16 149.01 170.854 149.067 170.536 149.18C170.219 149.293 169.913 149.458 169.618 149.673C169.335 149.877 169.097 150.109 168.904 150.37C168.712 150.631 168.593 150.908 168.547 151.203V153.923C168.729 154.342 168.972 154.722 169.278 155.062C169.584 155.391 169.936 155.657 170.332 155.861C170.74 156.054 171.16 156.15 171.59 156.15ZM177.934 144.59H179.09V154.994C179.09 155.436 179.17 155.725 179.328 155.861C179.487 155.997 179.68 156.065 179.906 156.065C180.11 156.065 180.314 156.042 180.518 155.997C180.722 155.952 180.898 155.906 181.045 155.861L181.249 156.796C181.034 156.887 180.768 156.96 180.45 157.017C180.144 157.074 179.878 157.102 179.651 157.102C179.13 157.102 178.711 156.949 178.393 156.643C178.087 156.337 177.934 155.918 177.934 155.385V144.59ZM186.34 157.17C185.706 157.17 185.116 157.051 184.572 156.813C184.028 156.564 183.558 156.229 183.161 155.81C182.765 155.379 182.453 154.886 182.226 154.331C182.011 153.776 181.903 153.181 181.903 152.546C181.903 151.719 182.09 150.959 182.464 150.268C182.85 149.577 183.377 149.027 184.045 148.619C184.714 148.2 185.473 147.99 186.323 147.99C187.196 147.99 187.955 148.2 188.601 148.619C189.259 149.038 189.774 149.594 190.148 150.285C190.522 150.965 190.709 151.713 190.709 152.529C190.709 152.62 190.709 152.71 190.709 152.801C190.709 152.88 190.704 152.943 190.692 152.988H183.11C183.167 153.623 183.343 154.189 183.637 154.688C183.943 155.175 184.334 155.566 184.81 155.861C185.298 156.144 185.825 156.286 186.391 156.286C186.969 156.286 187.513 156.139 188.023 155.844C188.545 155.549 188.907 155.164 189.111 154.688L190.114 154.96C189.933 155.379 189.655 155.759 189.281 156.099C188.907 156.439 188.465 156.705 187.955 156.898C187.457 157.079 186.918 157.17 186.34 157.17ZM183.076 152.155H189.621C189.576 151.509 189.4 150.942 189.094 150.455C188.8 149.968 188.409 149.588 187.921 149.316C187.445 149.033 186.918 148.891 186.34 148.891C185.762 148.891 185.235 149.033 184.759 149.316C184.283 149.588 183.892 149.973 183.586 150.472C183.292 150.959 183.122 151.52 183.076 152.155ZM192.323 157V155.334H193.326V157H192.323ZM199.223 157.17C198.577 157.17 197.982 157.051 197.438 156.813C196.906 156.564 196.435 156.224 196.027 155.793C195.631 155.362 195.319 154.869 195.092 154.314C194.877 153.759 194.769 153.169 194.769 152.546C194.769 151.707 194.956 150.942 195.33 150.251C195.704 149.56 196.226 149.01 196.894 148.602C197.563 148.194 198.334 147.99 199.206 147.99C200.034 147.99 200.765 148.183 201.399 148.568C202.034 148.942 202.504 149.452 202.81 150.098L201.688 150.455C201.439 150.002 201.088 149.65 200.634 149.401C200.192 149.14 199.699 149.01 199.155 149.01C198.566 149.01 198.028 149.163 197.54 149.469C197.053 149.775 196.662 150.194 196.367 150.727C196.084 151.26 195.942 151.866 195.942 152.546C195.942 153.215 196.09 153.821 196.384 154.365C196.679 154.909 197.07 155.345 197.557 155.674C198.045 155.991 198.583 156.15 199.172 156.15C199.558 156.15 199.926 156.082 200.277 155.946C200.64 155.81 200.952 155.629 201.212 155.402C201.484 155.164 201.666 154.909 201.756 154.637L202.895 154.977C202.737 155.396 202.47 155.776 202.096 156.116C201.734 156.445 201.303 156.705 200.804 156.898C200.317 157.079 199.79 157.17 199.223 157.17ZM208.403 157.17C207.768 157.17 207.179 157.051 206.635 156.813C206.102 156.564 205.637 156.229 205.241 155.81C204.855 155.379 204.555 154.892 204.34 154.348C204.124 153.793 204.017 153.209 204.017 152.597C204.017 151.962 204.124 151.373 204.34 150.829C204.555 150.274 204.861 149.786 205.258 149.367C205.654 148.936 206.119 148.602 206.652 148.364C207.196 148.115 207.785 147.99 208.42 147.99C209.054 147.99 209.638 148.115 210.171 148.364C210.703 148.602 211.168 148.936 211.565 149.367C211.961 149.786 212.267 150.274 212.483 150.829C212.698 151.373 212.806 151.962 212.806 152.597C212.806 153.209 212.698 153.793 212.483 154.348C212.267 154.892 211.961 155.379 211.565 155.81C211.179 156.229 210.715 156.564 210.171 156.813C209.638 157.051 209.049 157.17 208.403 157.17ZM205.19 152.614C205.19 153.271 205.331 153.872 205.615 154.416C205.909 154.949 206.3 155.374 206.788 155.691C207.275 155.997 207.813 156.15 208.403 156.15C208.992 156.15 209.53 155.991 210.018 155.674C210.505 155.357 210.896 154.926 211.191 154.382C211.485 153.827 211.633 153.226 211.633 152.58C211.633 151.923 211.485 151.322 211.191 150.778C210.896 150.234 210.505 149.803 210.018 149.486C209.53 149.169 208.992 149.01 208.403 149.01C207.813 149.01 207.275 149.174 206.788 149.503C206.312 149.832 205.926 150.268 205.632 150.812C205.337 151.345 205.19 151.945 205.19 152.614ZM227.914 157H226.758V152.053C226.758 151.022 226.594 150.262 226.265 149.775C225.936 149.288 225.449 149.044 224.803 149.044C224.134 149.044 223.534 149.282 223.001 149.758C222.48 150.234 222.111 150.846 221.896 151.594V157H220.74V152.053C220.74 151.01 220.581 150.251 220.264 149.775C219.947 149.288 219.459 149.044 218.802 149.044C218.145 149.044 217.55 149.276 217.017 149.741C216.484 150.206 216.11 150.818 215.895 151.577V157H214.739V148.143H215.793V150.149C216.167 149.458 216.643 148.925 217.221 148.551C217.81 148.177 218.462 147.99 219.176 147.99C219.913 147.99 220.508 148.2 220.961 148.619C221.414 149.038 221.692 149.588 221.794 150.268C222.202 149.52 222.689 148.953 223.256 148.568C223.834 148.183 224.486 147.99 225.211 147.99C225.71 147.99 226.129 148.081 226.469 148.262C226.82 148.443 227.098 148.704 227.302 149.044C227.517 149.373 227.67 149.775 227.761 150.251C227.863 150.716 227.914 151.237 227.914 151.815V157ZM238.878 144.93L230.854 157H229.545L237.569 144.93H238.878ZM239.229 152.597C239.229 151.758 239.399 150.993 239.739 150.302C240.09 149.599 240.572 149.038 241.184 148.619C241.796 148.2 242.493 147.99 243.275 147.99C244.011 147.99 244.669 148.188 245.247 148.585C245.836 148.97 246.295 149.441 246.624 149.996V144.59H247.78V155.606C247.78 155.765 247.814 155.884 247.882 155.963C247.95 156.031 248.052 156.071 248.188 156.082V157C247.961 157.034 247.785 157.045 247.661 157.034C247.423 157.023 247.213 156.926 247.032 156.745C246.85 156.564 246.76 156.365 246.76 156.15V155.283C246.408 155.861 245.932 156.32 245.332 156.66C244.731 157 244.108 157.17 243.462 157.17C242.85 157.17 242.283 157.045 241.762 156.796C241.252 156.547 240.804 156.207 240.419 155.776C240.045 155.345 239.75 154.858 239.535 154.314C239.331 153.759 239.229 153.186 239.229 152.597ZM246.624 153.957V151.22C246.476 150.812 246.238 150.444 245.91 150.115C245.581 149.775 245.207 149.509 244.788 149.316C244.38 149.112 243.972 149.01 243.564 149.01C243.088 149.01 242.657 149.112 242.272 149.316C241.886 149.509 241.552 149.775 241.269 150.115C240.997 150.455 240.787 150.84 240.64 151.271C240.492 151.702 240.419 152.144 240.419 152.597C240.419 153.073 240.498 153.526 240.657 153.957C240.827 154.388 241.065 154.773 241.371 155.113C241.677 155.442 242.028 155.697 242.425 155.878C242.821 156.059 243.252 156.15 243.717 156.15C244.011 156.15 244.317 156.093 244.635 155.98C244.952 155.867 245.252 155.714 245.536 155.521C245.83 155.317 246.074 155.079 246.267 154.807C246.459 154.535 246.578 154.252 246.624 153.957ZM249.685 154.45C249.685 153.895 249.844 153.419 250.161 153.022C250.478 152.614 250.915 152.302 251.47 152.087C252.037 151.86 252.688 151.747 253.425 151.747C253.856 151.747 254.303 151.781 254.768 151.849C255.233 151.917 255.646 152.019 256.009 152.155V151.407C256.009 150.659 255.788 150.064 255.346 149.622C254.904 149.18 254.292 148.959 253.51 148.959C253.034 148.959 252.564 149.05 252.099 149.231C251.646 149.401 251.17 149.656 250.671 149.996L250.229 149.18C250.807 148.783 251.374 148.489 251.929 148.296C252.484 148.092 253.051 147.99 253.629 147.99C254.717 147.99 255.578 148.302 256.213 148.925C256.848 149.548 257.165 150.41 257.165 151.509V155.606C257.165 155.765 257.199 155.884 257.267 155.963C257.335 156.031 257.443 156.071 257.59 156.082V157C257.465 157.011 257.358 157.023 257.267 157.034C257.176 157.045 257.108 157.045 257.063 157.034C256.78 157.023 256.564 156.932 256.417 156.762C256.27 156.592 256.19 156.411 256.179 156.218L256.162 155.572C255.765 156.082 255.25 156.479 254.615 156.762C253.98 157.034 253.334 157.17 252.677 157.17C252.11 157.17 251.595 157.051 251.13 156.813C250.677 156.564 250.32 156.235 250.059 155.827C249.81 155.408 249.685 154.949 249.685 154.45ZM255.618 155.13C255.743 154.971 255.839 154.818 255.907 154.671C255.975 154.524 256.009 154.393 256.009 154.28V152.988C255.624 152.841 255.221 152.727 254.802 152.648C254.394 152.569 253.98 152.529 253.561 152.529C252.734 152.529 252.065 152.693 251.555 153.022C251.045 153.351 250.79 153.798 250.79 154.365C250.79 154.694 250.875 155.005 251.045 155.3C251.215 155.583 251.464 155.821 251.793 156.014C252.122 156.195 252.507 156.286 252.949 156.286C253.504 156.286 254.02 156.178 254.496 155.963C254.983 155.748 255.357 155.47 255.618 155.13ZM263.846 156.575C263.756 156.609 263.614 156.671 263.421 156.762C263.229 156.853 262.996 156.932 262.724 157C262.452 157.068 262.158 157.102 261.84 157.102C261.512 157.102 261.2 157.04 260.905 156.915C260.622 156.79 260.395 156.603 260.225 156.354C260.055 156.093 259.97 155.776 259.97 155.402V149.061H258.746V148.143H259.97V145.151H261.126V148.143H263.166V149.061H261.126V155.079C261.149 155.396 261.262 155.634 261.466 155.793C261.682 155.952 261.925 156.031 262.197 156.031C262.515 156.031 262.804 155.98 263.064 155.878C263.325 155.765 263.484 155.685 263.54 155.64L263.846 156.575ZM264.577 154.45C264.577 153.895 264.735 153.419 265.053 153.022C265.37 152.614 265.806 152.302 266.362 152.087C266.928 151.86 267.58 151.747 268.317 151.747C268.747 151.747 269.195 151.781 269.66 151.849C270.124 151.917 270.538 152.019 270.901 152.155V151.407C270.901 150.659 270.68 150.064 270.238 149.622C269.796 149.18 269.184 148.959 268.402 148.959C267.926 148.959 267.455 149.05 266.991 149.231C266.537 149.401 266.061 149.656 265.563 149.996L265.121 149.18C265.699 148.783 266.265 148.489 266.821 148.296C267.376 148.092 267.943 147.99 268.521 147.99C269.609 147.99 270.47 148.302 271.105 148.925C271.739 149.548 272.057 150.41 272.057 151.509V155.606C272.057 155.765 272.091 155.884 272.159 155.963C272.227 156.031 272.334 156.071 272.482 156.082V157C272.357 157.011 272.249 157.023 272.159 157.034C272.068 157.045 272 157.045 271.955 157.034C271.671 157.023 271.456 156.932 271.309 156.762C271.161 156.592 271.082 156.411 271.071 156.218L271.054 155.572C270.657 156.082 270.141 156.479 269.507 156.762C268.872 157.034 268.226 157.17 267.569 157.17C267.002 157.17 266.486 157.051 266.022 156.813C265.568 156.564 265.211 156.235 264.951 155.827C264.701 155.408 264.577 154.949 264.577 154.45ZM270.51 155.13C270.634 154.971 270.731 154.818 270.799 154.671C270.867 154.524 270.901 154.393 270.901 154.28V152.988C270.515 152.841 270.113 152.727 269.694 152.648C269.286 152.569 268.872 152.529 268.453 152.529C267.625 152.529 266.957 152.693 266.447 153.022C265.937 153.351 265.682 153.798 265.682 154.365C265.682 154.694 265.767 155.005 265.937 155.3C266.107 155.583 266.356 155.821 266.685 156.014C267.013 156.195 267.399 156.286 267.841 156.286C268.396 156.286 268.912 156.178 269.388 155.963C269.875 155.748 270.249 155.47 270.51 155.13Z" fill="white"/>
</g>
<defs>
<filter id="filter0_d_304_1987" x="-18" y="17.7483" width="367.777" height="227.967" filterUnits="userSpaceOnUse" color-interpolation-filters="sRGB">
<feFlood flood-opacity="0" result="BackgroundImageFix"/>
<feColorMatrix in="SourceAlpha" type="matrix" values="0 0 0 0 0 0 0 0 0 0 0 0 0 0 0 0 0 0 127 0" result="hardAlpha"/>
<feOffset dy="2"/>
<feGaussianBlur stdDeviation="1.5"/>
<feColorMatrix type="matrix" values="0 0 0 0 0 0 0 0 0 0 0 0 0 0 0 0 0 0 0.15 0"/>
<feBlend mode="normal" in2="BackgroundImageFix" result="effect1_dropShadow_304_1987"/>
<feBlend mode="normal" in="SourceGraphic" in2="effect1_dropShadow_304_1987" result="shape"/>
</filter>
<clipPath id="clip0_304_1987">
<rect width="366" height="241" fill="white"/>
</clipPath>
</defs>
</svg>
