<?xml version="1.0" encoding="UTF-8"?>
<svg width="199px" height="116px" viewBox="0 0 199 116" version="1.1" xmlns="http://www.w3.org/2000/svg" xmlns:xlink="http://www.w3.org/1999/xlink">
    <!-- Generator: Sketch 54.1 (76490) - https://sketchapp.com -->
    <title>UC_AdVar</title>
    <desc>Created with Sketch.</desc>
    <defs>
        <polygon id="path-1" points="0 193 198.551206 193 198.551206 0.596418773 0 0.596418773"></polygon>
        <polygon id="path-3" points="0 193 198.551206 193 198.551206 0.596418773 0 0.596418773"></polygon>
        <polygon id="path-5" points="0 193 198.551206 193 198.551206 0.596418773 0 0.596418773"></polygon>
        <polygon id="path-7" points="0 193 198.551206 193 198.551206 0.596418773 0 0.596418773"></polygon>
        <polygon id="path-9" points="0 193 198.551206 193 198.551206 0.596418773 0 0.596418773"></polygon>
        <polygon id="path-11" points="0 193 198.551206 193 198.551206 0.596418773 0 0.596418773"></polygon>
        <polygon id="path-13" points="0 193 198.551206 193 198.551206 0.596418773 0 0.596418773"></polygon>
        <polygon id="path-15" points="0 193 198.551206 193 198.551206 0.596418773 0 0.596418773"></polygon>
        <polygon id="path-17" points="0 193 198.551206 193 198.551206 0.596418773 0 0.596418773"></polygon>
        <polygon id="path-19" points="0 193 198.551206 193 198.551206 0.596418773 0 0.596418773"></polygon>
        <polygon id="path-21" points="0 193 198.551206 193 198.551206 0.596418773 0 0.596418773"></polygon>
        <polygon id="path-23" points="0 193 198.551206 193 198.551206 0.596418773 0 0.596418773"></polygon>
        <polygon id="path-25" points="0 114 193 114 193 0 0 0"></polygon>
        <path d="M1.9599633,0.217972603 C1.19229358,0.217972603 0.56546789,0.846739726 0.56546789,1.61523288 L0.56546789,1.61523288 L0.56546789,49.5622192 C0.56546789,50.3300137 1.19229358,50.9594795 1.9599633,50.9594795 L1.9599633,50.9594795 L74.2220183,50.9594795 C74.9889908,50.9594795 75.6165138,50.3300137 75.6165138,49.5622192 L75.6165138,49.5622192 L75.6165138,1.61523288 C75.6165138,0.846739726 74.9889908,0.217972603 74.2220183,0.217972603 L74.2220183,0.217972603 L1.9599633,0.217972603 Z" id="path-27"></path>
        <linearGradient x1="50.0001496%" y1="100.000175%" x2="50.0001496%" y2="0.000483546744%" id="linearGradient-29">
            <stop stop-color="#0079AA" offset="0%"></stop>
            <stop stop-color="#0297DD" offset="100%"></stop>
        </linearGradient>
    </defs>
    <g id="Page-1" stroke="none" stroke-width="1" fill="none" fill-rule="evenodd">
        <g id="UC_AdVar" transform="translate(0.000000, -77.000000)">
            <g id="Group-18">
                <path d="M185.324247,185.308288 L13.2268203,185.308288 C11.6633483,185.308288 10.3948972,184.038808 10.3948972,182.473209 L10.3948972,80.4988368 C10.3948972,78.9325408 11.6633483,77.6623639 13.2268203,77.6623639 L185.324247,77.6623639 C186.888415,77.6623639 188.15617,78.9325408 188.15617,80.4988368 L188.15617,182.473209 C188.15617,184.038808 186.888415,185.308288 185.324247,185.308288" id="Fill-1" fill="#FFFFFF" fill-rule="nonzero"></path>
                <g id="Fill-3-Clipped">
                    <mask id="mask-2" fill="white">
                        <use xlink:href="#path-1"></use>
                    </mask>
                    <g id="path-1"></g>
                    <polygon id="Fill-3" fill="#EFEFEF" fill-rule="nonzero" mask="url(#mask-2)" points="15.1678357 185.308567 182.655559 185.308567 182.655559 82.3810397 15.1678357 82.3810397"></polygon>
                </g>
                <g id="Fill-5-Clipped">
                    <mask id="mask-4" fill="white">
                        <use xlink:href="#path-3"></use>
                    </mask>
                    <g id="path-1"></g>
                    <path d="M193.140146,192.999791 L5.41078217,192.999791 C2.42230315,192.999791 0.000208741259,190.574401 0.000208741259,187.581856 L0.000208741259,179.966369 L198.551415,179.966369 L198.551415,187.581856 C198.551415,190.574401 196.128625,192.999791 193.140146,192.999791" id="Fill-5" fill="#FFFFFF" fill-rule="nonzero" mask="url(#mask-4)"></path>
                </g>
                <g id="Fill-6-Clipped">
                    <mask id="mask-6" fill="white">
                        <use xlink:href="#path-5"></use>
                    </mask>
                    <g id="path-1"></g>
                    <path d="M123.560074,185.308288 L74.9908538,185.308288 C73.1984622,185.308288 71.7449273,183.852775 71.7449273,182.057945 L71.7449273,179.966299 L126.806697,179.966299 L126.806697,182.057945 C126.806697,183.852775 125.353162,185.308288 123.560074,185.308288" id="Fill-6" fill="#D8D8D8" fill-rule="nonzero" mask="url(#mask-6)"></path>
                </g>
                <g id="Fill-7-Clipped">
                    <mask id="mask-8" fill="white">
                        <use xlink:href="#path-7"></use>
                    </mask>
                    <g id="path-1"></g>
                    <path d="M97.1392059,81.3090188 C97.0264857,85.887369 96.0008703,96.2668671 97.4926745,100.693326 C98.9754332,105.114907 100.991178,110.728629 103.144692,113.429932 C105.293335,116.128448 106.350262,119.386456 105.863199,120.79877 C105.37057,122.206206 102.652758,124.129936 101.852584,123.931362 C101.052409,123.731394 94.4213948,113.450138 91.8517899,109.613827 C89.2773143,105.777517 85.3230591,87.7567516 86.6715276,82.3924664 C88.020692,77.026091 97.1392059,81.3090188 97.1392059,81.3090188" id="Fill-7" fill="#FFDAB7" fill-rule="nonzero" mask="url(#mask-8)"></path>
                </g>
                <g id="Fill-8-Clipped">
                    <mask id="mask-10" fill="white">
                        <use xlink:href="#path-9"></use>
                    </mask>
                    <g id="path-1"></g>
                    <path d="M97.1392059,81.3090188 C97.0264857,85.887369 96.0008703,96.2668671 97.4926745,100.693326 C98.9754332,105.114907 94.4213948,113.450138 91.8517899,109.613827 C89.2773143,105.777517 85.3230591,87.7567516 86.6715276,82.3924664 C88.020692,77.026091 97.1392059,81.3090188 97.1392059,81.3090188" id="Fill-8" fill="#F0BD89" fill-rule="nonzero" mask="url(#mask-10)"></path>
                </g>
                <g id="Fill-9-Clipped">
                    <mask id="mask-12" fill="white">
                        <use xlink:href="#path-11"></use>
                    </mask>
                    <g id="path-1"></g>
                    <path d="M103.093272,95.9789 C104.365202,98.669752 106.431741,101.71525 107.021783,102.331875 C108.340331,101.905463 114.171171,103.235561 115.674108,105.389914 C116.98709,107.269748 116.114552,108.874366 115.032576,109.660301 C113.956167,110.446236 102.749545,109.782929 101.000989,107.708005 C99.2468664,105.638655 94.0979154,96.8003693 94.0979154,96.8003693 L103.093272,95.9789 Z" id="Fill-9" fill="#FFDAB7" fill-rule="nonzero" mask="url(#mask-12)"></path>
                </g>
                <g id="Fill-10-Clipped">
                    <mask id="mask-14" fill="white">
                        <use xlink:href="#path-13"></use>
                    </mask>
                    <g id="path-1"></g>
                    <path d="M77.6194731,82.9045811 C78.814272,92.7318394 78.572829,92.6294291 79.1807958,96.5058142 C79.7929893,100.382898 90.0741776,122.622837 90.9568918,124.944054 C91.8346744,127.264573 96.7209512,123.839012 96.5596252,118.810056 C96.3933678,113.782497 94.5138138,108.870266 93.5324724,107.394081 C93.4859768,105.497826 92.6236926,97.1166978 91.092152,94.7647259 C91.8191759,93.1704176 92.2242521,88.6880414 91.5077955,87.0909372 C93.6571655,86.143159 96.5596252,84.3859949 98.4391792,84.9919859 C100.319437,85.5972778 102.676629,95.7097084 108.144102,93.9329736 C113.648209,90.0845465 120.623318,86.3968177 123.619473,82.6853851" id="Path" fill="#FFDAB7" fill-rule="nonzero" mask="url(#mask-14)"></path>
                </g>
                <g id="Fill-11-Clipped">
                    <mask id="mask-16" fill="white">
                        <use xlink:href="#path-15"></use>
                    </mask>
                    <g id="path-1"></g>
                    <path d="M108.683502,93.7035903 C114.238107,91.0747491 126.31031,82.0357996 129.028817,78.6356552" id="Path" fill="#F0BD89" fill-rule="nonzero" mask="url(#mask-16)"></path>
                </g>
                <g id="Fill-12-Clipped">
                    <mask id="mask-18" fill="white">
                        <use xlink:href="#path-17"></use>
                    </mask>
                    <g id="path-1"></g>
                    <path d="M97.112952,82.5956676 C96.8797768,86.0796132 94.7691879,90.7900179 93.3990196,93.6310845 C92.0225112,96.4748467 88.62703,101.82678 87.3442145,105.59645 C86.0613988,109.366793 85.7450977,116.394659 86.2797804,118.261974 C86.814463,120.134679 91.1975925,123.084913 94.084456,120.710844 C96.970615,118.329361 102.064541,103.91243 103.066983,101.714917 C104.068721,99.5221198 121.049962,85.0735093 123.962891,83.0195312 C126.746199,81.0598961 103.008749,82.7571392 103.008749,82.7571392" id="Fill-12" fill="#F0BD89" fill-rule="nonzero" mask="url(#mask-18)"></path>
                </g>
                <g id="Fill-13-Clipped">
                    <mask id="mask-20" fill="white">
                        <use xlink:href="#path-19"></use>
                    </mask>
                    <g id="path-1"></g>
                    <path d="M107.273177,102.568143 C106.442386,103.36871 105.57611,104.293298 105.19133,105.446421 C105.360411,104.211082 106.031862,103.122757 106.765935,102.092959 L107.273177,102.568143 Z" id="Fill-13" fill="#F0BD89" fill-rule="nonzero" mask="url(#mask-20)"></path>
                </g>
                <g id="Fill-14-Clipped">
                    <mask id="mask-22" fill="white">
                        <use xlink:href="#path-21"></use>
                    </mask>
                    <g id="path-1"></g>
                    <path d="M85.8306483,79.9250625 C88.1490678,81.3631563 90.1536797,83.1503224 91.8417007,85.2921347 C89.5232811,83.8540408 87.5235399,82.0640877 85.8306483,79.9250625" id="Fill-14" fill="#F0BD89" fill-rule="nonzero" mask="url(#mask-22)"></path>
                </g>
                <g id="Fill-15-Clipped">
                    <mask id="mask-24" fill="white">
                        <use xlink:href="#path-23"></use>
                    </mask>
                    <g id="path-1"></g>
                    <path d="M85.1589885,84.5726697 C87.5748206,85.0171968 89.8257472,85.8930126 91.9027227,87.2126588 C89.4875864,86.7737058 87.235964,85.8902256 85.1589885,84.5726697" id="Fill-15" fill="#F0BD89" fill-rule="nonzero" mask="url(#mask-24)"></path>
                </g>
                <g id="Fill-16-Clipped" transform="translate(85.000000, 0.000000)">
                    <path d="M113.551206,193 L113.551206,0.596418773" id="Path"></path>
                    <path d="M6.8517203,95.3624845 C4.7949231,95.0545206 2.7075105,94.7514339 0.8309266,93.8630765 C2.7791783,94.5333509 4.8721573,94.594665 6.8927727,94.6643401 L6.8517203,95.3624845 Z" id="Fill-16" fill="#F0BD89" fill-rule="nonzero"></path>
                </g>
                <g id="Fill-17-Clipped" transform="translate(0.000000, 79.000000)">
                    <mask id="mask-26" fill="white">
                        <use xlink:href="#path-25"></use>
                    </mask>
                    <g id="path-1"></g>
                    <path d="M91.225914,24.87483 C93.1031937,25.683757 94.8983685,26.264151 96.7853895,27.08562 C95.7389,27.229151 94.7237217,26.94209 93.7544664,26.6181 C93.2827112,26.413256 92.8102601,26.204927 92.3746867,25.924833 C91.9182392,25.632198 91.5438965,25.283126 91.225914,24.87483" id="Fill-17" fill="#F0BD89" fill-rule="nonzero" mask="url(#mask-26)"></path>
                </g>
            </g>
            <g id="Group-21" transform="translate(55.000000, 107.000000)">
                <g id="Fill-19-Clipped">
                    <mask id="mask-28" fill="white">
                        <use xlink:href="#path-27"></use>
                    </mask>
                    <g id="path-3"></g>
                    <path d="M1.9599633,0.217972603 C1.19229358,0.217972603 0.56546789,0.846739726 0.56546789,1.61523288 L0.56546789,1.61523288 L0.56546789,49.5622192 C0.56546789,50.3300137 1.19229358,50.9594795 1.9599633,50.9594795 L1.9599633,50.9594795 L74.2220183,50.9594795 C74.9889908,50.9594795 75.6165138,50.3300137 75.6165138,49.5622192 L75.6165138,49.5622192 L75.6165138,1.61523288 C75.6165138,0.846739726 74.9889908,0.217972603 74.2220183,0.217972603 L74.2220183,0.217972603 L1.9599633,0.217972603 Z" id="Fill-19" fill="url(#linearGradient-29)" fill-rule="nonzero" mask="url(#mask-28)"></path>
                </g>
            </g>
            <g id="Group-48" transform="translate(10.000000, 78.000000)" fill-rule="nonzero">
                <path d="M81.3370266,43 L109.66368,43 C110.95395,43 112,41.8810019 112,40.4992451 C112,39.118997 110.95395,38 109.66368,38 L81.3370266,38 C80.0460505,38 79,39.118997 79,40.4992451 C79,41.8810019 80.0460505,43 81.3370266,43" id="Fill-22" fill="#EFEFEF"></path>
                <path d="M81.3370266,51 L109.66368,51 C110.95395,51 112,49.8808329 112,48.4996217 C112,47.1191661 110.95395,46 109.66368,46 L81.3370266,46 C80.0460505,46 79,47.1191661 79,48.4996217 C79,49.8808329 80.0460505,51 81.3370266,51" id="Fill-24" fill="#EFEFEF"></path>
                <path d="M81.3370266,59 L109.66368,59 C110.95395,59 112,57.8810028 112,56.4992445 C112,55.1189972 110.95395,54 109.66368,54 L81.3370266,54 C80.0460505,54 79,55.1189972 79,56.4992445 C79,57.8810028 80.0460505,59 81.3370266,59" id="Fill-26" fill="#EFEFEF"></path>
                <path d="M91.308646,67 L109.692051,67 C110.966653,67 112,65.8810028 112,64.5 C112,63.1189972 110.966653,62 109.692051,62 L91.308646,62 C90.0340447,62 89,63.1189972 89,64.5 C89,65.8810028 90.0340447,67 91.308646,67" id="Fill-28" fill="#EFEFEF"></path>
                <path d="M71.5595771,58 L55.4397081,58 C54.6447948,58 54,57.3596304 54,56.568586 L54,39.4321251 C54,38.6410807 54.6447948,38 55.4397081,38 L71.5595771,38 C72.3552053,38 73,38.6410807 73,39.4321251 L73,56.568586 C73,57.3596304 72.3552053,58 71.5595771,58" id="Fill-30" fill="#EFEFEF"></path>
                <path d="M86.9902344,4.88309152 C86.7720074,8.29921034 84.9177402,11.9887443 83.629787,14.7756147 C82.3473584,17.5673414 79.3543345,22.5375029 78.1527052,26.2401483 C76.9566006,29.9400192 75.6078753,38.2874479 76.1064824,40.123161 C76.60578,41.9616487 81.1816398,44.3704157 83.8790905,42.0358822 C86.5772318,39.6992683 90.893429,25.1384434 91.8305618,22.9829028 C92.7670039,20.8245871 101.501606,12.8115545 103.797133,10.520729 C106.092659,8.23267868 105.101842,4.86690848 105.101842,4.86690848 L86.9902344,4.88309152 Z" id="Fill-32" fill="#FFDAB7"></path>
                <path d="M5.13357027,4.89792379 C4.92036825,4.89792379 4.74688033,5.07704784 4.74688033,5.29675472 L4.74688033,107.703944 C4.74688033,107.922952 4.92036825,108.102076 5.13357027,108.102076 L172.865733,108.102076 C173.078935,108.102076 173.252423,107.922952 173.252423,107.703944 L173.252423,5.29675472 C173.252423,5.07704784 173.078935,4.89792379 172.865733,4.89792379 L5.13357027,4.89792379 Z M172.865733,113 L5.13357027,113 C2.30272119,113 0,110.624506 0,107.703944 L0,5.29675472 C0,2.3761928 2.30272119,0 5.13357027,0 L172.865733,0 C175.696582,0 178,2.3761928 178,5.29675472 L178,107.703944 C178,110.624506 175.696582,113 172.865733,113 L172.865733,113 Z" id="Fill-34" fill="#FFFFFF"></path>
                <path d="M77.5892394,33.1291864 C78.1921135,32.4671748 84.7754717,34.5187681 84.9817917,35.4480074 C85.1874124,36.3779587 83.6207788,40.5531195 81.8373343,41.7695378 C80.929526,42.3923559 76.7177994,41.7246435 76.1715758,40.1070276 C75.6253523,38.4894107 76.4604238,34.3712588 77.5892394,33.1291864" id="Fill-36" fill="#FFEBCA"></path>
                <path d="M59.7431192,47.7063954 L61.2568807,47.7063954 L60.5,45.4302324 L59.7431192,47.7063954 Z M60.0718654,44 L60.9281345,44 L63,50 L62.0137615,50 L61.5321101,48.5610463 L59.4602446,48.5610463 L58.9785933,50 L58,50 L60.0718654,44 Z" id="Fill-44" fill="#0398DE"></path>
                <path d="M65.109215,49.0668602 L66.0648464,49.0668602 C66.3265074,49.0668602 66.5682593,49.0159884 66.7901023,48.914244 C67.0119453,48.8125005 67.2010807,48.6715121 67.3575085,48.4912797 C67.5139363,48.3110463 67.6362343,48.0944774 67.7244027,47.8408428 C67.812571,47.5886635 67.8566553,47.3081398 67.8566553,47 C67.8566553,46.6976751 67.812571,46.4186046 67.7244027,46.1627907 C67.6362343,45.9069769 67.5139363,45.6889537 67.3575085,45.5087213 C67.2010807,45.328489 67.0119453,45.1875005 66.7901023,45.0850289 C66.5682593,44.9840116 66.3265074,44.9331398 66.0648464,44.9331398 L65.109215,44.9331398 L65.109215,49.0668602 Z M64,44 L66.1245734,44 C66.5455062,44 66.9323094,44.0741283 67.2849829,44.2223838 C67.6376564,44.3706393 67.9405574,44.5770347 68.193686,44.8415699 C68.4468145,45.1061051 68.6444824,45.4229653 68.7866894,45.7921514 C68.9288965,46.1613375 69,46.5639537 69,47 C69,47.4360463 68.9288965,47.8386635 68.7866894,48.2078486 C68.6444824,48.5770347 68.4468145,48.8938959 68.193686,49.1584301 C67.9405574,49.4229653 67.6376564,49.6293607 67.2849829,49.7776162 C66.9323094,49.9258717 66.5455062,50 66.1245734,50 L64,50 L64,44 Z" id="Fill-46" fill="#0398DE"></path>
            </g>
        </g>
    </g>
</svg>