<?xml version="1.0" encoding="UTF-8"?>
<svg width="200px" height="116px" viewBox="0 0 200 116" version="1.1" xmlns="http://www.w3.org/2000/svg" xmlns:xlink="http://www.w3.org/1999/xlink">
    <!-- Generator: Sketch 54.1 (76490) - https://sketchapp.com -->
    <title>images/UC_Craigslist</title>
    <desc>Created with Sketch.</desc>
    <defs>
        <polygon id="path-1" points="0 116 200 116 200 0 0 0"></polygon>
    </defs>
    <g id="images/UC_Craigslist" stroke="none" stroke-width="1" fill="none" fill-rule="evenodd">
        <g id="Group-32">
            <path d="M186.148343,108 L12.8516573,108 C11.2765896,108 10,106.727035 10,105.155577 L10,2.8451222 C10,1.27366404 11.2765896,0 12.8516573,0 L186.148343,0 C187.72341,0 189,1.27366404 189,2.8451222 L189,105.155577 C189,106.727035 187.72341,108 186.148343,108" id="Fill-1" fill="#FFFFFF"></path>
            <mask id="mask-2" fill="white">
                <use xlink:href="#path-1"></use>
            </mask>
            <g id="Clip-4"></g>
            <polygon id="Fill-3" fill="#333333" mask="url(#mask-2)" points="15 108 183 108 183 6 15 6"></polygon>
            <path d="M194.549265,116 L5.45073522,116 C2.44046034,116 0,113.580135 0,110.595264 L0,103 L200,103 L200,110.595264 C200,113.580135 197.55954,116 194.549265,116" id="Fill-5" fill="#FFFFFF" mask="url(#mask-2)"></path>
            <path d="M123.757674,108 L75.2423262,108 C73.4519227,108 72,106.638142 72,104.957344 L72,103 L127,103 L127,104.957344 C127,106.638142 125.548772,108 123.757674,108" id="Fill-6" fill="#D8D8D8" mask="url(#mask-2)"></path>
            <polygon id="Fill-7" fill="#03E59F" mask="url(#mask-2)" points="32 32 162 32 162 22 32 22"></polygon>
            <path d="M74.5823815,44 L35.4176185,44 C34.6345464,44 34,43.3285785 34,42.5 C34,41.6714215 34.6345464,41 35.4176185,41 L74.5823815,41 C75.3654536,41 76,41.6714215 76,42.5 C76,43.3285785 75.3654536,44 74.5823815,44" id="Fill-8" fill="#5C5C5C" mask="url(#mask-2)"></path>
            <path d="M74.5823815,50 L35.4176185,50 C34.6345464,50 34,49.3285785 34,48.5 C34,47.6721594 34.6345464,47 35.4176185,47 L74.5823815,47 C75.3654536,47 76,47.6721594 76,48.5 C76,49.3285785 75.3654536,50 74.5823815,50" id="Fill-9" fill="#5C5C5C" mask="url(#mask-2)"></path>
            <path d="M74.5823815,56 L35.4176185,56 C34.6345464,56 34,55.3285785 34,54.5 C34,53.6714215 34.6345464,53 35.4176185,53 L74.5823815,53 C75.3654536,53 76,53.6714215 76,54.5 C76,55.3285785 75.3654536,56 74.5823815,56" id="Fill-10" fill="#5C5C5C" mask="url(#mask-2)"></path>
            <path d="M74.5823815,62 L35.4176185,62 C34.6345464,62 34,61.3285785 34,60.5 C34,59.6714215 34.6345464,59 35.4176185,59 L74.5823815,59 C75.3654536,59 76,59.6714215 76,60.5 C76,61.3285785 75.3654536,62 74.5823815,62" id="Fill-11" fill="#03E59F" mask="url(#mask-2)"></path>
            <path d="M74.5823815,68 L35.4176185,68 C34.6345464,68 34,67.3278406 34,66.5 C34,65.6714215 34.6345464,65 35.4176185,65 L74.5823815,65 C75.3654536,65 76,65.6714215 76,66.5 C76,67.3278406 75.3654536,68 74.5823815,68" id="Fill-12" fill="#03E59F" mask="url(#mask-2)"></path>
            <path d="M74.5823815,74 L35.4176185,74 C34.6345464,74 34,73.3285785 34,72.5 C34,71.6714215 34.6345464,71 35.4176185,71 L74.5823815,71 C75.3654536,71 76,71.6714215 76,72.5 C76,73.3285785 75.3654536,74 74.5823815,74" id="Fill-13" fill="#5C5C5C" mask="url(#mask-2)"></path>
            <path d="M74.5823815,81 L35.4176185,81 C34.6345464,81 34,80.3284133 34,79.500369 C34,78.6715867 34.6345464,78 35.4176185,78 L74.5823815,78 C75.3654536,78 76,78.6715867 76,79.500369 C76,80.3284133 75.3654536,81 74.5823815,81" id="Fill-14" fill="#5C5C5C" mask="url(#mask-2)"></path>
            <path d="M74.5823815,87 L35.4176185,87 C34.6345464,87 34,86.3285785 34,85.5 C34,84.6714215 34.6345464,84 35.4176185,84 L74.5823815,84 C75.3654536,84 76,84.6714215 76,85.5 C76,86.3285785 75.3654536,87 74.5823815,87" id="Fill-15" fill="#5C5C5C" mask="url(#mask-2)"></path>
            <path d="M124.582381,44 L85.4176185,44 C84.6345464,44 84,43.3285785 84,42.5 C84,41.6714215 84.6345464,41 85.4176185,41 L124.582381,41 C125.365454,41 126,41.6714215 126,42.5 C126,43.3285785 125.365454,44 124.582381,44" id="Fill-16" fill="#5C5C5C" mask="url(#mask-2)"></path>
            <path d="M124.582381,50 L85.4176185,50 C84.6345464,50 84,49.3285785 84,48.5 C84,47.6721594 84.6345464,47 85.4176185,47 L124.582381,47 C125.365454,47 126,47.6721594 126,48.5 C126,49.3285785 125.365454,50 124.582381,50" id="Fill-17" fill="#03E59F" mask="url(#mask-2)"></path>
            <path d="M124.582381,56 L85.4176185,56 C84.6345464,56 84,55.3285785 84,54.5 C84,53.6714215 84.6345464,53 85.4176185,53 L124.582381,53 C125.365454,53 126,53.6714215 126,54.5 C126,55.3285785 125.365454,56 124.582381,56" id="Fill-18" fill="#5C5C5C" mask="url(#mask-2)"></path>
            <path d="M124.582381,62 L85.4176185,62 C84.6345464,62 84,61.3285785 84,60.5 C84,59.6714215 84.6345464,59 85.4176185,59 L124.582381,59 C125.365454,59 126,59.6714215 126,60.5 C126,61.3285785 125.365454,62 124.582381,62" id="Fill-19" fill="#5C5C5C" mask="url(#mask-2)"></path>
            <path d="M124.582381,68 L85.4176185,68 C84.6345464,68 84,67.3278406 84,66.5 C84,65.6714215 84.6345464,65 85.4176185,65 L124.582381,65 C125.365454,65 126,65.6714215 126,66.5 C126,67.3278406 125.365454,68 124.582381,68" id="Fill-20" fill="#5C5C5C" mask="url(#mask-2)"></path>
            <path d="M124.582381,74 L85.4176185,74 C84.6345464,74 84,73.3285785 84,72.5 C84,71.6714215 84.6345464,71 85.4176185,71 L124.582381,71 C125.365454,71 126,71.6714215 126,72.5 C126,73.3285785 125.365454,74 124.582381,74" id="Fill-21" fill="#5C5C5C" mask="url(#mask-2)"></path>
            <path d="M124.582381,81 L85.4176185,81 C84.6345464,81 84,80.3284133 84,79.500369 C84,78.6715867 84.6345464,78 85.4176185,78 L124.582381,78 C125.365454,78 126,78.6715867 126,79.500369 C126,80.3284133 125.365454,81 124.582381,81" id="Fill-22" fill="#5C5C5C" mask="url(#mask-2)"></path>
            <path d="M124.582381,87 L85.4176185,87 C84.6345464,87 84,86.3285785 84,85.5 C84,84.6714215 84.6345464,84 85.4176185,84 L124.582381,84 C125.365454,84 126,84.6714215 126,85.5 C126,86.3285785 125.365454,87 124.582381,87" id="Fill-23" fill="#5C5C5C" mask="url(#mask-2)"></path>
            <path d="M158.587104,44 L134.412896,44 C133.632432,44 133,43.3285785 133,42.5 C133,41.6714215 133.632432,41 134.412896,41 L158.587104,41 C159.367568,41 160,41.6714215 160,42.5 C160,43.3285785 159.367568,44 158.587104,44" id="Fill-24" fill="#5C5C5C" mask="url(#mask-2)"></path>
            <path d="M158.587104,50 L134.412896,50 C133.632432,50 133,49.3285785 133,48.5 C133,47.6714215 133.632432,47 134.412896,47 L158.587104,47 C159.367568,47 160,47.6714215 160,48.5 C160,49.3285785 159.367568,50 158.587104,50" id="Fill-25" fill="#5C5C5C" mask="url(#mask-2)"></path>
            <path d="M158.587104,62 L134.412896,62 C133.632432,62 133,61.3285785 133,60.5 C133,59.6714215 133.632432,59 134.412896,59 L158.587104,59 C159.367568,59 160,59.6714215 160,60.5 C160,61.3285785 159.367568,62 158.587104,62" id="Fill-26" fill="#5C5C5C" mask="url(#mask-2)"></path>
            <path d="M158.587104,81 L134.412896,81 C133.632432,81 133,80.3284133 133,79.500369 C133,78.6715867 133.632432,78 134.412896,78 L158.587104,78 C159.367568,78 160,78.6715867 160,79.500369 C160,80.3284133 159.367568,81 158.587104,81" id="Fill-27" fill="#03E59F" mask="url(#mask-2)"></path>
            <path d="M158.587104,87 L134.412896,87 C133.632432,87 133,86.3285785 133,85.5 C133,84.6714215 133.632432,84 134.412896,84 L158.587104,84 C159.367568,84 160,84.6714215 160,85.5 C160,86.3285785 159.367568,87 158.587104,87" id="Fill-28" fill="#5C5C5C" mask="url(#mask-2)"></path>
            <path d="M150.604264,56 L134.395736,56 C133.624752,56 133,55.3284133 133,54.499631 C133,53.6715867 133.624752,53 134.395736,53 L150.604264,53 C151.375248,53 152,53.6715867 152,54.499631 C152,55.3284133 151.375248,56 150.604264,56" id="Fill-29" fill="#03E59F" mask="url(#mask-2)"></path>
            <path d="M150.604264,68 L134.395736,68 C133.624752,68 133,67.3278406 133,66.5 C133,65.6714215 133.624752,65 134.395736,65 L150.604264,65 C151.375248,65 152,65.6714215 152,66.5 C152,67.3278406 151.375248,68 150.604264,68" id="Fill-30" fill="#5C5C5C" mask="url(#mask-2)"></path>
            <path d="M150.604264,74 L134.395736,74 C133.624752,74 133,73.3285785 133,72.5 C133,71.6714215 133.624752,71 134.395736,71 L150.604264,71 C151.375248,71 152,71.6714215 152,72.5 C152,73.3285785 151.375248,74 150.604264,74" id="Fill-31" fill="#5C5C5C" mask="url(#mask-2)"></path>
        </g>
    </g>
</svg>