<?xml version="1.0" encoding="UTF-8"?>
<svg width="190px" height="112px" viewBox="0 0 190 112" version="1.1" xmlns="http://www.w3.org/2000/svg" xmlns:xlink="http://www.w3.org/1999/xlink">
    <!-- Generator: Sketch 54.1 (76490) - https://sketchapp.com -->
    <title>uc_instagram</title>
    <desc>Created with Sketch.</desc>
    <defs>
        <polygon id="path-1" points="0.624076923 0.309333333 170.345895 0.309333333 170.345895 103.307133 0.624076923 103.307133"></polygon>
        <polygon id="path-3" points="0.208601399 0.638666667 160.122168 0.638666667 160.122168 97.974 0.208601399 97.974"></polygon>
        <linearGradient x1="75.6321684%" y1="77.1175184%" x2="24.3677572%" y2="22.8821009%" id="linearGradient-5">
            <stop stop-color="#B628A8" offset="0%"></stop>
            <stop stop-color="#5242D6" offset="100%"></stop>
        </linearGradient>
        <polygon id="path-6" points="0.000199300699 0.195866667 189.571503 0.195866667 189.571503 12.6665333 0.000199300699 12.6665333"></polygon>
    </defs>
    <g id="Page-1" stroke="none" stroke-width="1" fill="none" fill-rule="evenodd">
        <g id="uc_instagram">
            <g id="Group-3" transform="translate(9.300699, 0.357333)">
                <g id="Fill-1-Clipped">
                    <mask id="mask-2" fill="white">
                        <use xlink:href="#path-1"></use>
                    </mask>
                    <g id="path-2"></g>
                    <path d="M167.642049,103.307133 L3.32792308,103.307133 C1.83516084,103.307133 0.624076923,102.092467 0.624076923,100.5938 L0.624076923,3.02246667 C0.624076923,1.52446667 1.83516084,0.309133333 3.32792308,0.309133333 L167.642049,0.309133333 C169.135476,0.309133333 170.345895,1.52446667 170.345895,3.02246667 L170.345895,100.5938 C170.345895,102.092467 169.135476,103.307133 167.642049,103.307133" id="Fill-1" fill="#FFFFFF" fill-rule="nonzero" mask="url(#mask-2)"></path>
                </g>
            </g>
            <g id="Group-6" transform="translate(13.951049, 5.690667)">
                <g id="Fill-4-Clipped">
                    <mask id="mask-4" fill="white">
                        <use xlink:href="#path-3"></use>
                    </mask>
                    <g id="path-4"></g>
                    <polygon id="Fill-4" fill="url(#linearGradient-5)" fill-rule="nonzero" mask="url(#mask-4)" points="0.208601399 97.974 160.122168 97.974 160.122168 0.638666667 0.208601399 0.638666667"></polygon>
                </g>
            </g>
            <g id="Group-18" transform="translate(0.000000, 28.357333)">
                <g id="Group-9" transform="translate(0.000000, 70.000000)">
                    <g id="Fill-7-Clipped">
                        <mask id="mask-7" fill="white">
                            <use xlink:href="#path-6"></use>
                        </mask>
                        <g id="path-7"></g>
                        <path d="M184.405164,12.6665333 L5.16607343,12.6665333 C2.31275175,12.6665333 0.000199300699,10.3458667 0.000199300699,7.48253333 L0.000199300699,0.195866667 L189.571703,0.195866667 L189.571703,7.48253333 C189.571703,10.3458667 187.258486,12.6665333 184.405164,12.6665333" id="Fill-7" fill="#FFFFFF" fill-rule="nonzero" mask="url(#mask-7)"></path>
                    </g>
                </g>
                <path d="M117.97193,75.3071333 L71.5993077,75.3071333 C69.887979,75.3071333 68.5001818,73.9144667 68.5001818,72.1971333 L68.5001818,70.1958 L121.07172,70.1958 L121.07172,72.1971333 C121.07172,73.9144667 119.683923,75.3071333 117.97193,75.3071333" id="Fill-10" fill="#E2E2E2" fill-rule="nonzero"></path>
                <path d="M94.1165,4.88853333 C100.684122,4.88853333 101.462059,4.91386667 104.055626,5.03253333 C106.453878,5.14253333 107.75664,5.54453333 108.622934,5.88253333 C109.770906,6.33053333 110.590696,6.8652 111.451675,7.72853333 C112.31199,8.59253333 112.845451,9.4152 113.29122,10.5672 C113.628703,11.4372 114.029297,12.7438667 114.138913,15.1505333 C114.2565,17.7532 114.281745,18.5345333 114.281745,25.1245333 C114.281745,31.7152 114.2565,32.4958667 114.138913,35.0985333 C114.029297,37.5058667 113.628703,38.8132 113.29122,39.6825333 C112.845451,40.8345333 112.31199,41.6565333 111.451675,42.5205333 C110.590696,43.3845333 109.770906,43.9192 108.622934,44.3672 C107.75664,44.7052 106.453878,45.1072 104.055626,45.2165333 C101.462724,45.3358667 100.684787,45.3612 94.1165,45.3612 C87.5482133,45.3612 86.7702762,45.3358667 84.1773741,45.2165333 C81.7791224,45.1072 80.4763601,44.7052 79.6094021,44.3672 C78.4614301,43.9192 77.6423042,43.3845333 76.7813252,42.5205333 C75.9203462,41.6565333 75.387549,40.8345333 74.9417797,39.6825333 C74.6042972,38.8132 74.2037028,37.5058667 74.0940874,35.0985333 C73.9765,32.4958667 73.9512552,31.7152 73.9512552,25.1245333 C73.9512552,18.5345333 73.9765,17.7532 74.0940874,15.1505333 C74.2037028,12.7438667 74.6042972,11.4372 74.9417797,10.5672 C75.387549,9.4152 75.9203462,8.59253333 76.7813252,7.7292 C77.6423042,6.8652 78.4614301,6.33053333 79.6094021,5.88253333 C80.4763601,5.54453333 81.7791224,5.14253333 84.1773741,5.03253333 C86.7709406,4.91386667 87.5488776,4.88853333 94.1165,4.88853333 M94.1165,0.4412 C87.4359406,0.4412 86.5988776,0.469866667 83.9747517,0.589866667 C81.3566049,0.7092 79.5688776,1.12653333 78.0043671,1.7372 C76.3867098,2.36786667 75.0148566,3.21186667 73.6469895,4.58386667 C72.2797867,5.95653333 71.4387378,7.3332 70.8102762,8.95586667 C70.2024091,10.5265333 69.786535,12.3205333 69.6669545,14.9478667 C69.5473741,17.5805333 69.519472,18.4212 69.519472,25.1245333 C69.519472,31.8285333 69.5473741,32.6692 69.6669545,35.3018667 C69.786535,37.9292 70.2024091,39.7232 70.8102762,41.2932 C71.4387378,42.9165333 72.2797867,44.2925333 73.6469895,45.6658667 C75.0148566,47.0378667 76.3867098,47.8818667 78.0043671,48.5125333 C79.5688776,49.1232 81.3566049,49.5405333 83.9747517,49.6598667 C86.5988776,49.7798667 87.4359406,49.8085333 94.1165,49.8085333 C100.797059,49.8085333 101.634122,49.7798667 104.257584,49.6598667 C106.876395,49.5405333 108.664122,49.1232 110.228633,48.5125333 C111.84629,47.8818667 113.217479,47.0378667 114.585346,45.6658667 C115.953213,44.2925333 116.793598,42.9165333 117.422724,41.2932 C118.030591,39.7232 118.446465,37.9292 118.566045,35.3018667 C118.685626,32.6692 118.713528,31.8285333 118.713528,25.1245333 C118.713528,18.4212 118.685626,17.5805333 118.566045,14.9478667 C118.446465,12.3205333 118.030591,10.5265333 117.422724,8.95586667 C116.793598,7.3332 115.953213,5.95653333 114.585346,4.58386667 C113.217479,3.21186667 111.84629,2.36786667 110.228633,1.7372 C108.664122,1.12653333 106.876395,0.7092 104.257584,0.589866667 C101.634122,0.469866667 100.797059,0.4412 94.1165,0.4412" id="Fill-12" fill="#FFFFFF" fill-rule="nonzero"></path>
                <path d="M94.1165,12.4494 C87.1403112,12.4494 81.485486,18.1240667 81.485486,25.1247333 C81.485486,32.1254 87.1403112,37.8000667 94.1165,37.8000667 C101.092689,37.8000667 106.747514,32.1254 106.747514,25.1247333 C106.747514,18.1240667 101.092024,12.4494 94.1165,12.4494 M94.1165,33.3527333 C89.5883881,33.3527333 85.9172692,29.6694 85.9172692,25.1247333 C85.9172692,20.5807333 89.5883881,16.8967333 94.1165,16.8967333 C98.6446119,16.8967333 102.315731,20.5807333 102.315731,25.1247333 C102.315731,29.6694 98.6446119,33.3527333 94.1165,33.3527333" id="Fill-14" fill="#FFFFFF" fill-rule="nonzero"></path>
                <path d="M110.19814,11.9484 C110.19814,13.5844 108.876776,14.9104 107.246497,14.9104 C105.616881,14.9104 104.294853,13.5844 104.294853,11.9484 C104.294853,10.3124 105.616881,8.9864 107.246497,8.9864 C108.876776,8.9864 110.19814,10.3124 110.19814,11.9484" id="Fill-16" fill="#FFFFFF" fill-rule="nonzero"></path>
            </g>
        </g>
    </g>
</svg>