<?xml version="1.0" encoding="UTF-8"?>
<svg width="252px" height="189px" viewBox="0 0 252 189" version="1.1" xmlns="http://www.w3.org/2000/svg" xmlns:xlink="http://www.w3.org/1999/xlink">
    <!-- Generator: Sketch 54.1 (76490) - https://sketchapp.com -->
    <title>images/UC_Sneakers</title>
    <desc>Created with Sketch.</desc>
    <defs>
        <polygon id="path-1" points="0 144 205.53542 144 205.53542 0.5508 0 0.5508"></polygon>
        <path d="M38.0018889,0.4893 L20.0156667,10.5532 C19.5975,10.787 18.9142778,10.787 18.4961111,10.5532 L18.4961111,10.5532 L0.5005,0.4837 C0.293944444,0.3682 0.189944444,0.2163 0.187777778,0.0637 L0.187777778,0.0637 L0.187777778,0.0637 L0.187777778,2.9519 L0.187777778,2.9519 C0.189944444,3.1045 0.293944444,3.2564 0.5005,3.3712 L0.5005,3.3712 L18.4961111,13.4421 C18.9142778,13.6759 19.5975,13.6759 20.0156667,13.4421 L20.0156667,13.4421 L38.0018889,3.3768 C38.2106111,3.2606 38.3146111,3.1052 38.3146111,2.9519 L38.3146111,2.9519 L38.3146111,0.0637 C38.3146111,0.2177 38.2106111,0.3717 38.0018889,0.4893" id="path-3"></path>
        <linearGradient x1="-0.00110871171%" y1="49.9988039%" x2="100.000453%" y2="49.9988039%" id="linearGradient-5">
            <stop stop-color="#FF7E60" offset="0%"></stop>
            <stop stop-color="#FB3D54" offset="100%"></stop>
        </linearGradient>
        <path d="M38.0018889,0.5194 L20.0156667,10.5833 C19.5975,10.8171 18.9142778,10.8171 18.4961111,10.5833 L18.4961111,10.5833 L0.5005,0.5138 C0.293944444,0.3983 0.189944444,0.2464 0.187777778,0.0938 L0.187777778,0.0938 L0.187777778,0.0938 L0.187777778,2.982 L0.187777778,2.982 C0.189944444,3.1346 0.293944444,3.2865 0.5005,3.4013 L0.5005,3.4013 L18.4961111,13.4722 C18.9142778,13.706 19.5975,13.706 20.0156667,13.4722 L20.0156667,13.4722 L38.0018889,3.4069 C38.2106111,3.2907 38.3146111,3.1353 38.3146111,2.982 L38.3146111,2.982 L38.3146111,0.0938 C38.3146111,0.2478 38.2106111,0.4018 38.0018889,0.5194" id="path-6"></path>
        <linearGradient x1="-0.00110871171%" y1="49.9986427%" x2="100.000453%" y2="49.9986427%" id="linearGradient-8">
            <stop stop-color="#FF7E60" offset="0%"></stop>
            <stop stop-color="#FB3D54" offset="100%"></stop>
        </linearGradient>
        <path d="M38.0018889,0.925714286 L20.0156667,11.195 C19.5975,11.4335714 18.9142778,11.4335714 18.4961111,11.195 L18.4961111,11.195 L0.5005,0.92 C0.293944444,0.802142857 0.189944444,0.646428571 0.187777778,0.491428571 L0.187777778,0.491428571 L0.187777778,0.491428571 L0.187777778,3.43857143 L0.187777778,3.43857143 C0.189944444,3.59357143 0.293944444,3.74857143 0.5005,3.86642857 L0.5005,3.86642857 L18.4961111,14.1421429 C18.9142778,14.3807143 19.5975,14.3807143 20.0156667,14.1421429 L20.0156667,14.1421429 L38.0018889,3.87214286 C38.2106111,3.75357143 38.3146111,3.595 38.3146111,3.43857143 L38.3146111,3.43857143 L38.3146111,0.491428571 C38.3146111,0.648571429 38.2106111,0.805714286 38.0018889,0.925714286" id="path-9"></path>
        <linearGradient x1="-0.00110871171%" y1="49.9998502%" x2="100.000453%" y2="49.9998502%" id="linearGradient-11">
            <stop stop-color="#FF7E60" offset="0%"></stop>
            <stop stop-color="#FB3D54" offset="100%"></stop>
        </linearGradient>
        <path d="M38.0018889,0.956428571 L20.0156667,11.2257143 C19.5975,11.4642857 18.9142778,11.4642857 18.4961111,11.2257143 L18.4961111,11.2257143 L0.5005,0.95 C0.293944444,0.832857143 0.189944444,0.677857143 0.187777778,0.522142857 L0.187777778,0.522142857 L0.187777778,0.522142857 L0.187777778,3.46928571 L0.187777778,3.46928571 C0.189944444,3.62428571 0.293944444,3.77928571 0.5005,3.89714286 L0.5005,3.89714286 L18.4961111,14.1728571 C18.9142778,14.4114286 19.5975,14.4114286 20.0156667,14.1728571 L20.0156667,14.1728571 L38.0018889,3.90285714 C38.2106111,3.78428571 38.3146111,3.62642857 38.3146111,3.46928571 L38.3146111,3.46928571 L38.3146111,0.522142857 C38.3146111,0.679285714 38.2106111,0.836428571 38.0018889,0.956428571" id="path-12"></path>
        <linearGradient x1="-0.00110871171%" y1="49.9996891%" x2="100.000453%" y2="49.9996891%" id="linearGradient-14">
            <stop stop-color="#FF7E60" offset="0%"></stop>
            <stop stop-color="#FB3D54" offset="100%"></stop>
        </linearGradient>
        <path d="M37.6479623,0.6447 L19.7922642,10.71 C19.3778491,10.9438 18.6988679,10.9438 18.2837358,10.71 L18.2837358,10.71 L0.419433962,0.6405 C0.214377358,0.5243 0.111849057,0.3717 0.108981132,0.2198 L0.108981132,0.2198 L0.108264151,0.2198 L0.108264151,3.108 L0.108981132,3.108 C0.111849057,3.2606 0.214377358,3.4132 0.419433962,3.528 L0.419433962,3.528 L18.2837358,13.5982 C18.6988679,13.832 19.3778491,13.832 19.7922642,13.5982 L19.7922642,13.5982 L37.6479623,3.5336 C37.8551698,3.416 37.9591321,3.2627 37.9591321,3.108 L37.9591321,3.108 L37.9591321,0.2198 C37.9591321,0.3738 37.8551698,0.5285 37.6479623,0.6447" id="path-15"></path>
        <linearGradient x1="0.000377519321%" y1="49.9992749%" x2="100.000045%" y2="49.9992749%" id="linearGradient-17">
            <stop stop-color="#FF7E60" offset="0%"></stop>
            <stop stop-color="#FB3D54" offset="100%"></stop>
        </linearGradient>
        <path d="M37.6479623,0.6748 L19.7922642,10.7394 C19.3778491,10.9739 18.6988679,10.9739 18.2837358,10.7394 L18.2837358,10.7394 L0.419433962,0.6706 C0.214377358,0.5544 0.111849057,0.4018 0.108981132,0.2499 L0.108981132,0.2499 L0.108264151,0.2499 L0.108264151,3.1381 L0.108981132,3.1381 C0.111849057,3.2907 0.214377358,3.4433 0.419433962,3.5581 L0.419433962,3.5581 L18.2837358,13.6283 C18.6988679,13.8621 19.3778491,13.8621 19.7922642,13.6283 L19.7922642,13.6283 L37.6479623,3.5637 C37.8551698,3.4461 37.9591321,3.2928 37.9591321,3.1381 L37.9591321,3.1381 L37.9591321,0.2499 C37.9591321,0.4039 37.8551698,0.5586 37.6479623,0.6748" id="path-18"></path>
        <linearGradient x1="0.000377519321%" y1="49.9990936%" x2="100.000045%" y2="49.9990936%" id="linearGradient-20">
            <stop stop-color="#FF7E60" offset="0%"></stop>
            <stop stop-color="#FB3D54" offset="100%"></stop>
        </linearGradient>
    </defs>
    <g id="HP" stroke="none" stroke-width="1" fill="none" fill-rule="evenodd">
        <g transform="translate(-1063.000000, -5230.000000)" id="Use-Cases">
            <g transform="translate(0.000000, 4290.000000)">
                <g id="UC_Sneakers" transform="translate(730.000000, 701.000000)">
                    <g id="images/UC_Sneakers" transform="translate(356.000000, 258.000000)">
                        <g id="Group-42">
                            <g id="Group-11">
                                <path d="M191.843262,136.052136 L13.6921573,136.052136 C12.0729685,136.052136 10.7606189,134.740296 10.7606189,133.121736 L10.7606189,27.744696 C10.7606189,26.126136 12.0729685,24.814296 13.6921573,24.814296 L191.843262,24.814296 C193.462451,24.814296 194.774801,26.126136 194.774801,27.744696 L194.774801,133.121736 C194.774801,134.740296 193.462451,136.052136 191.843262,136.052136" id="Fill-1" fill="#FFFFFF"></path>
                                <mask id="mask-2" fill="white">
                                    <use xlink:href="#path-1"></use>
                                </mask>
                                <g id="Clip-4"></g>
                                <polygon id="Fill-3" fill="#F7F7F7" mask="url(#mask-2)" points="15.7013776 136.05192 189.08135 136.05192 189.08135 30.92832 15.7013776 30.92832"></polygon>
                                <path d="M199.934092,144.000216 L5.60118322,144.000216 C2.50758182,144.000216 -0.000432167832,141.493176 -0.000432167832,138.400776 L-0.000432167832,130.531896 L205.535708,130.531896 L205.535708,138.400776 C205.535708,141.493176 203.027694,144.000216 199.934092,144.000216" id="Fill-5" fill="#FFFFFF" mask="url(#mask-2)"></path>
                                <path d="M127.90648,136.052136 L77.6287951,136.052136 C75.7733545,136.052136 74.2686902,134.548056 74.2686902,132.692616 L74.2686902,130.531896 L131.267306,130.531896 L131.267306,132.692616 C131.267306,134.548056 129.762641,136.052136 127.90648,136.052136" id="Fill-6" fill="#D8D8D8" mask="url(#mask-2)"></path>
                                <polygon id="Fill-7" fill="#F0F1FE" mask="url(#mask-2)" points="134.979123 18.56376 103.768683 0.5508 73.323179 18.56376 103.768683 36.57672"></polygon>
                                <polygon id="Fill-8" fill="#D1D4FC" mask="url(#mask-2)" points="134.979123 18.56376 134.979123 87.9156 103.768683 104.95368 103.768683 36.57672"></polygon>
                                <polygon id="Fill-9" fill="#E0E3FD" mask="url(#mask-2)" points="73.3234671 18.56376 73.3234671 86.93928 103.768971 104.95368 103.768971 36.57672"></polygon>
                                <path d="M94.3933776,83.494944 L56.3683706,83.494944 L56.3683706,104.925744 L56.3690909,104.925744 C56.3712517,105.081984 56.474972,105.238224 56.680972,105.357024 L74.6281818,115.714944 C75.0445035,115.955424 75.7266084,115.955424 76.1436503,115.714944 L94.0807762,105.362784 C94.2889371,105.242544 94.3933776,105.083424 94.3933776,104.925744 L94.3933776,83.494944 Z" id="Fill-10" fill="#E0E3FD" mask="url(#mask-2)"></path>
                            </g>
                            <g id="Group-14" transform="translate(56.000000, 90.000000)">
                                <mask id="mask-4" fill="white">
                                    <use xlink:href="#path-3"></use>
                                </mask>
                                <g id="Clip-13"></g>
                                <path d="M38.0018889,0.4893 L20.0156667,10.5532 C19.5975,10.787 18.9142778,10.787 18.4961111,10.5532 L18.4961111,10.5532 L0.5005,0.4837 C0.293944444,0.3682 0.189944444,0.2163 0.187777778,0.0637 L0.187777778,0.0637 L0.187777778,0.0637 L0.187777778,2.9519 L0.187777778,2.9519 C0.189944444,3.1045 0.293944444,3.2564 0.5005,3.3712 L0.5005,3.3712 L18.4961111,13.4421 C18.9142778,13.6759 19.5975,13.6759 20.0156667,13.4421 L20.0156667,13.4421 L38.0018889,3.3768 C38.2106111,3.2606 38.3146111,3.1052 38.3146111,2.9519 L38.3146111,2.9519 L38.3146111,0.0637 C38.3146111,0.2177 38.2106111,0.3717 38.0018889,0.4893" id="Fill-12" fill="url(#linearGradient-5)" mask="url(#mask-4)"></path>
                            </g>
                            <g id="Group-17" transform="translate(56.000000, 98.000000)">
                                <mask id="mask-7" fill="white">
                                    <use xlink:href="#path-6"></use>
                                </mask>
                                <g id="Clip-16"></g>
                                <path d="M38.0018889,0.5194 L20.0156667,10.5833 C19.5975,10.8171 18.9142778,10.8171 18.4961111,10.5833 L18.4961111,10.5833 L0.5005,0.5138 C0.293944444,0.3983 0.189944444,0.2464 0.187777778,0.0938 L0.187777778,0.0938 L0.187777778,0.0938 L0.187777778,2.982 L0.187777778,2.982 C0.189944444,3.1346 0.293944444,3.2865 0.5005,3.4013 L0.5005,3.4013 L18.4961111,13.4722 C18.9142778,13.706 19.5975,13.706 20.0156667,13.4722 L20.0156667,13.4722 L38.0018889,3.4069 C38.2106111,3.2907 38.3146111,3.1353 38.3146111,2.982 L38.3146111,2.982 L38.3146111,0.0938 C38.3146111,0.2478 38.2106111,0.4018 38.0018889,0.5194" id="Fill-15" fill="url(#linearGradient-8)" mask="url(#mask-7)"></path>
                            </g>
                            <g id="Group-22" transform="translate(56.000000, 58.000000)">
                                <path d="M20.0157389,15.3313923 C19.5975722,15.0873154 18.9136278,15.0865846 18.4961833,15.3313923 L0.500572222,25.8332769 C0.0831277778,26.0773538 0.0831277778,26.4763538 0.500572222,26.7211615 L18.4961833,37.2332769 C18.9136278,37.4773538 19.5975722,37.4773538 20.0157389,37.2332769 L38.0012389,26.7262769 C38.4194056,26.4822 38.4194056,26.0824692 38.0012389,25.8383923 L20.0157389,15.3313923 Z" id="Fill-18" fill="#F0F1FE"></path>
                                <path d="M38.3146111,0.410546154 L0.187055556,0.410546154 L0.187055556,22.1618923 L0.187777778,22.1618923 C0.189944444,22.3204692 0.293944444,22.4790462 0.5005,22.5996231 L18.4961111,33.1124692 C18.9135556,33.3565462 19.5975,33.3565462 20.0156667,33.1124692 L38.0011667,22.6054692 C38.2098889,22.4834308 38.3146111,22.3219308 38.3146111,22.1618923 L38.3146111,0.410546154 Z" id="Fill-20" fill="#E0E3FD"></path>
                            </g>
                            <g id="Group-25" transform="translate(56.000000, 64.000000)">
                                <mask id="mask-10" fill="white">
                                    <use xlink:href="#path-9"></use>
                                </mask>
                                <g id="Clip-24"></g>
                                <path d="M38.0018889,0.925714286 L20.0156667,11.195 C19.5975,11.4335714 18.9142778,11.4335714 18.4961111,11.195 L18.4961111,11.195 L0.5005,0.92 C0.293944444,0.802142857 0.189944444,0.646428571 0.187777778,0.491428571 L0.187777778,0.491428571 L0.187777778,0.491428571 L0.187777778,3.43857143 L0.187777778,3.43857143 C0.189944444,3.59357143 0.293944444,3.74857143 0.5005,3.86642857 L0.5005,3.86642857 L18.4961111,14.1421429 C18.9142778,14.3807143 19.5975,14.3807143 20.0156667,14.1421429 L20.0156667,14.1421429 L38.0018889,3.87214286 C38.2106111,3.75357143 38.3146111,3.595 38.3146111,3.43857143 L38.3146111,3.43857143 L38.3146111,0.491428571 C38.3146111,0.648571429 38.2106111,0.805714286 38.0018889,0.925714286" id="Fill-23" fill="url(#linearGradient-11)" mask="url(#mask-10)"></path>
                            </g>
                            <g id="Group-28" transform="translate(56.000000, 72.000000)">
                                <mask id="mask-13" fill="white">
                                    <use xlink:href="#path-12"></use>
                                </mask>
                                <g id="Clip-27"></g>
                                <path d="M38.0018889,0.956428571 L20.0156667,11.2257143 C19.5975,11.4642857 18.9142778,11.4642857 18.4961111,11.2257143 L18.4961111,11.2257143 L0.5005,0.95 C0.293944444,0.832857143 0.189944444,0.677857143 0.187777778,0.522142857 L0.187777778,0.522142857 L0.187777778,0.522142857 L0.187777778,3.46928571 L0.187777778,3.46928571 C0.189944444,3.62428571 0.293944444,3.77928571 0.5005,3.89714286 L0.5005,3.89714286 L18.4961111,14.1728571 C18.9142778,14.4114286 19.5975,14.4114286 20.0156667,14.1728571 L20.0156667,14.1728571 L38.0018889,3.90285714 C38.2106111,3.78428571 38.3146111,3.62642857 38.3146111,3.46928571 L38.3146111,3.46928571 L38.3146111,0.522142857 C38.3146111,0.679285714 38.2106111,0.836428571 38.0018889,0.956428571" id="Fill-26" fill="url(#linearGradient-14)" mask="url(#mask-13)"></path>
                            </g>
                            <g id="Group-33" transform="translate(56.000000, 47.000000)">
                                <path d="M19.9382014,0.416030928 C19.5216547,0.175 18.8403597,0.175 18.4245324,0.416030928 L0.498633094,10.7868557 C0.0828057554,11.0278866 0.0828057554,11.4219072 0.498633094,11.6629381 L18.4245324,22.0445876 C18.8403597,22.2856186 19.5216547,22.2856186 19.9382014,22.0445876 L37.8540288,11.6687113 C38.2705755,11.4276804 38.2705755,11.0329381 37.8540288,10.7919072 L19.9382014,0.416030928 Z" id="Fill-29" fill="#F0F1FE"></path>
                                <path d="M99.9590647,36.9396495 L61.9792086,36.9396495 L61.9792086,58.4195464 L61.9799281,58.4195464 C61.9820863,58.5761443 62.0856835,58.7334639 62.2914388,58.8525361 L80.2166187,69.2341856 C80.6331655,69.4752165 81.313741,69.4752165 81.7310072,69.2341856 L99.6468345,58.8575876 C99.8547482,58.7370722 99.9590647,58.5783093 99.9590647,58.4195464 L99.9590647,36.9396495 Z" id="Fill-31" fill="#E0E3FD"></path>
                            </g>
                            <g id="Group-36" transform="translate(118.000000, 90.000000)">
                                <mask id="mask-16" fill="white">
                                    <use xlink:href="#path-15"></use>
                                </mask>
                                <g id="Clip-35"></g>
                                <path d="M37.6479623,0.6447 L19.7922642,10.71 C19.3778491,10.9438 18.6988679,10.9438 18.2837358,10.71 L18.2837358,10.71 L0.419433962,0.6405 C0.214377358,0.5243 0.111849057,0.3717 0.108981132,0.2198 L0.108981132,0.2198 L0.108264151,0.2198 L0.108264151,3.108 L0.108981132,3.108 C0.111849057,3.2606 0.214377358,3.4132 0.419433962,3.528 L0.419433962,3.528 L18.2837358,13.5982 C18.6988679,13.832 19.3778491,13.832 19.7922642,13.5982 L19.7922642,13.5982 L37.6479623,3.5336 C37.8551698,3.416 37.9591321,3.2627 37.9591321,3.108 L37.9591321,3.108 L37.9591321,0.2198 C37.9591321,0.3738 37.8551698,0.5285 37.6479623,0.6447" id="Fill-34" fill="url(#linearGradient-17)" mask="url(#mask-16)"></path>
                            </g>
                            <g id="Group-39" transform="translate(118.000000, 98.000000)">
                                <mask id="mask-19" fill="white">
                                    <use xlink:href="#path-18"></use>
                                </mask>
                                <g id="Clip-38"></g>
                                <path d="M37.6479623,0.6748 L19.7922642,10.7394 C19.3778491,10.9739 18.6988679,10.9739 18.2837358,10.7394 L18.2837358,10.7394 L0.419433962,0.6706 C0.214377358,0.5544 0.111849057,0.4018 0.108981132,0.2499 L0.108981132,0.2499 L0.108264151,0.2499 L0.108264151,3.1381 L0.108981132,3.1381 C0.111849057,3.2907 0.214377358,3.4433 0.419433962,3.5581 L0.419433962,3.5581 L18.2837358,13.6283 C18.6988679,13.8621 19.3778491,13.8621 19.7922642,13.6283 L19.7922642,13.6283 L37.6479623,3.5637 C37.8551698,3.4461 37.9591321,3.2928 37.9591321,3.1381 L37.9591321,3.1381 L37.9591321,0.2499 C37.9591321,0.4039 37.8551698,0.5586 37.6479623,0.6748" id="Fill-37" fill="url(#linearGradient-20)" mask="url(#mask-19)"></path>
                            </g>
                            <path d="M137.761965,73.1808486 C137.345194,72.9397171 136.663533,72.9397171 136.247482,73.1808486 L118.312668,83.5560004 C117.895897,83.7971319 117.895897,84.1920389 118.311948,84.4331703 L136.247482,94.8191514 C136.663533,95.0602829 137.345194,95.0602829 137.761965,94.8191514 L155.687422,84.438946 C156.104193,84.1970925 156.104193,83.8029075 155.687422,83.561776 L137.761965,73.1808486 Z" id="Fill-40" fill="#F0F1FE"></path>
                        </g>
                    </g>
                </g>
            </g>
        </g>
    </g>
</svg>