<?xml version="1.0" encoding="UTF-8"?>
<svg width="190px" height="128px" viewBox="0 0 190 128" version="1.1" xmlns="http://www.w3.org/2000/svg" xmlns:xlink="http://www.w3.org/1999/xlink">
    <!-- Generator: Sketch 54.1 (76490) - https://sketchapp.com -->
    <title>uc_sales</title>
    <desc>Created with Sketch.</desc>
    <defs>
        <polygon id="path-1" points="0 127.477389 189.571503 127.477389 189.571503 -2.84217094e-14 0 -2.84217094e-14"></polygon>
        <polygon id="path-3" points="0 127.477389 189.571503 127.477389 189.571503 -2.84217094e-14 0 -2.84217094e-14"></polygon>
        <polygon id="path-5" points="0 127.477389 189.571503 127.477389 189.571503 -2.84217094e-14 0 -2.84217094e-14"></polygon>
        <polygon id="path-7" points="0 127.477389 189.571503 127.477389 189.571503 -2.84217094e-14 0 -2.84217094e-14"></polygon>
        <polygon id="path-9" points="0 127.477389 189.571503 127.477389 189.571503 -2.84217094e-14 0 -2.84217094e-14"></polygon>
        <polygon id="path-11" points="0 127.477389 189.571503 127.477389 189.571503 -2.84217094e-14 0 -2.84217094e-14"></polygon>
        <polygon id="path-13" points="0 127.477389 189.571503 127.477389 189.571503 -2.84217094e-14 0 -2.84217094e-14"></polygon>
        <polygon id="path-15" points="0 127.477389 189.571503 127.477389 189.571503 -2.84217094e-14 0 -2.84217094e-14"></polygon>
        <polygon id="path-17" points="0 127.477389 189.571503 127.477389 189.571503 -2.84217094e-14 0 -2.84217094e-14"></polygon>
        <polygon id="path-19" points="0 127.477389 189.571503 127.477389 189.571503 -2.84217094e-14 0 -2.84217094e-14"></polygon>
        <polygon id="path-21" points="0 127.477389 189.571503 127.477389 189.571503 -2.84217094e-14 0 -2.84217094e-14"></polygon>
        <polygon id="path-23" points="0 127.477389 189.571503 127.477389 189.571503 -2.84217094e-14 0 -2.84217094e-14"></polygon>
        <polygon id="path-25" points="0 127.477389 189.571503 127.477389 189.571503 -2.84217094e-14 0 -2.84217094e-14"></polygon>
        <polygon id="path-27" points="0 127.477389 189.571503 127.477389 189.571503 -2.84217094e-14 0 -2.84217094e-14"></polygon>
        <polygon id="path-29" points="0 127.477389 189.571503 127.477389 189.571503 -2.84217094e-14 0 -2.84217094e-14"></polygon>
        <polygon id="path-31" points="0 127.477389 189.571503 127.477389 189.571503 -2.84217094e-14 0 -2.84217094e-14"></polygon>
        <polygon id="path-33" points="0 127.477389 189.571503 127.477389 189.571503 -2.84217094e-14 0 -2.84217094e-14"></polygon>
        <polygon id="path-35" points="0 127.477389 189.571503 127.477389 189.571503 -2.84217094e-14 0 -2.84217094e-14"></polygon>
        <polygon id="path-37" points="0 127.477389 189.571503 127.477389 189.571503 -2.84217094e-14 0 -2.84217094e-14"></polygon>
        <polygon id="path-39" points="0 127.477389 189.571503 127.477389 189.571503 -2.84217094e-14 0 -2.84217094e-14"></polygon>
        <polygon id="path-41" points="0 127.477389 189.571503 127.477389 189.571503 -2.84217094e-14 0 -2.84217094e-14"></polygon>
        <polygon id="path-43" points="0 127.477389 189.571503 127.477389 189.571503 -2.84217094e-14 0 -2.84217094e-14"></polygon>
        <polygon id="path-45" points="0 127.477389 189.571503 127.477389 189.571503 -2.84217094e-14 0 -2.84217094e-14"></polygon>
        <polygon id="path-47" points="0 127.477389 189.571503 127.477389 189.571503 -2.84217094e-14 0 -2.84217094e-14"></polygon>
        <polygon id="path-49" points="0 127.477389 189.571503 127.477389 189.571503 -2.84217094e-14 0 -2.84217094e-14"></polygon>
        <polygon id="path-51" points="0 127.477389 189.571503 127.477389 189.571503 -2.84217094e-14 0 -2.84217094e-14"></polygon>
        <polygon id="path-53" points="0 127.477389 189.571503 127.477389 189.571503 -2.84217094e-14 0 -2.84217094e-14"></polygon>
        <polygon id="path-55" points="0 127.477389 189.571503 127.477389 189.571503 -2.84217094e-14 0 -2.84217094e-14"></polygon>
        <polygon id="path-57" points="0 127.477389 189.571503 127.477389 189.571503 -2.84217094e-14 0 -2.84217094e-14"></polygon>
        <polygon id="path-59" points="0 127.477389 189.571503 127.477389 189.571503 -2.84217094e-14 0 -2.84217094e-14"></polygon>
        <polygon id="path-61" points="0 127.477389 189.571503 127.477389 189.571503 -2.84217094e-14 0 -2.84217094e-14"></polygon>
    </defs>
    <g id="Page-1" stroke="none" stroke-width="1" fill="none" fill-rule="evenodd">
        <g id="uc_sales">
            <path d="M176.942815,102.464398 L12.6286888,102.464398 C11.1352622,102.464398 9.92484266,101.256025 9.92484266,99.7651233 L9.92484266,2.69934093 C9.92484266,1.20910259 11.1352622,6.63212435e-05 12.6286888,6.63212435e-05 L176.942815,6.63212435e-05 C178.436241,6.63212435e-05 179.646661,1.20910259 179.646661,2.69934093 L179.646661,99.7651233 C179.646661,101.256025 178.436241,102.464398 176.942815,102.464398" id="Fill-1" fill="#FFFFFF" fill-rule="nonzero"></path>
            <g id="Fill-3-Clipped">
                <mask id="mask-2" fill="white">
                    <use xlink:href="#path-1"></use>
                </mask>
                <g id="path-1"></g>
                <polygon id="Fill-3" fill="#F7F7F7" fill-rule="nonzero" mask="url(#mask-2)" points="14.4811888 102.464332 174.394755 102.464332 174.394755 5.63266321 14.4811888 5.63266321"></polygon>
            </g>
            <g id="Fill-5-Clipped">
                <mask id="mask-4" fill="white">
                    <use xlink:href="#path-3"></use>
                </mask>
                <g id="path-1"></g>
                <path d="M184.405364,109.785666 L5.16627273,109.785666 C2.31295105,109.785666 0.000398601399,107.476361 0.000398601399,104.627863 L0.000398601399,97.3796145 L189.571902,97.3796145 L189.571902,104.627863 C189.571902,107.476361 187.258685,109.785666 184.405364,109.785666" id="Fill-5" fill="#FFFFFF" fill-rule="nonzero" mask="url(#mask-4)"></path>
            </g>
            <g id="Fill-6-Clipped">
                <mask id="mask-6" fill="white">
                    <use xlink:href="#path-5"></use>
                </mask>
                <g id="path-1"></g>
                <path d="M117.971997,102.464398 L71.5993741,102.464398 C69.8880455,102.464398 68.5002483,101.078947 68.5002483,99.3705119 L68.5002483,97.3795482 L121.071122,97.3795482 L121.071122,99.3705119 C121.071122,101.078947 119.68399,102.464398 117.971997,102.464398" id="Fill-6" fill="#D8D8D8" fill-rule="nonzero" mask="url(#mask-6)"></path>
            </g>
            <g id="Fill-7-Clipped">
                <mask id="mask-8" fill="white">
                    <use xlink:href="#path-7"></use>
                </mask>
                <g id="path-1"></g>
                <polygon id="Fill-7" fill="#FCCA29" fill-rule="nonzero" mask="url(#mask-8)" points="29.552972 83.0428187 37.1543007 83.0428187 37.1543007 68.149057 29.552972 68.149057"></polygon>
            </g>
            <g id="Fill-8-Clipped">
                <mask id="mask-10" fill="white">
                    <use xlink:href="#path-9"></use>
                </mask>
                <g id="path-1"></g>
                <polygon id="Fill-8" fill="#03E59F" fill-rule="nonzero" mask="url(#mask-10)" points="49.3461888 83.0428187 56.9481818 83.0428187 56.9481818 55.074487 49.3461888 55.074487"></polygon>
            </g>
            <g id="Fill-9-Clipped">
                <mask id="mask-12" fill="white">
                    <use xlink:href="#path-11"></use>
                </mask>
                <g id="path-1"></g>
                <polygon id="Fill-9" fill="#31C5FF" fill-rule="nonzero" mask="url(#mask-12)" points="69.1400699 83.0428187 76.7413986 83.0428187 76.7413986 57.9660933 69.1400699 57.9660933"></polygon>
            </g>
            <g id="Fill-10-Clipped">
                <mask id="mask-14" fill="white">
                    <use xlink:href="#path-13"></use>
                </mask>
                <g id="path-1"></g>
                <polygon id="Fill-10" fill="#6582FF" fill-rule="nonzero" mask="url(#mask-14)" points="88.933951 83.0428187 96.5352797 83.0428187 96.5352797 43.8078342 88.933951 43.8078342"></polygon>
            </g>
            <g id="Fill-11-Clipped">
                <mask id="mask-16" fill="white">
                    <use xlink:href="#path-15"></use>
                </mask>
                <g id="path-1"></g>
                <polygon id="Fill-11" fill="#D5DBDA" fill-rule="nonzero" mask="url(#mask-16)" points="99.9243881 88.2868394 21.9293881 88.2868394 21.9293881 29.7258446 22.9670804 29.7258446 22.9670804 87.2509016 99.9243881 87.2509016"></polygon>
            </g>
            <g id="Fill-12-Clipped">
                <mask id="mask-18" fill="white">
                    <use xlink:href="#path-17"></use>
                </mask>
                <g id="path-1"></g>
                <polygon id="Fill-12" fill="#D5DBDA" fill-rule="nonzero" mask="url(#mask-18)" points="28.9173357 65.0182301 28.2244336 64.2475772 46.019993 48.2946653 62.5034895 51.8693803 89.4336643 32.0320332 90.4826503 32.8073285 62.8728601 53.0094425 46.3182797 49.4194736"></polygon>
            </g>
            <g id="Fill-13-Clipped">
                <mask id="mask-20" fill="white">
                    <use xlink:href="#path-19"></use>
                </mask>
                <g id="path-1"></g>
                <polygon id="Fill-13" fill="#D5DBDA" fill-rule="nonzero" mask="url(#mask-20)" points="92.2670559 35.3091648 87.234049 30.4909264 93.7319161 28.7552995"></polygon>
            </g>
            <g id="Fill-14-Clipped">
                <mask id="mask-22" fill="white">
                    <use xlink:href="#path-21"></use>
                </mask>
                <g id="path-1"></g>
                <polygon id="Fill-14" fill="#FCCA29" fill-rule="nonzero" mask="url(#mask-22)" points="21.6440559 21.5577202 26.8644056 21.5577202 26.8644056 16.3461969 21.6440559 16.3461969"></polygon>
            </g>
            <g id="Fill-15-Clipped">
                <mask id="mask-24" fill="white">
                    <use xlink:href="#path-23"></use>
                </mask>
                <g id="path-1"></g>
                <polygon id="Fill-15" fill="#D5DBDA" fill-rule="nonzero" mask="url(#mask-24)" points="28.8574126 21.5577202 38.096993 21.5577202 38.096993 19.5577202 28.8574126 19.5577202"></polygon>
            </g>
            <g id="Fill-16-Clipped">
                <mask id="mask-26" fill="white">
                    <use xlink:href="#path-25"></use>
                </mask>
                <g id="path-1"></g>
                <polygon id="Fill-16" fill="#D5DBDA" fill-rule="nonzero" mask="url(#mask-26)" points="105.816713 20.1775751 166.42472 20.1775751 166.42472 18.8179896 105.816713 18.8179896"></polygon>
            </g>
            <g id="Fill-17-Clipped">
                <mask id="mask-28" fill="white">
                    <use xlink:href="#path-27"></use>
                </mask>
                <g id="path-1"></g>
                <polygon id="Fill-17" fill="#D5DBDA" fill-rule="nonzero" mask="url(#mask-28)" points="105.634685 24.4055544 166.42472 24.4055544 166.42472 23.0459689 105.634685 23.0459689"></polygon>
            </g>
            <g id="Fill-18-Clipped">
                <mask id="mask-30" fill="white">
                    <use xlink:href="#path-29"></use>
                </mask>
                <g id="path-1"></g>
                <polygon id="Fill-18" fill="#D5DBDA" fill-rule="nonzero" mask="url(#mask-30)" points="105.634685 28.6341969 166.42472 28.6341969 166.42472 27.2746114 105.634685 27.2746114"></polygon>
            </g>
            <g id="Fill-19-Clipped">
                <mask id="mask-32" fill="white">
                    <use xlink:href="#path-31"></use>
                </mask>
                <g id="path-1"></g>
                <polygon id="Fill-19" fill="#D5DBDA" fill-rule="nonzero" mask="url(#mask-32)" points="105.634685 32.8628394 166.42472 32.8628394 166.42472 31.5032539 105.634685 31.5032539"></polygon>
            </g>
            <g id="Fill-20-Clipped">
                <mask id="mask-34" fill="white">
                    <use xlink:href="#path-33"></use>
                </mask>
                <g id="path-1"></g>
                <polygon id="Fill-20" fill="#D5DBDA" fill-rule="nonzero" mask="url(#mask-34)" points="105.634685 37.0914819 166.42472 37.0914819 166.42472 35.7318964 105.634685 35.7318964"></polygon>
            </g>
            <g id="Fill-21-Clipped">
                <mask id="mask-36" fill="white">
                    <use xlink:href="#path-35"></use>
                </mask>
                <g id="path-1"></g>
                <polygon id="Fill-21" fill="#D5DBDA" fill-rule="nonzero" mask="url(#mask-36)" points="105.634685 41.3194611 166.42472 41.3194611 166.42472 39.9598756 105.634685 39.9598756"></polygon>
            </g>
            <g id="Fill-22-Clipped">
                <mask id="mask-38" fill="white">
                    <use xlink:href="#path-37"></use>
                </mask>
                <g id="path-1"></g>
                <polygon id="Fill-22" fill="#D5DBDA" fill-rule="nonzero" mask="url(#mask-38)" points="105.634685 45.5481036 166.42472 45.5481036 166.42472 44.1885181 105.634685 44.1885181"></polygon>
            </g>
            <g id="Fill-23-Clipped">
                <mask id="mask-40" fill="white">
                    <use xlink:href="#path-39"></use>
                </mask>
                <g id="path-1"></g>
                <polygon id="Fill-23" fill="#D5DBDA" fill-rule="nonzero" mask="url(#mask-40)" points="105.634685 49.7767461 166.42472 49.7767461 166.42472 48.4171606 105.634685 48.4171606"></polygon>
            </g>
            <g id="Fill-24-Clipped">
                <mask id="mask-42" fill="white">
                    <use xlink:href="#path-41"></use>
                </mask>
                <g id="path-1"></g>
                <polygon id="Fill-24" fill="#D5DBDA" fill-rule="nonzero" mask="url(#mask-42)" points="113.077238 54.0053886 166.42472 54.0053886 166.42472 52.6458031 113.077238 52.6458031"></polygon>
            </g>
            <g id="Fill-25-Clipped">
                <mask id="mask-44" fill="white">
                    <use xlink:href="#path-43"></use>
                </mask>
                <g id="path-1"></g>
                <polygon id="Fill-25" fill="#03E59F" fill-rule="nonzero" mask="url(#mask-44)" points="42.7393706 21.5577202 47.9597203 21.5577202 47.9597203 16.3461969 42.7393706 16.3461969"></polygon>
            </g>
            <g id="Fill-26-Clipped">
                <mask id="mask-46" fill="white">
                    <use xlink:href="#path-45"></use>
                </mask>
                <g id="path-1"></g>
                <polygon id="Fill-26" fill="#D5DBDA" fill-rule="nonzero" mask="url(#mask-46)" points="50.0105245 21.5577202 59.2501049 21.5577202 59.2501049 19.5577202 50.0105245 19.5577202"></polygon>
            </g>
            <g id="Fill-27-Clipped">
                <mask id="mask-48" fill="white">
                    <use xlink:href="#path-47"></use>
                </mask>
                <g id="path-1"></g>
                <polygon id="Fill-27" fill="#31C5FF" fill-rule="nonzero" mask="url(#mask-48)" points="62.8328671 21.5577202 68.0532168 21.5577202 68.0532168 16.3461969 62.8328671 16.3461969"></polygon>
            </g>
            <g id="Fill-28-Clipped">
                <mask id="mask-50" fill="white">
                    <use xlink:href="#path-49"></use>
                </mask>
                <g id="path-1"></g>
                <polygon id="Fill-28" fill="#D5DBDA" fill-rule="nonzero" mask="url(#mask-50)" points="69.8044056 21.5577202 79.043986 21.5577202 79.043986 19.5577202 69.8044056 19.5577202"></polygon>
            </g>
            <g id="Fill-29-Clipped">
                <mask id="mask-52" fill="white">
                    <use xlink:href="#path-51"></use>
                </mask>
                <g id="path-1"></g>
                <polygon id="Fill-29" fill="#6582FF" fill-rule="nonzero" mask="url(#mask-52)" points="83.2638462 21.5577202 88.4841958 21.5577202 88.4841958 16.3461969 83.2638462 16.3461969"></polygon>
            </g>
            <g id="Fill-30-Clipped">
                <mask id="mask-54" fill="white">
                    <use xlink:href="#path-53"></use>
                </mask>
                <g id="path-1"></g>
                <polygon id="Fill-30" fill="#D5DBDA" fill-rule="nonzero" mask="url(#mask-54)" points="90.4831818 21.5577202 99.7227622 21.5577202 99.7227622 19.5577202 90.4831818 19.5577202"></polygon>
            </g>
            <g id="Fill-31-Clipped">
                <mask id="mask-56" fill="white">
                    <use xlink:href="#path-55"></use>
                </mask>
                <g id="path-1"></g>
                <polygon id="Fill-31" fill="#F8B025" fill-rule="nonzero" mask="url(#mask-56)" points="116.062895 59.1024415 109.45342 127.463063 174.394888 127.477654 168.113594 58.9863793"></polygon>
            </g>
            <g id="Fill-32-Clipped">
                <mask id="mask-58" fill="white">
                    <use xlink:href="#path-57"></use>
                </mask>
                <g id="path-1"></g>
                <path d="M129.819759,64.0813762 C128.909619,64.0846922 128.171542,64.6570446 128.171542,65.3560705 C128.175528,66.057086 128.914934,66.6254591 129.82308,66.6254591 L129.825738,66.6254591 C130.735878,66.6228062 131.475283,66.0504539 131.473955,65.351428 C131.470633,64.6504124 130.730563,64.0813762 129.82308,64.0813762 L129.819759,64.0813762 Z M127.386297,65.3600497 L127.386297,65.3580601 C127.384969,64.2259565 128.474479,63.3007751 129.817766,63.2974591 L129.821087,63.2974591 C131.162381,63.2974591 132.255878,64.2153451 132.259199,65.3494383 C132.261192,66.481542 131.171017,67.4067233 129.827731,67.4100394 L129.824409,67.4100394 C128.483115,67.4100394 127.389619,66.4921534 127.386297,65.3600497 L127.386297,65.3600497 Z" id="Fill-32" fill="#E59803" fill-rule="nonzero" mask="url(#mask-58)"></path>
            </g>
            <g id="Fill-33-Clipped">
                <mask id="mask-60" fill="white">
                    <use xlink:href="#path-59"></use>
                </mask>
                <g id="path-1"></g>
                <path d="M154.02051,64.027258 C153.508972,64.0292477 153.032643,64.2103047 152.718413,64.5279834 C152.561629,64.6838383 152.374951,64.9458073 152.376944,65.3006259 C152.380266,66.0009782 153.119671,66.5700145 154.027154,66.5700145 L154.03114,66.5700145 C154.48621,66.5680249 154.910056,66.4254342 155.22628,66.1674446 C155.516594,65.9280249 155.676699,65.6196311 155.676699,65.2953202 C155.673378,64.5962943 154.935301,64.027258 154.027154,64.027258 L154.02051,64.027258 Z M151.591035,65.303942 L151.983657,65.3019523 L151.591035,65.303942 C151.589042,64.8164808 151.791664,64.3442736 152.160371,63.9728746 C152.62142,63.5099523 153.299706,63.2433409 154.018517,63.2433409 L154.029147,63.2433409 C155.367119,63.2433409 156.458622,64.1592373 156.461944,65.2920041 C156.463937,65.8570611 156.202189,66.3829886 155.723867,66.7736207 C155.270126,67.1470093 154.670231,67.3526052 154.032469,67.3539316 L154.029147,67.3539316 C152.687853,67.3539316 151.594357,66.4360456 151.591035,65.303942 L151.591035,65.303942 Z" id="Fill-33" fill="#E59803" fill-rule="nonzero" mask="url(#mask-60)"></path>
            </g>
            <g id="Fill-34-Clipped">
                <mask id="mask-62" fill="white">
                    <use xlink:href="#path-61"></use>
                </mask>
                <g id="path-1"></g>
                <path d="M141.208731,80.299971 C141.434605,80.299971 141.664465,80.2966549 141.898976,80.2880332 C146.346703,80.1401368 149.738801,78.7095876 151.979605,76.0381679 C155.68992,71.6145409 154.849535,65.4460021 154.812332,65.186686 C154.74922,64.758914 154.346633,64.4465409 153.922787,64.5228104 C153.492962,64.5838259 153.19401,64.9810902 153.255129,65.4088622 C153.263766,65.4665617 154.028416,71.1615668 150.767192,75.0400332 C148.826003,77.3480124 145.823206,78.5868933 141.846493,78.7195358 C137.995339,78.8336083 135.125409,77.8354736 133.214115,75.7118674 C129.747612,71.8592663 130.600619,65.5275772 130.609255,65.4632456 C130.670374,65.0354736 130.371423,64.6368829 129.940934,64.5752041 C129.526388,64.5128622 129.113171,64.8113078 129.052052,65.2410694 C129.011528,65.5295668 128.082787,72.3480539 132.037577,76.7544373 C134.152822,79.1081782 137.235339,80.299971 141.208731,80.299971" id="Fill-34" fill="#FFFFFF" fill-rule="nonzero" mask="url(#mask-62)"></path>
            </g>
        </g>
    </g>
</svg>