<?xml version="1.0" encoding="UTF-8"?>
<svg width="192px" height="114px" viewBox="0 0 192 114" version="1.1" xmlns="http://www.w3.org/2000/svg" xmlns:xlink="http://www.w3.org/1999/xlink">
    <!-- Generator: Sketch 54.1 (76490) - https://sketchapp.com -->
    <title>uc_seo</title>
    <desc>Created with Sketch.</desc>
    <defs>
        <polygon id="path-1" points="0.629465 0.319207143 171.798385 0.319207143 171.798385 106.604798 0.629465 106.604798"></polygon>
        <polygon id="path-3" points="0 113.511161 191.18785 113.511161 191.18785 0.319207143 0 0.319207143"></polygon>
        <polygon id="path-5" points="0 113.511161 191.18785 113.511161 191.18785 0.319207143 0 0.319207143"></polygon>
        <polygon id="path-7" points="0 113.511161 191.18785 113.511161 191.18785 0.319207143 0 0.319207143"></polygon>
        <polygon id="path-9" points="0 113.511161 191.18785 113.511161 191.18785 0.319207143 0 0.319207143"></polygon>
        <polygon id="path-11" points="0 113.511161 191.18785 113.511161 191.18785 0.319207143 0 0.319207143"></polygon>
        <polygon id="path-13" points="0 113.511161 191.18785 113.511161 191.18785 0.319207143 0 0.319207143"></polygon>
        <polygon id="path-15" points="0 113.511161 191.18785 113.511161 191.18785 0.319207143 0 0.319207143"></polygon>
        <polygon id="path-17" points="0 113.511161 191.18785 113.511161 191.18785 0.319207143 0 0.319207143"></polygon>
        <polygon id="path-19" points="0 113.511161 191.18785 113.511161 191.18785 0.319207143 0 0.319207143"></polygon>
        <polygon id="path-21" points="0 113.511161 191.18785 113.511161 191.18785 0.319207143 0 0.319207143"></polygon>
        <polygon id="path-23" points="0 113.511161 191.18785 113.511161 191.18785 0.319207143 0 0.319207143"></polygon>
        <polygon id="path-25" points="0 113.511161 191.18785 113.511161 191.18785 0.319207143 0 0.319207143"></polygon>
        <polygon id="path-27" points="0 113.511161 191.18785 113.511161 191.18785 0.319207143 0 0.319207143"></polygon>
    </defs>
    <g id="Page-1" stroke="none" stroke-width="1" fill="none" fill-rule="evenodd">
        <g id="uc_seo">
            <g id="Group-18" transform="translate(0.000000, 0.368739)">
                <g id="Group-3" transform="translate(9.380000, 0.000000)">
                    <g id="Fill-1-Clipped">
                        <mask id="mask-2" fill="white">
                            <use xlink:href="#path-1"></use>
                        </mask>
                        <g id="path-1"></g>
                        <path d="M169.071485,106.604798 L3.356365,106.604798 C1.850205,106.604798 0.629465,105.351359 0.629465,103.804856 L0.629465,3.11908031 C0.629465,1.57326469 1.850205,0.319138348 3.356365,0.319138348 L169.071485,0.319138348 C170.577645,0.319138348 171.798385,1.57326469 171.798385,3.11908031 L171.798385,103.804856 C171.798385,105.351359 170.577645,106.604798 169.071485,106.604798" id="Fill-1" fill="#FFFFFF" fill-rule="nonzero" mask="url(#mask-2)"></path>
                    </g>
                </g>
                <g id="Fill-4-Clipped">
                    <mask id="mask-4" fill="white">
                        <use xlink:href="#path-3"></use>
                    </mask>
                    <g id="path-3"></g>
                    <polygon id="Fill-4" fill="#EFEFEF" fill-rule="nonzero" mask="url(#mask-4)" points="14.60466 106.604867 175.8817 106.604867 175.8817 6.16193616 14.60466 6.16193616"></polygon>
                </g>
                <g id="Fill-6-Clipped">
                    <mask id="mask-6" fill="white">
                        <use xlink:href="#path-5"></use>
                    </mask>
                    <g id="path-3"></g>
                    <path d="M185.977662,113.511161 L5.210322,113.511161 C2.332672,113.511161 0.000402,111.115731 0.000402,108.161001 L0.000402,100.642435 L191.188252,100.642435 L191.188252,108.161001 C191.188252,111.115731 188.855312,113.511161 185.977662,113.511161" id="Fill-6" fill="#FFFFFF" fill-rule="nonzero" mask="url(#mask-6)"></path>
                </g>
                <g id="Fill-7-Clipped">
                    <mask id="mask-8" fill="white">
                        <use xlink:href="#path-7"></use>
                    </mask>
                    <g id="path-3"></g>
                    <path d="M118.89356,105.530746 L72.12555,105.530746 C70.39963,105.530746 69,104.093626 69,102.321476 L69,100.256261 L122.01911,100.256261 L122.01911,102.321476 C122.01911,104.093626 120.62015,105.530746 118.89356,105.530746" id="Fill-7" fill="#D8D8D8" fill-rule="nonzero" mask="url(#mask-8)"></path>
                </g>
                <g id="Fill-8-Clipped">
                    <mask id="mask-10" fill="white">
                        <use xlink:href="#path-9"></use>
                    </mask>
                    <g id="path-3"></g>
                    <path d="M175.883107,17.5887951 L14.706567,17.5887951 L14.706567,8.03321924 C14.706567,7.16847058 15.389297,6.46745317 16.230817,6.46745317 L174.358857,6.46745317 C175.200377,6.46745317 175.883107,7.16847058 175.883107,8.03321924 L175.883107,17.5887951 Z" id="Fill-8" fill="#C3D4FB" fill-rule="nonzero" mask="url(#mask-10)"></path>
                </g>
                <g id="Fill-9-Clipped">
                    <mask id="mask-12" fill="white">
                        <use xlink:href="#path-11"></use>
                    </mask>
                    <g id="path-3"></g>
                    <path d="M26.686234,12.0281929 C26.686234,13.3834474 25.616244,14.4820979 24.296344,14.4820979 C22.976444,14.4820979 21.906454,13.3834474 21.906454,12.0281929 C21.906454,10.6729385 22.976444,9.57428804 24.296344,9.57428804 C25.616244,9.57428804 26.686234,10.6729385 26.686234,12.0281929" id="Fill-9" fill="#6582DB" fill-rule="nonzero" mask="url(#mask-12)"></path>
                </g>
                <g id="Fill-10-Clipped">
                    <mask id="mask-14" fill="white">
                        <use xlink:href="#path-13"></use>
                    </mask>
                    <g id="path-3"></g>
                    <path d="M36.586824,12.0281929 C36.586824,13.3834474 35.516834,14.4820979 34.196934,14.4820979 C32.877034,14.4820979 31.807044,13.3834474 31.807044,12.0281929 C31.807044,10.6729385 32.877034,9.57428804 34.196934,9.57428804 C35.516834,9.57428804 36.586824,10.6729385 36.586824,12.0281929" id="Fill-10" fill="#6582DB" fill-rule="nonzero" mask="url(#mask-14)"></path>
                </g>
                <g id="Fill-11-Clipped">
                    <mask id="mask-16" fill="white">
                        <use xlink:href="#path-15"></use>
                    </mask>
                    <g id="path-3"></g>
                    <path d="M46.487414,12.0281929 C46.487414,13.3834474 45.417424,14.4820979 44.097524,14.4820979 C42.777624,14.4820979 41.707634,13.3834474 41.707634,12.0281929 C41.707634,10.6729385 42.777624,9.57428804 44.097524,9.57428804 C45.417424,9.57428804 46.487414,10.6729385 46.487414,12.0281929" id="Fill-11" fill="#6582DB" fill-rule="nonzero" mask="url(#mask-16)"></path>
                </g>
                <g id="Fill-12-Clipped">
                    <mask id="mask-18" fill="white">
                        <use xlink:href="#path-17"></use>
                    </mask>
                    <g id="path-3"></g>
                    <path d="M82.204712,61.4854872 L34.717122,61.4854872 C33.832052,61.4854872 33.115152,60.7486966 33.115152,59.8406073 L33.115152,59.3452859 C33.115152,58.4365087 33.832052,57.699718 34.717122,57.699718 L82.204712,57.699718 C83.089782,57.699718 83.806682,58.4365087 83.806682,59.3452859 L83.806682,59.8406073 C83.806682,60.7486966 83.089782,61.4854872 82.204712,61.4854872" id="Fill-12" fill="#31C5FF" fill-rule="nonzero" mask="url(#mask-18)"></path>
                </g>
                <g id="Fill-13-Clipped">
                    <mask id="mask-20" fill="white">
                        <use xlink:href="#path-19"></use>
                    </mask>
                    <g id="path-3"></g>
                    <path d="M64.432091,66.8760291 L34.477731,66.8760291 C33.841901,66.8760291 33.326001,66.3463103 33.326001,65.6927612 C33.326001,65.0399 33.841901,64.5101813 34.477731,64.5101813 L64.432091,64.5101813 C65.068591,64.5101813 65.583821,65.0399 65.583821,65.6927612 L65.583821,65.6934492 C65.583821,66.3463103 65.068591,66.8760291 64.432091,66.8760291" id="Fill-13" fill="#03E59F" fill-rule="nonzero" mask="url(#mask-20)"></path>
                </g>
                <g id="Fill-14-Clipped">
                    <mask id="mask-22" fill="white">
                        <use xlink:href="#path-21"></use>
                    </mask>
                    <g id="path-3"></g>
                    <path d="M64.432091,72.0809629 L34.477731,72.0809629 C33.841901,72.0809629 33.326001,71.5512442 33.326001,70.898383 C33.326001,70.2448339 33.841901,69.7151152 34.477731,69.7151152 L64.432091,69.7151152 C65.068591,69.7151152 65.583821,70.2448339 65.583821,70.898383 C65.583821,71.5512442 65.068591,72.0809629 64.432091,72.0809629" id="Fill-14" fill="#FFFFFF" fill-rule="nonzero" mask="url(#mask-22)"></path>
                </g>
                <g id="Fill-15-Clipped">
                    <mask id="mask-24" fill="white">
                        <use xlink:href="#path-23"></use>
                    </mask>
                    <g id="path-3"></g>
                    <path d="M147.510751,48.3153032 L42.348221,48.3153032 C36.653891,48.3153032 32.036921,44.1380925 32.036921,38.9853738 C32.036921,33.832655 36.653891,29.6554443 42.348221,29.6554443 L147.510751,29.6554443 C153.205751,29.6554443 157.822051,33.832655 157.822051,38.9853738 C157.822051,44.1380925 153.205751,48.3153032 147.510751,48.3153032" id="Fill-15" fill="#6582DB" fill-rule="nonzero" mask="url(#mask-24)"></path>
                </g>
                <g id="Fill-16-Clipped">
                    <mask id="mask-26" fill="white">
                        <use xlink:href="#path-25"></use>
                    </mask>
                    <g id="path-3"></g>
                    <path d="M148.884452,48.2246319 L143.454102,48.2246319 C138.484042,48.2246319 134.455332,44.08801 134.455332,38.9855113 C134.455332,33.8823247 138.484042,29.7463908 143.454102,29.7463908 L148.884452,29.7463908 C153.853842,29.7463908 157.882552,33.8823247 157.882552,38.9855113 C157.882552,44.08801 153.853842,48.2246319 148.884452,48.2246319" id="Fill-16" fill="#3C57AB" fill-rule="nonzero" mask="url(#mask-26)"></path>
                </g>
                <g id="Fill-17-Clipped">
                    <mask id="mask-28" fill="white">
                        <use xlink:href="#path-27"></use>
                    </mask>
                    <g id="path-3"></g>
                    <path d="M143.303218,39.5776268 C142.208438,38.4528344 142.208438,36.622209 143.303218,35.4967286 C143.851278,34.9346764 144.570858,34.6533063 145.289768,34.6533063 C146.010018,34.6533063 146.728928,34.9346764 147.277658,35.4967286 C148.372438,36.622209 148.372438,38.4528344 147.277658,39.5776268 C146.215708,40.666646 144.367178,40.666646 143.303218,39.5776268 L143.303218,39.5776268 Z M151.602508,43.2980411 L148.295388,39.9016496 C149.437068,38.3723447 149.342598,36.1750438 147.979148,34.7757608 C146.495098,33.2512715 144.083098,33.2533353 142.601058,34.7757608 C141.118348,36.2988742 141.118348,38.7768572 142.601058,40.2985947 C143.319298,41.0367612 144.274048,41.4433375 145.289768,41.4433375 C146.137988,41.4433375 146.933948,41.1461447 147.594568,40.6239933 L150.901018,44.019009 L151.602508,43.2980411 Z" id="Fill-17" fill="#FFFFFF" fill-rule="nonzero" mask="url(#mask-28)"></path>
                </g>
            </g>
            <text id="sea" fill="#FFFFFF" font-family="Helvetica" font-size="10.014423" font-weight="normal">
                <tspan x="40.134541" y="42.4988458">sea</tspan>
            </text>
            <text id="r" fill="#FFFFFF" font-family="Helvetica" font-size="10.014423" font-weight="normal">
                <tspan x="56.3813421" y="42.4988458">r</tspan>
            </text>
            <text id="ch" fill="#FFFFFF" font-family="Helvetica" font-size="10.014423" font-weight="normal">
                <tspan x="59.6295502" y="42.4988458">ch</tspan>
            </text>
            <g id="Group-37" transform="translate(32.830000, 57.468293)" fill-rule="nonzero">
                <path d="M49.374712,25.0243265 L1.887122,25.0243265 C1.002052,25.0243265 0.285152,24.2875359 0.285152,23.3794466 L0.285152,22.8841252 C0.285152,21.9753479 1.002052,21.2385573 1.887122,21.2385573 L49.374712,21.2385573 C50.259782,21.2385573 50.976682,21.9753479 50.976682,22.8841252 L50.976682,23.3794466 C50.976682,24.2875359 50.259782,25.0243265 49.374712,25.0243265" id="Fill-19" fill="#31C5FF"></path>
                <path d="M31.602091,30.4148683 L1.647731,30.4148683 C1.011901,30.4148683 0.496001,29.8851496 0.496001,29.2316005 C0.496001,28.5787393 1.011901,28.0490206 1.647731,28.0490206 L31.602091,28.0490206 C32.238591,28.0490206 32.753821,28.5787393 32.753821,29.2316005 L32.753821,29.2322884 C32.753821,29.8851496 32.238591,30.4148683 31.602091,30.4148683" id="Fill-21" fill="#03E59F"></path>
                <path d="M31.602091,35.6198022 L1.647731,35.6198022 C1.011901,35.6198022 0.496001,35.0900835 0.496001,34.4372223 C0.496001,33.7836732 1.011901,33.2539545 1.647731,33.2539545 L31.602091,33.2539545 C32.238591,33.2539545 32.753821,33.7836732 32.753821,34.4372223 C32.753821,35.0900835 32.238591,35.6198022 31.602091,35.6198022" id="Fill-23" fill="#FFFFFF"></path>
                <path d="M121.064712,4.38593366 L73.577122,4.38593366 C72.692052,4.38593366 71.975152,3.64914304 71.975152,2.74105375 L71.975152,2.24573232 C71.975152,1.33695509 72.692052,0.600164464 73.577122,0.600164464 L121.064712,0.600164464 C121.949782,0.600164464 122.666682,1.33695509 122.666682,2.24573232 L122.666682,2.74105375 C122.666682,3.64914304 121.949782,4.38593366 121.064712,4.38593366" id="Fill-25" fill="#31C5FF"></path>
                <path d="M103.292091,9.77647549 L73.337731,9.77647549 C72.701901,9.77647549 72.186001,9.24675674 72.186001,8.59320763 C72.186001,7.94034647 72.701901,7.41062772 73.337731,7.41062772 L103.292091,7.41062772 C103.928591,7.41062772 104.443821,7.94034647 104.443821,8.59320763 L104.443821,8.59389558 C104.443821,9.24675674 103.928591,9.77647549 103.292091,9.77647549" id="Fill-27" fill="#03E59F"></path>
                <path d="M103.292091,14.9814094 L73.337731,14.9814094 C72.701901,14.9814094 72.186001,14.4516906 72.186001,13.7988295 C72.186001,13.1452804 72.701901,12.6155616 73.337731,12.6155616 L103.292091,12.6155616 C103.928591,12.6155616 104.443821,13.1452804 104.443821,13.7988295 C104.443821,14.4516906 103.928591,14.9814094 103.292091,14.9814094" id="Fill-29" fill="#FFFFFF"></path>
                <path d="M121.064712,25.0243265 L73.577122,25.0243265 C72.692052,25.0243265 71.975152,24.2875359 71.975152,23.3794466 L71.975152,22.8841252 C71.975152,21.9753479 72.692052,21.2385573 73.577122,21.2385573 L121.064712,21.2385573 C121.949782,21.2385573 122.666682,21.9753479 122.666682,22.8841252 L122.666682,23.3794466 C122.666682,24.2875359 121.949782,25.0243265 121.064712,25.0243265" id="Fill-31" fill="#31C5FF"></path>
                <path d="M103.292091,30.4148683 L73.337731,30.4148683 C72.701901,30.4148683 72.186001,29.8851496 72.186001,29.2316005 C72.186001,28.5787393 72.701901,28.0490206 73.337731,28.0490206 L103.292091,28.0490206 C103.928591,28.0490206 104.443821,28.5787393 104.443821,29.2316005 L104.443821,29.2322884 C104.443821,29.8851496 103.928591,30.4148683 103.292091,30.4148683" id="Fill-33" fill="#03E59F"></path>
                <path d="M103.292091,35.6198022 L73.337731,35.6198022 C72.701901,35.6198022 72.186001,35.0900835 72.186001,34.4372223 C72.186001,33.7836732 72.701901,33.2539545 73.337731,33.2539545 L103.292091,33.2539545 C103.928591,33.2539545 104.443821,33.7836732 104.443821,34.4372223 C104.443821,35.0900835 103.928591,35.6198022 103.292091,35.6198022" id="Fill-35" fill="#FFFFFF"></path>
            </g>
        </g>
    </g>
</svg>