<svg width="366" height="241" viewBox="0 0 366 241" fill="none" xmlns="http://www.w3.org/2000/svg">
<g filter="url(#filter0_d)">
<g clip-path="url(#clip0)">
<mask id="mask0" mask-type="alpha" maskUnits="userSpaceOnUse" x="39" y="1" width="288" height="223">
<path fill-rule="evenodd" clip-rule="evenodd" d="M39.1156 1.30066H326.667V223.201H39.1156V1.30066Z" fill="white"/>
</mask>
<g mask="url(#mask0)">
<path fill-rule="evenodd" clip-rule="evenodd" d="M326.667 214.655C326.667 219.384 323.046 223.201 318.594 223.201H47.1853C42.7336 223.201 39.1156 219.384 39.1156 214.655V9.84855C39.1156 5.12006 42.7336 1.29993 47.1853 1.29993H318.594C323.046 1.29993 326.667 5.12006 326.667 9.84855V214.655Z" fill="white"/>
</g>
<mask id="mask1" mask-type="alpha" maskUnits="userSpaceOnUse" x="3" y="1" width="360" height="235">
<path fill-rule="evenodd" clip-rule="evenodd" d="M3 236H362.778V1.30066H3V236Z" fill="white"/>
</mask>
<g mask="url(#mask1)">
<path fill-rule="evenodd" clip-rule="evenodd" d="M52 203.755H313.35V15.9999H52V203.755Z" fill="#191551"/>
<path d="M70 39C70 34.5817 73.5817 31 78 31H288C292.418 31 296 34.5817 296 39V203.754H70V39Z" fill="#2C267D"/>
<path fill-rule="evenodd" clip-rule="evenodd" d="M149.1 141H200C201.1 141 202.1 141.9 202.1 143.1C202.1 144.2 201.2 145.2 200 145.2H149.1C148 145.2 147 144.3 147 143.1C147 142 148 141 149.1 141Z" fill="#362F9C"/>
<path fill-rule="evenodd" clip-rule="evenodd" d="M149.1 165.3H200C201.1 165.3 202.1 166.2 202.1 167.4C202.1 168.5 201.2 169.5 200 169.5H149.1C148 169.5 147 168.6 147 167.4C147 166.3 148 165.3 149.1 165.3Z" fill="#362F9C"/>
<path fill-rule="evenodd" clip-rule="evenodd" d="M149.1 59H212.4C213.5 59 214.5 59.9 214.5 61.1C214.5 62.2 213.6 63.2 212.4 63.2H149.1C148 63.2 147 62.3 147 61.1C147 59.9 148 59 149.1 59Z" fill="#362F9C"/>
<path fill-rule="evenodd" clip-rule="evenodd" d="M149.1 70.2H212.4C213.5 70.2 214.5 71.0999 214.5 72.2999C214.5 73.3999 213.6 74.3999 212.4 74.3999H149.1C148 74.3999 147 73.4999 147 72.2999C147 71.0999 148 70.2 149.1 70.2Z" fill="#362F9C"/>
<path fill-rule="evenodd" clip-rule="evenodd" d="M149.1 81.3999H166.3C167.4 81.3999 168.4 82.2999 168.4 83.4999C168.4 84.5999 167.5 85.5999 166.3 85.5999H149.1C148 85.5999 147 84.6999 147 83.4999C147 82.2999 148 81.3999 149.1 81.3999Z" fill="#362F9C"/>
<path fill-rule="evenodd" clip-rule="evenodd" d="M149.1 175H166.3C167.4 175 168.4 175.9 168.4 177.1C168.4 178.2 167.5 179.2 166.3 179.2H149.1C148 179.2 147 178.3 147 177.1C147 175.9 148 175 149.1 175Z" fill="#362F9C"/>
<path fill-rule="evenodd" clip-rule="evenodd" d="M173.6 81.3999H190.8C191.9 81.3999 192.9 82.2999 192.9 83.4999C192.9 84.5999 192 85.5999 190.8 85.5999H173.6C172.5 85.5999 171.5 84.6999 171.5 83.4999C171.5 82.2999 172.4 81.3999 173.6 81.3999Z" fill="#362F9C"/>
<path fill-rule="evenodd" clip-rule="evenodd" d="M173.6 175H190.8C191.9 175 192.9 175.9 192.9 177.1C192.9 178.2 192 179.2 190.8 179.2H173.6C172.5 179.2 171.5 178.3 171.5 177.1C171.5 175.9 172.4 175 173.6 175Z" fill="#362F9C"/>
<path fill-rule="evenodd" clip-rule="evenodd" d="M149.1 94.8999H172.3C173.4 94.8999 174.4 95.7999 174.4 96.9999C174.4 98.0999 173.5 99.0999 172.3 99.0999H149.1C148 99.0999 147 98.1999 147 96.9999C147 95.7999 148 94.8999 149.1 94.8999Z" fill="#362F9C"/>
<path fill-rule="evenodd" clip-rule="evenodd" d="M180.4 94.8999H203.6C204.7 94.8999 205.7 95.7999 205.7 96.9999C205.7 98.0999 204.8 99.0999 203.6 99.0999H180.4C179.3 99.0999 178.3 98.1999 178.3 96.9999C178.3 95.7999 179.2 94.8999 180.4 94.8999Z" fill="#362F9C"/>
<path fill-rule="evenodd" clip-rule="evenodd" d="M149.1 105H177.1C178.2 105 179.2 105.9 179.2 107.1C179.2 108.2 178.3 109.2 177.1 109.2H149.1C148 109.2 147 108.3 147 107.1C147 106 148 105 149.1 105Z" fill="#362F9C"/>
<path fill-rule="evenodd" clip-rule="evenodd" d="M185.9 105H213.9C215 105 216 105.9 216 107.1C216 108.2 215.1 109.2 213.9 109.2H185.9C184.8 109.2 183.8 108.3 183.8 107.1C183.9 106 184.8 105 185.9 105Z" fill="#362F9C"/>
<path fill-rule="evenodd" clip-rule="evenodd" d="M149.1 116.5H168C169.1 116.5 170.1 117.4 170.1 118.6C170.1 119.7 169.2 120.7 168 120.7H149.1C148 120.7 147 119.8 147 118.6C147 117.4 148 116.5 149.1 116.5Z" fill="#362F9C"/>
<path fill-rule="evenodd" clip-rule="evenodd" d="M176.1 116.5H195C196.1 116.5 197.1 117.4 197.1 118.6C197.1 119.7 196.2 120.7 195 120.7H176.1C175 120.7 174 119.8 174 118.6C174 117.4 175 116.5 176.1 116.5Z" fill="#362F9C"/>
<path fill-rule="evenodd" clip-rule="evenodd" d="M149.1 129.7H177.1C178.2 129.7 179.2 130.6 179.2 131.8C179.2 132.9 178.3 133.9 177.1 133.9H149.1C148 133.9 147 133 147 131.8C147 130.7 148 129.7 149.1 129.7Z" fill="#362F9C"/>
<path fill-rule="evenodd" clip-rule="evenodd" d="M149.1 154H177.1C178.2 154 179.2 154.9 179.2 156.1C179.2 157.2 178.3 158.2 177.1 158.2H149.1C148 158.2 147 157.3 147 156.1C147 155 148 154 149.1 154Z" fill="#362F9C"/>
<path fill-rule="evenodd" clip-rule="evenodd" d="M185.9 129.7H213.9C215 129.7 216 130.6 216 131.8C216 132.9 215.1 133.9 213.9 133.9H185.9C184.8 133.9 183.8 133 183.8 131.8C183.9 130.7 184.8 129.7 185.9 129.7Z" fill="#362F9C"/>
<path fill-rule="evenodd" clip-rule="evenodd" d="M185.9 154H213.9C215 154 216 154.9 216 156.1C216 157.2 215.1 158.2 213.9 158.2H185.9C184.8 158.2 183.8 157.3 183.8 156.1C183.9 155 184.8 154 185.9 154Z" fill="#362F9C"/>
<path fill-rule="evenodd" clip-rule="evenodd" d="M212.1 141H263C264.1 141 265.1 141.9 265.1 143.1C265.1 144.2 264.2 145.2 263 145.2H212.1C211 145.2 210 144.3 210 143.1C210 142 211 141 212.1 141Z" fill="#362F9C"/>
<path fill-rule="evenodd" clip-rule="evenodd" d="M212.1 165.3H263C264.1 165.3 265.1 166.2 265.1 167.4C265.1 168.5 264.2 169.5 263 169.5H212.1C211 169.5 210 168.6 210 167.4C210 166.3 211 165.3 212.1 165.3Z" fill="#362F9C"/>
<path fill-rule="evenodd" clip-rule="evenodd" d="M212.1 59H275.4C276.5 59 277.5 59.9 277.5 61.1C277.5 62.2 276.6 63.2 275.4 63.2H212.1C211 63.2 210 62.3 210 61.1C210 59.9 211 59 212.1 59Z" fill="#362F9C"/>
<path fill-rule="evenodd" clip-rule="evenodd" d="M212.1 70.2H275.4C276.5 70.2 277.5 71.0999 277.5 72.2999C277.5 73.3999 276.6 74.3999 275.4 74.3999H212.1C211 74.3999 210 73.4999 210 72.2999C210 71.0999 211 70.2 212.1 70.2Z" fill="#362F9C"/>
<path fill-rule="evenodd" clip-rule="evenodd" d="M212.1 81.3999H229.3C230.4 81.3999 231.4 82.2999 231.4 83.4999C231.4 84.5999 230.5 85.5999 229.3 85.5999H212.1C211 85.5999 210 84.6999 210 83.4999C210 82.2999 211 81.3999 212.1 81.3999Z" fill="#362F9C"/>
<path fill-rule="evenodd" clip-rule="evenodd" d="M212.1 175H229.3C230.4 175 231.4 175.9 231.4 177.1C231.4 178.2 230.5 179.2 229.3 179.2H212.1C211 179.2 210 178.3 210 177.1C210 175.9 211 175 212.1 175Z" fill="#362F9C"/>
<path fill-rule="evenodd" clip-rule="evenodd" d="M236.6 81.3999H253.8C254.9 81.3999 255.9 82.2999 255.9 83.4999C255.9 84.5999 255 85.5999 253.8 85.5999H236.6C235.5 85.5999 234.5 84.6999 234.5 83.4999C234.5 82.2999 235.4 81.3999 236.6 81.3999Z" fill="#362F9C"/>
<path fill-rule="evenodd" clip-rule="evenodd" d="M236.6 175H253.8C254.9 175 255.9 175.9 255.9 177.1C255.9 178.2 255 179.2 253.8 179.2H236.6C235.5 179.2 234.5 178.3 234.5 177.1C234.5 175.9 235.4 175 236.6 175Z" fill="#362F9C"/>
<path fill-rule="evenodd" clip-rule="evenodd" d="M212.1 94.8999H235.3C236.4 94.8999 237.4 95.7999 237.4 96.9999C237.4 98.0999 236.5 99.0999 235.3 99.0999H212.1C211 99.0999 210 98.1999 210 96.9999C210 95.7999 211 94.8999 212.1 94.8999Z" fill="#362F9C"/>
<path fill-rule="evenodd" clip-rule="evenodd" d="M243.4 94.8999H266.6C267.7 94.8999 268.7 95.7999 268.7 96.9999C268.7 98.0999 267.8 99.0999 266.6 99.0999H243.4C242.3 99.0999 241.3 98.1999 241.3 96.9999C241.3 95.7999 242.2 94.8999 243.4 94.8999Z" fill="#362F9C"/>
<path fill-rule="evenodd" clip-rule="evenodd" d="M212.1 105H240.1C241.2 105 242.2 105.9 242.2 107.1C242.2 108.2 241.3 109.2 240.1 109.2H212.1C211 109.2 210 108.3 210 107.1C210 106 211 105 212.1 105Z" fill="#362F9C"/>
<path fill-rule="evenodd" clip-rule="evenodd" d="M248.9 105H276.9C278 105 279 105.9 279 107.1C279 108.2 278.1 109.2 276.9 109.2H248.9C247.8 109.2 246.8 108.3 246.8 107.1C246.9 106 247.8 105 248.9 105Z" fill="#362F9C"/>
<path fill-rule="evenodd" clip-rule="evenodd" d="M212.1 116.5H231C232.1 116.5 233.1 117.4 233.1 118.6C233.1 119.7 232.2 120.7 231 120.7H212.1C211 120.7 210 119.8 210 118.6C210 117.4 211 116.5 212.1 116.5Z" fill="#362F9C"/>
<path fill-rule="evenodd" clip-rule="evenodd" d="M239.1 116.5H258C259.1 116.5 260.1 117.4 260.1 118.6C260.1 119.7 259.2 120.7 258 120.7H239.1C238 120.7 237 119.8 237 118.6C237 117.4 238 116.5 239.1 116.5Z" fill="#362F9C"/>
<path fill-rule="evenodd" clip-rule="evenodd" d="M212.1 129.7H240.1C241.2 129.7 242.2 130.6 242.2 131.8C242.2 132.9 241.3 133.9 240.1 133.9H212.1C211 133.9 210 133 210 131.8C210 130.7 211 129.7 212.1 129.7Z" fill="#362F9C"/>
<path fill-rule="evenodd" clip-rule="evenodd" d="M212.1 154H240.1C241.2 154 242.2 154.9 242.2 156.1C242.2 157.2 241.3 158.2 240.1 158.2H212.1C211 158.2 210 157.3 210 156.1C210 155 211 154 212.1 154Z" fill="#362F9C"/>
<path fill-rule="evenodd" clip-rule="evenodd" d="M248.9 129.7H276.9C278 129.7 279 130.6 279 131.8C279 132.9 278.1 133.9 276.9 133.9H248.9C247.8 133.9 246.8 133 246.8 131.8C246.9 130.7 247.8 129.7 248.9 129.7Z" fill="#362F9C"/>
<path fill-rule="evenodd" clip-rule="evenodd" d="M248.9 154H276.9C278 154 279 154.9 279 156.1C279 157.2 278.1 158.2 276.9 158.2H248.9C247.8 158.2 246.8 157.3 246.8 156.1C246.9 155 247.8 154 248.9 154Z" fill="#362F9C"/>
</g>
<g clip-path="url(#clip1)">
<path d="M245.326 118.551C245.102 118.888 244.877 119.225 244.765 119.562C244.091 120.684 243.305 121.583 242.519 122.481C241.62 123.38 240.722 124.166 239.824 124.84C236.23 127.422 231.963 128.545 228.257 127.535C227.358 127.31 226.572 126.973 225.786 126.524C225 126.075 224.326 125.513 223.652 124.952C219.273 120.684 218.711 112.599 222.754 105.636C225.674 100.471 230.39 97.1016 235.107 96.4278C237.69 95.9786 240.16 96.4278 242.406 97.6631C244.652 98.8984 246.225 100.92 247.123 103.278C247.46 104.064 247.684 104.738 247.797 105.636C248.021 106.759 248.134 107.882 248.134 109.118C248.134 111.476 247.572 113.947 246.561 116.305C246.112 117.091 245.775 117.877 245.326 118.551Z" fill="#F8C44A"/>
<path d="M248.021 101.93C247.797 102.38 247.46 102.829 247.011 103.278C246.112 100.92 244.428 98.8984 242.294 97.6631C240.048 96.4278 237.578 95.9786 234.995 96.4278C235.107 95.8663 235.332 95.4171 235.668 94.9679C236.904 92.8342 239.15 91.4866 241.396 91.3743C242.406 91.262 243.529 91.4866 244.54 91.9358C244.765 92.0481 245.102 92.1604 245.326 92.385C245.551 92.4973 245.775 92.7219 246 92.8342C246.898 93.508 247.572 94.2941 248.134 95.3048C249.257 97.2139 249.257 99.7968 248.021 101.93Z" fill="#E8A200"/>
<path d="M249.481 92.9465L248.246 95.1925C247.797 94.2941 247.011 93.3957 246.112 92.7219L246.898 91.4866C247.348 90.8128 248.246 90.4759 248.92 90.9251C249.257 91.1497 249.481 91.4866 249.594 91.8235C249.706 92.1604 249.706 92.6096 249.481 92.9465Z" fill="#49444F"/>
<path d="M245.326 90.5882L244.54 91.8235C243.529 91.3743 242.406 91.262 241.396 91.262L242.631 89.016C243.08 88.2299 243.979 88.0053 244.652 88.4545C244.989 88.6791 245.214 89.016 245.326 89.3529C245.551 89.8021 245.551 90.2513 245.326 90.5882Z" fill="#49444F"/>
<path d="M262.62 98.6737L257.567 107.433C257.23 107.882 256.781 108.219 256.219 108.331L248.021 109.005C248.021 107.77 247.909 106.647 247.684 105.524L254.984 104.963L259.588 96.9892C260.037 96.2032 261.16 95.8663 261.947 96.3155C262.845 96.7647 263.07 97.8876 262.62 98.6737Z" fill="#B12DE8"/>
<path d="M244.989 129.556L239.936 138.316C239.487 139.102 238.364 139.439 237.578 138.989C236.791 138.54 236.455 137.417 236.904 136.631L241.508 128.658L239.711 124.952C240.722 124.278 241.62 123.492 242.406 122.594L244.989 127.984C245.326 128.433 245.326 129.107 244.989 129.556Z" fill="#B12DE8"/>
<path d="M260.599 116.754L254.422 120.46C254.086 120.684 253.636 120.684 253.299 120.684L244.877 119.561C245.102 119.225 245.326 118.888 245.551 118.551C246 117.765 246.337 117.091 246.674 116.305L253.299 117.203L259.027 113.834C259.813 113.385 260.936 113.61 261.385 114.396C261.61 115.182 261.385 116.305 260.599 116.754Z" fill="#B12DE8"/>
<path d="M231.064 80.7059L226.011 89.4652C225.674 89.9144 225.674 90.5882 226.011 91.0374L229.604 98.4492C230.615 97.7754 231.738 97.3262 232.749 96.9893L229.604 90.3636L234.209 82.3904C234.658 81.6043 234.433 80.4813 233.535 80.0321C232.636 79.5829 231.513 79.8075 231.064 80.7059Z" fill="#B12DE8"/>
<path d="M213.433 111.476L208.38 120.235C207.93 121.021 208.155 122.144 209.053 122.594C209.84 123.043 210.963 122.818 211.412 121.92L216.016 113.946L220.171 113.61C220.283 112.487 220.508 111.251 220.845 110.016L214.893 110.465C214.219 110.69 213.658 111.027 213.433 111.476Z" fill="#B12DE8"/>
<path d="M216.578 91.5989V98.7861C216.578 99.2353 216.69 99.5722 216.914 99.9091L222.193 106.647C222.417 106.31 222.529 105.973 222.754 105.636C223.203 104.85 223.652 104.176 224.102 103.503L219.947 98.2246V91.5989C219.947 90.5882 219.16 89.8021 218.262 89.8021C217.364 89.9144 216.578 90.7005 216.578 91.5989Z" fill="#B12DE8"/>
<path d="M283.733 104.289H277.668C275.647 84.2995 259.701 68.3529 239.711 66.3316V60.2674C239.711 59.1444 239.262 58.0214 238.476 57.2353C237.69 56.4492 236.679 56 235.556 56C233.198 56 231.289 57.9091 231.289 60.2674V66.3316C211.187 68.2406 195.353 84.1872 193.332 104.289H187.267C186.144 104.289 185.021 104.738 184.235 105.524C183.449 106.31 183 107.321 183 108.556C183 110.914 184.909 112.824 187.267 112.824H193.332C195.353 132.925 211.299 148.872 231.289 150.781V156.845C231.289 157.968 231.738 159.091 232.524 159.877C233.31 160.663 234.321 161.112 235.556 161.112C237.914 161.112 239.824 159.203 239.824 156.845V150.781C259.925 148.759 275.872 132.813 277.781 112.824H283.845C284.968 112.824 286.091 112.374 286.877 111.588C287.663 110.802 288.112 109.791 288.112 108.556C288 106.198 286.091 104.289 283.733 104.289ZM239.711 145.278V134.16C239.711 133.037 239.262 131.914 238.476 131.128C237.69 130.342 236.679 129.893 235.444 129.893C233.086 129.893 231.176 131.802 231.176 134.16V145.278C214.107 143.369 200.631 129.781 198.722 112.824H209.84C210.963 112.824 212.086 112.374 212.872 111.588C213.658 110.802 214.107 109.791 214.107 108.556C214.107 106.198 212.198 104.289 209.84 104.289H198.722C200.743 87.2193 214.219 73.7433 231.289 71.8342V82.9519C231.289 84.0749 231.738 85.1979 232.524 85.984C233.31 86.7701 234.321 87.2193 235.556 87.2193C237.914 87.2193 239.824 85.3102 239.824 82.9519V71.8342C256.781 73.7433 270.257 87.2193 272.278 104.289H261.16C260.037 104.289 258.914 104.738 258.128 105.524C257.342 106.31 256.893 107.321 256.893 108.556C256.893 110.914 258.802 112.824 261.16 112.824H272.278C270.257 129.781 256.781 143.257 239.711 145.278Z" fill="#C5E9F2"/>
</g>
<path d="M70 39C70 34.5817 73.5817 31 78 31H288C292.418 31 296 34.5817 296 39V43.1848H70V39Z" fill="#F6CD40"/>
<circle cx="263.685" cy="37.0925" r="2.68456" fill="#31C5FF"/>
<circle cx="271.729" cy="37.0925" r="2.68456" fill="#FC3E54"/>
<circle cx="279.729" cy="37.0925" r="2.68456" fill="#03E59F"/>
<rect x="85" y="102" width="55" height="38" rx="4" fill="#48C4FF"/>
<rect x="85" y="58" width="55" height="38" rx="4" fill="#03E59F"/>
<rect x="85" y="146" width="55" height="38" rx="4" fill="#FC3E54"/>
<path d="M128.2 63.7H97.8C97.2961 63.7 96.8128 63.9001 96.4565 64.2564C96.1002 64.6128 95.9 65.096 95.9 65.6V88.4C95.9 88.9039 96.1002 89.3871 96.4565 89.7435C96.8128 90.0998 97.2961 90.3 97.8 90.3H128.2C128.704 90.3 129.187 90.0998 129.543 89.7435C129.9 89.3871 130.1 88.9039 130.1 88.4V65.6C130.1 65.096 129.9 64.6128 129.543 64.2564C129.187 63.9001 128.704 63.7 128.2 63.7ZM119.175 70.35C119.805 70.35 120.409 70.6002 120.854 71.0456C121.3 71.491 121.55 72.0951 121.55 72.725C121.55 73.3548 121.3 73.9589 120.854 74.4043C120.409 74.8497 119.805 75.1 119.175 75.1C118.545 75.1 117.941 74.8497 117.496 74.4043C117.05 73.9589 116.8 73.3548 116.8 72.725C116.8 72.0951 117.05 71.491 117.496 71.0456C117.941 70.6002 118.545 70.35 119.175 70.35ZM101.6 84.6L107.897 70.1239L115.058 81.7177L121.197 78.6682L124.4 84.6H101.6Z" fill="white"/>
<path d="M128.2 107.7H97.8C97.2961 107.7 96.8128 107.9 96.4565 108.256C96.1002 108.613 95.9 109.096 95.9 109.6V132.4C95.9 132.904 96.1002 133.387 96.4565 133.743C96.8128 134.1 97.2961 134.3 97.8 134.3H128.2C128.704 134.3 129.187 134.1 129.543 133.743C129.9 133.387 130.1 132.904 130.1 132.4V109.6C130.1 109.096 129.9 108.613 129.543 108.256C129.187 107.9 128.704 107.7 128.2 107.7ZM119.175 114.35C119.805 114.35 120.409 114.6 120.854 115.046C121.3 115.491 121.55 116.095 121.55 116.725C121.55 117.355 121.3 117.959 120.854 118.404C120.409 118.85 119.805 119.1 119.175 119.1C118.545 119.1 117.941 118.85 117.496 118.404C117.05 117.959 116.8 117.355 116.8 116.725C116.8 116.095 117.05 115.491 117.496 115.046C117.941 114.6 118.545 114.35 119.175 114.35ZM101.6 128.6L107.897 114.124L115.058 125.718L121.197 122.668L124.4 128.6H101.6Z" fill="white"/>
<path d="M127.3 152H96.9C96.3961 152 95.9128 152.2 95.5565 152.556C95.2002 152.913 95 153.396 95 153.9V176.7C95 177.204 95.2002 177.687 95.5565 178.044C95.9128 178.4 96.3961 178.6 96.9 178.6H127.3C127.804 178.6 128.287 178.4 128.644 178.044C129 177.687 129.2 177.204 129.2 176.7V153.9C129.2 153.396 129 152.913 128.644 152.556C128.287 152.2 127.804 152 127.3 152ZM118.275 158.65C118.905 158.65 119.509 158.9 119.954 159.346C120.4 159.791 120.65 160.395 120.65 161.025C120.65 161.655 120.4 162.259 119.954 162.704C119.509 163.15 118.905 163.4 118.275 163.4C117.645 163.4 117.041 163.15 116.596 162.704C116.15 162.259 115.9 161.655 115.9 161.025C115.9 160.395 116.15 159.791 116.596 159.346C117.041 158.9 117.645 158.65 118.275 158.65ZM100.7 172.9L106.997 158.424L114.158 170.018L120.297 166.968L123.5 172.9H100.7Z" fill="white"/>
<path fill-rule="evenodd" clip-rule="evenodd" d="M2.99992 216.793C4.07244 227.539 14.728 236 27.8399 236H337.934C351.053 236 361.701 227.539 362.779 216.793H2.99992Z" fill="#EFEFEF"/>
<path fill-rule="evenodd" clip-rule="evenodd" d="M135.462 223.201H230.317V216.792H135.462V223.201Z" fill="#CCCCCC"/>
</g>
</g>
<defs>
<filter id="filter0_d" x="0" y="0" width="366" height="241" filterUnits="userSpaceOnUse" color-interpolation-filters="sRGB">
<feFlood flood-opacity="0" result="BackgroundImageFix"/>
<feColorMatrix in="SourceAlpha" type="matrix" values="0 0 0 0 0 0 0 0 0 0 0 0 0 0 0 0 0 0 127 0"/>
<feOffset dy="2"/>
<feGaussianBlur stdDeviation="1.5"/>
<feColorMatrix type="matrix" values="0 0 0 0 0 0 0 0 0 0 0 0 0 0 0 0 0 0 0.15 0"/>
<feBlend mode="normal" in2="BackgroundImageFix" result="effect1_dropShadow"/>
<feBlend mode="normal" in="SourceGraphic" in2="effect1_dropShadow" result="shape"/>
</filter>
<clipPath id="clip0">
<rect x="3" y="1" width="360" height="235" fill="white"/>
</clipPath>
<clipPath id="clip1">
<rect x="183" y="56" width="105" height="105" fill="white"/>
</clipPath>
</defs>
</svg>
