<svg width="366" height="241" viewBox="0 0 366 241" fill="none" xmlns="http://www.w3.org/2000/svg">
<g filter="url(#filter0_d)">
<g clip-path="url(#clip0)">
<mask id="mask0" mask-type="alpha" maskUnits="userSpaceOnUse" x="39" y="1" width="288" height="223">
<path fill-rule="evenodd" clip-rule="evenodd" d="M39.1156 1.30078H326.667V223.201H39.1156V1.30078Z" fill="white"/>
</mask>
<g mask="url(#mask0)">
<path fill-rule="evenodd" clip-rule="evenodd" d="M326.667 214.655C326.667 219.384 323.046 223.201 318.594 223.201H47.1853C42.7336 223.201 39.1156 219.384 39.1156 214.655V9.84867C39.1156 5.12018 42.7336 1.30005 47.1853 1.30005H318.594C323.046 1.30005 326.667 5.12018 326.667 9.84867V214.655Z" fill="white"/>
</g>
<mask id="mask1" mask-type="alpha" maskUnits="userSpaceOnUse" x="3" y="1" width="360" height="236">
<path fill-rule="evenodd" clip-rule="evenodd" d="M3 236H362.778V1.30078H3V236Z" fill="white"/>
</mask>
<g mask="url(#mask1)">
<path fill-rule="evenodd" clip-rule="evenodd" d="M52 203.755H313.35V16H52V203.755Z" fill="#191551"/>
<path fill-rule="evenodd" clip-rule="evenodd" d="M2.99992 216.793C4.07244 227.539 14.728 236 27.8399 236H337.934C351.053 236 361.701 227.539 362.779 216.793H2.99992Z" fill="#EFEFEF"/>
<path fill-rule="evenodd" clip-rule="evenodd" d="M135.462 223.201H230.317V216.793H135.462V223.201Z" fill="#CCCCCC"/>
</g>
<path d="M71 39C71 34.5817 74.5817 31 79 31H289C293.418 31 297 34.5817 297 39V203.754H71V39Z" fill="#2C267D"/>
<path fill-rule="evenodd" clip-rule="evenodd" d="M150.1 141H201C202.1 141 203.1 141.9 203.1 143.1C203.1 144.2 202.2 145.2 201 145.2H150.1C149 145.2 148 144.3 148 143.1C148 142 149 141 150.1 141Z" fill="#362F9C"/>
<path fill-rule="evenodd" clip-rule="evenodd" d="M150.1 165.3H201C202.1 165.3 203.1 166.2 203.1 167.4C203.1 168.5 202.2 169.5 201 169.5H150.1C149 169.5 148 168.6 148 167.4C148 166.3 149 165.3 150.1 165.3Z" fill="#362F9C"/>
<path fill-rule="evenodd" clip-rule="evenodd" d="M150.1 59H213.4C214.5 59 215.5 59.9 215.5 61.1C215.5 62.2 214.6 63.2 213.4 63.2H150.1C149 63.2 148 62.3 148 61.1C148 59.9 149 59 150.1 59Z" fill="#362F9C"/>
<path fill-rule="evenodd" clip-rule="evenodd" d="M150.1 70.2H213.4C214.5 70.2 215.5 71.0999 215.5 72.2999C215.5 73.3999 214.6 74.3999 213.4 74.3999H150.1C149 74.3999 148 73.4999 148 72.2999C148 71.0999 149 70.2 150.1 70.2Z" fill="#362F9C"/>
<path fill-rule="evenodd" clip-rule="evenodd" d="M150.1 81.3999H167.3C168.4 81.3999 169.4 82.2999 169.4 83.4999C169.4 84.5999 168.5 85.5999 167.3 85.5999H150.1C149 85.5999 148 84.6999 148 83.4999C148 82.2999 149 81.3999 150.1 81.3999Z" fill="#362F9C"/>
<path fill-rule="evenodd" clip-rule="evenodd" d="M150.1 175H167.3C168.4 175 169.4 175.9 169.4 177.1C169.4 178.2 168.5 179.2 167.3 179.2H150.1C149 179.2 148 178.3 148 177.1C148 175.9 149 175 150.1 175Z" fill="#362F9C"/>
<path fill-rule="evenodd" clip-rule="evenodd" d="M174.6 81.3999H191.8C192.9 81.3999 193.9 82.2999 193.9 83.4999C193.9 84.5999 193 85.5999 191.8 85.5999H174.6C173.5 85.5999 172.5 84.6999 172.5 83.4999C172.5 82.2999 173.4 81.3999 174.6 81.3999Z" fill="#362F9C"/>
<path fill-rule="evenodd" clip-rule="evenodd" d="M174.6 175H191.8C192.9 175 193.9 175.9 193.9 177.1C193.9 178.2 193 179.2 191.8 179.2H174.6C173.5 179.2 172.5 178.3 172.5 177.1C172.5 175.9 173.4 175 174.6 175Z" fill="#362F9C"/>
<path fill-rule="evenodd" clip-rule="evenodd" d="M150.1 94.8999H173.3C174.4 94.8999 175.4 95.7999 175.4 96.9999C175.4 98.0999 174.5 99.0999 173.3 99.0999H150.1C149 99.0999 148 98.1999 148 96.9999C148 95.7999 149 94.8999 150.1 94.8999Z" fill="#362F9C"/>
<path fill-rule="evenodd" clip-rule="evenodd" d="M181.4 94.8999H204.6C205.7 94.8999 206.7 95.7999 206.7 96.9999C206.7 98.0999 205.8 99.0999 204.6 99.0999H181.4C180.3 99.0999 179.3 98.1999 179.3 96.9999C179.3 95.7999 180.2 94.8999 181.4 94.8999Z" fill="#362F9C"/>
<path fill-rule="evenodd" clip-rule="evenodd" d="M150.1 105H178.1C179.2 105 180.2 105.9 180.2 107.1C180.2 108.2 179.3 109.2 178.1 109.2H150.1C149 109.2 148 108.3 148 107.1C148 106 149 105 150.1 105Z" fill="#362F9C"/>
<path fill-rule="evenodd" clip-rule="evenodd" d="M186.9 105H214.9C216 105 217 105.9 217 107.1C217 108.2 216.1 109.2 214.9 109.2H186.9C185.8 109.2 184.8 108.3 184.8 107.1C184.9 106 185.8 105 186.9 105Z" fill="#362F9C"/>
<path fill-rule="evenodd" clip-rule="evenodd" d="M150.1 116.5H169C170.1 116.5 171.1 117.4 171.1 118.6C171.1 119.7 170.2 120.7 169 120.7H150.1C149 120.7 148 119.8 148 118.6C148 117.4 149 116.5 150.1 116.5Z" fill="#362F9C"/>
<path fill-rule="evenodd" clip-rule="evenodd" d="M177.1 116.5H196C197.1 116.5 198.1 117.4 198.1 118.6C198.1 119.7 197.2 120.7 196 120.7H177.1C176 120.7 175 119.8 175 118.6C175 117.4 176 116.5 177.1 116.5Z" fill="#362F9C"/>
<path fill-rule="evenodd" clip-rule="evenodd" d="M150.1 129.7H178.1C179.2 129.7 180.2 130.6 180.2 131.8C180.2 132.9 179.3 133.9 178.1 133.9H150.1C149 133.9 148 133 148 131.8C148 130.7 149 129.7 150.1 129.7Z" fill="#362F9C"/>
<path fill-rule="evenodd" clip-rule="evenodd" d="M150.1 154H178.1C179.2 154 180.2 154.9 180.2 156.1C180.2 157.2 179.3 158.2 178.1 158.2H150.1C149 158.2 148 157.3 148 156.1C148 155 149 154 150.1 154Z" fill="#362F9C"/>
<path fill-rule="evenodd" clip-rule="evenodd" d="M186.9 129.7H214.9C216 129.7 217 130.6 217 131.8C217 132.9 216.1 133.9 214.9 133.9H186.9C185.8 133.9 184.8 133 184.8 131.8C184.9 130.7 185.8 129.7 186.9 129.7Z" fill="#362F9C"/>
<path fill-rule="evenodd" clip-rule="evenodd" d="M186.9 154H214.9C216 154 217 154.9 217 156.1C217 157.2 216.1 158.2 214.9 158.2H186.9C185.8 158.2 184.8 157.3 184.8 156.1C184.9 155 185.8 154 186.9 154Z" fill="#362F9C"/>
<path fill-rule="evenodd" clip-rule="evenodd" d="M213.1 141H264C265.1 141 266.1 141.9 266.1 143.1C266.1 144.2 265.2 145.2 264 145.2H213.1C212 145.2 211 144.3 211 143.1C211 142 212 141 213.1 141Z" fill="#362F9C"/>
<path fill-rule="evenodd" clip-rule="evenodd" d="M213.1 165.3H264C265.1 165.3 266.1 166.2 266.1 167.4C266.1 168.5 265.2 169.5 264 169.5H213.1C212 169.5 211 168.6 211 167.4C211 166.3 212 165.3 213.1 165.3Z" fill="#362F9C"/>
<path fill-rule="evenodd" clip-rule="evenodd" d="M213.1 59H276.4C277.5 59 278.5 59.9 278.5 61.1C278.5 62.2 277.6 63.2 276.4 63.2H213.1C212 63.2 211 62.3 211 61.1C211 59.9 212 59 213.1 59Z" fill="#362F9C"/>
<path fill-rule="evenodd" clip-rule="evenodd" d="M213.1 70.2H276.4C277.5 70.2 278.5 71.0999 278.5 72.2999C278.5 73.3999 277.6 74.3999 276.4 74.3999H213.1C212 74.3999 211 73.4999 211 72.2999C211 71.0999 212 70.2 213.1 70.2Z" fill="#362F9C"/>
<path fill-rule="evenodd" clip-rule="evenodd" d="M213.1 81.3999H230.3C231.4 81.3999 232.4 82.2999 232.4 83.4999C232.4 84.5999 231.5 85.5999 230.3 85.5999H213.1C212 85.5999 211 84.6999 211 83.4999C211 82.2999 212 81.3999 213.1 81.3999Z" fill="#362F9C"/>
<path fill-rule="evenodd" clip-rule="evenodd" d="M213.1 175H230.3C231.4 175 232.4 175.9 232.4 177.1C232.4 178.2 231.5 179.2 230.3 179.2H213.1C212 179.2 211 178.3 211 177.1C211 175.9 212 175 213.1 175Z" fill="#362F9C"/>
<path fill-rule="evenodd" clip-rule="evenodd" d="M237.6 81.3999H254.8C255.9 81.3999 256.9 82.2999 256.9 83.4999C256.9 84.5999 256 85.5999 254.8 85.5999H237.6C236.5 85.5999 235.5 84.6999 235.5 83.4999C235.5 82.2999 236.4 81.3999 237.6 81.3999Z" fill="#362F9C"/>
<path fill-rule="evenodd" clip-rule="evenodd" d="M237.6 175H254.8C255.9 175 256.9 175.9 256.9 177.1C256.9 178.2 256 179.2 254.8 179.2H237.6C236.5 179.2 235.5 178.3 235.5 177.1C235.5 175.9 236.4 175 237.6 175Z" fill="#362F9C"/>
<path fill-rule="evenodd" clip-rule="evenodd" d="M213.1 94.8999H236.3C237.4 94.8999 238.4 95.7999 238.4 96.9999C238.4 98.0999 237.5 99.0999 236.3 99.0999H213.1C212 99.0999 211 98.1999 211 96.9999C211 95.7999 212 94.8999 213.1 94.8999Z" fill="#362F9C"/>
<path fill-rule="evenodd" clip-rule="evenodd" d="M244.4 94.8999H267.6C268.7 94.8999 269.7 95.7999 269.7 96.9999C269.7 98.0999 268.8 99.0999 267.6 99.0999H244.4C243.3 99.0999 242.3 98.1999 242.3 96.9999C242.3 95.7999 243.2 94.8999 244.4 94.8999Z" fill="#362F9C"/>
<path fill-rule="evenodd" clip-rule="evenodd" d="M213.1 105H241.1C242.2 105 243.2 105.9 243.2 107.1C243.2 108.2 242.3 109.2 241.1 109.2H213.1C212 109.2 211 108.3 211 107.1C211 106 212 105 213.1 105Z" fill="#362F9C"/>
<path fill-rule="evenodd" clip-rule="evenodd" d="M249.9 105H277.9C279 105 280 105.9 280 107.1C280 108.2 279.1 109.2 277.9 109.2H249.9C248.8 109.2 247.8 108.3 247.8 107.1C247.9 106 248.8 105 249.9 105Z" fill="#362F9C"/>
<path fill-rule="evenodd" clip-rule="evenodd" d="M213.1 116.5H232C233.1 116.5 234.1 117.4 234.1 118.6C234.1 119.7 233.2 120.7 232 120.7H213.1C212 120.7 211 119.8 211 118.6C211 117.4 212 116.5 213.1 116.5Z" fill="#362F9C"/>
<path fill-rule="evenodd" clip-rule="evenodd" d="M240.1 116.5H259C260.1 116.5 261.1 117.4 261.1 118.6C261.1 119.7 260.2 120.7 259 120.7H240.1C239 120.7 238 119.8 238 118.6C238 117.4 239 116.5 240.1 116.5Z" fill="#362F9C"/>
<path fill-rule="evenodd" clip-rule="evenodd" d="M213.1 129.7H241.1C242.2 129.7 243.2 130.6 243.2 131.8C243.2 132.9 242.3 133.9 241.1 133.9H213.1C212 133.9 211 133 211 131.8C211 130.7 212 129.7 213.1 129.7Z" fill="#362F9C"/>
<path fill-rule="evenodd" clip-rule="evenodd" d="M213.1 154H241.1C242.2 154 243.2 154.9 243.2 156.1C243.2 157.2 242.3 158.2 241.1 158.2H213.1C212 158.2 211 157.3 211 156.1C211 155 212 154 213.1 154Z" fill="#362F9C"/>
<path fill-rule="evenodd" clip-rule="evenodd" d="M249.9 129.7H277.9C279 129.7 280 130.6 280 131.8C280 132.9 279.1 133.9 277.9 133.9H249.9C248.8 133.9 247.8 133 247.8 131.8C247.9 130.7 248.8 129.7 249.9 129.7Z" fill="#362F9C"/>
<path fill-rule="evenodd" clip-rule="evenodd" d="M249.9 154H277.9C279 154 280 154.9 280 156.1C280 157.2 279.1 158.2 277.9 158.2H249.9C248.8 158.2 247.8 157.3 247.8 156.1C247.9 155 248.8 154 249.9 154Z" fill="#362F9C"/>
<g clip-path="url(#clip1)">
<path fill-rule="evenodd" clip-rule="evenodd" d="M213.819 72.9955C201.963 96.9449 208.24 161.917 212.734 161.995C220.096 162.072 217.772 152.724 222.809 152.647C227.846 152.647 225.056 162.999 230.558 162.999C236.138 162.999 234.51 151.72 241.872 151.565C249.234 151.411 249.312 162.999 254.194 162.69C259.154 162.304 257.294 152.647 262.874 152.183C268.453 151.72 265.896 163.849 274.653 161.995C282.712 160.295 281.627 88.833 271.708 71.064C266.051 60.8662 254.194 55.8446 243.035 55.9991C231.953 56.1536 220.561 61.716 213.819 72.9955Z" fill="url(#paint0_linear)"/>
<path opacity="0.24" fill-rule="evenodd" clip-rule="evenodd" d="M276.203 92.7737C276.203 83.5802 273.646 74.9275 269.229 67.3564C262.952 59.6308 252.723 55.9225 243.036 55.9997C231.954 56.1542 220.562 61.7167 213.82 72.9961C205.761 89.3744 206.071 124.758 208.551 145.617C211.573 146.081 214.75 146.312 217.927 146.312C250.088 146.312 276.203 122.363 276.203 92.7737Z" fill="white"/>
<path fill-rule="evenodd" clip-rule="evenodd" d="M228.621 83.0398C231.411 83.0398 233.658 80.7994 233.658 78.0954C233.658 75.3142 231.411 73.0737 228.621 73.0737C225.831 73.0737 223.661 75.3142 223.661 78.0954C223.661 80.7994 225.831 83.0398 228.621 83.0398Z" fill="#2B348C"/>
<path fill-rule="evenodd" clip-rule="evenodd" d="M257.759 83.0398C260.549 83.0398 262.796 80.7994 262.796 78.0954C262.796 75.3142 260.549 73.0737 257.759 73.0737C254.969 73.0737 252.799 75.3142 252.799 78.0954C252.799 80.7994 255.047 83.0398 257.759 83.0398Z" fill="#2B348C"/>
<path fill-rule="evenodd" clip-rule="evenodd" d="M251.714 84.0442C251.637 89.1431 250.475 92.7742 243.345 92.7742C236.293 92.7742 234.666 89.1431 234.976 84.0442H251.714Z" fill="#FC3E54"/>
<path opacity="0.5" fill-rule="evenodd" clip-rule="evenodd" d="M224.204 68.2064C226.141 70.6014 235.286 65.5025 250.397 66.275C260.239 66.8158 263.494 71.0649 263.106 67.1249C262.796 63.1848 255.822 58.6267 247.995 58.1631C230.093 57.0043 221.879 65.348 224.204 68.2064Z" fill="white"/>
</g>
<path d="M71 39C71 34.5817 74.5817 31 79 31H289C293.418 31 297 34.5817 297 39V43.1848H71V39Z" fill="#F6CD40"/>
<circle cx="264.685" cy="37.0925" r="2.68456" fill="#31C5FF"/>
<circle cx="272.729" cy="37.0925" r="2.68456" fill="#FC3E54"/>
<circle cx="280.729" cy="37.0925" r="2.68456" fill="#03E59F"/>
<rect x="86" y="102" width="55" height="38" rx="4" fill="#48C4FF"/>
<rect x="86" y="58" width="55" height="38" rx="4" fill="#03E59F"/>
<rect x="86" y="146" width="55" height="38" rx="4" fill="#FC3E54"/>
<path d="M129.2 63.7H98.8C98.2961 63.7 97.8128 63.9001 97.4565 64.2564C97.1002 64.6128 96.9 65.096 96.9 65.6V88.4C96.9 88.9039 97.1002 89.3871 97.4565 89.7435C97.8128 90.0998 98.2961 90.3 98.8 90.3H129.2C129.704 90.3 130.187 90.0998 130.543 89.7435C130.9 89.3871 131.1 88.9039 131.1 88.4V65.6C131.1 65.096 130.9 64.6128 130.543 64.2564C130.187 63.9001 129.704 63.7 129.2 63.7ZM120.175 70.35C120.805 70.35 121.409 70.6002 121.854 71.0456C122.3 71.491 122.55 72.0951 122.55 72.725C122.55 73.3548 122.3 73.9589 121.854 74.4043C121.409 74.8497 120.805 75.1 120.175 75.1C119.545 75.1 118.941 74.8497 118.496 74.4043C118.05 73.9589 117.8 73.3548 117.8 72.725C117.8 72.0951 118.05 71.491 118.496 71.0456C118.941 70.6002 119.545 70.35 120.175 70.35ZM102.6 84.6L108.897 70.1239L116.058 81.7177L122.197 78.6682L125.4 84.6H102.6Z" fill="white"/>
<path d="M129.2 107.7H98.8C98.2961 107.7 97.8128 107.9 97.4565 108.256C97.1002 108.613 96.9 109.096 96.9 109.6V132.4C96.9 132.904 97.1002 133.387 97.4565 133.743C97.8128 134.1 98.2961 134.3 98.8 134.3H129.2C129.704 134.3 130.187 134.1 130.543 133.743C130.9 133.387 131.1 132.904 131.1 132.4V109.6C131.1 109.096 130.9 108.613 130.543 108.256C130.187 107.9 129.704 107.7 129.2 107.7ZM120.175 114.35C120.805 114.35 121.409 114.6 121.854 115.046C122.3 115.491 122.55 116.095 122.55 116.725C122.55 117.355 122.3 117.959 121.854 118.404C121.409 118.85 120.805 119.1 120.175 119.1C119.545 119.1 118.941 118.85 118.496 118.404C118.05 117.959 117.8 117.355 117.8 116.725C117.8 116.095 118.05 115.491 118.496 115.046C118.941 114.6 119.545 114.35 120.175 114.35ZM102.6 128.6L108.897 114.124L116.058 125.718L122.197 122.668L125.4 128.6H102.6Z" fill="white"/>
<path d="M128.3 152H97.9C97.3961 152 96.9128 152.2 96.5565 152.556C96.2002 152.913 96 153.396 96 153.9V176.7C96 177.204 96.2002 177.687 96.5565 178.044C96.9128 178.4 97.3961 178.6 97.9 178.6H128.3C128.804 178.6 129.287 178.4 129.644 178.044C130 177.687 130.2 177.204 130.2 176.7V153.9C130.2 153.396 130 152.913 129.644 152.556C129.287 152.2 128.804 152 128.3 152ZM119.275 158.65C119.905 158.65 120.509 158.9 120.954 159.346C121.4 159.791 121.65 160.395 121.65 161.025C121.65 161.655 121.4 162.259 120.954 162.704C120.509 163.15 119.905 163.4 119.275 163.4C118.645 163.4 118.041 163.15 117.596 162.704C117.15 162.259 116.9 161.655 116.9 161.025C116.9 160.395 117.15 159.791 117.596 159.346C118.041 158.9 118.645 158.65 119.275 158.65ZM101.7 172.9L107.997 158.424L115.158 170.018L121.297 166.968L124.5 172.9H101.7Z" fill="white"/>
</g>
</g>
<defs>
<filter id="filter0_d" x="0" y="0" width="366" height="241" filterUnits="userSpaceOnUse" color-interpolation-filters="sRGB">
<feFlood flood-opacity="0" result="BackgroundImageFix"/>
<feColorMatrix in="SourceAlpha" type="matrix" values="0 0 0 0 0 0 0 0 0 0 0 0 0 0 0 0 0 0 127 0"/>
<feOffset dy="2"/>
<feGaussianBlur stdDeviation="1.5"/>
<feColorMatrix type="matrix" values="0 0 0 0 0 0 0 0 0 0 0 0 0 0 0 0 0 0 0.15 0"/>
<feBlend mode="normal" in2="BackgroundImageFix" result="effect1_dropShadow"/>
<feBlend mode="normal" in="SourceGraphic" in2="effect1_dropShadow" result="shape"/>
</filter>
<linearGradient id="paint0_linear" x1="203.844" y1="24.6474" x2="257.13" y2="153.703" gradientUnits="userSpaceOnUse">
<stop stop-color="#EBE9F4"/>
<stop offset="0.3603" stop-color="#E9E6F2"/>
<stop offset="0.607" stop-color="#E1DDEB"/>
<stop offset="0.8189" stop-color="#D3CEE0"/>
<stop offset="1" stop-color="#C2BAD2"/>
</linearGradient>
<clipPath id="clip0">
<rect x="3" y="1" width="360" height="235" fill="white"/>
</clipPath>
<clipPath id="clip1">
<rect x="207" y="56" width="73" height="107" fill="white"/>
</clipPath>
</defs>
</svg>
