<?xml version="1.0" encoding="UTF-8"?>
<svg width="45px" height="45px" viewBox="0 0 45 45" version="1.1" xmlns="http://www.w3.org/2000/svg" xmlns:xlink="http://www.w3.org/1999/xlink">
    <!-- Generator: Sketch 54.1 (76490) - https://sketchapp.com -->
    <title>WhatsApp</title>
    <desc>Created with Sketch.</desc>
    <defs>
        <polygon id="path-1" points="3.01675978e-05 0 26.9016536 0 26.9016536 26.960835 3.01675978e-05 26.960835"></polygon>
    </defs>
    <g id="HP" stroke="none" stroke-width="1" fill="none" fill-rule="evenodd">
        <g transform="translate(-936.000000, -7618.000000)" id="Footer">
            <g transform="translate(0.000000, 7484.000000)">
                <g id="WhatsApp" transform="translate(936.000000, 134.000000)">
                    <circle id="Oval" fill="#25D366" cx="22.5" cy="22.5" r="22.5"></circle>
                    <g id="Group-3" transform="translate(9.000000, 9.000000)">
                        <mask id="mask-2" fill="white">
                            <use xlink:href="#path-1"></use>
                        </mask>
                        <g id="Clip-2"></g>
                        <path d="M19.887114,16.117335 C19.5560246,15.937035 17.9298402,15.064185 17.6248458,14.940885 C17.3198514,14.817885 17.0975162,14.753685 16.8597955,15.080985 C16.6222257,15.407385 15.9476782,16.138485 15.7431419,16.354935 C15.5378514,16.571385 15.3402536,16.591635 15.0090134,16.410885 C14.6788291,16.231185 13.6056168,15.836385 12.3609017,14.646585 C11.3925218,13.720635 10.757343,12.598035 10.573019,12.255435 C10.388695,11.912385 10.5718123,11.737635 10.7467844,11.576985 C10.9041084,11.432235 11.0988402,11.197635 11.2748682,11.008335 C11.4502927,10.819185 11.5122872,10.681635 11.6329575,10.462035 C11.7536279,10.242435 11.7050581,10.044585 11.6267732,9.873735 C11.5486391,9.703335 10.9366894,8.028135 10.681019,7.346685 C10.4254994,6.665235 10.1407173,6.766635 9.94387374,6.758835 C9.74718101,6.752085 9.52348827,6.715335 9.29873966,6.707235 C9.07399106,6.698685 8.70534302,6.769185 8.3840581,7.092885 C8.06247151,7.416735 7.16091285,8.195235 7.09891844,9.845235 C7.03677318,11.494185 8.18449944,13.133235 8.34453855,13.362885 C8.50472849,13.592985 10.5362145,17.168535 13.9122704,18.638985 C17.2889296,20.108835 17.3067285,19.660785 17.9262201,19.627785 C18.5460134,19.595385 19.9512201,18.890685 20.2617955,18.118935 C20.5723709,17.346885 20.5972592,16.675785 20.5183709,16.532835 C20.439181,16.389885 20.2179017,16.297185 19.887114,16.117335 M13.694762,24.066135 C11.4622089,24.066135 9.38260559,23.400135 7.64646034,22.258485 L3.42148827,23.603385 L4.79471732,19.543635 C3.47865587,17.740785 2.70108603,15.526335 2.70108603,13.133235 C2.70108603,7.104435 7.63303575,2.199735 13.694762,2.199735 C19.7575441,2.199735 24.6891922,7.104435 24.6891922,13.133235 C24.6891922,19.161735 19.7575441,24.066135 13.694762,24.066135 M13.694762,-1.5e-05 C6.40144358,-1.5e-05 0.488745251,5.879685 0.488745251,13.133235 C0.488745251,15.614385 1.18109162,17.935185 2.38357207,19.914735 L3.01675978e-05,26.960835 L7.31175084,24.632985 C9.20386257,25.673235 11.3797006,26.266635 13.694762,26.266635 C20.9892872,26.266635 26.9016838,20.386185 26.9016838,13.133235 C26.9016838,5.879685 20.9892872,-1.5e-05 13.694762,-1.5e-05" id="Fill-1" fill="#FFFFFF" mask="url(#mask-2)"></path>
                    </g>
                </g>
            </g>
        </g>
    </g>
</svg>